<svg width="196" height="215" viewBox="0 0 196 215" fill="none" xmlns="http://www.w3.org/2000/svg">
  <path d="M89.4498 214.475H107.425V133.325C104.675 134.575 101.65 135.3 98.4248 135.3C95.1998 135.3 92.1748 134.575 89.4248 133.325V214.475H89.4498Z" fill="white"/>
  <path d="M89.4496 113.575C89.4496 118.525 93.4996 122.55 98.4496 122.55C103.4 122.55 107.45 118.525 107.45 113.55V95.175H120.2V113.55C120.2 118.5 124.225 122.55 129.2 122.55C134.175 122.55 138.2 118.525 138.2 113.55V95.175H150.95V113.55C150.95 125.55 141.2 135.3 129.2 135.3C126 135.3 122.95 134.575 120.2 133.325V214.475H154.675V210.125C154.675 184.275 151.225 184.15 169.025 165.4C187.925 145.475 198.525 117.6 195.2 87.25C190.275 42.375 154.05 6.075 109.2 1.1C50.1746 -5.45 0.224609 40.575 0.224609 98.275C0.224609 124.05 10.2246 147.425 26.4996 164.875C44.3246 183.95 41.3496 184.05 41.3496 210.15V214.45H76.6996V133.25C73.9246 134.525 70.8496 135.275 67.5996 135.275C55.5996 135.275 45.8496 125.525 45.8496 113.525V95.15H58.5996V113.525C58.5996 118.475 62.6246 122.525 67.5996 122.525C72.5746 122.525 76.5996 118.5 76.5996 113.525V95.15H89.4496V113.525" fill="white"/>
</svg>
