<svg width="488" height="488" viewBox="0 0 488 488" fill="none" xmlns="http://www.w3.org/2000/svg">
  <g clip-path="url(#clip0_126_1663)">
    <rect width="488" height="488" fill="#FFB612" />
    <path d="M223.089 282.479H188.66V294.898H223.089V282.479Z" fill="black" />
    <path d="M299.364 282.479H266.155V294.898H299.364V282.479Z" fill="black" />
    <path d="M299.339 307.342V319.786H266.155V307.342H299.339Z" fill="black" />
    <path d="M223.089 307.342H188.66V319.786H223.089V307.342Z" fill="black" />
    <path
      d="M188.66 332.23H223.089V371.27C223.089 388.082 229.579 395.255 244.829 395.255C258.981 395.255 266.155 387.325 266.155 371.685V332.23H299.363V372.295C299.363 405.528 277.403 427.024 243.414 427.024C207.107 427.024 188.685 409.236 188.685 374.125V332.23H188.66Z"
      fill="black" />
    <path
      d="M235.655 269.839H253.199V190.637C250.515 191.857 247.562 192.564 244.415 192.564C241.267 192.564 238.315 191.857 235.631 190.637V269.839H235.655Z"
      fill="white" />
    <path
      d="M235.655 171.361C235.655 176.192 239.608 180.121 244.439 180.121C249.27 180.121 253.223 176.192 253.223 171.337V153.403H265.667V171.337C265.667 176.168 269.595 180.121 274.451 180.121C279.307 180.121 283.235 176.192 283.235 171.337V153.403H295.679V171.337C295.679 183.049 286.163 192.565 274.451 192.565C271.328 192.565 268.351 191.857 265.667 190.637V269.839H299.314V265.594C299.314 240.364 295.947 240.242 313.32 221.942C331.767 202.495 342.112 175.289 338.867 145.668C334.06 101.87 298.704 66.441 254.931 61.5854C197.322 55.1926 148.571 100.113 148.571 156.428C148.571 181.585 158.331 204.399 174.216 221.43C191.613 240.047 188.709 240.145 188.709 265.618V269.815H223.211V190.564C220.503 191.808 217.501 192.54 214.329 192.54C202.617 192.54 193.101 183.024 193.101 171.312V153.378H205.545V171.312C205.545 176.143 209.474 180.096 214.329 180.096C219.185 180.096 223.113 176.168 223.113 171.312V153.378H235.655V171.312"
      fill="white" />
    <path d="M85.6924 282.479V426.195H173.728V396.036H120.121V282.479H85.6924Z" fill="black" />
    <path
      d="M310.343 426.195H348.407L373.905 382.616L399.598 426.195H439.809L394.401 351.091L436.393 282.479H398.573L376.125 320.884L353.702 282.479H313.515L355.629 352.653L310.343 426.195Z"
      fill="black" />
  </g>
  <defs>
    <clipPath id="clip0_126_1663">
      <rect width="488" height="488" fill="white" />
    </clipPath>
  </defs>
</svg>
