<svg xmlns="http://www.w3.org/2000/svg" width="40" height="40" fill="none" viewBox="0 0 42 42">
  <g class="variant=digid">
    <path fill="#000" stroke="#D1D1D1" d="M35.545.5H6.455A5.955 5.955 0 0 0 .5 6.455v29.09A5.955 5.955 0 0 0 6.455 41.5h29.09a5.954 5.954 0 0 0 5.955-5.955V6.455A5.955 5.955 0 0 0 35.545.5Z" class="background"/>
    <g class="digid">
      <g class="id">
        <path fill="#E17000" d="M25.406 31.362h1.661v-7.303l-1.66.074v7.229Zm1.808-9.331c0-.558-.353-.955-.985-.955-.631 0-.97.44-.97.955 0 .558.339.94.97.94.632 0 .985-.426.985-.94Z"/>
        <path fill="#E17000" fill-rule="evenodd" d="M29.168 21.723v9.639h2.704c3.159 0 5.128-1.616 5.128-5.1 0-2.908-1.807-4.54-5.07-4.54h-2.762Zm2.778 8.184h-1.014v-6.73h.88c2.073 0 3.336 1.088 3.336 3.174 0 2.513-1.263 3.556-3.202 3.556Z" clip-rule="evenodd"/>
      </g>
      <g class="dig">
        <path fill="#fff" d="M16.326 31.362h-1.66v-7.23l1.66-.073v7.303Zm-.837-10.286c.631 0 .984.397.984.955 0 .514-.352.94-.984.94-.633 0-.97-.382-.97-.94 0-.514.338-.955.97-.955Z"/>
        <path fill="#fff" fill-rule="evenodd" d="M5.276 31.362v-9.64H8.04c3.262 0 5.07 1.632 5.07 4.54 0 3.484-1.97 5.1-5.129 5.1H5.276Zm1.764-1.455h1.014c1.94 0 3.203-1.043 3.203-3.556 0-2.086-1.264-3.174-3.335-3.174H7.04v6.73Zm15.046.044h-1.733c-.677 0-.926-.176-.926-.5 0-.176.117-.352.308-.455.28.073.588.118.91.118 2 0 3.087-.838 3.087-2.44 0-.631-.265-1.13-.574-1.366v-.044h1.118v-1.102h-2.352a4.012 4.012 0 0 0-1.116-.147c-1.837 0-3.027.955-3.027 2.718 0 .94.382 1.558 1.043 1.925v.044c-.53.206-.808.632-.808 1.087 0 .426.235.794.573.97v.044c-.72.309-1.102.882-1.102 1.573 0 1.131.955 1.866 3.027 1.866 2.644 0 3.791-1.117 3.791-2.498 0-1.175-.661-1.793-2.219-1.793Zm-1.308-4.76c.926 0 1.41.47 1.41 1.351 0 1.014-.528 1.44-1.44 1.44-.85 0-1.38-.396-1.38-1.337 0-.984.588-1.455 1.41-1.455Zm2.043 6.847c0 .573-.574.97-2.16.97-1.131 0-1.631-.382-1.631-.956 0-.337.117-.572.397-.763l2.409.073c.72.015.985.25.985.676Z" clip-rule="evenodd"/>
      </g>
    </g>
  </g>
</svg>
