<svg width="40" height="40" viewBox="0 0 40 40" fill="none" xmlns="http://www.w3.org/2000/svg">
  <path d="M21.3875 17.4387H25.3988V7.44183H21.3875V17.4387Z" fill="#E1126E"/>
  <path d="M21.3875 31.6278H25.3988V21.3085H21.3875V31.6278Z" fill="#E1126E"/>
  <path d="M35.9887 17.4387V7.44186H40V31.6279H35.9887V21.3085H25.7198L27.6452 17.4387H35.9887Z" fill="#E1126E"/>
  <path d="M0 24.6946V14.3752C0 10.5459 3.08903 7.44189 6.89944 7.44189H18.6125V11.4729H6.57854C5.16078 11.4729 4.0113 12.6279 4.0113 14.0527V24.8558C4.0113 26.2805 5.16078 27.4357 6.57854 27.4357H18.6125V31.6279H6.89944C3.08903 31.6279 0 28.5239 0 24.6946Z" fill="var(--lux-login-method-button-icon-eherkenning-e-color, #203A70)"/>
  <path d="M17.8102 17.4387L15.8848 21.3085H6.90137V17.4387H17.8102Z" fill="var(--lux-login-method-button-icon-eherkenning-e-color, #203A70)"/>
</svg>
