<?xml version="1.0" encoding="UTF-8"?><svg id="Laag_1" xmlns="http://www.w3.org/2000/svg" xmlns:xlink="http://www.w3.org/1999/xlink" viewBox="0 0 64 64"><defs><style>.cls-1{fill:none;}.cls-2{clip-path:url(#clippath);}.cls-3{clip-path:url(#clippath-1);}</style><clipPath id="clippath"><rect class="cls-1" width="64" height="64"/></clipPath><clipPath id="clippath-1"><rect class="cls-1" width="64" height="64"/></clipPath></defs><g class="cls-2"><g class="cls-3"><path d="M32.23,11.75c2.38,.55,4.1-.61,4.69-3.21,.56-2.47-.35-4.5-2.8-5.06-2.32-.53-4.1,.61-4.72,3.34-.55,2.4,.45,4.38,2.83,4.93"/><path d="M53,13c-1.59,0-2.88,1.24-2.98,2.81-.92-.38-1.97-.72-3.15-1.02-1.01,.88-2,1.54-2.96,2.08,3.78,.64,6.17,1.58,6.17,2.63,0,1.7-6.24,3.11-14.52,3.43,.19-1.22,.42-2.41,.64-3.45,.13-.6,.64-1.39,1.18-1.69,2.48-1.36,4.62-1.95,6.97-3.74,2.22-1.69,4.16-3.57,2.76-5.97,0,0-2.37,1.98-5.61,3.67-4.69,2.45-7.37,2.51-9.42,2.14-4.21-.76-6.04-2.77-8.45-6.05-.97-1.32-1.9-2.76-2.7-4.2-1.38,.41-1.58,2.06-1.15,3.87,.3,1.26,2.49,4.62,4.24,6.78,1.09,1.34,1.36,2.21,1.18,3.92-.11,1.04-.37,2.79-.55,4.47-6.31-.55-10.72-1.77-10.72-3.19,0-1.28,3.55-2.39,8.84-3-.11-.29-.25-.57-.45-.81-.34-.42-.79-1.01-1.28-1.68-2.8,.43-5.2,1.05-7.05,1.81-.1-1.57-1.39-2.81-2.98-2.81s-3,1.34-3,3c0,1.11,.61,2.06,1.5,2.58l5.5,26.27c-1.89,.92-3,1.99-3,3.15,0,1.43,1.67,2.74,4.44,3.77l1.6,7.64c.2,.94,1.03,1.59,1.96,1.59,.14,0,.27-.01,.41-.04,1.08-.23,1.77-1.29,1.55-2.37l-1.18-5.62c3.2,.65,7.06,1.03,11.22,1.03s8.02-.38,11.22-1.03l-1.18,5.62c-.23,1.08,.47,2.14,1.55,2.37,.14,.03,.27,.04,.41,.04,.93,0,1.76-.65,1.96-1.59l1.6-7.64c2.77-1.03,4.44-2.34,4.44-3.77,0-1.15-1.11-2.23-3-3.15l5.5-26.27c.89-.52,1.5-1.48,1.5-2.58,0-1.66-1.34-3-3-3m-7.8,30.5c-3.52-.93-8.14-1.5-13.2-1.5-4.4,0-8.45,.43-11.75,1.15l.04,5.54c-.04,.33-.25,.33-.31,.32l-5.21-24.76c4.03,1.68,10.25,2.76,17.23,2.76s13.2-1.08,17.23-2.76l-4.03,19.26Z"/><path d="M23.82,28.7c-.02,1.84,.03,5.11,.57,6.36,.69,1.62,4.28,6.87,7.97,5.01,0,0-2.61-3.8-3.15-5.25-.54-1.46,.21-4.69,.21-4.69,0,0,1.59,4.45,2.9,5.82,1.38,1.45,4.78,3.32,6.92,3.64,2.77,.4,3.77-1.94,3.77-1.94,0,0-5.85-2.67-6.62-4.2-.58-1.16-1.03-3.12-1.27-4.32-1.04,.05-2.08,.07-3.11,.07-2.74,0-5.52-.16-8.18-.5"/></g></g></svg>