<?xml version="1.0" encoding="UTF-8"?><svg id="Laag_1" xmlns="http://www.w3.org/2000/svg" xmlns:xlink="http://www.w3.org/1999/xlink" viewBox="0 0 64 64"><defs><style>.cls-1{fill:none;}.cls-2{clip-path:url(#clippath);}.cls-3{clip-path:url(#clippath-1);}</style><clipPath id="clippath"><rect class="cls-1" width="64" height="64"/></clipPath><clipPath id="clippath-1"><rect class="cls-1" width="64" height="64"/></clipPath></defs><g class="cls-2"><g class="cls-3"><path d="M47.01,10.22c.44,.44,1.16,.44,1.61,0,.44-.44,.44-1.16,0-1.61l-.58-.58c-.44-.44-1.16-.44-1.61,0-.44,.44-.44,1.16,0,1.61l.58,.58Z"/><path d="M44.42,12.81c.44,.44,1.16,.44,1.61,0,.44-.44,.44-1.16,0-1.61l-.58-.58c-.44-.44-1.16-.44-1.61,0-.44,.44-.44,1.16,0,1.61l.58,.58Z"/><path d="M56.02,14.54c-.44-.44-1.16-.44-1.61,0-.44,.44-.44,1.16,0,1.61l.58,.58c.44,.44,1.16,.44,1.61,0,.44-.44,.44-1.16,0-1.61l-.58-.58Z"/><path d="M53.42,17.14c-.44-.44-1.16-.44-1.61,0-.44,.44-.44,1.16,0,1.61l.58,.58c.44,.44,1.16,.44,1.61,0,.44-.44,.44-1.16,0-1.61l-.58-.58Z"/><path d="M56.65,4.6l-4.63,2.13c-.95,.44-1.18,1.7-.44,2.44l.08,.08-14.46,13.05c-5.66-4.56-10.03-3.43-15.34,4.89-.72,1.13,1.64,3.27-2.08,5.51-1.53,.92-3.25,1.26-4.76,.25-.71-.48-1.12-.97-1.96-.47-8.96,5.3-14.06,11.32-4.77,21.27,2.81-2.95,4.58-5.99,5.35-7.46,.28-.53,.9-.84,1.38-.67,.56,.2,1.29,.58,1.98,1.27,.69,.69,1.06,1.42,1.27,1.98,.18,.48-.13,1.1-.67,1.38-1.47,.77-4.5,2.54-7.46,5.35,9.97,9.3,16.09,4.06,21.39-4.9,.31-.53,.12-1.18-.37-1.52-2.69-1.88,1.18-8.55,4.53-7.02,.32,.15,.72,.09,1.02-.1,7.46-4.76,9.12-8.77,6.11-13.62-1.15,.93-4.29,3.43-7.65,5.91-.3,.22-.46,0-.5-.09L54.64,12.22l.08,.08c.74,.74,2,.52,2.44-.44l2.13-4.63-2.64-2.64Z"/></g></g></svg>