<?xml version="1.0" encoding="UTF-8"?><svg id="Laag_1" xmlns="http://www.w3.org/2000/svg" xmlns:xlink="http://www.w3.org/1999/xlink" viewBox="0 0 64 64"><defs><style>.cls-1{fill:none;}.cls-2{clip-path:url(#clippath);}.cls-3{clip-path:url(#clippath-1);}</style><clipPath id="clippath"><rect class="cls-1" width="64" height="64"/></clipPath><clipPath id="clippath-1"><rect class="cls-1" width="64" height="64"/></clipPath></defs><g class="cls-2"><g class="cls-3"><path d="M61,40v16h-.04c-2.19,0-3.96-1.77-3.96-3.96v-1.04h-16c-3.86,0-7-3.14-7-7v-2l6-2.8v4.8c0,.55,.45,1,1,1h16v-1.04c0-2.19,1.77-3.96,3.96-3.96h.04Zm-5.38-16.91l-34.3,16c-1.28,.6-2.79,.48-3.97-.34l-9.52-6.61c-1.31,.61-2.81,1.31-2.86,1.33-.86,.4-.41,3.16,.99,6.16,1.4,3,3.23,5.11,4.08,4.72,.03-.02,.7-.33,1.53-.72l-1.49-6.11c-.04-.33,.16-.38,.23-.38l4.4,9.44c.47,1,1.66,1.43,2.66,.97L58.15,28.53l-2.54-5.44Zm-37.13,14.01c.58,.4,1.33,.48,1.99,.17L57.49,20.01l-7.18-15.41L4.85,25.8c-.72,.34-.78,1.33-.11,1.75l13.75,9.55Z"/></g></g></svg>