<?xml version="1.0" encoding="UTF-8"?><svg id="Laag_1" xmlns="http://www.w3.org/2000/svg" xmlns:xlink="http://www.w3.org/1999/xlink" viewBox="0 0 64 64"><defs><style>.cls-1{fill:none;}.cls-2{clip-path:url(#clippath);}.cls-3{clip-path:url(#clippath-1);}</style><clipPath id="clippath"><rect class="cls-1" width="64" height="64"/></clipPath><clipPath id="clippath-1"><rect class="cls-1" width="64" height="64"/></clipPath></defs><g class="cls-2"><g class="cls-3"><path d="M33.38,50.84l9.59-16.52c.83-1.42,2.36-2.31,4.02-2.32h0c.34,0,.68,.05,1.01,.12v-3.13h4c.55,0,1-.45,1-1.01v-1.5c0-.57-.23-1.1-.65-1.49l-14.38-13.11-9.2,10.22,4.42,12.14-9.38-.42-6.01,8.71,3.47-11.82,6.37-.51-2.39-9.92-6.1-3.93,8.3,.87,7.11-8.45-5.87-5.35c-.38-.35-.97-.35-1.35,0L3.65,24.99c-.41,.38-.65,.92-.65,1.49v1.5c0,.56,.45,1.01,1,1.01h4v21.85h25.38Zm13.6,2.25c-.84,0-1.27,.6-1.27,1.37,0,.87,.47,1.34,1.29,1.34s1.27-.58,1.27-1.34c0-.89-.47-1.37-1.29-1.37m14.79,5.34l-13.35-22.62c-.3-.5-.84-.81-1.43-.81h0c-.59,0-1.13,.32-1.42,.82l-13.12,22.62c-.3,.51-.3,1.14,0,1.66,.3,.51,.84,.83,1.43,.83h26.48c.59,0,1.14-.32,1.44-.83,.3-.52,.29-1.15-.01-1.66m-25.03-.81l10.26-17.68,10.44,17.68h-20.71Zm9.26-5.69l2-.05v-1.97l.23-4.95-2.23,.19v6.77Z"/></g></g></svg>