<?xml version="1.0" encoding="UTF-8"?><svg id="Laag_1" xmlns="http://www.w3.org/2000/svg" xmlns:xlink="http://www.w3.org/1999/xlink" viewBox="0 0 64 64"><defs><style>.cls-1{fill:none;}.cls-2{clip-path:url(#clippath);}.cls-3{clip-path:url(#clippath-1);}</style><clipPath id="clippath"><rect class="cls-1" width="64" height="64"/></clipPath><clipPath id="clippath-1"><rect class="cls-1" width="64" height="64"/></clipPath></defs><g class="cls-2"><g class="cls-3"><path d="M60.69,52.47c-.75-.79-2.25-1.65-3.89-2.45-2.16-1.07-4.56-2.01-5.85-2.49-.49-.19-.8-.64-.89-1.15-.11-.64-.23-1.59-.32-2.39,3.25-.13,5.94-.45,7.06-.88,.22-.08,.33-.29,.23-.5-.61-1.33-2.2-5.72-2.4-8.02-.49-5.63-.47-15.69-8.18-13.17,0,0-4.9-3.13-8.87,2.1-2.8,3.68-2.12,8.53-2.23,11.24-.08,1.93-1.65,6.37-2.32,7.52-.14,.24-.09,.49,.17,.59,1.2,.44,3.9,.77,7.08,.97-.06,.57-.15,1.24-.24,1.84h0c-.01,.09-.03,.17-.04,.25-.03,.15-.05,.3-.08,.43-.1,.52-.4,.97-.89,1.15-.54,.2-1.28,.49-2.12,.83h0c-1.15,.47-2.48,1.04-3.72,1.66-1.65,.79-3.14,1.66-3.89,2.45-2.2,2.32-2.31,9.53-2.31,9.53H63s-.11-7.21-2.31-9.53"/><path d="M33.86,22.72c.08-.13,.11-.28,.08-.42l-.03-.1h0l-1.85-6.51s.12-.11,.23,.06l2.12,2.94c.43-.05,.84-.1,1.21-.17,.99-.17,1.75-.94,1.91-1.96,.48-2.94,.48-5.58,.48-6.56s0-3.62-.48-6.56c-.17-1.02-.92-1.79-1.91-1.96-2.87-.49-7.65-.49-8.6-.49s-5.73,0-8.6,.49c-.99,.17-1.75,.94-1.91,1.96-.48,2.94-.48,3.62-.48,6.56,0,.98,0,3.62,.48,6.56,.17,1.02,.92,1.79,1.91,1.96,2.61,.45,6.78,.49,8.24,.49l6.37,3.89c.28,.18,.65,.09,.82-.19"/><path d="M22.64,32.22c-.1-.44,.06-1.24,0-1.61-.32-1.87-1.27-3.93-1.27-3.93,1.02-1.95,.52-3.48-1.02-4.47-1.75-1.13-8.12-1.24-12.77,1.29-4.9,2.67-4.37,7.43-3.55,9.93,.96,2.9,3.83,7.02,4.03,10.12,.05,.8-.28,2.56-.56,3.86-.6,.27-1.2,.6-1.78,1-3.21,2.21-3.73,5.48-3.73,9.6H24c-.72-3.77-2-5.93-3.44-7.68-.72-.87-1.62-1.62-2.62-2.24l-.05-1.99-2.64-1.33c-.2-.11-.15-.25-.12-.28,0,0,4,.9,5.55,1.1,1.56,.2,3.05-1.12,3.05-3.01v-4.68l1.61-.85c.46-.3,.59-.92,.29-1.38l-3-3.45Zm-2.52-.63c-.55,1.07-2.2,1.45-5.6,1.88-2.93,.37-3.45,1.48-3.7,3.9h-1.56c-.05-.76,.04-1.62,.04-1.62-1.37,.06-1.87-.62-2.22-1.63-.08-.23-.24-.41-.46-.51-.38-.18-.98-.58-1.2-1.3-.34-1.1-.14-1.61,.37-2.46,.16-.26,.08-1.14,.16-1.6,.12-.69,.55-1.11,1.14-1.41,.62-.31,1.12-.26,1.58-.49,.46-.23,.66-1.19,1.46-1.48,1.07-.39,1.84-.1,2.52-.11,.7-.01,1.51-.76,2.43-.71,.84,.04,1.37,.83,1.81,1.09,.43,.26,1.23,.16,1.77,.5,1.61,1.01,.68,2.35,1.02,3.02,.32,.64,1.09,1.67,.44,2.93"/></g></g></svg>