<?xml version="1.0" encoding="UTF-8"?><svg id="Laag_1" xmlns="http://www.w3.org/2000/svg" xmlns:xlink="http://www.w3.org/1999/xlink" viewBox="0 0 64 64"><defs><style>.cls-1{fill:none;}.cls-2{clip-path:url(#clippath);}.cls-3{clip-path:url(#clippath-1);}</style><clipPath id="clippath"><rect class="cls-1" width="64" height="64"/></clipPath><clipPath id="clippath-1"><rect class="cls-1" width="64" height="64"/></clipPath></defs><g class="cls-2"><g class="cls-3"><path d="M43.58,7.83c-7.68-1.11-15.41-1.11-23.09,0-1.98,.29-3.49,2.13-3.49,4V52.17c0,1.87,1.59,3.7,3.57,4,7.68,1.11,15.33,1.11,23.01,0,1.98-.29,3.42-2.13,3.42-4V11.83c0-1.87-1.44-3.7-3.42-4m-11.58,46.37c-1.49,0-2.7-1.21-2.7-2.7s1.21-2.7,2.7-2.7,2.7,1.21,2.7,2.7-1.21,2.7-2.7,2.7m11-8.2H21V14h22V46Z"/><path d="M40.13,36.95c-.39-.41-1.16-.85-2.02-1.27-1.11-.55-2.36-1.04-3.03-1.29-.25-.09-.42-.33-.46-.6-.06-.33-.12-.83-.17-1.24,1.68-.07,3.08-.23,3.65-.45,.11-.04,.17-.15,.12-.26-.32-.69-1.14-2.96-1.24-4.15-.25-2.91-.24-8.13-4.23-6.82,0,0-2.53-1.62-4.59,1.09-1.45,1.91-1.09,4.42-1.15,5.82-.04,1-.86,3.3-1.2,3.9-.07,.13-.05,.25,.09,.3,.62,.23,2.02,.4,3.66,.5-.05,.42-.11,.93-.18,1.31-.05,.27-.21,.5-.46,.6h0c-.66,.25-1.91,.74-3.03,1.29-.85,.41-1.63,.86-2.02,1.27-.42,.44-.69,1.23-.87,2.05h18c-.18-.82-.45-1.61-.87-2.05"/></g></g></svg>