<?xml version="1.0" encoding="UTF-8"?><svg id="Laag_1" xmlns="http://www.w3.org/2000/svg" xmlns:xlink="http://www.w3.org/1999/xlink" viewBox="0 0 64 64"><defs><style>.cls-1{fill:none;}.cls-2{clip-path:url(#clippath);}.cls-3{clip-path:url(#clippath-1);}</style><clipPath id="clippath"><rect class="cls-1" width="64" height="64"/></clipPath><clipPath id="clippath-1"><rect class="cls-1" width="64" height="64"/></clipPath></defs><g class="cls-2"><g class="cls-3"><path d="M51.24,51.24l-1.2-.9-1.2,.9c-.64,.48-2.9,1.85-4.8,1.85s-4.11-1.34-4.8-1.85l-1.2-.9-1.2,.9c-.64,.48-2.9,1.85-4.8,1.85s-4.11-1.34-4.8-1.85l-1.2-.9-1.2,.9c-.64,.48-2.9,1.85-4.8,1.85s-4.11-1.34-4.8-1.85l-1.2-.9-1.2,.9c-.64,.48-2.89,1.85-4.8,1.85-1.02,0-2.12-.39-3.04-.83v4.22c.94,.3,1.98,.52,3.04,.52,2.4,0,4.66-1.08,6-1.86,1.34,.79,3.6,1.86,6,1.86s4.66-1.08,6-1.86c1.34,.79,3.6,1.86,6,1.86s4.66-1.08,6-1.86c1.34,.79,3.6,1.86,6,1.86s4.66-1.08,6-1.86c1.34,.79,3.6,1.86,6,1.86,1.03,0,2.04-.2,2.96-.49v-4.2c-.9,.42-1.97,.79-2.96,.79-1.89,0-4.11-1.34-4.8-1.85"/><path d="M14.04,46.14c1.34,.79,3.6,1.86,6,1.86s4.66-1.08,6-1.86c1.34,.79,3.6,1.86,6,1.86s4.66-1.08,6-1.86c1.34,.79,3.6,1.86,6,1.86,.35,0,.69-.03,1.03-.07v-3.97c-.35,.07-.69,.13-1.03,.13-1.89,0-4.11-1.34-4.8-1.85l-1.2-.9-1.2,.9c-.64,.48-2.9,1.85-4.8,1.85s-4.11-1.34-4.8-1.85l-1.2-.9-1.2,.9c-.64,.48-2.9,1.85-4.8,1.85s-4.11-1.34-4.8-1.85l-1.2-.9-1.2,.9c-.64,.48-2.89,1.85-4.8,1.85-1.02,0-2.12-.39-3.04-.83v4.22c.94,.3,1.98,.52,3.04,.52,2.4,0,4.66-1.08,6-1.86"/><path d="M14.04,37.14c1.34,.79,3.6,1.86,6,1.86s4.66-1.08,6-1.86c1.34,.79,3.6,1.86,6,1.86,.73,0,1.44-.11,2.12-.27v-4.08c-.69,.25-1.43,.44-2.12,.44-1.89,0-4.11-1.34-4.8-1.85l-1.2-.9-1.2,.9c-.64,.48-2.9,1.85-4.8,1.85s-4.11-1.34-4.8-1.85l-1.2-.9-1.2,.9c-.64,.48-2.89,1.85-4.8,1.85-1.02,0-2.12-.39-3.04-.83v4.22c.94,.3,1.98,.52,3.04,.52,2.4,0,4.66-1.08,6-1.86"/><path d="M47.51,20.03c1.04,4.68-.72,9.34-4.17,12.4,2.18,.65,4.57,.78,6.97,.24,7.28-1.61,11.93-8.58,10.39-15.56-1.55-6.98-8.71-11.33-15.99-9.72-2.4,.53-4.51,1.66-6.22,3.17,4.42,1.31,7.98,4.8,9.02,9.47"/></g></g></svg>