<?xml version="1.0" encoding="UTF-8"?><svg id="Laag_1" xmlns="http://www.w3.org/2000/svg" xmlns:xlink="http://www.w3.org/1999/xlink" viewBox="0 0 64 64"><defs><style>.cls-1{fill:none;}.cls-2{clip-path:url(#clippath);}.cls-3{clip-path:url(#clippath-1);}</style><clipPath id="clippath"><rect class="cls-1" width="64" height="64"/></clipPath><clipPath id="clippath-1"><rect class="cls-1" width="64" height="64"/></clipPath></defs><g class="cls-2"><g class="cls-3"><path d="M20,15h23l.15,2h3.85l-.28-4.39c0-.89-.55-1.61-1.44-1.61H17.9c-.88,0-1.61,.73-1.61,1.61l-.28,4.39h3.85l.15-2Z"/><path d="M55,19H9c-1.1,0-2,.9-2,2v17c0,1.1,.9,2,2,2h4.48l11.99,12.38c.37,.39,.88,.62,1.52,.62h22.39c.89,0,1.61-.72,1.61-1.61l-1.35-11.39h5.35c1.1,0,2-.9,2-2V21c0-1.1-.9-2-2-2m-26.81,30s-.67,2.07-.78,2.42c-.11,.35-.31,.35-.41,.31v-10.73c0-.55-.45-1-1-1h-8.51l1.14-9h25.75l2.14,18H28.19Zm23.81-22.84c-1.19,0-2.16-.97-2.16-2.16s.97-2.16,2.16-2.16,2.16,.97,2.16,2.16-.97,2.16-2.16,2.16"/></g></g></svg>