<?xml version="1.0" encoding="UTF-8"?><svg id="Laag_1" xmlns="http://www.w3.org/2000/svg" xmlns:xlink="http://www.w3.org/1999/xlink" viewBox="0 0 64 64"><defs><style>.cls-1{fill:none;}.cls-2{clip-path:url(#clippath);}.cls-3{clip-path:url(#clippath-1);}</style><clipPath id="clippath"><rect class="cls-1" width="64" height="64"/></clipPath><clipPath id="clippath-1"><rect class="cls-1" width="64" height="64"/></clipPath></defs><g class="cls-2"><g class="cls-3"><path d="M61.22,30.21L32.81,3.32c-.46-.43-1.17-.43-1.62,0L2.78,30.21c-.49,.46-.77,1.11-.77,1.79v1.8c0,.67,.54,1.21,1.2,1.21h4.8v25H56v-25h4.8c.66,0,1.2-.54,1.2-1.21v-1.8c0-.68-.28-1.33-.78-1.79M28.06,51.65c-.68,.06-1.3,.44-1.77,.94-.47,.5-3.99,4.13-3.99,4.13l-8.64-9.55s1.93-1.96,2.56-2.6c.63-.64,1-1.48,1.09-2.37,.24-2.41,.63-5.41,.83-7.06,.1-.8,.48-1.53,1.09-2.05,1.36-1.18,3.79-3.25,4.36-3.62,.57-.37,1.61-.48,2.34,.06,.88,.65,3.17,2.68,4.5,3.78,1.2,.99,1.24,1.63,1.12,2.17-.25,1.05-1.7,1.06-2.86,.88-1.3-.2-2.8-.79-4-1.33l-1.57,1.59c2.43,2.14,4.41,5.26,3.91,8.45,.16,.02,.25,.05,.4-.08,1.55-1.33,.67-4.86-.57-6.81,2.71,.63,6.05,.43,6.68-2.18,.56-2.37-1.33-3.73-1.92-4.22-1.2-1-3.11-2.68-4.22-3.56,1-.87,2.35-1.87,4.13-.56,.86,.63,1.47,1.73,1.22,3.22,0,0,1.5-.81,3.18,.6,1.29,1.09,.84,2.8,.85,2.86,0,0,1.61-.06,2.62,.97,1.16,1.18,.89,2.25,.65,2.94,0,0,3.02,1.47,1.44,4.25-.74,1.3-1.99,2.61-2.98,3.49-.8,.71-1.88,1.65-3.19,.6-.5-.4-.86-1.14-.73-2.52,0,0-2.1,1.17-3.94-1.59-.15-.02-.3,.17-.19,.73,.28,1.45,.62,2.9,2.25,2.86-.1,1.32,.84,2.21,2.02,2.77-3.77,3.67-4.23,2.61-6.64,2.81m23.11-8.84l-6.64,4.5,.37,7.8c.15,1.39-1.13,2.22-2.23,1.78l-8-3.25c-1.01-.41-.3-2.37,.74-2.02l6.72,2.22-.39-7.96,6.9-4.65-6.38-5.39,4.54-9.46-10.38,1.6-3.31-7.66-6.27,5.18-7.69-2.61,.02,6.83c0,.99-1.94,1.14-2.04,.1l-.74-8.33c-.11-1.23,1.13-2.13,2.27-1.66l7.62,2.58,6.05-4.97c.83-.78,2.18-.5,2.63,.54l3.06,7.09,10.15-1.57c1.45-.22,2.34,1.18,1.8,2.31l-4.48,9.32,5.9,4.99c.87,.73,.74,2.11-.24,2.67"/></g></g></svg>