<?xml version="1.0" encoding="UTF-8"?><svg id="Laag_1" xmlns="http://www.w3.org/2000/svg" xmlns:xlink="http://www.w3.org/1999/xlink" viewBox="0 0 64 64"><defs><style>.cls-1{fill:none;}.cls-2{clip-path:url(#clippath);}.cls-3{clip-path:url(#clippath-1);}</style><clipPath id="clippath"><rect class="cls-1" width="64" height="64"/></clipPath><clipPath id="clippath-1"><rect class="cls-1" width="64" height="64"/></clipPath></defs><g class="cls-2"><g class="cls-3"><path d="M52.33,48l-15.39-11.54c1.3-1.98,.97-4.24,.12-5.79-.82-1.48-2.08-2.67-2.81-3.62-.2-.27-.28-.7-.3-1.04h2.61l1.95-8.28-2.5-3.02V1h-2V13h-4V1h-2V14.64l-2.5,2.93,1.95,8.43h5.14c.02,.06,.07,.26-.25,.36l-2.33,.47c.09,.78,.38,1.52,.89,2.14,.8,.98,1.62,1.86,2.22,2.68,.46,.63,.61,1.54,.24,2.26-1.11-.47-2.41-.35-3.41,.38-.05-.04-.1-.08-.14-.13-.83-.91-1.4-1.79-2.23-2.94-.34-.47-1.08-.27-1.13,.31-.1,1.23-.04,3.38,.76,4.81l-15.56,11.67H6v12H58v-12h-5.67Zm-37.33,0l16.05-12.06c.05,.03,.21,.17,.02,.44l-1.76,1.98c2.08,1.09,4.72,.67,6.25-.43l13.44,10.08H15Z"/></g></g></svg>