<?xml version="1.0" encoding="UTF-8"?><svg id="Laag_1" xmlns="http://www.w3.org/2000/svg" xmlns:xlink="http://www.w3.org/1999/xlink" viewBox="0 0 64 64"><defs><style>.cls-1{fill:none;}.cls-2{clip-path:url(#clippath);}.cls-3{clip-path:url(#clippath-1);}</style><clipPath id="clippath"><rect class="cls-1" width="64" height="64"/></clipPath><clipPath id="clippath-1"><rect class="cls-1" width="64" height="64"/></clipPath></defs><g class="cls-2"><g class="cls-3"><path d="M57.61,42.11c-1.44-1.57-4.66-3.01-7.52-4.08,1.28-1.72,4.13-6.13,3.89-11.03-.24-5.12-2.75-7.44-4.54-12.58-2.07-5.96-4.04-12.42-12.44-12.42s-10.37,6.46-12.44,12.42c-1.79,5.14-4.3,7.46-4.54,12.58-.17,3.53,1.26,6.8,2.55,9h.18c2.21,0,4.18,1.48,4.8,3.6l4.49,15.4h3.96c0-1.66,2.24-3,5-3s5,1.34,5,3h2c1.1,0,2,.9,2,2,0,1.96-.81,3.73-2.11,5h14.11s-1.51-16.76-4.39-19.89m-11.6-16.48c-.34,3.31-2.7,5.86-5.3,8.08-.78,.66-2.25,1.11-3.72,1.11-1.06,0-2.12-.29-2.93-.64,.61,.93,1.65,2.07,3.58,2.59,3.16,.83,5.46-.91,5.46-.91,0,0,.28,1.91,.28,2.42,.33,3.49-3.56,7.32-6.01,9.08-2.3-1.75-6.59-5.53-6.16-9.02,.24-1.91,.04-.55,.82-5.44-2.08-2.01-3.77-4.42-4.05-7.25-1.78,.71-3.35,1.69-4.58,3.04-.05-.06-.17-.17,.03-.49,2.5-4.23,7.89-7.17,13.55-7.17s11.05,2.95,13.55,7.17c.19,.33,.08,.44,.03,.49-1.23-1.35-2.79-2.33-4.57-3.04"/><path d="M30.54,57l-4.91-16.84c-.37-1.28-1.55-2.16-2.88-2.16H3.27c-1.13,0-1.95,1.09-1.63,2.18l5.73,19.66c.37,1.28,1.55,2.16,2.88,2.16H43c2.76,0,5-2.24,5-5H30.54Z"/></g></g></svg>