<?xml version="1.0" encoding="UTF-8"?>
<svg id="Zwart" xmlns="http://www.w3.org/2000/svg" viewBox="0 0 64 64">
  <path d="M48,54c7.85,0,14-3.37,14-7.68v-3.65c0-4.3-6.15-7.67-14-7.67s-14,3.37-14,7.67v3.65c0,.95.31,1.85.86,2.68-.55.83-.86,1.72-.86,2.66v3.65c0,4.3,6.15,7.68,14,7.68s14-3.37,14-7.68v-3.65c0-.2-.03-.41-.05-.61-.71.9-4.57,5.14-13.61,5.14-8.02,0-10.78-3.86-11.07-4.38-.12-.21-.2-.44-.08-.57,2.55,1.69,6.41,2.75,10.81,2.75ZM36.7,43c0-2.84,5.06-5.15,11.3-5.15s11.3,2.31,11.3,5.15-5.06,5.15-11.3,5.15-11.3-2.31-11.3-5.15Z"/>
  <path d="M42.21,43.47c.48.86,1.7,1.36,3.38,1.36,1.51,0,2.53-.34,3.03-1.02l.49-.65c.4-.54.75-.71,1.47-.71.65,0,1.31.28,1.31.92,0,.44-.07.79-.26,1.25l-.11.28h2.25l.05-.13c.16-.42.21-.77.22-1.17h1.71v-1.06h-1.91c-.52-.9-1.87-1.43-3.65-1.43-1.56,0-2.51.36-3.09,1.18l-.45.64c-.29.42-.64.57-1.3.57-.46,0-1.23-.11-1.23-.83,0-.36.06-.64.21-1.01l.11-.27-2.16-.08-.05.12c-.14.31-.21.63-.24.97h-1.71v1.06h1.94Z"/>
  <path d="M34.76,35.83c-.86-.65-1.01-1.76-1.13-2.99,1.97-2.2,3.43-4.85,3.93-8.36,1.88-.58,2.26-2.93,2.26-4.4s-.26-2.26-.78-2.5c-.13-.06-.26-.09-.38-.1-.02-.41-.08-.82.04-1.16.23-.62,1.12-1.06,1.23-1.7.14-.8-.49-1.68-.46-2.46.03-.82.73-1.66.61-2.43-.12-.8-1.03-1.38-1.32-2.11-.3-.74-.07-1.8-.58-2.43-.48-.6-1.56-.62-2.24-1.1-.61-.43-.96-1.45-1.76-1.77-.69-.28-1.67.19-2.51,0-.73-.16-1.41-1.01-2.26-1.08-.75-.07-1.58.63-2.43.63s-1.68-.7-2.43-.63c-.85.08-1.52.92-2.26,1.08-.84.18-1.82-.28-2.51,0-.79.32-1.14,1.34-1.76,1.77-.69.48-1.76.5-2.24,1.1-.51.63-.28,1.69-.58,2.43-.3.73-1.21,1.31-1.33,2.12-.11.77.58,1.61.61,2.43.03.78-.61,1.66-.46,2.46.12.64,1,1.08,1.23,1.7.13.34.07.76.04,1.17-.11.01-.22.03-.33.08-.53.25-.78,1.04-.78,2.5s.38,3.82,2.26,4.4c.6,5.03,3.12,7.97,6.22,10.57.82.69,2.29,1.05,3.83,1.12.14.25.14.54-.41.73-.92.3-3.8.73-6.91-.88-.03-.01-.04-.03-.07-.04-2.32.62-10.32,2.91-12.81,5.53-2.91,3.06-4.05,14.5-4.05,14.5h28.8c-.02-.23-.05-.45-.05-.68v-3.65c0-.91.17-1.81.5-2.67-.33-.87-.5-1.76-.5-2.68v-3.65c0-2.65,1.39-5.01,3.76-6.84Z"/>
</svg>