<?xml version="1.0" encoding="UTF-8"?><svg id="Laag_1" xmlns="http://www.w3.org/2000/svg" xmlns:xlink="http://www.w3.org/1999/xlink" viewBox="0 0 64 64"><defs><style>.cls-1{fill:none;}.cls-2{clip-path:url(#clippath);}.cls-3{clip-path:url(#clippath-1);}</style><clipPath id="clippath"><rect class="cls-1" width="64" height="64"/></clipPath><clipPath id="clippath-1"><rect class="cls-1" width="64" height="64"/></clipPath></defs><g class="cls-2"><g class="cls-3"><path d="M46.59,32.87c3.94-1.82,8.49-.7,11.19,2.45-1.09-16.13-3.79-28.3-5.94-33.85-.14-.37-.63-.45-.88-.15-1.45,1.76-5.23,7.22-5.96,16.9-.4,5.33,.32,10.59,1.25,14.8l.34-.16Zm6.89-16.81c.59,3.33,1.13,7.03,1.57,11.05-.84-.77-1.55-1.71-2.06-2.81-1.27-2.76-.99-5.83,.49-8.24"/><path d="M18.45,45.88l4.8-2.22c.03-.16,.04-.33-.01-.49l-.95-3.16,2.28-1.86c.31-.26,.44-.67,.33-1.06l-.84-2.82,2.27-1.86c.31-.26,.44-.67,.33-1.06l-.84-2.82,2.28-1.86c.31-.26,.44-.67,.33-1.06l-.84-2.82,2.28-1.86c.31-.25,.44-.67,.33-1.06l-1.67-5.6c-.12-.42-.45-.75-.87-.87-.69-.21-1.42,.17-1.63,.86l-8.14,26.55h0l-1.22,4c-.06,0-.27-.01-.27-.35,0-.26,.37-3.85,.54-5.45-.94-1.62-2.07-3.17-3.45-4.46-.29-.27-.75-.02-.68,.37,.32,1.66,.59,4.53-1.22,4.84-2.58,.45-4.36-3.84-2.86-10.9,.07-.35-.06-.71-.36-.91l-1.38-.93c-.27-.18-.64-.09-.8,.2-1.44,2.71-3.2,8.45-1.4,13.73,1.79,5.25,5.17,9.02,8.38,11.59,.1-.44,.21-.88,.37-1.31,.88-2.38,2.63-4.28,4.93-5.34"/><path d="M57.38,38.35c-1.74-3.76-6.19-5.4-9.95-3.66l-28.14,13c-3.76,1.74-5.4,6.19-3.66,9.95,1.74,3.76,6.19,5.4,9.95,3.66l28.14-13c3.76-1.74,5.4-6.19,3.66-9.95m-17.65,9.48l-1.09-2.36,5.14-2.13,2.88-1.33,1,2.16-7.92,3.66Zm10.72-4.74c-.72,.33-1.47,.16-1.85-.66-.37-.81-.14-1.48,.69-1.86,.7-.32,1.44-.15,1.82,.68,.37,.81,.15,1.47-.66,1.84"/></g></g></svg>