<?xml version="1.0" encoding="UTF-8"?><svg id="Laag_1" xmlns="http://www.w3.org/2000/svg" xmlns:xlink="http://www.w3.org/1999/xlink" viewBox="0 0 64 64"><defs><style>.cls-1{fill:none;}.cls-2{clip-path:url(#clippath);}.cls-3{clip-path:url(#clippath-1);}</style><clipPath id="clippath"><rect class="cls-1" width="64" height="64"/></clipPath><clipPath id="clippath-1"><rect class="cls-1" width="64" height="64"/></clipPath></defs><g class="cls-2"><g class="cls-3"><path d="M40.44,9.31c-.56-.98-1.52-2.41-4.09-2.28-2.22,.11-3.82,2.04-3.82,2.04-.07-.06-1.6-2.34-4.19-1.97-3.37,.49-3.98,3.06-3.98,3.06-1.47-1.82-3.38-2.25-4.99-1.9-3.1,.66-3.52,2.75-3.56,4.05-.02,.69-.02,1.51-.02,2.33,1.88-.27,6.2-.89,8.7-1.28,1.69-.26,4.12-.36,5.61,1.78,.67,.96,1.79,3.54-2.29,6.92-1.6,1.33-3.78,2.46-4.85,2.97v.02c.97-.04,2.53-.11,4.28,.24,4.6,.93,6.7,3.62,7.65,5.42,.22,.42,.23,.72,.05,.72-3.2-3.87-8.86-4.79-13.84-4.18l-.22-3.46c1.86-.82,4.09-1.97,5.66-3.26,1.41-1.17,2.9-2.85,1.93-4.23-.5-.71-1.29-1.31-3.67-.95-2.65,.41-7.36,.97-9.02,1.32-1.38,.29-2.32,1.61-2.48,2.65-.16,1.04-.26,5.99-.3,8.79-.02,1.25,.43,2.45,1.25,3.38,1.71,1.93,4.79,5.48,7.34,8.25,.94,1.02,1.49,2.32,1.62,3.7,.46,4.88-.19,15.56-.19,15.56h20.68s-.72-17.9-.81-18.97c-.09-1.06,.1-2.17,.74-3.03,2.25-3.01,4.24-2.24,3.53-12.3,0,0-.51,.22-.76,.31-2.74,1.03-4.53-.83-4.53-.83-1.63,1.93-4.28,1.87-5.83,.98-.46-.26-.57-.45-.39-.6,5.1,.71,5.91-2.93,5.91-2.93,1.47,1.57,2.71,1.93,3.68,1.76,2.57-.45,2.58-2.66,2.59-4.32,0-2.06-.22-4.85-.97-7.06-1.59-4.7-6.41-2.71-6.41-2.71"/></g></g></svg>