<?xml version="1.0" encoding="UTF-8"?><svg id="Laag_1" xmlns="http://www.w3.org/2000/svg" xmlns:xlink="http://www.w3.org/1999/xlink" viewBox="0 0 64 64"><defs><style>.cls-1{fill:none;}.cls-2{clip-path:url(#clippath);}.cls-3{clip-path:url(#clippath-1);}</style><clipPath id="clippath"><rect class="cls-1" width="64" height="64"/></clipPath><clipPath id="clippath-1"><rect class="cls-1" width="64" height="64"/></clipPath></defs><g class="cls-2"><g class="cls-3"><path d="M46,27.17c2.88,0,5.6,.67,8.05,1.83,3.19-2.63,4.78-5.49,4.78-6.73,0-2.06-6.67-10.83-18.71-11.71-1.79-2.87-4.32-5-5.41-5.85-.34-.26-.77-.37-1.19-.28-1.63,.32-6.02,1.4-10.41,4.21-.39,.25-.55,.75-.39,1.19l1.02,3.23c-4.1,2.34-6.88,5.13-9.8,5.13-4.94-5.19-9.6-7.32-11.02-6.42-1.91,1.22,4.07,7.69,4.07,10.49S1,31.54,2.91,32.76c1.42,.91,6.09-1.21,11.02-6.4,2.54,0,4.79,2.65,8.16,4.48,0,0,4.96-2.3,5.77-2.65,.59-.26,.81-.11,.86,.03,0,0-6.71,5.28-7.51,6.01-.69,.64-.39,1.2,.34,1.6,1.05,.58,4.73,1.46,8.76-.23,3.38-5.08,9.15-8.44,15.69-8.44m1.5-8.87c1.15,0,2.2,1.05,2.2,2.2s-1.05,2.2-2.2,2.2-2.2-1.05-2.2-2.2,1.05-2.2,2.2-2.2m-1.5,11.87c-8.74,0-15.83,7.09-15.83,15.83s7.09,15.83,15.83,15.83,15.83-7.09,15.83-15.83-7.09-15.83-15.83-15.83m0,27.75c-6.57,0-11.91-5.34-11.91-11.91s5.35-11.91,11.91-11.91,11.91,5.34,11.91,11.91-5.35,11.91-11.91,11.91m5.23-18.68l-4.62,3.83c-.2-.04-.4-.06-.61-.06-1.66,0-3,1.34-3,3s1.34,3,3,3,3-1.34,3-3c0-.21-.02-.42-.06-.61l3.83-4.62c.33-.4,.34-.98,0-1.4-.39-.47-1.07-.53-1.54-.14"/></g></g></svg>