<?xml version="1.0" encoding="UTF-8"?><svg id="Laag_1" xmlns="http://www.w3.org/2000/svg" xmlns:xlink="http://www.w3.org/1999/xlink" viewBox="0 0 64 64"><defs><style>.cls-1{fill:none;}.cls-2{clip-path:url(#clippath);}.cls-3{clip-path:url(#clippath-1);}</style><clipPath id="clippath"><rect class="cls-1" width="64" height="64"/></clipPath><clipPath id="clippath-1"><rect class="cls-1" width="64" height="64"/></clipPath></defs><g class="cls-2"><g class="cls-3"><path d="M35.39,1.37c-2.33,.32-3.14,5.33-3.14,5.33h.01s0,.04-.01,.06c-.71,3.23,.6,5.43,3.56,6.08,2.96,.65,5.12-1.04,5.78-4.03,.05-.24,.07-.63,.1-.85,1.26,.08,3.01,.02,3.2-.89,.29-1.44-7.16-6.01-9.49-5.7"/><path d="M44.3,35.95c-3.45-6.33-4.23-7.38-4.88-9.88-.53-2.32-1.04-6.87-1.27-8.05-.41-2.06-5.11-4.81-8.34-3.79-4.5,1.43-8.65,10.63-9.92,13.51-.9,2.08-.94,3.93-.79,5.39,.18,3.26,.38,22.51,.39,23.51,.05,4.37,3.72,5.24,4.27,5.35,.04-.42,1.31-16.27,1.31-16.27,0,0-1.57-3.6-2.56-5.87-.12-.27,0-.48,.13-.46,.54,.84,2.51,3.71,3.61,5.47,.35,.55,.56,1,.59,1.19,.83,3.57,1.59,7.08,2.71,11.83,1.06,4.53,5.23,4.12,5.41,4.1-.6-6.71-.85-9.65-1.54-15.79-.26-1.92-.21-3.15-3.38-10.1,1.29-3.16,3.25-7.44,4.92-10.96,.12,.6,.27,1.25,.46,1.96,.98,3.28,2.83,5.5,3.48,6.5,.39,.59,.8,1.05,1.22,1.4h-3.11c0,1.78,.97,3,2.69,3h.95c.24,0,.53,.1,.48,.49-.01,.11-1.8,21.25-2.02,23.51h2.09c.32-2.43,2.17-18.49,2.42-20.33,.38-2.84,.6-3.49,.08-4.63-.16-.35-.38-.66-.63-.93,.73,0,1.23-.16,1.24-.16"/></g></g></svg>