<?xml version="1.0" encoding="UTF-8"?><svg id="Laag_1" xmlns="http://www.w3.org/2000/svg" viewBox="0 0 64 64"><defs><style>.cls-1{fill:none;}</style></defs><rect class="cls-1" width="64" height="64"/><g><path d="m14.37,43.27c-.64-.21-1.27-.41-1.47-.47-.49-.2-.57-.88-.6-1.41.76-.88,1.32-1.95,1.52-3.34.32-.1.53-.33.67-.61-.17-.78-.33-1.51-.46-2.21,0,0-.02,0-.03,0v-.16c-.34-1.84-.54-3.45-.63-5.02-.51-.69-1.16-.93-2.23-.65-.84-.46-1.42-1.04-2.9-.63-1.03.29-2.15.81-2.75,1.59-.37.49-.46,1.56-.47,2.63l-.02,2.2c-.1-.03-.22-.04-.34.02-.21.1-.32.43-.32,1.03s.15,1.57.92,1.8c.17,1.44.73,2.46,1.47,3.31-.03.6-.07,1.33-.64,1.49-1.2.34-3.86,1.18-4.79,2.16-1.19,1.26-1.29,5.99-1.29,5.99h9.4c.7-2.45,1.65-4.83,2.88-6.12.55-.57,1.25-1.1,2.1-1.61Z"/><path d="m62.75,45.83c-.41-.43-1.22-.9-2.11-1.33-1.17-.58-2.72-1.09-3.41-1.35-.62-.23-.53-1.05-.66-2.13,1.76-.07,2.96-.25,3.57-.48.12-.05.18-.16.13-.27-.33-.72-1.19-2.89-1.3-4.14-.06-.63-.08-1.37-.11-2.13,0,0,0,0,.02,0-.26-2.9-.97-5.58-4.12-4.5,0,0-2.16-1.44-4.11.58-.16,2.77-.65,5.63-1.66,9.7-.08.3-.2.58-.36.83.69.14,1.63.25,2.83.33-.05.42-.11,1.44-.29,1.82,0,0,0,0,0,0-.08.14-.2.25-.36.32-.31.12-.22.08-.92.34.77.48,1.38.96,1.87,1.47,1.24,1.3,2.19,3.68,2.88,6.12h9.39s-.06-3.91-1.25-5.17Z"/><path d="m46.2,44.01c.41,1.42.3,2.74-.34,4.66,1.09.76,1.81,2.02,1.81,3.46,0,2.33-1.89,4.22-4.22,4.22s-4.22-1.89-4.22-4.22,1.89-4.22,4.22-4.22c.08,0,.15.02.23.02.59-1.77.62-2.82.07-3.91-.32-.63-.8-1.09-1.32-1.43-.55-.36-1.17-.6-1.64-.85-.31-.16-.57-.32-.77-.48-.09-.78-.22-1.73-.35-2.65,2.59.27,4.78.59,6.35,1.14.34.12.71-.11.8-.49,1.15-4.66,1.66-7.81,1.66-11.22,0-6.86-2.58-14.19-6.53-16.56-2.52-1.51-5.36-.96-5.36-.96,0,0-2.73-2.62-7.49-1.73-7.78,1.47-13.6,8.93-13.6,19.25,0,3.41.51,6.56,1.67,11.22.1.38.46.61.8.49,1.67-.59,3.93-.92,6.75-1.19-.1.86-.22,1.83-.33,2.81-.53.38-1.67.79-3.02,1.27-1.27.55-1.89,1.2-1.88,2.71.92-.12,1.83.02,2.71.43,4.18,1.93,6.21,9.06,6.29,9.36.07.25.03.51-.06.73,0,.02-.01.04-.02.06-.03.07-.07.13-.12.19-.05.07-.1.13-.17.2-.01.01-.02.02-.03.03-.6.59-1.81,1.18-2.7,1.46-1.04.33-1.35-.16-1.6-.89-.25-.72-.14-1.19.78-1.75.35-.21.82-.47,1.31-.65-.8-2.16-2.47-5.66-4.64-6.66-.78-.36-1.53-.35-2.36.03-3.19,1.48-1.75,7.35-.95,9.87.46-.2.95-.34,1.33-.43,1.05-.24,1.45.03,1.78.71.16.35.28.66.22.95h32.74s-1.33-9.95-3.86-12.6c-.88-.92-2.37-1.7-3.94-2.39Zm-14.13,5.73c-1.24-.53-5.06-2.38-7.06-5.58,1.96-.97,1.84-1.82,1.88-2.19.06-.53.53-4.88.53-4.88-2.31-2.27-3.3-5.11-3.72-7.59-.27-1.59-.23-3.06-.15-4.04,4.4-1.74,10.64-5.27,13.05-8.3,0,0,.29.01.11.46-.32.76-.78,1.66-1.42,2.73,1.14,2.42,3.18,4.18,5.2,5.44.06.95.06,2.26-.18,3.72-.49,2.92-2.59,6.99-4.89,8.42-1.58.98-4.47,1.13-6.15.4.39.77,1.17,1.68,2.89,2.11,2.32.58,4.45-.37,4.99-.69.1.73.2,1.46.26,2.09.04.36.13,1.21,2.23,2.32-2.07,3.3-6.25,5.09-7.57,5.58Z"/><path d="m17.25,46.18c-.09-.94-.03-1.26.17-2.02-1.42.63-2.72,1.37-3.56,2.25-2.53,2.64-3.86,12.6-3.86,12.6h5.91c-.84-2.46-3-10.03,1.34-12.82Z"/><path d="m41.62,52.12c0,1.01.82,1.83,1.83,1.83s1.83-.82,1.83-1.83-.82-1.83-1.83-1.83-1.83.82-1.83,1.83Z"/></g></svg>