<?xml version="1.0" encoding="UTF-8"?><svg id="Laag_1" xmlns="http://www.w3.org/2000/svg" xmlns:xlink="http://www.w3.org/1999/xlink" viewBox="0 0 24 24"><defs><style>.cls-1{fill:none;}.cls-2{clip-path:url(#clippath);}.cls-3{clip-path:url(#clippath-1);}</style><clipPath id="clippath"><rect class="cls-1" width="24" height="24"/></clipPath><clipPath id="clippath-1"><rect class="cls-1" width="24" height="24"/></clipPath></defs><g class="cls-2"><g class="cls-3"><path d="m7.28,10.11c2.93,0,5.57-2.39,7.28-4.84-1.91-2-4.5-3.71-7.28-3.71S1.91,3.22,0,5.27c1.71,2.44,4.35,4.84,7.28,4.84m-1.81-6.74c-.44.44-.69,1.08-.69,1.71,0,1.37,1.12,2.49,2.49,2.49s2.49-1.12,2.49-2.49c0-.68-.29-1.27-.68-1.71,1.61.49,2.93,1.52,3.57,2.1-.83.98-2.98,3.22-5.38,3.22S2.74,6.44,1.91,5.46c.63-.59,1.95-1.61,3.57-2.1"/><rect x="-2.55" y="11.48" width="28.11" height="1.7" transform="translate(-5.35 11.74) rotate(-44.98)"/><path d="m19,13.35v1.33c2,0,3.67,1.67,3.67,3.67s-1.67,3.67-3.67,3.67v1.33c2.73,0,5-2.27,5-5s-2.27-5-5-5"/><path d="m21,18.35c0-1.1-.9-2-2-2v4c1.1,0,2-.9,2-2"/><path d="m17.21,12.79c-.36.21-3.5,2.71-3.5,2.71h-1.43c-1.57,0-2.14,1.5-2.14,2.85s.57,2.86,2.14,2.86h1.43s3.14,2.5,3.5,2.71c.36.21.78,0,.78-.43v-10.35c0-.36-.43-.64-.78-.36"/></g></g></svg>