<?xml version="1.0" encoding="UTF-8"?><svg id="Laag_1" xmlns="http://www.w3.org/2000/svg" xmlns:xlink="http://www.w3.org/1999/xlink" viewBox="0 0 64 64"><defs><style>.cls-1{fill:none;}.cls-2{clip-path:url(#clippath);}.cls-3{fill:#fff;}.cls-4{clip-path:url(#clippath-1);}</style><clipPath id="clippath"><rect class="cls-1" width="64" height="64"/></clipPath><clipPath id="clippath-1"><rect class="cls-1" width="64" height="64"/></clipPath></defs><g class="cls-2"><rect width="64" height="64"/><g class="cls-4"><path class="cls-3" d="M33.1,36.37c-.34,.22-.72,.33-1.1,.33s-.77-.11-1.11-.33L8,21.2v24.8c0,.38,.22,.69,.53,.86l15.11-11.03s.23,.17,.01,.43c-.18,.22-6.73,8.23-8.77,10.74H49.13c-2.05-2.51-8.59-10.51-8.78-10.74-.22-.26,.01-.43,.01-.43l15.11,11.03c.31-.17,.53-.49,.53-.86V21.2l-22.9,15.16Z"/><path class="cls-3" d="M55.85,16.5c-.17-.3-.48-.5-.85-.5H9c-.37,0-.68,.21-.85,.5l23.85,15.8,23.85-15.8Z"/></g></g></svg>