<?xml version="1.0" encoding="UTF-8"?>
<svg id="Zwart" xmlns="http://www.w3.org/2000/svg" viewBox="0 0 64 64">
  <path d="M39.88,46.05c-.08-.6-.2-1.41-.38-2.52,1.37-1.58,2.45-3.59,3.08-5.89,2.13-.95,3.35-3.27,3.37-5.6.01-1.48-.47-2.85-1.3-3.88-.55-.71-1.13-.96-1.13-.96.25-2.43.27-4.78-.11-6.89-.43-2.07-1.12-3.53-1.12-3.53h0c-.03-.05-.06-.11-.08-.16-.33-.77-.09-1.9-.63-2.55-.52-.61-1.67-.56-2.42-1.02-.66-.41-1.09-1.48-1.95-1.75-.74-.23-1.73.37-2.62.25-.77-.1-1.56-.95-2.45-.95s-1.68.85-2.46.95c-.89.11-1.88-.49-2.62-.25-.86.27-1.29,1.34-1.95,1.75-.75.46-1.89.41-2.42,1.02-.55.64-.31,1.77-.64,2.55-.04.09-.09.17-.14.26h0s-.66,1.17-1.13,2.94c0,.01,0,.03.01.04-.52,1.99-.66,4.37-.33,7.19-2.04,1.05-2.5,3.63-2.45,5.28.02.66.3,3.97,3.32,5.32.63,2.3,1.71,4.31,3.08,5.89-.19,1.14-.31,1.96-.39,2.57-8.01,2.4-11.91,8.56-11.91,15.91h39.85c0-7.39-3.96-13.58-12.08-15.95ZM31.96,52.13c-2.95,0-5.09-1.8-5.09-4.28,0-.51.53-4.07.75-5.34-1.92-1.66-3.32-4.37-3.77-7.57-1.39.48-2.59-.84-2.83-2.37-.24-1.58.51-3.05,1.71-3.27.45-.09.81.02,1.2.26l.09-5.18c.02-1.19,1.06-2.09,2.24-1.95l2.96.35c1.3.16,2.56.2,3.84.14,1.95-2.14,4.35-4.99,4.87-5.64,0,0,.32.01.12.5-.2.48-1.47,2.82-2.64,4.92l2.32-.26c1.19-.14,2.24.79,2.24,1.99l.1,5.14c.4-.25.67-.35,1.12-.26,1.19.23,1.95,1.69,1.71,3.27-.23,1.52-1.43,2.86-2.83,2.37-.85,6.11-5.16,10.4-9.82,9.04,1.6,3.16,4.4,2.91,6.55,1.72.19,1.29.24,1.88.24,2.14,0,2.48-2.14,4.28-5.09,4.28Z"/>
</svg>