<?xml version="1.0" encoding="UTF-8"?><svg id="Laag_1" xmlns="http://www.w3.org/2000/svg" xmlns:xlink="http://www.w3.org/1999/xlink" viewBox="0 0 64 64"><defs><style>.cls-1{fill:none;}.cls-2{clip-path:url(#clippath);}.cls-3{clip-path:url(#clippath-1);}</style><clipPath id="clippath"><rect class="cls-1" width="64" height="64"/></clipPath><clipPath id="clippath-1"><rect class="cls-1" width="64" height="64"/></clipPath></defs><g class="cls-2"><g class="cls-3"><path d="M29,21.44c-1.33,0-2.41,1.08-2.41,2.41s1.08,2.41,2.41,2.41,2.41-1.08,2.41-2.41-1.08-2.41-2.41-2.41"/><path d="M19.01,23.85c0-2.32,.8-4.45,2.13-6.15l-1.95-1.95c-1.82,2.2-2.92,5.01-2.92,8.09,0,2.2,.56,4.26,1.54,6.07l2.08-2.08c-.54-1.23-.87-2.56-.87-3.99"/><path d="M53.99,33.11l-5.99-7.24c-.2-.88,.13-2.22,0-2.96-.65-3.76-2.12-7.91-2.12-7.91,2.06-3.92,1.05-7.44-2.04-9.43-3.53-2.27-16.1-2.5-25.46,2.59-9.87,5.37-8.8,15.4-7.14,20.42,1.93,5.84,7.46,14.13,7.86,20.38,.18,2.74-2.1,10.91-2.1,10.91h22.97l-1.09-5.78-5.32-2.7c-.28-.16-.28-.37-.21-.45,0,0,7.61,1.46,10.72,1.86,3.13,.41,5.93-1.98,5.93-5.78v-9.41l3.41-1.72c.93-.6,1.19-1.85,.59-2.77m-24.99,5.89c-8.35,0-15.15-6.8-15.15-15.15,0-7.86,6.02-14.34,13.68-15.08v2.44c-2.51,.29-4.78,1.31-6.63,2.84l1.95,1.95c1.7-1.33,3.83-2.13,6.15-2.13,5.51,0,9.99,4.48,9.99,9.99,0,1.42-.3,2.77-.84,4l-1.91-1.91c.19-.67,.33-1.36,.33-2.09,0-1.65-.55-3.17-1.44-4.42l-1.98,1.98c.42,.72,.68,1.54,.68,2.44,0,2.66-2.17,4.83-4.83,4.83s-4.83-2.17-4.83-4.83,2.17-4.83,4.83-4.83c.89,0,1.72,.26,2.43,.68l1.98-1.98c-1.24-.9-2.76-1.44-4.41-1.44-4.18,0-7.57,3.39-7.57,7.57,0,1.65,.55,3.17,1.44,4.42l-.13,.13h0l-3.56,3.56c2.34,2.82,5.86,4.62,9.81,4.62,3.08,0,5.9-1.09,8.11-2.91l-1.97-1.96c-1.69,1.33-3.82,2.14-6.14,2.14s-4.45-.8-6.15-2.13l1.73-1.73c1.25,.9,2.76,1.44,4.42,1.44,2.53,0,4.76-1.26,6.13-3.16l1.73,1.73h0l1.96,1.97c1.82-2.2,2.91-5.03,2.91-8.11,0-6.53-4.93-11.91-11.26-12.64v-2.44c7.67,.74,13.68,7.22,13.68,15.08,0,8.35-6.8,15.15-15.15,15.15"/></g></g></svg>