<?xml version="1.0" encoding="UTF-8"?><svg id="Laag_1" xmlns="http://www.w3.org/2000/svg" xmlns:xlink="http://www.w3.org/1999/xlink" viewBox="0 0 64 64"><defs><style>.cls-1{fill:none;}.cls-2{clip-path:url(#clippath);}.cls-3{clip-path:url(#clippath-1);}</style><clipPath id="clippath"><rect class="cls-1" width="64" height="64"/></clipPath><clipPath id="clippath-1"><rect class="cls-1" width="64" height="64"/></clipPath></defs><g class="cls-2"><g class="cls-3"><path d="M32.05,38.05h-.81v6.9h.97c2.31,0,3.48-1.23,3.48-3.66,0-2.09-1.29-3.24-3.63-3.24"/><polygon points="21.17 42.77 23.61 42.77 22.41 38.3 21.17 42.77"/><path d="M61.22,30.21L32.81,3.32c-.46-.43-1.17-.43-1.63,0L2.77,30.21c-.49,.46-.78,1.11-.78,1.78v1.8c0,.67,.54,1.21,1.2,1.21H8v25H56v-25h4.8c.66,0,1.2-.54,1.2-1.21v-1.8c0-.68-.28-1.33-.78-1.78M24.87,47.15l-.71-2.38h-3.51l-.71,2.38h-2.53l.08-.25,3.36-11.1h3.38l3.4,11.35h-2.75Zm7.24,0h-3.31v-11.35h3.37c3.83,0,6.03,1.95,6.03,5.36,0,3.87-2.16,5.99-6.09,5.99m13.97,0h-6.3v-11.35h2.44v9.18h3.86v2.17Z"/></g></g></svg>