<?xml version="1.0" encoding="UTF-8"?><svg id="Laag_1" xmlns="http://www.w3.org/2000/svg" xmlns:xlink="http://www.w3.org/1999/xlink" viewBox="0 0 64 64"><defs><style>.cls-1{fill:none;}.cls-2{clip-path:url(#clippath);}.cls-3{clip-path:url(#clippath-1);}</style><clipPath id="clippath"><rect class="cls-1" width="64" height="64"/></clipPath><clipPath id="clippath-1"><rect class="cls-1" width="64" height="64"/></clipPath></defs><g class="cls-2"><g class="cls-3"><path d="M52.15,55.6c1.32,.64,2.22,1.92,2.37,3.4h1.47s-.37-2.88-1.09-6.16l-2.75,2.76Z"/><path d="M40.42,45.32c1.65,0,3.13,.96,3.84,2.4l3.3-3.31c-1.48-.72-2.43-2.24-2.39-3.95-1.88-.74-3.71-1.34-4.95-1.71-.15-1.12-.36-2.41-.55-3.48,1.79-2.17,2.89-4.4,3.25-6.7,1.33-1.22,2.07-3.17,2.07-5.56,0-.74,0-2.7-1.23-4.04,.3-3.34,.51-8.5-.79-10.59-1.6-2.56-3.55-3.82-7.26-2.98-2.44-1.16-4.09-1.88-8.36-.84-2.97,.72-6.21,1.91-7.92,3.88-1.65,1.91-1.54,7.22-1.27,10.61-1.16,1.33-1.16,3.23-1.16,3.96,0,2.39,.74,4.33,2.06,5.55,.38,2.51,1.61,4.91,3.71,7.26-.11,.81-.23,1.75-.35,2.73-2.51,.74-9.67,3-12.03,5.57-2.87,3.12-4.39,14.89-4.39,14.89h29.03l1.13-9.88c.1-.87,.46-1.68,1.03-2.33,.76-.88,1.87-1.41,3.03-1.47h.2Zm-9.04,4.02c-2.3-1.75-6.59-5.53-6.16-9.02,.24-1.91,.04-.55,.82-5.44-2.28-2.2-4.1-4.87-4.1-8.06-1.62-.5-2.04-2.55-2.04-3.82s.32-1.96,.77-2.17c.39-.19,.77-.05,1.01,.09,.14,.65,.25,1.14,.29,1.31,.21,.85,1.02,.77,1.02,.77v-6.75c2.07-.15,6.19-.75,10.75-3.11l5.25,3.53v6.33s.82,.08,1.02-.77c.04-.17,.15-.66,.29-1.31,.24-.14,.62-.27,1.01-.09,.45,.21,.77,.9,.77,2.17s-.42,3.31-2.04,3.82c0,3.7-2.53,6.5-5.34,8.88-.78,.67-2.25,1.11-3.72,1.11-1.06,0-2.13-.29-2.93-.64,.61,.93,1.66,2.07,3.58,2.58,3.16,.84,5.46-.91,5.46-.91,0,0,.28,1.91,.27,2.42,.33,3.49-3.56,7.32-6.01,9.08"/><path d="M61.48,38.37c-.28-.27-.66-.41-1.05-.37l-11.11,1.27c-.27,.03-.51,.14-.7,.31-.26,.22-.43,.55-.44,.91-.03,.63,.41,1.19,1.03,1.31l4.33,.87-5.78,5.78s-.02,.03-.04,.05l-5.17,5.17-.87-4.33c-.12-.62-.68-1.05-1.31-1.02-.36,.02-.69,.18-.92,.44-.17,.19-.28,.43-.31,.7l-1.27,11.11c-.04,.39,.09,.77,.37,1.05,.28,.27,.66,.41,1.05,.37l11.11-1.27c.3-.03,.57-.17,.77-.37,.22-.22,.36-.52,.38-.85,.03-.63-.4-1.19-1.02-1.32l-4.33-.87,5.78-5.78s.02-.03,.03-.04l5.18-5.18,.87,4.33c.12,.62,.68,1.06,1.31,1.02,.33-.02,.63-.16,.85-.38,.2-.2,.34-.47,.37-.77l1.27-11.11c.04-.39-.09-.77-.37-1.05"/></g></g></svg>