<?xml version="1.0" encoding="UTF-8"?><svg id="Laag_1" xmlns="http://www.w3.org/2000/svg" xmlns:xlink="http://www.w3.org/1999/xlink" viewBox="0 0 64 64"><defs><style>.cls-1{fill:none;}.cls-2{clip-path:url(#clippath);}.cls-3{clip-path:url(#clippath-1);}</style><clipPath id="clippath"><rect class="cls-1" width="64" height="64"/></clipPath><clipPath id="clippath-1"><rect class="cls-1" width="64" height="64"/></clipPath></defs><g class="cls-2"><g class="cls-3"><path d="M50.5,46c-2.49,0-4.5-2.01-4.5-4.5,0-1.41,.66-2.65,1.68-3.48l-.82-1.53-6.33,3.62c-.18,.11-.34,.24-.48,.4-.03,.33-.05,.66-.05,.99,0,5.8,4.7,10.5,10.5,10.5s10.21-4.43,10.47-10h-6.03c-.25,2.25-2.14,4-4.45,4"/><path d="M15.04,45.31c-.69,.21-2.73,.88-3.57,.88-1,0-1.97-.32-2.79-.94-1.17-.88-1.88-2.29-1.88-3.76,0-1.54,.75-2.96,2.01-3.84,.2-.16,.64-.39,.9-.53l-6.16-2.47c-1.59,1.84-2.55,4.23-2.55,6.85,0,5.8,4.7,10.5,10.5,10.5,4.57,0,8.45-2.93,9.89-7l-.91-1.38-5.44,1.7Z"/><path d="M56.29,30.67c-.56,.61-1.23,1.14-2,1.56l-5.7,3.26,1.84,3.45c.35,.65,1.03,1.06,1.76,1.06h9.72c.61,0,1.07-.53,.99-1.14-.29-2.21-1.52-6.95-6.61-8.19"/><path d="M54.54,21.23c-.97-1.67-5.24-7.67-7.89-10.75-.53-.62-1.47-.58-1.84,.15-.13,.25-.15,.54-.06,.81,.44,1.35,1.77,5.68,1.76,8.06-2.9-1.18-13.11-3.71-20.26,4.44l-12.25-1.01v-6.63c0-1.77-1.52-2.93-3.29-2.99-1.97-.06-5.7,.25-7,.67-1.47,.47-2.71,1.44-2.71,2.99v3.29c0,1.27,.8,2.4,1.99,2.83h.01v7.62c0,.82,.5,1.55,1.26,1.86l10.58,4.24-4.66,2.57h0c-.71,.45-1.18,1.23-1.18,2.12,0,1.61,1.52,2.87,3.19,2.39,0,0,5.15-1.6,9.22-2.88l2.22,3.37c1.48,2.25,4,3.61,6.69,3.61h1.67c2.33,0,4.34-1.65,4.79-3.94l.58-2.97c.24-1.22,1-2.27,2.08-2.89l13.79-7.89c3.31-1.83,3.24-5.74,1.31-9.08M8.41,31.34l-3.09-1.27,2.68-2.04-.04-3.2,3.01,1.09v3.43l-2.55,1.99Zm5.9,2.6l-3.25-1.35,2.86-2.18-.04-3.41,3.16,1.15v3.66l-2.72,2.13Zm23.22-5.35l-3.86-1.39,3.21-2.83-.27-3.54c1.42-.23,2.83-.23,4.18-.09l.67,4.59-3.93,3.26Zm8.41,3.02l-4.07-1.46,4.27-3.21-1.01-5.3c2.69,.84,4.52,1.9,4.51,1.93l1.44,5.08-5.14,2.96Z"/></g></g></svg>