<?xml version="1.0" encoding="UTF-8"?><svg id="Laag_1" xmlns="http://www.w3.org/2000/svg" viewBox="0 0 64 64"><defs><style>.cls-1{fill:none;}</style></defs><rect class="cls-1" width="64" height="64"/><g><path d="m47.5,17c2.53,0,4-1.6,4-4.43s-1.4-4.57-4-4.57-4,1.6-4,4.57c0,2.61,1.47,4.43,4,4.43Z"/><path d="m23.48,8c2.22,0,3.5-1.61,3.5-3.94,0-2.65-1.34-4.06-3.5-4.06-2.27,0-3.5,1.68-3.5,4.06,0,2.52,1.28,3.94,3.5,3.94Z"/><path d="m39.48,8c2.22,0,3.5-1.61,3.5-3.94,0-2.65-1.34-4.06-3.5-4.06-2.27,0-3.5,1.68-3.5,4.06,0,2.52,1.28,3.94,3.5,3.94Z"/><path d="m58.27,35.2c-.61-3.26-1.36-5.04-1.63-7.3-.61-5.01-2.13-7.41-4.98-8.29-1.35-.42-2.65-.61-4.12-.61h-.05c-1.47,0-2.76.19-4.12.61,0,0-.01,0-.02,0-1.79.55-2.62,1.65-2.83,1.92.99,1.65,1.64,3.88,1.98,6.77.14,1.19.42,2.28.74,3.55.3,1.17.64,2.5.94,4.19.32,1.78.01,3.43-.87,4.64-.68.93-1.65,1.54-2.67,1.68l-.25.03c.15,1.02.25,2.16.32,3.4.54.08,1.35.18,2.3.21l.21,14s3.21-.49,3.43-3.64c0,0,.27-7.04.4-10.63.16-.03.32-.05.49-.08.14-.03.28-.04.43-.07.12,3.51.4,10.69.4,10.69.16,3.24,3.44,3.73,3.44,3.73l.2-14.48c1.52.14,2.96.39,2.96.39,0-7.66-2.03-10.71-2.66-13.11-.34-1.28-.27-2.61.04-3.89.29-1.2.66-2.32.08-4.69,0,0,.31.54.43.89.68,1.94.48,5.69,3.24,14.33,1.2-.15,2.67-1.6,2.17-4.25Z"/><path d="m19.69,40.68c-.88-1.21-1.19-2.86-.87-4.64.31-1.69.64-3.01.94-4.19.32-1.27.6-2.36.74-3.55.43-3.66,1.34-6.25,2.83-7.96-.46-.27-1.01-.53-1.69-.71-3.16-.84-8.37-.84-11.41,0-5.7,1.58-5.29,12.22-4.75,17.28.27,2.58,2.18,3.32,3.4,3.32v-8.55c0-2.1.14-4.15.72-6.03.09-.3.27-.46.41-.34v34.68c2.36,0,4.09-1.39,4.31-4.13,0,0,.67-15.97.68-16.15,0-.18.18-.42.49-.42s.47.24.48.42c0,.18.67,16.18.67,16.18.16,2.65,1.67,4.11,4.34,4.11v-18.14c-.49-.29-.94-.69-1.3-1.18Z"/><path d="m31.5,17c2.89,0,4.55-2.03,4.55-4.96,0-3.33-1.74-5.12-4.55-5.12-2.96,0-4.55,2.11-4.55,5.12,0,3.17,1.67,4.96,4.55,4.96Z"/><path d="m36.54,29.58c.3-1.29.69-2.49.08-5.03,0,0,.32.58.45.95.71,2.08.5,6.1,3.37,15.38,1.25-.16,2.78-1.72,2.27-4.56-.63-3.49-1.41-5.4-1.7-7.83-.63-5.37-2.23-7.95-5.19-8.89-1.41-.45-2.76-.65-4.29-.65h-.05c-1.53,0-2.88.21-4.29.65-2.97.94-4.56,3.52-5.19,8.89-.29,2.43-1.07,4.34-1.7,7.83-.51,2.84,1.02,4.39,2.27,4.56,2.87-9.27,2.66-13.3,3.37-15.38.13-.37.45-.95.45-.95-.61,2.55-.22,3.75.08,5.03.32,1.37.39,2.8.04,4.17-.66,2.57-2.78,5.95-2.78,14.16,0,0,2.11.57,5.51.28.11.18.07.42-.22.62-.25.18-1.01.53-2.53.58l.54,14.61s3.35-.53,3.58-3.9c0,0,.28-8.28.41-12.14.17-.03.34-.05.51-.09.15-.03.3-.05.44-.07.13,3.77.42,12.19.42,12.19.17,3.48,3.59,4,3.59,4l.61-16.26c1.59.16,2.69.42,2.69.42,0-8.21-2.12-11.84-2.78-14.42-.35-1.37-.28-2.8.04-4.17Z"/><path d="m15.5,17c2.53,0,4-1.81,4-4.43,0-2.98-1.53-4.57-4-4.57-2.6,0-4,1.89-4,4.57,0,2.83,1.47,4.43,4,4.43Z"/></g></svg>