<?xml version="1.0" encoding="UTF-8"?><svg id="Laag_1" xmlns="http://www.w3.org/2000/svg" xmlns:xlink="http://www.w3.org/1999/xlink" viewBox="0 0 64 64"><defs><style>.cls-1{fill:none;}.cls-2{clip-path:url(#clippath);}.cls-3{clip-path:url(#clippath-1);}</style><clipPath id="clippath"><rect class="cls-1" width="64" height="64"/></clipPath><clipPath id="clippath-1"><rect class="cls-1" width="64" height="64"/></clipPath></defs><g class="cls-2"><g class="cls-3"><path d="M45,8h-6v-3c0-1.1-.9-2-2-2h-10c-1.11,0-2,.9-2,2v1.49l5.73,1.14c.32,.1,.27,.31,.25,.36h-11.98c-1.1,0-2,.9-2,2V58c0,1.11,.9,2,2,2h26c1.1,0,2-.89,2-2V10c0-1.1-.9-2-2-2m-15,44l3.19-15h-11.19l12-21-3.19,15h11.19l-12,21Z"/></g></g></svg>