<?xml version="1.0" encoding="UTF-8"?><svg id="Laag_1" xmlns="http://www.w3.org/2000/svg" xmlns:xlink="http://www.w3.org/1999/xlink" viewBox="0 0 64 64"><defs><style>.cls-1{fill:none;}.cls-2{clip-path:url(#clippath);}.cls-3{clip-path:url(#clippath-1);}</style><clipPath id="clippath"><rect class="cls-1" width="64" height="64"/></clipPath><clipPath id="clippath-1"><rect class="cls-1" width="64" height="64"/></clipPath></defs><g class="cls-2"><g class="cls-3"><path d="M23.37,7.55c3.64-.13,2.82,1.95,5.48,3.14,1.34,.6,2.48,.2,3.3-.4-.57,3.35,.89,5.64,4.04,6.33,3.3,.73,5.72-1.17,6.45-4.5,.83-3.79-.72-6.27-3.93-6.97-3.22-.71-5.5,1.06-6.36,4.17-.04-.02-.24-.06-.22-.39,.02-.4,.16-1.17,.51-2.04-.59-.59-1.51-1.19-2.97-1.59-2.7-.74-5.27,.8-6.5,1.71-.24,.18-.09,.55,.2,.53"/><path d="M51.9,28.03s-6.58,1.33-8.54,1.03c-1.28-1.85-3.09-6.85-4.5-8.64-2.79-3.53-13.63-2.44-16.85-.76-2.12,1.12-2.67,2.31-3.23,4.51-.49,2.1-.67,5.28-.77,7.44,.06,1.13,.54,2.79,2.79,3.21,0,0,1.64-7.41,2.38-9.34,.19-.49,.44-1.01,.59-1.17,0,0,.91-.49,3.26-.72-.32,1-2.82,9.91-2.82,11.81,0,1.15,.54,2.18,1.4,3.01,1.01,.98,5.33,3.75,5.33,3.75-.02,.13-.18,.22-.56,.13-2.19-.48-4.18-.98-4.18-.98,0,0-1.66,4.14-2.54,5.89-1.78,.64-5.42,1.36-7.27,1.67-2.43,.41-3.5,2.63-3.36,5.08,3.04-.15,7.3-.43,10.29-.89,3.72-.59,4.43-1.11,5.98-3.58,.94-1.48,2.34-4.12,3.45-6.31,3.44,2.13,5.75,3.51,5.75,3.51,.82,1.99,1.74,7.5,2.15,9.6,.56,2.94,2.76,4.51,5.3,4.64-.05-3.79-.22-9.2-.65-12.99-.6-4.76-.76-5.35-5.78-9.42-1.34-1.06-2.59-1.99-3.71-2.81,.54-2.27,1.17-4.81,1.74-7.04,.43,.88,.89,1.74,1.42,2.55,1,1.51,1.66,2.04,2.94,2.39,2.53,.57,5.12,.07,7.52-1.14,2.68-1.35,2.64-3.51,2.46-4.44m-13.53,18.47h0l.03,.05,.06,.07,.02,.02h0c-.06-.07-.09-.12-.11-.15h0"/></g></g></svg>