<?xml version="1.0" encoding="UTF-8"?><svg id="Laag_1" xmlns="http://www.w3.org/2000/svg" xmlns:xlink="http://www.w3.org/1999/xlink" viewBox="0 0 64 64"><defs><style>.cls-1{fill:none;}.cls-2{clip-path:url(#clippath);}.cls-3{clip-path:url(#clippath-1);}</style><clipPath id="clippath"><rect class="cls-1" width="64" height="64"/></clipPath><clipPath id="clippath-1"><rect class="cls-1" width="64" height="64"/></clipPath></defs><g class="cls-2"><g class="cls-3"><path d="M37.17,18.79c-2.69,.19-5.66,.3-8.61,.3-6.9,0-13.97-.59-17.07-1.45,.56-2.75,2.53-9.55,3.15-10.6,.62-.31,5.2-.84,13.92-.84s13.3,.53,13.92,.84c.29,.5,.89,2.3,1.5,4.34,1.24-.67,2.58-1.13,3.96-1.4-.83-2.67-1.71-5.14-2.32-5.78-1.4-1.46-6.31-2.19-17.06-2.19s-15.66,.73-17.06,2.19c-1.04,1.09-2.83,7.38-3.86,11.08-1.33-.19-2.83-.33-3.62-.18-1.79,.35-2.1,1.93-1.63,3,.22,.51,1.02,1.55,2.28,2.41-2.06,2.77-2.66,5.17-2.66,9.64v12.22s0,3.57,.5,5.95c.18,.87,.99,1.48,1.91,1.48h6.87c.93,0,1.73-.62,1.91-1.48,.28-1.33,.4-3.39,.46-4.64l-6.51-1.3c-.34-.11-.29-.33-.27-.39h31.44l-2.22-15.05c-.41-2.8-.02-5.62,1.08-8.17m-20.85,15.85l-6.25-.5c-1.69-.14-2.73-1.49-3.04-2.97l-.26-1.79c-.16-1.11,.98-2.05,2.1-1.74l5.06,1.41c1.1,.42,1.93,1.28,2.29,2.36l.69,2.58c.09,.34-.22,.68-.59,.65m18.67,4.36h-13v-3h13v3Z"/><path d="M51.07,13h0c-7.38,0-13,6.27-11.93,13.66l3.12,21.66c.12,.83,.69,1.52,1.47,1.78,.72,.24,1.79,.5,3.27,.68v8.23h8v-6.91c-1.17-.1-3.19-.33-4.74-.85-.22-.07-.2-.2-.19-.26,2.57,.06,5.88-.08,8.33-.89,.79-.26,1.35-.95,1.47-1.78l2.99-21.66c1.08-7.38-4.42-13.66-11.8-13.66m-.07,26.15c-2.29,0-4.15-1.86-4.15-4.15s1.86-4.15,4.15-4.15,4.15,1.86,4.15,4.15-1.86,4.15-4.15,4.15m7.14-14.15h-4.14c0-.71-.26-1.36-.67-1.87l.63-3.65c.03-.19-.2-.31-.34-.18l-2.78,2.71c-1.58,.08-2.84,1.38-2.84,2.98h-4.13c-.6,0-1.07-.52-1-1.12,.18-1.58,.81-3.04,1.87-4.26,1.55-1.79,3.86-2.82,6.33-2.82h0c2.46,0,4.67,.98,6.21,2.76,1.06,1.22,1.69,2.71,1.87,4.33,.06,.59-.41,1.11-1,1.11"/></g></g></svg>