<?xml version="1.0" encoding="UTF-8"?><svg id="Laag_1" xmlns="http://www.w3.org/2000/svg" xmlns:xlink="http://www.w3.org/1999/xlink" viewBox="0 0 64 64"><defs><style>.cls-1{fill:none;}.cls-2{clip-path:url(#clippath);}.cls-3{clip-path:url(#clippath-1);}</style><clipPath id="clippath"><rect class="cls-1" width="64" height="64"/></clipPath><clipPath id="clippath-1"><rect class="cls-1" width="64" height="64"/></clipPath></defs><g class="cls-2"><g class="cls-3"><path d="M61.22,30.21L32.81,3.32c-.46-.43-1.17-.43-1.62,0L2.77,30.21c-.49,.46-.78,1.11-.78,1.78v1.8c0,.67,.54,1.21,1.2,1.21H8v25H56v-25h4.8c.66,0,1.2-.54,1.2-1.21v-1.8c0-.68-.28-1.33-.78-1.78m-13.86,9.09l-2.37,1.2v6.54c0,2.64-2.08,4.49-4.26,4.2-2.17-.28-7.64-1.49-7.64-1.49-.02,.03-.08,.16,.12,.27l3.72,1.92,.09,4.06h-15.1s1.4-5.72,1.28-7.62c-.28-4.34-4.12-10.09-5.46-14.15-1.15-3.49-1.9-10.45,4.96-14.18,6.5-3.53,15.23-3.37,17.68-1.8,2.15,1.38,2.85,3.82,1.42,6.55,0,0,1.32,2.89,1.77,5.49,.09,.52-.14,1.65,0,2.26l4.19,4.83c.42,.64,.24,1.51-.41,1.92"/><path d="M37.48,29.46c-.66-.15-1.3-.28-1.92-.41-.37-.08-.68-.34-.82-.69,0-.01-.01-.02-.01-.03-.14-.35-.11-.74,.09-1.05,.35-.54,.7-1.1,1.06-1.68,.2-.33,0-.74-.37-1.1-.36-.36-.78-.58-1.1-.37-.57,.36-1.12,.72-1.64,1.06-.32,.21-.72,.25-1.08,.1l-.04-.02c-.36-.15-.62-.46-.7-.83-.13-.62-.27-1.26-.41-1.91-.08-.38-.53-.51-1.04-.51s-.95,.14-1.04,.51c-.16,.66-.3,1.3-.44,1.93-.08,.37-.34,.68-.69,.83h-.01c-.36,.15-.76,.12-1.08-.09-.53-.34-1.08-.7-1.64-1.06-.33-.21-.74,0-1.1,.37-.36,.36-.57,.77-.37,1.1,.36,.58,.71,1.14,1.06,1.68,.2,.31,.24,.7,.09,1.05,0,.01,0,.02-.01,.03-.14,.35-.45,.61-.82,.69-.62,.13-1.26,.27-1.92,.41-.38,.08-.51,.53-.51,1.04s.14,.95,.51,1.04c.66,.16,1.31,.3,1.94,.44,.37,.08,.67,.33,.81,.68v.03c.16,.35,.13,.75-.08,1.06-.34,.53-.7,1.08-1.06,1.65-.21,.32,0,.74,.37,1.1,.36,.36,.77,.57,1.1,.37,.58-.36,1.14-.71,1.68-1.06,.32-.2,.71-.24,1.05-.09h.01c.35,.15,.61,.45,.69,.82,.14,.63,.28,1.28,.44,1.94,.09,.38,.53,.51,1.04,.51s.96-.14,1.04-.51c.15-.66,.28-1.3,.41-1.92,.08-.37,.34-.68,.69-.82h.03c.35-.16,.73-.12,1.05,.08,.54,.35,1.1,.7,1.68,1.06,.33,.2,.74,0,1.1-.37,.36-.36,.58-.78,.37-1.1-.36-.57-.72-1.12-1.07-1.65-.21-.32-.24-.71-.09-1.06v-.03c.16-.35,.46-.6,.82-.68,.63-.14,1.28-.28,1.94-.44,.37-.09,.52-.53,.52-1.04s-.14-.96-.52-1.04m-7.98,3.76c-1.5,0-2.72-1.22-2.72-2.72s1.22-2.72,2.72-2.72,2.72,1.22,2.72,2.72-1.22,2.72-2.72,2.72"/></g></g></svg>