<?xml version="1.0" encoding="UTF-8"?><svg id="Laag_1" xmlns="http://www.w3.org/2000/svg" xmlns:xlink="http://www.w3.org/1999/xlink" viewBox="0 0 64 64"><defs><style>.cls-1{fill:none;}.cls-2{clip-path:url(#clippath);}.cls-3{clip-path:url(#clippath-1);}</style><clipPath id="clippath"><rect class="cls-1" width="64" height="64"/></clipPath><clipPath id="clippath-1"><rect class="cls-1" width="64" height="64"/></clipPath></defs><g class="cls-2"><g class="cls-3"><path d="M9.49,7.19l-2.12,2.12,9.96,9.96c-.02,.24-.03,.51-.03,.8,0,1.47,.38,3.82,2.26,4.4,.6,5.03,3.12,7.97,6.22,10.57,.82,.69,2.29,1.05,3.83,1.12,.14,.25,.14,.54-.41,.73-.92,.3-3.8,.73-6.91-.88-.02-.01-.04-.03-.07-.04-2.32,.62-10.32,2.91-12.81,5.53-2.91,3.06-4.05,14.5-4.05,14.5H54.06l3.91,3.91,2.12-2.12L9.49,7.19Zm14.51,44.81H15v-4h9v4Z"/><path d="M54.21,48.78c-.65-2.92-1.59-5.92-2.88-7.28-1.61-1.69-5.51-3.24-8.69-4.3l11.57,11.57Z"/><path d="M40.66,24.47c1.88-.58,2.26-2.93,2.26-4.4s-.26-2.26-.78-2.5c-.25-.12-.5-.12-.72-.07,.19-3.05,.38-9.1-.9-11.37-1.39-2.48-3.24-3.13-6.47-2.32-2.12-1.12-3.56-2.23-7.26-1.22-2.57,.7-5.39,1.85-6.88,3.76-1.01,1.3-1.26,4.16-1.24,6.88l18.77,18.77c1.61-2.03,2.79-4.45,3.22-7.53"/></g></g></svg>