<?xml version="1.0" encoding="UTF-8"?><svg id="Laag_1" xmlns="http://www.w3.org/2000/svg" xmlns:xlink="http://www.w3.org/1999/xlink" viewBox="0 0 64 64"><defs><style>.cls-1{fill:none;}.cls-2{clip-path:url(#clippath);}.cls-3{fill:#bfbfbf;}.cls-4{clip-path:url(#clippath-1);}</style><clipPath id="clippath"><rect class="cls-1" width="64" height="64"/></clipPath><clipPath id="clippath-1"><rect class="cls-1" width="64" height="64"/></clipPath></defs><g class="cls-2"><g class="cls-4"><path class="cls-3" d="M40.04,22.17c-8.59-4.39-19.44-.85-23.84,7.74-1.3,2.54-1.94,5.4-1.93,8.08h17.76l8.83,15.35c2.81-1.63,5.52-4.17,7.1-7.26,4.4-8.59,.67-19.51-7.92-23.91"/><path d="M56.05,5.37c-1.16-.27-2.3-.28-3.38-.06,2.95,1.96,4.09,5.84,2.51,9.12-.99,2.07-2.85,3.45-4.93,3.92,.76,.5,1.61,.89,2.55,1.11,4.1,.97,8.19-1.47,9.09-5.36,.9-3.9-1.74-7.75-5.85-8.72"/><path d="M15.42,8.8c-.01,.92-.02,1.79-.03,2.59,.01,.27,.34,.39,.57,.23,.68-.49,1.42-1.03,2.04-1.64,.81,.33,1.7,.55,2.51,.73,.27,.07,.53-.18,.44-.42-.31-.73-.66-1.53-1.02-2.38,.5-.75,.99-1.53,1.39-2.2,.13-.22-.03-.55-.3-.56-.79-.02-1.72,.02-2.58,.09-.53-.69-1-1.32-1.49-1.96-.08-.11-.19-.15-.31-.12-.12,.02-.2,.1-.24,.23-.2,.78-.4,1.54-.63,2.38-.82,.26-1.69,.59-2.41,.91-.24,.11-.27,.48-.06,.63,.63,.47,1.38,.99,2.12,1.5"/><path d="M8.19,20.13c-.52-.2-1.14-.4-1.73-.57-.18-.59-.35-1.12-.52-1.66-.03-.09-.09-.14-.18-.16-.08-.01-.16,.02-.22,.1-.32,.47-.64,.93-.99,1.43-.61-.02-1.27-.02-1.82,.02-.19,.01-.29,.25-.19,.41,.3,.46,.67,.99,1.05,1.51-.23,.61-.45,1.18-.65,1.71-.06,.18,.13,.34,.32,.29,.57-.16,1.2-.34,1.75-.6,.45,.41,.99,.77,1.49,1.1,.16,.11,.4,.01,.39-.18-.03-.56-.07-1.18-.11-1.83,.51-.38,1.02-.77,1.45-1.12,.14-.12,.11-.37-.06-.45"/><path d="M36.82,15.51c-12.42-2.66-24.65,5.25-27.31,17.67-2.66,12.42,5.25,24.65,17.67,27.31,12.42,2.66,24.65-5.25,27.31-17.67,2.66-12.42-5.25-24.65-17.67-27.31m12.29,26.16c-2.02,9.44-11.34,15.47-20.78,13.44-9.43-2.02-15.47-11.34-13.44-20.78s11.34-15.47,20.78-13.44c9.43,2.02,15.47,11.34,13.44,20.78"/><path d="M33.5,24.4h0c-.06-.75-.64-1.35-1.4-1.4-.83-.06-1.55,.57-1.6,1.4l-.73,11.02-9.38,1.3c-.6,.08-1.08,.58-1.12,1.21-.04,.72,.5,1.33,1.22,1.37h.01l11.6,.69c.1,0,.21,0,.31,0,1.25-.09,2.18-1.18,2.08-2.43v-.06l-1-13.09Z"/></g></g></svg>