<?xml version="1.0" encoding="UTF-8"?><svg id="Laag_1" xmlns="http://www.w3.org/2000/svg" viewBox="0 0 64 64"><defs><style>.cls-1{fill:none;}</style></defs><rect class="cls-1" width="64" height="64"/><g><path d="m52.23,44.76c-2.77.95-6.37,2.41-9.22,3.61.07.43.08.89.01,1.38-.41,2.81-2.82,4.58-6.24,4.74-7.73.36-12.53-1.56-13.53-1.96-.29-.12-.32-.26-.29-.39,0,0,.01,0,.01,0,5.59.96,9.12,1.12,13.46.42,3.29-.53,4.49-2.11,4.46-3.41-.03-1.27-.93-2.04-2.95-2.11-6.89-.24-10.92-1.01-16.82-1.87-4.1-.6-8.06.47-11.43,2.63-3.16,2.03-4.04,2.99-4.04,2.99l5.79,11.14,7.48-3.04c.85-.35,1.78-.45,2.69-.3l10.26,2.28c2.29.38,4.64-.06,6.64-1.22l20.48-12.85s-1-4.02-6.76-2.04Z"/><path d="m36.13,10.6c.27-.02.49-.12.66-.27.27,1.02,1.04,1.72,2.27,1.99,1.88.41,3.26-.66,3.68-2.56.47-2.16-.41-3.57-2.24-3.97-1.93-.42-3.27.72-3.7,2.67-.09.4-.11.76-.1,1.11-.08.06-.21.02-.3-.26-.09-.28-.18-.82-.05-1.6-.15-.04-.31-.06-.48-.05-.78.07-1.15.72-1.07,1.61.08.93.57,1.41,1.33,1.35Z"/><path d="m42.78,39.46c-.98,0-1.77.79-1.77,1.77s.79,1.77,1.77,1.77,1.77-.79,1.77-1.77-.79-1.77-1.77-1.77Z"/><path d="m48.08,41.22c0,.98.79,1.77,1.77,1.77s1.77-.79,1.77-1.77-.79-1.77-1.77-1.77-1.77.79-1.77,1.77Z"/><path d="m28.14,23.5l-1.27,10.88c.42.17.88.25,1.38.29.01,1.06.04,3.97.07,5.07.06,2.39,1.93,3.08,2.48,3.24.02-.28.35-6.01.53-8.49.72-.08,1.48-.16,2.29-.2.32,1.48,1.18,5.36,1.34,6.11.39,1.84,1.73,2.72,3.23,2.59,0,0-.57-5.68-.86-8.51.33.06.66.13,1,.21,0,0-.51-5.71-2.48-9.83.64-1.47,1.35-3.11,2-4.61.04.21.08.42.13.64.28,1.09.47,1.66,1.48,3,1.42,1.87,2.48,3.21,3.64,1.93h.73c.41,0,.52.14.6.33l1.13,4.36-2.77,7.09c-.2.49.1.87.59,1.07.49.2.98.13,1.18-.36l1.8-4.68.86,3.37s.01.05.02.07c.33.96,1.19,1.56,2.24,1.56h1.26c.77,0,1.29-.34,1.5-.87.15-.37.12-.9-.39-.99-.21-.04-.42-.04-.78-.05,0,0-.01,0-.02,0h-1.57c-.28,0-.38-.13-.43-.25l-2.8-10.85s-.02-.06-.03-.09c-.39-1.04-1.24-1.61-2.4-1.61h-1.59c-.91-1.57-1.06-1.87-1.34-2.47-.19-.41-.21-.42-.35-1.11-.27-1.32-.38-3.22-.55-4.69-.21-1.86-3.27-3.56-5.32-2.91-1.34.42-2.54,1.89-3.54,3.51-2.28,3.74-2.84,6.48-2.98,7.26Z"/><path d="m16.09,32.68c-.1,1.76-.39,4.2-.56,6.57-.2,2.76,1.87,3.4,2.35,3.51.51-2.3,1.58-7.36,1.91-9.67-.49-1.34-1.57-3.7-2.06-5.22-.13-.4-.1-.61.05-.64.34.53,2.55,4.06,2.65,4.68.36,1.52.82,5.45,1.32,8.13.58,3.1,3.41,2.95,3.53,2.94-.12-2.87-.2-7.86-.4-10.74-.11-1.47-.18-1.63-.37-2.43-.51-1.89-1.41-4.53-2.25-6.3.33-4.69.14-6.37.33-8.91.53,1.03,1.56,2.55,2.24,3.47.53.72,1.5.4,1.79.16.92-.77,2.65-2.3,3.57-3.11.91-.81,1.94-1.73,1.94-1.73-.93-1-2.25-.93-3.54.04-.88.67-1.69,1.3-2.31,1.77-.84-1.64-1.98-4-2.54-4.71-.79-1-2.43-2.44-4.75-1.97-1.92.38-2.57,1.83-2.86,3.56-.26,1.56-.08,3.42-.13,4.93-.04.75-.13,1.63-.4,3.39-.47,3.15-.18,3.48.43,5.04.45,3.13.08,6.71.06,7.22Z"/><path d="m20.46,7.55c2,.01,3.16-1.38,3.18-3.39.02-2.29-1.18-3.53-3.13-3.55-2.05-.01-3.16,1.43-3.18,3.5-.02,2.18,1.13,3.42,3.13,3.44Z"/></g></svg>