<?xml version="1.0" encoding="UTF-8"?><svg id="Laag_1" xmlns="http://www.w3.org/2000/svg" xmlns:xlink="http://www.w3.org/1999/xlink" viewBox="0 0 64 64"><defs><style>.cls-1{fill:none;}.cls-2{clip-path:url(#clippath);}.cls-3{clip-path:url(#clippath-1);}</style><clipPath id="clippath"><rect class="cls-1" width="64" height="64"/></clipPath><clipPath id="clippath-1"><rect class="cls-1" width="64" height="64"/></clipPath></defs><g class="cls-2"><g class="cls-3"><path d="M50.06,12.73c-4.57-4.41-10.65-7.37-13.64-4.37-.19,.19-.32,.32-14.56,21.56l-3.57,2.43c3.04,1.24,6.26,4.6,7.4,7.76,.11,.32-.08,.32-.13,.3-.45-.55-.93-1.09-1.47-1.63-3.67-3.67-7.9-5.47-9.4-3.98-1.51,1.51,.27,5.73,3.97,9.44,3.7,3.7,7.93,5.48,9.44,3.97,.23-.23,4.4-6.7,4.58-6.97,21.55-14.45,21.67-14.57,21.86-14.77,3.38-3.38-1.06-10.46-4.47-13.75m1.52,10.74c-1.64,1.13-11.69,7.88-19.4,13.06-1.58-2.64-3.19-4.47-5.74-5.93,5.12-7.62,11.74-17.48,12.95-19.24,.81-.16,4.03,.66,7.76,4.39,3.8,3.8,4.59,7.05,4.44,7.73"/><path d="M11.51,44.13c-1.28,0-2.32,1.04-2.32,2.32s1.04,2.32,2.32,2.32,2.32-1.04,2.32-2.32-1.04-2.32-2.32-2.32"/><path d="M18.5,50.16c-1.28,0-2.32,1.04-2.32,2.32s1.04,2.32,2.32,2.32,2.32-1.04,2.32-2.32-1.04-2.32-2.32-2.32"/><path d="M9.5,52.14c-1.28,0-2.32,1.04-2.32,2.32s1.04,2.32,2.32,2.32,2.32-1.04,2.32-2.32-1.04-2.32-2.32-2.32"/></g></g></svg>