<?xml version="1.0" encoding="UTF-8"?><svg id="Laag_1" xmlns="http://www.w3.org/2000/svg" xmlns:xlink="http://www.w3.org/1999/xlink" viewBox="0 0 64 64"><defs><style>.cls-1{fill:none;}.cls-2{clip-path:url(#clippath);}.cls-3{clip-path:url(#clippath-1);}</style><clipPath id="clippath"><rect class="cls-1" width="64" height="64"/></clipPath><clipPath id="clippath-1"><rect class="cls-1" width="64" height="64"/></clipPath></defs><g class="cls-2"><g class="cls-3"><path d="M51.54,32.85l-3.54-8.85h-9V15.69c0-.28-.22-.5-.5-.5h-1.8L30.96,1.31c-.17-.41-.75-.41-.92,0l-5.74,13.88h-1.8c-.28,0-.5,.22-.5,.5v3.99c1.78,1.28,2.97,3.27,3.07,5.49,2.43,1.67,2.38,4.79,1.41,6.25-.34,.51-.6,.61-.8,.58h-.12c.45-2.36-.71-4.68-2.76-5.66,.46-2.55-1.25-5.08-3.94-5.74-1.37-.34-2.73-.13-3.85,.48-.54-.41-1.16-.72-1.86-.89-2.79-.69-5.65,1.09-6.53,4-2.29,.12-4.54,1.94-5.22,4.69-.53,2.15,.07,4.36,1.25,5.74-.55,.63-1.14,1.49-1.35,2.36-.47,1.92,.33,3.74,1.63,4.98l5.04-6.91s7.48,1.5,7.75,1.56c.3,.07,.3,.3,.27,.4h-7L1,48v11H15v-11l7.19-11,6.81,11v11h4v-15.45c0-6.13,7.31-10.75,17-10.75,.52,0,1.03,.02,1.54,.05"/><path d="M50,55c7.85,0,14-3.38,14-7.68v-3.65c0-4.3-6.15-7.67-14-7.67s-14,3.37-14,7.67v3.65c0,.95,.31,1.85,.86,2.68-.55,.83-.86,1.72-.86,2.66v3.65c0,4.3,6.15,7.68,14,7.68s14-3.38,14-7.68v-3.65c0-.2-.03-.41-.05-.61-.72,.9-4.57,5.14-13.61,5.14-8.02,0-10.78-3.86-11.07-4.38-.12-.21-.2-.44-.08-.57,2.55,1.69,6.41,2.75,10.81,2.75m-11.3-11c0-2.84,5.06-5.15,11.3-5.15s11.3,2.31,11.3,5.15-5.06,5.15-11.3,5.15-11.3-2.31-11.3-5.15"/><path d="M47.85,45.73v.68h1.55v-.56c.31,.02,.67,.02,1.02,.02h.38v.54h1.52v-.62c2.78-.3,4.11-1.26,4.11-2.67,0-.55-.06-.78-.31-1.34h-2.06c.21,.52,.29,.78,.29,1.25,0,.62-.59,1.12-2.03,1.33v-1.76h-1.52v1.89c-.19,0-.38,.02-.61,.02-.27,0-.52-.01-.79-.02v-1.89h-1.55v1.75c-1.4-.21-2.13-.66-2.13-1.37,0-.41,.08-.65,.25-1.15h-2.17c-.17,.43-.23,.73-.23,1.12,0,1.42,1.44,2.42,4.28,2.78"/><rect x="19" y="50" width="6" height="5"/></g></g></svg>