<?xml version="1.0" encoding="UTF-8"?><svg id="Laag_1" xmlns="http://www.w3.org/2000/svg" xmlns:xlink="http://www.w3.org/1999/xlink" viewBox="0 0 64 64"><defs><style>.cls-1{fill:none;}.cls-2{clip-path:url(#clippath);}.cls-3{clip-path:url(#clippath-1);}</style><clipPath id="clippath"><rect class="cls-1" width="64" height="64"/></clipPath><clipPath id="clippath-1"><rect class="cls-1" width="64" height="64"/></clipPath></defs><g class="cls-2"><g class="cls-3"><path d="M39.3,32.41c.74-.12,1.57-.22,2.44-.3,.19-1,.29-2.04,.24-3.11-.24-5.12-2.75-7.44-4.54-12.58-2.07-5.96-4.04-12.42-12.44-12.42s-10.37,6.46-12.44,12.42c-1.79,5.14-4.3,7.46-4.54,12.58-.23,4.9,2.61,9.31,3.89,11.03-2.86,1.06-6.08,2.51-7.52,4.08-1.85,2.01-3.14,9.68-3.82,14.89H34.48c-.02-.1-.06-.2-.08-.3-.5-3.02-.61-7.49-.61-10.7s.11-7.68,.61-10.7c.42-2.51,2.38-4.47,4.89-4.89m-10.58,3.3c-.78,.66-2.25,1.11-3.72,1.11-1.06,0-2.12-.29-2.93-.64,.61,.93,1.65,2.07,3.58,2.59,3.16,.83,5.46-.91,5.46-.91,0,0,.28,1.91,.27,2.42,.33,3.49-3.56,7.32-6.01,9.08-2.3-1.75-6.59-5.53-6.16-9.02,.24-1.91,.04-.55,.82-5.44-2.18-2.11-3.93-4.64-4.08-7.66-1.77,.89-3.33,2.03-4.55,3.38-.05-.06-.17-.17,.03-.49,2.5-4.23,7.89-7.17,13.55-7.17s11.05,2.95,13.55,7.17c.19,.33,.08,.44,.03,.49-1.22-1.35-2.78-2.48-4.54-3.37-.18,3.5-2.62,6.18-5.32,8.48"/><path d="M62.43,37.83c-.19-1.17-1.09-2.07-2.26-2.26-3.39-.56-9.04-.56-10.17-.56s-6.78,0-10.17,.56c-1.17,.19-2.07,1.09-2.26,2.26-.56,3.39-.56,9.04-.56,10.17s0,6.78,.56,10.17c.19,1.17,1.09,2.06,2.26,2.26,3.39,.57,9.04,.57,10.17,.57s6.78,0,10.17-.57c1.17-.2,2.07-1.09,2.26-2.26,.57-3.39,.57-9.04,.57-10.17,0-3.39,0-6.78-.57-10.17m-10.43,11.73v5.44h-4v-5.44c-1.25-.7-2.1-2.02-2.1-3.56,0-2.27,1.84-4.1,4.1-4.1s4.1,1.84,4.1,4.1c0,1.53-.85,2.85-2.1,3.56"/></g></g></svg>