<?xml version="1.0" encoding="UTF-8"?><svg id="Laag_1" xmlns="http://www.w3.org/2000/svg" xmlns:xlink="http://www.w3.org/1999/xlink" viewBox="0 0 64 64"><defs><style>.cls-1{fill:none;}.cls-2{clip-path:url(#clippath);}.cls-3{clip-path:url(#clippath-1);}</style><clipPath id="clippath"><rect class="cls-1" width="64" height="64"/></clipPath><clipPath id="clippath-1"><rect class="cls-1" width="64" height="64"/></clipPath></defs><g class="cls-2"><g class="cls-3"><path d="M61.83,12.41c-2.48-1.11-9.04-3.41-20.83-3.41-.44,0-.86,0-1.28,.02-.8,1.43-1.02,2.98-.91,4.02,.08,.77-.26,1.52-.92,1.94-2.5,1.59-2.59,2.9-2.47,4.62,.08,1.22-.63,2.35-1.77,2.79-1.98,.76-2.56,1.08-5.48,5.98-.44,.74-1.31,1.13-2.16,.96-1.03-.21-1.8-.23-3.12,1.45-.39,.49-.97,.83-1.59,.82-.57,0-1.38,.28-2.3,.76v10.82c0,3.39,1.44,6.62,3.95,8.91,6.67,6.07,14.17,9.39,16.94,10.49,.71,.28,1.5,.28,2.21,0,2.77-1.1,10.28-4.42,16.94-10.49,2.51-2.29,3.95-5.52,3.95-8.91V14.23c0-.78-.45-1.5-1.17-1.82m-11.64,25.19l-11.56,6.81c-3.18,1.87-7.31,.78-9.19-2.44-1.88-3.21-.81-7.38,2.37-9.25l11.56-6.81c3.18-1.87,7.31-.78,9.19,2.44,1.88,3.21,.81,7.37-2.37,9.25"/><path d="M44.73,28.25l-5.66,3.34c.85-.17,2.28,1.03,3.36,2.88,.9,1.54,1.29,3.08,1.07,3.93l5.33-3.14c1.9-1.12,2.55-3.62,1.42-5.55-1.11-1.9-3.59-2.6-5.51-1.46"/><path d="M13,19c-1.11,0-2,.9-2,2s.89,2,2,2,2-.89,2-2-.9-2-2-2"/><path d="M13,10c-1.11,0-2,.9-2,2s.89,2,2,2,2-.89,2-2-.9-2-2-2"/><path d="M30,19c1.1,0,2-.89,2-2s-.9-2-2-2-2,.9-2,2,.89,2,2,2"/><path d="M20,20c1.1,0,2-.89,2-2s-.9-2-2-2-2,.9-2,2,.89,2,2,2"/><path d="M3,5c1.11,0,2-.89,2-2s-.89-2-2-2S1,1.9,1,3s.89,2,2,2"/><path d="M32,11c0,1.11,.89,2,2,2s2-.89,2-2-.9-2-2-2-2,.9-2,2"/><path d="M22,5c1.1,0,2-.89,2-2s-.9-2-2-2-2,.9-2,2,.89,2,2,2"/><path d="M31,6c1.1,0,2-.89,2-2s-.9-2-2-2-2,.9-2,2,.89,2,2,2"/><path d="M20,27c0-1.1-.9-2-2-2s-2,.9-2,2,.89,2,2,2,2-.89,2-2"/><path d="M3,21c-1.11,0-2,.9-2,2s.89,2,2,2,2-.89,2-2-.89-2-2-2"/><path d="M12,33c-1.11,0-2,.9-2,2s.89,2,2,2,2-.89,2-2-.9-2-2-2"/><path d="M12.58,28.91c.4-.72,.14-1.64-.59-2.04-.21-.12-2.16-1.14-4.14-.32-1.86,.77-2.83,2.76-2.93,2.99-.35,.75-.02,1.64,.73,1.99,.2,.09,.42,.14,.63,.14,.57,0,1.11-.32,1.36-.87,.1-.22,.67-1.19,1.35-1.47,.56-.23,1.32,.05,1.55,.17,.72,.4,1.64,.14,2.04-.59"/><path d="M27.3,22.58c.81-.16,1.34-.96,1.17-1.77-.16-.81-.95-1.33-1.77-1.17-.24,.05-2.38,.53-3.36,2.44-.92,1.79-.36,3.94-.3,4.17,.18,.66,.79,1.1,1.44,1.1,.13,0,.27-.02,.4-.05,.8-.22,1.26-1.05,1.04-1.85-.07-.24-.26-1.34,.08-2,.28-.54,1.04-.81,1.29-.87"/><path d="M22.82,9.8c-.73-.39-1.64-.11-2.03,.62s-.11,1.64,.62,2.03c.15,.08,1.18,.6,2.46,.6,.53,0,1.11-.09,1.69-.34,1.85-.79,2.79-2.8,2.89-3.03,.34-.76,0-1.64-.76-1.98-.76-.34-1.64,0-1.98,.76-.1,.22-.65,1.2-1.33,1.49-.56,.24-1.31-.03-1.55-.15"/><path d="M11.29,3.1c-2,.25-3.46,1.91-3.62,2.1-.53,.63-.45,1.57,.17,2.11,.28,.24,.63,.36,.97,.36,.42,0,.84-.18,1.14-.52,.21-.25,.99-.98,1.7-1.07,.61-.07,1.25,.4,1.45,.58,.59,.58,1.54,.57,2.12-.03,.58-.59,.57-1.54-.03-2.12-.18-.17-1.77-1.67-3.91-1.41"/><path d="M3.41,11.15c-.83,.05-1.46,.76-1.41,1.59,.01,.25,.19,2.43,1.95,3.67,1.11,.78,2.46,.92,3.31,.92,.41,0,.7-.03,.78-.04,.82-.11,1.39-.85,1.29-1.67-.1-.82-.85-1.4-1.67-1.3-.33,.04-1.39,.06-1.98-.35-.49-.35-.66-1.14-.68-1.4-.05-.83-.75-1.47-1.59-1.41"/></g></g></svg>