<?xml version="1.0" encoding="UTF-8"?><svg id="Laag_1" xmlns="http://www.w3.org/2000/svg" viewBox="0 0 64 64"><defs><style>.cls-1{fill:none;}</style></defs><rect class="cls-1" width="64" height="64"/><path d="m28.02,43.93c1.52,0,2.31-1.06,2.31-2.43,0-1.61-.85-2.49-2.34-2.49s-2.31,1.09-2.31,2.49c0,1.58.85,2.43,2.34,2.43Z"/><polygon points="29.83 33.02 30.19 23.29 26.13 23.64 26.13 38 29.83 37.9 29.83 33.02"/><path d="m9.21,47L27.82,14.94l10.21,17.3c1.92-.97,4.02-1.45,6.13-1.42L30.38,7.47c-.54-.91-1.52-1.47-2.58-1.47h-.01c-1.07,0-2.05.57-2.58,1.49L1.41,48.49c-.54.93-.54,2.07,0,3s1.53,1.5,2.6,1.5h30.36c-1.63-1.74-2.69-3.82-3.2-6H9.21Z"/><path d="m61.41,57.34l-8.16-7.39c2.75-4.26,2.26-10-1.47-13.73-4.3-4.3-11.26-4.3-15.56,0-4.3,4.3-4.3,11.26,0,15.56,3.73,3.73,9.47,4.22,13.73,1.47l7.39,8.16c1.03,1.15,2.68.94,3.85-.22,1.16-1.16,1.37-2.82.22-3.85Zm-12.39-8.32c-2.77,2.77-7.27,2.77-10.04,0-2.77-2.77-2.77-7.27,0-10.04,2.77-2.77,7.27-2.77,10.04,0,2.77,2.77,2.77,7.27,0,10.04Z"/></svg>