<?xml version="1.0" encoding="UTF-8"?><svg id="Laag_1" xmlns="http://www.w3.org/2000/svg" xmlns:xlink="http://www.w3.org/1999/xlink" viewBox="0 0 64 64"><defs><style>.cls-1{fill:none;}.cls-2{clip-path:url(#clippath);}.cls-3{clip-path:url(#clippath-1);}</style><clipPath id="clippath"><rect class="cls-1" width="64" height="64"/></clipPath><clipPath id="clippath-1"><rect class="cls-1" width="64" height="64"/></clipPath></defs><g class="cls-2"><g class="cls-3"><path d="M13,48V8H29.71l.93-3.13c.11-.34,.36-.23,.36-.23v14.37c0,.55,.45,1,1,1h14.37s.12,.25-.22,.36l-3.15,.93v6.71c1.73,0,3.4,.25,5,.69v-8.86c0-.53-.21-1.04-.59-1.42L32.59,3.59c-.38-.38-.88-.59-1.41-.59H10c-1.1,0-2,.9-2,2V51c0,1.1,.9,2,2,2h14.99c-.53-1.59-.84-3.26-.94-5H13Z"/><rect x="17" y="17" width="11" height="3"/><rect x="17" y="23" width="22" height="3"/><path d="M17,32h14.38c1.66-1.29,3.54-2.31,5.58-3H17v3Z"/><path d="M17,35v3h9.27c.58-1.07,1.25-2.07,2.01-3h-11.28Z"/><path d="M43,31c-8.84,0-16,7.16-16,16s7.16,16,16,16,16-7.16,16-16-7.16-16-16-16m1.57,2.69c5.85,.68,10.55,5.15,11.61,10.88l-1.5,2-1.73,.86-1.73-1.73-.93-1.67s1.2-1.2,.86-1.83c-.33-.63-2.2,.4-2.57-.16-.37-.56-.04-2.45-.04-2.45l-2.32-.95s-.72-.01-.66,.53c.07,.61,1.75,1.59,1.62,1.86-.13,.25-.55,.07-.55,.07l-.64,1.12-1.34-.3s1.02-.39,1.14-.76c.12-.37-1.5-1.7-1.5-1.7l-.9,.2-.41,1.64-1.09,.95h-1.43l.13-.8-.52-.02,.68-1.77,1.4,.12s.52-1.35,.42-1.8c-.2-.86-1.1-.96-1.1-1.3s.97-.34,1.45-.81c.3-.3,1.09-1.39,1.65-2.17m-4.67,.28c.81-.19,1.65-.31,2.5-.35l.12,.2s-.31,1.62-.82,1.76c-.51,.14-1.99-.72-1.99-.72l.19-.9Zm-5.98,22.86c-2.2-2.04-3.71-4.79-4.17-7.89,1.51,1.01,4.17,3.05,4.17,4.9v2.99Zm1.68-19.03s-1.83,2.39-3.11,3.68c-.59,.59-1.46,1.06-2.24,1.38,1.13-3.48,3.65-6.33,6.9-7.91l-1.55,2.85Zm15.03,17.25c-.22,.39-.83,.61-1.1,.99-.49,.7-.35,1.94-.91,2.21-1,.49-2.16,.72-2.43,.46-.38-.36-1.23-1.91-1.23-2.42v-3.69c0-.66-.88-2.23-.88-2.23,0,0-2.09-.02-2.89-.02s-2.02-1.15-2.02-1.15c0,0-.68-2.25,0-3.65,.68-1.41,1.71-1.55,1.71-1.55l3.58-.72,2.05,1.2,2.74,.52,.76,1.04,1.22,1.72,1.73,.9,1.73-1.48s-.17,2.07-.85,3.36c-.68,1.29-2.45,2.26-2.45,2.26,0,0-.17,1.22-.74,2.23m1.73,1.52l-.52-1.15,1.18-2.14,1.92-.21c-.67,1.3-1.54,2.49-2.57,3.5"/></g></g></svg>