<?xml version="1.0" encoding="UTF-8"?><svg id="Laag_1" xmlns="http://www.w3.org/2000/svg" xmlns:xlink="http://www.w3.org/1999/xlink" viewBox="0 0 64 64"><defs><style>.cls-1{fill:none;}.cls-2{clip-path:url(#clippath);}.cls-3{clip-path:url(#clippath-1);}</style><clipPath id="clippath"><rect class="cls-1" width="64" height="64"/></clipPath><clipPath id="clippath-1"><rect class="cls-1" width="64" height="64"/></clipPath></defs><g class="cls-2"><g class="cls-3"><path d="M32.7,11.14c2.77-1.19,4.48-2.9,4.28-4.16-.18-1.16-2.79-2.58-7.11-.73-1.3,.56-2.94,1.26-6.43,2.76l-10.47-3.8c-.2-.07-.42-.07-.62,.02l-.87,.37c-.18,.08-.23,.31-.09,.45l5.51,5.76c-.16,.07-.3,.13-.47,.2-2.33,1-4.27,1.96-5.85,2.82l-6.49-3.31c-.22-.11-.48-.12-.71-.02l-.83,.35c-.18,.08-.23,.3-.1,.44l4.34,4.88c-.52,.38-.9,.69-1.14,.91-.35,.34-.23,.92,.25,.99,2.9,.44,8.66-.77,12.28-1.89l-2.66,9.33c-.07,.23,.16,.43,.38,.33l1.8-.77c.15-.06,.28-.17,.37-.31l7.8-11.73c2.72-1.17,5.82-2.5,6.8-2.91"/><path d="M57.95,38.39c.97-.67,1.58-1.47,1.76-1.86,.36-.83,.12-2.26-1.26-2.53-.61-.12-1.77,0-2.8,.14-.79-2.86-2.17-7.5-2.98-8.34-1.08-1.13-4.87-1.69-13.17-1.69s-12.09,.56-13.17,1.69c-.81,.84-2.18,5.49-2.98,8.34-1.02-.14-2.18-.26-2.79-.14-1.38,.27-1.62,1.7-1.26,2.53,.17,.4,.78,1.2,1.76,1.86-1.59,2.14-2.05,3.99-2.05,7.44v9.43s0,2.76,.38,4.6c.14,.67,.76,1.14,1.48,1.14h5.3c.71,0,1.33-.48,1.47-1.14,.22-1.02,.31-2.34,.35-3.3,0,0-4.51-1.03-4.86-1.12-.27-.07-.43-.2-.38-.48H56.24c.05,.27-.11,.41-.37,.48-.35,.09-4.86,1.12-4.86,1.12,.04,.96,.14,2.27,.35,3.3,.14,.67,.76,1.14,1.47,1.14h5.3c.71,0,1.33-.48,1.47-1.14,.39-1.84,.39-4.6,.39-4.6v-9.43c0-3.45-.47-5.31-2.05-7.44m-29.19-10.4c.48-.24,4.01-.65,10.75-.65s10.26,.41,10.74,.65c.48,.81,2,6.06,2.43,8.18-2.4,.67-7.85,1.12-13.18,1.12s-10.78-.45-13.18-1.12c.43-2.12,1.96-7.37,2.43-8.18m1.3,21.3l-4.83-.39c-1.31-.11-2.11-1.15-2.35-2.29l-.2-1.38c-.12-.85,.76-1.58,1.62-1.34l3.91,1.09c.85,.33,1.49,.99,1.77,1.82l.54,1.99c.07,.26-.17,.52-.45,.5m13.94,2.71h-9v-2h9v2Zm12.32-6.77l-.2,1.38c-.24,1.14-1.04,2.19-2.35,2.29l-4.83,.39c-.29,.02-.53-.24-.45-.5l.54-1.99c.27-.83,.92-1.5,1.77-1.82l3.91-1.09c.87-.24,1.74,.48,1.62,1.34"/></g></g></svg>