<?xml version="1.0" encoding="UTF-8"?><svg id="Laag_1" xmlns="http://www.w3.org/2000/svg" xmlns:xlink="http://www.w3.org/1999/xlink" viewBox="0 0 64 64"><defs><style>.cls-1{fill:none;}.cls-2{clip-path:url(#clippath);}.cls-3{clip-path:url(#clippath-1);}</style><clipPath id="clippath"><rect class="cls-1" width="64" height="64"/></clipPath><clipPath id="clippath-1"><rect class="cls-1" width="64" height="64"/></clipPath></defs><g class="cls-2"><g class="cls-3"><path d="M58.32,9.69l-2.5-1.43c-.42-.24-.76-.6-.99-1.03-.63-1.19-1.71-2.54-3.49-2.84-3.7-.62-8.32,.66-8.56,1.39-.33,.99,2.75,1.36,2.99,3.44,.23,1.99,1.03,6.23,.17,7.95-1.51,3.01-5.49,3.13-11.26,8.15-3.39,2.95-5.13,5.16-8,8.07-2.47,2.5-4.68,1.45-10.22-.78-5.65-2.27-10.66-1.25-13.63-.15-.52,.19-.39,.95,.17,.94,1.83-.03,4.48,.24,7.9,1.39,9.93,3.33,10.61,7.47,21.48,10.93,1.52,.48,3.01,.87,4.39,1.13l1,6.87c-1.67,.59-3.86,2.24-3.63,3.24,.13,.56,.78,.61,1.45,.25,.6-.32,2.27-1.41,3.54-1.41,1.19,0,4.29,1.36,5.96,2.22,.52,.26,1.38,.2,1.4-.45,.03-.66-.72-1.4-1.78-2.06,2.26,.23,4.25,.83,4.28,.83,1.06,.32,2.02-.83-.57-2.03-.79-.37-2.38-.83-4.23-.93l1.35-7.4c5.66-2.2,11.64-7.29,12.22-14.63,.59-7.52-2.16-13.94-3.27-17.59,.91-.61,1.34-1.07,1.47-2.44l2.29-.64c.45-.13,.53-.74,.12-.97m-16.24,44.46c-.62-.22-1.61-.39-2.18-.51l.08-6.47c.22,0,.44,0,.64-.02,.58-.05,1.19-.15,1.81-.27l-.35,7.28Zm4.9-16.26c-6.36,4.63-14.93,3.96-15.99,.78-.99-2.98,2.57-7.27,5.87-9.38,.18-.12,.38-.1,.46,.04,0,0-4.93,6.56-4.13,8.41,.88,2.02,8.16,1.24,14.02-.41,.14,.09,.07,.34-.23,.56m4.02-27.39c-.83,0-1.5-.67-1.5-1.5s.67-1.5,1.5-1.5,1.5,.67,1.5,1.5-.67,1.5-1.5,1.5"/></g></g></svg>