<?xml version="1.0" encoding="UTF-8"?><svg id="Laag_1" xmlns="http://www.w3.org/2000/svg" xmlns:xlink="http://www.w3.org/1999/xlink" viewBox="0 0 64 64"><defs><style>.cls-1{fill:none;}.cls-2{clip-path:url(#clippath);}.cls-3{clip-path:url(#clippath-1);}</style><clipPath id="clippath"><rect class="cls-1" width="64" height="64"/></clipPath><clipPath id="clippath-1"><rect class="cls-1" width="64" height="64"/></clipPath></defs><g class="cls-2"><g class="cls-3"><path d="M13.9,21.19l.6,1.81,.6-1.81c1.04-3.11,3.48-5.55,6.59-6.59l1.81-.6-1.81-.6c-3.11-1.04-5.55-3.48-6.59-6.59l-.6-1.81-.6,1.81c-1.04,3.11-3.48,5.55-6.59,6.59l-1.81,.6,1.81,.6c3.11,1.04,5.55,3.48,6.59,6.59"/><path d="M55,7H17.33c.96,2.11,2.78,3.76,5,4.5l1.5,.5h28.18v27H12V21.83h0c-.8-2.39-2.65-4.3-5-5.2v27.36c0,1.1,.9,2,2,2H25.5s-.53,1.94-1.5,5.01c-.58,1.84-2.38,1.99-2.87,2h-2.13c-.55,0-1,.45-1,1v2h28v-2c0-.55-.45-1-1-1h-2.13c-.49,0-2.29-.16-2.87-2-.39-1.23-.7-2.27-.94-3.08,0,0-4.4-.64-8.98-1.53-.32-.06-.28-.3-.24-.38h25.17c1.1,0,2-.9,2-2V9c0-1.1-.9-2-2-2"/><path d="M11.67,7h-2.67c-1.1,0-2,.9-2,2v2.37c2.07-.79,3.75-2.37,4.67-4.37"/><path d="M18.89,24.67l1.48,.5c1.64,.54,2.92,1.83,3.47,3.46l.49,1.48,.5-1.48c.55-1.64,1.83-2.92,3.47-3.46l1.48-.5-1.48-.49c-1.64-.54-2.92-1.83-3.47-3.47l-.5-1.48-.49,1.48c-.55,1.64-1.83,2.92-3.47,3.47l-1.48,.49Z"/></g></g></svg>