<?xml version="1.0" encoding="UTF-8"?><svg id="Laag_1" xmlns="http://www.w3.org/2000/svg" xmlns:xlink="http://www.w3.org/1999/xlink" viewBox="0 0 64 64"><defs><style>.cls-1{fill:none;}.cls-2{clip-path:url(#clippath);}.cls-3{clip-path:url(#clippath-1);}</style><clipPath id="clippath"><rect class="cls-1" width="64" height="64"/></clipPath><clipPath id="clippath-1"><rect class="cls-1" width="64" height="64"/></clipPath></defs><g class="cls-2"><g class="cls-3"><path d="M49.76,25.48c-4.71,1.27-10.07,2.8-14.41,4.25-7.45,2.49-13.65,6.41-18.45,10.52,1.35,2.99,2.43,5.94,2.59,8.55,.2,2.8-1.9,11.2-1.9,11.2h22.4l-.1-5.9-5.5-2.8c-.3-.2-.2-.4-.2-.4,0,0,5.34,1.3,8.78,1.37,3.53,.07,6.56-2.73,7.5-6.98,.9-4.05,1.42-8.09,1.42-8.09,0,0,1.7-.5,2.7-1.2,1-.7,1.3-2,.7-2.9-.56-.84-4.98-6.85-5.54-7.62m5.06,3.22l4.32-5.65c-1.66,.41-4.18,1.05-7.1,1.83l2.78,3.83Zm-20.16-1.06c7.78-2.6,18.78-5.43,23.61-6.64l-9.02-7.25S41.93-2.84,24.47,2.14C10.31,6.17,9.84,24.87,9.84,24.87c0,0-10.8,23.27-6.61,30.94,.06-.52,.17-1.09,.37-1.71,2.26-7.24,13.69-20.66,31.06-26.47m-19.47,14.16c-5.28,4.93-8.55,9.94-9.49,12.96-.43,1.37-.35,2.17-.15,2.43,1.29,1.71,6.25,.39,11.06-2.88,.44-2.24,.77-4.38,.7-5.35-.13-2.1-1-4.6-2.12-7.16"/></g></g></svg>