<?xml version="1.0" encoding="UTF-8"?><svg id="Laag_1" xmlns="http://www.w3.org/2000/svg" xmlns:xlink="http://www.w3.org/1999/xlink" viewBox="0 0 64 64"><defs><style>.cls-1{fill:none;}.cls-2{clip-path:url(#clippath);}.cls-3{clip-path:url(#clippath-1);}</style><clipPath id="clippath"><rect class="cls-1" width="64" height="64"/></clipPath><clipPath id="clippath-1"><rect class="cls-1" width="64" height="64"/></clipPath></defs><g class="cls-2"><g class="cls-3"><path d="M25,24.5v6.89c4.46-2.34,7.5-7.01,7.5-12.39,0-7.73-6.27-14-14-14S4.5,11.27,4.5,19c0,5.38,3.04,10.05,7.5,12.39v-6.89c0-3.58,2.92-6.5,6.5-6.5s6.5,2.92,6.5,6.5m18,22v-3.5h1c.55,0,1-.45,1-1v-9.01c-3.1-2.42-4.46-4.71-4.81-5.34-.25-.45-.2-.73-.12-.89,2.76,2.16,6.67,4.32,10.92,5.91,3.18,1.19,6.13-1.02,6.86-4.95,.98-5.31,.95-13.4,.02-18.26-.67-3.46-3.61-5.08-6.88-3.58-8.22,3.79-14.95,8.01-15,15.34v20.77c0,.55,.45,1,1,1h1v3.5c0,6.34,5.16,11.5,11.5,11.5h8.5v-5h-8.5c-3.58,0-6.5-2.92-6.5-6.5m-5.56,6.5h-9.94c-3.58,0-6.5-2.92-6.5-6.5v-3.5h1c.55,0,1-.45,1-1V24.5c0-2.49-2.01-4.5-4.5-4.5s-4.5,2.01-4.5,4.5v17.5c0,.55,.45,1,1,1h1v3.5c0,6.34,5.16,11.5,11.5,11.5h14.58c-1.93-1.25-3.54-2.97-4.64-5"/></g></g></svg>