<?xml version="1.0" encoding="UTF-8"?><svg id="Laag_1" xmlns="http://www.w3.org/2000/svg" xmlns:xlink="http://www.w3.org/1999/xlink" viewBox="0 0 64 64"><defs><style>.cls-1{fill:none;}.cls-2{clip-path:url(#clippath);}.cls-3{clip-path:url(#clippath-1);}</style><clipPath id="clippath"><rect class="cls-1" width="64" height="64"/></clipPath><clipPath id="clippath-1"><rect class="cls-1" width="64" height="64"/></clipPath></defs><g class="cls-2"><g class="cls-3"><path d="M18.99,24h26.02c1.1,0,1.99-.9,1.99-2v-1.92c0-3.35-2.71-6.08-6.05-6.08h-5.95v-5.63c0-1.77-2.64-4.02-4.49-5.12-.67-.4-1.51-.07-1.51,.7V12.73c2.13,.47,3.99,.87,4.13,.91,.32,.08,.27,.31,.25,.36h-10.34c-3.33,0-6.05,2.73-6.05,6.08v1.92c0,1.1,.89,2,1.99,2"/><path d="M48.06,47.83l-1.72-4.71c-.84-2.31-1.35-4.72-1.35-7.17v-9.95h-4v9.95c0,2.92,.58,5.8,1.58,8.54l1.72,4.71c.66,1.81,.4,3.75-.7,5.32-1.1,1.58-2.84,2.48-4.76,2.48h-13.68c-1.92,0-3.66-.9-4.76-2.48-1.1-1.57-1.36-3.51-.7-5.32l1.72-4.71c1-2.75,1.58-5.62,1.58-8.54v-9.95h-4v9.95c0,2.45-.51,4.86-1.35,7.17l-1.72,4.71c-1.09,3.01-.65,6.36,1.18,8.98,1.83,2.62,4.84,4.19,8.04,4.19h13.68c3.2,0,6.2-1.57,8.04-4.19,1.83-2.62,2.27-5.98,1.18-8.98"/><path d="M29,26v11.74c-.55-.19-1.14-.33-1.8-.35-.63-.02-1.38,.13-2.16,.36-.08,1.13-.25,2.25-.47,3.36,1.01-.42,1.95-.72,2.51-.72,.79,0,1.62,.44,2.32,.81,.67,.36,1.31,.69,2.01,.69,.87,0,1.59-.57,2.68-1.44,.91-.73,2.16-1.72,3.03-1.87,.52-.09,1.26,.19,2.01,.62-.14-1.12-.24-2.25-.24-3.39-.74-.23-1.52-.33-2.28-.19-.55,.09-1.08,.3-1.6,.57v-10.19h-6Z"/></g></g></svg>