<?xml version="1.0" encoding="UTF-8"?><svg id="Laag_1" xmlns="http://www.w3.org/2000/svg" viewBox="0 0 64 64"><defs><style>.cls-1{fill:none;}</style></defs><rect class="cls-1" width="64" height="64"/><path d="m62,32v.32c-.05,4.28-3.94,7.18-8.21,7.18h-11.47c-3.11,0-5.62,2.52-5.62,5.62,0,.4.05.79.12,1.16.25,1.2.76,2.34,1.27,3.5.71,1.62,1.42,3.22,1.42,4.92,0,3.73-2.53,7.11-6.26,7.27-.41.01-.82.02-1.24.02-16.56,0-29.99-13.43-29.99-30S15.43,2,32,2s30,13.43,30,30Zm-45,3.75c0-2.07-1.68-3.75-3.75-3.75s-3.75,1.68-3.75,3.75,1.68,3.75,3.75,3.75,3.75-1.68,3.75-3.75Zm0-11.25c2.07,0,3.75-1.68,3.75-3.75s-1.68-3.75-3.75-3.75-3.75,1.68-3.75,3.75,1.68,3.75,3.75,3.75Zm18.75-11.25c0-2.07-1.68-3.75-3.75-3.75s-3.75,1.68-3.75,3.75,1.68,3.75,3.75,3.75,3.75-1.68,3.75-3.75Zm11.25,11.25c2.07,0,3.75-1.68,3.75-3.75s-1.68-3.75-3.75-3.75-3.75,1.68-3.75,3.75,1.68,3.75,3.75,3.75Z"/></svg>