<?xml version="1.0" encoding="UTF-8"?><svg id="Laag_1" xmlns="http://www.w3.org/2000/svg" xmlns:xlink="http://www.w3.org/1999/xlink" viewBox="0 0 64 64"><defs><style>.cls-1{fill:none;}.cls-2{clip-path:url(#clippath);}.cls-3{clip-path:url(#clippath-1);}</style><clipPath id="clippath"><rect class="cls-1" width="64" height="64"/></clipPath><clipPath id="clippath-1"><rect class="cls-1" width="64" height="64"/></clipPath></defs><g class="cls-2"><g class="cls-3"><path d="M10.15,21.99c.99,1.67-1.28,5.32-2.48,7.08-.15,.22,.11,.48,.33,.34,1.74-1.12,5.54-3.19,7.06-2.51,1.5,.67,2.73,5.85,3.19,7.9,.06,.26,.44,.26,.48,0,.33-1.98,1.67-7.06,3.29-7.9,1.46-.76,5.4,1.22,7.06,2.42,.22,.16,.49-.1,.34-.33-1.15-1.75-3.25-5.2-2.49-7.01,.8-1.9,6.06-2.86,8.06-3.25,.26-.05,.27-.42,0-.48-2.05-.44-7.45-1.48-8.06-3.22-.64-1.81,1.4-5.4,2.44-7.06,.14-.22-.1-.47-.33-.34-1.77,1.02-5.65,3.09-7.03,2.48-1.4-.61-2.7-6.73-3.23-8.67-.07-.24-.41-.24-.47,0-.47,1.91-1.65,7.93-3.25,8.66-1.57,.72-5.25-1.34-6.99-2.42-.22-.13-.47,.12-.34,.33,1.07,1.72,3.09,5.33,2.41,7-.68,1.67-6.3,2.78-8.27,3.24-.25,.06-.25,.41,0,.47,1.89,.45,7.27,1.53,8.28,3.24m8.36-9.81c3.48,0,6.31,2.83,6.31,6.31s-2.83,6.31-6.31,6.31-6.31-2.83-6.31-6.31,2.82-6.31,6.31-6.31"/><path d="M61,36.3c0-.74-.72-1.3-1.48-1.3H23.5c-.58,0-1.48,.31-1.91,.95L5.93,58.57c-.72,1.04,.05,2.43,1.28,2.43H41.48c1.11,0,2.15-.55,2.78-1.47l15.22-22.32c.06,.01,.26,.09,.16,.41l-2.64,6.48v12.9h-8.35l-2.58,3.77c-.05,.08-.12,.15-.18,.23h15.1v-24.7Zm-19.67,21.7H10.3l13.65-20h31.22l-13.85,20Z"/><polygon points="28.06 49 23.21 56 30.72 56 35.56 49 28.06 49"/><polygon points="36.95 47 41.71 40.12 34.2 40.12 29.44 47 36.95 47"/><polygon points="27.69 47 32.45 40.12 25 40.12 20.24 47 27.69 47"/><polygon points="18.85 49 14 56 21.46 56 26.31 49 18.85 49"/><polygon points="32.47 56 40 56 44.85 49 37.31 49 32.47 56"/><polygon points="46.24 47 51 40.12 43.46 40.12 38.7 47 46.24 47"/></g></g></svg>