<?xml version="1.0" encoding="UTF-8"?><svg id="Laag_1" xmlns="http://www.w3.org/2000/svg" xmlns:xlink="http://www.w3.org/1999/xlink" viewBox="0 0 64 64"><defs><style>.cls-1{fill:none;}.cls-2{clip-path:url(#clippath);}.cls-3{clip-path:url(#clippath-1);}</style><clipPath id="clippath"><rect class="cls-1" width="64" height="64"/></clipPath><clipPath id="clippath-1"><rect class="cls-1" width="64" height="64"/></clipPath></defs><g class="cls-2"><g class="cls-3"><path d="M53.55,28.9c-1.68,1.49-3.55,2.94-5.55,4.34,5.93,1.91,8.99,4.53,8.99,5.76,0,2.06-8.49,8-24.7,8-7.35,0-13.1-1.23-17.2-2.75,5.88-.7,13.11-2.86,20.5-6.37,15.76-7.48,26.28-18.28,23.51-24.12-1.33-2.8-5.49-3.95-11.2-3.56,1.94,.48,3.38,1.41,4.06,2.83,2,4.21-3.26,11.4-12.23,15.31-.28,.12-.45-.02-.46-.14,7.42-4.89,11.69-10.63,10-14.2-2.32-4.89-10.47-2.23-12.86-1.5,2.29-.03,4.01,.6,4.62,1.9,1.25,2.63-2.47,7.02-8.32,9.8-1.23,.58-2.45,1.05-3.63,1.39-.25,.07-.42-.12-.41-.21,.27-.12,.53-.24,.8-.37,6.16-2.93,10.28-7.15,9.19-9.43-1.47-3.09-9.46-.57-13.12,1.16C11.45,23.44,.93,32.86,1,38.93c0,.04,0-.04,0,0,0,7.73,14.35,14.07,31.3,14.07s30.7-6.27,30.7-14c0-3.97-3.63-7.55-9.45-10.1"/></g></g></svg>