<?xml version="1.0" encoding="UTF-8"?>
<svg id="Zwart" xmlns="http://www.w3.org/2000/svg" viewBox="0 0 64 64">
  <path d="M59.43,42.5c-.22-.51-.7-1.8-.92-2.53-.22-.73.33-1.36-.04-1.94-.37-.59-1.14-.66-1.43-.66s-.7-1.32-.99-1.47c-.29-.15-.95.07-1.17,0-.22-.07.15-.81-.81-1.32-.95-.51-1.8.07-2.53-.29-.73-.37-.95-1.43-1.91-1.87s-1.17.22-1.91-.29c-.73-.51-.22-1.39-.73-1.69-.73-.42-2.02.15-2.39-.22-.37-.37.22-.92-.29-1.58-.51-.66-3.18-2.71-3.49-2.92-.48-.33-1.17-.77-2.72-.7-1.54.07-1.36,1.09-2.31.97-1.34-.17-1.39-1.1-1.39-1.1,0,0-3.23-1.39-4.99-2.94-1.76-1.54-2.86-2.72-2.79-3.01.07-.29,1.14-1.15,1.06-1.52-.07-.37-.18-.98.04-1.64.21-.63,1.09-.93.53-3.44-.05-.22-.21-.4-.43-.47-.39-.12-1.01-.36-1.34-.74-.61-.67-.3-1.3-.37-1.59-.85-.17-3.56,1.37-5.73,1.46-1.06.05-2.02-.19-2.11-.55-.23-.82,1.49-1.53.64-1.98-.27-.14-.45.12-.7-.05-.63-.42-1.29-2.58-1.29-2.58.4-.69.96-2.04.46-2.14-.37-.07-1.03.45-1.25.16-.16-.21-.52-1.31-.71-1.9-.07-.23-.28-.37-.51-.36-.51.02-1.41.05-2.17.07-.95.03-2.17-.59-2.9,1.03-.73,1.61-.13,2.41-.81,5.36-.47,2.03-.22,4.33.88,6.02,0,0-2.86,4.7-3.45,5.65-.59.95-.15,3.6.73,4.55.88.95,1.83,2.5,1.91,3.89.07,1.39,1.03,8.07,2.64,9.1,1.61,1.03,8.11,4.84,8.77,6.46.66,1.61,1.87,6.68,2.68,8.44.81,1.76,1.83,1.32,2.86,3.49.9,1.9,1.91,1.43,2.94,1.87,1.03.44,1.03,1.76,3.16,2.13,2.13.37,6.38,1.21,7.56,1.06,1.17-.15,3.85,0,4.29-.44.44-.44.67-1.24,2.68-1.72,2.54-.62,6.3-.71,7.19-2.06.88-1.32,3.16-4.37,3.3-5.54.15-1.17.04-1.69.55-2.35.92-1.17,1.06-3.56,1.06-4s.88-1.61.66-2.13Z"/>
</svg>