<?xml version="1.0" encoding="UTF-8"?><svg id="Laag_1" xmlns="http://www.w3.org/2000/svg" xmlns:xlink="http://www.w3.org/1999/xlink" viewBox="0 0 64 64"><defs><style>.cls-1{fill:none;}.cls-2{clip-path:url(#clippath);}.cls-3{clip-path:url(#clippath-1);}</style><clipPath id="clippath"><rect class="cls-1" width="64" height="64"/></clipPath><clipPath id="clippath-1"><rect class="cls-1" width="64" height="64"/></clipPath></defs><g class="cls-2"><rect x="14" y="56" width="11" height="3"/><g class="cls-3"><path d="M36.52,56.72c-1.36,1.63-1.67-.67-2.87-.24-1.2,.42-.36,2.52-.36,2.52h8.29c1.51-4.26-3.7-3.91-5.06-2.28"/><path d="M52.61,44.11c-2.18-2.38-8.46-4.49-11.39-5.37-.15-1.12-.36-2.41-.55-3.48,1.79-2.17,2.89-4.4,3.25-6.7,1.33-1.22,2.07-3.17,2.07-5.56,0-.74,0-2.7-1.23-4.04,.15-1.61,.26-3.16,.2-4.58,1.08-2.86,2.21-10.94-4.26-11.35-6.52-.42-13.15,2.84-16.63,4.98-1.83,1.12-3.35,2.59-4.43,4.33-1.37,2.22-2.61,5.24-.51,6.74-1.13,1.33-1.13,3.19-1.13,3.92,0,2.39,.74,4.33,2.06,5.55,.38,2.51,1.61,4.91,3.71,7.26-.11,.81-.23,1.75-.35,2.73-2.51,.73-9.67,3-12.03,5.57-2.87,3.12-4.39,14.89-4.39,14.89h3l.49-2.91c1.03,.7,1.99,.84,1.78-1.14-.26-2.49,.67-2.5,3.67-1.27,3,1.23,3.72-2.19,2.45-2.68-1.27-.48-2.75-1.36-2.19-2.77,.55-1.36,1.81,.42,2.66-.55,.6-.69-.99-2.56-1.97-3.59,1.71-.79,3.9-1.62,6.34-2.38,.08,.63,.24,1.25,.46,1.86-1.2,.61-2.94,1.63-2.34,3.21,.17,.46,.31,1.54,2.54,1.82,1.19,.15,1.04,2.25-.69,1.95-1.28-.22-2.22-.26-2.22,1.38,0,2.05,1.96,2,2.58,1.9,.84-.13,.92-.63,1.36-1.27,.64-.92,2.45-.97,2.54,.28,.09,1.23-.09,3.13,2.42,3.13,1.81,0,1.15-1.71,2.43-2.93h0l1.8-1.29c1.16-.83,6.42-4.86,7.19-9.87,5.4,1.72,8.26,3.34,9.09,4.24,.82,.89,1.74,3.7,2.49,6.94-2.24,.45-1.02,3.72-2.99,2.88-1.98-.84,.76-2.69-.07-3.64-1.15-1.31-2.83,.67-2.83,2.65,0,0,0,1.02-1.62,1.02-1.74,0-2.38,3-2.38,3h14s-1.51-11.76-4.39-14.89M35,8.7c0-.39,.31-.7,.68-.7h3.64c.38,0,.68,.31,.68,.7v3.05c0,.21-.09,.41-.25,.55l-1.82,1.54c-.25,.21-.61,.21-.86,0l-1.82-1.54c-.16-.13-.25-.33-.25-.55v-3.05Zm-2.62,40.64c-2.3-1.75-6.59-5.53-6.16-9.02,.24-1.91,.04-.55,.82-5.44-2.28-2.2-4.1-4.87-4.1-8.06-1.62-.5-2.04-2.55-2.04-3.82s.32-1.96,.77-2.17c.39-.19,.77-.05,1.01,.09,.14,.65,.25,1.14,.29,1.31,.21,.85,1.02,.77,1.02,.77v-3.91c1.75-1.48,4.69-3.09,9.08-3.09,7.15,0,8.7-.16,10.16-.91,0,0,.18,0,0,.25-.15,.22-1.32,1.44-3.25,1.86v5.8s.82,.08,1.02-.77c.04-.17,.15-.66,.29-1.31,.24-.14,.62-.27,1.01-.09,.45,.21,.77,.9,.77,2.17s-.42,3.31-2.04,3.82c0,3.7-2.53,6.5-5.34,8.88-.78,.66-2.25,1.11-3.72,1.1-1.06,0-2.13-.29-2.93-.63,.61,.93,1.66,2.07,3.58,2.58,3.16,.84,5.46-.91,5.46-.91,0,0,.28,1.91,.27,2.42,.33,3.49-3.56,7.32-6.01,9.08"/><path d="M46,51c0-1-2,0-2-1,0-.65,.98-.88,1.2-1,.62-.34,1.79-1,1.79-2s-1.79-2-2.79-2c-3,0-2.24,5-3.19,5-.83,0-.72-.98-1.5-.98-.83,0-1.91,2.22-2.29,3.01-.34,.7-.35,1.98,.79,1.98,1,0,1.58-1.01,3-1,1,0,1,.67,1,1,0,1,1,1,1,1,2,0,3-3.94,3-4"/></g></g></svg>