<?xml version="1.0" encoding="UTF-8"?><svg id="Laag_1" xmlns="http://www.w3.org/2000/svg" xmlns:xlink="http://www.w3.org/1999/xlink" viewBox="0 0 64 64"><defs><style>.cls-1{fill:none;}.cls-2{clip-path:url(#clippath);}.cls-3{clip-path:url(#clippath-1);}</style><clipPath id="clippath"><rect class="cls-1" width="64" height="64"/></clipPath><clipPath id="clippath-1"><rect class="cls-1" width="64" height="64"/></clipPath></defs><g class="cls-2"><g class="cls-3"><path d="M41.52,41.4c-1.91,.65-4.39,1.66-6.36,2.49,.05,.3,.06,.61,0,.95-.29,1.94-1.94,3.16-4.3,3.27-5.33,.25-8.64-1.07-9.33-1.35-.2-.08-.22-.18-.2-.27h0c3.86,.66,6.29,.77,9.28,.29,2.27-.36,3.09-1.45,3.07-2.35-.02-.88-.64-1.41-2.03-1.45-4.75-.17-7.53-.69-11.6-1.29-2.83-.41-5.56,.32-7.88,1.81-2.18,1.4-2.79,2.06-2.79,2.06l3.99,7.68,5.16-2.1c.59-.24,1.23-.31,1.86-.21l7.07,1.57c1.58,.26,3.2-.04,4.58-.84l14.12-8.86s-.69-2.77-4.66-1.41"/><path d="M54.41,36.05H9.59c-.65,0-.34,.5-.05,1.1,.26,.53,.72,1.03,1.46,1.85H53c.74-.82,1.2-1.32,1.46-1.85,.29-.6,.6-1.1-.04-1.1"/><path d="M34.26,14.25c-.16-1.13-1.12-1.99-2.29-1.99-.95,0-1.77,.58-2.13,1.4,.6-.08,1.58-.12,2.34,.08,.59,.15,.59,.48,.59,.48-1.24-.12-3.09,.03-3.09,.03-9.92,1.13-17.63,9.54-17.68,19.75H51.94c-.04-10.21-7.76-18.62-17.68-19.75"/></g></g></svg>