<?xml version="1.0" encoding="UTF-8"?><svg id="Laag_1" xmlns="http://www.w3.org/2000/svg" xmlns:xlink="http://www.w3.org/1999/xlink" viewBox="0 0 64 64"><defs><style>.cls-1{fill:none;}.cls-2{clip-path:url(#clippath);}.cls-3{clip-path:url(#clippath-1);}</style><clipPath id="clippath"><rect class="cls-1" y="0" width="64" height="64"/></clipPath><clipPath id="clippath-1"><rect class="cls-1" y="0" width="64" height="64"/></clipPath></defs><g class="cls-2"><g class="cls-3"><path d="M10.04,21.49l.71-.09,8,3.85c.05-1.59,.42-3.3,1.52-4.78l-7.21-2.52c-.25-.68-.83-2.07-1.4-2.26-.77-.26-1.59,.86-1.59,.86-.99-.25-1.32-.9-.74-1.43-1.69-.63-2.58,.77-2.13,1.66-.45,.09-.82,.44-.9,.92-.05,.36,.08,.7,.32,.94-.24,.16-.43,.4-.47,.71-.08,.52,.28,.93,.7,1.21,1.23,.82,2.49,1.01,3.18,.92"/><path d="M27.55,37.79l-8.06,5.07c-2.06,1.28-2.95,3.83-2.15,6.12l1.21,3.44-2.98,3.59h-1.03c-1.26,0-2.39,.76-2.87,1.91l-.66,2.08h5.72l6.6-5.89s-2.72-4.63,1.16-7.22c2.19-1.46,4.4-2.47,5.9-3.07-.35-3.94-1.62-5.4-2.84-6.04"/><path d="M52.89,23.44c-1.08,0-2,.66-2.39,1.6-1.33,0-2.53-.1-3.94,.08-1.03,.15-2.32,.41-3.38,1.45-1.01,1-1.48,2.44-1.08,4.07,.77,3.05,4.28,6.36,3.7,8.23-.76,2.33-3.83,1.51-5.92,.55-.15-3.04-.96-6.22-2.45-9.45-4.59,.51-6.82-.55-7.8-1.32-.5-.39-.34-.51-.26-.58,3.49,1.01,9.41-.03,10.84-3.23,0,0-2.13-2.86-.46-5.79,.01-.02,.02-.03,.03-.05,3.97-5.38,.42-10.3-1.3-12.18l.24-2.38s-1.15-.56-3.59,1.57h-3.66c-.68,0-1.31,.33-1.7,.89l-.58,.83-3.68,2.1,.94,2.33,1.5-.54c1.08-.39,2.26,.17,2.65,1.25l.25,.69-3.35,1.21,.72,1.78,3.21-.74s1.61,2.68-3.62,3.39c-7.24,.97-7.1,5.03-6.57,9.2l-8.48,5.21c-.71-.2-2.14-.54-2.63-.19-.66,.47-.24,1.79-.24,1.79-.78,.66-1.51,.54-1.59-.24-1.5,.99-.89,2.54,.1,2.7-.2,.42-.13,.93,.22,1.27,.26,.26,.61,.34,.95,.29-.02,.29,.08,.58,.3,.8,.38,.37,.91,.32,1.39,.14,1.39-.51,2.28-1.42,2.62-2.03l.33-.59c3.17-1.62,8.49-3.67,13.24-2.24,3.96,1.19,5.34,5.21,5.34,10.77s3.97,5.98,7.2,5.98,4.01,3.96,4.01,3.96h-1.15c-1.39,0-2.82,.92-3.2,2.25l-.53,1.74h7.1l1.7-1.76-1.7-8.05-6.89-4.87c.15-.58,.27-1.17,.37-1.76,3.91,1,7.62,.5,9.06-3.34,.86-3.55-1.77-6.16-3.37-8.33-2.03-2.75-1.01-4.38,1.47-4.8,1-.17,2.27-.19,3.62-.19,.36,1,1.31,1.71,2.42,1.71,1.43,0,5.35-2.59,5.35-2.59,0,0-3.92-2.59-5.35-2.59M31.49,10.5c-.83,0-1.5-.67-1.5-1.5h3c0,.83-.67,1.5-1.5,1.5"/><path d="M23.26,15.19c1.8,0,1.92-1.29,4.74-1.65,.24-.03,.25-.35,.03-.42-.16-.05-1.64-.21-2.99,.13-2.2,.57-3.3-.26-3.48-1.02-.05-.21-.23-.21-.29,.02-.48,1.76,.8,2.95,1.98,2.95"/></g></g></svg>