<?xml version="1.0" encoding="UTF-8"?><svg id="Laag_1" xmlns="http://www.w3.org/2000/svg" xmlns:xlink="http://www.w3.org/1999/xlink" viewBox="0 0 64 64"><defs><style>.cls-1{fill:none;}.cls-2{clip-path:url(#clippath);}.cls-3{clip-path:url(#clippath-1);}</style><clipPath id="clippath"><rect class="cls-1" width="64" height="64"/></clipPath><clipPath id="clippath-1"><rect class="cls-1" width="64" height="64"/></clipPath></defs><g class="cls-2"><g class="cls-3"><path d="M62.39,17.32c0-3.2-2.12-5.91-5.05-6.87,.46-3.92-2.66-7.26-6.56-7.26-1.67,0-3.19,.61-4.35,1.62-1.27-.94-2.89-1.52-4.65-1.55-4.19-.06-7.62,3-7.68,6.83,0,.2,0,.39,.02,.59-2.49,.93-4.27,3.29-4.27,6.07,0,2.32,1.24,4.36,3.11,5.51-.97,1.25-1.56,2.81-1.56,4.5,0,4.1,3.38,7.42,7.55,7.42,1.46,0,2.82-.41,3.98-1.12-.09,2.67-.34,5.74-.66,8.84,1.78,2.41,3.35,5.36,4.52,9,1.19,3.72,1.72,7.7,1.8,9.1h6.07c-1.57-6.47-7.2-30.36-2.08-34.63,.11,.05,.16,.17,.05,.34-1.66,2.68-1.25,6.4-.36,9.06,4.78,1.28,9.25-2.3,9.25-6.94,0-1.87-.73-3.57-1.92-4.85,1.69-1.33,2.78-3.37,2.78-5.66"/><path d="M26.49,33.84c-.76-.17-1.53-.17-2.28,0-5.51,1.24-18.11,6.27-20.1,26.16,0,0,5.89,.01,5.9,0,4.33,0,11.32-9.99,12.61-15.43-1.85,1.09-5.05,2.46-8.73,2.75v.02h0s.14,5.6-2.45,9.71c-.09,.15-.27,.22-.42,.07,1.49-5.7,.79-10.53,.78-10.59-.04-.29,.04-.58,.22-.8,.19-.22,.46-.35,.75-.36,6.06-.1,10.57-3.7,10.61-3.73,.31-.27,.76-.31,1.12-.12,.29,.16,.51,.53,.51,.77v17.72h21.59c-1.99-19.89-14.59-24.92-20.1-26.16"/></g></g></svg>