<?xml version="1.0" encoding="UTF-8"?><svg id="Laag_1" xmlns="http://www.w3.org/2000/svg" viewBox="0 0 64 64"><defs><style>.cls-1{fill:none;}</style></defs><rect class="cls-1" width="64" height="64"/><g><path d="m18.43,18.52c2.61.44,6.78.49,8.24.49l6.37,3.89c.28.18.65.1.82-.18.08-.13.11-.28.08-.42l-.03-.1h0s-1.85-6.51-1.85-6.51c0,0,.11-.1.23.06l2.12,2.94c.43-.05.84-.1,1.21-.17.99-.17,1.75-.94,1.91-1.96.48-2.94.48-5.58.48-6.56s0-3.62-.48-6.56c-.17-1.02-.92-1.79-1.91-1.96-2.87-.49-7.64-.49-8.6-.49s-5.73,0-8.6.49c-.99.17-1.75.94-1.91,1.96-.48,2.94-.48,3.61-.48,6.56,0,.98,0,3.62.48,6.56.16,1.02.92,1.79,1.91,1.96Z"/><path d="m60.47,51.3c-1.73-1.73-7.71-3.82-10.03-4.59-.23-.78-.38-1.54-.48-2.2,1.33-1.45,2.31-3.2,2.66-5.31,1.36-.38,1.63-2.96,1.63-3.93s-.19-1.49-.57-1.66c-.11-.05-.22-.05-.32-.05.2-1.49.77-6.44-.36-8.38-1.07-1.84-2.37-2.74-4.85-2.14-1.63-.83-2.73-1.35-5.58-.6-1.98.52-4.15,1.37-5.29,2.79-1.42,1.76-.89,6.85-.7,8.35-.09,0-.17,0-.26.04-.38.16-.57.69-.57,1.66s.27,3.54,1.63,3.93c.28,2.03,1.28,3.8,2.62,5.27-.1.67-.26,1.44-.46,2.24-2.33.77-8.28,2.86-10.01,4.59-1.99,1.99-2.75,6.47-3.06,10.7h37.03c-.32-4.43-1.07-8.74-3.03-10.7Z"/><path d="m23.33,34.53c-.49-.56-1-1.18-1.19-1.58-.15-.32-.02-1.12,0-1.94.03-1.17-1.08-3.89-1.08-3.89.6-1.21.41-5.07-6.38-4.93-8.92.18-10.53,6.24-10.7,7.02-.12.56-.4,1.9-.22,3.79.41,4.14.14,8.82-1.38,10.93,2.02,1.16,4.92,2.08,8.75,2.03.04.16-.11.29-.65.43-.66.18-1.66.36-3,.5-.42.5-1,.98-1.74,1.49h0s0,0,0,0c0,0-.02.01-.03.02,0,0,0,0,0,0-3.18,2.21-3.7,5.47-3.7,9.57h22c-.16-.83-.88-5.65-6.39-9.23.08-1.73.36-2.89.36-2.89,0,0,0,0,0,0l.18-.79c.42.1.87.19,1.38.26,1.51.18,2.59-.48,2.54-2.33,0-.4.26-.75.51-1.02.38-.39.67-.58.38-1.2-.13-.27-.3-.5-.3-.5,0,0,.45-.24.66-.59.33-.55.05-.64-.12-1.14-.14-.41-.06-.82-.06-.82,0,0,.6-.33,1.04-.63.24-.17.84-.65.22-1.41-.2-.25-.55-.58-1.08-1.18Zm-3.21-2.94c-.55,1.07-2.2,1.45-5.6,1.88-2.93.37-3.46,1.48-3.7,3.9h-1.56c-.05-.76.04-1.62.04-1.62-1.37.06-1.87-.62-2.21-1.63-.08-.23-.24-.41-.46-.51-.38-.19-.98-.58-1.2-1.3-.34-1.1-.14-1.61.37-2.46.16-.26.08-1.14.16-1.6.12-.69.55-1.11,1.14-1.41.62-.32,1.12-.26,1.58-.49.46-.23.66-1.18,1.46-1.48,1.07-.39,1.84-.1,2.53-.11.7-.01,1.5-.76,2.43-.71.83.04,1.38.83,1.81,1.09.43.26,1.23.16,1.77.5,1.61,1.01.68,2.35,1.01,3.02.32.64,1.08,1.67.44,2.93Z"/></g></svg>