<?xml version="1.0" encoding="UTF-8"?><svg id="Laag_1" xmlns="http://www.w3.org/2000/svg" viewBox="0 0 64 64"><defs><style>.cls-1{fill:none;}</style></defs><rect class="cls-1" width="64" height="64"/><g><path d="m34.38,32.76c2.82.3,5.22.64,6.92,1.24.37.13.77-.12.87-.54,1.26-5.09,1.81-8.52,1.81-12.24,0-7.48-2.81-15.48-7.13-18.07-2.75-1.65-5.84-1.05-5.84-1.05,0,0-2.97-2.86-8.17-1.88-8.48,1.6-14.84,9.74-14.84,21,0,3.73.56,7.15,1.82,12.24.1.42.5.67.87.54,1.82-.64,4.29-1.01,7.36-1.3-.11.94-.24,1.99-.36,3.06-1.67,1.19-8.78,2.66-11.49,5.5-2.76,2.88-4.21,13.74-4.21,13.74h31.03c-.07-1.76-.1-3.51-.1-5,0-2.55.07-5.88.35-8.65-2.54,2.63-5.97,4.11-7.23,4.59-1.49-.64-6.14-2.88-8.39-6.8,2.88-1.19,2.71-2.27,2.76-2.72.07-.58.58-5.32.58-5.32-2.52-2.48-3.6-5.57-4.06-8.28-.29-1.73-.25-3.34-.16-4.41,4.8-1.89,11.6-5.75,14.24-9.06,0,0,.32.01.12.5-.34.83-.85,1.81-1.55,2.98,1.24,2.63,3.47,4.56,5.68,5.93.14,2.13-.13,5.83-1.35,7.01-.86.83-2.3,1.3-4.1,1.35-.13-.36-.53-.62-.99-.62h-3.76c-.5,0-1.16.5-1.16,1.5s.67,1.5,1.16,1.5h3.76c.47,0,.87-.26,1-.64,1.16-.03,2.2-.2,3.1-.52h.04c-.92,1.56-2.05,2.93-3.23,3.66-1.72,1.06-4.87,1.23-6.71.44.42.84,1.27,1.84,3.15,2.31,2.54.63,4.85-.4,5.45-.75.11.79.22,1.59.29,2.28.04.36.13,1.17,1.91,2.24.31-.96.86-1.8,1.59-2.46-.24-.14-.46-.27-.63-.4-.1-.85-.24-1.89-.39-2.89Z"/><path d="m61.43,39.83c-.2-1.17-1.09-2.07-2.26-2.26-3.39-.57-9.04-.57-10.17-.57s-6.78,0-10.17.57c-1.17.2-2.07,1.09-2.26,2.26-.57,3.39-.57,9.04-.57,10.17s0,6.78.57,10.17c.2,1.17,1.09,2.07,2.26,2.26,3.39.57,9.04.57,10.17.57s6.78,0,10.17-.57c1.17-.2,2.07-1.09,2.26-2.26.57-3.39.57-9.04.57-10.17,0-3.39,0-6.78-.57-10.17Zm-12.91,19.28c-1.26,0-1.98-.68-1.98-1.94,0-1.12.67-1.99,1.96-1.99s1.98.7,1.98,1.99c0,1.09-.67,1.94-1.96,1.94Zm2.85-9.64l-1.36.75c-.79.43-1.14.96-1.14,1.55,0,.36.11.75.27,1.15h-2.84c-.25-.43-.37-.93-.37-1.5,0-1.23.57-2.12,2.04-3l1.44-.86c1.14-.67,1.52-1.21,1.52-2.06,0-.91-.87-1.58-2.58-1.58-1.25,0-2.45.24-3.78.75v-2.71c1.5-.59,2.88-.86,4.57-.86,3.1,0,5.11,1.61,5.11,4.02,0,2.09-.79,3.19-2.88,4.34Z"/></g></svg>