<?xml version="1.0" encoding="UTF-8"?><svg id="Laag_1" xmlns="http://www.w3.org/2000/svg" xmlns:xlink="http://www.w3.org/1999/xlink" viewBox="0 0 64 64"><defs><style>.cls-1{fill:none;}.cls-2{clip-path:url(#clippath);}.cls-3{clip-path:url(#clippath-1);}</style><clipPath id="clippath"><rect class="cls-1" width="64" height="64"/></clipPath><clipPath id="clippath-1"><rect class="cls-1" width="64" height="64"/></clipPath></defs><g class="cls-2"><g class="cls-3"><path d="M31.31,29.39s-1.9-2.73-3.31-1.45c-1.41-1.28-3.31,1.45-3.31,1.45,0,0,1.71,1.99,3.31,1.99s3.31-1.99,3.31-1.99"/><path d="M43.77,58h8.23s-.42-3.15-1.24-6.52l-6.99,6.52Z"/><path d="M42.47,41.08c-1.53-.7-5.89-2.43-6.29-2.68-.12-1.09-.25-2.18-.36-3.17,2.3-2.47,3.69-5.03,4.1-7.67,1.33-1.22,2.08-3.17,2.08-5.56,0-.74-.02-2.67-1.22-4.01h0c1.72-8.49-2.59-15.65-8.83-14.49-.97-.62-2.8-1.41-5.67-1.29-5.77,.25-12.93,7.3-11.13,15.86-1.14,1.33-1.16,3.2-1.16,3.93,0,2.39,.75,4.33,2.07,5.55,.01,.08,.03,.16,.05,.24-.23-.03-.48-.06-.71-.09-2.2-.23-4.5,1.2-4.9,4.2-.6,4-2.5,2.6-2.5,2.6-.4-.3-.8-1-.9-2.2,0,0-3.5,3.4-1.2,6.5,.86,1.23,2.23,2,4.08,2.51,1.31-.77,3.06-1.34,4.47-1.31,.45,.01,.65,.21,.6,.43-.78,.33-1.39,.59-1.52,.65-2.16,.95-4.25,2.07-5.31,3.18-2.76,2.88-4.21,13.74-4.21,13.74H31.24l14.34-15.37c-.93-.54-2.01-1.07-3.1-1.55m-14.47,10.09s-9.49-2.34-11.65-8.06c3.74-1.57,6.19-2.11,6.4-3.99,.05-.47,.31-2.73,.57-4.97,0-.01-.02-.02-.03-.03h0c-2.29-2.16-4.34-4.92-4.34-8.3-1.49-.46-1.94-2.27-1.94-3.82,0-.64,.06-1.13,.17-1.48,.11-.36,.28-.58,.51-.69h0c.42-.19,.9-.03,1.27,.26,0-.42,0-1.25,.11-2.27,2.6-.33,8.43-2.22,12.3-6.09,1.91,.55,3.64,1.56,5.09,2.91,.04,.14,.08,.28,.12,.42,.16,.68,.27,1.35,.35,1.98,.15,1.26,.15,2.36,.15,3.05,.36-.3,.84-.47,1.27-.26,.45,.21,.67,.9,.67,2.17,0,1.55-.45,3.35-1.94,3.82,0,3.35-2.07,6.16-4.38,8.32-1,.94-1.85,1.86-4.68,1.86-1.09,0-2.18-.18-2.99-.55,.4,.98,1.24,2.22,3.27,2.72,1.81,.45,3.68-.96,4.73-1.64,.05,.47,.19,2.12,.24,2.59,.21,1.87,2.64,2.42,6.4,3.99-2.16,5.71-11.65,8.06-11.65,8.06"/><path d="M62.69,40.08c-.93-.93-2.3-1.36-3.76-1.17-1.35,.18-2.68,.86-3.74,1.92-.12,.12-7.18,6.73-7.18,6.73l-.27-.27s6.45-6.9,6.73-7.18c2.27-2.27,2.61-5.64,.75-7.5-.51-.51-1.15-.86-1.87-1.05-.76-1.94,.01-4.39,.03-4.43,.22-.65-.14-1.36-.79-1.58-.65-.22-1.36,.14-1.58,.79-.04,.13-.87,2.7-.25,5.25-1.1,.29-2.16,.89-3.03,1.76-1.06,1.06-1.74,2.39-1.92,3.74-.19,1.45,.24,2.82,1.17,3.76,.63,.63,1.43,1,2.29,1.14l-17.3,18.55c-.73,.78-.71,1.99,.05,2.75,.39,.39,.89,.58,1.4,.58s.97-.18,1.35-.53l18.54-17.29c.15,.88,.53,1.68,1.14,2.29,.79,.79,1.88,1.21,3.08,1.21,.22,0,.45-.01,.67-.04,1.35-.18,2.68-.86,3.74-1.92,1.06-1.06,1.74-2.39,1.92-3.74,.19-1.46-.24-2.82-1.17-3.76m-13.96-1c-.52-.52-.51-1.27-.46-1.67,.1-.8,.54-1.64,1.21-2.3,.66-.66,1.5-1.1,2.3-1.21,.1-.01,.22-.02,.36-.02,.4,0,.92,.09,1.31,.48,.87,.87,.53,2.69-.75,3.97-1.28,1.28-3.09,1.62-3.97,.75m-2.75,11.98c-.48,.48-1.26,.48-1.75,0-.48-.48-.48-1.26,0-1.74,.48-.48,1.26-.48,1.75,0,.48,.48,.48,1.26,0,1.74m15.4-7.55c-.1,.8-.54,1.64-1.21,2.3-.66,.66-1.5,1.1-2.3,1.2-.4,.05-1.15,.06-1.67-.46-.52-.52-.51-1.27-.46-1.67,.1-.8,.54-1.64,1.21-2.3,.66-.66,1.5-1.1,2.3-1.2,.1-.01,.22-.02,.36-.02,.4,0,.92,.09,1.31,.48,.52,.52,.51,1.27,.46,1.67"/></g></g></svg>