<?xml version="1.0" encoding="UTF-8"?><svg id="Laag_1" xmlns="http://www.w3.org/2000/svg" xmlns:xlink="http://www.w3.org/1999/xlink" viewBox="0 0 64 64"><defs><style>.cls-1{fill:none;}.cls-2{clip-path:url(#clippath);}.cls-3{clip-path:url(#clippath-1);}</style><clipPath id="clippath"><rect class="cls-1" width="64" height="64"/></clipPath><clipPath id="clippath-1"><rect class="cls-1" width="64" height="64"/></clipPath></defs><g class="cls-2"><g class="cls-3"><path d="M39.07,11.07l-3.4-3.3c-1.04,.26-2.33,.33-3.67,.33s-2.64-.06-3.68-.32l-3.39,3.29c-1.88,1.88-2.93,4.42-2.93,7.07V51.92c0,2.04,.37,4.06,1.08,5.97l1.19,3.17c.44,1.17,1.56,1.95,2.81,1.95h1.01c.59,0,1.17-.17,1.66-.5l.91-.6s-1.49-2.11-1.76-2.51c-.22-.33-.01-.49-.01-.49,0,0,2.92,2,5.63,3.77,.43,.22,.9,.34,1.38,.34h1.01c1.25,0,2.37-.78,2.81-1.95l1.19-3.17c.72-1.91,1.08-3.93,1.08-5.97V18.14c0-2.65-1.05-5.2-2.93-7.07m.93,20.93H24v-11h16v11Z"/><path d="M32,6c2.21,0,4-.28,4-.71-.04-.97-.13-2.1-.31-3.1-.13-.69-.68-1.18-1.32-1.18h-4.74c-.64,0-1.19,.49-1.32,1.18-.18,1-.27,2.13-.31,3.1,0,.44,1.79,.71,4,.71"/></g></g></svg>