<?xml version="1.0" encoding="UTF-8"?><svg id="Laag_1" xmlns="http://www.w3.org/2000/svg" viewBox="0 0 64 64"><defs><style>.cls-1{fill:none;}</style></defs><rect class="cls-1" width="64" height="64"/><path d="m19.15,30.44l8.03-4.58v14.74c0,2.62,2.27,3.4,4.83,3.4,2.56,0,4.82-.78,4.82-3.4v-21.01s.25-.15.37.31c.16.58,1.94,7.28,1.94,7.28l5.72,3.26c1.36.78,3.08.48,4.1-.71,1.02-1.19,1.06-2.93.09-4.16l-14.47-18.33c-.62-.79-1.57-1.24-2.57-1.24s-1.95.46-2.57,1.24l-14.47,18.33c-.97,1.23-.93,2.97.09,4.16,1.02,1.19,2.74,1.48,4.1.71Z"/><path d="m47,45v5h-30v-5h-8v10c0,1.66,1.34,3,3,3h40c1.66,0,3-1.34,3-3v-10h-8Z"/></svg>