<?xml version="1.0" encoding="UTF-8"?><svg id="Laag_1" xmlns="http://www.w3.org/2000/svg" xmlns:xlink="http://www.w3.org/1999/xlink" viewBox="0 0 64 64"><defs><style>.cls-1{fill:none;}.cls-2{clip-path:url(#clippath);}.cls-3{clip-path:url(#clippath-1);}</style><clipPath id="clippath"><rect class="cls-1" width="64" height="64"/></clipPath><clipPath id="clippath-1"><rect class="cls-1" width="64" height="64"/></clipPath></defs><g class="cls-2"><g class="cls-3"><path d="M56.92,12.95c-.44-.55-1.1-.86-1.8-.86h-15.7c-1.12,0-2.08,.81-2.26,1.91-.19,1.1,.45,2.18,1.5,2.55l5.66,1.99-8.52,7.98c-2.37,2.22-3.73,5.35-3.73,8.6v20.57c0,1.91,1.55,2.31,3.46,2.31s3.46-.4,3.46-2.31v-20.57c0-1.34,.56-2.64,1.54-3.55l8.16-7.64,.7,6.03c.13,1.11,1.05,1.97,2.16,2.03,1.12,.06,2.12-.7,2.36-1.79l3.45-15.31c.15-.68-.01-1.4-.45-1.94"/><path d="M20.66,6.75c-.42-.56-1.07-.89-1.77-.91-.7-.02-1.37,.28-1.82,.82L6.96,18.67c-.72,.86-.72,2.11,0,2.96,.72,.85,1.96,1.07,2.92,.49l5.17-3.04,.02,36.61c0,1.91,1.55,2.3,3.46,2.3s3.46-.39,3.46-2.3V19.22l5.06,3.35c.94,.62,2.18,.47,2.94-.34,.77-.82,.83-2.07,.15-2.96L20.66,6.75Z"/></g></g></svg>