<?xml version="1.0" encoding="UTF-8"?><svg id="Laag_1" xmlns="http://www.w3.org/2000/svg" xmlns:xlink="http://www.w3.org/1999/xlink" viewBox="0 0 64 64"><defs><style>.cls-1{fill:none;}.cls-2{clip-path:url(#clippath);}.cls-3{clip-path:url(#clippath-1);}</style><clipPath id="clippath"><rect class="cls-1" width="64" height="64"/></clipPath><clipPath id="clippath-1"><rect class="cls-1" width="64" height="64"/></clipPath></defs><g class="cls-2"><g class="cls-3"><path d="M33,31h3.73c2.17-1.4,4.63-2.35,7.27-2.77V6c0-1.1-.9-2-2-2H10c-1.1,0-2,.9-2,2V53h15v-9h5.23c.6-3.77,2.3-7.16,4.77-9.85v-3.15Zm0-20h6v6h-6v-6Zm0,10h6v6h-6v-6Zm-14,16h-6v-6h6v6Zm0-10h-6v-6h6v6Zm0-10h-6v-6h6v6Zm10,20h-6v-6h6v6Zm0-10h-6v-6h6v6Zm0-10h-6v-6h6v6Z"/><path d="M47,31.17c-8.74,0-15.83,7.09-15.83,15.83s7.09,15.83,15.83,15.83,15.83-7.09,15.83-15.83-7.09-15.83-15.83-15.83m0,27.75c-6.57,0-11.91-5.34-11.91-11.91s5.35-11.91,11.91-11.91,11.91,5.34,11.91,11.91-5.35,11.91-11.91,11.91"/><path d="M54.53,46.84h.02l-7.06-.7-.55-7.72c-.06-.55-.44-.95-.99-.95s-.95,.36-.99,.95l-.66,9.09c0,.85,.65,1.55,1.48,1.64,.05,.03,8.75-.62,8.75-.62,.57-.05,.99-.3,.99-.84s-.38-.8-.99-.84"/></g></g></svg>