<?xml version="1.0" encoding="UTF-8"?><svg id="Laag_1" xmlns="http://www.w3.org/2000/svg" xmlns:xlink="http://www.w3.org/1999/xlink" viewBox="0 0 64 64"><defs><style>.cls-1{fill:none;}.cls-2{clip-path:url(#clippath);}.cls-3{clip-path:url(#clippath-1);}</style><clipPath id="clippath"><rect class="cls-1" width="64" height="64"/></clipPath><clipPath id="clippath-1"><rect class="cls-1" width="64" height="64"/></clipPath></defs><g class="cls-2"><g class="cls-3"><path d="M59.87,59c.01-2.7-3.49-5.54-6.46-4.37-1.53-5.13-6.84-8.19-10.81-5.56l.65,3.5c.06,.35,.22,.67,.45,.93,.59,.69,1.51,1.75,2.6,2.99,.86,.97,.97,1.89,.91,2.51h12.65Z"/><path d="M42.17,54.8c-.46-.53-.76-1.18-.89-1.87-.6-3.24,1.43,7.65-2.52-13.52h.02c-.77-6.01,3.15-8.4,4.28-8.95,.08,.02,.08,.15-.01,.23-.81,1-2.87,4-2.33,8.13,.06,.44,.16,.74,.28,1.41,1.21,.45,2.53,.71,3.9,.71,6.19,0,11.1-4.7,11.1-10.89,0-2.81-.93-5.36-2.63-7.33,.86-1.5,1.35-3.24,1.35-5.09,0-4.69-3.13-8.64-7.42-9.89-1.47-2.81-4.41-4.73-7.8-4.73-2.33,0-4.45,.92-6.03,2.4-1.49-1.16-3.36-1.86-5.4-1.86-4.86,0-8.81,3.94-8.81,8.81,0,.02,0,.03,0,.05-4.63,.59-7.79,5.18-6.47,9.83-1.96,1.83-3.19,4.42-3.19,7.31,0,5.52,4.48,10,10,10,2.47,0,4.72-.9,6.46-2.38,1.06,1.84,1.94,3.02,1.81,5.15l-.27,4.12c4.66,2.89,4.9,8.21,4.92,8.42,.02,.22,.06,.38-.14,.4-.8-1.48-3.47-7.55-8.51-7.22-3.68,.24-4.97,3.68-4.97,3.68,0,0-2.24-1.53-4.92-.06-2.28,1.25-3.2,4.25-3.2,4.25,0,0-2.37-.65-4.35,.71-1.2,.83-2.1,2.22-2.45,5.4h13.87c-.3-2.17,.54-4,.54-4,.6,2.08,2.11,3.64,2.5,4h.09c.03-2.59,1.66-6.73,1.66-6.73-.37,4.75,1.33,6.65,1.33,6.65l-.04,.08h10.68s-.27-1.29-.85-3.07l3.21-.68,7.94,1.09s.74-.53-.13-1.52c-1.1-1.25-2.03-2.32-2.62-3.01m-9.33-19.22c-.33,.69-1.27,.76-1.71,.15l-2.1-2.91c.26-.75,.44-1.54,.52-2.36,1.27,1.24,2.92,2.1,4.75,2.39-.61,1.01-1.1,1.97-1.46,2.73"/></g></g></svg>