<?xml version="1.0" encoding="UTF-8"?><svg id="Laag_1" xmlns="http://www.w3.org/2000/svg" xmlns:xlink="http://www.w3.org/1999/xlink" viewBox="0 0 64 64"><defs><style>.cls-1{fill:none;}.cls-2{clip-path:url(#clippath);}.cls-3{clip-path:url(#clippath-1);}</style><clipPath id="clippath"><rect class="cls-1" width="64" height="64"/></clipPath><clipPath id="clippath-1"><rect class="cls-1" width="64" height="64"/></clipPath></defs><g class="cls-2"><g class="cls-3"><path d="M20.91,21.62c1.6,2.05,6.72,.51,9.15-.45,5.01-1.98,5.5-3.27,8.37-.95l9.8,7.92c6.66-2.09,7.83-4.07,7.83-4.07l-6.28-12.82-5.98,2c-2.32,.77-3.86-.54-4.84-1.2-2.1-1.42-4.85-1.4-6.93,.05-2.08,1.44-5.23,4.09-10.03,6.58-1.42,.74-1.77,2.07-1.09,2.94"/><path d="M23.6,38.55l.42-.34c1.25-1.03,1.2-3.16,.17-4.41-.7-.85-1.89-1.32-2.96-1.21,.98-3.32-2.96-5.48-4.99-3.8l-.99,.82c.02-3.07-3.38-4.53-5.49-2.79l-2.4,1.98c-1.94,1.6-1.71,3.66-.68,4.92,1.12,1.35,2.83,1.45,4.09,.81-.05,.86,.21,1.76,.76,2.43,.7,.85,1.88,1.32,2.96,1.21-.31,1.04-.07,2.29,.63,3.14,.82,1,2.31,1.47,3.51,1.1-.14,.94,.12,1.98,.73,2.71,1.03,1.25,3.16,1.65,4.69,.4l1.17-.96c1.62-1.34,1.66-3.53,.62-4.78-.55-.66-1.38-1.09-2.24-1.2"/><path d="M37.22,21.72c-1.36-1.1-1.32-1.03-3.56,0-1.78,.82-6.14,2.84-9.93,2.84-1.97,0-3.43-.59-4.34-1.75-1.41-1.81-.8-4.53,1.72-5.84,2.05-1.07,3.8-2.17,5.28-3.19l-2.36-1.64c-2.08-1.44-4.83-1.46-6.93-.05-.99,.67-2.53,1.98-4.84,1.2l-5.98-2L0,24.12s.94,1.58,5.89,3.4c2.98-2.7,4.13-3.39,5.92-3.39s3.49,.87,4.48,2.43c2.08-.76,4.48,.08,5.78,1.65,.62,.75,1.02,1.7,1.15,2.7,3.13,1.06,4.28,4.34,3.34,6.87,2.17,1.73,2.46,4.82,.96,7.03,1.61,1.36,3.28,.99,4.47,.05v-6.33c0-5.3,5.47-9.31,13.2-10.3-3.03-2.48,2.01,1.57-7.99-6.53"/><path d="M49,50c7.85,0,14-3.38,14-7.68v-3.65c0-4.3-6.15-7.67-14-7.67s-14,3.37-14,7.67v3.65c0,.95,.31,1.85,.86,2.68-.55,.83-.86,1.72-.86,2.66v3.65c0,4.3,6.15,7.68,14,7.68s14-3.38,14-7.68v-3.65c0-.2-.03-.41-.05-.61-.72,.9-4.57,5.14-13.61,5.14-8.02,0-10.78-3.86-11.07-4.38-.12-.21-.2-.44-.08-.57,2.55,1.69,6.41,2.75,10.81,2.75m-11.3-11c0-2.84,5.06-5.15,11.3-5.15s11.3,2.31,11.3,5.15-5.06,5.15-11.3,5.15-11.3-2.31-11.3-5.15"/><path d="M46.85,40.73v.68h1.55v-.56c.31,.02,.67,.02,1.02,.02h.38v.54h1.52v-.62c2.78-.3,4.11-1.26,4.11-2.67,0-.55-.06-.78-.31-1.34h-2.06c.21,.52,.29,.78,.29,1.25,0,.62-.59,1.12-2.03,1.33v-1.76h-1.52v1.89c-.19,0-.38,.02-.61,.02-.27,0-.52-.01-.79-.02v-1.89h-1.55v1.75c-1.4-.21-2.13-.66-2.13-1.37,0-.41,.08-.65,.25-1.15h-2.17c-.17,.43-.23,.73-.23,1.12,0,1.42,1.44,2.42,4.28,2.78"/></g></g></svg>