<?xml version="1.0" encoding="UTF-8"?><svg id="Laag_1" xmlns="http://www.w3.org/2000/svg" xmlns:xlink="http://www.w3.org/1999/xlink" viewBox="0 0 64 64"><defs><style>.cls-1{fill:none;}.cls-2{clip-path:url(#clippath);}.cls-3{clip-path:url(#clippath-1);}</style><clipPath id="clippath"><rect class="cls-1" width="64" height="64"/></clipPath><clipPath id="clippath-1"><rect class="cls-1" width="64" height="64"/></clipPath></defs><g class="cls-2"><g class="cls-3"><path d="M6,20.5c0-3.86,3.14-7,7-7v4.5c0,1.66,1.34,3,3,3h8v-3h7.5c.83,0,1.5-.67,1.5-1.5s-.67-1.5-1.5-1.5h-7.5v-6h7.5c.83,0,1.5-.67,1.5-1.5s-.67-1.5-1.5-1.5h-7.5V3h-8c-1.66,0-3,1.34-3,3v4.5c-5.51,0-10,4.49-10,10v18.47c.92-.46,1.94-.81,3-1.13V20.5Z"/><path d="M50,50c-2.76,0-5,2.24-5,5s2.24,5,5,5,5-2.24,5-5-2.24-5-5-5"/><path d="M15,50c-2.76,0-5,2.24-5,5s2.24,5,5,5,5-2.24,5-5-2.24-5-5-5"/><path d="M62.46,47.97c-2.81-4.41-17.38-7.44-17.38-7.44,0,0-6.44-6.1-9.77-6.84s-13.12-1.1-17.54,0c-4.42,1.1-10.08,5.92-10.08,5.92-2.76,.85-4.86,1.36-5.67,3.24-1.16,2.73-1.16,8.06-.46,9.9,.72,1.9,2.56,3.24,4.42,3.24h2.04c-.05-.33-.08-.66-.08-1,0-3.9,3.16-7.05,7.05-7.05s7.05,3.15,7.05,7.05c0,.34-.03,.67-.08,1h21.06c-.05-.33-.08-.66-.08-1,0-3.9,3.15-7.05,7.05-7.05s7.05,3.15,7.05,7.05c0,.34-.03,.67-.08,1h3.35c.38,0,.72-.2,.91-.54,1.1-1.95,2.77-5.06,1.22-7.49m-21.46-5.97h-7.93c-4.85,0-14.95-.51-17.35-.82-.92-.12-1.47-1.07-1.14-1.94,.65-1.7,1.56-2.56,3.79-3.12,1.61-.4,4.3-.62,7.58-.62,3.49,0,7.11,.26,8.82,.64,1.31,.29,4.16,2.34,6.72,4.53,.54,.46,.22,1.33-.49,1.33"/></g></g></svg>