<?xml version="1.0" encoding="UTF-8"?><svg id="Laag_1" xmlns="http://www.w3.org/2000/svg" xmlns:xlink="http://www.w3.org/1999/xlink" viewBox="0 0 24 24"><defs><style>.cls-1{fill:none;}.cls-2{clip-path:url(#clippath);}.cls-3{clip-path:url(#clippath-1);}</style><clipPath id="clippath"><rect class="cls-1" width="24" height="24"/></clipPath><clipPath id="clippath-1"><rect class="cls-1" width="24" height="24"/></clipPath></defs><g class="cls-2"><g class="cls-3"><path d="m8.12,3.51c-.33.5-.36,1.27-.36,2,0,.7-.01,1.36.05,1.7-.48-.02-.68.36-.61,1.67.07,1.16.53,1.41.8,1.56.24,1.17.71,2.28,1.54,3.11h0c-.05.29-.12.62-.2.94-1.14.4-3.94,1.45-4.76,2.31-1.03,1.09-1.58,5.19-1.58,5.19h18s-.55-4.1-1.58-5.19c-.82-.86-3.61-1.91-4.76-2.31-.09-.32-.16-.64-.22-.94.83-.84,1.31-1.94,1.56-3.11.27-.16.72-.41.79-1.56.07-1.3-.13-1.69-.61-1.67.06-.34.07-.98.06-1.67,0-.73-.04-1.51-.33-2.03-.37-.65-.88-1.04-1.88-.8-.88-.42-1.8-.87-3.34-.53-1.74.39-2.35.99-2.58,1.33"/></g></g></svg>