<?xml version="1.0" encoding="UTF-8"?><svg id="Laag_1" xmlns="http://www.w3.org/2000/svg" xmlns:xlink="http://www.w3.org/1999/xlink" viewBox="0 0 64 64"><defs><style>.cls-1{fill:none;}.cls-2{clip-path:url(#clippath);}.cls-3{clip-path:url(#clippath-1);}</style><clipPath id="clippath"><rect class="cls-1" width="64" height="64"/></clipPath><clipPath id="clippath-1"><rect class="cls-1" width="64" height="64"/></clipPath></defs><g class="cls-2"><g class="cls-3"><path d="M31.33,18.12c-1.98-.76-4.42-.64-6.61,.54-3.69,1.98-5.28,6.18-3.57,9.37,1.72,3.19,6.1,4.17,9.78,2.18,1.75-.94,3.03-2.38,3.71-3.97,.54-1.27,.75-2.4,.19-3.61-.34-.72-.99-1.45-2.28-1.45-4.49-.01-6.02,3.58-6.38,4.66,0,0-.3,0-.37-.44-.18-1.25,.3-2.9,1.07-4.04,1.17-1.72,3.04-2.9,4.46-3.24"/><path d="M17.21,48.34c4.94-3.44,11.42-7.62,13.14-8.69,5.86-3.64,11.68-3.67,15.74-.35,.48-.4,.85-.81,1.04-1.21,.24-.54,.47-1.13,.7-1.74,.75-1.97,1.6-4.21,3.34-5.97,.72-.73,1.43-1.36,2.11-1.91,.03-3.33-1.54-6.43-4.89-8.35,1.21-2.87,2.07-6.2,.76-8.57-5.26-9.58-25.84-1.58-29.5,7.57,1.2-1.56,3.16-2.89,5.44-3.64,3.47-1.15,7.42-.93,11.11,.61,4.81,2.01,7.43,6.11,7.01,10.96-.26,2.97-1.79,5.54-3.34,6.1-.35,.13-.42-.06-.42-.06,2.29-4.24,2.1-10.19-1.86-12.78,2.1,7.49-3.9,15.89-15.24,15.89-8.98,0-12.6-8.38-11.82-11.58,.09-.36,.36-.33,.36-.33,2.14,4.92,6.69,9.02,12.11,8.87-2.83-1.08-5.29-3.42-6.43-6.19-.9-2.18-1.45-5.69,1.06-10,2.84-4.88,7.58-7.91,12.19-9.78-9.62-5.45-20,1.21-20.17,10.02-4.02,3.1-6.85,7.36-6.39,11.8,.49,4.73,4.54,8.59,9.6,10.75,.56,4.17,2.58,6.91,4.37,8.57"/><path d="M53.87,40.21s9.07-4.74,6.73-13.13c0,0-3.6,.54-7.87,4.85-1.92,1.94-2.61,4.9-3.59,7.07-.56,1.24-1.87,2.3-3.28,3.15-3.61-4.18-9.19-3.82-14.34-.62-.08,.05-.16,.1-.25,.16,2.31,.42,5.51,2.35,4.95,8.14-.04,.44-.24,.6-.38,.47,0,0-1.67-7.25-8.03-6.36-.02,0-.03,0-.06,0-1.64,1.07-3.52,2.31-5.39,3.56,1.8,.39,4.35,1.97,3.84,6.13-.04,.3-.23,.43-.36,.33,0,0-1.21-4.67-6.12-4.67-3.08,2.12-5.73,4.03-6.55,4.87-1.97,2.01-1.01,5.06,2.16,4.8,3.94-.32,13.82-1.25,23.64-2.33,7.72-.86,10.09-6.32,8.88-10.81,1.17-.32,2.48-.62,3.18-.6,1.47,.05,2.68,2.1,5.87,2.17,3.19,.06,6.58-2.04,6.58-2.04,0,0-3.82-6.06-9.61-5.11"/></g></g></svg>