<?xml version="1.0" encoding="UTF-8"?><svg id="Laag_1" xmlns="http://www.w3.org/2000/svg" xmlns:xlink="http://www.w3.org/1999/xlink" viewBox="0 0 64 64"><defs><style>.cls-1{fill:none;}.cls-2{clip-path:url(#clippath);}.cls-3{clip-path:url(#clippath-1);}</style><clipPath id="clippath"><rect class="cls-1" width="64" height="64"/></clipPath><clipPath id="clippath-1"><rect class="cls-1" width="64" height="64"/></clipPath></defs><g class="cls-2"><g class="cls-3"><path d="M51.46,38.41c-2.7,8.17-10.4,14.09-19.46,14.09-10.69,0-19.8-8.3-20.44-19.3,.05-.05,.14-.05,.25,.13,.16,.26,1.02,2.68,1.08,2.83l2.75,1.62c.66,.39,1.5,.24,1.99-.34,.49-.58,.49-1.44,0-2.02l-6.89-8.18c-.31-.36-.76-.57-1.24-.56-.48-.01-.93,.19-1.24,.56L1.37,35.43c-.49,.58-.49,1.44,0,2.02,.49,.58,1.33,.73,1.99,.34l3.42-2.02c1.83,12.28,12.44,21.73,25.22,21.73,11.47,0,21.18-7.61,24.38-18.04-1.47,.9-3.37,.79-4.92-1.05m11.17-11.17c-.49-.58-1.33-.73-1.99-.34l-3.34,1.97c-1.55-12.59-12.3-22.37-25.3-22.37-11.77,0-21.69,8.01-24.62,18.87,1.41-1.02,3.56-.99,5,.72,2.55-8.43,10.37-14.59,19.62-14.59,11.06,0,20.19,8.83,20.47,19.98-.05,.05-.14,.06-.25-.13-.13-.24-.76-2.17-.93-2.72l-2.92-1.72c-.66-.39-1.5-.24-1.99,.34-.49,.58-.49,1.44,0,2.02l6.89,8.18c.31,.36,.76,.57,1.24,.56,.48,.01,.93-.19,1.24-.56l6.89-8.18c.49-.58,.49-1.44,0-2.02m-21.63,16.76c1.1,0,2-.9,2-2v-14.17c0-.53-.21-1.04-.59-1.42l-7.83-7.83c-.38-.38-.88-.59-1.42-.59h-10.17c-1.1,0-2,.9-2,2v22c0,1.1,.9,2,2,2h18ZM24,21h9v5c0,1.1,.9,2,2,2h5v13H24V21Z"/></g></g></svg>