<?xml version="1.0" encoding="UTF-8"?><svg id="Laag_1" xmlns="http://www.w3.org/2000/svg" xmlns:xlink="http://www.w3.org/1999/xlink" viewBox="0 0 64 64"><defs><style>.cls-1{fill:none;}.cls-2{clip-path:url(#clippath);}.cls-3{clip-path:url(#clippath-1);}</style><clipPath id="clippath"><rect class="cls-1" width="64" height="64"/></clipPath><clipPath id="clippath-1"><rect class="cls-1" width="64" height="64"/></clipPath></defs><g class="cls-2"><g class="cls-3"><path d="M22.33,39.58c.44-.53,1.11-.82,1.78-.79,.53,.02,1.05,.06,1.55,.11-.25-.29-.43-.65-.5-1.04-.13-.73,.11-1.49,.65-2,1.63-1.54,3.42-2.98,5.32-4.27,.37-.25,.81-.35,1.25-.38,1.19,0,2.31,.09,3.36,.22-.17-.32-.27-.68-.27-1.05,0-.86,.49-1.64,1.26-2,.57-.27,1.15-.51,1.74-.73,1.1-3.57,1.63-7.6,1.48-11.92-.08-2.36-1.74-4.27-3.93-4.8l-.02-1.1,1.17-2.36-1.75,.19-1.65-.71-.9,.61-1.46,.1,1.78,2.31,.02,1.06c-2.12,.69-3.63,2.7-3.55,5.04,.29,8.47-2.68,13.47-5.56,15.32-2.03,1.3-4.28,1.35-6.71,.14-2.42-1.21-3.74-3.04-3.92-5.44-.25-3.41,1.95-8.79,8.89-13.65,1.92-1.34,2.61-3.75,1.9-5.86l.86-.62,2.92,.03-.8-1.23-.05-1.08-1.56-.89-.9-1.51-1.18,2.35-.88,.64c-.3-.25-.62-.46-.96-.63-1.63-.81-3.65-.73-5.25,.39C7.59,10.25,2.63,18.79,3.23,26.86c.45,6.01,3.94,11.07,9.59,13.89,2.38,1.19,4.85,1.82,7.3,1.92,.64-1.05,1.37-2.08,2.21-3.09"/><path d="M58.25,32.7c-3.94-4.59-12.46-6.15-20.58-2.33,5.12,2.35,7.31,5.17,7.94,5.97,.52,.65,.64,1.06,.39,1.21-1.04-.67-5.61-4.09-13.64-4.14-1.81,1.24-3.5,2.59-5.04,4.05,5.9,2.45,8.34,5.7,9.02,6.56,.52,.65,.59,.98,.39,1.09-1.05-.42-5.26-3.82-12.71-4.12-10.44,12.61-3.74,28,15.89,19.19,6.14-2.76,12.53-7.74,15.83-11.15,6.73-6.95,5.78-12.53,2.52-16.33"/></g></g></svg>