<?xml version="1.0" encoding="UTF-8"?>
<svg id="Zwart" xmlns="http://www.w3.org/2000/svg" viewBox="0 0 64 64">
  <rect x="30" y="11" width="18" height="3"/>
  <rect x="30" y="17" width="18" height="3"/>
  <rect x="11.76" y="44.85" width="5.71" height="19.24" transform="translate(-34.24 26.29) rotate(-45)"/>
  <path d="M55,1H23c-1.1,0-2,.9-2,2v25.12c1.09-.76,2.25-1.6,3.69-2.63l.31-.23V5h28v37h-28v-4.72c-1.55,1.19-3.01,2.18-4,2.82v3.9c0,1.1.9,2,2,2h32c1.1,0,2-.9,2-2V3c0-1.1-.9-2-2-2Z"/>
  <path d="M19,44v-5c3.62-2.23,13.62-9.31,10.95-12.62-.72-.88-1.77-.93-3.24.13-5.01,3.61-7.05,5.12-11.7,7.75-3.23,1.83-3.15,8.23-2.97,10.75l11.97,12s2.53-.35,6.71-2.35c4.18-2,7.29-6.65,7.29-6.65h-15c-2.21,0-4-1.79-4-4Z"/>
  <path d="M44.65,39.62v-2.11c2.21-.58,3.52-2.14,3.52-4.18,0-1.8-.89-2.88-2.87-3.51l-1.59-.49c-1.21-.39-1.45-.82-1.45-1.38,0-1.13,1.43-1.29,2.28-1.29s1.51.04,2.91.29l.19-2.52c-.22-.04-.73-.15-1.48-.22-.41-.04-.84-.06-1.26-.07v-1.93h-2.15v2.16c-2.12.51-3.38,1.94-3.38,3.85,0,1.73.86,2.93,2.47,3.47l1.61.55c1.66.57,1.79,1.02,1.79,1.58,0,.68-.86,1.37-2.49,1.37-.3,0-1.36.04-3.54-.35v2.61c.26.04.85.15,1.71.21.53.03,1.04.04,1.59.04v1.93h2.15Z"/>
</svg>