<?xml version="1.0" encoding="UTF-8"?><svg id="Laag_1" xmlns="http://www.w3.org/2000/svg" xmlns:xlink="http://www.w3.org/1999/xlink" viewBox="0 0 64 64"><defs><style>.cls-1{fill:none;}.cls-2{clip-path:url(#clippath);}.cls-3{clip-path:url(#clippath-1);}</style><clipPath id="clippath"><rect class="cls-1" width="64" height="64"/></clipPath><clipPath id="clippath-1"><rect class="cls-1" width="64" height="64"/></clipPath></defs><g class="cls-2"><g class="cls-3"><path d="M54.86,32.49l-6.2-7.13c-.2-.9,.13-2.57,0-3.33-.67-3.85-2.62-8.12-2.62-8.12,2.11-4.02,1.08-7.19-2.09-9.23-3.62-2.33-16.77-2.56-26.37,2.66-10.13,5.51-9.03,15.35-7.33,20.51,1.98,5.99,7.91,14.49,8.32,20.9,.18,2.81-1.89,11.26-1.89,11.26h22.31l-.13-5.99-5.49-2.83c-.29-.16-.21-.35-.18-.41,0,0,8.24,1.77,11.44,2.19,3.21,.42,6.29-2.31,6.29-6.21v-9.66l3.34-1.77c.96-.62,1.23-1.89,.6-2.84m-11.41-8.43c-1.14,2.22-4.53,3-11.57,3.88-6.06,.76-7.14,3.05-7.64,8.06h-3.22c-.1-1.56,.08-3.34,.08-3.34-2.83,.13-3.87-1.29-4.57-3.37-.16-.47-.5-.84-.94-1.06-.79-.38-2.03-1.2-2.49-2.69-.7-2.27-.29-3.33,.77-5.08,.33-.55,.16-2.34,.33-3.31,.25-1.42,1.13-2.3,2.35-2.92,1.29-.65,2.31-.53,3.26-1.01,.95-.47,1.36-2.45,3.01-3.05,2.21-.81,3.8-.2,5.22-.23,1.44-.02,3.11-1.56,5.02-1.47,1.73,.08,2.84,1.71,3.73,2.25,.89,.54,2.53,.33,3.65,1.04,3.33,2.1,1.4,4.85,2.1,6.24,.66,1.32,2.24,3.45,.9,6.05"/></g></g></svg>