<?xml version="1.0" encoding="UTF-8"?><svg id="Laag_1" xmlns="http://www.w3.org/2000/svg" xmlns:xlink="http://www.w3.org/1999/xlink" viewBox="0 0 64 64"><defs><style>.cls-1{fill:none;}.cls-2{clip-path:url(#clippath);}.cls-3{clip-path:url(#clippath-1);}</style><clipPath id="clippath"><rect class="cls-1" width="64" height="64"/></clipPath><clipPath id="clippath-1"><rect class="cls-1" width="64" height="64"/></clipPath></defs><g class="cls-2"><g class="cls-3"><path d="M24.24,43.48c-.39,2.13,3.44,2.48,3.59,.47,.1-1.24,.17-2.84,.97-5.17,7.69,2.41,15.26-7.3,13.22-16.65-.13-.62-.89-.88-1.39-.48-8.36,6.72-12.3,1.56-16.38,7.05-1.42,1.91-1.57,4.69-.18,6.87,2.55-2.79,5.31-4.65,7.25-5.69,.33-.17,.5-.01,.55,.06-4.58,4.41-6.5,7.42-7.64,13.53"/><path d="M13.82,33c0-10.02,8.15-18.18,18.18-18.18,.36,0,.72,.02,1.07,.04l-1.87,3.28c-.86,1.5,1,3.08,2.34,2.02l8.85-6.96c.8-.63,.8-1.84,0-2.47l-8.82-6.99c-1.35-1.07-3.2,.51-2.35,2.01l1.87,3.29c-.36-.02-.72-.04-1.09-.04-12.5,0-22.8,9.61-23.9,21.84l5.73,2.34c0-.06,0-.12,0-.18"/><path d="M32,51.18c-7.13,0-13.29-4.13-16.26-10.12l3.84-.02c1.73,0,2.17-2.41,.58-3.04l-10.45-4.18c-.94-.38-2,.23-2.15,1.23l-1.64,11.14c-.25,1.7,2.05,2.52,2.92,1.03l1.87-3.19c4,7.7,12.03,12.97,21.29,12.97,3.62,0,7.05-.81,10.13-2.25l-.84-6.15c-2.72,1.63-5.89,2.58-9.29,2.58"/><path d="M55.94,45.87l-3.68-.03c2.37-3.72,3.74-8.12,3.74-12.84,0-8.13-4.06-15.32-10.27-19.67l-4.89,3.79c5.56,3.11,9.34,9.06,9.34,15.87,0,3.69-1.13,7.1-3.02,9.97l-1.93-3.31c-.87-1.5-3.17-.68-2.92,1.02l1.6,11.14c.14,1.01,1.19,1.62,2.14,1.24l10.47-4.14c1.6-.63,1.16-3.03-.57-3.04"/></g></g></svg>