<?xml version="1.0" encoding="UTF-8"?><svg id="Laag_1" xmlns="http://www.w3.org/2000/svg" xmlns:xlink="http://www.w3.org/1999/xlink" viewBox="0 0 64 64"><defs><style>.cls-1{fill:none;}.cls-2{clip-path:url(#clippath);}.cls-3{clip-path:url(#clippath-1);}</style><clipPath id="clippath"><rect class="cls-1" width="64" height="64"/></clipPath><clipPath id="clippath-1"><rect class="cls-1" width="64" height="64"/></clipPath></defs><g class="cls-2"><g class="cls-3"><path d="M19.99,38.86c-.27-.75-.62-.86-.99-.86s-.72,.11-.99,.86c-2.27,6.29-6.85,9.14-7.81,13.91-1,5,3.83,9.23,8.8,9.23s9.81-4.23,8.79-9.23c-.96-4.73-5.53-7.62-7.81-13.91m-1.63,19.53c-1.68,0-3.45-.82-4.49-2.1-.71-.86-.97-1.77-.78-2.7,.34-1.69,1.52-3.29,3.03-5.32,.7-.95,1.48-2,2.24-3.18,.02,.04,.05,.07,.08,.11-.97,3.41-2.03,6.4-2.03,8.54,0,1.96,1.38,4.05,2.4,4.63-.15,.01-.3,.03-.44,.03"/><path d="M50.74,17l-1.37,6.78c-.1,.32-.31,.27-.37,.25v-7.03c0-2.78-3.09-3.87-6-3.99v-4.76l6.01,.5c1.61,.13,2.99-1.14,2.99-2.75s-1.38-2.88-2.99-2.75l-6.28,.52c-.47-1.04-1.51-1.77-2.73-1.77s-2.26,.73-2.73,1.77l-6.28-.52c-1.61-.13-2.99,1.14-2.99,2.75s1.38,2.89,2.99,2.75l6.01-.5v4.76c-2.91,.12-6,1.21-6,3.99v1h-4c-6.17,0-12,5.83-12,12v5h8v-5c0-1.76,2.24-4,4-4h4s.5,6,9,6c6.3,0,8.2-3.29,8.77-5h8.23v-10h-6.26Z"/></g></g></svg>