<?xml version="1.0" encoding="UTF-8"?><svg id="Laag_1" xmlns="http://www.w3.org/2000/svg" xmlns:xlink="http://www.w3.org/1999/xlink" viewBox="0 0 64 64"><defs><style>.cls-1{fill:none;}.cls-2{clip-path:url(#clippath);}.cls-3{clip-path:url(#clippath-1);}</style><clipPath id="clippath"><rect class="cls-1" width="64" height="64"/></clipPath><clipPath id="clippath-1"><rect class="cls-1" width="64" height="64"/></clipPath></defs><g class="cls-2"><g class="cls-3"><path d="M32,16c4.43,0,7-3.02,7-7.38,0-4.96-2.68-7.62-7-7.62-4.55,0-7,3.15-7,7.62,0,4.72,2.57,7.38,7,7.38"/><path d="M45.85,25.84c-3.09-4.78-6.48-6.99-10-7.57-2.06-.34-5.55-.36-7.69,0-3.52,.59-6.92,2.79-10,7.57-3.77,5.85-6.19,11.6-6.19,11.6,4.2,2.7,8.87-6.03,12.04-9.53v6.34c1.07-.18,1.19-1.24,2.46-1.24,1.39,0,1.39,1.28,2.77,1.28s1.38-1.28,2.77-1.28,1.38,1.28,2.77,1.28,1.38-1.28,2.77-1.28c1.27,0,1.39,1.06,2.46,1.24v-6.34c3.16,3.51,7.83,12.24,12.03,9.53,0,0-2.42-5.75-6.19-11.6"/><path d="M34.23,45.08l5.45,4.26s-3.01,3.88-3.83,5.47c-2.52,4.85,1.5,7.19,1.5,7.19,6.9-6.76,9.57-10.45,9.61-13.38,.04-2.93-6.3-10.6-6.3-10.6-3.24,.82-6.41,3.01-6.43,7.06"/><path d="M23.34,38.02s-6.33,7.68-6.3,10.6c.04,2.93,2.71,6.63,9.61,13.38,0,0,4.01-2.34,1.5-7.19-.82-1.59-3.83-5.47-3.83-5.47l5.45-4.26c-.02-4.05-3.19-6.24-6.43-7.06"/></g></g></svg>