<?xml version="1.0" encoding="UTF-8"?><svg id="Laag_1" xmlns="http://www.w3.org/2000/svg" xmlns:xlink="http://www.w3.org/1999/xlink" viewBox="0 0 64 64"><defs><style>.cls-1{fill:none;}.cls-2{clip-path:url(#clippath);}.cls-3{clip-path:url(#clippath-1);}</style><clipPath id="clippath"><rect class="cls-1" width="64" height="64"/></clipPath><clipPath id="clippath-1"><rect class="cls-1" width="64" height="64"/></clipPath></defs><g class="cls-2"><g class="cls-3"><path d="M7,47V17H51v11.4l2.61-2.61c.12-.12,.26-.21,.39-.31V13c0-1.66-1.34-3-3-3H7c-1.66,0-3,1.34-3,3V47c0,1.66,1.34,3,3,3h25.38l.95-3H7ZM13.5,12c.83,0,1.5,.67,1.5,1.5s-.67,1.5-1.5,1.5-1.5-.67-1.5-1.5,.67-1.5,1.5-1.5m-5,0c.83,0,1.5,.67,1.5,1.5s-.67,1.5-1.5,1.5-1.5-.67-1.5-1.5,.67-1.5,1.5-1.5"/><path d="M51,50c1.66,0,3-1.34,3-3v-1.55l-4.55,4.55h1.55Z"/><path d="M60.47,28.96c-1.91-1.91-4.28-2.63-5.3-1.62l-19.48,19.48-2.85,8.99c-.15,.47,.29,.91,.76,.77l9-2.85,19.48-19.48c1.01-1.01,.29-3.39-1.62-5.3m-23.84,24.57l-.73-.73,1.42-4.5,.92,.52,.72,1.66,1.57,.68,.59,.96-4.49,1.42Z"/><path d="M36.83,22.44c-2.61-.44-6.96-.44-7.83-.44s-5.22,0-7.83,.44c-.9,.15-1.59,.84-1.74,1.74-.43,2.61-.43,6.96-.43,7.83s0,5.22,.43,7.83c.15,.9,.84,1.59,1.74,1.74,2.61,.43,6.96,.43,7.83,.43s5.22,0,7.83-.43c.9-.15,1.59-.84,1.74-1.74,.43-2.61,.43-6.96,.43-7.83,0-2.61,0-5.22-.43-7.83-.15-.9-.84-1.59-1.74-1.74m-3.63,14.56h-2.81l-1.4-4.73-1.42,4.73h-2.78l-2.6-9.99h2.46l1.73,7.25,1.62-4.95-.71-2.3h2.38l2.16,7.19,1.73-7.19h2.3l-2.63,9.99Z"/></g></g></svg>