<?xml version="1.0" encoding="UTF-8"?><svg id="Laag_1" xmlns="http://www.w3.org/2000/svg" xmlns:xlink="http://www.w3.org/1999/xlink" viewBox="0 0 64 64"><defs><style>.cls-1{fill:none;}.cls-2{clip-path:url(#clippath);}.cls-3{clip-path:url(#clippath-1);}</style><clipPath id="clippath"><rect class="cls-1" width="64" height="64"/></clipPath><clipPath id="clippath-1"><rect class="cls-1" width="64" height="64"/></clipPath></defs><g class="cls-2"><g class="cls-3"><path d="M57.67,18.35c-.91-7.73-5.07-14.31-10.45-14.08-5.56,.23-9.56,8.57-8.63,17.66,.9,8.9,3.65,10.52,4.29,15.43,2.95,.92,6.73,2.1,6.94,2.16,.32,.1,.24,.34,.21,.39l-8.36-.87s-.89,4.55-.91,8.31c-.02,3.79,2.11,7.09,6.08,7.57,4.1,.5,6.76-2.37,7.57-6.08,1.47-6.67-.11-5,2.4-18.52,.66-3.24,1.34-7.91,.87-11.96"/><path d="M27.24,43.44c-3.63-7.59-.33-7.31-2.52-17.67-1.89-8.94-8.24-15.65-13.6-14.18-5.2,1.43-7.15,8.96-5.66,16.6,1.69,8.7,7.59,13.64,9.51,18.29,2.96-.67,6.59-1.5,6.79-1.54,.33-.07,.37,.17,.38,.23l-7.67,3.43c.03,.08,1.5,4.36,3.4,7.62,1.9,3.28,5.32,5.21,9.07,3.48,3.63-1.67,4.65-5.46,3.48-9.07-.93-2.87-2.56-6.06-3.16-7.2"/></g></g></svg>