<?xml version="1.0" encoding="UTF-8"?><svg id="Laag_1" xmlns="http://www.w3.org/2000/svg" viewBox="0 0 64 64"><defs><style>.cls-1{fill:none;}</style></defs><rect class="cls-1" width="64" height="64"/><path d="m53.86,14.12c-.34-2.06-1.91-3.63-3.97-3.97-5.96-.99-15.9-.99-17.88-.99s-11.92,0-17.88.99c-2.06.34-3.63,1.91-3.97,3.97-.99,5.96-.99,15.9-.99,17.88s0,11.92.99,17.88c.34,2.06,1.91,3.63,3.97,3.97,5.96.99,15.9.99,17.88.99s11.92,0,17.88-.99c2.06-.34,3.63-1.91,3.97-3.97.99-5.96.99-15.9.99-17.88,0-5.96,0-11.92-.99-17.88Zm-18.86,33.88h-6.56l.56-14v-8h6v22Zm-2.98-26c-2.24,0-3.52-1.25-3.52-3.54,0-1.94,1.19-3.46,3.48-3.46s3.52,1.21,3.52,3.46c0,1.99-1.19,3.54-3.48,3.54Z"/></svg>