<?xml version="1.0" encoding="UTF-8"?><svg id="Laag_1" xmlns="http://www.w3.org/2000/svg" xmlns:xlink="http://www.w3.org/1999/xlink" viewBox="0 0 64 64"><defs><style>.cls-1{fill:none;}.cls-2{clip-path:url(#clippath);}.cls-3{clip-path:url(#clippath-1);}</style><clipPath id="clippath"><rect class="cls-1" width="64" height="64"/></clipPath><clipPath id="clippath-1"><rect class="cls-1" width="64" height="64"/></clipPath></defs><g class="cls-2"><g class="cls-3"><path d="M45.24,22.48c-1.88-1.45-3.93-.9-5.4,1-1.55,2-1.36,3.95,.47,5.37s3.89,.95,5.32-.9c1.63-2.11,1.39-4.09-.4-5.47m-15.96,6.38c-5.35,3.87-7.68,7.08-8.4,8.93-.71,1.86-.44,4.25,2.84,5.12,2.74,.72,7.21,1.82,7.21,1.82,0,0-5.53,.34-8.39,.55-3.01,.22-4.77,1.51-4.69,3.7l16.04,.02c2.73,0,4.03-2.02,4.11-4.03,.06-1.48-.59-2.82-2.16-3.71-2.47-1.4-4.6-2.32-4.6-2.32l4.61-4.36,4.93,12.25c.7,1.78,2.72,2.64,4.49,1.91,0,0-4.59-14.08-5.7-17.59-1.07-3.38-5.29-5.9-10.28-2.29m31.21-12.86H3.5c-.28,0-.5,.22-.5,.5v3c0,.28,.22,.5,.5,.5h2.5v29H14V20H50v29h8V20h2.5c.28,0,.5-.22,.5-.5v-3c0-.28-.22-.5-.5-.5"/></g></g></svg>