<?xml version="1.0" encoding="UTF-8"?><svg id="Laag_1" xmlns="http://www.w3.org/2000/svg" xmlns:xlink="http://www.w3.org/1999/xlink" viewBox="0 0 64 64"><defs><style>.cls-1{fill:none;}.cls-2{clip-path:url(#clippath);}.cls-3{clip-path:url(#clippath-1);}</style><clipPath id="clippath"><rect class="cls-1" width="64" height="64"/></clipPath><clipPath id="clippath-1"><rect class="cls-1" width="64" height="64"/></clipPath></defs><g class="cls-2"><g class="cls-3"><path d="M52.23,44.76c-2.77,.95-6.37,2.41-9.22,3.61,.07,.43,.08,.89,.01,1.38-.41,2.81-2.82,4.58-6.24,4.74-7.73,.36-12.53-1.56-13.53-1.96-.29-.12-.32-.26-.29-.39h.01c5.6,.95,9.12,1.11,13.46,.41,3.29-.53,4.49-2.11,4.46-3.41-.03-1.27-.93-2.04-2.95-2.11-6.89-.24-10.92-1.01-16.82-1.87-4.1-.6-8.06,.47-11.43,2.63-3.16,2.03-4.04,2.98-4.04,2.98l5.79,11.14,7.48-3.04c.85-.35,1.78-.45,2.69-.3l10.26,2.28c2.29,.38,4.64-.06,6.64-1.22l20.48-12.85s-1-4.02-6.76-2.04"/><path d="M22.2,7.88c2,.2,3.3-1.07,3.51-3.06,.23-2.26-.86-3.6-2.81-3.79-2.06-.2-3.31,1.12-3.52,3.17-.22,2.15,.82,3.48,2.82,3.68"/><path d="M32.06,28.66c-.02-.1-.03-.23-.04-.33-1.26,1.55-2.02,3.53-2.02,5.68,0,4.97,4.03,9,9,9,2.76,0,5.23-1.25,6.88-3.21-.04-.1-.09-.19-.13-.29-.37-.93-.78-2-1.19-3.1-.93,2.15-3.07,3.66-5.56,3.66-3.35,0-6.06-2.71-6.06-6.06,0-.86,.18-1.68,.5-2.42-.72-.77-1.21-1.76-1.38-2.93"/><path d="M38.12,31h7.01c.95,2.59,2,5.5,2.85,7.61,1.09,2.72,3.15,2.42,3.75,2.27-.73-3.2-1.53-6.73-2.46-10.02-1.1-3.78-1.46-3.78-3.6-4.27-1.97-.45-4.66-.59-4.66-.59v-6.5c0-3.42-3.24-3.91-4.92-3.2-.74,.31-1.33,1-1.61,2.49-.51,2.68-.39,7.06-.03,9.52,.38,2.59,2.97,2.69,3.68,2.69"/><path d="M38.46,14.83c1.92,.01,3.04-1.32,3.06-3.26,.01-2.21-1.14-3.4-3.01-3.41-1.97-.01-3.04,1.38-3.06,3.37-.01,2.1,1.09,3.29,3.01,3.3"/><path d="M20.12,31.91c-.48,.11-1.31,.23-2.29,.2-.1,.47-.2,.88-.33,1.39-.56,2.12-1.18,4.17-1.45,5.83-.3,1.79,.87,3.4,1.83,3.68,1.2-3.8,1.9-5.83,2.58-7.8,.24,1.97,.41,3.71,.51,4.37,.35,2.31,2.07,3.47,3.03,3.4l-.27-10.91c0-.39-.02-.78-.02-1.18,1.27-.32,2.22-.81,2.22-.81-.34-4.42-1.28-6.45-1.87-8.32,.23-2.28,.39-4.72,.41-6.65,.55,1.15,1.32,2.54,2.16,3.5,1.07,1.22,2.07,2.32,3.03,3.32,1.36,1.42,2.52,1.15,3.21,.74-.49-.81-4.57-6.1-4.86-6.61-2.21-3.71-2.66-6.28-5.08-6.77-1.05-.21-2.24-.27-3.13,.4-1.19,.91-1.72,2.55-1.62,4.77,.14,2.96,.81,3.75-.08,5.83-.57,1.33-.86,2.02-1.29,3.61-.4,1.5-.81,2.56-1.66,5.72,.74,.55,2.66,1.52,5.62,1.56,.09,.2-.03,.58-.67,.73"/></g></g></svg>