<?xml version="1.0" encoding="UTF-8"?><svg id="Laag_1" xmlns="http://www.w3.org/2000/svg" xmlns:xlink="http://www.w3.org/1999/xlink" viewBox="0 0 64 64"><defs><style>.cls-1{fill:none;}.cls-2{clip-path:url(#clippath);}.cls-3{clip-path:url(#clippath-1);}</style><clipPath id="clippath"><rect class="cls-1" width="64" height="64"/></clipPath><clipPath id="clippath-1"><rect class="cls-1" width="64" height="64"/></clipPath></defs><g class="cls-2"><g class="cls-3"><path d="M14,36c0,1.66,1.34,3,3,3,.35,0,.69-.07,1-.18v-5.63c-.31-.11-.65-.18-1-.18-1.66,0-3,1.34-3,3M1,24v16c0,2.21,1.79,4,4,4h13v-2H5c-1.1,0-2-.9-2-2V24c0-1.1,.9-2,2-2h13v-2H5c-2.21,0-4,1.79-4,4m13,4c0,1.66,1.34,3,3,3,.35,0,.69-.07,1-.18v-5.63c-.31-.11-.65-.18-1-.18-1.66,0-3,1.34-3,3m-5-3c-1.66,0-3,1.34-3,3s1.34,3,3,3,3-1.34,3-3-1.34-3-3-3m52-7H21c-.55,0-1,.45-1,1v26c0,.55,.45,1,1,1H61c.55,0,1-.45,1-1V19c0-.55-.45-1-1-1m-14,15.68c0,.18-.15,.32-.32,.32h-3.68v3.68c0,.18-.15,.32-.32,.32h-3.36c-.18,0-.32-.14-.32-.32v-3.68h-3.68c-.18,0-.32-.14-.32-.32v-3.36c0-.18,.15-.32,.32-.32h3.68v-3.68c0-.18,.15-.32,.32-.32h3.36c.18,0,.32,.15,.32,.32v3.68h3.68c.18,0,.32,.15,.32,.32v3.36Zm-38-.68c-1.66,0-3,1.34-3,3s1.34,3,3,3,3-1.34,3-3-1.34-3-3-3"/></g></g></svg>