<?xml version="1.0" encoding="UTF-8"?><svg id="Laag_1" xmlns="http://www.w3.org/2000/svg" xmlns:xlink="http://www.w3.org/1999/xlink" viewBox="0 0 64 64"><defs><style>.cls-1{fill:none;}.cls-2{clip-path:url(#clippath);}.cls-3{clip-path:url(#clippath-1);}</style><clipPath id="clippath"><rect class="cls-1" width="64" height="64"/></clipPath><clipPath id="clippath-1"><rect class="cls-1" width="64" height="64"/></clipPath></defs><g class="cls-2"><g class="cls-3"><path d="M23.14,37h3.01c-.05-.37-.08-.73-.1-1.07l11.92-.86c.02,.59-.03,1.24-.12,1.92h3.01c.66-6.3-2.55-9.33-5.94-11.49,3.4-2.16,6.62-5.19,5.94-11.51h-3.02c.09,.69,.14,1.34,.12,1.93l-11.91-.86c.02-.34,.05-.7,.1-1.07h-3.01c-.68,6.32,2.54,9.35,5.93,11.51-3.39,2.16-6.6,5.19-5.94,11.49m3-19.92l11.56,.83c-.15,.57-.36,1.08-.63,1.55l-10.37-.43c-.27-.58-.46-1.23-.57-1.95m2.06,4.01l7.3,.31c-.98,.88-2.18,1.62-3.49,2.38-1.46-.85-2.78-1.67-3.81-2.69m3.81,6.15c1.3,.76,2.5,1.49,3.47,2.37l-7.26,.31c1.02-1.01,2.33-1.83,3.79-2.67m-5.28,4.74l10.34-.43c.26,.47,.48,.98,.63,1.55l-11.55,.83c.11-.72,.31-1.37,.58-1.95"/><path d="M55,7H9c-1.1,0-2,.9-2,2V43.99c0,1.1,.9,2,2,2H25.5s-.53,1.94-1.5,5.01c-.58,1.84-2.38,1.99-2.87,2h-2.13c-.55,0-1,.45-1,1v2h28v-2c0-.55-.45-1-1-1h-2.13c-.49,0-2.29-.16-2.87-2-.39-1.23-.7-2.27-.94-3.08,0,0-4.4-.64-8.98-1.53-.32-.06-.28-.3-.24-.38h25.17c1.1,0,2-.9,2-2V9c0-1.1-.9-2-2-2m-3,32H12V12H52v27Z"/></g></g></svg>