<?xml version="1.0" encoding="UTF-8"?><svg id="Laag_1" xmlns="http://www.w3.org/2000/svg" xmlns:xlink="http://www.w3.org/1999/xlink" viewBox="0 0 64 64"><defs><style>.cls-1{fill:none;}.cls-2{clip-path:url(#clippath);}.cls-3{clip-path:url(#clippath-1);}</style><clipPath id="clippath"><rect class="cls-1" width="64" height="64"/></clipPath><clipPath id="clippath-1"><rect class="cls-1" width="64" height="64"/></clipPath></defs><g class="cls-2"><g class="cls-3"><path d="M14,17.44V6.02c.06-.02,.26-.07,.36,.25l.74,3.73H48c.55,0,1-.45,1-1V5c0-.55-.45-1-1-1H14c0-.55-.45-1-1-1H6c-.55,0-1,.45-1,1V22H14v-4.56ZM43,5h4l-2,4h-4l2-4Zm-8,0h4l-2,4h-4l2-4Zm-8,0h4l-2,4h-4l2-4Zm-8,0h4l-2,4h-4l2-4Zm-9.5,4c-1.11,0-2-.89-2-2s.89-2,2-2,2,.9,2,2-.9,2-2,2"/><path d="M44.09,12h-10.09l.5,6h-4l.5-6h-10.09L5,60H27l1-12h9l1,12h22L44.09,12Zm-15.17,25l1-12h5.17l1,12h-7.17Z"/></g></g></svg>