<?xml version="1.0" encoding="UTF-8"?><svg id="Laag_1" xmlns="http://www.w3.org/2000/svg" xmlns:xlink="http://www.w3.org/1999/xlink" viewBox="0 0 64 64"><defs><style>.cls-1{fill:none;}.cls-2{clip-path:url(#clippath);}.cls-3{clip-path:url(#clippath-1);}</style><clipPath id="clippath"><rect class="cls-1" width="64" height="64"/></clipPath><clipPath id="clippath-1"><rect class="cls-1" width="64" height="64"/></clipPath></defs><g class="cls-2"><g class="cls-3"><path d="M43.58,7.83c-7.68-1.11-15.41-1.11-23.09,0-1.98,.29-3.49,2.13-3.49,4V52.17c0,1.87,1.59,3.7,3.57,4,7.68,1.11,15.33,1.11,23.01,0,1.98-.29,3.42-2.13,3.42-4V11.83c0-1.87-1.44-3.7-3.42-4m-11.58,46.32c-1.46,0-2.65-1.19-2.65-2.65s1.19-2.65,2.65-2.65,2.65,1.19,2.65,2.65-1.19,2.65-2.65,2.65m11-8.15H21V14h22V46Z"/></g></g></svg>