<?xml version="1.0" encoding="UTF-8"?><svg id="Laag_1" xmlns="http://www.w3.org/2000/svg" xmlns:xlink="http://www.w3.org/1999/xlink" viewBox="0 0 64 64"><defs><style>.cls-1{fill:none;}.cls-2{clip-path:url(#clippath);}.cls-3{clip-path:url(#clippath-1);}</style><clipPath id="clippath"><rect class="cls-1" width="64" height="64"/></clipPath><clipPath id="clippath-1"><rect class="cls-1" width="64" height="64"/></clipPath></defs><g class="cls-2"><g class="cls-3"><path d="M36,23.49V6.5c0-.28-.22-.5-.5-.5H8.5c-.28,0-.5,.22-.5,.5V47h12v-6h4v6h6v-10h-3v-4h3v-2.08c0-.32,.06-.62,.14-.92h-3.14v-4h4v2.53l5-5.04Zm-19,13.51h-4v-4h4v4Zm0-7h-4v-4h4v4Zm0-7h-4v-4h4v4Zm0-7h-4v-4h4v4Zm7,21h-4v-4h4v4Zm0-7h-4v-4h4v4Zm0-7h-4v-4h4v4Zm0-7h-4v-4h4v4Zm3-4h4v4h-4v-4Zm0,7h4v4h-4v-4Z"/><path d="M58.63,19h-14.8c-.36,0-.71,.14-.97,.4l-10.47,10.55c-.26,.26-.4,.6-.4,.97v21.71c0,.75,.61,1.36,1.36,1.36h25.27c.75,0,1.37-.61,1.37-1.36V20.37c0-.75-.61-1.37-1.37-1.37m-2.63,31h-20v-18l-2.74-.72c-.23-.08-.15-.28-.15-.28h10.15c.38,0,.68-.31,.68-.68v-10.2s.17-.08,.24,.16l.8,2.73h11v27Z"/><path d="M42.58,36.81h-1.39v1.45h1.17c-.04,.32-.04,.68-.04,1.02v.39h-1.13v1.43h1.28c.55,2.79,2.39,4.07,5.01,4.07,1,0,1.49-.06,2.52-.3v-1.86c-.98,.21-1.49,.28-2.37,.28-1.24,0-2.26-.64-2.69-2.19h3.44v-1.43h-3.67c-.02-.19-.02-.39-.02-.62,0-.26,0-.53,.02-.79h3.67v-1.45h-3.43c.41-1.52,1.36-2.3,2.79-2.3,.75,0,1.24,.08,2.17,.24v-1.98c-.79-.17-1.38-.23-2.11-.23-2.62,0-4.54,1.43-5.22,4.25"/></g></g></svg>