<?xml version="1.0" encoding="UTF-8"?><svg id="Laag_1" xmlns="http://www.w3.org/2000/svg" xmlns:xlink="http://www.w3.org/1999/xlink" viewBox="0 0 64 64"><defs><style>.cls-1{fill:none;}.cls-2{clip-path:url(#clippath);}.cls-3{clip-path:url(#clippath-1);}</style><clipPath id="clippath"><rect class="cls-1" width="64" height="64"/></clipPath><clipPath id="clippath-1"><rect class="cls-1" width="64" height="64"/></clipPath></defs><g class="cls-2"><g class="cls-3"><path d="M13.81,43.97c-.09-1-.01-1.92,.2-2.75-1.91,.86-3.66,1.85-4.62,2.9-2.87,3.12-4.39,14.89-4.39,14.89h7.74s-.05-.07-.07-.12c-.19-.48-4.41-11.27,1.14-14.92"/><path d="M30.08,49.44v-.14l-.06,.04c-2.3-1.75-6.23-5.53-5.79-9.02,.24-1.91,.04-.55,.82-5.44-2.28-2.2-4.1-4.87-4.1-8.06-1.62-.5-2.04-2.54-2.04-3.82s.32-1.96,.77-2.17c.39-.19,.77-.05,1.01,.09,.14,.65,.25,1.14,.29,1.31,.21,.85,1.02,.77,1.02,.77v-6.74c2.07-.15,6.19-.75,10.75-3.11l5.25,3.53v6.32s.82,.08,1.02-.77c.04-.17,.15-.66,.29-1.31,.24-.14,.62-.27,1.01-.09,.45,.21,.77,.9,.77,2.17s-.42,3.31-2.04,3.82c0,3.7-2.53,6.5-5.34,8.89-.78,.66-2.25,1.11-3.72,1.1-1.06,0-2.12-.29-2.93-.63,.61,.93,1.66,2.07,3.59,2.58,3.15,.84,5.46-.91,5.46-.91,0,0,.28,1.91,.27,2.41,.03,.28,.01,.56-.01,.84l2.82-2.55c-.15-1.07-.35-2.28-.52-3.3,1.79-2.17,2.89-4.4,3.25-6.7,1.33-1.22,2.07-3.17,2.07-5.56,0-.75,0-2.7-1.23-4.04,.3-3.34,.51-8.5-.79-10.59-1.6-2.56-3.55-3.82-7.26-2.98-2.44-1.16-4.09-1.88-8.36-.84-2.97,.72-6.21,1.91-7.92,3.88-1.65,1.91-1.54,7.22-1.27,10.6-1.16,1.33-1.16,3.23-1.16,3.96,0,2.39,.74,4.33,2.06,5.55,.38,2.51,1.61,4.91,3.71,7.26-.11,.81-.23,1.75-.35,2.73-.5,.15-1.16,.32-1.99,.61-1.05,.38-2.92,.94-2.98,3.84,.98-.11,1.96,.05,2.89,.49,4.6,2.12,6.83,9.94,6.92,10.27,.42,1.5-1.92,2.53-3.41,2.99-1.18,.37-1.52-.18-1.8-.98-.27-.8-.16-1.32,.88-1.96,.35-.21,.81-.46,1.29-.65-.86-2.34-2.67-6.14-5.01-7.22-.83-.38-1.61-.37-2.49,.03-3.41,1.58-1.84,7.94-.98,10.66,.48-.2,.97-.35,1.36-.44,1.16-.26,1.6,.03,1.96,.78,.47,1.01,.34,1.49-.75,2.02h15.68v-6.06c-1.66-.3-2.92-1.75-2.92-3.5"/><path d="M60.57,47.79l-13.19-11.9c-.21-.2-.54-.2-.76,0l-13.19,11.9c-.23,.21-.36,.51-.36,.82v.83c0,.31,.25,.56,.56,.56h2.37v12h22v-12h2.37c.31,0,.56-.25,.56-.56v-.83c0-.31-.13-.61-.36-.82m-9.57,9.21h-8v-6h8v6Z"/></g></g></svg>