<?xml version="1.0" encoding="UTF-8"?><svg id="Laag_1" xmlns="http://www.w3.org/2000/svg" xmlns:xlink="http://www.w3.org/1999/xlink" viewBox="0 0 24 24"><defs><style>.cls-1{fill:none;}.cls-2{clip-path:url(#clippath);}.cls-3{clip-path:url(#clippath-1);}</style><clipPath id="clippath"><rect class="cls-1" width="24" height="24"/></clipPath><clipPath id="clippath-1"><rect class="cls-1" width="24" height="24"/></clipPath></defs><g class="cls-2"><g class="cls-3"><path d="m20.49,5.11c-.14-.84-.79-1.47-1.63-1.61-2.45-.4-6.54-.4-7.35-.4s-4.9,0-7.35.4c-.85.14-1.49.77-1.63,1.61-.29,1.71-.41,3.58-.41,5.39,0,1.95.15,3.83.41,5.39.14.84.79,1.47,1.63,1.61,2,.33,5.08.39,6.59.4l4.44,3.02c.25.16.58.09.74-.17.07-.12.1-.25.07-.37l-.03-.1h0s-.7-2.46-.7-2.46c1.24-.06,2.56-.15,3.59-.32.85-.14,1.49-.77,1.63-1.61.29-1.71.41-3.58.41-5.39,0-1.95-.15-3.83-.41-5.39m-13.99,7.19c-.99,0-1.8-.81-1.8-1.8s.81-1.8,1.8-1.8,1.8.81,1.8,1.8-.81,1.8-1.8,1.8m5,0c-.99,0-1.8-.81-1.8-1.8s.81-1.8,1.8-1.8,1.8.81,1.8,1.8-.81,1.8-1.8,1.8m5,0c-.99,0-1.8-.81-1.8-1.8s.81-1.8,1.8-1.8,1.8.81,1.8,1.8-.81,1.8-1.8,1.8"/></g></g></svg>