<?xml version="1.0" encoding="UTF-8"?><svg id="Laag_1" xmlns="http://www.w3.org/2000/svg" xmlns:xlink="http://www.w3.org/1999/xlink" viewBox="0 0 64 64"><defs><style>.cls-1{fill:none;}.cls-2{clip-path:url(#clippath);}.cls-3{clip-path:url(#clippath-1);}</style><clipPath id="clippath"><rect class="cls-1" width="64" height="64"/></clipPath><clipPath id="clippath-1"><rect class="cls-1" width="64" height="64"/></clipPath></defs><g class="cls-2"><g class="cls-3"><path d="M58.11,32.32l4.45-6.12c.17-.24-.06-.55-.33-.46l-7.19,2.33-4.44-6.12c-.17-.24-.54-.11-.54,.18v7.56l-7.2,2.33c-.28,.09-.28,.48,0,.57l7.19,2.34v7.56c0,.29,.37,.41,.54,.18l4.45-6.12,7.19,2.34c.28,.09,.51-.23,.34-.46l-4.44-6.12Zm-14.52,11.85c-3.33,3.97-8.32,6.5-13.91,6.5-10.72,0-19.27-9.28-18.06-20.25,.93-8.45,7.84-15.22,16.3-16.03,6.3-.6,12,2.04,15.68,6.42,.08,.1,.22,0,.16-.12-4.14-6.92-11.81-11.49-20.53-11.2C11.49,9.9,1.77,19.32,1.05,31.03c-.83,13.37,9.77,24.47,22.95,24.47,8.39,0,15.73-4.5,19.74-11.21,.06-.11-.08-.21-.16-.12"/></g></g></svg>