<?xml version="1.0" encoding="UTF-8"?><svg id="Laag_1" xmlns="http://www.w3.org/2000/svg" xmlns:xlink="http://www.w3.org/1999/xlink" viewBox="0 0 64 64"><defs><style>.cls-1{fill:none;}.cls-2{clip-path:url(#clippath);}.cls-3{clip-path:url(#clippath-1);}</style><clipPath id="clippath"><rect class="cls-1" width="64" height="64"/></clipPath><clipPath id="clippath-1"><rect class="cls-1" width="64" height="64"/></clipPath></defs><g class="cls-2"><g class="cls-3"><path d="M32.08,20.86h0c1.3-.06,2.33-.56,3.51-1.51,.15,0,.12,.24,.02,.47-.23,.55-1.36,2.27-3.99,2.58-.43,1.15-.89,2.04-1.44,2.82l15.93,15.93c1.15-3.49,2.18-7.15,1.29-10.66-1.13-4.47-1.67-8.14-1.4-9.41,.21-.98,2.37-2.06,3.8-2.87,1.07-.6,1.6-1.6,1.47-3.07-.09-1.02-.35-1.82-.57-2.34-.18-.44-.62-.72-1.1-.72h-4.75s-1.31-1.74-2.98-2.61c-2.42-1.26-5.83,.88-5.83,.88,0,0-1-.27-3.07,.8-2.07,1.07-3.02,6.39-3.09,8.19-.05,1.26,1.14,1.66,2.2,1.53"/><path d="M44.45,46.57l11.77,11.77,2.12-2.12-12.94-12.94L28.87,26.75,7.73,5.61l-2.12,2.12L26.66,28.78c-1.05,.92-2.28,2.01-3.77,3.51-5.47,5.47-5.27,16.01-5.27,16.01,0,0-1.74,1.94-4.94,1.27-2.96-.62-2.35-3.48-1.53-5.45,.29-.7-.47-1.38-1.12-1-3.94,2.23-4.09,6.12-2.49,8.46,1.33,1.94,4.4,2.94,7.74,2.94h18.81c-.37-2.26-2.27-2.41-2.27-2.41,0,0,2.39-4.42,.77-6.61-1.27-1.71-5-.56-6.23-.04-.15-.06-.07-.31,.16-.52,1.9-1.8,5.3-3.02,7.46-1,2.61,2.45,.33,7.42,.33,7.42,1.51,.73,2.01,2.13,2.17,3.16h10.82c0,.07,.87-2-.4-3.27-1.2-1.2-3.41-.37-2.55-4.34,.02-.11,.06-.22,.09-.33"/></g></g></svg>