<?xml version="1.0" encoding="UTF-8"?><svg id="Laag_1" xmlns="http://www.w3.org/2000/svg" xmlns:xlink="http://www.w3.org/1999/xlink" viewBox="0 0 64 64"><defs><style>.cls-1{fill:none;}.cls-2{clip-path:url(#clippath);}.cls-3{clip-path:url(#clippath-1);}</style><clipPath id="clippath"><rect class="cls-1" width="64" height="64"/></clipPath><clipPath id="clippath-1"><rect class="cls-1" width="64" height="64"/></clipPath></defs><g class="cls-2"><polygon points="35.63 15 31.74 3 28.34 3 29.08 15 35.63 15"/><polygon points="26.63 3 23.44 3 19.55 15 25.94 15 26.63 3"/><polygon points="7.87 51 23.87 51 25.31 26 15.98 26 7.87 51"/><g class="cls-3"><path d="M11,30v-5.89l-3.82-.76c-.3-.1-.26-.3-.24-.35H48.06c.02,.05,.06,.25-.24,.35l-3.82,.76v5.89h6v-7h3v-6H2v6h3v7h6Z"/><polygon points="42.2 35.25 39.2 26 29.76 26 31.3 51 33.05 51 42.2 35.25"/><path d="M61.77,58.43l-13.35-22.62c-.3-.5-.84-.81-1.42-.81h0c-.59,0-1.13,.32-1.42,.83l-13.12,22.62c-.3,.51-.3,1.14,0,1.66,.3,.51,.84,.83,1.43,.83h26.48c.59,0,1.14-.32,1.44-.84,.29-.52,.29-1.15-.01-1.66m-25.03-.81l10.26-17.69,10.44,17.69h-20.7Z"/><path d="M46.98,53.09c-.84,0-1.27,.6-1.27,1.37,0,.87,.47,1.34,1.29,1.34s1.27-.59,1.27-1.34c0-.89-.47-1.37-1.29-1.37"/><polygon points="46 51.93 48 51.87 48 49.91 48.23 44.96 46 45.15 46 51.93"/></g></g></svg>