<?xml version="1.0" encoding="UTF-8"?><svg id="Laag_1" xmlns="http://www.w3.org/2000/svg" xmlns:xlink="http://www.w3.org/1999/xlink" viewBox="0 0 64 64"><defs><style>.cls-1{fill:none;}.cls-2{clip-path:url(#clippath);}.cls-3{clip-path:url(#clippath-1);}</style><clipPath id="clippath"><rect class="cls-1" width="64" height="64"/></clipPath><clipPath id="clippath-1"><rect class="cls-1" width="64" height="64"/></clipPath></defs><g class="cls-2"><g class="cls-3"><path d="M57.52,20.18c-.84-.82-1.29-1.97-2.05-3.67-1.12-2.48-3.8-4.82-6.22-5.28-2.56-.49-3.64-1.07-5.52-1.42-1.88-.35-4.7-2.37-7.86-2.58-4.23-.28-5.97,.9-8.45,1.64-2.52,.75-4.92-.29-8.2,.94-2.96,1.1-4.11,3.05-5.98,5.27-1.82,2.17-2.18,1.86-4.33,3.05-2.34,1.3-5.31,4.85-4.85,9.74,.19,2.03-1.29,4.81-.81,7.51,.53,3.01,4.27,5.92,7.06,6.38,2.93,.48,7.02-.49,7.02-.49,.91,3.09,3.51,4.26,6.17,4.58,2.19,0,4.38-.16,7.5-1.57,3.59-1.61,3.82-2.58,7.06-3.21,2.07-.38,4.64-.53,6.53-1.2,1.68-.57,2.63-1.24,3.63-2.28,.08-.02,.19,0,.21,.24,.04,.52-.57,3.59-4.56,4.85-2.98,.89-5.53,.9-7.14,1.86-1.12,.66-2.29,1.39-3.49,2.03,6.58,3.89,8.25,10.42,8.25,10.42h6.69c-.59-2.93-1.76-6.1-1.76-6.1,0,0,3.99-1.06,7.16-4.81,3.17-3.76,3.29-9.51,3.29-9.51,0,0,4-2.67,4.12-7.24,.12-4.58-.78-6.53-3.47-9.16m-40.43-3.49c3.28-3,9.2-4.38,11.78-.82,1.79,2.48,1.04,5.8,.04,6.7-.23,.21-.43,.1-.44,.09-.05-1.11-.12-2.41-.6-3.68-1.46-3.94-6.65-2.23-9.14-.18-1.84,1.49-3.58,3.95-4.42,5.82l-.04,.09c-.09,.03-.21,.01-.34-.17-1.36-2,1.39-6.22,3.17-7.85m-1.16,17.15c-4.03,2.32-8.12-.04-7.48-3.09,.08-.37,.26-.36,.3-.35,.82,1.46,4.09,2.63,8.14-.87,1.23-1.08,2.56-2.72,3.59-3.93,.06-.02,.23-.06,.3,.2,.44,1.78-1.38,6.09-4.85,8.05m10.22,.66c-.58,1.18-.36,3.25-.08,4.69-.42,.91-4-2.08-3.17-5.39,.62-2.46,2.77-3.86,4.65-4.75,3.1-1.48,5.65-1.75,8.08-4.73h0s.34-.13,.43,.29c.4,1.81-1.76,4.03-3.6,5.17-2.29,1.41-5.49,3.05-6.32,4.73m28.87-5.26c-.1,.4-.38,.65-.4,.64-.98-2.57-3.51-4.15-7.2-3.63-.59,2.13-1.73,3.66-3.11,5.08-2.83,2.87-6.27,4.54-10.16,5.65-.65-.34,.39-1.72,1.95-2.6,2.25-1.28,4.48-3.12,6.21-5.05,2.52-2.73,3.68-6.28,2.19-9.31-1.42-2.85-4.87-4.07-8.01-4.53-.04-.09-.09-.29,.18-.45,2.46-1.54,8.14-.07,10.25,3.75,.69,1.2,1.09,2.75,1.01,4.52,1.73-.16,3.99,.42,5.68,1.82,1.63,1.57,1.54,3.6,1.4,4.14"/></g></g></svg>