<?xml version="1.0" encoding="UTF-8"?><svg id="Laag_1" xmlns="http://www.w3.org/2000/svg" xmlns:xlink="http://www.w3.org/1999/xlink" viewBox="0 0 64 64"><defs><style>.cls-1{fill:none;}.cls-2{clip-path:url(#clippath);}.cls-3{clip-path:url(#clippath-1);}</style><clipPath id="clippath"><rect class="cls-1" width="64" height="64"/></clipPath><clipPath id="clippath-1"><rect class="cls-1" width="64" height="64"/></clipPath></defs><g class="cls-2"><g class="cls-3"><path d="M47,41h4v2h-4v-2Zm15,8c0,1.13,0,6.78-.57,10.17-.19,1.17-1.09,2.07-2.26,2.26-3.39,.56-9.04,.56-10.17,.56s-6.78,0-10.17-.56c-1.17-.2-2.07-1.09-2.26-2.26-.56-3.39-.56-9.04-.56-10.17s0-6.78,.56-10.17c.19-1.17,1.09-2.07,2.26-2.26,3.39-.57,9.04-.57,10.17-.57s6.78,0,10.17,.57c1.17,.2,2.07,1.09,2.26,2.26,.57,3.39,.57,6.78,.57,10.17m-19-6h-2.93c-.55,0-1.03,.45-1.07,1-.27,4-.27,8.01,0,12,.04,.55,.52,1,1.07,1h2.93v-14Zm10-2.5c0-.83-.67-1.5-1.5-1.5h-5c-.83,0-1.5,.67-1.5,1.5v16.5h8v-16.5Zm6,3.5c-.04-.55-.52-1-1.07-1h-2.92v14h2.92c.55,0,1.03-.45,1.07-1,.27-4,.27-8.01,0-12M15.4,60H1s1.51-11.77,4.39-14.89c.78-.85,2.1-1.67,3.59-2.41,.42-.89,.64-1.65,1.58-1.95l7-2.25c.08-.6,.15-1.17,.22-1.69-2.1-2.35-3.33-4.75-3.71-7.26-1.32-1.22-2.06-3.16-2.06-5.55,0-.73,0-2.62,1.16-3.96-.06-.74-.17-3.34-.21-4.77-1.79-1.38-2.95-2.89-2.95-4.28,0-5.33,7.16-8,16-8s16,2.67,16,8c0,1.48-1.18,3.1-3.03,4.54,.05,1.37-.06,2.87-.2,4.42,1.23,1.33,1.23,3.29,1.23,4.04,0,2.39-.74,4.34-2.07,5.56-.31,1.99-1.19,3.95-2.59,5.85h0c-.71,.98-2.79,3.24-3.64,3.71-.8,.45-2.68,1.27-5.04,.65-1.93-.51-2.97-1.66-3.59-2.59,.8,.35,1.87,.64,2.93,.64,1.47,0,2.94-.44,3.72-1.1,2.81-2.39,5.34-5.18,5.34-8.89,1.62-.5,2.04-2.54,2.04-3.82s-.32-1.96-.77-2.17c-.39-.18-.77-.05-1.01,.09-.14,.65-.25,1.14-.29,1.31-.21,.85-1.02,.77-1.02,.77v-3.6c-1.82,.97-4.72,1.61-8,1.61s-6.18-.63-8-1.61v3.6s-.82,.08-1.02-.77c-.04-.17-.15-.66-.29-1.31-.24-.14-.62-.27-1.01-.09-.45,.21-.77,.9-.77,2.17s.42,3.31,2.04,3.82c0,3.19,1.83,5.86,4.1,8.06-.25,1.22-.33,1.79-.58,3.67-.28,2.22,2.45,4.45,5.53,4.45,.76,0,1.51-.04,2.22-.14l-12.81,16.14Zm.6-45.15c0,.35,.12,.68,.33,1,1.11-1.72,5.01-2.83,9.67-2.83s8.56,1.11,9.67,2.83c.21-.32,.33-.65,.33-1,0-2.21-4.48-4-10-4s-10,1.79-10,4m17,34.15c0-.55,0-1.15,.01-1.76l-10.13,12.76h10.8c-.59-2.6-.69-8.31-.69-11"/></g></g></svg>