<?xml version="1.0" encoding="UTF-8"?><svg id="Laag_1" xmlns="http://www.w3.org/2000/svg" xmlns:xlink="http://www.w3.org/1999/xlink" viewBox="0 0 64 64"><defs><style>.cls-1{fill:none;}.cls-2{clip-path:url(#clippath);}.cls-3{clip-path:url(#clippath-1);}</style><clipPath id="clippath"><rect class="cls-1" width="64" height="64"/></clipPath><clipPath id="clippath-1"><rect class="cls-1" width="64" height="64"/></clipPath></defs><g class="cls-2"><g class="cls-3"><path d="M15.25,48c-3.42,0-6.21-2.79-6.21-6.21,0-2.24,1.21-4.31,3.15-5.41l15.58-8.83c2.61-1.47,4.22-4.25,4.22-7.24,0-4.58-3.73-8.32-8.32-8.32h-7.99c-.82-2.33-3.04-4-5.65-4-3.31,0-6,2.69-6,6s2.69,6,6,6c2.61,0,4.83-1.67,5.65-4h7.99c2.38,0,4.32,1.94,4.32,4.32,0,1.55-.84,2.99-2.19,3.76l-15.58,8.83c-3.2,1.81-5.19,5.21-5.19,8.89,0,5.63,4.58,10.21,10.21,10.21h27.47c-.56-1.44-1.18-2.77-1.83-4H15.25Zm-5.25-31c-1.66,0-3-1.34-3-3s1.34-3,3-3,3,1.34,3,3-1.34,3-3,3"/><path d="M48,20c-6.84,0-12,5.16-12,12.01,0,3.98,1.92,6.96,4.15,10.41,2.16,3.35,4.61,7.39,6.14,13.26,.2,.78,.91,1.32,1.71,1.32s1.51-.54,1.71-1.32c1.53-5.87,3.98-9.91,6.14-13.26,2.23-3.45,4.15-6.42,4.15-10.41,0-6.85-5.16-12.01-12-12.01m0,19.2c-3.98,0-7.2-3.22-7.2-7.2s3.23-7.2,7.2-7.2,7.2,3.23,7.2,7.2-3.23,7.2-7.2,7.2"/><path d="M48,28c-2.21,0-4,1.79-4,4s1.79,4,4,4,4-1.79,4-4-1.79-4-4-4"/></g></g></svg>