<?xml version="1.0" encoding="UTF-8"?><svg id="Laag_1" xmlns="http://www.w3.org/2000/svg" xmlns:xlink="http://www.w3.org/1999/xlink" viewBox="0 0 64 64"><defs><style>.cls-1{fill:none;}.cls-2{clip-path:url(#clippath);}.cls-3{clip-path:url(#clippath-1);}</style><clipPath id="clippath"><rect class="cls-1" width="64" height="64"/></clipPath><clipPath id="clippath-1"><rect class="cls-1" width="64" height="64"/></clipPath></defs><g class="cls-2"><g class="cls-3"><path d="M12.06,15.83h5.63L30.4,5.18c.93-.77,2.21-.74,3.18,0l12.7,10.65h5.63c.32,0,.51-.36,.33-.63L43.61,2.67c-.3-.42-.78-.67-1.3-.67H21.67c-.52,0-1,.25-1.3,.67L11.74,15.2c-.19,.26,0,.63,.33,.63M31.99,7.32l-13.11,10.9h-4.7v22.78H49.8V18.22h-4.7L31.99,7.32Zm-5.99,28.68h-6v-4h6v4Zm0-6h-6v-7h6v7Zm9,6h-6v-4h6v4Zm0-6h-6v-7h6v7Zm-3.01-10.97c-1.93,0-3.5-1.57-3.5-3.5s1.57-3.5,3.5-3.5,3.5,1.57,3.5,3.5-1.57,3.5-3.5,3.5m12.01,16.97h-6v-4h6v4Zm0-6h-6v-7h6v7Zm8.23,14.76c-2.77,.95-6.37,2.41-9.22,3.61,.07,.43,.08,.89,.01,1.38-.41,2.81-2.82,4.58-6.24,4.74-7.73,.36-12.53-1.56-13.53-1.96-.29-.12-.32-.26-.29-.39h.01c5.6,.95,9.12,1.11,13.46,.41,3.29-.53,4.49-2.11,4.46-3.4-.03-1.27-.93-2.04-2.95-2.11-6.89-.24-10.92-1.01-16.82-1.87-4.1-.6-8.06,.47-11.43,2.63-3.16,2.03-4.04,2.98-4.04,2.98l5.79,11.14,7.48-3.04c.85-.35,1.78-.45,2.69-.3l10.26,2.28c2.29,.38,4.64-.06,6.64-1.22l20.48-12.85s-1-4.02-6.76-2.04"/></g></g></svg>