<?xml version="1.0" encoding="UTF-8"?><svg id="Laag_1" xmlns="http://www.w3.org/2000/svg" xmlns:xlink="http://www.w3.org/1999/xlink" viewBox="0 0 64 64"><defs><style>.cls-1{fill:none;}.cls-2{clip-path:url(#clippath);}.cls-3{clip-path:url(#clippath-1);}</style><clipPath id="clippath"><rect class="cls-1" width="64" height="64"/></clipPath><clipPath id="clippath-1"><rect class="cls-1" width="64" height="64"/></clipPath></defs><g class="cls-2"><g class="cls-3"><path d="M57.01,13.62c1.78-1.78,.74-3.89-1.03-5.66-1.78-1.78-3.88-2.82-5.66-1.03l-16.8,16.8,6.69,6.69L57.01,13.62Z"/><path d="M14.55,46.41c-.82-.21-1.71-.11-2.46,.33-.4,.23-.71,.6-.95,1l-3.05,5.22,2.87,2.9,5.22-3.05c.39-.23,.75-.53,.99-.92,.5-.83,.58-1.83,.28-2.72l10.96-10.92-2.83-2.83-11.03,11Z"/><path d="M40.59,43.06h-.01c-.12-.05-.18-.22-.08-.49,.2-.52,1.11-2.65,3.6-5.14L26.62,19.94c-2.49,2.51-4.63,3.42-5.15,3.62-.28,.1-.44,.04-.51-.08,5.56-5.03,6.95-10.31,1.95-15.3-2.64-2.64-5.66-3.63-8.77-2.76-.51,.14-.7,.77-.36,1.17,1.1,1.32,2.17,2.61,2.67,3.3,.74,1.02,2.1,2.92,.84,4.19l-3.73,3.72c-1.26,1.26-3.03-.19-4.05-.93-.66-.48-1.83-1.53-3.03-2.66-.4-.38-1.08-.19-1.21,.35-.68,2.97,.34,5.85,2.87,8.38,3.05,3.06,6.64,3.9,10.26,2.2l20.51,20.51c-1.71,3.62-.86,7.21,2.2,10.26,2.52,2.53,5.41,3.55,8.38,2.87,.54-.12,.73-.8,.35-1.21-1.12-1.2-2.18-2.37-2.66-3.03-.74-1.02-2.2-2.78-.93-4.05l3.72-3.73c1.26-1.26,3.16,.09,4.19,.84,.69,.5,1.99,1.56,3.3,2.67,.4,.34,1.03,.15,1.17-.36,.87-3.1-.12-6.13-2.76-8.77-5.21-5.21-10.4-3.5-15.3,1.92"/></g></g></svg>