<?xml version="1.0" encoding="UTF-8"?><svg id="Laag_1" xmlns="http://www.w3.org/2000/svg" xmlns:xlink="http://www.w3.org/1999/xlink" viewBox="0 0 64 64"><defs><style>.cls-1{fill:none;}.cls-2{clip-path:url(#clippath);}.cls-3{clip-path:url(#clippath-1);}</style><clipPath id="clippath"><rect class="cls-1" width="64" height="64"/></clipPath><clipPath id="clippath-1"><rect class="cls-1" width="64" height="64"/></clipPath></defs><g class="cls-2"><g class="cls-3"><path d="M45.85,39.56c.16-.36,.04-.98-.56-1.09-.27-.05-.84,0-1.28,.06-.34-1.24-.94-2.38-1.29-2.74-.47-.49-3.09-.79-5.72-.78-2.61,0-5.23,.3-5.71,.78-.36,.36-.95,1.5-1.29,2.74-.44-.06-1.01-.11-1.28-.06-.6,.12-.7,.74-.55,1.09,.08,.17,.35,.52,.77,.81-.69,.93-.95,1.56-.95,3.05v4.09s.06,1.2,.22,1.99c.06,.29,.39,.5,.69,.5h2.3c.31,0,.58-.32,.64-.61,.09-.44,.19-1.39,.19-1.39h9.93s.08,.95,.17,1.39c.06,.29,.33,.61,.64,.61h2.3c.31,0,.63-.21,.69-.5,.17-.8,.22-1.99,.22-1.99v-4.09c0-1.5-.26-2.13-.95-3.05,.42-.29,.72-.64,.8-.81m-12.95,5.52l-2.09-.17c-.57-.05-.92-.5-1.02-.99l-.09-.6c-.05-.37,.33-.69,.7-.58l1.69,.47c.37,.14,.65,.43,.77,.79l.23,.86c.03,.11-.07,.23-.2,.22m-1.01-4.33c.2-1,.55-2.26,1.12-3.65,.56-.07,1.8-.17,3.98-.17s3.41,.1,3.98,.17c.59,1.53,.92,2.65,1.12,3.65-1.26,.2-3.25,.33-5.1,.33s-3.85-.13-5.1-.33m12.31,3.16c-.1,.5-.45,.95-1.02,.99l-2.09,.17c-.12,.01-.23-.1-.2-.22l.23-.86c.12-.36,.4-.65,.77-.79l1.69-.47c.38-.1,.76,.21,.7,.58l-.09,.6Z"/><path d="M62,13H2c-.55,0-1,.45-1,1v8c0,.55,.45,1,1,1h6v4.86l3.71,.74c.35,.11,.3,.34,.27,.4H3c-1.1,0-2,.9-2,2v19H19V31c0-1.1-.9-2-2-2h-3v-6H50v27h6V24.14l-3.71-.74c-.35-.11-.29-.34-.27-.4h9.98c.55,0,1-.45,1-1V14c0-.55-.45-1-1-1"/></g></g></svg>