<?xml version="1.0" encoding="UTF-8"?><svg id="Laag_1" xmlns="http://www.w3.org/2000/svg" xmlns:xlink="http://www.w3.org/1999/xlink" viewBox="0 0 64 64"><defs><style>.cls-1{fill:none;}.cls-2{clip-path:url(#clippath);}.cls-3{clip-path:url(#clippath-1);}</style><clipPath id="clippath"><rect class="cls-1" width="64" height="64"/></clipPath><clipPath id="clippath-1"><rect class="cls-1" width="64" height="64"/></clipPath></defs><g class="cls-2"><g class="cls-3"><path d="M13,51c5.03,0,9.31-3.09,11.1-7.48l2.98,.4c.9,.12,1.26,.07,1.43,.05,1.97-.25,3.5-1.93,3.5-3.97,0-.9-.31-1.72-.81-2.39l11.1-12.96c.28,1.12,.65,2.45,1.07,3.76,2.41,7.4,5.39,10.91,5.79,11.38,.41,.49,1.16,.17,1.07-.36-.11-.61-1.19-3.41-2.39-8.44,.38-.06,.77-.1,1.16-.1,4.47,0,8.1,3.63,8.1,8.1s-3.63,8.1-8.1,8.1-8.1-3.63-8.1-8.1c0-2.16,.85-4.12,2.23-5.57-.5-1.16-1.01-2.46-1.49-3.89-2.82,2.2-4.64,5.61-4.64,9.46,0,6.63,5.37,12,12,12s12-5.37,12-12-5.37-12-12-12c-.7,0-1.38,.08-2.05,.2-.55-1.8-2.23-10.48-3.27-15.58-.21-1.04-1.2-1.75-2.26-1.59l-5.72,.87c-.75,.11-1.32,.76-1.32,1.54,0,.86,.7,1.55,1.55,1.55,.12,0,4.32,0,4.15,0l1.15,5.76-13.92,16.24h-.88l-3.78-13h-2.19c-.3,0-.29-.26-.29-.26,0,0,5.65-2.37,6.7-2.78,1.03-.4,.78-1.97-.34-1.97h-9.81c-.79,0-1.53,.36-1.92,.97-1.39,2.18,3.09,3.8,3.67,4l.64,2.23-8.45,11.86c-.49,.68-.67,1.32-.67,1.93,0,1.37,.93,2.52,2.19,2.88,.4,.11,.68,.14,.91,.17l6.95,.93c-1.39,2.46-4.02,4.12-7.04,4.12-4.47,0-8.1-3.63-8.1-8.1s3.41-7.87,7.7-8.08l2.64-3.7c-.73-.14-1.47-.22-2.24-.22-6.63,0-12,5.37-12,12s5.37,12,12,12m3.34-15l4.2-5.9,1.72,5.9h-5.92Z"/><path d="M61.01,11.14c-.1-.53-.61-.87-1.14-.77l-12.82,2.49c-.53,.1-.87,.61-.77,1.14l2.11,10.86c.1,.53,.61,.87,1.14,.77l12.82-2.49c.53-.1,.87-.61,.77-1.14l-2.11-10.86Zm-5.05,5.09l-3.09,.6c-.59,.12-.99-.29-1.1-.77-.11-.5,.09-1.07,.71-1.2l3.09-.6c.62-.12,1.02,.33,1.11,.83,.08,.49-.13,1.02-.73,1.13"/></g></g></svg>