<?xml version="1.0" encoding="UTF-8"?><svg id="Laag_1" xmlns="http://www.w3.org/2000/svg" xmlns:xlink="http://www.w3.org/1999/xlink" viewBox="0 0 64 64"><defs><style>.cls-1{fill:none;}.cls-2{clip-path:url(#clippath);}.cls-3{clip-path:url(#clippath-1);}</style><clipPath id="clippath"><rect class="cls-1" width="64" height="64"/></clipPath><clipPath id="clippath-1"><rect class="cls-1" width="64" height="64"/></clipPath></defs><g class="cls-2"><g class="cls-3"><path d="M39,21H22c-1.66,0-3,1.34-3,3h20v-3Z"/><path d="M44.42,20c-1.58,0-2.7,.48-3.42,1.24v2.76h8c0-2.31-1.38-4-4.58-4"/><path d="M52.03,44.85c-2.77,.95-6.37,2.41-9.22,3.61,.07,.43,.08,.89,.01,1.38-.41,2.81-2.82,4.58-6.24,4.74-7.73,.36-12.53-1.56-13.53-1.96-.29-.12-.32-.26-.29-.39h.01c5.6,.95,9.12,1.11,13.46,.41,3.29-.53,4.49-2.11,4.46-3.41-.03-1.27-.93-2.04-2.95-2.11-6.89-.24-10.92-1.01-16.82-1.87-4.1-.6-8.06,.47-11.43,2.63-3.16,2.03-4.04,2.98-4.04,2.98l5.79,11.14,7.48-3.04c.85-.35,1.78-.45,2.69-.3l10.26,2.28c2.29,.38,4.64-.06,6.64-1.22l20.48-12.85s-1.01-4.02-6.76-2.04"/><path d="M14,34h2v8h3.99v-8h28.01v8h3.99v-8h2c.55,0,1-.45,1-1V15.51c0-1.1-.89-1.5-1.99-1.5s-2,.4-2,1.5v10.5H16.99v-6.5c0-1.1-.89-1.5-1.99-1.5s-2,.4-2,1.5v13.49c0,.55,.45,1,1,1"/></g></g></svg>