<?xml version="1.0" encoding="UTF-8"?><svg id="Laag_1" xmlns="http://www.w3.org/2000/svg" xmlns:xlink="http://www.w3.org/1999/xlink" viewBox="0 0 64 64"><defs><style>.cls-1{fill:none;}.cls-2{clip-path:url(#clippath);}.cls-3{clip-path:url(#clippath-1);}</style><clipPath id="clippath"><rect class="cls-1" width="64" height="64"/></clipPath><clipPath id="clippath-1"><rect class="cls-1" width="64" height="64"/></clipPath></defs><g class="cls-2"><g class="cls-3"><path d="M47,48c-.23-2.52-.16-5.7,.29-10.1,.72-6.91,1.95-15.25,2.88-19.9,.72-3.61,.58-7.51-1.73-10.33-1.39-1.7-3.41-2.67-5.52-2.67H13.03c-3.77,.01-6.92,3.17-7.23,6.97-.42,5.17,3.69,8.45,8.1,9.15,.31-1.7,.58-3.07,.75-3.93-1.9-.28-5.12-1.61-4.86-4.9,.15-1.84,1.71-3.28,3.55-3.28,.93,0,1.79,.43,2.43,1.21,1.2,1.46,1.52,3.95,.91,7.01-1.37,6.84-3.89,23.16-3.52,29.89,.15,2.79,1.24,11.89,8.87,11.89h26c7.13,0,10.61-8,11.81-11h-12.84Zm-24.97,7c-3.86,0-4.71-5.08-4.88-8.11-.33-6.08,2.03-21.8,3.45-28.89,.86-4.27,.16-7-.85-9h23.16c1.78,0,2.94,1.47,3.38,3.2,.39,1.55,.27,3.45-.05,5.02-.91,4.54-2.1,13.25-2.84,20.56-.51,5.02-.46,8.56-.29,10.22h-13.71c-1.39,3-3.51,7-7.37,7m26,0H29.85c.72-1,1.4-2.01,2.02-3.01h21.25c-1.28,2-2.96,3.01-5.09,3.01"/><path d="M27.76,22h13.9c.19-1.09,.36-2.09,.53-3h-13.86c-.18,1-.37,2-.57,3"/><path d="M26.57,29h13.99c.15-1.02,.29-2.02,.45-3h-13.95c-.17,1-.33,2-.49,3"/><path d="M25.6,36h14.06c.11-.99,.23-1.99,.36-3h-14.04c-.14,1-.27,2-.38,3"/><path d="M24.75,21.93c.82,0,1.49-.67,1.49-1.49s-.67-1.49-1.49-1.49-1.49,.67-1.49,1.49,.67,1.49,1.49,1.49"/><path d="M23.64,25.85c-.83,0-1.49,.67-1.49,1.49s.67,1.49,1.49,1.49,1.49-.67,1.49-1.49-.67-1.49-1.49-1.49"/><path d="M22.61,32.94c-.83,0-1.49,.67-1.49,1.49s.67,1.49,1.49,1.49,1.49-.67,1.49-1.49-.67-1.49-1.49-1.49"/></g></g></svg>