<?xml version="1.0" encoding="UTF-8"?><svg id="Laag_1" xmlns="http://www.w3.org/2000/svg" xmlns:xlink="http://www.w3.org/1999/xlink" viewBox="0 0 64 64"><defs><style>.cls-1{fill:none;}.cls-2{clip-path:url(#clippath);}.cls-3{clip-path:url(#clippath-1);}</style><clipPath id="clippath"><rect class="cls-1" width="64" height="64"/></clipPath><clipPath id="clippath-1"><rect class="cls-1" width="64" height="64"/></clipPath></defs><g class="cls-2"><polygon points="5 5 11 5 11 2 2 2 2 11 5 11 5 5"/><polygon points="5 53 2 53 2 62 11 62 11 59 5 59 5 53"/><polygon points="53 2 53 5 59 5 59 11 62 11 62 2 53 2"/><polygon points="59 59 53 59 53 62 62 62 62 53 59 53 59 59"/><g class="cls-3"><path d="M8,22v4H56v-4h-11.28c.05-.39,.07-.76,.07-1.09,0-1.47-.26-2.26-.78-2.5-.25-.12-.5-.12-.72-.07,.19-3.05,.38-9.1-.89-11.37-1.39-2.48-3.24-3.13-6.46-2.32-2.11-1.12-3.55-2.23-7.26-1.22-2.57,.7-5.39,1.85-6.87,3.76-1.6,2.06-1.29,8.08-1.02,11.17-.24-.06-.52-.08-.8,.06-.53,.25-.78,1.04-.78,2.5,0,.33,.02,.71,.07,1.09H8Z"/><path d="M31.09,37.72c-.92,.3-3.8,.73-6.9-.88-.02-.01-.04-.02-.07-.04-2.32,.62-10.31,2.91-12.8,5.53-2.91,3.06-4.04,14.5-4.04,14.5H56.73s-1.09-11.44-4-14.5c-2.24-2.36-9.18-4.46-12.28-5.31-.83-.23-1.39-.93-1.57-1.77-.16-.74-.25-1.59-.25-1.59,1.43-1.6,2.58-3.44,3.3-5.67H22.04c1.05,3.44,3.14,5.78,5.63,7.88,.82,.69,2.29,1.05,3.82,1.12,.14,.25,.14,.54-.41,.73"/><polygon points="62 27 62 21 57 24 62 27"/><polygon points="2 21 2 27 7 24 2 21"/></g></g></svg>