<?xml version="1.0" encoding="UTF-8"?><svg id="Laag_1" xmlns="http://www.w3.org/2000/svg" viewBox="0 0 64 64"><defs><style>.cls-1{fill:none;}</style></defs><rect class="cls-1" width="64" height="64"/><g><path d="m50.04,51.94c-.6-.08-1.27-.36-1.91-.8-.64-.44-1.14-.96-1.43-1.51-.08-.15-.29-.09-.3.07-.05.82.27,1.85,1.07,2.4.8.55,1.87.49,2.61.14.15-.07.12-.29-.04-.31Z"/><path d="m51.98,48.73c-.42-.27-.98-.15-1.25.27s-.15.99.27,1.27c.42.27.98.15,1.25-.27.27-.43.15-.99-.27-1.27Z"/><path d="m47.89,48.23c.42.27.98.15,1.25-.27.27-.43.15-.99-.27-1.27s-.98-.15-1.25.27c-.27.43-.15.99.27,1.27Z"/><path d="m57,48.94c0-2.18-.94-4.14-2.43-5.51h0c-1.07-.91-1.64-2.7-.37-4.44-.05-.26-.4-.16-.73.06-1.08.73-1.49,1.68-1.46,2.84-1.63-.58-2.91-.44-3.42-.38-2.58-1.23-5.59-2.22-7.36-2.76-.16-1.12-.36-2.41-.55-3.48,1.79-2.17,2.89-4.4,3.25-6.7,1.33-1.22,2.07-3.17,2.07-5.56,0-.74,0-2.7-1.23-4.04.3-3.34.52-8.5-.79-10.59-1.6-2.56-3.55-3.82-7.26-2.98-2.44-1.16-4.09-1.88-8.36-.84-2.96.72-6.21,1.91-7.92,3.88-1.65,1.91-1.54,7.22-1.27,10.61-1.16,1.33-1.16,3.23-1.16,3.96,0,2.39.74,4.33,2.06,5.55.38,2.51,1.61,4.91,3.71,7.26-.11.81-.23,1.75-.35,2.73-2.51.73-9.67,3-12.03,5.57-2.87,3.12-4.39,14.89-4.39,14.89h12.29c2.04-2.1,4.86-3.65,7.82-4.8l8.69,2.78c.41.08.48-.17.5-.25l-6.33-3.52c6.09-1.85,11.88-2.17,11.88-2.17,2.99,1.72,4.89,5.48,5.44,7.96h9.71s-.37-2.88-1.1-6.18c.69-1.13,1.1-2.46,1.1-3.88Zm-35,3.39h-2.67v2.67h-2.67v-2.67h-2.67v-2.67h2.67v-2.67h2.67v2.67h2.67v2.67Zm16.23-10.3c-1.5,5.71-9.86,5.98-11.75.39-.24-.7-.34-1.41-.25-2.11.24-1.91.04-.55.82-5.44-2.28-2.2-4.1-4.87-4.1-8.06-1.62-.5-2.04-2.55-2.04-3.82s.32-1.96.77-2.17c.39-.18.77-.05,1.01.09.14.65.25,1.14.29,1.31.21.85,1.02.77,1.02.77v-6.75c2.07-.15,6.19-.75,10.75-3.11l5.25,3.53v6.33s.82.08,1.02-.77c.04-.17.15-.66.29-1.31.24-.14.62-.27,1.01-.09.45.21.77.9.77,2.17s-.42,3.31-2.04,3.82c0,3.7-2.53,6.5-5.34,8.88-.78.66-2.25,1.11-3.72,1.11-1.06,0-2.13-.29-2.93-.63.61.93,1.66,2.07,3.58,2.59,3.15.83,5.46-.91,5.46-.91,0,0,.28,1.91.27,2.42.05.59,0,1.18-.16,1.77Zm11.27,12.41c-3.03,0-5.5-2.47-5.5-5.5s2.47-5.5,5.5-5.5,5.5,2.47,5.5,5.5-2.47,5.5-5.5,5.5Z"/></g></svg>