<?xml version="1.0" encoding="UTF-8"?><svg id="Laag_1" xmlns="http://www.w3.org/2000/svg" xmlns:xlink="http://www.w3.org/1999/xlink" viewBox="0 0 64 64"><defs><style>.cls-1{fill:none;}.cls-2{clip-path:url(#clippath);}.cls-3{clip-path:url(#clippath-1);}</style><clipPath id="clippath"><rect class="cls-1" width="64" height="64"/></clipPath><clipPath id="clippath-1"><rect class="cls-1" width="64" height="64"/></clipPath></defs><g class="cls-2"><g class="cls-3"><path d="M57.49,42.99c3.93-.07,5.23-2.19,5.65-3.63-22.85-4.9-43.98-5.36-45.14-5.36-3.18,0-4.79,2.02-4.79,4.5s1.79,4.49,4.79,4.49h18.74s.55-3.71-4.58-4.21c-3.77-.37-10.9-.62-13.37-.74-.08-.21,.08-.41,.54-.46,.49-.06,9.22-1.1,13.73-.65,4.48,.45,5.92,3.78,5.79,6.06h18.65ZM10.04,21H53.97c2.17-2.54,4.03-4,4.03-4H6s1.87,1.45,4.04,4M1.91,38.55c.03,2.93,2.14,4.48,5.12,4.45,3.14-.03,4.9-1.7,4.88-4.55-.03-2.85-2.06-4.48-4.96-4.45-3.31,.03-5.06,1.77-5.04,4.55m16.09-6.75c.16,0,12.91,.19,29.54,2.57,.26-1.91,.78-3.7,1.45-5.37H15c.39,.97,.74,1.98,1.01,3.04,.62-.15,1.29-.24,1.99-.24M8,52l1.38,5H54.62l1.38-5c3.87,0,7-3.13,7-7H1c0,3.87,3.13,7,7,7M56,8H8c-3.87,0-7,3.13-7,7H63c0-3.87-3.13-7-7-7m-6.08,19c.75-1.47,1.6-2.81,2.46-4H11.61c.87,1.19,1.72,2.53,2.47,4H49.92Z"/></g></g></svg>