<?xml version="1.0" encoding="UTF-8"?><svg id="Laag_1" xmlns="http://www.w3.org/2000/svg" xmlns:xlink="http://www.w3.org/1999/xlink" viewBox="0 0 64 64"><defs><style>.cls-1{fill:none;}.cls-2{clip-path:url(#clippath);}.cls-3{clip-path:url(#clippath-1);}</style><clipPath id="clippath"><rect class="cls-1" width="64" height="64"/></clipPath><clipPath id="clippath-1"><rect class="cls-1" width="64" height="64"/></clipPath></defs><g class="cls-2"><g class="cls-3"><path d="M36.04,12.44l-1.54-1.54,6.67-6.67c.56-.56,1.48-.56,2.04,0l15.56,15.55c.27,.27,.42,.63,.42,1.02s-.15,.75-.42,1.02l-6.67,6.67-1.54-1.54-1.11,1.11,1.54,1.54-5.52,5.52c1.55-.08,3.12-.11,4.53-.12l10.97-10.98c1.78-1.78,1.78-4.67,0-6.45L45.41,2.03c-1.78-1.78-4.67-1.78-6.45,0L5.03,35.97c-1.78,1.78-1.78,4.67,0,6.45l15.56,15.55c.89,.89,2.06,1.33,3.22,1.33s2.34-.44,3.23-1.33l7.97-7.97c0-1.41,.04-2.97,.12-4.53l-10.29,10.3c-.56,.56-1.48,.56-2.04,0l-15.56-15.55c-.27-.27-.42-.63-.42-1.02s.15-.75,.42-1.02L33.4,12.01l1.54,1.54,1.11-1.11Z"/><rect x="37.02" y="13.91" width="1.57" height="2.8" transform="translate(.25 31.21) rotate(-45)"/><rect x="40.31" y="17.2" width="1.57" height="2.8" transform="translate(-1.12 34.51) rotate(-45)"/><rect x="43.61" y="20.5" width="1.57" height="2.8" transform="translate(-2.48 37.81) rotate(-45)"/><rect x="46.91" y="23.8" width="1.57" height="2.8" transform="translate(-3.85 41.11) rotate(-45)"/><path d="M33.47,28c-2.03,.13-5.02,2.97-5.02,2.97l-9.27-.74c-.28-.03-.55,.12-.67,.37l-.12,.52c-.14,.33,0,.71,.33,.86l6.56,2.5-3.52,4.14-2.22-.31c-.25-.02-.49,.1-.63,.31l-.13,.21c-.23,.35-.08,.82,.31,.99l2.2,1.19,1.19,2.2c.16,.38,.63,.53,.99,.31l.21-.14c.21-.14,.33-.38,.31-.63l-.31-2.22,4.14-3.52,2.51,6.56c.16,.32,.54,.46,.87,.33l.52-.12c.25-.13,.4-.39,.37-.67l-.75-9.28s2.84-2.99,2.97-5.02c.03-.46-.36-.85-.82-.82"/><path d="M55.79,51.93c-.85,0-1.03,.98-1.03,1.8,0,1.63,.51,1.85,1.01,1.85,.71,0,1.06-.55,1.06-1.64,0-1.8-.6-2.01-1.04-2.01"/><path d="M46.23,46.31c-.86,0-1.04,.98-1.04,1.8,0,1.63,.52,1.85,1.02,1.85,.86,0,1.04-.89,1.04-1.64,0-1.8-.58-2.01-1.02-2.01"/><path d="M63.43,40.83c-.19-1.17-1.09-2.07-2.26-2.26-3.39-.57-9.04-.57-10.17-.57s-6.78,0-10.17,.57c-1.17,.19-2.06,1.09-2.26,2.26-.57,3.39-.57,9.04-.57,10.17s0,6.78,.57,10.17c.19,1.17,1.09,2.07,2.26,2.26,3.39,.57,9.04,.57,10.17,.57s6.78,0,10.17-.57c1.17-.2,2.07-1.09,2.26-2.26,.56-3.39,.56-9.04,.56-10.17,0-3.39,0-6.78-.56-10.17m-20.58,7.45c0-2.9,1.84-3.92,3.42-3.92,2.09,0,3.29,1.37,3.29,3.77,0,2.62-1.78,3.81-3.44,3.81-1.49,0-3.27-.63-3.27-3.65m6.43,9.73l-1.84-.73,5.23-13.28,1.84,.73-5.23,13.28Zm6.4-.45c-1.49,0-3.27-.63-3.27-3.65s1.84-3.92,3.42-3.92c2.09,0,3.29,1.37,3.29,3.77,0,2.63-1.73,3.81-3.44,3.81"/></g></g></svg>