<?xml version="1.0" encoding="UTF-8"?><svg id="Laag_1" xmlns="http://www.w3.org/2000/svg" xmlns:xlink="http://www.w3.org/1999/xlink" viewBox="0 0 64 64"><defs><style>.cls-1{fill:none;}.cls-2{clip-path:url(#clippath);}.cls-3{clip-path:url(#clippath-1);}</style><clipPath id="clippath"><rect class="cls-1" width="64" height="64"/></clipPath><clipPath id="clippath-1"><rect class="cls-1" width="64" height="64"/></clipPath></defs><g class="cls-2"><g class="cls-3"><path d="M55.87,32.49l-6.2-7.13c-.2-.9,.13-2.57,0-3.33-.67-3.85-2.62-8.12-2.62-8.12,2.11-4.02,1.08-7.19-2.1-9.23-3.62-2.32-16.77-2.56-26.37,2.66-10.12,5.51-9.03,15.35-7.32,20.51,1.98,5.99,7.91,14.49,8.32,20.9,.18,2.81-1.89,11.26-1.89,11.26h22.32l-.13-5.99-5.5-2.83c-.29-.16-.21-.35-.18-.4,0,0,8.24,1.77,11.44,2.19,3.21,.42,6.29-2.31,6.29-6.21v-9.66l3.34-1.77c.95-.62,1.22-1.89,.6-2.84M37.49,11.1l1.42,1.41-2.83,2.83-1.41-1.41,2.83-2.83Zm-9.49-3.1h2v4h-2v-4Zm-7.49,3.1l2.83,2.83-1.41,1.41-2.83-2.83,1.41-1.41Zm-.51,10.9h-4v-2h4v2Zm12,5.43v2.85c0,.43-.27,.81-.68,.95l-1.32,.44v1.33h-2v-1.33l-1.32-.44c-.41-.14-.68-.52-.68-.95v-2.85c-2.42-1.13-4.1-3.58-4.1-6.43,0-3.92,3.18-7.1,7.1-7.1s7.1,3.18,7.1,7.1c0,2.85-1.68,5.3-4.1,6.43m10-5.43h-4v-2h4v2Z"/></g></g></svg>