<?xml version="1.0" encoding="UTF-8"?><svg id="Laag_1" xmlns="http://www.w3.org/2000/svg" xmlns:xlink="http://www.w3.org/1999/xlink" viewBox="0 0 64 64"><defs><style>.cls-1{fill:none;}.cls-2{clip-path:url(#clippath);}.cls-3{clip-path:url(#clippath-1);}</style><clipPath id="clippath"><rect class="cls-1" width="64" height="64"/></clipPath><clipPath id="clippath-1"><rect class="cls-1" width="64" height="64"/></clipPath></defs><g class="cls-2"><g class="cls-3"><path d="M26.89,36.56c-1.15-.38-2.25-.68-2.96-.87-.96-.26-1.12-1.53-1.18-2.53,1.33-1.55,2.31-3.4,2.65-5.83,1.34-.42,1.6-2.1,1.6-3.15s-.18-1.62-.56-1.79c-.33-.15-.63-.04-.83,.07,.01-.14,.08-.3,.09-.47,.76-.19,1.54-.39,2.34-.57,.3-.07,.52-.33,.52-.63v-1.21c0-.27-.18-.51-.45-.61-.46-.17-1.14-.57-1.32-1.54-.28-1.51-.6-6.33-6.11-7.49v-.36c0-.69-.56-1.27-1.25-1.32-.48-.03-2.27-.03-2.75,0-.69,.05-1.25,.63-1.25,1.32v.36c-5.52,1.16-5.84,5.98-6.11,7.49-.18,.97-.86,1.38-1.32,1.54-.26,.1-.45,.33-.45,.61v1.21c0,.3,.22,.57,.51,.63,.8,.18,1.56,.37,2.32,.57,.02,.2,.14,.4,.15,.57-.13-.1-.54-.39-.99-.17-.37,.18-.56,.74-.56,1.79s.27,2.74,1.6,3.15c.3,2.52,1.27,4.3,2.57,5.78-.05,1.07-.12,2.32-1.12,2.6-2.1,.59-7.16,2.11-8.79,3.83-2.09,2.2-2.26,10.47-2.26,10.47H17.08c.66-3.56,1.82-7.83,3.76-9.87,1.3-1.37,3.55-2.56,6.06-3.57"/><path d="M60.2,41.98c-1.64-1.73-7.1-3.71-9.37-4.4-1.18,4.66-3.24,10.58-6.45,14.77-.37-2.09-.99-4.91-1.67-6.8,.92-1.4,2.15-3.59,2.15-3.59,0,0-1.05-1.71-3.44-1.71s-3.44,1.71-3.44,1.71c0,0,1.24,2.18,2.15,3.59-.67,1.88-1.29,4.67-1.66,6.76-3.06-4.19-5.11-10.1-6.32-14.74-2.39,.72-7.6,2.59-9.32,4.41-2.63,2.77-3.65,13.02-3.65,13.02H63.81s-.99-10.26-3.61-13.02"/><path d="M32.07,26.4c.54,4.5,2.79,7.13,5.56,9.46,1.6,1.35,6.12,1.34,7.71,0,2.57-2.17,4.65-4.86,5.56-9.46l.02,.06s0-.04,0-.06c1.68-.52,2.02-2.62,2.02-3.93s-.23-2.02-.7-2.24c-.23-.11-.45-.1-.65-.06,.17-2.73,.34-8.14-.8-10.17-1.24-2.22-2.9-2.8-5.78-2.07-1.89-1-3.18-1.99-6.49-1.09-2.3,.63-4.82,1.65-6.15,3.36-1.43,1.85-1.16,7.22-.91,9.99-.21-.06-.46-.07-.72,.05-.47,.22-.7,.93-.7,2.24s.34,3.41,2.02,3.93"/></g></g></svg>