<?xml version="1.0" encoding="UTF-8"?><svg id="Laag_1" xmlns="http://www.w3.org/2000/svg" xmlns:xlink="http://www.w3.org/1999/xlink" viewBox="0 0 64 64"><defs><style>.cls-1{fill:none;}.cls-2{clip-path:url(#clippath);}.cls-3{clip-path:url(#clippath-1);}</style><clipPath id="clippath"><rect class="cls-1" width="64" height="64"/></clipPath><clipPath id="clippath-1"><rect class="cls-1" width="64" height="64"/></clipPath></defs><g class="cls-2"><g class="cls-3"><path d="M30.35,30.62h0c.44,.57,.94,1.09,1.49,1.56,.05,.04,.1,.09,.15,.13h0c1.76,1.47,3.9,2.33,6.3,2.45h0c.09,0,.17,0,.26,.01,.1,0,.19,0,.29,0,.09,0,.18,0,.27,0,.03,0,.06,0,.09,0h.18s.07-.01,.11-.01c.05,0,.1,0,.16-.01,.04,0,.08,0,.12-.01,.05,0,.1,0,.15-.01,.04,0,.08,0,.12-.01,.05,0,.09-.01,.14-.02,.04,0,.09-.01,.13-.02l.13-.02,.13-.02,.13-.02,.13-.02s.08-.01,.12-.02c.05,0,.09-.02,.14-.03,.04,0,.08-.02,.11-.03,.05-.01,.1-.02,.14-.03,.03,0,.07-.02,.11-.03,.05-.01,.1-.02,.15-.04l.1-.03c.05-.01,.1-.03,.15-.04,.03,0,.06-.02,.08-.03,.06-.02,.11-.03,.16-.05,.02,0,.05-.01,.07-.02,.06-.02,.12-.04,.18-.06l.05-.02c.07-.02,.13-.05,.2-.07h0c4.53-1.68,7.63-6.31,6.94-11.57-.62-4.77-4.49-8.62-9.26-9.23-6.34-.81-11.77,3.89-12.17,9.97-.24,.13-.52,.21-.82,.21-.27,0-.52-.06-.74-.17-1.28-3.69-5-6.24-9.23-5.73-3.73,.45-6.82,3.38-7.43,7.09-.41,2.5,.25,4.84,1.59,6.64v.05c.24,.31,.5,.59,.78,.86,1.56,1.58,3.73,2.56,6.13,2.56,1.06,0,2.07-.19,3.01-.54,1.58-.54,2.95-1.53,4.05-2.89,.83-.18-.82,3.18-4.34,4.32-3.68,1.19-7.05,.72-10.1-1.66v16c0,1.31,.69,2,2,2h31c1.31,0,2-.69,2-2v-15c-3.28,2.18-6.39,2.24-10.38,.94-4.29-1.4-6.28-5.54-5.28-5.32m-4.76-3.3c0,1-.81,1.81-1.81,1.81s-1.81-.81-1.81-1.81,.81-1.81,1.81-1.81,1.81,.81,1.81,1.81m-8.32-1.18c0-.61,.5-1.11,1.11-1.11s1.11,.5,1.11,1.11-.5,1.11-1.11,1.11-1.11-.5-1.11-1.11m5.44-5.33c1,0,1.81,.81,1.81,1.81s-.81,1.81-1.81,1.81-1.81-.81-1.81-1.81,.81-1.81,1.81-1.81m-.09,10.25c0,1-.81,1.81-1.81,1.81s-1.81-.81-1.81-1.81,.81-1.81,1.81-1.81,1.81,.81,1.81,1.81m-4.24-12.34c1,0,1.81,.81,1.81,1.81s-.81,1.81-1.81,1.81-1.81-.81-1.81-1.81,.81-1.81,1.81-1.81m-.61,12.34c0,1-.81,1.81-1.81,1.81s-1.81-.81-1.81-1.81,.81-1.81,1.81-1.81,1.81,.81,1.81,1.81m-3.74-10.25c1,0,1.81,.81,1.81,1.81s-.81,1.81-1.81,1.81-1.81-.81-1.81-1.81,.81-1.81,1.81-1.81m-1.06,4.69c1,0,1.81,.81,1.81,1.81s-.81,1.81-1.81,1.81-1.81-.81-1.81-1.81,.81-1.81,1.81-1.81m13.42,3.84h0Zm21.39-4.44c.41,1.68-1.07,3.16-2.75,2.75-.79-.19-1.44-.83-1.63-1.62-.41-1.68,1.07-3.17,2.76-2.76,.79,.19,1.43,.84,1.62,1.63m-4.09-7.5c1.68-.41,3.16,1.07,2.75,2.76-.19,.79-.84,1.44-1.62,1.63-1.69,.41-3.17-1.07-2.76-2.76,.19-.79,.84-1.43,1.63-1.62m.38,12.17c.41,1.68-1.07,3.16-2.75,2.76-.79-.19-1.44-.83-1.63-1.62-.41-1.69,1.07-3.17,2.76-2.76,.79,.19,1.43,.84,1.62,1.63m-5.23-4.2c-.76,0-1.39-.62-1.39-1.39s.62-1.39,1.39-1.39,1.39,.62,1.39,1.39-.62,1.39-1.39,1.39m-.56-10.58c1.69-.41,3.17,1.07,2.76,2.76-.19,.79-.84,1.44-1.63,1.63-1.68,.41-3.16-1.07-2.76-2.76,.19-.79,.84-1.43,1.63-1.62m-.26,14.78c.41,1.68-1.07,3.16-2.76,2.76-.79-.19-1.43-.84-1.63-1.62-.41-1.68,1.07-3.17,2.75-2.76,.79,.19,1.44,.84,1.63,1.62m-5.17-12.17c1.68-.41,3.17,1.07,2.76,2.76-.19,.79-.84,1.44-1.63,1.62-1.68,.41-3.16-1.07-2.76-2.75,.19-.79,.84-1.44,1.62-1.63m-1.32,5.85c1.68-.41,3.16,1.07,2.75,2.76-.19,.79-.84,1.44-1.63,1.62-1.68,.41-3.16-1.07-2.76-2.76,.19-.79,.84-1.44,1.63-1.63"/><path d="M52.32,34.32l-4.32,2.68v10l4.35,2.79c1.05,.55,2.65,.39,2.65-.79v-13c0-1.18-1.62-2.2-2.68-1.68"/></g></g></svg>