<?xml version="1.0" encoding="UTF-8"?><svg id="Laag_1" xmlns="http://www.w3.org/2000/svg" viewBox="0 0 64 64"><defs><style>.cls-1{fill:none;}</style></defs><rect class="cls-1" width="64" height="64"/><path d="m62.44,53.89l-8.18-6.89c-.58-.49-1.44-.49-2.02,0-.58.49-.73,1.33-.34,1.99l1.72,2.92c.56.18,2.49.7,2.72.84.18.11.18.2.14.25h-9.44c-2.29,2.08-4.93,3.77-7.81,5h14.59l-1.93,3.27c-.39.66-.24,1.5.34,1.99.58.49,1.44.49,2.02,0l8.18-6.89c.36-.31.57-.76.56-1.24.01-.48-.19-.93-.56-1.24Z"/><path d="m48.62,48.14c1.29-1.66,5.38-7.24,5.38-15.64,0-12.78-9.45-23.39-21.73-25.22l2.02-3.42c.39-.66.24-1.5-.34-1.99-.58-.49-1.44-.49-2.02,0l-8.18,6.89c-.36.31-.57.76-.56,1.24-.01.48.19.93.56,1.24l8.18,6.89c.58.49,1.44.49,2.02,0,.58-.49.73-1.33.34-1.99l-1.62-2.75c-.14-.05-2.57-.91-2.83-1.08-.18-.11-.18-.2-.13-.25,11,.64,19.3,9.75,19.3,20.44,0,3.17-.81,7.94-4.18,12.38-3.74,4.93-9.66,8.12-16.32,8.12-11.3,0-20.5-9.2-20.5-20.5,0-9.17,6.05-16.93,14.37-19.55l-.04-.03c-.87-.73-1.35-1.79-1.34-2.92,0-.73.21-1.43.59-2.03C10.87,11,3,20.84,3,32.5c0,8.39,4.08,15.85,10.35,20.5H3v5s25.58,0,25.58,0c8.14-.03,15.39-3.88,20.04-9.86Z"/></svg>