<?xml version="1.0" encoding="UTF-8"?><svg id="Laag_1" xmlns="http://www.w3.org/2000/svg" xmlns:xlink="http://www.w3.org/1999/xlink" viewBox="0 0 64 64"><defs><style>.cls-1{fill:none;}.cls-2{clip-path:url(#clippath);}.cls-3{clip-path:url(#clippath-1);}</style><clipPath id="clippath"><rect class="cls-1" width="64" height="64"/></clipPath><clipPath id="clippath-1"><rect class="cls-1" width="64" height="64"/></clipPath></defs><g class="cls-2"><g class="cls-3"><path d="M11.39,44.11c-2.87,3.12-4.39,14.89-4.39,14.89h12.09c-.21-9.82-2.12-15.65-2.96-17.77-1.97,.85-3.77,1.83-4.74,2.88"/><path d="M52.61,44.11c-.97-1.05-2.78-2.03-4.75-2.87-.85,2.12-2.75,7.95-2.96,17.76h12.09s-1.51-11.77-4.39-14.89"/><path d="M36,43.25c0,2.11-.19,4.12-1.51,6.51l-2.99,5.38c-.33,.59-.5,1.27-.5,1.94v1.93h9.91c.21-10.31,2.18-16.59,3.21-19.18-1.16-.39-2.22-.72-3.03-.97-.81,1-2.52,2.82-5.09,4.39"/><path d="M15.88,29.21c.54,2.07,1.48,5.13,2.42,5.94,1.45,1.25,5.7,1.85,5.7,1.85,0,0,1.35,1.99,4,3.86v-3.86c0-2.21,1.79-4,4-4s4,1.79,4,4v3.86c2.65-1.87,4-3.86,4-3.86,0,0,4.25-.6,5.7-1.85,.94-.81,1.88-3.88,2.42-5.94,1.93-1.48,2.88-3.73,2.88-6.26,0-4.45-3.35-5.64-4.05-8.65-.44-1.9-1.07-3.53-1.83-4.92,.28-.23,.65-.56,.93-.79-.95-1.72-2.22-3.23-3.73-4.48-.29,.24-.67,.58-.96,.82-2.83-2.16-6.23-2.93-9.36-2.93s-6.53,.77-9.36,2.93c-.29-.24-.67-.58-.96-.82-1.52,1.24-2.78,2.76-3.73,4.48,.28,.23,.65,.56,.93,.79-.76,1.39-1.38,3.01-1.83,4.92-.7,3.01-4.05,4.2-4.05,8.65,0,2.53,.95,4.78,2.88,6.26m3.97-13.21c2.02-1.5,7.15-2.25,12.15-2.25s10.13,.75,12.15,2.25h0c1.14,.85,1.29,3.68,.4,7.09-.12,.44-.39,.82-.78,1.07-2.79,1.77-5.07,2.73-6.47,3.08-.04,2.34-.47,4.03-.61,4.43-.09,.27-.24,.36-.37,.33-.26-2.36-.54-3.74-.96-5.37-.56-1.86-2.01-2.63-3.37-2.63h0c-1.44,0-2.97,.88-3.47,2.94-.07,.29-.17,.35-.25,.38-.85,.39-3.77-.44-8.06-3.16-.39-.24-.66-.62-.78-1.07-.89-3.41-.74-6.25,.41-7.09"/><path d="M34,43.93v-6.93c0-1.1-.9-2-2-2s-2,.9-2,2v6.93c0,.12-.02,.24-.02,.36-3.69-1.72-6.07-4.2-7.07-5.43-.81,.24-1.87,.57-3.03,.96,1.03,2.58,3.01,8.86,3.22,19.19h5.91v-1.93c0-1.02,.26-2.02,.75-2.91l2.99-5.38c.82-1.48,1.26-3.16,1.26-4.86"/></g></g></svg>