<?xml version="1.0" encoding="UTF-8"?><svg id="Laag_1" xmlns="http://www.w3.org/2000/svg" xmlns:xlink="http://www.w3.org/1999/xlink" viewBox="0 0 64 64"><defs><style>.cls-1{fill:none;}.cls-2{clip-path:url(#clippath);}.cls-3{clip-path:url(#clippath-1);}</style><clipPath id="clippath"><rect class="cls-1" width="64" height="64"/></clipPath><clipPath id="clippath-1"><rect class="cls-1" width="64" height="64"/></clipPath></defs><g class="cls-2"><g class="cls-3"><path d="M19.96,32.87v-2.53c-.72,.74-1.21,1.56-1.53,2.53h1.53Z"/><path d="M27.52,18.98c-.91,0-1.53,.89-1.53,2.23,0,1.42,.5,2.12,1.54,2.12,.93,0,1.52-.89,1.52-2.27s-.52-2.07-1.54-2.07"/><path d="M19.76,19.3c-.72,.74-1.21,1.56-1.53,2.53h1.53v-2.53Z"/><path d="M52,12h-4.03c-3.65-4.85-9.44-8-15.97-8s-12.32,3.15-15.97,8h-4.03c-.55,0-1,.45-1,1V59h24v-9.63c3.36-.32,4.84-4.17,4.95-4.5,.08-.24,.03-.31-.06-.3-1.11,1.17-3.25,3.29-5.14,2.8-1.25-.32-.99-3.42-.36-4.6,.29-.54,.65-.88,1.25-1.01,2.11-.45,6.68-.92,9.36-.92,.57,0,1,.45,1,1v17.16h7V13c0-.55-.45-1-1-1M16.21,22.43c.31-2.18,1.67-4.23,3.64-5.48l.07-.04h2.16v4.92h.87v1.96h-.87v1.37h-2.22v-1.37h-3.26l-.4-1.3v-.06Zm6.84,12.4h-.87v1.37h-2.22v-1.37h-3.26l-.4-1.3v-.06c.32-2.18,1.68-4.23,3.65-5.48l.07-.04h2.16v4.92h.87v1.96Zm3,1.34h-1.28v-1.96h1.35c.62,0,2.06-.09,2.06-.96,0-.53-.51-.8-1.51-.8-.46,0-.96,.03-1.47,.08l-.3,.03v-4.74h5.19v2.03h-3.27v.75c.17,0,.33-.02,.54-.02,2.73,0,3.13,1.52,3.13,2.43,0,2-1.62,3.15-4.44,3.15m1.38-10.84c-2.34,0-3.68-1.47-3.68-4.03s1.63-4.32,3.88-4.32,3.68,1.55,3.68,4.05c0,2.83-1.95,4.31-3.88,4.31m13.88,13.51c.33-.53,.64-1.22,.64-1.99,0-1.66-1.45-3-1.45-3,0,0-1.45,1.34-1.45,3,0,.81,.35,1.55,.71,2.09-1.7-.18-3.26-1.33-3.68-3.71-.65-3.76,2.89-8.98,4.43-10.43,.27,5.15,3.12,4.41,4.39,8.49,.58,3.01-1.37,5.05-3.59,5.55"/></g></g></svg>