<?xml version="1.0" encoding="UTF-8"?><svg id="Laag_1" xmlns="http://www.w3.org/2000/svg" xmlns:xlink="http://www.w3.org/1999/xlink" viewBox="0 0 64 64"><defs><style>.cls-1{fill:none;}.cls-2{clip-path:url(#clippath);}.cls-3{clip-path:url(#clippath-1);}</style><clipPath id="clippath"><rect class="cls-1" width="64" height="64"/></clipPath><clipPath id="clippath-1"><rect class="cls-1" width="64" height="64"/></clipPath></defs><g class="cls-2"><g class="cls-3"><path d="M34.4,49.2c-1.24-2.07-.8-4.69,1.04-6.23,.88-.74,1.99-1.15,3.14-1.15s2.3,.42,3.19,1.19l4.28,3.7,3.08-3.45c-3-1.84-8.14-3.38-10.69-4.07-.83-.23-1.39-.93-1.57-1.77-.17-.74-.25-1.59-.25-1.59,1.97-2.2,3.43-4.85,3.93-8.36,1.88-.58,2.26-2.93,2.26-4.4s-.26-2.26-.78-2.5c-.25-.12-.5-.12-.72-.07,.19-3.05,.38-9.1-.9-11.37-1.39-2.49-3.24-3.13-6.47-2.32-2.11-1.12-3.56-2.23-7.26-1.22-2.58,.7-5.39,1.85-6.88,3.76-1.6,2.06-1.29,8.08-1.02,11.17-.24-.07-.52-.08-.8,.06-.53,.25-.78,1.04-.78,2.5s.38,3.82,2.26,4.4c.6,5.03,3.12,7.97,6.22,10.57,.82,.69,2.29,1.05,3.83,1.12,.14,.25,.14,.54-.41,.73-.92,.3-3.8,.73-6.9-.88-.03-.01-.04-.03-.07-.04-2.32,.62-10.32,2.91-12.82,5.53-2.91,3.06-4.05,14.5-4.05,14.5H40.27l-5.87-9.8Z"/><path d="M59.27,38.35c-.75-.55-1.79-.45-2.41,.25l-10.54,11.92-6.33-5.49c-.67-.58-1.66-.59-2.33-.02-.68,.57-.84,1.54-.39,2.3l7.67,12.8c.32,.54,.91,.87,1.54,.87h0c.63,0,1.21-.33,1.54-.86l11.72-19.4c.48-.79,.28-1.83-.46-2.38"/></g></g></svg>