<?xml version="1.0" encoding="UTF-8"?><svg id="Laag_1" xmlns="http://www.w3.org/2000/svg" xmlns:xlink="http://www.w3.org/1999/xlink" viewBox="0 0 64 64"><defs><style>.cls-1{fill:none;}.cls-2{clip-path:url(#clippath);}.cls-3{clip-path:url(#clippath-1);}</style><clipPath id="clippath"><rect class="cls-1" width="64" height="64"/></clipPath><clipPath id="clippath-1"><rect class="cls-1" width="64" height="64"/></clipPath></defs><g class="cls-2"><g class="cls-3"><path d="M37.86,13.61c2.95,.96,5.33-.55,6.29-3.53,1.1-3.39-.1-5.78-2.97-6.72-3.03-.98-5.35,.64-6.35,3.69-1.05,3.22,.07,5.59,3.02,6.55"/><path d="M51.82,44.62c1.27-1.23,1.5-3.23,.56-4.98-.39-.73-1.3-1-2.03-.61-.73,.39-1.01,1.3-.62,2.03,.37,.68,.23,1.18,0,1.4-.33,.32-.84,.07-1.05-.05-.43-.25-3.21-1.73-5.62-3.18h0c-.74-3.87-1.37-6.9-1.67-9.53-.2-1.88-.77-8.5-.87-9.9-.12-1.66-1.91-3.86-4.79-5.3-3.21-1.6-5.22-1.33-6.22-1.3-2.63,.09-7.34,1.01-9.89,1.95-2.14,.82-2.63,1.84-2.37,3.92,.27,2.05,1.09,3.81,2.26,8.82h.01c.06,.44,.3,.85,.7,1.09,.99,.59,25.15,14.97,26.93,16.02,1.64,.96,3.46,.76,4.64-.38m-15.48-19.33c.44,5.36,1.1,7.96,2.17,11.2-2.16-1.3-4.47-2.69-6.67-4.02l4.5-7.18Zm-9.46-6.47l-4.22,6.4c-.48-2.01-.82-3.92-1.07-5.67,1.58-.29,3.74-.58,5.29-.73"/><path d="M50.5,54c-1.38,0-2.5,1.12-2.5,2.5s1.12,2.5,2.5,2.5,2.5-1.12,2.5-2.5-1.12-2.5-2.5-2.5"/><path d="M36.93,41.75c-.27-.47-.53-.92-.8-1.38-5.53-3.33-12.81-7.71-16.26-9.79-.47,1.52-.64,3.2-.77,4.86-.13,1.66-.2,3.52-.33,5.42-.11,1.61-.25,3.34-.6,4.88-1.1,1.84-5.17,6.64-6.62,8.34-2.14,2.95-1.33,5.63-.7,6.89,.01-.01,.03-.02,.04-.03,1.91-1.46,10.03-9.04,12.27-11.96,.46-.53,.86-1.61,1.09-2.27,.77-2.18,1.38-5.25,1.86-7.59l5.57,6.39c.02,2.18-1.05,6.78-1.41,8.93-.43,4.73,2.28,6.13,3.14,6.55,1.15-3.57,3.7-10.49,4.32-14.38,.45-3.01-.03-3.53-.79-4.85"/></g></g></svg>