<?xml version="1.0" encoding="UTF-8"?><svg id="Laag_1" xmlns="http://www.w3.org/2000/svg" xmlns:xlink="http://www.w3.org/1999/xlink" viewBox="0 0 64 64"><defs><style>.cls-1{fill:none;}.cls-2{clip-path:url(#clippath);}.cls-3{clip-path:url(#clippath-1);}</style><clipPath id="clippath"><rect class="cls-1" width="64" height="64"/></clipPath><clipPath id="clippath-1"><rect class="cls-1" width="64" height="64"/></clipPath></defs><g class="cls-2"><g class="cls-3"><path d="M56.04,23.09c-2.46,0-4.92-1.94-6-2.75-1,.75-3.49,2.75-6,2.75s-4.92-1.94-6-2.75c-1,.75-3.49,2.75-6,2.75s-4.92-1.94-6-2.75c-1,.75-3.49,2.75-6,2.75s-4.92-1.94-6-2.75c-1,.75-3.49,2.75-6,2.75-1.02,0-2.12-.39-3.04-.83v4.22c.94,.31,1.98,.52,3.04,.52,2.4,0,4.66-1.08,6-1.86,1.34,.79,3.6,1.86,6,1.86s4.66-1.08,6-1.86c1.34,.79,3.6,1.86,6,1.86s4.66-1.08,6-1.86c1.34,.79,3.6,1.86,6,1.86s4.66-1.08,6-1.86c1.34,.79,3.6,1.86,6,1.86,1.03,0,2.04-.2,2.96-.49v-4.2c-.9,.42-1.97,.79-2.96,.79"/><path d="M33.04,44.94l3.02-5.21c-1.15,.7-2.57,1.36-4.02,1.36-2.46,0-4.92-1.94-6-2.75-1,.75-3.49,2.75-6,2.75s-4.92-1.94-6-2.75c-1,.75-3.48,2.75-6,2.75-1.02,0-2.12-.39-3.04-.83v4.22c.94,.31,1.98,.52,3.04,.52,2.4,0,4.66-1.08,6-1.86,1.34,.79,3.6,1.86,6,1.86s4.66-1.08,6-1.86c1.34,.79,3.6,1.86,6,1.86,.33,0,.66-.03,.99-.06"/><path d="M51.97,39.69l3.1,5.25c.32,.04,.65,.06,.98,.06,1.03,0,2.04-.2,2.96-.49v-4.2c-.9,.42-1.97,.79-2.96,.79-1.46,0-2.91-.68-4.08-1.41"/><path d="M50.04,29.34c-.67,.51-2.02,1.56-3.6,2.21,.7,.41,1.3,.99,1.72,1.71l.84,1.43c.38-.19,.73-.38,1.03-.55,1.34,.79,3.6,1.86,6,1.86,1.03,0,2.04-.2,2.96-.49v-4.2c-.9,.42-1.97,.79-2.96,.79-2.46,0-4.92-1.94-6-2.75"/><path d="M14.04,34.14c1.34,.79,3.6,1.86,6,1.86s4.66-1.08,6-1.86c1.34,.79,3.6,1.86,6,1.86s4.66-1.08,6-1.86c.28,.16,.61,.34,.96,.52l.79-1.36c.43-.75,1.05-1.35,1.78-1.77-1.51-.64-2.82-1.65-3.53-2.18-1,.75-3.49,2.75-6,2.75s-4.92-1.94-6-2.75c-1,.75-3.48,2.75-6,2.75s-4.92-1.94-6-2.75c-1,.75-3.49,2.75-6,2.75-1.02,0-2.12-.39-3.04-.83v4.22c.94,.3,1.98,.52,3.04,.52,2.4,0,4.66-1.08,6-1.86"/><path d="M45.42,34.89c-.3-.51-.84-.81-1.43-.81h0c-.59,0-1.13,.32-1.42,.82l-13.12,22.62c-.3,.51-.3,1.14,0,1.66s.84,.83,1.43,.83h26.48c.59,0,1.14-.32,1.44-.83,.3-.52,.29-1.15-.01-1.66l-13.35-22.62Zm-11.06,21.28l9.66-16.64,9.82,16.64h-19.48Z"/><path d="M43.99,52.67c-.81,0-1.22,.58-1.22,1.32,0,.84,.45,1.29,1.24,1.29s1.22-.56,1.22-1.29c0-.85-.45-1.32-1.24-1.32"/><polygon points="43.07 51.59 44.97 51.54 44.97 49.21 45.15 44.04 43.07 44.23 43.07 51.59"/></g></g></svg>