<?xml version="1.0" encoding="UTF-8"?><svg id="Laag_1" xmlns="http://www.w3.org/2000/svg" xmlns:xlink="http://www.w3.org/1999/xlink" viewBox="0 0 64 64"><defs><style>.cls-1{fill:none;}.cls-2{clip-path:url(#clippath);}.cls-3{clip-path:url(#clippath-1);}</style><clipPath id="clippath"><rect class="cls-1" width="64" height="64"/></clipPath><clipPath id="clippath-1"><rect class="cls-1" width="64" height="64"/></clipPath></defs><g class="cls-2"><g class="cls-3"><path d="M51.41,22.41l-14.83-14.83c-.38-.38-.88-.59-1.41-.59H14c-1.1,0-2,.89-2,2V55c0,1.1,.9,2,2,2H50c1.1,0,2-.9,2-2V23.83c0-.53-.21-1.04-.59-1.41m-1.27,1.94l-3.15,.93v26.71H17V12h16.71l.93-3.14c.11-.34,.36-.23,.36-.23v14.37c0,.55,.45,1,1,1h14.37s.12,.25-.22,.36"/></g></g></svg>