<?xml version="1.0" encoding="UTF-8"?><svg id="Laag_1" xmlns="http://www.w3.org/2000/svg" xmlns:xlink="http://www.w3.org/1999/xlink" viewBox="0 0 64 64"><defs><style>.cls-1{fill:none;}.cls-2{clip-path:url(#clippath);}.cls-3{clip-path:url(#clippath-1);}</style><clipPath id="clippath"><rect class="cls-1" width="64" height="64"/></clipPath><clipPath id="clippath-1"><rect class="cls-1" width="64" height="64"/></clipPath></defs><g class="cls-2"><polygon points="27 12 29 12 29 10 31 10 31 8 29 8 29 6 27 6 27 8 25 8 25 10 27 10 27 12"/><g class="cls-3"><path d="M30.08,49.44v-.64c-1.08,.56-2,.94-2.53,1.14-1.49-.64-6.14-2.88-8.39-6.8,2.88-1.19,2.71-2.27,2.76-2.72,.07-.58,.58-5.32,.58-5.32-2.52-2.48-3.6-5.57-4.06-8.28-.29-1.73-.25-3.34-.16-4.41,3.62-1.43,8.39-3.97,11.64-6.56,1.37,2.38,3.77,4.91,6.84,6.92,.07,1.03,.07,2.47-.2,4.06-.53,3.18-2.82,7.63-5.34,9.19-1.72,1.06-4.87,1.23-6.71,.44,.42,.84,1.27,1.84,3.15,2.31,2.54,.63,4.85-.4,5.45-.75,.11,.79,.22,1.59,.29,2.28,.04,.34,.12,1.08,1.62,2.05l2.28-2.06c-.42-.21-.78-.42-1.03-.62-.1-.85-.24-1.89-.38-2.89,1.71,.18,3.26,.38,4.6,.64l4.05-3.65c.66-3.2,.96-5.79,.96-8.53,0-7.22-2.62-14.91-6.69-17.76l.19-2.14c.04-.45-.12-.89-.43-1.2-1.17-1.16-4.09-3.12-10.56-3.12s-9.4,1.95-10.57,3.12c-.31,.31-.47,.75-.43,1.2l.2,2.19c-4.66,3.67-7.69,9.95-7.69,17.71,0,3.72,.56,7.15,1.82,12.24,.1,.42,.5,.67,.88,.54,1.82-.64,4.29-1.01,7.36-1.3-.11,.94-.24,1.99-.36,3.06-1.67,1.2-8.78,2.66-11.49,5.5-2.76,2.88-4.21,13.74-4.21,13.74h29.5v-6.06c-1.66-.3-2.92-1.76-2.92-3.5M28,3.5c5.14,0,7.56,1.36,8.49,2.1l-.72,8.4h-15.55l-.72-8.4c.93-.74,3.35-2.1,8.49-2.1"/><path d="M60.57,47.79l-13.19-11.9c-.21-.2-.54-.2-.76,0l-13.19,11.9c-.23,.21-.36,.51-.36,.82v.83c0,.31,.25,.56,.56,.56h2.37v12h22v-12h2.37c.31,0,.56-.25,.56-.56v-.83c0-.31-.13-.61-.36-.82m-9.57,9.21h-8v-6h8v6Z"/></g></g></svg>