<?xml version="1.0" encoding="UTF-8"?><svg id="Laag_1" xmlns="http://www.w3.org/2000/svg" viewBox="0 0 64 64"><defs><style>.cls-1{fill:none;}</style></defs><rect class="cls-1" width="64" height="64"/><g><path d="m29.01,54.3c-.38-2.13-1.01-4.99-1.7-6.92.93-1.43,2.19-3.65,2.19-3.65,0,0-1.07-1.74-3.5-1.74s-3.5,1.74-3.5,1.74c0,0,1.25,2.22,2.19,3.65-.68,1.91-1.31,4.75-1.69,6.88-3.17-4.34-5.28-10.5-6.5-15.26-3.37.8-10.43,2.33-12.22,4.44-2.17,2.57-3.29,15.49-3.29,15.49h41v-18.17c-2.29-.71-4.74-1.29-6.38-1.71-1.2,4.77-3.31,10.91-6.61,15.23Z"/><path d="m14.06,28.49c.52,3.4,2.58,6.61,6.27,9.74,1.75,1.49,4.3,1.76,5.67,1.76s3.92-.27,5.67-1.76c3.63-3.09,5.73-6.36,6.26-9.74,1.33-1.22,2.07-3.17,2.07-5.56,0-.74,0-2.7-1.23-4.04.3-3.34.52-8.5-.79-10.59-1.6-2.56-3.55-3.82-7.26-2.98-2.44-1.16-4.09-1.88-8.36-.84-2.96.72-6.21,1.91-7.92,3.88-1.65,1.91-1.54,7.22-1.27,10.61-1.16,1.33-1.16,3.22-1.16,3.95,0,2.39.74,4.33,2.06,5.55Zm1.61-7.72c.14-.06.27-.09.4-.09.24,0,.46.09.61.18.14.65.25,1.14.29,1.31.21.85,1.02.77,1.02.77v-6.74c2.07-.15,6.19-.75,10.75-3.11l5.25,3.53v6.33s.82.08,1.02-.77c.04-.17.15-.66.29-1.31.16-.09.37-.18.61-.18.13,0,.26.03.4.09.45.21.77.9.77,2.17s-.42,3.31-2.04,3.82c0,3.82-2.68,6.92-5.34,9.18-.78.66-2.25,1.13-3.72,1.13s-2.94-.46-3.72-1.13c-2.66-2.26-5.34-5.32-5.34-9.18-1.62-.5-2.04-2.55-2.04-3.82s.32-1.96.77-2.17Z"/><path d="m63,38h-17c-.55,0-1,.45-1,1v24h8v-5h3v5h8v-24c0-.55-.45-1-1-1Zm-12,17h-3v-3h3v3Zm0-5h-3v-3h3v3Zm0-5h-3v-3h3v3Zm5,10h-3v-3h3v3Zm0-5h-3v-3h3v3Zm0-5h-3v-3h3v3Zm5,10h-3v-3h3v3Zm0-5h-3v-3h3v3Zm0-5h-3v-3h3v3Z"/></g></svg>