<?xml version="1.0" encoding="UTF-8"?><svg id="Laag_1" xmlns="http://www.w3.org/2000/svg" xmlns:xlink="http://www.w3.org/1999/xlink" viewBox="0 0 64 64"><defs><style>.cls-1{fill:none;}.cls-2{clip-path:url(#clippath);}.cls-3{clip-path:url(#clippath-1);}</style><clipPath id="clippath"><rect class="cls-1" width="64" height="64"/></clipPath><clipPath id="clippath-1"><rect class="cls-1" width="64" height="64"/></clipPath></defs><g class="cls-2"><g class="cls-3"><path d="M20.06,36.85h0c2.4,0,4.66-1.08,6-1.86,1.34,.79,3.6,1.86,6,1.86h0c2.4,0,4.66-1.08,6-1.86,1.34,.79,3.6,1.86,6,1.86h0c.42,0,.84-.04,1.24-.1l1.78-4.62c-.94,.47-1.97,.81-3.02,.81-2.46,0-4.92-1.94-6-2.75h0c-1,.75-3.48,2.75-6,2.75s-4.91-1.94-6-2.75h0c-1,.75-3.49,2.75-6,2.75h-.01c-.99,0-2.08-.38-2.98-.8-.07-.03-.13-.07-.2-.11l1.81,4.7c.5,.07,.72,.12,1.37,.12"/><path d="M9.45,40.61c.27-.43,.19-1-.18-1.34-.37-.34-.93-.36-1.32-.04l-5.48,4.45c-.24,.2-.39,.5-.39,.82,0,.32,.14,.62,.39,.82l5.48,4.45c.39,.32,.95,.3,1.32-.04,.37-.34,.45-.91,.18-1.34l-1.93-3.89,1.93-3.9Z"/><path d="M56.13,39.23c-.39-.32-.95-.3-1.32,.04-.37,.34-.45,.9-.18,1.34l1.93,3.9h0l-1.93,3.89c-.27,.43-.19,1,.18,1.34,.37,.34,.93,.36,1.32,.04l5.48-4.45c.24-.2,.39-.5,.39-.82,0-.32-.14-.62-.39-.82l-5.48-4.45Z"/><path d="M35.89,52.62l-3.9,1.93-3.89-1.93c-.43-.27-1-.19-1.34,.18-.34,.37-.36,.93-.04,1.32l4.45,5.48c.2,.24,.5,.39,.82,.39,.32,0,.62-.14,.82-.39l4.45-5.48c.32-.39,.3-.95-.04-1.32-.34-.37-.9-.45-1.34-.18"/><path d="M52.56,24l-8.07,21H19.51L11.44,24H2v5h6l7.33,19.08c.44,1.15,1.57,1.92,2.8,1.92h27.73c1.23,0,2.36-.77,2.8-1.92l7.33-19.08h6v-5h-9.44Z"/></g></g></svg>