<?xml version="1.0" encoding="UTF-8"?><svg id="Laag_1" xmlns="http://www.w3.org/2000/svg" xmlns:xlink="http://www.w3.org/1999/xlink" viewBox="0 0 64 64"><defs><style>.cls-1{fill:none;}.cls-2{clip-path:url(#clippath);}.cls-3{clip-path:url(#clippath-1);}</style><clipPath id="clippath"><rect class="cls-1" width="64" height="64"/></clipPath><clipPath id="clippath-1"><rect class="cls-1" width="64" height="64"/></clipPath></defs><g class="cls-2"><g class="cls-3"><path d="M25.22,33.96s-8.19,.02-9.77,.02c-1.5-.01-1.92-1.29-1.7-2.55,.22-1.25,.96-5.75,1.11-8.08l2.8,2.52c.36,.25,1.21,.74,2.36,.74,0,0,4.05,0,4.86,0s2.7-.36,3.11-1.87c.17-.63,.12-1.44,.12-1.44h-7.28l-8.22-7.23c-.54-.48-1.57-1.08-3.11-1.08s-3.83,.86-4.42,5.02c-.94,6.69-1.06,8.61-1.41,14.01-.21,3.17,2.56,6.68,6.71,6.81,3.92,0,10.29,.13,10.98,.02-.71,2.55-.97,4.44-1.92,8.1-1.35,5.21,3.72,6.57,3.72,6.57l1.06-3.73s3.18-12.73,3.58-14.43c.4-1.69-.39-3.4-2.58-3.4"/><path d="M16.25,30.35c0,.95,.67,1.76,1.55,1.76h22.1c.88,0,1.55-.81,1.55-1.76v-1.75H16.25v1.75Z"/><path d="M12.53,13.39c2.58,.48,4.39-1.09,4.85-3.74,.52-3.03-.76-4.94-3.27-5.4-2.65-.49-4.4,1.16-4.87,3.89-.5,2.88,.71,4.78,3.29,5.25"/><path d="M46.42,13.64c2.57-.52,3.75-2.44,3.21-5.31-.52-2.72-2.3-4.35-4.94-3.81-2.5,.51-3.75,2.44-3.18,5.45,.5,2.65,2.34,4.19,4.91,3.67"/><path d="M59.4,41.95h-2.51v-2.04c0-.83-.67-1-1.5-1s-1.5,.17-1.5,1v2.04h-7.02v-2.04c0-.83-.67-1-1.5-1s-1.5,.17-1.5,1v2.04h-2.51c-.81,0-1.47,.66-1.47,1.47v16.04c0,.81,.66,1.47,1.47,1.47h18.04c.81,0,1.47-.66,1.47-1.47v-16.04c0-.81-.66-1.47-1.47-1.47m-.47,17.04h-17.11v-12.06h17.11v12.06Z"/><path d="M45.36,38.91c-.83,0-1.5,.17-1.5,1v.97c.87,0,1.63,0,2.11,0h.9v-.97c0-.83-.67-1-1.5-1"/><path d="M36.88,43.42c0-2.33,1.79-4.25,4.07-4.45,.5-2.39,2.92-3.06,4.41-3.06,2.86,0,4.04,1.63,4.38,3.04h1.24c.39-1.82,1.9-2.63,3.25-2.92,.07-.53,.1-1.09,.06-1.69-.25-3.91-.37-7.47-1.31-14.16-.94-6.68-6.12-4.76-6.12-4.76-.78,.35-1.42,.77-1.93,1.26l-.11,.1-9.19,9.83h4.23c.82,0,1.73-.61,2.34-1.21,.43-.43,1.08-1.01,1.08-1.01,.19,2.18,1.02,7.01,1.13,7.92,.13,1-.42,1.66-1.34,1.66h0c-1.75,.01-4.67,0-6.21,.11-1.88,.14-2.93,.89-3.46,2.92-.38,1.43-3.63,14.69-3.63,14.69l-.91,3.77s5.11,1.17,6.51-4.02c.59-2.18,1.11-4.39,1.53-6.21v-1.79Z"/><rect x="43.86" y="48.93" width="3.01" height="3.01"/><rect x="48.87" y="48.93" width="3.01" height="3.01"/><rect x="53.88" y="48.93" width="3.01" height="3.01"/><rect x="43.86" y="53.95" width="3.01" height="3.01"/><rect x="48.87" y="53.95" width="3.01" height="3.01"/><rect x="53.88" y="53.95" width="3.01" height="3.01"/></g></g></svg>