<?xml version="1.0" encoding="UTF-8"?><svg id="Laag_1" xmlns="http://www.w3.org/2000/svg" xmlns:xlink="http://www.w3.org/1999/xlink" viewBox="0 0 64 64"><defs><style>.cls-1{fill:none;}.cls-2{clip-path:url(#clippath);}.cls-3{clip-path:url(#clippath-1);}</style><clipPath id="clippath"><rect class="cls-1" width="64" height="64"/></clipPath><clipPath id="clippath-1"><rect class="cls-1" width="64" height="64"/></clipPath></defs><g class="cls-2"><g class="cls-3"><path d="M60.27,20.3c-7.36-7-17.31-11.3-28.27-11.3S11.09,13.3,3.73,20.3c-.4,.39-.4,1.04,0,1.43l2.83,2.83c.38,.38,1,.38,1.4,0,6.27-5.93,14.74-9.57,24.05-9.57s17.78,3.64,24.05,9.57c.4,.38,1.01,.38,1.4,0l2.83-2.83c.4-.4,.4-1.05,0-1.43"/><path d="M32,21c-7.64,0-14.6,2.96-19.78,7.79-.41,.38-.41,1.04-.01,1.44l2.83,2.83c.38,.39,.99,.38,1.4,.01,4.1-3.77,9.56-6.07,15.56-6.07s11.47,2.3,15.56,6.07c.4,.37,1.01,.37,1.4-.01l2.83-2.83c.4-.4,.4-1.05-.01-1.44-5.18-4.83-12.13-7.79-19.78-7.79"/><path d="M32,33c-4.31,0-8.24,1.6-11.24,4.25-.44,.39-.47,1.06-.06,1.47l2.83,2.83c.36,.36,.94,.4,1.33,.07,1.92-1.64,4.41-2.63,7.13-2.63s5.21,.99,7.13,2.63c.39,.33,.97,.28,1.33-.07l2.83-2.83c.41-.41,.38-1.09-.06-1.47-3-2.64-6.93-4.25-11.24-4.25"/><path d="M32,45c-2.76,0-5,2.24-5,5s2.24,5,5,5,5-2.24,5-5-2.24-5-5-5"/></g></g></svg>