<?xml version="1.0" encoding="UTF-8"?><svg id="Laag_1" xmlns="http://www.w3.org/2000/svg" xmlns:xlink="http://www.w3.org/1999/xlink" viewBox="0 0 64 64"><defs><style>.cls-1{fill:none;}.cls-2{clip-path:url(#clippath);}.cls-3{clip-path:url(#clippath-1);}</style><clipPath id="clippath"><rect class="cls-1" width="64" height="64"/></clipPath><clipPath id="clippath-1"><rect class="cls-1" width="64" height="64"/></clipPath></defs><g class="cls-2"><g class="cls-3"><path d="M57,20.52c0-.36-.19-.68-.49-.86L33.31,6.04c-.81-.47-1.81-.47-2.62,0L7.49,19.66c-.31,.18-.49,.51-.49,.86v2.48H57v-2.48Zm-25-1.33c-1.76,0-3.19-1.43-3.19-3.18s1.43-3.18,3.19-3.18,3.18,1.43,3.18,3.18-1.43,3.18-3.18,3.18"/><path d="M56,53v-4h-4V25h-6v24h-11V25h-6v24h-11V25h-6v24h-4c0,.08,0,2.28,0,2.28l6.73,1.34c.32,.1,.3,.3,.28,.38H4v4H60v-4h-4Z"/></g></g></svg>