<?xml version="1.0" encoding="UTF-8"?><svg id="Laag_1" xmlns="http://www.w3.org/2000/svg" xmlns:xlink="http://www.w3.org/1999/xlink" viewBox="0 0 24 24"><defs><style>.cls-1{fill:none;}.cls-2{clip-path:url(#clippath);}.cls-3{clip-path:url(#clippath-1);}</style><clipPath id="clippath"><rect class="cls-1" width="24" height="24"/></clipPath><clipPath id="clippath-1"><rect class="cls-1" width="24" height="24"/></clipPath></defs><g class="cls-2"><g class="cls-3"><path d="m18,15c-.92,0-1.76.32-2.43.85l-5.62-3.28c.08-.53.08-.59,0-1.13l5.62-3.28c.68.52,1.51.84,2.43.84,2.21,0,4-1.79,4-4s-1.79-4-4-4-4,1.79-4,4c0,.19.03.38.06.56l-5.62,3.28c-.68-.52-1.51-.85-2.43-.85-2.21,0-4,1.79-4,4s1.79,4,4,4c.92,0,1.76-.32,2.43-.84l5.62,3.28c-.03.18-.06.37-.06.56,0,2.21,1.79,4,4,4s4-1.79,4-4-1.79-4-4-4"/></g></g></svg>