<?xml version="1.0" encoding="UTF-8"?><svg id="Laag_1" xmlns="http://www.w3.org/2000/svg" xmlns:xlink="http://www.w3.org/1999/xlink" viewBox="0 0 64 64"><defs><style>.cls-1{fill:none;}.cls-2{clip-path:url(#clippath);}.cls-3{clip-path:url(#clippath-1);}</style><clipPath id="clippath"><rect class="cls-1" width="64" height="64"/></clipPath><clipPath id="clippath-1"><rect class="cls-1" width="64" height="64"/></clipPath></defs><g class="cls-2"><g class="cls-3"><path d="M55.25,47.6l-20.71-20.59c-2.67,2.98-5.12,3.87-5.63,4.04-.23,.07-.36,.01-.4-.08,.48-.39,.95-.8,1.43-1.27,5.32-5.28,5.24-10.86,.74-15.4-2.86-2.89-6.15-3.98-9.54-3.05-.55,.15-.76,.84-.39,1.28,1.2,1.44,2.35,2.86,2.89,3.61,.8,1.12,2.27,3.19,.89,4.56l-4.08,4.04c-1.38,1.37-3.3-.22-4.41-1.03-.72-.53-1.99-1.68-3.29-2.91-.44-.42-1.18-.21-1.32,.37-.75,3.23,.35,6.38,3.09,9.14,3.31,3.34,7.22,4.28,11.17,2.44l22.22,22.11c1.93,1.95,4.23,.83,6.17-1.1,1.94-1.92,3.08-4.21,1.15-6.16"/><path d="M18,19.12c.34-.08,.69-.4,.8-.73l1.3-4.15c.1-.33,0-.8-.24-1.06l-2.94-3.2c-.23-.25-.7-.4-1.03-.32l-4.24,.94c-.34,.08-.69,.4-.8,.73l-1.3,4.15c-.1,.33,0,.8,.23,1.06l2.94,3.2c.23,.25,.7,.4,1.03,.32l4.24-.94Zm-3.62-6.62c1.29-.29,2.58,.53,2.87,1.82,.29,1.29-.53,2.58-1.82,2.87-1.3,.29-2.58-.53-2.87-1.82-.29-1.29,.53-2.58,1.82-2.87"/></g></g></svg>