<?xml version="1.0" encoding="UTF-8"?><svg id="Laag_1" xmlns="http://www.w3.org/2000/svg" xmlns:xlink="http://www.w3.org/1999/xlink" viewBox="0 0 64 64"><defs><style>.cls-1{fill:none;}.cls-2{clip-path:url(#clippath);}.cls-3{clip-path:url(#clippath-1);}</style><clipPath id="clippath"><rect class="cls-1" width="64" height="64"/></clipPath><clipPath id="clippath-1"><rect class="cls-1" width="64" height="64"/></clipPath></defs><g class="cls-2"><g class="cls-3"><path d="M59,9h-14c-3.99-2.44-8.49-3.67-13-3.67s-9.01,1.22-13,3.67H5c-.55,0-1,.45-1,1V53c0,.55,.45,1,1,1h14v1c0,.55,.45,1,1,1h24c.55,0,1-.45,1-1v-1h14c.55,0,1-.45,1-1V10c0-.55-.45-1-1-1M17,50H7l1-2h10l-1,2Zm0-5H7l1-2h10l-1,2Zm0-5H7l1-2h10l-1,2Zm0-5H7l1-2h10l-1,2Zm0-5H7l1-2h10l-1,2Zm0-5H7l1-2h10l-1,2Zm0-5H7l1-2h10l-1,2Zm0-5H7l1-2h10l-1,2Zm15-5.67c3.12,0,6.2,.7,9,2.04v7.63H23v-7.63c2.8-1.34,5.88-2.04,9-2.04m-9,13.67h18v29H23V23Zm24,27l-1-2h10l1,2h-10Zm0-5l-1-2h10l1,2h-10Zm0-5l-1-2h10l1,2h-10Zm0-5l-1-2h10l1,2h-10Zm0-5l-1-2h10l1,2h-10Zm0-5l-1-2h10l1,2h-10Zm0-5l-1-2h10l1,2h-10Zm0-5l-1-2h10l1,2h-10Z"/></g></g></svg>