<?xml version="1.0" encoding="UTF-8"?><svg id="Laag_1" xmlns="http://www.w3.org/2000/svg" xmlns:xlink="http://www.w3.org/1999/xlink" viewBox="0 0 64 64"><defs><style>.cls-1{fill:none;}.cls-2{clip-path:url(#clippath);}.cls-3{clip-path:url(#clippath-1);}</style><clipPath id="clippath"><rect class="cls-1" width="64" height="64"/></clipPath><clipPath id="clippath-1"><rect class="cls-1" width="64" height="64"/></clipPath></defs><g class="cls-2"><g class="cls-3"><path d="M21.97,25.95c-.92,0-1.9,.63-1.9,2.39,0,1.6,.67,2.49,1.9,2.49,.91,0,1.89-.62,1.89-2.38,0-1.61-.67-2.5-1.89-2.5"/><path d="M14.25,25.94h-.59v2.17h.7c.76,0,1.21-.43,1.21-1.15s-.41-1.01-1.32-1.01"/><path d="M7.91,25.94h-.65v2.34c.17,.02,.33,.03,.53,.03,.86,0,1.35-.44,1.35-1.22s-.4-1.15-1.23-1.15"/><path d="M61.07,18H2.93c-1.07,0-1.93,.97-1.93,2.16v15.68c0,1.19,.87,2.16,1.93,2.16H28v21h8v-19.46l-5.77-1.15c-.35-.11-.3-.34-.27-.4h31.12c1.07,0,1.93-.96,1.93-2.15v-15.68c0-1.19-.86-2.16-1.93-2.16M7.96,29.57c-.26,0-.47,0-.69-.03v2.56h-1.52v-7.42h2.37c1.61,0,2.61,.88,2.61,2.31,0,1.56-1.08,2.58-2.76,2.58m8.1,2.53l-.03-.05-1.62-2.71h-.75v2.76h-1.52v-7.42h2.21c1.75,0,2.79,.79,2.79,2.11,0,.95-.46,1.72-1.27,2.12l1.95,3.18h-1.78Zm5.84,.1c-2.1,0-3.41-1.43-3.41-3.74,0-2.67,1.79-3.87,3.57-3.87,2.1,0,3.4,1.43,3.4,3.74,0,2.67-1.78,3.87-3.55,3.87m10.71-7.39l-2.15,7.29h-2.11l-.02-.07-2.15-7.34h1.68l.02,.07,1.59,5.66,1.6-5.74h1.57l-.04,.13Zm2.85,7.29h-1.52v-7.42h1.52v7.42Zm7.7,0h-2.24l-.02-.06-1.97-5.42v5.49h-1.42v-7.42h2.24l.02,.06,1.97,5.42v-5.48h1.42v7.42Zm7-.12l-.08,.02c-.63,.14-.89,.18-1.63,.18-2.23,0-3.61-1.37-3.61-3.58,0-2.43,1.49-3.99,3.78-3.99,.53,0,.9,.04,1.44,.14l.09,.02-.12,1.32-.11-.02c-.57-.1-.84-.11-1.35-.11-1.04,0-2.16,.66-2.16,2.51s1.14,2.4,2.11,2.4c.58,0,.9-.03,1.5-.14l.12-.02v1.28Zm2.92,.12h-1.52v-7.42h1.52v7.42Zm6.07,0h-4.02v-7.42h3.98v1.29h-2.46v1.67h2.27v1.29h-2.27v1.88h2.5v1.29Z"/></g></g></svg>