<?xml version="1.0" encoding="UTF-8"?><svg id="Laag_1" xmlns="http://www.w3.org/2000/svg" xmlns:xlink="http://www.w3.org/1999/xlink" viewBox="0 0 64 64"><defs><style>.cls-1{fill:none;}.cls-2{clip-path:url(#clippath);}.cls-3{clip-path:url(#clippath-1);}</style><clipPath id="clippath"><rect class="cls-1" width="64" height="64"/></clipPath><clipPath id="clippath-1"><rect class="cls-1" width="64" height="64"/></clipPath></defs><g class="cls-2"><g class="cls-3"><path d="M24.9,44.05c-10.15-.52-12.45-4.69-12.7-5.39-.09-.25-.09-.39-.03-.45,2.93,2.02,7.18,3.39,12.08,3.71-.19-1.84,.51-3.72,2.01-4.97,2.15-1.78,5.27-1.75,7.38,.08l3.55,3.08c4.74-1.89,7.8-5.01,7.8-8.62v-5c0-.22-.03-.44-.06-.66-1.26,1.61-6.45,7.27-17.91,7.27s-14.56-4.69-14.83-5.44c-.09-.25-.09-.39-.03-.45,3.37,2.33,8.49,3.79,14.33,3.79,10.37,0,18.5-4.62,18.5-10.51v-5c0-5.88-8.12-10.49-18.5-10.49S8,9.61,8,15.49v5c0,1.05,.27,2.06,.75,3.01-.48,.94-.75,1.94-.75,2.99v5c0,1.05,.27,2.05,.75,3-.48,.95-.75,1.95-.75,3v5c0,5.89,8.13,10.51,18.5,10.51,1.2,0,2.37-.07,3.5-.19l-5.02-8.59c-.03-.06-.05-.12-.08-.18m1.6-35.11c8.09,0,14.65,2.94,14.65,6.57s-6.56,6.56-14.65,6.56-14.65-2.94-14.65-6.56,6.56-6.57,14.65-6.57"/><path d="M23.66,17.97v.9h2.05v-.74c.4,.03,.89,.03,1.34,.03h.51v.72h2v-.82c3.68-.4,5.43-1.69,5.43-3.56,0-.73-.08-1.05-.41-1.79h-2.72c.28,.69,.38,1.04,.38,1.67,0,.82-.78,1.49-2.69,1.78v-2.35h-2v2.52c-.25,.01-.51,.03-.81,.03-.36,0-.69-.01-1.04-.03v-2.52h-2.05v2.34c-1.85-.28-2.82-.88-2.82-1.83,0-.54,.1-.86,.33-1.54h-2.86c-.23,.57-.3,.97-.3,1.5,0,1.89,1.9,3.23,5.66,3.71"/><path d="M56.53,30.82c-1.12-.83-2.69-.66-3.62,.38l-13.34,14.93-7.89-6.83c-1-.87-2.48-.88-3.5-.04-1.02,.85-1.28,2.31-.61,3.45l9.9,16.96c.48,.83,1.37,1.34,2.33,1.34h.01c.95,0,1.83-.5,2.32-1.32l15.12-25.3c.72-1.2,.41-2.74-.72-3.57"/></g></g></svg>