<?xml version="1.0" encoding="UTF-8"?>
<svg id="Zwart" xmlns="http://www.w3.org/2000/svg" viewBox="0 0 64 64">
  <path d="M42.46,27.33c-1.56-1.65-5.28-2.53-6.54-2.79-.21-.04-.37-.21-.4-.42-.06-.4-.12-.76-.16-1.03,1.17-1.21,2.05-2.69,2.33-4.68,1.01-.31,1.22-1.56,1.22-2.34s-.14-1.2-.42-1.33c-.09-.04-.18-.05-.26-.05-.01-.21-.04-.42.03-.59.12-.33.59-.56.65-.9.08-.43-.26-.89-.24-1.31.02-.43.38-.88.32-1.29-.06-.43-.54-.74-.7-1.12-.16-.39-.04-.95-.31-1.29-.26-.32-.83-.33-1.19-.59-.33-.23-.51-.77-.94-.94-.37-.15-.89.1-1.33,0-.39-.09-.75-.53-1.2-.57-.4-.04-.84.33-1.29.33s-.89-.37-1.29-.33c-.45.04-.81.49-1.2.57-.45.1-.97-.15-1.33,0-.42.17-.61.71-.93.94-.36.26-.94.27-1.19.59-.27.34-.15.9-.31,1.29-.16.39-.64.7-.7,1.13-.06.41.31.86.32,1.29.02.42-.32.88-.24,1.31.06.34.53.58.65.9.06.17.04.38.03.59-.09,0-.19,0-.29.05-.28.13-.42.55-.42,1.33s.2,2.03,1.22,2.34c.25,2.09,1.14,3.5,2.31,4.68-.06.35-.12.74-.17,1.04-.03.21-.19.37-.39.41-1.25.26-4.98,1.14-6.54,2.79-1.43,1.52-1.53,7.52-1.53,9.66,3.57-.76,7.66-1.2,11.99-1.2s8.41.44,11.99,1.2c0-2.18-.1-8.15-1.53-9.67Z"/>
  <path d="M60.69,40.62c-1.04-.7-2.44-.56-3.67-.4.22-1.77.63-2.95,1.06-3.9.26,0,.51-.02.68-.15.41-.31.36-1.07.65-1.43.32-.39,1.06-.49,1.27-.93.21-.44-.16-1.1-.03-1.58.13-.47.79-.84.85-1.33.06-.48-.48-1.02-.45-1.52.02-.49.61-.97.61-1.46s-.62-.89-.72-1.35c-.09-.46.32-1.09.14-1.52-.18-.44-.91-.58-1.18-.98-.26-.39-.11-1.13-.45-1.46-.33-.33-1.06-.19-1.46-.45-.39-.26-.55-.99-.99-1.16-.43-.17-1.04.26-1.52.19-.45-.07-.89-.67-1.38-.65-.48.02-.92.63-1.4.68-.49.05-1.05-.46-1.51-.37-.49.09-.8.77-1.25.92-.47.16-1.16-.15-1.55.1-.41.26-.38,1-.68,1.38-.28.36-1.01.51-1.18,1-.14.42.33,1,.3,1.53-.03.44-.6.93-.55,1.45.04.43.51.83.82,1.31-.04.3-.04.54-.04.82.03,2.32-.87,2.28-.87,4.49,0,1.16.64,5.21,1.31,5.65.82.55,3.73.75,4.72.77.08.1.04.25-.22.38-.9.42-2.81.56-3.82.59-1.34.7-4.99,2.74-6.18,4.81-.77,1.34-1.49,6.12-1.81,8.9,5.79-.47,16.37-1.14,22.77-7.32-.18-.92-.26-5.66-2.27-7.01Z"/>
  <path d="M15.69,41.26h0c-.59-.29-.85-.62-.96-1.26l-.15-.94c.39-.08.92-.23,1.33-.51.7-.48,2.14-4.46,1.97-5.92-.06-.53-.13-.87-.21-1.15.38-.73,1.22-1.31,1.43-2.1.22-.84-.28-1.81-.21-2.66.07-.87.73-1.75.62-2.6-.09-.72-.95-1.19-1.3-1.82-.34-.61-.27-1.59-.81-2.09-.51-.47-1.49-.35-2.14-.7-.62-.33-1.03-1.22-1.74-1.43-.68-.19-1.51.33-2.23.28-.7-.05-1.44-.71-2.16-.62-.7.09-1.25.9-1.94,1.13-.75.26-1.75,0-2.39.42-.65.43-.8,1.44-1.33,2.03-.5.57-1.49.83-1.86,1.55-.34.66,0,1.63-.22,2.42-.2.72-1,1.36-1.08,2.18-.07.74.57,1.54.59,2.36.02.74-.58,1.58-.47,2.39.1.71.9,1.22,1.09,1.83.22.68-.11,1.57.21,2.12.36.61,1.3.72,1.78,1.17.5.47.69,1.4,1.29,1.69.6.29,1.45-.15,2.13-.05.23.04.47.15.71.27.65.48,1.47.83,2.59.96.1.09,0,.29-.27.39-2.02.72-3.97.04-6.28,1.62-1.29.89-2.23,2.95-2.59,5.44,6.11,6.01,16.97,6.81,22.76,7.28-.27-2.7-.9-7.26-1.84-8.9-1.56-2.71-4.84-4.23-6.31-4.8Z"/>
</svg>