<?xml version="1.0" encoding="UTF-8"?><svg id="Laag_1" xmlns="http://www.w3.org/2000/svg" xmlns:xlink="http://www.w3.org/1999/xlink" viewBox="0 0 64 64"><defs><style>.cls-1{fill:none;}.cls-2{clip-path:url(#clippath);}.cls-3{clip-path:url(#clippath-1);}</style><clipPath id="clippath"><rect class="cls-1" width="64" height="64"/></clipPath><clipPath id="clippath-1"><rect class="cls-1" width="64" height="64"/></clipPath></defs><g class="cls-2"><g class="cls-3"><path d="M57,42H28v-8c0-.41-.04-.8-.12-1.19l24.12-1.37v4.56H30v3h25v-7.73l4.83-.27c.61,0,1.08-.55,.99-1.15l-.67-5.34c-.66-4.32-4.01-7.49-8.75-7.92-4.35-.39-10.97-.57-18.83,0-6.27,.46-20.14,4.38-24.33,10.05,1.71,.33,4.77,.93,5,1,.32,.1,.27,.31,.25,.36H7.43c-3.2,0-5.43,2.44-5.43,5.65v12.35c0,.55,.45,1,1,1H60c.55,0,1-.45,1-1,0-2.21-1.79-4-4-4"/></g></g></svg>