<?xml version="1.0" encoding="UTF-8"?><svg id="Laag_1" xmlns="http://www.w3.org/2000/svg" xmlns:xlink="http://www.w3.org/1999/xlink" viewBox="0 0 64 64"><defs><style>.cls-1{fill:none;}.cls-2{clip-path:url(#clippath);}.cls-3{clip-path:url(#clippath-1);}</style><clipPath id="clippath"><rect class="cls-1" width="64" height="64"/></clipPath><clipPath id="clippath-1"><rect class="cls-1" width="64" height="64"/></clipPath></defs><g class="cls-2"><g class="cls-3"><path d="M43.35,20l3.02-6.04c3.14-.2,5.63-2.78,5.63-5.96s-2.69-6-6-6-6,2.69-6,6c0,1.22,.37,2.35,.99,3.3l-4.35,8.7h6.71Z"/><path d="M45.95,55.02c2.48-3.53,7.67-13.01,8.04-30.98,.02-1.12-.89-2.04-2.01-2.04H12.01c-1.11,0-2.03,.92-2.01,2.04,.37,17.97,5.56,27.45,8.04,30.98-1.51,1.3-2.94,2.99-3.87,4.75-.54,1.01,.2,2.23,1.35,2.23H48.47c1.15,0,1.88-1.22,1.35-2.23-.93-1.76-2.36-3.45-3.87-4.75m-4.95-12.52c0,.28-.22,.5-.5,.5h-5.5v5.5c0,.28-.22,.5-.5,.5h-5c-.28,0-.5-.22-.5-.5v-5.5h-5.5c-.28,0-.5-.22-.5-.5v-5c0-.28,.22-.5,.5-.5h5.5v-5.5c0-.28,.22-.5,.5-.5h5c.28,0,.5,.22,.5,.5v5.5h5.5c.28,0,.5,.22,.5,.5v5Z"/></g></g></svg>