<?xml version="1.0" encoding="UTF-8"?>
<svg id="Zwart" xmlns="http://www.w3.org/2000/svg" viewBox="0 0 64 64">
  <path d="M57.23,19.24c-2.98-1.18-6.03-1.26-9.34,2.53-1.74-3.89-10.31-7.47-14.6,1.1-.22.44-.06.7.09.75,2.7-1.25,6.4-.89,8.6.41-6.09,2.55-8.56,10-4.11,17.9.22.38.47.13.47.13.31-6,3.13-10.33,7.08-11.61-.18,3.86-.86,12.31-6.28,28.54h6.7c3.62-9.04,3.95-22.74,3.65-28.14,6.96,1.68,7.59,11.66,7.59,11.66,0,0,.25.11.46-.21,3.03-4.75,2.62-14.21-5.49-17.62,4.38-.58,7.88,1.56,10.9,7.01.25-.1.29-.33.31-.6.42-4.92-2.54-10.47-6.05-11.85Z"/>
  <path d="M25.34,19.43c.85-.53,4.65-2.6,12.01-2.59.08-.11.08-.25-.03-.45-2.8-5.29-8.73-5.31-13.77-2.11,0,0,2.16-4.47,8.14-6.96.03-.1.03-.25-.31-.41-1.21-.59-4.52-1.73-8.83-.24-3.88,1.34-5.35,4.28-6.39,6.79,0,0-4.22-3.33-9.41-1.2C2.52,13.99.72,18.04.16,19.61c-.14.4-.06.47.04.51,1.22-.64,6.83-3.39,10.64-1.85,0,0-2.38.6-4.95,3.38-2.77,3-3.31,7.76-1.7,11.42.18.41.44.31.44.31.61-1.14,4.15-7.43,8.5-9.31-4.71,6.31-3.04,13.49.4,16.58.3.27.53.22.61.1,0,0-.72-8.01,4.95-13.53.63-.62,1.25-.75,1.37-.47-1.06,1.97-1.91,4.19-2.25,6.3.19,7.96,1.93,19.02,4.55,25.95h7.89c-5.34-14.35-6.4-20.49-7.71-32.67,1.36.29,5.51,1.67,9.98,7.88,0,0,.28.09.4-.38,1.49-6.19-2.52-12.45-8-14.4Z"/>
</svg>