<?xml version="1.0" encoding="UTF-8"?><svg id="Laag_1" xmlns="http://www.w3.org/2000/svg" viewBox="0 0 64 64"><defs><style>.cls-1{fill:none;}</style></defs><rect class="cls-1" width="64" height="64"/><g><path d="m50.36,10h-12.73c-2.01,0-3.64,1.63-3.64,3.64v12.73c0,2.01,1.63,3.64,3.64,3.64h12.73c2.01,0,3.64-1.63,3.64-3.64v-12.73c0-2.01-1.63-3.64-3.64-3.64Zm-1.78,11.5h-9.17c-.83,0-1.5-.67-1.5-1.5s.67-1.5,1.5-1.5h9.17c.83,0,1.5.67,1.5,1.5s-.67,1.5-1.5,1.5Z"/><path d="m50.36,34h-12.73c-2.01,0-3.64,1.63-3.64,3.64v12.73c0,2.01,1.63,3.64,3.64,3.64h12.73c2.01,0,3.64-1.63,3.64-3.64v-12.73c0-2.01-1.63-3.64-3.64-3.64Zm-1.86,14h-9c-.83,0-1.5-.67-1.5-1.5s.67-1.5,1.5-1.5h9c.83,0,1.5.67,1.5,1.5s-.67,1.5-1.5,1.5Zm0-5h-9c-.83,0-1.5-.67-1.5-1.5s.67-1.5,1.5-1.5h9c.83,0,1.5.67,1.5,1.5s-.67,1.5-1.5,1.5Z"/><path d="m26.36,10h-12.73c-2.01,0-3.64,1.63-3.64,3.64v12.73c0,2.01,1.63,3.64,3.64,3.64h12.73c2.01,0,3.64-1.63,3.64-3.64v-12.73c0-2.01-1.63-3.64-3.64-3.64Zm-1.78,11.5h-3.08v3.08c0,.83-.67,1.5-1.5,1.5s-1.5-.67-1.5-1.5v-3.08h-3.08c-.83,0-1.5-.67-1.5-1.5s.67-1.5,1.5-1.5h3.08v-3.08c0-.83.67-1.5,1.5-1.5s1.5.67,1.5,1.5v3.08h3.08c.83,0,1.5.67,1.5,1.5s-.67,1.5-1.5,1.5Z"/><path d="m26.36,34h-12.73c-2.01,0-3.64,1.63-3.64,3.64v12.73c0,2.01,1.63,3.64,3.64,3.64h12.73c2.01,0,3.64-1.63,3.64-3.64v-12.73c0-2.01-1.63-3.64-3.64-3.64Zm-1.64,12.61c.59.59.59,1.54,0,2.12-.29.29-.68.44-1.06.44s-.77-.15-1.06-.44l-2.61-2.61-2.61,2.61c-.29.29-.68.44-1.06.44s-.77-.15-1.06-.44c-.59-.59-.59-1.54,0-2.12l2.61-2.61-2.61-2.61c-.59-.59-.59-1.54,0-2.12.59-.59,1.54-.59,2.12,0l2.61,2.61,2.61-2.61c.59-.59,1.54-.59,2.12,0,.59.59.59,1.54,0,2.12l-2.61,2.61,2.61,2.61Z"/></g></svg>