<?xml version="1.0" encoding="UTF-8"?><svg id="Laag_1" xmlns="http://www.w3.org/2000/svg" xmlns:xlink="http://www.w3.org/1999/xlink" viewBox="0 0 64 64"><defs><style>.cls-1{fill:none;}.cls-2{clip-path:url(#clippath);}.cls-3{clip-path:url(#clippath-1);}</style><clipPath id="clippath"><rect class="cls-1" width="64" height="64"/></clipPath><clipPath id="clippath-1"><rect class="cls-1" width="64" height="64"/></clipPath></defs><g class="cls-2"><g class="cls-3"><path d="M28.67,6.77l7.99-2.79c.45-.16,.45-.79,0-.94L28.67,.23c-.33-.11-.67,.13-.67,.47V6.3c0,.34,.34,.59,.67,.47"/><path d="M50,33.9c.92,0,1.94,0,3,.03v-4.69c0-.75-.42-1.44-1.08-1.78-3.74-1.92-16.27-8.8-23.12-18.3-.39-.54-1.21-.54-1.6,0C20.35,18.67,7.82,25.55,4.08,27.46c-.67,.34-1.08,1.03-1.08,1.78v5.01c0,.74,.4,1.41,1.05,1.76,1.38,.74,3.88,1.54,6.11-.69,0,0,3.25,4.77,11.33,.63,0,0,.77,.15,.03,.89-1.05,1.05-6.31,4.91-11.61,1.26,0,0-1.72,1.16-4.27,1.23C3.6,52.45,1,58,1,58H18c6,0,10-16,10-16,0-.12,2.24,9.31,6.03,13.74-.1-2-.13-4.05-.13-5.74,0-3.21,.21-7.66,.71-10.67,.4-2.42,2.3-4.32,4.73-4.73,3.01-.5,7.46-.71,10.67-.71m-29.05-5.9H9.34c4.82-2.8,12.18-7.65,17.71-13.88-.91,3.04-3.38,10.64-6.1,13.88m14.1,0c-2.72-3.24-5.18-10.84-6.1-13.88,5.53,6.23,12.89,11.09,17.71,13.88h-11.61Z"/><path d="M62.43,39.83c-.19-1.17-1.09-2.07-2.26-2.26-3.39-.57-9.04-.57-10.17-.57s-6.78,0-10.17,.57c-1.17,.2-2.07,1.09-2.26,2.26-.56,3.39-.56,9.04-.56,10.17s0,6.78,.56,10.17c.19,1.17,1.09,2.07,2.26,2.26,3.39,.56,9.04,.56,10.17,.56s6.78,0,10.17-.56c1.17-.2,2.07-1.09,2.26-2.26,.57-3.39,.57-9.04,.57-10.17,0-3.39,0-6.78-.57-10.17m-3.43,12.67c0,.28-.22,.5-.5,.5h-5.5v5.5c0,.28-.22,.5-.5,.5h-5c-.28,0-.5-.22-.5-.5v-5.5h-5.5c-.28,0-.5-.22-.5-.5v-5c0-.28,.22-.5,.5-.5h5.5v-5.5c0-.28,.22-.5,.5-.5h5c.28,0,.5,.22,.5,.5v5.5h5.5c.28,0,.5,.22,.5,.5v5Z"/></g></g></svg>