<?xml version="1.0" encoding="UTF-8"?><svg id="Laag_1" xmlns="http://www.w3.org/2000/svg" xmlns:xlink="http://www.w3.org/1999/xlink" viewBox="0 0 64 64"><defs><style>.cls-1{fill:none;}.cls-2{clip-path:url(#clippath);}.cls-3{clip-path:url(#clippath-1);}</style><clipPath id="clippath"><rect class="cls-1" width="64" height="64"/></clipPath><clipPath id="clippath-1"><rect class="cls-1" width="64" height="64"/></clipPath></defs><g class="cls-2"><g class="cls-3"><path d="M32,8c-13.25,0-24,10.75-24,24s10.75,24,24,24,24-10.74,24-24S45.25,8,32,8M14.79,25.87l5.55-.81,2.48-5.03,2.48,5.03,5.55,.81-4.02,3.91,.95,5.53-4.96-2.61-4.96,2.61,.95-5.53-4.01-3.91Zm29.4,14.18c-1.93,4-6.66,8.08-12.19,8.08s-10.26-4.07-12.19-8.08c-.23-.47,.32-.95,.75-.66,2.93,1.98,6.97,3.58,11.44,3.58s8.52-1.61,11.44-3.58c.43-.29,.97,.19,.75,.66m1.95-4.74l-4.96-2.61-4.96,2.61,.95-5.53-4.02-3.91,5.55-.81,2.48-5.03,2.48,5.03,5.55,.81-4.01,3.91,.95,5.53Z"/></g></g></svg>