<?xml version="1.0" encoding="UTF-8"?><svg id="Laag_1" xmlns="http://www.w3.org/2000/svg" xmlns:xlink="http://www.w3.org/1999/xlink" viewBox="0 0 64 64"><defs><style>.cls-1{fill:none;}.cls-2{clip-path:url(#clippath);}.cls-3{clip-path:url(#clippath-1);}</style><clipPath id="clippath"><rect class="cls-1" width="64" height="64"/></clipPath><clipPath id="clippath-1"><rect class="cls-1" width="64" height="64"/></clipPath></defs><g class="cls-2"><g class="cls-3"><path d="M8.61,42.03c1.6-1.9,5.45-3.18,9.38-4.19-1.18-.54-2.61-.97-3.44-1.19-.29-.09-.49-.34-.57-.63-.1-.38-.14-.85-.14-.85,.78-.9,1.36-1.98,1.56-3.4,.79-.24,.94-1.23,.94-1.84s-.11-.94-.33-1.05c-.19-.09-.37-.02-.49,.04,.12-1.25,.3-3.86-.23-4.83-.57-1.04-1.26-1.45-2.57-1.11-.86-.47-1.45-1.06-2.96-.64-1.05,.29-2.2,.83-2.8,1.63-.68,.9-.52,3.74-.4,5.01-.08-.06-.32-.23-.58-.1-.22,.1-.33,.43-.33,1.05s.16,1.6,.94,1.84c.18,1.47,.75,2.51,1.51,3.37,0,0-.02,.44-.1,.87-.06,.3-.25,.57-.55,.65-1.24,.34-4.15,1.23-5.12,2.24-1.23,1.28-1.33,6.11-1.33,6.11H7.14c.43-1.31,.91-2.3,1.47-2.97"/><path d="M50.39,35c-.09,.81-.11,.87-.2,1.38-.05,.28-.22,.53-.49,.63-.63,.23-1.73,.65-2.81,1.15,3.22,.9,6.96,2.18,8.46,3.82,.62,.68,1.13,1.67,1.57,2.91h6.08s-.06-3.93-1.28-5.19c-.42-.43-1.25-.9-2.16-1.33-1.2-.58-2.53-1.09-3.25-1.36-.27-.1-.45-.35-.49-.63-.06-.35-.13-.87-.18-1.3,1.81-.07,3.3-.25,3.92-.48,.12-.05,.18-.16,.13-.27-.34-.73-1.22-3.12-1.33-4.36-.27-3.06-.26-8.55-4.54-7.17,0,0-2.72-1.7-4.93,1.15-1.55,2.01-1.17,4.65-1.24,6.12-.04,1.05-.92,3.47-1.29,4.09-.08,.13-.05,.27,.1,.32,.67,.24,2.17,.42,3.93,.53"/><path d="M20.06,28.49c.52,3.4,2.58,6.61,6.27,9.74,1.75,1.49,4.3,1.76,5.67,1.76s3.92-.27,5.67-1.76c3.63-3.09,5.73-6.36,6.26-9.74,1.33-1.22,2.07-3.17,2.07-5.56,0-.74,0-2.7-1.23-4.04,.3-3.34,.51-8.5-.79-10.59-1.6-2.57-3.55-3.82-7.26-2.98-2.44-1.16-4.09-1.88-8.36-.84-2.97,.72-6.21,1.91-7.92,3.88-1.65,1.91-1.54,7.22-1.27,10.61-1.16,1.33-1.16,3.22-1.16,3.96,0,2.39,.74,4.33,2.06,5.55m1.61-7.72c.14-.06,.27-.09,.4-.09,.24,0,.46,.09,.61,.18,.14,.65,.25,1.14,.29,1.31,.21,.85,1.02,.77,1.02,.77v-6.74c2.07-.15,6.19-.75,10.75-3.11l5.25,3.53v6.33s.82,.08,1.02-.77c.04-.17,.15-.66,.29-1.31,.16-.09,.37-.18,.61-.18,.13,0,.26,.02,.4,.09,.45,.21,.77,.9,.77,2.17s-.42,3.31-2.04,3.82c0,3.82-2.68,6.92-5.34,9.18-.78,.66-2.25,1.13-3.72,1.13s-2.94-.46-3.72-1.13c-2.66-2.26-5.34-5.32-5.34-9.18-1.62-.5-2.04-2.54-2.04-3.82s.32-1.96,.77-2.17"/><path d="M48.86,41.05c.03,.11,.04,.22,.04,.33,0,.76-.62,1.39-1.38,1.39s-1.38-.62-1.38-1.39c0-.41,.18-.77,.46-1.02-1.84-.52-3.66-.96-4.97-1.29-1.19,4.77-3.31,10.91-6.61,15.23-.38-2.13-1.01-4.99-1.7-6.92,.93-1.43,2.19-3.65,2.19-3.65,0,0-1.07-1.74-3.5-1.74s-3.5,1.74-3.5,1.74c0,0,1.25,2.22,2.19,3.65-.68,1.91-1.31,4.75-1.69,6.88-3.17-4.34-5.28-10.5-6.5-15.25-1.33,.32-3.24,.75-5.18,1.29,.32,.25,.54,.65,.54,1.09,0,.76-.62,1.39-1.39,1.39s-1.39-.62-1.39-1.39c0-.16,.03-.3,.08-.44-2.16,.71-4.07,1.55-4.88,2.51-2.09,2.48-3.18,14.26-3.79,19.54H57.52c-.78-6.84-1.51-17.01-3.81-19.54-.8-.88-2.7-1.7-4.85-2.4m-32.74,3.85c0-.77,.62-1.39,1.39-1.39s1.39,.62,1.39,1.39-.62,1.38-1.39,1.38-1.39-.62-1.39-1.38m1.76,3.27c0-.77,.62-1.39,1.39-1.39s1.39,.62,1.39,1.39-.62,1.39-1.39,1.39-1.39-.62-1.39-1.39m3.64,4.29c-.77,0-1.39-.62-1.39-1.39s.62-1.39,1.39-1.39,1.39,.62,1.39,1.39-.62,1.39-1.39,1.39m2.54,2.7c-.76,0-1.39-.62-1.39-1.39s.62-1.38,1.39-1.38,1.39,.62,1.39,1.38-.62,1.39-1.39,1.39m2.97,2.32c-.76,0-1.39-.62-1.39-1.39s.62-1.39,1.39-1.39,1.39,.62,1.39,1.39-.62,1.39-1.39,1.39m4.97,4.28c-1.53,0-2.77-1.24-2.77-2.77s1.24-2.77,2.77-2.77,2.77,1.24,2.77,2.77-1.24,2.77-2.77,2.77m4.96-4.28c-.76,0-1.38-.62-1.38-1.39s.62-1.39,1.38-1.39,1.38,.62,1.38,1.39-.62,1.39-1.38,1.39m2.97-2.32c-.76,0-1.38-.62-1.38-1.39s.62-1.38,1.38-1.38,1.39,.62,1.39,1.38-.62,1.39-1.39,1.39m2.54-2.7c-.76,0-1.39-.62-1.39-1.39s.62-1.39,1.39-1.39,1.38,.62,1.38,1.39-.62,1.39-1.38,1.39m2.26-2.91c-.77,0-1.39-.62-1.39-1.39s.62-1.39,1.39-1.39,1.39,.62,1.39,1.39-.62,1.39-1.39,1.39m1.76-3.27c-.77,0-1.39-.62-1.39-1.38s.62-1.39,1.39-1.39,1.38,.62,1.38,1.39-.62,1.38-1.38,1.38"/></g></g></svg>