<?xml version="1.0" encoding="UTF-8"?><svg id="Laag_1" xmlns="http://www.w3.org/2000/svg" xmlns:xlink="http://www.w3.org/1999/xlink" viewBox="0 0 64 64"><defs><style>.cls-1{fill:none;}.cls-2{clip-path:url(#clippath);}.cls-3{clip-path:url(#clippath-1);}</style><clipPath id="clippath"><rect class="cls-1" width="64" height="64"/></clipPath><clipPath id="clippath-1"><rect class="cls-1" width="64" height="64"/></clipPath></defs><g class="cls-2"><g class="cls-3"><path d="M21.78,49.81c2.9,.74,6.42,1.19,10.22,1.19,6.02,0,11.33-1.13,14.6-2.76l10.37,10.37,2.18-2.18L8.47,5.75l-2.18,2.18,7.95,7.95c-.24,9.23-6.2,9.19-8.34,17.08-2.53,9.32,2.1,14.46,6.57,15.61-1.06-1.15-1.66-2.48-1.66-3.97v-4.48c0-4.02,3.29-8.76,18.41-9.28l3.16,3.16c-.12,0-.24,0-.37,0-9.94,0-18,1.88-18,6.12v4.47c0,1.33,1.32,2.62,3.52,3.7l-2.53,3.56c-.62,.87-.45,2.07,.38,2.73,2.15,1.7,7.08,4.42,16.62,4.42s14.53-2.75,16.66-4.45c.82-.65,1-1.81,.42-2.68l-.66-.99c-3.25,1.08-7.72,1.76-12.67,1.76-5.53,0-10.49-.82-13.79-2.14-.57-.23-.36-.54-.18-.69m16.57-4.74c.29-.98,1.09-1.67,1.96-1.67,.15,0,.3,.02,.44,.06,.48,.14,.87,.5,1.09,1.01,.21,.49,.24,1.08,.08,1.64-.29,.98-1.09,1.67-1.96,1.67-.15,0-.3-.02-.44-.06-.49-.14-.87-.5-1.09-1.01-.21-.49-.24-1.08-.08-1.64m-6.35-1.26c1.21,0,2.2,.99,2.2,2.2s-.99,2.2-2.2,2.2-2.2-.99-2.2-2.2,.99-2.2,2.2-2.2m-9.85,.67c.22-.51,.61-.87,1.09-1.01,.14-.04,.29-.06,.44-.06,.87,0,1.67,.69,1.96,1.67,.16,.56,.14,1.14-.08,1.64-.22,.51-.61,.87-1.09,1.01-.14,.04-.29,.06-.44,.06-.87,0-1.67-.69-1.96-1.67-.16-.56-.14-1.14,.08-1.64m-3.42,.44c-.15,.45-.43,.75-.8,.83-.07,.02-.14,.02-.21,.02-.67,0-1.32-.71-1.54-1.7-.26-1.11,.1-2.11,.83-2.28,.71-.17,1.5,.59,1.75,1.68,.12,.51,.11,1.02-.03,1.44m5.35-27.71l13.83,13.83c12.47,1.02,15.29,5.34,15.29,9.04v4.54c0,.52-.08,1.02-.22,1.5l1,1c4.18-3.49,7.58-11.53,1.78-19.78-5.6-7.96-3.78-15.48-3.78-15.48-5.28,2.73-4.74,7.1-6.01,8.74-1,1.28-2.63,1.38-3.64-.36-3.1-5.33,2.85-12.16,2.85-12.16-10,1-13.08,9.48-13.08,9.48-2.37-7.75-8.9-10.43-8.9-10.43,1.75,3.86,1.54,7.46,.9,10.1m25.92,25.92v-3.05c0-2.74-3.35-4.46-8.39-5.34l8.39,8.39Z"/></g></g></svg>