<?xml version="1.0" encoding="UTF-8"?><svg id="Laag_1" xmlns="http://www.w3.org/2000/svg" xmlns:xlink="http://www.w3.org/1999/xlink" viewBox="0 0 64 64"><defs><style>.cls-1{fill:none;}.cls-2{clip-path:url(#clippath);}.cls-3{clip-path:url(#clippath-1);}</style><clipPath id="clippath"><rect class="cls-1" width="64" height="64"/></clipPath><clipPath id="clippath-1"><rect class="cls-1" width="64" height="64"/></clipPath></defs><g class="cls-2"><g class="cls-3"><path d="M9.04,41.79c0-2.24,1.21-4.31,3.15-5.41l15.58-8.83c2.61-1.47,4.22-4.25,4.22-7.24,0-4.58-3.73-8.32-8.32-8.32h-7.99c-.82-2.33-3.04-4-5.65-4-3.31,0-6,2.69-6,6s2.69,6,6,6c2.61,0,4.83-1.67,5.65-4h7.99c2.38,0,4.32,1.94,4.32,4.32,0,1.55-.84,2.99-2.19,3.76l-15.58,8.83c-3.2,1.81-5.19,5.21-5.19,8.89,0,5.63,4.58,10.21,10.21,10.21h17.75v-4H15.25c-3.42,0-6.21-2.79-6.21-6.21m.96-24.79c-1.66,0-3-1.34-3-3s1.34-3,3-3,3,1.34,3,3-1.34,3-3,3"/><path d="M60.74,33.42l-22.74-8.37v-1.17c0-.41-.67-.88-1.5-.88s-1.5,.47-1.5,.88V57h3v-15.99c.06-.02,.26-.07,.36,.25l1.16,5.81,21.31-12.05c.58-.33,.52-1.37-.09-1.6"/></g></g></svg>