<?xml version="1.0" encoding="UTF-8"?><svg id="Laag_1" xmlns="http://www.w3.org/2000/svg" xmlns:xlink="http://www.w3.org/1999/xlink" viewBox="0 0 64 64"><defs><style>.cls-1{fill:none;}.cls-2{clip-path:url(#clippath);}.cls-3{clip-path:url(#clippath-1);}</style><clipPath id="clippath"><rect class="cls-1" width="64" height="64"/></clipPath><clipPath id="clippath-1"><rect class="cls-1" width="64" height="64"/></clipPath></defs><g class="cls-2"><g class="cls-3"><path d="M19.86,34.55h0c-.78,.29-2.26,.87-3.58,1.53-1.01,.49-1.92,1.01-2.38,1.5-.5,.52-.82,1.46-1.03,2.42h21.28c-.21-.97-.53-1.9-1.03-2.42-.46-.48-1.38-1.01-2.38-1.5-1.32-.65-2.79-1.23-3.58-1.53-.3-.11-.49-.39-.55-.71-.07-.39-.14-.98-.2-1.47,1.99-.08,3.64-.28,4.32-.54,.14-.05,.2-.17,.14-.31-.38-.82-1.35-3.5-1.47-4.91-.3-3.44-.29-9.61-5.01-8.06,0,0-3-1.91-5.43,1.29-1.71,2.25-1.3,5.22-1.36,6.88-.05,1.18-1.01,3.9-1.42,4.6-.09,.15-.06,.3,.1,.36,.74,.27,2.39,.47,4.33,.6-.05,.49-.13,1.1-.22,1.55-.06,.32-.24,.59-.54,.71"/><path d="M30.13,45.71c1.47-1.55,4.63-2.81,7.54-3.71H6V16H41v3.71c.54-.21,1.11-.4,1.74-.57,.86-.24,1.6-.32,2.26-.33v-4.81c0-1.1-.9-2-2-2H4c-1.1,0-2,.9-2,2v30c0,1.1,.9,2,2,2H29.9c.08-.1,.15-.2,.24-.29"/><path d="M59.36,47.23c-1.5-1.58-6.13-2.98-8.19-3.54-.97-.26-1.12-1.24-1.22-2.24,1.31-1.47,2.29-3.24,2.62-5.58,1.26-.39,1.51-1.96,1.51-2.93s-.17-1.51-.52-1.67c-.17-.08-.33-.08-.48-.05,.13-2.04,.25-6.07-.6-7.59-.93-1.66-2.16-2.09-4.31-1.55-1.41-.75-2.37-1.49-4.84-.82-1.72,.47-3.6,1.23-4.59,2.51-1.07,1.38-.86,5.39-.68,7.45-.16-.04-.35-.05-.53,.04-.35,.16-.52,.69-.52,1.67s.25,2.55,1.51,2.93c.3,2.47,1.29,4.19,2.61,5.61-.09,.86-.18,1.68-.93,2.09-1.65,.44-6.82,1.95-8.45,3.67-1.94,2.05-2.7,9.68-2.7,9.68H62.03s-.73-7.63-2.67-9.68"/></g></g></svg>