<?xml version="1.0" encoding="UTF-8"?><svg id="Laag_1" xmlns="http://www.w3.org/2000/svg" xmlns:xlink="http://www.w3.org/1999/xlink" viewBox="0 0 64 64"><defs><style>.cls-1{fill:none;}.cls-2{clip-path:url(#clippath);}.cls-3{clip-path:url(#clippath-1);}</style><clipPath id="clippath"><rect class="cls-1" width="64" height="64"/></clipPath><clipPath id="clippath-1"><rect class="cls-1" width="64" height="64"/></clipPath></defs><g class="cls-2"><g class="cls-3"><path d="M47.02,31.49c-1.63-1.71-6.66-3.23-8.9-3.85-.6-.16-1.01-.68-1.14-1.28-.12-.54-.18-1.15-.18-1.15,1.43-1.59,2.48-3.52,2.84-6.06,1.36-.42,1.64-2.12,1.64-3.19s-.19-1.64-.57-1.81c-.18-.09-.36-.09-.52-.05,.14-2.21,.27-6.6-.65-8.24-1.01-1.8-2.35-2.27-4.68-1.68-1.53-.81-2.58-1.62-5.26-.88-1.86,.51-3.91,1.34-4.98,2.72-1.16,1.49-.94,5.85-.74,8.09-.17-.05-.38-.06-.58,.04-.38,.18-.57,.75-.57,1.81s.27,2.77,1.64,3.19c.44,3.64,2.26,5.78,4.5,7.66,.59,.5,1.66,.76,2.77,.81,.1,.18,.1,.39-.3,.53-.67,.22-2.75,.53-5-.64-.02,0-.03-.02-.05-.03-1.68,.45-7.48,2.11-9.28,4.01-2.11,2.22-2.93,10.51-2.93,10.51H49.92s-.79-8.29-2.9-10.51"/><path d="M36.91,52.63l-2.91,1.92v-6.02c0-1.1-.88-1.32-1.98-1.32s-1.99,.23-1.99,1.32v6.1l-2.98-1.75c-.55-.33-1.26-.2-1.68,.28-.42,.49-.42,1.21,0,1.7l5.67,6.89c.26,.31,.64,.48,1.04,.47,.4,0,.78-.2,1.02-.52l5.59-7.18c.39-.51,.35-1.23-.09-1.7-.44-.47-1.15-.55-1.69-.2"/><path d="M56.84,53.3l-3.77-8.28c-.27-.58-.93-.88-1.55-.71-.62,.17-1.03,.76-.96,1.41l.35,3.47-5.33-2.8c-.97-.51-1.58,.17-2.1,1.14-.51,.97-.72,1.86,.25,2.37l5.39,2.84-2.93,1.82c-.55,.34-.77,1.02-.53,1.62,.24,.6,.88,.93,1.51,.79l8.74-1.82c.39-.09,.72-.35,.9-.71,.18-.36,.18-.78,.01-1.14"/><path d="M18.42,46.38l-5.33,2.8,.35-3.47c.06-.64-.34-1.23-.96-1.41-.62-.17-1.27,.13-1.55,.71l-3.77,8.28c-.17,.36-.17,.78,0,1.14,.18,.36,.51,.62,.9,.71l8.74,1.82c.63,.14,1.26-.19,1.51-.79,.24-.6,.02-1.28-.53-1.62l-2.93-1.82,5.39-2.84c.97-.51,.76-1.4,.25-2.37-.51-.97-1.12-1.65-2.09-1.14"/></g></g></svg>