<?xml version="1.0" encoding="UTF-8"?><svg id="Laag_1" xmlns="http://www.w3.org/2000/svg" xmlns:xlink="http://www.w3.org/1999/xlink" viewBox="0 0 64 64"><defs><style>.cls-1{fill:none;}.cls-2{clip-path:url(#clippath);}.cls-3{clip-path:url(#clippath-1);}</style><clipPath id="clippath"><rect class="cls-1" width="64" height="64"/></clipPath><clipPath id="clippath-1"><rect class="cls-1" width="64" height="64"/></clipPath></defs><g class="cls-2"><g class="cls-3"><path d="M53.77,3.21c-.05,.08-.1,.16-.16,.24-1.19,1.86-2.36,3.6-3.52,5.23-.08,.11-.16,.22-.24,.33-.2,.28-.4,.56-.6,.83-1.35,1.85-2.68,3.54-3.98,5.1-.22,.34-.38,.73-.46,1-.27,.99,.15,1.86,.32,2.17,0,0-.08,.1-.24,0-.02-.01-.04-.03-.05-.04-.4-.29-.74-.83-.89-1.34v-.03l-.02-.04v-.02s-.01-.05-.02-.08c-.18-.75-.04-1.42,.04-1.71h-.01s-.13-.05-.24,.07c-.28,.3-.48,.75-.58,1.21-.13,.52-.74,1.98-1.22,2.64-.22,.23-.44,.46-.66,.69-.96,.99-1.91,1.92-2.83,2.77-2.21,2.04-4.31,3.72-6.3,5.13-1.28,.91-2.52,1.71-3.7,2.42l-1.57,2.97c-.08,.16-.16,.32-.25,.47-.11,.21-.23,.41-.34,.6-.05,.09-.11,.16-.16,.21-.16,.16-.31,.14-.39,.11,.12-.56,.23-1.12,.34-1.68,.07-.39,.14-.77,.21-1.16,.02-.12,.04-.22,.05-.3-2.23,1.23-4.23,2.18-5.94,3.04-1.44,.72-2.67,1.38-3.69,2.11-.18,.13-.35,.26-.52,.39-.37,.3-.71,.61-1,.94-1.02,1.14-1.53,3.09-1.57,4.64,0,.34,.06,1.5,.1,1.84,.1,.76,.48,2.03,.85,2.74,.07,.14,.15,.28,.23,.41,.49-.41,1.11-.92,1.68-1.4,.22-.19,.43-.37,.65-.54,.06-.05,.12-.1,.18-.14,.36-.3,.64-.54,.76-.66,.12-.12,4-3.26,4.36-3.56,1.89-1.63,7.09-5.11,8.08-5.96l.05-.05h.02c1.51-1.24,2.88-2.35,3.23-2.62,2.49-2,4.75-3.95,6.79-5.78,.1-.04,.27-.08,.12,.12-.31,.41-.75,.94-1.31,1.55-.22,.24-.47,.5-.73,.78-.4,.42-.85,.86-1.35,1.34-.12,.12-.38,.34-.73,.65-1.89,1.63-6.48,5.46-7.47,6.31-.02,.01-.04,.03-.05,.05h-.02c-1.51,1.24-2.88,2.35-3.23,2.62-1.31,1.05-2.55,2.09-3.73,3.1-.13,.12-.25,.23-.38,.35-1.31,1.24-2.56,2.55-3.73,3.93-.15,.17-.55,.64-1.08,1.26-.97,1.13-2.4,2.78-3.61,4.21-.43,.51-.84,.98-1.18,1.4-.56,.66-.97,1.16-1.11,1.35-2.17,2.6-4.56,5.01-7,7.19,.06,.09,.23,.24,.63,.07,.49-.22,1.03-.48,1.6-.79,.4-.22,.82-.46,1.26-.72,.41-.25,.84-.53,1.28-.82,.66-.45,1.34-.94,2.04-1.48,.26-.2,.79-.73,1.48-1.42,.54-.55,1.17-1.21,1.83-1.9,.31-.32,.62-.66,.93-.99,.81-.86,1.62-1.72,2.31-2.46,.53-.57,1-1.06,1.36-1.43,.5,.42,1,.77,1.51,1.06,.17,.09,.33,.18,.5,.26,.81,.39,1.64,.64,2.48,.74,.96,.12,1.93,.07,2.91-.14,3.72-.79,7.61-3.82,11.29-8.01-1.56,.83-3.34,1.19-5.01,.82-.48-.11-.95-.28-1.4-.51,.12,.01,.23,.02,.35,.02,.54,.05,1.13-.03,1.74-.19,.37-.09,.72-.22,1.06-.37,2.58-1.07,6.03-3.57,7.96-5.86,.23-.28,.44-.55,.63-.82,.5-.72,.96-1.48,1.39-2.25,.04-.07,.08-.14,.13-.2-.23-.05-.46-.06-.66-.05-1.03,.06-1.72,.73-1.95,.99,0,0-.12-.05-.07-.23,0-.02,.02-.04,.02-.06,.15-.47,.55-.97,.99-1.27l.03-.02s.02-.02,.04-.03h.01c.32-.22,.66-.35,.95-.43,.1-.02,.21-.04,.31-.07,.19-.05,.38-.12,.57-.2,.08-.03,.15-.07,.22-.11,.51-.28,1-.81,1.17-1.31l.99-1.68c.82-1.49,1.6-2.98,2.34-4.47,.26-.53,.51-1.05,.76-1.58,.25-.52,.49-1.04,.72-1.56,.73-1.62,1.4-3.2,2-4.73,.21-.54,.41-1.08,.61-1.6,1.02-2.77,1.76-5.31,2.18-7.41,.33-1.69,.4-3.1,.33-4.15-.21-3.3-1.21-3.25-2.01-1.99"/></g></g></svg>