<?xml version="1.0" encoding="UTF-8"?><svg id="Laag_1" xmlns="http://www.w3.org/2000/svg" xmlns:xlink="http://www.w3.org/1999/xlink" viewBox="0 0 64 64"><defs><style>.cls-1{fill:none;}.cls-2{clip-path:url(#clippath);}.cls-3{clip-path:url(#clippath-1);}</style><clipPath id="clippath"><rect class="cls-1" width="64" height="64"/></clipPath><clipPath id="clippath-1"><rect class="cls-1" width="64" height="64"/></clipPath></defs><g class="cls-2"><g class="cls-3"><path d="M52.61,44.11c-2.18-2.38-8.46-4.49-11.39-5.37-.13-.96-.73-4.59-1.02-6.28,1.31-2.37,1.97-4.69,1.93-6.95,1.09-1.43,1.49-3.47,1.08-5.83-.13-.73-.46-2.66-1.89-3.77-.27-3.34-.95-8.47-2.58-10.29-2.01-2.25-4.14-3.15-7.63-1.69-2.59-.72-4.34-1.15-8.34,.61-2.78,1.22-5.76,2.94-7.1,5.18-1.29,2.16-.27,7.38,.57,10.67-.91,1.51-.59,3.38-.46,4.1,.22,1.29,.65,2.4,1.23,3.31-.73,1.04-.93,2.48-.97,3.51-.12,2.95,.66,4.39,4.54,8.15-3.16,1.07-7.44,2.78-9.17,4.66-2.87,3.12-4.39,14.89-4.39,14.89h9.06l7.06-17.4c.48-1.19,.18-2.57-.72-3.44-4.1-3.95-4.25-4.78-4.18-6.78,.04-1.08,.19-2.73,1.4-2.73,.19,0,.4,.04,.64,.12,.34-1.38,.84-1.9,1.47-1.9,.3,0,.63,.12,.98,.32,.26-.7,.69-.99,1.14-.99,.41,0,.84,.23,1.2,.61,1.86,1.94,1.93,3.37,1.64,4.26-1.29-1.32-2.19-2.23-2.26-2.29-.28-.24-.45-.08-.49-.02,0,0,4.44,7.18,4.7,7.62,.71,1.21,1.09,2.62,.81,4.02-.19,.94-2.34,11.7-3.72,18.6h31.29s-1.51-11.76-4.39-14.89M26.62,25.3c-.8-.83-1.79-1.29-2.79-1.29-.74,0-1.41,.24-1.97,.68-.96-.04-1.89,.33-2.6,1.15-.35-.61-.56-1.3-.66-1.86-.22-1.25-.02-1.99,.39-2.27,.35-.25,.75-.18,1.01-.09,.25,.62,.44,1.08,.51,1.24,.35,.8,1.14,.59,1.14,.59l-1.15-6.64c2.01-.5,5.95-1.81,10.01-4.91l5.75,2.57,1.08,6.23s.81-.06,.87-.94c.01-.18,.03-.67,.06-1.34,.21-.17,.56-.38,.98-.26,.48,.13,.91,.76,1.13,2.01,.22,1.26,.15,3.34-1.35,4.11,.63,3.65-1.37,6.83-3.72,9.67-.65,.79-2.02,1.48-3.46,1.73-.36,.06-.72,.08-1.07,.09-.35-.67-1.76-2.98-2.16-3.63,.19-.44,.33-.96,.37-1.57,.1-1.75-.69-3.52-2.37-5.27m5.76,24.04c-.62-.47-1.37-1.1-2.14-1.81,.7-3.49,1.25-6.24,1.34-6.69,.24-1.2,.16-2.43-.22-3.65,.44,.15,.92,.26,1.47,.31,2.58,.22,4.33-1.06,4.94-1.6,.19,1.17,.63,3.97,.62,4.37,.33,3.49-3.56,7.32-6.01,9.08"/></g></g></svg>