<?xml version="1.0" encoding="UTF-8"?><svg id="Laag_1" xmlns="http://www.w3.org/2000/svg" xmlns:xlink="http://www.w3.org/1999/xlink" viewBox="0 0 64 64"><defs><style>.cls-1{fill:none;}.cls-2{clip-path:url(#clippath);}.cls-3{clip-path:url(#clippath-1);}</style><clipPath id="clippath"><rect class="cls-1" width="64" height="64"/></clipPath><clipPath id="clippath-1"><rect class="cls-1" width="64" height="64"/></clipPath></defs><g class="cls-2"><g class="cls-3"><path d="M62.66,8.5c-11.39-.96-21.48,9.69-17.71,18.23-2.31,1.65-4.1,2.28-5.5,2.81-1.48,.56-1.42,1.74-.98,2.76,.47,1.09,1.31,1.74,2.4,1.28,5.69-2.44,8.95-4.8,13.43-12.26,.1,.04,.28,.16,.18,.58-.65,2.59-2.38,6.23-4.96,10.05,2.86,1.32,6.47,.6,8.4-1.47,5.64-6.03-1.58-9.54,5.12-21.2,.19-.32-.01-.75-.38-.78"/><path d="M29.82,23.77c5.03-2.69,7.78-8.79,7.2-11.35-.08-.37-.33-.32-.42-.29-1.51,1.7-3.47,4.01-5.27,5.51-5.9,4.87-10.55,3.09-11.67,.98-.21-.06-.42,.1-.54,.62-1.01,4.34,4.86,7.73,10.7,4.53"/><path d="M13.37,33.63c2.59,2.36,6.11,4.82,10.33,4.21,5.65-.81,7.6-8.28,6.35-8.33-13.72,10.33-18.98-12.28-28.89-6.08-.5,.31-.24,.65-.24,.65h-.01c6.47,1.34,8.21,5.68,12.47,9.55"/><path d="M35.88,41.06c-16.59,3.83-19.64,3.78-27.47,.78h0s-.46,.05-.23,.74c.98,2.95,9.17,6.5,21.82,4.26,9.06-1.6,15.96-1.91,20.37,1.03,2.74,1.84,2.44,4.44,2.11,6.5,9.96,1.96,7.43-18.85-16.61-13.31"/></g></g></svg>