<?xml version="1.0" encoding="UTF-8"?><svg id="Laag_1" xmlns="http://www.w3.org/2000/svg" xmlns:xlink="http://www.w3.org/1999/xlink" viewBox="0 0 64 64"><defs><style>.cls-1{fill:none;}.cls-2{clip-path:url(#clippath);}.cls-3{clip-path:url(#clippath-1);}</style><clipPath id="clippath"><rect class="cls-1" width="64" height="64"/></clipPath><clipPath id="clippath-1"><rect class="cls-1" width="64" height="64"/></clipPath></defs><g class="cls-2"><g class="cls-3"><path d="M15.91,44.01c-.1-1.04-.04-1.99,.19-2.84-1.95,.87-3.75,1.88-4.72,2.94-2.87,3.12-4.39,14.89-4.39,14.89h7.86c-.03-.05-.08-.1-.11-.16-.19-.48-4.4-11.26,1.16-14.83"/><path d="M52.61,44.11c-1.05-1.15-3.07-2.23-5.19-3.15,.53,1.64,.42,3.57-.3,5.76,1.19,.83,1.98,2.21,1.98,3.77,0,2.54-2.06,4.6-4.6,4.6s-4.6-2.06-4.6-4.6,2.06-4.6,4.6-4.6c.09,0,.17,.02,.26,.03,.64-1.94,.68-3.52,.08-4.72-.8-1.59-2.58-2.21-3.58-2.44v-.02h-.03c-.15-1.12-.36-2.42-.55-3.49,1.79-2.17,2.89-4.4,3.25-6.7,1.33-1.22,2.07-3.17,2.07-5.56,0-.74,0-2.7-1.23-4.04,.3-3.34,.51-8.5-.79-10.59-1.6-2.56-3.55-3.82-7.26-2.98-2.44-1.16-4.09-1.88-8.36-.84-2.97,.72-6.21,1.91-7.92,3.88-1.65,1.91-1.54,7.22-1.27,10.61-1.16,1.33-1.16,3.23-1.16,3.96,0,2.39,.74,4.33,2.06,5.55,.38,2.51,1.61,4.91,3.71,7.26-.11,.81-.23,1.75-.35,2.73-.55,.16-1.32,.4-2.21,.69-1.93,.68-2.86,1.93-2.86,3.88,1-.13,2,.02,2.95,.47,4.56,2.1,6.77,9.88,6.87,10.21,.08,.28,.04,.55-.06,.8,0,.02-.01,.04-.02,.07-.03,.07-.08,.14-.13,.2-.05,.07-.11,.14-.19,.22-.01,.01-.02,.03-.04,.03-.66,.64-1.98,1.29-2.94,1.59-1.14,.36-1.48-.18-1.75-.97-.27-.78-.16-1.3,.85-1.91,.38-.23,.89-.51,1.43-.7-.87-2.36-2.7-6.17-5.06-7.26-.85-.4-1.67-.38-2.57,.03-3.48,1.61-1.91,8.02-1.04,10.77,.51-.22,1.04-.38,1.45-.47,1.15-.26,1.59,.03,1.94,.78,.36,.75,.49,1.37-.58,1.91-.08,.04-.18,.09-.28,.13H57s-1.51-11.76-4.39-14.89m-20.6,5.23c-2.3-1.75-6.23-5.53-5.79-9.02,.24-1.91,.04-.55,.82-5.44-2.28-2.2-4.1-4.87-4.1-8.06-1.62-.5-2.04-2.55-2.04-3.82s.32-1.96,.77-2.17c.39-.19,.77-.05,1.01,.09,.14,.65,.25,1.14,.29,1.31,.21,.85,1.02,.77,1.02,.77v-6.75c2.07-.15,6.19-.75,10.75-3.11l5.25,3.53v6.33s.82,.08,1.02-.77c.04-.17,.15-.66,.29-1.31,.24-.14,.62-.27,1.01-.09,.45,.21,.77,.9,.77,2.17s-.42,3.31-2.04,3.82c0,3.7-2.53,6.5-5.34,8.88-.78,.67-2.25,1.11-3.72,1.11-1.06,0-2.13-.29-2.93-.64,.61,.93,1.65,2.07,3.58,2.58,3.15,.84,5.46-.91,5.46-.91,0,0,.28,1.91,.28,2.42,.33,3.49-3.92,7.32-6.38,9.08"/><path d="M44.5,48.5c-1.11,0-2,.9-2,2s.89,2,2,2,2-.89,2-2-.9-2-2-2"/></g></g></svg>