<?xml version="1.0" encoding="UTF-8"?><svg id="Laag_1" xmlns="http://www.w3.org/2000/svg" xmlns:xlink="http://www.w3.org/1999/xlink" viewBox="0 0 64 64"><defs><style>.cls-1{fill:none;}.cls-2{clip-path:url(#clippath);}.cls-3{clip-path:url(#clippath-1);}</style><clipPath id="clippath"><rect class="cls-1" width="64" height="64"/></clipPath><clipPath id="clippath-1"><rect class="cls-1" width="64" height="64"/></clipPath></defs><g class="cls-2"><g class="cls-3"><path d="M52.39,23.48c.33,.21,.65,.41,.95,.61,1.07-.37,1.92-.78,2.34-1.17,1.34-1.21,2.35-4.1,2.97-5.86h0c.5-1.5,.09-3.17-1.3-3.92-.44,.81-2.37,6.36-3.6,7.01-.28,.08-2.88,.63-5.06,1.03l3.71,2.3Zm-7.32-4.83c2.1,.92,3.95-.02,4.88-2.13,1.06-2.41,.36-4.26-1.69-5.15-2.15-.94-3.98,.07-4.93,2.25-1.01,2.29-.36,4.12,1.74,5.04m10.63,23.5l-1.59-3.88-.08,3.8-1.61,2.78-3.2-.21,1.85,1.46,.15,4.55-2.89,.88,.24,4.12,1.07-3.15,2.71-.25,.84-6.15,3.71-1.37-2.35-.64,1.15-1.94Zm-22.87-25.26c2.22,.55,3.9-.69,4.45-2.93,.63-2.55-.37-4.25-2.54-4.79-2.28-.56-3.91,.75-4.48,3.06-.6,2.43,.35,4.12,2.57,4.67m30.41,23.75c-.26-1.03-3.2-4.32-5.03-6.3,.6-.72,1.24-1.57,1.45-2.1,.46-1.2-.54-2.07-1.35-2.18-.39-.06-1.3,.03-2.28,.47-.89-2.25-2.11-3.5-4.78-5.15-3.45-2.14-7.3-4.52-7.3-4.52,0,0-2.14-1.32-3.74-1.9-.59-.21-1.25,.04-1.59,.59l-2.54,4.1c-.34,.55-.27,1.26,.18,1.69,.69,.66,1.66,1.36,2.38,1.85l3.18-3.41c.19-.16,.3-.05,.33-.01l-8.02,12.96-5.98,9.66c-.01,.42-.03,.83-.05,1.25-.1,2.6-.24,4.43-.41,6.76l-.02,.29c1.21,.75,2.6,1.61,3.93,2.43,2.67,1.65,4.33,2.18,6.74,1.98,.05,1.07,.38,1.93,.6,2.25,.47,.68,1.69,1.18,2.56,.24,.39-.42,.85-1.37,1.23-2.23,2.59,.76,6.85,1.91,7.89,1.69,1.39-.3,3.64-2.96,7.62-9.39,3.98-6.43,5.36-9.63,5-11.01m-26.57,9.75l-1.03,3.55c-.23,.79-1.21,1.12-1.81,.61l-.98-.82c-.77-.73-1.19-1.85-.65-2.92l2.01-3.92c.12-.23,.44-.29,.61-.11l1.28,1.37c.51,.61,.72,1.43,.57,2.24m-1.1-7.5l-1.9-1.18,4.71-7.62,1.9,1.18-4.72,7.62Zm7.69-10.62l2.61-3.55c.71-.96,1.9-1.08,2.9-.72l1.17,.51c.72,.31,.86,1.34,.26,1.9l-2.71,2.5c-.66,.5-1.48,.68-2.26,.49l-1.8-.54c-.24-.07-.33-.38-.17-.59m12.47,17.83c-3.22,5.21-5.23,7.75-5.65,8.01-.85-.02-5.65-1.36-7.5-2.03,.63-2.17,2.9-6.61,5.45-10.74s5.52-8.13,7.18-9.67c1.43,1.35,4.77,5.05,5.17,5.8-.05,.49-1.42,3.42-4.65,8.63m-29.31-16.28c1.08-.06,3.82-1.18,5.29-1.89,.77-.37,1.49-.76,1.95-1.7,.45-.94,.32-1.9,.26-2.19-2.34,.92-5.35,2.12-6.92,2.58-.6-.44-1.35-1.19-3.29-3.41-1.19-1.35-2.14-2.81-5.74-3.94-3.04-.95-8.09-1.21-9.6-.48-1.65,.75-3.48,3.2-4.6,4.69h0c-.93,1.28-1.05,3,.05,4.13,.66-.64,4.18-5.35,5.56-5.59,.43,.02,2.81,.09,4.55,.47-1.6,3.28-3.98,9.08-4.06,10.73-.17,3.28,2.21,4.25,4.62,5.23,0,0,.02,.13-.25,.18-.15,.03-1.26,.02-2.55,.01-.4,1.5-1.33,4.85-1.87,6.23-1.8,1.75-4.59,4.75-5.3,5.46-2.01,1.98-.8,5.23-.8,5.23,2.1-1.5,7.29-5.44,8.99-7.36,.57-.65,.91-1.19,1.29-2.05,.84-1.88,2.17-5.09,2.89-6.92,1.65-.02,3.78-.13,4.67-.15,.15,1.82,.27,6.51,.35,8.67,.05,1.16,1.19,3.12,3.52,3.75,.22-3.01,.37-4.94,.49-7.94,.06-1.56,.12-3.21,.06-4.98-.05-1.05-.39-2.49-1.01-3.19-.58-.66-2.52-1.55-7.11-1.9,.76-2.77,2.45-5.29,3.48-7.5,1.77,2.04,3.91,3.92,5.1,3.86m-5.72-11.16c2.16,.76,3.94-.32,4.7-2.5,.87-2.48,.03-4.27-2.08-5.01-2.22-.78-3.96,.38-4.75,2.62-.82,2.36-.04,4.13,2.12,4.89"/></g></g></svg>