<?xml version="1.0" encoding="UTF-8"?><svg id="Laag_1" xmlns="http://www.w3.org/2000/svg" xmlns:xlink="http://www.w3.org/1999/xlink" viewBox="0 0 64 64"><defs><style>.cls-1{fill:none;}.cls-2{clip-path:url(#clippath);}.cls-3{clip-path:url(#clippath-1);}</style><clipPath id="clippath"><rect class="cls-1" width="64" height="64"/></clipPath><clipPath id="clippath-1"><rect class="cls-1" width="64" height="64"/></clipPath></defs><g class="cls-2"><g class="cls-3"><path d="M55.33,22.99c-.17-2.21-2.13-3.99-4.33-3.99h-11v-4c0-2.21-1.79-4-4-4h-8c-2.21,0-4,1.79-4,4v4H13c-2.2,0-4.17,1.79-4.33,3.99-.62,8.66-.62,17.35,0,26.01,.16,2.21,2.13,3.99,4.33,3.99H51c2.2,0,4.17-1.79,4.33-3.99,.62-8.66,.62-17.35,0-26.01m-33.33,11.51l-6-3,3.89-7.78,4.11-.72,1.89,3.72-3.89,7.78Zm14-15.5h-8v-4h8v4Z"/></g></g></svg>