<?xml version="1.0" encoding="UTF-8"?><svg id="Laag_1" xmlns="http://www.w3.org/2000/svg" xmlns:xlink="http://www.w3.org/1999/xlink" viewBox="0 0 64 64"><defs><style>.cls-1{fill:none;}.cls-2{clip-path:url(#clippath);}.cls-3{clip-path:url(#clippath-1);}</style><clipPath id="clippath"><rect class="cls-1" width="64" height="64"/></clipPath><clipPath id="clippath-1"><rect class="cls-1" width="64" height="64"/></clipPath></defs><g class="cls-2"><g class="cls-3"><path d="M31.5,11.53c2.74,.02,4.35-1.89,4.37-4.66,.02-3.15-1.63-4.85-4.3-4.87-2.82-.02-4.35,1.97-4.37,4.81-.02,3,1.55,4.7,4.3,4.72"/><path d="M39.76,30.72c0-3.08-2.75-5.86-4.05-7.74,0-.01,0-.03,0-.04,2.97-2.3,.05-3.4-1.16-6.5-.64-1.64-.79-3.44-4.55-3.44-1.92,0-4,.82-5.53,3.84-3.08,6.09-5.47,18.1-5.47,18.1,0,0,2.37,.59,3.99-1.95,.98-1.98,3.05-9.19,3.47-10.63,.15-.09,.33-.12,.29,.3-.52,5.82-4.48,18.05-4.99,19.99,1.05,.78,3.81,2.17,8.03,2.22,.08,.22-.08,.33-.64,.58-.59,.27-2.16,.82-3.56,.77-.53,2.61-2.04,7.12-2.57,10.28-.43,2.56,1.24,4.86,2.61,5.26,1.72-5.43,2.72-8.33,3.69-11.14,.34,2.81,.59,5.3,.73,6.25,.5,3.3,2.58,4.96,3.95,4.86v-17.27c1.81-.45,3.13-1.16,3.13-1.16-.17-2.22-.51-4.5-1.09-6.69,1.18-.78,3.72-3.18,3.72-5.89"/></g></g></svg>