<?xml version="1.0" encoding="UTF-8"?><svg id="Laag_1" xmlns="http://www.w3.org/2000/svg" xmlns:xlink="http://www.w3.org/1999/xlink" viewBox="0 0 64 64"><defs><style>.cls-1{fill:none;}.cls-2{clip-path:url(#clippath);}.cls-3{clip-path:url(#clippath-1);}</style><clipPath id="clippath"><rect class="cls-1" width="64" height="64"/></clipPath><clipPath id="clippath-1"><rect class="cls-1" width="64" height="64"/></clipPath></defs><g class="cls-2"><g class="cls-3"><path d="M56.96,40.27c-2.5-2.5-5.83-3.88-9.37-3.88s-6.87,1.38-9.37,3.88l-12.73,12.73c-3.8,3.8-9.99,3.8-13.79,0-3.8-3.8-3.8-9.99,0-13.79l2.12-2.12,2.34,2.34c.61,.61,1.54,.76,2.31,.37l12.85-6.43,.71,.71c.39,.39,1.02,.39,1.41,0l3.53-3.54c.39-.39,.39-1.02,0-1.41l-2.83-2.83,9.19-9.19c.78-.78,.78-2.05,0-2.83-.78-.78-2.05-.78-2.83,0l-9.19,9.19-7.07-7.07,9.19-9.19c.78-.78,.78-2.05,0-2.83h0c-.78-.78-2.05-.78-2.83,0l-9.19,9.19-2.83-2.83c-.39-.39-1.02-.39-1.41,0l-3.54,3.54c-.39,.39-.39,1.02,0,1.41l5.66,5.66c-.02,.06-.14,.23-.43,.08l-5.2-3.47-.05-.09-5.69,11.39c-.39,.77-.23,1.7,.37,2.31l2.34,2.34-2.12,2.12c-5.56,5.56-5.56,14.6,0,20.15,5.56,5.56,14.6,5.56,20.15,0l12.73-12.73c1.65-1.65,3.85-2.56,6.19-2.56s4.53,.91,6.19,2.56c3.41,3.41,3.41,8.96,0,12.37l-2.12,2.12,3.18,3.18,2.12-2.12c5.17-5.17,5.17-13.57,0-18.74"/></g></g></svg>