<?xml version="1.0" encoding="UTF-8"?><svg id="Laag_1" xmlns="http://www.w3.org/2000/svg" xmlns:xlink="http://www.w3.org/1999/xlink" viewBox="0 0 64 64"><defs><style>.cls-1{fill:none;}.cls-2{clip-path:url(#clippath);}.cls-3{clip-path:url(#clippath-1);}</style><clipPath id="clippath"><rect class="cls-1" width="64" height="64"/></clipPath><clipPath id="clippath-1"><rect class="cls-1" width="64" height="64"/></clipPath></defs><g class="cls-2"><g class="cls-3"><path d="M58.65,51.9c-.96-1.6-4.1-2.85-5.3-4.97-.73-1.29-.77-3.75-2.04-5.54-1.7-2.4-4.11-3.61-5.26-3.95-3.71-1.1-4.11-5.5-6.05-7.43-1.57-1.56-3.57,.59-5.04-.79-.69-.65-1.47-1.24-2.28-1.66-.33-2.77-.12-5.47,.54-7.89,6.39,.69,10.71-8.11,7.59-15.05-.21-.46-.83-.53-1.15-.15-5.38,6.57-9.26,3.21-11.53,8.14-.84,1.83-.4,4.19,1.29,5.64,1.45-2.73,3.26-4.81,4.59-5.92,.2-.17,.32-.11,.37-.07-2.75,4.42-4.61,9.49-4.57,14.77-1.73,.35-3.29,1.76-4.76,3.59-1.16,1.44-2.26,3.13-3.35,4.76-1.89,2.83-2.94,3.67-4.94,4.45-5.44,2.13-5.78,5.25-7.17,8.88-.53,1.37-4.72,3.87-5.62,5.46-.98,1.71-.98,3.02-.98,4.82H60.68s-.33-4.25-2.04-7.1"/><path d="M23.68,24.49c2.99,1.24,5.1-.25,5.1-.25,0,0-.21-3.81-3.36-4.8-2.23-.7-3.99-.29-4.83,0-.32,.11-.49,.45-.4,.77,.31,1.05,1.22,3.33,3.49,4.27"/><path d="M8.03,32.92c.13,.47,.42,.84,.84,.98,.42,.14,.87,.02,1.26-.28,.86,.03,1.56-.27,1.74-.83,.19-.56-.2-1.22-.9-1.71-.13-.47-.42-.84-.84-.98-.42-.14-.87-.02-1.26,.28-.86-.03-1.56,.27-1.74,.83-.18,.56,.2,1.22,.9,1.71"/><path d="M48.46,27.44c.34,.48,1.1,.56,1.91,.29,.46,.17,.93,.15,1.29-.1,.36-.25,.53-.69,.52-1.18,.53-.68,.7-1.42,.36-1.9-.34-.48-1.1-.56-1.91-.29-.46-.17-.93-.15-1.29,.1-.36,.26-.53,.69-.52,1.18-.53,.68-.7,1.42-.36,1.9"/><path d="M55,38.32c.29,.33,.74,.45,1.23,.39,.73,.45,1.48,.55,1.92,.16,.44-.39,.44-1.15,.08-1.93,.12-.47,.06-.94-.24-1.27-.29-.33-.74-.45-1.23-.39-.73-.45-1.48-.55-1.92-.16-.44,.39-.44,1.15-.08,1.93-.12,.47-.06,.94,.24,1.27"/><path d="M10.48,13.28c.54,.24,1.23-.07,1.79-.72,.48-.09,.88-.34,1.06-.74,.18-.4,.1-.87-.15-1.28,.11-.85-.12-1.58-.65-1.82-.54-.24-1.23,.07-1.79,.72-.48,.09-.88,.34-1.06,.74-.18,.4-.1,.87,.15,1.28-.11,.85,.12,1.58,.65,1.82"/></g></g></svg>