<?xml version="1.0" encoding="UTF-8"?><svg id="Laag_1" xmlns="http://www.w3.org/2000/svg" xmlns:xlink="http://www.w3.org/1999/xlink" viewBox="0 0 64 64"><defs><style>.cls-1{fill:none;}.cls-2{clip-path:url(#clippath);}.cls-3{clip-path:url(#clippath-1);}</style><clipPath id="clippath"><rect class="cls-1" width="64" height="64"/></clipPath><clipPath id="clippath-1"><rect class="cls-1" width="64" height="64"/></clipPath></defs><g class="cls-2"><g class="cls-3"><path d="M34.4,17.09c1.1,1.55,2.06,3.22,2.8,5,1.58-.51,3.24-.86,4.93-1.06,.44-1.73,2-3.02,3.87-3.02s3.58,1.41,3.93,3.26c1.39,.26,2.75,.62,4.05,1.09-3.21-7.31-9.96-12.71-18.08-14.04-.82,1.19-1.55,2.44-2.21,3.74,.8,.73,1.31,1.78,1.31,2.95,0,.77-.23,1.48-.6,2.08"/><path d="M32.96,18.47c-.53,.3-1.13,.48-1.77,.51-.47,2.06-.72,4.2-.75,6.4,.02,0,.03,.02,.05,.03,1.51-1.04,3.13-1.93,4.84-2.63-.64-1.52-1.44-2.96-2.37-4.31"/><path d="M49.86,40.13c.08,.28,.14,.57,.14,.87,0,1.66-1.34,3-3,3-.92,0-1.74-.42-2.29-1.08-1.83,.74-3.76,1.28-5.76,1.58-.08,.65-.31,1.26-.66,1.77,2.01,2.24,4.33,4.19,6.92,5.77,5.91-3.9,9.99-10.35,10.69-17.78-1.68,2.27-3.72,4.25-6.03,5.86"/><path d="M46,26c-1.85,0-3.39-1.26-3.85-2.97-1.46,.19-2.89,.49-4.26,.93,.84,2.56,1.31,5.29,1.31,8.13,0,3.13-.57,6.13-1.59,8.91,.48,.41,.86,.93,1.1,1.52,1.84-.29,3.62-.78,5.3-1.46,0-.02,0-.04,0-.06,0-1.66,1.34-3,3-3,.62,0,1.2,.19,1.68,.51,2.99-2.08,5.49-4.82,7.27-8.02-.12-1.94-.47-3.83-1.02-5.62-1.63-.72-3.35-1.26-5.15-1.61-.53,1.59-2.01,2.74-3.78,2.74"/><path d="M31,11c.32,0,.62,.05,.92,.12,.53-1.05,1.11-2.07,1.75-3.05-.55-.04-1.11-.06-1.67-.06-2.39,0-4.7,.36-6.88,1.01,1.39,.72,2.7,1.57,3.94,2.52,.58-.32,1.23-.52,1.94-.52"/><path d="M26,28c0-1.46,1.05-2.68,2.43-2.94,.05-2.22,.33-4.39,.8-6.48-1.32-.65-2.24-2-2.24-3.57,0-.76,.23-1.47,.6-2.08-1.57-1.18-3.27-2.19-5.1-2.96-4.86,2.1-8.88,5.76-11.45,10.34,.21,3.5,1.18,6.79,2.73,9.72,.07,0,.14-.02,.22-.02,2.21,0,4,1.79,4,4,0,.52-.11,1.01-.28,1.46,.92,.96,1.92,1.84,3,2.64,1.21-3.38,3.1-6.43,5.5-9-.13-.34-.21-.71-.21-1.1"/><path d="M27.53,30.6c-2.27,2.47-4.02,5.41-5.1,8.66,2.66,1.64,5.66,2.76,8.86,3.26,.21-.53,.54-1.01,.95-1.4-1.66-3.11-2.82-6.53-3.39-10.13-.48-.03-.92-.16-1.31-.39"/><path d="M32.14,46.79c-.59-.61-.98-1.4-1.09-2.29-3.31-.51-6.41-1.63-9.19-3.26-.43,1.79-.66,3.66-.66,5.58,0,2.48,.39,4.88,1.09,7.13,.13,.06,.26,.12,.39,.17,3.74-1.61,6.99-4.16,9.46-7.33"/><path d="M16.52,37.08c-.69,.57-1.56,.92-2.52,.92-2.21,0-4-1.79-4-4,0-1.42,.74-2.65,1.85-3.37-1.1-2.15-1.92-4.47-2.39-6.91-.95,2.58-1.47,5.37-1.47,8.28,0,8.84,4.78,16.56,11.89,20.72-.44-1.9-.69-3.87-.69-5.9,0-2.32,.31-4.58,.89-6.72-1.28-.9-2.47-1.91-3.56-3.02"/><path d="M36.77,47.57c-.54,.27-1.13,.43-1.77,.43-.4,0-.77-.08-1.13-.18-2.28,2.98-5.19,5.47-8.53,7.24,2.12,.61,4.35,.94,6.66,.94,4.08,0,7.91-1.02,11.28-2.81-2.41-1.58-4.59-3.48-6.51-5.62"/><path d="M35,40c.28,0,.56,.03,.82,.09,.89-2.5,1.38-5.19,1.38-8,0-2.6-.42-5.1-1.18-7.44-1.49,.62-2.91,1.38-4.23,2.28,.13,.33,.21,.7,.21,1.08,0,.99-.48,1.85-1.22,2.4,.52,3.47,1.62,6.76,3.2,9.75,.33-.09,.66-.15,1.02-.15"/></g></g></svg>