<?xml version="1.0" encoding="UTF-8"?><svg id="Laag_1" xmlns="http://www.w3.org/2000/svg" xmlns:xlink="http://www.w3.org/1999/xlink" viewBox="0 0 64 64"><defs><style>.cls-1{fill:none;}.cls-2{clip-path:url(#clippath);}.cls-3{clip-path:url(#clippath-1);}</style><clipPath id="clippath"><rect class="cls-1" width="64" height="64"/></clipPath><clipPath id="clippath-1"><rect class="cls-1" width="64" height="64"/></clipPath></defs><g class="cls-2"><g class="cls-3"><path d="M51.43,13.73c-1.07,.58-2.51,.84-3.57-.13-1.37-1.25,.26-2.88,1.46-4.5,1.1-1.49,1.53-3.35,.22-4.08-1.87-1.05-3.3,.37-4.06,2.23-.69,1.71-.89,3.43-1.62,4-.82,.64-2.2-.04-3.41-1.18-1.74-1.63-3.77-3.09-5.28-1.42-1.3,1.44,.38,3.22,3.07,4.37,2.31,.99,3.84,.54,3.82,2.72,0,.8-.35,1.64-.98,2.09-1.89,1.34-5.87,.85-6.14,3.76-.27,2.81,4.21,4.34,6.82,.62,1.18-1.68,2.5-1.82,3.58-1.29,3.52,1.72,1.08,4.61,3.15,6.89,1.36,1.51,3.72,1.17,4.53-1.35,1.21-3.78-6.2-7.44-4.73-9.19,.61-.72,2.06-.42,3.46-.38,2.65,.08,3.84-1.68,3.32-2.92-.53-1.24-2.05-1.08-3.63-.24"/><path d="M43.08,25.69c-1.75-.9-4.32,2.79-1.55,4.3,2.77,1.52,3.89-3.11,1.55-4.3"/><path d="M59.21,10.49c-2.35-1.12-3.82,1.09-2.54,2.86,2.57,3.56,5.17-1.6,2.54-2.86"/><path d="M39.9,34.66c-1.84,1.51-3.16,2.98-4.72,5.16-1.4,1.97-3.69,1.04-3.95-.29,0-.01,0-.02,0-.03-.37-2.03-.24-2.71-.13-4.14l1.28-15.01c.04-1.12-.8-2.07-1.92-2.16h0c-1.11-.09-2.1,.72-2.23,1.83l-1.49,14.11c-.05,.45-.41,.8-.87,.82h-.02c-.48,.02-.9-.34-.95-.82l-1.62-15.84c-.15-1.11-1.15-1.9-2.27-1.79h0c-1.11,.11-1.94,1.08-1.88,2.19l1.38,16.22c.04,.46-.25,.87-.69,1h-.02c-.51,.16-1.04-.15-1.18-.66l-3.63-13.22c-.34-1.06-1.47-1.67-2.54-1.37h0c-1.08,.3-1.72,1.4-1.47,2.49l3.68,14.46c.1,.4-.05,.81-.38,1.06h-.02c-.51,.4-1.25,.22-1.52-.35l-4.27-8.88c-.47-.87-1.54-1.22-2.43-.79h0c-.89,.43-1.28,1.49-.89,2.4l4.65,10.21c.52,1.15,.9,2.35,1.17,3.58,.52,2.45,1.45,5.83,2.94,8.62,2.1,3.93,4.65,5.81,10.67,5.51,10.02-.51,10.65-10.92,13.83-15.82,1.43-2.2,2.75-4.17,4.92-6.8,.86-1.05,.87-1.83,.25-2.41-.64-.59-1.96-.69-3.68,.73"/></g></g></svg>