<?xml version="1.0" encoding="UTF-8"?><svg id="Laag_1" xmlns="http://www.w3.org/2000/svg" xmlns:xlink="http://www.w3.org/1999/xlink" viewBox="0 0 64 64"><defs><style>.cls-1{fill:none;}.cls-2{clip-path:url(#clippath);}.cls-3{clip-path:url(#clippath-1);}</style><clipPath id="clippath"><rect class="cls-1" width="64" height="64"/></clipPath><clipPath id="clippath-1"><rect class="cls-1" width="64" height="64"/></clipPath></defs><g class="cls-2"><g class="cls-3"><path d="M36,12s-8.95-1-17-6C10.95,11,2,12,2,12c0,18,2.69,28,17,33,14.31-5,17-15,17-33M7,21.5s2.01-2.5,4.5-2.5,4.5,2.5,4.5,2.5c0,0-2.01,2.5-4.5,2.5s-4.5-2.5-4.5-2.5m12,12.84c-2.28,0-4.36,.69-5.95,1.83,.37-2.4,2.89-4.26,5.95-4.26s5.58,1.86,5.95,4.26c-1.59-1.14-3.66-1.83-5.95-1.83m3-12.84s2.01-2.5,4.5-2.5,4.5,2.5,4.5,2.5c0,0-2.02,2.5-4.5,2.5s-4.5-2.5-4.5-2.5m26.26-.47c-3.75,.87-7.42,1.07-10.47,1-.31,3.2-.82,6.1-1.61,8.73,.27,.03,.54,.09,.8,.18,2.35,.8,3.46,3.81,3.46,3.81,0,0-2.71,1.72-5.06,.92-.35-.12-.66-.29-.95-.48-1.77,3.5-4.31,6.37-7.9,8.66,.88,5.29,3.7,9.81,9.22,14.11,15.16-.14,20.92-8.75,26.69-25.79,0,0-8.15-3.82-14.17-11.14m-9.71,28.66c-2.9-.98-4.69-3.55-4.27-5.94,1.14,1.58,2.88,2.91,5.05,3.64,2.16,.73,4.36,.74,6.22,.18-1.12,2.15-4.1,3.11-7,2.12m11.04-9.2c-2.35-.8-3.46-3.81-3.46-3.81,0,0,2.71-1.72,5.06-.92,2.35,.8,3.46,3.81,3.46,3.81,0,0-2.71,1.72-5.06,.92"/></g></g></svg>