<?xml version="1.0" encoding="UTF-8"?><svg id="Laag_1" xmlns="http://www.w3.org/2000/svg" xmlns:xlink="http://www.w3.org/1999/xlink" viewBox="0 0 64 64"><defs><style>.cls-1{fill:none;}.cls-2{clip-path:url(#clippath);}.cls-3{clip-path:url(#clippath-1);}</style><clipPath id="clippath"><rect class="cls-1" width="64" height="64"/></clipPath><clipPath id="clippath-1"><rect class="cls-1" width="64" height="64"/></clipPath></defs><g class="cls-2"><g class="cls-3"><path d="M27.82,51.61c-.05-.81,.05-1.48,.29-2.08l1.99-5.21c-2.27-6.05-4.38-13.14-4.28-19,0,0,9.28,.11,13.03,8.48,0,0,.48,.12,.68-.88,1.58-7.9-1.51-13.79-9.88-15.4,0,0,4.75-1.68,16.48,1.26,.16-.08,.27-.15,.18-.61-1.6-7.73-10.35-11.56-17.68-7.3,0,0,3.39-5.03,11.05-6.99,.05-.12,.07-.29-.3-.55-1.36-.93-5.16-2.88-10.63-1.84-4.93,.94-7.22,4.23-8.91,7.08,0,0-4.51-4.77-11.17-3.11C3.28,6.82,1.77,11.16,1.1,13.1c-.17,.49-.02,.67,.09,.73,1.59-.56,7.05-2.91,11.38-.37,0,0-2.98,.31-6.57,3.21C2.12,19.81,.62,25.47,1.94,30.17c.1,.37,.34,.53,.48,.45,.93-1.27,6.32-8.25,11.91-9.76-6.79,6.8-6.04,15.77-2.43,20.1,.31,.38,.61,.36,.72,.23,0,0,1.29-9.45,8.68-15.68,.34-.29,.62-.33,.71-.21-.77,1.41-2.6,4.9-3.1,7.3,0,0,2.33,17.92,8.09,27.39h4.41c-.03-.23-.06-.47-.09-.71-2.08-1.68-3.36-4.36-3.5-7.67"/><path d="M62.9,50.72l-3.65-9.56h0c.76,.33,1.64-.02,1.97-.78,.33-.76-.02-1.64-.78-1.97-.44-.19-4.37-1.84-7.08-1.3-1.36,.27-2.36,.69-3.6,1.07,.15-.36,.24-.76,.24-1.17,0-1.66-1.34-3-3-3s-3,1.34-3,3c0,.42,.08,.81,.24,1.17-1.24-.38-2.24-.8-3.6-1.07-2.72-.53-6.65,1.11-7.09,1.3-.76,.33-1.11,1.21-.78,1.97,.33,.75,1.19,1.1,1.95,.79l-3.64,9.55c-.06,.14-.08,.44-.06,.76,.18,4.34,2.79,6.52,5.98,6.52s5.77-2.14,5.98-6.42c.01-.25,.04-.51-.09-.86l-4.08-10.68c.46-.05,.89-.05,1.24,.02,1.65,.32,2.9,1.01,4.94,1.39v17.56h-3c-1.66,0-3,1.34-3,3v1h16v-1c0-1.66-1.34-3-3-3h-3v-17.56c2.03-.37,3.28-1.06,4.94-1.39,.34-.07,.76-.07,1.22-.02l-4.08,10.68c-.06,.14-.08,.44-.06,.76,.18,4.34,2.79,6.52,5.98,6.52s5.77-2.14,5.98-6.42c.01-.25,.04-.51-.09-.86m-22.8,.28c0,2.67-1.44,4-3.1,4-.35,0-.69-.07-1-.19,1.16-.45,2-1.71,2-3.81h-4.03l3.02-7.92s3.12,7.92,3.11,7.92m16.9,4c-.35,0-.69-.07-1-.19,1.16-.45,2-1.71,2-3.81h-4.03l3.02-7.92s3.12,7.92,3.11,7.92c0,2.67-1.44,4-3.1,4"/></g></g></svg>