<?xml version="1.0" encoding="UTF-8"?>
<svg id="Zwart" xmlns="http://www.w3.org/2000/svg" viewBox="0 0 64 64">
  <path d="M23.6,38.55l.42-.34c1.25-1.03,1.2-3.16.17-4.41-.7-.85-1.88-1.31-2.96-1.21.98-3.32-2.96-5.48-4.99-3.8l-.99.82c.02-3.07-3.38-4.53-5.49-2.79l-2.39,1.98c-1.94,1.6-1.71,3.66-.68,4.92,1.12,1.35,2.83,1.45,4.09.81-.05.86.21,1.76.76,2.42.7.85,1.88,1.31,2.96,1.21-.31,1.04-.07,2.29.63,3.14.83,1,2.31,1.47,3.52,1.1-.14.94.12,1.98.73,2.71,1.03,1.25,3.16,1.65,4.69.4l1.17-.96c1.62-1.34,1.66-3.53.62-4.78-.55-.66-1.38-1.09-2.24-1.2Z"/>
  <path d="M20.91,21.62c1.6,2.05,6.72.51,9.15-.45,5.01-1.98,5.5-3.27,8.37-.95l9.8,7.92c6.66-2.09,7.83-4.07,7.83-4.07l-6.28-12.82-5.98,2c-2.32.77-3.86-.54-4.84-1.2-2.1-1.41-4.85-1.4-6.93.05-2.08,1.44-5.23,4.09-10.03,6.58-1.42.74-1.77,2.07-1.09,2.94Z"/>
  <path d="M37.22,21.72c-1.36-1.1-1.32-1.03-3.56,0-1.78.82-6.14,2.84-9.93,2.84-1.97,0-3.43-.59-4.34-1.75-1.41-1.81-.8-4.53,1.72-5.84,2.05-1.07,3.79-2.17,5.28-3.19l-2.36-1.64c-2.08-1.44-4.83-1.46-6.93-.05-.99.67-2.53,1.98-4.84,1.2l-5.98-2L0,24.12s.94,1.58,5.89,3.4c2.98-2.7,4.13-3.39,5.92-3.39s3.49.87,4.48,2.43c2.08-.75,4.48.08,5.78,1.65.62.75,1.02,1.7,1.15,2.7,3.13,1.06,4.28,4.34,3.34,6.87,2.17,1.73,2.46,4.82.96,7.04,1.61,1.36,3.28.99,4.47.04v-6.33c0-5.3,5.47-9.31,13.21-10.3-3.03-2.48,2.01,1.57-7.99-6.53Z"/>
  <path d="M49,50c7.85,0,14-3.37,14-7.68v-3.65c0-4.3-6.15-7.67-14-7.67s-14,3.37-14,7.67v3.65c0,.95.31,1.85.86,2.68-.55.83-.86,1.72-.86,2.66v3.65c0,4.3,6.15,7.68,14,7.68s14-3.37,14-7.68v-3.65c0-.2-.03-.41-.05-.61-.71.9-4.57,5.14-13.61,5.14-8.02,0-10.78-3.86-11.07-4.38-.12-.21-.2-.44-.08-.57,2.55,1.69,6.41,2.75,10.81,2.75ZM37.7,39c0-2.84,5.06-5.15,11.3-5.15s11.3,2.31,11.3,5.15-5.06,5.15-11.3,5.15-11.3-2.31-11.3-5.15Z"/>
  <path d="M43.21,39.47c.48.86,1.7,1.36,3.38,1.36,1.51,0,2.53-.34,3.03-1.02l.49-.65c.4-.54.75-.71,1.47-.71.65,0,1.31.28,1.31.92,0,.44-.07.79-.26,1.25l-.11.28h2.25l.05-.13c.16-.42.21-.77.22-1.17h1.71v-1.06h-1.91c-.52-.9-1.87-1.43-3.65-1.43-1.56,0-2.51.36-3.09,1.18l-.45.64c-.29.42-.64.57-1.3.57-.46,0-1.23-.11-1.23-.83,0-.36.06-.64.21-1.01l.11-.27-2.16-.08-.05.12c-.14.31-.21.63-.24.97h-1.71v1.06h1.94Z"/>
</svg>