<?xml version="1.0" encoding="UTF-8"?><svg id="Laag_1" xmlns="http://www.w3.org/2000/svg" xmlns:xlink="http://www.w3.org/1999/xlink" viewBox="0 0 64 64"><defs><style>.cls-1{fill:none;}.cls-2{clip-path:url(#clippath);}.cls-3{clip-path:url(#clippath-1);}</style><clipPath id="clippath"><rect class="cls-1" width="64" height="64"/></clipPath><clipPath id="clippath-1"><rect class="cls-1" width="64" height="64"/></clipPath></defs><g class="cls-2"><g class="cls-3"><path d="M40.34,18.86c-2.3-4.51-6.56-10.22-11.57-10.46l2.73,13.41c3.36-.76,6.35-1.78,8.85-2.95m-11.82,3.54l-2.72-13.39c-4.47,2.16-6.18,8.95-6.56,13.95,2.86,.16,6.02-.02,9.28-.56m2.52,12.37l-1.91-9.4c-3.35,.56-6.64,.81-9.98,.63,.02,3.49,.45,6.56,1.17,9.69,3.19,.04,6.82-.24,10.72-.92m-9.91,3.94c.92,3.01,2.11,5.78,3.54,8.21,2.62-.06,5.52-.35,8.66-.91l-1.69-8.29c-3.54,.62-7.14,.97-10.51,.99m23.12-7.78c-.54-3.12-1.32-6.07-2.65-9.29-2.76,1.27-5.97,2.35-9.5,3.15l1.91,9.39c3.84-.85,7.3-1.98,10.24-3.25m2.84-1.35c3.96-2.07,6.56-4.34,7.28-6.25-1.08-2.79-2.65-5.3-4.58-7.44-1.31,1.55-3.17,3.02-5.48,4.35,1.3,3.1,2.17,6.09,2.78,9.33M19.12,11.75c-3.56,2.26-6.43,5.41-8.36,9.08,1.59,1,3.61,1.5,5.46,1.8,.29-3.69,1.13-7.6,2.9-10.88m23.91,5.71c2.03-1.2,3.57-2.47,4.57-3.7-3.27-2.79-7.27-4.69-11.58-5.43,2.98,2.4,5.29,5.74,7.01,9.12m-4.77,37.59c3.16-1.52,4.84-5.32,5.71-8.73-2.19,.8-4.56,1.49-7.07,2.06l1.36,6.67Zm6.76-2.9c4.25-2.75,7.49-6.76,9.32-11.41-1.87,1.52-4.23,2.94-6.98,4.19-.44,2.46-1.1,4.86-2.34,7.22m10.49-24.94s-.01-.06-.02-.08c-1.72,2.01-4.44,3.94-7.91,5.65,.36,2.94,.45,5.82,.25,8.53,4.5-2.34,7.33-5.04,8.08-7.36,.18-2.2,.06-4.47-.4-6.74m-20.9,9.94l1.68,8.25c3.1-.71,5.89-1.6,8.34-2.61,.35-2.73,.37-5.67,.06-8.72-2.98,1.22-6.38,2.27-10.08,3.08m-16.67,1.48c-3.83-.23-7.17-.96-9.53-2.25,.47,2.5,1.27,4.77,2.43,6.95,1.44,1.86,5.08,3.21,10.31,3.53-1.3-2.5-2.38-5.28-3.21-8.24m8.69,11.25c2.13,2.78,5.16,5.6,8.64,5.77l-1.36-6.68c-2.54,.46-4.98,.76-7.28,.9m-9.47-14.35c-.7-3.26-1.06-6.44-1.06-9.83-2.26-.34-4.63-.95-6.6-2.09-.99,2.63-1.52,5.46-1.52,8.36,.79,1.79,4.19,3.12,9.18,3.56m5.82,14.44c-2.98-.04-5.67-.37-7.94-.98,3.49,3.47,8.01,5.83,12.94,6.67-2.13-1.72-3.59-3.55-5-5.69"/></g></g></svg>