<?xml version="1.0" encoding="UTF-8"?><svg id="Laag_1" xmlns="http://www.w3.org/2000/svg" xmlns:xlink="http://www.w3.org/1999/xlink" viewBox="0 0 64 64"><defs><style>.cls-1{fill:none;}.cls-2{clip-path:url(#clippath);}.cls-3{clip-path:url(#clippath-1);}</style><clipPath id="clippath"><rect class="cls-1" width="64" height="64"/></clipPath><clipPath id="clippath-1"><rect class="cls-1" width="64" height="64"/></clipPath></defs><g class="cls-2"><g class="cls-3"><path d="M13.51,44c-.83,0-1.51-.68-1.51-1.51V24.51c0-.83,.68-1.51,1.51-1.51H46.49c.83,0,1.51,.68,1.51,1.51v6.29c.92,0,1.94,.01,3,.04V14.97c0-1.64-1.33-2.97-2.97-2.97H11.97c-1.64,0-2.97,1.33-2.97,2.97v30.05c0,1.64,1.33,2.97,2.97,2.97H31.8c0-.34,0-.68,0-1,0-.92,.01-1.94,.03-3H13.51Zm8.49-27h26v3H22v-3Zm-5,0h3v3h-3v-3Zm-5,0h3v3h-3v-3Z"/><path d="M60.43,36.83c-.19-1.17-1.09-2.07-2.26-2.26-3.39-.57-9.04-.57-10.17-.57s-6.78,0-10.17,.57c-1.17,.2-2.07,1.09-2.26,2.26-.56,3.39-.56,9.04-.56,10.17s0,6.78,.56,10.17c.19,1.17,1.09,2.07,2.26,2.26,3.39,.57,9.04,.57,10.17,.57s6.78,0,10.17-.57c1.17-.2,2.07-1.09,2.26-2.26,.57-3.39,.57-9.04,.57-10.17,0-3.39,0-6.78-.57-10.17m-8.73,3.97c1.65,1.85,2.29,5.83,.81,8.81-1.76-.67-3.53-1.34-5.32-2.02,.53-1.61,3.27-5.68,4.51-6.78m-6.2,5.78c-.84-.55-1.78-1.17-2.72-1.79,1.03-2.53,4.32-4.77,7.09-4.81-1.43,2.16-2.88,4.34-4.38,6.6m-5.19,5c-1.35-1.72-1.75-5.25-.84-7.34,.35,.29,.67,.54,.95,.82,.09,.09,.17,.29,.13,.39-.66,2-.74,4.02-.25,6.12m1-8.03c-1.4-1.22-1.44-.82-.27-2.24,2.11-2.56,4.88-3.62,8.18-3.24,.14,.01,.27,.05,.49,.1-.9,.23-1.73,.36-2.52,.65-.78,.29-1.56,.66-2.26,1.11-.72,.46-1.38,1.02-1.98,1.63-.59,.59-1.06,1.3-1.62,2,0,0-.02,0-.03,0m.77,2.85c.96,.62,1.88,1.21,2.78,1.79-.58,1.84-1.15,3.66-1.72,5.46-1.1-1.09-1.97-4.56-1.06-7.25m2.66,8.49c.36-2.04,.93-3.93,1.7-5.78,1.74,.68,3.46,1.35,5.22,2.04-1.72,2.28-3.98,3.54-6.92,3.74m3.31,1.11c.11-.07,.17-.13,.24-.16,2.07-.81,3.71-2.16,4.95-3.99,.16-.24,.3-.33,.59-.26,.54,.13,1.09,.21,1.69,.33-1.21,2.32-4.84,4.3-7.47,4.08m8.32-5.7c-.67-.11-1.35-.22-2.09-.34,1.35-3.64,.95-7.04-1.08-10.26,3.54,2.43,4.68,7.02,3.18,10.59"/></g></g></svg>