<?xml version="1.0" encoding="UTF-8"?><svg id="Laag_1" xmlns="http://www.w3.org/2000/svg" xmlns:xlink="http://www.w3.org/1999/xlink" viewBox="0 0 64 64"><defs><style>.cls-1{fill:none;}.cls-2{clip-path:url(#clippath);}</style><clipPath id="clippath"><rect class="cls-1" width="64" height="64"/></clipPath></defs><g class="cls-2"><polygon points="9 48.6 9 57 20 57 20 44.07 15.84 40.17 9 48.6"/><polygon points="20 32.54 20 21 9 21 9 35.27 15.01 27.86 20 32.54"/><polygon points="24 47.84 24 57 35 57 35 36.21 25.58 49.32 24 47.84"/><polygon points="35 21.98 35 15 24 15 24 36.31 24.42 36.7 35 21.98"/><polygon points="39 30.65 39 57 50 57 50 42.62 39.42 30.06 39 30.65"/><polygon points="50 29.43 50 4 39 4 39.02 16.39 50 29.43"/><polygon points="54.3 37.98 39.12 19.97 24.72 40 15.23 31.08 4 44.93 4 51.28 15.63 36.94 25.28 46.02 39.32 26.48 54.7 44.75 60 36.5 60 29.1 54.3 37.98"/></g></svg>