<?xml version="1.0" encoding="UTF-8"?><svg id="Laag_1" xmlns="http://www.w3.org/2000/svg" xmlns:xlink="http://www.w3.org/1999/xlink" viewBox="0 0 64 64"><defs><style>.cls-1{fill:none;}.cls-2{clip-path:url(#clippath);}.cls-3{clip-path:url(#clippath-1);}</style><clipPath id="clippath"><rect class="cls-1" width="64" height="64"/></clipPath><clipPath id="clippath-1"><rect class="cls-1" width="64" height="64"/></clipPath></defs><g class="cls-2"><g class="cls-3"><path d="M54.86,19.9c0-3.87-2.48-7.17-5.95-8.47,.02-.27,.04-.54,.03-.82-.08-5.34-4.46-9.6-10.29-9.52-2.46,.04-4.71,.84-6.49,2.16-1.62-1.4-3.74-2.25-6.07-2.25-5.44,0-10.62,4.65-9.97,10.12-4.09,1.33-7.04,5.11-7.04,9.58,0,3.2,2.33,6.04,4.69,7.89-1.65,1.79-2.67,4.15-2.67,6.76,0,7.41,8.13,11.39,14.6,8.7,.48-1.94,.91-4.73,.99-5,.09-.29,.27-.28,.34-.25,.65,7.36-.62,16.98-2.03,24.21h13.88c-.57-4.96-1.67-15.71-2-20.66,1.61,.98,3.65,1.56,5.68,1.56,5.81,0,10.36-4.33,10.36-10.05,0-2.36-.81-4.53-2.17-6.27,2.6-1.6,4.1-4.44,4.1-7.68m-17.86-2.1c1.21,0,2.2,.99,2.2,2.2s-.99,2.2-2.2,2.2-2.2-.99-2.2-2.2,.99-2.2,2.2-2.2m-10,0c1.22,0,2.2,.99,2.2,2.2s-.98,2.2-2.2,2.2-2.2-.99-2.2-2.2,.99-2.2,2.2-2.2m12.49,9.33c-1.19,2.47-4.11,4.98-7.52,4.98s-6.33-2.51-7.52-4.98c-.14-.29,.2-.58,.46-.4,1.8,1.22,4.3,2.21,7.06,2.21s5.25-.99,7.05-2.21c.27-.18,.6,.12,.46,.4"/></g></g></svg>