<?xml version="1.0" encoding="UTF-8"?><svg id="Laag_1" xmlns="http://www.w3.org/2000/svg" xmlns:xlink="http://www.w3.org/1999/xlink" viewBox="0 0 64 64"><defs><style>.cls-1{fill:none;}.cls-2{clip-path:url(#clippath);}.cls-3{clip-path:url(#clippath-1);}</style><clipPath id="clippath"><rect class="cls-1" width="64" height="64"/></clipPath><clipPath id="clippath-1"><rect class="cls-1" width="64" height="64"/></clipPath></defs><g class="cls-2"><g class="cls-3"><path d="M48,52.41c-3.75,.88-4.5,1.5-8,0s-4.88-1.75-8-1c-2.63,.63-4.25,3.34-7,1.59s-4.99-1.68-8-.59c-2.56,.92-3.78,1.92-6,1-2.45-1.02-5,3.59-5,3.59H56s-4.25-5.47-8-4.59"/><path d="M42.16,43.33c-2.42,1.65-4.73-.35-7.04-.94-2.04-.52-3.24-.53-4.98,.08l-7.85,4.53H58c-3.25-4.25-2.87-.95-9.68-3.68-2.64-1.06-3.74-1.64-6.16,0"/><path d="M14.58,44.29l2.6-1.5,2,3.46L53.82,26.26l-2-3.46,2.6-1.5-9-15.59-2.6,1.5-2-3.46L6.18,23.74l2,3.46-2.6,1.5,9,15.59Zm-1.8-15.12c.48-.28,1.09-.11,1.37,.37l1.5,2.6,4.33-2.5-1-1.73c-.28-.48-.11-1.09,.37-1.37s1.09-.11,1.37,.37l1,1.73,4.45-2.57c-.48-1.71,.23-3.6,1.84-4.53,1.61-.93,3.59-.6,4.84,.67l4.45-2.57-1-1.73c-.28-.48-.11-1.09,.37-1.37,.48-.28,1.09-.11,1.37,.37l1,1.73,4.33-2.5-1.5-2.6c-.28-.48-.11-1.09,.37-1.37,.48-.28,1.09-.11,1.37,.37l4,6.93c.28,.48,.11,1.09-.37,1.37-.48,.28-1.09,.11-1.37-.37l-1.5-2.6-4.33,2.5,1,1.73c.28,.48,.11,1.09-.37,1.37-.48,.28-1.09,.11-1.37-.37l-1-1.73-4.45,2.57c.47,1.71-.23,3.6-1.84,4.53-1.61,.93-3.59,.6-4.84-.67l-4.45,2.57,1,1.73c.28,.48,.11,1.09-.37,1.37-.48,.28-1.09,.11-1.37-.37l-1-1.73-4.33,2.5,1.5,2.6c.28,.48,.11,1.09-.37,1.37-.48,.28-1.09,.11-1.37-.37l-4-6.93c-.28-.48-.11-1.09,.37-1.37"/></g></g></svg>