<?xml version="1.0" encoding="UTF-8"?><svg id="Laag_1" xmlns="http://www.w3.org/2000/svg" xmlns:xlink="http://www.w3.org/1999/xlink" viewBox="0 0 64 64"><defs><style>.cls-1{fill:none;}.cls-2{clip-path:url(#clippath);}.cls-3{clip-path:url(#clippath-1);}</style><clipPath id="clippath"><rect class="cls-1" width="64" height="64"/></clipPath><clipPath id="clippath-1"><rect class="cls-1" width="64" height="64"/></clipPath></defs><g class="cls-2"><g class="cls-3"><path d="M50,46.83v2.17h4v-2.17c-.63,.11-1.3,.17-2,.17s-1.37-.06-2-.17"/><path d="M59,27.1v15.47c0,1.6-1.15,2.93-3,3.71v2.73h6V29l-3-1.9Z"/><path d="M52,45c2.76,0,5-1.09,5-2.43V17.43c0-1.34-2.24-2.43-5-2.43s-5,1.09-5,2.43v25.14c0,1.34,2.24,2.43,5,2.43"/><path d="M45,42.57V18.22l-3.5-2.22h-13.85l11.45,9.92c.22,.25-.04,.59-.09,.63l-16.51-10.54L2,29v20h14v-8h15v8h17v-2.73c-1.85-.77-3-2.1-3-3.7m-32,2.43H5v-4H13v4Z"/></g></g></svg>