<?xml version="1.0" encoding="UTF-8"?><svg id="Laag_1" xmlns="http://www.w3.org/2000/svg" xmlns:xlink="http://www.w3.org/1999/xlink" viewBox="0 0 64 64"><defs><style>.cls-1{fill:none;}.cls-2{clip-path:url(#clippath);}.cls-3{clip-path:url(#clippath-1);}</style><clipPath id="clippath"><rect class="cls-1" width="64" height="64"/></clipPath><clipPath id="clippath-1"><rect class="cls-1" width="64" height="64"/></clipPath></defs><g class="cls-2"><g class="cls-3"><path d="M18.79,29.79c-.26-1.16-2.96-3.61-5.64-5.52-.77-.55-1.18-.8-1.96-1.3l-10.19-.97v18.93c10.42-.5,12.68-.56,13.68-1.36,1.21-1.19,4.54-7.87,4.11-9.78"/><path d="M46.24,27.48c1.57,.37,2.61-1.29,2.12-2.84-1.14-3.61-2.02-7.41-4.06-8.25-2.05-.83-9.12,.64-12.94,3.2,3.54,1.35,8.32,3.35,8.32,3.35,1.81,2.17,3.9,3.91,6.57,4.54"/><path d="M50.21,23.18c.12,.41,.32,.99,.39,1.4,.26,1.42-.14,2.87-1.09,3.9-1.47,1.58-3.23,1.44-5.15,.72-2.14-.8-4.13-2.26-6.03-4.44-4.46-1.85-11.1-4.52-15.74-5.96-2.02-.63-3.61-1-4.26-.89-2.59,.43-5.32,3.6-5.32,3.6,0,0,7.2,4.61,7.93,7.78,.72,3.17-3.6,10.92-4.85,11.96-1.26,1.05-4.73,1.34-4.73,1.34,1.05,5.08,5.7,4.55,7.87,3.31,2.93,2.18,5.99-.1,5.99-.1,1.74,.99,3.31,.62,4.19,.25-1.23-2.71-1.6-6.55-.94-8.04,.73-1.62,1.99-2.53,3.41-2.73,.41-.75,1.07-1.49,2.08-2.02,.96-.51,1.93-.57,2.78-.42,.43-.46,.99-.9,1.71-1.2,.88-.36,1.77-.38,2.57-.2,.5-.38,1.12-.68,1.85-.78,1.37-.2,4.02,.12,6.4,4.41,.86,1.54,1.21,2.93,1.26,4.11l12.41,1.74V22l-12.74,1.18Z"/><path d="M43.19,32.86c-1.09,.16-1.53,1.25-1.53,1.25,0,0-1.18-.9-2.36-.42-1.25,.51-1.67,1.88-1.67,1.88,0,0-1.32-1.04-2.64-.35-1.62,.85-1.51,2.44-1.51,2.44,0,0-2-.95-2.99,1.27-.47,1.06,.23,6.17,1.86,7.67,1.63,1.5,3.48,1.41,4.39-.74,1.28,.99,3.79,.94,4.38-1.67,2.06,.74,3.96,.08,4.24-2.29,0,0,1.6,.49,2.56-.74,.6-.76,.82-2.54-.54-4.99-1.36-2.45-2.88-3.48-4.17-3.3"/></g></g></svg>