<?xml version="1.0" encoding="UTF-8"?><svg id="Laag_1" xmlns="http://www.w3.org/2000/svg" xmlns:xlink="http://www.w3.org/1999/xlink" viewBox="0 0 64 64"><defs><style>.cls-1{fill:none;}.cls-2{clip-path:url(#clippath);}.cls-3{clip-path:url(#clippath-1);}</style><clipPath id="clippath"><rect class="cls-1" width="64" height="64"/></clipPath><clipPath id="clippath-1"><rect class="cls-1" width="64" height="64"/></clipPath></defs><g class="cls-2"><g class="cls-3"><path d="M61.22,30.21L32.81,3.32c-.46-.43-1.17-.43-1.62,0L2.78,30.21c-.49,.46-.78,1.11-.78,1.78v1.8c0,.67,.54,1.21,1.2,1.21H8v25H56v-25h4.8c.66,0,1.2-.54,1.2-1.21v-1.8c0-.68-.28-1.33-.77-1.78m-10.55,11.24c-1.87,1.79-6.13,3.87-11.15,4.31,3.47,2.47,4.97,5.04,5.33,5.72,.04,.08-.01,.18-.1,.19-2.34,.15-6.85-.82-11.11-3.73l.89,7.6c.03,.77-.47,1.45-1.17,1.59-1.13,.22-1.93,.14-2.58,.04-.71-.11-1.23-.76-1.24-1.53,.19-5.03,.55-9.62,.9-13.97,0,0-.18-.04-.39,.3-.19,.31-1.32,3.15-1.94,7.29,0,0-.05,.03-.17,.09-4.48,2.4-7.82,2.35-8.68,2.32-.09,0-.16-.1-.11-.19,.36-.68,1.86-3.25,5.32-5.72-6.04-.54-9.92-3.16-11.15-4.31-.07-.06-.05-.17,.04-.21,2.05-.9,6.16-1.45,10.6-.55-5.08-5.04-7.76-11.17-8.12-14.7,0-.09,.08-.16,.16-.14,2.61,.74,7.4,3.5,11.47,8.44-.02-8.43,3.01-14.23,4.42-16.12,.05-.07,.15-.07,.2,0,1.84,2.43,4.44,8.44,4.42,16.11,4.58-5.56,9.53-7.87,11.47-8.44,.09-.03,.17,.04,.16,.14-.36,3.56-3.07,9.69-8.12,14.7,4.6-.94,8.66-.3,10.6,.55,.08,.04,.1,.15,.04,.21"/></g></g></svg>