<?xml version="1.0" encoding="UTF-8"?><svg id="Laag_1" xmlns="http://www.w3.org/2000/svg" xmlns:xlink="http://www.w3.org/1999/xlink" viewBox="0 0 64 64"><defs><style>.cls-1{fill:none;}.cls-2{clip-path:url(#clippath);}.cls-3{clip-path:url(#clippath-1);}</style><clipPath id="clippath"><rect class="cls-1" width="64" height="64"/></clipPath><clipPath id="clippath-1"><rect class="cls-1" width="64" height="64"/></clipPath></defs><g class="cls-2"><g class="cls-3"><path d="M55,7H9c-1.1,0-2,.9-2,2V43.99c0,1.1,.9,2,2,2H25.5s-.53,1.94-1.5,5.01c-.58,1.84-2.38,1.99-2.87,2h-2.13c-.55,0-1,.45-1,1v2h28v-2c0-.55-.45-1-1-1h-2.13c-.49,0-2.29-.16-2.87-2-.39-1.23-.7-2.27-.94-3.08,0,0-4.4-.64-8.98-1.53-.32-.06-.28-.3-.24-.38h25.17c1.1,0,2-.9,2-2V9c0-1.1-.9-2-2-2m-3,32H12V12H52v27Z"/><path d="M28,32c-1.11,0-2,.9-2,2s.89,2,2,2,2-.89,2-2-.9-2-2-2"/><path d="M37,32c-1.1,0-2,.9-2,2s.9,2,2,2,2-.89,2-2-.9-2-2-2"/><path d="M24.73,17h1.26l.9,8.92h.02l-1.47,2.96c-.23,.46-.2,.99,.07,1.43,.27,.43,.74,.69,1.25,.69h12.25c.39,0,.7-.45,.7-1s-.31-1-.7-1h-11.38l1-2h9.84s1.39,.01,1.54-1.08c.19-1.4,1-7.76,1-7.76,0,0,.02-1.15-1.13-1.15h-11.87l-.69-1.39c-.19-.38-.58-.62-1-.62h-1.57c-.41,0-.74,.33-.74,.74v.53c0,.41,.33,.73,.74,.73"/></g></g></svg>