<?xml version="1.0" encoding="UTF-8"?><svg id="Laag_1" xmlns="http://www.w3.org/2000/svg" xmlns:xlink="http://www.w3.org/1999/xlink" viewBox="0 0 64 64"><defs><style>.cls-1{fill:none;}.cls-2{clip-path:url(#clippath);}.cls-3{clip-path:url(#clippath-1);}</style><clipPath id="clippath"><rect class="cls-1" width="64" height="64"/></clipPath><clipPath id="clippath-1"><rect class="cls-1" width="64" height="64"/></clipPath></defs><g class="cls-2"><g class="cls-3"><path d="M48,17h-9.8l-.83-1.38c-.23-.39-.65-.62-1.09-.62-.71,0-1.28,.57-1.28,1.28v.72H12c-4.96,0-9,4.04-9,9v12c0,4.96,4.04,9,9,9h23v.72c0,.7,.57,1.28,1.28,1.28,.45,0,.86-.24,1.09-.62l.83-1.38h9.8c7.17,0,13-5.83,13-13v-4c0-7.17-5.83-13-13-13m-13,3v1.08l-4.38,1.92H15.4l-1.8-3h21.4ZM12.52,38.75l-5.95,1.78c-.36-.77-.57-1.62-.57-2.53v-12c0-.9,.21-1.76,.57-2.53l5.95,1.78c-.26,1.54-.52,3.83-.52,6.74s.26,5.2,.52,6.75m22.48,5.25H13.6l1.8-3h15.22l4.38,1.92v1.08Zm8.36-.69l-10.85-4.76c.25-1.55,.49-3.78,.49-6.55s-.24-5-.49-6.55l10.85-4.76c2.18,2.54,3.17,6.64,3.17,11.31s-.99,8.77-3.17,11.31m6.45,.69l1.89-4.03h4.44c-1.48,2.07-3.72,3.55-6.33,4.03m1.89-20l-1.89-4.03c2.6,.48,4.85,1.96,6.33,4.03h-4.44Z"/></g></g></svg>