<?xml version="1.0" encoding="UTF-8"?><svg id="Laag_1" xmlns="http://www.w3.org/2000/svg" xmlns:xlink="http://www.w3.org/1999/xlink" viewBox="0 0 64 64"><defs><style>.cls-1{fill:none;}.cls-2{clip-path:url(#clippath);}.cls-3{fill:#fff;}.cls-4{clip-path:url(#clippath-1);}</style><clipPath id="clippath"><rect class="cls-1" width="64" height="64"/></clipPath><clipPath id="clippath-1"><rect class="cls-1" width="64" height="64"/></clipPath></defs><g class="cls-2"><g class="cls-4"><path class="cls-3" d="M32.04,44c3.36,0,4.94-.95,7.43-2.88,.89-.69,1.9-1.51,3.16-2.46,.03-.03,.05-.07,.03-.11l-.52-1.4s.28-1.18,.45-1.79c.26-.95,.63-3.46,.63-3.46-5.53,0-7.2-.59-8-1.27-1.03-.88-1.66-1.92-3.19-1.92s-2.17,1.03-3.19,1.92c-.79,.68-2.47,1.27-8,1.27,0,0,.37,2.51,.64,3.46,.17,.61,.45,1.79,.45,1.79l-.52,1.4s0,.09,.03,.11c1.41,1.07,2.51,1.97,3.48,2.7,2.32,1.77,3.9,2.64,7.12,2.64"/><path d="M39.89,43.05c-.03-.18-.06-.39-.09-.61,1.39-1.05,2.01-1.58,3.58-2.78,.48-.36,.67-1,.46-1.55l-.39-1.04c.42-1.73,.45-1.56,.81-3.66,.82-.87,1.41-2.03,1.62-3.38,.29-1.87-.2-3.62-1.22-4.89,.26-10.68-3.41-14.14-3.41-14.14,.78-1.57,2.47-2.69,2.47-2.69-5.26-.96-7.99,1.4-7.99,1.4-4.81-3.55-11.49-2.32-11.49-2.32,1.3,1.3,1.88,2.66,1.88,2.66-8.7,3.82-8.25,9.83-8.25,9.83,0,0,1.3-1.02,2.01-1.23,0,0-.66,2.98-.54,6.4-1.06,1.27-1.59,3.07-1.29,4.98,.22,1.44,.88,2.68,1.8,3.57,.33,1.91,.36,1.74,.77,3.47l-.39,1.04c-.21,.56-.02,1.2,.45,1.55,1.56,1.18,2.3,1.8,3.44,2.68-.04,.28-.08,.54-.11,.76-8.01,2.4-11.91,8.56-11.91,15.91H51.96c0-7.39-3.96-13.58-12.08-15.95M22.73,26.3c.45-.09,.9,.02,1.29,.26,0-.78,.04-1.58,.13-2.38,3.11-.64,5.21-1.92,5.21-1.92-.2,1.71-1.23,3.68-1.23,3.68,4.61-.55,7.53-5.38,7.53-5.38,.59,2.39,2.08,3.96,2.08,3.96,.59-1.17,1.2-1.88,1.69-2.32,.34,1.43,.48,2.94,.48,4.36,.39-.25,.84-.35,1.29-.26,1.19,.23,1.95,1.69,1.71,3.27-.06,.38-.19,.74-.36,1.06-3.6-.04-5.8-.36-6.5-.96-.96-.82-1.91-2.22-4.01-2.22s-3.03,1.38-4.01,2.22c-.71,.61-2.96,.93-6.65,.96-.17-.33-.3-.68-.36-1.07-.24-1.58,.51-3.05,1.71-3.27m9.23,22.83c-2.95,0-5.09-1.8-5.09-4.28,0-.11,.02-.36,.06-.69,1.45,.73,2.97,1.09,5.11,1.09s3.62-.38,4.97-1.03c.03,.31,.05,.51,.05,.63,0,2.48-2.14,4.28-5.09,4.28m6.75-9c-2.35,1.82-3.69,2.62-6.67,2.62s-4.24-.76-6.36-2.38c-.77-.59-1.74-1.37-2.8-2.19l.36-.95h0l4.92,1.3s.15-.22-.11-.43c-.2-.16-3.77-2.25-5.4-3.21-.11-.42-.24-1.11-.35-1.77,4.67-.1,6.35-.7,7.35-1.55,1.14-.98,1.43-1.62,2.38-1.62s1.31,.69,2.38,1.62c1,.86,2.68,1.45,7.35,1.55-.11,.66-.24,1.35-.35,1.77-1.63,.95-5.19,3.05-5.4,3.21-.26,.21-.15,.38-.11,.43l4.92-1.31h0l.36,.95c-.92,.71-1.83,1.44-2.49,1.95"/></g></g></svg>