<?xml version="1.0" encoding="UTF-8"?><svg id="Laag_1" xmlns="http://www.w3.org/2000/svg" xmlns:xlink="http://www.w3.org/1999/xlink" viewBox="0 0 64 64"><defs><style>.cls-1{fill:none;}.cls-2{clip-path:url(#clippath);}.cls-3{clip-path:url(#clippath-1);}</style><clipPath id="clippath"><rect class="cls-1" width="64" height="64"/></clipPath><clipPath id="clippath-1"><rect class="cls-1" width="64" height="64"/></clipPath></defs><g class="cls-2"><g class="cls-3"><path d="M56,32c0-13.26-10.74-24-24-24S8,18.74,8,32s10.74,24,24,24c1.84,0,3.64-.21,5.36-.61,1.43,1.22,3.22,1.88,5.12,1.88,2.12,0,4.11-.82,5.6-2.32,1.95-1.95,2.69-4.72,2.11-7.32,3.61-4.2,5.8-9.66,5.8-15.63m-16-5.24c1.79,0,3.24,1.45,3.24,3.24s-1.45,3.24-3.24,3.24-3.24-1.45-3.24-3.24,1.45-3.24,3.24-3.24m-19.24,3.24c0-1.79,1.45-3.24,3.24-3.24s3.24,1.45,3.24,3.24-1.45,3.24-3.24,3.24-3.24-1.45-3.24-3.24m16.06,12.96c-1.42-.67-3.05-1.15-4.82-1.15-3.88,0-7.1,2.29-8.87,3.88-.4,.36-1.01-.06-.8-.56,1.09-2.57,3.74-6.66,9.67-6.66,2.64,0,4.62,.81,6.11,1.94l-1.29,2.55Zm9.14,9.88c-.93,.93-2.17,1.44-3.48,1.44s-2.56-.51-3.49-1.44c-1.51-1.51-1.88-3.8-.92-5.7l4.4-8.74,4.4,8.74c.96,1.9,.59,4.2-.92,5.7"/></g></g></svg>