<?xml version="1.0" encoding="UTF-8"?><svg id="Laag_1" xmlns="http://www.w3.org/2000/svg" xmlns:xlink="http://www.w3.org/1999/xlink" viewBox="0 0 64 64"><defs><style>.cls-1{fill:none;}.cls-2{clip-path:url(#clippath);}.cls-3{clip-path:url(#clippath-1);}</style><clipPath id="clippath"><rect class="cls-1" width="64" height="64"/></clipPath><clipPath id="clippath-1"><rect class="cls-1" width="64" height="64"/></clipPath></defs><g class="cls-2"><g class="cls-3"><path d="M39.8,13.6c2.54,1.65,5.16,.82,6.82-1.74,1.89-2.92,1.37-5.48-1.1-7.08-2.61-1.69-5.21-.75-6.92,1.88-1.8,2.77-1.35,5.29,1.19,6.94"/><path d="M51.67,24.35c-3.01,.65-4.92,1.18-5.66,1.08-.68-.7-1.51-1.85-3.57-5.15-1.26-2.02-2.19-4.13-6.65-6.36-3.77-1.89-10.29-3.31-12.42-2.68-2.31,.62-5.22,3.43-7,5.13h0c-1.48,1.47-2.01,3.69-.81,5.4,1-.69,6.59-6.08,8.44-6.11,.56,.11,3.65,.71,5.84,1.58-2.78,3.94-7.12,11-7.59,13.13-.92,4.24,1.98,6.02,4.91,7.8,0,0,0,.18-.37,.18-.2,0-1.65-.24-3.33-.52-.84,1.86-2.77,6.04-3.77,7.72-.41,.29-.87,.62-1.34,.96h0c-.33-.45-.96-.54-1.4-.21l-3.15,2.34c-1.04,.77-1.88,.64-2.94,.48-1.33-.2-2.99-.46-4.82,1.3-1.83,1.76-2,4.49-.45,7.31,.99,1.8,3.23,4.2,6.25,5.05,.09,.03,.18,.04,.27,.04,.44,0,.84-.29,.96-.73,.15-.53-.16-1.08-.69-1.23-2.27-.64-4.17-2.51-5.04-4.09-1.1-2-1.07-3.79,.09-4.9,1.11-1.07,1.92-.95,3.13-.76,.97,.15,2.13,.31,3.43-.27-.1,.79,.13,1.62,.73,2.24,.85,.88,2.17,1.17,3.54,.36,1.86-1.09,3.51-2.13,4.48-2.93,.88-.72,1.44-1.36,2.12-2.39,1.5-2.27,3.92-6.18,5.24-8.42,2.16,.32,4.96,.64,6.12,.8-.04,.5-.11,1.16-.2,1.91-.54-.07-1.04,.32-1.11,.86l-.5,3.89c-.17,1.28-.84,1.8-1.69,2.45-1.07,.82-2.41,1.84-2.41,4.37s1.85,4.56,4.96,5.39c.76,.2,1.7,.33,2.73,.33,1.67,0,3.57-.35,5.25-1.34,.48-.28,.64-.89,.35-1.37-.28-.48-.89-.64-1.37-.35-2.03,1.2-4.7,1.26-6.44,.8-2.21-.59-3.47-1.85-3.47-3.46s.65-2.04,1.62-2.78c.78-.6,1.7-1.32,2.19-2.66,.5,.62,1.26,1.03,2.12,1.03,1.24,0,2.41-.83,2.71-2.3,.41-2.02,.84-4.16,1.14-6.48,.16-1.38,.03-3.33-.63-4.38-.62-.98-2.96-2.56-8.87-3.99,1.58-3.45,4.33-6.38,6.14-9.04,1.87,3.03,4.27,5.95,5.83,6.12,1.42,.15,5.23-.74,7.3-1.33,2.34-.67,3.78-2.16,3.71-4.61-.91,.17-2.72,.55-3.92,.81"/></g></g></svg>