<?xml version="1.0" encoding="UTF-8"?><svg id="Laag_1" xmlns="http://www.w3.org/2000/svg" xmlns:xlink="http://www.w3.org/1999/xlink" viewBox="0 0 64 64"><defs><style>.cls-1{fill:none;}.cls-2{clip-path:url(#clippath);}.cls-3{clip-path:url(#clippath-1);}</style><clipPath id="clippath"><rect class="cls-1" width="64" height="64"/></clipPath><clipPath id="clippath-1"><rect class="cls-1" width="64" height="64"/></clipPath></defs><g class="cls-2"><g class="cls-3"><path d="M21.14,23.29c-.1-.31-.47-1.02-1.72-.92-2.76,.22-4.2,3.45-4.02,5.67,.18,2.23,1.58,2.11,2.05,2.08,2.78-.23,3.46-2.47,3.47-2.49,0-.02,.01-.03,.02-.04-.11-1.42,.04-2.91,.26-4.17-.01-.04-.03-.08-.04-.12"/><path d="M60,3H4V43H20c.02,.06-.05,.26-.37,.36l-5.4,1.07-3.23,18.56h7l1.74-10h24.52l1.74,10h7l-3.23-18.56-5.4-1.07c-.32-.1-.39-.31-.37-.36h16V3ZM17.69,33.11c-.16,.01-.32,.02-.47,.02-2.66,0-4.57-1.89-4.81-4.84-.33-4.01,2.32-8.54,6.77-8.9,1.21-.1,2.16,.17,2.9,.61,.35-.58,1.06-.87,1.73-.66,.79,.25,1.23,1.09,.98,1.88-.69,2.2-1.42,6.3-.39,7.96,.23,.38,.53,.57,.99,.64,.54,.09,1.19-.17,1.45-.46-.08-.23-.13-.51-.16-.75-.39-2.65,.15-6.25,1.16-9.68,.02-.07,.04-.15,.07-.22,1.2-4.01,3.02-7.73,4.66-9.31,.44-.43,1.1-.54,1.66-.29,.56,.25,.91,.82,.88,1.43,0,.17-.21,4.1-4.44,9.42-1.04,3.56-1.56,7.28-.77,9.22,.31,.77,.71,.93,1.24,.93,2.66,0,3.96-2.06,4.4-2.95,.78-1.59,.86-3.47,.17-4.36-.14-.19-.58-.75-1.99-.47-.82,.16-1.6-.36-1.77-1.18-.16-.81,.36-1.6,1.18-1.77,2.82-.56,4.32,.75,4.96,1.58,1.4,1.82,1.46,4.84,.14,7.52-1.43,2.89-4.08,4.62-7.09,4.62-1.15,0-2.12-.38-2.88-1.09-.72,.48-1.64,.81-2.63,.81-.23,0-.46-.02-.7-.05-1.15-.18-2.09-.76-2.77-1.65-.94,.94-2.35,1.8-4.44,1.97m2.75,15.89l1.04-6h21.04l1.04,6H20.43ZM52.5,28.47c-.49,1.64-2.43,4.65-6.29,4.65-.11,0-.23,0-.35,0-3.2-.15-5.4-2.61-5.46-6.12-.06-3.43,2.14-7.26,6.34-7.6,2.92-.24,4.68,1.67,5.25,2.84,.36,.75,.06,1.64-.69,2.01-.74,.36-1.63,.06-2-.67-.08-.15-.75-1.32-2.32-1.18-2.69,.22-3.62,2.85-3.59,4.56,.01,.72,.24,3.07,2.6,3.18,2.7,.13,3.55-2.24,3.63-2.51,.25-.78,1.09-1.23,1.87-.98,.79,.24,1.23,1.07,1,1.86"/></g></g></svg>