<?xml version="1.0" encoding="UTF-8"?><svg id="Laag_1" xmlns="http://www.w3.org/2000/svg" xmlns:xlink="http://www.w3.org/1999/xlink" viewBox="0 0 64 64"><defs><style>.cls-1{fill:none;}.cls-2{clip-path:url(#clippath);}.cls-3{clip-path:url(#clippath-1);}</style><clipPath id="clippath"><rect class="cls-1" width="64" height="64"/></clipPath><clipPath id="clippath-1"><rect class="cls-1" width="64" height="64"/></clipPath></defs><g class="cls-2"><g class="cls-3"><path d="M25.35,29.62c.08-3-.73-6.14-2.15-6.62h9.79c2.38,0,4.43,1.39,5.4,3.4l3.97-.84c-1.41-3.82-5.08-6.56-9.37-6.56H13c-5.5,0-10,4.5-10,10s4.5,10,10,10h5.9c.22-1.84,.85-3.63,1.9-5.23,1.16-1.78,2.73-3.19,4.56-4.15m-15.35,4.58c-2.11-1.29-3.05-3.08-2.99-5.36,.04-1.62,.73-3.03,1.79-4.09l1.8,2c-1.56,1.6-1.86,5.29,.05,7.42-.08,.3-.29,.25-.65,.03"/><path d="M60.36,34.24c-1.13-5.38-6.47-8.86-11.85-7.72l-19.57,4.12c-5.38,1.13-8.86,6.46-7.73,11.85,1.13,5.38,6.47,8.86,11.85,7.72l19.57-4.12c5.38-1.13,8.86-6.46,7.73-11.85m-31.19,11.91c-2.33-.82-3.64-2.36-4.06-4.6-.3-1.59,.07-3.12,.88-4.38l2.18,1.58c-1.18,1.9-.69,5.56,1.63,7.24-.01,.3-.23,.31-.63,.17m22.64-3.98l-9.02,1.9c.72-1.09,.89-3.43,.35-6.01-.65-3.1-2.11-5.45-3.39-5.61l9.58-2.02c3.26-.69,6.44,1.45,7.11,4.63,.68,3.22-1.41,6.43-4.63,7.11"/></g></g></svg>