<?xml version="1.0" encoding="UTF-8"?><svg id="Laag_1" xmlns="http://www.w3.org/2000/svg" xmlns:xlink="http://www.w3.org/1999/xlink" viewBox="0 0 64 64"><defs><style>.cls-1{fill:none;}.cls-2{clip-path:url(#clippath);}.cls-3{clip-path:url(#clippath-1);}</style><clipPath id="clippath"><rect class="cls-1" width="64" height="64"/></clipPath><clipPath id="clippath-1"><rect class="cls-1" width="64" height="64"/></clipPath></defs><g class="cls-2"><g class="cls-3"><path d="M32.01,45.46h-4.25v1.08h4.25c.3,0,.54-.24,.54-.54s-.24-.54-.54-.54"/><path d="M31.64,42.75c0-.3-.24-.54-.54-.54h-3.33v1.08h3.33c.3,0,.54-.24,.54-.54"/><path d="M35.23,36.06h-6.46c-.55,0-1,.45-1,1v1.91h4.24c.3,0,.54,.24,.54,.54s-.24,.54-.54,.54h-4.24v1.08h8.46v-4.07c0-.55-.45-1-1-1"/><path d="M40.42,23.88s-7.25-2.38-10.43-3.46c-2.13-.72-3.59-2.84-3.59-5.22,0-3.09,2.51-5.6,5.6-5.6s5.6,2.51,5.6,5.6v2.8c0,1.55,1.25,1.87,2.8,1.87s2.79-.32,2.79-1.87v-2.8c0-6.26-4.91-11.2-11.19-11.2s-11.2,4.88-11.2,11.2V48.8c0,6.17,5.03,11.2,11.2,11.2s11.2-4.94,11.2-11.2V27.68c0-1.74-1.12-3.28-2.78-3.8m-12.65,7.06c0-.32,.18-.58,.43-.74,.02,.04,.05,.07,.07,.12,.48,.74,2.08,1.55,4.21,.85,.36-.12,.25-.34,.25-.34-1.88,.14-3.47-.12-3.47-1.17,0-.46,.18-.88,.49-1.23,.76-.87,1.44-1.05,1.15-1.87h0c-.04-.12-.07-.25-.07-.39,0-.64,.52-1.16,1.16-1.16s1.16,.52,1.16,1.16c0,.14-.02,.27-.07,.39h0c-.29,.81,.39,.99,1.15,1.87,.31,.35,.49,.78,.49,1.23,0,.16-.03,.29-.07,.41h.69c.48,0,.88,.39,.88,.88v1.78c0,.6-.48,1.08-1.08,1.08h-6.3c-.6,0-1.08-.48-1.08-1.08v-1.78Zm9.54,20.06c0,1.1-.9,2-2,2h-6.63c-1.1,0-2-.9-2-2v-14.12c0-1.1,.9-2,2-2h6.63c1.1,0,2,.9,2,2v14.12Z"/></g></g></svg>