<?xml version="1.0" encoding="UTF-8"?>
<svg id="Zwart" xmlns="http://www.w3.org/2000/svg" viewBox="0 0 64 64">
  <path d="M59.11,24.38c-2.92-7.75-8.94-14.38-19.41-15.11-8.17-.56-17.41,4.37-21.73,12.5-.45-.11-.55-.57-.47-1.14.32-2.29,2.96-11.24,16.68-15.28.01-.45-.66-.68-1.19-.66-8.28.39-16.44,4.06-20.37,13.79-3.06,7.59-1.22,17.91,5.18,24.53-.24.39-.71.35-1.23.1-2.08-1.01-9.77-6.28-9.38-20.58-.42-.15-.85.42-.99.93-2.19,7.99-1.22,16.89,6.83,23.63,6.28,5.26,16.67,6.7,24.94,2.65.3.35.1.79-.3,1.21-1.6,1.67-9,7.35-22.47,2.56-.27.36.14.94.57,1.23,6.92,4.55,15.69,6.38,24.59.81,6.94-4.35,11.52-13.78,10.23-22.9.42-.18.78.15,1.06.66,1.09,2.04,4.21,10.83-4.51,22.17.25.37.93.16,1.35-.17,6.47-5.18,10.92-12.95,8.37-23.13-1.99-7.95-9.55-15.22-18.62-16.8-.04-.46.39-.7.96-.8,2.28-.4,11.6-.66,19.69,11.14.43-.13.44-.84.26-1.33ZM41.81,24.86c.76.77.26,1.05.26,1.05-6.92-3.45-11.05-1.3-12.35.11-.21.23-.29.41-.3.57-.01.2.08.33.15.4,2.05-1.04,4.61-1.25,7.09-.28,3.27,1.28,5.72,4.37,5.59,7.68-.24,5.89-5.17,9.33-7.77,10-1.05.27-1.04-.31-1.04-.31,6.44-4.27,6.65-8.92,6.08-10.74-.08-.27-.2-.43-.32-.52-.17-.13-.35-.11-.44-.09-.08,2.26-1.29,4.79-3.56,6.48-2.73,2.03-6.48,2.52-9.19.8-4.98-3.15-5.5-9.14-4.78-11.73.29-1.04.78-.75.78-.75.47,7.71,4.4,10.22,6.26,10.64.34.08.56.03.69-.06.14-.09.19-.21.22-.3-2.16-1.42-3.64-3.81-3.86-6.68-.25-3.26,1.19-6.57,3.94-8.01,5.22-2.74,10.66-.19,12.55,1.72Z"/>
</svg>