<?xml version="1.0" encoding="UTF-8"?><svg id="Laag_1" xmlns="http://www.w3.org/2000/svg" xmlns:xlink="http://www.w3.org/1999/xlink" viewBox="0 0 64 64"><defs><style>.cls-1{fill:none;}.cls-2{clip-path:url(#clippath);}.cls-3{clip-path:url(#clippath-1);}</style><clipPath id="clippath"><rect class="cls-1" width="64" height="64"/></clipPath><clipPath id="clippath-1"><rect class="cls-1" width="64" height="64"/></clipPath></defs><g class="cls-2"><g class="cls-3"><path d="M30.5,27c-.7,0-1.88,1.78-1.38,2.52,.45,.66,2.3,.6,2.74,.03,.55-.71-.64-2.55-1.36-2.55m-3.39-4.94c-1.67,.23-2.06,1.23-1.91,2.32,.16,1.16,.83,1.75,2.22,1.58,1.53-.19,1.98-1.06,1.95-2.12-.03-1.31-.76-1.99-2.26-1.78m6.76,0c-1.49-.21-2.23,.46-2.26,1.78-.03,1.06,.42,1.94,1.95,2.12,1.34,.17,2.05-.37,2.22-1.58,.15-1.09-.24-2.09-1.91-2.32m21.99,10.43l-6.2-7.13c-.2-.9,.13-2.57,0-3.33-.67-3.85-2.62-8.12-2.62-8.12,2.11-4.02,1.08-7.19-2.1-9.23-3.62-2.33-16.77-2.56-26.37,2.66-10.12,5.51-9.03,15.35-7.32,20.51,1.98,6,7.91,14.49,8.32,20.9,.18,2.81-1.89,11.26-1.89,11.26h22.31l-.13-5.99-5.5-2.83c-.29-.16-.21-.35-.18-.4,0,0,8.24,1.78,11.44,2.19,3.21,.42,6.29-2.31,6.29-6.21v-9.66l3.34-1.77c.96-.62,1.23-1.89,.6-2.84m-21.02-3.08c-.09,.56,.07,1.94-.72,3.25-.81,1.35-2.1,1.41-3.61,1.41s-2.81-.06-3.62-1.41c-.79-1.31-.63-2.69-.72-3.25-2.69-1.53-3.76-4.22-3.17-8.54,1.1-8.02,13.9-8.02,15.01,0,.59,4.32-.48,7.01-3.17,8.54"/></g></g></svg>