<?xml version="1.0" encoding="UTF-8"?><svg id="Laag_1" xmlns="http://www.w3.org/2000/svg" xmlns:xlink="http://www.w3.org/1999/xlink" viewBox="0 0 64 64"><defs><style>.cls-1{fill:none;}.cls-2{clip-path:url(#clippath);}.cls-3{clip-path:url(#clippath-1);}</style><clipPath id="clippath"><rect class="cls-1" width="64" height="64"/></clipPath><clipPath id="clippath-1"><rect class="cls-1" width="64" height="64"/></clipPath></defs><g class="cls-2"><g class="cls-3"><path d="M58.07,5H5.93c-1.07,0-1.93,.97-1.93,2.16V43.84c0,1.19,.86,2.16,1.93,2.16H28v14h8v-12.46l-5.77-1.15c-.35-.11-.3-.34-.27-.4h28.12c1.07,0,1.93-.96,1.93-2.15V7.16c0-1.19-.87-2.16-1.93-2.16M15.38,33.58h-2.15v6.58h-1.92v-6.58h-2.15v-1.66h6.22v1.66Zm5.56,6.58h-4.59v-8.24h4.56v1.66h-2.65v1.52h2.44v1.66h-2.44v1.74h2.68v1.66Zm10.31,0h-1.92v-3.34h-2.63v3.34h-1.91v-8.24h1.91v3.17h2.63v-3.17h1.92v8.24Zm7.77-3.03c0,1.9-1.26,3.13-3.2,3.13-2.08,0-3.13-1.02-3.13-3.02v-5.32h1.91v5.15c0,.99,.4,1.43,1.3,1.43,.85,0,1.28-.47,1.28-1.41v-5.17h1.84v5.21Zm.99-9.12h-6v-6h-4v6h-6v-8h-1.6c-.22,0-.4-.18-.4-.4v-1.19c0-.22,.09-.44,.26-.59l9.47-9.04c.15-.14,.39-.14,.54,0l9.47,9.04c.16,.15,.26,.37,.26,.59v1.19c0,.22-.18,.4-.4,.4h-1.6v8Zm6.76,9.12c0,1.9-1.26,3.13-3.2,3.13-2.08,0-3.13-1.02-3.13-3.02v-5.32h1.91v5.15c0,.99,.4,1.43,1.3,1.43,.85,0,1.28-.47,1.28-1.41v-5.17h1.84v5.21Zm5.71,3.03l-1.77-2.97h-.58v2.97h-1.91v-8.24h2.51c1.97,0,3.14,.9,3.14,2.41,0,1.02-.47,1.85-1.31,2.33l2.15,3.5h-2.23Z"/><path d="M50.61,33.54h-.5v2.05h.62c.74,0,1.16-.4,1.16-1.1,0-.49-.15-.95-1.28-.95"/></g></g></svg>