<?xml version="1.0" encoding="UTF-8"?><svg id="Laag_1" xmlns="http://www.w3.org/2000/svg" viewBox="0 0 64 64"><defs><style>.cls-1{fill:none;}</style></defs><rect class="cls-1" width="64" height="64"/><path d="m55,13h-6.92l-1.71,5.75c-.1.33-.37.23-.37.23v-5.98h0c-.02-1.26-.06-3.35-.18-4.12-.11-.66-.23-1.88-1.2-1.88h-2.85c-.97,0-1.18,1.23-1.28,1.89-.12.77-.3,2.85-.4,4.11h-16l-1.71,5.75c-.1.33-.37.23-.37.23v-5.98h0c-.02-1.26-.06-3.35-.18-4.12-.11-.66-.23-1.88-1.2-1.88h-2.85c-.97,0-1.18,1.23-1.28,1.89-.12.77-.3,2.85-.4,4.11h-7.08c-1.1,0-2,.9-2,2v40c0,1.1.9,2,2,2h46c1.1,0,2-.9,2-2V15c0-1.1-.9-2-2-2Zm-3,39H12v-26h40v26Z"/><path d="m26.86,42.88c5.24,5.22,8.72,5.32,9.8,5.32,1.87,0,3.57-.73,5.05-2.2.76-.76.76-1.8.02-2.55-.18-.18-4.31-4.28-5.59-3.01-.68.68-.9,1.22-1.53,2.43-.36.05-1.89-.85-4.07-3-2.16-2.19-3.07-3.72-3.04-4.02,1.24-.67,1.75-.88,2.46-1.59,1.27-1.27-2.83-5.41-3.01-5.59-.74-.74-1.79-.73-2.55.02-1.73,1.73-2.43,3.77-2.13,6.04.39,2.94,2.62,6.18,4.59,8.14Z"/></svg>