<?xml version="1.0" encoding="UTF-8"?><svg id="Laag_1" xmlns="http://www.w3.org/2000/svg" xmlns:xlink="http://www.w3.org/1999/xlink" viewBox="0 0 64 64"><defs><style>.cls-1{fill:none;}.cls-2{clip-path:url(#clippath);}.cls-3{clip-path:url(#clippath-1);}</style><clipPath id="clippath"><rect class="cls-1" width="64" height="64"/></clipPath><clipPath id="clippath-1"><rect class="cls-1" width="64" height="64"/></clipPath></defs><g class="cls-2"><g class="cls-3"><path d="M19.17,24.17c1.2,.2,2.4,.48,3.58,.87-1.15-1.44-.77-3.4,.62-4.38-1.2-1.53-.7-3.66,.95-4.56-1.06-1.5-.57-3.55,1.05-4.43-.81-1.54-.18-3.28,1.2-4.06-.28-1.94,1.22-3.5,3.02-3.5,.51,0,.99,.14,1.41,.36,.42-.22,.9-.36,1.42-.36,1.79,0,3.3,1.57,3.02,3.5,1.4,.79,2.02,2.56,1.18,4.11,1.58,.92,1.97,2.92,1,4.35,1.69,.86,2.24,3.04,1.02,4.6,1.46,1.03,1.76,3.1,.53,4.5,1.31,1.07,1.56,2.97,.41,4.33,1.27-.64,2.51-1.13,3.7-1.49,.08-1.06-.06-2.07-.59-3.14,.48-1.6,.25-3.29-.55-4.69,.4-1.67,.06-3.52-1.05-5,.21-1.55-.19-3.11-1.11-4.37,.15-1.66-.41-3.34-1.57-4.61-.47-2.87-2.98-5.07-5.98-5.07-.48,0-.95,.06-1.42,.17-.46-.11-.94-.17-1.41-.17-3.01,0-5.51,2.2-5.98,5.07-1.12,1.22-1.7,2.85-1.58,4.49-1.02,1.32-1.44,2.98-1.19,4.61-1.02,1.42-1.36,3.21-.97,4.88-.68,1.19-.95,2.57-.7,4.01"/><path d="M51.98,29.31c-2.84-.39-9.63-.21-15.7,5-5,4.29-6.58,11.86-6.58,11.86,0,0-.26,.2-.32-.25-.2-1.53-.13-5.92,2.79-10.83-5.46-9.06-15.8-9.64-21.26-8.78-.45,.07-.57,.66-.19,.9,1.78,1.15,4.42,3.8,5.98,7.8,2.65,6.8-.19,14.36,4.09,20.25,1.34,1.84,3.32,3.14,6.2,3.57v1.95c0,1.23,1.79,2.22,4,2.22s4-.99,4-2.22v-1.98c2.76-.48,4.81-1.86,6.23-3.72,4.75-6.2,.88-12,5.04-19.07,1.21-2.06,3.07-4.07,5.9-5.79,.4-.24,.27-.86-.19-.92"/></g></g></svg>