<?xml version="1.0" encoding="UTF-8"?><svg id="Laag_1" xmlns="http://www.w3.org/2000/svg" xmlns:xlink="http://www.w3.org/1999/xlink" viewBox="0 0 64 64"><defs><style>.cls-1{fill:none;}.cls-2{clip-path:url(#clippath);}.cls-3{clip-path:url(#clippath-1);}</style><clipPath id="clippath"><rect class="cls-1" width="64" height="64"/></clipPath><clipPath id="clippath-1"><rect class="cls-1" width="64" height="64"/></clipPath></defs><g class="cls-2"><g class="cls-3"><path d="M13.5,48c-3.59,0-6.5,2.91-6.5,6.5s2.91,6.5,6.5,6.5,6.5-2.91,6.5-6.5-2.91-6.5-6.5-6.5"/><path d="M61.63,58.13l-1.4-1.4c-.47-.47-1.1-.73-1.77-.73h-4.13l-6.99-42.36c-1.36-7.67-4.97-10.33-7.75-11.22-4.25-1.34-9.22,.53-14,5.27-4.8,4.77-7.1,11.15-6.48,17.97,.32,3.51,1.42,6.95,3.07,9.94-1.83-.31-3.84-.49-6.05-.49C-.93,35.12,.63,57,4.58,57h.62c-.24-.79-.37-1.63-.37-2.5,0-4.79,3.88-8.67,8.67-8.67s8.67,3.88,8.67,8.67c0,.87-.13,1.71-.37,2.5h11.18c.03,.07,.08,.33-.32,.46l-4.42,.88c.55,1.55,2.02,2.66,3.75,2.66,2.21,0,4-1.79,4-4h3.69c.78,0,1.39-.66,1.31-1.42-.35-3.36-2.04-11.88-10.04-16.8h0c-3.77-2.57-6.46-8.13-6.96-13.55-.35-3.77,.25-9.27,5.05-14.05,3.32-3.3,6.71-4.83,9.07-4.08,2.11,.67,3.68,3.3,4.4,7.37l6.92,41.53h-3.89c-.66,0-1.3,.26-1.77,.73l-1.4,1.4c-.23,.23-.37,.55-.37,.88v.73c0,.69,.56,1.25,1.25,1.25h17.5c.69,0,1.25-.56,1.25-1.25v-.73c0-.33-.13-.65-.37-.88"/></g></g></svg>