<?xml version="1.0" encoding="UTF-8"?><svg id="Laag_1" xmlns="http://www.w3.org/2000/svg" xmlns:xlink="http://www.w3.org/1999/xlink" viewBox="0 0 64 64"><defs><style>.cls-1{fill:none;}.cls-2{clip-path:url(#clippath);}.cls-3{clip-path:url(#clippath-1);}</style><clipPath id="clippath"><rect class="cls-1" width="64" height="64"/></clipPath><clipPath id="clippath-1"><rect class="cls-1" width="64" height="64"/></clipPath></defs><g class="cls-2"><polygon points="27.49 35.97 26.32 40.74 26.88 43.99 31.72 43.99 30.82 37.14 27.49 35.97"/><g class="cls-3"><path d="M50,28.9c2.87,0,6.73,.09,9.67,.46,.33-2.3,.63-5.95,.17-8.76-.55-3.33-4.26-7.15-10.11-6.53-7.74,.82-15.7,2.51-23.15-1.01-.3,3.36-1.81,6.36-3.08,7.72-.31,.33-.43,.14-.43,.14,.15-.62,3.18-6.21,1.24-9.95-2.64-5.07-7.34-8.25-8.31-7.4-1.53,1.35-1,3-1,3l3,1c0,1.35-4,5.41-6.04,6.91-1.49,1.1-2.38-.43-2.76-1.33-.1-.24-.43-.25-.55-.03-.94,1.75-.66,3.44-.66,3.44-1.72-.72-4.99-3.01-6.39-4.92-.18-.24-.57-.09-.54,.21,.62,6.48,5.12,11.66,5.12,11.66-.09,2.31,.35,3.9,.35,3.9,0,0,3.4,.93,4.08,.36,.6-.52,1.15-1.95,5.45-2.66l3.19,6.3-.63,12.56h4.83l2.02-8.24c.2-1.05,.89-2.11,2.19-1.81,.72,.16,3.22,1.23,6.6,2.16,.07-.63,.14-1.23,.23-1.78,.41-2.46,2.34-4.4,4.81-4.81,3.01-.5,7.47-.61,10.68-.61M15,19c-.55,0-1-.45-1-1s.45-1,1-1,1,.45,1,1-.45,1-1,1"/><path d="M62.43,34.83c-.19-1.17-1.09-2.07-2.26-2.26-3.39-.56-9.04-.56-10.17-.56s-6.78,0-10.17,.56c-1.17,.2-2.07,1.09-2.26,2.26-.57,3.39-.57,9.04-.57,10.17s0,6.78,.57,10.17c.19,1.17,1.09,2.06,2.26,2.26,3.39,.57,9.04,.57,10.17,.57s6.78,0,10.17-.57c1.17-.2,2.07-1.09,2.26-2.26,.56-3.39,.56-9.04,.56-10.17,0-3.39,0-6.78-.56-10.17m-14.19,1.17l3.81-.31-.31,8.79v3.51h-3.51v-12Zm1.79,18.06c-1.32,0-2.07-.71-2.07-2.03,0-1.17,.7-2.09,2.05-2.09s2.07,.74,2.07,2.09c0,1.14-.7,2.03-2.05,2.03"/></g></g></svg>