<?xml version="1.0" encoding="UTF-8"?><svg id="Laag_1" xmlns="http://www.w3.org/2000/svg" xmlns:xlink="http://www.w3.org/1999/xlink" viewBox="0 0 64 64"><defs><style>.cls-1{fill:none;}.cls-2{clip-path:url(#clippath);}.cls-3{clip-path:url(#clippath-1);}</style><clipPath id="clippath"><rect class="cls-1" width="64" height="64"/></clipPath><clipPath id="clippath-1"><rect class="cls-1" width="64" height="64"/></clipPath></defs><g class="cls-2"><g class="cls-3"><path d="M51.79,45.26c-2.46-2.57-9.2-4.15-11.02-5.61-.1-.85-.24-1.89-.38-2.89,2.82,.3,5.22,.64,6.92,1.24,.38,.13,.77-.12,.88-.54,1.26-5.09,1.81-8.52,1.81-12.24,0-7.48-2.81-15.48-7.13-18.06-2.75-1.65-5.84-1.05-5.84-1.05,0,0-2.97-2.86-8.17-1.88-8.48,1.6-14.84,9.74-14.84,21,0,3.73,.56,7.16,1.82,12.24,.1,.42,.5,.67,.87,.54,1.82-.64,4.29-1.01,7.36-1.3-.11,.94-.24,1.99-.36,3.06-1.67,1.19-8.78,2.66-11.49,5.5-2.76,2.88-4.21,13.74-4.21,13.74H56s-1.45-10.86-4.21-13.74m-25.37-4.84c.07-.58,.58-5.32,.58-5.32-2.52-2.48-3.6-5.57-4.06-8.28-.29-1.73-.25-3.34-.16-4.41,4.8-1.89,11.6-5.75,14.23-9.06,0,0,.32,.01,.12,.5-.34,.83-.85,1.81-1.55,2.98,1.24,2.63,3.47,4.56,5.68,5.93,.07,1.03,.07,2.47-.2,4.06-.53,3.18-2.82,7.63-5.34,9.18-1.72,1.06-4.87,1.23-6.71,.44,.42,.84,1.27,1.84,3.16,2.31,2.53,.63,4.85-.41,5.45-.75,.11,.8,.22,1.59,.29,2.28,.05,.43,.16,1.49,3.13,2.88-2.32,4.03-7.4,6.19-8.98,6.78-1.49-.64-6.14-2.88-8.39-6.8,2.88-1.19,2.71-2.27,2.76-2.72"/></g></g></svg>