<?xml version="1.0" encoding="UTF-8"?><svg id="Laag_1" xmlns="http://www.w3.org/2000/svg" xmlns:xlink="http://www.w3.org/1999/xlink" viewBox="0 0 64 64"><defs><style>.cls-1{fill:none;}.cls-2{clip-path:url(#clippath);}.cls-3{clip-path:url(#clippath-1);}</style><clipPath id="clippath"><rect class="cls-1" width="64" height="64"/></clipPath><clipPath id="clippath-1"><rect class="cls-1" width="64" height="64"/></clipPath></defs><g class="cls-2"><g class="cls-3"><path d="M38.34,45.21h-3.35l-1.08,14.6h3.63l2.12-10.48s-.52-2.99-.63-3.68c-.04-.24-.29-.45-.7-.45"/><path d="M20.29,46.66l-2.46,3.92,2.83,9.24h3.19l-2.41-14.29c-.46,.25-.85,.63-1.15,1.13"/><path d="M58.14,18.46c-2.19-1.96-5.04-4.74-6.78-6.19-1.28-4.08-6.94-9.45-16.55-7.21-1.24,.29-1.25,1.38,.05,1.41,2.26,.06,8.63,.01,11.28,4.47h-.1c-3.41,.16-5.7,2.5-6.64,3.59-.71,.82-1.4,1.77-.95,2.16,.09,.08,.35,.11,.68,.11,3.96-.13,6.34-2.76,6.34-2.76,.17,.04,.28,.3-.03,.71-.68,.92-2.16,2.23-3.19,3.03-.83,2.8-1.9,4.78-3.93,6.58-1.6,1.41-3.69,2.14-5.82,2.06-8.2-.28-11.02-1.74-16.28-1.12-1.75,.21-3.03,.81-3.97,1.63-3.2-3.12-6.92-.3-8.3,2.33-.8,1.53-.15,1.98,1.06,1.51,1.43-.56,3.86-2.4,5.65-1.68-.67,1.46-.86,3.08-.88,4.42-.06,3.03,.58,5.65,3.47,10.28,0,0-2.74,4.6-3.13,5.28-.35,.62-.6,1.31-.37,1.99,.28,.84,3.11,8.76,3.11,8.76h2.87l-.6-9,3.31-5.27c.84-1.4,2.35-2.56,4.62-2.56h15.28c1.71,0,2.63,1.12,2.82,2.23l2.34,14.59h3.5l-.4-18.28c2.9-6.78,3.44-10.6,3.3-18.6,0,0,1.48,.04,2.94,.07,.15,.73,.53,2.21,1.54,3.46,1.18,1.46-.38,4.93,.14,5.08,.62,.18,2.38-2.67,2.45-4.87,.03-.84-.21-2.63-.41-3.63,2.33-.08,4.52-1.96,1.57-4.6m-8.14-.18c-.72,0-1.31-.58-1.31-1.31s.59-1.31,1.31-1.31,1.31,.58,1.31,1.31-.59,1.31-1.31,1.31"/></g></g></svg>