<?xml version="1.0" encoding="UTF-8"?><svg id="Laag_1" xmlns="http://www.w3.org/2000/svg" xmlns:xlink="http://www.w3.org/1999/xlink" viewBox="0 0 64 64"><defs><style>.cls-1{fill:none;}.cls-2{clip-path:url(#clippath);}.cls-3{clip-path:url(#clippath-1);}</style><clipPath id="clippath"><rect class="cls-1" width="64" height="64"/></clipPath><clipPath id="clippath-1"><rect class="cls-1" width="64" height="64"/></clipPath></defs><g class="cls-2"><g class="cls-3"><path d="M19.2,11.69c2.99,.49,5.06-1.32,5.55-4.33,.56-3.43-.94-5.57-3.85-6.05-3.06-.5-5.07,1.4-5.58,4.5-.54,3.26,.89,5.39,3.88,5.88"/><path d="M24.75,43.49c-.68-1.11-1.32-1.97-1.95-2.84-1.32-1.8-2.69-3.55-4.09-5.3,.55-2.9,1.36-6.49,2.12-9.7,.32,1.01,.69,2.05,1.25,3.18,.68,1.33,2.94,3.38,3.97,4.46,1.68,1.77,3.42,1.82,4.54,1.58,4.13,3.24,10.47,7.01,19.57,9.49l.93-1.82c-8.77-2.33-14.95-5.95-18.99-9.07-3.33-2.57-5.82-5.31-6.34-6.46-.44-.96-.8-2.21-1.12-3.33-.15-.53-1.65-6.71-1.88-7.05-.81-2.02-6.9-4.83-10.51-2.68-1.98,1.18-5.72,3.96-7.61,6.03-1.15,1.28-1.61,2.04-2.1,4.84-.3,1.76-.49,3.8-.53,5.58-.04,1.97,1,3.84,3.07,4.27,.45-3.37,1.15-8.4,2.23-10.59,.44-.89,2.43-2.22,3.26-2.76-.53,2.45-2.35,10.63-2.35,12.5,0,2.32,1.5,3.52,2.45,4.52l3.73,3.91s-.14,.24-.46,.05c-1.63-.94-3.78-2.19-3.78-2.19-.54,2.02-1.41,5.32-2.18,7.28-.61,1.56-.4,1.12-.99,2.13-1.2,2.05-2.75,4.13-4.08,6.46-2.19,3.83,.46,6.65,.83,7.01,2.15-3.03,5.87-7.5,7.96-10.65,.7-1.04,.78-1.12,1.57-2.64,.6-1.21,1.41-2.95,2.59-5.85,.51,.47,1.01,1,1.52,1.52,1.26,1.27,2.04,1.89,2.54,2.83,.15,.28,.46,.93,.78,1.74,1.93,4.97,3.47,7.86,4.32,9.9,1.28,3.06,4.85,3.36,5.85,3.06-.98-3.89-3.26-11.83-4.52-15.69-.9-2.73-1.02-2.77-1.59-3.72"/><polygon points="49.84 55.46 49.01 63 51.2 63 51.88 59.63 51.21 55.46 49.84 55.46"/><path d="M42.69,55.46c-.5,0-.78,.16-1.04,.6l-.99,1.64,1.53,5.3h2.17l-1.61-7.53h-.07Z"/><path d="M49.19,46.03h-6.33c-7.58,0-8.65-3.97-9.11-5.88-.18-.74-1.19-.61-1.24,.12-.12,1.61,.64,3.4,1.49,4.56,1.08,1.47,2.33,2.14,2.44,2.41,.33,.84-.09,.73-.27,2.72-.13,1.45,1.03,3.88,1.51,4.48l-1.67,2.78c-.22,.3-.29,.68-.19,1.04l1.3,4.72h2.23l-.71-4.85,1.73-2.87c.44-.73,1.13-1.32,2.32-1.32h8.92c.77,0,.97,.57,1.07,1.15l1.26,7.85h2.69s-.66-4.7-1.09-8.84c-.2-1.9,1.22-3.22,1.97-4.85,.27-.57,.39-1.24,.49-1.89l-6.46-2.7c-.66,.78-1.44,1.34-2.35,1.34"/><path d="M60.64,41.07c-.28-.73-1.23-1.84-2.45-1.84h-1.59c-.12-.25-.39-.68-.91-.87-.99-.36-2.87-1.18-3.17-.65-.31,.56,.54,1.64,1.29,2.44-.18,.6-.66,2-1.39,3.27l5.85,2.45c.19-.77,.51-1.33,1.28-1.39,1.7-.12,3.44-.44,3.6-2.92l-2.5-.5Z"/></g></g></svg>