<?xml version="1.0" encoding="UTF-8"?>
<svg id="Zwart" xmlns="http://www.w3.org/2000/svg" viewBox="0 0 64 64">
  <path d="M8,25h.76c1.01-.3,2.1-.6,3.24-.88v-2.12h-2v-4h4v-4h18v4h4v4h-2v2.1c1.17.29,2.29.6,3.33.9h.67c.55,0,1-.45,1-1v-8c0-.55-.45-1-1-1h-3v-3c0-.55-.45-1-1-1h-7v-3c0-.55-.45-1-1-1h-6c-.55,0-1,.45-1,1v3h-7c-.55,0-1,.45-1,1v3h-3c-.55,0-1,.45-1,1v8c0,.55.45,1,1,1Z"/>
  <path d="M61,38h-2.32c-3.26-9.68-3.35-16.31-3.35-16.42,2.54.82,4.35,3.61,4.55,7.46,0,0,.27.05.53-.42,3.62-6.52-.81-10.1-4.13-11.2,1.59-1.12,4.12-.38,5.59,1.51,0,0,.31-.12.25-.73-.79-7.66-7.38-4.65-8.38-2.21-2.12-2.44-4.09-2.38-6-1.62-2.21.87-4.11,4.31-3.96,7.42.02.43.27.58.27.58,1.85-3.12,3.78-4.38,6.52-4.12-4.42,1.92-5.08,8.23-3.21,10.84.21.29.46.24.46.24,0,0,.41-6.41,4.88-7.49-.17,3.11-.02,10.48,1.68,16.16h-9.39v13.3h0c.68.34,1.39.59,2.04.59,1.95,0,4.44-2.13,6-3.3,1.38,1.03,4.05,3.28,5.99,3.3,1.33,0,2.77-.91,3.97-1.77v-12.11h-2Z"/>
  <path d="M53.04,51.34c-1,.75-3.48,2.75-6,2.75s-4.92-1.94-6-2.75c-1,.75-3.48,2.75-6,2.75s-4.92-1.94-6-2.75c-1,.75-3.48,2.75-6,2.75s-4.92-1.94-6-2.75c-.61.46-3.37,2.75-6,2.75-2.46,0-4.92-1.94-6-2.75-.74.55-2.28,1.78-4.04,2.39v4.05c1.63-.36,3.08-1.07,4.04-1.64,1.34.79,3.6,1.86,6,1.86,1.59,0,3.83-.59,6-1.86,1.34.79,3.6,1.86,6,1.86s4.66-1.08,6-1.86c1.34.79,3.6,1.86,6,1.86s4.66-1.08,6-1.86c1.34.79,3.6,1.86,6,1.86s4.66-1.08,6-1.86c1.78,1.05,3.93,1.86,6,1.86,1.42,0,2.79-.38,3.96-.85v-4.38c-1.22.74-2.57,1.33-3.99,1.32-2.45-.02-4.89-1.94-5.96-2.75Z"/>
  <path d="M11.04,51.89c1.92,0,4.29-2.02,6-3.3,1.82,1.37,4.12,3.3,6,3.3s4.18-1.93,6-3.3c1.71,1.28,4.08,3.3,6,3.3,1.74,0,3.8-1.65,5.12-2.64.83-3.97,2.26-12.45,2.93-19.98,0,0-11.39-4.55-20.04-4.55-8.65,0-20.04,4.55-20.04,4.55.67,7.53,2.1,16,2.93,19.98,1.32.99,3.38,2.64,5.12,2.64ZM29.6,37.25h3.21l-1.73,3.69-3.1-.56,1.62-3.12ZM16.49,37.25l1.62,3.12-3.1.56-1.73-3.69h3.21Z"/>
</svg>