<?xml version="1.0" encoding="UTF-8"?><svg id="Laag_1" xmlns="http://www.w3.org/2000/svg" xmlns:xlink="http://www.w3.org/1999/xlink" viewBox="0 0 64 64"><defs><style>.cls-1{fill:none;}.cls-2{clip-path:url(#clippath);}.cls-3{clip-path:url(#clippath-1);}</style><clipPath id="clippath"><rect class="cls-1" width="64" height="64"/></clipPath><clipPath id="clippath-1"><rect class="cls-1" width="64" height="64"/></clipPath></defs><g class="cls-2"><g class="cls-3"><path d="M31.93,26.98l6.23-1.2-3.55,3.88,2.47,2.47,5.63-6.16c.25,.99,.57,2.18,.96,3.36,2.1,6.46,4.7,9.52,5.05,9.93,.36,.43,1.01,.15,.93-.32-.09-.53-1.04-2.99-2.1-7.41,.34-.05,.68-.09,1.03-.09,3.93,0,7.12,3.19,7.12,7.12,0,3.31-2.26,6.08-5.31,6.88l2.61,2.61c3.57-1.67,6.06-5.28,6.06-9.48,0-5.78-4.69-10.47-10.47-10.47-.61,0-1.2,.07-1.79,.18-.54-2.35-1.08-4.75-1.08-4.75h0l-1.76-8.85c-.18-.91-1.05-1.52-1.97-1.38l-5,.76c-.65,.1-1.15,.66-1.15,1.34,0,.75,.61,1.35,1.36,1.35h3.62l.96,4.79-12.8,2.46,2.98,2.98Z"/><path d="M39.1,34.15l2.6,2.6c.31-1.16,.9-2.21,1.7-3.07-.43-1-.87-2.12-1.28-3.35-1.28,1.01-2.32,2.32-3.02,3.81"/><path d="M47.75,45.63l-6.24-6.24-3.14-3.14-2.64-2.64-2.47-2.48-3.7-3.7-2.98-2.98-2.87-2.86-3.09-3.1L7.73,5.61l-2.12,2.12,11.24,11.24c-.13,.11-.24,.23-.32,.37-1.21,1.9,2.69,3.32,3.2,3.49l1.05,3.66s-7.16,9.98-7.39,10.3c-1.31,1.82-.3,4.08,1.65,4.36,1.26,.19,6.58,.89,6.58,.89-1.22,2.17-3.53,3.64-6.2,3.64-3.93,0-7.12-3.19-7.12-7.12s2.9-6.82,6.58-7.09l2.29-3.22c-.57-.1-1.15-.16-1.75-.16-5.78,0-10.47,4.69-10.47,10.47s4.69,10.47,10.47,10.47c4.39,0,8.14-2.7,9.69-6.52l2.93,.38c2.46,.29,3.96-1.61,3.96-3.46,0-.51-.11-.98-.3-1.42l2.01-2.19,4.58,4.58c.76,4.3,4.15,7.69,8.46,8.46l9.47,9.47,2.12-2.12-7.44-7.45-3.14-3.14Zm-29.46-9.69l3.72-5.18,1.5,5.18h-5.22Zm10.56,0h-1.71l-2.2-7.62,1.05-.2,5.23,5.23-2.38,2.59Z"/><path d="M27.06,20.21c.9-.35,.68-1.71-.29-1.71h-3.32l2.26,2.26c.61-.25,1.12-.46,1.35-.55"/></g></g></svg>