<?xml version="1.0" encoding="UTF-8"?><svg id="Laag_1" xmlns="http://www.w3.org/2000/svg" xmlns:xlink="http://www.w3.org/1999/xlink" viewBox="0 0 64 64"><defs><style>.cls-1{fill:none;}.cls-2{clip-path:url(#clippath);}.cls-3{clip-path:url(#clippath-1);}</style><clipPath id="clippath"><rect class="cls-1" width="64" height="64"/></clipPath><clipPath id="clippath-1"><rect class="cls-1" width="64" height="64"/></clipPath></defs><g class="cls-2"><g class="cls-3"><path d="M8,40V8H30V26.6c1.07,1.37,2.23,2.87,3.35,4.32,.19-.19,.41-.36,.65-.53V5.83c0-1.86-1.44-3.7-3.42-4C22.9,.72,15.17,.72,7.49,1.83c-1.98,.29-3.49,2.13-3.49,4V46.17c0,1.86,1.59,3.7,3.57,4,6.57,.95,13.12,1.08,19.69,.4,.05-1.8,.64-3.43,1.1-4.68l.39-1.06c-1.03-1.63-2.04-3.26-3.02-4.83H8Zm11,8.15c-1.46,0-2.65-1.19-2.65-2.65s1.19-2.65,2.65-2.65,2.65,1.19,2.65,2.65-1.19,2.65-2.65,2.65"/><path d="M58.25,38.12c-1.36-2.18-4.29-6.87-6.82-8.91-2.37-1.92-4.88-1.08-5.65,.51-.84-.51-2.52-1.12-4.23-.28-1.74,.85-1.78,2.79-1.78,2.79-.08-.01-2.04-1.52-4.21-.23-1.53,.91-1.79,2.61-1.83,3.02-3.62-4.73-8.94-11.49-9.56-12.34-.88-1.2-2.5-1.58-3.76-.79h0c-1.26,.79-1.7,2.45-.95,3.73,.53,.91,9.04,14.84,15.73,25.26-.03,.05-.18,.19-.43-.01-.77-.64-3.71-3.98-4.22-4.52-.71,1.97-1.82,4.64-.38,7.26,3.07,5.57,10.37,5.16,16.32,9.45l16.4-10.53c-4.18-6.51,.89-5.52-4.63-14.39"/><path d="M19.79,17.48c.92,.28,2.03,.38,3.01,.46,1.35,.12,2.8,.15,3.37-.49,.21-.24,.28-.55,.2-.92-.12-.55-.49-.85-1.02-.81-2.72,.19-4.73-.57-6.99-1.71-.48,1.43-.83,2.73-2.03,3.71-1.25,.8-1.28,.8-2.96,1.07-.5,.08-.6,.1-1.09,.18,.54,2.47,.48,5.01,.02,7.15-.1,.48,.11,.91,.58,1.15,.28,.14,.58,.18,.86,.03,.6-.31,1.02-1.36,1.29-3.21,.16-1.03,.3-2.11,.25-3.03,1.16-.31,1.86-.72,2.66-1.3,.75-.61,1.34-1.33,1.85-2.28"/></g></g></svg>