<?xml version="1.0" encoding="UTF-8"?><svg id="Laag_1" xmlns="http://www.w3.org/2000/svg" xmlns:xlink="http://www.w3.org/1999/xlink" viewBox="0 0 64 64"><defs><style>.cls-1{fill:none;}.cls-2{clip-path:url(#clippath);}.cls-3{clip-path:url(#clippath-1);}</style><clipPath id="clippath"><rect class="cls-1" width="64" height="64"/></clipPath><clipPath id="clippath-1"><rect class="cls-1" width="64" height="64"/></clipPath></defs><g class="cls-2"><g class="cls-3"><path d="M34.2,11.69c2.99,.49,5.06-1.32,5.55-4.33,.56-3.43-.94-5.57-3.85-6.05-3.07-.5-5.07,1.4-5.58,4.5-.53,3.26,.89,5.39,3.88,5.88"/><path d="M58,43l-2.94-8.31c-.19-.52-.76-.79-1.28-.6l-5.08,1.85-.97-2.66c-.08-.22-.25-.41-.47-.51-.22-.1-.47-.11-.69-.03l-.99,.36c-1.06-1.29-2.36-2.79-2.81-3.35-.5-.61-1.69-2.02-2.01-2.74-.44-.96-.8-2.2-1.12-3.33-.15-.53-1.65-6.71-1.88-7.05-.81-2.02-6.9-4.83-10.51-2.68-1.98,1.18-5.71,3.96-7.6,6.03-1.15,1.28-1.61,2.04-2.11,4.84-.3,1.76-.49,3.8-.53,5.58-.04,1.97,1,3.84,3.07,4.27,.44-3.37,1.15-8.4,2.23-10.59,.44-.89,2.43-2.22,3.26-2.76-.53,2.45-2.35,10.63-2.35,12.5,0,2.32,1.5,3.52,2.45,4.52l3.73,3.91s-.14,.24-.46,.05c-1.63-.95-3.78-2.19-3.78-2.19-.54,2.02-1.41,5.32-2.18,7.28-.61,1.56-.4,1.12-.99,2.13-1.2,2.05-2.75,4.13-4.08,6.46-2.19,3.83,.46,6.65,.83,7.01,2.15-3.02,5.87-7.5,7.96-10.65,.7-1.04,.78-1.12,1.57-2.64,.6-1.21,1.41-2.95,2.58-5.85,.51,.47,1.01,1,1.52,1.52,1.26,1.27,2.04,1.89,2.54,2.83,.15,.28,.46,.93,.78,1.74,1.93,4.97,3.47,7.86,4.32,9.9,1.28,3.06,4.85,3.36,5.85,3.06-.98-3.89-3.26-11.83-4.52-15.69-.9-2.73-1.02-2.77-1.6-3.72-.68-1.11-1.32-1.97-1.95-2.84-1.32-1.8-2.69-3.55-4.09-5.3,.55-2.91,1.36-6.49,2.12-9.7,.32,1.01,.69,2.05,1.25,3.18,.68,1.33,2.94,3.38,3.97,4.46,.41,.44,.83,.76,1.24,1.01l-.65,.24c-.47,.17-.71,.69-.54,1.15l.97,2.66-2.64,.96c1.31,1.77,1.69,2.38,2.28,3.34,.56,.91,.8,1.35,1.64,3.9,.24,.74,.51,1.61,.81,2.56l13.26-4.83c.52-.19,.79-.76,.6-1.28m-14.9-7.08l3.24-1.18,.66,1.82-3.24,1.18-.66-1.82Z"/></g></g></svg>