<?xml version="1.0" encoding="UTF-8"?><svg id="Laag_1" xmlns="http://www.w3.org/2000/svg" xmlns:xlink="http://www.w3.org/1999/xlink" viewBox="0 0 64 64"><defs><style>.cls-1{fill:none;}.cls-2{clip-path:url(#clippath);}.cls-3{clip-path:url(#clippath-1);}</style><clipPath id="clippath"><rect class="cls-1" width="64" height="64"/></clipPath><clipPath id="clippath-1"><rect class="cls-1" width="64" height="64"/></clipPath></defs><g class="cls-2"><g class="cls-3"><path d="M59.67,41.11c-.82-.89-2.72-1.71-4.31-2.28,0,0,2.55-2.92,2.39-6.26-.13-2.72-1.46-3.95-2.41-6.67-1.1-3.16-2.14-6.58-6.6-6.58-2.77,0-4.22,1.32-5.18,3.08,.83,1.85,1.49,3.84,1.62,6.51,.19,3.99-1.36,7.64-2.78,10.09,2.78,1.2,4.7,2.4,5.83,3.63,1.08,1.18,1.96,3.57,2.67,6.38h11.1s-.8-6.24-2.33-7.89"/><path d="M39.09,40.03c1.28-1.72,4.13-6.13,3.9-11.04-.24-5.12-2.75-7.44-4.54-12.58-2.07-5.95-4.04-12.42-12.44-12.42-8.4,0-10.37,6.46-12.44,12.42-1.79,5.14-4.3,7.46-4.54,12.58-.23,4.91,2.61,9.31,3.89,11.04-2.86,1.06-6.08,2.51-7.52,4.08-1.85,2.01-3.14,9.68-3.82,14.89H50.43c-.68-5.2-1.97-12.88-3.82-14.89-1.44-1.57-4.66-3.01-7.52-4.08m-12.43-1.28c3.15,.84,5.46-.91,5.46-.91,0,0,.28,1.91,.27,2.42,.33,3.49-3.56,7.32-6.01,9.08-2.3-1.75-6.59-5.53-6.16-9.02,.24-1.91,.04-.55,.82-5.44-2.18-2.11-3.93-4.65-4.08-7.66-1.77,.89-3.33,2.03-4.55,3.38-.05-.06-.16-.17,.03-.49,2.5-4.23,7.89-7.17,13.55-7.17s11.05,2.95,13.55,7.17c.19,.33,.08,.44,.03,.49-1.22-1.35-2.78-2.48-4.54-3.37-.18,3.5-2.62,6.18-5.32,8.48-.78,.67-2.25,1.11-3.72,1.11-1.06,0-2.12-.29-2.93-.64,.61,.93,1.66,2.07,3.59,2.58"/></g></g></svg>