<?xml version="1.0" encoding="UTF-8"?><svg id="Laag_1" xmlns="http://www.w3.org/2000/svg" xmlns:xlink="http://www.w3.org/1999/xlink" viewBox="0 0 64 64"><defs><style>.cls-1{fill:none;}.cls-2{clip-path:url(#clippath);}.cls-3{clip-path:url(#clippath-1);}</style><clipPath id="clippath"><rect class="cls-1" width="64" height="64"/></clipPath><clipPath id="clippath-1"><rect class="cls-1" width="64" height="64"/></clipPath></defs><g class="cls-2"><g class="cls-3"><path d="M57.04,14.05H7c-1.1,0-2,.9-2,2v31.37c0,1.1,.9,2,2,2H57.04c1.1,0,2-.9,2-2V16.05c0-1.1-.9-2-2-2m-24.53,31.44h-7.69c.16-.84,.31-1.65,.47-2.67,.15-.91,.3-1.88,.39-2.92,.05-.62,.08-1.11-.08-1.65-.15-.49-.62-1.1-3.28-3.63,.5-1.44,1.12-3.1,1.64-4.45,.33,.87,1.06,2.59,1.85,3.09,.63,.4,2.28,.6,3.04,.64,1.33,.08,1.83-1.01,1.93-1.26-2.36-.54-3.46-.78-3.89-.97-.42-.44-1.13-2.34-1.34-2.91-.47-1.3-.57-2.63-3.59-3.34-1.83-.43-4.94-.03-5.74,.56-.88,.61-1.81,1.97-2.42,2.89h0c-.5,.79-.5,1.81,.19,2.43,.37-.4,2.29-3.12,3.3-3.59,.32-.13,1.33-.29,2.41-.24-.81,2-1.66,4.84-1.93,5.78-.54,1.86,.74,2.89,1.93,3.86,0,0-.02,.09-.16,.09-.38,0-1.13-.35-1.71-.58-.48,.78-1.5,2.39-2.04,3.07-1.14-.16-3.1-.99-3.66-1.19-1.57-.56-2.34,1.11-2.34,1.11,1.34,.73,4.65,2.46,6.16,2.56,.87,.06,1.23-.21,2-1.04,.82-.9,1.98-2.34,2.7-3.26,.65,.44,1.59,1.07,2.2,1.55,.09,1.29-.12,4.29-.23,5.56-.01,.14,0,.31,.05,.49H8.93V17.98h23.58v27.51Zm22.09-12.62l-8.47,6.68c-.28,.22-.61,.33-.94,.33-.35,0-.7-.12-.99-.36-.55-.47-.69-1.27-.33-1.89l.65-1.15,.85-1.49,.61-1.07h-8.97c-1.21,0-1.57-1.05-1.57-2.23s.36-2.23,1.57-2.23h8.97l-2.11-3.71c-.36-.63-.22-1.42,.33-1.89,.55-.47,1.35-.49,1.92-.04l8.47,6.68c.36,.29,.57,.72,.57,1.18s-.21,.9-.57,1.19"/><path d="M23.69,24.89c1.27,.46,2.33-.16,2.8-1.45,.53-1.46,.04-2.53-1.19-2.97-1.31-.47-2.35,.2-2.82,1.52-.5,1.39-.05,2.44,1.22,2.9"/></g></g></svg>