<?xml version="1.0" encoding="UTF-8"?><svg id="Laag_1" xmlns="http://www.w3.org/2000/svg" xmlns:xlink="http://www.w3.org/1999/xlink" viewBox="0 0 64 64"><defs><style>.cls-1{fill:none;}.cls-2{clip-path:url(#clippath);}.cls-3{clip-path:url(#clippath-1);}</style><clipPath id="clippath"><rect class="cls-1" width="64" height="64"/></clipPath><clipPath id="clippath-1"><rect class="cls-1" width="64" height="64"/></clipPath></defs><g class="cls-2"><g class="cls-3"><path d="M63,42l-14.18-20.09c-.4-.56-1.24-.56-1.63,0l-5.31,7.52,8.88,12.57h12.25Z"/><path d="M7.64,23.06c-1.98,3.16-.92,6.48,.83,7.81,.15,.11,.26,.08,.29,.03,0,0-.58-3.86,1.78-6.77,.17-.21,.35-.17,.39-.05-.17,.6-.56,2.08-.54,3.03,0,0,.91,3.65,2.3,7.18l1.98-2.81c-1.03-2.64-1.94-5.99-2.31-7.72,0,0,2.31-.87,5.79,.78,.08,.03,.16,.03,.13-.11-.54-2.6-2.55-3.88-5.15-3.95,0,0,1.65-1.04,6.34-.95,.05-.04,.09-.08,.01-.25-1.28-2.78-4.92-3.47-7.32-1.22,0,0,.85-2.19,3.57-3.6,0-.05,0-.12-.16-.18-.6-.23-2.2-.64-4.18,.23-1.78,.78-2.36,2.22-2.75,3.45,0,0-2.12-1.41-4.49-.21-1.92,.98-2.62,2.96-2.82,3.72-.05,.19-.01,.23,.04,.24,.55-.35,3.09-1.86,4.95-1.28,0,0-1.1,.38-2.2,1.78-1.19,1.52-1.27,3.79-.36,5.45,.07,.13,.17,.17,.22,.13,.24-.56,1.67-3.66,3.65-4.72"/><path d="M28.18,16.16L5,49H53L29.82,16.16c-.4-.56-1.24-.56-1.63,0"/></g></g></svg>