<?xml version="1.0" encoding="UTF-8"?><svg id="Laag_1" xmlns="http://www.w3.org/2000/svg" viewBox="0 0 64 64"><defs><style>.cls-1{fill:none;}</style></defs><rect class="cls-1" width="64" height="64"/><path d="m51.66,41.06c-.94-.99-2.82-2.07-4.88-3.07-2.7-1.34-5.72-2.52-7.33-3.12-.61-.23-1-.8-1.11-1.44-.14-.8-.29-2-.4-3,4.07-.17,7.44-.57,8.84-1.1.28-.11.42-.36.29-.63-.77-1.67-2.76-7.17-3.01-10.04-.62-7.05-.59-19.66-10.25-16.5,0,0-6.13-3.92-11.11,2.64-3.5,4.61-2.65,10.69-2.79,14.08-.1,2.41-2.07,7.98-2.9,9.42-.18.31-.12.62.22.74,1.5.54,4.89.97,8.87,1.22-.08.72-.18,1.56-.3,2.31h0c-.02.11-.03.21-.05.32-.03.19-.06.38-.1.54-.13.65-.5,1.21-1.11,1.44-.68.25-1.61.61-2.65,1.04,0,0,0,0,0,0-1.44.59-3.1,1.31-4.67,2.08-2.06.99-3.94,2.07-4.88,3.07-2.91,3.06-2.87,11.43-3.39,21.94h46.1c-.52-10.5-.48-18.88-3.39-21.94Zm-3.9,17.04c-.63,3.16-4.91,2.02-6.98,1.46-2.91-.79-5.78-1.29-5.78-4.44v-4.56c1.67.54,3.31,1.48,5.14,2.85,0,0,.39-.14-.03-.83-1.37-2.23-3.4-3.8-6.4-4.66-1.07-.31-2.26-.33-3.4,0-3,.86-5.03,2.43-6.4,4.66-.43.69-.03.83-.03.83,1.82-1.37,3.47-2.31,5.14-2.85v4.56c0,3.15-2.87,3.66-5.78,4.44-2.07.56-6.34,1.7-6.98-1.46-2.24-11.18,6.35-21.2,10.08-21.2,1.48,0,2.67,1.2,2.67,2.67v3.34c0,.46-.27.88-.69,1.08-1.44.68-3.23,1.22-4.91,1.42,0,0-.18.38.62.56.74.17,6.98.92,6.98-2.6v-12.41c0-.55.45-1,1-1s1,.45,1,1v12.41c0,3.51,6.24,2.77,6.98,2.6.8-.18.62-.56.62-.56-1.68-.2-3.47-.73-4.91-1.42-.42-.2-.69-.61-.69-1.08v-3.34c0-1.48,1.2-2.67,2.67-2.67,3.73,0,12.33,10.02,10.08,21.2Z"/></svg>