<?xml version="1.0" encoding="UTF-8"?><svg id="Laag_1" xmlns="http://www.w3.org/2000/svg" xmlns:xlink="http://www.w3.org/1999/xlink" viewBox="0 0 64 64"><defs><style>.cls-1{fill:none;}.cls-2{clip-path:url(#clippath);}.cls-3{clip-path:url(#clippath-1);}</style><clipPath id="clippath"><rect class="cls-1" width="64" height="64"/></clipPath><clipPath id="clippath-1"><rect class="cls-1" width="64" height="64"/></clipPath></defs><g class="cls-2"><g class="cls-3"><path d="M32,8c-13.25,0-24,10.74-24,24s10.75,24,24,24,24-10.75,24-24S45.25,8,32,8m-12.53,21.39c0-1.1,.43-2.1,1.1-2.87l7.19,4.67c-.69,1.5-2.19,2.55-3.95,2.55-2.4,0-4.35-1.95-4.35-4.35m18.59,16.47c-1.19-.35-3.39-.86-6.06-.86s-4.87,.52-6.06,.86c-.41,.12-.77-.29-.59-.68,.66-1.5,2.43-4.19,6.65-4.19s5.99,2.68,6.65,4.19c.17,.39-.19,.8-.59,.68m2.12-12.12c-1.76,0-3.26-1.05-3.95-2.55l7.19-4.67c.68,.77,1.1,1.76,1.1,2.87,0,2.4-1.95,4.35-4.35,4.35"/></g></g></svg>