<?xml version="1.0" encoding="UTF-8"?><svg id="Laag_1" xmlns="http://www.w3.org/2000/svg" xmlns:xlink="http://www.w3.org/1999/xlink" viewBox="0 0 24 24"><defs><style>.cls-1{fill:none;}.cls-2{clip-path:url(#clippath);}.cls-3{clip-path:url(#clippath-1);}</style><clipPath id="clippath"><rect class="cls-1" width="24" height="24"/></clipPath><clipPath id="clippath-1"><rect class="cls-1" width="24" height="24"/></clipPath></defs><g class="cls-2"><g class="cls-3"><path d="m21.57,4.17c-.15-.9-.84-1.59-1.74-1.74-2.61-.43-6.96-.43-7.83-.43s-5.22,0-7.83.43c-.9.15-1.59.84-1.74,1.74-.44,2.61-.44,6.96-.44,7.83s0,5.22.44,7.83c.15.9.84,1.59,1.74,1.74,2.61.43,6.96.43,7.83.43s5.22,0,7.83-.43c.9-.15,1.59-.84,1.74-1.74.43-2.61.43-6.96.43-7.83,0-2.61,0-5.22-.43-7.83m-5.45,8.45l-5.86,4.34c-.24.18-.56.2-.82.07-.26-.13-.43-.4-.43-.7V7.65c0-.3.17-.57.43-.7.26-.13.58-.11.82.07l5.86,4.35c.2.15.32.38.32.63s-.12.48-.32.63"/></g></g></svg>