<?xml version="1.0" encoding="UTF-8"?><svg id="Laag_1" xmlns="http://www.w3.org/2000/svg" xmlns:xlink="http://www.w3.org/1999/xlink" viewBox="0 0 64 64"><defs><style>.cls-1{fill:none;}.cls-2{clip-path:url(#clippath);}.cls-3{clip-path:url(#clippath-1);}</style><clipPath id="clippath"><rect class="cls-1" width="64" height="64"/></clipPath><clipPath id="clippath-1"><rect class="cls-1" width="64" height="64"/></clipPath></defs><g class="cls-2"><g class="cls-3"><path d="M41.25,41.5c0-.97-.78-1.75-1.75-1.75s-1.75,.78-1.75,1.75,.78,1.75,1.75,1.75,1.75-.78,1.75-1.75m2,6c0-.97-.78-1.75-1.75-1.75s-1.75,.78-1.75,1.75,.78,1.75,1.75,1.75,1.75-.78,1.75-1.75m-3.79-12.98c.83-.25,1.3-1.13,1.05-1.97l-3.08-6.65c.05-.71,.65-1.87,.72-2.46,.35-2.99-.06-6.54-.06-6.54,2.41-2.51,2.43-5.38,.56-7.58-2.14-2.51-11.61-5.54-19.74-3.79-8.58,1.85-10,9.67-9.87,13.85,.15,4.86,2.88,12.42,1.79,17.24-.48,2.11-5.82,12.39-5.82,12.39H24.85v-2.86l-4.07-4.39c-.22-.28-.07-.49-.02-.54,0,0,6.17,3.27,8.42,4.28,2.21,.99,3.17-.5,3.88-1.94,.4-.82,.81-.7,1.42-1,.76-.37,.21-1.92-.22-2.66-.38-.66-.6-.77-.6-.77,.7,.07,1.38-.06,1.92-.23,.61-.19,1.15-.82,.94-1.43-.45-1.33,.12-2.38,.12-2.38l2.82-.58Zm8.79,4.98c0-.97-.78-1.75-1.75-1.75s-1.75,.78-1.75,1.75,.78,1.75,1.75,1.75,1.75-.78,1.75-1.75m5.25-3.75c-.97,0-1.75,.78-1.75,1.75s.78,1.75,1.75,1.75,1.75-.78,1.75-1.75-.78-1.75-1.75-1.75m-10,16c-.97,0-1.75,.78-1.75,1.75s.78,1.75,1.75,1.75,1.75-.78,1.75-1.75-.78-1.75-1.75-1.75m4.94-7.83c-.97,0-1.75,.78-1.75,1.75s.78,1.75,1.75,1.75,1.75-.78,1.75-1.75-.78-1.75-1.75-1.75"/></g></g></svg>