<?xml version="1.0" encoding="UTF-8"?><svg id="Laag_1" xmlns="http://www.w3.org/2000/svg" xmlns:xlink="http://www.w3.org/1999/xlink" viewBox="0 0 24 24"><defs><style>.cls-1{fill:none;}.cls-2{clip-path:url(#clippath);}.cls-3{clip-path:url(#clippath-1);}</style><clipPath id="clippath"><rect class="cls-1" width="24" height="24"/></clipPath><clipPath id="clippath-1"><rect class="cls-1" width="24" height="24"/></clipPath></defs><g class="cls-2"><g class="cls-3"><path d="m20.59,17.77l-4.54-4.53c.52-.96.81-2.07.81-3.24,0-3.78-3.07-6.85-6.85-6.85s-6.85,3.07-6.85,6.85,3.07,6.85,6.85,6.85c1.15,0,2.24-.29,3.2-.8l4.55,4.55c.71.71,1.87.71,2.58,0l.25-.25c.71-.71.71-1.87,0-2.58m-14.72-7.77c0-2.29,1.86-4.15,4.15-4.15s4.15,1.86,4.15,4.15-1.86,4.15-4.15,4.15-4.15-1.86-4.15-4.15"/></g></g></svg>