<?xml version="1.0" encoding="UTF-8"?><svg id="Laag_1" xmlns="http://www.w3.org/2000/svg" xmlns:xlink="http://www.w3.org/1999/xlink" viewBox="0 0 64 64"><defs><style>.cls-1{fill:none;}.cls-2{clip-path:url(#clippath);}.cls-3{clip-path:url(#clippath-1);}</style><clipPath id="clippath"><rect class="cls-1" width="64" height="64"/></clipPath><clipPath id="clippath-1"><rect class="cls-1" width="64" height="64"/></clipPath></defs><g class="cls-2"><g class="cls-3"><path d="M34.28,26.07c.1,.36,.51,.53,.83,.34l.42-.25,.03-.65,1.27-.17c.3-.04,.54-.27,.6-.57l.71-4.01,.81-.43c.2-.11,.36-.29,.44-.51l.32-.88c.1-.27,.06-.56-.1-.79l-1.04-1.5c-.16-.23-.21-.53-.12-.8l.76-2.44c.05-.15,.14-.28,.27-.37l1.43-1c.24-.17,.42-.42,.49-.7l.74-2.77c.06-.23,.28-.38,.51-.37l1.19,.08c.48,.03,.77,.54,.55,.97l-1.17,2.29-1.38,1.39c-.22,.23-.32,.55-.26,.86l.41,1.98-.1,1.32c-.02,.26,.09,.52,.3,.68l.91,.72c.23,.18,.54,.23,.81,.12l3.48-1.38c.2-.08,.38-.23,.49-.41l2.15-3.56c.27-.45,.14-1.04-.31-1.33l-1.24-.81,.05-.07c.24-.3,.28-.71,.13-1.06l-1.59-3.6c-.15-.34-.17-.72-.04-1.07l.16-.46c.1-.28,0-.58-.23-.76l-1.07-.82,.26-1.66c.05-.32-.12-.63-.42-.76l-.52-.21c-.4-.16-.85,.06-.95,.48l-.19,.8c-.14,.59-.65,1.03-1.26,1.09h-.02c-.52,.05-1.03-.2-1.3-.65-.1-.16-.31-.22-.47-.12-1.39,.8-.38,1.28-1.4,1.58l-.19,.06c-.57,.17-1.03,.58-1.28,1.11l-2.48,5.42-1.32,1.9c-.12,.17-.19,.38-.19,.59l-.06,2.21c0,.26,.09,.51,.27,.69,.18,.18,.23,.45,.12,.68l-1.63,3.51c-.1,.22-.12,.46-.06,.69l1.47,5.38Z"/><path d="M35.01,57.37l-2.17,.27-.09-.11c-.16-.18-.41-.27-.66-.22l-.56,.11c-.14,.03-.26,.12-.32,.25-.1,.21-.02,.46,.18,.57l3.18,1.82c.18,.1,.4-.02,.41-.23l.07-1.46c0-.16,.09-.32,.21-.42,.09-.07,.13-.19,.12-.3-.02-.18-.19-.31-.37-.29"/><path d="M32.47,26.88c.06,.15,.02,.32-.11,.42-.17,.14-.18,.39-.02,.54l.05,.05c.17,.16,.45,.12,.56-.09l.73-1.4c.04-.07,.05-.15,.04-.23l-.09-.53c-.04-.22-.26-.35-.47-.27l-.8,.28c-.19,.07-.29,.29-.21,.48l.32,.75Z"/><path d="M53.1,44.96l.15-.06c.2-.08,.36-.25,.4-.47,.08-.41-.22-.78-.63-.8l-.81-.04c-.34-.02-.61-.29-.63-.63l-.05-1.03c-.02-.32-.13-.62-.34-.86l-1.34-1.58c-.32-.37-.85-.47-1.28-.24l-.65,.36c-.27,.15-.58,.22-.88,.2l-1.66-.1c-.21-.01-.42-.07-.6-.17l-.54-.29c-.2-.11-.26-.37-.12-.56l.35-.47c.15-.21,.22-.47,.19-.72l-.04-.31c-.03-.19,.03-.38,.16-.53l.89-1.02c.24-.28,.33-.66,.24-1.02l-.41-1.55c-.08-.32-.28-.59-.55-.79-.12-.09-.13-.26-.02-.37l.11-.11c.31-.29,.42-.73,.3-1.13l-.29-.99c-.07-.25,.07-.51,.32-.59l1.02-.31c.42-.13,.74-.46,.85-.88l.53-2.01c.03-.13,.13-.23,.26-.26l.11-.03c.18-.04,.34-.12,.48-.23,.39-.32,.52-.83,.37-1.27l-1.17-3.51c-.07-.22-.04-.46,.08-.65l.25-.4c.13-.21,0-.49-.26-.51l-1.23-.08c-.15,0-.29,.01-.43,.06l-1.42,.55c-.31,.12-.54,.39-.6,.72l-.04,.23c-.02,.1-.14,.13-.2,.05l-.14-.18c-.11-.14-.32-.17-.47-.05l-.38,.31c-.18,.14-.25,.39-.17,.6l.09,.25c.08,.22,.35,.3,.54,.16l.21-.16c.19-.14,.43-.2,.66-.14l.49,.12c.26,.06,.45,.28,.47,.55l.08,.86c.02,.24-.09,.47-.3,.6l-.13,.08c-.2,.12-.47,.09-.63-.09-.17-.18-.38-.42-.55-.61-.18-.21-.47-.28-.74-.18h0c-.16,.06-.3,.19-.37,.34l-.53,1.15c-.07,.16-.1,.33-.09,.5l.12,1.53c.03,.4,.3,.74,.69,.86l.84,.26c.21,.06,.35,.25,.35,.47v.28c0,.27-.22,.49-.49,.49l-3.08,.05c-.25,0-.48-.11-.63-.31l-.15-.21c-.21-.28-.59-.39-.92-.25l-3.51,1.47c-.08,.03-.16,0-.19-.08h0c-.16-.45-.56-.78-1.03-.86h-.01c-.23-.04-.47-.01-.68,.07l-1.49,.62v-.4c0-.24-.16-.46-.4-.53h-.01c-.25-.08-.43-.29-.47-.55l-.07-.46,.57,.31c.13,.07,.28,0,.33-.13l.18-.53c.03-.09,0-.19-.07-.25l-.25-.2c-.18-.15-.23-.41-.11-.61l.39-.68c.12-.21,.17-.45,.14-.68l-.16-1.43c-.03-.29-.38-.42-.6-.23l-.36,.32c-.18,.15-.39,.25-.62,.27l-.26,.03c-.28,.03-.5,.24-.56,.51l-.32,1.61c-.06,.28,.03,.57,.22,.78l.15,.17-.22,1.32c-.03,.18-.02,.37,.04,.55l.06,.19c.05,.15-.03,.31-.17,.38l-.51,.24c-.12,.06-.25,.08-.38,.07l-.45-.03c-.16,0-.31,0-.46,.04l-.96,.21h-.06l-.12,.03c-.2,.03-.39,.1-.56,.21-.05,.03-.08,.08-.09,.14l-.06,.27c-.02,.1,.02,.19,.1,.25,.04,.03,.06,.08,.05,.12l-.05,.19c-.01,.06-.05,.11-.1,.14-.21,.14-.3,.2-.38,.24-.05,.02-.1-.01-.1-.07v-.23c0-.06,.05-.12,.11-.15l.06-.02c.06-.02,.09-.09,.08-.15l-.03-.14c-.03-.13-.14-.16-.3-.24-.06-.03-.14,0-.16,.07l-.19,.51c-.04,.11-.09,.22-.16,.32-.2,.33-.35,.42-.97,.98-.37,.33-.42,.18-.6,.5-.03,.06-.09,.1-.16,.12l-1.62,.34c-.2,.04-.35,.2-.38,.4l-.04,.26c-.03,.18-.14,.34-.3,.43l-2.23,1.26-1.42-.69c-.25-.12-.54,.08-.5,.36l.1,.81c.03,.22-.17,.4-.39,.35-.25-.06-.55-.13-.75-.18-.14-.03-.26-.14-.3-.27h0c-.1-.31-.38-.51-.69-.51l-.92-.02c-.2,0-.4,.11-.49,.29l-.16,.31c-.11,.21-.06,.47,.11,.63l1.31,1.24c.21,.19,.36,.44,.44,.71l.77,2.49c.11,.36,.1,.75-.03,1.1l-1.06,2.82c-.14,.36-.54,.54-.9,.39l-6.51-2.64c-.29-.11-.6-.14-.9-.08l-1.32,.29c-.21,.05-.36,.25-.34,.46l.08,.82c.02,.19,0,.38-.05,.57l-.84,2.8c-.1,.32-.25,.62-.46,.89l-1.32,1.67c-.15,.19-.11,.47,.09,.61l.29,.21c.17,.12,.23,.34,.16,.53l-.66,1.7c-.08,.22,.03,.47,.26,.54l.71,.23c.15,.05,.3,.07,.45,.08h.68c.22,.02,.41,.15,.48,.35l.52,1.34c.02,.05,.04,.1,.07,.14l.45,.64c.19,.27,.55,.36,.84,.21l1.02-.53c.19-.1,.41-.12,.61-.06l2.37,.73c.24,.07,.5,0,.67-.18l.33-.35c.15-.15,.34-.25,.55-.29l1.09-.17c.14-.02,.27-.09,.37-.18l1.17-1.12c.22-.21,.25-.54,.09-.79l-.26-.39c-.12-.18-.1-.43,.04-.59l1.05-1.15c.12-.13,.26-.24,.42-.31l3.51-1.66c.36-.17,.58-.53,.58-.92v-1.01c0-.25,.16-.48,.4-.56l.73-.26c.25-.09,.52-.07,.75,.06l1.86,1c.27,.14,.6,.13,.85-.04l2.46-1.6c.17-.11,.38-.15,.58-.12l.55,.09c.22,.03,.42,.14,.58,.29l.48,.46c.18,.17,.29,.4,.32,.65l.09,.75c.02,.15,.08,.29,.18,.41l2.87,3.17c.11,.12,.25,.2,.41,.23l.31,.06c.2,.04,.38,.15,.49,.32l.44,.69c.07,.1,.16,.19,.27,.25l1.3,.71c.21,.11,.37,.31,.43,.54l.36,1.3c.09,.31,.03,.64-.15,.9-.12,.17-.25,.38-.36,.53-.11,.17-.1,.39,.03,.54h0c.17,.21,.48,.21,.66,.02,.33-.35,.83-.88,1.14-1.2,.18-.19,.28-.45,.27-.72h0c-.01-.32-.17-.59-.43-.76l-.22-.14c-.17-.11-.23-.34-.12-.52l.42-.69c.1-.16,.3-.22,.47-.14l.66,.32s.22,.23,.42,.44c.15,.16,.42,.12,.51-.08h0c.1-.21,.05-.45-.13-.59l-1.11-.89c-.12-.1-.24-.18-.38-.25l-1.36-.72c-.14-.08-.22-.24-.18-.4l.04-.17c.05-.18-.07-.37-.26-.41l-1.24-.24-.96-.78-.63-1.67c-.07-.18-.17-.34-.29-.48l-1.23-1.4c-.15-.17-.22-.39-.19-.61l.1-.89c.01-.12,.09-.22,.2-.27l1.1-.48c.19-.08,.41,.03,.46,.23,.07,.32,.18,.77,.25,1.08,.04,.2,.26,.31,.45,.24h0c.16-.06,.34,0,.41,.16l.26,.53c.38,.78,.93,1.46,1.62,1.98l2.04,1.54c.16,.12,.36,.17,.56,.14,.2-.03,.28-.27,.16-.42l-1.17-1.41s-.77-1.08-1.14-1.6c-.14-.19-.3-.36-.49-.5h-.02c-.21-.16-.3-.43-.22-.68h0c.04-.13,.17-.18,.28-.12l.09,.06c.16,.09,.35,.09,.51,.02l.16-.08c.22-.11,.48-.14,.72-.08,.47,.12,1.28,.32,1.72,.43,.21,.05,.44,.05,.65-.01h0c.22-.07,.33-.31,.24-.52l-.33-.78c-.09-.21,.01-.45,.22-.53l.92-.36c.15-.06,.32-.02,.43,.09,.33,.33,1.04,1.03,1.39,1.38,.13,.13,.19,.32,.16,.5h0c-.02,.16,.04,.31,.16,.39l.49,.35c.13,.09,.3,.07,.4-.05,0-.01,.02-.02,.03-.03,.08-.09,.2-.14,.32-.11,.16,.04,.24,.2,.21,.35l-.23,.96c-.07,.28,.01,.58,.22,.78l.22,.23c.15,.16,.14,.41-.02,.56l-.09,.08c-.15,.13-.24,.32-.24,.52v.43c0,.24,.08,.47,.23,.66l.41,.51c.13,.15,.16,.36,.08,.55l-.13,.31c-.09,.21-.29,.35-.52,.34h-.16c-.19-.01-.39,.03-.56,.1l-.77,.33c-.27,.12-.49,.34-.62,.61l-.47,1.01c-.09,.19-.27,.33-.48,.36l-.27,.05c-.14,.02-.17,.17-.12,.3,.08,.2,.68,.66,1.06,.97,.19,.15,.25,.41,.16,.63l-.23,.55c-.08,.19,.01,.41,.2,.48l.35,.13,1.09,1.21c.18,.2-.19,.44,.11,.85l.17,.23c.12,.17,.51-.22,.66,.06l.21,.39c.08,.15,.22,.25,.38,.29l.42,.08c.22,.05,.41-.17,.33-.39l-.36-.93c-.05-.12,.02-.27,.15-.3l.4-.11c.16-.04,.24-.22,.18-.37l-.2-.49c-.07-.16,.01-.34,.18-.4h.04c.15-.07,.32-.03,.44,.08l.14,.13c.13,.12,.34,.1,.44-.05l.21-.31c.12-.18,.11-.41-.03-.58-.57-.66-1.99-2.33-2.49-2.91-.11-.12-.12-.3-.03-.44h0c.12-.2,.38-.23,.55-.09l.5,.44c.17,.15,.42,.17,.62,.06l.37-.21c.19-.11,.26-.36,.15-.56l-.09-.16c-.1-.18,0-.4,.19-.44l1.53-.38c.22-.05,.42-.16,.59-.31l.41-.35c.2-.17,.31-.43,.29-.69v-.2c-.03-.28,.17-.53,.45-.58,.19-.03,.42-.06,.62-.09,.28-.04,.45-.35,.32-.61h0c-.16-.36-.15-.76,.03-1.09l.37-.68c.17-.31,.26-.65,.27-1l.04-1.17c0-.24,.16-.45,.38-.53m-23.31-3.07c0,.12-.1,.23-.23,.23-.1,0-.18,.07-.19,.17v.07c-.01,.08-.08,.14-.16,.14h-.29c-.08,0-.16-.04-.21-.1l-.07-.09c-.08-.1-.23-.07-.27,.04l-.07,.22c-.03,.11-.1,.2-.19,.27l-.2,.15c-.08,.06-.2,.03-.23-.07l-.27-.68c-.04-.11-.19-.13-.26-.04l-.32,.38c-.09,.11-.22,.17-.36,.17h-.75c-.1,0-.19-.06-.22-.16l-.16-.61c-.03-.1-.15-.15-.24-.09l-.36,.24c-.07,.05-.17,.06-.25,.02l-.16-.07c-.09-.04-.12-.16-.06-.24l1.48-1.76c.08-.1,.21-.15,.34-.14l.93,.07c.27,.02,.54-.1,.7-.31,.05-.06,.14-.08,.2-.04l1.04,.64c.06,.04,.09,.11,.07,.18l-.15,.45c-.03,.09,0,.18,.08,.24l.44,.31s.12,.04,.17,0c.1-.06,.24,0,.24,.13v.29Z"/><path d="M15.18,27.84l.06,.02c.14,.05,.16,.24,.03,.32l-1.42,.86c-.07,.04-.1,.13-.07,.21l.06,.15c.1,.28,.34,.49,.63,.56l.55,.13c.07,.02,.13,.07,.16,.14l.12,.29c.07,.18-.09,.36-.28,.31l-.25-.07c-.28-.08-.59-.03-.83,.15l-.86,.66c-.29,.22-.18,.68,.17,.75l.95,.19c.27,.05,.55,0,.77-.15l.39-.26c.11-.08,.26-.1,.39-.05l1.31,.45c.17,.06,.36,.06,.53,0l.31-.1c.16-.05,.32-.05,.48,0l.51,.19c.26,.1,.55,.07,.8-.07l.73-.41c.16-.09,.15-.33-.02-.41l-.12-.05c-.09-.04-.13-.14-.09-.23l.07-.16c.04-.1,.11-.17,.21-.22l.68-.34c.07-.03,.11-.1,.12-.17l.15-1.01c.01-.09-.02-.18-.1-.23l-.81-.54-.41-2.4c-.03-.2-.13-.38-.27-.53l-.44-.44,.03-1.31c0-.26-.05-.52-.15-.76l-.17-.4c-.13-.3-.09-.64,.09-.91l.84-1.19c.25-.36,.07-.86-.35-.97l-.85-.23c-.18-.05-.22-.28-.07-.38l1.06-.74,.1-.17c.1-.19-.08-.4-.28-.33l-.36,.12-.74-.23c-.31-.1-.64-.02-.87,.21-.92,.88-.56,.62-1.48,1.09-.16,.08-.28,.22-.33,.39-.09,.31-.25,.83-.37,1.25-.07,.22,.04,.46,.25,.54,.16,.06,.18,.28,.04,.37l-.15,.09c-.22,.14-.33,.41-.26,.67l.38,1.51c.08,.3,.33,.52,.64,.55l.63,.06c.18,.02,.25,.23,.13,.35l-.15,.15,.03,1.43c0,.35-.33,.61-.66,.51l-.95-.26c-.1-.03-.2,.04-.22,.14l-.11,.71c-.01,.08,.04,.16,.11,.19"/><path d="M15.62,18.84l.73-.41c.09-.05,.16-.13,.21-.22l.18-.36c.07-.14-.05-.3-.21-.27l-.62,.12c-.16,.03-.3,.14-.37,.29l-.26,.54c-.1,.21,.13,.43,.34,.31"/><path d="M21.87,16.32c.03,.1,.16,.12,.21,.03l.68-1.08c.06-.1-.05-.22-.15-.16l-.77,.41c-.1,.05-.14,.16-.11,.27l.15,.54Z"/><path d="M8.89,27.86c.09,.3,.38,.5,.69,.47l3.02-.23c.31-.02,.57-.23,.66-.53l.61-1.95c.08-.24,.27-.43,.51-.49l.58-.16c.09-.02,.15-.11,.14-.2l-.1-1.46c0-.08-.05-.14-.12-.17l-1.42-.54c-.05-.02-.11-.02-.16,.01l-1.13,.65c-.08,.05-.12,.15-.08,.24h0c.05,.12-.03,.25-.15,.26l-.57,.07c-.05,0-.1,0-.14-.03l-.34-.25c-.09-.07-.23-.04-.28,.06l-.65,1.17c-.04,.07-.03,.15,.01,.21l.38,.54c.07,.09,.04,.23-.06,.28l-1.6,.86c-.08,.04-.12,.14-.09,.23l.3,.96Z"/><path d="M39.83,22.35l-.57,.55c-.14,.13-.2,.32-.18,.51l.05,.41c.02,.19,.28,.25,.38,.09l.46-.69,.15-.71c.04-.17-.17-.28-.3-.16"/><path d="M26.95,50.9l.08,.06c.12,.1,.29,.06,.36-.08l.36-.77c.09-.2,.14-.42,.13-.64l-.02-.77c0-.18-.22-.29-.37-.18l-.59,.42c-.17,.12-.26,.31-.26,.52v.81c.02,.24,.13,.47,.31,.62"/><path d="M27.7,51.76c-.04-.13-.13-.24-.26-.3-.1-.04-.22-.05-.32-.02l-1.08,.34c-.14,.04-.23,.17-.23,.31l-.04,2.75c0,.06,.01,.12,.05,.17l.15,.25c.07,.12,.22,.19,.35,.16l.42-.09c.43-.09,.76-.43,.85-.85l.35-1.67c.01-.05,.01-.1,0-.15l-.24-.9Z"/><path d="M18.97,52.68l-.17-.11c-.14-.09-.31-.1-.46-.02l-.59,.29c-.14,.07-.15,.26-.03,.35l.44,.31c.18,.13,.43,.1,.57-.06l.29-.32c.12-.14,.1-.35-.06-.45"/><path d="M51.1,55.53c.17-.18-.28-.8-.52-.81-.24,0-.82,.26-.78,.52s1.14,.46,1.31,.28"/><path d="M51.99,57.4c-.02-.07-.09-.11-.16-.08l-1.5,.63c-.06,.02-.08,.09-.06,.15v.03c.03,.06,.1,.09,.16,.07l1.52-.54c.06-.02,.09-.08,.07-.14l-.03-.12Z"/><path d="M53.33,59.79l-.37,.21c-.1,.06-.14,.18-.1,.29l.12,.28c.08,.18,.32,.18,.41,.01l.25-.5c.1-.2-.12-.41-.31-.3"/><path d="M50.85,61.9l-3.16-.19c-.29-.02-.55,.19-.6,.48-.03,.16,.09,.3,.25,.31l1.26,.06c.12,0,.23,.06,.31,.14,.1,.11,.26,.17,.41,.14l1.57-.29c.13-.03,.23-.12,.26-.25,.04-.2-.1-.39-.3-.4"/><path d="M49.66,58.67l-.58,.3c-.11,.05-.1,.21,0,.26l.38,.18c.06,.03,.14,0,.18-.05l.31-.45c.06-.08,.01-.2-.09-.22l-.11-.03s-.07,0-.1,.01"/><path d="M48.71,53.8c-.05,.03-.07,.09-.05,.14l.07,.16s.06,.07,.11,.07h.26s.06-.01,.09-.04c.09-.1,.3-.37,.16-.48-.13-.11-.47,.06-.63,.14"/><path d="M62.69,59.64l-1.24,.82-.4-.06c-.21-.03-.4,.12-.42,.33v.12l-.36,.12c-.22,.07-.32,.34-.2,.54,.07,.11,.18,.19,.31,.21l.5,.1c.18,.04,.36-.01,.5-.13l.87-.72c.13-.11,.24-.25,.31-.41l.34-.75c.06-.13-.09-.26-.21-.18"/><path d="M49.86,56.23c-.1,.13,.11,.86,.35,.83,.24-.03,.37-.57,.35-.7s-.6-.26-.7-.13"/><path d="M24.95,29.82h.02s.03,0,.05-.01l.1-.13s.03-.08,.02-.12c-.02-.07-.05-.05-.17,.08-.02,.02-.03,.05-.04,.08v.06s0,.04,.03,.05"/><path d="M25.21,29.49l.16-.11s.03-.07,0-.08h-.01s-.03-.01-.05,0l-.15,.12s-.02,.06,0,.08c.01,0,.03,0,.05,0"/><path d="M25.5,29.32l.25-.09,.17-.04s.02-.02,.02-.04c0-.01-.01-.02-.03-.02l-.34,.05s-.05,.02-.07,.03l-.03,.03s-.02,.05,0,.06c0,0,.02,0,.03,0"/><path d="M26.15,29.24s.05,.01,.08,0l.17-.02s.03-.02,.02-.03c0,0-.01-.02-.02-.02l-.32-.05s-.02,0-.02,.01l-.02,.03s0,.03,.01,.04l.11,.03Z"/><path d="M26.52,29.22h.19s.01-.02,.01-.02v-.03s0-.03-.02-.03h-.07s-.03-.01-.04,0l-.09,.04s0,.02,0,.03c0,0,.01,.01,.02,.01"/><path d="M23.55,32.77l.25-.15c.08-.05,.17-.06,.26-.04l.43,.11c.1,.02,.19,.09,.23,.19l.03,.08c.03,.08,.1,.13,.19,.15l.29,.06c.11,.03,.17,.15,.11,.26l-.19,.33c-.06,.11,0,.25,.12,.28l.1,.02c.09,.02,.18-.02,.23-.09,.04-.07,.05-.15,0-.22l-.02-.04c-.04-.07-.02-.16,.04-.21l.11-.1s.07-.08,.08-.13l.1-.44c.02-.11,0-.23-.05-.32l-.06-.1c-.05-.08-.03-.19,.05-.25,.08-.06,.19-.07,.27-.01l.02,.02c.07,.04,.14,.06,.22,.04l.14-.03c.08-.01,.15-.06,.2-.13l.33-.48c.07-.11,.03-.26-.09-.31l-.08-.04c-.07-.03-.11-.11-.08-.18,.03-.11,.15-.18,.26-.15,.07,.02,.15-.02,.17-.1,.03-.1,.08-.23,.08-.23l.2-.47c.05-.11,.03-.24-.04-.34s-.17-.22-.25-.34c-.09-.13-.25-.19-.4-.16l-.34,.08s-.04,0-.06,.01l-.12,.02c-.2,.02-.39,.1-.56,.21-.05,.03-.08,.08-.09,.14l-.05,.27c-.02,.1,.02,.19,.1,.24,.04,.03,.06,.08,.05,.12l-.04,.19c-.01,.06-.05,.11-.1,.14-.21,.14-.3,.2-.38,.24-.05,.02-.1-.01-.1-.07v-.23c0-.07,.05-.12,.11-.15l.06-.02c.06-.02,.09-.09,.08-.15l-.04-.14c-.03-.13-.14-.16-.3-.24-.06-.03-.14,0-.16,.07l-.2,.51c-.04,.11-.09,.22-.16,.32-.2,.33-.35,.42-.97,.98-.38,.33-.42,.18-.6,.5-.01,.02-.02,.03-.04,.05-.04,.16,.11,.31,.25,.41,.13,.09,.29,.09,.43,.01"/><path d="M24.95,29.82h.02s.03,0,.05-.01l.1-.13s.03-.08,.02-.12c-.02-.07-.05-.05-.17,.08-.02,.02-.03,.05-.04,.08v.06s0,.04,.03,.05"/><path d="M25.21,29.49l.16-.11s.03-.07,0-.08h-.01s-.03-.01-.05,0l-.15,.12s-.02,.06,0,.08c.01,0,.03,0,.05,0"/><path d="M25.5,29.32l.25-.09,.17-.04s.02-.02,.02-.04c0-.01-.01-.02-.03-.02l-.34,.05s-.05,.02-.07,.03l-.03,.03s-.02,.05,0,.06c0,0,.02,0,.03,0"/><path d="M26.15,29.24s.05,.01,.08,0l.17-.02s.03-.02,.02-.03c0,0-.01-.02-.02-.02l-.32-.05s-.02,0-.02,.01l-.02,.03s0,.03,.01,.04l.11,.03Z"/><path d="M26.52,29.22h.19s.01-.02,.01-.02v-.03s0-.03-.02-.03h-.07s-.03-.01-.04,0l-.09,.04s0,.02,0,.03c0,0,.01,.01,.02,.01"/></g></g></svg>