<?xml version="1.0" encoding="UTF-8"?>
<svg id="Zwart" xmlns="http://www.w3.org/2000/svg" viewBox="0 0 64 64">
  <path d="M60.25,28.09c-.3-1.52-.85-.4-1.12-1.35-.06-.2-.45-.49-.44-.66.02-.27,1.09-.13,1.12-.49.04-.49-1.61-.99-2.13-1.35-.15-.1-.07-.62-.21-.65-.76-.13-1.12-.37-2.22.21-1.29.68-1.97.91-1.97.91,0,0-2.2-2.05-1.9-2.88s1.97-1.75,1.82-2.5c-.15-.76-1.97-2.05-1.37-2.5.61-.46,2.5.46,2.96.3.25-.08.83-.63,1.28-1.3.11-.16-.08-.34.01-.51.21-.4.63-.8.61-1.16-.03-.46-.7-.71-.93-1.08-.33-.54-.27-1.15-.59-1.42-.53-.46-2.05-.38-2.81-.38s-1.82,1.67-4.55,1.52c-2.73-.15-2.58-.66-3.19-.74s-.91.44-1.67.21c-.76-.23-.53-.55-1.01-.63-.47-.08-.76.34-1.67.11-.91-.23-.85-.68-1.5-.85-.65-.17-2.28,1.14-4.63-.08-2.35-1.21-4.68-3.55-6.22-3.57-2.06-.02-5.13,4.41-7.9,5.63-3.1,1.37-4.3.9-5.91.37l-.89,1.82c-.17.34-.11.74.14,1.02.57.66,1.33,1.89.82,3.08-.77,1.83-2.28,2.35-2.28,2.35,0,0-1.39,7.19-1.62,8.48-.23,1.29-3.54,4.5-3.77,7.54-.06.76-.16,1.78-.22,2.91-.05.81.38,1.6.4,2.45.02.92-.36,1.92-.19,2.76.32,1.65,1,3.01,2.29,3.49,1.01.38,1.4-.5,3.87,1.44,2.02,1.59,1.06-.38,2.2.3,1.14.68,4.02,1.62,4.76,1.82,1.47.4,2.5-.09,3.9.15.86.15,1.46.67,2.07.82.61.15.5.06,1.71-.01,1.21-.08,1.37.29,2,.29s.99-.39,1.66-.36c.65.03,1.53.41,2.21.26.59-.13,6.71-3.4,8.43-4.32.3-.16.62-.27.95-.34.74-.14,2.15-.39,3.32-.52.49-.05.85.24,1.2.16.23-.05.67-.52.8-.58.21-.1.49.11.83-.04.71-.31,2.78-1.23,3.18-2.71,0-.02.05-.95-.16-1.19-.28-.33-.64-.51-.13-1.57.9-1.87,1.67-3.95,2.5-4.78.18-.18.31-.2.57-.25.14-.03.65-.13.74-.24.37-.44.11-.77.7-1.2.69-.5.07-1.22.04-1.48-.02-.2.35-.44.24-.76-.14-.42-.3-.66-.45-.81-.29-.31-.59-.28-.49-.85.03-.2.11-.4.23-.56.68-.99,1.67-.02,2.36-.1.68-.08,2.49-2.14,2.19-3.66Z"/>
</svg>