<?xml version="1.0" encoding="UTF-8"?><svg id="Laag_1" xmlns="http://www.w3.org/2000/svg" xmlns:xlink="http://www.w3.org/1999/xlink" viewBox="0 0 64 64"><defs><style>.cls-1{fill:none;}.cls-2{clip-path:url(#clippath);}.cls-3{clip-path:url(#clippath-1);}</style><clipPath id="clippath"><rect class="cls-1" width="64" height="64"/></clipPath><clipPath id="clippath-1"><rect class="cls-1" width="64" height="64"/></clipPath></defs><g class="cls-2"><g class="cls-3"><path d="M54.5,26.42c1.19-.82,1.93-1.79,2.14-2.27,.44-1.01,.15-2.75-1.53-3.08-.75-.15-2.16,0-3.41,.17-.97-3.49-2.65-9.15-3.63-10.18-1.32-1.38-5.94-2.06-16.06-2.06s-14.74,.69-16.06,2.06c-.98,1.03-2.67,6.69-3.63,10.18-1.25-.18-2.66-.31-3.41-.17-1.69,.33-1.98,2.07-1.54,3.08,.21,.48,.96,1.46,2.14,2.27-1.94,2.6-2.5,4.87-2.5,9.07v11.5s0,3.36,.47,5.6c.17,.82,.93,1.4,1.8,1.4h6.46c.87,0,1.63-.58,1.8-1.4,.26-1.25,.38-2.85,.43-4.02l-6.13-1.22c-.32-.1-.27-.31-.25-.36H52.42c.02,.06,.07,.26-.25,.36l-6.13,1.22c.05,1.17,.17,2.77,.43,4.02,.17,.82,.93,1.4,1.8,1.4h6.46c.87,0,1.63-.58,1.8-1.4,.47-2.24,.47-5.6,.47-5.6v-11.5c0-4.21-.57-6.47-2.5-9.07M18.9,13.74c.59-.29,4.9-.79,13.1-.79s12.52,.5,13.1,.79c.58,.99,2.44,7.39,2.97,9.98-2.92,.81-9.57,1.36-16.07,1.36s-13.15-.55-16.07-1.36c.53-2.59,2.39-8.99,2.97-9.98m1.59,25.98l-5.89-.47c-1.6-.13-2.57-1.4-2.87-2.8l-.24-1.69c-.15-1.04,.92-1.93,1.98-1.63l4.77,1.32c1.04,.4,1.82,1.21,2.15,2.23l.65,2.43c.09,.32-.2,.64-.55,.61m17.52,4.28h-12v-3h12v3Zm14.51-9.23l-.24,1.69c-.29,1.4-1.27,2.67-2.87,2.8l-5.89,.47c-.35,.03-.64-.29-.56-.61l.65-2.43c.33-1.02,1.12-1.83,2.15-2.23l4.77-1.32c1.06-.29,2.13,.59,1.98,1.63"/></g></g></svg>