<?xml version="1.0" encoding="UTF-8"?><svg id="Laag_1" xmlns="http://www.w3.org/2000/svg" xmlns:xlink="http://www.w3.org/1999/xlink" viewBox="0 0 64 64"><defs><style>.cls-1{fill:none;}.cls-2{clip-path:url(#clippath);}.cls-3{clip-path:url(#clippath-1);}</style><clipPath id="clippath"><rect class="cls-1" width="64" height="64"/></clipPath><clipPath id="clippath-1"><rect class="cls-1" width="64" height="64"/></clipPath></defs><g class="cls-2"><g class="cls-3"><path d="M42.56,35.43c-.41-2.28-2.62-2.97-2.62-2.97,.04-.09,2.42-1.84,1.66-4.76-.54-2.06-2.41-2.92-2.87-3.1,6.63-2.6,16.16-6.48,17.34-6.91,1.67-.62,2.65-2.35,2.16-4.06h0c-.49-1.72-2.25-2.77-3.97-2.33-1.22,.31-20.06,5.49-34.25,9.73-.04-.06-.16-.27,.16-.49,.99-.68,5.8-2.96,6.6-3.36-2.03-1.47-4.74-3.63-8.22-2.84-7.43,1.69-9.37,10.21-16.26,15.65l5.52,22.6c.73-.22,2.55-.64,3.14-.76,6.54-1.31,5.07,3.07,16.11-.07,2.96-.84,9.31-2.66,12.51-4.9,2.99-2.09,2.86-5.25,1.28-6.67,.86-.8,2.12-2.53,1.72-4.77m19.77-2.12c-.8-3.94-4.61-6.35-6.51-11.59-.23-.63-.51-.72-.82-.72s-.6,.09-.83,.72c-1.9,5.24-5.71,7.62-6.51,11.59-.83,4.17,3.19,7.69,7.33,7.69s8.17-3.53,7.33-7.69m-7.87,4.68c-1.4,0-2.87-.69-3.74-1.75-.59-.72-.81-1.48-.65-2.26,.28-1.41,1.27-2.74,2.52-4.44,.58-.79,1.23-1.66,1.87-2.65,.02,.03,.04,.06,.06,.09-.81,2.84-1.69,5.33-1.69,7.12,0,1.63,1.15,3.38,2,3.86-.12,.01-.25,.02-.37,.02"/></g></g></svg>