<?xml version="1.0" encoding="UTF-8"?><svg id="Laag_1" xmlns="http://www.w3.org/2000/svg" xmlns:xlink="http://www.w3.org/1999/xlink" viewBox="0 0 64 64"><defs><style>.cls-1{fill:none;}.cls-2{clip-path:url(#clippath);}.cls-3{clip-path:url(#clippath-1);}</style><clipPath id="clippath"><rect class="cls-1" width="64" height="64"/></clipPath><clipPath id="clippath-1"><rect class="cls-1" width="64" height="64"/></clipPath></defs><g class="cls-2"><g class="cls-3"><path d="M36.82,32.02c7.5-4.73,14.53-10.94,12.85-25.01h-5.06c1.63,11.99-3.94,16.76-11.11,21.18-1.62,1-3.4,2.02-5.12,3.08-.05-.05-.12-.17,.04-.36l2.59-2.39c-1.71-1.04-3.32-2.09-4.79-3.24h7.75l.26-.17c1.37-.91,2.59-1.84,3.67-2.83h-14.87c-.88-1.02-1.64-2.14-2.25-3.38l19.33,.93c.65-.9,1.18-1.87,1.6-2.93l-22.04-1.06c-.28-1.1-.46-2.29-.53-3.58l23.32,1.97c.16-.93,.25-1.92,.26-2.99l-23.58-2c.05-.72,.12-1.46,.23-2.24h-5.06c-1.68,14.07,5.35,20.28,12.85,25.01-7.49,4.73-14.5,10.93-12.86,24.98h5.06c-1.7-12.79,4.77-17.36,12.63-22.07,2.04,1.22,3.98,2.44,5.72,3.79h-7.65c-.12,.08-2.17,1.39-3.92,3h14.79c.62,.72,1.19,1.5,1.68,2.34l-19.24,.92c-.59,.94-1.05,1.96-1.4,3.07l21.98-1.05c.27,.81,.48,1.68,.63,2.59l-23.27,1.97c-.07,.94-.08,1.94-.01,3.01l23.58-1.99c.03,1.36-.05,2.82-.27,4.42h5.05c1.63-14.04-5.38-20.25-12.86-24.98"/></g></g></svg>