<?xml version="1.0" encoding="UTF-8"?><svg id="Laag_1" xmlns="http://www.w3.org/2000/svg" viewBox="0 0 64 64"><defs><style>.cls-1{fill:none;}</style></defs><rect class="cls-1" width="64" height="64"/><g><polygon points="5 5 11 5 11 2 2 2 2 11 5 11 5 5"/><polygon points="5 53 2 53 2 62 11 62 11 59 5 59 5 53"/><polygon points="53 2 53 5 59 5 59 11 62 11 62 2 53 2"/><polygon points="59 59 53 59 53 62 62 62 62 53 59 53 59 59"/><polygon points="62 25 62 19 57 22 62 25"/><polygon points="2 19 2 25 7 22 2 19"/><path d="m11.08,44.29c-2.93,3.09-3.08,12.71-3.08,12.71h48s-.14-9.62-3.08-12.71c-1-1.05-3-2.2-5.19-3.26-2.87-1.42-6.09-2.68-7.8-3.32-.65-.25-1.07-.85-1.19-1.54-.14-.86-.31-2.13-.43-3.19,4.33-.18,7.92-.6,9.41-1.17.29-.11.44-.38.31-.67-.43-.93-1.21-2.97-1.89-5.14h-28.24c-.66,2.03-1.42,3.94-1.86,4.72-.19.33-.12.66.23.79,1.6.58,5.2,1.03,9.44,1.3-.08.76-.19,1.66-.32,2.46h0c-.02.12-.03.22-.05.34-.03.2-.07.4-.1.58-.13.69-.53,1.29-1.19,1.54-.72.27-1.71.65-2.82,1.11,0,0,0,0,0,0-1.53.63-3.3,1.39-4.97,2.21-2.19,1.06-4.19,2.21-5.19,3.26Z"/><path d="m19.15,20h-11.15v4h48v-4h-11.2c-.62-7.57-.79-20.41-10.87-17.11,0,0-6.53-4.17-11.83,2.81-3.5,4.61-2.91,10.6-2.95,14.3Z"/></g></svg>