<?xml version="1.0" encoding="UTF-8"?><svg id="Laag_1" xmlns="http://www.w3.org/2000/svg" viewBox="0 0 64 64"><defs><style>.cls-1{fill:none;}</style></defs><rect class="cls-1" width="64" height="64"/><path d="m59.45,33.79c-.71-2.55-1.89-3.43-2.87-3.42,0,0,.49,2.35.6,3.57.25,2.65.24,3.59-.35,3.51-.32-.05-.43-.39-.5-.86-.17-1.27-.42-2.91-.77-4.89-.19-1.08-1.23-6.6-4.56-6.39,0,0,1.11,2.84,1.43,5.28.12.92.53,3.2.47,5-.02.59-.25.8-.5.77-.25-.03-.47-.34-.55-.76-.22-1.1-.39-3.59-1-6.12-.43-1.83-1.3-4.25-2.21-6.24-.51-1.13-1.4-1.5-2.04-1.29-.73.24-1.11.89-.8,1.8.38,1.09,1.25,3.26,1.76,5.64.58,2.75.69,5.3.72,5.67.05.55-.06.8-.42.87-.33.06-.55-.19-.64-.55-.08-.34-.66-2.75-1.48-5.3-.82-2.55-1.94-4.9-2.32-5.57-.44-.75-1.08-1.34-1.94-1.08-.82.25-1.05,1.11-.8,1.93.34,1.08,1.4,3.99,1.94,6.03.54,2.04.5,2.12,1.07,5.26.57,3.14.26,3.91-.65,4.32-.61.28-1.44.21-2.13-.57-1.37-1.56-2.5-2.58-4.02-3.59-1.43-.95-2.43-.77-2.88-.27-.43.49-.11,1.28.58,2.07,1.62,1.85,2.76,3.57,4.03,5.14,2.83,3.52,4.21,10.9,11.93,10.51,4.64-.24,7.43-3.17,8.74-6.35,1.99-4.79.7-12.2.16-14.12Zm-21.69,12.24l-9.6,5.24,7.91-33.22,12.46-4.11-1.74,5.97c.06,0,.12-.01.18-.01.97,0,1.89.44,2.6,1.18l2.64-9.04c.16-.53,0-1.11-.4-1.5-.4-.39-.98-.52-1.51-.35l-9.2,3.04s-.17-.27.12-.42c.18-.1,2.86-1.48,5.66-2.93l.48-2.81c.11-.63-.19-1.25-.75-1.56-.56-.31-1.25-.23-1.72.19-10.75,9.49-11.21,9.97-11.38,10.44-.07.12-.13.25-.16.39l-1.49,6.27-3.44-7.65c-.32-.7-1.11-1.05-1.84-.81l-14.78,4.95c-.39.13-.71.42-.89.8-.17.38-.18.81-.03,1.19l1.95,4.79-4.41,2.98c-1.21.88-1.98,2.23-2.12,3.72-.35,3.86-1.28,11.31-1.6,13.94h-.03s-1.9,8.73-1.9,8.73l8.82,2.18,1.12-5.74c.53-.55,3.73-3.94,5.2-6.84.35-.7.57-1.46.72-2.12.49-2.22-.02-2.24,1.26-5.1.73-1.63,1.7-3.42,2.35-5.13,1-2.66-1.5-3.66-2.74-1.83-1,1.47-3.16,4.39-3.9,5.4-1.16,1.58-3.39.84-3.2-1.09l.38-3.65,1.7-1.41,1.12,2.76c.74-1.01,1.52-2.09,2.07-2.88l-3.41-8.36,11.97-4.01,4.48,9.96-5.17,21.71-4.1-10.04c-.46,1.11-.5,1.53-.57,2.17-.05.47-.11,1.06-.3,1.93-.08.36-.18.69-.28,1.03l4.23,10.38c.32.8,1.3,1.19,2.11.75l12.6-6.88c-.14-.24-.27-.49-.4-.72-.37-.67-.73-1.31-1.08-1.89Z"/></svg>