<?xml version="1.0" encoding="UTF-8"?><svg id="Laag_1" xmlns="http://www.w3.org/2000/svg" xmlns:xlink="http://www.w3.org/1999/xlink" viewBox="0 0 64 64"><defs><style>.cls-1{fill:none;}.cls-2{clip-path:url(#clippath);}.cls-3{fill:#fff;}.cls-4{clip-path:url(#clippath-1);}</style><clipPath id="clippath"><rect class="cls-1" width="64" height="64"/></clipPath><clipPath id="clippath-1"><rect class="cls-1" width="64" height="64"/></clipPath></defs><g class="cls-2"><rect width="64" height="64"/><g class="cls-4"><path class="cls-3" d="M16.46,25.97c.43,3.19,2.14,6.09,4.36,8.28-.2,1.09-.46,2.59-.65,4.02-.5,3.8,4.32,7.9,6.83,9.58,3.35-2.25,7.33-5.99,6.75-10.14-3.7,2.96-7.66,2.03-9.63-.99h-.01c-.04-.06-.07-.11-.1-.17-.03-.05-.06-.08-.08-.13,2.26,.7,5.91,.51,7.41-.58,3.09-2.26,5.67-5.85,6.21-9.88,1.88-.5,2.26-2.55,2.26-3.82s-.26-1.96-.78-2.17c-.24-.1-.47-.1-.69-.07,.48-3.36,1.2-9.81-.06-12.14-1.53-2.83-3.35-4.22-6.85-3.29-2.3-1.28-3.86-2.08-7.89-.93-2.8,.8-5.86,2.11-7.47,4.29-1.71,2.31-.97,8.72-.44,12.06-.2-.02-.42-.02-.64,.07-.53,.21-.78,.9-.78,2.17s.38,3.31,2.26,3.82m.34-14c0-2.36,.48-4.72,7.23-6.65,1.15-.33,2.08-.49,2.87-.49,1.49,0,2.41,.58,4.34,1.66,.77-.2,1.52-.43,2.3-.43,2.02,0,3.34,2.22,3.56,4.22,.35,3.15-.28,8.97-.83,11.08-.26,.98-1.26,.81-1.26,.81v-5.51l-5.28-3.85c-4.65,2.53-8.68,3.1-10.73,3.25v6.11s-1.01,.17-1.26-.81c-.23-.86-.65-3.04-.84-6.23-.07-.91-.1-1.6-.09-3.15"/><path class="cls-3" d="M39.53,39.95l3.61-.67c-2.69-1.23-5.72-2.19-7.32-2.67,.07,.45,.13,.91,.19,1.38,.83,6.37-8.06,11.88-8.44,12.11-.18,.11-.38,.16-.57,.16s-.4-.05-.57-.16c-.38-.23-9.27-5.74-8.44-12.11,.06-.46,.13-.92,.2-1.38-2.7,.8-9.5,3-11.8,5.5-2.87,3.12-4.39,14.89-4.39,14.89H37v-4.54c-1.22-1.1-2-2.69-2-4.46,0-1.4,.49-2.69,1.29-3.71-.1-.94,.12-1.88,.67-2.67,.6-.88,1.52-1.47,2.57-1.67"/><path class="cls-3" d="M60.03,48l-2.03,3h-3l2.03-3h-3l-2.03,3h-3l2.03-3h-3l-2.03,3h-3l2.03-3h-1.03c0-.25-.04-.49-.1-.72l17.73-3.28-.73-3.93c-.1-.54-.62-.9-1.16-.8l-2.93,.54,2.49,2.59-2.95,.55-2.49-2.59-2.95,.55,2.49,2.59-2.95,.55-2.49-2.59-2.95,.55,2.49,2.59-2.95,.55-2.49-2.59-1.99,.37c-.54,.1-.9,.62-.8,1.17l.25,1.34c-.9,.52-1.52,1.48-1.52,2.59,0,1.3,.84,2.4,2,2.82v9.18c0,.55,.45,1,1,1h20c.55,0,1-.45,1-1v-12h-1.97Z"/></g></g></svg>