<?xml version="1.0" encoding="UTF-8"?><svg id="Laag_1" xmlns="http://www.w3.org/2000/svg" xmlns:xlink="http://www.w3.org/1999/xlink" viewBox="0 0 64 64"><defs><style>.cls-1{fill:none;}.cls-2{clip-path:url(#clippath);}.cls-3{clip-path:url(#clippath-1);}</style><clipPath id="clippath"><rect class="cls-1" width="64" height="64"/></clipPath><clipPath id="clippath-1"><rect class="cls-1" width="64" height="64"/></clipPath></defs><g class="cls-2"><g class="cls-3"><path d="M31.5,13c2.85,0,4.5-2.02,4.5-4.92,0-3.31-1.72-5.08-4.5-5.08-2.93,0-4.5,2.1-4.5,5.08,0,3.15,1.65,4.92,4.5,4.92"/><path d="M21.73,16.09c-.34-.18-.69-.33-1.07-.43-3.16-.86-8.37-.86-11.41,0-5.7,1.62-5.29,12.51-4.75,17.7,.27,2.64,2.18,3.41,3.4,3.41v-8.76c0-2.15,.14-4.25,.72-6.17,.09-.31,.27-.47,.41-.34V57c2.36,0,4.09-1.42,4.31-4.23,0,0,.67-16.36,.68-16.54,0-.19,.18-.43,.49-.43s.47,.24,.47,.43c0,.19,.67,16.57,.67,16.57,.16,2.71,1.67,4.2,4.34,4.2v-18.38c-.68-.81-1.14-1.9-1.23-3.34-.35-5.64-.98-15.18,2.96-19.19"/><path d="M37.64,15.76c-3.56-.96-8.27-1.04-12.28,0-6.24,1.62-5.49,13.08-5.1,19.42,.18,2.89,2.19,3.7,3.52,3.7v-7.81c0-3.48,.05-6.76,.81-8.77,.13-.35,.34-.39,.41-.3V61c2.78,0,5-1.53,5.24-4.6,0,0,.73-17.85,.74-18.05,0-.2,.2-.47,.53-.47s.52,.26,.53,.47c0,.2,.74,18.05,.74,18.05,.24,3.08,2.48,4.6,5.24,4.6V22c.12-.11,.31-.07,.41,.3,.6,2.05,.81,5.33,.81,8.77v7.81c1.33,0,3.34-.82,3.52-3.7,.39-6.34,1.12-17.74-5.1-19.42"/><path d="M15,13c2.53,0,4-1.81,4-4.43,0-2.98-1.53-4.57-4-4.57-2.6,0-4,1.89-4,4.57,0,2.83,1.47,4.43,4,4.43"/><path d="M41.27,16.09c.34-.18,.69-.33,1.07-.43,3.16-.86,8.37-.86,11.41,0,5.7,1.62,5.29,12.51,4.75,17.7-.28,2.64-2.18,3.41-3.4,3.41v-8.76c0-2.15-.14-4.25-.72-6.17-.09-.31-.27-.47-.4-.34V57c-2.36,0-4.09-1.42-4.31-4.23,0,0-.67-16.36-.68-16.54,0-.19-.18-.43-.49-.43s-.47,.24-.48,.43c0,.19-.67,16.57-.67,16.57-.16,2.71-1.67,4.2-4.34,4.2v-18.38c.67-.81,1.14-1.9,1.23-3.34,.35-5.64,.98-15.18-2.96-19.19"/><path d="M48,13c-2.53,0-4-1.81-4-4.43,0-2.98,1.53-4.57,4-4.57,2.6,0,4,1.89,4,4.57,0,2.83-1.47,4.43-4,4.43"/></g></g></svg>