<?xml version="1.0" encoding="UTF-8"?><svg id="Laag_1" xmlns="http://www.w3.org/2000/svg" xmlns:xlink="http://www.w3.org/1999/xlink" viewBox="0 0 64 64"><defs><style>.cls-1{fill:none;}.cls-2{clip-path:url(#clippath);}.cls-3{clip-path:url(#clippath-1);}</style><clipPath id="clippath"><rect class="cls-1" width="64" height="64"/></clipPath><clipPath id="clippath-1"><rect class="cls-1" width="64" height="64"/></clipPath></defs><g class="cls-2"><g class="cls-3"><path d="M8,34h4v17.3c1,.65,3.77,2.67,6.29,2.67s5.32-2.05,6.86-3.06c.09,.06,1.77,1.16,1.86,1.22v-12.14h10v12.14l1.86-1.21c1.4,.9,4.24,3.04,6.85,3.04,2.43,0,5.04-1.86,6.29-2.67v-17.3h4c.55,0,1-.45,1-1v-1.48c0-.56-.23-1.09-.65-1.47L32.68,8.26c-.38-.35-.97-.35-1.35,0L7.65,30.05c-.41,.38-.65,.91-.65,1.47v1.48c0,.55,.45,1,1,1"/><path d="M59.43,56.07c-2.53,0-4.95-1.39-6.86-2.64-1.92,1.25-4.31,2.64-6.86,2.64s-4.95-1.39-6.86-2.64c-1.92,1.25-4.31,2.64-6.86,2.64s-4.9-1.36-6.86-2.64c-1.98,1.3-4.37,2.64-6.86,2.64s-4.95-1.39-6.86-2.64c-1.93,1.25-4.32,2.64-6.86,2.64-1.25,0-2.53-.39-3.57-.81v4.17c1.1,.34,2.33,.58,3.57,.58,2.75,0,5.41-1.18,6.86-1.94,1.44,.76,4.11,1.94,6.86,1.94s5.41-1.18,6.86-1.94c1.44,.76,4.11,1.94,6.86,1.94s5.42-1.18,6.86-1.94c1.44,.76,4.11,1.94,6.86,1.94s5.42-1.18,6.86-1.94c1.44,.76,4.11,1.94,6.86,1.94,1.24,0,2.47-.24,3.57-.58v-4.17c-1.04,.43-2.33,.82-3.57,.82"/></g></g></svg>