<?xml version="1.0" encoding="UTF-8"?><svg id="Laag_1" xmlns="http://www.w3.org/2000/svg" xmlns:xlink="http://www.w3.org/1999/xlink" viewBox="0 0 64 64"><defs><style>.cls-1{fill:none;}.cls-2{clip-path:url(#clippath);}.cls-3{clip-path:url(#clippath-1);}</style><clipPath id="clippath"><rect class="cls-1" width="64" height="64"/></clipPath><clipPath id="clippath-1"><rect class="cls-1" width="64" height="64"/></clipPath></defs><g class="cls-2"><g class="cls-3"><path d="M49,29h3v-10h-3c0,.97-.63,1.73-2,1.73v2.27h2v6Zm13-18H2c-.55,0-1,.45-1,1V50c0,.55,.45,1,1,1H26v2h-10c-.55,0-1,.45-1,1v1c0,.55,.45,1,1,1h32c.55,0,1-.45,1-1v-1c0-.55-.45-1-1-1h-10v-2h24c.55,0,1-.45,1-1V12c0-.55-.45-1-1-1m-6,36H8V15H56V47Zm3.5,1c-.83,0-1.5-.67-1.5-1.5s.67-1.5,1.5-1.5,1.5,.67,1.5,1.5-.67,1.5-1.5,1.5m-15.01-5.85c-.59-.57-1.77-1.19-3.06-1.76-1.69-.77-3.59-1.44-4.6-1.79-.39-.13-.63-.46-.7-.83-.08-.46-.18-1.15-.25-1.72,2.56-.1,4.67-.33,5.55-.63,.17-.06,.26-.21,.18-.36-.48-.96-1.73-4.11-1.89-5.76-.39-4.04-.37-11.28-6.43-9.47,0,0-3.85-2.25-6.98,1.51-2.2,2.65-1.66,6.14-1.75,8.08-.06,1.38-1.3,4.58-1.82,5.41-.11,.18-.07,.35,.14,.42,.94,.31,3.07,.56,5.57,.7-.07,.58-.17,1.3-.28,1.82-.08,.37-.31,.7-.7,.83h0c-1.01,.35-2.9,1.02-4.6,1.79-1.3,.57-2.47,1.19-3.06,1.76-.64,.62-1.05,1.71-1.32,2.85h27.34c-.27-1.14-.68-2.23-1.32-2.85"/></g></g></svg>