<?xml version="1.0" encoding="UTF-8"?><svg id="Laag_1" xmlns="http://www.w3.org/2000/svg" xmlns:xlink="http://www.w3.org/1999/xlink" viewBox="0 0 64 64"><defs><style>.cls-1{fill:none;}.cls-2{clip-path:url(#clippath);}.cls-3{clip-path:url(#clippath-1);}</style><clipPath id="clippath"><rect class="cls-1" width="64" height="64"/></clipPath><clipPath id="clippath-1"><rect class="cls-1" width="64" height="64"/></clipPath></defs><g class="cls-2"><g class="cls-3"><path d="M60.44,37.83c-.19-1.17-1.09-2.07-2.26-2.26-3.39-.57-9.04-.57-10.17-.57s-6.78,0-10.17,.57c-1.17,.2-2.06,1.09-2.26,2.26-.57,3.39-.57,9.04-.57,10.17s0,6.78,.57,10.17c.19,1.17,1.09,2.07,2.26,2.26,3.39,.57,9.04,.57,10.17,.57s6.78,0,10.17-.57c1.17-.2,2.07-1.09,2.26-2.26,.56-3.39,.56-9.04,.56-10.17,0-3.39,0-6.78-.56-10.17m-16.74,17.17h-5.7s.06-2.93,.8-3.71c.58-.61,2.33-1.15,3.08-1.36,.18-.05,.3-.21,.33-.39,.05-.26,.06-.53,.06-.53-.46-.53-.8-1.16-.91-2.05-.47-.15-.57-.74-.57-1.12s.06-.57,.2-.63c.16-.08,.31,.03,.35,.06-.07-.77-.17-2.5,.24-3.05,.36-.49,1.06-.81,1.69-.99,.91-.26,1.26,.1,1.78,.39,.79-.21,1.2,.05,1.55,.68,.32,.59,.21,2.17,.14,2.93,.07-.04,.18-.08,.29-.03,.13,.06,.2,.26,.2,.63s-.09,.97-.57,1.12c-.12,.86-.47,1.52-.93,2.06,0,.04,.01,.28,.06,.51,.04,.18,.15,.34,.33,.39,.74,.21,2.5,.75,3.08,1.36,.74,.78,.8,3.71,.8,3.71h-6.3Zm8.98-1h-.73c-.11-1.51-.44-3.18-1.3-4.09l-.03-.03c.2-.06,.39-.12,.52-.16,.15-.04,.25-.18,.28-.33,.04-.22,.05-.44,.05-.44-.39-.44-.68-.98-.77-1.73-.4-.12-.48-.63-.48-.94s.06-.48,.17-.54c.13-.06,.26,.02,.3,.05-.06-.65-.14-2.11,.21-2.57,.31-.41,.89-.68,1.42-.83,.77-.22,1.06,.09,1.5,.33,.67-.17,1.02,.04,1.31,.57,.27,.5,.18,1.83,.12,2.48,.06-.03,.15-.07,.25-.02,.11,.05,.17,.22,.17,.54s-.08,.82-.48,.94c-.1,.73-.39,1.28-.79,1.74,0,.03,.01,.23,.05,.43,.03,.16,.13,.29,.28,.33,.63,.18,2.11,.63,2.6,1.15,.62,.66,.67,3.13,.67,3.13h-5.32Z"/><path d="M29.54,23.13l-8.54-5.13v-4c0-1.65,1.35-3,3-3h18c1.65,0,3,1.35,3,3V31.83c1.06-.02,2.08-.03,3-.03s1.94,.01,3,.03V14c0-4.96-4.04-9-9-9H24c-4.96,0-9,4.04-9,9v4l-8.54,5.13c-.9,.54-1.46,1.52-1.46,2.57v2.3c0,.55,.45,1,1,1H30c.55,0,1-.45,1-1v-2.3c0-1.05-.55-2.03-1.46-2.57"/><path d="M10.64,31.17c-.09-.01-.17,0-.26,.18-.74,1.46-1.91,2.01-2.29,3.14-.4,1.19,.59,2.38,1.75,2.53,1.16,.16,2.44-.72,2.37-1.97-.07-1.19-1.04-2.04-1.36-3.65-.04-.19-.12-.23-.2-.24"/><path d="M18.18,31.28c-.07-.18-.15-.21-.23-.21s-.17,.03-.23,.21c-.53,1.55-1.61,2.26-1.83,3.43-.23,1.23,.91,2.27,2.08,2.27,1.17,0,2.31-1.05,2.07-2.28-.23-1.16-1.31-1.87-1.85-3.42"/><path d="M9.56,39.74c-.09-.01-.17,0-.26,.18-.74,1.46-1.91,2.01-2.29,3.14-.4,1.19,.59,2.38,1.75,2.53,1.16,.16,2.44-.72,2.37-1.97-.07-1.19-1.04-2.04-1.36-3.65-.04-.19-.12-.23-.2-.24"/><path d="M18.18,40.36c-.07-.18-.15-.21-.23-.21s-.17,.03-.23,.21c-.53,1.55-1.61,2.26-1.83,3.43-.23,1.23,.91,2.27,2.08,2.27,1.17,0,2.31-1.05,2.07-2.28-.23-1.16-1.31-1.87-1.85-3.42"/><path d="M8.47,48.31c-.09-.01-.17,0-.26,.18-.74,1.46-1.91,2.01-2.29,3.14-.4,1.19,.59,2.38,1.75,2.53,1.16,.16,2.43-.72,2.37-1.97-.07-1.19-1.04-2.04-1.36-3.65-.04-.19-.12-.23-.2-.24"/><path d="M18.18,49.44c-.07-.18-.15-.21-.23-.21s-.17,.03-.23,.21c-.53,1.55-1.61,2.26-1.83,3.43-.23,1.23,.91,2.27,2.08,2.27,1.17,0,2.31-1.05,2.07-2.28-.23-1.16-1.31-1.87-1.85-3.42"/><path d="M26.16,37.03c1.16-.16,2.15-1.35,1.75-2.53-.38-1.13-1.55-1.68-2.29-3.14-.09-.17-.17-.19-.26-.18-.09,.01-.16,.05-.2,.24-.32,1.61-1.29,2.46-1.36,3.65-.07,1.25,1.2,2.13,2.37,1.97"/><path d="M27.25,45.6c1.16-.16,2.15-1.35,1.75-2.53-.38-1.13-1.55-1.68-2.29-3.14-.09-.17-.17-.19-.26-.18-.09,.01-.16,.05-.2,.24-.32,1.61-1.29,2.46-1.36,3.65-.07,1.25,1.2,2.13,2.37,1.97"/><path d="M27.79,48.49c-.09-.17-.18-.19-.26-.18-.09,.01-.16,.05-.2,.24-.32,1.61-1.29,2.46-1.36,3.64-.07,1.25,1.2,2.13,2.36,1.97,1.16-.16,2.15-1.35,1.75-2.53-.38-1.13-1.55-1.68-2.29-3.14"/></g></g></svg>