<?xml version="1.0" encoding="UTF-8"?><svg id="Laag_1" xmlns="http://www.w3.org/2000/svg" xmlns:xlink="http://www.w3.org/1999/xlink" viewBox="0 0 64 64"><defs><style>.cls-1{fill:none;}.cls-2{clip-path:url(#clippath);}.cls-3{clip-path:url(#clippath-1);}</style><clipPath id="clippath"><rect class="cls-1" width="64" height="64"/></clipPath><clipPath id="clippath-1"><rect class="cls-1" width="64" height="64"/></clipPath></defs><g class="cls-2"><g class="cls-3"><path d="M20.14,30.85l-8.67-6.85c-1.33-1.05-3.14,.51-2.3,1.98l1.72,3.02H3v6h7.95l-1.79,3.15c-.84,1.48,.98,3.02,2.3,1.98l8.68-6.84c.78-.62,.78-1.81,0-2.43"/><path d="M49.16,59.24c-.75-1.78-2.1-4.31-3.79-8.67-.28-.71-.55-1.28-.68-1.52-.44-.82-1.12-1.36-2.23-2.48-.45-.45-.88-.92-1.33-1.33-1.03,2.54-1.74,4.06-2.26,5.12-.69,1.33-.76,1.4-1.37,2.31-1.62,2.43-4.33,5.75-6.24,8.32h19.31c-.57-.42-1.07-.98-1.4-1.76"/><path d="M23,3V61h6.76c-.64-1.07-1.24-2.91,.04-5.14,1.17-2.04,2.52-3.86,3.58-5.66,.52-.89,.33-.5,.87-1.87,.67-1.72,1.44-4.6,1.91-6.38,0,0,1.88,1.09,3.31,1.92,.28,.16,.4-.05,.4-.05l-3.27-3.42c-.84-.88-2.15-1.93-2.15-3.96,0-1.64,1.6-8.8,2.06-10.95-.73,.47-2.47,1.64-2.85,2.42-.94,1.91-1.56,6.32-1.95,9.27-1.81-.38-2.72-2.01-2.69-3.74,.03-1.55,.2-3.34,.46-4.88,.43-2.45,.84-3.12,1.84-4.24,1.66-1.81,4.92-4.24,6.66-5.28,3.16-1.88,8.49,.58,9.2,2.35,.2,.29,1.51,5.71,1.64,6.17,.28,.99,.59,2.08,.98,2.92,.28,.63,1.33,1.86,1.76,2.4,.56,.68,2.6,3.04,3.43,4.15-.47,.25-2.76,1.25-4.94-1.05-.9-.95-2.88-2.74-3.47-3.91-.49-.99-.81-1.91-1.1-2.79-.66,2.81-1.37,5.95-1.85,8.5,1.22,1.53,2.42,3.07,3.58,4.64,.55,.76,1.11,1.51,1.71,2.49,.51,.83,.61,.87,1.4,3.26,1.02,3.1,2.78,9.21,3.72,12.83h4.95V3H23Zm25.93,10.28c-.43,2.64-2.25,4.22-4.86,3.79-2.62-.43-3.86-2.29-3.4-5.15,.45-2.71,2.2-4.38,4.89-3.94,2.55,.42,3.87,2.29,3.37,5.29"/></g></g></svg>