<?xml version="1.0" encoding="UTF-8"?><svg id="Laag_1" xmlns="http://www.w3.org/2000/svg" xmlns:xlink="http://www.w3.org/1999/xlink" viewBox="0 0 64 64"><defs><style>.cls-1{fill:none;}.cls-2{clip-path:url(#clippath);}.cls-3{font-family:MyriadPro-Regular, 'Myriad Pro';font-size:7px;}.cls-4{clip-path:url(#clippath-1);}.cls-5{clip-path:url(#clippath-3);}.cls-6{clip-path:url(#clippath-2);}</style><clipPath id="clippath"><rect class="cls-1" width="64" height="64"/></clipPath><clipPath id="clippath-1"><rect class="cls-1" width="64" height="64"/></clipPath><clipPath id="clippath-2"><rect class="cls-1" x="958.17" y="822.97" width="64" height="64"/></clipPath><clipPath id="clippath-3"><rect class="cls-1" x="958.17" y="822.97" width="64" height="64"/></clipPath></defs><g class="cls-2"><g class="cls-4"><path d="M46.31,47.83l-12.54,4.57-8.85-24.39c-.55-.9-1.73-1.23-2.67-.72l-7.52,3.66c-.66,.36-.98,1.16-.72,1.9,.29,.81,1.18,1.22,1.99,.93,.38-.14,5.6-2.04,5.98-2.18l7.55,20.87c1.58,.03,3.06,.85,3.92,2.2,.15,.23,.12,.38-.01,.46-.79-.69-1.81-1.12-2.95-1.12-2.48,0-4.5,2.02-4.5,4.5s2.02,4.5,4.5,4.5,4.5-2.01,4.5-4.5c0-.74-.19-1.43-.51-2.04l12.26-7.74c.51-.32,.12-1.1-.44-.89"/><rect x="33.06" y="37.61" width="16" height="9.68" transform="translate(-12.04 16.6) rotate(-20)"/><rect x="29.01" y="26.49" width="16" height="9.68" transform="translate(-8.48 14.55) rotate(-20)"/><rect x="24.97" y="15.38" width="16" height="9.68" transform="translate(-4.93 12.49) rotate(-20)"/><rect x="20.92" y="4.26" width="16" height="9.68" transform="translate(-1.37 10.44) rotate(-20)"/></g></g><g class="cls-6"><g class="cls-5"><text class="cls-3" transform="translate(-.83 7.94)"><tspan x="0" y="0"> </tspan></text></g></g></svg>