<?xml version="1.0" encoding="UTF-8"?><svg id="Laag_1" xmlns="http://www.w3.org/2000/svg" xmlns:xlink="http://www.w3.org/1999/xlink" viewBox="0 0 64 64"><defs><style>.cls-1{fill:none;}.cls-2{clip-path:url(#clippath);}.cls-3{clip-path:url(#clippath-1);}</style><clipPath id="clippath"><rect class="cls-1" width="64" height="64"/></clipPath><clipPath id="clippath-1"><rect class="cls-1" width="64" height="64"/></clipPath></defs><g class="cls-2"><g class="cls-3"><path d="M61.79,45.9c-1.12-5.35-6.37-8.81-11.68-7.69l-19.29,4.1c-5.3,1.13-8.73,6.43-7.61,11.79,1.12,5.36,6.37,8.81,11.68,7.69l19.29-4.1c5.31-1.13,8.73-6.43,7.61-11.79m-30.74,11.85c-2.3-.81-3.58-2.35-4-4.58-.3-1.59,.07-3.11,.87-4.35l2.15,1.57c-1.17,1.89-.68,5.53,1.6,7.2-.01,.3-.23,.3-.62,.17m22.31-3.96l-8.89,1.89c.71-1.08,.88-3.41,.34-5.98-.64-3.08-2.08-5.43-3.34-5.58l9.45-2.01c3.21-.68,6.34,1.44,7.01,4.61,.67,3.21-1.39,6.4-4.57,7.07"/><path d="M20.53,47.79c-4.13-.1-7.8-.38-10.53-.77V30.19c3.47,.5,8.45,.81,14,.81s10.53-.31,14-.81v7.54l4.99-1.06s.01-7.99,0-8.16h0c-.01-5.55-.13-6.56-4.43-8.45-1.39-.61-2.12-1.52-2.5-2.39-3.94-.7-12.56-2.23-12.82-2.3-.33-.09-.25-.36-.25-.36h15.99V4.89c0-1.6-1.41-2.89-3.16-2.89H12.16c-1.74,0-3.16,1.29-3.16,2.89V15h3.24s.74,3.49-2.81,5.05c-4.3,1.89-4.42,2.9-4.43,8.45h0c0,.17,.05,27.5,.05,27.5,0,3.44,11.63,3.94,17.49,4-1.18-1.52-2.05-3.31-2.46-5.28-.5-2.39-.3-4.77,.46-6.93"/></g></g></svg>