<?xml version="1.0" encoding="UTF-8"?><svg id="Laag_1" xmlns="http://www.w3.org/2000/svg" xmlns:xlink="http://www.w3.org/1999/xlink" viewBox="0 0 64 64"><defs><style>.cls-1{fill:none;}.cls-2{clip-path:url(#clippath);}.cls-3{clip-path:url(#clippath-1);}</style><clipPath id="clippath"><rect class="cls-1" width="64" height="64"/></clipPath><clipPath id="clippath-1"><rect class="cls-1" width="64" height="64"/></clipPath></defs><g class="cls-2"><g class="cls-3"><path d="M31.57,53h3.14v-3.72c-1.43-.24-2.82-.57-4.23-1l1.1,4.72Zm-16.57-5.78c-.53,.48-1.23,.78-2,.78-1.12,0-2.08-.62-2.6-1.53l.82,6.53h4.33l-.43-5.69s-.08-.06-.11-.09m39.05-14.61l2.78-3.96s-4.57-1.54-7.22,1.35l-4.43-1.58c-7.48-2.7-18.94-1.59-22.15,3.49-.09-.02-.23-.08-.24-.32-.02-.62,.51-1.82,1.13-2.79-.75-1.2-3.31-1.37-4.26,.05-.67,1-.6,2.38,0,3.6-1.06,.57-2.28,.51-2.98,.4-.27-.04-.49,.23-.38,.48,.29,.68,.99,1.74,2.61,2.01,1.27,.22,2.33-.17,3.02-.53-.16,.74-.27,1.53-.29,2.34-.04,1.52,.2,2.47,.58,4.06l2.77,11.79h3.4v-7.53c5.48,2.01,10.18,3.08,18.31,1.25l1.91,6.28h3.16v-7.62c4.42-1.31,8.5-2.8,8.5-2.8l.43-3.18s-4.32-2.6-6.65-6.78m-11.81,16.87v3.52h3.3l.45-1.73-.67-2.22c-1.08,.2-2.09,.33-3.08,.43m21.27-27.19c-1.5-1.24-3.87-4.06-4.35-5.87,0,0,2.12-.12,2.59-1.13,.76-1.63-2.72-1.95-4.59-1.92,.61-.9,.88-1.38,1.42-2.34,.65-1.16-.92-2.29-1.81-1.3l-.03,.04c-.64,.71-1.1,1.23-1.86,1.93-3.8-.96-12.6,2.3-13.67,2.3H8.05c-1.9,0-3.58,1.78-3.8,3.8-.4,3.79-.89,10-1.11,12.12C.83,30.53,.04,32.95,.22,35.25c0,0,3.06,.77,4.79-.7,1.52-1.28,1.33-2.77,1.85-8.61,.22-2.56,.49-5.58,.72-7.78,.03-.31,.21-.55,.47-.67,0,4.8,0,13.21,0,15.46s-2.11,4.34-3.29,5.27c-.48,.38-.76,.96-.75,1.57l.83,13.22h4.16v-8.65c0-1.66,.62-2.75,1.14-3.34,.55,.53,1.17,.98,1.86,1.31v2.68c0,1.32,2,1.32,2,0v-2.08c.74,.1,1.26,.1,2,0v2.08c0,1.32,2,1.32,2,0v-2.68c.72-.34,1.34-.82,1.9-1.37-.26-1.13-.45-2.09-.46-3.35-.3-.01-.6-.04-.89-.09-1.95-.33-3.51-1.54-4.26-3.31-.36-.85-.24-1.83,.33-2.56,.56-.72,1.47-1.09,2.38-.97-.03-1.1,.26-2.15,.85-3.04,.85-1.26,2.36-2,4.05-1.97,1.42,.02,2.69,.56,3.51,1.47,5.56-2.85,14.28-3.01,20.53-.76l2.57,.92c1.21-1.85,3.09-2.06,5.46-1.56l6.03,1.3c.44,.09,1.51,.37,2.99-1.33,1.2-1.38,1.14-2.88,.54-3.39"/></g></g></svg>