<?xml version="1.0" encoding="UTF-8"?><svg id="Laag_1" xmlns="http://www.w3.org/2000/svg" xmlns:xlink="http://www.w3.org/1999/xlink" viewBox="0 0 64 64"><defs><style>.cls-1{fill:none;}.cls-2{clip-path:url(#clippath);}.cls-3{clip-path:url(#clippath-1);}</style><clipPath id="clippath"><rect class="cls-1" width="64" height="64"/></clipPath><clipPath id="clippath-1"><rect class="cls-1" width="64" height="64"/></clipPath></defs><g class="cls-2"><g class="cls-3"><path d="M56.04,53.09c-2.46,0-4.92-1.94-6-2.75-1,.75-3.49,2.75-6,2.75s-4.92-1.94-6-2.75c-1,.75-3.49,2.75-6,2.75s-4.92-1.94-6-2.75c-1,.75-3.49,2.75-6,2.75s-4.92-1.94-6-2.75c-1,.75-3.49,2.75-6,2.75-1.02,0-2.12-.39-3.04-.83v4.22c.94,.3,1.98,.52,3.04,.52,2.4,0,4.66-1.08,6-1.86,1.34,.79,3.6,1.86,6,1.86,.67,0,1.33-.09,1.96-.23v4.23h20v-4.25c.66,.15,1.34,.25,2.04,.25,2.4,0,4.66-1.08,6-1.86,1.34,.79,3.6,1.86,6,1.86,1.03,0,2.04-.2,2.96-.49v-4.2c-.9,.42-1.97,.79-2.96,.79"/><path d="M26.04,47.21l2.7,2.03c.61,.45,2.27,1.35,3.3,1.35s2.65-.86,3.3-1.35l2.7-2.03c2.89,2.16,2.93,2.26,3.96,2.76v-4.97h-6v-3h6v-6h-11v-3h11v-6h-6v-3h6v-6h-11v-3h11V8c0-2.21-1.79-4-4-4h-12c-2.21,0-4,1.79-4,4V50.01c1.07-.5,1.14-.62,4.04-2.8"/></g></g></svg>