<?xml version="1.0" encoding="UTF-8"?><svg id="Laag_1" xmlns="http://www.w3.org/2000/svg" xmlns:xlink="http://www.w3.org/1999/xlink" viewBox="0 0 64 64"><defs><style>.cls-1{fill:none;}.cls-2{clip-path:url(#clippath);}.cls-3{clip-path:url(#clippath-1);}</style><clipPath id="clippath"><rect class="cls-1" width="64" height="64"/></clipPath><clipPath id="clippath-1"><rect class="cls-1" width="64" height="64"/></clipPath></defs><g class="cls-2"><g class="cls-3"><path d="M50.01,35c-.59-1.78-1.31-3.55-2.13-5.21,.94-2.2,1.34-3.83,1-5.58-.38-1.95-3.6-3.55-8.35-4.44-1.47-.27-2.59-.19-3.44-1.39-.32-.45-.51-1.03-.57-1.68,1.46-.6,2.48-2.03,2.48-3.7,0-2.21-1.79-4-4-4-.76,0-1.47,.22-2.07,.59,.56,2.74-.17,3.5-.17,3.5-.37,.43-.7,.21-.78,.13,0-.08,.02-.15,.02-.23,0-2.21-1.79-4-4-4s-4,1.79-4,4c0,1.67,1.03,3.1,2.48,3.7-.06,.65-.25,1.23-.57,1.68-.85,1.2-1.98,1.12-3.44,1.39-4.75,.89-7.97,2.49-8.35,4.44-.23,1.17-.12,2.3,.26,3.57,3.44-1.74,9.74-2.83,17.12-2.83,.09,.15-.03,.45-.56,.55-.48,.09-11.27,1.24-16.31,5.35-2.1,4.59-3.46,9.79-3.41,13.81,.07,5.87,4.19,10.34,20.28,10.34,1.26,0,2.44-.03,3.56-.08-.04-1.39-.06-2.74-.06-3.92,0-3.21,.1-7.66,.6-10.67,.4-2.42,2.3-4.32,4.73-4.73,2.71-.45,6.59-.58,9.68-.6m-19.97-15.97c.29-.8,.49-1.78,.47-2.94,.4-.33,.74-.73,.99-1.19,.25,.46,.58,.86,.99,1.19-.02,1.16,.18,2.14,.47,2.94-1.64-.04-1.28-.04-2.92,0"/><path d="M55.79,51.93c-.85,0-1.03,.98-1.03,1.8,0,1.63,.51,1.85,1.01,1.85,.71,0,1.06-.55,1.06-1.64,0-1.8-.6-2.01-1.04-2.01"/><path d="M46.23,46.31c-.86,0-1.04,.98-1.04,1.8,0,1.63,.52,1.85,1.02,1.85,.86,0,1.04-.89,1.04-1.64,0-1.8-.58-2.01-1.02-2.01"/><path d="M63.43,40.83c-.19-1.17-1.09-2.07-2.26-2.26-3.39-.57-9.04-.57-10.17-.57s-6.78,0-10.17,.57c-1.17,.19-2.06,1.09-2.26,2.26-.57,3.39-.57,9.04-.57,10.17s0,6.78,.57,10.17c.19,1.17,1.09,2.07,2.26,2.26,3.39,.57,9.04,.57,10.17,.57s6.78,0,10.17-.57c1.17-.2,2.07-1.09,2.26-2.26,.56-3.39,.56-9.04,.56-10.17,0-3.39,0-6.78-.56-10.17m-20.58,7.45c0-2.9,1.84-3.92,3.42-3.92,2.09,0,3.29,1.37,3.29,3.77,0,2.62-1.78,3.81-3.44,3.81-1.49,0-3.27-.63-3.27-3.65m6.43,9.73l-1.84-.73,5.23-13.28,1.84,.73-5.23,13.28Zm6.4-.45c-1.49,0-3.27-.63-3.27-3.65s1.84-3.92,3.42-3.92c2.09,0,3.29,1.37,3.29,3.77,0,2.63-1.73,3.81-3.44,3.81"/></g></g></svg>