<?xml version="1.0" encoding="UTF-8"?><svg id="Laag_1" xmlns="http://www.w3.org/2000/svg" xmlns:xlink="http://www.w3.org/1999/xlink" viewBox="0 0 64 64"><defs><style>.cls-1{fill:none;}.cls-2{clip-path:url(#clippath);}.cls-3{clip-path:url(#clippath-1);}</style><clipPath id="clippath"><rect class="cls-1" width="64" height="64"/></clipPath><clipPath id="clippath-1"><rect class="cls-1" width="64" height="64"/></clipPath></defs><g class="cls-2"><g class="cls-3"><path d="M28.08,18.42l-13.26,6.24-6.82,12.89v19.45h11v-11.22s3.26-3.78,9-3.78,9,3.78,9,3.78v11.22h11v-19.76l-6.66-12.58-13.26-6.24Zm2.92,16.58h-6v-8h6v8Z"/><path d="M28.08,16.21l14.71,6.92,7.87,14.87h4.53l-9.17-17.33c-.2-.38-.52-.69-.92-.87l-16.17-7.61c-.54-.25-1.16-.25-1.7,0l-16.17,7.61c-.39,.18-.71,.49-.92,.87L.97,38H5.5l7.87-14.87,14.71-6.92Z"/><path d="M53.51,7.6c-.63-.37-1.4-.37-2.03,0l-7.49,4.4v5.07l1.95,.92c.78,.37,1.43,.99,1.83,1.74h0l9.17,17.33c.33,.62,.31,1.37-.05,1.97-.36,.6-1.01,.97-1.71,.97h-5.19v13h11V12l-7.49-4.4Z"/></g></g></svg>