<?xml version="1.0" encoding="UTF-8"?><svg id="Laag_1" xmlns="http://www.w3.org/2000/svg" xmlns:xlink="http://www.w3.org/1999/xlink" viewBox="0 0 64 64"><defs><style>.cls-1{fill:none;}.cls-2{clip-path:url(#clippath);}.cls-3{clip-path:url(#clippath-1);}</style><clipPath id="clippath"><rect class="cls-1" width="64" height="64"/></clipPath><clipPath id="clippath-1"><rect class="cls-1" width="64" height="64"/></clipPath></defs><g class="cls-2"><g class="cls-3"><path d="M55.76,27.31c-5.6-7.95-3.78-15.48-3.78-15.48-5.28,2.73-4.73,7.1-6.01,8.74-1,1.29-2.63,1.38-3.64-.36-3.1-5.33,2.85-12.16,2.85-12.16-10,1-13.08,9.48-13.08,9.48-2.38-7.75-8.9-10.43-8.9-10.43,3.5,7.75-.85,14.43-.85,14.43-3.75-8.88-8.26-9.29-8.26-9.29,1.38,13-5.79,11.91-8.18,20.72-2.53,9.32,2.1,14.46,6.57,15.61-1.06-1.15-1.66-2.48-1.66-3.97v-4.47c0-4.25,3.68-9.33,21.2-9.33s21.2,5.04,21.2,9.26v4.54c0,1.5-.61,2.82-1.67,3.98,4.97-1.87,11.16-11.42,4.23-21.27"/><path d="M32,34c-9.94,0-18,1.88-18,6.12v4.48c0,1.33,1.32,2.62,3.52,3.7l-2.53,3.56c-.62,.87-.45,2.06,.38,2.73,2.15,1.7,7.08,4.42,16.62,4.42s14.53-2.75,16.66-4.45c.82-.65,1-1.81,.42-2.68l-.66-.99c-3.25,1.08-7.72,1.76-12.67,1.76-5.53,0-10.49-.82-13.79-2.14-.57-.23-.36-.54-.18-.69,2.9,.74,6.42,1.19,10.22,1.19,9.94,0,18-3.09,18-6.4v-4.54c0-4.25-8.06-6.06-18-6.06m-13.27,10.9c-.15,.45-.43,.75-.8,.83-.07,.01-.14,.02-.21,.02-.67,0-1.31-.71-1.54-1.7-.26-1.11,.1-2.11,.83-2.28,.71-.17,1.5,.59,1.75,1.67,.12,.51,.11,1.02-.03,1.44m6.84,1.8c-.22,.51-.61,.87-1.09,1.01-.14,.04-.29,.06-.44,.06-.87,0-1.67-.69-1.96-1.67-.16-.56-.14-1.14,.08-1.64,.22-.51,.61-.87,1.09-1.01,.14-.04,.29-.06,.44-.06,.87,0,1.67,.69,1.96,1.67,.16,.56,.13,1.14-.08,1.64m6.43,1.5c-1.21,0-2.2-.99-2.2-2.2s.99-2.2,2.2-2.2,2.2,.99,2.2,2.2-.99,2.2-2.2,2.2m9.92-2.1c-.29,.98-1.09,1.67-1.96,1.67-.15,0-.3-.02-.44-.06-.48-.14-.87-.5-1.09-1.01-.21-.49-.24-1.08-.08-1.64,.29-.98,1.09-1.67,1.96-1.67,.15,0,.3,.02,.45,.06,.48,.14,.87,.5,1.09,1.01,.21,.5,.24,1.08,.08,1.64m5.89-2.04c-.23,.98-.88,1.7-1.54,1.7-.07,0-.14,0-.21-.02-.36-.09-.65-.38-.8-.83-.14-.42-.15-.93-.03-1.44,.25-1.09,1.03-1.84,1.75-1.67,.72,.17,1.09,1.17,.83,2.28"/></g></g></svg>