<?xml version="1.0" encoding="UTF-8"?><svg id="Laag_1" xmlns="http://www.w3.org/2000/svg" xmlns:xlink="http://www.w3.org/1999/xlink" viewBox="0 0 64 64"><defs><style>.cls-1{fill:none;}.cls-2{clip-path:url(#clippath);}.cls-3{clip-path:url(#clippath-1);}</style><clipPath id="clippath"><rect class="cls-1" width="64" height="64"/></clipPath><clipPath id="clippath-1"><rect class="cls-1" width="64" height="64"/></clipPath></defs><g class="cls-2"><g class="cls-3"><path d="M54.95,21.8c-7.02-7.64-15.91-10.5-20.24-6.52-.64,.59-5.57,5.04-6.2,5.63-4.34,3.99-2.24,13.09,4.78,20.73,7.02,7.64,15.92,10.49,20.25,6.51,.64-.58,5.56-5.04,6.2-5.63,4.33-3.98,2.23-13.08-4.79-20.72m-8.95,14.91c-1.22-.97-2.44-2.09-3.61-3.36-5.47-5.95-7.75-12.77-5.08-15.22,1.72-1.58,5.06-.96,8.69,1.26v17.32Zm11.13,2.98c-1.63,1.5-4.72,1.02-8.13-.93V21.55c1.04,.86,2.06,1.83,3.06,2.91,5.47,5.95,7.74,12.77,5.08,15.22m-25.31,3.31c-1.14-1.24-2.14-2.51-3.02-3.8-.78-1.13-1.47-2.28-2.06-3.43l-10.53-10.53c1.33-.2,2.74-.32,4.2-.35,1.37-.02,2.7,.05,3.96,.19,.18-1.37,.6-2.62,1.26-3.73-1.67-.24-3.44-.36-5.28-.33-10.37,.16-18.42,4.83-18.33,10.62,.01,.85,.06,7.4,.08,8.25,.09,5.8,8.29,10.22,18.66,10.06,5.81-.09,10.89-1.6,14.22-3.92-1.08-.92-2.13-1.92-3.14-3.02m-11.22-4.92c-8.09,.13-14.69-2.72-14.74-6.36-.04-2.37,2.72-4.49,6.86-5.72l11.77,11.77c-1.24,.17-2.54,.29-3.89,.31"/></g></g></svg>