<?xml version="1.0" encoding="UTF-8"?><svg id="Laag_1" xmlns="http://www.w3.org/2000/svg" xmlns:xlink="http://www.w3.org/1999/xlink" viewBox="0 0 64 64"><defs><style>.cls-1{fill:none;}.cls-2{clip-path:url(#clippath);}.cls-3{clip-path:url(#clippath-1);}</style><clipPath id="clippath"><rect class="cls-1" width="64" height="64"/></clipPath><clipPath id="clippath-1"><rect class="cls-1" width="64" height="64"/></clipPath></defs><g class="cls-2"><g class="cls-3"><path d="M43.03,18.48l-14.61,9.14c-.34,.22-.63,.51-.84,.86l-8.78,14.98c-.81,1.39,.78,2.93,2.14,2.08l14.63-9.15c.35-.22,.63-.51,.84-.86l8.77-14.95c.82-1.39-.78-2.95-2.15-2.09m-11.03,16.67c-1.74,0-3.15-1.41-3.15-3.15s1.41-3.15,3.15-3.15,3.15,1.41,3.15,3.15-1.41,3.15-3.15,3.15"/><path d="M32,3C16.01,3,3,16.01,3,32s13.01,29,29,29,29-13.01,29-29S47.99,3,32,3m1,50.16v-5.16h-2v5.16c-10.91-.51-19.65-9.25-20.16-20.16h5.16v-2h-5.16c.51-10.91,9.25-19.65,20.16-20.16v5.16h2v-5.16c10.91,.51,19.65,9.25,20.16,20.16h-5.16v2h5.16c-.51,10.91-9.25,19.65-20.16,20.16"/></g></g></svg>