<?xml version="1.0" encoding="UTF-8"?><svg id="Laag_1" xmlns="http://www.w3.org/2000/svg" xmlns:xlink="http://www.w3.org/1999/xlink" viewBox="0 0 64 64"><defs><style>.cls-1{fill:none;}.cls-2{clip-path:url(#clippath);}.cls-3{clip-path:url(#clippath-1);}</style><clipPath id="clippath"><rect class="cls-1" width="64" height="64"/></clipPath><clipPath id="clippath-1"><rect class="cls-1" width="64" height="64"/></clipPath></defs><g class="cls-2"><g class="cls-3"><path d="M5.73,22.19c5.08,3.56,12.27,2.73,12.27,2.73,0,0-3-2.28-3-7.92,0,0,5.65,1.12,6.23,6.99,0,0,4.75-2.06,3.58-6.69-1.17-4.63-8.42-3.97-10.58-7.28-2.17-3.31-.92-8.03-.92-8.03,0,0-4.83,2.15-5.33,5.87-.69,5.14,3.58,6.54,2.75,7.86-.83,1.32-3.5,0-5.08-1.82-1.58-1.82-1.75-4.88-1.75-4.88,0,0-4.91,8.43,1.83,13.15"/><rect x="15" y="27" width="10" height="14"/><rect x="15" y="53" width="10" height="7"/><path d="M38.3,33.41c3.02-.5,7.48-.61,10.7-.61,1.49,0,3.24,.02,5,.1v-15.9c0-7.18-5.82-13-13-13s-12.95,5.86-12.95,13.04c0,17.32,0,13.28,0,30.95-.06,.02-.31,.07-.41-.25l-.95-4.74H14c-6.62,0-12,5.38-12,12v5h8v-5c0-2.21,1.79-4,4-4h14v9h5.48c-.02-.1-.06-.2-.08-.3-.5-3.02-.61-7.48-.61-10.7s.11-7.68,.61-10.7c.42-2.51,2.38-4.47,4.89-4.89"/><path d="M46.44,54.46c-1.03-1.26-1.49-2.8-1.34-4.39-.04-.06-.13-.07-.22,.07-.32,.55-.55,1.09-.67,1.66-.24,1.19,.05,2.37,.82,3.31,1.04,1.27,2.75,1.81,4.35,1.72,.22-.01,.24-.11,.21-.19-1.26-.45-2.35-1.19-3.16-2.17"/><path d="M61.43,38.83c-.19-1.17-1.09-2.07-2.26-2.26-3.39-.56-9.04-.56-10.17-.56s-6.78,0-10.17,.56c-1.17,.2-2.06,1.09-2.26,2.26-.56,3.39-.56,9.04-.56,10.17s0,6.78,.56,10.17c.2,1.17,1.09,2.06,2.26,2.26,3.39,.57,9.04,.57,10.17,.57s6.78,0,10.17-.57c1.17-.2,2.07-1.09,2.26-2.26,.57-3.39,.57-9.04,.57-10.17,0-3.39,0-6.78-.57-10.17m-12.43,20.29c-4.73,0-7.94-3.72-7.13-7.8,.77-3.89,4.99-6.34,6.7-11.51,.13-.4,.25-.53,.43-.53s.29,.13,.43,.53c1.71,5.17,5.94,7.62,6.7,11.51,.8,4.09-2.4,7.8-7.13,7.8"/></g></g></svg>