<?xml version="1.0" encoding="UTF-8"?><svg id="Laag_1" xmlns="http://www.w3.org/2000/svg" xmlns:xlink="http://www.w3.org/1999/xlink" viewBox="0 0 64 64"><defs><style>.cls-1{fill:none;}.cls-2{clip-path:url(#clippath);}.cls-3{clip-path:url(#clippath-1);}</style><clipPath id="clippath"><rect class="cls-1" width="64" height="64"/></clipPath><clipPath id="clippath-1"><rect class="cls-1" width="64" height="64"/></clipPath></defs><g class="cls-2"><g class="cls-3"><path d="M51.99,54.24c-.75-.75-8.23-1.09-13.93-1.24,0-.08,.03-.23,.29-.32,.86-.33,5.54-.91,7.68-1.03L36.82,5.61c-.19-.94-1.01-1.61-1.96-1.61h-5.72c-.95,0-1.77,.67-1.96,1.61l-9.55,47.75c-3.03,.21-5.24,.51-5.62,.88-.5,.5-.91,1.52-.91,2.76,0,1.66,.67,3,1.5,3H51.4c.83,0,1.5-1.34,1.5-3,0-1.24-.41-2.26-.91-2.76M29.38,15h5.24l1.8,9h-8.84l1.8-9Zm-3.8,19h12.84l1.82,9.12H23.76l1.82-9.12Z"/></g></g></svg>