<?xml version="1.0" encoding="UTF-8"?><svg id="Laag_1" xmlns="http://www.w3.org/2000/svg" xmlns:xlink="http://www.w3.org/1999/xlink" viewBox="0 0 64 64"><defs><style>.cls-1{fill:none;}.cls-2{clip-path:url(#clippath);}.cls-3{clip-path:url(#clippath-1);}</style><clipPath id="clippath"><rect class="cls-1" width="64" height="64"/></clipPath><clipPath id="clippath-1"><rect class="cls-1" width="64" height="64"/></clipPath></defs><g class="cls-2"><path d="M49,1H15V33H49V1ZM25,29h-4v-4h4v4Zm0-9h-4v-4h4v4Zm0-9h-4V7h4v4Zm9,18h-4v-4h4v4Zm0-9h-4v-4h4v4Zm0-9h-4V7h4v4Zm9,18h-4v-4h4v4Zm0-9h-4v-4h4v4Zm0-9h-4V7h4v4Z"/><g class="cls-3"><path d="M3,35v28H25.93c-1-.55-1.68-1.61-1.68-2.83,0-1.8,1.46-3.25,3.25-3.25s3.25,1.46,3.25,3.25c0,1.22-.68,2.28-1.68,2.83h18.86c-1-.55-1.68-1.61-1.68-2.83,0-1.8,1.46-3.25,3.25-3.25s3.25,1.46,3.25,3.25c0,1.22-.68,2.28-1.68,2.83h9.94v-28H3Zm52.54,25.01h-1.32c-.09-2.54-2.17-4.59-4.74-4.59s-4.64,2.05-4.73,4.59h-12.53c-.09-2.54-2.17-4.59-4.73-4.59s-4.64,2.05-4.73,4.59h-.86c-1.05,0-1.91-.85-1.91-1.91v-13.9c0-.66,.54-1.2,1.2-1.2h24.88c.93,0,1.79,.5,2.26,1.31l2.85,4.94,4.08,2.01c.89,.45,1.51,1.31,1.62,2.31,.44,4.06,.31,5.48-1.35,6.45"/><path d="M32,46h-7c-.55,0-1,.45-1,1v2c0,.55,.45,1,1,1h7c.55,0,1-.45,1-1v-2c0-.55-.45-1-1-1"/><path d="M46.98,45.45c-.16-.28-.46-.45-.78-.45h-4.2v4.98l6.15,.69c.81,.09,1.39-.78,.98-1.49l-2.14-3.72Z"/></g></g></svg>