<?xml version="1.0" encoding="UTF-8"?><svg id="Laag_1" xmlns="http://www.w3.org/2000/svg" xmlns:xlink="http://www.w3.org/1999/xlink" viewBox="0 0 64 64"><defs><style>.cls-1{fill:none;}.cls-2{clip-path:url(#clippath);}.cls-3{clip-path:url(#clippath-1);}</style><clipPath id="clippath"><rect class="cls-1" width="64" height="64"/></clipPath><clipPath id="clippath-1"><rect class="cls-1" width="64" height="64"/></clipPath></defs><g class="cls-2"><g class="cls-3"><path d="M17.59,49.63c-.29,.54-.79,1.07-1.43,1.51-.64,.44-1.3,.72-1.91,.8-.16,.02-.19,.24-.04,.31,.74,.34,1.8,.41,2.61-.15,.8-.55,1.12-1.58,1.07-2.4-.01-.17-.23-.22-.3-.07"/><path d="M12.32,48.73c-.42,.27-.54,.84-.27,1.27,.27,.42,.83,.55,1.25,.27,.42-.27,.54-.84,.27-1.27-.27-.42-.83-.55-1.25-.27"/><path d="M16.4,48.23c.42-.27,.54-.84,.27-1.27-.27-.42-.83-.55-1.25-.27-.42,.27-.54,.84-.27,1.27s.83,.55,1.25,.27"/><path d="M51.31,45.26c-2.46-2.57-9.22-4.17-11.02-5.61v-.05c-.1-.84-.24-1.86-.38-2.84,2.02,.21,5.02,.57,6.92,1.24,.38,.13,.77-.12,.88-.54,1.01-4.1,1.81-8.05,1.81-12.24,0-7.22-2.62-14.91-6.69-17.76l.19-2.14c.04-.45-.11-.89-.43-1.2-1.17-1.16-4.09-3.12-10.56-3.12s-9.4,1.95-10.57,3.12c-.31,.31-.47,.75-.43,1.2l.19,2.19c-4.66,3.67-7.69,9.95-7.69,17.71,0,3.73,.56,7.15,1.82,12.24,.1,.42,.5,.67,.88,.54,1.82-.64,4.29-1.01,7.36-1.3-.11,.94-.23,1.99-.36,3.06-.83,.59-3.01,1.26-5.32,2.12-1.03-.53-2.18-.83-3.41-.83-.88,0-1.72,.16-2.51,.44,.03-1.16-.38-2.11-1.46-2.84-.33-.22-.68-.32-.73-.06,1.26,1.74,.7,3.54-.37,4.44h0c-1.49,1.38-2.43,3.34-2.43,5.52,0,1.74,.6,3.35,1.61,4.62-.71,3.09-1.08,5.83-1.08,5.83h9.47s1.3-4.81,5-7.96c0,0,5.76,.32,12.1,2.3l-6.1,3.39c.01,.07,.09,.33,.5,.25l8.35-2.68c2.92,1.14,5.8,2.66,8.15,4.69h10.53s-1.45-10.86-4.21-13.74M14.5,54.05c-3.03,0-5.5-2.47-5.5-5.5s2.47-5.5,5.5-5.5,5.5,2.47,5.5,5.5-2.47,5.5-5.5,5.5M32.03,3.5c5.14,0,7.56,1.36,8.49,2.1l-.72,8.4h-15.55l-.71-8.4c.93-.74,3.35-2.1,8.49-2.1m-.45,46.44c-1.49-.64-6.14-2.88-8.39-6.8,2.88-1.19,2.71-2.27,2.76-2.72,.07-.58,.58-5.32,.58-5.32-2.52-2.48-3.6-5.57-4.06-8.28-.29-1.73-.25-3.34-.16-4.41,3.62-1.43,8.39-3.98,11.64-6.56,1.37,2.38,3.77,4.91,6.84,6.91,.07,1.03,.07,2.47-.2,4.06-.53,3.18-2.82,7.63-5.34,9.18-1.72,1.07-4.87,1.23-6.71,.44,.42,.84,1.27,1.84,3.15,2.31,2.54,.63,4.85-.41,5.45-.75,.11,.8,.22,1.59,.29,2.28,.14,1.36,1.88,2.3,3.13,2.88-1.84,3.2-5.73,5.56-8.98,6.78"/><polygon points="31 12 33 12 33 10 35 10 35 8 33 8 33 6 31 6 31 8 29 8 29 10 31 10 31 12"/></g></g></svg>