<?xml version="1.0" encoding="UTF-8"?><svg id="Laag_1" xmlns="http://www.w3.org/2000/svg" xmlns:xlink="http://www.w3.org/1999/xlink" viewBox="0 0 64 64"><defs><style>.cls-1{fill:none;}.cls-2{clip-path:url(#clippath);}.cls-3{clip-path:url(#clippath-1);}</style><clipPath id="clippath"><rect class="cls-1" width="64" height="64"/></clipPath><clipPath id="clippath-1"><rect class="cls-1" width="64" height="64"/></clipPath></defs><g class="cls-2"><g class="cls-3"><path d="M27.53,39.3l15.69-15.69c.86,.41,1.91,.27,2.62-.44l12.71-12.71c1.38-1.38,.76-3-.63-4.38-1.38-1.38-3-2.01-4.38-.63l-12.71,12.71c-.71,.71-.85,1.76-.44,2.62l-15.69,15.69,2.83,2.83Z"/><path d="M17.61,32.22c-.78-.78-1.76-.49-2.54,.29-.78,.78-1.07,1.76-.29,2.55l4.25,4.25-1.42,1.42-4.25-4.25c-.78-.78-1.76-.49-2.55,.29-.78,.78-1.07,1.76-.29,2.55l4.25,4.25-1.42,1.42-4.25-4.25c-.78-.78-1.76-.49-2.54,.29-.78,.78-1.07,1.76-.29,2.54l3.45,3.45H5.55c-1.11,0-1.71,.89-1.71,2s.61,2,1.71,2h4.6l-3.88,3.88c-.78,.78-.49,1.76,.29,2.55h0c.78,.78,1.77,1.07,2.55,.29l3.89-3.88v4.93c0,1.11,.89,1.71,2,1.71s2-.61,2-1.71v-4.5l3.44,3.45c.78,.78,1.76,.49,2.54-.29,.78-.78,1.07-1.76,.29-2.55l-4.25-4.25,1.42-1.42,4.25,4.25c.78,.78,1.76,.49,2.54-.29s1.07-1.76,.29-2.55l-4.25-4.25,1.42-1.42,4.25,4.25c.78,.78,1.76,.49,2.55-.29s1.07-1.76,.29-2.54l-14.17-14.17Z"/><path d="M50.21,27.62c-.28-.39-.74-.62-1.22-.62h-5.32c-.22,.02-.42,.09-.59,.21-.17,.12-.29,.3-.36,.5l-1.6,5.08c-.14,.46-.06,.96,.23,1.35l8.56,11.64c.33,.45,.99,.52,1.43,.19l7.18-5.28c.45-.33,.57-.98,.25-1.42l-8.56-11.64Zm-3.32,4.6c-.68,.49-1.62,.35-2.12-.32-.5-.67-.35-1.62,.32-2.12,.68-.49,1.63-.35,2.12,.33,.49,.67,.34,1.61-.32,2.11"/></g></g></svg>