<?xml version="1.0" encoding="UTF-8"?><svg id="Laag_1" xmlns="http://www.w3.org/2000/svg" viewBox="0 0 64 64"><defs><style>.cls-1{fill:none;}</style></defs><rect class="cls-1" width="64" height="64"/><g><path d="m12,50v-26.71l-3.15-.93c-.34-.11-.22-.36-.22-.36h14.37c.55,0,1-.45,1-1V6.63s.25-.11.36.23l.93,3.13h16.71v10.44c.78-.56,1.73-.9,2.76-.91h.05s.02,0,.02,0c.78,0,1.51.19,2.17.52V7c0-1.1-.9-2-2-2h-21.17c-.53,0-1.04.21-1.41.59l-14.83,14.83c-.37.38-.59.88-.59,1.41v31.17c0,1.1.9,2,2,2h20.53c-.31-1.51-.45-3.18-.5-5H12Z"/><path d="m62.6,40.33c-.63-.52-1.86-.55-3.41.86-1.76,1.6-2.87,3.48-4.19,5.12-1.44,1.8-1.84,1.4-4.03,1.72-3.48.51-6.17,2.81-6.17,2.81-.04-.05-.12-.19.07-.42,0,0,2.2-3.29,7.91-4.21,0,0-.23-18.68-.28-19.83-.04-.99-.88-1.77-1.88-1.75h0c-1,.01-1.77.81-1.83,1.81-.06,1.04-.56,13.68-.6,14.17-.02.37-.33.65-.69.59,0,0,0,0-.02,0-.29-.04-.51-.29-.52-.59-.02-.38-.23-15.32-.28-16.32s-.88-1.77-1.88-1.75h0c-.99.01-1.8.81-1.83,1.81-.03.99-.27,15.73-.27,16.09,0,.31-.24.57-.56.6,0,0,0,0-.01,0-.35.03-.62-.25-.65-.6-.03-.35-.58-13.07-.63-14.06-.05-.99-.88-1.77-1.88-1.75h0c-1,.01-1.8.81-1.83,1.81-.03.99.04,15.31.03,15.55,0,.23-.14.44-.35.54,0,0,0,0-.01,0-.39.19-.82-.1-.86-.54-.04-.44-.61-9.48-.65-10.32-.05-.85-.75-1.51-1.6-1.49h0c-.85.01-1.53.69-1.56,1.54-.02.85-.11,11.68-.11,11.68,0,5.62-.27,10.66,1.27,13.44,4.01,7.24,14.44,7.32,19.22,3.14,5.01-4.38,5.51-9.95,9.97-16.7.97-1.47.73-2.41.12-2.92Z"/></g></svg>