<?xml version="1.0" encoding="UTF-8"?><svg id="Laag_1" xmlns="http://www.w3.org/2000/svg" xmlns:xlink="http://www.w3.org/1999/xlink" viewBox="0 0 64 64"><defs><style>.cls-1{fill:none;}.cls-2{clip-path:url(#clippath);}.cls-3{clip-path:url(#clippath-1);}</style><clipPath id="clippath"><rect class="cls-1" width="64" height="64"/></clipPath><clipPath id="clippath-1"><rect class="cls-1" width="64" height="64"/></clipPath></defs><g class="cls-2"><g class="cls-3"><path d="M59.02,31.2c-1.27,.16-2.46,.26-3.6,.32,.13,.84,.1,1.66-.14,2.28-.27,.71-.78,1.24-1.44,1.48-.96,.35-1.92,.06-2.8-.5-.26,.61-.61,1.13-1.01,1.49-.56,.5-1.25,.72-1.94,.63-.77-.1-1.43-.54-1.97-1.29-.65,.76-1.51,1.38-2.51,1.38s-1.98-.62-2.45-2.02c-.53,.3-1.1,.52-1.67,.57-.75,.06-1.43-.16-1.93-.64-.74-.71-.98-1.82-.7-3.24-1.51-1.17-2.75-2.62-3.62-4.37-.28-.56-.5-1.1-.68-1.63-2.01-.89-3.99-1.52-6.27-1.56,.64-2.03,1.51-5.92,3.68-6.66-1.11-1.21-2.44-2.15-3.88-2.89,.25-.89,3.59,.59,5.19,1.98,.81,.7,1.9,2.35,2.25,4.32,.24,1.36,.46,3.5,1.5,5.53,.93,1.87,2.34,3.32,4.15,4.43-.49,1.31-.55,2.31-.22,2.63,.39,.37,1.82-.39,2.59-1.45,.42,.16,.86,.31,1.32,.44-.04,1.37,.22,2.33,.62,2.52,.47,.23,1.55-.89,1.96-2.11,.8,.03,1.07,0,1.57-.05,.38,1.27,.91,2.06,1.34,2.12,.53,.07,1.24-1.41,1.22-2.72,.75-.27,.34-.12,1.05-.47,1.06,1.22,2.07,1.84,2.54,1.67,.51-.19,.45-1.86-.19-3.02-.01-.03-.03-.04-.05-.06,1.78-1.38,2.99-3,4.16-4.73,.86-1.23,2.68-1.77,3.53-2.19,.37-.19,.91-.75,.38-1.39-.62-.74-1.37-1.55-2.27-2.2l.54-2.66c.07-.27-.03-.55-.25-.71-.24-.18-.58-.19-.82,0l-1.23,2.46c-.56-.19-1.16-.31-1.81-.32l-.53-2.66c-.2-.23-.53-.3-.81-.17-.25,.12-.4,.37-.39,.65l-.3,2.48s-.07,.02-.11,.03c-2.12,.67-3.82,2.74-6.1,3.59-1.57,.58-3.17-.23-3.82-3.55-.29-1.51-.66-3.53-1.71-5.32-2.29-4-6.82-6.85-11.68-6.45-4.3,.29-8.39,2.96-10.62,7.71-.68,1.4-1.44,4.47-1.56,5.77-.07,.77-.16,1.61-.8,2.45-1.11,1.44-3.79,2.7-6.64,2.58-3.27-.14-3.73,2.35-2.81,3.37,.52,.58,2.67,1.79,5.02,2.2,.88-1.36,3.78-4.35,4.37-3.58-2.9,2.9-4.58,7.59-4.52,11.86,4.71-2.03,9.31-2.93,14.18-2.61,.82,.05,.95,.56,.97,.76-11.32,2.44-18.43,5.88-24.53,15.54-2.21,3.65,2.76,7.3,5.4,3.7,1.63-2.22,3.85-5.83,7.84-8.6,11.66,13.49,38.02,5.39,45.08-14.59,.47-1.33-.65-2.69-2.05-2.52"/></g></g></svg>