<?xml version="1.0" encoding="UTF-8"?><svg id="Laag_1" xmlns="http://www.w3.org/2000/svg" xmlns:xlink="http://www.w3.org/1999/xlink" viewBox="0 0 64 64"><defs><style>.cls-1{fill:none;}.cls-2{clip-path:url(#clippath);}.cls-3{clip-path:url(#clippath-1);}</style><clipPath id="clippath"><rect class="cls-1" width="64" height="64"/></clipPath><clipPath id="clippath-1"><rect class="cls-1" width="64" height="64"/></clipPath></defs><g class="cls-2"><polygon points="13.06 24.58 18.84 33.34 19.76 30.81 23.22 33.05 24.57 30.96 21.23 28.81 23.71 27.19 13.06 24.58"/><g class="cls-3"><path d="M7,40V20H31c-.09-1.61-.08-2.92,0-4H4.5c-.83,0-1.5,.67-1.5,1.5v26c0,.83,.67,1.5,1.5,1.5h11.96s-.83,3.08-.99,3.58c-.42,1.32-1.65,1.43-2.07,1.43h-1.4c-.55,0-1,.45-1,1v.99h9.48c.33-3.45,1.23-9.05,3.04-12H7Z"/><path d="M58.76,40.49c-1.78-1.88-7.1-3.54-9.56-4.21-.66-.18-1.1-.74-1.25-1.41-.13-.59-.2-1.26-.2-1.26,1.56-1.75,2.73-3.85,3.12-6.64,1.5-.46,1.79-2.33,1.79-3.49s-.2-1.79-.62-1.99c-.2-.09-.4-.09-.57-.06,.15-2.42,.3-7.22-.71-9.02-1.11-1.97-2.58-2.48-5.14-1.84-1.68-.89-2.82-1.77-5.77-.97-2.04,.56-4.28,1.47-5.46,2.98-1.27,1.64-1.03,6.41-.81,8.86-.19-.05-.41-.06-.64,.04-.42,.19-.62,.82-.62,1.99s.3,3.03,1.8,3.49c.35,2.94,1.53,4.98,3.11,6.67,0,.1-.08,.68-.2,1.23-.12,.54-.41,1.1-.92,1.26-2.65,.83-8.12,2.49-9.9,4.36-2.31,2.43-3.18,11.51-3.18,11.51H61.94s-.87-9.07-3.18-11.51"/></g></g></svg>