<?xml version="1.0" encoding="UTF-8"?><svg id="Laag_1" xmlns="http://www.w3.org/2000/svg" xmlns:xlink="http://www.w3.org/1999/xlink" viewBox="0 0 64 64"><defs><style>.cls-1{fill:none;}.cls-2{clip-path:url(#clippath);}.cls-3{clip-path:url(#clippath-1);}</style><clipPath id="clippath"><rect class="cls-1" width="64" height="64"/></clipPath><clipPath id="clippath-1"><rect class="cls-1" width="64" height="64"/></clipPath></defs><g class="cls-2"><g class="cls-3"><path d="M34.57,11l1.33-4.41h.06l1.3,4.41h2.05l2.11-8h-1.5l-1.57,6.55h-.06l-1.96-6.55h-1.56l.54,1.73-1.57,4.82h-.07l-1.56-6.55h-1.63l2.09,8h2.02Zm9-1.83h2.73l.51,1.83h1.67l-2.35-8h-2.21l-2.38,8h1.51l.51-1.83Zm1.33-4.88h.08l1,3.71h-2.12l1.04-3.71Zm-28.06,.25h.05l2.35,6.46h2.29V3h-1.35v6.46h-.05l-2.35-6.46h-2.29v8h1.35V4.54Zm10.45,6.46l2.36-8h-1.51l-1.83,6.55h-.06l-1.84-6.55h-1.63l2.34,8h2.17Zm20.71,3H16c-1.1,0-2,.9-2,2V63h15v-9h6v9h15V16c0-1.1-.9-2-2-2M25,47h-6v-6h6v6Zm0-10h-6v-6h6v6Zm0-10h-6v-6h6v6Zm10,20h-6v-6h6v6Zm0-10h-6v-6h6v6Zm0-10h-6v-6h6v6Zm10,20h-6v-6h6v6Zm0-10h-6v-6h6v6Zm0-10h-6v-6h6v6Z"/></g></g></svg>