<?xml version="1.0" encoding="UTF-8"?><svg id="Laag_1" xmlns="http://www.w3.org/2000/svg" xmlns:xlink="http://www.w3.org/1999/xlink" viewBox="0 0 64 64"><defs><style>.cls-1{fill:none;}.cls-2{clip-path:url(#clippath);}.cls-3{clip-path:url(#clippath-1);}</style><clipPath id="clippath"><rect class="cls-1" width="64" height="64"/></clipPath><clipPath id="clippath-1"><rect class="cls-1" width="64" height="64"/></clipPath></defs><g class="cls-2"><g class="cls-3"><path d="M52.54,8.66c-3.15-1.2-5.7,.39-6.92,3.57-1.28,3.36-.22,5.93,2.85,7.1,3.07,1.17,5.67-.3,6.85-3.4,1.35-3.53,.21-6.13-2.78-7.27"/><path d="M47.21,32.02c-.09-1.76-.33-7.75-.69-9.19-1.12-7-6.06-6.74-8.53-6.67-5.61,.16-13.61,1.43-17.13,6.99-1.82,2.87-1.69,5.52-1.4,7.18,.38,2.16,2.34,10.86,2.34,10.86,0,0-4.52,1.35-9.1,2.56-4.57,1.21-5.12,4.72-5.16,5.25,4.36-.17,8.39-.4,13.18-1.16,2.45-.41,4.9-.89,6.43-1.97,1.86-1.58,1.95-2.56,1.49-7.66-2.29-1.15-5.25-2.64-5.47-2.78-.31-.2-.21-.36-.21-.36l10.47,2.96s-.44,1.06-2.63,5.88c-1.72,3.79-.06,7.28,.94,7.96,2.68-3.19,5.42-6.83,7.45-10.43,1.04-1.91,2.13-3.9,1.71-5.97-.24-1.05-.77-2.23-2.98-3.47-1.92-1.08-4.24-2.18-6.42-2.99,2.33-.31,5.76-.81,9.81-1.59,.12,.86,.14,1.04,.7,5.33,.35,2.51,.65,3.95,1.05,5.15,1.03,3.31,2.11,6.53,2.93,8.96,.66,1.93,2.33,3.61,4.75,3.13-.65-3.11-1.86-7.88-2.96-13.28-.23-1.14-.39-1.76-.56-4.69"/></g></g></svg>