<?xml version="1.0" encoding="UTF-8"?><svg id="Laag_1" xmlns="http://www.w3.org/2000/svg" xmlns:xlink="http://www.w3.org/1999/xlink" viewBox="0 0 64 64"><defs><style>.cls-1{fill:none;}.cls-2{clip-path:url(#clippath);}.cls-3{clip-path:url(#clippath-1);}</style><clipPath id="clippath"><rect class="cls-1" width="64" height="64"/></clipPath><clipPath id="clippath-1"><rect class="cls-1" width="64" height="64"/></clipPath></defs><g class="cls-2"><g class="cls-3"><path d="M5.77,18c3.28,0,18.23-1,18.23-1h4s14.95,1,18.23,1c2.24,0,4.08-.69,4.55-1.77v-.05c.47-1.07-.13-1.77-1.2-1.77-3.28,0-21.57,.59-21.57,.59v-.1c0-1.1-.9-1.68-2-1.68s-2,.58-2,1.68v.1s-18.29-.59-21.57-.59c-1.07,0-1.67,.69-1.2,1.77v.05c.47,1.07,2.3,1.77,4.55,1.77"/><path d="M62.34,18h-1.75c-.36,0-.69,.19-.87,.51l-4.78,8.49h-15.39l-6.6-4.64c-1.26-.88-2.82-1.36-4.42-1.36h-.52v-2h-4v2h-.31c-2.19,0-3.9,1.36-5.22,2.73l4.57,.91c.32,.1,.27,.31,.25,.36h-5.98c-7.24,0-12.31,4.57-15.22,9.5-1.14,1.92-1.29,3.5,.53,5,1.72,1.42,3.81,2.36,7.35,2.9l-1.23,4.6h-.44c-1.61,0-3.13-.7-4.17-1.92-.36-.42-.99-.47-1.41-.11-.42,.36-.47,.99-.11,1.41,1.42,1.67,3.5,2.62,5.69,2.62h27.71c.55,0,1-.45,1-1s-.45-1-1-1h-5.3l-1.28-4.79c2.71-.72,4.3-1.91,6.31-3.6,1.47-1.24,2.97-3.02,4.22-4.68l16.25-2.22,2.08,2.89c.19,.26,.49,.42,.81,.42h2.24c.34,0,.58-.33,.48-.65l-1.79-5.7,2.82-10.01c.09-.32-.15-.64-.48-.64M6.34,35.05c-.53-.09-.68-.56-.24-1.12,2.17-2.78,5.79-5.93,11.22-5.93h2.96c.95,0,1.73,.77,1.73,1.73,0,2.91-2.39,4.88-5.27,5.27-2.91,.4-9.64,.17-10.39,.05m4.47,11.95l1.16-4.35c2.37,.24,5.27,.35,8.96,.35,2.73,0,4.82-.13,6.53-.39l1.18,4.39H10.8Z"/></g></g></svg>