<?xml version="1.0" encoding="UTF-8"?><svg id="Laag_1" xmlns="http://www.w3.org/2000/svg" viewBox="0 0 64 64"><defs><style>.cls-1{fill:none;}</style></defs><rect class="cls-1" width="64" height="64"/><rect x="32" y="21" width="10" height="3"/><rect x="27" y="31" width="15" height="3"/><rect x="20" y="31" width="5" height="3"/><rect x="20" y="37" width="5" height="3"/><rect x="20" y="43" width="5" height="3"/><path d="m31.3,52h-15.3v-26.71l-3.15-.93c-.34-.11-.22-.36-.22-.36h14.37c.55,0,1-.45,1-1v-14.37s.25-.11.36.23l.93,3.13h16.71v19.52c.67-.32,1.49-.52,2.5-.52s1.83.2,2.5.52V9c0-1.1-.9-2-2-2h-21.17c-.53,0-1.04.21-1.41.59l-14.83,14.83c-.38.38-.59.88-.59,1.41v31.17c0,1.1.9,2,2,2h21.28c.11-.34.25-.67.42-.95.39-.61.78-1.21,1.16-1.8-.7-.16-1.42-.32-2.15-.49-.88-.21-1.79-.78-2.42-1.76Z"/><path d="m27,37v3h7.11c-.04-.92.24-1.96,1.03-3h-8.14Z"/><path d="m27,46h4.3c.64-1,1.56-1.57,2.47-1.77.71-.16,1.41-.31,2.09-.46-.16-.25-.32-.52-.49-.78h-8.37v3Z"/><path d="m62.59,47.16c-1.16-.26-2.3-.5-3.39-.73-.66-.14-1.2-.6-1.45-1.22,0-.02-.02-.04-.02-.06-.25-.61-.19-1.3.17-1.85.61-.95,1.24-1.95,1.87-2.96.36-.58-.02-1.3-.66-1.94-.64-.64-1.37-1.02-1.94-.66-1,.64-1.97,1.26-2.9,1.87-.57.37-1.28.43-1.9.17-.02,0-.04-.02-.06-.03-.63-.26-1.09-.8-1.24-1.47-.23-1.09-.47-2.22-.73-3.37-.15-.66-.93-.91-1.84-.91s-1.68.25-1.84.91c-.27,1.16-.53,2.3-.77,3.4-.14.66-.6,1.2-1.23,1.46,0,0-.02,0-.02,0-.63.26-1.34.2-1.91-.17-.93-.61-1.9-1.23-2.9-1.87-.57-.37-1.3.02-1.94.66-.64.64-1.01,1.36-.66,1.94.63,1.02,1.26,2.01,1.87,2.96.36.56.42,1.24.17,1.85,0,.02-.02.04-.02.06-.25.62-.79,1.08-1.45,1.22-1.09.23-2.23.48-3.39.73-.66.15-.91.93-.91,1.84s.25,1.68.91,1.84c1.17.28,2.31.53,3.42.78.65.14,1.18.59,1.43,1.2,0,.02.02.04.02.06.26.62.2,1.32-.17,1.88-.61.94-1.24,1.91-1.88,2.91-.37.57.02,1.3.66,1.94.64.64,1.36,1.01,1.94.66,1.02-.63,2.01-1.26,2.96-1.87.56-.36,1.25-.42,1.86-.16,0,0,.01,0,.02,0,.62.25,1.07.78,1.21,1.43.24,1.11.5,2.25.77,3.42.16.66.93.91,1.84.91s1.69-.25,1.84-.91c.26-1.16.5-2.3.73-3.39.14-.66.6-1.2,1.22-1.45.02,0,.04-.02.06-.02.61-.25,1.3-.19,1.85.17.95.61,1.94,1.24,2.96,1.87.58.36,1.3-.02,1.94-.66.64-.64,1.02-1.37.66-1.94-.64-1-1.27-1.98-1.88-2.91-.37-.56-.42-1.26-.17-1.88,0-.02.02-.04.02-.06.25-.61.78-1.06,1.43-1.2,1.11-.24,2.25-.5,3.42-.78.66-.16.91-.93.91-1.84s-.25-1.69-.91-1.84Zm-14.09,6.64c-2.65,0-4.8-2.15-4.8-4.8s2.15-4.8,4.8-4.8,4.8,2.15,4.8,4.8-2.15,4.8-4.8,4.8Z"/></svg>