<?xml version="1.0" encoding="UTF-8"?><svg id="Laag_1" xmlns="http://www.w3.org/2000/svg" xmlns:xlink="http://www.w3.org/1999/xlink" viewBox="0 0 64 64"><defs><style>.cls-1{fill:none;}.cls-2{clip-path:url(#clippath);}.cls-3{clip-path:url(#clippath-1);}</style><clipPath id="clippath"><rect class="cls-1" width="64" height="64"/></clipPath><clipPath id="clippath-1"><rect class="cls-1" width="64" height="64"/></clipPath></defs><g class="cls-2"><g class="cls-3"><path d="M57.17,24.07c-.72-.14-2.28,0-3.51,.17-.7-5.3-2.29-13.51-2.9-15.21-.44-1.22-1.6-2.03-2.9-2.03h-.11c.09-.42,.08-.87-.06-1.29l-.55-1.66c-.41-1.23-1.55-2.05-2.85-2.05H19.72c-1.29,0-2.44,.83-2.85,2.05l-.55,1.66c-.14,.42-.15,.87-.06,1.29h-.11c-1.3,0-2.46,.81-2.9,2.03-.62,1.7-2.2,9.91-2.9,15.21-1.23-.17-2.8-.31-3.51-.17-1.69,.33-2,2.08-1.54,3.08,.72,1.53,3.36,2.96,4.7,3.61v23.57s0,3.97,.41,5.63c.15,.6,.81,1.03,1.57,1.03h6.03c.76,0,1.42-.43,1.58-1.03,.25-1.01,.35-3.04,.39-4.47l-5.71-1.14c-.32-.1-.27-.31-.25-.36H49.99c.02,.06,.07,.26-.25,.36l-5.71,1.14c.04,1.43,.14,3.45,.39,4.47,.15,.6,.81,1.03,1.57,1.03h6.03c.76,0,1.43-.43,1.58-1.03,.41-1.66,.41-5.63,.41-5.63V30.77c1.34-.65,3.99-2.08,4.7-3.61,.47-1,.15-2.75-1.54-3.08M37,4h7.37c.44,0,.82,.26,.96,.68l.56,1.68c.1,.3-.11,.61-.42,.65h-8.47V4Zm-18.89,2.35l.56-1.68c.14-.41,.52-.68,.96-.68h7.37v3h-8.47c-.31-.04-.52-.34-.42-.65m-2.43,7.49c.1-.77,.25-1.02,1.02-1.02h30.6c.77,0,.92,.25,1.02,1.02l2.04,13.26c.15,1.17-1.02,1.81-2.18,2.16,0,0-8.16,1.92-16.18,1.92s-16.18-1.92-16.18-1.92c-1.16-.35-2.33-.99-2.18-2.16l2.04-13.26Zm26.32,20.16l-5,5h-4l5-5h4Zm-11,5h-4l-5-5h4l5,5Zm-9.22,8.95l-6.3-.5c-1.71-.14-2.75-1.5-3.07-2.99l-.26-1.81c-.16-1.12,.99-2.06,2.12-1.75l5.1,1.42c1.11,.43,1.95,1.29,2.31,2.38l.7,2.6c.09,.34-.22,.69-.59,.65m-1.78-8.95l-5-5h4l5,5h-4Zm4.98,4.33c0-.19,.18-.34,.4-.34h3.23c.22,0,.4,.15,.4,.34v1.35c0,.19-.18,.34-.4,.34h-3.23c-.22,0-.4-.15-.4-.34v-1.35Zm14.02,8.67h-14v-3h14v3Zm.02-7.33c0,.19-.18,.34-.4,.34h-3.23c-.22,0-.4-.15-.4-.34v-1.35c0-.19,.18-.34,.4-.34h3.23c.22,0,.4,.15,.4,.34v1.35Zm5.98-10.67h4l-5,5h-4l5-5Zm6.85,8.65l-.26,1.81c-.31,1.49-1.36,2.85-3.06,2.99l-6.3,.5c-.38,.03-.69-.31-.59-.65l.7-2.6c.36-1.09,1.19-1.95,2.3-2.38l5.1-1.42c1.13-.31,2.28,.63,2.12,1.75"/></g></g></svg>