<?xml version="1.0" encoding="UTF-8"?><svg id="Laag_1" xmlns="http://www.w3.org/2000/svg" xmlns:xlink="http://www.w3.org/1999/xlink" viewBox="0 0 64 64"><defs><style>.cls-1{fill:none;}.cls-2{clip-path:url(#clippath);}.cls-3{clip-path:url(#clippath-1);}</style><clipPath id="clippath"><rect class="cls-1" width="64" height="64"/></clipPath><clipPath id="clippath-1"><rect class="cls-1" width="64" height="64"/></clipPath></defs><g class="cls-2"><polygon points="22.61 9.23 18.26 9.23 18.26 9.18 22.59 2.8 22.59 1.45 16.58 1.45 16.58 2.85 20.65 2.85 20.65 2.9 16.32 9.28 16.32 10.63 22.61 10.63 22.61 9.23"/><g class="cls-3"><path d="M27.76,10.76c2.4,0,4.4-1.68,4.4-4.81s-1.86-4.64-4.2-4.64-4.41,1.68-4.41,4.8,1.86,4.64,4.22,4.64m.1-7.96c1.4,0,2.54,.91,2.54,3.31,0,2.25-1.27,3.15-2.54,3.15-1.4,0-2.55-.91-2.55-3.29,0-2.26,1.26-3.17,2.55-3.17"/><path d="M35.53,7.12h1.15l2.1,3.52h1.96l-2.44-3.98c1.02-.46,1.67-1.4,1.67-2.65,0-1.51-1.13-2.56-3.43-2.56h-2.69V10.64h1.68v-3.52Zm0-4.33h.88c1.27,0,1.81,.48,1.81,1.41,0,1.01-.66,1.6-1.67,1.6h-1.02V2.79Z"/><path d="M45.81,10.73c.99,0,1.85-.08,2.76-.27V6.04h-3.04v1.37h1.42v1.88c-.41,.04-.65,.06-1.06,.06-1.57,0-2.86-1.06-2.86-3.21s1.32-3.32,3.15-3.32c.73,0,1.25,.03,2,.14l.13-1.43c-.64-.13-1.23-.18-2.07-.18-2.8,0-4.97,1.58-4.97,4.96,0,2.94,1.85,4.43,4.55,4.43"/><path d="M48,14H16c-1.1,0-2,.9-2,2V63h15v-9h6v9h15V16c0-1.1-.9-2-2-2M25,47h-6v-6h6v6Zm0-10h-6v-6h6v6Zm0-10h-6v-6h6v6Zm10,20h-6v-6h6v6Zm0-10h-6v-6h6v6Zm0-10h-6v-6h6v6Zm10,20h-6v-6h6v6Zm0-10h-6v-6h6v6Zm0-10h-6v-6h6v6Z"/></g></g></svg>