<?xml version="1.0" encoding="UTF-8"?>
<svg id="Zwart" xmlns="http://www.w3.org/2000/svg" viewBox="0 0 64 64">
  <path d="M63.69,44.33c-.21-1.55-.63-3.37-1.45-4.24-1.1-1.16-4.68-2.72-6.92-3.57-.35-.13-.57-.46-.64-.83-.09-.46-.17-1.1-.24-1.72h.01c.97-1.13,1.8-2.48,2.05-4.25.94-.29,1.15-1.45,1.17-2.21.12-.28.25-.56.44-.74.49-.48,1.46-.57,1.82-1.12.38-.58.06-1.49.27-2.11.22-.66,1.02-1.21,1.02-1.87s-.79-1.17-1.01-1.78c-.21-.6.08-1.49-.32-2.02-.38-.5-1.32-.48-1.84-.9-.49-.39-.65-1.33-1.24-1.63-.56-.29-1.42.11-2.05-.09-.6-.19-1.07-1.01-1.73-1.11-.62-.09-1.32.55-1.98.55s-1.36-.64-1.98-.55c-.65.1-1.13.92-1.73,1.11-.63.2-1.49-.2-2.05.09-.59.31-.75,1.24-1.24,1.63-.52.42-1.47.4-1.84.9-.4.53-.1,1.42-.32,2.02-.22.6-1.01,1.12-1.01,1.78s.79,1.22,1.02,1.87c.21.62-.11,1.53.27,2.11.36.55,1.33.63,1.82,1.12.19.19.32.46.44.74.01.77.22,1.92,1.16,2.22.22,1.83,1.04,3.13,1.99,4.21h0s0,.02,0,.03h0c-.07.62-.15,1.28-.24,1.73-.07.37-.29.7-.64.83-1.23.46-1.71.68-2.05.82,1.23.58,2.37,1.29,3.2,2.18,1.59,1.7,2.44,4.88,2.88,7.47h13.16c0-.21-.04-1.38-.21-2.67Z"/>
  <path d="M20.76,36.73c-.83-.27-1.75-.53-2.25-.67-.38-.1-.62-.44-.72-.82-.14-.49-.18-1.11-.18-1.11,1.01-1.18,1.76-2.59,2.02-4.45,1.02-.32,1.22-1.6,1.22-2.4s-.14-1.23-.42-1.37c0,0-.02,0-.02,0-.01-.23-.05-.48.03-.67.13-.34.61-.58.67-.93.08-.44-.27-.92-.25-1.35.02-.45.39-.91.33-1.33-.06-.44-.56-.76-.72-1.16-.16-.4-.04-.98-.32-1.33-.26-.33-.85-.34-1.23-.6-.34-.24-.53-.79-.96-.97-.38-.15-.91.1-1.37,0-.4-.09-.77-.55-1.24-.59-.41-.04-.87.34-1.33.34s-.92-.38-1.33-.34c-.46.04-.83.5-1.23.59-.46.1-.99-.15-1.37,0-.43.18-.62.73-.96.97-.38.26-.96.28-1.23.6-.28.35-.15.93-.32,1.33-.16.4-.66.72-.72,1.16-.06.42.31.88.33,1.33.02.43-.33.91-.25,1.35.06.35.54.59.67.93.07.18.04.41.03.64-.06,0-.12.01-.19.04-.28.13-.42.57-.42,1.37s.2,2.08,1.22,2.4c.23,1.92.96,3.27,1.95,4.4,0,0-.02.58-.13,1.13-.08.4-.33.74-.72.85-1.6.45-5.8,1.26-7.45,3.01C-.12,41.21.1,47,.1,47h13.12c.85-4.99,2.56-7.06,2.96-7.48,1.11-1.18,2.76-2.07,4.58-2.79Z"/>
  <path d="M37.8,37.38c-.57-.16-.95-.64-1.08-1.22-.11-.51-.17-1.09-.17-1.09,1.35-1.51,2.36-3.34,2.7-5.75,1.29-.4,1.55-2.01,1.55-3.02s-.18-1.55-.54-1.72c-.17-.08-.62-.08-.9.15.06-1.04-.09-2.63-.37-4.16.17-.27.34-.54.32-.8-.03-.51-.68-.93-.78-1.41-.11-.5.29-1.17.08-1.61-.22-.45-.98-.55-1.31-.92-.32-.36-.32-1.14-.76-1.41-.4-.25-1.1.08-1.61-.09-.44-.14-.8-.83-1.33-.9-.47-.06-1,.5-1.54.5s-1.07-.56-1.54-.5c-.53.07-.89.76-1.33.9-.51.16-1.21-.16-1.61.09-.44.28-.44,1.05-.77,1.41-.33.38-1.1.47-1.32.92-.21.44.19,1.11.07,1.61-.11.48-.76.9-.78,1.41-.01.23.11.46.26.69-.3,1.55-.43,3.2-.34,4.29-.34-.25-.76-.25-.95-.16-.36.17-.54.71-.54,1.72s.26,2.62,1.55,3.02c.42,3.46,2.14,5.48,4.27,7.27.56.47,1.57.72,2.63.77.1.17.1.37-.28.5-.63.21-2.61.5-4.74-.61-.02,0-.03-.02-.05-.03-1.59.43-6.74,1.62-8.8,3.8-2.38,2.52-2.78,9.97-2.78,9.97h34s-.47-7.53-2.75-9.97c-1.89-2.01-6.31-3.07-8.44-3.65Z"/>
</svg>