<?xml version="1.0" encoding="UTF-8"?><svg id="Laag_1" xmlns="http://www.w3.org/2000/svg" xmlns:xlink="http://www.w3.org/1999/xlink" viewBox="0 0 64 64"><defs><style>.cls-1{fill:none;}.cls-2{clip-path:url(#clippath);}.cls-3{clip-path:url(#clippath-1);}</style><clipPath id="clippath"><rect class="cls-1" width="64" height="64"/></clipPath><clipPath id="clippath-1"><rect class="cls-1" width="64" height="64"/></clipPath></defs><g class="cls-2"><g class="cls-3"><path d="M22.62,16.58c0-8.71-4.61-12.04-10.31-12.04S1.55,8.58,1.55,17.09c0,8.97,4.74,11.65,10.25,11.65s10.82-3.97,10.82-12.17m-10.57,6.98c-2.5,0-4.23-1.6-4.23-7.04,0-5.12,1.99-6.85,4.29-6.85,2.5,0,4.29,1.79,4.29,7.43,0,4.61-1.86,6.47-4.35,6.47"/><polygon points="32.41 3.58 15.38 46.81 20.18 48.73 37.22 5.5 32.41 3.58"/><path d="M40.61,28.36c2.19,0,3.84,1.39,4.21,5.54,1.81-.08,3.64-.11,5.18-.11,.34,0,.7,0,1.06,0-.5-7.61-4.9-10.56-10.26-10.56-5.7,0-10.76,4.03-10.76,12.55,0,5.07,1.52,8.13,3.83,9.84,.08-2.24,.24-4.54,.53-6.33,.23-1.37,.93-2.57,1.92-3.46,0-.21-.01-.41-.01-.63,0-5.12,1.99-6.85,4.29-6.85"/><path d="M62.44,39.83c-.19-1.17-1.09-2.07-2.26-2.26-3.39-.57-9.04-.57-10.17-.57s-6.78,0-10.17,.57c-1.17,.19-2.07,1.09-2.26,2.26-.56,3.39-.56,9.04-.56,10.17s0,6.78,.56,10.17c.19,1.17,1.09,2.07,2.26,2.26,3.39,.57,9.04,.57,10.17,.57s6.78,0,10.17-.57c1.17-.19,2.07-1.09,2.26-2.26,.57-3.39,.57-9.04,.57-10.17,0-3.39,0-6.78-.57-10.17m-5.25,10.49l-6.09,7.72c-.26,.33-.66,.52-1.08,.52s-.82-.19-1.08-.52l-6.09-7.72c-.41-.52-.39-1.25,.04-1.75,.43-.5,1.15-.62,1.72-.3l3.38,1.93v-7.02c0-1.1,.95-1.43,2.03-1.43s2.03,.33,2.03,1.43v9.66s.1,.06,.16-.13c.07-.24,.82-3.07,.82-3.07l2.4-1.37c.57-.33,1.3-.2,1.72,.3,.22,.26,.33,.58,.33,.9,0,.3-.1,.6-.3,.85"/></g></g></svg>