<?xml version="1.0" encoding="UTF-8"?><svg id="Laag_1" xmlns="http://www.w3.org/2000/svg" xmlns:xlink="http://www.w3.org/1999/xlink" viewBox="0 0 64 64"><defs><style>.cls-1{fill:none;}.cls-2{clip-path:url(#clippath);}.cls-3{clip-path:url(#clippath-1);}</style><clipPath id="clippath"><rect class="cls-1" width="64" height="64"/></clipPath><clipPath id="clippath-1"><rect class="cls-1" width="64" height="64"/></clipPath></defs><g class="cls-2"><g class="cls-3"><path d="M55.99,8.23c.9-1.55,.89-3.61,.44-5.83-.05-.23-.25-.4-.49-.4-2.33,.01-5.75,.64-6.72,2.55-1.13,2.24-.35,6.13-1.25,8.42,3.58-3.42,6.59-2.28,8.01-4.75"/><path d="M43.87,18.82s3.6-5.11,2.28-10.52c-.64-2.62-2.73-4.28-3.64-4.89-.24-.16-.55-.1-.71,.14-.62,.99-2.01,3.62-1.21,6.05,1.01,3.08,2.74,5.3,3.27,9.22"/><path d="M37.86,26.45s4.75-4.63,3.75-9.26c-.78-3.56-3.15-6.44-4.2-7.57-.24-.26-.67-.19-.82,.14-.56,1.26-1.66,4.11-1.44,6.52,.3,3.2,2.86,5.85,2.72,10.17"/><path d="M32.64,33.93s3.41-3.83,3.24-8.4c-.14-3.59-2.68-7.3-3.76-8.72-.23-.3-.68-.25-.85,.09-.63,1.28-1.81,4.16-1.41,6.9,.53,3.68,3.26,6.23,2.79,10.14"/><path d="M27.71,39.52s3.45-3.91,2.9-7.21c-.52-3.15-1.96-4.65-3.15-8.18-.13-.38-.64-.46-.87-.14-.82,1.12-2.17,3.41-1.92,6.2,.34,3.82,2.33,4.38,3.04,9.33"/><path d="M41.05,42.49c-1.42-.18-4.42-.49-7.43-.28-4.15,.3-6.02,.53-8.21,1.78,.55-3.4-.01-8.12-3.56-13.48-.2-.3-.65-.3-.84,.01-1.07,1.73-3.79,6.58-3.21,10.31,.38,2.45,1.53,4.44,3.11,5.94-3.49,3.86-8.71,7.35-13.19,9.96-1.51,.88-1.75,2.96-.47,4.16,.9,.83,2.26,.93,3.27,.23,6.33-4.41,9.69-7.28,13.7-12.19,3.08,1.33,6.74,1.42,9.9,.08,2.81-1.2,5.81-3.93,7.26-5.7,.25-.3,.06-.75-.32-.81"/><path d="M46.18,35.73c-1.44-.45-5.09-1.33-8.95-.24-4.98,1.4-8.62,5.32-8.62,5.32,4.88-1.27,8.04-.4,11.87-.64,2.74-.17,4.55-1.81,5.95-3.67,.2-.27,.08-.67-.25-.77"/><path d="M50.75,28.06c-1.52-.19-5.66-.47-9.71,1.22-3.86,1.61-7.14,5.44-7.14,5.44,3.96-2.19,6.85-1.9,9.75-1.7,3.61,.26,6.6-2.14,7.5-4.27,.13-.31-.07-.65-.41-.7"/><path d="M55.64,19.69c-1.53-.07-5.17-.05-8.45,1.39-4.67,2.05-7.78,6.5-7.78,6.5,5.02-2.19,8.59-1.15,11.52-2.33,1.94-.78,3.96-2.61,5.12-4.82,.17-.33-.04-.73-.41-.74"/><path d="M60.5,11.55c-1.55-.25-5.57-.65-8.66,1.13-3.91,2.25-5.49,5.41-6.49,7.06,4.17-2.33,6.86-1.62,9.82-2.33,2.74-.66,4.55-2.81,5.7-5.15,.15-.3-.05-.66-.38-.71"/></g></g></svg>