<?xml version="1.0" encoding="UTF-8"?><svg id="Laag_1" xmlns="http://www.w3.org/2000/svg" xmlns:xlink="http://www.w3.org/1999/xlink" viewBox="0 0 64 64"><defs><style>.cls-1{fill:none;}.cls-2{clip-path:url(#clippath);}.cls-3{clip-path:url(#clippath-1);}</style><clipPath id="clippath"><rect class="cls-1" width="64" height="64"/></clipPath><clipPath id="clippath-1"><rect class="cls-1" width="64" height="64"/></clipPath></defs><g class="cls-2"><g class="cls-3"><path d="M4.2,14.04h-.59c-.87,0-1.57,.7-1.57,1.57v6.79c-.01,.87,.69,1.57,1.56,1.58h.59c.44,0,.79-.35,.79-.78V14.82c.01-.43-.34-.79-.77-.79m40.71,1.63c0-.87-.7-1.57-1.57-1.58h-.49c-.44,0-.79,.35-.79,.78v4.29c1.02,.38,2.12,.95,2.84,1.35v-4.85ZM8.53,43.97l15.21,.02,.45-.75c.62-1.04,1.76-1.69,2.95-1.69,.37,0,.74,.06,1.09,.18,.55,.19,1.19,.47,1.9,.82l7.6-12.65c-.65-.46-1.19-.89-1.62-1.29-1.17-1.08-1.41-2.88-.57-4.28l.18-.3-25.18-.02c-.46,0-.79-.4-.78-.87,.05-2.92,.52-7.79,1.06-10.46,.08-.4,.38-.71,.78-.71h23.9c.4,.01,.72,.32,.78,.72,.44,2.72,.82,5.98,.97,8.79l.55-.92c.59-.98,1.63-1.61,2.76-1.67-.18-2.02-.44-4.39-.78-6.66-.31-2.01-1.44-5.16-2.55-6.81-.58-.87-1.56-1.38-2.6-1.38-2.41,0-7.08,0-10.96-.02H12.49c-1.04-.02-2.02,.49-2.61,1.36-1.12,1.65-2.18,4.8-2.57,6.8-.79,4.13-1.2,11.8-1.2,11.8v3.15l-.03,16.52s0,3.08,.32,4.45c.12,.5,.64,.86,1.24,.86h4c.55-.05,.84-.15,.93-.53,.19-.83,.34-2.17,.37-3.25,0,0-4.05-.89-4.19-.93-.25-.06-.28-.21-.24-.3m21.72-6.97h-13.54l-.45-2h14.44l-.45,2Zm1.35-6l-.45,2H15.8l-.45-2H31.59Zm-22.64,6.76c0-.43,.35-.79,.79-.78h3.53c.44,0,.79,.36,.79,.79v2.48c0,.43-.36,.79-.79,.78h-3.53c-.43,0-.79-.36-.78-.79v-2.48Zm53.34,2.81c-.25-.93-2.96-3.88-4.64-5.66,.54-.66,1.11-1.44,1.29-1.92,.4-1.09-.51-1.87-1.25-1.97-.35-.05-1.18,.05-2.07,.45-.84-2.03-1.95-3.15-4.4-4.62-3.16-1.9-6.68-4.01-6.68-4.01,0,0-1.95-1.17-3.42-1.68-.53-.18-1.13,.05-1.44,.56l-2.26,3.75c-.3,.51-.23,1.15,.18,1.53,.63,.59,1.52,1.21,2.19,1.65l2.85-3.13c.17-.15,.27-.05,.3-.02l-14.25,23.72s-.18-.05-.12-.27l1.43-3.99c-.7-.38-1.67-.87-2.49-1.15-.53-.18-1.13,.05-1.44,.56l-2.25,3.75c-.3,.51-.23,1.15,.18,1.53,1.14,1.05,3.09,2.23,3.09,2.23,0,0,3.52,2.11,6.68,4.01,2.44,1.47,3.96,1.93,6.14,1.71,.06,.97,.37,1.75,.57,2.04,.43,.61,1.55,1.05,2.33,.18,.34-.38,.76-1.25,1.09-2.04,2.36,.65,6.24,1.65,7.18,1.44,1.26-.28,3.27-2.73,6.8-8.61,3.53-5.88,4.74-8.8,4.41-10.05m-23.99,9.16l-.89,3.23c-.2,.72-1.08,1.03-1.64,.58l-.89-.73c-.71-.66-1.11-1.67-.62-2.64l1.78-3.58c.1-.21,.39-.27,.55-.11l1.18,1.22c.47,.55,.67,1.29,.54,2.03m-1.09-6.79l-1.74-1.05,4.19-6.97,1.74,1.05-4.19,6.97Zm6.85-9.73l2.33-3.26c.63-.88,1.71-1.01,2.62-.69l1.06,.45c.66,.28,.8,1.21,.26,1.72l-2.43,2.31c-.59,.46-1.34,.64-2.04,.48l-1.64-.47c-.22-.06-.3-.34-.16-.53m11.53,16.03c-2.86,4.77-4.66,7.1-5.03,7.33-.78,0-5.14-1.16-6.83-1.76,.55-1.98,2.55-6.04,4.81-9.81,2.27-3.77,4.91-7.44,6.4-8.86,1.32,1.21,4.39,4.52,4.76,5.2-.03,.44-1.25,3.12-4.11,7.89m-1.91-6.56l.49,2.7-3.74,1.77-1.94-.88,1.5,2.49-1.58,2.45-3.03,1.64,3.79-.33,1.08-1.73,1.49,1.63-.44-3.57,4.61-3.23-.92-2.29,2.1-2.17-3.42,1.52ZM26.44,14.13l-1.28,2.3-4.99,.96-1.49-3.05-4.5,.98,3.67,.64,.77,2.96,6.93-.14,2.18,3.88,.28-2.72,2.34,.94,3.99-2.44-4.2,.57-3.35-1.3-.34-3.59Z"/></g></g></svg>