<?xml version="1.0" encoding="UTF-8"?><svg id="Laag_1" xmlns="http://www.w3.org/2000/svg" xmlns:xlink="http://www.w3.org/1999/xlink" viewBox="0 0 64 64"><defs><style>.cls-1{fill:none;}.cls-2{clip-path:url(#clippath);}.cls-3{clip-path:url(#clippath-1);}</style><clipPath id="clippath"><rect class="cls-1" width="64" height="64"/></clipPath><clipPath id="clippath-1"><rect class="cls-1" width="64" height="64"/></clipPath></defs><g class="cls-2"><g class="cls-3"><path d="M19.05,16.87c.58,5.14,1.45,11.22,2.77,17.13h26.36c1.32-5.91,2.19-11.99,2.77-17.13,1.75-.43,3.05-1.99,3.05-3.87,0-2.21-1.79-4-4-4s-4,1.79-4,4c0,1.42,.75,2.67,1.87,3.37-1.92,4.85-4.17,9.18-5.95,8.71-2.49-.66-4.31-7.36-5.45-13.37,1.48-.58,2.54-2.02,2.54-3.72,0-2.21-1.79-4-4-4s-4,1.79-4,4c0,1.69,1.05,3.13,2.54,3.72-1.15,6.01-2.96,12.71-5.45,13.37-1.78,.47-4.03-3.85-5.95-8.71,1.12-.71,1.87-1.95,1.87-3.37,0-2.21-1.79-4-4-4s-4,1.79-4,4c0,1.88,1.3,3.45,3.05,3.87m33.18,27.89c-2.77,.95-6.37,2.41-9.22,3.61,.07,.43,.08,.89,.01,1.38-.42,2.81-2.82,4.58-6.24,4.74-7.73,.36-12.53-1.56-13.53-1.96-.29-.12-.32-.26-.29-.39h.01c5.59,.95,9.12,1.11,13.46,.41,3.3-.53,4.49-2.11,4.46-3.41-.03-1.27-.93-2.04-2.95-2.11-6.89-.24-10.92-1.01-16.82-1.87-4.1-.6-8.06,.47-11.43,2.63-3.16,2.03-4.04,2.99-4.04,2.99l5.79,11.14,7.48-3.04c.85-.35,1.78-.45,2.69-.3l10.26,2.28c2.29,.38,4.64-.06,6.64-1.22l20.48-12.85s-1-4.02-6.76-2.04m-6.18-2.76c.61-1.93,1.17-3.95,1.66-6H22.28c.5,2.05,1.05,4.07,1.66,6h22.1Z"/></g></g></svg>