<?xml version="1.0" encoding="UTF-8"?><svg id="Laag_1" xmlns="http://www.w3.org/2000/svg" xmlns:xlink="http://www.w3.org/1999/xlink" viewBox="0 0 64 64"><defs><style>.cls-1{fill:none;}.cls-2{clip-path:url(#clippath);}.cls-3{clip-path:url(#clippath-1);}</style><clipPath id="clippath"><rect class="cls-1" width="64" height="64"/></clipPath><clipPath id="clippath-1"><rect class="cls-1" width="64" height="64"/></clipPath></defs><g class="cls-2"><g class="cls-3"><path d="M52.04,27c-1,.75-3.49,2.75-6,2.75s-4.92-1.94-6-2.75c-1,.75-3.49,2.75-6,2.75s-4.92-1.94-6-2.75c-1,.75-3.49,2.75-6,2.75-.01,0-.03,0-.04,0v3.91s.03,0,.04,0c2.4,0,4.66-1.08,6-1.86,1.34,.79,3.6,1.86,6,1.86s4.66-1.08,6-1.86c1.34,.79,3.6,1.86,6,1.86s4.66-1.08,6-1.86c1.34,.79,3.6,1.86,6,1.86,1.03,0,2.04-.2,2.96-.49v-4.2c-.9,.42-1.97,.79-2.96,.79-2.46,0-4.92-1.94-6-2.75"/><path d="M52.04,18c-1,.75-3.49,2.75-6,2.75s-4.92-1.94-6-2.75c-1,.75-3.49,2.75-6,2.75s-4.92-1.94-6-2.75c-1,.75-3.49,2.75-6,2.75-.01,0-.03,0-.04,0v3.91s.03,0,.04,0c2.4,0,4.66-1.08,6-1.86,1.34,.79,3.6,1.86,6,1.86s4.66-1.08,6-1.86c1.34,.79,3.6,1.86,6,1.86s4.66-1.08,6-1.86c1.34,.79,3.6,1.86,6,1.86,1.03,0,2.04-.2,2.96-.49v-4.2c-.9,.42-1.97,.79-2.96,.79-2.46,0-4.92-1.94-6-2.75"/><path d="M58.04,11.75c-2.46,0-4.92-1.94-6-2.75-1,.75-3.49,2.75-6,2.75s-4.92-1.94-6-2.75c-1,.75-3.49,2.75-6,2.75s-4.92-1.94-6-2.75c-1,.75-3.49,2.75-6,2.75-.01,0-.03,0-.04,0v3.91s.03,0,.04,0c2.4,0,4.66-1.08,6-1.86,1.34,.79,3.6,1.86,6,1.86s4.66-1.08,6-1.86c1.34,.79,3.6,1.86,6,1.86s4.66-1.08,6-1.86c1.34,.79,3.6,1.86,6,1.86,1.03,0,2.04-.2,2.96-.49v-4.2c-.9,.42-1.97,.79-2.96,.79"/><path d="M20,42.52V8.96c0-3.84-3.12-6.96-6.96-6.96s-7.04,3.15-7.04,7.04V42.52c-2.5,2.07-4,5.18-4,8.47,0,6.07,4.93,11,11,11,5.54,0,10.05-4.04,10.86-9.26,.61-3.93-.88-7.77-3.86-10.22m.35,11.74c-1.08,2.69-3.62,4.3-6.29,4.67-.61,.08-.67-.07-.64-.24,2.92-1.2,4.86-4.02,4.86-7.22,0-2.61-1.3-4.91-3.28-6.33v-6.13h-3v-2h3v-5h-3v-2h3v-5h-3v-2h3v-4.79h-6V9c0-2.21,1.79-4,4-4h.04c2.19,0,3.96,1.77,3.96,3.96V44.08c3.24,1.88,5.05,5.94,3.35,10.18"/></g></g></svg>