<?xml version="1.0" encoding="UTF-8"?><svg id="Laag_1" xmlns="http://www.w3.org/2000/svg" xmlns:xlink="http://www.w3.org/1999/xlink" viewBox="0 0 64 64"><defs><style>.cls-1{fill:none;}.cls-2{clip-path:url(#clippath);}.cls-3{clip-path:url(#clippath-1);}</style><clipPath id="clippath"><rect class="cls-1" width="64" height="64"/></clipPath><clipPath id="clippath-1"><rect class="cls-1" width="64" height="64"/></clipPath></defs><g class="cls-2"><g class="cls-3"><path d="M26.68,7.62c-9.3,2.74-10.7,7.35-7.81,9.85,5.82-5,15.9-4.06,16.91-3.98,.33,.03,.43,.19,.38,.3-5.2,.67-11.33,2.56-13.85,5.5,2.01,.68,4.67,1.17,8.01,1.23,12.45,.24,17.74-6.08,18.53-7.13,.15,0,.18,.27,.11,.56-.33,1.33-1.63,5.44-8.06,7.77-8.38,3.04-22.1,2.66-26.3-3.54-2.59-3.82,.56-8.97,5.63-11.36-8.01,1.37-16.16,9.4-9.67,16.83,7.47,8.55,21.2,6.59,26.64,5.75,.11,.09,.1,.34-.36,.62-2.42,1.52-12.85,4.18-21.71,.33,1.18,1.83,2.92,5.72,3.5,9.32-1.39,.62-1.89,1.59-1.88,2.24,.06,3.39,8.6,4.57,12.08,4.51,.04,.11-.04,.24-.39,.36-.58,.19-4.44,.97-9.39,.06,.4,2.82,1.77,5.62,6.54,8.71,3.32,2.14,8,4.12,12.17,4.93,.96,.19,1.66-.9,1.1-1.71-.77-1.13-1.8-2.68-2.69-4.36-3.54,.63-5.99,.05-6.86-.21-.2-.06-.44-.19-.37-.33,2.42-.02,7.27-.48,7.78-2.81,.14-.64-.46-1.78-2.53-2.28-.4-4.46,3.8-7.43,6.61-9.59-7.01,1.12-13.03-.66-13.89-.89-.32-.09-.4-.26-.34-.35,4.61,.07,10.5,.08,15.24-1.22,9.29-2.27,10.34-5.6,6.96-6.97,1.45-3.1,1.79-5.37,1.79-5.37,0,0,5.66-4.41,5.4-8.76-.45-7.46-17.61-11.48-29.3-8.04"/></g></g></svg>