<?xml version="1.0" encoding="UTF-8"?><svg id="Laag_1" xmlns="http://www.w3.org/2000/svg" xmlns:xlink="http://www.w3.org/1999/xlink" viewBox="0 0 64 64"><defs><style>.cls-1{fill:none;}.cls-2{clip-path:url(#clippath);}.cls-3{clip-path:url(#clippath-1);}</style><clipPath id="clippath"><rect class="cls-1" width="64" height="64"/></clipPath><clipPath id="clippath-1"><rect class="cls-1" width="64" height="64"/></clipPath></defs><g class="cls-2"><g class="cls-3"><path d="M22.44,41.97c-.34-1.17-1.41-1.97-2.62-1.97H2.04c-1.03,0-1.78,.99-1.49,1.98l5.26,18.05c.34,1.17,1.41,1.97,2.63,1.97h29.83c2.52,0,4.72-1.48,4.72-4h-15.88l-4.68-16.03Z"/><path d="M59.91,62s-1.42-15.67-4.11-18.59c-2.04-2.22-7.92-4.21-10.66-5.04-.15-1.04-.34-2.26-.51-3.27,1.67-2.03,2.7-4.12,3.04-6.27,1.24-1.14,1.94-2.96,1.94-5.2,0-.7,0-2.53-1.15-3.78,.22-2.38,.38-5.74-.09-8.07v-.09l10.05-3.89c.32-.12,.31-.59-.02-.69L37.08,1.24c-.29-.1-.61-.1-.9,0L14.85,7.11c-.33,.11-.34,.57-.02,.69l3.17,1.23v4.58c-.45,.4-.74,.98-.74,1.63,0,.56,.22,1.07,.56,1.46-1.05,1.65-2.35,4.44-2.42,5.71-.09,1.51,1.86,2.14,2.81,2.31,.95,.17,3.2,.06,3.41-1.8,.17-1.44-.42-4.65-.69-6.01v-.05c.45-.4,.74-.98,.74-1.63s-.29-1.23-.74-1.63v-3.44l.39,.15h0l8.52,3.3c0,.06-.03,.28-.38,.26l-4.89-.78c-.33,2.17-.24,4.84-.08,6.82-1.08,1.25-1.09,3.02-1.09,3.7,0,2.23,.69,4.05,1.93,5.2,.36,2.35,1.51,4.6,3.47,6.8-.1,.75-.21,1.64-.33,2.56-.38,.11-3.15,.91-5.09,1.48,.43,.5,.77,1.09,.97,1.75l4.26,14.59h3.03c.1-1.71,2.43-3.08,5.31-3.08s5.21,1.37,5.31,3.08h.73c1.1,0,2,.9,2,2,0,1.57-.61,2.95-1.64,4h16.55Zm-19.92-26.48c-.73,.62-2.11,1.04-3.48,1.04-.99,0-1.99-.27-2.74-.6,.57,.87,1.55,1.94,3.35,2.42,2.95,.78,5.11-.85,5.11-.85,0,0,.26,1.79,.26,2.26,.31,3.26-5.62,6.05-5.62,6.05,0,0-6.17-2.73-5.76-5.99,.22-1.79,.04-.51,.77-5.09-2.13-2.06-3.84-4.55-3.84-7.54-1.51-.47-1.91-2.38-1.91-3.58s.3-1.83,.72-2.03c.37-.17,.72-.04,.95,.08,.13,.61,.24,1.07,.27,1.23,.19,.8,.96,.72,.96,.72v-3.86c2.05,.76,4.7,1.22,7.6,1.22s5.36-.43,7.38-1.14v3.78s.76,.07,.95-.72c.04-.16,.14-.62,.27-1.23,.22-.13,.58-.25,.95-.08,.42,.2,.72,.85,.72,2.03s-.4,3.1-1.91,3.58c0,3.46-2.37,6.08-5,8.31"/></g></g></svg>