<?xml version="1.0" encoding="UTF-8"?><svg id="Laag_1" xmlns="http://www.w3.org/2000/svg" xmlns:xlink="http://www.w3.org/1999/xlink" viewBox="0 0 64 64"><defs><style>.cls-1{fill:none;}.cls-2{clip-path:url(#clippath);}.cls-3{clip-path:url(#clippath-1);}</style><clipPath id="clippath"><rect class="cls-1" width="64" height="64"/></clipPath><clipPath id="clippath-1"><rect class="cls-1" width="64" height="64"/></clipPath></defs><g class="cls-2"><g class="cls-3"><path d="M20.04,32.25c1.88,0,4.41-2.18,6-3.38,1.56,1.17,4.12,3.38,6,3.38,1.23,0,2.84-1,3.9-1.8-.05-7.94,.05-22.13,.05-23.24,0-1.34-5.07-2.21-11.46-2.21-10.06,0-11.51,1.19-11.51,2.21,0,5.65,.76,14.37,1.39,21.94,1.52,1.14,3.83,3.1,5.64,3.1"/><path d="M45.77,44.24c-4.24-.42-6.86-1.98-8.31-4.33-1.53,.68-3.41,1.25-5.41,1.25-2.26,0-4.37-.73-6-1.53-1.63,.8-3.74,1.53-6,1.53-1.77,0-3.44-.45-4.87-1.02,.05,1.26,.06,2.28,0,3-.29,3.67-.15,8.53-.06,10.82,.03,.87,.57,1.62,1.36,1.95,2.75,1.15,6.77,1.32,9.07,.83,1.02-.22,1.74-1.11,1.74-2.15v-.47c12.55,4.18,23.02,2.57,26.99,1.64,.99-.23,1.69-1.12,1.7-2.14,.06-5.97,.09-8.36-10.21-9.37"/><path d="M56.04,34.75c-2.46,0-4.92-1.94-6-2.75-1,.75-3.49,2.75-6,2.75s-4.92-1.94-6-2.75c-1,.75-3.49,2.75-6,2.75s-4.92-1.94-6-2.75c-1,.75-3.49,2.75-6,2.75s-4.92-1.94-6-2.75c-1,.75-3.49,2.75-6,2.75-1.02,0-2.12-.39-3.04-.83v4.22c.94,.31,1.98,.52,3.04,.52,2.4,0,4.66-1.08,6-1.86,1.34,.79,3.6,1.86,6,1.86s4.66-1.08,6-1.86c1.34,.79,3.6,1.86,6,1.86s4.66-1.08,6-1.86c1.34,.79,3.6,1.86,6,1.86s4.66-1.08,6-1.86c1.34,.79,3.6,1.86,6,1.86,1.03,0,2.04-.2,2.96-.49v-4.2c-.9,.42-1.97,.79-2.96,.79"/></g></g></svg>