<?xml version="1.0" encoding="UTF-8"?><svg id="Laag_1" xmlns="http://www.w3.org/2000/svg" xmlns:xlink="http://www.w3.org/1999/xlink" viewBox="0 0 64 64"><defs><style>.cls-1{fill:none;}.cls-2{clip-path:url(#clippath);}.cls-3{clip-path:url(#clippath-1);}</style><clipPath id="clippath"><rect class="cls-1" width="64" height="64"/></clipPath><clipPath id="clippath-1"><rect class="cls-1" width="64" height="64"/></clipPath></defs><g class="cls-2"><g class="cls-3"><path d="M53.5,43c-4.14,0-7.5,3.37-7.5,7.5s3.36,7.5,7.5,7.5,7.5-3.36,7.5-7.5-3.36-7.5-7.5-7.5m0,11.1c-1.99,0-3.6-1.61-3.6-3.6s1.62-3.6,3.6-3.6,3.6,1.61,3.6,3.6-1.62,3.6-3.6,3.6"/><path d="M53.09,41.02l-4.45-30.98,2.18-1.31c.66-.4,1.04-1.19,.87-1.99-.21-1.01-1.21-1.66-2.22-1.45-1.01,.21-2.53,.52-4,.85-1.31,.3-2.23,1.47-2.04,2.81,.19,1.34,4.08,28.37,4.08,28.37-3.53,1.61-6.38,4.58-7.71,8.41-.48,1.37-1.65,2.26-2.99,2.26H19.07c-.94-4.12-4.56-7.19-9.33-7.19-3.16,0-5.89,1.23-7.71,3.56-.51,.66-.05,1.62,.79,1.62h6.09c.02,.06,.07,.26-.25,.37l-3.85,.76c-.51,1.01-.81,2.16-.81,3.37,0,4.14,3.36,7.5,7.5,7.5,3.26,0,6.02-2.09,7.06-5h18.25c3.45,0,6.55-2.26,7.71-5.62,.41-1.18,1.09-2.34,2.05-3.36,1.65-1.76,3.95-2.89,6.52-3M11.5,54.1c-1.99,0-3.6-1.61-3.6-3.6s1.61-3.6,3.6-3.6,3.6,1.61,3.6,3.6-1.61,3.6-3.6,3.6"/></g></g></svg>