<?xml version="1.0" encoding="UTF-8"?><svg id="Laag_1" xmlns="http://www.w3.org/2000/svg" xmlns:xlink="http://www.w3.org/1999/xlink" viewBox="0 0 64 64"><defs><style>.cls-1{fill:none;}.cls-2{clip-path:url(#clippath);}.cls-3{clip-path:url(#clippath-1);}</style><clipPath id="clippath"><rect class="cls-1" width="64" height="64"/></clipPath><clipPath id="clippath-1"><rect class="cls-1" width="64" height="64"/></clipPath></defs><g class="cls-2"><g class="cls-3"><path d="M38.76,27.93c-2.59,.95-4.14,.82-6.2,1.98-2.17,1.22-2.83,5.03-2.83,5.03,3.2-1.89,4.45-1,6.82-2.58,1.73-1.15,2.43-3,2.7-3.99,.08-.29-.21-.55-.49-.44m2.08-6.1c-1.33,.04-4.66,.29-6.8,1.88-2.73,2.02-3.36,5.78-3.36,5.78,2.05-2.1,4.79-1.7,7.17-3.1,1.77-1.04,2.89-3.07,3.34-4.03,.12-.25-.07-.54-.35-.53m3.18-11.78c.07-.2-.04-.41-.25-.47-.78-.24-2.71-.68-4.52,.17-3.75,1.75-5.03,6.21-5.03,6.21,2.52-1.51,4.61-1.54,6.86-2.39,1.78-.67,2.66-2.7,2.94-3.52m-8.34,.8c.91-1.58,3.53-2.94,4.3-4.64,.66-1.45-.57-3.72-1.64-5.08-.11-.14-.3-.17-.46-.09-1.5,.77-2.69,1.72-3.17,2.97-.77,1.97,1.29,3.18,.98,6.85m8.77,26.02c-4.65,7.08-13.12,7.03-15.8,16.45-.05-.77-.09-1.54-.12-2.32-.13-3.22-.22-6.62,.17-8.74,1.6,.22,3.29-.04,4.89-.96,2.43-1.4,3.98-5.24,4.48-6.66,.09-.25-.12-.52-.39-.49-4.75,.44-7.75,2.31-9.46,4.21-.3-1.85-1.03-3.04-2.79-5.58-1.28-1.85-2.85-3.44-3.62-4.18-.21-.2-.56-.1-.62,.19-.35,1.67-.54,4.68,.07,6.86,.69,2.45,2.45,4.53,4.65,5.7-.36,1.69-.64,3.21-.79,4.73,.63,2.02,1.06,4.4,.97,6.27-.01,.2-.1,.24-.19,.2-.01-.05-.19-.93-.28-1.3-1.84-7.61-8.4-10.16-9.41-21.22-.1-.45-.75-.46-.85,0-1.12,4.82-1.97,9.23,.39,15,1.89,4.61,6.94,6.63,9.45,10.35,.07,2.83,.09,5.36,.31,7.64h4.02l-.22-2.12c-.86-8.31,5.75-8.12,9.86-12.51,4.12-4.39,5.39-6.48,6.04-11.21,.06-.44-.52-.66-.77-.29m-1.9-21.44c-1.14-.08-3.92-.12-6.34,1.09-3.15,1.57-3.62,6.48-3.62,6.48,2.43-2.09,5.16-1.84,7.15-3.16,1.5-.99,2.64-2.96,3.11-3.87,.12-.24-.03-.52-.3-.54m-12.91,13.7s.7-3.68-.17-6.67c-.91-3.13-3-5.4-3.81-6.19-.18-.17-.47-.13-.59,.09-.82,1.51-.81,4.36,1.02,6.33,1.47,1.58,2.98,3.13,3.55,6.44m-1.06,5.9s.58-3.93-.93-7.47c-1.17-2.74-3.38-4.45-4.31-5.07-.21-.14-.5-.03-.56,.21-.43,1.68-.53,3.49,.64,5.16,1.65,2.33,3.62,3.76,5.15,7.18m2.63-12.41s1.13-3.87,.15-7.53c-.69-2.57-2.37-4.69-3.12-5.54-.18-.21-.51-.14-.62,.11-.74,1.7-.86,3.72-.41,5.21,.68,2.24,2.94,3.83,4.01,7.75m1.78-7.09c.49-1.34,1.58-3.73,1.07-7.04-.41-2.62-2.51-4.76-3.37-5.54-.19-.17-.48-.12-.59,.11-.82,1.75-1.22,3.81-.33,5.7,.97,2.05,2.63,3.28,3.22,6.78"/></g></g></svg>