<?xml version="1.0" encoding="UTF-8"?><svg id="Laag_1" xmlns="http://www.w3.org/2000/svg" viewBox="0 0 64 64"><defs><style>.cls-1{fill:none;}</style></defs><rect class="cls-1" width="64" height="64"/><path d="m14,41V15h36v16.94c1.21,0,2.59.01,4,.06V14c0-1.65-1.35-3-3-3H13c-1.65,0-3,1.35-3,3v28l-7,3v2c0,1.1.9,2,2,2h28.9c0-.34,0-.68,0-1,0-2.06.04-4.63.21-7H14Z"/><path d="m62.44,37.83c-.2-1.17-1.09-2.07-2.26-2.26-3.39-.57-9.04-.57-10.17-.57s-6.78,0-10.17.57c-1.17.2-2.07,1.09-2.26,2.26-.57,3.39-.57,9.04-.57,10.17s0,6.78.57,10.17c.2,1.17,1.09,2.07,2.26,2.26,3.39.57,9.04.57,10.17.57s6.78,0,10.17-.57c1.17-.2,2.07-1.09,2.26-2.26.56-3.39.56-9.04.56-10.17,0-3.39,0-6.78-.56-10.17Zm-13.66,1.23c.28-.32.69-.51,1.22-.51.5,0,.91.16,1.2.46.29.31.44.76.44,1.36,0,.45-.11.84-.33,1.14-.28.39-.73.62-1.31.62-.47,0-.86-.13-1.13-.38-.33-.3-.51-.77-.51-1.38,0-.53.14-.99.42-1.31Zm6.97,4.86c-1.87.29-2.53.3-3.67.43,0,0-.07,3.66-.07,4.29s1.45,8.79,1.45,8.79c0,0-1.69.37-1.99-1.21-.31-1.61-1.21-5.93-1.24-6.06-.03-.15-.14-.19-.22-.19s-.18.04-.22.19c-.03.12-.93,4.44-1.24,6.06-.3,1.59-1.99,1.21-1.99,1.21,0,0,1.45-8.15,1.45-8.79s-.07-4.29-.07-4.29c-1.14-.12-1.8-.14-3.67-.43s-1.63-1.65-1.63-1.65c0,0,4.61.57,6.36.57l2.28.04c1.74,0,6.12-.6,6.12-.6,0,0,.24,1.37-1.63,1.65Z"/></svg>