<?xml version="1.0" encoding="UTF-8"?><svg id="Laag_1" xmlns="http://www.w3.org/2000/svg" xmlns:xlink="http://www.w3.org/1999/xlink" viewBox="0 0 64 64"><defs><style>.cls-1{fill:none;}.cls-2{clip-path:url(#clippath);}.cls-3{clip-path:url(#clippath-1);}</style><clipPath id="clippath"><rect class="cls-1" width="64" height="64"/></clipPath><clipPath id="clippath-1"><rect class="cls-1" width="64" height="64"/></clipPath></defs><g class="cls-2"><g class="cls-3"><path d="M40.5,11.98c3.14,0,4.95-1.94,4.95-5.39s-1.73-5.57-4.95-5.57-4.95,1.94-4.95,5.57c0,3.18,1.82,5.39,4.95,5.39"/><path d="M41,14H23c-11.03,0-10.97,6.92-10.97,21.06,.21,3.05,2.45,3.92,3.8,3.92v-9.17c0-3.45,.34-6.14,.76-7.48,.13-.41,.41-.33,.41-.33V63s4.86,.04,5.24-5.05c0,0,.73-19.24,.74-19.46,0-.21,.17-.49,.53-.49s.51,.28,.52,.49c0,.21,.73,19.32,.73,19.32,.29,5.24,5.25,5.19,5.25,5.19V19.65c0-.28,.24-.41,.5-.5,.23-.08,.58-.15,1.5-.15s1.27,.06,1.5,.15c.26,.09,.5,.22,.5,.5V63s4.96,.05,5.25-5.19c0,0,.72-19.1,.73-19.32,0-.21,.16-.49,.52-.49s.52,.28,.53,.49c0,.21,.74,19.46,.74,19.46,.37,5.09,5.24,5.05,5.24,5.05V22s.28-.08,.41,.33c.42,1.34,.76,4.03,.76,7.48v9.17c1.35,0,3.59-.87,3.8-3.92,0-14.14,.06-21.06-10.97-21.06"/><path d="M23.5,11.98c3.14,0,4.95-2.21,4.95-5.39,0-3.62-1.9-5.57-4.95-5.57-3.22,0-4.95,2.3-4.95,5.57,0,3.45,1.82,5.39,4.95,5.39"/></g></g></svg>