<?xml version="1.0" encoding="UTF-8"?><svg id="Laag_1" xmlns="http://www.w3.org/2000/svg" xmlns:xlink="http://www.w3.org/1999/xlink" viewBox="0 0 64 64"><defs><style>.cls-1{fill:none;}.cls-2{clip-path:url(#clippath);}.cls-3{clip-path:url(#clippath-1);}</style><clipPath id="clippath"><rect class="cls-1" width="64" height="64"/></clipPath><clipPath id="clippath-1"><rect class="cls-1" width="64" height="64"/></clipPath></defs><g class="cls-2"><g class="cls-3"><path d="M61.23,30.21L32.81,3.32c-.46-.43-1.17-.43-1.62,0L2.78,30.21c-.49,.46-.78,1.11-.78,1.79v1.8c0,.67,.54,1.21,1.2,1.21h4.8v25H56v-25h4.8c.66,0,1.2-.54,1.2-1.21v-1.8c0-.68-.28-1.33-.78-1.79m-41.59-1.26c1.1-1.37,5.82-3.64,7.54-4.38,2.11-.91,3.99-.89,4.53,1.32,2.14-.58,3.26-.16,3.6,1.82,1.89-.32,2.75,.27,3.35,1.73l-3.2,4.49c-.13,.2-.02,.3,.02,.32l1.92-1.53c2.27-1.8,6.82-5.37,7.59-5.97,1.02-.79,1.62-.95,2.31-.49,.79,.53,.94,2.55-1.39,6.06-1.99,3-5.91,6.54-5.91,6.54v3.05c-3.02,1.13-6.31,1.48-9.75,1-4.5-.62-8.12-2.04-10.69-4.16-.88-2.97-.97-8.51,.07-9.8m17.36,23.28v2.77h-13v-3.27s-.92-1.87-1.73-4.34c2.17,.82,4.56,1.42,7.17,1.78,3.44,.48,6.6,.31,9.53-.36-.8,2.04-1.97,3.41-1.97,3.41m15.01-9.22c-.07,.35-.37,.59-.71,.58-.35,0-.63-.27-.68-.62l-.3-2.41c-5.75,5.61-12.86,7.96-20.66,6.89-10.49-1.45-17.3-6.94-18.68-15.08l2.83-.5c1.17,6.89,6.94,11.4,16.24,12.68,6.96,.96,13.28-1.18,18.38-6.19l-2.28-.64c-.33-.09-.55-.42-.51-.77,.04-.35,.33-.61,.67-.63l6.61-.75c.45-.02,.8,.39,.72,.84l-1.63,6.6Z"/></g></g></svg>