<?xml version="1.0" encoding="UTF-8"?><svg id="Laag_1" xmlns="http://www.w3.org/2000/svg" xmlns:xlink="http://www.w3.org/1999/xlink" viewBox="0 0 64 64"><defs><style>.cls-1{fill:none;}.cls-2{clip-path:url(#clippath);}.cls-3{clip-path:url(#clippath-1);}</style><clipPath id="clippath"><rect class="cls-1" width="64" height="64"/></clipPath><clipPath id="clippath-1"><rect class="cls-1" width="64" height="64"/></clipPath></defs><g class="cls-2"><g class="cls-3"><path d="M21.33,30.61s3.22,0,5.2-.24c1.52,1.15,6.58,3.45,9.49,2.19,0,0-1.82-1.68-1.84-3.65,7.17-1.77,9.31-5.72,9.31-5.72,4.16,5.49,11.01,4.66,11.01,4.66-2.62-2.27-4.07-4.7-4.83-6.38,.35-1.75,1.19-4.31,3.23-6.85,0,0-6.95-.02-9.73,5.87,0,0-2.08-3.2-8.38-4.72-.23-2.46,.72-4.04,.72-4.04-3.21-.52-7.81,2.27-9.11,3.27-17.76,.17-20.95,11.23-20.95,11.23,7.15,5.41,13.97,4.56,13.97,4.56,.44-4.67-2.24-12.69-2.24-12.69,1.07-1.12,3.9,6.95,4.16,12.51m-8.38-6.55c-.76,0-1.38-.62-1.38-1.38s.61-1.38,1.38-1.38,1.38,.62,1.38,1.38-.62,1.38-1.38,1.38"/><path d="M55.44,44.72c.24-1.19,.81-2.93,2.19-4.66,0,0-4.73-.02-6.62,3.99,0,0-1.41-2.18-5.7-3.21-.15-1.67,.49-2.75,.49-2.75-2.18-.35-5.31,1.55-6.19,2.23-12.08,.12-14.25,7.64-14.25,7.64,4.86,3.68,9.5,3.1,9.5,3.1,.3-3.17-1.52-8.63-1.52-8.63,.73-.76,2.65,4.73,2.83,8.51,0,0,2.19,0,3.53-.16,1.03,.79,4.47,2.35,6.46,1.49,0,0-1.24-1.14-1.25-2.48,4.88-1.2,6.33-3.89,6.33-3.89,2.83,3.73,7.49,3.17,7.49,3.17-1.78-1.54-2.77-3.2-3.29-4.34m-24.97,1.76c-.52,0-.94-.42-.94-.94s.42-.94,.94-.94,.94,.42,.94,.94-.42,.94-.94,.94"/></g></g></svg>