<?xml version="1.0" encoding="UTF-8"?><svg id="Laag_1" xmlns="http://www.w3.org/2000/svg" xmlns:xlink="http://www.w3.org/1999/xlink" viewBox="0 0 64 64"><defs><style>.cls-1{fill:none;}.cls-2{clip-path:url(#clippath);}.cls-3{clip-path:url(#clippath-1);}</style><clipPath id="clippath"><rect class="cls-1" width="64" height="64"/></clipPath><clipPath id="clippath-1"><rect class="cls-1" width="64" height="64"/></clipPath></defs><g class="cls-2"><g class="cls-3"><path d="M45.44,21.91c.09,.81,.94,1.32,1.74,1.17,2.65-.52,8.18-2.26,10.28-7.98,.11-.3-.09-.63-.41-.67-1.35-.17-4.72-.4-7.5,.92-.19,2.38-.83,4.63-.98,5.03-.11,.31-.28,.29-.34,.28,0,0-.22-4.68-.99-8.69-.24-1.25-1.07-1.58-2.24-1.37-1.13,.2-2.21,.89-1.85,1.96,1.28,3.74,1.84,5.35,2.29,9.34"/><path d="M56.15,25.56c-4.65-3.22-6.54,.24-9.88-.66-3.34-.9-3.53-4.6-8.88-4.39-2.83,.12-5.43,2.83-6.99,6.69,1.53,6.22,5.37,11.67,7.87,18.69,.81-.2,1.57-.37,2.39-.15,2.05,.55,2.61,3.03,5.7,3.53,2.77,.45,5.38,.22,9.4-6.15,4.22-6.67,4.25-14.89,.39-17.56"/><path d="M36.62,54.36c.77-1.47,1-3.29,.55-5.19-1.29-5.47-6.07-13.63-7.61-17.87-3.29-9.09-2.06-16.97,.08-26.34,.07-.3-.15-.6-.47-.61l-5.94-.24c-.2,0-.38,.1-.47,.28-.53,1.08-1.44,3.08-2.3,7.98-1.11-4.17-1.75-8.46-1.94-9.84-.04-.26-.27-.44-.53-.42l-6.95,.56c-.26,.02-.47,.24-.47,.5,.02,1.72,.26,3.73,.56,5.6,3.26,2.66,9.36,6.78,13.09,16.81,.12,.31-.08,.4-.14,.42-3.89-6.27-9.77-12.04-16.74-15.96-.19-.11-.43-.08-.59,.07l-4.36,3.95c-.23,.21-.21,.58,.04,.77,7.66,5.84,13.64,11.09,16.94,20.18,1.54,4.25,3.09,13.57,5.61,18.6,.85,1.71,2.2,2.97,3.76,3.61-.98,1.74-.53,4,.7,4.25,.88,.18,2.27-.93,2.34-3.09,.53,1.23,1.58,1.96,2.43,1.65,.85-.31,1.19-1.55,.81-2.82,1.44,1.62,3.22,1.58,3.78,.87,.68-.85-.1-2.9-2.17-3.7m-4.42,.15c-1.73,.63-3.6-.34-4.55-2.26-1.66-3.32-2.95-9.07-4.09-13.54l6.08,.03c1.7,3.53,3.87,7.95,4.62,11.11,.41,1.73-.06,3.93-2.05,4.65"/></g></g></svg>