<?xml version="1.0" encoding="UTF-8"?><svg id="Laag_1" xmlns="http://www.w3.org/2000/svg" xmlns:xlink="http://www.w3.org/1999/xlink" viewBox="0 0 64 64"><defs><style>.cls-1{fill:none;}.cls-2{clip-path:url(#clippath);}.cls-3{clip-path:url(#clippath-1);}</style><clipPath id="clippath"><rect class="cls-1" width="64" height="64"/></clipPath><clipPath id="clippath-1"><rect class="cls-1" width="64" height="64"/></clipPath></defs><g class="cls-2"><g class="cls-3"><path d="M32.5,52.5c0-1.68-1.04-3.11-2.5-3.7v-3.37c1.69-.16,3.31-.58,4.81-1.23l8.85-12.4c-.36-.43-.77-.92-1.12-1.35-.86-1.07-1.03-2.5-.44-3.73,.38-.79,1-1.39,1.74-1.73-.62-2.11-1.65-4.04-3.01-5.68l2.47-2.47c1,.26,2.11,.02,2.89-.77,1.17-1.17,1.17-3.07,0-4.24-1.17-1.17-3.07-1.17-4.24,0-.78,.78-1.03,1.89-.77,2.89l-2.47,2.47c-2.41-2-5.41-3.29-8.7-3.6v-3.37c1.46-.59,2.5-2.02,2.5-3.7,0-2.21-1.79-4-4-4s-4,1.79-4,4c0,1.68,1.03,3.11,2.5,3.7v3.37c-3.29,.31-6.3,1.6-8.7,3.6l-2.47-2.47c.27-1,.02-2.1-.77-2.89-1.17-1.17-3.07-1.17-4.24,0-1.17,1.17-1.17,3.07,0,4.24,.78,.78,1.89,1.03,2.89,.77l2.47,2.47c-2,2.41-3.29,5.41-3.6,8.7h-3.37c-.6-1.47-2.03-2.5-3.7-2.5-2.21,0-4,1.79-4,4s1.79,4,4,4c1.68,0,3.11-1.03,3.7-2.5h3.37c.31,3.29,1.6,6.3,3.6,8.7l-2.47,2.47c-1-.26-2.1-.02-2.89,.77-1.17,1.17-1.17,3.07,0,4.24,1.17,1.17,3.07,1.17,4.24,0,.78-.78,1.03-1.89,.77-2.89l2.47-2.47c2.41,2,5.41,3.3,8.7,3.6v3.37c-1.47,.59-2.5,2.03-2.5,3.7,0,2.21,1.79,4,4,4s4-1.79,4-4"/><path d="M62.29,26.75c-1.17-.83-6.4-4.57-7.57-5.4-1.24-.88-2.56,.77-1.67,1.89,1.04,1.31,1.58,1.91,1.58,1.91l-3.04,4.26s.83,1.13,2.26,3.12c.14,.19,.03,.29,0,.32,0,0-6.71-4.79-8.14-5.81-.96-.68-2.4,.86-1.46,2.01,.92,1.13,2.2,2.62,2.2,2.62l-10.06,14.09c-.33,.46-.52,1.01-.53,1.58l-.16,6.84-5.97,8.68,2.43-.41,5.25-7.05,6.44-2.36c.53-.2,.99-.56,1.32-1.02l10.06-14.09s1.82,.73,3.19,1.22c1.4,.51,2.39-1.35,1.43-2.04-1.43-1.02-3.19-2.28-5.03-3.59l3.91-5.48s.74,.32,2.32,.88c1.35,.48,2.48-1.31,1.25-2.19m-11.64,12.63l-2.34-1.67-.67,2.17,1.75,1.25-1.25,1.75-2.34-1.67-.67,2.17,1.75,1.25-1.25,1.75-2.34-1.67-.67,2.17,1.75,1.25-1.25,1.75-4.09-2.92,9.59-13.44,4.09,2.92-2.08,2.92Z"/></g></g></svg>