<?xml version="1.0" encoding="UTF-8"?><svg id="Laag_1" xmlns="http://www.w3.org/2000/svg" xmlns:xlink="http://www.w3.org/1999/xlink" viewBox="0 0 64 64"><defs><style>.cls-1{fill:none;}.cls-2{clip-path:url(#clippath);}.cls-3{clip-path:url(#clippath-1);}</style><clipPath id="clippath"><rect class="cls-1" width="64" height="64"/></clipPath><clipPath id="clippath-1"><rect class="cls-1" width="64" height="64"/></clipPath></defs><g class="cls-2"><g class="cls-3"><path d="M56.58,37l1.78-18.17c.94-.43,1.64-1.32,1.74-2.42l.78-7.96c.13-1.31-.61-2.49-1.73-3.01,.08-1.78-.28-2.22-.76-2.26-.48-.05-.92,.31-1.19,2.07-1.21,.29-2.16,1.31-2.29,2.61l-.78,7.96c-.11,1.1,.4,2.11,1.24,2.72l-1.81,18.46h-4.15l.59-12.36c.92-.48,1.57-1.4,1.62-2.51l.38-7.99c.06-1.31-.73-2.45-1.88-2.92,0-1.79-.39-2.2-.88-2.22-.48-.02-.91,.35-1.08,2.13-1.19,.35-2.09,1.41-2.15,2.72l-.38,7.99c-.05,1.11,.51,2.09,1.38,2.65l-.59,12.5h-4.29l-2.28-17.73c.82-.63,1.3-1.66,1.16-2.75l-1.02-7.94c-.17-1.3-1.15-2.29-2.36-2.54-.32-1.76-.77-2.1-1.25-2.03-.48,.06-.83,.5-.69,2.28-1.11,.55-1.81,1.76-1.64,3.06l1.02,7.94c.14,1.1,.87,1.97,1.82,2.37l2.23,17.34h-1.69c-.83,0-1.61,.42-2.06,1.12-2.36,3.63-11.44,14.88-33.34,14.88v9H62v-25h-5.42Z"/><path d="M14.48,44c2.75,0,5.41-1.18,6.86-1.94,1.16,.61,3.12,1.49,5.27,1.81,2.25-1.6,3.91-3.22,5.09-4.58-1.03,.41-2.28,.78-3.5,.78-2.77,0-5.73-1.91-5.76-1.92l-1.1-.72-1.1,.72s-3.01,1.92-5.76,1.92-5.73-1.91-5.76-1.92l-1.09-.71-1.1,.71s-2.18,1.4-4.53,1.81v3.97c2.29-.27,4.4-1.21,5.62-1.86,1.44,.76,4.11,1.94,6.86,1.94"/></g></g></svg>