<?xml version="1.0" encoding="UTF-8"?><svg id="Laag_1" xmlns="http://www.w3.org/2000/svg" xmlns:xlink="http://www.w3.org/1999/xlink" viewBox="0 0 64 64"><defs><style>.cls-1{fill:none;}.cls-2{clip-path:url(#clippath);}.cls-3{clip-path:url(#clippath-1);}</style><clipPath id="clippath"><rect class="cls-1" width="64" height="64"/></clipPath><clipPath id="clippath-1"><rect class="cls-1" width="64" height="64"/></clipPath></defs><g class="cls-2"><g class="cls-3"><path d="M12,61h6l1.02-5.11c-1.9-.37-3.57-.89-5.03-1.53l-1.99,6.65Z"/><path d="M45.38,31.91l.61-15.78c.04-1.1-.19-2.19-.68-3.16-1.47-2.9-4.75-9.16-5.99-9.87-1.58-.89-8.19-1.11-13.33-1.11s-11.75,.22-13.33,1.11c-1.25,.7-4.52,6.97-5.99,9.87-.49,.97-.72,2.05-.68,3.16l.9,23c.51,13.07,11.69,14.88,19.1,14.88,.64,0,1.31-.01,2-.05v-11.29c0-6.08,7.31-10.77,17-10.77,.13,0,.25,0,.38,.01M26,6.85c1.74,0,3.15,1.41,3.15,3.15s-1.41,3.15-3.15,3.15-3.15-1.41-3.15-3.15,1.41-3.15,3.15-3.15m-9,36.3c-1.74,0-3.15-1.41-3.15-3.15s1.41-3.15,3.15-3.15,3.15,1.41,3.15,3.15-1.41,3.15-3.15,3.15m23.6-25.86l-3.39,11c-.13,.42-.52,.71-.95,.71H15.74c-.44,0-.83-.29-.95-.71l-3.38-11c-.2-.64,.28-1.29,.95-1.29h27.29c.67,0,1.15,.65,.96,1.29"/><path d="M45,54c7.85,0,14-3.38,14-7.68v-3.65c0-4.3-6.15-7.67-14-7.67s-14,3.37-14,7.67v3.65c0,.95,.31,1.85,.86,2.68-.55,.83-.86,1.72-.86,2.66v3.65c0,4.3,6.15,7.68,14,7.68s14-3.38,14-7.68v-3.65c0-.2-.03-.41-.05-.61-.72,.9-4.57,5.14-13.61,5.14-8.02,0-10.78-3.86-11.07-4.38-.12-.21-.2-.44-.08-.57,2.55,1.69,6.41,2.75,10.81,2.75m-11.3-11c0-2.84,5.06-5.15,11.3-5.15s11.3,2.31,11.3,5.15-5.06,5.15-11.3,5.15-11.3-2.31-11.3-5.15"/><path d="M42.85,44.73v.68h1.55v-.56c.31,.02,.67,.02,1.02,.02h.38v.54h1.52v-.62c2.78-.3,4.11-1.26,4.11-2.67,0-.55-.06-.78-.31-1.34h-2.06c.21,.52,.29,.78,.29,1.25,0,.62-.59,1.12-2.03,1.33v-1.76h-1.52v1.89c-.19,0-.38,.02-.61,.02-.27,0-.52-.01-.79-.02v-1.89h-1.55v1.75c-1.4-.21-2.13-.66-2.13-1.37,0-.41,.08-.65,.25-1.15h-2.17c-.17,.43-.23,.73-.23,1.12,0,1.42,1.44,2.42,4.28,2.78"/></g></g></svg>