<?xml version="1.0" encoding="UTF-8"?><svg id="Laag_1" xmlns="http://www.w3.org/2000/svg" xmlns:xlink="http://www.w3.org/1999/xlink" viewBox="0 0 64 64"><defs><style>.cls-1{fill:none;}.cls-2{clip-path:url(#clippath);}.cls-3{clip-path:url(#clippath-1);}</style><clipPath id="clippath"><rect class="cls-1" width="64" height="64"/></clipPath><clipPath id="clippath-1"><rect class="cls-1" width="64" height="64"/></clipPath></defs><g class="cls-2"><polygon points="8.7 46.89 8.7 54.36 15.23 54.36 15.23 49.28 28.68 49.28 28.68 54.36 35.21 54.36 35.21 49.28 48.77 49.28 48.77 54.36 55.3 54.36 55.3 46.89 8.7 46.89"/><g class="cls-3"><path d="M15.93,22.77h17.05V9.64H15.93v13.14Zm11.26-7.04h-5.47c-.5,0-.91-.41-.91-.91s.41-.91,.91-.91h5.47c.5,0,.91,.41,.91,.91s-.4,.91-.91,.91"/><path d="M13.99,40.35h19V24.07H13.99v16.28Zm12.59-9.81h-6.17c-.57,0-1.02-.46-1.02-1.02s.46-1.02,1.02-1.02h6.17c.56,0,1.02,.46,1.02,1.02s-.46,1.02-1.02,1.02"/><path d="M34.76,40.35h15.2v-12.24h-15.2v12.24Zm9.98-7.35h-4.75c-.44,0-.79-.35-.79-.79s.35-.79,.79-.79h4.75c.43,0,.79,.35,.79,.79s-.35,.79-.79,.79"/><path d="M34.76,26.73h14.28V15.74h-14.28v11Zm9.41-6.31h-4.43c-.41,0-.74-.33-.74-.73s.33-.74,.74-.74h4.43c.41,0,.73,.33,.73,.74s-.33,.73-.73,.73"/><polygon points="8.85 45.63 55.15 45.63 50.81 41.63 13.19 41.63 8.85 45.63"/></g></g></svg>