<?xml version="1.0" encoding="UTF-8"?><svg id="Laag_1" xmlns="http://www.w3.org/2000/svg" xmlns:xlink="http://www.w3.org/1999/xlink" viewBox="0 0 64 64"><defs><style>.cls-1{fill:none;}.cls-2{clip-path:url(#clippath);}.cls-3{clip-path:url(#clippath-1);}</style><clipPath id="clippath"><rect class="cls-1" width="64" height="64"/></clipPath><clipPath id="clippath-1"><rect class="cls-1" width="64" height="64"/></clipPath></defs><g class="cls-2"><g class="cls-3"><path d="M21.61,38.81l-14,14c-1.78,1.78-.97,3.66,.55,5.18,1.52,1.52,3.4,2.34,5.18,.56l14.03-14.03c-1.62-1.58-3.35-3.28-5.21-5.14-.19-.19-.37-.38-.56-.56"/><path d="M59.91,20.77c-1.61,2.24-3.84,4.72-6.32,5.6-.01,0-.02,.01-.03,.02l-2.37-2.37c1.6-1.44,3.97-4.12,5.05-8.03,.33-1.2-1.29-1.92-2.02-.91-1.61,2.24-3.84,4.72-6.32,5.6-.01,0-.03,.01-.04,.02l-2.49-2.49c1.6-1.44,3.97-4.12,5.05-8.03,.33-1.2-1.29-1.92-2.02-.91-1.61,2.24-3.84,4.72-6.32,5.6-.02,0-.03,.01-.05,.02l-2.54-2.54c1.6-1.44,3.98-4.12,5.06-8.04,.33-1.2-1.29-1.92-2.02-.91-1.61,2.24-3.84,4.72-6.32,5.6-.62,.22-1.74,.65-2.2,1.11-.89,.89-.89,2.34,0,3.23l6.54,6.53-9.13,9.13c.19,.18,.37,.37,.56,.56,1.83,1.83,3.54,3.56,5.14,5.21l7.75-7.75-2.92-5.26c-.14-.27,0-.38,.06-.42l9.76,9.74c.66,.66,1.7,.9,2.65,.41,2.31-1,6.17-5,7.49-9.79,.33-1.2-1.29-1.92-2.02-.91"/><path d="M23.79,25.81l-4.81,2.23c-.35,.13-.41-.03-.43-.08l3.42-3.42c0-2.68-1.08-6.23-3.47-8.88-4-4.43-9.71-1.7-12.43-8.58-.18-.46-.83-.43-.95,.05-.9,3.45-2.49,11.85,1.55,16.95,3.36,4.24,7.59,5.13,10.36,4.85,.97,1.87,3.08,4.53,7.07,8.52,20.07,20.07,26.43,23.74,28.09,22.08s-1.95-7.96-22.08-28.09c-2.62-2.62-4.67-4.43-6.3-5.64"/></g></g></svg>