<?xml version="1.0" encoding="UTF-8"?><svg id="Laag_1" xmlns="http://www.w3.org/2000/svg" xmlns:xlink="http://www.w3.org/1999/xlink" viewBox="0 0 64 64"><defs><style>.cls-1{fill:none;}.cls-2{clip-path:url(#clippath);}.cls-3{clip-path:url(#clippath-1);}</style><clipPath id="clippath"><rect class="cls-1" width="64" height="64"/></clipPath><clipPath id="clippath-1"><rect class="cls-1" width="64" height="64"/></clipPath></defs><g class="cls-2"><g class="cls-3"><path d="M59,2h-27c-.55,0-1,.45-1,1v3.5c0,.32,.05,.63,.15,.94,.47,1.41,1.96,6.28,3.38,15.15,.21,1.34,.4,2.65,.55,3.91,2.42,2.95,4.12,7.04,4.12,12.6,0,5.85-.91,10.54-2.09,14.21,.52,.42,1.17,.69,1.89,.69h13c1.66,0,3-1.34,3-3v-7.41c-1.1-.21-5.89-1.14-6.17-1.23-.32-.1-.27-.31-.25-.36h6.42s-.24-8.71,1.47-19.41c1.41-8.87,2.91-13.75,3.38-15.15,.1-.3,.15-.62,.15-.94V3c0-.55-.45-1-1-1"/><path d="M29.55,24.59c-1.51-.29-5.91-1.14-6.17-1.22-.32-.1-.27-.31-.25-.36h4.87V14.46c0-3.59-2.91-4.46-6.5-4.46s-6.5,.87-6.5,4.46v8.83c-4.36,1.79-10,5.99-10,15.8,0,12.97,4.6,19.97,6.34,22.15,.38,.48,.95,.75,1.57,.75H29.09c.61,0,1.18-.28,1.57-.75,1.74-2.18,6.34-9.17,6.34-22.15,0-7.96-3.71-12.23-7.45-14.51m-1.98,14.99c.4,.86,.63,1.81,.63,2.82,0,3.7-3,6.7-6.7,6.7s-6.7-3-6.7-6.7c0-1.01,.23-1.96,.63-2.82-1.7-.01-3.08-1.4-3.08-3.1s1.39-3.11,3.11-3.11,3.05,1.34,3.1,3.02c.89-.44,1.89-.69,2.95-.69s2.06,.25,2.95,.69c.05-1.67,1.41-3.02,3.1-3.02s3.11,1.39,3.11,3.11-1.38,3.09-3.08,3.1"/><path d="M21.5,43.62c-.86,0-1.55,.7-1.55,1.55s.69,1.55,1.55,1.55,1.55-.69,1.55-1.55-.69-1.55-1.55-1.55"/><path d="M18.96,39.38c-.7,0-1.27,.57-1.27,1.27s.57,1.27,1.27,1.27,1.27-.57,1.27-1.27-.57-1.27-1.27-1.27"/><path d="M24.04,39.38c-.7,0-1.27,.57-1.27,1.27s.57,1.27,1.27,1.27,1.27-.57,1.27-1.27-.57-1.27-1.27-1.27"/></g></g></svg>