<?xml version="1.0" encoding="UTF-8"?><svg id="Laag_1" xmlns="http://www.w3.org/2000/svg" xmlns:xlink="http://www.w3.org/1999/xlink" viewBox="0 0 64 64"><defs><style>.cls-1{fill:none;}.cls-2{clip-path:url(#clippath);}.cls-3{clip-path:url(#clippath-1);}</style><clipPath id="clippath"><rect class="cls-1" width="64" height="64"/></clipPath><clipPath id="clippath-1"><rect class="cls-1" width="64" height="64"/></clipPath></defs><g class="cls-2"><g class="cls-3"><path d="M7.39,44.01c-2.87,3.12-4.39,14.89-4.39,14.89H11.98c.54-3,1.75-11.02,.73-18.09-2.17,.93-4.24,2.03-5.32,3.2"/><path d="M39.93,28.46c1.33-1.22,2.07-3.17,2.07-5.56,0-.61-.01-2.03-.69-3.26,.62-.16,1.26-.31,1.9-.46,.45-.1,.78-.51,.78-.98v-1.87c0-.43-.28-.79-.68-.94-.7-.26-1.74-.89-2.01-2.39-.41-2.26-.88-9.31-8.49-11.41-.81,4.18-.63,3.28-1.46,7.54-.1,.32-.31,.27-.36,.25V1.3s-.01-.06-.02-.09c-.05-.52-.46-1-.98-1.07-1.33-.17-2.68-.17-4.01,0-.52,.07-.93,.55-.98,1.07,0,.03-.02,.06-.02,.09V9.38c-.06,.02-.26,.07-.36-.25-1.22-6.34-.68-3.51-1.46-7.54-7.62,2.09-8.09,9.15-8.49,11.41-.27,1.5-1.3,2.13-2.01,2.39-.4,.15-.68,.51-.68,.94v1.87c0,.47,.33,.88,.78,.98,.65,.15,1.28,.3,1.91,.46-.68,1.23-.69,2.65-.69,3.26,0,2.39,.74,4.33,2.06,5.55,.38,2.51,1.61,4.91,3.71,7.26-.11,.81-.23,1.75-.35,2.73-.54,.16-1.31,.39-2.19,.68,.36,2.75,1.89,10.99,7.71,19.77h7.06v-13.28c-1.29,1.5-2.84,2.79-4,3.62-2.3-1.75-6.21-5.53-5.78-9.02,.24-1.91,.04-.55,.82-5.44-2.28-2.2-4.1-4.87-4.1-8.06-1.62-.5-2.04-2.55-2.04-3.82s.32-1.96,.77-2.17c.39-.18,.77-.05,1.01,.09,.14,.65,.25,1.14,.29,1.31,.21,.85,1.02,.77,1.02,.77v-1.92c2.95,.68,5.48,1.02,8,1.02s5.04-.34,8-1.02v1.92s.82,.08,1.02-.77c.04-.17,.15-.66,.29-1.31,.24-.14,.62-.27,1.01-.09,.45,.21,.77,.9,.77,2.17s-.42,3.32-2.04,3.82c0,3.7-2.53,6.5-5.34,8.88-1.06,.9-3.82,1.7-6.65,.47,.61,.93,1.66,2.07,3.58,2.59,3.16,.83,5.46-.91,5.46-.91h0c1.27-.96,5.09-4.71,5.81-9.29"/><path d="M49,55c7.85,0,14-3.38,14-7.68v-3.65c0-4.3-6.15-7.67-14-7.67s-14,3.37-14,7.67v3.65c0,.95,.31,1.85,.86,2.68-.55,.83-.86,1.72-.86,2.66v3.65c0,4.3,6.15,7.68,14,7.68s14-3.38,14-7.68v-3.65c0-.2-.03-.41-.05-.61-.72,.9-4.57,5.14-13.61,5.14-8.02,0-10.78-3.86-11.07-4.38-.12-.21-.2-.44-.08-.57,2.55,1.69,6.41,2.75,10.81,2.75m-11.3-11c0-2.84,5.06-5.15,11.3-5.15s11.3,2.31,11.3,5.15-5.06,5.15-11.3,5.15-11.3-2.31-11.3-5.15"/><path d="M46.85,45.73v.68h1.55v-.56c.31,.02,.67,.02,1.02,.02h.38v.54h1.52v-.62c2.78-.3,4.11-1.26,4.11-2.67,0-.55-.06-.78-.31-1.34h-2.06c.21,.52,.29,.78,.29,1.25,0,.62-.59,1.12-2.03,1.33v-1.76h-1.52v1.89c-.19,0-.38,.02-.61,.02-.27,0-.52-.01-.79-.02v-1.89h-1.55v1.75c-1.4-.21-2.13-.66-2.13-1.37,0-.41,.08-.65,.25-1.15h-2.17c-.17,.43-.23,.73-.23,1.12,0,1.42,1.44,2.42,4.28,2.78"/></g></g></svg>