<?xml version="1.0" encoding="UTF-8"?><svg id="Laag_1" xmlns="http://www.w3.org/2000/svg" viewBox="0 0 64 64"><defs><style>.cls-1{fill:none;}</style></defs><rect class="cls-1" width="64" height="64"/><g><path d="m49.7,50.93c-1.22,3.63-4.65,6.25-8.7,6.25-5.07,0-9.18-4.11-9.18-9.18,0-1.74.49-3.37,1.34-4.75-.6-.85-1.02-1.84-1.19-2.98-.07-.45-.13-.94-.18-1.45-2.34,2.35-3.79,5.59-3.79,9.18,0,7.18,5.82,13,13,13,4.32,0,8.15-2.12,10.51-5.37-.01-.03-.02-.05-.03-.07-.55-1.36-1.16-2.96-1.78-4.63Z"/><path d="m55.63,43.56c-1.57-5.41-2.09-5.4-5.15-6.1-2.82-.65-6.66-.85-6.66-.85v-9.29c0-4.88-4.63-5.59-7.03-4.57-1.06.45-1.9,1.42-2.3,3.55-.73,3.83-.56,10.09-.05,13.6.54,3.7,4.25,3.85,5.26,3.85h10.02c1.35,3.71,2.86,7.85,4.07,10.87,1.56,3.89,4.5,3.46,5.35,3.24-1.05-4.58-2.19-9.61-3.52-14.31Z"/><path d="m40.47,20.76c2.74.02,4.35-1.89,4.37-4.66.02-3.15-1.63-4.85-4.3-4.87-2.82-.02-4.35,1.97-4.37,4.81-.02,3,1.56,4.7,4.3,4.72Z"/><path d="m22.85,25.61c.73,1.12,3.28,4,4.06,4.81,2.71,2.83,4.67.7,4.69.69-2.28-2.88-4.84-6.34-5.56-7.5-.94-1.44-3.64-7.36-4.75-8.76-1.12-1.42-3.46-3.46-6.75-2.8-2.72.54-3.65,2.6-4.06,5.06-.37,2.22-.11,4.85-.19,7-.06,1.07-.19,2.31-.56,4.81-.67,4.47-.26,4.94.6,7.17.64,4.44.11,9.53.08,10.25-.15,2.5-.55,5.97-.79,9.34-.28,3.92,2.65,4.83,3.34,4.99.73-3.27,2.26-10.42,2.73-13.71-.7-1.91-2.27-5.5-2.96-7.54-.07-.19-.16-.7.11-.79.49.76,3.6,5.73,3.76,6.62.5,2.16,1.17,7.75,1.88,11.56.82,4.4,4.84,4.19,5.02,4.18-.17-4.08-.28-11.16-.57-15.26-.16-2.09-.25-2.31-.53-3.45-.73-2.69-2.01-6.44-3.2-8.95.47-6.66.2-9.05.47-12.66.75,1.46,2.26,3.6,3.19,4.94Z"/><path d="m16.63,10.52c2.77.02,4.39-1.91,4.41-4.7.02-3.18-1.64-4.9-4.34-4.92-2.84-.02-4.39,1.99-4.41,4.86-.02,3.03,1.57,4.75,4.34,4.77Z"/></g></svg>