<?xml version="1.0" encoding="UTF-8"?><svg id="Laag_1" xmlns="http://www.w3.org/2000/svg" xmlns:xlink="http://www.w3.org/1999/xlink" viewBox="0 0 64 64"><defs><style>.cls-1{fill:none;}.cls-2{clip-path:url(#clippath);}.cls-3{clip-path:url(#clippath-1);}</style><clipPath id="clippath"><rect class="cls-1" width="64" height="64"/></clipPath><clipPath id="clippath-1"><rect class="cls-1" width="64" height="64"/></clipPath></defs><g class="cls-2"><g class="cls-3"><path d="M38,12.85c3.14,0,4.95-2.18,4.95-5.31,0-3.57-1.9-5.49-4.95-5.49-3.22,0-4.95,2.26-4.95,5.49,0,3.4,1.81,5.31,4.95,5.31"/><path d="M44,36.09v-14.09s.25-.09,.45,.33c1.74,3.67,2.85,16.21,2.85,16.21,1.35,0,3.06-.4,3.3-3.48,0-8.71-1.2-18.84-7.58-20.36-4.71-1.12-10.09-.97-13.23,2.14-.7,.7-3.79,4.43-4.76,4.65-2.38,.53-7.44,.02-10.81-.35-.07,2.11,1.49,3.57,3.42,4,1.73,.39,3.76,.68,5.54,.81,2.83,.19,3.69-.08,5.2-.9,.8-.44,1.71-1.15,2.62-1.97v13.05l-8.4,25.39s5.27,2.08,7.07-2.7c1.83-4.85,7.01-17.78,7.18-18.14,.13-.28,.35-.49,.65-.49s.53,.2,.66,.5c.15,.35,5.26,13.4,7.18,18.17,1.9,4.74,7.07,2.7,7.07,2.7l-8.41-25.46Z"/><path d="M18.42,18.91c8.78-4.55,9.03-12.73,5.29-14.37-3.8-1.67-5.66,1.92-5.66,1.92,0,0-1.86-3.59-5.66-1.92-3.75,1.65-3.5,9.82,5.29,14.37,.23,.12,.51,.12,.74,0"/></g></g></svg>