<?xml version="1.0" encoding="UTF-8"?><svg id="Icon" xmlns="http://www.w3.org/2000/svg" viewBox="0 0 64 64"><defs><style>.cls-1{fill:#fff;}.cls-1,.cls-2{stroke-width:0px;}.cls-2{fill:#000001;}</style></defs><rect class="cls-1" width="64" height="64"/><rect class="cls-1" width="64" height="64"/><path class="cls-2" d="m55,2h-25c-1.1,0-2,.9-2,2v34h-4c-1.1,0-2,.9-2,2v5c0,1.07.85,1.94,1.91,1.99-.08,5.23-1.37,9.39-3.49,11.17-.84.7-1.76.96-2.73.79-3.61-.65-7.22-7.32-7.52-16.59.24.01.48.02.72.02,1.69,0,2.57-.61,3.01-1.12.48-.56.68-1.29.57-2.06-.32-2.21-1.44-5.62-1.8-6.42-.42-.9-1.32-1.5-2.35-1.57-.53-.04-1.3-.03-1.81-.03-.31,0-.56.03-.77-.15-.21-.18-.4-.58-.59-1.43-.33-1.47-.5-3.18-.5-5.09s.17-3.61.5-5.08c.21-.92.41-1.3.64-1.47.2-.14.41-.12.73-.11.51,0,1.29,0,1.81-.03,1.04-.07,1.94-.68,2.35-1.57.37-.79,1.48-4.21,1.8-6.42.11-.77-.09-1.5-.57-2.06-.44-.51-1.32-1.11-3.01-1.12-2.02,0-4.11.31-5.76,2.57-2.13,2.9-3.55,9.05-3.55,15.3s1.43,12.4,3.55,15.3c.62.84,1.3,1.42,2.02,1.8.13,10.55,4.34,19.27,10.01,20.29.38.07.75.1,1.12.1,1.46,0,2.84-.52,4.06-1.54,2.83-2.37,4.49-7.26,4.58-13.46.05-1.64.32-2.85.72-4.06.1-.32.31-.27.36-.25v5.31c0,1.1.9,2,2,2h25c1.1,0,2-.9,2-2V4c0-1.1-.9-2-2-2Zm-17,9h9v4h-9v-4Zm1,27.5c0,.28-.22.5-.5.5h-2c-.28,0-.5-.22-.5-.5v-2c0-.28.22-.5.5-.5h2c.28,0,.5.22.5.5v2Zm0-5c0,.28-.22.5-.5.5h-2c-.28,0-.5-.22-.5-.5v-2c0-.28.22-.5.5-.5h2c.28,0,.5.22.5.5v2Zm0-5c0,.28-.22.5-.5.5h-2c-.28,0-.5-.22-.5-.5v-2c0-.28.22-.5.5-.5h2c.28,0,.5.22.5.5v2Zm5,10c0,.28-.22.5-.5.5h-2c-.28,0-.5-.22-.5-.5v-2c0-.28.22-.5.5-.5h2c.28,0,.5.22.5.5v2Zm0-5c0,.28-.22.5-.5.5h-2c-.28,0-.5-.22-.5-.5v-2c0-.28.22-.5.5-.5h2c.28,0,.5.22.5.5v2Zm0-5c0,.28-.22.5-.5.5h-2c-.28,0-.5-.22-.5-.5v-2c0-.28.22-.5.5-.5h2c.28,0,.5.22.5.5v2Zm5,10c0,.28-.22.5-.5.5h-2c-.28,0-.5-.22-.5-.5v-2c0-.28.22-.5.5-.5h2c.28,0,.5.22.5.5v2Zm0-5c0,.28-.22.5-.5.5h-2c-.28,0-.5-.22-.5-.5v-2c0-.28.22-.5.5-.5h2c.28,0,.5.22.5.5v2Zm0-5c0,.28-.22.5-.5.5h-2c-.28,0-.5-.22-.5-.5v-2c0-.28.22-.5.5-.5h2c.28,0,.5.22.5.5v2Z"/></svg>