<?xml version="1.0" encoding="UTF-8"?><svg id="Laag_1" xmlns="http://www.w3.org/2000/svg" xmlns:xlink="http://www.w3.org/1999/xlink" viewBox="0 0 64 64"><defs><style>.cls-1{fill:none;}.cls-2{clip-path:url(#clippath);}.cls-3{clip-path:url(#clippath-1);}</style><clipPath id="clippath"><rect class="cls-1" width="64" height="64"/></clipPath><clipPath id="clippath-1"><rect class="cls-1" width="64" height="64"/></clipPath></defs><g class="cls-2"><g class="cls-3"><path d="M39,53h-2.13c-.49,0-2.29-.16-2.87-2-.39-1.23-.7-2.27-.95-3.08,0,0-4.4-.64-8.98-1.53-.32-.06-.28-.3-.24-.38h11.87c-.31-.25-.61-.52-.89-.81-1.77-1.77-2.91-3.92-3.44-6.19H6V12H46v11.17c1.75,.27,3.46,.9,5,1.88V9c0-1.1-.9-2-2-2H3c-1.1,0-2,.9-2,2V43.99c0,1.1,.9,2,2,2H19.5s-.53,1.94-1.5,5.01c-.58,1.84-2.38,1.99-2.87,2h-2.13c-.55,0-1,.45-1,1v2h28v-2c0-.55-.45-1-1-1"/><path d="M12.63,20.98v-5.94h-.76c-.68,0-1.4,.11-2.14,.32v1.06c.55-.1,.97-.13,1.53-.13v4.69h1.36Z"/><path d="M17.26,14.94c-1.55,0-2.84,1.22-2.84,3.19s1.08,2.96,2.69,2.96c1.52,0,2.84-1.21,2.84-3.18s-1.11-2.97-2.69-2.97m-.07,5c-.85,0-1.43-.52-1.43-1.88,0-1.22,.6-1.97,1.41-1.97,.88,0,1.43,.59,1.43,1.85s-.61,2-1.41,2"/><path d="M23.62,20.98v-5.94h-.76c-.68,0-1.4,.11-2.14,.32v1.06c.55-.1,.97-.13,1.53-.13v4.69h1.36Z"/><path d="M28.25,14.94c-1.55,0-2.84,1.22-2.84,3.19s1.08,2.96,2.69,2.96c1.52,0,2.84-1.21,2.84-3.18s-1.11-2.97-2.69-2.97m-.07,5c-.85,0-1.43-.52-1.43-1.88,0-1.22,.6-1.97,1.41-1.97,.88,0,1.43,.59,1.43,1.85s-.61,2-1.41,2"/><path d="M34.61,20.98v-5.94h-.76c-.68,0-1.4,.11-2.14,.32v1.06c.55-.1,.97-.13,1.53-.13v4.69h1.36Z"/><path d="M41.93,17.91c0-1.94-1.12-2.98-2.69-2.98s-2.84,1.22-2.84,3.19,1.08,2.96,2.69,2.96c1.52,0,2.84-1.21,2.84-3.18m-4.19,.14c0-1.22,.6-1.97,1.41-1.97,.88,0,1.43,.59,1.43,1.85s-.61,2-1.42,2c-.85,0-1.43-.52-1.43-1.88"/><path d="M15.35,25.91c0-1.94-1.11-2.97-2.69-2.97s-2.84,1.22-2.84,3.19,1.08,2.96,2.69,2.96c1.52,0,2.84-1.21,2.84-3.18m-2.76,2.03c-.85,0-1.43-.52-1.43-1.88,0-1.22,.6-1.97,1.41-1.97,.88,0,1.43,.59,1.43,1.85s-.61,2-1.41,2"/><path d="M19.02,28.98v-5.94h-.76c-.68,0-1.4,.11-2.14,.32v1.06c.55-.1,.97-.13,1.53-.13v4.69h1.36Z"/><path d="M26.34,25.91c0-1.94-1.11-2.97-2.69-2.97s-2.84,1.22-2.84,3.19,1.08,2.96,2.69,2.96c1.52,0,2.84-1.21,2.84-3.18m-2.76,2.03c-.85,0-1.43-.52-1.43-1.88,0-1.22,.6-1.97,1.41-1.97,.88,0,1.43,.59,1.43,1.85s-.61,2-1.41,2"/><path d="M30.02,28.98v-5.94h-.76c-.68,0-1.4,.11-2.14,.32v1.06c.55-.1,.97-.13,1.53-.13v4.69h1.36Z"/><path d="M34.56,24.09c.84,0,1.37,.54,1.42,1.69,.4-.31,.81-.59,1.23-.85-.32-1.3-1.28-1.99-2.56-1.99-1.55,0-2.84,1.22-2.84,3.19,0,1.4,.52,2.26,1.37,2.68,.23-.34,.48-.68,.74-1.01-.47-.23-.77-.77-.77-1.74,0-1.22,.6-1.97,1.42-1.97"/><path d="M12.63,36.98v-5.94h-.76c-.68,0-1.4,.11-2.14,.32v1.05c.55-.1,.97-.13,1.53-.13v4.69h1.36Z"/><path d="M17.1,37.09c1.52,0,2.84-1.21,2.84-3.18s-1.12-2.98-2.69-2.98-2.84,1.22-2.84,3.19,1.08,2.96,2.69,2.96m.07-5c.88,0,1.43,.59,1.43,1.85s-.61,2-1.42,2c-.85,0-1.43-.52-1.43-1.88,0-1.22,.6-1.97,1.41-1.97"/><path d="M23.62,36.98v-5.94h-.76c-.68,0-1.4,.11-2.14,.32v1.05c.55-.1,.97-.13,1.53-.13v4.69h1.36Z"/><path d="M28.1,37.09c1.52,0,2.84-1.21,2.84-3.18s-1.12-2.98-2.69-2.98-2.84,1.22-2.84,3.19,1.08,2.96,2.69,2.96m.07-5c.88,0,1.43,.59,1.43,1.85s-.61,2-1.42,2c-.85,0-1.43-.52-1.43-1.88,0-1.22,.6-1.97,1.42-1.97"/><path d="M61.41,49.34l-8.16-7.39c2.75-4.26,2.26-10-1.47-13.73-4.3-4.3-11.26-4.3-15.56,0-4.3,4.3-4.3,11.26,0,15.56,3.73,3.73,9.47,4.22,13.73,1.47l7.38,8.16c1.03,1.14,2.69,.94,3.85-.22,1.16-1.16,1.37-2.82,.22-3.85m-12.39-8.32c-2.77,2.77-7.27,2.77-10.04,0-2.77-2.77-2.77-7.27,0-10.04,2.77-2.77,7.27-2.77,10.04,0,2.77,2.77,2.77,7.27,0,10.04"/></g></g></svg>