<?xml version="1.0" encoding="UTF-8"?><svg id="Laag_1" xmlns="http://www.w3.org/2000/svg" xmlns:xlink="http://www.w3.org/1999/xlink" viewBox="0 0 64 64"><defs><style>.cls-1{fill:none;}.cls-2{clip-path:url(#clippath);}.cls-3{clip-path:url(#clippath-1);}</style><clipPath id="clippath"><rect class="cls-1" width="64" height="64"/></clipPath><clipPath id="clippath-1"><rect class="cls-1" width="64" height="64"/></clipPath></defs><g class="cls-2"><g class="cls-3"><path d="M61.23,30.21L32.81,3.32c-.46-.43-1.17-.43-1.63,0L2.78,30.21c-.49,.46-.78,1.11-.78,1.78v1.8c0,.67,.54,1.21,1.2,1.21h4.8v25H56v-25h4.8c.66,0,1.2-.54,1.2-1.21v-1.8c0-.68-.28-1.33-.77-1.78M12.03,49s.08-3.99,1.09-5.05c.79-.83,3.18-1.57,4.2-1.85,.25-.07,.41-.28,.45-.54,.07-.35,.08-.72,.08-.72-.63-.72-1.09-1.58-1.24-2.79-.64-.2-.77-1.01-.77-1.52s.09-.78,.27-.87c.22-.1,.42,.04,.48,.08-.09-1.05-.23-3.41,.33-4.15,.5-.66,1.44-1.1,2.3-1.35,1.24-.35,1.72,.14,2.43,.53,1.08-.28,1.64,.06,2.11,.92,.43,.8,.29,2.96,.19,4,.1-.06,.24-.11,.4-.04,.18,.08,.27,.36,.27,.87s-.13,1.32-.77,1.52c-.16,1.18-.64,2.07-1.28,2.82,0,0,.03,.39,.11,.7,.07,.24,.22,.45,.46,.52,.26,.07,.62,.17,1.02,.3-1.2,.5-2.27,1.09-2.93,1.77-1.02,1.05-1.63,3.06-1.99,4.85h-7.2Zm8.97,3s.5-4.98,1.8-6.32c1.11-1.14,4.67-2.14,5.7-2.41,.01,0,.02,.01,.03,.02,1.38,.7,2.66,.52,3.07,.38,.24-.08,.24-.21,.18-.32-.68-.03-1.34-.19-1.7-.49-1.38-1.14-2.49-2.42-2.76-4.61-.84-.25-1-1.28-1-1.92s.11-.98,.35-1.09c.13-.06,.25-.05,.36-.02-.12-1.35-.26-3.97,.45-4.87,.66-.83,1.91-1.33,3.06-1.64,1.65-.44,2.29,.04,3.23,.53,1.43-.35,2.26-.07,2.88,1.01,.57,.99,.48,3.63,.4,4.96,.1-.02,.21-.02,.32,.03,.23,.11,.35,.45,.35,1.09s-.17,1.66-1.01,1.92c-.22,1.53-.87,2.69-1.74,3.65,0,0,.04,.37,.11,.69,.08,.36,.33,.67,.7,.77,1.38,.37,4.47,1.28,5.46,2.31,1.3,1.33,1.78,6.32,1.78,6.32H21Zm23.78-3c-.36-1.79-.96-3.8-1.98-4.85-.24-.25-.79-.81-2.4-1.53,.24-.09,.46-.18,.63-.24,.22-.08,.36-.29,.41-.53,.06-.33,.12-.79,.16-1.16-1.45-.09-2.69-.25-3.24-.44-.12-.05-.14-.16-.08-.27,.3-.53,1.02-2.56,1.06-3.44,.05-1.24-.26-3.46,1.02-5.14,1.82-2.39,4.06-.96,4.06-.96,3.53-1.16,3.52,3.45,3.74,6.03,.09,1.05,.82,3.06,1.1,3.67,.04,.1,0,.19-.11,.23-.51,.19-1.74,.34-3.23,.4,.04,.37,.1,.8,.15,1.1,.04,.24,.18,.44,.41,.53,.59,.22,1.69,.65,2.68,1.14,.75,.36,1.44,.76,1.78,1.12,1.01,1.06,1.06,4.36,1.06,4.36h-7.22Z"/></g></g></svg>