<?xml version="1.0" encoding="UTF-8"?><svg id="Laag_1" xmlns="http://www.w3.org/2000/svg" xmlns:xlink="http://www.w3.org/1999/xlink" viewBox="0 0 64 64"><defs><style>.cls-1{fill:none;}.cls-2{clip-path:url(#clippath);}.cls-3{clip-path:url(#clippath-1);}</style><clipPath id="clippath"><rect class="cls-1" width="64" height="64"/></clipPath><clipPath id="clippath-1"><rect class="cls-1" width="64" height="64"/></clipPath></defs><g class="cls-2"><g class="cls-3"><path d="M19.5,34.73c2.52,2.23,7.44,5.27,12.39,5.27,4.97-.01,9.97-3.09,12.56-5.27,5.17-4.34,6.89-21.01,0-28.28C37.56-.82,26.39-.82,19.5,6.45c-6.89,7.27-5.05,23.81,0,28.28m-.34-17.73c3.39,1.14,7.82,1.84,12.84,1.84s9.44-.7,12.83-1.84c.36,2.44,.32,4.68,.13,6.52-.15,1.43-.88,2.7-1.99,3.49-3.14,2.21-8.32,2.55-11.06,2.56-2.79,0-7.82-.28-10.91-2.55-1.07-.79-1.79-2.04-1.94-3.43-.2-1.86-.26-4.12,.1-6.58m33.45,27.1c-1.98-2.15-7.29-4.08-10.46-5.08-3.02,1.77-6.68,3.17-10.26,3.17h-.03c-3.62,0-7.21-1.38-10.14-3.14-3.18,1.02-8.39,2.93-10.34,5.05-2.87,3.12-4.39,14.89-4.39,14.89H57s-1.51-11.77-4.39-14.89"/></g></g></svg>