<?xml version="1.0" encoding="UTF-8"?><svg id="Laag_1" xmlns="http://www.w3.org/2000/svg" xmlns:xlink="http://www.w3.org/1999/xlink" viewBox="0 0 24 24"><defs><style>.cls-1{fill:none;}.cls-2{clip-path:url(#clippath);}.cls-3{clip-path:url(#clippath-1);}</style><clipPath id="clippath"><rect class="cls-1" width="24" height="24"/></clipPath><clipPath id="clippath-1"><rect class="cls-1" width="24" height="24"/></clipPath></defs><g class="cls-2"><g class="cls-3"><path d="m12,1C5.93,1,1,5.94,1,12s4.93,11,11,11,11-4.93,11-11S18.06,1,12,1m0,19.5c-4.69,0-8.5-3.81-8.5-8.5S7.31,3.5,12,3.5s8.5,3.81,8.5,8.5-3.81,8.5-8.5,8.5"/><path d="m17.22,11.44h0s-4.17-.37-4.17-.37l-.29-5.39c-.04-.38-.32-.64-.68-.64-.38,0-.65.26-.68.65l-.36,6.26c0,.53.4.97.93,1.03h0c.17,0,.98-.05,5.24-.34.42-.04.66-.26.66-.6,0-.2-.09-.55-.65-.6"/></g></g></svg>