<?xml version="1.0" encoding="UTF-8"?><svg id="Laag_1" xmlns="http://www.w3.org/2000/svg" xmlns:xlink="http://www.w3.org/1999/xlink" viewBox="0 0 64 64"><defs><style>.cls-1{fill:none;}.cls-2{clip-path:url(#clippath);}.cls-3{clip-path:url(#clippath-1);}</style><clipPath id="clippath"><rect class="cls-1" width="64" height="64"/></clipPath><clipPath id="clippath-1"><rect class="cls-1" width="64" height="64"/></clipPath></defs><g class="cls-2"><g class="cls-3"><path d="M41,54.19v-1.19c0-.55-.45-1-1-1H4c-.55,0-1,.45-1,1v1.19c0,.49,.3,.93,.75,1.11l4.25,1.7v6h4v-6h20v6h4v-6l4.25-1.7c.45-.18,.75-.62,.75-1.11"/><path d="M12.21,48H31.79l.21,2h4l-.9-8.11c-.06-.51-.48-.89-.99-.89H9.9c-.51,0-.94,.38-.99,.89l-.9,8.11h3.99l.21-2Z"/><path d="M59.78,18.1c0-4.76-3.39-8.75-7.76-9.94-.99-3.79-4.42-6.91-8.52-6.91-2.71,0-5.13,1.54-6.74,3.47-1.12-.52-2.36-.66-3.68-.66-4.33,0-7.92,2.97-8.66,7.09-3.38,.84-6.2,3.89-6.2,7.53,0,2.3,1.3,4.35,2.89,5.77-.7,1.37-1.11,2.92-1.11,4.56,0,5.52,4.48,10,10,10h4.1c1.53,0,2.81,1.15,2.98,2.67l.93,8.33h2.05c1.62,0,2.94,1.32,2.94,2.94v1.38c0,1.23-.74,2.33-1.89,2.78l-3.11,1.25v4.65h9.35l-1.92-20.17c-.51-4.76-.16-9.81,4.05-12.6,.12,.07,.17,.23,.01,.43-.96,1.23-2.6,3.81-2.4,7.8,.05,.93,.22,2.63,.35,3.91,5.87-.35,10.53-5.21,10.53-11.17,0-2.06-.57-3.99-1.54-5.65,1.96-1.88,3.35-4.51,3.35-7.44"/></g></g></svg>