<?xml version="1.0" encoding="UTF-8"?><svg id="Laag_1" xmlns="http://www.w3.org/2000/svg" viewBox="0 0 64 64"><defs><style>.cls-1{fill:none;}</style></defs><rect class="cls-1" width="64" height="64"/><path d="m59.18,12.64c-.25-.49-.96-.5-1.26-.04-.88,1.39-1.75,2.7-2.27,3.33-.8.97-2.15,2.82-3.69,1.92l-4.54-2.67c-1.54-.91-.7-3.09-.24-4.26.31-.79,1.02-2.31,1.76-3.86.23-.48-.11-1.04-.64-1.05-3.22-.06-5.91,1.65-7.8,4.87-3.59,6.08-.92,10.85,5.72,14.32-.03.13-.17.23-.47.2-.55-.06-2.85-.41-5.89-2.21l-6.37,10.82h10.99l4.62-7.84c3.93.75,7.19-.97,9.39-4.69,1.81-3.08,2.08-6.13.68-8.83Z"/><path d="m11.72,23.74l8.26-3.06s.16.25-.1.45l-3.52,2.84,3.72,10.02h9.6l-5.53-14.88,4.69-1.74c.52-.19.78-.77.59-1.29-2.06-5.54-1.54-4.14-3.13-8.44-.19-.52-.77-.78-1.29-.59L7.89,13.43c-.23.08-.41.25-.53.46l-3.31,6.03c-.29.53-.04,1.2.53,1.42l6.44,2.41c.23.08.47.08.7,0Z"/><path d="m41.19,51.06c1.43-.66,2.28-1.99,2.28-3.56s-.85-2.9-2.28-3.56c-1.43-.66-2.99-.44-4.19.58l-3.47,2.98,3.47,2.98c1.19,1.02,2.76,1.24,4.19.58Z"/><path d="m20.95,51.06c1.43.66,2.99.44,4.19-.58l3.47-2.98-3.47-2.98c-.74-.63-1.62-.96-2.52-.96-1.99,0-3.95,1.54-3.95,3.93,0,1.57.85,2.9,2.28,3.56Z"/><path d="m7,59h48v-23H7v23Zm12.61-17.97c2.56-1.18,5.47-.77,7.61,1.06l3.85,3.3,3.85-3.3c2.14-1.83,5.05-2.24,7.61-1.06,2.56,1.18,4.14,3.65,4.14,6.47s-1.59,5.29-4.14,6.47c-2.56,1.18-5.47.77-7.61-1.06l-3.85-3.3-3.85,3.3c-1.33,1.14-2.96,1.73-4.61,1.73-1.01,0-2.03-.22-3-.66-2.56-1.18-4.14-3.65-4.14-6.47s1.59-5.29,4.14-6.47Z"/></svg>