<?xml version="1.0" encoding="UTF-8"?><svg id="Laag_1" xmlns="http://www.w3.org/2000/svg" xmlns:xlink="http://www.w3.org/1999/xlink" viewBox="0 0 64 64"><defs><style>.cls-1{fill:none;}.cls-2{clip-path:url(#clippath);}.cls-3{clip-path:url(#clippath-1);}</style><clipPath id="clippath"><rect class="cls-1" width="64" height="64"/></clipPath><clipPath id="clippath-1"><rect class="cls-1" width="64" height="64"/></clipPath></defs><g class="cls-2"><g class="cls-3"><path d="M28.41,31.85c.73-1.26,2.09-2.04,3.54-2.05,1.47,0,2.82,.78,3.56,2.03l2.52,4.27c2.09,.2,4.09,.51,5.95,.91,0-2.18-.1-8.15-1.53-9.67-1.56-1.65-5.28-2.53-6.54-2.79-.21-.04-.37-.21-.4-.42-.06-.4-.12-.76-.16-1.03,1.17-1.22,2.05-2.69,2.33-4.68,1.01-.31,1.22-1.56,1.22-2.34s-.14-1.2-.42-1.33c-.27-.12-.52-.01-.66,.07,.16-1.59,.39-4.93-.3-6.17-.74-1.32-1.63-1.85-3.34-1.42-1.12-.6-1.88-1.35-3.84-.81-1.36,.37-2.86,1.05-3.64,2.07-.87,1.12-.68,4.66-.53,6.32-.15-.09-.38-.18-.64-.06-.28,.13-.42,.55-.42,1.33s.2,2.03,1.22,2.34c.25,2.09,1.14,3.5,2.31,4.68-.06,.35-.12,.74-.17,1.04-.03,.21-.19,.37-.39,.41-1.25,.26-4.98,1.14-6.54,2.79-1.43,1.52-1.53,7.52-1.53,9.66,1.85-.4,3.85-.7,5.94-.9l2.46-4.24Z"/><path d="M47.51,39.51c.82,.55,3.73,.75,4.72,.77,.08,.09,.04,.25-.22,.38-.9,.42-2.81,.56-3.82,.59-1.04,.54-3.47,1.89-5.06,3.44l5.49,9.31c4.98-.88,10.44-2.59,14.35-6.36-.18-.92-.26-5.66-2.27-7.01-1.05-.7-2.44-.56-3.67-.4,.17-2.52,3.69-5.22,2.81-12.05-.37-2.85-1.5-4.32-4.16-3.98-1.82-1.26-3.67-1.33-5.42-.96-1.68,.36-3.75,1.4-2.67,3.43-.5,1.61-.52,2.04-.51,2.71,.03,2.32-.87,2.28-.87,4.49,0,1.16,.64,5.2,1.31,5.65"/><path d="M9.95,40.62c-2.02,.72-3.97,.04-6.28,1.62-1.29,.89-2.23,2.95-2.59,5.44,3.78,3.72,9.39,5.44,14.48,6.33l5.41-9.32c-1.69-1.86-4.08-2.96-5.27-3.42h0c-.59-.29-.85-.62-.95-1.26l-.15-.94c.39-.08,.92-.23,1.33-.51,.7-.48,2.13-4.46,1.97-5.92-.16-1.44-.42-1.5-.64-2.75-.23-1.32,1.03-2.61,.45-4.54-.53-1.73-2.6-3.48-5.1-3-1.89,.37-2.27,.72-3.53,1.4,0,0-2.61-.45-3.84,1.01-1.83,2.18-.88,5.31-1.32,8.45-.39,2.82-1.88,4.03-1.88,4.03,1.92,1.63,4.47,2.6,8.2,3,.1,.09,0,.29-.27,.39"/><path d="M33.62,32.94c-.74-1.26-2.57-1.26-3.3,.01l-15.19,26.17c-.74,1.27,.18,2.88,1.66,2.88h30.64c1.48,0,2.4-1.61,1.65-2.89l-15.45-26.17Zm-13.51,25.23l11.88-20.46,12.08,20.46H20.11Z"/><path d="M31.96,52.93c-.97,0-1.47,.7-1.47,1.59,0,1.01,.54,1.55,1.49,1.55s1.47-.68,1.47-1.55c0-1.03-.54-1.59-1.49-1.59"/><polygon points="30.83 51.59 33.14 51.52 33.14 49.25 33.41 43.52 30.83 43.75 30.83 51.59"/></g></g></svg>