<?xml version="1.0" encoding="UTF-8"?><svg id="Laag_1" xmlns="http://www.w3.org/2000/svg" xmlns:xlink="http://www.w3.org/1999/xlink" viewBox="0 0 64 64"><defs><style>.cls-1{fill:none;}.cls-2{clip-path:url(#clippath);}.cls-3{clip-path:url(#clippath-1);}</style><clipPath id="clippath"><rect class="cls-1" width="64" height="64"/></clipPath><clipPath id="clippath-1"><rect class="cls-1" width="64" height="64"/></clipPath></defs><g class="cls-2"><g class="cls-3"><path d="M53.2,26.93v.07h5.8v-6c0-1.66-1.34-3-3-3h-5.78s-.02,.03-.03,.05c.64,.36,1.11,.71,1.45,1.07,.37,.4,1.51,1.6,1.56,7.81"/><path d="M30.2,26.92v.08h3.6v-.07c.05-6.21,1.19-7.41,1.56-7.81,.35-.38,.85-.74,1.51-1.11h-8.82c.21,.14,.39,.3,.56,.47,1.51,1.6,1.57,6.56,1.6,8.44"/><path d="M10.8,26.92c.02-1.87,.08-6.84,1.59-8.44,.1-.1,.26-.27,.55-.49h-4.94c-1.66,0-3,1.34-3,3v6h5.8v-.08Z"/><path d="M27.01,20c-.7-.74-2.74-1.36-3.74-1.66-.28-.08-.45-.13-.56-.51-.08-.28-.1-.64-.1-.64,.58-.68,1.02-1.51,1.17-2.58,.59-.18,.71-.93,.71-1.4s-.08-.72-.25-.79c-.14-.07-.28-.02-.36,.03,.09-.95,.22-2.93-.17-3.66-.42-.79-.94-1.1-1.92-.85-.65-.35-1.08-.81-2.21-.48-.78,.22-1.64,.63-2.1,1.23-.51,.68-.39,2.84-.3,3.81-.06-.04-.24-.17-.44-.08-.16,.08-.25,.33-.25,.79s.12,1.21,.71,1.4c.13,1.11,.56,1.9,1.13,2.56,0,0-.01,.34-.08,.66-.05,.23-.19,.43-.42,.49-.92,.26-3.11,.93-3.83,1.7-.92,.97-.99,6.95-.99,6.95h15s-.07-5.98-.99-6.95"/><path d="M41.39,18.08c-.04,.22-.17,.41-.37,.48-.53,.2-1.54,.6-2.43,1.05-.69,.33-1.31,.69-1.62,1.03-.92,.97-.96,6.32-.96,6.32h15s-.05-5.34-.96-6.32c-.31-.33-.94-.69-1.62-1.03-.9-.45-1.9-.84-2.44-1.05-.2-.08-.33-.27-.37-.48-.04-.27-.1-.67-.13-1,1.35-.06,2.47-.19,2.94-.37,.09-.04,.14-.12,.1-.21-.26-.56-.92-2.4-1-3.36-.2-2.36-.2-6.58-3.41-5.52,0,0-2.04-1.31-3.69,.88-1.17,1.54-.88,3.58-.93,4.72-.03,.81-.69,2.67-.97,3.15-.06,.1-.04,.21,.07,.25,.5,.18,1.62,.33,2.95,.41-.04,.34-.09,.76-.15,1.06h0Z"/><path d="M62.8,54.5c-2.22-10.84-1.9-24.53-1.9-24.53-.05-.55-.51-.97-1.06-.97H4.25c-.55,0-1.01,.42-1.06,.97,0,0,.13,12.38-1.96,24.59-.12,.69,.45,1.32,1.14,1.25,3.07-.33,5.3-1.63,5.3-1.63,0,0,2.23,1.7,5.74,1.7,1.86,0,3.54-.48,4.71-.93,.61-3.91,1.47-9.35,1.52-9.63,.06-.33,.31-.27,.36-.25v9.23c.71,.39,3.18,1.58,6.48,1.58,3.93,0,5.63-1.7,5.63-1.7,0,0,3.72,1.7,7.01,1.7s6.69-1.7,6.69-1.7c0,0,3.08,1.7,6.05,1.7s5.42-1.7,5.42-1.7c0,0,1.73,1.22,4.3,1.59,.74,.11,1.37-.53,1.22-1.27"/></g></g></svg>