<?xml version="1.0" encoding="UTF-8"?><svg id="Laag_1" xmlns="http://www.w3.org/2000/svg" xmlns:xlink="http://www.w3.org/1999/xlink" viewBox="0 0 64 64"><defs><style>.cls-1{fill:none;}.cls-2{clip-path:url(#clippath);}.cls-3{clip-path:url(#clippath-1);}</style><clipPath id="clippath"><rect class="cls-1" width="64" height="64"/></clipPath><clipPath id="clippath-1"><rect class="cls-1" width="64" height="64"/></clipPath></defs><g class="cls-2"><g class="cls-3"><path d="M26.78,13.95l7.17-5.9c1.61-1.32,3.64-2.05,5.72-2.05h12.33V2h-12.33c-3.01,0-5.94,1.05-8.26,2.96l-8.52,7.01h.37c1.59,0,2.84,.76,3.52,1.98"/><path d="M22.75,29.7s1.21-.46,1.21-1.17c0-.36,0-3.51-2.41-3.52H4.59c-2.41,.01-2.41,3.16-2.41,3.52,0,.71,1.21,1.17,1.21,1.17,0,0,2.41,1.17,9.68,1.17s9.68-1.17,9.68-1.17"/><path d="M5.24,22.96h15.52s0-1.96-.06-4.44c3.93-.49,4.37-.77,4.37-2.37,0-1.1-.58-1.98-1.88-1.98h-2.69c-.1-1.49-.25-2.99-.45-4.04-.33-1.7-1.54-3.08-2.91-3.45-1.05-.28-2.43-.52-4.13-.52s-3.08,.24-4.13,.52c-1.38,.37-2.58,1.75-2.91,3.45-.2,1.05-.35,2.55-.45,4.04H2.81c-1.3,0-1.88,.89-1.88,1.98,0,1.59,.53,1.89,4.37,2.37-.07,2.48-.06,4.43-.06,4.43"/><path d="M47,32.8c1.49,0,3.24,.03,5,.1v-15.9h-13.94v9h-10v9h-10v9H8.06v9H30.86c-.05-1.41-.06-2.8-.06-4,0-3.22,.11-7.68,.61-10.7,.42-2.51,2.38-4.47,4.89-4.89,3.02-.5,7.49-.61,10.7-.61"/><path d="M59.44,38.83c-.2-1.17-1.09-2.07-2.26-2.26-3.39-.57-9.04-.57-10.17-.57s-6.78,0-10.17,.57c-1.17,.2-2.07,1.09-2.26,2.26-.57,3.39-.57,9.04-.57,10.17s0,6.78,.57,10.17c.19,1.17,1.09,2.07,2.26,2.26,3.39,.57,9.04,.57,10.17,.57s6.78,0,10.17-.57c1.17-.2,2.07-1.09,2.26-2.26,.56-3.39,.56-9.04,.56-10.17,0-3.39,0-6.78-.56-10.17m-5.72,14.06c.19,.2,.19,.51,0,.71l-2.12,2.12c-.2,.2-.51,.2-.71,0l-3.89-3.89-3.89,3.89c-.19,.2-.51,.2-.71,0l-2.12-2.12c-.19-.2-.19-.51,0-.71l3.89-3.89-3.89-3.89c-.19-.19-.19-.51,0-.71l2.12-2.12c.2-.19,.51-.19,.71,0l3.89,3.89,3.89-3.89c.19-.19,.51-.19,.71,0l2.12,2.12c.19,.19,.19,.51,0,.71l-3.89,3.89,3.89,3.89Z"/></g></g></svg>