<?xml version="1.0" encoding="UTF-8"?><svg id="Laag_1" xmlns="http://www.w3.org/2000/svg" xmlns:xlink="http://www.w3.org/1999/xlink" viewBox="0 0 64 64"><defs><style>.cls-1{fill:none;}.cls-2{clip-path:url(#clippath);}.cls-3{clip-path:url(#clippath-1);}</style><clipPath id="clippath"><rect class="cls-1" width="64" height="64"/></clipPath><clipPath id="clippath-1"><rect class="cls-1" width="64" height="64"/></clipPath></defs><g class="cls-2"><g class="cls-3"><path d="M58.89,7.7c-.56-4.34-5.71-6.37-5.85-5.43,7.16,11.24-11.58,13.43-7.42,21.46,.21,.41,.5,.34,.5,.34,1.59-4.83,5.09-5.99,8.63-8.82,2.16-1.73,4.61-3.92,4.14-7.55"/><path d="M39.43,21.31c-.97-.97-2.93,.53-2.07,2.04,.3,.54,.65,1.12,.97,1.67l-6.79,6.79c-1.49-1.7-3.38-3.05-5.54-3.87V8.4c.61-.16,1.27-.33,1.86-.49,1.68-.46,1.35-2.9-.02-2.9H14.16c-1.37,0-1.7,2.44-.02,2.9,.59,.17,1.25,.34,1.86,.49V27.94c-5.26,2.01-9,7.1-9,13.06,0,4.58,2.2,8.64,5.59,11.19,.42,.32,.78,.74,.92,1.25,.8,2.96-2.67,4.52-4.78,5.17-.91,.28-1.51,1.03-1.51,1.88v1.51h27.56v-1.51c0-.84-.6-1.59-1.51-1.88-1.72-.53-4.34-1.66-4.82-3.66-2.63,.55-4.63,.36-5.12,.28-.43-.06-.32-.36-.31-.36,2.48-.36,4.69-1.4,6.61-2.86,3.26-2.56,5.36-6.54,5.36-11.01,0-.43-.03-.86-.06-1.28l9.05-9.05c.54,.32,1.13,.66,1.67,.97,1.51,.86,3.01-1.1,2.04-2.07l-8.26-8.26Z"/></g></g></svg>