<?xml version="1.0" encoding="UTF-8"?><svg id="Laag_1" xmlns="http://www.w3.org/2000/svg" xmlns:xlink="http://www.w3.org/1999/xlink" viewBox="0 0 64 64"><defs><style>.cls-1{fill:none;}.cls-2{clip-path:url(#clippath);}.cls-3{clip-path:url(#clippath-1);}</style><clipPath id="clippath"><rect class="cls-1" width="64" height="64"/></clipPath><clipPath id="clippath-1"><rect class="cls-1" width="64" height="64"/></clipPath></defs><g class="cls-2"><g class="cls-3"><path d="M64,59l-6.28-13.1-15.72-.9,6.14-6.41,6.84,1.57-7.58-15.82c-.46,3.46-.94,6.15-1.14,7.28-7.37,1.78-9.87,2.38-14.26,3.45-.86-.21-3.43-.83-4.3-1.04l-4.46,4.31-6.91-3.83,1.38-3.07c-.17-1-.6-3.38-1.04-6.64L0,59H40.86l-2.94-8.49,16,3.65-2.42,4.84h12.5ZM7.78,55l4.79-9.79,9.69,5.67,7.5-1.83,3.91,5.95H7.78Zm17.01-8.48l-5.09-5.26,20.31-2.18-15.22,7.44Z"/><path d="M18,17.32c0,4.09,1.43,12.35,1.48,12.63l5.52-1.95,2.76,3.97,4.24,1.02,12.51-3.02s1.49-8.48,1.49-12.66c0,0-1.69-.89-4.15-1.82v-6.82c0-.29-.23-.52-.52-.52h-2.33v-3.64c0-.29-.23-.52-.52-.52h-12.96c-.29,0-.52,.23-.52,.52v3.64h-2.33c-.29,0-.52,.23-.52,.52v5.18c1.51-.87,3.9-1.69,6.39-1.87,4.31-.31,7.36,.59,9.3,1.78,.25,.16,.33,.34,.31,.52-1.97-.54-4.11-.93-6.15-.93-6.49,0-14,3.96-14,3.96m11,6.68h-7v-3.12c0-.57,.45-1.04,1-1.04s1,.47,1,1.04v1.04h3v-1.04c0-.57,.45-1.04,1-1.04s1,.47,1,1.04v3.12Zm6-3.12c0-.57,.45-1.04,1-1.04s1,.47,1,1.04v1.04h3v-1.04c0-.57,.45-1.04,1-1.04s1,.47,1,1.04v3.12h-7v-3.12Z"/></g></g></svg>