<?xml version="1.0" encoding="UTF-8"?><svg id="Laag_1" xmlns="http://www.w3.org/2000/svg" xmlns:xlink="http://www.w3.org/1999/xlink" viewBox="0 0 64 64"><defs><style>.cls-1{fill:none;}.cls-2{clip-path:url(#clippath);}.cls-3{clip-path:url(#clippath-1);}</style><clipPath id="clippath"><rect class="cls-1" width="64" height="64"/></clipPath><clipPath id="clippath-1"><rect class="cls-1" width="64" height="64"/></clipPath></defs><g class="cls-2"><g class="cls-3"><path d="M32,11c1.1,0,2-.89,2-2s-.9-2-2-2-2,.9-2,2,.89,2,2,2"/><path d="M57,59s-1.51-11.76-4.39-14.89c-2.18-2.37-8.46-4.49-11.39-5.37-.16-1.11-.36-2.41-.55-3.48,1.79-2.17,2.89-4.4,3.25-6.7,1.33-1.22,2.07-3.17,2.07-5.56,0-.73,0-2.61-1.16-3.94,0,0,0,0,0-.01,.26-3.38,.38-8.7-1.27-10.61-1.29-1.49-3.45-2.52-5.71-3.26-1.25-1.92-3.41-3.18-5.86-3.18s-4.62,1.27-5.87,3.19c-2.25,.73-4.41,1.77-5.69,3.25-1.65,1.91-1.54,7.22-1.27,10.61-1.16,1.33-1.16,3.22-1.16,3.96,0,2.39,.74,4.33,2.06,5.55,.38,2.51,1.61,4.91,3.71,7.26-.11,.81-.23,1.75-.35,2.73-2.51,.74-9.67,3-12.03,5.57-2.87,3.12-4.39,14.89-4.39,14.89h12l-2-9h7.95l1.33,4h11.44l1.33-4h7.95l-2,9h12ZM32,3.87c2.82,0,5.1,2.28,5.1,5.1s-2.28,5.1-5.1,5.1-5.1-2.28-5.1-5.1,2.28-5.1,5.1-5.1m4.28,48.12h-8.56l-.58-1.73,2.86-2.86v-1.41c0-1.1,.9-2,2-2s2,.9,2,2v1.41l2.86,2.86-.58,1.73Zm-3.62-13.24c3.15,.84,5.46-.91,5.46-.91,0,0,.28,1.91,.27,2.42,.17,1.86-.95,3.81-2.42,5.5-.13-2.09-1.85-3.76-3.98-3.76-2.01,0-3.66,1.5-3.94,3.43-1.19-1.59-2.05-3.39-1.84-5.11,.24-1.91,.04-.55,.82-5.44-2.28-2.2-4.1-4.87-4.1-8.06-1.62-.5-2.04-2.55-2.04-3.82s.32-1.96,.77-2.17c.39-.18,.77-.05,1.01,.09,.14,.65,.25,1.14,.29,1.31,.21,.85,1.02,.77,1.02,.77v-7h16v7s.82,.08,1.02-.77c.04-.17,.15-.66,.29-1.31,.24-.14,.62-.27,1.01-.09,.45,.21,.77,.9,.77,2.17s-.42,3.31-2.04,3.82c0,3.7-2.53,6.5-5.34,8.88-.78,.67-2.25,1.11-3.72,1.11-1.06,0-2.12-.29-2.93-.64,.61,.93,1.66,2.07,3.59,2.58"/></g></g></svg>