<?xml version="1.0" encoding="UTF-8"?><svg id="Laag_1" xmlns="http://www.w3.org/2000/svg" xmlns:xlink="http://www.w3.org/1999/xlink" viewBox="0 0 64 64"><defs><style>.cls-1{fill:none;}.cls-2{clip-path:url(#clippath);}.cls-3{clip-path:url(#clippath-1);}</style><clipPath id="clippath"><rect class="cls-1" width="64" height="64"/></clipPath><clipPath id="clippath-1"><rect class="cls-1" width="64" height="64"/></clipPath></defs><g class="cls-2"><g class="cls-3"><path d="M54.68,18.77c-.67,2.85-1.34,6.68-1.84,9.73,.4,.17,.8,.4,1.17,.72,2.16,1.84,2.38,4.82,.7,7.81-3.81,6.74-7.98,9.79-8.85,10.42-.25,.18-.39,.13-.49,.04h0c3.79-4.24,5.8-7.14,7.51-11.19,1.3-3.07,.6-4.92-.51-5.59-1.09-.65-2.22-.3-3.35,1.38-3.87,5.71-6.66,8.71-10.52,13.26-2.69,3.16-4.52,7.08-4.49,11.08,.02,2.55,.19,3.94,.29,4.58h13.5l1.14-6.5c.16-.91,.57-1.75,1.17-2.44l7.39-7.48c1.53-1.74,2.42-3.96,2.5-6.28V14.13s-3.94-1.28-5.32,4.64"/><path d="M14.98,32.09c-1.14-1.68-2.26-2.03-3.35-1.38-1.12,.67-1.82,2.52-.52,5.59,1.72,4.05,3.72,6.95,7.51,11.18h0c-.1,.11-.23,.15-.48-.03-.87-.63-5.05-3.68-8.85-10.42-1.68-2.98-1.46-5.96,.7-7.81,.37-.32,.77-.56,1.17-.72-.5-3.06-1.18-6.88-1.84-9.73-1.38-5.92-5.32-4.64-5.32-4.64v24.18c.08,2.32,.96,4.54,2.5,6.28l7.39,7.48c.61,.69,1.02,1.53,1.18,2.44l1.14,6.5h13.5c.1-.64,.27-2.03,.29-4.57,.04-4-1.8-7.92-4.49-11.08-3.87-4.55-6.66-7.55-10.52-13.26"/><path d="M45,34v-15h3c.55,0,1-.45,1-1v-1.1c0-.57-.25-1.12-.68-1.5L32.66,1.58c-.38-.33-.95-.33-1.32,0L15.68,15.4c-.43,.38-.68,.93-.68,1.5v1.1c0,.55,.45,1,1,1h3v15h4v-12h8v12h14Zm-10-12h6v6h-6v-6Z"/></g></g></svg>