<?xml version="1.0" encoding="UTF-8"?><svg id="Laag_1" xmlns="http://www.w3.org/2000/svg" xmlns:xlink="http://www.w3.org/1999/xlink" viewBox="0 0 64 64"><defs><style>.cls-1{fill:none;}.cls-2{clip-path:url(#clippath);}.cls-3{clip-path:url(#clippath-1);}</style><clipPath id="clippath"><rect class="cls-1" width="64" height="64"/></clipPath><clipPath id="clippath-1"><rect class="cls-1" width="64" height="64"/></clipPath></defs><g class="cls-2"><g class="cls-3"><path d="M27,40c-2.17,0-4.01-.84-4.69-2H8v7H46v-7h-14.31c-.69,1.16-2.52,2-4.69,2"/><path d="M27,49c-2.17,0-4.01-.84-4.69-2H8v5c0,1.11,.9,2,2,2H44c1.1,0,2-.89,2-2v-5h-14.31c-.69,1.16-2.52,2-4.69,2"/><path d="M59.71,23.32l-13.71,5.33v-4.78l13.4-5.21c.77-.3,1.16-1.17,.85-1.94l-.54-1.4-13.71,5.33v-5.65c0-1.1-.9-2-2-2h-14.36l12.86-5c.77-.3,1.15-1.17,.85-1.94l-.54-1.4-19.11,7.43s-.16-.22,.1-.43c.15-.12,1.79-1.17,3.2-2.06v-3.6c0-1.1-.9-2-2-2H10c-1.1,0-2,.9-2,2v30H46v-4.13l13.4-5.21c.77-.3,1.16-1.17,.85-1.94l-.54-1.4Zm-46.21-1.32c-.83,0-1.5-.67-1.5-1.5s.67-1.5,1.5-1.5,1.5,.67,1.5,1.5-.67,1.5-1.5,1.5m6,0c-.83,0-1.5-.67-1.5-1.5s.67-1.5,1.5-1.5,1.5,.67,1.5,1.5-.67,1.5-1.5,1.5"/><path d="M12,55c-1.11,0-2,.9-2,2s.89,2,2,2,2-.89,2-2-.9-2-2-2"/><path d="M42,55c-1.11,0-2,.9-2,2s.89,2,2,2,2-.89,2-2-.9-2-2-2"/></g></g></svg>