<?xml version="1.0" encoding="UTF-8"?><svg id="Laag_1" xmlns="http://www.w3.org/2000/svg" xmlns:xlink="http://www.w3.org/1999/xlink" viewBox="0 0 64 64"><defs><style>.cls-1{fill:none;}.cls-2{clip-path:url(#clippath);}.cls-3{clip-path:url(#clippath-1);}</style><clipPath id="clippath"><rect class="cls-1" width="64" height="64"/></clipPath><clipPath id="clippath-1"><rect class="cls-1" width="64" height="64"/></clipPath></defs><g class="cls-2"><g class="cls-3"><path d="M28.87,25.93c.08,.1,.28,.21,.78-.25,1.36-1.23,2.13-3.51,1.76-5.75-.6-3.62-3.84-5.84-7.4-4.47-3.42,1.31-6.76,6.7-7.16,9.02-.2,1.15-.19,1.72,.42,2.07,5.05,2.9,2.33,6.85,.67,8.96-1.19,1.51-1.66,3.03,.05,4.17,1.21,.81,4.26,.16,6.06-1.8,3.2-3.5,3.89-8.66-1.47-14.28,.04-.08,.08-.15,.12-.23,3.01-5.43,6.86-5.25,6.23,1.8-.03,.34-.05,.6-.07,.77"/><path d="M11.13,21.92c.59-4.83,2.75-8.9,6.22-11.36,3.55-2.51,8.14-3.28,11.96-2.02,3.35,1.11,5.96,3.58,7.34,6.54,1.28,2.74,1.44,5.99,.53,9.32,.57-.15,1.15-.26,1.76-.33,.62-.07,1.24,.05,1.79,.32,.54-.32,1.11-.61,1.7-.86,.62-3.72,.2-7.35-1.28-10.54-1.97-4.22-5.61-7.39-10.27-8.93-3.24-1.07-7.06-1.32-10.48-.4-5.35,1.44-11.98,6.65-11.63,14.46,.19,4.3,2.07,3.89,2.37,3.8"/><path d="M31.36,37.72c-.97,2.47-1.61,4.87-1.61,7.33,0,3.56-1.49,6.25-4.08,7.77-2.7,1.58-6.52,1.68-9.1,.25-3.52-1.97-5.39-7.96-5.46-12.82-.43-.11-2.17-.28-2.35,3.81-.25,5.78,1.55,11.04,5.4,13.15,4.21,2.31,9.83,2.16,14.02-.3,4.13-2.42,6.45-6.7,6.45-12.04,0-1.24,.3-2.54,.77-3.92-1.66-.75-3.05-1.88-4.03-3.24"/><path d="M53.29,29.2h-2.94l-1,4.97c-.1,.32-.31,.27-.36,.25v-8.96c0-.6-.52-1.07-1.12-1.02-3.01,.22-5.73,1.34-7.58,2.99v-.17c0-.6-.52-1.07-1.11-1-4.06,.44-7.19,3.29-7.19,6.74s3.13,6.29,7.19,6.74c.59,.06,1.11-.41,1.11-1v-.17c1.85,1.65,4.51,2.77,7.52,2.99,.6,.04,1.12-.42,1.12-1.02v-3.74h4.36c2.03,0,2.7-1.65,2.7-3.68v-.24c0-2.03-.67-3.68-2.7-3.68"/></g></g></svg>