<?xml version="1.0" encoding="UTF-8"?><svg id="Laag_1" xmlns="http://www.w3.org/2000/svg" xmlns:xlink="http://www.w3.org/1999/xlink" viewBox="0 0 64 64"><defs><style>.cls-1{fill:none;}.cls-2{clip-path:url(#clippath);}.cls-3{clip-path:url(#clippath-1);}</style><clipPath id="clippath"><rect class="cls-1" width="64" height="64"/></clipPath><clipPath id="clippath-1"><rect class="cls-1" width="64" height="64"/></clipPath></defs><g class="cls-2"><g class="cls-3"><path d="M42.82,17c-1,0-1.94,.16-2.81,.45,0,.55-.01,1.1-.01,1.68,0,.5,0,.98,0,1.46,.79-.44,1.74-.69,2.81-.69,3.16,0,5.29,2.13,5.29,5.29,0,1.07-.25,2.02-.69,2.81,.48,0,.96,0,1.46,0,.58,0,1.13,0,1.68-.01,.29-.86,.45-1.8,.45-2.81,0-4.74-3.44-8.19-8.19-8.19"/><path d="M42.82,10.94c-.85,0-1.67,.07-2.46,.2-.11,.9-.19,2.01-.25,3.28,.87-.2,1.77-.32,2.72-.32,6.32,0,11.08,4.76,11.08,11.08,0,.95-.12,1.85-.32,2.72,1.27-.06,2.38-.15,3.28-.25,.13-.8,.2-1.62,.2-2.46,0-8.12-6.12-14.24-14.24-14.24"/><path d="M43.84,22H9.16c-1.19,0-2.16,.96-2.16,2.15v26.69c0,1.19,.97,2.16,2.16,2.16H43.84c1.19,0,2.16-.97,2.16-2.16V24.16c0-1.19-.97-2.15-2.16-2.15m-23.84,28.33l-6.24-3.04v-.25l6.24-2.94v6.23Zm9.41-2.94l-6.24,2.94v-6.23l6.24,3.04v.25Zm6.59,2.97c-1.74,0-3.15-1.41-3.15-3.15s1.41-3.15,3.15-3.15,3.15,1.41,3.15,3.15-1.41,3.15-3.15,3.15m4.99-12.43c0,1.15-.93,2.07-2.07,2.07H14.07c-1.14,0-2.07-.93-2.07-2.07v-9.85c0-1.15,.93-2.07,2.07-2.07h24.85c1.15,0,2.07,.93,2.07,2.07v9.85Z"/></g></g></svg>