<?xml version="1.0" encoding="UTF-8"?><svg id="Laag_1" xmlns="http://www.w3.org/2000/svg" xmlns:xlink="http://www.w3.org/1999/xlink" viewBox="0 0 64 64"><defs><style>.cls-1{fill:none;}.cls-2{clip-path:url(#clippath);}.cls-3{clip-path:url(#clippath-1);}</style><clipPath id="clippath"><rect class="cls-1" width="64" height="64"/></clipPath><clipPath id="clippath-1"><rect class="cls-1" width="64" height="64"/></clipPath></defs><g class="cls-2"><g class="cls-3"><path d="M41.26,41h-.6c-.06-.51-.13-1.16-.27-1.86-.2-1.11-.56-2.28-1.34-3.43-.19-.27-.45-.47-.75-.59,0-.1-.03-.2-.06-.3l-.27-.82c-.15-.45-.51-.8-.94-.94-.14-.05-.3-.07-.46-.07h-9.14c-.16,0-.31,.02-.46,.07-.44,.14-.79,.48-.94,.94l-.27,.82c-.03,.1-.05,.2-.06,.3-.3,.12-.57,.31-.75,.59-.78,1.14-1.13,2.32-1.34,3.43-.14,.7-.22,1.35-.27,1.86h-.6c-.41,0-.74,.3-.74,.66v2.66c0,.37,.33,.66,.74,.66h.27c0,.1,0,.16,0,.16v8.16s0,2.54,.17,3.25c.06,.26,.33,.44,.64,.44h2.37c.31,0,.58-.18,.64-.44,.19-.81,.17-2.56,.17-2.56h10s-.03,1.74,.17,2.56c.06,.26,.33,.44,.64,.44h2.37c.31,0,.58-.18,.64-.44,.17-.71,.17-3.25,.17-3.25v-8.16s0-.06,0-.16h.27c.41,0,.74-.3,.74-.66v-2.66c0-.37-.33-.66-.74-.66m-13.26,10.75c0,.14-.11,.25-.25,.25h-2.5c-.14,0-.25-.11-.25-.25v-1.5c0-.14,.11-.25,.25-.25h2.5c.14,0,.25,.11,.25,.25v1.5Zm-1.43-6.75h-1.18c-.23,0-.39-.2-.39-.43,0-.07,0-.14,0-.21h0c.04-1.53,.25-3.43,.51-5v-.02c.05-.18,.18-.32,.36-.33,0,0,.02,0,.03,0h12.18s.02,0,.03,0c.18,.01,.32,.15,.36,.33v.02c.26,1.57,.47,3.47,.51,5h0c0,.07,0,.14,0,.21,0,.24-.16,.43-.39,.43h-12.04Zm12.43,6.75c0,.14-.11,.25-.25,.25h-2.5c-.14,0-.25-.11-.25-.25v-1.5l.25-.25h2.5c.14,0,.25,.11,.25,.25v1.5Z"/><path d="M32,9L8,21V57h11V31h26v26h11V21l-24-12Zm4.5,16.2h-3c-.07,.74-.69,1.33-1.45,1.33s-1.38-.58-1.45-1.33h-3.12c-.41,0-.65-.47-.4-.8l.67-.91c.29-.39,.48-.84,.55-1.32l.58-3.73c.34-1.31,1.63-2.24,3.12-2.24s2.78,.93,3.12,2.24l.58,3.73c.07,.48,.26,.93,.55,1.32l.67,.91c.24,.33,0,.8-.4,.8"/></g></g></svg>