<?xml version="1.0" encoding="UTF-8"?><svg id="Laag_1" xmlns="http://www.w3.org/2000/svg" viewBox="0 0 64 64"><defs><style>.cls-1{fill:none;}</style></defs><rect class="cls-1" width="64" height="64"/><g><path d="m36.06,26.82c0,2.66-1.24,4.65-2.91,6.57-2.61,3-5.27,4.44-9.07,2.79,1.4,2.12,3.67,2.98,5.94,2.78,3.22-.28,5.76-3.39,7.39-6.2.79-1.36,1.3-2.75,1.53-4.2,1.33-1.22,2.07-3.17,2.07-5.56,0-.74,0-2.7-1.24-4.04.3-3.34.52-8.5-.78-10.59-1.6-2.56-3.55-3.82-7.26-2.98-2.44-1.16-4.09-1.88-8.36-.84-2.96.72-6.21,1.91-7.92,3.88-1.65,1.91-1.54,7.22-1.27,10.61-1.16,1.33-1.16,3.23-1.16,3.96,0,2.39.74,4.33,2.06,5.55.38,2.51,1.61,4.91,3.71,7.26-.11.81-.23,1.75-.35,2.73-3.17.93-9.8,3.15-12.02,5.57-2.87,3.12-4.39,14.89-4.39,14.89h30.99v-16.48c-.95,2.77-3.68,5.43-5.61,6.81-1.99-1.52-5.47-4.56-6.09-7.61-.16-.8-.09-1.21,0-1.98h0c.13-1.1.07-.58.75-4.87-2.28-2.2-4.1-4.87-4.1-8.06-1.62-.5-2.04-2.55-2.04-3.82s.32-1.96.77-2.17c.39-.18.77-.05,1.01.09.14.65.25,1.14.29,1.31.21.85,1.02.77,1.02.77v-6.75c2.07-.15,6.19-.75,10.75-3.11l5.25,3.53v6.33s.82.08,1.02-.77c.04-.17.15-.66.29-1.31.24-.14.62-.27,1.01-.09.45.21.77.9.77,2.17,0,1.27-.42,3.31-2.04,3.82Z"/><path d="m62.63,29h-14.8c-.36,0-.71.14-.97.4l-10.47,10.55c-.26.26-.4.6-.4.97v21.71c0,.75.61,1.37,1.37,1.37h25.27c.75,0,1.37-.61,1.37-1.37V30.37c0-.75-.61-1.37-1.37-1.37Zm-2.63,31h-20v-18l-2.74-.72c-.23-.07-.15-.28-.15-.28h10.15c.38,0,.68-.31.68-.68v-10.2s.17-.07.25.16l.8,2.73h11v27Z"/><rect x="51" y="39" width="6" height="2"/><rect x="48" y="46" width="9" height="2"/><rect x="43" y="46" width="3" height="2"/><rect x="48" y="50" width="9" height="2"/><rect x="43" y="50" width="3" height="2"/><rect x="43" y="54" width="3" height="2"/><rect x="48" y="54" width="9" height="2"/></g></svg>