<?xml version="1.0" encoding="UTF-8"?><svg id="Laag_1" xmlns="http://www.w3.org/2000/svg" xmlns:xlink="http://www.w3.org/1999/xlink" viewBox="0 0 64 64"><defs><style>.cls-1{fill:none;}.cls-2{clip-path:url(#clippath);}.cls-3{clip-path:url(#clippath-1);}</style><clipPath id="clippath"><rect class="cls-1" width="64" height="64"/></clipPath><clipPath id="clippath-1"><rect class="cls-1" width="64" height="64"/></clipPath></defs><g class="cls-2"><g class="cls-3"><path d="M44.9,30c.04-.7,.44-6.68-3.1-12.76-2.17-3.72-2.36-8.35-2.33-10.24h.54c.55,0,1-.45,1-1V3.5c0-.83-.67-1.5-1.5-1.5h-15c-.83,0-1.5,.67-1.5,1.5v2.5c0,.55,.45,1,1,1h.54c.02,1.89-.16,6.52-2.33,10.24-3.55,6.08-3.14,12.05-3.1,12.76l-.1,26.4c0,1.43,.85,2.76,2.16,3.28,1.62,.65,4.81,1.28,10.84,1.28s9.22-.62,10.84-1.28c1.31-.52,2.16-1.84,2.16-3.28l-.1-26.4Zm-20.9,25c1.86,1.22,14.58,2,14.58,2,.76,.06,.69,.48,.65,.57-1.59,.29-3.91,.54-7.23,.54-2.72,0-7.19-.09-9.72-1.11-.17-.07-.28-.25-.28-.45l-.06-26.55c-.13-3.58,.82-7.75,2.86-11.24,2.53-4.34,2.77-9.54,2.74-11.78,5.5-.02,3.31-.02,8.92,0-.03,2.24,.21,7.44,2.74,11.78,.44,.75,.81,1.51,1.12,2.24h-14.34c-1.83,3.72-1.99,7.28-1.99,8.35,0,28.38,0-3.25,0,25.65"/></g></g></svg>