<?xml version="1.0" encoding="UTF-8"?><svg id="Laag_1" xmlns="http://www.w3.org/2000/svg" viewBox="0 0 64 64"><defs><style>.cls-1{fill:none;}</style></defs><rect class="cls-1" width="64" height="64"/><g><path d="m32,49.44v-.83c0-.39.08-.78.2-1.15-1.34.75-2.52,1.24-3.15,1.47-1.49-.64-6.14-2.88-8.39-6.8,2.88-1.19,2.71-2.27,2.76-2.72.07-.58.58-5.32.58-5.32-2.52-2.48-3.6-5.57-4.06-8.28-.29-1.73-.25-3.34-.16-4.41,4.8-1.89,11.6-5.75,14.24-9.06,0,0,.32.01.12.5-.34.83-.85,1.81-1.55,2.98,1.24,2.63,3.47,4.56,5.68,5.93.07,1.03.07,2.47-.2,4.06-.53,3.18-2.82,7.63-5.34,9.18-1.72,1.06-4.87,1.23-6.71.44.42.84,1.27,1.84,3.15,2.31,2.54.63,4.85-.4,5.45-.75.11.79.22,1.59.29,2.28.04.41.14,1.36,2.61,2.63l2.38-2.13c-.91-.39-1.67-.76-2.12-1.12-.1-.85-.24-1.89-.39-2.89,2.31.24,4.33.52,5.92.94l2.31-2.08c.95-4.11,1.37-7.15,1.37-10.41,0-7.48-2.81-15.48-7.13-18.07-2.75-1.65-5.84-1.05-5.84-1.05,0,0-2.97-2.86-8.17-1.88-8.48,1.6-14.84,9.74-14.84,21,0,3.73.56,7.15,1.82,12.24.1.42.5.67.87.54,1.82-.64,4.29-1.01,7.36-1.3-.11.94-.24,1.99-.36,3.06-1.67,1.19-8.78,2.66-11.49,5.5-2.76,2.88-4.21,13.74-4.21,13.74h30v-5.07c-1.68-.33-3-1.79-3-3.49Z"/><path d="m62.64,47.79l-13.19-11.9c-.21-.2-.54-.2-.75,0l-13.26,11.9c-.23.21-.43.51-.43.82v.83c0,.31.39.56.7.56h2.3v12h22v-12h2.44c.31,0,.56-.25.56-.56v-.83c0-.31-.13-.61-.36-.82Zm-9.64,9.21h-8v-6h8v6Z"/></g></svg>