<?xml version="1.0" encoding="UTF-8"?><svg id="Laag_1" xmlns="http://www.w3.org/2000/svg" viewBox="0 0 64 64"><defs><style>.cls-1{fill:none;}</style></defs><rect class="cls-1" width="64" height="64"/><g><path d="m32.08,49.44v-.83c0-1.15.48-2.25,1.35-3.05l6-5.41c-1.6-.61-3.13-1.1-4.2-1.42-.16-1.12-.36-2.41-.55-3.48,1.79-2.17,2.89-4.4,3.25-6.7,1.33-1.22,2.07-3.17,2.07-5.56,0-.74,0-2.7-1.23-4.04.3-3.34.52-8.5-.79-10.59-1.6-2.56-3.55-3.82-7.26-2.98-2.44-1.16-4.09-1.88-8.36-.84-2.96.72-6.21,1.91-7.92,3.88-1.65,1.91-1.54,7.22-1.27,10.61-1.16,1.33-1.16,3.23-1.16,3.96,0,2.39.74,4.33,2.06,5.55.38,2.51,1.61,4.91,3.71,7.26-.11.81-.23,1.75-.35,2.73-2.51.73-9.67,3-12.03,5.57-2.87,3.12-4.39,14.89-4.39,14.89h34v-6.06c-1.66-.3-2.92-1.76-2.92-3.5Zm-16.08,2.89h-2.67v2.67h-2.67v-2.67h-2.67v-2.67h2.67v-2.67h2.67v2.67h2.67v2.67Zm4.48-9.9c-.24-.7-.34-1.41-.25-2.11.24-1.91.04-.55.82-5.44-2.28-2.2-4.1-4.87-4.1-8.06-1.62-.5-2.04-2.55-2.04-3.82s.32-1.96.77-2.17c.39-.18.77-.05,1.01.09.14.65.25,1.14.29,1.31.21.85,1.02.77,1.02.77v-6.75c2.07-.15,6.19-.75,10.75-3.11l5.25,3.53v6.33s.82.08,1.02-.77c.04-.17.15-.66.29-1.31.24-.14.62-.27,1.01-.09.45.21.77.9.77,2.17s-.42,3.31-2.04,3.82c0,3.7-2.53,6.5-5.34,8.88-.78.66-2.25,1.11-3.72,1.11-1.06,0-2.13-.29-2.93-.63.61.93,1.66,2.07,3.58,2.59,3.15.83,5.46-.91,5.46-.91,0,0,.28,1.91.27,2.42.05.59,0,1.18-.16,1.77-1.5,5.71-9.86,5.98-11.75.39Z"/><path d="m62.57,47.79l-13.19-11.9c-.21-.2-.54-.2-.75,0l-13.19,11.9c-.23.21-.36.51-.36.82v.83c0,.31.25.56.56.56h2.37v12h22v-12h2.37c.31,0,.56-.25.56-.56v-.83c0-.31-.13-.61-.36-.82Zm-9.57,9.21h-8v-6h8v6Z"/></g></svg>