<?xml version="1.0" encoding="UTF-8"?><svg id="Laag_1" xmlns="http://www.w3.org/2000/svg" xmlns:xlink="http://www.w3.org/1999/xlink" viewBox="0 0 64 64"><defs><style>.cls-1{fill:none;}.cls-2{clip-path:url(#clippath);}.cls-3{clip-path:url(#clippath-1);}</style><clipPath id="clippath"><rect class="cls-1" width="64" height="64"/></clipPath><clipPath id="clippath-1"><rect class="cls-1" width="64" height="64"/></clipPath></defs><g class="cls-2"><g class="cls-3"><path d="M56.13,51.18c.6-1.08,.95-2.32,.95-3.64,0-4.15-3.37-7.52-7.52-7.52-1.25,0-2.68,.28-3.68,.92l2.23,2.23c.42-.12,.89-.19,1.45-.19,2.53,0,4.58,2.05,4.58,4.58,0,.49-.1,.96-.24,1.4l2.24,2.23Z"/><path d="M52.84,50.72l-6.49-6.49-4.14-4.14-1.4-1.4-12.66-12.66L7.73,5.61l-2.12,2.12L25.89,28.01c-5.59,4.89-10.13,8.89-10.59,9.34-.1,.1-1.26,1.18-2.48,2.85-.53-.12-1.07-.19-1.64-.19-4.15,0-7.52,3.37-7.52,7.52s3.37,7.52,7.52,7.52,7.52-3.38,7.52-7.52c0-2.03-.63-3.82-2.31-5.19-.68,.59-1.41,1.59-1.63,2.34,.57,.76,.99,1.83,.99,2.85,0,2.52-2.05,4.58-4.58,4.58s-4.58-2.05-4.58-4.58,2.04-4.56,4.55-4.58c-.75,1.55-1.3,3.33-1.29,5.22v.32c.07,.01,.53,.03,.74,.03,.58,0,1.97-.19,2.24-1.92,.1-.48,.23-.95,.4-1.4h0v-.02s.04-.07,.05-.1c.74-2.04,2.35-4.19,3.69-5.37h0c.73-.73,1.39-1.35,1.39-1.35l6.43-5.66c.23,.25,.19,.53-.05,.9-2.61,3.99-3.09,4.79-3.09,5.92s.96,2.12,2.41,2.21c3.24,.32,9.59,.95,9.95,.98,2.24,.19,4.37,.39,5.55-1.03l3.04,3.04c-.36,.87-.57,1.81-.57,2.81,0,4.15,3.37,7.52,7.52,7.52,1,0,1.95-.2,2.82-.56l3.83,3.83,2.12-2.12-3.41-3.41-2.08-2.08Zm-3.28,1.4c-2.53,0-4.58-2.05-4.58-4.58,0-.14,.03-.26,.04-.4l4.93,4.93c-.13,.01-.26,.04-.4,.04"/><path d="M60.09,11.08c-.65-.38-2.55-1.44-4.73-2.64-2.89-1.55-5.74-1.19-8.26,1.03-.24,.21-1.29,1.13-2.87,2.51h0c-3.72,3.24-9.3,8.11-14.57,12.73l11.72,11.72c.35-1.99,1-8.09,1.22-12.13,.16-2.56-.54-3.47-1.48-3.47-.81,0-1.45,.27-3.99,1.65-.41,.22-.6-.08-.6-.08l6.4-5.34s2.13-1.86,3.37-2.93h0c1.45-1.27,2.4-2.1,2.56-2.25,2.51-2.28,4.03-1.44,5.03-.89,.86,.48,3.26,1.75,3.27,1.76,.52,.31,1.03,.38,1.53,.23,.98-.31,1.5-1.44,1.53-1.49l.12-.26-.25-.15Z"/></g></g></svg>