<?xml version="1.0" encoding="UTF-8"?><svg id="Laag_1" xmlns="http://www.w3.org/2000/svg" xmlns:xlink="http://www.w3.org/1999/xlink" viewBox="0 0 64 64"><defs><style>.cls-1{fill:none;}.cls-2{clip-path:url(#clippath);}.cls-3{clip-path:url(#clippath-1);}</style><clipPath id="clippath"><rect class="cls-1" width="64" height="64"/></clipPath><clipPath id="clippath-1"><rect class="cls-1" width="64" height="64"/></clipPath></defs><g class="cls-2"><g class="cls-3"><path d="M22.35,47.31c-2.43,1.07-6.14,1.4-6.35,1.42h0c.02-.22,.35-3.93,1.42-6.36,.73-1.66,2.31-2.74,3.95-2.61-4.13-2.23-8.8,.11-10.67,4.38-2.16,4.93-2.81,12.5-2.83,12.71h0v.02h.01c.21-.03,7.78-.68,12.71-2.84,4.27-1.87,6.61-6.54,4.38-10.67,.13,1.64-.94,3.22-2.61,3.95M57.96,8.86c-.12-1.12-.99-1.99-2.11-2.11-3.27-.34-9.78,.63-16.83,7.67-2.13,2.13-5.8,6.48-9.26,10.73l-4.84-1.31c-1.82-.5-3.83-.03-5.16,1.31l-5.36,5.36c-.43,.44,.02,1.28,.64,1.2,1.93-.25,4.94-.44,7.45,.21,2.87-2.72,4.93-4.67,5-4.72,.29-.23,.47,.02,.47,.02l-.93,1.3c-2.04,2.53-3.81,4.77-4.89,6.14-.63,.8-.56,1.94,.16,2.65l2.55,2.55,2.55,2.55c.72,.72,1.85,.78,2.65,.16,1.37-1.08,3.61-2.85,6.14-4.89l1.3-.93s.25,.18,.02,.47c-.05,.07-2,2.13-4.72,5,.65,2.51,.45,5.53,.21,7.45-.08,.61,.76,1.07,1.2,.64l5.36-5.36c1.34-1.33,1.8-3.34,1.31-5.16l-1.31-4.84c4.24-3.46,8.6-7.13,10.73-9.26,7.04-7.04,8.01-13.56,7.67-16.83m-11.89,9.78c-1.17-1.17-1.17-3.07,0-4.24s3.07-1.17,4.24,0c1.17,1.17,1.17,3.07,0,4.24-1.17,1.17-3.07,1.17-4.24,0"/></g></g></svg>