<?xml version="1.0" encoding="UTF-8"?><svg id="Laag_1" xmlns="http://www.w3.org/2000/svg" xmlns:xlink="http://www.w3.org/1999/xlink" viewBox="0 0 64 64"><defs><style>.cls-1{fill:none;}.cls-2{clip-path:url(#clippath);}.cls-3{clip-path:url(#clippath-1);}</style><clipPath id="clippath"><rect class="cls-1" width="64" height="64"/></clipPath><clipPath id="clippath-1"><rect class="cls-1" width="64" height="64"/></clipPath></defs><g class="cls-2"><g class="cls-3"><path d="M21,5.5c0-.28-.22-.5-.5-.5H6.5c-.28,0-.5,.22-.5,.5v12.5H1.5c-.28,0-.5,.22-.5,.5V61H9V25.53l1.4-.44,10.6-3.31V5.5Z"/><path d="M11,61h4v-5h3v5h9V22l-16,5V61Zm9-31h3v3h-3v-3Zm0,5h3v3h-3v-3Zm0,5h3v3h-3v-3Zm0,5h3v3h-3v-3Zm0,5h3v3h-3v-3Zm-5-20h3v3h-3v-3Zm0,5h3v3h-3v-3Zm0,5h3v3h-3v-3Zm0,5h3v3h-3v-3Zm0,5h3v3h-3v-3Z"/><path d="M62,31h-19c-.55,0-1,.45-1,1v29h9v-5h3v5h9v-29c0-.55-.45-1-1-1m-13,22h-3v-3h3v3Zm0-5h-3v-3h3v3Zm0-5h-3v-3h3v3Zm0-5h-3v-3h3v3Zm5,15h-3v-3h3v3Zm0-5h-3v-3h3v3Zm0-5h-3v-3h3v3Zm0-5h-3v-3h3v3Zm5,15h-3v-3h3v3Zm0-5h-3v-3h3v3Zm0-5h-3v-3h3v3Zm0-5h-3v-3h3v3Z"/><path d="M34.15,39.88c-.3-.24-.71-.24-.95,.06-.3,.24-.3,.65-.12,.95l1.42,2.14h-4.31c-.77,0-1.01,.83-1.01,1.54s.24,1.42,1.01,1.42h4.31l-1.42,2.13c-.06,.12-.12,.3-.12,.41,0,.18,.06,.41,.24,.53,.24,.24,.65,.3,.95,.06l5.04-4.03c.36-.3,.36-.89,0-1.19l-5.04-4.03Z"/></g></g></svg>