<?xml version="1.0" encoding="UTF-8"?><svg id="Laag_1" xmlns="http://www.w3.org/2000/svg" xmlns:xlink="http://www.w3.org/1999/xlink" viewBox="0 0 64 64"><defs><style>.cls-1{fill:none;}.cls-2{clip-path:url(#clippath);}.cls-3{clip-path:url(#clippath-1);}</style><clipPath id="clippath"><rect class="cls-1" width="64" height="64"/></clipPath><clipPath id="clippath-1"><rect class="cls-1" width="64" height="64"/></clipPath></defs><g class="cls-2"><g class="cls-3"><path d="M40.14,2.09c.86-.17,1.03-.3,1.03-.47s-.52-.34-1.38-.38c0,0-1.31,.21-1.24,.76,.07,.55,.72,.26,1.59,.09"/><path d="M27.5,27.23l2.91,1.29c.47,.21,1,.21,1.47,0,1.32-.61,3.17-1.69,3.88-2.99,.14-.25,.17-.55,.16-.83,0-.27-.03-.54-.06-.79-.1-.86-.8-1.53-1.66-1.59-.5-.03-1.09-.05-1.73-.04-.48,0-.94,.19-1.28,.53l-3.7,3.7v.72Z"/><path d="M21.93,13.86c.31,.03,1.24-.97,1.48-1.21,.24-.24,.22-1.73,0-2.03-.22-.31-.4-.74-.85-.56-.46,.18-1.66,2.89-1.6,3.22,.07,.33,.66,.54,.97,.57"/><path d="M35.03,3.08c.65-.12,1.8-.08,1.77-.74,0,0-.03-.48-2.1-.12-2.07,.36-2.35,.34-2.35,.82s2.03,.16,2.68,.03"/><path d="M28.11,5.27s1.39-.87,2.49-.86,.63-.88,.63-.88c0,0-.76-.77-3.01,.65-2.25,1.41-1.66,1.58-1.62,1.67,.04,.09,.68,.1,1.51-.58"/><path d="M24.98,8.22c.31-.59,1.2-.75,.82-1.25,0,0-.83-.21-1.59,.65-.76,.86-1.24,1.28-.93,1.72,.31,.45,1.39-.54,1.7-1.13"/><path d="M11.77,41.41l1.57,1.48c.36,.34,.89,.4,1.32,.15l.45-.27c.39-.23,.49-.56,.18-.87l-3.51-2.34c-.07-.05-.16-.08-.25-.08-.56,.02-2.44,0-2.44,1.24l1.74,.24c.32,.15,.62,.3,.95,.45"/><path d="M10.28,43.73l.52,.33c.64,.4,1.45,.41,2.1,.03h.01l-1.72-1.4c-.33-.27-.72-.43-1.14-.48l-1.79-.2c-.26-.03-.53,.08-.69,.28-.26,.33-.5,.68-.7,1.04l2.39,.09c.36,.01,.71,.12,1.02,.31"/><path d="M14.04,50.87l-1.54-.67c-.12-.05-.25-.03-.35,.05l-1.27,1.09c-.11,.1-.27,.11-.39,.03l-2.18-1.43c-.18-.12-.42-.13-.61-.02l-.54,.31c-.2,.12-.45,.1-.63-.04l-1.94-1.43c-.17-.13-.41-.08-.52,.1l-1.49,2.4c-.07,.12-.06,.26,.02,.37l.83,.91c.1,.13,.25,.21,.42,.23,0,0,1.66,.43,1.88,.14,.22-.3,.27-1.12,.27-1.12l1.26,.05c.07,0,.13,0,.19,.04l3.51,1.88c.12,.06,.26,.05,.36-.03l2.79-2.29c.19-.15,.15-.45-.08-.55"/><path d="M52,31l2.62-2.62c.24-.24,.38-.57,.38-.91v-2.19c0-.71-.57-1.28-1.28-1.28h-2.8c-.55,0-1.04-.35-1.21-.88l-.4-1.2c-.18-.55,.02-1.15,.5-1.47l4.21-2.81c.61-.41,.98-1.09,.98-1.83v-6.79c0-1.28-.62-2.48-1.66-3.22l-3.92-2.8c-.9-.64-2.04-.82-3.09-.48l-14.36,4.63c-.47,.15-.81,.55-.88,1.04l-.95,6.73c-.09,.61,.28,1.2,.86,1.39l1.11,.37c.52,.17,.88,.66,.88,1.21v2.02c0,.45,.35,.82,.8,.84,1.2,.06,2.31,.24,2.76,.69,.76,.76,.82,3.27,.83,3.9-.01,.09-.03,.18-.05,.28-.89,2.47-4.61,4.52-5.86,5.16-.25,.13-.55,.12-.8-.02l-4.09-2.31c-.37-.16-.6-.52-.6-.92v-4.67c0-.53,.32-1.01,.8-1.22h.02c.66-.3,.97-1.05,.71-1.72l-1.22-3.12c-.19-.49-.67-.81-1.19-.81-1.72,0-1.88,.14-2.87-.41-.68-.38-1.54-.06-1.82,.67-.28,.73-.44,7.43-1.75,11.09-1.77,4.95-5.48,8.08-5.48,8.08-.09,.23-.15,.46-.18,.7-.04,.3-.1,.73-.15,1.07-.05,.35,.07,.71,.32,.96,.95,.94,3.18,3.15,3.18,3.15,.78,.78,.61,2.08-.34,2.63l-2.39,1.4c-.24,.14-.26,.49-.03,.66,1.14,.85,2.13,1.58,2.2,1.63,.19,.14,.06,.57,.06,.57l-4.52-2.51c-.9-.52-1.94-.81-2.97-.79,0,0-5.26,.41-3.88,1.79,.7,.64,2.1,2.26,2.57,2.1,.31-.1,.72-.44,.72-.44l3.04,1.72c.23,.1,.23-.32,.46-.72,.23-.41,.72-.57,1.15-.4,0,0,3.36,1.46,3.92,1.62,.44,.12,.82,.05,1.15-.35,.29-.35,1.05-1.58,1.05-1.58,.27-.41,.75-.62,1.23-.56l6.89,.9c.39,.05,.73,.28,.93,.61,.49,1,.66,1.24,1.21,1.55,.08,.04,1,.44,2.18,.95v-10.56c0-6.13,7.31-10.55,17-10.55h4Z"/><path d="M48,53c7.85,0,14-3.38,14-7.68v-3.65c0-4.3-6.15-7.67-14-7.67s-14,3.37-14,7.67v3.65c0,.95,.31,1.85,.86,2.68-.55,.83-.86,1.72-.86,2.66v3.65c0,4.3,6.15,7.68,14,7.68s14-3.38,14-7.68v-3.65c0-.2-.03-.41-.05-.61-.72,.9-4.57,5.14-13.61,5.14-8.02,0-10.78-3.86-11.07-4.38-.12-.21-.2-.44-.08-.57,2.55,1.69,6.41,2.75,10.81,2.75m-11.3-11c0-2.84,5.06-5.15,11.3-5.15s11.3,2.31,11.3,5.15-5.06,5.15-11.3,5.15-11.3-2.31-11.3-5.15"/><path d="M45.85,43.73v.68h1.55v-.56c.31,.02,.67,.02,1.02,.02h.38v.54h1.52v-.62c2.78-.3,4.11-1.26,4.11-2.67,0-.55-.06-.78-.31-1.34h-2.06c.21,.52,.29,.78,.29,1.25,0,.62-.59,1.12-2.03,1.33v-1.76h-1.52v1.89c-.19,0-.38,.02-.61,.02-.27,0-.52-.01-.79-.02v-1.89h-1.55v1.75c-1.4-.21-2.13-.66-2.13-1.37,0-.41,.08-.65,.25-1.15h-2.17c-.17,.43-.23,.73-.23,1.12,0,1.42,1.44,2.42,4.28,2.78"/></g></g></svg>