<?xml version="1.0" encoding="UTF-8"?><svg id="Laag_1" xmlns="http://www.w3.org/2000/svg" xmlns:xlink="http://www.w3.org/1999/xlink" viewBox="0 0 64 64"><defs><style>.cls-1{fill:none;}.cls-2{clip-path:url(#clippath);}.cls-3{clip-path:url(#clippath-1);}</style><clipPath id="clippath"><rect class="cls-1" width="64" height="64"/></clipPath><clipPath id="clippath-1"><rect class="cls-1" width="64" height="64"/></clipPath></defs><g class="cls-2"><g class="cls-3"><path d="M52.83,8.61c-2.48-1.11-9.04-3.41-20.83-3.41s-18.35,2.3-20.83,3.41c-.72,.32-1.17,1.03-1.17,1.82v28.95c0,3.39,1.44,6.62,3.95,8.91,6.67,6.08,14.17,9.39,16.94,10.49,.71,.28,1.5,.28,2.21,0,2.77-1.1,10.27-4.41,16.94-10.49,2.51-2.29,3.95-5.52,3.95-8.91V10.43c0-.78-.45-1.5-1.17-1.82m-8.39,11.77l-12.32,20.4c-.34,.56-.96,.91-1.61,.91h0c-.66,0-1.27-.35-1.61-.92l-8.07-13.46c-.48-.8-.31-1.82,.41-2.42,.71-.6,1.75-.59,2.45,.02l6.66,5.77,11.08-12.53c.65-.73,1.75-.84,2.54-.26,.78,.58,1,1.67,.49,2.5"/></g></g></svg>