<?xml version="1.0" encoding="UTF-8"?><svg id="Laag_1" xmlns="http://www.w3.org/2000/svg" viewBox="0 0 64 64"><defs><style>.cls-1{fill:none;}</style></defs><rect class="cls-1" width="64" height="64"/><rect x="33" y="21" width="10" height="3"/><rect x="28" y="31" width="15" height="3"/><rect x="21" y="31" width="5" height="3"/><rect x="28" y="37" width="15" height="3"/><rect x="21" y="37" width="5" height="3"/><rect x="21" y="43" width="5" height="3"/><rect x="28" y="43" width="15" height="3"/><path d="m22,53.76c0-.61.09-1.2.24-1.76h-5.24v-26.71l-3.15-.93c-.34-.11-.22-.36-.22-.36h14.37c.55,0,1-.45,1-1v-14.37s.25-.11.36.23l.93,3.13h16.71v31.08c1.5-.96,3.2-1.62,5-1.9V9c0-1.1-.9-2-2-2h-21.17c-.53,0-1.04.21-1.41.59l-14.83,14.83c-.37.38-.59.88-.59,1.41v31.17c0,1.1.9,2,2,2h8.6c-.38-.84-.6-1.77-.6-2.76v-.48Z"/><path d="m54,44c-4.1,0-7.62,2.47-9.17,6.01h-16.08c-2.07,0-3.75,1.68-3.75,3.75v.48c0,2.07,1.68,3.75,3.75,3.75h.12l1.81-1.81c.39-.39,1.02-.39,1.41,0l1.81,1.81h2.15l1.81-1.81c.39-.39,1.02-.39,1.41,0l1.81,1.81h3.74c1.54,3.53,5.06,6.01,9.17,6.01,5.52,0,10-4.48,10-10s-4.48-10-10-10Zm3,12.5c-1.38,0-2.5-1.12-2.5-2.5s1.12-2.5,2.5-2.5,2.5,1.12,2.5,2.5-1.12,2.5-2.5,2.5Z"/></svg>