<?xml version="1.0" encoding="UTF-8"?><svg id="Laag_1" xmlns="http://www.w3.org/2000/svg" xmlns:xlink="http://www.w3.org/1999/xlink" viewBox="0 0 64 64"><defs><style>.cls-1{fill:none;}.cls-2{clip-path:url(#clippath);}.cls-3{clip-path:url(#clippath-1);}</style><clipPath id="clippath"><rect class="cls-1" width="64" height="64"/></clipPath><clipPath id="clippath-1"><rect class="cls-1" width="64" height="64"/></clipPath></defs><g class="cls-2"><g class="cls-3"><path d="M60.33,52.97h-.04c-.5-.07-1,.08-1.41,.37-1.36,.97-2.25,1.55-3.52,1.23-1.94-.48-3.37-2.26-3.3-4.37,.06-2.09,1.5-3.65,3.2-4.08,1.35-.34,2.63,.51,3.61,1.2,.42,.3,.92,.42,1.43,.39,.83-.06,1.76-1.04,1.69-2.05-.18-2.76-.67-5.37-.89-6.45-.06-.28-.34-.46-.62-.38-1.13,.33-4.04,1.07-7.47,1.24-.77,.04-1.43-.53-1.51-1.3h0c-.05-.48,.14-.93,.48-1.25,1.08-1.03,1.63-2.62,1.21-4.31-.38-1.51-1.62-2.74-3.15-3.09-2.84-.66-5.37,1.49-5.37,4.24,0,1.25,.52,2.38,1.36,3.17,.34,.32,.52,.77,.47,1.23v.02c-.08,.76-.75,1.33-1.51,1.3-3.32-.16-6.14-.86-7.35-1.2-.32-.09-.63,.15-.63,.48,0,3.08,0,15.99,0,20.82,0,1.01,.82,1.83,1.83,1.83h21.75c.24,0,.44-.16,.49-.39,.21-.99,.74-3.73,.92-6.63,.06-1-.67-1.87-1.66-2"/><path d="M42,23c0-.74,0-2.7-1.23-4.04,.3-3.34,.51-8.5-.79-10.59-1.6-2.56-3.55-3.82-7.26-2.98-2.44-1.16-4.09-1.88-8.36-.84-2.96,.72-6.21,1.91-7.92,3.88-1.65,1.91-1.54,7.22-1.27,10.61-1.16,1.33-1.16,3.23-1.16,3.96,0,2.39,.74,4.33,2.06,5.55,.38,2.51,1.61,4.91,3.71,7.26-.11,.81-.23,1.75-.35,2.73-2.51,.74-9.67,3-12.03,5.57-2.87,3.12-4.39,14.89-4.39,14.89h31v-16.28c-1.02,2.7-3.74,5.27-5.62,6.62-2.3-1.75-6.59-5.53-6.16-9.02,.24-1.91,.04-.55,.82-5.44-2.28-2.2-4.1-4.87-4.1-8.06-1.62-.5-2.04-2.55-2.04-3.82s.32-1.96,.77-2.17c.39-.18,.77-.05,1.01,.09,.14,.65,.25,1.14,.29,1.31,.08,.34,.34,.63,.55,.72h.01l1.01,.51c.08,1.72,1.52,3.1,3.29,3.1s3.31-1.46,3.31-3.25c0-.27-.04-.53-.11-.78,.59-.37,1.39-.37,1.98,0-.06,.25-.11,.51-.11,.78,0,1.79,1.48,3.25,3.31,3.25s3.21-1.38,3.29-3.1l1.01-.5h0c.28-.14,.46-.42,.53-.68,.06-.24,.25-1.13,.3-1.37,.24-.14,.59-.26,.98-.07,.45,.21,.77,.9,.77,2.17s-.42,3.31-2.04,3.82c0,2.27-.96,4.2-2.34,5.9h-.02c-.65,.81-1.39,1.56-2.18,2.27l-.02,.02c-1.33,1.2-2.53,1.8-4.51,1.8-1.06,0-2.12-.29-2.93-.64,1.17,1.77,2.92,2.71,5.03,2.79h0c2.44,.11,4.11-.96,5.89-2.86,1.93-2.07,3.52-4.87,3.94-7.54,1.33-1.22,2.07-3.17,2.07-5.56m-18.17,2.11c-1.03,0-1.86-.81-1.86-1.8s.83-1.8,1.86-1.8,1.86,.81,1.86,1.8-.83,1.8-1.86,1.8m8.38,0c-1.02,0-1.86-.81-1.86-1.8s.83-1.8,1.86-1.8,1.86,.81,1.86,1.8-.83,1.8-1.86,1.8m3.79-3.86h-1.26c-.61-.72-1.51-1.19-2.53-1.19s-1.89,.45-2.5,1.15c-.51-.3-1.08-.47-1.69-.47s-1.18,.18-1.69,.48c-.61-.7-1.5-1.15-2.5-1.15s-1.93,.47-2.53,1.19h-1.3v-4.99c2.07-.15,6.19-.75,10.75-3.11l5.25,3.53v4.57Z"/></g></g></svg>