<?xml version="1.0" encoding="UTF-8"?><svg id="Laag_1" xmlns="http://www.w3.org/2000/svg" xmlns:xlink="http://www.w3.org/1999/xlink" viewBox="0 0 64 64"><defs><style>.cls-1{fill:none;}.cls-2{clip-path:url(#clippath);}.cls-3{clip-path:url(#clippath-1);}</style><clipPath id="clippath"><rect class="cls-1" width="64" height="64"/></clipPath><clipPath id="clippath-1"><rect class="cls-1" width="64" height="64"/></clipPath></defs><g class="cls-2"><g class="cls-3"><path d="M53.67,37.36c-.75-.55-1.79-.45-2.41,.25l-10.54,11.92-6.33-5.48c-.67-.58-1.66-.59-2.33-.02-.68,.57-.84,1.54-.39,2.3l7.67,12.8c.32,.54,.91,.87,1.54,.87h0c.63,0,1.21-.33,1.54-.86l11.72-19.4c.48-.79,.28-1.82-.47-2.38m-23.03,4.98c1.51-1.27,3.69-1.25,5.19,.04l1.99,1.72,12.98-10.59c5.83-4.76,6.7-13.48,1.92-19.39-4.78-5.9-13.46-6.84-19.29-2.08L12.2,29.35c-5.83,4.76-6.7,13.48-1.92,19.38,4.78,5.9,13.46,6.84,19.29,2.08l1.49-1.21-1.29-2.15c-1.01-1.7-.65-3.85,.86-5.12m-8.36,5.93c-3.35,.46-5.91-.62-7.85-3.12-1.38-1.77-1.89-3.88-1.69-5.93l3.65,.57c-.24,3.07,2.68,7.26,6.55,7.87,.18,.38-.09,.52-.66,.6m4.23-23.45l10.39-8.48c3.53-2.88,8.75-2.25,11.58,1.25,2.86,3.54,2.34,8.78-1.15,11.63l-9.77,7.97c.18-1.79-1.08-4.77-3.37-7.6-2.75-3.4-6.01-5.38-7.67-4.77"/></g></g></svg>