<?xml version="1.0" encoding="UTF-8"?><svg id="Laag_1" xmlns="http://www.w3.org/2000/svg" xmlns:xlink="http://www.w3.org/1999/xlink" viewBox="0 0 64 64"><defs><style>.cls-1{fill:none;}.cls-2{clip-path:url(#clippath);}.cls-3{clip-path:url(#clippath-1);}</style><clipPath id="clippath"><rect class="cls-1" width="64" height="64"/></clipPath><clipPath id="clippath-1"><rect class="cls-1" width="64" height="64"/></clipPath></defs><g class="cls-2"><g class="cls-3"><path d="M55.06,43.01h0c-.18-.2-.46-.29-.73-.24l-3.17,.64-.04-.05-.33-.33,.84-2.89c.08-.26,0-.55-.18-.74h0c-.18-.2-.46-.29-.73-.24l-3.17,.64-.51-.51,.84-2.89c.08-.26,.01-.55-.17-.75h0c-.18-.2-.46-.29-.73-.24l-3.17,.64-.38-.38-1.97-1.97,.84-2.89c.08-.26,.01-.55-.18-.74h0c-.19-.2-.46-.29-.73-.24l-3.17,.64-2.33-2.33c-3.15,3.55-5.52,4.09-6.13,4.28-.21,.07-.35,.04-.42-.03,.58-.47,1.16-.97,1.73-1.54,6.05-6.05,6.17-12.76,.49-18.45-5.69-5.69-12.86-5.1-18.45,.48-5.59,5.59-6.17,12.76-.49,18.45,4.13,4.13,8.8,5.18,13.37,3.14l19.67,19.67c2.3,2.3,4.76,1.22,7.05-1.07,2.06-2.06,3.14-4.25,1.67-6.34l.87-2.98c.08-.26,.01-.55-.17-.74M19.54,21.98c-2.04,0-3.68-1.65-3.68-3.69s1.65-3.68,3.68-3.68,3.68,1.65,3.68,3.68-1.65,3.69-3.68,3.69m30.2,29.99c-.18,.18-.43,.28-.67,.28s-.48-.09-.67-.28l-15.38-15.38c-.37-.37-.37-.96,0-1.33,.37-.37,.96-.37,1.33,0l15.38,15.38c.37,.37,.37,.96,0,1.33"/></g></g></svg>