<?xml version="1.0" encoding="UTF-8"?><svg id="Laag_1" xmlns="http://www.w3.org/2000/svg" xmlns:xlink="http://www.w3.org/1999/xlink" viewBox="0 0 64 64"><defs><style>.cls-1{fill:none;}.cls-2{clip-path:url(#clippath);}.cls-3{clip-path:url(#clippath-1);}</style><clipPath id="clippath"><rect class="cls-1" width="64" height="64"/></clipPath><clipPath id="clippath-1"><rect class="cls-1" width="64" height="64"/></clipPath></defs><g class="cls-2"><g class="cls-3"><path d="M49.7,50.93c-1.22,3.63-4.65,6.26-8.7,6.26-5.07,0-9.18-4.11-9.18-9.18,0-1.74,.49-3.37,1.34-4.76-.6-.85-1.02-1.84-1.19-2.98-.07-.45-.12-.94-.18-1.44-2.34,2.35-3.79,5.59-3.79,9.18,0,7.18,5.82,13,13,13,4.33,0,8.15-2.12,10.51-5.37-.01-.03-.02-.05-.03-.07-.55-1.36-1.15-2.96-1.78-4.63"/><path d="M55.63,43.56c-1.57-5.4-2.09-5.4-5.15-6.1-2.82-.65-6.66-.85-6.66-.85v-9.29c0-4.88-4.63-5.59-7.03-4.57-1.06,.45-1.9,1.42-2.3,3.55-.73,3.83-.56,10.09-.05,13.6,.54,3.7,4.25,3.85,5.26,3.85h10.01c1.35,3.71,2.86,7.85,4.07,10.87,1.56,3.89,4.5,3.46,5.35,3.24-1.05-4.58-2.19-9.61-3.52-14.31"/><path d="M40.47,20.76c2.74,.02,4.35-1.89,4.37-4.66,.02-3.15-1.63-4.85-4.3-4.87-2.82-.02-4.35,1.97-4.37,4.81-.02,3,1.55,4.7,4.3,4.72"/><path d="M17.45,10.77c2.74,.02,4.35-1.89,4.37-4.66,.02-3.15-1.63-4.85-4.3-4.87-2.82-.02-4.35,1.97-4.37,4.81-.02,3,1.55,4.7,4.3,4.72"/><path d="M31.92,31.52c-.71-1.15-5.83-8.28-6.25-9-3.16-5.31-3.8-9.31-7.25-10.01-1.5-.3-3.2-.39-4.47,.57-1.71,1.3-2.06,3.64-1.91,6.81,.2,4.23,.75,5.69-.52,8.66-.82,1.9-1.24,2.89-1.84,5.16-.57,2.15-1.16,3.66-2.37,8.17,1.05,.78,3.81,2.17,8.04,2.23,.13,.28-.04,.83-.95,1.04-.69,.16-1.87,.33-3.27,.28-.53,2.61-2.02,7.15-2.55,10.31-.43,2.56,1.24,4.86,2.61,5.26,1.72-5.43,2.72-8.34,3.69-11.14,.34,2.81,.59,5.3,.73,6.25,.5,3.3,2.96,4.96,4.33,4.86l-.42-17.27c1.81-.45,3.17-1.16,3.17-1.16-.49-6.31-1.83-9.21-2.67-11.88,.33-3.25,.56-6.74,.59-9.5,.79,1.64,1.88,3.63,3.09,5.01,1.53,1.75,2.25,2.88,3.63,4.31,1.95,2.02,3.6,1.64,4.59,1.06"/></g></g></svg>