<?xml version="1.0" encoding="UTF-8"?><svg id="Laag_1" xmlns="http://www.w3.org/2000/svg" xmlns:xlink="http://www.w3.org/1999/xlink" viewBox="0 0 64 64"><defs><style>.cls-1{fill:none;}.cls-2{clip-path:url(#clippath);}.cls-3{clip-path:url(#clippath-1);}</style><clipPath id="clippath"><rect class="cls-1" width="64" height="64"/></clipPath><clipPath id="clippath-1"><rect class="cls-1" width="64" height="64"/></clipPath></defs><g class="cls-2"><g class="cls-3"><path d="M30.31,44.39c.93-1.43,2.19-3.65,2.19-3.65,0,0-1.07-1.74-3.5-1.74s-3.5,1.74-3.5,1.74c0,0,1.26,2.22,2.19,3.65-.68,1.91-1.31,4.75-1.69,6.88-3.58-4.9-5.53-11.47-6.88-16.84l-7.22,2.32c-.49,.16-.89,.51-1.11,.97l-.41,.86c-1.38,.56-2.51,1.18-3.09,1.86-2.17,2.57-3.29,15.49-3.29,15.49H29.22l2.76-4.79c-.38-2.11-1-4.89-1.67-6.77"/><path d="M17.06,25.49c.52,3.4,2.58,6.61,6.27,9.74,1.75,1.49,4.3,1.76,5.67,1.76s3.92-.27,5.67-1.76c3.63-3.09,5.73-6.36,6.26-9.74,1.33-1.22,2.07-3.17,2.07-5.56,0-.74,0-2.7-1.23-4.04,.3-3.34,.51-8.5-.79-10.59-1.6-2.57-3.55-3.82-7.26-2.98-2.44-1.16-4.09-1.88-8.36-.84-2.97,.72-6.21,1.91-7.92,3.88-1.65,1.91-1.54,7.22-1.27,10.61-1.16,1.33-1.16,3.22-1.16,3.96,0,2.39,.74,4.33,2.06,5.55m1.61-7.72c.14-.06,.27-.09,.4-.09,.24,0,.46,.09,.61,.18,.14,.65,.25,1.14,.29,1.31,.21,.85,1.02,.77,1.02,.77v-6.74c2.07-.15,6.19-.75,10.75-3.11l5.25,3.53v6.33s.82,.08,1.02-.77c.04-.17,.15-.66,.29-1.31,.16-.09,.37-.18,.61-.18,.13,0,.26,.02,.4,.09,.45,.21,.77,.9,.77,2.17s-.42,3.31-2.04,3.82c0,3.82-2.68,6.92-5.34,9.18-.78,.66-2.25,1.13-3.72,1.13s-2.94-.46-3.72-1.13c-2.66-2.26-5.34-5.32-5.34-9.18-1.62-.5-2.04-2.54-2.04-3.82s.32-1.96,.77-2.17"/><path d="M62.62,58l-4.53-7.85c1.03-1.75,.95-4.35-.38-6.65-.34-.6-.75-1.13-1.19-1.59-.57,2.28-2.12,3.9-3.01,4.14-.52,.15-.53-.24-.53-.24,1.62-1.57,2.26-4.17,2.08-6.22-.49-5.63-6.61-9.68-12.68-6.45-2.59,1.38-4.06,4.23-3.91,7.17v.02c-1.21,.59-2.32,1.58-3.09,2.92-1.49,2.58-1.27,5.59,.34,7.41,0,0-4.41,7.64-4.85,8.41-.43,.75,.11,1.38,.79,1.77,.69,.4,1.34,.52,1.78-.24,.44-.76,.54-.94,.54-.94l1.73,1c.48,.28,1.09,.11,1.37-.37l1-1.73c.28-.48,.11-1.09-.37-1.37l-1.73-1,2.33-4.04c1.69,.34,3.54-.21,5.01-1.49,.35,1.02,.94,1.87,1.67,2.44v7.53c0,1.03,1.07,1.66,2.09,1.66s2.09-.64,2.09-1.66l-.87-.76c-.33-.28-.33-.79,0-1.08l.87-.76v-.67l-.87-.76c-.33-.29-.33-.79,0-1.08l.87-.76v-1.66c.38-.29,.72-.66,1.01-1.09-1.53-1.37-2.22-3.38-2.09-4.17,.09-.54,.44-.38,.44-.38,.93,2.42,3.34,4.66,6.06,4.66l1.27,2.2,.98,.19c.51,.1,.82,.63,.65,1.13l-.32,.95,.67,1.16,.99,.19c.51,.1,.82,.63,.65,1.13l-.32,.95,.22,.38c.56,.96,1.53,.82,2.49,.26,.94-.55,1.27-1.74,.73-2.68m-19.96-11.47c-.63,1.71-2.68,3.42-4.26,2.51-1.2-.69-1.38-2.61-.42-4.28,.3-.53,.69-.96,1.11-1.29,.47,1.13,1.18,2.13,2.06,2.95,.99-1.45,.73-3.45,.73-3.45,.75,.32,1.47,1.67,.78,3.56m7.47-6.16c-1.07,.62-1.73,1.69-2.01,2.96-.33-.11-.67-.19-1.02-.19-.49,0-.96,.13-1.4,.34-.35-1.31-1.13-2.43-2.3-3.11-.59-.34-1.22-.53-1.87-.6,.28-2.67,2.52-4.77,5.26-4.77s5.02,2.13,5.26,4.83c-.67,.02-1.33,.19-1.92,.53"/></g></g></svg>