<?xml version="1.0" encoding="UTF-8"?><svg id="Laag_1" xmlns="http://www.w3.org/2000/svg" viewBox="0 0 64 64"><defs><style>.cls-1{fill:none;}</style></defs><rect class="cls-1" width="64" height="64"/><g><path d="m24.08,15.79c0,1,.81,1.82,1.82,1.82s1.82-.81,1.82-1.82-.81-1.82-1.82-1.82-1.82.81-1.82,1.82Z"/><path d="m30.13,14.77c1,0,1.82-.81,1.82-1.82s-.81-1.82-1.82-1.82-1.82.81-1.82,1.82.81,1.82,1.82,1.82Z"/><path d="m34.73,12c1,0,1.82-.81,1.82-1.82s-.81-1.82-1.82-1.82-1.82.81-1.82,1.82.81,1.82,1.82,1.82Z"/><path d="m39.74,9.45c1,0,1.82-.81,1.82-1.82s-.81-1.82-1.82-1.82-1.82.81-1.82,1.82.81,1.82,1.82,1.82Z"/><path d="m44.88,7.76c1,0,1.82-.81,1.82-1.82s-.81-1.82-1.82-1.82-1.82.81-1.82,1.82.81,1.82,1.82,1.82Z"/><path d="m23.19,18.8c0-1-.81-1.82-1.82-1.82s-1.82.81-1.82,1.82.81,1.82,1.82,1.82,1.82-.81,1.82-1.82Z"/><path d="m20.64,22.93c-2.18,1.27-3.75,4.98-3.55,6.04.2,1.11,1.32,1.84,2.41,1.52,4.3-1.25,7.97-3.79,11.83-6.46,4.93-3.4,10-6.91,17.24-8.53,1.57-.35,2.63-1.82,2.4-3.41l-.33-2.32c-.11-.73-.79-1.25-1.52-1.12-9.6,1.69-16.2,6.25-21.55,9.94-2.44,1.69-4.76,3.08-6.92,4.34Z"/><path d="m60,55V19.92c-3.51-2.81-8.14-3.59-13.03-2.03-6.05,1.93-10.23,4.7-16.02,8.54-1.34.89-2.77,1.83-4.33,2.84-7.7,4.97-14.35,5.18-17.78.57-2.69-3.61-2.26-10.51,1.43-13.45,2.48-1.98,7.17-4.15,11.94-1.53.36-1.44,1.54-2.56,3.01-2.83-6.14-4.09-13.08-2.49-17.55,1.31-3.5,2.98-4.67,7.15-4.67,11.98v29.67H0v3h63v-3h-3Zm-48,0h-6v-22.32c1.45,1.77,3.46,3.19,6,3.92v18.4Zm9,0h-6v-17.91c.27.01.53.05.81.05,1.59,0,3.33-.27,5.19-.81v18.67Zm9,0h-6v-19.78c1.52-.67,3.11-1.51,4.78-2.59.42-.27.81-.53,1.22-.79v23.16Zm9,0h-6.01v-25.13c3.85-2.54,5.02-3.26,6.01-3.86v28.99Zm9,0h-6v-30.69c1.89-.99,3.83-1.84,6-2.55v33.23Zm9,0h-6V21.13c2.25-.19,4.29.32,6,1.52v32.35Z"/></g></svg>