<?xml version="1.0" encoding="UTF-8"?><svg id="Laag_1" xmlns="http://www.w3.org/2000/svg" viewBox="0 0 24 24"><defs><style>.cls-1{fill:none;}</style></defs><path class="cls-1" d="m0,0v24h24V0H0Zm12,22.5c-5.8,0-10.5-4.7-10.5-10.5S6.2,1.5,12,1.5s10.5,4.7,10.5,10.5-4.7,10.5-10.5,10.5Z"/><polygon points="12.01 11.98 12 11.99 11.99 11.99 12 12.01 12.02 11.99 12.01 11.99 12.01 11.98"/><path d="m12,1.5C6.2,1.5,1.5,6.2,1.5,12s4.7,10.5,10.5,10.5,10.5-4.7,10.5-10.5S17.8,1.5,12,1.5Zm4.28,13.62c.29.33.29.83-.02,1.15-.32.3-.81.31-1.14.02l-3.12-2.77-3.12,2.77c-.33.29-.83.29-1.14-.02-.3-.32-.31-.82-.02-1.15l2.77-3.12-2.77-3.12c-.29-.33-.29-.83.02-1.14.32-.3.81-.31,1.14-.02l3.12,2.77,3.12-2.77c.32-.29.83-.28,1.14.02.3.32.31.81.02,1.14l-2.77,3.12,2.77,3.12Z"/></svg>