<?xml version="1.0" encoding="UTF-8"?><svg id="Laag_1" xmlns="http://www.w3.org/2000/svg" xmlns:xlink="http://www.w3.org/1999/xlink" viewBox="0 0 64 64"><defs><style>.cls-1{fill:none;}.cls-2{clip-path:url(#clippath);}.cls-3{clip-path:url(#clippath-1);}</style><clipPath id="clippath"><rect class="cls-1" width="64" height="64"/></clipPath><clipPath id="clippath-1"><rect class="cls-1" width="64" height="64"/></clipPath></defs><g class="cls-2"><g class="cls-3"><path d="M30.97,57.19c-7.22,.43-12.33-1.25-13.98-1.9-.15,.08-.1,.46,.19,.76,3.06,3.21,9,4.25,13.98,3.87,5.46-.42,11.12-2.28,13.9-5.51,.23-.27,.23-.62,.1-.66-1.55,.76-6.71,3.01-14.18,3.44"/><path d="M27.25,54.98c-3.74-.99-14.65-5.04-13.13-18.48,.56-4.91,2.64-8.78,6.2-11.49,4.37-3.33,9.97-4.1,13.75-3.7,3.06,.32,7.54,2.11,10.13,6.08,2.23,3.42,2.7,8.47,.59,12.67,.07,.16,.3,.17,.62-.2,3.46-4.09,3.26-10.82,.85-14.13-3.34-4.58-7.91-6.59-11.89-6.93-5.6-.48-11.46,.99-15.71,4.24-4.08,3.11-6.56,7.67-7.19,13.2-1.25,11.05,4.94,18.26,14.98,19.01,.66,.05,.85-.09,.8-.26"/><path d="M15.55,14.23c1.27-.71,5.06-2.56,11.37-3.38,5.7-.74,11.01,.42,12.51,.79,.16-.08,.19-.4-.21-.83-1.18-1.27-4.39-3.27-12.66-2.47-6.29,.61-9.62,3.59-10.89,5.16-.45,.56-.32,.69-.12,.73"/><path d="M35.28,6.18c5.18,.91,7.39,3.16,10,7.58,1.69,.96,3.45,2.31,4.84,3.7,.26-.01,.3-.22,.16-.82C46.74,1.22,29.78,3.18,24.33,5.78c-.45,.21-.53,.5-.36,.57,1.84-.29,6.94-.94,11.31-.17"/><path d="M34.78,35.95c-.78,.46-2.24,.15-3.67-1.33-.53,.09-.77,.61-.7,1.23,.37,3.26,5.15,3.47,6.93,1.17,.57-.73,1.08-2.02,.3-3.95-.62-1.55-2.05-2.71-3.92-3.17-2.3-.57-4.9,0-6.79,1.49-1.6,1.26-2.32,3.3-1.93,5.46,.74,4.1,5.64,8.36,12.31,6.41,6.21-1.82,7.78-7.73,5.36-12.63-2-4.05-6.35-6.58-11.08-6.41-1.99,.07-3.83,.45-5.48,1.08-.95,.36-.06,2.71,1.27,2.24,1.31-.46,2.74-.74,4.3-.79,4.44-.15,7.35,2.46,8.57,4.95,1.79,3.63,.59,8.09-4.17,9.15-4.96,1.1-7.99-1.84-8.46-4.44-.61-3.36,3.07-4.67,5.41-4.08,2.38,.59,2.83,2.95,1.73,3.59"/><path d="M49.05,47.1c-2.12,1.31-11.68,6.6-21.27,3.11-4.24-1.55-6.95-4.37-7.92-8.02-1.4-5.23,.5-10.41,4.7-13.2,.9-.6,.33-3.25-1.25-2.24-5.11,3.24-7.76,9.61-6.03,16.07,.82,3.08,3.12,7.25,9.41,9.64,6.85,2.61,16.4,1.37,20.46-2.32,.78-.71,1.44-1.52,1.93-2.43,.15-.28,.15-.56-.02-.6"/><path d="M20.07,18.26c1.93-.98,5.86-2.36,10.33-2.51,.92-.03,1.02-2.58-.1-2.55-3.97,.11-8.95,1.52-11.49,2.82-7.33,3.75-8.14,9.4-8.11,11.77,0,.54,.18,.68,.32,.6,1.77-4.63,4.74-7.95,9.05-10.14"/><path d="M33.3,13.17c-1.14,.02-1.06,2.52,.1,2.61,9.62,.74,18.91,7.51,16.89,18.57-.8,4.41-3.63,7.93-7.52,9.99-4.59,2.44-10.46,2.58-14.61,.35-3.27-1.76-5.16-4.79-5.49-8.77-.12-.08-.34-.09-.46,.44-.49,2.22-.81,6.95,4.63,10.54,2.23,1.47,5.17,1.9,8.06,1.9,3.14,0,6.37-.75,9.17-2.24,4.57-2.43,7.78-6.57,8.82-11.69,2.48-12.22-7.15-21.15-19.6-21.7"/></g></g></svg>