<?xml version="1.0" encoding="UTF-8"?><svg id="Laag_1" xmlns="http://www.w3.org/2000/svg" xmlns:xlink="http://www.w3.org/1999/xlink" viewBox="0 0 64 64"><defs><style>.cls-1{fill:none;}.cls-2{clip-path:url(#clippath);}.cls-3{clip-path:url(#clippath-1);}</style><clipPath id="clippath"><rect class="cls-1" width="64" height="64"/></clipPath><clipPath id="clippath-1"><rect class="cls-1" width="64" height="64"/></clipPath></defs><g class="cls-2"><g class="cls-3"><path d="M55,6H23c-1.1,0-2,.9-2,2v12.82c1.42,.1,2.45,.6,3.38,1.11,2.07-.37,4.67-.18,6.47,3.04,.33,.58,1.27,2.26,1.05,8.36,1.2,1.05,1.2,2.84,1.2,3.49,0,2.13-.71,3.83-1.97,4.81-.45,2.07-1.32,3.93-2.64,5.63,2.45,.68,5.32,1.63,7.51,2.77v-4.02h6v9h15V8c0-1.1-.9-2-2-2m-23,13h-6v-6h6v6Zm10,20h-6v-6h6v6Zm0-10h-6v-6h6v6Zm0-10h-6v-6h6v6Zm10,20h-6v-6h6v6Zm0-10h-6v-6h6v6Zm0-10h-6v-6h6v6Z"/><path d="M27.53,49.26c-.64-.17-1.07-.72-1.22-1.37-.13-.57-.19-1.23-.19-1.23,1.52-1.7,2.65-3.75,3.03-6.46,1.46-.45,1.75-2.26,1.75-3.4s-.2-1.74-.61-1.93c-.2-.09-.5-.09-.67-.05,.15-2.36,.29-7.03-.69-8.79-1.08-1.92-2.4-2.42-4.89-1.79-1.63-.87-2.75-1.72-5.61-.94-1.99,.54-4.06,1.43-5.2,2.9-1.24,1.59-1,6.24-.79,8.62-.18-.05-.51-.06-.73,.04-.41,.19-.61,.8-.61,1.93s.29,2.95,1.75,3.4c.47,3.88,2.41,6.16,4.8,8.17,.63,.53,1.77,.81,2.96,.86,.11,.19,.11,.42-.32,.56-.71,.23-2.94,.57-5.33-.68-.02-.01-.03-.02-.05-.03-1.79,.48-7.97,2.25-9.9,4.27-.85,.9-1.51,2.72-1.99,4.64H39c-.48-1.92-1.13-3.74-1.98-4.64-1.73-1.83-7.1-3.45-9.49-4.1"/></g></g></svg>