<?xml version="1.0" encoding="UTF-8"?>
<svg id="Zwart" xmlns="http://www.w3.org/2000/svg" viewBox="0 0 64 64">
  <path d="M17.53,45.08c-2.16.95-4.25,2.07-5.31,3.18-2.76,2.88-4.21,13.74-4.21,13.74h48s-1.45-10.86-4.21-13.74c-1.07-1.11-3.15-2.23-5.31-3.18-1.53-.7-5.89-2.44-6.29-2.68-.09-.84-.19-1.66-.28-2.46,1.04-.17,2.21-.07,3.08-.59,1.08-.65,1.53-2.19,2.49-2.99.96-.81,2.55-.99,3.38-1.93.83-.95.8-2.55,1.47-3.6.68-1.07,2.15-1.71,2.64-2.85.51-1.16-.03-2.67.26-3.88.29-1.23,1.44-2.35,1.48-3.6.04-1.3-.98-2.55-1.11-3.79-.13-1.3.6-2.74.26-3.94-.36-1.24-1.75-2.05-2.36-3.16-.61-1.11-.57-2.72-1.46-3.66-.85-.89-2.45-.94-3.58-1.65-1.02-.64-1.72-2.09-2.99-2.57-1.12-.42-2.62.17-3.95-.1-1.18-.24-2.29-1.41-3.64-1.53-1.2-.11-2.52.83-3.87.83S29.33,0,28.13.11c-1.35.12-2.46,1.28-3.64,1.53-1.33.28-2.83-.32-3.95.1-1.27.48-1.97,1.92-2.99,2.57-1.13.71-2.73.76-3.58,1.65-.9.94-.85,2.55-1.46,3.66-.61,1.11-2,1.91-2.36,3.16-.35,1.2.39,2.65.25,3.94-.13,1.24-1.15,2.48-1.11,3.79.04,1.24,1.19,2.36,1.48,3.6.29,1.21-.25,2.71.26,3.88.5,1.14,1.96,1.79,2.64,2.85.67,1.05.64,2.65,1.47,3.6.83.94,2.42,1.12,3.38,1.93.96.81,1.41,2.35,2.49,2.99.86.52,2.04.42,3.08.59-.09.79-.18,1.62-.28,2.46-.22.13-5.83,2.47-6.29,2.68ZM27.29,38.12h0c-2.29-2.16-4.34-4.92-4.34-8.3-1.49-.46-1.94-2.27-1.94-3.82,0-.64.06-1.13.17-1.48.07-.23.17-.38.29-.51.79.22,1.57.47,2.31.32,1.25-.24,2.18-1.54,3.35-2,1.18-.46,2.76-.16,3.84-.81,1.08-.65,1.51-2.18,2.47-3,.52-.44,1.22-.7,1.89-.99.05.03.1.06.14.1.96.81,1.4,2.34,2.47,2.99.84.51,1.97.46,2.98.63.12.89.16,1.84.14,2.83h0c.36-.3.84-.46,1.27-.26.45.21.67.9.67,2.17,0,1.55-.45,3.35-1.94,3.82,0,3.35-2.07,6.16-4.38,8.32h0c-1,.94-1.85,1.86-4.68,1.86-1.09,0-2.18-.18-2.99-.55.4.98,1.24,2.21,3.28,2.72,2.35.59,4.13-.42,4.79-1.01.06.68.14,1.62.18,1.95.21,1.87,2.64,2.42,6.4,3.99-2.16,5.71-11.65,8.06-11.65,8.06,0,0-9.49-2.34-11.65-8.06,3.74-1.57,6.19-2.12,6.4-3.99.05-.47.31-2.73.57-4.97-.01,0-.02-.02-.03-.03Z"/>
</svg>