<?xml version="1.0" encoding="UTF-8"?><svg id="Laag_1" xmlns="http://www.w3.org/2000/svg" xmlns:xlink="http://www.w3.org/1999/xlink" viewBox="0 0 24 24"><defs><style>.cls-1{fill:none;}.cls-2{clip-path:url(#clippath);}.cls-3{clip-path:url(#clippath-1);}</style><clipPath id="clippath"><rect class="cls-1" width="24" height="24"/></clipPath><clipPath id="clippath-1"><rect class="cls-1" width="24" height="24"/></clipPath></defs><g class="cls-2"><g class="cls-3"><path d="m19.27,11.89L12.48,3.39c-.48-.59-1.48-.59-1.95,0L3.73,11.89c-.38.48-.36,1.17.05,1.62.42.45,1.1.54,1.61.2l3.6-2.38v8.01c0,1.28,1.41,1.66,2.65,1.66s2.35-.38,2.35-1.66v-8.01l3.6,2.38c.21.14.45.21.69.21.34,0,.68-.14.92-.41.41-.45.44-1.14.05-1.62"/></g></g></svg>