<?xml version="1.0" encoding="UTF-8"?><svg id="Laag_1" xmlns="http://www.w3.org/2000/svg" xmlns:xlink="http://www.w3.org/1999/xlink" viewBox="0 0 64 64"><defs><style>.cls-1{fill:none;}.cls-2{clip-path:url(#clippath);}.cls-3{clip-path:url(#clippath-1);}</style><clipPath id="clippath"><rect class="cls-1" width="64" height="64"/></clipPath><clipPath id="clippath-1"><rect class="cls-1" width="64" height="64"/></clipPath></defs><g class="cls-2"><g class="cls-3"><path d="M42,19V6c0-1.65-1.35-3-3-3s-3,1.35-3,3v13h-8V6c0-1.65-1.35-3-3-3s-3,1.35-3,3v13h-5V58c0,1.66,1.34,3,3,3h24c1.66,0,3-1.34,3-3V19h-5Zm-1.75,16.25h-1.25v1.81c0,.89-.39,1.73-1.08,2.3l-4.92,4.1v7.23c1.02,.4,1.75,1.39,1.75,2.56,0,1.52-1.23,2.75-2.75,2.75s-2.75-1.23-2.75-2.75c0-1.17,.73-2.15,1.75-2.56v-2.23l-4.92-4.1c-.69-.57-1.08-1.41-1.08-2.3v-2.76c-1.02-.4-1.75-1.39-1.75-2.56,0-1.52,1.23-2.75,2.75-2.75s2.75,1.23,2.75,2.75c0,1.17-.73,2.16-1.75,2.56v2.76c0,.3,.13,.58,.36,.77l3.64,3.03V28h-2l3-5.4,3,5.4h-2v12.86l3.64-3.03c.23-.19,.36-.47,.36-.77v-1.81h-1.25v-4.5h4.5v4.5Z"/></g></g></svg>