<?xml version="1.0" encoding="UTF-8"?><svg id="Laag_1" xmlns="http://www.w3.org/2000/svg" xmlns:xlink="http://www.w3.org/1999/xlink" viewBox="0 0 64 64"><defs><style>.cls-1{fill:none;}.cls-2{clip-path:url(#clippath);}.cls-3{font-family:MyriadPro-Regular, 'Myriad Pro';font-size:7px;}.cls-4{clip-path:url(#clippath-1);}.cls-5{clip-path:url(#clippath-3);}.cls-6{clip-path:url(#clippath-2);}</style><clipPath id="clippath"><rect class="cls-1" x="622.17" y="822.97" width="64" height="64"/></clipPath><clipPath id="clippath-1"><rect class="cls-1" x="622.17" y="822.97" width="64" height="64"/></clipPath><clipPath id="clippath-2"><rect class="cls-1" width="64" height="64"/></clipPath><clipPath id="clippath-3"><rect class="cls-1" width="64" height="64"/></clipPath></defs><g class="cls-2"><g class="cls-4"><text class="cls-3" transform="translate(-3.67 7.94)"><tspan x="0" y="0">0303 politie </tspan></text></g></g><g class="cls-6"><g class="cls-5"><path d="M26,7s-2.54,13.44-2.61,13.73c-.1,.35-.39,.26-.39,.26V6L4.17,14.58c-.71,.32-1.17,1.04-1.17,1.82V56c0,.73,.75,1.21,1.42,.91l18.55-9.01,17.18,8.67c.54,.27,1.18,.29,1.73,.03l17.96-8.19c.71-.33,1.17-1.04,1.17-1.82V7c0-.73-.75-1.21-1.42-.91l-18.58,8.99L26,7Z"/></g></g></svg>