<?xml version="1.0" encoding="UTF-8"?><svg id="Laag_1" xmlns="http://www.w3.org/2000/svg" xmlns:xlink="http://www.w3.org/1999/xlink" viewBox="0 0 64 64"><defs><style>.cls-1{fill:none;}.cls-2{clip-path:url(#clippath);}.cls-3{clip-path:url(#clippath-1);}</style><clipPath id="clippath"><rect class="cls-1" width="64" height="64"/></clipPath><clipPath id="clippath-1"><rect class="cls-1" width="64" height="64"/></clipPath></defs><g class="cls-2"><g class="cls-3"><path d="M55.5,35h-8.5v-12.5c0-.83-.67-1.5-1.5-1.5H18.5c-.83,0-1.5,.67-1.5,1.5v12.5H8.5c-.83,0-1.5,.67-1.5,1.5v24c0,.83,.67,1.5,1.5,1.5h11.41c.82,0,1.49-.66,1.5-1.49,.04-5.8,4.79-10.51,10.59-10.51s10.54,4.72,10.59,10.51c0,.82,.68,1.49,1.5,1.49h11.41c.83,0,1.5-.67,1.5-1.5v-24c0-.83-.67-1.5-1.5-1.5m-35.5-4.2c.66-.99,1.45-1.58,2.21-1.65,1.96-.17,2.51,3.88,6.63,3.62,2.65-.17,3.76-2.05,5.64-4.55,2.7-3.58,6.37-5.38,9.52-2.82v9.6H20v-4.2Zm25.5,28.2c-.8-6.74-6.56-12-13.5-12s-12.7,5.26-13.5,12H10v-21h4.06v5.56c0,1.58-.78,2.6-1.13,4.02-.38,1.52,.39,3.41,2.55,3.41s3.07-1.78,2.46-3.45c-.55-1.53-1-2.33-1-4.04v-5.5h6.02c.75,3.56,4.01,6.25,7.5,6.8,5.49,.88,9.71-3.98,13.42-1.8,1.56,.92,3.89,3.77,3.89,7.33,0,1.87-1.9,2.43-1.37,4.45,.28,1.08,1.14,2.06,2.73,2.06,2.01,0,2.92-1.43,2.61-3.11-.26-1.47-1.18-1.84-1.4-3.41-.19-1.31,.02-2.44,1.59-2.43,.69,0,1.45,.78,2.08,2.38v8.72h-8.5Z"/><path d="M14.67,19H49.33c.64,0,1.2-.4,1.41-1,.21-.6,.02-1.27-.47-1.67L32.94,2.25c-.55-.45-1.34-.45-1.89,0L13.72,16.34c-.49,.4-.68,1.07-.47,1.67,.21,.6,.78,1,1.41,1"/></g></g></svg>