<?xml version="1.0" encoding="UTF-8"?><svg id="Laag_1" xmlns="http://www.w3.org/2000/svg" xmlns:xlink="http://www.w3.org/1999/xlink" viewBox="0 0 64 64"><defs><style>.cls-1{fill:none;}.cls-2{clip-path:url(#clippath);}.cls-3{clip-path:url(#clippath-1);}</style><clipPath id="clippath"><rect class="cls-1" width="64" height="64"/></clipPath><clipPath id="clippath-1"><rect class="cls-1" width="64" height="64"/></clipPath></defs><g class="cls-2"><g class="cls-3"><path d="M52.37,48.78h-.55s.09-2.31-1.57-2.58c-1.66-.28-4.62-.37-8.12-2.58-3.51-2.22-4.06-7.66-4.24-10.57-.18-2.91,1.75-20.72,1.75-21.36s-1.94-.74-4.89-.65c-2.95,.09-7.43,.69-7.43,.69,0,0,0,.76,.12,3.28,.12,2.6-1,10.8-1,10.8,0,0,.28-5.63,.18-8.12-.09-2.49-.37-6.37-.74-6.68-.37-.31-1.75-.15-5.72,0-3.97,.15-7.57,.49-8.31,.77-.74,.28,.18,4.43,.83,11.91,.65,7.48,1.29,9.97,2.12,13.66,.83,3.69,.09,4.71-.28,6.37-.37,1.66,.19,3.32,.19,3.32l-.65,.19,.83,3.6,2.58,.65,2.86-.19s.83,.65,2.03,1.2c1.2,.55,5.91,.92,10.15,.55,2.65-.23,4.15-.79,4.9-1.17,.01-.52,.03-1.05,.04-1.41,0-.12-.4-.24-.4-.36-.02-.9-.17-1.24-.76-1.86-.69-.72-1.95-.94-4.08-1.87-2.12-.92-2.85-2.93-2.85-2.93,0,0,.56,.48,2.25,1.35,2.26,1.16,3.07,1.35,4.07,1.73,2.35,.9,2.49,1.74,2.66,3.39v1.62c.48,.1,1.45,.3,2.37,.49,1.29,.28,3.51,0,6.28-.46,2.77-.46,5.26-1.02,5.35-1.38,.09-.37,0-1.38,0-1.38"/></g></g></svg>