<?xml version="1.0" encoding="UTF-8"?><svg id="Laag_1" xmlns="http://www.w3.org/2000/svg" xmlns:xlink="http://www.w3.org/1999/xlink" viewBox="0 0 64 64"><defs><style>.cls-1{fill:none;}.cls-2{clip-path:url(#clippath);}.cls-3{clip-path:url(#clippath-1);}</style><clipPath id="clippath"><rect class="cls-1" width="64" height="64"/></clipPath><clipPath id="clippath-1"><rect class="cls-1" width="64" height="64"/></clipPath></defs><g class="cls-2"><g class="cls-3"><path d="M51.7,16c-1.61-1.11-2.47-2.85-3.44-4.04-.94-1.14-1.9-2.08-3.26-2.31l1.95-4.85s-1.24-.82-3.72-.63c-2.4,.18-3.21,1.05-3.21,1.05l2.71,4.64c-2.63,.87-3.47,3.92-1.84,9.99,1.55,5.79,.61,9.81-1.97,12.73-.28,.31-.51,.28-.56,.13,1.24-4.36,1.54-6.02-.35-11.72-2.33-7-.01-9.58-.01-12,0-3.31-2.68-6-5.99-6-2.86,0-5.24,2-5.85,4.67-1.08-1.03-2.54-1.67-4.15-1.67-3.31,0-6,2.69-6,6,0,.38,.04,.75,.11,1.11-.36-.07-.73-.11-1.11-.11-3.31,0-6,2.69-6,6,0,1.73,.74,3.29,1.91,4.38-2.28,.85-3.91,3.04-3.91,5.62,0,2.32,1.32,4.33,3.25,5.33-1.36,1.1-2.23,2.78-2.23,4.67,0,3.87,3.65,6.84,7.49,5.78,2.28-.63,6.06-1.87,9.12-2.9,1.86,2.69,4.71,4.86,9,5.72l1.22,8.41c-1.61,.57-3.71,2.15-3.5,3.11,.12,.54,.75,.59,1.39,.24,.57-.31,2.18-1.36,3.4-1.36,1.15,0,4.12,1.31,5.73,2.14,.49,.25,1.32,.19,1.35-.43,.03-.64-.69-1.35-1.71-1.98,2.17,.22,4.09,.8,4.11,.8,1.02,.31,1.94-.8-.55-1.96-.76-.35-2.29-.8-4.07-.9l1.52-8.34c9.94-3.23,5.75-17.5,4.44-21.31-1.43-4.19-3.2-8.83-.99-10.04,2.21-1.21,5.7,.93,5.7,.93,.35,.04,.52-.58,.03-.92m-12.69,40.44c-.6-.21-1.55-.38-2.09-.49l.09-7.96c.27,0,.63,.02,.9,.02,.44,0,1.1-.02,1.5-.05l-.41,8.48Z"/></g></g></svg>