<?xml version="1.0" encoding="UTF-8"?>
<svg id="Zwart" xmlns="http://www.w3.org/2000/svg" viewBox="0 0 64 64">
  <path d="M36.14,27.86c5.32,5.52,14.2,5.52,19.72,0,5.52-5.52,5.52-14.2,0-19.72-5.32-5.52-14.2-5.52-19.72,0-5.52,5.32-5.52,14.2,0,19.72ZM48.31,8.29c.28.01.44.07.44.12s-.06.09-.33.15c-.28.06-.48.15-.51-.03-.02-.18.4-.24.4-.24ZM46.68,8.6c.66-.12.67.04.67.04.01.21-.35.2-.56.24-.21.04-.86.14-.86-.01s.09-.15.75-.26ZM44.62,9.22c.72-.45.96-.21.96-.21,0,0,.15.29-.2.28-.35,0-.8.27-.8.27-.27.22-.47.21-.48.18-.01-.03-.2-.08.52-.53ZM43.34,10.32c.24-.28.51-.21.51-.21.12.16-.16.21-.26.4-.1.19-.44.5-.54.36-.1-.14.06-.28.3-.55ZM42.81,11.1c.15-.06.2.08.27.18.07.1.08.57,0,.65-.08.08-.37.4-.47.39-.1-.01-.29-.08-.31-.18-.02-.11.36-.97.51-1.03ZM39.29,20.49s.06,0,.08.02l1.12.75c.1.1.07.21-.06.28l-.14.08c-.14.08-.31.06-.42-.05l-.5-.47c-.1-.05-.2-.09-.3-.14l-.55-.07c0-.4.6-.39.78-.4ZM38.03,21.39c.05-.07.14-.1.22-.09l.57.06c.13.01.26.07.37.15l.55.44h0c-.21.12-.47.12-.67,0l-.17-.1c-.1-.06-.21-.1-.32-.1l-.76-.03c.07-.11.14-.22.22-.33ZM38.29,22.23c.33,0,.66.08.95.25l1.44.8s.04-.14-.02-.18c-.02-.02-.34-.25-.7-.52-.07-.05-.07-.16.01-.21l.76-.45c.3-.18.36-.59.11-.84,0,0-.71-.71-1.02-1.01-.08-.08-.12-.19-.1-.31.02-.11.04-.25.05-.34.01-.08.03-.15.06-.23,0,0,1.18-1,1.75-2.58.42-1.17.47-3.31.56-3.54.09-.23.36-.33.58-.21.32.18.37.13.92.13.17,0,.32.1.38.26l.39.99c.08.21-.02.45-.23.55h0c-.16.07-.26.22-.26.39v1.49c0,.13.07.24.19.3l1.3.74c.08.04.17.05.25,0,.4-.2,1.59-.86,1.87-1.65,0-.03,0-.06.01-.09,0-.2-.02-1-.26-1.24-.15-.15-.5-.2-.88-.22-.14,0-.26-.12-.26-.27v-.64c0-.18-.11-.33-.28-.39l-.36-.12c-.19-.06-.3-.25-.28-.44l.3-2.15c.02-.16.13-.28.28-.33l4.58-1.48c.33-.11.7-.05.99.15l1.25.89c.33.24.53.62.53,1.03v2.17c0,.23-.12.45-.31.58l-1.34.9c-.15.1-.22.29-.16.47l.13.38c.06.17.21.28.39.28h.89c.23,0,.41.18.41.41v.7c0,.11-.04.21-.12.29l-1.19,1.19c-.17.17-.17.45.01.62h.01c.18.17.18.45.01.63l-.82.82c-.09.09-.22.13-.35.12l-1.73-.25c-.18-.03-.36.07-.43.24l-.07.17c-.05.12-.04.26.03.38l1.35,2.2c.06.1.08.23.04.34l-.55,1.64c-.03.05-.07.11-.1.16l-.71.62c-.08.08-.12.18-.12.29v.22c0,.15.09.3.23.37l.19.09c.08.04.41.67.49.81,0,.23-.18.41-.41.41h-1.22c-.18,0-.34-.11-.39-.28l-.17-.55c0-.08,0-.16,0-.24l.36-1.15c.06-.2-.04-.41-.23-.5,0,0-2.38-1.01-2.46-1.05-.18-.1-.23-.17-.39-.49-.06-.11-.17-.18-.3-.2l-2.2-.29c-.15-.02-.31.05-.39.18,0,0-.24.39-.34.5-.11.13-.23.15-.37.11-.18-.05-1.25-.52-1.25-.52-.14-.06-.29,0-.37.13-.07.13-.07.26-.15.23l-.97-.55s-.13.11-.23.14c-.15.05-.6-.47-.82-.67-.44-.44,1.24-.57,1.24-.57ZM45.57,15.17c.11-.11.25-.17.41-.17.2,0,.39,0,.55.01.28.02.5.23.53.51,0,.08.02.17.02.25,0,.09,0,.19-.05.27-.23.42-.82.76-1.24.96-.15.07-.32.07-.47,0l-.93-.41v-.23l1.18-1.18ZM36.91,23.48c.04-.06.11-.07.17-.03l.62.46c.06.04.14.05.2.01l.17-.1c.06-.03.13-.03.19,0l.7.46s.09.02.13,0l.4-.35s.07-.03.11-.02l.49.21c.07.03.09.13.02.18l-.89.73s-.08.03-.12.01l-1.12-.6s-.04-.01-.06-.01l-.4-.02s-.01.26-.08.36c-.07.09-.6-.04-.6-.04-.05,0-.1-.03-.13-.07l-.26-.29s-.03-.08,0-.12l.47-.76Z"/>
  <path d="M51.95,33.03c-.12,2.19-.57,4.29-1.34,6.24-1.01.45-1.98.64-1.98.64,0,0-.22,1.56-.95,2.87-.29.51-1.07.78-1.42,1.28-.63.9-.45,2.49-1.17,2.85-1.29.63-2.78.92-3.13.59-.49-.47-1.58-2.45-1.58-3.11v-4.75c0-.85-1.14-2.87-1.14-2.87,0,0-2.69-.03-3.72-.03s-2.6-1.48-2.6-1.48c0,0-.87-2.9,0-4.7.39-.81.87-1.29,1.29-1.57-2.65-2.83-4.17-6.4-4.37-10.22l-.51.27-1.34-1.64.63-2.34c.06-.47-.17-.96-.58-1.23-.48-.31-1.09-.25-1.46.15l-.55.6.37,2.22-.14.37-1.11-.75-.09-1.42-1.37-.26s-.17,1.11-.62,1.38c-.45.26-1.53-.09-1.75.62-.31,1.01.58.47.45,2.72l-.04.74.73-.33.26-.88.68-.17c.64-.15.1-1.67.67-1.97l2.77,2.62s1,2.53.45,3.2c-.54.67-2.38-.35-2.38-.35,0,0-.28,1.65-1.97,1.7-1.87.06-2.06,1.92-2.06,1.92,0,0-1.74.39-1.8.99-.07.6.32,2.01-.18,2.08-.5.07-.52.22-.72-.44-.2-.66-.19-1.68-.64-2.35-.45-.67-1.31-1.2-2.03-.76-.72.44-1.19,2.76-.27,3.03.93.27,1.35-.24,1.76.54.41.78-.23,3.1.52,4.24l1.24.57,1.43,1.77,1.75.14c.65.05,1.27.31,1.78.75l.44.38c.61.52.26.47,1.02.61l.92.16c.41.07.75.37.89.77l.36.73c1.4.52.77.16,2.05.89l.58,2.15c-.93,2.05-.65,3.02-2.28,3.16,0,0-.85.13-1.26.88-.25.45-1.8,3.62-2.09,4.21-.4-.17-.78-.36-1.17-.55-.33-.31-.61-.74-.63-1.34-.08-1.98-.26-4.66-.53-5.32-.27-.67-.78-1.22-1.41-1.56-.79-.43-1.54-.92-2.08-1.63-.35-.46-.18-.95-.35-1.38-.49-1.27-.86-1.32-.53-1.89.34-.56.83-1.42.83-1.42l-1.33-.65-.56-1.26-.75-1.69-1.2-.93c-.73-.57-1.27-1.36-1.53-2.25l-.41-1.4s-.03-.06-.04-.1c1.94-7.59,8.21-13.45,16.03-14.77.45-.08,1.35-.21,2.26-.25,0,0,0,0,0,0,.57-1.45,1.36-2.8,2.35-4.02-.42-.02-.85-.03-1.28-.03-13.25,0-24,10.75-24,24s10.75,24,24,24,24-10.75,24-24c0-.44-.01-.87-.04-1.31-1.23.98-2.58,1.76-4.01,2.34Z"/>
</svg>