<?xml version="1.0" encoding="UTF-8"?>
<svg id="Zwart" xmlns="http://www.w3.org/2000/svg" viewBox="0 0 64 64">
  <path d="M49.91,41.95l.32-3.61-2.48-.33-.37,4.13c-.02.26.03.52.18.76l3.2,5.3,1.82-1.82-2.67-4.43Z"/>
  <path d="M60.13,50.9l-6.1-3.14-1.8,1.8,7.39,2.54c.3.1.64-.03.79-.32.17-.32.04-.72-.28-.88Z"/>
  <path d="M4.38,50.86c-.32.14-.48.5-.37.84.12.36.51.56.87.44l9.52-3.12-1.43-2.01-8.59,3.86Z"/>
  <path d="M14.61,45.86l1.47,2.07,6.16-6.27-2.51-1.02c-1.3,1.32-3.87,3.93-5.12,5.21Z"/>
  <path d="M38.84,38.87c.26-1.65,2.22-14,2.22-14,.07-.01.29-.01.31.3.03.46.25,4.75.34,6.43l6.45,1.71-.24,2.7,2.48.33.34-3.86c.05-.59-.33-1.16-.92-1.32l-4.46-1.19c.85-.61,1.59-1.37,2.2-2.22.56,1.39,1.92,2.37,3.51,2.37.26,0,.51-.03.75-.08,1.39,3.14,4.22,9.53,4.22,9.53.11.26.51.1.42-.16l-3.04-10.15c.86-.69,1.42-1.74,1.42-2.94,0-.96-.37-1.82-.95-2.49.32-.9.54-1.77.73-2.68.68-3.34.59-6.89-.64-10.09-.23-.63-1.19-.29-.97.34,1.11,3.69.65,7.78-.79,11.33-.37-.12-.75-.2-1.16-.2-.68,0-1.32.2-1.87.51.01-.19.04-.39.04-.58,0-5.09-4.13-9.22-9.22-9.22-1.01,0-1.98.16-2.89.47-2.5-1.44-8.07-2.86-14.66-3.59-9.08-1-16.61-.28-16.82,1.59-.1.89,1.5,1.89,4.16,2.8.93-.15,1.88-.3,2.86-.42,5.64-.72,10.87-.99,13.91-.37.42.08.77.22.72.47-2,.08-4.2.26-6.49.55-9.06,1.15-16.22,3.61-15.98,5.48.24,1.87,7.78,2.45,16.84,1.3,3.75-.48,7.16-1.18,9.87-1.97l2.76,3.68c.33.44.24,1.07-.2,1.4-.18.14-.39.2-.6.2-.3,0-.6-.14-.8-.4l-2.86-3.81c-1.6.95-3.26,2.04-4.93,3.26-.06.04-.11.08-.17.13,0,0,11.22,4.78,11.53,4.94.13.07.21.13.26.2.09.12.07.22,0,.3l-16.05-4.88c-.16-.05-.33-.07-.5-.05-.69.08-1.18.69-1.1,1.38,0,0,.12,1.12.3,2.71-1.07,1-2.03,1.98-2.85,2.91l1.71,2.22c.34.44.26,1.07-.18,1.4-.18.14-.4.21-.61.21-.3,0-.6-.13-.79-.39l-1.43-1.86c-1.77,2.33-2.5,4.22-1.79,5.2.83,1.14,3.46.79,6.95-.68.05.41.09.8.12,1.12l2.63,1.07-1.31-11.8c.26-.18.41.09.51.45.11.38,1.98,7.23,1.98,7.23,1.37-.76,2.8-1.63,4.26-2.62l-3.23-4.46,3.17.96,1.71,2.35c.16-.12.32-.23.48-.34.43-.32.86-.64,1.27-.96l5.57,1.7-1.08,6.81,2.57-.24ZM45.61,20.71c.48.48.36,1.4-.28,2.03-.64.64-1.55.76-2.03.28-.49-.48-.36-1.4.28-2.03.64-.64,1.55-.76,2.03-.28ZM41.8,15.93c.9.05,1.61.56,1.58,1.15-.03.59-.78,1.03-1.69.99-.9-.05-1.61-.56-1.58-1.15.03-.59.78-1.03,1.69-.99Z"/>
  <path d="M42.37,50.55l-3.41-9.68-2.57.24c.79,2.25,3.69,10.46,3.7,10.49.04.11.1.21.18.31l1.78,1.96,1.64-1.46-1.33-1.86Z"/>
  <path d="M44.87,54.05l-1.47,1.3,3.58,3.94c.56.62,1.5-.18,1.03-.83l-3.15-4.41Z"/>
</svg>