<?xml version="1.0" encoding="UTF-8"?><svg id="Laag_1" xmlns="http://www.w3.org/2000/svg" viewBox="0 0 64 64"><defs><style>.cls-1{fill:none;}</style></defs><rect class="cls-1" y="0" width="64" height="64"/><path d="m35.04,10.94c-.74-.94-1.85-1.47-3.04-1.47s-2.3.54-3.04,1.47l-14.94,18.93c-.54.68-.83,1.53-.83,2.4,0,.93.33,1.83.94,2.53,1.21,1.4,3.25,1.76,4.86.84l5.9-3.37h0s.31-.18.31-.18l1.33-.76v19.18c0,1.42.6,2.53,1.75,3.2.91.54,2.17.81,3.73.81,0,0,0,0,.01,0,1.56,0,2.82-.27,3.73-.81,1.14-.67,1.75-1.78,1.75-3.2v-19.19l7.54,4.3c1.61.92,3.65.56,4.86-.84,1.21-1.4,1.25-3.48.1-4.93l-14.94-18.93Z"/></svg>