<?xml version="1.0" encoding="UTF-8"?><svg id="Laag_1" xmlns="http://www.w3.org/2000/svg" xmlns:xlink="http://www.w3.org/1999/xlink" viewBox="0 0 64 64"><defs><style>.cls-1{fill:none;}.cls-2{clip-path:url(#clippath);}.cls-3{clip-path:url(#clippath-1);}</style><clipPath id="clippath"><rect class="cls-1" width="64" height="64"/></clipPath><clipPath id="clippath-1"><rect class="cls-1" width="64" height="64"/></clipPath></defs><g class="cls-2"><g class="cls-3"><path d="M48.29,34.96h1.36c.75,0,1.36-.61,1.36-1.36v-6.25c0-.75-.61-1.36-1.36-1.36h-5.64V7.5c0-1.38-1.12-2.5-2.5-2.5s-2.5,1.12-2.5,2.5V26h-11.56l17.96,17.96,2.89-9Z"/><path d="M25,7.5c0-1.38-1.12-2.5-2.5-2.5s-2.5,1.12-2.5,2.5v11.06l5,5V7.5Z"/><path d="M57.1,58.79L6.49,8.19l-2.12,2.12,15.63,15.63v.06h-5.64c-.75,0-1.36,.61-1.36,1.36v6.25c0,.75,.61,1.36,1.36,1.36h10.86c.03,.08,.09,.36-.34,.49l-8.32,1.66-.14-.04,5.46,17.13c.37,1.11,1.41,1.73,2.58,1.73h4.54v6h6v-6h4.54c1.17,0,2.21-.62,2.58-1.73l1.49-4.65,11.36,11.36,2.12-2.12Z"/></g></g></svg>