<?xml version="1.0" encoding="UTF-8"?><svg id="Laag_1" xmlns="http://www.w3.org/2000/svg" xmlns:xlink="http://www.w3.org/1999/xlink" viewBox="0 0 64 64"><defs><style>.cls-1{fill:none;}.cls-2{clip-path:url(#clippath);}.cls-3{clip-path:url(#clippath-1);}</style><clipPath id="clippath"><rect class="cls-1" width="64" height="64"/></clipPath><clipPath id="clippath-1"><rect class="cls-1" width="64" height="64"/></clipPath></defs><g class="cls-2"><g class="cls-3"><path d="M48.57,26.98c6.97-.28,13.12-3.79,13.19-6.4,.06-2.04-4.13-5.55-8.66-7.53,0,0-.35-3.55-3.62-4.3-4.24-.98-6.63,1.61-6.63,1.61,0,0-7.15-1.89-20.22,3.65-11.73,4.97-14.57,11.87-15.15,13.8-2.35,1.41-4.14,3.46-4.38,6.64-.15,1.9,.18,3.66,.95,5.13,.46,1.14,1.14,1.67-.38,3.31-2.62,2.82-1.13,6.08,2.78,6.08h6.46c7.86,0,12.94,4.04,15.23,6.21,.38,.36,.99,0,.85-.5l-.5-1.78c-.27-.97,.52-1.9,1.52-1.79l3.65,.41c.63,.07,1.03-.67,.61-1.15l-1.17-1.35c-.62-.71-.2-1.83,.73-1.96l1.96-.27c.63-.09,.73-.97,.13-1.19-3.8-1.37-7.69-2.16-10.85-2.61-2.11,.94-4.63,1.55-7.54,1.78-2.64,.21-4.95,.26-6.75-.45-.25-.1-.48-.33-.38-.51,1.22,.18,2.59,.2,4.1,0,7.81-1.02,17.1-5.38,16.02-13.65-.49-3.78-2.79-5.39-5.67-5.9,0-.21,.25-.28,.7-.27,2.16,.06,4.03,.76,5.42,2.08,3.22,3.07,2.94,9.03-1.01,13.4l6-1.51,4.03,8.5c.37,.78,1.08,1.36,1.93,1.55,2.71,.59,6.34,1.74,8.55,2.47,.69,.23,1.28-.52,.92-1.14l-.13-.23c-.31-.53,0-1.21,.59-1.33l2.17-.45c.6-.12,.63-.97,.04-1.14l-3.09-.88,.07-.44c.11-.63-.43-1.17-1.06-1.09l-3.77,.51-2.72-8.21c1.19-5.83,5.1-9.12,5.1-9.12m-2.92-12.48c0-1.02,.83-1.85,1.85-1.85s1.85,.83,1.85,1.85-.83,1.85-1.85,1.85-1.85-.83-1.85-1.85"/></g></g></svg>