<?xml version="1.0" encoding="UTF-8"?><svg id="Laag_1" xmlns="http://www.w3.org/2000/svg" xmlns:xlink="http://www.w3.org/1999/xlink" viewBox="0 0 64 64"><defs><style>.cls-1{fill:none;}.cls-2{clip-path:url(#clippath);}.cls-3{clip-path:url(#clippath-1);}</style><clipPath id="clippath"><rect class="cls-1" width="64" height="64"/></clipPath><clipPath id="clippath-1"><rect class="cls-1" width="64" height="64"/></clipPath></defs><g class="cls-2"><g class="cls-3"><path d="M54.5,29.1l-14.86-18.82c-.64-.81-1.61-1.28-2.64-1.28s-2,.47-2.64,1.28l-14.86,18.82c-1,1.26-.96,3.05,.09,4.27,1.05,1.22,2.81,1.52,4.21,.73l8.2-4.7v13.61c0,1.1-.9,2-2,2H12.72c-2.72,0-3.53,2.35-3.53,5,0,2.65,.81,5,3.53,5H30c6.63,0,12-5.37,12-12v-13.61l8.2,4.7c1.4,.8,3.16,.49,4.21-.73,1.05-1.22,1.09-3.01,.09-4.27"/></g></g></svg>