<?xml version="1.0" encoding="UTF-8"?><svg id="Laag_1" xmlns="http://www.w3.org/2000/svg" xmlns:xlink="http://www.w3.org/1999/xlink" viewBox="0 0 64 64"><defs><style>.cls-1{fill:none;}.cls-2{clip-path:url(#clippath);}.cls-3{clip-path:url(#clippath-1);}</style><clipPath id="clippath"><rect class="cls-1" width="64" height="64"/></clipPath><clipPath id="clippath-1"><rect class="cls-1" width="64" height="64"/></clipPath></defs><g class="cls-2"><g class="cls-3"><path d="M47.4,26.99l-1.47-.44c-.33-.12-.39-.32-.29-.56h3.69c.62,0,1.14-.46,1.22-1.07l.43-3.29c.11-.84-.69-1.52-1.5-1.27-1.38,.42-3.49,1.42-4.81,2.87h-3.69c-.42,0-.77,.34-.77,.77s.35,.77,.77,.77h3.22c.42,2.4,1.63,9.58,1.25,12.21-.27,1.82-1.2,3.56-1.94,4.71-.55,.86-1.5,1.38-2.52,1.38h-5.98v3.85h6.38c1.69,0,3.3-.75,4.38-2.05l5.99-7.19-4.35-10.68Z"/><path d="M28.5,15.76c2.22,0,3.5-1.56,3.5-3.81,0-2.56-1.34-3.93-3.5-3.93-2.27,0-3.5,1.62-3.5,3.93,0,2.44,1.28,3.81,3.5,3.81"/><path d="M34.09,35.56c.98,0,2.76-.57,2.76-2.85,0-6.32,.31-14.01-4.31-15.11-2.42-.58-5.67-.58-8.02,0-4.62,1.13-4.41,8.79-4.41,15.11,0,2.21,1.78,2.85,2.76,2.85v-5.86c0-2.7,.54-5.61,.85-6.58,.09-.3,.3-.24,.3-.24v30.12s3.33,.03,3.6-3.67c0,0,.53-13.97,.53-14.13,0-.16,.12-.36,.38-.36s.37,.2,.38,.36c0,.16,.53,14.03,.53,14.03,.21,3.8,3.56,3.77,3.56,3.77V22.88s.22-.08,.33,.24c.29,.87,.77,3.8,.77,6.55v5.89Z"/><path d="M9.5,15.76c2.22,0,3.5-1.56,3.5-3.81,0-2.56-1.34-3.93-3.5-3.93-2.27,0-3.5,1.62-3.5,3.93,0,2.44,1.28,3.81,3.5,3.81"/><path d="M13.54,17.6c-2.42-.58-5.67-.58-8.02,0C.9,18.74,1.1,26.39,1.1,32.71c0,2.21,1.78,2.85,2.76,2.85v-5.86c0-2.7,.54-5.61,.85-6.58,.09-.3,.3-.24,.3-.24v30.12s3.33,.03,3.6-3.67c0,0,.53-13.97,.53-14.13,0-.16,.12-.36,.38-.36s.37,.2,.38,.36c0,.16,.53,14.03,.53,14.03,.21,3.8,3.56,3.77,3.56,3.77V22.88s.22-.08,.33,.24c.3,.87,.77,3.8,.77,6.55v5.89c.98,0,2.76-.57,2.76-2.85,0-6.32,.31-14.01-4.31-15.11"/><path d="M53.94,38.36l-6.39,7.64h1.73c.86,0,1.64-.18,3.02-1.05,1.04-.62,2.23-.95,3.44-.95h4.48c.43,0,.77-.35,.77-.77,0-2.96-2.69-6.15-7.06-4.87"/><path d="M57.04,46.01c.06,.25,.11,.5,.11,.77,0,1.7-1.38,3.08-3.08,3.08-1.42,0-2.61-.97-2.96-2.28l-.06,.03c-.77,.46-1.65,.71-2.54,.71h-.4c.69,2.66,3.09,4.62,5.96,4.62,3.4,0,6.16-2.76,6.16-6.16,0-.26-.02-.52-.05-.77h-3.14Z"/></g></g></svg>