<?xml version="1.0" encoding="UTF-8"?><svg id="Laag_1" xmlns="http://www.w3.org/2000/svg" viewBox="0 0 64 64"><defs><style>.cls-1{fill:none;}</style></defs><rect class="cls-1" y="0" width="64" height="64"/><path d="m42.5,36.49c-1.76,1.76-2.27,4.29-3.67,5.69s-6.78-2.94-10.89-7.01c-4.07-4.11-8.38-9.52-7.01-10.89s3.92-1.9,5.69-3.67-5.77-10.08-6.95-11.26-2.88-1.31-4.24.05c-7.8,7.8-6.17,18.52,5.68,31.07l-.03.02c.26.26,1.56,1.51,1.56,1.51,12.55,11.85,23.27,13.48,31.07,5.68,1.36-1.36,1.23-3.07.05-4.24s-9.5-8.71-11.26-6.95Z"/></svg>