<?xml version="1.0" encoding="UTF-8"?><svg id="Laag_1" xmlns="http://www.w3.org/2000/svg" viewBox="0 0 64 64"><defs><style>.cls-1{fill:none;}</style></defs><rect class="cls-1" width="64" height="64"/><path d="m51.41,22.41l-14.83-14.83c-.37-.38-.88-.59-1.41-.59H14c-1.1,0-2,.9-2,2v46c0,1.1.9,2,2,2h36c1.1,0,2-.9,2-2v-31.17c0-.53-.21-1.04-.59-1.41Zm-1.27,1.95l-3.15.93v26.71h-30V12h16.71l.93-3.13c.11-.34.36-.23.36-.23v14.37c0,.55.45,1,1,1h14.37s.12.25-.22.36Z"/><rect x="22.01" y="41.99" width="12.99" height="5"/></svg>