<?xml version="1.0" encoding="UTF-8"?><svg id="Laag_1" xmlns="http://www.w3.org/2000/svg" xmlns:xlink="http://www.w3.org/1999/xlink" viewBox="0 0 64 64"><defs><style>.cls-1{fill:none;}.cls-2{clip-path:url(#clippath);}.cls-3{clip-path:url(#clippath-1);}</style><clipPath id="clippath"><rect class="cls-1" width="64" height="64"/></clipPath><clipPath id="clippath-1"><rect class="cls-1" width="64" height="64"/></clipPath></defs><g class="cls-2"><g class="cls-3"><path d="M62.03,32.25c-3.59-.83-13.78-2.85-15.01-5.88-1.23-3.03,2.45-9.58,4.38-12.69,.25-.4-.21-.85-.61-.61-3.16,1.95-9.83,5.68-12.68,4.38-2.91-1.32-5.05-12.23-5.9-15.7-.11-.45-.73-.46-.85-.01-.96,3.51-3.31,14.6-5.85,15.71-2.51,1.1-9.53-2.65-12.75-4.5-.4-.23-.84,.23-.59,.62,1.9,3.01,5.59,9.51,4.43,12.79-1.12,3.16-10.91,5.04-14.62,5.84-.47,.1-.46,.77,.01,.86,3.62,.71,13.17,2.46,14.61,5.9,1.37,3.27-2.44,9.53-4.52,12.71-.27,.41,.23,.89,.62,.6,3.02-2.18,10.16-5.77,12.81-4.39,2.93,1.52,5.36,10.74,5.96,14.32,.08,.48,.76,.49,.87,.01,.83-3.71,3.07-13.11,5.78-14.33,2.76-1.24,9.65,2.52,12.8,4.55,.41,.26,.87-.22,.6-.62-2.17-3.19-6.28-9.81-4.49-12.84,1.83-3.09,11.58-5.05,15.01-5.87,.45-.11,.45-.75,0-.86m-30.16,11.82c-6.32,0-11.44-5.12-11.44-11.44s5.12-11.44,11.44-11.44,11.44,5.12,11.44,11.44-5.12,11.44-11.44,11.44"/></g></g></svg>