<?xml version="1.0" encoding="UTF-8"?><svg id="Laag_1" xmlns="http://www.w3.org/2000/svg" xmlns:xlink="http://www.w3.org/1999/xlink" viewBox="0 0 64 64"><defs><style>.cls-1{fill:none;}.cls-2{clip-path:url(#clippath);}.cls-3{clip-path:url(#clippath-1);}</style><clipPath id="clippath"><rect class="cls-1" width="64" height="64"/></clipPath><clipPath id="clippath-1"><rect class="cls-1" width="64" height="64"/></clipPath></defs><g class="cls-2"><g class="cls-3"><path d="M2.21,57.92c-.93,.9-1.15,3.29-1.21,5.08H15c-.07-1.95-.29-4.2-1.19-5.08-2.55-2.47-9.46-2.07-11.6,0"/><path d="M7.97,55c2.3,.02,3.65-1.59,3.66-3.91,.02-2.65-1.37-4.07-3.61-4.09-2.36-.02-3.65,1.65-3.66,4.04-.02,2.52,1.31,3.94,3.61,3.96"/><path d="M18.21,57.92c-.93,.9-1.15,3.29-1.21,5.08h14c-.07-1.95-.29-4.2-1.19-5.08-2.55-2.47-9.46-2.07-11.6,0"/><path d="M23.97,55c2.3,.02,3.65-1.59,3.66-3.91,.02-2.65-1.36-4.07-3.61-4.09-2.36-.02-3.65,1.65-3.67,4.04-.02,2.52,1.31,3.94,3.61,3.96"/><path d="M34.21,57.92c-.93,.9-1.15,3.29-1.21,5.08h14c-.07-1.95-.29-4.2-1.19-5.08-2.55-2.47-9.46-2.07-11.6,0"/><path d="M39.97,55c2.3,.02,3.65-1.59,3.66-3.91,.02-2.65-1.36-4.07-3.61-4.09-2.36-.02-3.65,1.65-3.67,4.04-.02,2.52,1.31,3.94,3.61,3.96"/><path d="M61.81,57.92c-2.55-2.47-9.46-2.07-11.6,0-.93,.9-1.15,3.29-1.21,5.08h14c-.07-1.95-.29-4.2-1.19-5.08"/><path d="M55.97,55c2.3,.02,3.65-1.59,3.66-3.91,.02-2.65-1.36-4.07-3.61-4.09-2.36-.02-3.65,1.65-3.67,4.04-.02,2.52,1.31,3.94,3.61,3.96"/><path d="M20.18,42.45c.02-2.31-1.19-3.56-3.16-3.58-2.07-.01-3.19,1.45-3.21,3.53-.02,2.2,1.14,3.45,3.16,3.47,2.02,.02,3.19-1.39,3.21-3.42"/><path d="M35.18,42.42c.02-2.31-1.19-3.56-3.16-3.58-2.07-.02-3.19,1.44-3.21,3.53-.02,2.2,1.14,3.45,3.16,3.47,2.01,.01,3.19-1.39,3.21-3.42"/><path d="M43.82,42.35c-.02,2.2,1.14,3.45,3.16,3.47,2.01,.01,3.19-1.39,3.21-3.42,.02-2.32-1.19-3.57-3.16-3.58-2.07-.02-3.19,1.44-3.21,3.53"/><path d="M32,6.97c1.73,0,2.74-1.2,2.74-2.94,0-1.97-1.05-3.03-2.74-3.03-1.78,0-2.74,1.25-2.74,3.03,0,1.88,1,2.94,2.74,2.94"/><path d="M28.02,22.47l-1.42,12.47s3.09,.49,3.5-2.27c.42-2.8,1.36-9.72,1.42-10.04,0-.02,.01-.03,.02-.05-.5,.24-1.05,.38-1.62,.38-.66,0-1.31-.17-1.9-.49"/><path d="M35.76,20.54c-.42,.19-.93,.31-1.57,.31-.33,0-.49-.03-.66-.02-.21,.24-.62,.85-1.43,1.42,.16,.03,.34,.15,.39,.38,.06,.32,1,7.23,1.42,10.04,.41,2.76,3.5,2.27,3.5,2.27l-1.63-14.39Z"/><path d="M25.05,15.32c.74,.65,3.51,2,4.59,2.54,.94,.53,2.18,.23,2.92-.66-.37-.23-.77-.48-1.17-.75,.17-.26,.42-.47,.74-.55,.69-.17,1.38,.24,1.56,.92,.17,.67-.23,1.35-.89,1.54-.62,.5-1.37,.77-2.12,.77-.52,0-1.03-.16-1.52-.4-.56-.27-2.91-1.49-2.91-1.49,0,.43,.07,.91,.21,1.45,.45,1.69,1.31,2.48,1.94,2.85h0c1.08,.62,2.41,.53,3.31-.25,1.28-1.1,.92-1.54,2.17-1.46,1.24,.09,1.91-.38,2.25-.79,.42-.51,.55-1.22,.51-1.97l3.64-.93c.22,.43,.76,.73,1.41,.73,.75,0,1.37-.41,1.48-.95,0,0,0,0,.01,0l1.34-.34c.49-.12,.78-.62,.66-1.11l-.28-1.11c-.12-.49-.62-.78-1.11-.66l-1.33,.34c-.34,.09-.58,.36-.65,.69l-5.64,1.43c-.3-.64-.71-1.17-1.17-1.44-.56-.32-1.47-.54-2.68,.28-1.03,.7-.95,.13-2.6-.19-.58-.11-1.18,0-1.72,.26-.39-.29-.7-.52-.89-.65,.84-.54,1.67-.65,2.11-.65,.96,0,2.07,.46,2.29,.56,.04-.02,.12-.06,.25-.15,.72-.49,1.46-.74,2.18-.74,.55,0,1.08,.14,1.56,.42,.43,.25,.83,.65,1.16,1.15l4.34-1.11-2.92-1.3c-1.49-2.2-1.98-3.64-6.09-3.64-1.92,0-3.41,.35-4.6,1.04-.89,.51-1.87,1.33-2.89,2.86-1.12,1.69,.07,3.03,.55,3.44"/></g></g></svg>