<?xml version="1.0" encoding="UTF-8"?><svg id="Laag_1" xmlns="http://www.w3.org/2000/svg" xmlns:xlink="http://www.w3.org/1999/xlink" viewBox="0 0 64 64"><defs><style>.cls-1{fill:none;}.cls-2{clip-path:url(#clippath);}.cls-3{clip-path:url(#clippath-1);}</style><clipPath id="clippath"><rect class="cls-1" width="64" height="64"/></clipPath><clipPath id="clippath-1"><rect class="cls-1" width="64" height="64"/></clipPath></defs><g class="cls-2"><g class="cls-3"><path d="M32.5,38c1.38,0,2.5-1.12,2.5-2.5s-1.12-2.5-2.5-2.5-2.5,1.12-2.5,2.5,1.12,2.5,2.5,2.5"/><path d="M29,11c1.66,0,3-1.34,3-3s-1.34-3-3-3-3,1.34-3,3,1.34,3,3,3"/><path d="M37,5c1.1,0,2-.89,2-2s-.9-2-2-2-2,.9-2,2,.89,2,2,2"/><path d="M51.82,46.49l-11.82-17.9v-11.94c.8-.2,1.92-.49,2.86-.75,1.67-.47,1.35-2.9-.02-2.9H21.16c-1.37,0-1.7,2.44-.02,2.9,.94,.26,2.07,.55,2.86,.75v11.94l-11.82,17.9c-4.39,6.65,.38,15.51,8.34,15.51h22.96c7.97,0,12.74-8.86,8.34-15.51m-36.31,2.2c2.61-3.96,10.14-15.35,12.48-18.9v-12.79h8v12.79c.89,1.35,.48,.73,7.4,11.21H24.24s-1.12,1.31-2.52,3.02c1.27,.11,2.28,1.17,2.28,2.48,0,1.38-1.12,2.5-2.5,2.5-1.11,0-2.04-.72-2.36-1.72-.46,.59-.89,1.18-1.28,1.72-1.95,2.72-1.58,5.62-1.12,7.25,0,0-.09,.38-.48-.03-.39-.4-.74-.86-1.02-1.38-1.06-1.98-.96-4.28,.28-6.15m20.98,5.43c-1.45,0-2.62-1.17-2.62-2.62s1.17-2.62,2.62-2.62,2.62,1.18,2.62,2.62-1.18,2.62-2.62,2.62"/></g></g></svg>