<?xml version="1.0" encoding="UTF-8"?><svg id="Laag_1" xmlns="http://www.w3.org/2000/svg" xmlns:xlink="http://www.w3.org/1999/xlink" viewBox="0 0 64 64"><defs><style>.cls-1{fill:none;}.cls-2{clip-path:url(#clippath);}.cls-3{clip-path:url(#clippath-1);}</style><clipPath id="clippath"><rect class="cls-1" width="64" height="64"/></clipPath><clipPath id="clippath-1"><rect class="cls-1" width="64" height="64"/></clipPath></defs><g class="cls-2"><polygon points="38.02 46.27 50.71 43.16 50.71 41.53 38.04 44.24 38.02 46.27"/><polygon points="40.05 42.26 42.56 41.73 42.63 36.96 44.58 36.76 41.47 31.86 37.82 37.52 40.15 37.3 40.05 42.26"/><polygon points="47.23 36.46 47.2 40.88 49.55 40.44 49.56 36.2 50.96 36.05 48.44 31.66 45.63 36.64 47.23 36.46"/><g class="cls-3"><path d="M57.23,15.4l-25.75-6.36c-.32-.08-.65-.08-.97,0L6.75,15.39c-.44,.12-.75,.52-.75,.99v30.23c0,.45,.29,.85,.71,.98l23.73,7.3c.36,.11,.75,.12,1.11,.01l25.71-7.32c.43-.12,.73-.53,.73-.99V16.4c0-.47-.32-.89-.77-1m-39.06,6.49l-3.4,.11c-1.06,.03-1.73-.79-1.75-1.76-.02-1.04,.73-2.13,1.91-2.37l3.8-.8c1.35-.28,2.25,.75,2.24,1.99,0,1.39-1.18,2.79-2.8,2.84m36.83,23.06l-23,6.03V12.95l10,2.26v7.15l5,.41v-6.43l8,1.8v26.81Z"/></g></g></svg>