<?xml version="1.0" encoding="UTF-8"?><svg id="Laag_1" xmlns="http://www.w3.org/2000/svg" xmlns:xlink="http://www.w3.org/1999/xlink" viewBox="0 0 64 64"><defs><style>.cls-1{fill:none;}.cls-2{clip-path:url(#clippath);}.cls-3{clip-path:url(#clippath-1);}</style><clipPath id="clippath"><rect class="cls-1" width="64" height="64"/></clipPath><clipPath id="clippath-1"><rect class="cls-1" width="64" height="64"/></clipPath></defs><g class="cls-2"><g class="cls-3"><path d="M60.72,24.86l-3.87-5.86-.77-14.58c-.04-.8-.7-1.42-1.5-1.42H31.42c-.8,0-1.46,.62-1.5,1.42l-.77,14.58-3.87,5.86c-.19,.31-.28,.67-.28,1.03v2.78c0,.74,.6,1.33,1.33,1.33H59.67c.74,0,1.33-.6,1.33-1.33v-2.78c0-.36-.1-.72-.28-1.03m-21.72,.14l1.14-3h5.71l1.14,3h-8Zm-2-6h-4.84l.68-13h20.31l.68,13h-16.84Z"/><path d="M22.88,32.65c-4.56-.66-9.2-.66-13.76,0-1.17,.17-2.12,1.27-2.12,2.37v23.96c0,1.11,.95,2.2,2.12,2.37,4.56,.66,9.2,.66,13.76,0,1.17-.17,2.12-1.27,2.12-2.37v-23.96c0-1.11-.95-2.2-2.12-2.37m-6.88,27.35c-1.1,0-2-.89-2-2s.9-2,2-2,2,.89,2,2-.9,2-2,2m6-6H10v-18h12v18Z"/><path d="M48.94,34h-1.78c-.98,0-1.6,.5-1.72,1.21-1,5.69-4.62,10.49-9.56,13.11l.47-3.94c.09-.74-.35-1.43-1.05-1.66s-1.46,.09-1.81,.74l-5.29,9.77c-.23,.42-.25,.92-.07,1.36,.18,.44,.55,.76,1,.89l10.52,2.87c.34,.09,.69,.06,1-.07,.33-.14,.61-.4,.78-.75,.33-.67,.15-1.48-.44-1.92l-3.31-2.58c6.66-3.32,11.53-9.7,12.75-17.29,.15-.92-.56-1.75-1.49-1.75"/><path d="M9.21,27.79c.99-5.6,4.51-10.33,9.33-12.99l-.51,4.01c-.09,.73,.35,1.42,1.06,1.67,.36,.12,.74,.11,1.08-.03,.31-.12,.58-.35,.76-.66l5.38-9.49c.23-.41,.26-.9,.08-1.33-.18-.44-.56-.77-1.01-.9l-10.66-3.14c-.71-.21-1.47,.11-1.8,.76-.33,.65-.15,1.45,.44,1.91l3.27,2.54c-6.47,3.37-11.2,9.66-12.4,17.11-.15,.92,.56,1.75,1.49,1.75h1.78c.98,0,1.6-.5,1.73-1.21"/></g></g></svg>