<?xml version="1.0" encoding="UTF-8"?><svg id="Laag_1" xmlns="http://www.w3.org/2000/svg" xmlns:xlink="http://www.w3.org/1999/xlink" viewBox="0 0 64 64"><defs><style>.cls-1{fill:none;}.cls-2{clip-path:url(#clippath);}.cls-3{clip-path:url(#clippath-1);}</style><clipPath id="clippath"><rect class="cls-1" width="64" height="64"/></clipPath><clipPath id="clippath-1"><rect class="cls-1" width="64" height="64"/></clipPath></defs><g class="cls-2"><g class="cls-3"><path d="M45,13H19c-1.1,0-2,.9-2,2v5c0,1.1,.9,2,2,2h26c1.1,0,2-.9,2-2v-5c0-1.1-.9-2-2-2m-23.5,5c-.83,0-1.5-.67-1.5-1.5s.67-1.5,1.5-1.5,1.5,.67,1.5,1.5-.67,1.5-1.5,1.5m18.5,2h-2v-2h2v2Zm4,0h-2v-2h2v2Z"/><polygon points="11 7 11 55 15 55 15 11 49 11 49 55 53 55 53 7 11 7"/><path d="M45,24H19c-1.1,0-2,.9-2,2v5c0,1.1,.9,2,2,2h26c1.1,0,2-.9,2-2v-5c0-1.1-.9-2-2-2m-23.5,5c-.83,0-1.5-.67-1.5-1.5s.67-1.5,1.5-1.5,1.5,.67,1.5,1.5-.67,1.5-1.5,1.5m18.5,2h-2v-2h2v2Zm4,0h-2v-2h2v2Z"/><path d="M45,35H19c-1.1,0-2,.9-2,2v5c0,1.1,.9,2,2,2h26c1.1,0,2-.9,2-2v-5c0-1.1-.9-2-2-2m-23.5,5c-.83,0-1.5-.67-1.5-1.5s.67-1.5,1.5-1.5,1.5,.67,1.5,1.5-.67,1.5-1.5,1.5m18.5,2h-2v-2h2v2Zm4,0h-2v-2h2v2Z"/><path d="M45,46H19c-1.1,0-2,.9-2,2v5c0,1.1,.9,2,2,2h26c1.1,0,2-.9,2-2v-5c0-1.1-.9-2-2-2m-23.5,5c-.83,0-1.5-.67-1.5-1.5s.67-1.5,1.5-1.5,1.5,.67,1.5,1.5-.67,1.5-1.5,1.5m18.5,2h-2v-2h2v2Zm4,0h-2v-2h2v2Z"/></g></g></svg>