<?xml version="1.0" encoding="UTF-8"?><svg id="Laag_1" xmlns="http://www.w3.org/2000/svg" xmlns:xlink="http://www.w3.org/1999/xlink" viewBox="0 0 64 64"><defs><style>.cls-1{fill:none;}.cls-2{clip-path:url(#clippath);}.cls-3{clip-path:url(#clippath-1);}</style><clipPath id="clippath"><rect class="cls-1" width="64" height="64"/></clipPath><clipPath id="clippath-1"><rect class="cls-1" width="64" height="64"/></clipPath></defs><g class="cls-2"><polygon points="23.79 54 39.79 54 41 52 25 52 23.79 54"/><g class="cls-3"><path d="M51.13,32.62c-.14-.27-4.17-10.54-4.29-10.86-1.56-3.89-6.79-8.34-9.55-10.15-1.01-.65-1.44-.77-2.8-1.16-3.05-.82-5.09-1.12-6.45-1.37-3.28-.09-4.32,1.48-4.64,2.3,3.26,1.06,7.9,2.38,9.87,3.05,.73,.27,.98,.32,1.6,.75,1.14,.81,2.21,1.74,3.12,2.68-1.77,.12-3.97,.42-6.67,1.04-6.22,1.44-8.14,4.64-8.95,7.23-.97,3.09-2.03,6.8-2.83,9.03-1.74,.47-7.53,2.19-9.25,2.7l-2.76,5.64c6.64-1.19,11.33-2.02,14.68-2.53,1.22-.33,1.57-.8,1.9-1.06,1.21-1.2,2.17-3.38,3.64-6.45,2.74,2.42,6.23,4.98,8.13,6.67-1.57,3.22-4.59,8.25-6.14,10.86h5.55c1.72-2.21,4.5-5.85,6.01-8.19,1.7-2.62,1.84-3.93,0-6.41-1.68-2.15-4.28-4.6-7.01-7.62h9.7c.75,1.67,1.99,4.42,3.23,6.59,1.23,2.01,2.09,2.69,4.62,1.88,1.61-.54,3.83-1.65,5.34-2.44h0c5.22-2.77,3.67-5.77,3.44-6.16-2.72,1.18-7.31,3.26-9.46,3.96"/><polygon points="9.64 31.94 2.61 46.31 3.79 48.47 10.82 34.1 9.64 31.94"/><path d="M57.19,22.74c2.31-2.71,2.12-5.38-.17-7.34-2.42-2.06-5.19-1.46-7.28,.99-2.2,2.58-2.07,5.19,.28,7.21,2.36,2.01,5.13,1.53,7.16-.85"/></g></g></svg>