<?xml version="1.0" encoding="UTF-8"?><svg id="Laag_1" xmlns="http://www.w3.org/2000/svg" viewBox="0 0 64 64"><defs><style>.cls-1{fill:none;}</style></defs><rect class="cls-1" width="64" height="64"/><g><rect x="28.4" y="35.6" width="7.2" height="7.2"/><polygon points="16.88 28.64 18.8 26.72 20.72 28.64 22.64 26.72 20.72 24.8 22.64 22.88 20.72 20.96 18.8 22.88 16.88 20.96 14.96 22.88 16.88 24.8 14.96 26.72 16.88 28.64"/><rect x="28.75" y="21.55" width="6.49" height="6.49" transform="translate(-8.16 29.89) rotate(-45)"/><circle cx="45.2" cy="24.8" r="3.6"/><polygon points="14.35 42.8 23.25 42.8 18.8 34.93 14.35 42.8"/><path d="m59.6,6.8H4.4c-1.33,0-2.4,1.08-2.4,2.4v45.6c0,1.33,1.07,2.4,2.4,2.4h55.2c1.33,0,2.4-1.08,2.4-2.4V9.2c0-1.33-1.07-2.4-2.4-2.4Zm-3.6,44.4H8V12.8h48v38.4Z"/><rect x="41.13" y="37.84" width="8.15" height="2.72"/></g></svg>