<?xml version="1.0" encoding="UTF-8"?><svg id="Laag_1" xmlns="http://www.w3.org/2000/svg" xmlns:xlink="http://www.w3.org/1999/xlink" viewBox="0 0 64 64"><defs><style>.cls-1{fill:none;}.cls-2{clip-path:url(#clippath);}.cls-3{clip-path:url(#clippath-1);}</style><clipPath id="clippath"><rect class="cls-1" width="64" height="64"/></clipPath><clipPath id="clippath-1"><rect class="cls-1" width="64" height="64"/></clipPath></defs><g class="cls-2"><g class="cls-3"><path d="M55.32,31.47l-4-6.93c-.25-.44-.58-.8-.96-1.1-.16,1.05-.59,2.07-1.33,2.94l-21.7,25.87,26.52-15.31c1.91-1.1,2.57-3.55,1.46-5.46"/><path d="M27.74,48.64l19.76-23.55c1.42-1.69,1.2-4.22-.49-5.64l-6.13-5.14c-.38-.32-.81-.55-1.26-.7,.19,1.01,.12,2.08-.26,3.12l-11.62,31.91Z"/><path d="M37.48,16.04c.75-2.08-.32-4.37-2.39-5.13l-7.52-2.74c-.47-.17-.95-.24-1.42-.23,.53,.9,.84,1.94,.84,3.05V44.83l10.48-28.79Z"/><path d="M21,7h-2v10h-4V7h-2c-2.21,0-4,1.79-4,4V53c0,2.21,1.79,4,4,4h8c2.21,0,4-1.79,4-4V11c0-2.21-1.79-4-4-4m-4,45c-1.66,0-3-1.34-3-3s1.34-3,3-3,3,1.34,3,3-1.34,3-3,3"/></g></g></svg>