<?xml version="1.0" encoding="UTF-8"?><svg id="Laag_1" xmlns="http://www.w3.org/2000/svg" viewBox="0 0 64 64"><defs><style>.cls-1{fill:none;}</style></defs><rect class="cls-1" width="64" height="64"/><path d="m32,29c1.66,0,3-.34,3-2V9.08c0-1.66-1.34-2.08-3-2.08s-3,.43-3,2.08v17.92c0,1.66,1.34,2,3,2Z"/><path d="m40.44,13.01c-.66-.27-1.39.21-1.39.92v3.49c0,.87.45,1.67,1.2,2.11,4.63,2.78,7.8,7.83,7.8,13.61,0,8.79-7.24,15.94-16.05,15.88-8.81.06-16.05-7.09-16.05-15.88,0-5.78,3.17-10.84,7.8-13.61.74-.45,1.2-1.25,1.2-2.11v-3.49c0-.71-.73-1.19-1.39-.92-8.48,3.52-14.29,12.18-13.42,22.09.95,10.9,10.19,19.94,21.86,19.88,11.67.06,20.91-8.99,21.86-19.88.87-9.92-4.94-18.58-13.42-22.09Z"/></svg>