<?xml version="1.0" encoding="UTF-8"?><svg id="Laag_1" xmlns="http://www.w3.org/2000/svg" xmlns:xlink="http://www.w3.org/1999/xlink" viewBox="0 0 64 64"><defs><style>.cls-1{fill:none;}.cls-2{clip-path:url(#clippath);}.cls-3{clip-path:url(#clippath-1);}</style><clipPath id="clippath"><rect class="cls-1" width="64" height="64"/></clipPath><clipPath id="clippath-1"><rect class="cls-1" width="64" height="64"/></clipPath></defs><g class="cls-2"><g class="cls-3"><path d="M8,48V16H48v12.8c.34,0,.68,0,1,0,1.21,0,2.59,.02,4,.06V13c0-1.1-.9-2-2-2H5c-1.11,0-2,.9-2,2V51c0,1.11,.89,2,2,2h28.08c-.14-1.61-.21-3.35-.25-5H8Z"/><path d="M61.43,34.83c-.19-1.17-1.09-2.07-2.26-2.26-3.39-.57-9.04-.57-10.17-.57s-6.78,0-10.17,.57c-1.17,.2-2.07,1.09-2.26,2.26-.56,3.39-.56,9.04-.56,10.17s0,6.78,.56,10.17c.19,1.17,1.09,2.07,2.26,2.26,3.39,.56,9.04,.56,10.17,.56s6.78,0,10.17-.56c1.17-.2,2.07-1.09,2.26-2.26,.57-3.39,.57-9.04,.57-10.17,0-3.39,0-6.78-.57-10.17m-4.43,11.67c0,.28-.22,.5-.5,.5h-5.5v5.5c0,.28-.22,.5-.5,.5h-3c-.28,0-.5-.22-.5-.5v-5.5h-5.5c-.28,0-.5-.22-.5-.5v-3c0-.28,.22-.5,.5-.5h5.5v-5.5c0-.28,.22-.5,.5-.5h3c.28,0,.5,.22,.5,.5v5.5h5.5c.28,0,.5,.22,.5,.5v3Z"/><rect x="25" y="35" width="6" height="6"/><polygon points="15.4 29.2 17 27.6 18.6 29.2 20.2 27.6 18.6 26 20.2 24.4 18.6 22.8 17 24.4 15.4 22.8 13.8 24.4 15.4 26 13.8 27.6 15.4 29.2"/><rect x="25.29" y="23.29" width="5.41" height="5.41" transform="translate(-10.18 27.41) rotate(-45)"/><path d="M36,26c0,1.66,1.34,3,3,3s3-1.34,3-3-1.34-3-3-3-3,1.34-3,3"/><polygon points="20.71 41 17 34.44 13.29 41 20.71 41"/></g></g></svg>