<?xml version="1.0" encoding="UTF-8"?><svg id="Laag_1" xmlns="http://www.w3.org/2000/svg" xmlns:xlink="http://www.w3.org/1999/xlink" viewBox="0 0 64 64"><defs><style>.cls-1{fill:none;}.cls-2{clip-path:url(#clippath);}.cls-3{clip-path:url(#clippath-1);}</style><clipPath id="clippath"><rect class="cls-1" width="64" height="64"/></clipPath><clipPath id="clippath-1"><rect class="cls-1" width="64" height="64"/></clipPath></defs><g class="cls-2"><g class="cls-3"><path d="M50.44,40.95c-.05,.42-.11,1.44-.29,1.82h0c-.08,.14-.19,.25-.36,.32-.21,.08-.93,.34-1.34,.48,1.99,.95,3.85,2.04,4.94,3.17h0c.92,.97,1.69,2.52,2.34,4.26h7.28s-.06-3.91-1.25-5.17c-.41-.43-1.22-.9-2.11-1.33-1.17-.58-2.72-1.09-3.41-1.35-.62-.23-.53-1.05-.66-2.14,1.76-.07,2.96-.25,3.57-.48,.12-.05,.18-.15,.13-.27-.33-.72-1.19-2.9-1.3-4.14-.06-.63-.08-1.37-.12-2.12h.02c-.26-2.9-.97-5.59-4.12-4.5,0,0-2.53-1.7-4.58,1.14-.86,1.19-1.08,2.09-1.13,3.36h.02c-.04,.85-.01,1.64-.04,2.23-.04,1.04-.9,3.25-1.26,3.87-.08,.13-.05,.27,.09,.32,.65,.24,1.88,.42,3.6,.53m-39.82,5.79c1.14-1.19,3.12-2.33,5.22-3.31-.62-.21-1.6-.52-1.94-.62-.49-.2-.57-.88-.6-1.41,.76-.89,1.32-1.95,1.52-3.34,.76-.24,.92-1.2,.92-1.8s-.1-.93-.32-1.03c-.16-.07-.3-.04-.41,.01v-1.66c.8-.46,2.42-1.81-.08-4.1-1.31-1.2-3.45-.79-5.51,.21-.12-.24-.37-.41-.66-.41-.41,0-.75,.34-.75,.75,0,.13,.05,.25,.11,.36-2.38,1.44-4.38,3.42-4.44,4.2-.04,.55,.73,.74,1.87,.74-.13,.16-.2,.45-.2,.93,0,.6,.15,1.56,.92,1.8,.17,1.44,.73,2.46,1.47,3.31-.02,.6-.07,1.33-.64,1.49-1.2,.34-3.86,1.18-4.79,2.16-1.19,1.26-1.29,5.99-1.29,5.99h7.29c.64-1.75,1.41-3.3,2.33-4.26m35.85-1.66c-1.53-.7-5.89-2.44-6.29-2.68-.12-1.09-.25-2.18-.36-3.16,2.3-2.47,3.68-5.03,4.1-7.67,1.33-1.22,2.08-3.17,2.08-5.56,0-.74-.02-2.67-1.22-4.01,.14-.73,.21-1.48,.21-2.25,0-5.56-3.64-10.28-8.72-12.02,.06-.29,.1-.6,.1-.91,0-2.42-1.96-4.38-4.38-4.38-2.28,0-4.13,1.75-4.34,3.97,1.26-.07,2.5-.07,3.38,.06,.59,.09,.83,.33,.78,.54-7.09,.1-12.82,5.76-12.82,12.73,0,.77,.08,1.52,.21,2.25-1.2,1.33-1.22,3.26-1.22,4,0,2.39,.75,4.33,2.07,5.55,.4,2.66,1.77,5.2,4.11,7.69-.11,.98-.24,2.07-.36,3.16-.22,.13-5.83,2.47-6.29,2.68-2.16,.95-4.25,2.07-5.32,3.18-2.76,2.88-4.21,13.74-4.21,13.74H56s-1.45-10.86-4.21-13.74c-1.07-1.11-3.15-2.23-5.31-3.18m-13.2,13.63l-1.28-4.54-1.28,4.55c-2.89-1.85-8.21-5.88-10.37-11.6,3.74-1.57,6.19-2.12,6.4-3.99,.05-.47,.31-2.73,.57-4.97-.01-.01-.02-.02-.03-.03h0c-2.29-2.16-4.34-4.92-4.34-8.3-1.49-.46-1.94-2.27-1.94-3.82,0-.64,.06-1.13,.17-1.48,.11-.36,.28-.58,.51-.69h0c.41-.2,.9-.04,1.27,.26,0-.83,.02-3.18,.74-5.58,2.25-2.03,5.15-3.26,8.31-3.26s6.17,1.28,8.44,3.38c.04,.14,.08,.28,.12,.42,.16,.68,.27,1.35,.35,1.98,.15,1.26,.15,2.36,.15,3.05,.36-.3,.84-.47,1.27-.26,.45,.21,.67,.9,.67,2.17,0,1.55-.45,3.35-1.94,3.82,0,3.35-2.07,6.16-4.38,8.32-1,.94-1.85,1.86-4.68,1.86-1.09,0-2.18-.18-2.99-.55,.4,.98,1.24,2.22,3.28,2.72,1.81,.45,3.76,.22,4.81-.46,.05,.47,.11,.94,.16,1.4,.21,1.87,2.64,2.42,6.4,3.99-2.16,5.71-7.48,9.74-10.37,11.6m2.03-25.31s-1.9-2.73-3.31-1.45c-1.41-1.28-3.31,1.45-3.31,1.45,0,0,1.71,1.99,3.31,1.99s3.31-1.99,3.31-1.99"/></g></g></svg>