<?xml version="1.0" encoding="UTF-8"?><svg id="Laag_1" xmlns="http://www.w3.org/2000/svg" xmlns:xlink="http://www.w3.org/1999/xlink" viewBox="0 0 64 64"><defs><style>.cls-1{fill:none;}.cls-2{clip-path:url(#clippath);}.cls-3{clip-path:url(#clippath-1);}</style><clipPath id="clippath"><rect class="cls-1" width="64" height="64"/></clipPath><clipPath id="clippath-1"><rect class="cls-1" width="64" height="64"/></clipPath></defs><g class="cls-2"><g class="cls-3"><path d="M43.98,8.38c-1.6-2.56-3.55-3.81-7.26-2.98-2.44-1.16-4.09-1.88-8.36-.84-2.97,.72-6.21,1.91-7.92,3.88-.51,.58-.84,1.49-1.07,2.56h25.42c-.16-1.07-.41-1.99-.81-2.62"/><path d="M52.61,44.11c-2.18-2.38-8.46-4.49-11.39-5.37-.15-1.12-.36-2.41-.55-3.48,.85-1.03,1.55-2.09,2.08-3.15,1.05-2.1,1.3-4.01,1.34-4.28,1.6-.34,2.88-.71,3.83-1.02,1.24-.41,2.07-1.55,2.07-2.85v-5.99c-4.58,.33-9.95,.48-14.26,.21-.33-.02-.29-.35-.29-.35,5.02-.36,10.27-.96,14.27-1.46-.26-.59-.68-1.1-1.26-1.43l-3.44-1.93H18.97l-3.44,1.93c-.95,.53-1.53,1.53-1.53,2.62v6.4c0,1.3,.84,2.45,2.07,2.85,.95,.31,2.23,.68,3.84,1.02,.12,.73,.28,1.52,.48,2.21,.58,1.98,1.7,3.89,3.38,5.77-.11,.81-.23,1.75-.35,2.73-2.51,.73-9.67,3-12.03,5.57-2.87,3.12-4.39,14.89-4.39,14.89H57s-1.51-11.76-4.39-14.89m-20.23,5.23c-2.3-1.75-6.59-5.53-6.16-9.02,.24-1.91,.04-.55,.82-5.44-1.89-1.83-3.45-3.98-3.94-6.48,2.46,.35,5.43,.6,8.89,.6s6.43-.25,8.9-.61c-.6,2.94-2.78,5.27-5.18,7.31-.78,.66-2.25,1.11-3.72,1.11-1.06,0-2.13-.29-2.93-.64,.61,.93,1.66,2.07,3.58,2.58,3.16,.84,5.46-.91,5.46-.91,0,0,.28,1.91,.27,2.42,.33,3.49-3.56,7.32-6.01,9.08"/></g></g></svg>