<?xml version="1.0" encoding="UTF-8"?><svg id="Laag_1" xmlns="http://www.w3.org/2000/svg" xmlns:xlink="http://www.w3.org/1999/xlink" viewBox="0 0 64 64"><defs><style>.cls-1{fill:none;}.cls-2{clip-path:url(#clippath);}.cls-3{clip-path:url(#clippath-1);}</style><clipPath id="clippath"><rect class="cls-1" width="64" height="64"/></clipPath><clipPath id="clippath-1"><rect class="cls-1" width="64" height="64"/></clipPath></defs><g class="cls-2"><g class="cls-3"><path d="M21,19.5c1.1,0,2-.89,2-2s-.9-2-2-2-2,.9-2,2,.89,2,2,2"/><path d="M28,19.5c1.1,0,2-.89,2-2s-.9-2-2-2-2,.9-2,2,.89,2,2,2"/><path d="M35,19.5c1.1,0,2-.89,2-2s-.9-2-2-2-2,.9-2,2,.89,2,2,2"/><path d="M42,19.5c1.1,0,2-.89,2-2s-.9-2-2-2-2,.9-2,2,.89,2,2,2"/><path d="M48.5,19c1.1,0,2-.89,2-2s-.9-2-2-2-2,.9-2,2,.89,2,2,2"/><path d="M29.25,22.75c0,1.24,1.01,2.25,2.25,2.25s2.25-1.01,2.25-2.25-1.01-2.25-2.25-2.25-2.25,1.01-2.25,2.25"/><path d="M36.25,22.75c0,1.24,1.01,2.25,2.25,2.25s2.25-1.01,2.25-2.25-1.01-2.25-2.25-2.25-2.25,1.01-2.25,2.25"/><path d="M43.25,22.75c0,1.24,1.01,2.25,2.25,2.25s2.25-1.01,2.25-2.25-1.01-2.25-2.25-2.25-2.25,1.01-2.25,2.25"/><path d="M52.39,24.17c1.24,0,2.25-1.01,2.25-2.25s-1.01-2.25-2.25-2.25-2.25,1.01-2.25,2.25,1.01,2.25,2.25,2.25"/><path d="M47.86,31c1.01,0,1.99-.29,2.84-.84l4.91-3.19c-.28-.98-.93-2.05-3.28-1.65-3.03,.51-3.15,2.71-3.31,3.8,0,.05-.02,.12-.02,.19-.19-1.17-.44-3.06-3.49-3.06s-3.31,1.95-3.5,3.11c-.19-1.16-.41-3.11-3.5-3.11s-3.31,1.95-3.5,3.11c-.19-1.16-.41-3.11-3.5-3.11s-3.31,1.95-3.5,3.11c-.19-1.16-.41-3.11-3.5-3.11s-3.31,1.95-3.5,3.11c-.19-1.16-.41-3.11-3.5-3.11s-3.32,2.1-3.52,3.24c-.07,.41-.14,.95-.18,1.52H47.86Z"/><path d="M22.25,22.75c0,1.24,1.01,2.25,2.25,2.25s2.25-1.01,2.25-2.25-1.01-2.25-2.25-2.25-2.25,1.01-2.25,2.25"/><path d="M17.5,25c1.24,0,2.25-1.01,2.25-2.25s-1.01-2.25-2.25-2.25-2.25,1.01-2.25,2.25,1.01,2.25,2.25,2.25"/><path d="M62.59,29.21c-1.46-1.58-3.85-1.88-5.65-.71l-5.15,3.34c-1.17,.76-2.54,1.16-3.93,1.16H15.63c-1.86,0-3.7,.37-5.41,1.08l-3.58,1.5s-.16-.22,.1-.43c.19-.15,5.3-3.6,5.3-3.6,0-1.06-.15-2.44-.79-3.27-1.24-1.62-6.11-1.49-8.24-.29-2.02,1.14-2.39,5.64-1.65,7.48,.56,1.38,1.8,2.59,2.36,5.38,2.33-.07,4.72-1.75,6.72-3.05,1.98,1.29,4.48,3.06,6.85,3.06s4.86-1.76,6.86-3.07c2,1.31,4.47,3.07,6.86,3.07s4.82-1.73,6.86-3.06c1.99,1.3,4.49,3.06,6.85,3.06s4.82-1.73,6.86-3.06c1.52,.99,3.33,2.24,5.15,2.78l5.61-5.13c1.8-1.65,1.92-4.46,.27-6.25"/><path d="M51.57,40.43c-1.92,1.25-4.31,2.64-6.86,2.64s-4.95-1.39-6.86-2.64c-1.92,1.25-4.31,2.64-6.86,2.64s-4.9-1.36-6.86-2.64c-1.98,1.3-4.37,2.64-6.86,2.64s-4.95-1.39-6.86-2.64c-1.93,1.25-4.32,2.64-6.86,2.64-.87,0-1.76-.2-2.57-.45v4.07c.82,.19,1.69,.31,2.57,.31,2.75,0,5.42-1.18,6.86-1.94,1.44,.76,4.11,1.94,6.86,1.94s5.41-1.18,6.86-1.94c1.44,.76,4.11,1.94,6.86,1.94s5.41-1.18,6.86-1.94c1.44,.76,4.11,1.94,6.86,1.94s5.42-1.18,6.86-1.94c1.44,.76,4.11,1.94,6.86,1.94,.88,0,1.75-.12,2.57-.31v-4.07c-.81,.26-1.7,.46-2.57,.46-2.53,0-4.95-1.39-6.86-2.64"/></g></g></svg>