<?xml version="1.0" encoding="UTF-8"?><svg id="Laag_1" xmlns="http://www.w3.org/2000/svg" xmlns:xlink="http://www.w3.org/1999/xlink" viewBox="0 0 64 64"><defs><style>.cls-1{fill:none;}.cls-2{clip-path:url(#clippath);}.cls-3{clip-path:url(#clippath-1);}</style><clipPath id="clippath"><rect class="cls-1" width="64" height="64"/></clipPath><clipPath id="clippath-1"><rect class="cls-1" width="64" height="64"/></clipPath></defs><g class="cls-2"><rect x="25" y="42" width="14" height="4"/><g class="cls-3"><path d="M32,7c-13.79,0-25,11.22-25,25s11.21,25,25,25,25-11.22,25-25S45.79,7,32,7m14.23,37.82l-2.92-2.92-1.41,1.42,2.92,2.92c-3.4,3.07-7.89,4.96-12.82,4.96s-9.42-1.89-12.82-4.96l2.92-2.92-1.41-1.42-2.92,2.92c-2.85-3.17-4.67-7.29-4.91-11.82h4.14v-2h-4.14c.24-4.54,2.06-8.64,4.92-11.81l2.91,2.91,1.41-1.41-2.91-2.91c3.16-2.85,7.27-4.68,11.81-4.92v4.14h2v-4.14c4.53,.23,8.64,2.06,11.81,4.92l-2.91,2.91,1.41,1.41,2.91-2.91c2.85,3.17,4.68,7.27,4.92,11.81h-4.14v1.99h4.14c-.24,4.53-2.06,8.66-4.9,11.83"/><path d="M31.75,38.56c1.6-.08,2.89-1.24,3.22-2.75,.22-.99,2.87-14.85,2.87-14.85,.23-1.24-1.11-1.7-1.74-.61l-5.7,9.7c2.05,.06,2.92,.99,3.21,1.4,.37,.53,.19,.72,.1,.73,0,0-.02,0-.02,0-.64-.49-1.43-.79-2.29-.74-1.93,.09-3.42,1.76-3.32,3.73,.1,1.97,1.74,3.49,3.67,3.39"/></g></g></svg>