<?xml version="1.0" encoding="UTF-8"?><svg id="Laag_1" xmlns="http://www.w3.org/2000/svg" xmlns:xlink="http://www.w3.org/1999/xlink" viewBox="0 0 64 64"><defs><style>.cls-1{fill:none;}.cls-2{clip-path:url(#clippath);}.cls-3{clip-path:url(#clippath-1);}</style><clipPath id="clippath"><rect class="cls-1" width="64" height="64"/></clipPath><clipPath id="clippath-1"><rect class="cls-1" width="64" height="64"/></clipPath></defs><g class="cls-2"><g class="cls-3"><path d="M50.04,29.34c-.47,.35-1.27,.97-2.24,1.54l1.91,3.27,.03-.02c3.64,2.15,6.69,2.18,9.26,1.37v-4.2c-.9,.42-1.97,.79-2.96,.79-2.46,0-4.92-1.94-6-2.75"/><path d="M14.27,34.17l1.95-3.34c-.92-.54-1.69-1.13-2.18-1.5-1,.75-3.48,2.75-6,2.75-1.02,0-2.12-.39-3.04-.83v4.22c2.63,.85,5.67,.79,9.27-1.31"/><path d="M50.04,20.34c-2.05,1.54-4.29,3.09-6.83,2.67l2.25,3.86c1.85-.3,3.51-1.11,4.58-1.73,1.34,.79,3.6,1.86,6,1.86,1.03,0,2.04-.2,2.96-.49v-4.2c-.9,.42-1.97,.79-2.96,.79-2.46,0-4.92-1.94-6-2.75"/><path d="M14.04,25.14c1.05,.62,2.68,1.41,4.5,1.72l2.24-3.84c-2.5,.36-4.72-1.17-6.74-2.68-1,.75-3.49,2.75-6,2.75-1.02,0-2.12-.39-3.04-.83v4.22c.94,.31,1.98,.52,3.04,.52,2.4,0,4.66-1.08,6-1.86"/><path d="M14.04,16.14c1.34,.79,3.6,1.86,6,1.86,1.53,0,3.01-.44,4.23-.97l2.86-4.9c-.44-.31-.81-.59-1.09-.8-1,.75-3.48,2.75-6,2.75s-4.92-1.94-6-2.75c-1,.75-3.49,2.75-6,2.75-1.02,0-2.12-.39-3.04-.83v4.22c.94,.31,1.98,.52,3.04,.52,2.4,0,4.66-1.08,6-1.86"/><path d="M56.04,14.09c-2.46,0-4.92-1.94-6-2.75-1,.75-3.49,2.75-6,2.75s-4.92-1.94-6-2.75c-.28,.21-.67,.51-1.15,.84l2.8,4.8c1.24,.55,2.76,1.02,4.35,1.02,2.4,0,4.66-1.08,6-1.86,1.34,.79,3.6,1.86,6,1.86,1.03,0,2.04-.2,2.96-.49v-4.2c-.9,.42-1.97,.79-2.96,.79"/><path d="M33.73,11.51c-.36-.62-1.02-.99-1.73-.99s-1.37,.38-1.73,.99L7.22,50.99c-.36,.62-.36,1.38,0,2s1.02,1,1.73,1H55.05c.72,0,1.38-.38,1.73-1,.36-.62,.35-1.39,0-2L33.73,11.51ZM12.43,50L32,16.49l19.57,33.51H12.43Z"/><path d="M30.26,35.98l-3-5.2c-2.84,1.64-4.75,4.7-4.75,8.22h6c0-1.3,.71-2.41,1.76-3.02"/><path d="M35.5,39h6c0-3.52-1.92-6.58-4.75-8.22l-3,5.2c1.04,.6,1.76,1.72,1.76,3.02"/><path d="M32,42.5c-.64,0-1.23-.18-1.74-.48l-3,5.2c1.4,.81,3.01,1.28,4.75,1.28s3.35-.47,4.75-1.28l-3-5.2c-.52,.3-1.11,.48-1.74,.48"/><path d="M30,39c0,1.11,.89,2,2,2s2-.89,2-2-.9-2-2-2-2,.9-2,2"/></g></g></svg>