<?xml version="1.0" encoding="UTF-8"?>
<svg id="Zwart" xmlns="http://www.w3.org/2000/svg" viewBox="0 0 64 64">
  <path d="M29.22,9.21c.95,0,1.71-.77,1.71-1.71s-.77-1.71-1.71-1.71-1.71.77-1.71,1.71.77,1.71,1.71,1.71Z"/>
  <path d="M17,9.72c1.5,0,2.72-1.22,2.72-2.72s-1.22-2.72-2.72-2.72-2.72,1.22-2.72,2.72,1.22,2.72,2.72,2.72Z"/>
  <path d="M48.5,8.78c.98,0,1.78-.8,1.78-1.78s-.8-1.78-1.78-1.78-1.78.8-1.78,1.78.8,1.78,1.78,1.78Z"/>
  <path d="M55,18.19c1.58,0,2.86-1.28,2.86-2.86s-1.28-2.86-2.86-2.86-2.86,1.28-2.86,2.86,1.28,2.86,2.86,2.86Z"/>
  <path d="M7,20.07c1.42,0,2.57-1.15,2.57-2.57s-1.15-2.57-2.57-2.57-2.57,1.15-2.57,2.57,1.15,2.57,2.57,2.57Z"/>
  <path d="M21.01,38.83c0,1.33,1.08,2.4,2.4,2.4s2.4-1.08,2.4-2.4-1.08-2.4-2.4-2.4-2.4,1.08-2.4,2.4Z"/>
  <path d="M31.99,57c-5.65-1.96-7.65-6.71-7.72-8.84-3.26-2.59-5.62-6.72-7.05-10.57,1.25-1.27,1.97-3.04,1.82-5.07-.27-4.29-2.33-7.91-4.62-11.26-1.69-2.43-5.32-.06-3.77,2.46.92,1.47,2.58,4.21,3.33,6.7.19.63,1.28,3.36-.96,4.17-2.62.95-3.22-1.92-3.37-2.61-.22-1.06-.26-2.28-.21-3.35.14-2.9-4.06-3.29-4.49-.41-.7,4.69,1.03,11.31,6.86,11.38.18,0,.35,0,.53,0,2,10,8.66,19.79,19.59,20.79,1.1.08,2.03-.1,2.8-.47-1.23-.81-2.14-1.89-2.75-2.93Z"/>
  <path d="M54.81,27.02c-1.29.35-2.05,1.69-1.69,2.98.23.85.39,2.17.24,3.11-.25,1.52-1.06,2.73-2.96,2.47-2.55-.34-2.31-3.1-2.17-3.95.42-2.58,2.25-5.35,3.77-6.65,2.35-2.01-.21-5.65-2.81-3.95-5.16,3.36-8.95,12.15-4.56,17.46.64-.3,1.36-.51,2.18-.51.95,0,1.92.25,2.87.76.94.49,1.76,1.33,2.25,2.43,3.77-.35,6.38-4.14,6.57-7.55.13-2.38-.23-7.34-3.68-6.59Z"/>
  <path d="M17.47,15.16c-1.47,7.44,3.84,14.17,9.04,18.92,2.27,2.24,3.1,4.35,3.21,6.42.68-.39,1.44-.76,2.31-1.07.77-1.29,2.01-2.65,3.75-3.44-.33-.81-.75-1.6-1.24-2.38.53-.53,1.02-1.11,1.46-1.66,1.77-2.21,3.03-4.76,3.68-7.5,4.34-1.93,6.83-4.87,7.92-6.67.53-.88.34-2.03-.47-2.69-.98-.8-2.36-.48-3.09.52-1.18,1.63-2.97,2.84-4.84,3.69-.85-1.89-1.08-4.19-.86-6.17.29-2.7-3.58-3.41-4.11-.73-.65,3.29-.45,6.63.88,9.65-.5,1.35-1.22,2.69-2.12,3.79-.51.69-1.12,1.26-1.77,1.79.74,1.02,1.4,2.02,1.69,2.72.31.76.25.98,0,1.1-.6-.68-1.26-1.34-2.01-1.99-1.34-1.04-2.72-2.17-3.98-3.42,2.15-3.69,3.6-7.64,3.92-11.94.19-2.64-3.71-3.1-4.14-.47-.47,2.87-1.56,5.78-3.07,8.35-1.06-1.78-1.77-4.3-1.77-6.11,0-2.96-3.8-3.58-4.37-.69Z"/>
  <path d="M53.78,44.53c-.91.72-2.12.97-3.2.51-.2-.08-.41-.19-.61-.29.3-1.15.5-3.12-1.32-4.07-2.22-1.16-3.69-.08-4.46.83-.63-.25-1.24-.44-1.84-.57.28-1.17.27-3.17-3.03-3.39-3.51-.24-5.16,2.4-5.76,3.7-5.39,1.53-7.05,5.69-7.1,6.78,0,1.35,1.57,5.68,7.07,7.15.57,1.27,2.22,4.01,5.79,3.76,3.6-.24,3.29-2.59,2.96-3.68.64-.12,1.24-.27,1.8-.43.73.94,2.24,2.2,4.58.98,1.73-.9,1.63-2.74,1.36-3.9.13-.08.25-.17.37-.24,1.07-.7,2.48-.7,3.51.06,3.54,2.62,4.57-2.42,4.57-3.61,0-3.64-1.72-5.93-4.68-3.59ZM32,48.59c-.78,0-1.56-.78-1.56-1.56s.78-1.56,1.56-1.56,1.56.78,1.56,1.56-.78,1.56-1.56,1.56Z"/>
</svg>