<?xml version="1.0" encoding="UTF-8"?><svg id="Laag_1" xmlns="http://www.w3.org/2000/svg" xmlns:xlink="http://www.w3.org/1999/xlink" viewBox="0 0 64 64"><defs><style>.cls-1{fill:none;}.cls-2{clip-path:url(#clippath);}.cls-3{clip-path:url(#clippath-1);}</style><clipPath id="clippath"><rect class="cls-1" width="64" height="64"/></clipPath><clipPath id="clippath-1"><rect class="cls-1" width="64" height="64"/></clipPath></defs><g class="cls-2"><g class="cls-3"><path d="M47.97,12.49c.69,3.06-.47,6.11-2.76,8.11,1.44,.42,3.02,.51,4.62,.16,4.82-1.06,7.9-5.69,6.88-10.26-1.02-4.57-5.76-7.3-10.59-6.24-1.59,.35-2.99,1.05-4.12,2.04,2.93,.86,5.28,3.14,5.97,6.2"/><path d="M54.04,51.34c-1.66,1.25-3.75,2.76-6.03,2.75-2.45-.02-4.89-1.94-5.97-2.75-1,.75-3.49,2.75-6,2.75s-4.92-1.94-6-2.75c-1,.75-3.49,2.75-6,2.75s-4.92-1.94-6-2.75c-1,.75-3.49,2.75-6,2.75s-4.92-1.94-6-2.75c-.74,.55-2.28,1.78-4.04,2.39v4.05c1.63-.36,3.08-1.07,4.04-1.64,1.34,.79,3.6,1.86,6,1.86s4.66-1.08,6-1.86c1.34,.79,3.6,1.86,6,1.86s4.66-1.08,6-1.86c1.34,.79,3.6,1.86,6,1.86s4.66-1.08,6-1.86c1.78,1.05,3.93,1.86,6,1.86,2.4,0,4.66-1.08,6-1.86,1.34,.79,3.6,1.86,6,1.86,.67,0,1.33-.09,1.96-.23v-4.07c-.64,.22-1.32,.39-1.96,.39-2.46,0-4.92-1.94-6-2.75"/><path d="M46,38v13.3c.67,.33,1.37,.58,2.02,.58,1.87,0,4.1-1.86,6.02-3.3,1.82,1.37,4.12,3.3,6,3.3,.59,0,1.39-.32,1.96-.52v-13.38h-16Z"/><path d="M5,35.06c0,4.73,1.1,10.22,1.93,14.2,1.32,.99,3.38,2.64,5.12,2.64,1.92,0,4.29-2.02,6-3.3,1.82,1.37,4.12,3.3,6,3.3s4.29-2.02,6-3.3c1.82,1.37,4.12,3.3,6,3.3,1.73,0,3.8-1.65,5.01-2.56,.83-3.97,1.94-9.49,1.94-14.26,0,0-2.73-1.18-6-2.42v-8.65c0-.55-.45-1-1-1h-3v-5c0-.55-.45-1-1-1H16c-.55,0-1,.45-1,1v5h-3c-.55,0-1,.45-1,1v6.85c2.79-1.06,5.11-1.68,8.15-2.1,5.71-.8,10.06,.02,12.64,1.6,.34,.21,.44,.45,.41,.69-2.63-.71-5.48-1.01-8.19-1.01-8.65,0-19,5.03-19,5.03m15,7.94H12v-4c0-.55,.45-1,1-1s1,.45,1,1v2h4v-2c0-.55,.45-1,1-1s1,.45,1,1v4Zm8-4c0-.55,.45-1,1-1s1,.45,1,1v2h4v-2c0-.55,.45-1,1-1s1,.45,1,1v4h-8v-4Z"/></g></g></svg>