<?xml version="1.0" encoding="UTF-8"?><svg id="Laag_1" xmlns="http://www.w3.org/2000/svg" xmlns:xlink="http://www.w3.org/1999/xlink" viewBox="0 0 64 64"><defs><style>.cls-1{fill:none;}.cls-2{clip-path:url(#clippath);}.cls-3{clip-path:url(#clippath-1);}</style><clipPath id="clippath"><rect class="cls-1" width="64" height="64"/></clipPath><clipPath id="clippath-1"><rect class="cls-1" width="64" height="64"/></clipPath></defs><g class="cls-2"><g class="cls-3"><path d="M57,16h-1c-.55,0-1,.45-1,1v10c0,.55,.45,1,1,1h1c1.1,0,2-.9,2-2v-8c0-1.1-.9-2-2-2"/><path d="M8,16h-1c-1.1,0-2,.9-2,2v8c0,1.1,.9,2,2,2h1c.55,0,1-.45,1-1v-10c0-.55-.45-1-1-1"/><path d="M48.37,7H15.63c-2.07,0-3.82,1.52-4.06,3.53-.6,4.92-1.57,14.49-1.57,25.47v15s0,3.57,.37,5.07c.13,.55,.72,.93,1.4,.93h4.47c.68,0,1.27-.39,1.4-.93,.22-.9,.31-2.57,.34-3.74,0,0-3.6-.76-4.6-.95-.32-.06-.34-.25-.29-.37H50.91c.03,.13,.02,.31-.34,.39-.16,.04-4.54,.94-4.54,.94,.04,1.18,.12,2.84,.34,3.74,.13,.55,.72,.93,1.4,.93h4.47c.68,0,1.27-.39,1.4-.93,.37-1.5,.37-5.07,.37-5.07v-15c0-10.98-.96-20.55-1.57-25.47-.25-2.01-1.99-3.53-4.07-3.53M22,45c0,.55-.45,1-1,1h-6c-.55,0-1-.45-1-1v-2c0-.65,.61-1.13,1.24-.97l6,.97c.44,.11,.76,.51,.76,.97v1.03Zm28,0c0,.55-.45,1-1,1h-6c-.55,0-1-.45-1-1v-1.03c0-.46,.31-.86,.76-.97l6-.97c.63-.16,1.24,.32,1.24,.97v2Zm0-8c0,.55-.45,1-1,1H15c-.55,0-1-.45-1-1v-1c0-10.2,.85-19.22,1.43-24.12,.06-.5,.48-.88,.99-.88,4.67,0,26.5-.01,31.17-.01,.51,0,.93,.38,.99,.88,.58,4.92,1.43,13.94,1.43,24.14v1Z"/></g></g></svg>