<?xml version="1.0" encoding="UTF-8"?><svg id="Laag_1" xmlns="http://www.w3.org/2000/svg" xmlns:xlink="http://www.w3.org/1999/xlink" viewBox="0 0 64 64"><defs><style>.cls-1{fill:none;}.cls-2{clip-path:url(#clippath);}.cls-3{clip-path:url(#clippath-1);}</style><clipPath id="clippath"><rect class="cls-1" width="64" height="64"/></clipPath><clipPath id="clippath-1"><rect class="cls-1" width="64" height="64"/></clipPath></defs><g class="cls-2"><g class="cls-3"><path d="M20.72,36.73c-.87-.29-1.67-.52-2.22-.66-.38-.1-.62-.44-.72-.82-.14-.49-.18-1.11-.18-1.11,1.01-1.18,1.76-2.59,2.02-4.45,1.02-.32,1.22-1.6,1.22-2.4s-.14-1.23-.42-1.37c-.25-.12-.48-.03-.63,.06,.16-1.63,.39-5.04-.3-6.31-.73-1.36-1.62-1.9-3.33-1.46-1.11-.61-1.87-1.39-3.83-.83-1.36,.38-2.84,1.08-3.63,2.12-.88,1.17-.67,4.89-.52,6.55-.1-.08-.41-.29-.75-.13-.28,.13-.42,.57-.42,1.37s.2,2.08,1.22,2.4c.23,1.92,.97,3.27,1.95,4.41,0,0-.03,.58-.13,1.13-.08,.4-.33,.74-.72,.85-1.6,.45-5.37,1.61-6.62,2.92-1.59,1.67-1.72,7.98-1.72,7.98H13.25c.5-2.71,1.38-5.97,2.86-7.52,.99-1.04,2.71-1.95,4.61-2.72"/><path d="M61.33,40.09c-.54-.57-1.62-1.19-2.81-1.77-1.56-.77-3.3-1.45-4.22-1.8-.35-.13-.58-.46-.64-.83-.08-.46-.16-1.15-.23-1.73,2.35-.1,4.29-.33,5.1-.63,.16-.06,.24-.21,.17-.36-.44-.96-1.59-4.13-1.73-5.79-.35-4.06-.34-11.33-5.9-9.51,0,0-3.53-2.26-6.4,1.52-2.02,2.66-1.53,6.16-1.61,8.12-.06,1.39-1.19,4.6-1.67,5.43-.1,.18-.07,.36,.12,.42,.87,.32,2.82,.56,5.11,.7-.06,.58-.15,1.3-.26,1.83-.07,.37-.29,.7-.64,.83-.39,.15-.93,.35-1.53,.6,1.72,.75,2.99,1.53,3.74,2.33,1.48,1.56,2.35,4.81,2.85,7.52h12.24s-.08-5.21-1.67-6.88"/><path d="M17.78,41.03c-2,2.11-2.78,9.97-2.78,9.97h6c-.59-1.41-1.83-4.93-.82-7.59,.31-.82,.82-1.5,1.51-2.01-.16-1.02-.12-1.87,.03-2.59-1.61,.64-3.16,1.4-3.94,2.22"/><path d="M43.01,39.12c.24,1.1,.1,2.36-.43,3.74,.35,.45,.58,1.01,.58,1.63,0,1.47-1.19,2.66-2.66,2.66s-2.66-1.19-2.66-2.66,1.18-2.71,2.76-2.64c.38-1.1,.43-2.03,.12-2.72-.54-1.18-1.81-1.45-2.92-1.75-.57-.16-.95-.64-1.08-1.22-.11-.51-.17-1.09-.17-1.09,1.35-1.51,2.36-3.34,2.7-5.75,1.3-.4,1.55-2.01,1.55-3.02s-.18-1.55-.54-1.72c-.17-.08-.34-.08-.5-.05,.13-2.1,.26-6.26-.62-7.82-.96-1.71-2.23-2.15-4.44-1.59-1.45-.77-2.44-1.53-4.99-.84-1.77,.48-3.7,1.27-4.72,2.58-1.1,1.42-.89,5.55-.7,7.68-.16-.05-.36-.05-.55,.04-.36,.17-.54,.71-.54,1.72s.26,2.62,1.55,3.02c.42,3.46,2.14,5.48,4.27,7.27,.56,.47,1.58,.72,2.63,.77,.09,.17,.09,.38-.28,.5-.63,.21-2.61,.5-4.74-.6-.02,0-.03-.02-.05-.03-1.17,.31-2.76,.25-2.56,3.27,.73-.07,1.43,.03,2.11,.36,2.44,1.17,4.11,5.2,4.43,7,.16,.92-1.9,1.73-2.71,1.88-.88,.16-1.39-.33-1.55-1.22-.2-1.09,.49-1.31,1.45-1.6-.75-2.03-1.72-3.44-2.66-3.9-.92-.44-2.23,.08-2.67,1.23-.59,1.56,.13,4.01,.51,5.09,.42-.23,.76-.38,1.08-.38,.34,0,.62,.18,.89,.55,.34,.48,.5,.96,.22,1.48h23.87s-.75-7.86-2.75-9.97c-.65-.68-1.88-1.34-3.23-1.91"/></g></g></svg>