<?xml version="1.0" encoding="UTF-8"?><svg id="Laag_1" xmlns="http://www.w3.org/2000/svg" xmlns:xlink="http://www.w3.org/1999/xlink" viewBox="0 0 64 64"><defs><style>.cls-1{fill:none;}.cls-2{clip-path:url(#clippath);}.cls-3{clip-path:url(#clippath-1);}</style><clipPath id="clippath"><rect class="cls-1" width="64" height="64"/></clipPath><clipPath id="clippath-1"><rect class="cls-1" width="64" height="64"/></clipPath></defs><g class="cls-2"><g class="cls-3"><path d="M57.89,22.28l-.63-1.52c-.34-.83-1.33-1.17-2.11-.74l-5.15,2.84c-.75,.41-1.07,1.32-.74,2.11,.33,.79,1.19,1.21,2.01,.97l5.65-1.64c.86-.25,1.31-1.19,.97-2.02"/><path d="M39.27,14.75c.79,.33,1.7,0,2.11-.74l2.84-5.15c.43-.78,.09-1.77-.74-2.11l-1.52-.63c-.83-.34-1.77,.11-2.01,.97l-1.64,5.65c-.24,.82,.18,1.69,.97,2.01"/><path d="M22.62,14c.41,.75,1.32,1.07,2.11,.74s1.21-1.19,.97-2.01l-1.64-5.65c-.25-.86-1.19-1.31-2.01-.97l-1.52,.63c-.83,.34-1.17,1.33-.74,2.11l2.84,5.15Z"/><path d="M14.75,24.96c.33-.79,0-1.7-.74-2.11l-5.15-2.84c-.78-.43-1.77-.09-2.11,.74l-.63,1.52c-.34,.83,.11,1.77,.97,2.01l5.65,1.64c.82,.24,1.69-.18,2.02-.97"/><path d="M49.13,54.23c-.63-.17-1.38-.36-2.13-.53v-3.7H17v3.7c-.75,.18-1.5,.36-2.13,.53-2.75,.76-2.22,4.77,.03,4.77H49.1c2.25,0,2.78-4.01,.03-4.77"/><path d="M22.83,24.19c.04-.51,.4-.94,.9-1.07,1.92-.51,4.92-1.18,8.27-1.18s6.35,.66,8.28,1.18c.5,.13,.86,.56,.9,1.06l.11,1.44c-11.72-2.01-15.4,.08-15.4,.08l-.52,6.25c1.19-1.04,2.74-1.68,4.45-1.68,.97,0,1.89,.21,2.73,.58-2.35,1.06-4,3.42-4,6.17s1.64,5.11,4,6.17c-.83,.37-1.76,.58-2.73,.58-2.11,0-3.99-.97-5.23-2.49l-.57,6.73h23l-1.84-24.11c-.17-2.2-1.72-4.06-3.85-4.63-2.15-.57-5.52-1.26-9.31-1.26s-7.15,.68-9.31,1.26c-2.14,.57-3.69,2.43-3.86,4.63l-1.84,24.11h4l1.83-23.81Z"/></g></g></svg>