<?xml version="1.0" encoding="UTF-8"?><svg id="Laag_1" xmlns="http://www.w3.org/2000/svg" xmlns:xlink="http://www.w3.org/1999/xlink" viewBox="0 0 64 64"><defs><style>.cls-1{fill:none;}.cls-2{clip-path:url(#clippath);}.cls-3{clip-path:url(#clippath-1);}</style><clipPath id="clippath"><rect class="cls-1" width="64" height="64"/></clipPath><clipPath id="clippath-1"><rect class="cls-1" width="64" height="64"/></clipPath></defs><g class="cls-2"><g class="cls-3"><path d="M22.66,13.88c2.89-.89,3.94-3.43,3.04-6.35-1.02-3.32-3.32-4.56-6.14-3.69-2.97,.92-3.92,3.51-2.99,6.51,.97,3.16,3.2,4.42,6.09,3.53"/><path d="M51.68,33.21c-1.62-1.28-3.04-2.45-4.98-3.76-1.16-.77-1.67-.65-2.51-.47-1.37,.31-5.84,1.38-10.71,3.09-1.11-3.33-3.11-9-4.02-12.02,3.47-1.21,7.11-2.88,8.4-3.86,1.84-1.39,3.7-3.43,5.24-5.34h0c1.28-1.64,1.53-3.91,.13-5.46-.91,.81-5.95,5.86-8.41,7.23-2.32,1.72-8.31,2.81-12.66,3.97-4.98,1.34-10.02,3.47-12.37,3.62-1.28,.09-5.52-7.76-6.26-8.72-1.66,1.27-2.04,3.74-1.07,5.59h0c1.18,2.16,3.43,6.44,5.68,7.25,1.78,.69,6.38-.06,10.67-1.4,1.32,4.72,3.95,11.89,4.61,13.84,.76,2.24,2.86,4.07,8.68,2.91,.08,.13-.03,.3-.41,.51-.88,.5-2.13,.8-3.78,1.13,2.58,1.76,4.78,3.26,7.67,5.16,.19,3.82,.5,6.38,.97,9.51,.23,1.52,1.78,4.05,4.89,4.72,.09-3.99,.17-6.54,.14-10.51-.02-2.07,.01-3.9-.18-6.24-.13-1.39-.53-1.72-1.2-2.25-.66-.53-2.24-1.76-4.36-3.26,0,0,5.86-1.81,9.21-2.9,3.1,2.24,5.29,3.6,8.03,5.19,1.33,.77,4.27,1.14,6.74-.86-3.06-2.57-5-4.22-8.12-6.68"/><path d="M16.37,48.62h0c-.08-.29-.35-.5-.66-.5h-5.84c-.44,0-.77,.41-.67,.85h0c1.89,8.19,9.95,12.48,23.81,11.06-8.48-1.27-14.48-4.65-16.62-11.41"/></g></g></svg>