<?xml version="1.0" encoding="UTF-8"?><svg id="Laag_1" xmlns="http://www.w3.org/2000/svg" xmlns:xlink="http://www.w3.org/1999/xlink" viewBox="0 0 64 64"><defs><style>.cls-1{fill:none;}.cls-2{clip-path:url(#clippath);}.cls-3{clip-path:url(#clippath-1);}</style><clipPath id="clippath"><rect class="cls-1" width="64" height="64"/></clipPath><clipPath id="clippath-1"><rect class="cls-1" width="64" height="64"/></clipPath></defs><g class="cls-2"><g class="cls-3"><path d="M57.41,48.72c-2.79-1.22-5.38-1.62-7.21-1.73,3.82-2.48,6.45-6.73,6.56-11.63,.22-9.7-9.23-10.8-8.18-16.22,.46-2.37,3.21-3.22,5.09-2.49,.41,.04,.36-.46,.04-1.07-.86-1.64-2.4-2.95-3.54-4.18,1.25-1.25,2.22-2.9,1.56-3.74-.78-.99-2.38-.04-2.38-.04,0,0,.16-1.6-.9-2.08-1.16-.52-2.08,.88-2.08,.88,0,0-.52-1.48-1.57-1.39-.82,.07-1.5,.88-1.52,3.5-2.41,.99-3.59,2.62-4.39,4.47-6.25,14.5-21.27,16.06-26.67,1.41-1.1-2.98-9.72,4.84-1.84,14.01-2.25-.89-4.51-1.11-5.1,.67-.55,1.68,2.81,7.05,11.4,8.69,.07,.21,0,.75-1.08,.77-1.37,.03-4.83-.32-7.12-1.19,0,0-.65,8.73,7.93,12.73,8.58,4,14.88-2.08,22.75,7.08,1.83,2.13,2.55,2.73,3.17,2,.92-1.08-1.58-4.38-1.58-4.38,0,0,1.25,.46,3.24,1.62,1.71,1,2.43-.42,1-1.88-1.81-1.84-3.88-2.99-5.57-3.69,3.78-.52,7.02-1.22,13.9,2.06,2.54,1.21,3.49,1.32,3.73,.39,.34-1.38-3.52-3.32-3.52-3.32,0,0,1.55,.47,3.83,.87,2,.35,1.93-1.31,.07-2.12M46.5,15c-.83,0-1.5-.67-1.5-1.5s.67-1.5,1.5-1.5,1.5,.67,1.5,1.5-.67,1.5-1.5,1.5"/></g></g></svg>