<?xml version="1.0" encoding="UTF-8"?><svg id="Laag_1" xmlns="http://www.w3.org/2000/svg" xmlns:xlink="http://www.w3.org/1999/xlink" viewBox="0 0 64 64"><defs><style>.cls-1{fill:none;}.cls-2{clip-path:url(#clippath);}.cls-3{clip-path:url(#clippath-1);}</style><clipPath id="clippath"><rect class="cls-1" width="64" height="64"/></clipPath><clipPath id="clippath-1"><rect class="cls-1" width="64" height="64"/></clipPath></defs><g class="cls-2"><g class="cls-3"><path d="M57.54,16c-1.53,0-2.54,.61-2.54,2v14H6c-1.1,0-2,.9-2,2v14h5v-8H55v8h5V18c0-1.37-1-2-2.46-2"/><path d="M46.32,28.71c1.1-.9,2.88-2,5.25-2.39,.68-1.44,.36-2.83-.87-3.94-1.69-1.53-3.7-1.15-5.25,.57-1.64,1.81-1.61,3.7,.04,5.19,.27,.24,.54,.42,.83,.57"/><path d="M41.29,23.5c-.93-1.57-2.29-2.5-4.29-2.5-9.41,0-24.76,2.91-27,3.86-3.21,1.36-3.86,3.64-3.86,5.14H43.01s-.84-5.01-1.72-6.5"/></g></g></svg>