<?xml version="1.0" encoding="UTF-8"?><svg id="Laag_1" xmlns="http://www.w3.org/2000/svg" xmlns:xlink="http://www.w3.org/1999/xlink" viewBox="0 0 64 64"><defs><style>.cls-1{fill:none;}.cls-2{clip-path:url(#clippath);}.cls-3{clip-path:url(#clippath-1);}</style><clipPath id="clippath"><rect class="cls-1" width="64" height="64"/></clipPath><clipPath id="clippath-1"><rect class="cls-1" width="64" height="64"/></clipPath></defs><g class="cls-2"><g class="cls-3"><path d="M44.18,17.57c2.84,.92,5.12-.53,6.05-3.39,1.06-3.26-.86-5.62-3.62-6.52-2.91-.94-7.51-.24-8.17,1.03-1.1,2.12,2.91,7.96,5.74,8.88"/><path d="M43.05,30.24c1.4,.71,3.56,1.21,5.1,1.49,3.35,.07,4.52-1.9,4.88-2.81-4.62-1.25-8.02-2.69-8.02-2.69-2.75-4.64-3.38-15.1-19.22-9.69-8.16,2.79-11.71,8.92-4.88,14.17,2.73,2.08,7.11,4.19,9.82,5.85-.57,1.6-2.41,5.07-4.08,8.99-1.28,4.27,.27,6.57,1.22,7.5,1.29-1.55,7.88-12.72,9.15-15.7,.39-1,.9-2.3-.32-4.09-1.17-1.66-3.96-3.58-7.1-6.04l9.77-2.46c1.49,3.64,1.91,4.54,3.68,5.48"/><path d="M13,35c-6.07,0-11,4.92-11,11s4.93,11,11,11,11-4.92,11-11-4.93-11-11-11m0,19.15c-4.5,0-8.15-3.65-8.15-8.15s3.65-8.15,8.15-8.15,8.15,3.65,8.15,8.15-3.65,8.15-8.15,8.15"/><path d="M51,35c-6.08,0-11,4.92-11,11s4.92,11,11,11,11-4.92,11-11-4.93-11-11-11m0,19.15c-4.5,0-8.15-3.65-8.15-8.15s3.65-8.15,8.15-8.15,8.15,3.65,8.15,8.15-3.65,8.15-8.15,8.15"/></g></g></svg>