<?xml version="1.0" encoding="UTF-8"?><svg id="Laag_1" xmlns="http://www.w3.org/2000/svg" xmlns:xlink="http://www.w3.org/1999/xlink" viewBox="0 0 64 64"><defs><style>.cls-1{fill:none;}.cls-2{clip-path:url(#clippath);}.cls-3{clip-path:url(#clippath-1);}</style><clipPath id="clippath"><rect class="cls-1" width="64" height="64"/></clipPath><clipPath id="clippath-1"><rect class="cls-1" width="64" height="64"/></clipPath></defs><g class="cls-2"><g class="cls-3"><path d="M57.77,12.04c-.41-2.5-2.26-4.4-4.69-4.81-7.04-1.2-18.76-1.2-21.11-1.2s-14.07,0-21.11,1.2c-2.43,.42-4.28,2.31-4.69,4.81-1.17,7.22-1.17,8.87-1.17,16.09,0,2.41,0,8.88,1.17,16.09,.41,2.5,2.26,4.39,4.69,4.81,6.4,1.09,16.65,1.19,20.23,1.2l15.64,9.56c.69,.43,1.59,.23,2.02-.45,.2-.32,.26-.68,.21-1.02l-.07-.26h-.01l-4.53-15.97s.26-.29,.54,.11l4.66,7.32c1.19-.13,2.51-.3,3.55-.47,2.43-.42,4.29-2.32,4.69-4.81,1.17-7.22,1.17-13.69,1.17-16.09s0-8.88-1.17-16.09m-25.16,29.25c-.38,.2-.85,.2-1.23,0-14.51-7.6-14.92-21.25-8.73-24,6.28-2.79,9.34,3.21,9.34,3.21,0,0,3.07-6,9.34-3.21,6.19,2.75,5.78,16.4-8.73,24"/></g></g></svg>