<?xml version="1.0" encoding="UTF-8"?><svg id="Laag_1" xmlns="http://www.w3.org/2000/svg" xmlns:xlink="http://www.w3.org/1999/xlink" viewBox="0 0 64 64"><defs><style>.cls-1{fill:none;}.cls-2{clip-path:url(#clippath);}.cls-3{clip-path:url(#clippath-1);}</style><clipPath id="clippath"><rect class="cls-1" width="64" height="64"/></clipPath><clipPath id="clippath-1"><rect class="cls-1" width="64" height="64"/></clipPath></defs><g class="cls-2"><g class="cls-3"><path d="M61.55,37.52c-11.2-2.8-23.43,6.12-21.05,15.25-2.57,1.27-4.45,1.61-5.94,1.91-1.57,.32-1.69,1.5-1.42,2.59,.29,1.16,1.02,1.93,2.18,1.64,6.07-1.51,9.71-3.32,15.38-10.03,.09,.05,.26,.2,.08,.61-1.06,2.47-3.38,5.83-6.57,9.22,2.64,1.78,6.35,1.64,8.61-.1,6.6-5.1,.4-9.7,8.98-20.25,.24-.29,.11-.75-.26-.84"/><path d="M37.02,50.82c-.08-3.08,.98-6.17,3.11-8.92,3.07-3.98,8.07-6.81,13.39-7.75l-1.52-28.14c0-1.1-2.24-2-5-2s-5,.9-5,2l-1.02,20.16c2.17,2.09,4.63,4.54,4.78,4.68,.25,.24,.02,.43,.02,.43l-15.29-8.7c-.67-.38-1.49,.1-1.49,.87v4.86l-10.52-5.76c-.67-.36-1.48,.12-1.48,.88v4.86h-.04l-10.48-5.74c-.67-.36-1.48,.12-1.48,.88V56H29.85c.08-.95,.4-1.68,.72-2.19,.5-.8,1.49-1.83,3.35-2.21,1-.2,1.95-.39,3.11-.78m-21.02-2.82h-6v-6h6v6Zm12,0h-6v-6h6v6Z"/></g></g></svg>