<?xml version="1.0" encoding="UTF-8"?><svg id="Laag_1" xmlns="http://www.w3.org/2000/svg" xmlns:xlink="http://www.w3.org/1999/xlink" viewBox="0 0 64 64"><defs><style>.cls-1{fill:none;}.cls-2{clip-path:url(#clippath);}.cls-3{clip-path:url(#clippath-1);}</style><clipPath id="clippath"><rect class="cls-1" width="64" height="64"/></clipPath><clipPath id="clippath-1"><rect class="cls-1" width="64" height="64"/></clipPath></defs><g class="cls-2"><g class="cls-3"><path d="M14.04,28.14c.53,.32,1.22,.67,2.01,.99l1.06-3.82c-1.31-.63-2.43-1.5-3.07-1.98-1,.75-3.49,2.75-6,2.75-1.02,0-2.12-.39-3.04-.83v4.22c.94,.31,1.98,.52,3.04,.52,2.4,0,4.66-1.08,6-1.86"/><path d="M56.04,26.09c-2.46,0-4.92-1.94-6-2.75-.88,.66-2.89,2.27-5.06,2.66l-.3,1.07c.31,.87,.24,1.61,.1,2.13l-.22,.77c2.2-.14,4.24-1.11,5.48-1.83,1.34,.79,3.6,1.86,6,1.86,1.03,0,2.04-.2,2.96-.49v-4.2c-.9,.42-1.97,.79-2.96,.79"/><path d="M50.04,41.34c-1,.75-3.49,2.75-6,2.75s-4.92-1.94-6-2.75c-1,.75-3.49,2.75-6,2.75s-4.92-1.94-6-2.75c-1,.75-3.49,2.75-6,2.75s-4.92-1.94-6-2.75c-1,.75-3.49,2.75-6,2.75-1.02,0-2.12-.39-3.04-.83v4.22c.94,.31,1.98,.52,3.04,.52,2.4,0,4.66-1.08,6-1.86,1.34,.79,3.6,1.86,6,1.86s4.66-1.08,6-1.86c1.34,.79,3.6,1.86,6,1.86s4.66-1.08,6-1.86c1.34,.79,3.6,1.86,6,1.86s4.66-1.08,6-1.86c1.34,.79,3.6,1.86,6,1.86,1.03,0,2.04-.2,2.96-.49v-4.2c-.9,.42-1.97,.79-2.96,.79-2.46,0-4.92-1.94-6-2.75"/><path d="M20.04,32.89c1.87,0,4.11-1.88,6-3.3,1.73,1.3,4.09,3.3,6,3.3s4.11-1.88,6-3.3c.9,.67,1.96,1.53,3.04,2.2l.35-1.26c.51-.25,.85-.57,.96-.97,.04-.16,.22-.78,.26-.94,.11-.4-.01-.85-.32-1.33l1.12-4.02c-3.44-.68-5.39-1.91-5.86-2.23-.26-.18-.3-.36-.23-.48,2.54,.6,4.76,.87,6.75,.37h0c.51-.25,.85-.58,.96-.98,.04-.16,.22-.78,.26-.94,.54-1.95-4.18-4.97-10.56-6.75-6.37-1.78-11.98-1.64-12.52,.31-.05,.16-.22,.78-.26,.94-.11,.4,.01,.85,.32,1.33l-1.78,6.37c-.51,.25-.85,.57-.96,.97-.05,.16-.22,.78-.26,.94-.11,.4,.01,.85,.32,1.33l-1.78,6.37c-.47,.23-.79,.52-.92,.89,.95,.61,2.09,1.19,3.1,1.19"/><path d="M50.04,32.34c-1,.75-3.49,2.75-6,2.75s-4.92-1.94-6-2.75c-1,.75-3.49,2.75-6,2.75s-4.92-1.94-6-2.75c-1,.75-3.49,2.75-6,2.75s-4.92-1.94-6-2.75c-1,.75-3.49,2.75-6,2.75-1.02,0-2.12-.39-3.04-.83v4.22c.94,.31,1.98,.52,3.04,.52,2.4,0,4.66-1.08,6-1.86,1.34,.79,3.6,1.86,6,1.86s4.66-1.08,6-1.86c1.34,.79,3.6,1.86,6,1.86s4.66-1.08,6-1.86c1.34,.79,3.6,1.86,6,1.86s4.66-1.08,6-1.86c1.34,.79,3.6,1.86,6,1.86,1.03,0,2.04-.2,2.96-.49v-4.2c-.9,.42-1.97,.79-2.96,.79-2.46,0-4.92-1.94-6-2.75"/></g></g></svg>