<?xml version="1.0" encoding="UTF-8"?><svg id="Laag_1" xmlns="http://www.w3.org/2000/svg" xmlns:xlink="http://www.w3.org/1999/xlink" viewBox="0 0 64 64"><defs><style>.cls-1{fill:none;}.cls-2{clip-path:url(#clippath);}.cls-3{clip-path:url(#clippath-1);}</style><clipPath id="clippath"><rect class="cls-1" width="64" height="64"/></clipPath><clipPath id="clippath-1"><rect class="cls-1" width="64" height="64"/></clipPath></defs><g class="cls-2"><g class="cls-3"><path d="M41.89,39.36c-1.51,.49-2.9,.85-4.08,1.12-.18,2.85-.2,5.44,.04,7.52h-13.47c-1.39,2.88-3.51,7-7.37,7s-4.71-5.08-4.88-8.11c-.33-6.08,2.03-21.8,3.45-28.89,.86-4.27,.16-7.14-.85-9h23.16c.93,0,1.79,.43,2.43,1.21,.85,1.04,1.25,2.6,1.2,4.52,1.26-.76,2.56-1.53,3.9-2.19-.3-2.3-1.16-3.83-2.01-4.86-1.39-1.7-3.41-2.67-5.52-2.67H8c-3.77,.01-6.92,3.17-7.23,6.97-.42,5.17,3.69,8.45,8.1,9.15,.31-1.7,.58-3.07,.75-3.93-1.9-.28-5.12-1.61-4.86-4.9,.15-1.84,1.71-3.28,3.55-3.28,.93,0,1.79,.43,2.43,1.21,1.2,1.46,1.52,3.95,.91,7.01-1.37,6.84-3.89,23.16-3.52,29.89,.15,2.79,1.24,11.89,8.87,11.89h26c7.13,0,10.61-7.61,11.81-11h-12.94c-.29-2.05-.28-4.97,.02-8.64m1.11,15.64H24.82c.72-.86,1.4-1.88,2.02-3.01h21.25c-1.28,1.67-2.96,3.01-5.09,3.01"/><path d="M35.74,19h-15.84c-.18,.93-.37,1.94-.57,3h13.57c.8-.99,1.74-1.99,2.84-3"/><path d="M30.25,26h-11.62c-.17,.99-.33,1.99-.49,3h10.83c.31-.92,.72-1.93,1.28-3"/><path d="M17.56,33c-.14,1.02-.27,2.02-.38,3h11.09l-.14-1.59c0-.08-.04-.59,.02-1.41h-10.58Z"/><path d="M61.75,8.45c-2.86,.75-6.64,2.18-11.58,4.3-3.84,1.65-7.78,3.72-10.98,6.21-9.56,7.44-8.88,15.25-8.88,15.25,6.72-7.13,13.69-11.35,16.59-12.45,.7-.27,.88-.05,.84,.14,0,0-7,4.94-12.5,10.56-4.16,4.26-6.53,8.94-7.44,10.97-.29,.65,.06,.76,.06,.76l2.94-1.61c1.44-2.37,3-3.62,3-3.62,0,0,6.25-.69,12.56-3.75,6.31-3.06,11.06-9.69,11.06-9.69l-3.61-3.4s-.09-.37,.89-.3c1.49,.11,3.92,.25,3.92,.25,1.06,.04,1.94-.75,2.06-1.8,.53-4.48,.85-8.18,2.15-10.35,.46-.77-.24-1.7-1.11-1.47"/></g></g></svg>