<?xml version="1.0" encoding="UTF-8"?><svg id="Laag_1" xmlns="http://www.w3.org/2000/svg" xmlns:xlink="http://www.w3.org/1999/xlink" viewBox="0 0 64 64"><defs><style>.cls-1{fill:none;}.cls-2{clip-path:url(#clippath);}.cls-3{clip-path:url(#clippath-1);}</style><clipPath id="clippath"><rect class="cls-1" width="64" height="64"/></clipPath><clipPath id="clippath-1"><rect class="cls-1" width="64" height="64"/></clipPath></defs><g class="cls-2"><g class="cls-3"><path d="M42.14,2.09c.86-.17,1.03-.3,1.03-.47s-.52-.34-1.38-.38c0,0-1.31,.21-1.24,.76,.07,.55,.72,.26,1.59,.09"/><path d="M29.5,27.23l2.91,1.29c.47,.21,1,.21,1.47,0,1.32-.61,3.17-1.69,3.88-2.99,.14-.25,.17-.55,.16-.83,0-.27-.03-.54-.06-.79-.1-.86-.8-1.53-1.66-1.59-.5-.03-1.09-.05-1.73-.04-.48,0-.94,.19-1.28,.53l-3.7,3.7v.72Z"/><path d="M23.93,13.86c.31,.03,1.24-.97,1.48-1.21,.24-.24,.22-1.73,0-2.03-.22-.31-.4-.74-.85-.56-.46,.18-1.66,2.89-1.6,3.22,.07,.33,.66,.54,.97,.57"/><path d="M37.03,3.08c.65-.12,1.8-.08,1.77-.74,0,0-.03-.48-2.1-.12s-2.35,.34-2.35,.82,2.03,.16,2.68,.03"/><path d="M30.11,5.27s1.39-.87,2.49-.86c1.1,.01,.63-.88,.63-.88,0,0-.76-.77-3.01,.65-2.25,1.41-1.66,1.58-1.62,1.67,.04,.09,.68,.1,1.51-.58"/><path d="M26.98,8.22c.31-.59,1.2-.75,.82-1.25,0,0-.83-.21-1.59,.65-.76,.86-1.24,1.28-.93,1.72,.31,.45,1.39-.54,1.7-1.13"/><path d="M13.77,41.41l1.57,1.48c.36,.34,.89,.4,1.32,.15l.45-.27c.39-.23,.49-.56,.18-.87l-3.51-2.34c-.07-.05-.16-.08-.25-.08-.56,.02-2.44,0-2.44,1.24l1.74,.24c.32,.15,.62,.3,.95,.45"/><path d="M12.28,43.73l.52,.33c.64,.4,1.45,.41,2.1,.03h.01l-1.72-1.4c-.33-.27-.72-.43-1.14-.48l-1.79-.2c-.26-.03-.53,.08-.69,.28-.26,.33-.5,.68-.7,1.04l2.39,.09c.36,.01,.71,.12,1.02,.31"/><path d="M51.81,20.46l4.21-2.81c.61-.41,.98-1.09,.98-1.83v-6.79c0-1.28-.62-2.48-1.66-3.22l-3.92-2.8c-.9-.64-2.04-.82-3.09-.48l-14.36,4.63c-.47,.15-.81,.55-.88,1.04l-.95,6.73c-.09,.61,.28,1.2,.86,1.39l1.11,.37c.52,.17,.88,.66,.88,1.21v2.02c0,.45,.36,.82,.8,.84,1.2,.06,2.31,.24,2.76,.69,.76,.76,.83,3.27,.83,3.9-.01,.09-.03,.18-.04,.27-.89,2.47-4.61,4.52-5.86,5.16-.25,.13-.55,.12-.79-.02l-4.09-2.31c-.37-.16-.6-.52-.6-.92v-4.67c0-.53,.31-1.01,.8-1.22h.03c.66-.3,.97-1.05,.71-1.72l-1.22-3.12c-.19-.49-.66-.82-1.19-.82-1.72,0-1.88,.14-2.87-.41-.68-.38-1.54-.06-1.82,.67-.27,.73-.44,7.43-1.75,11.09-1.77,4.95-5.48,8.08-5.48,8.08-.09,.23-.15,.46-.18,.7-.04,.3-.1,.73-.15,1.07-.05,.35,.06,.71,.32,.96,.95,.94,3.18,3.16,3.18,3.16,.78,.78,.61,2.08-.34,2.63l-2.38,1.4c-.24,.14-.26,.49-.03,.66,1.14,.85,2.13,1.58,2.2,1.63,.19,.14,.06,.57,.06,.57l-4.52-2.51c-.9-.52-1.94-.81-2.97-.79,0,0-5.26,.41-3.88,1.79,.7,.64,2.1,2.26,2.57,2.1,.31-.1,.72-.44,.72-.44l3.04,1.72c.23,.1,.23-.32,.46-.72,.22-.41,.72-.57,1.15-.4,0,0,3.36,1.46,3.92,1.62,.44,.12,.82,.05,1.15-.35,.29-.35,1.05-1.58,1.05-1.58,.27-.41,.75-.62,1.23-.56l6.89,.9c.39,.05,.73,.28,.93,.61,.49,1,.66,1.24,1.21,1.55,.24,.13,7.7,3.3,7.7,3.3,.6,.26,.91,.93,.72,1.56l-1.12,3.6c0,.26,0,.5,0,.76l.54,1.72c.17,.53,.67,.9,1.22,.9h3.84c.71-.01,1.28-.58,1.28-1.29-.25-.42-1.29-2.41-1.53-2.53l-.58-.29c-.43-.22-.71-.66-.71-1.15v-.68c0-.34,.14-.67,.38-.91l2.24-1.95c.1-.17,.2-.33,.31-.5l1.72-5.15c.12-.36,.07-.75-.12-1.07l-4.23-6.9c-.22-.36-.25-.8-.08-1.19l.23-.52c.23-.52,.78-.83,1.35-.75l5.41,.77c.4,.06,.8-.08,1.09-.36l2.56-2.56c.54-.54,.52-1.41-.04-1.93l-.03-.03c-.56-.51-.58-1.39-.04-1.93l3.72-3.72c.24-.24,.38-.56,.38-.9v-2.19c0-.71-.57-1.28-1.28-1.28h-2.8c-.55,0-1.04-.35-1.21-.88l-.4-1.2c-.18-.55,.02-1.15,.5-1.47"/><path d="M16.04,50.87l-1.54-.67c-.12-.05-.25-.03-.35,.05l-1.27,1.09c-.11,.1-.27,.11-.39,.03l-2.18-1.43c-.18-.12-.42-.13-.61-.02l-.54,.31c-.2,.12-.45,.1-.63-.04l-1.94-1.43c-.17-.13-.41-.08-.52,.1l-1.49,2.4c-.07,.12-.06,.26,.02,.37l.83,.91c.1,.13,.25,.21,.42,.23,0,0,1.66,.43,1.88,.14,.22-.3,.27-1.12,.27-1.12l1.26,.05c.07,0,.13,0,.19,.04l3.52,1.88c.12,.06,.26,.05,.36-.04l2.79-2.29c.19-.15,.15-.45-.08-.55"/></g></g></svg>