<?xml version="1.0" encoding="UTF-8"?><svg id="Laag_1" xmlns="http://www.w3.org/2000/svg" viewBox="0 0 64 64"><defs><style>.cls-1{fill:none;}</style></defs><rect class="cls-1" width="64" height="64"/><path d="m50.15,24.36l-3.15.93v9.77c1.41-.05,2.79-.06,4-.06.32,0,.66,0,1,0v-11.18c0-.53-.21-1.04-.59-1.41l-14.83-14.83c-.37-.38-.88-.59-1.41-.59H14c-1.1,0-2,.9-2,2v46c0,1.1.9,2,2,2h21.15c-.09-1.7-.13-3.45-.14-5h-18V12h16.71l.93-3.13c.11-.34.36-.23.36-.23v14.37c0,.55.45,1,1,1h14.37s.12.25-.22.36Z"/><path d="m55.79,51.93c-.85,0-1.02.98-1.02,1.8,0,1.63.51,1.85,1,1.85.71,0,1.06-.55,1.06-1.64,0-1.8-.59-2.01-1.04-2.01Z"/><path d="m46.23,46.31c-.86,0-1.04.98-1.04,1.8,0,1.63.52,1.85,1.02,1.85.86,0,1.04-.89,1.04-1.64,0-1.8-.58-2.01-1.02-2.01Z"/><path d="m63.44,40.83c-.2-1.17-1.09-2.06-2.26-2.26-3.39-.56-9.04-.56-10.17-.56s-6.78,0-10.17.56c-1.17.2-2.06,1.09-2.26,2.26-.57,3.39-.57,9.04-.57,10.17s0,6.78.56,10.17c.2,1.17,1.09,2.06,2.26,2.26,3.39.56,9.05.56,10.17.56s6.78,0,10.17-.56c1.17-.2,2.07-1.09,2.26-2.26.56-3.39.56-9.04.56-10.17,0-3.39,0-6.78-.56-10.17Zm-20.58,7.45c0-2.9,1.84-3.92,3.42-3.92,2.09,0,3.29,1.37,3.29,3.77,0,2.62-1.78,3.81-3.44,3.81-1.49,0-3.27-.63-3.27-3.65Zm6.43,9.73l-1.84-.73,5.23-13.28,1.84.73-5.23,13.28Zm6.41-.45c-1.49,0-3.27-.63-3.27-3.66s1.84-3.92,3.42-3.92c2.09,0,3.29,1.37,3.29,3.77,0,2.63-1.73,3.81-3.44,3.81Z"/></svg>