<?xml version="1.0" encoding="UTF-8"?><svg id="Laag_1" xmlns="http://www.w3.org/2000/svg" xmlns:xlink="http://www.w3.org/1999/xlink" viewBox="0 0 64 64"><defs><style>.cls-1{fill:none;}.cls-2{clip-path:url(#clippath);}.cls-3{clip-path:url(#clippath-1);}</style><clipPath id="clippath"><rect class="cls-1" width="64" height="64"/></clipPath><clipPath id="clippath-1"><rect class="cls-1" width="64" height="64"/></clipPath></defs><g class="cls-2"><g class="cls-3"><path d="M27.57,14.58c0,3.04,1.62,4.76,4.43,4.76s4.43-1.95,4.43-4.76c0-3.2-1.7-4.91-4.43-4.91-2.88,0-4.43,2.03-4.43,4.91"/><path d="M57.3,7.99h-.02l.89-4.19c.28-1.3-.71-1.85-2.01-2.13-1.3-.27-2.41-.16-2.69,1.13l-.83,3.91c-13.59-3.37-27.69-3.37-41.28,0l-.83-3.91c-.28-1.3-1.39-1.41-2.69-1.13-1.3,.28-2.28,.83-2.01,2.13l.89,4.19h-.02c-.66,.21-1.03,.91-.83,1.57,.18,.59,.77,.93,1.36,.85l.84,3.96c.28,1.3,1.37,1.43,2.67,1.15,1.3-.28,2.31-.85,2.03-2.15l-.89-4.21c.74-.18,1.48-.36,2.23-.53,.4,2.47,1.86,11.06,2.83,12.25,.79,.97,4.25,2.97,8.73,4.53l.55,13.17-7.56,22.93s4.72,1.86,6.33-2.42c1.64-4.34,6.27-16,6.43-16.33,.12-.25,.31-.44,.58-.44s.48,.18,.59,.44c.14,.31,4.71,12.06,6.43,16.33,1.71,4.24,6.33,2.42,6.33,2.42l-7.56-22.94,.55-13.16c4.48-1.56,7.94-3.56,8.73-4.53,.97-1.2,2.43-9.78,2.83-12.25,.74,.16,1.49,.34,2.23,.53l-.89,4.21c-.28,1.3,.73,1.88,2.03,2.15,1.3,.27,2.39,.14,2.67-1.15l.84-3.95c.06,0,.11,.03,.17,.03,.53,0,1.03-.35,1.19-.88,.2-.66-.17-1.36-.83-1.56m-13.77,9.89c-1.1,.8-3.73,1.94-7.2,2.71-2.85,.64-5.82,.64-8.67,0-3.46-.77-6.1-1.91-7.2-2.71-.9-2.52-2.39-8.64-2.7-9.97,9.43-1.64,19.04-1.64,28.47,0-.32,1.33-1.8,7.45-2.7,9.97"/></g></g></svg>