<?xml version="1.0" encoding="UTF-8"?><svg id="Laag_1" xmlns="http://www.w3.org/2000/svg" xmlns:xlink="http://www.w3.org/1999/xlink" viewBox="0 0 64 64"><defs><style>.cls-1{fill:none;}.cls-2{clip-path:url(#clippath);}.cls-3{clip-path:url(#clippath-1);}</style><clipPath id="clippath"><rect class="cls-1" width="64" height="64"/></clipPath><clipPath id="clippath-1"><rect class="cls-1" width="64" height="64"/></clipPath></defs><g class="cls-2"><g class="cls-3"><path d="M55,13h-6.92l-1.71,5.75c-.1,.33-.37,.22-.37,.22v-5.97h0c-.01-1.26-.06-3.35-.18-4.12-.11-.67-.23-1.88-1.2-1.88h-2.85c-.97,0-1.18,1.23-1.28,1.89-.13,.77-.3,2.85-.4,4.11h-16l-1.71,5.75c-.11,.33-.37,.22-.37,.22v-5.97h0c-.01-1.26-.06-3.35-.18-4.12-.11-.67-.23-1.88-1.2-1.88h-2.85c-.97,0-1.18,1.23-1.28,1.89-.13,.77-.3,2.85-.4,4.11h-7.08c-1.1,0-2,.9-2,2V55c0,1.1,.9,2,2,2H55c1.1,0,2-.9,2-2V15c0-1.1-.9-2-2-2m-3,39H12V26H52v26Z"/><path d="M36.3,43.84c-.95-1-3.9-1.89-5.22-2.25-.35-.1-.59-.4-.67-.75-.07-.32-.11-.67-.11-.67,.84-.93,1.46-2.06,1.67-3.55,.8-.25,.96-1.25,.96-1.87s-.11-.96-.33-1.06c-.11-.05-.21-.05-.31-.03,.08-1.3,.16-3.86-.38-4.83-.59-1.06-1.38-1.33-2.74-.98-.9-.48-1.51-.95-3.08-.52-1.09,.3-2.29,.78-2.92,1.6-.68,.88-.55,3.43-.43,4.74-.1-.03-.22-.03-.34,.02-.22,.1-.33,.44-.33,1.06s.16,1.62,.96,1.87c.26,2.13,1.32,3.38,2.64,4.49,.35,.29,.97,.45,1.62,.48,.06,.11,.06,.23-.17,.31-.39,.13-1.61,.31-2.93-.37-.01,0-.02-.01-.03-.02-.98,.26-4.38,1.24-5.44,2.35-1.24,1.3-1.72,6.16-1.72,6.16h21s-.46-4.86-1.7-6.16"/><path d="M37.41,38.7c-.04,.37-.1,.82-.16,1.16-.05,.23-.18,.44-.41,.53-.13,.05-.71,.29-1.3,.54,1.15,.51,2,1.04,2.53,1.59,.92,.97,1.5,2.79,1.85,4.48h7.88s-.05-3.3-1.06-4.36c-.34-.36-1.03-.76-1.78-1.12-.99-.49-2.09-.92-2.67-1.14-.23-.08-.37-.29-.41-.53-.05-.29-.1-.73-.15-1.1,1.49-.06,2.64-.21,3.15-.4,.1-.04,.15-.13,.11-.23-.28-.61-.93-2.62-1.02-3.66-.22-2.57-.22-7.18-3.74-6.02,0,0-2.24-1.43-4.06,.96-1.28,1.68-.97,3.9-1.02,5.14-.04,.88-.76,2.91-1.06,3.44-.06,.11-.04,.23,.08,.27,.55,.2,1.78,.35,3.24,.44"/></g></g></svg>