<?xml version="1.0" encoding="UTF-8"?><svg id="Laag_1" xmlns="http://www.w3.org/2000/svg" xmlns:xlink="http://www.w3.org/1999/xlink" viewBox="0 0 64 64"><defs><style>.cls-1{fill:none;}.cls-2{clip-path:url(#clippath);}.cls-3{clip-path:url(#clippath-1);}</style><clipPath id="clippath"><rect class="cls-1" width="64" height="64"/></clipPath><clipPath id="clippath-1"><rect class="cls-1" width="64" height="64"/></clipPath></defs><g class="cls-2"><g class="cls-3"><path d="M30.58,47.37c-.19-.08-.37-.17-.57-.25l-5.21-1.74c-.57-.16-.95-.64-1.08-1.22-.11-.51-.17-1.09-.17-1.09,1.35-1.51,2.36-3.34,2.7-5.75,1.29-.4,1.55-2.01,1.55-3.02s-.18-1.55-.54-1.72c-.18-.08-.35-.08-.5-.05,.13-2.1,.26-6.26-.61-7.82-.96-1.71-2.23-2.15-4.44-1.59-1.45-.77-2.44-1.53-4.99-.84-1.77,.48-3.7,1.27-4.72,2.58-1.1,1.42-.89,5.55-.7,7.68-.16-.05-.36-.05-.55,.04-.36,.17-.54,.71-.54,1.72s.26,2.62,1.55,3.02c.41,3.46,2.14,5.48,4.27,7.27,.56,.47,1.57,.72,2.63,.77,.1,.17,.1,.37-.28,.5-.63,.21-2.61,.5-4.74-.61-.02,0-.03-.02-.05-.03-1,.27-4.86,1.58-4.86,1.58-1.61,.64-3.17,1.4-3.94,2.22-2,2.11-2.78,9.97-2.78,9.97H23.9c.21-2.64,.84-6.96,2.82-9.04,.78-.82,2.02-1.65,3.86-2.58"/><path d="M59.69,51.47c-.75-.79-2.25-1.65-3.89-2.45-2.16-1.07-4.56-2.01-5.85-2.49-.49-.18-.8-.64-.89-1.15-.11-.64-.23-1.59-.32-2.4,3.25-.13,5.94-.45,7.06-.88,.22-.08,.33-.29,.23-.5-.61-1.33-2.2-5.72-2.4-8.02-.49-5.63-.47-15.69-8.18-13.17,0,0-4.9-3.13-8.87,2.1-2.8,3.68-2.12,8.53-2.23,11.24-.08,1.93-1.65,6.37-2.32,7.52-.14,.24-.09,.49,.17,.59,1.2,.44,3.9,.77,7.08,.97-.06,.57-.15,1.24-.24,1.84h0c-.01,.09-.03,.16-.04,.25-.03,.15-.05,.3-.08,.43-.1,.51-.4,.97-.89,1.15-.54,.2-1.28,.49-2.12,.83h0c-1.15,.47-2.48,1.04-3.73,1.66-1.65,.8-3.14,1.66-3.89,2.45-2.2,2.32-2.31,9.53-2.31,9.53H62s-.11-7.21-2.31-9.53"/><path d="M17.29,17.53c2,.34,4.97,.43,6.78,.46l6.94,4.91c.3,.19,.7,.1,.89-.2,.09-.14,.12-.3,.09-.45l-2.56-8.28s.18-.17,.4,.1c.15,.18,1.87,2.11,3.18,3.58,.24-.03,.48-.07,.71-.11,2.48-.42,2.28-7.53,2.28-7.53,0,0,.2-7.11-2.28-7.53-2.74-.47-7.29-.47-8.21-.47h0c-.92,0-5.48,0-8.21,.47-2.48,.42-2.28,7.53-2.28,7.53,0,0-.2,7.11,2.28,7.53"/></g></g></svg>