<?xml version="1.0" encoding="UTF-8"?><svg id="Laag_1" xmlns="http://www.w3.org/2000/svg" xmlns:xlink="http://www.w3.org/1999/xlink" viewBox="0 0 64 64"><defs><style>.cls-1{fill:none;}.cls-2{clip-path:url(#clippath);}.cls-3{clip-path:url(#clippath-1);}</style><clipPath id="clippath"><rect class="cls-1" width="64" height="64"/></clipPath><clipPath id="clippath-1"><rect class="cls-1" width="64" height="64"/></clipPath></defs><g class="cls-2"><g class="cls-3"><path d="m32,29c-1.66,0-3,1.34-3,3s1.34,3,3,3,3-1.34,3-3-1.34-3-3-3"/><path d="m32,22c-5.51,0-10,4.49-10,10s4.49,10,10,10,10-4.48,10-10-4.49-10-10-10m0,15.1c-2.81,0-5.1-2.29-5.1-5.1s2.29-5.1,5.1-5.1,5.1,2.29,5.1,5.1-2.29,5.1-5.1,5.1"/><path d="m32,15c-9.37,0-17,7.63-17,17s7.63,17,17,17,17-7.63,17-17-7.63-17-17-17m0,30.07c-7.2,0-13.07-5.86-13.07-13.06s5.86-13.07,13.07-13.07,13.06,5.86,13.06,13.07-5.86,13.06-13.06,13.06"/><path d="m32,8c-13.23,0-24,10.77-24,24s10.77,24,24,24,24-10.77,24-24-10.77-24-24-24m0,45.1c-11.64,0-21.1-9.47-21.1-21.1s9.47-21.1,21.1-21.1,21.1,9.47,21.1,21.1-9.47,21.1-21.1,21.1"/><path d="m32,1.03C14.94,1.03,1.06,14.92,1.06,32s13.88,30.97,30.94,30.97,30.94-13.89,30.94-30.97S49.06,1.03,32,1.03m0,60.09c-16.04,0-29.09-13.06-29.09-29.12S15.96,2.88,32,2.88s29.09,13.06,29.09,29.12-13.05,29.12-29.09,29.12"/></g></g></svg>