<?xml version="1.0" encoding="UTF-8"?><svg id="Laag_1" xmlns="http://www.w3.org/2000/svg" xmlns:xlink="http://www.w3.org/1999/xlink" viewBox="0 0 64 64"><defs><style>.cls-1{fill:none;}.cls-2{clip-path:url(#clippath);}.cls-3{clip-path:url(#clippath-1);}</style><clipPath id="clippath"><rect class="cls-1" width="64" height="64"/></clipPath><clipPath id="clippath-1"><rect class="cls-1" width="64" height="64"/></clipPath></defs><g class="cls-2"><g class="cls-3"><path d="M39.1,15.19c.38-.03,.7-.17,.94-.39,.38,1.44,1.47,2.43,3.21,2.81,2.66,.59,4.61-.94,5.2-3.62,.67-3.06-.58-5.05-3.17-5.62-2.73-.6-4.63,1.01-5.23,3.77-.12,.56-.16,1.08-.15,1.57-.11,.08-.3,.03-.42-.37-.13-.4-.26-1.15-.07-2.26-.21-.06-.43-.09-.68-.07-1.11,.1-1.62,1.03-1.51,2.27,.12,1.31,.81,2,1.88,1.9"/><path d="M48.5,56c-1.38,0-2.5,1.12-2.5,2.5s1.12,2.5,2.5,2.5,2.5-1.12,2.5-2.5-1.12-2.5-2.5-2.5"/><path d="M58.5,56c-1.38,0-2.5,1.12-2.5,2.5s1.12,2.5,2.5,2.5,2.5-1.12,2.5-2.5-1.12-2.5-2.5-2.5"/><path d="M61.34,52.17c-.3-.06-.6-.06-1.11-.07-.01,0-.02,0-.03,0h-2.22c-.4,0-.54-.18-.61-.35l-3.97-15.34s-.03-.09-.04-.13c-.55-1.47-1.75-2.28-3.4-2.28h-2.25c-1.28-2.22-1.51-2.64-1.9-3.49-.26-.58-.29-.59-.49-1.57-.38-1.87-.54-4.55-.78-6.63-.3-2.63-4.62-5.03-7.53-4.11-2.61,.83-4.88,4.46-6.48,7.64,1.68,2.38,2.81,4,3.16,4.58,.29,.48,.38,1.05,.25,1.6-.13,.54-.48,1.01-.96,1.3-.85,.51-1.76,.76-2.69,.76-.86,0-1.69-.22-2.5-.64l-1.79,15.38c.59,.24,1.25,.36,1.95,.4,.02,1.5,.06,5.62,.1,7.17,.08,3.38,2.72,4.36,3.5,4.58,.03-.4,.5-8.5,.74-12.01,1.02-.11,2.1-.23,3.24-.29,.46,2.09,1.67,7.59,1.89,8.64,.55,2.6,2.45,3.85,4.57,3.66,0,0-.81-8.03-1.22-12.03,.46,.08,.93,.18,1.41,.3,0,0-.73-8.08-3.5-13.9,.91-2.08,1.91-4.4,2.83-6.52,.06,.3,.11,.59,.18,.9,.39,1.55,.67,2.35,2.09,4.24,2,2.65,3.51,4.54,5.15,2.73h1.03c.58,0,.74,.2,.84,.46l1.6,6.16-3.91,10.02c-.28,.69,.14,1.24,.84,1.51,.69,.28,1.39,.18,1.67-.51l2.55-6.62,1.21,4.77s.02,.07,.03,.1c.47,1.36,1.68,2.21,3.17,2.21h1.78c1.08,0,1.82-.48,2.12-1.22,.21-.52,.17-1.27-.55-1.41"/><path d="M23.71,26.16c1.53,1.75,2.25,2.88,3.63,4.31,1.95,2.02,3.6,1.64,4.59,1.06-.71-1.15-5.83-8.28-6.25-9-3.16-5.31-3.8-9.31-7.25-10.01-1.5-.3-3.2-.39-4.47,.57-1.71,1.3-2.06,3.64-1.91,6.81,.2,4.23,.75,5.69-.52,8.66-.81,1.9-1.23,2.89-1.84,5.16-.57,2.14-1.16,3.65-2.37,8.17,1.05,.78,3.81,2.17,8.03,2.22,.13,.28-.04,.83-.95,1.04-.69,.16-1.87,.33-3.27,.28-.14,.67-.29,1.26-.47,1.98-.8,3.03-1.68,5.96-2.08,8.33-.43,2.56,1.24,4.86,2.61,5.26,1.72-5.43,2.72-8.33,3.69-11.14,.34,2.81,.59,5.3,.73,6.25,.5,3.3,2.96,4.96,4.33,4.86l-.38-15.59c-.01-.56-.02-1.12-.03-1.68,1.81-.45,3.17-1.16,3.17-1.16-.49-6.31-1.83-9.21-2.67-11.88,.33-3.25,.56-6.74,.59-9.5,.79,1.64,1.88,3.63,3.09,5.01"/><path d="M17.45,10.77c2.74,.02,4.35-1.89,4.37-4.66,.02-3.15-1.63-4.85-4.3-4.87-2.82-.02-4.35,1.97-4.37,4.81-.02,3,1.55,4.7,4.3,4.72"/></g></g></svg>