<?xml version="1.0" encoding="UTF-8"?><svg id="Laag_1" xmlns="http://www.w3.org/2000/svg" xmlns:xlink="http://www.w3.org/1999/xlink" viewBox="0 0 24 24"><defs><style>.cls-1{fill:none;}.cls-2{clip-path:url(#clippath);}.cls-3{clip-path:url(#clippath-1);}</style><clipPath id="clippath"><rect class="cls-1" width="24" height="24"/></clipPath><clipPath id="clippath-1"><rect class="cls-1" width="24" height="24"/></clipPath></defs><g class="cls-2"><g class="cls-3"><path d="m12,1c-3.87,0-7,3.13-7,7,0,1.31.47,2.53.99,3.72.43.97,3.71,7.46,5.24,10.47,0,0,0,0,.01,0,.14.28.43.48.76.48s.62-.2.76-.48c0,0,0,0,.01,0,1.53-3,4.81-9.49,5.24-10.47.52-1.19.99-2.42.99-3.72,0-3.87-3.13-7-7-7m0,11.2c-2.32,0-4.2-1.88-4.2-4.2s1.88-4.2,4.2-4.2,4.2,1.88,4.2,4.2-1.88,4.2-4.2,4.2"/><path d="m12,6.16c-.99,0-1.8.81-1.8,1.8s.81,1.8,1.8,1.8,1.8-.81,1.8-1.8-.81-1.8-1.8-1.8"/></g></g></svg>