<?xml version="1.0" encoding="UTF-8"?><svg id="Laag_1" xmlns="http://www.w3.org/2000/svg" xmlns:xlink="http://www.w3.org/1999/xlink" viewBox="0 0 64 64"><defs><style>.cls-1{fill:none;}.cls-2{clip-path:url(#clippath);}.cls-3{clip-path:url(#clippath-1);}</style><clipPath id="clippath"><rect class="cls-1" width="64" height="64"/></clipPath><clipPath id="clippath-1"><rect class="cls-1" width="64" height="64"/></clipPath></defs><g class="cls-2"><g class="cls-3"><path d="M48.61,24.08c.09-.29,.29-.23,.29-.23v3.15h9.2v-3.15s.21-.08,.32,.23c.19,.55,.34,1.6,.43,2.92h2.68c-.23-4.09-1.08-7.59-4.12-8.32-.4-.1-.83-.17-1.26-.23-.39,1.12-1.06,2.84-1.72,3.71-.12-.67-.32-1.57-.53-2.18,.29-.45,.69-1.15,.69-1.15,0,0-.34-.55-1.1-.55s-1.1,.55-1.1,.55c0,0,.39,.7,.69,1.15-.21,.6-.41,1.5-.53,2.17-.63-.87-1.29-2.57-1.68-3.7-.44,.06-.87,.14-1.27,.24-3.03,.74-3.89,4.23-4.12,8.32h2.69c.1-1.29,.26-2.3,.45-2.92"/><path d="M5.61,24.08c.09-.29,.29-.23,.29-.23v3.15H15.1v-3.15s.21-.08,.32,.23c.19,.55,.34,1.6,.43,2.92h2.68c-.23-4.09-1.08-7.59-4.12-8.32-.4-.1-.82-.17-1.26-.23-.39,1.12-1.06,2.84-1.72,3.71-.12-.67-.32-1.57-.53-2.18,.29-.45,.69-1.15,.69-1.15,0,0-.34-.55-1.1-.55s-1.1,.55-1.1,.55c0,0,.4,.7,.69,1.15-.21,.6-.41,1.5-.53,2.17-.64-.87-1.29-2.57-1.68-3.7-.44,.06-.87,.14-1.27,.24-3.04,.74-3.89,4.23-4.12,8.32h2.69c.09-1.29,.26-2.3,.45-2.92"/><polygon points="2.59 33 5.89 33 6.8 54 3 54 3 57 18 57 18 54 14.2 54 15.11 33 18.41 33 20.67 28 .33 28 2.59 33"/><polygon points="61.41 33 63.67 28 43.33 28 45.59 33 48.89 33 49.8 54 46 54 46 57 61 57 61 54 57.2 54 58.11 33 61.41 33"/><path d="M10.5,16.75c2.22,0,3.51-1.56,3.51-3.81,0-2.57-1.34-3.94-3.51-3.94-2.28,0-3.51,1.63-3.51,3.94,0,2.44,1.28,3.81,3.51,3.81"/><path d="M32,13.42c2.13,0,3.36-1.5,3.36-3.65,0-2.46-1.29-3.77-3.36-3.77-2.18,0-3.36,1.56-3.36,3.77,0,2.33,1.23,3.65,3.36,3.65"/><path d="M39.77,14.38c-.41,2.62-1.04,5.77-1.04,5.77-.58-2.83-1.7-4.29-3.55-4.88-1.04-.33-2.05-.48-3.18-.48s-2.14,.15-3.18,.48c-1.85,.58-2.96,2.05-3.55,4.88,0,0-.63-3.15-1.04-5.77-1.2,.51-2.13,1.87-1.89,3.45,.22,1.43,.84,3.89,1.24,5.25,.48,1.61,2.25,1.84,2.96,.41,.65-.96,1.07-3.02,1.35-3.86,.09-.28,.33-.7,.33-.7-.45,1.88-.16,2.76,.06,3.71,.24,1.01,.29,2.06,.03,3.07-.49,1.9-2.05,4.38-2.05,10.44,0,0,1.56,.42,4.06,.21,.08,.14,.05,.31-.16,.46-.18,.13-.75,.39-1.86,.42l.4,10.77s2.47-.39,2.64-2.88c0,0,.21-6.1,.3-8.94,.13-.02,.25-.04,.38-.06,.11-.02,.22-.03,.33-.05,.09,2.78,.31,8.99,.31,8.99,.12,2.56,2.65,2.94,2.65,2.94l.45-11.98c1.17,.11,1.99,.31,1.99,.31,0-6.05-1.56-8.73-2.05-10.62-.26-1.01-.2-2.06,.03-3.07,.22-.95,.51-1.83,.06-3.71,0,0,.23,.43,.33,.7,.29,.84,.7,2.9,1.35,3.86,.72,1.43,2.49,1.21,2.96-.41,.4-1.36,1.02-3.82,1.24-5.25,.25-1.58-.69-2.94-1.89-3.45"/><path d="M53.5,16.75c2.22,0,3.5-1.56,3.5-3.81,0-2.57-1.34-3.94-3.5-3.94-2.28,0-3.51,1.63-3.51,3.94,0,2.44,1.28,3.81,3.51,3.81"/></g></g></svg>