<?xml version="1.0" encoding="UTF-8"?><svg id="Laag_1" xmlns="http://www.w3.org/2000/svg" xmlns:xlink="http://www.w3.org/1999/xlink" viewBox="0 0 64 64"><defs><style>.cls-1{fill:none;}.cls-2{clip-path:url(#clippath);}.cls-3{clip-path:url(#clippath-1);}</style><clipPath id="clippath"><rect class="cls-1" width="64" height="64"/></clipPath><clipPath id="clippath-1"><rect class="cls-1" width="64" height="64"/></clipPath></defs><g class="cls-2"><g class="cls-3"><path d="M33.67,32.04c-.33,0-.55-.04-.52-.27,2.76-.53,4.85-2.97,4.85-5.89,0-3.31-2.69-6-6-6s-6,2.69-6,6c0,1.53,.58,2.93,1.53,3.99l-5.52,9.88c.6,.79,1.03,1.71,1.22,2.72,.77,.41,1.57,.76,2.4,1.06l6.38-11.42,6.38,11.42c.83-.3,1.63-.66,2.4-1.06,.19-1.01,.61-1.94,1.22-2.72l-4.93-8.82c-.97,.69-2.14,1.1-3.4,1.1"/><path d="M49.09,52.46c-.62,.2-1.29,.31-1.98,.31-1.88,0-3.56-.81-4.74-2.09l4.64,8.32H16.99l4.64-8.32c-1.18,1.28-2.86,2.09-4.74,2.09-.69,0-1.36-.11-1.98-.31l-3.64,6.54h-3.26v2.99H56v-2.99h-3.26l-3.64-6.54Z"/><path d="M55.77,22.62c-.53-3.93-2.02-7.55-4.21-10.63v-1.21c0-2.45-1.99-4.44-4.44-4.44-.35,0-.69,.05-1.02,.13-3.23-2.35-7.07-3.9-11.23-4.4-.77-.65-1.76-1.06-2.85-1.06s-2.08,.41-2.85,1.06c-4.17,.5-8.01,2.05-11.24,4.4-.33-.08-.67-.13-1.02-.13-2.45,0-4.44,1.99-4.44,4.44v1.21c-2.2,3.08-3.68,6.71-4.22,10.64-1.69,.63-2.9,2.24-2.9,4.15v2.67c0,2.31,1.77,4.19,4.03,4.4,.92,2.62,2.29,5.02,4.01,7.13-.57,.75-.93,1.67-.93,2.69v2.67c0,2.45,1.99,4.44,4.44,4.44,2.12,0,3.89-1.49,4.33-3.47,1.98,1,4.12,1.73,6.38,2.15-.02,.15-.04,.29-.04,.43v2.67c0,2.45,1.99,4.44,4.44,4.44s4.44-1.99,4.44-4.44v-2.67c0-.14-.03-.28-.04-.42,2.25-.42,4.39-1.16,6.38-2.17,.44,1.99,2.21,3.48,4.33,3.48,2.45,0,4.44-1.99,4.44-4.44v-2.67c0-1.02-.36-1.94-.93-2.69,1.71-2.11,3.07-4.51,3.99-7.13,2.27-.2,4.05-2.09,4.05-4.4v-2.67c0-1.91-1.21-3.52-2.9-4.15m-10.1-11.85c0-.8,.65-1.44,1.44-1.44s1.44,.65,1.44,1.44v1.78h-2.89v-1.78Zm-15.11-5.33c0-.8,.65-1.44,1.44-1.44s1.44,.65,1.44,1.44v1.78h-2.89v-1.78Zm-15.11,5.33c0-.8,.65-1.44,1.44-1.44s1.44,.65,1.44,1.44v1.78h-2.89v-1.78Zm-4.22,17.78h-2.89v-1.78c0-.8,.65-1.44,1.44-1.44s1.44,.65,1.44,1.44v1.78Zm7.11,16.89h-2.89v-1.78c0-.8,.65-1.44,1.44-1.44s1.44,.65,1.44,1.44v1.78Zm15.11,6.22h-2.89v-1.78c0-.8,.65-1.44,1.44-1.44s1.44,.65,1.44,1.44v1.78Zm15.11-6.22h-2.89v-1.78c0-.8,.65-1.44,1.44-1.44s1.44,.65,1.44,1.44v1.78Zm3.14-12.34c-.85,2.29-2.08,4.39-3.63,6.23-.31-.07-.63-.11-.96-.11-2.46,0-4.44,1.99-4.44,4.44v.29c-2.3,1.37-4.89,2.29-7.64,2.69-.79-.74-1.85-1.2-3.02-1.2s-2.23,.46-3.03,1.21c-2.75-.4-5.34-1.33-7.64-2.69v-.3c0-2.45-1.99-4.44-4.44-4.44-.34,0-.67,.05-.98,.12-1.54-1.84-2.76-3.95-3.61-6.24,1.16-.8,1.92-2.14,1.92-3.65v-2.67c0-1.92-1.23-3.54-2.94-4.16,.36-2.29,1.09-4.45,2.12-6.43,.81,1.03,2.06,1.71,3.48,1.71,2.45,0,4.44-1.99,4.44-4.44v-2.67c0-.91-.28-1.76-.75-2.46,2.1-1.37,4.45-2.38,6.98-2.93,0,.02,0,.04,0,.06v2.67c0,2.45,1.99,4.44,4.44,4.44s4.44-1.99,4.44-4.44v-2.67s0-.04,0-.07c2.53,.55,4.88,1.56,6.98,2.93-.47,.71-.75,1.56-.75,2.47v2.67c0,2.46,1.99,4.44,4.44,4.44,1.41,0,2.66-.67,3.47-1.7,1.04,1.98,1.77,4.14,2.14,6.43-1.71,.62-2.94,2.24-2.94,4.17v2.67c0,1.52,.76,2.85,1.92,3.65m3.97-4.54h-2.89v-1.78c0-.8,.65-1.44,1.44-1.44s1.44,.65,1.44,1.44v1.78Z"/></g></g></svg>