<?xml version="1.0" encoding="UTF-8"?><svg id="Laag_1" xmlns="http://www.w3.org/2000/svg" xmlns:xlink="http://www.w3.org/1999/xlink" viewBox="0 0 64 64"><defs><style>.cls-1{fill:none;}.cls-2{clip-path:url(#clippath);}.cls-3{clip-path:url(#clippath-1);}</style><clipPath id="clippath"><rect class="cls-1" width="64" height="64"/></clipPath><clipPath id="clippath-1"><rect class="cls-1" width="64" height="64"/></clipPath></defs><g class="cls-2"><g class="cls-3"><path d="M55.94,19.85l-.99,1.74c3.61,2.07,6.05,5.95,6.05,10.41s-2.44,8.34-6.05,10.41l.99,1.74c4.21-2.41,7.06-6.94,7.06-12.15s-2.85-9.73-7.06-12.15"/><path d="M59,32c0-3.72-2.03-6.95-5.04-8.68l-.99,1.74c2.41,1.38,4.03,3.97,4.03,6.94s-1.63,5.56-4.03,6.94l.99,1.74c3.01-1.72,5.04-4.96,5.04-8.68"/><path d="M55,32c0-2.23-1.22-4.17-3.03-5.21l-1,1.75c1.2,.69,2.02,1.97,2.02,3.46s-.82,2.77-2.02,3.46l1,1.75c1.81-1.03,3.03-2.98,3.03-5.21"/><path d="M30.15,6c4.46,0,8.34,2.44,10.41,6.05l1.74-.99c-2.41-4.21-6.94-7.06-12.15-7.06s-9.73,2.85-12.15,7.06l1.74,.99c2.07-3.61,5.95-6.05,10.41-6.05"/><path d="M37.09,14.03l1.73-.99c-1.72-3.01-4.96-5.04-8.68-5.04s-6.95,2.03-8.68,5.04l1.73,.99c1.38-2.41,3.97-4.03,6.94-4.03s5.56,1.63,6.94,4.03"/><path d="M24.94,15.03l1.75,1c.69-1.2,1.97-2.02,3.46-2.02s2.77,.82,3.46,2.02l1.75-1c-1.03-1.81-2.98-3.02-5.21-3.02s-4.17,1.22-5.21,3.02"/><path d="M30.15,58c-4.46,0-8.34-2.44-10.41-6.05l-1.74,.99c2.41,4.21,6.94,7.06,12.15,7.06s9.73-2.84,12.15-7.06l-1.74-.99c-2.07,3.61-5.95,6.05-10.41,6.05"/><path d="M23.21,49.97l-1.74,.99c1.72,3.01,4.96,5.04,8.68,5.04s6.95-2.03,8.68-5.04l-1.74-.99c-1.38,2.41-3.97,4.03-6.94,4.03s-5.56-1.63-6.94-4.03"/><path d="M35.35,48.97l-1.75-1c-.69,1.2-1.97,2.02-3.46,2.02s-2.77-.82-3.46-2.02l-1.75,1c1.03,1.81,2.98,3.03,5.21,3.03s4.17-1.22,5.21-3.03"/><path d="M38.2,20h-6.38l-.87-1.46c-.19-.32-.53-.51-.9-.51-.58,0-1.05,.47-1.05,1.05v.92H8.5c-4.14,0-7.5,3.24-7.5,7.23v9.54c0,3.99,3.37,7.23,7.5,7.23H29v.92c0,.58,.47,1.05,1.05,1.05,.37,0,.71-.19,.9-.51l.87-1.45h6.38c6.8,0,10.8-3.63,10.8-12s-4-12-10.8-12m-26.18,3H29l-2.6,1.34c-.85,.43-1.78,.66-2.73,.66H12.02c-.35,0-.67-.18-.85-.47-.41-.67,.07-1.53,.85-1.53m-2.7,13.37c.08,.5-.23,.96-.71,1.1l-3.17,.92c-.53,.15-1.08-.15-1.24-.68-.12-.39-.19-.79-.19-1.22v-9c0-.42,.07-.83,.19-1.22,.17-.53,.71-.83,1.24-.68l3.17,.92c.48,.14,.79,.61,.71,1.1-.17,1.13-.32,2.6-.32,4.37s.14,3.24,.32,4.37m19.68,4.63H12.02c-.78,0-1.26-.86-.85-1.53,.18-.29,.5-.47,.85-.47h11.65c.95,0,1.89,.23,2.73,.66l2.6,1.33h0Zm6-.73c-.29,.41-.84,.55-1.29,.32l-5.55-2.84c-.39-.2-.6-.62-.53-1.05,.2-1.18,.38-2.77,.38-4.7s-.18-3.52-.38-4.7c-.07-.43,.14-.85,.53-1.05l5.55-2.84c.45-.23,1-.09,1.29,.32,1.43,2.03,2.24,4.98,2.24,8.26s-.81,6.23-2.24,8.26m10.88-14.22h-2.52c-.85,0-1.6-.54-1.89-1.34l-.86-2.45c2.5,.46,4.25,1.7,5.27,3.79m-5.28,15.72l.87-2.46c.28-.8,1.04-1.34,1.89-1.34h2.56c-1.01,2.12-2.76,3.35-5.31,3.8"/></g></g></svg>