<?xml version="1.0" encoding="UTF-8"?><svg id="Laag_1" xmlns="http://www.w3.org/2000/svg" xmlns:xlink="http://www.w3.org/1999/xlink" viewBox="0 0 64 64"><defs><style>.cls-1{fill:none;}.cls-2{clip-path:url(#clippath);}.cls-3{clip-path:url(#clippath-1);}</style><clipPath id="clippath"><rect class="cls-1" width="64" height="64"/></clipPath><clipPath id="clippath-1"><rect class="cls-1" width="64" height="64"/></clipPath></defs><g class="cls-2"><g class="cls-3"><path d="M54.91,9.33c-3.13-3.13-7.03-4.32-8.69-2.65L9.98,42.92l-4.67,14.76c-.24,.77,.48,1.5,1.26,1.26l14.77-4.67,9.67-9.67v-5.69l-11.59,11.59c-.56,.57-.49,1.16-.12,1.74l-7.18,2.27-2.38-2.38,2.27-7.18c.58,.38,1.18,.44,1.74-.12L49.76,8.83c.53,.21,1.15,.54,1.81,1.01l-16.16,16.16h5.66l13.33-13.33c.48,.67,.81,1.28,1.02,1.81l-11.52,11.52h5.69l7.97-7.97c1.67-1.67,.48-5.57-2.65-8.7"/><path d="M15.59,48.66c.78,.78,1.62,1.21,2.4,.43l13.01-13.01v-5.66l-15.83,15.83c-.78,.78-.36,1.62,.42,2.4"/><path d="M54,29h-19c-.55,0-1,.45-1,1v29h9v-5h3v5h9V30c0-.55-.45-1-1-1m-13,22h-3v-3h3v3Zm0-5h-3v-3h3v3Zm0-5h-3v-3h3v3Zm0-5h-3v-3h3v3Zm5,15h-3v-3h3v3Zm0-5h-3v-3h3v3Zm0-5h-3v-3h3v3Zm0-5h-3v-3h3v3Zm5,15h-3v-3h3v3Zm0-5h-3v-3h3v3Zm0-5h-3v-3h3v3Zm0-5h-3v-3h3v3Z"/></g></g></svg>