<?xml version="1.0" encoding="UTF-8"?><svg id="Laag_1" xmlns="http://www.w3.org/2000/svg" viewBox="0 0 64 64"><defs><style>.cls-1{fill:none;}</style></defs><rect class="cls-1" width="64" height="64"/><g><path d="m35.55,49.16c-.67-1.63-1.48-3.65-1.54-6.47-2.5,2.42-5.76,3.8-6.96,4.25-1.49-.64-6.14-2.88-8.39-6.8,2.44-1.01,2.69-1.94,2.74-2.47,1.61.89,3.25,1.33,5.64,1.33,2.58,0,4.31-.55,5.9-1.47.08.39.37,1,1.53,1.77,1.25-4.02,4.91-6.99,9.29-7.27.85-3.81,1.24-6.72,1.24-9.81,0-7.48-2.81-15.48-7.13-18.07-2.75-1.65-5.84-1.05-5.84-1.05,0,0-2.97-2.86-8.17-1.88-8.48,1.6-14.84,9.74-14.84,21,0,3.73.56,7.15,1.82,12.24.1.42.5.67.88.54,1.26-.44,2.82-.75,4.68-1,1.02.8,1.67,1.33,2.42,1.91-.03.28-.06.55-.1.85-1.67,1.19-8.78,2.66-11.49,5.5-2.76,2.88-4.21,13.74-4.21,13.74h34.15c-.04-.26-.08-.51-.11-.75-.57-3.86-.69-4.15-1.48-6.08Zm-17.78-29.75c4.8-1.89,11.6-5.75,14.24-9.06,0,0,.32.01.12.5-.34.83-.85,1.81-1.55,2.98,1.24,2.63,3.47,4.56,5.68,5.93.07,1.02.06,2.42-.19,3.99-2.66-.12-4.28-.44-4.89-.97-.21-.19-.41-.38-.6-.57-.79-.78-1.78-1.75-3.54-1.75s-2.74.97-3.54,1.75c-.19.19-.39.38-.6.57-.62.54-2.26.86-4.97.97-.28-1.7-.24-3.29-.16-4.34Zm-.32,12.26l.25-.67c.14-.37.06-.66.01-.85l5.24,1.39s.16-.22-.11-.43c-.22-.17-4.31-2.57-5.72-3.4-.09-.43-.18-.93-.26-1.42,4.89-.1,6.63-.72,7.67-1.62.25-.22.49-.45.72-.67.73-.72,1.08-1.03,1.78-1.03s1.06.32,1.78,1.03c.23.22.46.45.72.67,1.03.9,2.78,1.52,7.67,1.62-.08.49-.17,1-.26,1.42-1.41.83-5.51,3.23-5.72,3.4-.26.21-.15.38-.11.43l5.24-1.39c-.05.2-.13.48.01.85l.25.67c-1.02.8-1.9,1.5-2.63,2.07-2.45,1.92-3.85,2.75-6.95,2.75s-4.42-.8-6.63-2.51c-.81-.63-1.78-1.41-2.95-2.32Z"/><path d="m55.6,35c-2.17,0-4.92,1.06-6.34,1.61-1.05-.77-3-1.61-4.86-1.61-4.08,0-7.4,3.3-7.4,7.36,0,2.42.68,4.07,1.33,5.67.89,2.19,1.07,2.73,1.67,6.78.6,4.03,1.22,8.19,5.15,8.19,3.08,0,4.11-3.7,4.84-7,.73,3.3,1.76,7,4.84,7,3.94,0,4.56-4.17,5.15-8.19.6-4.05.78-4.59,1.67-6.78.65-1.6,1.33-3.26,1.33-5.67,0-4.06-3.32-7.36-7.4-7.36Zm3.29,11.89c-1,2.44-1.23,3.23-1.86,7.47-.57,3.83-.97,5.64-2.19,5.64-.91,0-1.79-4.07-2.08-5.41-.57-2.65-.99-4.57-2.76-4.57s-2.19,1.92-2.76,4.57c-.29,1.34-1.17,5.41-2.08,5.41-1.22,0-1.62-1.8-2.19-5.64-.63-4.22-.86-5.01-1.86-7.47-.59-1.46-1.11-2.71-1.11-4.54,0-2.3,1.82-4.17,4.11-4.33,3.16-.08,6.63,2.99,10.43,2.94.33,0,.49-.12.45-.26,0,0-1.45-.69-3.34-1.83,1.22-.4,2.89-.88,3.95-.88,2.43,0,4.4,1.95,4.4,4.36,0,1.83-.51,3.08-1.11,4.54Z"/></g></svg>