<?xml version="1.0" encoding="UTF-8"?><svg id="Laag_1" xmlns="http://www.w3.org/2000/svg" xmlns:xlink="http://www.w3.org/1999/xlink" viewBox="0 0 64 64"><defs><style>.cls-1{fill:none;}.cls-2{clip-path:url(#clippath);}.cls-3{clip-path:url(#clippath-1);}</style><clipPath id="clippath"><rect class="cls-1" width="64" height="64"/></clipPath><clipPath id="clippath-1"><rect class="cls-1" width="64" height="64"/></clipPath></defs><g class="cls-2"><g class="cls-3"><path d="M41.35,28.44s-1.43-4.59-3.23-8.37c-.56-1.18-1.47-1.29-2.58-.78-1.07,.49-1.97,1.46-1.33,2.42,2.24,3.38,3.21,4.84,4.69,8.69,.3,.78,1.28,1.07,2.03,.71,2.5-1.2,7.54-4.37,8.15-10.59,.03-.33-.25-.6-.58-.55-1.39,.18-4.79,.83-7.21,2.86,.43,2.42,.37,4.81,.33,5.26-.03,.34-.21,.37-.27,.36"/><path d="M50.8,31.25c-5.36-1.96-6.4,1.77-9.8,1.89-3.4-.11-4.44-3.85-9.8-1.89-3.28,1.2-5.16,6-5.16,11.75,0,2.11,.33,4.31,1.01,6.43,2.35,7.37,4.88,8.28,7.75,8.55,3.01,.28,4.25-1.75,6.21-2.01,1.95,.25,3.19,2.31,6.2,2.03,2.87-.27,5.4-1.2,7.75-8.57,2.47-7.72,.37-16.52-4.15-18.18"/><path d="M58.08,17.94c-3.66-8.1-13.34-12.62-24.3-11.42,2.26,1.47,3.35,2.8,3.76,3.3,.46,.56,.58,.93,.37,1.19-.84-.33-4.01-2.82-9.54-3.44-2.42,.67-4,1.34-5.76,2.18,4.48,2.03,6.37,4.33,6.93,5.01,.46,.56,.58,.93,.37,1.19-.95-.38-4.92-3.54-11.95-3.57-1.59,1.07-3.07,2.24-4.42,3.5,5.17,2.12,7.27,4.69,7.87,5.42,.46,.56,.58,.92,.38,1.18-.92-.36-4.61-3.3-11.14-3.56-6,7.15-8.3,16.34-5.16,23.27,2.79,6.18,9.37,3.92,18.34-.31,.21-6.02,2.67-11.25,6.62-12.69,1.77-.65,3.53-.92,5.36-.49-.9-1.95-1.79-3.29-3.42-5.76-1.26-1.9-.45-4.41,2.25-5.64,2.43-1.11,4.5-.21,5.48,1.84,.21,.45,.42,.91,.62,1.36,2.62-1.82,5.75-2.47,7.48-2.7,1.74-.23,3.23,1.22,3.06,2.95-.32,3.27-1.68,5.82-3.32,7.75h.01c1.21,0,2.63,.27,4.02,.9,5.63-2.83,8.58-5.94,6.09-11.44"/></g></g></svg>