<?xml version="1.0" encoding="UTF-8"?><svg id="Laag_1" xmlns="http://www.w3.org/2000/svg" viewBox="0 0 64 64"><defs><style>.cls-1{fill:none;}</style></defs><rect class="cls-1" width="64" height="64"/><path d="m53.86,14.12c-.34-2.06-1.91-3.63-3.97-3.97-5.96-.99-15.9-.99-17.88-.99s-11.92,0-17.88.99c-2.06.34-3.63,1.91-3.97,3.97-.99,5.96-.99,15.9-.99,17.88s0,11.92.99,17.88c.34,2.06,1.91,3.63,3.97,3.97,5.96.99,15.9.99,17.88.99s11.92,0,17.88-.99c2.06-.34,3.63-1.91,3.97-3.97.99-5.96.99-15.9.99-17.88,0-5.96,0-11.92-.99-17.88ZM20.5,48.54c-3.25,0-5.05-1.79-5.05-5.04s1.79-5.04,5.05-5.04,5.04,1.79,5.04,5.04-1.79,5.04-5.04,5.04Zm14.63.45c-1.04.01-2.11.03-3.21.03-.95,0-1.88,0-2.79-.02.85-1.51,1.32-3.32,1.32-5.36,0-6.04-4.06-10.09-10.09-10.09-2.04,0-3.85.47-5.36,1.32-.01-.91-.02-1.84-.02-2.79,0-1.1.01-2.16.03-3.21,1.65-.55,3.44-.86,5.35-.86,9.05,0,15.62,6.57,15.62,15.62,0,1.91-.31,3.7-.85,5.35Zm12.04-.65c-1.72.21-3.84.37-6.27.48.39-1.65.61-3.38.61-5.18,0-12.06-9.09-21.15-21.15-21.15-1.81,0-3.53.23-5.19.61.11-2.43.28-4.54.48-6.27,1.52-.24,3.09-.38,4.7-.38,15.5,0,27.18,11.69,27.18,27.18,0,1.61-.13,3.18-.38,4.7Z"/></svg>