<?xml version="1.0" encoding="UTF-8"?><svg id="Laag_1" xmlns="http://www.w3.org/2000/svg" xmlns:xlink="http://www.w3.org/1999/xlink" viewBox="0 0 64 64"><defs><style>.cls-1{fill:none;}.cls-2{clip-path:url(#clippath);}.cls-3{clip-path:url(#clippath-1);}</style><clipPath id="clippath"><rect class="cls-1" width="64" height="64"/></clipPath><clipPath id="clippath-1"><rect class="cls-1" width="64" height="64"/></clipPath></defs><g class="cls-2"><g class="cls-3"><path d="M31.5,17c2.85,0,4.5-2.02,4.5-4.92,0-3.31-1.72-5.08-4.5-5.08-2.93,0-4.5,2.1-4.5,5.08,0,3.15,1.65,4.92,4.5,4.92"/><path d="M59.26,35.2c-.61-3.25-1.36-5.03-1.63-7.3-.61-5.01-2.14-7.42-4.98-8.29-1.35-.42-2.65-.61-4.12-.61h-.05c-1.47,0-2.76,.19-4.12,.61-.96,.29-1.76,.77-2.43,1.45,.68,.95,1.19,2.09,1.57,3.33,.05-.09,.09-.17,.09-.17-.02,.1-.04,.18-.06,.27,1.33,4.51,.97,10.45,.71,14.68-.16,2.62-1.55,4.18-3.16,4.83-.02,.53-.04,1.08-.04,1.67,0,0,1.29,.25,2.96,.32l.21,14s3.22-.49,3.43-3.64c0,0,.27-7.04,.4-10.63,.16-.03,.32-.05,.49-.08,.14-.02,.28-.04,.43-.07,.12,3.51,.4,10.69,.4,10.69,.16,3.24,3.44,3.73,3.44,3.73l.2-14.48c1.52,.14,2.96,.39,2.96,.39,0-7.65-2.03-10.71-2.66-13.11-.34-1.27-.27-2.61,.04-3.89,.29-1.2,.66-2.32,.08-4.69,0,0,.31,.54,.43,.89,.68,1.94,.48,5.69,3.24,14.33,1.2-.15,2.67-1.6,2.17-4.25"/><path d="M42.74,39.17c.39-6.34,1.12-17.74-5.1-19.42-3.56-.96-8.27-1.04-12.28,0-6.24,1.62-5.49,13.07-5.1,19.42,.18,2.89,2.19,3.7,3.52,3.7v-7.81c0-3.48,.05-6.76,.81-8.77,.13-.35,.34-.39,.41-.3v38c2.78,0,5-1.53,5.24-4.6,0,0,.73-16.85,.74-17.05,0-.2,.2-.47,.53-.47s.52,.26,.53,.47c0,.2,.74,17.05,.74,17.05,.24,3.08,2.48,4.6,5.24,4.6V26c.12-.11,.31-.07,.41,.3,.6,2.05,.81,5.33,.81,8.77v7.81c1.33,0,3.34-.82,3.52-3.7"/><path d="M23.5,8c2.22,0,3.5-1.61,3.5-3.93,0-2.65-1.34-4.07-3.5-4.07-2.28,0-3.5,1.68-3.5,4.07,0,2.52,1.28,3.93,3.5,3.93"/><path d="M39.5,8c2.22,0,3.5-1.61,3.5-3.93,0-2.65-1.34-4.07-3.5-4.07-2.28,0-3.5,1.68-3.5,4.07,0,2.52,1.28,3.93,3.5,3.93"/><path d="M48,17c2.53,0,4-1.6,4-4.43s-1.4-4.57-4-4.57-4,1.6-4,4.57c0,2.61,1.47,4.43,4,4.43"/><path d="M21.73,20.09c-.34-.18-.69-.33-1.07-.43-3.16-.86-8.37-.86-11.41,0-1.51,.43-2.65,1.49-3.36,2.97C4,26.56-.05,38.63-.05,38.63c.25,.18,.69,.22,1.18,.16,.38,3.88,1.99,20.47,2.07,21.09,.07,.58,2.03,.39,1.97-.23-.06-.65-1.2-16.76-1.57-21.95,.38-.33,.71-.73,.9-1.19,.79-1.89,1.66-4.03,2.24-5.67,.75-2.12,1.24-3.65,1.88-5.02,.14-.29,.27-.47,.41-.34V60c2.36,0,4.09-1.42,4.31-4.23,0,0,.67-15.36,.68-15.54,0-.19,.18-.43,.49-.43s.47,.24,.47,.43c0,.19,.67,15.57,.67,15.57,.16,2.71,1.67,4.2,4.34,4.2v-17.38c-.68-.81-1.14-1.9-1.23-3.34-.35-5.64-.98-15.18,2.96-19.19"/><path d="M11.04,11.98c-.02,.2-.04,.39-.04,.6,0,2.83,1.47,4.43,4,4.43s4-1.81,4-4.43c0-1.53-.16-3.93-1.61-4.46-.65-.23-1.93-.08-3.3,.27-.01,0-.02,0-.03,0-2.47,.63-5.04,1.88-5.05,2.65-.01,.72,1.03,.77,2.03,.94"/></g></g></svg>