<?xml version="1.0" encoding="UTF-8"?><svg id="Laag_1" xmlns="http://www.w3.org/2000/svg" xmlns:xlink="http://www.w3.org/1999/xlink" viewBox="0 0 64 64"><defs><style>.cls-1{fill:none;}.cls-2{clip-path:url(#clippath);}.cls-3{clip-path:url(#clippath-1);}</style><clipPath id="clippath"><rect class="cls-1" width="64" height="64"/></clipPath><clipPath id="clippath-1"><rect class="cls-1" width="64" height="64"/></clipPath></defs><g class="cls-2"><g class="cls-3"><path d="M25.33,6.13l-2.02,5.82c-1.56,.45-3.05,1.08-4.44,1.87l-5.57-2.7c-.65-.31-1.42-.18-1.93,.33-1.8,1.8-1.13,1.13-2.93,2.93-.51,.51-.64,1.28-.33,1.93l2.73,5.62c-.75,1.36-1.34,2.82-1.77,4.35l-5.93,2.06c-.68,.24-1.13,.88-1.13,1.59v4.15c0,.72,.45,1.36,1.13,1.59l5.95,2.06c.43,1.51,1.02,2.96,1.77,4.31l-2.74,5.65c-.31,.65-.18,1.42,.33,1.93,1.8,1.8,1.13,1.13,2.93,2.93,.51,.51,1.28,.64,1.93,.33l5.62-2.73c1.37,.77,2.83,1.38,4.37,1.83l2.04,5.88c.24,.68,.88,1.14,1.59,1.14h3.07v-18.83c-.33,.04-.66,.07-1,.07-4.55,0-8.24-3.69-8.24-8.24s3.69-8.24,8.24-8.24c.34,0,.67,.03,1,.07V5h-3.07c-.72,0-1.36,.46-1.59,1.13"/><path d="M56.46,18.26c-.94,1.36-2.03,2.1-2.58,2.43-.37,.23-.56,.13-.62,.03,.52-.93,1.54-1.96,1.8-4.17,.55-4.67-2.73-7.64-7.05-6.7-2.2,.48-3.12,1.65-3.98,2.29-.11-.06-.22-.23-.04-.64,.3-.67,1.05-2.12,2.65-3.32-2.1-2.55-5.34-3.84-8.38-3.02-1.87,.51-3.33,1.73-4.25,3.34V25.08c1.14-1.33,2.84-2.16,4.26-2.3,.48-.05,.85-.05,.81,.29-3.86,2.14-5.05,6.27-5.05,9.62,0,0,0-.02-.02-.03v3.41c2.72-.99,6.65,.57,7.46,4.26,.16,.73-.19,.78-.19,.78,0-.02-.7-1.59-2.49-2.5-1.55-.78-3.27-.74-4.78-.04v16.93c.92,1.6,2.39,2.82,4.25,3.33,3.23,.88,7.3-.32,9.35-4.49-1.69-.8-2.6-1.93-2.98-2.45-.23-.32-.15-.48-.06-.54,.86,.39,1.83,1.2,3.74,1.38,5.39,.5,9.28-4.39,7.53-8.84-.59-1.51-1.57-2.17-2.14-2.83,.05-.1,.21-.2,.6-.06,.48,.18,1.38,.55,2.3,1.29,3.85-1.99,5.52-7.11,2.92-11.84,3.22-4.94,1.17-10.41-3.06-12.18m-18.88-3.74c.15-.32,.4-.59,.54-.45,0,1.52,1.36,4.76,6.05,3.48,1.44-.4,2.52-1.08,3.81-1.96,.17,.03,.18,.21,.02,.49-.82,1.44-2.23,3.4-5.81,3.64-4.16,.32-5.65-3.02-4.61-5.2m3.72,17.93c-1.64-1.29-1.5-5.35,1.3-6.93,1.59-.89,3.88-.3,5.6,.15,2.62,.67,4.46,.62,6.69-.37,.18,.34-.02,.65-.27,.94-1.22,1.39-3.71,1.77-5.79,1.58-2.52-.24-3.3-1.04-5.28-.14-2.51,1.13-1.57,4.81-1.55,4.85-.18,.31-.48,.09-.7-.07m8.3,14.88c-.31-.79-1.3-1.82-2.73-2.19-1.49-.39-3.38-.07-4.98,1.09-2.8,2.02-2.69,4.52-2.69,4.54,0,0-.44,.17-.46-.68-.03-1.43,.59-4.36,2.49-5.78,3.76-2.82,8.36-1.1,8.69,2.1,.07,.63-.03,.95-.33,.92m6.71-9.85c-2.16-2.52-4.98-3.73-7.57-2.04-1.79,1.17-2.91,3.48-2.91,3.5,0,0-.32,.04-.25-.63,.11-.95,.76-2.84,2.05-4.12,2.75-2.72,7.74-1.79,8.71,2.38,.12,.5,.2,.73-.04,.9"/></g></g></svg>