<?xml version="1.0" encoding="UTF-8"?><svg id="Laag_1" xmlns="http://www.w3.org/2000/svg" xmlns:xlink="http://www.w3.org/1999/xlink" viewBox="0 0 64 64"><defs><style>.cls-1{fill:none;}.cls-2{clip-path:url(#clippath);}.cls-3{clip-path:url(#clippath-1);}</style><clipPath id="clippath"><rect class="cls-1" width="64" height="64"/></clipPath><clipPath id="clippath-1"><rect class="cls-1" width="64" height="64"/></clipPath></defs><g class="cls-2"><g class="cls-3"><path d="M62.31,31.02c-1.47-.66-5.34-2.02-12.31-2.02s-10.84,1.36-12.31,2.02c-.42,.19-.69,.61-.69,1.07v17.11c0,2,.85,3.91,2.34,5.27,3.94,3.59,8.37,5.55,10.01,6.2,.42,.17,.88,.17,1.31,0,1.64-.65,6.07-2.61,10.01-6.2,1.48-1.35,2.34-3.26,2.34-5.27v-17.11c0-.46-.27-.89-.69-1.07m-4.96,6.96l-7.28,12.05c-.2,.33-.57,.54-.95,.54h0c-.39,0-.75-.21-.95-.54l-4.77-7.95c-.28-.47-.18-1.08,.24-1.43,.42-.35,1.03-.35,1.45,.01l3.93,3.41,6.55-7.41c.38-.43,1.03-.5,1.5-.15,.46,.34,.59,.99,.29,1.48"/><path d="M32.37,33.96c-2.42-.09-4.32-.15-5.2,2.07-.71,1.79-1.62,2.04-2.38,2.02-2.45-.08-3.82-2.38-6.22-2.77-2.96-.48-3.54,1.26-6.8,.67-2.36-.42-2.11-2.13-3.55-2.65-1.82-.65-4.72,1.09-5.49-.32-.49-.89,2.07-2.63,3.49-3.19,.1,1.03,.86,1.9,1.89,2.1,10.6,2.05,13.46,2.61,14.52,2.8,1.34,.25,1.61,.14,3.01-.49h0c4.93-2.35,11.47-6.13,15.34-9.86,3.22-3.1,5.28-6.49,5.86-9.5,1.59,.19,3.28,.68,3.46,1.4,.12,.48-.09,.74-1.63,1.46-1.21,.56-3.04,1.42-2.61,3.38,.25,1.13,.14,2.06-.32,2.76-.56,.85-1.66,1.45-3.28,1.77-1.46,.29-2.32,1.27-2.83,2.41,2.04-.56,4.93-1.08,8.81-1.19,1.22-2.65,1.56-5.13,1.29-7.41,1.3-.61,3.05-1.55,2.52-3.66-.54-2.15-3.6-2.77-5.44-2.94-2.29-4.19-8.29-7.06-15.99-3.68,5.73,2,7.1,6.54,7.27,7.34,.15,.69,.13,.89-.09,.93-.7-.98-6.18-6.91-12.33-6.1-2.29,1.18-4.56,2.59-6.68,4.05,7.56,.99,9.75,6.34,10.03,7.22,.22,.7,.22,.91,0,.97-.86-1-7.81-7.12-14.66-4.77-5.86,4.31-7.41,6.35-7.95,8.86-1.97,.47-4.24,1.91-5.24,3.53-1.17,1.91-.19,4.8,3.69,4.29-1.1,.7-3.98,2.71-3.98,2.71,1.42,1.54,3.52,2.01,5.88,2.05,.71,3.91,4.42,6.74,8.12,7.84,4.15,1.24,8.31-.21,9.29-.56,3.2-1.13,6.74-3.18,10.62-6.17v-7.8c-1.36,.56-2.28,.41-2.43,.42M9.82,25.34c1.18-1.15,3.02-1.82,4.96-1.82,.07,0,.13,0,.2,0h0c4.94,.12,8.2,5.47,8.84,9.05,.03,.17-.12,.31-.29,.28l-15.05-2.93c-.17-.03-.29-.18-.29-.35,0-1.76,.55-3.18,1.62-4.23m11.61,19.88c-1.64,1.27-3.76,1.6-5.96,.94-2.18-.65-5.87-2.65-6.66-5.97,4.11-.25,8.64-1.21,11.73-.03,1.27,.49,2.32,.86,3.22,1.15-.18,1.44-1.04,2.92-2.33,3.91"/></g></g></svg>