<?xml version="1.0" encoding="UTF-8"?><svg id="Laag_1" xmlns="http://www.w3.org/2000/svg" xmlns:xlink="http://www.w3.org/1999/xlink" viewBox="0 0 64 64"><defs><style>.cls-1{fill:none;}.cls-2{clip-path:url(#clippath);}.cls-3{clip-path:url(#clippath-1);}</style><clipPath id="clippath"><rect class="cls-1" width="64" height="64"/></clipPath><clipPath id="clippath-1"><rect class="cls-1" width="64" height="64"/></clipPath></defs><g class="cls-2"><g class="cls-3"><path d="M32,4c-10.24,0-17.96,7.73-17.96,17.97,0,5.96,2.88,10.42,6.21,15.58,3.24,5.01,6.91,11.68,9.19,20.47,.3,1.17,1.36,1.98,2.56,1.98s2.26-.81,2.56-1.98c2.28-8.79,5.95-15.46,9.19-20.47,3.33-5.16,6.21-9.61,6.21-15.58,0-10.25-7.72-17.97-17.96-17.97m12.58,19.21c-4.61,9.26-17.92,10.13-21.36,3.46-.74-1.43-.72-2.92-.25-4.26-2.93-3.47-2.35-8.42-2.21-9.11,.19-.91,1.01-1.17,1.92-.98,.91,.19,1.56,.75,1.36,1.66-1.33,6.13,1.7,9.52,7.64,11.79,.1-.04,.14-.22-.12-.38-.24-.15-4.61-2.94-5.57-6.71,.46-.28,.94-.49,1.42-.61,5-1.25,5.94,2.83,9.17,4.69,2.01,1.17,5,1.28,7.67,.09,.22-.1,.44,.13,.33,.35"/></g></g></svg>