<?xml version="1.0" encoding="UTF-8"?><svg id="Laag_1" xmlns="http://www.w3.org/2000/svg" xmlns:xlink="http://www.w3.org/1999/xlink" viewBox="0 0 64 64"><defs><style>.cls-1{fill:none;}.cls-2{clip-path:url(#clippath);}.cls-3{clip-path:url(#clippath-1);}</style><clipPath id="clippath"><rect class="cls-1" width="64" height="64"/></clipPath><clipPath id="clippath-1"><rect class="cls-1" width="64" height="64"/></clipPath></defs><g class="cls-2"><polygon points="5 5 11 5 11 2 2 2 2 11 5 11 5 5"/><polygon points="5 53 2 53 2 62 11 62 11 59 5 59 5 53"/><polygon points="53 2 53 5 59 5 59 11 62 11 62 2 53 2"/><polygon points="59 59 53 59 53 62 62 62 62 53 59 53 59 59"/><polygon points="62 37 62 31 57 34 62 37"/><polygon points="2 31 2 37 7 34 2 31"/><g class="cls-3"><path d="M47,52H17v-14h-5v17c0,1.1,.9,2,2,2H50c1.1,0,2-.9,2-2v-17h-5v14Z"/><path d="M8,32v4H56v-4h-4v-8.17c0-.53-.21-1.04-.59-1.42l-14.83-14.83c-.38-.38-.88-.59-1.42-.59H14c-1.1,0-2,.9-2,2v23h-4ZM17,12h16.71l.93-3.13c.11-.34,.36-.23,.36-.23v14.37c0,.55,.45,1,1,1h14.37s.12,.25-.22,.36l-3.15,.93v6.71H17V12Z"/></g></g></svg>