<?xml version="1.0" encoding="UTF-8"?><svg id="Laag_1" xmlns="http://www.w3.org/2000/svg" xmlns:xlink="http://www.w3.org/1999/xlink" viewBox="0 0 64 64"><defs><style>.cls-1{fill:none;}.cls-2{clip-path:url(#clippath);}.cls-3{clip-path:url(#clippath-1);}</style><clipPath id="clippath"><rect class="cls-1" width="64" height="64"/></clipPath><clipPath id="clippath-1"><rect class="cls-1" width="64" height="64"/></clipPath></defs><g class="cls-2"><g class="cls-3"><path d="M50.16,26h-12.44l-13.29-12.46c-.37-.35-.86-.54-1.37-.54h-1.4c-.34,0-.57,.34-.45,.65l3.94,10.5,7.44,1.5c.3,.1,.26,.3,.24,.35h-7.89c-4.43,0-8.2,.22-11.3,.53l-7.51-9.01c-.27-.33-.68-.52-1.11-.52h-1.54c-.33,0-.56,.32-.46,.63l3.34,10.03c-1.19,.27-2.08,.53-2.65,.76-.79,.3-.99,1.35-.28,1.8,4.49,2.87,15.11,4.99,21.56,5.6l-10.89,13.4c-.26,.31-.03,.78,.37,.78h3.2c.39,0,.77-.11,1.09-.33l20.91-13.67h11.63c5.21,0,9.08-1.61,9.62-3.81,.5-2.03-2.68-6.19-10.78-6.19"/></g></g></svg>