<?xml version="1.0" encoding="UTF-8"?><svg id="Laag_1" xmlns="http://www.w3.org/2000/svg" xmlns:xlink="http://www.w3.org/1999/xlink" viewBox="0 0 64 64"><defs><style>.cls-1{fill:none;}.cls-2{clip-path:url(#clippath);}.cls-3{clip-path:url(#clippath-1);}</style><clipPath id="clippath"><rect class="cls-1" width="64" height="64"/></clipPath><clipPath id="clippath-1"><rect class="cls-1" width="64" height="64"/></clipPath></defs><g class="cls-2"><g class="cls-3"><path d="M55.64,45.47l-11.79-1.61c-.69-.09-1.35,.3-1.44,.99-.24,.65,.15,1.31,.71,1.61l4.27,2.03-7.5,4.49c-1.22,.73-.81,2.27-.14,3.39s1.72,2.03,2.94,1.3l7.5-4.49-.23,4.72c.07,.9,.62,1.37,1.08,1.39,.6,.15,1.31-.15,1.56-.8l4.16-11.15c.28-.81-.28-1.74-1.12-1.88"/><path d="M25.12,8.88c1.96,.28,3.3-.93,3.58-2.9,.33-2.25-.69-3.63-2.6-3.91-2.01-.29-3.3,.98-3.6,3.01-.31,2.14,.65,3.52,2.61,3.8"/><path d="M16.17,24.11c.25-2.21,.65-5.52,1.33-6.96,.28-.59,1.56-1.48,2.1-1.85-.32,1.61-1.41,6.99-1.38,8.22,.03,1.52,.75,2.24,1.56,2.65,.96,.48,2.76,1.07,2.76,1.07,0,0-.02,.18-.26,.16-1.23-.11-2.77-.2-2.77-.2-.1,.4-.47,7.89-.47,7.89,0,0-1.86,2.86-2.7,4.41-1.39,2.54,.38,4.35,.63,4.58,1.37-2.01,3.35-4.53,4.69-6.62,.44-.69,1.06-1.61,1.33-2.87,.19-.9,.46-3.16,1-6.82,1.83,.78,3.11,1.27,4.08,1.65-.05,3.49,.02,5.12,.28,6.52,.43,2.35,1.92,2.75,2.6,2.81,.36-2.6,.88-6.99,1.06-9.64,.13-1.88-.56-3.01-1.14-3.44-.68-.51-1.3-.72-1.95-.98-1.51-.62-2.18-.91-3.72-1.57,.41-1.87,.73-2.99,1.18-5.1,.22,.66,.48,1.34,.86,2.07,.46,.86,2.93,1.76,3.8,2.2,2.11,1.08,3.48-.19,3.75-.48-1.79-1.2-5.05-2.82-5.36-3.47-.3-.62-.35-.92-.57-1.65-.1-.34-.6-3.43-1.32-4.59-.75-1.21-4.58-3.08-6.91-1.62-1.28,.8-3.69,2.66-4.9,4.04-.74,.85-1.03,1.36-1.32,3.2-.17,1.16-.27,2.5-.27,3.66,0,1.29,.71,2.5,2.06,2.76"/><path d="M56.5,28h-9.4c-1.16,0-2.1,.94-2.1,2.1v3.9h-7.9c-1.16,0-2.1,.94-2.1,2.1v3.9h-7.9c-1.16,0-2.1,.94-2.1,2.1v3.9h-7.9c-1.16,0-2.1,.94-2.1,2.1v3.9H7.5c-1.1,0-1.5,.9-1.5,2s.4,2,1.5,2h11.5v-6h10v-6h10v-6h10v-6h7.5c1.1,0,1.5-.9,1.5-2s-.4-2-1.5-2"/></g></g></svg>