<?xml version="1.0" encoding="UTF-8"?><svg id="Laag_1" xmlns="http://www.w3.org/2000/svg" xmlns:xlink="http://www.w3.org/1999/xlink" viewBox="0 0 64 64"><defs><style>.cls-1{fill:none;}.cls-2{clip-path:url(#clippath);}.cls-3{clip-path:url(#clippath-1);}</style><clipPath id="clippath"><rect class="cls-1" width="64" height="64"/></clipPath><clipPath id="clippath-1"><rect class="cls-1" width="64" height="64"/></clipPath></defs><g class="cls-2"><g class="cls-3"><path d="M58.93,9.83c-.12-1.28-.43-2.27-.71-2.93-.23-.56-.78-.91-1.38-.91h-5.93s-1.64-2.18-3.72-3.26c-3.02-1.57-7.28,1.1-7.28,1.1,0,0-1.25-.33-3.83,1s-3.77,7.97-3.85,10.22c-.06,1.57,1.42,2.07,2.75,1.92h0c1.63-.07,2.91-.7,4.38-1.88,.19,0,.15,.3,.02,.59-.29,.68-1.69,2.84-4.99,3.22-2,5.42-4.7,6.15-10.9,12.35-6.83,6.83-6.58,20-6.58,20,0,0-2.17,2.42-6.17,1.58-3.7-.77-2.94-4.34-1.91-6.81,.36-.87-.58-1.72-1.4-1.25-4.93,2.79-5.11,7.64-3.1,10.56,1.66,2.42,5.5,3.67,9.67,3.67h11.64c-3.36-11.07-1.31-21.44,10.03-22.69-1.51-3.61-1.37-7.01-.85-9.8,0,0,1.61,.99,3.15,2.06,0,0,2.31-1.07,5.02,0,0,0,1.68-1.56,3.22-2.06,.49,2.55,.87,7.79-1.91,11.33,0,0,1.51,2.83,.76,7.25-.75,4.42-3.06,6.74-3.06,6.74v4.1s1.72,.77,2.28,3.07h9.72c0,.08,1.08-2.5-.5-4.08-1.5-1.5-4.25-.47-3.18-5.42,1.37-6.3,5.53-13.61,3.78-20.49-1.42-5.58-2.08-10.17-1.75-11.75,.26-1.22,2.96-2.57,4.75-3.58,1.33-.75,2-2,1.83-3.83"/><path d="M39,33c0-.55-.45-1-1-1s-1,.45-1,1,.45,1,1,1,1-.45,1-1"/><path d="M40.5,34.82c-.61,0-1.11,.14-1.11,.52s.79,.84,1.11,.84,1.11-.46,1.11-.84-.5-.52-1.11-.52"/><path d="M44,33c0-.55-.45-1-1-1s-1,.45-1,1,.45,1,1,1,1-.45,1-1"/><path d="M38,55.83s2.28-4.98-.33-7.43c-2.17-2.03-5.57-.81-7.47,1-.23,.22-.31,.46-.16,.52,1.23-.53,4.97-1.67,6.24,.04,1.63,2.19-.77,6.62-.77,6.62,0,0,1.91,.15,2.28,2.42h2.4c-.16-1.03-.66-2.44-2.18-3.17"/></g></g></svg>