<?xml version="1.0" encoding="UTF-8"?><svg id="Laag_1" xmlns="http://www.w3.org/2000/svg" xmlns:xlink="http://www.w3.org/1999/xlink" viewBox="0 0 64 64"><defs><style>.cls-1{fill:none;}.cls-2{clip-path:url(#clippath);}.cls-3{clip-path:url(#clippath-1);}</style><clipPath id="clippath"><rect class="cls-1" width="64" height="64"/></clipPath><clipPath id="clippath-1"><rect class="cls-1" width="64" height="64"/></clipPath></defs><g class="cls-2"><g class="cls-3"><path d="M61.05,52.06l-8.38-14.51c1.35-2.3,1.67-5.4,.86-8.53-.39-1.52-1.75-5.26-4.8-7.64-1.05,4.22-3.51,7.68-5.12,8.24-.35,.12-.37-.08-.37-.08,2.99-2.89,4.18-7.7,3.85-11.49C46.2,7.63,34.87,.15,23.64,6.12c-4.8,2.55-7.5,7.83-7.24,13.25v.03c-2.24,1.08-4.28,2.93-5.71,5.39-2.75,4.76-2.35,10.34,.63,13.71,0,0-8.16,14.14-8.98,15.55-.8,1.38,.21,2.55,1.47,3.28,1.27,.73,2.48,.97,3.3-.44,.81-1.41,1.01-1.74,1.01-1.74l3.2,1.85c.89,.51,2.02,.21,2.53-.68l1.85-3.2c.51-.88,.21-2.02-.68-2.53l-3.2-1.85,4.32-7.48c3.13,.63,6.56-.4,9.27-2.76,.65,1.89,1.74,3.46,3.09,4.51v13.93c0,1.9,1.97,3.08,3.87,3.08s3.87-1.18,3.87-3.08l-1.6-1.4c-.6-.53-.6-1.46,0-1.99l1.6-1.4v-1.24l-1.6-1.4c-.6-.53-.6-1.46,0-1.99l1.6-1.4v-3.08c1-.78,1.8-1.81,2.33-2.77-2.82-2.54-3.98-6.01-3.78-7.39,.05-.36,.26-.27,.26-.27,1.72,4.47,6.17,8.61,11.2,8.61l2.35,4.08,1.82,.36c.95,.19,1.52,1.17,1.21,2.09l-.6,1.76,1.23,2.14,1.82,.36c.95,.19,1.52,1.17,1.21,2.09l-.6,1.76,.41,.7c1.03,1.78,2.82,1.52,4.6,.48,1.73-1.01,2.35-3.22,1.35-4.96M24.14,30.85c-1.16,3.17-4.95,6.33-7.88,4.64-2.21-1.28-2.56-4.82-.77-7.92,.56-.98,1.28-1.77,2.05-2.39,.78,2.2,2.79,4.72,4.56,6.06,2.22-3.93,.6-6.98,.6-6.98,1.39,.59,2.72,3.08,1.44,6.59m13.82-11.39c-1.97,1.14-3.2,3.13-3.71,5.48-.61-.2-1.23-.34-1.89-.34-.92,0-1.78,.24-2.59,.63-.65-2.42-2.09-4.5-4.26-5.75-1.08-.62-2.26-.98-3.46-1.11,.51-4.94,4.65-8.82,9.72-8.82s9.28,3.94,9.74,8.93c-1.25,.03-2.46,.35-3.55,.98"/></g></g></svg>