<?xml version="1.0" encoding="UTF-8"?><svg id="Laag_1" xmlns="http://www.w3.org/2000/svg" xmlns:xlink="http://www.w3.org/1999/xlink" viewBox="0 0 64 64"><defs><style>.cls-1{fill:none;}.cls-2{clip-path:url(#clippath);}.cls-3{clip-path:url(#clippath-1);}</style><clipPath id="clippath"><rect class="cls-1" width="64" height="64"/></clipPath><clipPath id="clippath-1"><rect class="cls-1" width="64" height="64"/></clipPath></defs><g class="cls-2"><g class="cls-3"><path d="M33.92,13.02l-.85-11.1c-.04-.52-.47-.92-1-.92h-7.15c-.52,0-.96,.4-1,.92l-.74,9.61,5.54,1.1c.32,.1,.27,.31,.25,.36h-7.48c-3.03,0-5.5,2.47-5.5,5.5V56.5c0,3.03,2.47,5.5,5.5,5.5h21c3.03,0,5.5-2.47,5.5-5.5V27.5c0-7.85-6.28-14.25-14.08-14.48m-.92,13.98c0-2.21,1.79-4,4-4s4,1.79,4,4v8c0,2.21-1.79,4-4,4s-4-1.79-4-4v-8Zm9,32H21.5c-1.38,0-2.5-1.12-2.5-2.5V19c0-.55,.45-1,1-1s1,.45,1,1V56.5c0,.28,.22,.5,.5,.5h20.5c.55,0,1,.45,1,1s-.45,1-1,1"/></g></g></svg>