<?xml version="1.0" encoding="UTF-8"?><svg id="Laag_1" xmlns="http://www.w3.org/2000/svg" viewBox="0 0 64 64"><defs><style>.cls-1{fill:none;}</style></defs><rect class="cls-1" width="64" height="64"/><polygon points="10.67 18.67 10.67 18.67 10.67 18.67 10.67 18.67"/><path d="m50.67,10.67h-8v-2.67c0-1.47-1.19-2.67-2.67-2.67h-16c-1.47,0-2.67,1.19-2.67,2.67v2.67h-8c-1.47,0-2.67,1.19-2.67,2.67v5.33h14.28s.15.32-.31.44c-.58.16-11.31,1.43-11.31,1.43v35.46c0,1.47,1.19,2.67,2.67,2.67h32c1.47,0,2.67-1.19,2.67-2.67V18.67h2.67v-5.33c0-1.47-1.19-2.67-2.67-2.67Zm-26.67,40l-5.33,2.67v-29.33h5.33v26.67Zm10.67,0l-5.33,2.67v-29.33h5.33v26.67Zm10.67,0l-5.33,2.67v-29.33h5.33v26.67ZM24.43,10.63v-.8c0-.94-.16-1.7.88-1.7h13.27c1.04,0,.88.76.88,1.7v.8h-15.03Z"/></svg>