<?xml version="1.0" encoding="UTF-8"?><svg id="Laag_1" xmlns="http://www.w3.org/2000/svg" xmlns:xlink="http://www.w3.org/1999/xlink" viewBox="0 0 64 64"><defs><style>.cls-1{fill:none;}.cls-2{clip-path:url(#clippath);}.cls-3{clip-path:url(#clippath-1);}</style><clipPath id="clippath"><rect class="cls-1" width="64" height="64"/></clipPath><clipPath id="clippath-1"><rect class="cls-1" width="64" height="64"/></clipPath></defs><g class="cls-2"><g class="cls-3"><path d="M8.03,32.09c-.61-13.75,10.36-25.09,23.97-25.09s24.59,11.32,23.97,25.09c1.03,.47,1.98,1.08,2.83,1.81,.1-.95,.16-1.92,.16-2.9,0-14.87-12.1-26.96-26.96-26.96-15.92,0-28.53,13.84-26.81,29.87,.85-.73,1.8-1.34,2.83-1.81"/><path d="M51.78,31.03c.41,.03,.81,.08,1.21,.14,.09-11.76-9.45-21.17-20.99-21.17S10.92,19.39,11.01,31.17c.4-.07,.8-.12,1.21-.14,.55-.78,1.2-1.48,1.92-2.1,1.03-8.96,8.63-15.92,17.87-15.92s16.84,6.96,17.87,15.92c.72,.62,1.36,1.33,1.91,2.1"/><path d="M32,16c-6.82,0-12.58,4.58-14.4,10.83,1.09-.42,2.25-.68,3.47-.77,1.89-4.16,6.06-7.06,10.93-7.06s9.04,2.9,10.93,7.06c1.22,.09,2.38,.35,3.47,.77-1.81-6.24-7.58-10.83-14.4-10.83"/><path d="M51,34c-.3,0-.61,.02-.91,.05-1.46-3-4.52-5.05-8.09-5.05-.8,0-1.58,.1-2.33,.31-1.59-2.59-4.45-4.31-7.67-4.31s-6.07,1.72-7.67,4.31c-.76-.2-1.54-.31-2.33-.31-3.57,0-6.64,2.04-8.09,5.05-5.29-.54-9.91,3.63-9.91,8.95s4.36,9.28,9.51,8.99c1.23,3.5,4.57,6.01,8.49,6.01,.99,0,1.97-.16,2.89-.47,1.66,2.14,4.24,3.47,7.11,3.47s5.46-1.33,7.11-3.47c.92,.31,1.89,.47,2.89,.47,3.92,0,7.26-2.51,8.49-6.01,5.15,.3,9.51-3.82,9.51-8.99s-4.04-9-9-9m0,15c-1.12,0-2.17-.31-3.07-.85,.52,3.69-2.34,6.85-5.93,6.85-1.61,0-3.07-.64-4.15-1.68-.6,2.68-2.99,4.68-5.85,4.68s-5.24-2-5.85-4.68c-1.08,1.04-2.54,1.68-4.15,1.68-3.59,0-6.46-3.16-5.93-6.85-.9,.54-1.94,.85-3.07,.85-3.31,0-6-2.69-6-6s2.69-6,6-6c1.1,0,2.12,.3,3.01,.82,.1-3.23,2.74-5.82,5.99-5.82,1.55,0,2.96,.59,4.02,1.56,.23-3.11,2.81-5.56,5.98-5.56s5.75,2.51,5.98,5.56c.11,1.47-.34,3.12-1.74,4.77,.08,.16,.35,.11,.64-.09,.47-.32,3.21-2.09,3.24-5.91,.59-.2,1.22-.33,1.88-.33,3.25,0,5.89,2.59,5.99,5.82,.89-.51,1.91-.82,3.01-.82,3.31,0,6,2.69,6,6s-2.69,6-6,6"/></g></g></svg>