<?xml version="1.0" encoding="UTF-8"?><svg id="Laag_1" xmlns="http://www.w3.org/2000/svg" xmlns:xlink="http://www.w3.org/1999/xlink" viewBox="0 0 64 64"><defs><style>.cls-1{fill:none;}.cls-2{clip-path:url(#clippath);}.cls-3{clip-path:url(#clippath-1);}</style><clipPath id="clippath"><rect class="cls-1" width="64" height="64"/></clipPath><clipPath id="clippath-1"><rect class="cls-1" width="64" height="64"/></clipPath></defs><g class="cls-2"><g class="cls-3"><path d="M49.29,29.26c-.31-.1-.95-.34-.95-.34,0,0,.05-.61,.06-.87,.14-2.7,.47-3.06-2.16-3.06h-7.73c1.55-2.98,.95-5.9-1.08-7.94-.83-.83-1.66-1.66-2.54-2.44-2.06-1.81-2.81-3.9-1.57-6.49,.15-.31,.2-.65,.4-1.28-2.84,1.07-4.51,2.86-5.15,5.53-.59,2.46,.13,4.55,2.1,6.16,.94,.77,1.92,1.49,2.83,2.29,1.09,.97,1.53,3.18,.94,4.16h-5.88c.53-2.03-1.08-2.91-2.36-3.95-.44-.36-.87-.72-1.29-1.09-.92-.81-1.34-1.79-1.03-3.03,.08-.31,.07-.65,.12-1.18-1.67,.91-2.75,2.01-2.99,3.73-.23,1.64,.72,2.66,1.97,3.54,.77,.55,2.45,1.29,2.45,1.99H14c-1.61,0-2.27,.74-2.24,1.95,.01,.56,1.24,7.38,2.12,10.14,1.23,3.86,2.52,7.25,5.2,10.28,12.64,.63,11.92,2.62,11.92,2.62H7c0,2.58,2.1,5,4,5H49.69c1.9,0,3.31-2.42,3.31-5h-15s1.31-.57,2.77-2.58c.64-.88,1.19-1.12,2.35-.76,.81,.25,1.69,.39,2.55,.47,4.58,.44,8.94-2.72,9.87-7.12,1-4.73-1.66-9.3-6.25-10.75m.9,12.97c-1.66,1.43-4.24,1.76-6.11,.83,1.26-3.47,2.49-6.84,3.73-10.25,1.68,.11,3.4,1.56,4.04,3.51,.69,2.11,.03,4.45-1.66,5.91"/></g></g></svg>