<?xml version="1.0" encoding="UTF-8"?><svg id="Laag_1" xmlns="http://www.w3.org/2000/svg" xmlns:xlink="http://www.w3.org/1999/xlink" viewBox="0 0 64 64"><defs><style>.cls-1{fill:none;}.cls-2{clip-path:url(#clippath);}.cls-3{clip-path:url(#clippath-1);}</style><clipPath id="clippath"><rect class="cls-1" width="64" height="64"/></clipPath><clipPath id="clippath-1"><rect class="cls-1" width="64" height="64"/></clipPath></defs><g class="cls-2"><g class="cls-3"><path d="M56.57,53.95c-.94-.12-2.94-.33-4.95-.18-2.76,.2-4.01,.35-5.47,1.18,.36-2.27,0-5.41-2.37-8.98-.13-.2-.44-.2-.56,0-.71,1.15-2.53,4.38-2.14,6.87,.25,1.63,1.02,2.96,2.07,3.95-1.32,1.17-2.25,1.79-3.98,2.94-.97,.64-1.17,1.98-.31,2.77,.6,.55,1.55,.68,2.18,.15,1.52-1.28,2.69-2.44,4.32-4.43,2.05,.89,4.49,.95,6.59,.05,1.87-.8,3.87-2.62,4.84-3.8,.16-.2,.04-.5-.22-.54"/><path d="M59.32,41.59c.6-1.04,.59-2.4,.29-3.88-.03-.15-.17-.27-.32-.27-1.55,0-3.83,.42-4.47,1.7-.75,1.49-.04,3.08-.47,5.22,2.25-1.64,4.03-1.13,4.97-2.77"/><path d="M51.28,47.68s1.75-1.88,1.65-4.52c-.08-2.07-1.55-4.22-2.18-5.04-.13-.17-.39-.15-.49,.05-.36,.74-1.05,2.41-.82,3.99,.31,2.13,1.48,3,1.84,5.53"/><path d="M61.42,44.72c-.88-.11-3.27-.27-5.62,.71-2.23,.93-3.67,2.75-3.67,2.75,1.75-.61,3.5-.7,5.18-.59,2.09,.15,3.82-1.23,4.34-2.47,.08-.18-.04-.38-.23-.4"/><path d="M47.68,51.97s2.3-2.6,1.93-4.8c-.35-2.1-1.31-3.1-2.1-5.45-.08-.26-.42-.31-.58-.09-.55,.74-1.44,2.27-1.28,4.13,.23,2.54,1.55,2.92,2.03,6.22"/><path d="M59.98,49.45c-.96-.3-3.39-.88-5.96-.16-3.32,.93-5.74,3.54-5.74,3.54,3.25-.85,5.35-.26,7.91-.42,1.82-.11,3.03-1.2,3.97-2.44,.14-.18,.05-.45-.17-.51"/><path d="M39.1,53.15c-.47-3.01,1.31-6.44,2.42-8.23,.45-.73,1.28-1.19,2.28-1.07,.06-.31,.15-.59,.24-.87-1.07-.57-2.13-.99-2.74-1.06-1.27-.14-3.76,.52-4.91,.85-.11-1.05-.24-2.39-.28-2.83,2.15-2.38,3.43-4.85,3.83-7.39,1.33-1.22,2.08-3.17,2.08-5.56,0-.87,0-3.38-1.93-4.63-.06-3.38-.42-7.39-2.9-9.68-3.8-3.52-7.5-2.92-8.18-2.83-.14-.16,.06-.33,.5-.47,1.6-.5,3.36-.47,5.01-.2,.45-.82,.72-1.76,.72-2.77,0-3.1-2.39-5.62-5.34-5.62-2.07,0-3.63,1.4-4.75,3.07-1.73,2.57-2.89,.92-1.71-1,0,0-3.38,.41-3.43,3.27-.03,2.12,1.6,3.58,2.46,4.21-4.98,2.07-7.38,7.2-7.18,12.55-1.29,1.33-1.3,3.35-1.3,4.11,0,2.39,.75,4.33,2.07,5.55,.39,2.59,1.69,5.07,3.92,7.49-.1,.84-.22,1.81-.33,2.82-1.35-.44-3.45-1.02-4.94-.94-1.68,.09-5.05,1.41-5.14,2.34-.07,.63,1.42,1.18,3.57,2.23-2.07,.81-3.97,1.76-4.93,2.76-1.83,1.91-3.08,7.31-3.72,10.74H36.55c.28-.77,.79-1.45,1.51-1.92,.96-.64,1.65-1.09,2.28-1.56-.63-1.01-1.06-2.14-1.24-3.36m-11.08,3.71c-.02,.21-.55-.01-.93-.28-4.49-3.14-5.97-10.17-6-10.36,1.18-.8,1.29-1.48,1.33-1.8,.21-1.82,.52-4,.65-5.52-2.2-2.12-4.12-4.81-4.12-8.08-1.62-.5-1.94-2.54-1.94-3.82s.22-1.96,.67-2.17c.65-.31,1.17,.24,1.27,.26v-2.59c7.09-.62,11.07-4.83,11.07-4.83,1.56,2.78,4.91,4.12,7.04,4.72v2.69c.1-.03,.62-.57,1.27-.26,.45,.21,.67,.9,.67,2.17s-.32,3.31-1.94,3.82c0,3.82-2.68,6.92-5.34,9.18-.78,.66-2.25,1-3.72,1-1.06,0-2.11-.18-2.91-.52,.43,.84,1.28,1.82,3.15,2.29,3.11,.78,4.99-.57,5.14-.69,.08,.77,.15,1.53,.22,2.19,.03,.32,.13,.99,1.38,1.88-1.53,1.21-4.09,2.01-6.98,2.01-1.58,0-3.06-.24-4.32-.65,.56,3.43,2.32,6.84,4.34,9.35"/></g></g></svg>