<?xml version="1.0" encoding="UTF-8"?><svg id="Laag_1" xmlns="http://www.w3.org/2000/svg" xmlns:xlink="http://www.w3.org/1999/xlink" viewBox="0 0 64 64"><defs><style>.cls-1{fill:none;}.cls-2{clip-path:url(#clippath);}.cls-3{clip-path:url(#clippath-1);}</style><clipPath id="clippath"><rect class="cls-1" width="64" height="64"/></clipPath><clipPath id="clippath-1"><rect class="cls-1" width="64" height="64"/></clipPath></defs><g class="cls-2"><g class="cls-3"><path d="M58.58,50.48L34.38,9.47c-.54-.91-1.52-1.47-2.58-1.47h-.01c-1.06,0-2.05,.57-2.58,1.49L5.41,50.49c-.54,.93-.54,2.07,0,3,.54,.93,1.53,1.5,2.6,1.5H56c1.08,0,2.07-.58,2.61-1.51,.53-.94,.53-2.09-.02-3.01m-45.37-1.48L31.81,16.94l18.93,32.06H13.21Z"/><path d="M32.34,30.19c.91,.54,1.82,.22,2.36-.7,.62-1.05,.4-1.94-.48-2.46-.94-.56-1.83-.19-2.4,.75-.59,1-.4,1.87,.51,2.41"/><path d="M33.21,36.17c-.23-1.98,.54-3.13,.02-4.23-.26-.55-1.78-1.95-3.27-1.9-.69,.02-1.86,.29-2.9,.54-.3,.08-.43,.11-.82,.37-.68,.45-1.42,1.98-1.7,2.46-.35,.6-.28,1.22,.13,1.79,0,0,.19-.28,.46-.67l1.57,1.07s-.05,.11-.23,.62c-.18,.51-3,9.01-3.09,9.3-.49,1.45,.62,2.16,.79,2.26,.05-.11,2.69-5.97,3.75-8.32,.5,.95,1.46,2.76,1.46,2.76,.21,1.27,.41,2.51,.7,4.19,.27,1.61,1.74,1.55,1.8,1.55-.07-2.36-.09-3.39-.2-5.56-.05-.61-.86-2.53-1.82-4.67l6.45,4.38c.09-.15,.21-.36,.36-.6l-2.75-1.87c-.23-1.17-.71-3.48-.71-3.48m-6.23-1.23l-1.44-.98c.57-.79,1.24-1.69,1.43-1.79,.22-.11,.88-.03,1.39,.05-.55,.94-1.04,2.01-1.37,2.72m3.15,2.14c.49-.86,1.09-1.9,1.6-2.75,0,.66,.06,1.6,.13,2.06,.06,.33,.38,1.59,.58,2.27l-2.31-1.57Z"/><path d="M32.92,47.98h12.33s-2.46-5.26-4.77-7.98c-.61-.72-1.31-.92-1.94-.09-.57,.75-1.76,2.8-1.76,2.8,0,0-1.37,.55-2.06,1.31-.99,1.08-1.84,4.07-1.81,3.97"/></g></g></svg>