<?xml version="1.0" encoding="UTF-8"?><svg id="Laag_1" xmlns="http://www.w3.org/2000/svg" viewBox="0 0 64 64"><defs><style>.cls-1{fill:none;}</style></defs><rect class="cls-1" width="64" height="64"/><rect x="32" y="20" width="10" height="3"/><rect x="27" y="30" width="15" height="3"/><rect x="20" y="30" width="5" height="3"/><rect x="20" y="36" width="5" height="3"/><rect x="20" y="42" width="5" height="3"/><path d="m16,51v-26.71l-3.15-.93c-.34-.11-.22-.36-.22-.36h14.37c.55,0,1-.45,1-1V7.63s.25-.11.36.23l.93,3.13h16.71v24.1c1.76-.07,3.51-.1,5-.1V8c0-1.1-.9-2-2-2h-21.17c-.53,0-1.04.21-1.41.59l-14.83,14.83c-.37.38-.59.88-.59,1.41v31.17c0,1.1.9,2,2,2h22.1c-.07-1.76-.1-3.51-.1-5h-19Z"/><path d="m27,36v3h9.02c.59-1.35,1.67-2.42,3.02-3h-12.04Z"/><path d="m27,45h8.15c.06-1.04.13-2.05.24-3h-8.39v3Z"/><path d="m63.43,40.83c-.2-1.17-1.09-2.07-2.26-2.26-3.39-.57-9.04-.57-10.17-.57s-6.78,0-10.17.57c-1.17.2-2.07,1.09-2.26,2.26-.57,3.39-.57,9.04-.57,10.17s0,6.78.57,10.17c.2,1.17,1.09,2.07,2.26,2.26,3.39.57,9.04.57,10.17.57s6.78,0,10.17-.57c1.17-.2,2.07-1.09,2.26-2.26.57-3.39.57-9.04.57-10.17,0-3.39,0-6.78-.57-10.17Zm-14.62,17.17h-1.79v-2.13h1.75c2.59,0,4.02-.93,4.02-2.48,0-.97-.82-1.87-2.17-2.23-.86.4-1.52.65-2.48.84l-.44-2.02c2.36-.63,4.08-1.92,5.14-3.75h-5.6v-2.23h7.66l.34,2.11c-.72,1.49-1.54,2.57-2.88,3.45v.08c1.94.44,3.09,1.79,3.09,3.6,0,2.74-2.59,4.76-6.63,4.76Z"/></svg>