<?xml version="1.0" encoding="UTF-8"?><svg id="Laag_1" xmlns="http://www.w3.org/2000/svg" xmlns:xlink="http://www.w3.org/1999/xlink" viewBox="0 0 64 64"><defs><style>.cls-1{fill:none;}.cls-2{clip-path:url(#clippath);}.cls-3{clip-path:url(#clippath-1);}</style><clipPath id="clippath"><rect class="cls-1" width="64" height="64"/></clipPath><clipPath id="clippath-1"><rect class="cls-1" width="64" height="64"/></clipPath></defs><g class="cls-2"><g class="cls-3"><path d="M46.23,46.31c-.86,0-1.04,.98-1.04,1.8,0,1.63,.52,1.85,1.03,1.85,.86,0,1.04-.89,1.04-1.64,0-1.8-.58-2.01-1.02-2.01m-1-11.17c.26-1.46,.57-2.95,.93-4.48,2.57-10.66,2.45-19.24-.36-25.48-.27-.6-.82-1.03-1.46-1.14-.23-.04-5.79-1.03-12.34-1.03s-12.11,.99-12.34,1.03c-.64,.12-1.19,.54-1.46,1.14-2.81,6.24-2.93,14.81-.36,25.46,3.22,13.35,2.05,24.28,1.26,26.75-.41,1.29,.54,2.61,1.89,2.61h0l14.39-.02c-.14-1.25-.23-2.6-.29-3.98h-11.66c.75-5.01,1-14.96-1.73-26.31-2.22-9.19-2.31-16.65-.28-21.99,1.87-.28,6.01-.8,10.58-.8s8.71,.52,10.58,.8c.89,2.36,1.35,5.15,1.42,8.3H22.29c-.11,4.54,.72,9.32,1.65,13.18,2.44,10.06,2.6,18.93,2.08,24.62,0,0,5.64,.87,9.04,1.39-.05-1.48-.07-2.93-.07-4.18,0-3.21,.1-7.66,.6-10.67,.4-2.42,2.3-4.32,4.73-4.73,1.41-.24,3.13-.38,4.9-.47m10.57,16.79c-.85,0-1.02,.98-1.02,1.8,0,1.63,.51,1.85,1,1.85,.71,0,1.07-.55,1.07-1.64,0-1.8-.6-2.01-1.05-2.01m7.64-11.1c-.19-1.17-1.09-2.07-2.26-2.26-3.39-.57-9.04-.57-10.17-.57s-6.78,0-10.17,.57c-1.17,.19-2.06,1.09-2.26,2.26-.57,3.39-.57,9.04-.57,10.17s0,6.78,.57,10.17c.2,1.17,1.09,2.07,2.26,2.26,3.39,.57,9.04,.57,10.17,.57s6.78,0,10.17-.57c1.17-.2,2.07-1.09,2.26-2.26,.56-3.39,.56-9.04,.56-10.17,0-3.39,0-6.78-.56-10.17m-20.58,7.45c0-2.9,1.84-3.92,3.42-3.92,2.09,0,3.29,1.37,3.29,3.77,0,2.62-1.78,3.81-3.44,3.81-1.49,0-3.27-.63-3.27-3.65m6.43,9.73l-1.84-.73,5.23-13.28,1.84,.73-5.23,13.28Zm6.4-.45c-1.49,0-3.27-.63-3.27-3.65s1.84-3.92,3.42-3.92c2.09,0,3.29,1.37,3.29,3.77,0,2.63-1.73,3.81-3.44,3.81"/></g></g></svg>