<?xml version="1.0" encoding="UTF-8"?><svg id="Laag_1" xmlns="http://www.w3.org/2000/svg" xmlns:xlink="http://www.w3.org/1999/xlink" viewBox="0 0 64 64"><defs><style>.cls-1{fill:none;}.cls-2{clip-path:url(#clippath);}.cls-3{clip-path:url(#clippath-1);}</style><clipPath id="clippath"><rect class="cls-1" width="64" height="64"/></clipPath><clipPath id="clippath-1"><rect class="cls-1" width="64" height="64"/></clipPath></defs><g class="cls-2"><g class="cls-3"><path d="M58.58,50.47L34.38,9.47c-.54-.91-1.52-1.47-2.58-1.47h-.01c-1.06,0-2.05,.57-2.58,1.49L5.41,50.49c-.54,.93-.54,2.07,0,3s1.53,1.5,2.6,1.5H56c1.08,0,2.07-.58,2.6-1.51,.53-.93,.53-2.09-.02-3.01m-46.54-.48L31.81,15.94l20.11,34.06H12.04Zm12.18-15.83c-.67,4.49,.42,7.3,3.2,8.93,.08,.58-.1,2.02,.71,3.39,1.18,2.01,6.57,2.01,7.76,0,.81-1.37,.62-2.81,.71-3.39,2.78-1.63,3.87-4.44,3.2-8.93-.62-4.13-4.2-6.17-7.78-6.17-3.59,0-7.17,2.04-7.78,6.17m11.31,1.29c1.74,.22,2.15,1.26,2.01,2.39-.15,1.21-.84,1.84-2.29,1.67-1.6-.18-2.07-1.09-2.06-2.19,.02-1.36,.77-2.08,2.33-1.88m-3.52,5.2c.77-.1,2.03,1.82,1.52,2.59-.24,.37-.89,.52-1.52,.51-.63,.02-1.28-.14-1.52-.51-.51-.77,.75-2.69,1.52-2.59m-3.52-5.2c1.57-.2,2.32,.51,2.33,1.88,.01,1.1-.46,2.01-2.06,2.19-1.45,.16-2.14-.46-2.29-1.67-.14-1.14,.28-2.18,2.01-2.39"/></g></g></svg>