<?xml version="1.0" encoding="UTF-8"?><svg id="Laag_1" xmlns="http://www.w3.org/2000/svg" xmlns:xlink="http://www.w3.org/1999/xlink" viewBox="0 0 64 64"><defs><style>.cls-1{fill:none;}.cls-2{clip-path:url(#clippath);}.cls-3{clip-path:url(#clippath-1);}</style><clipPath id="clippath"><rect class="cls-1" width="64" height="64"/></clipPath><clipPath id="clippath-1"><rect class="cls-1" width="64" height="64"/></clipPath></defs><g class="cls-2"><g class="cls-3"><path d="M55.86,44c.08,.32,.14,.65,.14,1,0,2.21-1.79,4-4,4-1.85,0-3.39-1.26-3.85-2.96l-.08,.05c-1,.6-2.14,.91-3.3,.91h-.51c.89,3.45,4.01,6,7.74,6,4.42,0,8-3.58,8-8,0-.34-.03-.67-.07-1h-4.07Z"/><path d="M15,53c3.36,0,6.23-2.07,7.41-5H7.59c1.19,2.93,4.06,5,7.41,5"/><path d="M51.06,34.65l-8.3,9.96c-.11,.14-.24,.26-.36,.39h2.38c.8,0,1.59-.22,2.27-.63l1.89-1.13c1.35-.81,2.89-1.24,4.47-1.24h6.6c.55,0,1-.45,1-1,0-3.84-3.48-8.24-9.94-6.35"/><path d="M43.33,19.82l-2.27-.45c-.32-.07-.27-.31-.25-.36h4.79c.8,0,1.48-.6,1.58-1.39l.55-4.43c.14-1.09-.89-1.98-1.95-1.65-1.79,.54-4.27,1.59-5.99,3.47h-4.79c-.55,0-1,.45-1,1s.45,1,1,1h4.18c.54,3.12,2.12,12.69,1.62,16.1-.35,2.36-1.55,4.62-2.51,6.11-.72,1.11-1.95,1.78-3.28,1.78h-6.53c-2.3,0-3.91-2.26-3.17-4.43,.5-1.46,1.15-3.17,1.95-4.97l-9.61-1.23c-.32-.05-.27-.31-.25-.36h10.6c.55,0,1-.45,1-1v-2c0-2.21-1.79-4-4-4H13c-2.21,0-4,1.79-4,4v2c0,.55,.45,1,1,1h.6c-3.65,2.97-6.84,8.38-8.74,12.08-.92,1.79,.39,3.92,2.4,3.92h31.27c2.2,0,4.28-.98,5.69-2.67l7.78-9.33-5.67-14.18Z"/></g></g></svg>