<?xml version="1.0" encoding="UTF-8"?><svg id="Laag_1" xmlns="http://www.w3.org/2000/svg" xmlns:xlink="http://www.w3.org/1999/xlink" viewBox="0 0 64 64"><defs><style>.cls-1{fill:none;}.cls-2{clip-path:url(#clippath);}.cls-3{clip-path:url(#clippath-1);}</style><clipPath id="clippath"><rect class="cls-1" width="64" height="64"/></clipPath><clipPath id="clippath-1"><rect class="cls-1" width="64" height="64"/></clipPath></defs><g class="cls-2"><rect x="12" y="11" width="27" height="13"/><g class="cls-3"><path d="M34,31.43c0-.24-.19-.43-.43-.43h-2.54v-3.57c0-.24-.19-.43-.43-.43h-10.18c-.24,0-.43,.19-.43,.43v3.57h-2.57c-.24,0-.43,.19-.43,.43v2.99c1.43-.4,3.61-.77,5.66-.92,3.54-.26,6.04,.79,7.64,1.78,.21,.13,.27,.28,.25,.43-1.62-.45-3.38-.77-5.05-.77-5.33,0-11.5,3.3-11.5,3.3,0,3.43,.7,7.51,1.2,10,1.6-.5,3.05-1.5,4.44-2.39,1.74,1.12,3.97,2.67,6.07,2.67,.72,0,1.43-.18,2.11-.44,0-.03,0-.06,0-.1,0-5.58,2.39-10.58,6.19-14.09v-2.48Zm-10.53,12.08h-5.96v-2.6c0-.48,.38-.87,.85-.87s.85,.39,.85,.87v.87h2.56v-.87c0-.48,.38-.87,.85-.87s.85,.39,.85,.87v2.6Z"/><path d="M10,47.4V8.94h31V29.78c1.89-.62,3.9-.97,6-.97V8.94h3V2H1v6.94h3V31H1v17.51c2.31,.17,4.4-1.3,6.5-2.65,.87,.56,1.64,1.07,2.5,1.54"/><path d="M25.71,50.63c-2.18,0-4.28-1.13-6.07-2.28-1.79,1.15-3.9,2.28-6.07,2.28s-4.28-1.13-6.07-2.28c-1.94,1.25-4.2,2.43-6.5,2.26v3.36c2.23,.11,4.56-.66,6.5-1.68,1.26,.66,3.63,1.69,6.07,1.69s4.8-1.03,6.07-1.69c1.26,.66,3.63,1.69,6.07,1.69,1.02,0,2.01-.19,2.92-.45-.32-1.06-.55-2.16-.68-3.29-.73,.23-1.48,.38-2.24,.38"/><path d="M47,32c-8.84,0-16,7.16-16,16s7.16,16,16,16,16-7.16,16-16-7.16-16-16-16m0,28.1c-6.67,0-12.1-5.43-12.1-12.1s5.43-12.1,12.1-12.1,12.1,5.43,12.1,12.1-5.43,12.1-12.1,12.1"/><path d="M54.61,47.84h.02l-7.14-.71-.56-7.81c-.06-.55-.45-.96-1-.96s-.96,.36-1,.96l-.67,9.19c0,.86,.66,1.57,1.5,1.65,.05,.03,8.84-.63,8.84-.63,.58-.06,1-.3,1-.85s-.39-.81-1-.85"/></g></g></svg>