<?xml version="1.0" encoding="UTF-8"?><svg id="Laag_1" xmlns="http://www.w3.org/2000/svg" xmlns:xlink="http://www.w3.org/1999/xlink" viewBox="0 0 64 64"><defs><style>.cls-1{fill:none;}.cls-2{clip-path:url(#clippath);}.cls-3{clip-path:url(#clippath-1);}</style><clipPath id="clippath"><rect class="cls-1" width="64" height="64"/></clipPath><clipPath id="clippath-1"><rect class="cls-1" width="64" height="64"/></clipPath></defs><g class="cls-2"><g class="cls-3"><path d="M54.98,56.28c-1.23-4.66-11.48-7.48-11.48-7.48,0,0-.12-.49,.89-.47,1.15,.02,4.53,.08,8.98,2.04-.29-.6-.6-1.24-.93-1.92-2.35-4.79-5.38-10.45-4.95-14.87v-.05c.15-.89,.26-1.53,.26-1.53,.72-5.6-1.46-11.33-5.06-13.37-1.44-.82-4.25-1.3-6.53-1.57,2.01-1.57,3.95-3.55,3.74-4.81-.52-3.17-3.52,.75-3.67-.25-.3-2.11-.93-6.83-2.24-6.99-1.65-.19-1.78,1.01-2.01,2.1-.17,.78-.8,4.89-1.23,3.98-.02-.03-1.71-2.88-2.65-3.56-.5-.37-.86-.65-1.96,.02-.41,.25-.71,.41-.85,.97-.38,1.58,.18,4.13,.93,6.15,4.44,.63,6.53,1.72,6.53,1.72,.58,.26,.57,.54,.56,.68-.28-.02-.49-.03-.59-.04l-2.42-.04c-.34,0-.67,0-.99,0-10.83,0-12.06,2.98-14.23,9.17-.25,.71-.51,1.45-.81,2.24-5.24,13.81-4.36,17.41-3.71,20.24,.4,1.77,.65,2.84-1.46,6.56-.26,.45-.24,1,.03,1.46,.41,.7,1.29,1.11,2.42,1.11H51.91c1.94,0,2.83-.71,3.08-1.49v-.03"/></g></g></svg>