<?xml version="1.0" encoding="UTF-8"?><svg id="Laag_1" xmlns="http://www.w3.org/2000/svg" xmlns:xlink="http://www.w3.org/1999/xlink" viewBox="0 0 64 64"><defs><style>.cls-1{fill:none;}.cls-2{clip-path:url(#clippath);}.cls-3{clip-path:url(#clippath-1);}</style><clipPath id="clippath"><rect class="cls-1" width="64" height="64"/></clipPath><clipPath id="clippath-1"><rect class="cls-1" width="64" height="64"/></clipPath></defs><g class="cls-2"><g class="cls-3"><path d="M61.78,32.25l-8.56-11.64c-.28-.39-.74-.62-1.22-.62h-5.32c-.22,.02-.42,.09-.59,.21-.17,.12-.29,.3-.36,.5l-1.6,5.08c-.14,.46-.06,.96,.23,1.35l8.56,11.64c.33,.45,.99,.52,1.43,.19l7.18-5.28c.45-.33,.57-.98,.25-1.42m-11.88-7.04c-.68,.49-1.62,.35-2.12-.32-.5-.67-.35-1.62,.32-2.12,.68-.49,1.63-.35,2.12,.33,.49,.67,.34,1.61-.32,2.11"/><path d="M41,8H5c-1.1,0-2,.9-2,2V54c0,1.1,.9,2,2,2H41c1.1,0,2-.9,2-2V10c0-1.1-.9-2-2-2M7,13H15v3H7v-3ZM23,45.13c-7.25,0-13.13-5.88-13.13-13.13s5.88-13.13,13.13-13.13,13.13,5.88,13.13,13.13-5.88,13.13-13.13,13.13m13.5-28.05c-1.42,0-2.58-1.15-2.58-2.58s1.15-2.58,2.58-2.58,2.58,1.15,2.58,2.58-1.15,2.58-2.58,2.58"/><path d="M29.21,28.62c-1.21,0-2.34-.84-3.13-1.43-.78,.59-1.92,1.43-3.13,1.43s-2.34-.84-3.13-1.43c-.78,.59-1.92,1.43-3.13,1.43-.98,0-1.91-.56-2.64-1.08-.67,1.35-1.06,2.86-1.06,4.46,0,5.52,4.48,10,10,10s10-4.48,10-10c0-1.62-.4-3.15-1.08-4.51-.74,.54-1.7,1.12-2.71,1.12"/></g></g></svg>