<?xml version="1.0" encoding="UTF-8"?><svg id="Laag_1" xmlns="http://www.w3.org/2000/svg" xmlns:xlink="http://www.w3.org/1999/xlink" viewBox="0 0 64 64"><defs><style>.cls-1{fill:none;}.cls-2{clip-path:url(#clippath);}.cls-3{clip-path:url(#clippath-1);}</style><clipPath id="clippath"><rect class="cls-1" width="64" height="64"/></clipPath><clipPath id="clippath-1"><rect class="cls-1" width="64" height="64"/></clipPath></defs><g class="cls-2"><g class="cls-3"><path d="M48,14H16c-1.1,0-2,.9-2,2V63h15v-9h6v9h15V16c0-1.1-.9-2-2-2M25,47h-6v-6h6v6Zm0-10h-6v-6h6v6Zm0-10h-6v-6h6v6Zm10,20h-6v-6h6v6Zm0-10h-6v-6h6v6Zm0-10h-6v-6h6v6Zm10,20h-6v-6h6v6Zm0-10h-6v-6h6v6Zm0-10h-6v-6h6v6Z"/><polygon points="26.98 9.18 22.63 9.18 22.63 9.13 26.96 2.76 26.96 1.4 20.95 1.4 20.95 2.8 25.02 2.8 25.02 2.85 20.69 9.23 20.69 10.59 26.98 10.59 26.98 9.18"/><rect x="29.16" y="1.4" width="1.68" height="9.19"/><polygon points="34.61 3.16 34.66 3.16 37.37 10.59 40 10.59 40 1.4 38.45 1.4 38.45 8.82 38.39 8.82 35.69 1.4 33.05 1.4 33.05 10.59 34.61 10.59 34.61 3.16"/><rect x="42.21" y="1.4" width="1.68" height="9.19"/></g></g></svg>