<?xml version="1.0" encoding="UTF-8"?><svg id="Laag_1" xmlns="http://www.w3.org/2000/svg" xmlns:xlink="http://www.w3.org/1999/xlink" viewBox="0 0 64 64"><defs><style>.cls-1{fill:none;}.cls-2{clip-path:url(#clippath);}.cls-3{clip-path:url(#clippath-1);}</style><clipPath id="clippath"><rect class="cls-1" width="64" height="64"/></clipPath><clipPath id="clippath-1"><rect class="cls-1" width="64" height="64"/></clipPath></defs><g class="cls-2"><g class="cls-3"><path d="M32.92,21.48l-2.83-2.83-2.83,2.83-1.41-1.41,2.83-2.83-2.83-2.83-2.83,2.83-1.41-1.41,2.83-2.83-2.83-2.83-2.83,2.83-1.41-1.41,2.83-2.83-3.53-3.54c-.39-.39-1.02-.39-1.41,0L5.35,15.12c-.39,.39-.39,1.02,0,1.41l16.26,16.26,11.31-11.31Z"/><path d="M51.31,39.87l-2.83,2.83-1.41-1.41,2.83-2.83-2.83-2.83-2.83,2.83-1.41-1.41,2.83-2.83-2.83-2.83-11.31,11.31,16.26,16.26c.39,.39,1.02,.39,1.41,0l9.9-9.9c.39-.39,.39-1.02,0-1.41l-7.78-7.78Zm-1.41,9.9c-.78,.78-2.05,.78-2.83,0-.78-.78-.78-2.05,0-2.83,.78-.78,2.05-.78,2.83,0,.78,.78,.78,2.05,0,2.83"/><path d="M51.78,13.45c.04-.07,.19-.29,.57-.08l3.62,2.03,2.4-2.4c3.8-3.8-3.28-10.87-7.07-7.07L10.08,47.16c-.32,.32-.57,.71-.71,1.14l-3.17,9.18c-.14,.39,.24,.77,.64,.63l9.18-3.17c.43-.15,.82-.39,1.14-.71L54.84,16.53l-3.06-3.09ZM11.59,48.47L47.77,12.29l1.41,1.41L13.01,49.88c-.81,.81-2.22-.61-1.41-1.41m4.24,4.24c-.81,.81-2.22-.61-1.41-1.41L50.6,15.12l1.41,1.41L15.84,52.71Z"/></g></g></svg>