<?xml version="1.0" encoding="UTF-8"?><svg id="Laag_1" xmlns="http://www.w3.org/2000/svg" xmlns:xlink="http://www.w3.org/1999/xlink" viewBox="0 0 64 64"><defs><style>.cls-1{fill:none;}.cls-2{clip-path:url(#clippath);}.cls-3{clip-path:url(#clippath-1);}</style><clipPath id="clippath"><rect class="cls-1" width="64" height="64"/></clipPath><clipPath id="clippath-1"><rect class="cls-1" width="64" height="64"/></clipPath></defs><g class="cls-2"><g class="cls-3"><path d="M53,17h-5.79c-.6-1.21-1.2-2.46-1.8-3.77-.66-1.44-1.95-2.55-3.38-2.73-1.42-.44-10.63-.44-12.05,0-1.43,.17-2.73,1.28-3.38,2.73-.6,1.32-1.2,2.57-1.8,3.77h-4.79v-1c0-1.1-.9-2-2-2h-4c-1.1,0-2,.9-2,2v1h-1c-2.76,0-5,2.24-5,5v23c0,2.76,2.24,5,5,5h11.94c-2.1-2.75-3.35-6.18-3.35-9.91,0-.59,.03-1.17,.09-1.74,.03-.31,.28-.33,.36-.28,0-.01,0-.03,0-.04,.54,8.35,7.46,14.97,15.95,14.97s15.39-6.59,15.95-14.92c.13-.07,.34,0,.37,.28,.06,.57,.09,1.15,.09,1.73,0,3.73-1.26,7.15-3.35,9.91h3.94c2.76,0,5-2.24,5-5V22c0-2.76-2.24-5-5-5m-17,32.1c-6.68,0-12.1-5.42-12.1-12.1s5.42-12.1,12.1-12.1,12.1,5.42,12.1,12.1-5.42,12.1-12.1,12.1m17-24.1h-5v-3h5v3Z"/></g></g></svg>