<?xml version="1.0" encoding="UTF-8"?><svg id="Laag_1" xmlns="http://www.w3.org/2000/svg" xmlns:xlink="http://www.w3.org/1999/xlink" viewBox="0 0 64 64"><defs><style>.cls-1{fill:none;}.cls-2{clip-path:url(#clippath);}.cls-3{clip-path:url(#clippath-1);}</style><clipPath id="clippath"><rect class="cls-1" width="64" height="64"/></clipPath><clipPath id="clippath-1"><rect class="cls-1" width="64" height="64"/></clipPath></defs><g class="cls-2"><g class="cls-3"><path d="M50.59,53.48l-1.03,.61s-3.34,1.97-6.47,1.97-6.43-1.95-6.46-1.96l-1.03-.61-1.03,.61s-3.34,1.97-6.47,1.97-6.43-1.95-6.46-1.96l-1.03-.61-1.03,.61s-3.34,1.97-6.47,1.97-6.43-1.95-6.46-1.96l-1.03-.61-.65,.38v4.46c.24-.11,.45-.21,.64-.31,1.51,.75,4.46,1.98,7.49,1.98s5.98-1.24,7.49-1.98c1.51,.75,4.46,1.98,7.49,1.98s5.98-1.24,7.49-1.98c1.51,.75,4.46,1.98,7.49,1.98s5.98-1.24,7.49-1.98c1.33,.66,3.77,1.69,6.41,1.93v-3.96c-2.76-.35-5.35-1.87-5.38-1.89l-1.03-.61Z"/><path d="M41,10.56c0-.35-.18-.67-.48-.85l-4.46-2.47c-.96-.59-2.18-.59-3.14,0l-4.45,2.47c-.3,.18-.48,.51-.48,.85v2.44h13v-2.44Z"/><path d="M39.12,23h.88c.55,0,1-.45,1-1v-3h-13v3c0,.55,.45,1,1,1h6.98c.02,.06,.07,.26-.25,.36l-6.04,1.2-2.57,21.43h-6.12c-2.08,0-4.05,.92-5.38,2.52l-4.21,5.05c.58,.14,1.16,.23,1.72,.23,2.08,0,4.56-1.2,5.34-1.66l2.15-1.27,2.16,1.28c.78,.46,3.26,1.65,5.33,1.65s4.56-1.2,5.34-1.66l2.15-1.27,2.16,1.28c.78,.46,3.26,1.65,5.33,1.65s4.56-1.2,5.34-1.66l2.15-1.27,2.16,1.28c.65,.38,2.46,1.26,4.24,1.55v-7.7h-15.12l-2.76-23Z"/><polygon points="26 11 9 4 9 8 26 14 26 11"/><polygon points="43 11 43 14 60 8 60 4 43 11"/><polygon points="26 18 9 24 9 28 26 21 26 18"/><polygon points="43 21 60 28 60 24 43 18 43 21"/></g></g></svg>