<?xml version="1.0" encoding="UTF-8"?><svg id="Laag_1" xmlns="http://www.w3.org/2000/svg" xmlns:xlink="http://www.w3.org/1999/xlink" viewBox="0 0 64 64"><defs><style>.cls-1{fill:none;}.cls-2{clip-path:url(#clippath);}.cls-3{clip-path:url(#clippath-1);}</style><clipPath id="clippath"><rect class="cls-1" width="64" height="64"/></clipPath><clipPath id="clippath-1"><rect class="cls-1" width="64" height="64"/></clipPath></defs><g class="cls-2"><g class="cls-3"><path d="M55,13h-6.92l-1.71,5.75c-.1,.33-.37,.22-.37,.22v-5.97h0c-.01-1.26-.06-3.35-.18-4.12-.11-.67-.23-1.88-1.2-1.88h-2.85c-.97,0-1.18,1.23-1.28,1.89-.13,.77-.3,2.85-.4,4.11h-16l-1.71,5.75c-.11,.33-.37,.22-.37,.22v-5.97h0c-.01-1.26-.06-3.35-.18-4.12-.11-.67-.23-1.88-1.2-1.88h-2.85c-.97,0-1.18,1.23-1.28,1.89-.13,.77-.3,2.85-.4,4.11h-7.08c-1.11,0-2,.9-2,2V55c0,1.1,.89,2,2,2H55c1.1,0,2-.9,2-2V15c0-1.1-.9-2-2-2m-3,39H12V26H52v26Z"/><path d="M22.28,40.51c.71,0,1.31-.44,1.56-1.06h1.43c.13,1.39,.68,2.66,1.52,3.68l-1.04,1.04c-.42-.11-.89,0-1.22,.32-.5,.5-.5,1.3,0,1.79s1.3,.49,1.79,0c.33-.33,.44-.8,.32-1.22l1.04-1.04c1.39,1.15,2.88,1.45,3.68,1.52v1.43c-.62,.25-1.06,.86-1.06,1.57,0,.65,.51,1.69,1.69,1.69,.93,0,1.69-.76,1.69-1.69,0-.71-.44-1.31-1.06-1.56v-1.43c1.39-.13,2.66-.68,3.68-1.52l1.04,1.04c-.11,.42,0,.89,.32,1.22,.49,.5,1.3,.5,1.79,0,.5-.5,.5-1.3,0-1.79-.33-.33-.8-.44-1.22-.32l-1.04-1.04c.84-1.02,1.39-2.29,1.52-3.68h1.43c.25,.62,.86,1.06,1.56,1.06,.93,0,1.69-.76,1.69-1.69s-.76-1.69-1.69-1.69c-.71,0-1.31,.44-1.56,1.06h-1.43c-.15-1.63-.87-2.89-1.52-3.68l1.04-1.04c.42,.11,.89,0,1.22-.32,.5-.5,.5-1.3,0-1.79-.54-.54-1.34-.45-1.79,0-.33,.33-.44,.8-.32,1.22l-1.04,1.04c-.62-.52-1.86-1.35-3.68-1.52v-1.42c.62-.25,1.06-.86,1.06-1.57,0-.65-.51-1.69-1.69-1.69-.93,0-1.69,.76-1.69,1.69,0,.62,.33,1.16,.83,1.46,.07,.04,.15,.08,.22,.11v1.42c-1.39,.13-2.66,.68-3.68,1.52l-1.04-1.04c.12-.47-.02-1.05-.52-1.38-.49-.33-1.16-.27-1.59,.16-.5,.5-.5,1.3,0,1.79,.44,.44,.98,.39,1.22,.32l1.04,1.04c-.14,.16-.26,.34-.38,.51-.02,.03-.04,.06-.06,.09-.11,.17-.22,.35-.32,.53h0c-.41,.78-.68,1.64-.77,2.56h-1.43c-.25-.62-.86-1.06-1.56-1.06-.93,0-1.69,.76-1.69,1.69s.76,1.69,1.69,1.69"/></g></g></svg>