<?xml version="1.0" encoding="UTF-8"?><svg id="Laag_1" xmlns="http://www.w3.org/2000/svg" xmlns:xlink="http://www.w3.org/1999/xlink" viewBox="0 0 64 64"><defs><style>.cls-1{fill:none;}.cls-2{clip-path:url(#clippath);}.cls-3{clip-path:url(#clippath-1);}</style><clipPath id="clippath"><rect class="cls-1" width="64" height="64"/></clipPath><clipPath id="clippath-1"><rect class="cls-1" width="64" height="64"/></clipPath></defs><g class="cls-2"><g class="cls-3"><path d="M53,29h-1v-5c0-2.21-1.79-4-4-4H17.37c-.02-.06-.08-.31,.25-.36,.26-.05,16.76-3.13,26.38-4.88v-4.51c0-2.07-2.05-3.52-4.01-2.83L12.86,17.07c-1.72,.61-2.86,2.24-2.86,4.06v28.88c0,2.21,1.79,4,4,4H48c2.21,0,4-1.79,4-4v-5h1c1.1,0,2-.9,2-2v-12c0-1.11-.9-2-2-2m-12,11.7c-2.04,0-3.7-1.66-3.7-3.7s1.66-3.7,3.7-3.7,3.7,1.66,3.7,3.7-1.66,3.7-3.7,3.7"/></g></g></svg>