<?xml version="1.0" encoding="UTF-8"?><svg id="Laag_1" xmlns="http://www.w3.org/2000/svg" xmlns:xlink="http://www.w3.org/1999/xlink" viewBox="0 0 64 64"><defs><style>.cls-1{fill:none;}.cls-2{clip-path:url(#clippath);}.cls-3{clip-path:url(#clippath-1);}</style><clipPath id="clippath"><rect class="cls-1" width="64" height="64"/></clipPath><clipPath id="clippath-1"><rect class="cls-1" width="64" height="64"/></clipPath></defs><g class="cls-2"><g class="cls-3"><path d="M61,32.13c0-4.57-4.6-8.46-11.92-10.81,.27-1.25,.49-2.47,.64-3.64,1.91-.7,3.28-2.52,3.28-4.68,0-2.42-1.73-4.44-4.02-4.9-1.18-2.76-3.37-4.1-5.88-4.1-3.24,0-7.15,2.34-11.1,6.38-5.61-5.75-10.8-7.74-14.41-5.45-3.89,2.47-4.32,8.9-2.67,16.41-.92,.29-1.78,.61-2.6,.95-.89-.79-2.04-1.29-3.33-1.29-2.76,0-5,2.24-5,5,0,.69,.14,1.35,.39,1.95-.91,1.31-1.39,2.72-1.39,4.18,0,4.47,4.3,8.35,11.88,10.78-1.58,7.4-1.13,13.72,2.71,16.16,4.6,2.92,10.6-1.56,14.41-5.45,3.84,3.93,9.78,8.38,14.4,5.45,3.5-2.22,4.47-8.06,2.74-16.16,7.36-2.37,11.85-6.26,11.85-10.78m-53.62-1.42c.51,.18,1.05,.29,1.62,.29,2.76,0,5-2.24,5-5,0-.03,0-.05,0-.08,.61-.25,1.26-.48,1.94-.7,.66,2.24,1.48,4.52,2.41,6.78-.97,2.34-1.81,4.7-2.48,7.01-4.11-1.36-10.42-4.46-8.48-8.31m12.36,24.98c-2.33-1.48-2.57-8.7,.91-18.61,.55,1.1,1.11,2.18,1.93,3.63-.36,.69-.58,1.46-.58,2.29,0,2.76,2.24,5,5,5,.09,0,.17-.02,.25-.02,.68,.93,1.37,1.8,2.06,2.64-2.06,2.13-7.09,6.65-9.58,5.08m24.53,0c-.56,.35-1.29,.4-2.25,.15-2.69-.72-6.84-3.97-11.15-9.7,.7-.86,1.14-1.94,1.14-3.14,0-2.76-2.24-5-5-5-.43,0-.85,.07-1.25,.18-8.48-15.33-9.17-27.87-6.01-29.87,1.52-.96,5.01,.29,9.59,5.06-2.51,3.03-4.98,6.69-7.24,10.83,.5,1.6,1.1,3.32,1.84,5.12,6.55-13.35,15.04-21.31,19.18-21.31,.84,0,1.41,.34,1.87,1.04-1.19,.91-1.98,2.34-1.98,3.96,0,1.94,1.12,3.61,2.74,4.44-.12,.9-.29,1.85-.5,2.85-3.68-.82-7.86-1.3-12.35-1.35-.92,1.2-1.85,2.54-2.8,4.02,4.98-.15,9.76,.33,14.13,1.29-2.08,6.96-5.99,15-10.84,21.52,.93,1.18,1.83,2.21,2.69,3.11,.92-1.21,1.83-2.52,2.73-3.89,2.29-.24,4.47-.58,6.48-1.03,1.4,6.74,.57,10.73-1.02,11.74m-2.8-15.09c3.02-5.36,5.16-10.52,6.59-15.35,5.24,1.66,8.94,4.08,8.94,6.87,0,3.15-5.74,6.9-15.53,8.48"/></g></g></svg>