<?xml version="1.0" encoding="UTF-8"?><svg id="Laag_1" xmlns="http://www.w3.org/2000/svg" xmlns:xlink="http://www.w3.org/1999/xlink" viewBox="0 0 64 64"><defs><style>.cls-1{fill:none;}.cls-2{clip-path:url(#clippath);}.cls-3{clip-path:url(#clippath-1);}</style><clipPath id="clippath"><rect class="cls-1" width="64" height="64"/></clipPath><clipPath id="clippath-1"><rect class="cls-1" width="64" height="64"/></clipPath></defs><g class="cls-2"><g class="cls-3"><path d="M26.35,27.01c-.12-.4-.21-.8-.28-1.18,1.04-1.05,1.61-2.44,1.92-3.91,.35-.2,.91-.51,.99-1.97,.09-1.64-.16-2.12-.76-2.09,.08-.42,.08-1.23,.08-2.09,0-.91-.05-1.89-.42-2.56-.46-.82-1.1-1.31-2.36-1.01-1.1-.53-2.17-1.1-4.11-.67-2.19,.48-2.96,1.25-3.24,1.68-.41,.63-.46,1.6-.45,2.52,0,.88-.02,1.71,.06,2.13-.6-.03-.86,.46-.76,2.09,.08,1.45,.66,1.77,1.01,1.97,.31,1.47,.84,2.86,1.88,3.91v0h0c-.06,.38-.14,.78-.25,1.18-1.44,.5-4.96,1.82-5.99,2.9-.17,.18-.32,.42-.47,.7,2.27,2.92,5.81,4.81,9.8,4.81s7.52-1.89,9.8-4.81c-.15-.28-.3-.52-.47-.7-1.03-1.09-4.54-2.4-5.98-2.9"/><path d="M58.01,50.94l-16.81-15.67c-2.32,2.08-4.23,2.86-4.72,3.03-.28,.1-.45,.03-.5-.09,.32-.28,2.52-2.45,3.77-4.3,2.1-3.11,3.25-6.89,3.25-10.92,0-11.05-8.95-20-20-20S3,11.95,3,23s8.95,20,20,20c4.03,0,7.77-1.2,10.91-3.25l17.03,18.27c1.16,1.16,2.99,1.32,4.32,.35,1-.73,1.45-.84,3.1-3.1,.97-1.33,.81-3.16-.35-4.32m-35.01-13.52c-7.95,0-14.42-6.47-14.42-14.42s6.47-14.42,14.42-14.42,14.42,6.47,14.42,14.42-6.47,14.42-14.42,14.42"/></g></g></svg>