<?xml version="1.0" encoding="UTF-8"?><svg id="Laag_1" xmlns="http://www.w3.org/2000/svg" xmlns:xlink="http://www.w3.org/1999/xlink" viewBox="0 0 64 64"><defs><style>.cls-1{fill:none;}.cls-2{clip-path:url(#clippath);}.cls-3{clip-path:url(#clippath-1);}</style><clipPath id="clippath"><rect class="cls-1" width="64" height="64"/></clipPath><clipPath id="clippath-1"><rect class="cls-1" width="64" height="64"/></clipPath></defs><g class="cls-2"><g class="cls-3"><path d="M30.54,57l-4.91-16.84c-.37-1.28-1.55-2.16-2.88-2.16H3.27c-1.13,0-1.95,1.09-1.63,2.18l5.73,19.66c.37,1.28,1.55,2.16,2.88,2.16H43c2.76,0,5-2.24,5-5H30.54Z"/><path d="M56.85,42.26c-2.28-2.38-8.53-3.85-10.22-5.2-.09-.79-.22-1.75-.36-2.68,2.62,.28,4.84,.59,6.42,1.15,.35,.12,.72-.11,.81-.5,1.17-4.72,1.68-7.9,1.68-11.35,0-6.94-2.61-14.35-6.61-16.75-2.55-1.53-5.42-.97-5.42-.97,0,0-2.76-2.65-7.58-1.75-7.87,1.48-13.76,9.03-13.76,19.47,0,3.45,.52,6.63,1.69,11.35,.1,.39,.46,.62,.81,.5,1.69-.59,3.97-.93,6.83-1.21-.1,.87-.22,1.85-.33,2.84-.62,.44-2.03,.92-3.66,1.5,.16,.3,.3,.61,.4,.94l4.49,15.4h3.96c0-1.66,2.24-3.12,5-3.12s5,1.46,5,3.12h2c1.1,0,2,.9,2,2,0,1.96-.81,3.73-2.11,5h13.87s-2.35-17.07-4.91-19.74m-18.3,4.34c-1.38-.59-5.7-2.67-7.78-6.3,2.67-1.11,2.52-2.11,2.56-2.52,.06-.54,.53-4.94,.53-4.94-2.33-2.3-3.34-5.17-3.76-7.68-.27-1.6-.23-3.1-.15-4.09,4.45-1.76,10.76-5.33,13.2-8.4,0,0,.3,.01,.11,.47-.32,.77-.79,1.68-1.44,2.76,1.15,2.44,3.22,4.23,5.26,5.5,.06,.96,.06,2.29-.18,3.76-.49,2.95-2.62,7.07-4.95,8.52-1.6,.99-4.52,1.14-6.22,.41,.39,.78,1.18,1.7,2.92,2.14,2.35,.58,4.5-.38,5.05-.7,.1,.74,.2,1.48,.27,2.11,.04,.4,.15,1.38,2.9,2.67-2.15,3.73-6.86,5.74-8.32,6.29"/></g></g></svg>