<?xml version="1.0" encoding="UTF-8"?><svg id="Laag_1" xmlns="http://www.w3.org/2000/svg" xmlns:xlink="http://www.w3.org/1999/xlink" viewBox="0 0 24 24"><defs><style>.cls-1{fill:none;}.cls-2{clip-path:url(#clippath);}</style><clipPath id="clippath"><rect class="cls-1" width="24" height="24"/></clipPath></defs><g class="cls-2"><path d="m17.05,17.41l1.2-10.81c.08-.76-.63-1.47-1.38-1.38l-10.81,1.2c-.61.07-1.08.57-1.11,1.19-.03.62.39,1.16,1,1.28l4.23.86-5.67,5.67c-.9.9-.18,2.17.7,3.05s1.93,1.39,2.83.49l5.67-5.67.86,4.23c.05.25.17.47.34.63.24.24.58.38.94.37.61-.03,1.12-.5,1.19-1.11"/></g><rect class="cls-1" width="24" height="24"/></svg>