<?xml version="1.0" encoding="UTF-8"?><svg id="Laag_1" xmlns="http://www.w3.org/2000/svg" xmlns:xlink="http://www.w3.org/1999/xlink" viewBox="0 0 64 64"><defs><style>.cls-1{fill:none;}.cls-2{clip-path:url(#clippath);}.cls-3{clip-path:url(#clippath-1);}</style><clipPath id="clippath"><rect class="cls-1" width="64" height="64"/></clipPath><clipPath id="clippath-1"><rect class="cls-1" width="64" height="64"/></clipPath></defs><g class="cls-2"><g class="cls-3"><path d="M32,4c-10.24,0-17.96,7.73-17.96,17.97,0,5.96,2.88,10.42,6.21,15.58,3.24,5.01,6.9,11.68,9.19,20.47,.3,1.17,1.36,1.98,2.56,1.98s2.26-.81,2.56-1.98c2.28-8.79,5.95-15.46,9.19-20.47,3.33-5.16,6.21-9.61,6.21-15.58,0-10.25-7.72-17.97-17.96-17.97m0,28.2c-5.63,0-10.2-4.57-10.2-10.2s4.57-10.2,10.2-10.2,10.2,4.57,10.2,10.2-4.57,10.2-10.2,10.2"/><path d="M32,17c-2.76,0-5,2.24-5,5s2.24,5,5,5,5-2.24,5-5-2.24-5-5-5"/></g></g></svg>