<?xml version="1.0" encoding="UTF-8"?><svg id="Laag_1" xmlns="http://www.w3.org/2000/svg" xmlns:xlink="http://www.w3.org/1999/xlink" viewBox="0 0 64 64"><defs><style>.cls-1{fill:none;}.cls-2{clip-path:url(#clippath);}.cls-3{clip-path:url(#clippath-1);}</style><clipPath id="clippath"><rect class="cls-1" width="64" height="64"/></clipPath><clipPath id="clippath-1"><rect class="cls-1" width="64" height="64"/></clipPath></defs><g class="cls-2"><g class="cls-3"><path d="M5.25,19h-.75c-.83,0-1.5,.67-1.5,1.5v6c0,.83,.67,1.5,1.5,1.5h.75c.41,0,.75-.34,.75-.75v-7.5c0-.41-.34-.75-.75-.75"/><path d="M44,30.17c-8.75,0-15.83,7.09-15.83,15.83s7.09,15.83,15.83,15.83,15.83-7.09,15.83-15.83-7.09-15.83-15.83-15.83m0,27.75c-6.57,0-11.91-5.34-11.91-11.91s5.34-11.91,11.91-11.91,11.91,5.34,11.91,11.91-5.34,11.91-11.91,11.91"/><path d="M51.53,45.84h.02l-7.06-.7-.55-7.72c-.06-.55-.44-.95-.99-.95s-.95,.36-.99,.95l-.66,9.09c0,.85,.65,1.55,1.48,1.64,.05,.03,8.75-.62,8.75-.62,.57-.05,.99-.3,.99-.84s-.38-.8-.99-.84"/><path d="M26.23,39c1.72-4.35,4.99-7.9,9.13-10H11.14c-.49,0-.83-.43-.82-.94,.05-3.17,.53-8.37,1.1-11.29,.08-.43,.4-.77,.82-.77h25.68c.42,0,.75,.33,.82,.77,.53,3.34,.98,7.35,1.08,10.63,1-.22,2.03-.39,3.08-.45-.16-2.31-.51-6.67-1.12-10.71-.32-2.11-1.5-5.07-2.66-6.8-.36-.54-.87-.92-1.44-1.17,.17-.5,.18-1.05,.01-1.57l-.55-1.66c-.41-1.23-1.55-2.05-2.85-2.05H15.72c-1.29,0-2.44,.82-2.85,2.05l-.55,1.66c-.17,.52-.15,1.06,.01,1.57-.57,.24-1.09,.63-1.44,1.17-1.16,1.73-2.27,4.7-2.66,6.8-.82,4.33-1.23,12.37-1.23,12.37v20.61s0,3.44,.34,4.88c.12,.52,.66,.9,1.29,.9h4.75c.62,0,1.17-.37,1.29-.9,.2-.87,.28-2.47,.32-3.6l-5.71-1.14c-.32-.1-.27-.31-.25-.36H25.16c-.15-.98-.26-1.98-.26-3,0-.34,.03-.67,.05-1h-6.95v-2h7.16c.11-.68,.25-1.35,.42-2h-7.58v-2h8.23Zm1.77-34h6.37c.43,0,.82,.26,.96,.68l.56,1.67c.1,.31-.11,.61-.42,.65h-7.47v-3Zm-13.89,2.35l.56-1.67c.14-.41,.52-.68,.96-.68h6.37v3h-7.47c-.31-.04-.52-.34-.42-.65m14.89,24.65l-3.94,4h-.03l-4.02-4h7.99Zm-18,0l4,4h-4v-4Zm5,14.5c0,.28-.22,.5-.5,.5h-5c-.28,0-.5-.22-.5-.5v-3c0-.28,.22-.5,.5-.5h5c.28,0,.5,.22,.5,.5v3Zm-1.78-14.5h3.59l3.99,4h-3.59l-3.99-4Z"/><path d="M47,26.5v-6c0-.83-.67-1.5-1.5-1.5h-.75c-.42,0-.75,.34-.75,.75v7.15c.97,0,1.92,.1,2.85,.24,.09-.19,.15-.41,.15-.64"/></g></g></svg>