<?xml version="1.0" encoding="UTF-8"?>
<svg id="Zwart" xmlns="http://www.w3.org/2000/svg" viewBox="0 0 64 64">
  <path d="M54.94,36.65c-1.29-4.08-1.41-1.83-2.56-6.74,0,0-.42-.31-.73-.28-.31.03-.64.3-.78.16-.14-.14.14-.77.42-.91.28-.14.73.14.91.03.17-.1.1-.84.28-1.11.17-.28.73-.7.73-.94s-.1-1.5,0-1.74c.1-.24.98-.73,1.15-.98.17-.24.87-1.04.87-1.57s0-1.67-.77-2.09c-.77-.42-2.3-.84-3.03-.8-.73.03-2.51.63-3.13.38-.63-.24-1.08-.73-2.3-.8-1.22-.07-1.36,0-2.12-.24-.77-.24-2.61-1.15-3.17-1.22-.56-.07-1.95.56-2.33.28-.38-.28-1.04-.38-1.25-.87-.21-.49-.66-1.32-1.6-1.78-.94-.45-3.52-.87-4.63-1.71-1.11-.84-1.85-1.6-2.65-2.09-.8-.49-3.07-1.78-4.04-2.89-.98-1.11-1.32-1.88-1.64-2.51-.31-.63-1.11-1.64-1.32-2.23s-1.25-1.08-1.74-1.25c-.49-.17-2.86-.63-3.34-.87s-.56-.24-.98-.21c-.7.06-1.67,1.11-2.58,1.81-.91.7-2.93,2.72-3.06,4.46-.14,1.74.35,3.27,0,3.62-.35.35-1.46.77-1.25,1.6.21.84,1.67,2.09,1.67,2.72s-.56,3.76.91,4.39c1.46.63,4.46.77,6.55.7,2.09-.07,4.25-.21,4.88.07.63.28,2.23.63,2.51.56.28-.07,1.04.63,1.67.91.63.28,1.67.14,2.3.42.63.28,2.6,2.32,2.97,2.55.37.23.56-.07.98.33.42.39,1,.86,1.18,1.3.19.44.39,1.76.79,2.32.39.56,1.14,1.39,1.39,2.37.26.98-.09,1.14,1.04,2.02,1.14.88,1.25,2.93,1.28,3.72.02.79-.19,1.49-1.04,1.81s-1.35,2.02-1.65,2.37c-.3.35-1.44,1.63-.5,3.05.94,1.43,1.08,1.25,1.29,1.92s.91,4.7.98,5.22c.07.52-.66,3.45-.21,3.94.45.49,1.92.73,2.51,1.57.59.84.7,2.16,1.18,2.68.49.52,2.05,1.22,2.37,1.71.31.49.31.94.91.94s2.51-.35,2.93-.94,2.02-3.59,1.99-4.46c-.03-.87.17-2.68-.8-4.42-.74-1.33-.55-2.5-.49-3.11.07-.76.06-1.21-.06-1.48-.11-.26-.54-.46-1.02-.46-.32,0-.07,1.03-.38,1.03s-.94-.06-1.04-.2c-.1-.14.03-2.33.14-2.37.1-.03.45-.42.49-.59s.17-.66.1-.84c-.07-.17-.63-.87-.07-2.09.56-1.22,1.43-1.01,2.16-.98.73.03,1.32.63,1.43.94s-.17.21.14.63c.31.42.81.87.91,1.12.1.24.14.71-.38,1.03-.52.31.3.61.51.54.21-.07,2.61-1.88,2.93-2.51.31-.63,2.54-2.86,1.25-6.93Z"/>
  <path d="M34.87,33.9c-.24-.45-1.11-1.5-2.19-1.74-.68-.15-1.32-.14-2.12.21-.8.35-1.6.42-1.81.59-.21.17-.8,1.5-1.01,1.81s-.17,1.01-.07,1.25c.1.24.8-.1,1.43-.1s1.64-.31,1.92.03c.28.35.31.63,1.01.77.7.14,2.16-.35,2.4-.77.24-.42.7-1.6.45-2.06Z"/>
</svg>