<?xml version="1.0" encoding="UTF-8"?><svg id="Laag_1" xmlns="http://www.w3.org/2000/svg" xmlns:xlink="http://www.w3.org/1999/xlink" viewBox="0 0 64 64"><defs><style>.cls-1{fill:none;}.cls-2{clip-path:url(#clippath);}.cls-3{clip-path:url(#clippath-1);}</style><clipPath id="clippath"><rect class="cls-1" width="64" height="64"/></clipPath><clipPath id="clippath-1"><rect class="cls-1" width="64" height="64"/></clipPath></defs><g class="cls-2"><g class="cls-3"><path d="M39.27,20.99c-.2,1.67-.76,2.95-1.06,3.38-.18,.25-.28,.29-.42,.25,0-.06-.01-.12-.02-.18,.11-.46,.18-.94,.18-1.43,0-2.9-2.08-5.31-4.83-5.84C29.96,10.17,24.81-.19,22.89,.64c-1.51,.66,1.9,11.33,4.56,18.54-.87,1.03-1.39,2.37-1.39,3.82,0,.72,.13,1.4,.36,2.04-4.46,6.24-10.66,15.63-9,16.86,1.16,.86,7.07-5.37,11.82-10.9l-1.69,33h8.9l-1.76-35.7c.79-.4,1.48-.97,2.02-1.67,7.64,.75,18.94,1.43,19.18-.63,.17-1.52-9.21-3.67-16.61-5.02m-7.27,5.21c-1.77,0-3.2-1.43-3.2-3.2s1.43-3.2,3.2-3.2,3.2,1.43,3.2,3.2-1.43,3.2-3.2,3.2"/></g></g></svg>