<?xml version="1.0" encoding="UTF-8"?><svg id="Laag_1" xmlns="http://www.w3.org/2000/svg" xmlns:xlink="http://www.w3.org/1999/xlink" viewBox="0 0 64 64"><defs><style>.cls-1{fill:none;}.cls-2{clip-path:url(#clippath);}.cls-3{clip-path:url(#clippath-1);}</style><clipPath id="clippath"><rect class="cls-1" width="64" height="64"/></clipPath><clipPath id="clippath-1"><rect class="cls-1" width="64" height="64"/></clipPath></defs><g class="cls-2"><g class="cls-3"><path d="M52,29h-1v-6c0-10.48-8.52-19-19-19S13,12.52,13,23v4.69c1.74,.34,4.52,.88,4.74,.95,.32,.1,.27,.31,.25,.36h-5.99c-1.1,0-2,.9-2,2v24.35c0,.97,.7,1.8,1.66,1.97,3.19,.56,10.73,1.68,20.34,1.68s17.15-1.12,20.34-1.68c.96-.17,1.66-1,1.66-1.97V31c0-1.1-.9-2-2-2m-31-6c0-6.06,4.93-11,11-11s11,4.94,11,11v4.69c1.74,.34,4.52,.88,4.73,.95,.32,.1,.27,.31,.25,.36H21v-6Zm13,21.67v6.33h-4v-6.33c-1.31-.71-2.2-2.08-2.2-3.67,0-2.32,1.88-4.2,4.2-4.2s4.2,1.88,4.2,4.2c0,1.59-.9,2.96-2.2,3.67"/></g></g></svg>