<?xml version="1.0" encoding="UTF-8"?><svg id="Laag_1" xmlns="http://www.w3.org/2000/svg" xmlns:xlink="http://www.w3.org/1999/xlink" viewBox="0 0 64 64"><defs><style>.cls-1{fill:none;}.cls-2{clip-path:url(#clippath);}.cls-3{clip-path:url(#clippath-1);}</style><clipPath id="clippath"><rect class="cls-1" width="64" height="64"/></clipPath><clipPath id="clippath-1"><rect class="cls-1" width="64" height="64"/></clipPath></defs><g class="cls-2"><g class="cls-3"><path d="M56.1,28.67c-.9-.75-2.69-.79-4.91,1.24-2.54,2.31-4.14,5.02-6.03,7.38-2.08,2.59-2.65,2.02-5.81,2.48-5.02,.73-8.89,4.05-8.89,4.05-.05-.07-.17-.27,.09-.6,0,0,3.16-4.74,11.39-6.07,0,0-.33-26.92-.4-28.58-.06-1.43-1.27-2.55-2.71-2.53h0c-1.43,.02-2.55,1.17-2.64,2.6-.09,1.5-.81,19.72-.86,20.42-.04,.53-.47,.93-.99,.85h-.02c-.42-.07-.73-.43-.75-.85-.03-.54-.32-22.08-.4-23.52-.08-1.43-1.27-2.55-2.71-2.53h0c-1.43,.02-2.6,1.17-2.64,2.6-.04,1.43-.38,22.67-.39,23.19,0,.45-.35,.82-.8,.86h-.02c-.5,.05-.9-.35-.94-.86-.05-.51-.83-18.83-.91-20.27-.08-1.43-1.27-2.55-2.71-2.53h0c-1.43,.02-2.6,1.17-2.64,2.6-.04,1.43,.05,22.07,.05,22.41,0,.34-.2,.63-.51,.78h-.02c-.57,.28-1.19-.14-1.24-.77-.06-.64-.88-13.66-.94-14.88-.07-1.22-1.08-2.17-2.31-2.15h0c-1.22,.02-2.21,.99-2.24,2.22-.03,1.22-.16,16.83-.17,16.83,0,8.11-.4,15.36,1.83,19.38,5.77,10.44,20.81,10.55,27.7,4.53,7.22-6.31,7.94-14.34,14.37-24.08,1.4-2.11,1.05-3.48,.17-4.21"/></g></g></svg>