<?xml version="1.0" encoding="UTF-8"?><svg id="Laag_1" xmlns="http://www.w3.org/2000/svg" xmlns:xlink="http://www.w3.org/1999/xlink" viewBox="0 0 64 64"><defs><style>.cls-1{fill:none;}.cls-2{clip-path:url(#clippath);}.cls-3{clip-path:url(#clippath-1);}</style><clipPath id="clippath"><rect class="cls-1" width="64" height="64"/></clipPath><clipPath id="clippath-1"><rect class="cls-1" width="64" height="64"/></clipPath></defs><g class="cls-2"><polygon points="39.54 18.19 43.12 18.19 41.36 11.79 39.54 18.19"/><g class="cls-3"><path d="M35.09,24.8c-4.69-.8-12.51-.8-14.07-.8s-9.38,0-14.07,.8c-1.62,.28-2.86,1.54-3.13,3.21-.78,4.81-.78,9.12-.78,10.73s0,5.92,.78,10.73c.27,1.66,1.5,2.93,3.13,3.21,.61,.1,1.28,.19,1.99,.27l3.47-4.81c.18-.27,.37-.09,.37-.09l-2.7,10.65h0l-.05,.17c-.04,.23,0,.47,.14,.68,.29,.46,.89,.59,1.35,.3l10.11-6.37c2.38,0,9.22-.07,13.48-.8,1.62-.28,2.86-1.54,3.13-3.21,.78-4.81,.78-9.13,.78-10.73,0-4.81,0-5.92-.78-10.73-.27-1.67-1.5-2.93-3.13-3.21m-9.41,18.03c-1.13,1.25-2.77,1.92-4.54,1.93l-.02-3.02c.94,0,1.65-.31,2.22-.94,1.25-1.38,1.57-3.98,1.6-5.75h-3.32c-.69,3.11-2.38,6.96-6.43,9.63l-1.66-2.53c2.93-1.93,4.31-4.71,4.97-7.1h-4.49v-3.04h5.01c.08-1.12,.02-2.69,.02-2.71l3.01-.29c.01,.11,.08,1.77,0,3h5.83l.13,1.39c.06,.64,.49,6.33-2.32,9.43"/><path d="M59.18,8.01c-.27-1.66-1.5-2.93-3.13-3.21-4.69-.8-12.51-.8-14.07-.8s-9.38,0-14.07,.8c-1.62,.28-2.86,1.54-3.13,3.21-.78,4.81-.78,5.92-.78,10.73,0,.64,0,1.72,.05,3.09,3.51,.06,7.96,.25,11.17,.77l4.12-13.6h4.36l.03,.11,4.47,14.89h-3.44l-.93-3.25h-4.96l-.85,2.99c1.23,.92,2.11,2.31,2.37,3.92,.42,2.61,.62,4.2,.72,5.82,.09,0,.2,0,.28,0l10.11,6.37c.46,.29,1.06,.16,1.35-.3,.13-.21,.18-.45,.14-.68l-.05-.17h0l-2.7-10.65s.19-.17,.37,.09l3.47,4.82c.7-.08,1.37-.17,1.99-.27,1.62-.28,2.86-1.54,3.13-3.21,.78-4.81,.78-9.12,.78-10.73s0-5.92-.78-10.73"/></g></g></svg>