<?xml version="1.0" encoding="UTF-8"?><svg id="Laag_1" xmlns="http://www.w3.org/2000/svg" xmlns:xlink="http://www.w3.org/1999/xlink" viewBox="0 0 64 64"><defs><style>.cls-1{fill:none;}.cls-2{clip-path:url(#clippath-3);}.cls-3{clip-path:url(#clippath-2);}</style><clipPath id="clippath"><rect class="cls-1" x="706.17" y="822.97" width="64" height="64"/></clipPath><clipPath id="clippath-2"><rect class="cls-1" width="64" height="64"/></clipPath><clipPath id="clippath-3"><rect class="cls-1" width="64" height="64"/></clipPath></defs><g class="cls-3"><g class="cls-2"><path d="M50,30.8c1.77,0,3.92,.04,6,.15V9.31c0-.67-.69-1.11-1.29-.83l-16.98,8.22-13.71-7.39s-2.59,12.28-2.66,12.54c-.09,.32-.35,.24-.35,.24V8.4L4.07,16.24c-.65,.3-1.07,.95-1.07,1.66V54.08c0,.67,.69,1.11,1.29,.83l16.95-8.23,12.71,6.41c-.12-2.11-.15-4.3-.15-6.1,0-3.22,.11-7.68,.61-10.7,.42-2.51,2.38-4.47,4.89-4.89,3.02-.5,7.49-.61,10.7-.61"/><path d="M62.43,36.83c-.19-1.17-1.09-2.07-2.26-2.26-3.39-.57-9.04-.57-10.17-.57s-6.78,0-10.17,.57c-1.17,.2-2.07,1.09-2.26,2.26-.56,3.39-.56,9.04-.56,10.17s0,6.78,.56,10.17c.19,1.17,1.09,2.07,2.26,2.26,3.39,.56,9.04,.56,10.17,.56s6.78,0,10.17-.56c1.17-.2,2.07-1.09,2.26-2.26,.57-3.39,.57-9.04,.57-10.17,0-3.39,0-6.78-.57-10.17m-4.43,11.67c0,.28-.22,.5-.5,.5h-5.5v5.5c0,.28-.22,.5-.5,.5h-3c-.28,0-.5-.22-.5-.5v-5.5h-5.5c-.28,0-.5-.22-.5-.5v-3c0-.28,.22-.5,.5-.5h5.5v-5.5c0-.28,.22-.5,.5-.5h3c.28,0,.5,.22,.5,.5v5.5h5.5c.28,0,.5,.22,.5,.5v3Z"/></g></g></svg>