<?xml version="1.0" encoding="UTF-8"?><svg id="Laag_1" xmlns="http://www.w3.org/2000/svg" xmlns:xlink="http://www.w3.org/1999/xlink" viewBox="0 0 64 64"><defs><style>.cls-1{fill:none;}.cls-2{clip-path:url(#clippath);}.cls-3{clip-path:url(#clippath-1);}</style><clipPath id="clippath"><rect class="cls-1" width="64" height="64"/></clipPath><clipPath id="clippath-1"><rect class="cls-1" width="64" height="64"/></clipPath></defs><g class="cls-2"><g class="cls-3"><path d="M12,50c-2.21,0-4,1.79-4,4s1.79,4,4,4,4-1.79,4-4-1.79-4-4-4m2.41-6.46c-.54-.92-.55-2.02-.03-2.95l1.54-2.76,30.65-2.69c3.64-.32,6.5-3.19,6.8-6.83l1.61-19.14c.05-.55-.14-1.09-.5-1.5-.37-.41-.89-.65-1.44-.66l-39.73-.97c-.44-2.58-2.51-4.57-5.13-4.9L3.25,.52c-1.1-.14-2.1,.64-2.23,1.74-.14,1.1,.64,2.1,1.74,2.23l4.94,.62c.89,.11,1.59,.81,1.69,1.7l3.49,28.27-1.99,3.56c-1.22,2.18-1.19,4.77,.07,6.92,1.26,2.15,3.51,3.44,6.01,3.44h18.05c.02-1.29,.06-2.65,.13-4H16.97c-1.06,0-2.02-.55-2.56-1.46m6.59-10.17l-4.25,.37-1.33-10.74h5.58v10.37ZM45,10.81l5.83,.14-.68,8.05h-5.15V10.81Zm0,12.19h4.81l-.42,4.97c-.14,1.69-1.48,3.03-3.17,3.18l-1.23,.11v-8.26Zm-10-12.44l6,.15v8.29h-6V10.56Zm0,12.44h6v8.61l-6,.53v-9.14Zm-10-12.68l6,.15v8.54h-6V10.32Zm0,12.68h6v9.49l-6,.53v-10.02Zm-4-12.78v8.78h-6.07l-1.11-8.96,7.18,.17Zm42.43,30.61c-.19-1.17-1.09-2.07-2.26-2.26-3.39-.57-9.04-.57-10.17-.57s-6.78,0-10.17,.57c-1.17,.2-2.07,1.09-2.26,2.26-.57,3.39-.57,9.04-.57,10.17s0,6.78,.57,10.17c.19,1.17,1.09,2.06,2.26,2.26,3.39,.57,9.04,.57,10.17,.57s6.78,0,10.17-.57c1.17-.2,2.07-1.09,2.26-2.26,.56-3.39,.56-9.04,.56-10.17,0-3.39,0-6.78-.56-10.17m-20.58,7.45c0-2.9,1.84-3.92,3.42-3.92,2.09,0,3.29,1.37,3.29,3.77,0,2.62-1.78,3.81-3.44,3.81-1.49,0-3.27-.63-3.27-3.65m6.43,9.73l-1.84-.73,5.23-13.28,1.84,.73-5.23,13.28Zm6.41-.45c-1.49,0-3.27-.63-3.27-3.65s1.84-3.92,3.42-3.92c2.09,0,3.29,1.37,3.29,3.77,0,2.63-1.73,3.81-3.44,3.81m.1-5.62c-.85,0-1.03,.98-1.03,1.79,0,1.63,.51,1.85,1.01,1.85,.7,0,1.06-.55,1.06-1.64,0-1.8-.6-2.01-1.04-2.01m-9.57-5.62c-.86,0-1.04,.98-1.04,1.8,0,1.63,.52,1.85,1.02,1.85,.86,0,1.04-.89,1.04-1.64,0-1.8-.58-2.01-1.02-2.01"/></g></g></svg>