<?xml version="1.0" encoding="UTF-8"?><svg id="Laag_1" xmlns="http://www.w3.org/2000/svg" viewBox="0 0 64 64"><defs><style>.cls-1{fill:none;}</style></defs><rect class="cls-1" width="64" height="64"/><g><path d="m56.68,20.76c-.67,2.85-1.34,6.68-1.84,9.73.41.17.8.4,1.17.72,2.16,1.84,2.38,4.82.7,7.81-3.81,6.74-7.98,9.79-8.85,10.42-.25.18-.39.13-.48.04,0,0,0-.01,0-.01,3.79-4.23,5.8-7.13,7.51-11.18,1.3-3.07.6-4.92-.51-5.59-1.09-.65-2.22-.3-3.35,1.38-3.86,5.71-6.66,8.71-10.52,13.26-2.69,3.16-4.52,7.08-4.49,11.08.02,2.55.19,3.94.29,4.57h13.5l1.14-6.5c.16-.91.57-1.75,1.18-2.44l7.39-7.48c1.53-1.74,2.42-3.96,2.5-6.28v-24.18s-3.94-1.28-5.32,4.64Z"/><path d="m12.98,34.08c-1.14-1.68-2.26-2.03-3.35-1.38-1.12.67-1.82,2.52-.51,5.59,1.72,4.05,3.72,6.95,7.51,11.18,0,0,0,.01,0,.01-.1.09-.23.14-.48-.04-.87-.63-5.05-3.68-8.85-10.42-1.68-2.98-1.46-5.96.7-7.81.37-.32.77-.56,1.17-.72-.5-3.06-1.18-6.88-1.84-9.73-1.38-5.92-5.32-4.64-5.32-4.64v24.17c.08,2.32.96,4.54,2.5,6.28l7.39,7.48c.61.69,1.02,1.53,1.18,2.44l1.14,6.5h13.5c.1-.63.26-2.03.29-4.57.04-4-1.8-7.92-4.49-11.08-3.87-4.55-6.66-7.55-10.52-13.26Z"/><path d="m29.2,10.05c2.79-.7,3.91-3.06,3.2-5.86-.8-3.2-2.92-4.49-5.63-3.81-2.86.72-3.89,3.13-3.16,6.02.76,3.04,2.81,4.35,5.59,3.66Z"/><path d="m31.54,29.59c.71.52,1.78,1.31,4.79,3.52-.11,1.79-.26,4.3-.26,6.16,0,2.9,1.22,4.17,3.66,4.73,0,0,.98-8.19,1.47-12.34.08-.74-.2-1.52-.8-2.05-2.12-1.88-3.83-3.44-5.08-4.59-.88-5.88-.63-8.02-.63-8.02,4.68-3.37,6.29-8.48,5.47-13.82-.33-2.16-1.77-3.59-3.87-2.96,1.86,6.27.63,11.65-6.89,12.59-6.98.87-11.03-2.99-10.66-10.18h0c-2.03-.07-3.1,1.9-2.98,3.93.33,5.54,3.59,9.38,8.56,11.11.41,7.08.58,8.31,3.21,16.19,0,0-1.87,1.14-2.99,1.9-2.02,1.37-2.95,3.51-1.81,5.67h0c1.78-.95,6.82-3.65,8.52-4.56.79-.42,1.27-1.32,1.11-2.25-.08-.51-.46-2.85-.81-5Z"/></g></svg>