<?xml version="1.0" encoding="UTF-8"?><svg id="Laag_1" xmlns="http://www.w3.org/2000/svg" xmlns:xlink="http://www.w3.org/1999/xlink" viewBox="0 0 64 64"><defs><style>.cls-1{fill:none;}.cls-2{clip-path:url(#clippath);}.cls-3{clip-path:url(#clippath-1);}</style><clipPath id="clippath"><rect class="cls-1" width="64" height="64"/></clipPath><clipPath id="clippath-1"><rect class="cls-1" width="64" height="64"/></clipPath></defs><g class="cls-2"><g class="cls-3"><path d="M62,20.6l-5.6-5.6h-15.1L23.6,1.2c-.3-.3-.8-.3-1.2,0L4.7,15h-.7c-1.7,0-3,1.3-3,3v5c0,1.7,1.3,3,3,3H8c1.7,0,3-1.3,3-3h8V63h2v-4.7l3.1,4.7h2.9V28.7c.4-.2,1.5-1.3,1.8-1.7,.8-.7,1.2-1.7,1.2-2.7v-7.3h4.7l-4,2.6,.7,3.4h25.6v14.1l-1.2,1.5,.7,2.9h.9c0,.4,.1,.7,.3,1,.3,.3,.6,.6,.8,.9,.2,.3,.2,.7-.1,1-.3,.2-.8,.2-1.1-.1-.3-.3-.5-.6-.8-1-.1-.2-.4-.1-.4,.1,0,.4,0,1.2,.3,1.7,.7,1.2,2.3,1,3,.4,.9-.8,.8-1.8,.4-2.4-.3-.5-.7-.9-1-1.3-.1-.1-.1-.2-.1-.4h.9l.7-2.9-1.3-1.4v-14.1h2c.6,0,1.1-.3,1.3-.9,.2-.5,.1-1.1-.3-1.5M23,6.8l1.8,8.2h-3.5l1.7-8.2Zm-4,14.2h-5.7l5.7-3.8v3.8Zm-8-.9v-3.1h4.7l-4.7,3.1Zm8.2-5.1H7.9L21.4,4.5l-2.2,10.5Zm4.9,21h-3.1v-4.7l3.1,4.7Zm0,9h-3.1v-4.7l3.1,4.7Zm-3.1,4.3l3.1,4.7h-3.1v-4.7Zm4,11.4l-3.1-4.7h3.1v4.7Zm0-9l-3.1-4.7h3.1v4.7Zm0-9l-3.1-4.7h3.1v4.7Zm0-9l-3.1-4.7h3.1v4.7Zm2-10.7c0,.6-.4,1-1,1h-3c-.6,0-1-.4-1-1v-4c0-.6,.4-1,1-1h3c.6,0,1,.4,1,1v4Zm10-2h-4.7l4.7-3.1v3.1Zm-10.2-6l-2.2-10.5,13.5,10.5h-11.3Zm12.2,2h4.7l-4.7,3.1v-3.1Zm8,4h-5.7l5.7-3.8v3.8Zm2-4h4.7l-4.7,3.1v-3.1Zm2.3,4l5-3.3,3.3,3.3h-8.3Z"/><path d="M52,33h-19c-.55,0-1,.45-1,1v29h9v-5h3v5h9v-29c0-.55-.45-1-1-1m-13,22h-3v-3h3v3Zm0-5h-3v-3h3v3Zm0-5h-3v-3h3v3Zm0-5h-3v-3h3v3Zm5,15h-3v-3h3v3Zm0-5h-3v-3h3v3Zm0-5h-3v-3h3v3Zm0-5h-3v-3h3v3Zm5,15h-3v-3h3v3Zm0-5h-3v-3h3v3Zm0-5h-3v-3h3v3Zm0-5h-3v-3h3v3Z"/></g></g></svg>