<?xml version="1.0" encoding="UTF-8"?><svg id="Laag_1" xmlns="http://www.w3.org/2000/svg" xmlns:xlink="http://www.w3.org/1999/xlink" viewBox="0 0 64 64"><defs><style>.cls-1{fill:none;}.cls-2{clip-path:url(#clippath);}.cls-3{clip-path:url(#clippath-1);}</style><clipPath id="clippath"><rect class="cls-1" width="64" height="64"/></clipPath><clipPath id="clippath-1"><rect class="cls-1" width="64" height="64"/></clipPath></defs><g class="cls-2"><rect x="30" y="11" width="18" height="3"/><rect x="30" y="17" width="18" height="3"/><rect x="11.76" y="44.85" width="5.71" height="19.24" transform="translate(-34.24 26.29) rotate(-45)"/><g class="cls-3"><path d="M46.08,26.67c.91,0,1.5,.09,2.62,.3v-2.39c-.96-.21-1.66-.27-2.55-.27-3.16,0-5.49,1.73-6.31,5.15h-1.68v1.75h1.41c-.05,.39-.05,.82-.05,1.23v.48h-1.37v1.73h1.55c.66,3.37,2.89,4.92,6.06,4.92,1.21,0,1.8-.07,3.05-.36v-2.25c-1.18,.25-1.8,.34-2.87,.34-1.5,0-2.73-.77-3.26-2.64h4.17v-1.73h-4.44c-.02-.23-.02-.48-.02-.75,0-.32,0-.64,.02-.96h4.44v-1.75h-4.14c.5-1.84,1.64-2.78,3.37-2.78"/><path d="M55,1H23c-1.1,0-2,.9-2,2V28.12c1.09-.76,2.25-1.6,3.69-2.63l.31-.22V5h28V42H25v-4.72c-1.55,1.19-3.01,2.18-4,2.82v3.9c0,1.1,.9,2,2,2H55c1.1,0,2-.9,2-2V3c0-1.1-.9-2-2-2"/><path d="M19,44v-5c3.62-2.23,13.62-9.31,10.95-12.62-.72-.89-1.77-.94-3.25,.12-5.01,3.61-7.05,5.12-11.7,7.75-3.23,1.83-3.15,8.23-2.97,10.75l11.97,12s2.53-.35,6.71-2.35c4.18-2,7.29-6.65,7.29-6.65h-15c-2.21,0-4-1.79-4-4"/></g></g></svg>