<?xml version="1.0" encoding="UTF-8"?><svg id="Laag_1" xmlns="http://www.w3.org/2000/svg" xmlns:xlink="http://www.w3.org/1999/xlink" viewBox="0 0 64 64"><defs><style>.cls-1{fill:none;}.cls-2{clip-path:url(#clippath);}.cls-3{clip-path:url(#clippath-1);}</style><clipPath id="clippath"><rect class="cls-1" width="64" height="64"/></clipPath><clipPath id="clippath-1"><rect class="cls-1" width="64" height="64"/></clipPath></defs><g class="cls-2"><g class="cls-3"><path d="M26.54,25.61c.91,.56,2.06,.88,3.21,.88,3.28,0,5.85-2.45,5.85-5.68,0-1.33-.46-2.56-1.23-3.54,1.47-.9,2.31-2.51,2.31-4.34,0-2.19-1.4-4.05-3.36-4.78,.01-.15,.02-.31,.02-.46-.04-3.02-2.52-5.42-5.81-5.38-1.39,.02-2.66,.48-3.66,1.22-.92-.79-2.11-1.27-3.43-1.27-3.07,0-6,2.62-5.63,5.71-2.31,.75-3.97,2.89-3.97,5.41,0,1.81,1.32,3.41,2.65,4.46-.94,1.01-1.51,2.35-1.51,3.82,0,3.9,3.98,6.12,7.49,5.17,.82-2.74,1.07-5.01,1.17-5.91,.03-.27,.23-.41,.35-.34,.06,.72,.09,1.63,.1,2.65,.01,3.99-.4,12.78-.91,16.56l7.39,.81c-.34-3.88-.85-12.5-1.01-14.98"/><path d="M37,35.93h4v6.13l6,.65v-9.19h1.6c.22,0,.4-.18,.4-.4v-.59c0-.22-.09-.44-.26-.59l-9.47-8.71c-.15-.14-.39-.14-.54,0l-9.47,8.71c-.16,.15-.26,.36-.26,.59v.59c0,.22,.18,.4,.4,.4h1.6v7.44l6,.66v-5.7Z"/><path d="M60,52.29v-5.95l-49.58-5.41-2.48,1.51,3.77,.71-1.04,.78-3.81-.84-3.12,1.9,56.25,17.78v-7.97l-8.86-1.95,.16-2.2,8.7,1.65Zm-36.37-5.5l-7.23-1.59,.92-.98,7.19,1.36-.88,1.21Zm17.66,3.89l-9.64-2.12,.68-1.5,9.43,1.78-.47,1.84Z"/></g></g></svg>