<?xml version="1.0" encoding="UTF-8"?><svg id="Laag_1" xmlns="http://www.w3.org/2000/svg" viewBox="0 0 64 64"><defs><style>.cls-1{fill:none;}</style></defs><rect class="cls-1" width="64" height="64"/><g><circle cx="32" cy="9" r="2"/><path d="m56,59s-1.45-10.86-4.21-13.74c-1.07-1.12-3.16-2.21-5.31-3.18-1.54-.69-5.89-2.44-6.29-2.68-.12-1.09-.25-2.18-.36-3.17,2.3-2.47,3.69-5.03,4.1-7.67,1.33-1.22,2.08-3.17,2.08-5.56,0-.74-.02-2.67-1.22-4.01.09-.68.11-1.29.13-1.87.09-2.82.05-7.08-1.34-8.69-1.29-1.49-3.45-2.52-5.71-3.26-1.25-1.92-3.41-3.18-5.86-3.18s-4.62,1.27-5.87,3.19c-2.25.73-4.41,1.77-5.69,3.25-1.24,1.43-1.44,4.77-1.42,7.56,0,.77.1,1.82.19,3-1.2,1.33-1.22,3.27-1.22,4,0,2.39.75,4.33,2.07,5.55.4,2.66,1.77,5.2,4.11,7.69-.11.98-.24,2.07-.36,3.16-.22.13-5.82,2.47-6.29,2.68-2.15.97-4.25,2.07-5.31,3.18-2.76,2.88-4.21,13.74-4.21,13.74h11l-2-9h7.95l1.33,4h11.44l1.33-4h7.95l-2,9h11ZM32,3.9c2.82,0,5.1,2.28,5.1,5.1s-2.28,5.1-5.1,5.1-5.1-2.28-5.1-5.1,2.28-5.1,5.1-5.1Zm4.28,48.1h-8.56l-.58-1.73,2.86-2.86v-1.41c0-1.1.9-2,2-2s2,.9,2,2v1.41l2.86,2.86-.58,1.73Zm-.28-5.44v-.56c0-2.21-1.79-4-4-4s-4,1.79-4,4v.59l-.06.06c-1.45-.99-2.98-2.29-4.12-3.93,1.73-.73,2.79-1.39,2.93-2.59.05-.47.31-2.73.57-4.97-.37-.34-.87-.83-1.4-1.44-1.68-1.91-2.98-4.21-2.98-6.89-1.49-.46-1.94-2.27-1.94-3.82,0-.5,0-1.86.67-2.17,0,0,0,0,0,0,.41-.19.9-.04,1.26.26,0,0,0,0,0,0,0,0,0,0,0,0,0,0,0,0,0,0,0-.78.02-2.86.61-5.09h16.99s.01.04.02.06c.37,1.57.5,3.15.5,5.03.36-.3.84-.47,1.27-.26.45.21.67.9.67,2.17,0,1.55-.45,3.35-1.94,3.82,0,3.35-2.07,6.16-4.38,8.32h0c-1,.94-1.85,1.86-4.68,1.86-1.09,0-2.18-.18-2.99-.55.4.98,1.08,1.79,3.12,2.3,1.81.45,3.84.24,4.89-.44.05.47.19,1.34.24,1.8.14,1.2,1.2,1.86,2.94,2.59-1.13,1.61-2.69,2.88-4.19,3.84Z"/></g></svg>