<?xml version="1.0" encoding="UTF-8"?><svg id="Laag_1" xmlns="http://www.w3.org/2000/svg" xmlns:xlink="http://www.w3.org/1999/xlink" viewBox="0 0 64 64"><defs><style>.cls-1{fill:none;}.cls-2{clip-path:url(#clippath);}.cls-3{clip-path:url(#clippath-1);}</style><clipPath id="clippath"><rect class="cls-1" width="64" height="64"/></clipPath><clipPath id="clippath-1"><rect class="cls-1" width="64" height="64"/></clipPath></defs><g class="cls-2"><g class="cls-3"><path d="M52.81,19.76c.44-2.19,.91-4.01,2.99-4.84,2.11-.84,5.08-1.56,5.08-4.94,0-1.09-.9-1.99-1.99-1.99h-2.46c-1.82,0-2.61-.35-3.21-.75-2.39-1.58-4.68-1.45-6.66-.49-1.93,.95-3.37,2.74-4.41,4.69-1.74,3.26-4.21,8.7-5.44,11.24-1.23,2.54-2.83,3.41-4.86,4.06-2.03,.65-1.52,.43-8.48,2.39-6.96,1.96-14.36,3.05-19,9.86-3.88,5.7-1.73,13.02-.8,15.55,.2,.53,.84,.74,1.32,.44,1.2-.77,2.02-1.92,2.02-1.92,.88,1.85,2.09,2.94,2.89,3.5,.44,.31,1.05,.18,1.33-.28,3.86-6.31-1.03-13.73-1.03-13.73,.08-.16,.31-.09,.5,.06,1.92,1.42,3.6,5.25,3.6,5.25,5.25,2.75,12.63,1.75,12.63,1.75,4.21-6.58,8.28-9.72,9.69-10.56,.24-.14,.44-.11,.49,.02-5.95,5.89-8.19,12.17-8.91,14.78-.17,.61,.37,1.16,.99,1.05,6.97-1.28,11.7-5.5,13.56-7.44,.57-.59,1.42-.82,2.21-.59,6.4,1.87,10.35,2.03,12.02,1.98,.49-.01,.81-.52,.61-.97-1.26-2.87-5.08-5.35-7-6.71-1.4-.99-1.55-2.24-1.2-3.92l3.54-17.5Zm-4.31-7.76c-.83,0-1.5-.67-1.5-1.5s.67-1.5,1.5-1.5,1.5,.67,1.5,1.5-.67,1.5-1.5,1.5"/></g></g></svg>