<?xml version="1.0" encoding="UTF-8"?><svg id="Laag_1" xmlns="http://www.w3.org/2000/svg" xmlns:xlink="http://www.w3.org/1999/xlink" viewBox="0 0 64 64"><defs><style>.cls-1{fill:none;}.cls-2{clip-path:url(#clippath);}.cls-3{clip-path:url(#clippath-1);}</style><clipPath id="clippath"><rect class="cls-1" width="64" height="64"/></clipPath><clipPath id="clippath-1"><rect class="cls-1" width="64" height="64"/></clipPath></defs><g class="cls-2"><g class="cls-3"><path d="M32,4c-10.24,0-17.96,7.73-17.96,17.97,0,5.96,2.88,10.42,6.21,15.58,3.24,5.01,6.91,11.68,9.19,20.47,.3,1.17,1.36,1.98,2.56,1.98s2.26-.82,2.56-1.98c2.28-8.79,5.95-15.46,9.19-20.47,3.33-5.16,6.21-9.61,6.21-15.58,0-10.25-7.72-17.97-17.96-17.97m10.56,14.34l-10.35,13.66c-.36,.48-1.06,.53-1.49,.12l-8.81-8.39c-.4-.38-.41-1.01-.03-1.41l2.05-2.15c.38-.4,1.01-.41,1.41-.03l5.59,5.33,7.66-10.12c.33-.44,.96-.53,1.4-.19l2.37,1.79c.44,.33,.53,.96,.19,1.4"/></g></g></svg>