<?xml version="1.0" encoding="UTF-8"?><svg id="Laag_1" xmlns="http://www.w3.org/2000/svg" xmlns:xlink="http://www.w3.org/1999/xlink" viewBox="0 0 64 64"><defs><style>.cls-1{fill:none;}.cls-2{clip-path:url(#clippath);}.cls-3{clip-path:url(#clippath-1);}</style><clipPath id="clippath"><rect class="cls-1" width="64" height="64"/></clipPath><clipPath id="clippath-1"><rect class="cls-1" width="64" height="64"/></clipPath></defs><g class="cls-2"><g class="cls-3"><path d="M39.78,41.98h-3.19l-1.6,14.94h4.12l1.74-8.56-.95-5.89c-.04-.24-.08-.39-.11-.49"/><path d="M20.47,43.49l-1.49,2.47,3.21,10.96h4.07l-3.29-14.94c-1.14,.04-1.89,.49-2.5,1.51"/><path d="M35.31,25.09h-11.88c-14.22,0-16.23-7.45-17.09-11.03-.33-1.4-2.23-1.14-2.33,.23-.22,3.01,1.2,6.37,2.8,8.56,2.02,2.76,4.37,4.02,4.58,4.53,.62,1.58-.16,1.37-.51,5.1-.25,2.72,1.93,7.27,2.84,8.41l-3.14,5.22c-.42,.56-.55,1.28-.36,1.95l2.43,8.86h4.18l-1.34-9.09,3.25-5.38c.82-1.37,2.13-2.48,4.36-2.48h16.74c1.44,0,1.81,1.07,2,2.16l2.37,14.72h5.05s-1.24-8.82-2.05-16.57c-.37-3.56,2.28-6.04,3.71-9.09,.54-1.17,.78-2.54,.97-3.86l-11.96-5c-1.27,1.59-2.81,2.75-4.62,2.75"/><path d="M56.8,15.79c-.53-1.37-2.3-3.45-4.6-3.45h-2.99c-.23-.46-.74-1.28-1.71-1.63-1.86-.67-5.38-2.21-5.95-1.21-.59,1.04,1.01,3.08,2.42,4.58-.36,1.18-1.3,3.94-2.76,6.41l11.06,4.62c.34-1.6,.92-2.79,2.47-2.9,3.19-.22,6.44-.81,6.74-5.48l-4.68-.93Z"/></g></g></svg>