<?xml version="1.0" encoding="UTF-8"?><svg id="Laag_1" xmlns="http://www.w3.org/2000/svg" xmlns:xlink="http://www.w3.org/1999/xlink" viewBox="0 0 64 64"><defs><style>.cls-1{fill:none;}.cls-2{clip-path:url(#clippath);}.cls-3{clip-path:url(#clippath-1);}</style><clipPath id="clippath"><rect class="cls-1" width="64" height="64"/></clipPath><clipPath id="clippath-1"><rect class="cls-1" width="64" height="64"/></clipPath></defs><g class="cls-2"><g class="cls-3"><path d="M47,8v-2c-5.53,.11-10.33,1.04-14,2v1.83c-7.58-.46-12.97,.71-16.03,3.5-1.97,1.8-2.97,4.21-2.97,7.16,0,4.04,1.82,6.49,3.59,8.86,2.09,2.81,4.07,5.48,3.35,11.22l-.25-.04c-.2-.03-.4,.1-.45,.3l-3.32,13.73c-.14,.57,.24,1.14,.82,1.22l4.74,.72c.58,.09,1.11-.34,1.15-.92l.9-14.09c.01-.19-.11-.35-.29-.41l-2.77-.41s-.02-.24,.19-.26c1.22-.13,1.51-.17,2.36-.39,.55-6.32-1.86-9.57-4.01-12.46-1.61-2.16-3-4.02-3-7.07,0-2.1,.65-3.72,1.99-4.95,2.43-2.22,7.26-3.15,14-2.72v.9c-4.33,.79-7.63,4.58-7.63,9.14v30.14c0,3.88,7.51,4.19,9.81,4.19s9.81-.3,9.81-4.19V22.88c0-4.62-3.39-8.45-7.81-9.17v-1.2c1.63-.33,3.72-.51,6.82-.51v-2c-2.46,.01-4.61,.01-6.82,.24v-1.01c2.78-.74,5.35-1.08,9.82-1.23m-5.01,14.88v20.19c-3.16,1.42-10.46,1.42-13.62,0V22.88c0-3.47,2.83-6.3,6.3-6.3h1.02c3.48,0,6.3,2.83,6.3,6.3"/></g></g></svg>