<?xml version="1.0" encoding="UTF-8"?><svg id="Laag_1" xmlns="http://www.w3.org/2000/svg" xmlns:xlink="http://www.w3.org/1999/xlink" viewBox="0 0 64 64"><defs><style>.cls-1{fill:none;}.cls-2{clip-path:url(#clippath);}.cls-3{clip-path:url(#clippath-1);}</style><clipPath id="clippath"><rect class="cls-1" width="64" height="64"/></clipPath><clipPath id="clippath-1"><rect class="cls-1" width="64" height="64"/></clipPath></defs><g class="cls-2"><g class="cls-3"><path d="M26.05,19c.23-1.14,1.23-2,2.44-2h21.79c1.55,10.05,.9,21.06-.08,29.25l1.8,1.75c1.09-8.48,1.95-20.55,.23-31.5-.14-.87-.9-1.5-1.77-1.5h-8.52c-.23-.56-.39-.9-.39-.9,1.89-3.6,.97-6.43-1.88-8.26-3.23-2.08-15-2.29-23.59,2.38-1.09,.6-2.04,1.25-2.85,1.95l9.06,8.84h3.77Z"/><path d="M43.88,21.36c-.14-.78-.33-1.58-.55-2.35h-14.84c-.27,0-.49,.22-.49,.49v5.1l17.9,17.47v-7.22s1.66-.85,2.98-1.58c.95-.52,1.1-1.9,.54-2.54-1.21-1.39-5.54-6.38-5.54-6.38-.18-.81,.12-2.3,0-2.98"/><path d="M59.29,58.21L4.98,5.21l-2.12,2.12,7.11,6.94c-.78,1.55-1.2,3.16-1.35,4.73h6.2l4.1,4H8.7c.18,1.33,.49,2.55,.83,3.56,1.77,5.36,7.08,12.97,7.44,18.7,.14,2.2-1.26,8.26-1.61,9.74h12.54c2.44,2.47,5.83,4,9.57,4h11.24c.86,0,1.6-.61,1.76-1.45,.15-.78,.36-1.87,.58-3.19l6.12,5.97,2.12-2.12Zm-10.75-1.21h-11.07c-6.32,0-11.47-5.15-11.47-11.47v-15.61l2,1.95v13.66c0,4.37,2.97,8.04,7,9.13v-4.66l-4.79-2.55c-.29-.16-.2-.35-.17-.4,0,0,7.38,1.61,10.24,1.98,1.45,.19,2.86-.35,3.91-1.37l5.12,4.99c-.29,1.82-.56,3.31-.76,4.34"/></g></g></svg>