<?xml version="1.0" encoding="UTF-8"?><svg id="Laag_1" xmlns="http://www.w3.org/2000/svg" xmlns:xlink="http://www.w3.org/1999/xlink" viewBox="0 0 64 64"><defs><style>.cls-1{fill:none;}.cls-2{clip-path:url(#clippath);}.cls-3{clip-path:url(#clippath-1);}</style><clipPath id="clippath"><rect class="cls-1" width="64" height="64"/></clipPath><clipPath id="clippath-1"><rect class="cls-1" width="64" height="64"/></clipPath></defs><g class="cls-2"><g class="cls-3"><path d="M48.51,46.38c-.96-1.44-1.59-3.08-1.83-4.8l-2.22-15.89c-1.03-4.38-4.39-7.73-8.57-8.86-.18-1.59-1.51-2.82-3.14-2.82s-2.96,1.24-3.14,2.82c-4.19,1.13-7.54,4.48-8.57,8.86l-2.22,15.89c-.24,1.72-.86,3.36-1.83,4.8l-2.99,4.54c-.8,1.2,.06,2.8,1.5,2.8h20.2s.11,.43-.35,.51c-.23,.04-3.88,.48-7.69,.94,.86,1.95,2.81,3.32,5.08,3.32,2.8,0,5.11-2.07,5.5-4.76h11.75c1.44,0,2.3-1.6,1.5-2.8l-2.99-4.54Z"/><path d="M12.5,30.5c0-2.06,1.01-3.89,2.56-5.03l-2.31-3.26c-2.57,1.86-4.25,4.88-4.25,8.29s1.68,6.43,4.25,8.29l2.31-3.26c-1.55-1.14-2.56-2.97-2.56-5.03"/><path d="M4.5,30.5c0-4.76,2.35-8.97,5.94-11.56l-2.31-3.26C3.52,19,.5,24.4,.5,30.5s3.02,11.5,7.64,14.82l2.31-3.26c-3.59-2.59-5.94-6.8-5.94-11.56"/><path d="M51.25,22.21l-2.31,3.26c1.55,1.14,2.56,2.97,2.56,5.03s-1.01,3.89-2.56,5.03l2.31,3.26c2.57-1.86,4.25-4.88,4.25-8.29s-1.68-6.43-4.25-8.29"/><path d="M55.86,15.68l-2.31,3.26c3.59,2.59,5.95,6.8,5.95,11.56s-2.35,8.97-5.95,11.56l2.31,3.26c4.62-3.31,7.64-8.71,7.64-14.82s-3.02-11.5-7.64-14.82"/></g></g></svg>