<?xml version="1.0" encoding="UTF-8"?><svg id="Laag_1" xmlns="http://www.w3.org/2000/svg" xmlns:xlink="http://www.w3.org/1999/xlink" viewBox="0 0 64 64"><defs><style>.cls-1{fill:none;}.cls-2{clip-path:url(#clippath);}.cls-3{clip-path:url(#clippath-1);}</style><clipPath id="clippath"><rect class="cls-1" width="64" height="64"/></clipPath><clipPath id="clippath-1"><rect class="cls-1" width="64" height="64"/></clipPath></defs><g class="cls-2"><g class="cls-3"><path d="M17.83,43.64l2.09-12.14,14.76-3.21,1.65,4.93c1.34-.48,2.81-.85,4.38-1.09l-1.23-3.66c.43,.21,.9,.34,1.41,.34,1.77,0,3.2-1.43,3.2-3.2,0-2.28-2.23-3.49-3.66-3.18l-2.77,.6-4.01-11.98c.73-.02,1.33-.01,1.69,0,2.27,.08,3.28-2.52,1.09-4.04-1.77-1.23-6.79-2.71-11.19,.94-3.3,2.74-4.51,4.63-10.87,5.96-.15-.43-3.44-9.97-3.68-10.35-.48-1.16-1.62-1.97-2.95-1.97-1.76,0-3.2,1.43-3.2,3.2s1.32,3.07,2.99,3.17l7.95,22.79-2.02,11.75c-2.5-.77-4.97-1.79-6.72-2.64-.63-.31-1.42-.15-1.87,.43-.51,.66-.39,1.61,.27,2.12,7.28,5.6,14.38,7.36,22.85,7.59v-5.26c-3.93-.04-6.94-.41-10.17-1.1m6.99-30.49c1.07-.82,2.63-1.32,4.24-1.64l4.18,12.48-14.26,3.1-3.14-8.99c4.96-.92,5.38-2.19,8.98-4.95"/><path d="M45,54c7.85,0,14-3.38,14-7.68v-3.65c0-4.3-6.15-7.67-14-7.67s-14,3.37-14,7.67v3.65c0,.95,.31,1.85,.86,2.68-.55,.83-.86,1.72-.86,2.66v3.65c0,4.3,6.15,7.68,14,7.68s14-3.38,14-7.68v-3.65c0-.2-.03-.41-.05-.61-.72,.9-4.57,5.14-13.61,5.14-8.02,0-10.78-3.86-11.07-4.38-.12-.21-.2-.44-.08-.57,2.55,1.69,6.41,2.75,10.81,2.75m-11.3-11c0-2.84,5.06-5.15,11.3-5.15s11.3,2.31,11.3,5.15-5.06,5.15-11.3,5.15-11.3-2.31-11.3-5.15"/><path d="M42.85,44.73v.68h1.55v-.56c.31,.02,.67,.02,1.02,.02h.38v.54h1.52v-.62c2.78-.3,4.11-1.26,4.11-2.67,0-.55-.06-.78-.31-1.34h-2.06c.21,.52,.29,.78,.29,1.25,0,.62-.59,1.12-2.03,1.33v-1.76h-1.52v1.89c-.19,0-.38,.02-.61,.02-.27,0-.52-.01-.79-.02v-1.89h-1.55v1.75c-1.4-.21-2.13-.66-2.13-1.37,0-.41,.08-.65,.25-1.15h-2.17c-.17,.43-.23,.73-.23,1.12,0,1.42,1.44,2.42,4.28,2.78"/></g></g></svg>