<?xml version="1.0" encoding="UTF-8"?><svg id="Laag_1" xmlns="http://www.w3.org/2000/svg" xmlns:xlink="http://www.w3.org/1999/xlink" viewBox="0 0 64 64"><defs><style>.cls-1{fill:none;}.cls-2{clip-path:url(#clippath);}.cls-3{clip-path:url(#clippath-1);}</style><clipPath id="clippath"><rect class="cls-1" width="64" height="64"/></clipPath><clipPath id="clippath-1"><rect class="cls-1" width="64" height="64"/></clipPath></defs><g class="cls-2"><g class="cls-3"><path d="M15.87,38.56c1.46-1.01,3.22-1.59,5.13-1.59,3.92,0,7.24,2.03,8.48,6.03h5.05c1.24-4,4.56-6.03,8.48-6.03,1.91,0,3.68,.59,5.13,1.6l5-7.01c1.21-1.7,1.86-3.74,1.86-5.82V15h-13.98s-.07-.29,.25-.39l9.39-1.91-1.04-2.13c-.12-.25-.34-.44-.61-.52l-3.87-1.16-.95-1.25c-.13-.16-.3-.29-.5-.35l-1.51-.47c-.31-.1-.63-.12-.95-.06l-3.87,.7-3.6-2.48c-.33-.23-.77-.24-1.1-.02l-4.37,2.79s-1.28-1.22-3-.93c-1.71,.29-4.14,2.5-4.14,2.5l-1.35-.65c-.28-.13-.6-.13-.87,0l-2.12,1.04c-.24,.12-.42,.32-.51,.57l-.44,1.25-2.52,.96c-.3,.12-.53,.4-.61,.71l-.47,1.81h-3.26v10.74c0,2.08,.65,4.12,1.86,5.81l5,7Z"/><path d="M28,46c0-3.87-3.13-7-7-7s-7,3.13-7,7,3.13,7,7,7,7-3.13,7-7m-7,3.15c-1.74,0-3.15-1.41-3.15-3.15s1.41-3.15,3.15-3.15,3.15,1.41,3.15,3.15-1.41,3.15-3.15,3.15"/><path d="M50,46c0-3.87-3.13-7-7-7s-7,3.13-7,7,3.13,7,7,7,7-3.13,7-7m-7,3.15c-1.74,0-3.15-1.41-3.15-3.15s1.41-3.15,3.15-3.15,3.15,1.41,3.15,3.15-1.41,3.15-3.15,3.15"/><polygon points="43 53 21 53 4 53 4 57 60 57 60 53 43 53"/></g></g></svg>