<?xml version="1.0" encoding="UTF-8"?><svg id="Laag_1" xmlns="http://www.w3.org/2000/svg" xmlns:xlink="http://www.w3.org/1999/xlink" viewBox="0 0 24 24"><defs><style>.cls-1{fill:none;}.cls-2{clip-path:url(#clippath);}.cls-3{clip-path:url(#clippath-1);}</style><clipPath id="clippath"><rect class="cls-1" width="24" height="24"/></clipPath><clipPath id="clippath-1"><rect class="cls-1" width="24" height="24"/></clipPath></defs><g class="cls-2"><g class="cls-3"><path d="m17,20H5v-11h4c.55,0,1-.45,1-1v-4h4.98l2-2h-7.56c-.26,0-.52.1-.71.29L3.29,7.71c-.19.19-.29.44-.29.71v12.59c0,.55.45,1,1,1h14c.55,0,1-.45,1-1v-8.97l-2,2v5.97Z"/><path d="m21.94,5.28l-2.22-2.22c-.39-.39-1.02-.39-1.41,0l-8.51,8.51c-.09.09-.16.2-.2.32l-.59,3.77c-.07.2.12.39.32.32l3.78-.59c.12-.04.23-.11.32-.2l8.51-8.5c.39-.39.39-1.02,0-1.41"/></g></g></svg>