<?xml version="1.0" encoding="UTF-8"?><svg id="Laag_1" xmlns="http://www.w3.org/2000/svg" xmlns:xlink="http://www.w3.org/1999/xlink" viewBox="0 0 64 64"><defs><style>.cls-1{fill:none;}.cls-2{clip-path:url(#clippath);}.cls-3{clip-path:url(#clippath-1);}</style><clipPath id="clippath"><rect class="cls-1" width="64" height="64"/></clipPath><clipPath id="clippath-1"><rect class="cls-1" width="64" height="64"/></clipPath></defs><g class="cls-2"><g class="cls-3"><path d="M43.55,54.44s-1.9,.38-4.73,.68l1.18,5.88h6l-2-6.68c-.15,.04-.3,.08-.45,.11"/><path d="M20,54.33l-2,6.66h6l1.18-5.88c-2.79-.3-4.64-.66-4.67-.67-.17-.03-.34-.08-.51-.12"/><path d="M44,3H20c-2.76,0-5,2.24-5,5V46c0,3.31,2.58,5.33,6,6,0,0,5,1,11,1s11-1,11-1c3.33-.75,6-2.69,6-6V8c0-2.76-2.24-5-5-5m-20,3h16v3h-16v-3Zm2.21,42.07c-.89,.06-2.12-.09-3.24-.27-1.72-.27-3.15-1.54-3.15-3.04v-2.3c0-.85,.72-1.05,1.47-.55,1.52,1.01,4.44,3.28,5.56,4.47,.67,.71,.36,1.61-.64,1.68m-1.08-10.42c-2.11-.36-3.9-1.73-4-3.93l-1.09-20.65c-.02-.58,.43-1.07,1-1.07h21.91c.57,0,1.02,.49,1,1.07l-1.09,20.65c-.09,2.2-1.88,3.62-4,3.93-1.31,.19-3.97,.45-6.87,.45s-5.75-.26-6.87-.45m19.05,7.11c0,1.5-1.43,2.77-3.15,3.04-1.12,.17-2.35,.33-3.24,.27-1-.07-1.31-.97-.64-1.68,1.12-1.19,4.04-3.47,5.56-4.47,.75-.5,1.47-.3,1.47,.55v2.3Z"/></g></g></svg>