<?xml version="1.0" encoding="UTF-8"?><svg id="Laag_1" xmlns="http://www.w3.org/2000/svg" xmlns:xlink="http://www.w3.org/1999/xlink" viewBox="0 0 64 64"><defs><style>.cls-1{fill:none;}.cls-2{clip-path:url(#clippath);}.cls-3{clip-path:url(#clippath-1);}</style><clipPath id="clippath"><rect class="cls-1" width="64" height="64"/></clipPath><clipPath id="clippath-1"><rect class="cls-1" width="64" height="64"/></clipPath></defs><g class="cls-2"><g class="cls-3"><path d="M61.83,11.38l-3-5.2c-.28-.48-.89-.64-1.37-.37L15.6,29.99c-.06-.05-.25-.24,.03-.56l2.36-2.43H6c-1.66,0-3,1.34-3,3v31H21v-24.89L61.46,12.75c.48-.28,.64-.89,.37-1.37M12,42.12c-2.83,0-5.12-2.29-5.12-5.12s2.29-5.13,5.12-5.13,5.13,2.3,5.13,5.13-2.3,5.12-5.13,5.12m12.96-10.61l-2-3.46,6.93-4,2,3.46-6.93,4Zm13.86-8l-2-3.46,6.93-4,2,3.46-6.93,4Zm13.86-8l-2-3.46,6.93-4,2,3.46-6.93,4ZM14.98,37c0,1.65-1.34,2.99-2.99,2.99s-2.98-1.34-2.98-2.99,1.34-2.98,2.98-2.98,2.99,1.34,2.99,2.98"/></g></g></svg>