<?xml version="1.0" encoding="UTF-8"?><svg id="Laag_1" xmlns="http://www.w3.org/2000/svg" xmlns:xlink="http://www.w3.org/1999/xlink" viewBox="0 0 64 64"><defs><style>.cls-1{fill:none;}.cls-2{clip-path:url(#clippath);}.cls-3{clip-path:url(#clippath-1);}</style><clipPath id="clippath"><rect class="cls-1" width="64" height="64"/></clipPath><clipPath id="clippath-1"><rect class="cls-1" width="64" height="64"/></clipPath></defs><g class="cls-2"><g class="cls-3"><path d="M35.59,42.57c.9-.76,2.04-1.18,3.22-1.18s2.36,.43,3.27,1.22l3.94,3.41,4.23-4.79c.82-1.44,1.46-2.98,1.92-4.6l5.7-1.98c.68-.24,1.13-.88,1.13-1.59v-4.15c0-.72-.46-1.36-1.13-1.59l-5.68-1.97c-.46-1.64-1.1-3.2-1.92-4.65l2.62-5.41c.31-.65,.18-1.42-.33-1.93l-2.93-2.93c-.51-.51-1.28-.64-1.93-.33l-5.44,2.64c-1.43-.8-2.98-1.42-4.59-1.87l-1.99-5.75c-.24-.68-.88-1.13-1.59-1.13h-4.15c-.72,0-1.36,.46-1.59,1.13l-2.02,5.82c-1.56,.45-3.05,1.08-4.44,1.87l-5.57-2.7c-.65-.31-1.42-.18-1.93,.33l-2.93,2.93c-.51,.51-.64,1.28-.32,1.93l2.72,5.62c-.75,1.36-1.34,2.82-1.77,4.35l-5.93,2.06c-.68,.24-1.13,.88-1.13,1.59v4.15c0,.72,.45,1.36,1.13,1.59l5.95,2.06c.43,1.51,1.03,2.96,1.77,4.31l-2.74,5.65c-.31,.65-.18,1.42,.32,1.93l2.93,2.93c.51,.51,1.28,.64,1.93,.32l5.62-2.72c1.37,.77,2.83,1.38,4.37,1.83l2.04,5.88c.24,.68,.88,1.13,1.59,1.13h4.15c.72,0,1.36-.45,1.59-1.13l1.32-3.79-2.46-4.11c-1.27-2.12-.82-4.81,1.07-6.39m-11.83-11.57c0-4.55,3.69-8.24,8.24-8.24s8.24,3.69,8.24,8.24-3.69,8.24-8.24,8.24-8.24-3.69-8.24-8.24"/><path d="M59.27,38.35c-.75-.55-1.79-.45-2.41,.25l-10.54,11.92-6.33-5.49c-.67-.58-1.66-.59-2.33-.02-.68,.57-.84,1.54-.39,2.3l7.67,12.8c.32,.54,.91,.87,1.54,.87h0c.63,0,1.21-.33,1.54-.86l11.72-19.4c.48-.79,.28-1.83-.46-2.38"/></g></g></svg>