<?xml version="1.0" encoding="UTF-8"?><svg id="Laag_1" xmlns="http://www.w3.org/2000/svg" xmlns:xlink="http://www.w3.org/1999/xlink" viewBox="0 0 64 64"><defs><style>.cls-1{fill:none;}.cls-2{clip-path:url(#clippath);}.cls-3{clip-path:url(#clippath-1);}</style><clipPath id="clippath"><rect class="cls-1" width="64" height="64"/></clipPath><clipPath id="clippath-1"><rect class="cls-1" width="64" height="64"/></clipPath></defs><g class="cls-2"><g class="cls-3"><path d="M23,54v-2c0-1.65,1.35-3,3-3h1.74c-.43-3.66-.84-7.87-1.13-12.3,1.34,.82,2.92,1.3,4.62,1.3,4.84,0,8.77-3.86,8.77-8.62,0-1.97-.68-3.78-1.81-5.23,2.17-1.33,3.62-3.7,3.62-6.4,0-3.23-2.06-5.98-4.96-7.06,.02-.23,.03-.45,.03-.68-.06-4.45-4.06-8-8.92-7.93-2.05,.03-3.93,.7-5.41,1.8-1.35-1.17-3.12-1.88-5.06-1.88-4.53,0-8.16,3.87-7.62,8.43-3.41,1.11-5.86,4.26-5.86,7.98,0,2.66,1.26,5.03,3.23,6.58-1.38,1.49-2.23,3.46-2.23,5.63,0,5.39,5.19,9.55,10.75,8.07,1.04-3.09,1.51-7.41-.41-10.52-.12-.2-.07-.34,.06-.4,5.95,4.96,.95,26.71-.87,34.23h11.48l1.9-5h-1.9c-1.65,0-3-1.35-3-3"/><path d="M25,52v2c0,.55,.45,1,1,1h2.66l1.52-4h-4.18c-.55,0-1,.45-1,1"/><path d="M57,51h-4.18l1.52,4h2.66c.55,0,1-.45,1-1v-2c0-.55-.45-1-1-1"/><path d="M53,46c.55,0,1-.45,1-1v-2c0-.55-.45-1-1-1H30c-.55,0-1,.45-1,1v2c0,.55,.45,1,1,1h4.22l-6.08,16h4.28l2.66-7h12.83l2.66,7h4.28l-6.08-16h4.22Zm-16.4,5l1.9-5h6l1.9,5h-9.8Z"/></g></g></svg>