<?xml version="1.0" encoding="UTF-8"?><svg id="Laag_1" xmlns="http://www.w3.org/2000/svg" xmlns:xlink="http://www.w3.org/1999/xlink" viewBox="0 0 64 64"><defs><style>.cls-1{fill:none;}.cls-2{clip-path:url(#clippath);}.cls-3{clip-path:url(#clippath-1);}</style><clipPath id="clippath"><rect class="cls-1" width="64" height="64"/></clipPath><clipPath id="clippath-1"><rect class="cls-1" width="64" height="64"/></clipPath></defs><g class="cls-2"><polygon points="47 36 38 36 38 45 29 45 29 54 20 54 20 58 33 58 33 49 42 49 42 40 51 40 51 31 59 31 59 27 47 27 47 36"/><g class="cls-3"><path d="M8.52,42.64c-2.27,2.27-3.52,5.28-3.52,8.49v6.87h4v-6.87c0-2.14,.83-4.15,2.34-5.66l3.46-3.46c-2.19-.17-3.81-.44-4.96-.7l-1.34,1.33Z"/><path d="M50.14,6c-3.21,0-6.22,1.25-8.48,3.51l-9.34,9.33c1.55,.15,2.76,.99,3.39,2.27l8.78-8.77c1.51-1.51,3.52-2.34,5.66-2.34h8.86V6h-8.86Z"/><path d="M7,37.2c0,.85,1.45,1.4,1.45,1.4,0,0,2.88,1.4,11.55,1.4s11.55-1.4,11.55-1.4c0,0,1.45-.55,1.45-1.4,0-.43,0-4.19-2.88-4.2H9.88c-2.88,.01-2.88,3.77-2.88,4.2"/><path d="M11.07,25.95c-.08,2.82-.07,5.05-.07,5.05H29s0-2.23-.07-5.05c4.56-.56,5.07-.88,5.07-2.69,0-1.25-.67-2.26-2.18-2.26h-3.12c-.12-1.69-.29-3.29-.53-4.48-.38-1.94-1.78-3.5-3.38-3.93-1.22-.32-2.82-.59-4.79-.59s-3.57,.27-4.79,.59c-1.6,.42-2.99,1.99-3.38,3.93-.24,1.19-.4,2.79-.53,4.48h-3.12c-1.51,0-2.18,1.01-2.18,2.26,0,1.81,.61,2.15,5.07,2.7"/></g></g></svg>