<?xml version="1.0" encoding="UTF-8"?><svg id="Laag_1" xmlns="http://www.w3.org/2000/svg" xmlns:xlink="http://www.w3.org/1999/xlink" viewBox="0 0 64 64"><defs><style>.cls-1{fill:none;}.cls-2{clip-path:url(#clippath);}.cls-3{clip-path:url(#clippath-1);}</style><clipPath id="clippath"><rect class="cls-1" width="64" height="64"/></clipPath><clipPath id="clippath-1"><rect class="cls-1" width="64" height="64"/></clipPath></defs><g class="cls-2"><g class="cls-3"><path d="M53.4,49c-.45,1.01-.91,1.61-1.4,2.26v.74h11v-3h-9.6Z"/><path d="M53.98,26.91c0-2.22-.09-3.04,.24-4.68,1.22-6.01,2.87-15.07,3.19-16.74,.36-1.86-.64-2.83-2.06-3.16h0c-1.43-.33-2.86,.52-3.24,1.93,0,0-4.62,17.3-4.72,17.69-.1,.38-.32,.7-.71,.7s-.6-.31-.71-.7c-.1-.37-4.52-17.73-4.52-17.73-.39-1.41-1.83-2.26-3.25-1.93h0c-1.42,.33-2.33,1.73-2.06,3.17l3.07,15.24c-.9-1.26-2.15-1.63-3.65-1.36-1.07,.2-2.71,1.43-3.53,2.42-.63,.76-.96,1.48-1.14,2.27-.51-.21-1.03-.31-1.54-.26-1.81,.16-3.32,2.64-3.82,4.16-.78,2.34,.35,5.59,1.3,7.65,.83,1.79,2.51,2.87,6.67,1.97,.04,.11,0,.3-.26,.55-.24,.23-1.74,1.15-3.62,1.31,0,6.25,2.95,10.21,3.51,11.17v11.41h16.64v-11.41s4.22-5.28,4.22-12.84v-10.84Zm-5.61,3.48c-.3,.25-.7,.31-1.09,.16-.07-.03-6.37-2.36-10.23-3.53-.55-.17-1.12-.02-1.52,.4-.39,.41-.52,.96-.34,1.49,1.33,3.88,7.19,6.53,10.69,8.11l.51,.23-.46,.25c-.16,.07-.34,.15-.52,.22-1.78,.75-4.48,1.88-6.15,5.73l-.08,.18-.19-.03c-.21-.03-.33-.31-.32-.55,.06-1.49,1.02-3.87,2.73-5.63-4.58-2.33-7.38-4.95-8.35-7.78-.46-1.34-.14-2.75,.85-3.78,.98-1.02,2.43-1.4,3.78-.99,3.73,1.13,9.67,3.32,10.34,3.56,.41,.15,.67,.46,.74,.84,.07,.41-.09,.85-.41,1.11"/><path d="M20.43,49l2.57-6h-3l-3.64,6.44c-.06-.01-.26-.07-.19-.4,.03-.13,.37-1.13,.78-2.31-.15-.22-.35-.4-.62-.51-.76-.33-1.64,.02-1.97,.77-.15-.34-.41-.62-.78-.77-.76-.33-1.64,.02-1.97,.78l-.14,.33-2.48-4.34h-3l2.57,6H1v3h7.57l-2.57,6h3l4.15-7.31c.06,0,.26,.07,.19,.4-.03,.15-.53,1.6-1.05,3.08,.3,.31,.68,.46,1.07,.46,.74,0,1.17-.43,1.46-1.1,.19,.67,.78,1.1,1.44,1.1,.56,0,1.08-.32,1.34-.84l2.41,4.21h3l-2.57-6h10.5v-.74c-.46-.65-.99-1.42-1.31-2.26h-9.19Z"/></g></g></svg>