<?xml version="1.0" encoding="UTF-8"?><svg id="Laag_1" xmlns="http://www.w3.org/2000/svg" xmlns:xlink="http://www.w3.org/1999/xlink" viewBox="0 0 64 64"><defs><style>.cls-1{fill:none;}.cls-2{clip-path:url(#clippath);}.cls-3{clip-path:url(#clippath-1);}</style><clipPath id="clippath"><rect class="cls-1" width="64" height="64"/></clipPath><clipPath id="clippath-1"><rect class="cls-1" width="64" height="64"/></clipPath></defs><g class="cls-2"><g class="cls-3"><path d="M22.75,30.01c-.31,0-.58,0-.87,.02v-2.13h5.11v-2.9h-7.97v7.92c.94-.1,1.82-.19,2.82-.19,1.61,0,2.41,.53,2.43,1.45,.04,2.05-3.52,1.91-5.25,1.91v2.78h1.88c3.92,0,6.66-1.93,6.66-4.98,0-2.61-1.85-3.88-4.82-3.88m25.22,1.79c-.44-3.19-1.47-6.18-2.96-8.85l3.1-3.1c.78-.78,.78-2.05,0-2.83l-7.07-7.07c-.78-.78-2.05-.78-2.83,0l-1.64,1.64c1.81,1.81,3.71,4.24,4.18,5.21,.16,.33,.09,.49,.03,.57-4.58-4.57-10.89-7.37-17.78-7.37C10.85,10,1,19.85,1,32s9.85,22,22,22h25.71c1.21,0,2.15-1.07,1.98-2.27l-2.72-19.93Zm-24.97,12.2c-6.63,0-12-5.37-12-12s5.37-12,12-12,12,5.37,12,12-5.37,12-12,12m29.13,2l.55,4h8.33v7h2v-11h-10.87Z"/></g></g></svg>