<?xml version="1.0" encoding="UTF-8"?><svg id="Laag_1" xmlns="http://www.w3.org/2000/svg" xmlns:xlink="http://www.w3.org/1999/xlink" viewBox="0 0 64 64"><defs><style>.cls-1{fill:none;}.cls-2{clip-path:url(#clippath);}.cls-3{clip-path:url(#clippath-1);}</style><clipPath id="clippath"><rect class="cls-1" width="64" height="64"/></clipPath><clipPath id="clippath-1"><rect class="cls-1" width="64" height="64"/></clipPath></defs><g class="cls-2"><g class="cls-3"><path d="M19.37,38h25.27c.75,0,1.37-.61,1.37-1.37V4.37c0-.76-.61-1.37-1.37-1.37h-14.8c-.36,0-.71,.14-.97,.4l-10.47,10.56c-.26,.26-.4,.6-.4,.97v21.71c0,.75,.61,1.37,1.37,1.37m-.25-23h10.15c.38,0,.68-.31,.68-.68V4.12s.17-.08,.25,.16l.8,2.73h11v27H22V16l-2.74-.72c-.23-.08-.15-.28-.15-.28"/><path d="M52.23,40.76c-2.77,.95-6.37,2.41-9.22,3.61,.07,.43,.08,.89,.01,1.38-.41,2.81-2.82,4.58-6.24,4.74-7.73,.36-12.53-1.56-13.53-1.96-.29-.12-.32-.26-.29-.39h.01c5.6,.95,9.12,1.11,13.46,.41,3.29-.53,4.49-2.11,4.46-3.41-.03-1.27-.93-2.04-2.95-2.11-6.89-.24-10.92-1.01-16.82-1.87-4.1-.6-8.06,.47-11.43,2.63-3.16,2.03-4.04,2.98-4.04,2.98l5.79,11.14,7.48-3.04c.85-.35,1.78-.45,2.69-.3l10.26,2.28c2.29,.38,4.64-.06,6.64-1.22l20.48-12.85s-1-4.02-6.76-2.04"/><polygon points="31.87 26.12 37.66 20.33 40 22.67 40 16 33.33 16 35.54 18.21 31.87 21.88 28.87 18.88 24 23.75 24 27.99 28.87 23.12 31.87 26.12"/></g></g></svg>