<?xml version="1.0" encoding="UTF-8"?><svg id="Laag_1" xmlns="http://www.w3.org/2000/svg" xmlns:xlink="http://www.w3.org/1999/xlink" viewBox="0 0 64 64"><defs><style>.cls-1{fill:none;}.cls-2{clip-path:url(#clippath);}.cls-3{clip-path:url(#clippath-1);}</style><clipPath id="clippath"><rect class="cls-1" width="64" height="64"/></clipPath><clipPath id="clippath-1"><rect class="cls-1" width="64" height="64"/></clipPath></defs><g class="cls-2"><g class="cls-3"><path d="M52,12c0-5.25-10.06-8-20-8S12,6.75,12,12c0,1.63,.97,3.01,2.59,4.15l5.41,37.85c0,2.76,5.37,5,12,5s12-2.24,12-5l5.41-37.85c1.63-1.14,2.59-2.52,2.59-4.15m-20-5c10.38,0,17,2.96,17,5s-6.62,5-17,5-17-2.96-17-5,6.62-5,17-5m3.57,35.25c-4.24,2.02-7.93-.85-9.7-4.58-1.78-3.73-1.67-8.4,2.57-10.42,4.24-2.02,7.93,.85,9.7,4.58,1.78,3.73,1.67,8.4-2.57,10.42"/><path d="M35.47,38.7c-1.55-.94-2.41-1.71-2.28-3.45,.22-2.95-.99-5.25-3.93-5.82-.62-.12-1.06,.74-.43,1.21,2.43,1.87,1.94,2.05,2.01,4.69,.09,2.92,2.03,4.48,4.34,4.59h.03c.65,0,.8-.85,.27-1.23"/></g></g></svg>