<?xml version="1.0" encoding="UTF-8"?><svg id="_01" xmlns="http://www.w3.org/2000/svg" xmlns:xlink="http://www.w3.org/1999/xlink" viewBox="0 0 64 64"><metadata><?xpacket begin="﻿" id="W5M0MpCehiHzreSzNTczkc9d"?>
<x:xmpmeta xmlns:x="adobe:ns:meta/" x:xmptk="Adobe XMP Core 9.1-c001 79.a8d4753, 2023/03/23-08:56:37        ">
   <rdf:RDF xmlns:rdf="http://www.w3.org/1999/02/22-rdf-syntax-ns#">
      <rdf:Description rdf:about=""
            xmlns:dc="http://purl.org/dc/elements/1.1/"
            xmlns:xmp="http://ns.adobe.com/xap/1.0/"
            xmlns:xmpMM="http://ns.adobe.com/xap/1.0/mm/"
            xmlns:stEvt="http://ns.adobe.com/xap/1.0/sType/ResourceEvent#">
         <dc:creator>
            <rdf:Seq/>
         </dc:creator>
         <xmp:MetadataDate>2023-12-05T09:25:16+01:00</xmp:MetadataDate>
         <xmpMM:InstanceID>xmp.iid:5996664e-23e3-4178-b38d-c071a4b56ef3</xmpMM:InstanceID>
         <xmpMM:DocumentID>xmp.did:5996664e-23e3-4178-b38d-c071a4b56ef3</xmpMM:DocumentID>
         <xmpMM:OriginalDocumentID>xmp.did:5996664e-23e3-4178-b38d-c071a4b56ef3</xmpMM:OriginalDocumentID>
         <xmpMM:History>
            <rdf:Seq>
               <rdf:li>
                  <rdf:Description>
                     <stEvt:action>saved</stEvt:action>
                     <stEvt:instanceID>xmp.iid:5996664e-23e3-4178-b38d-c071a4b56ef3</stEvt:instanceID>
                     <stEvt:when>2023-12-05T09:25:16+01:00</stEvt:when>
                     <stEvt:softwareAgent>Adobe Bridge 2024</stEvt:softwareAgent>
                     <stEvt:changed>/metadata</stEvt:changed>
                  </rdf:Description>
               </rdf:li>
            </rdf:Seq>
         </xmpMM:History>
      </rdf:Description>
   </rdf:RDF>
</x:xmpmeta>
                                                                                                    
                                                                                                    
                                                                                                    
                                                                                                    
                                                                                                    
                                                                                                    
                                                                                                    
                                                                                                    
                                                                                                    
                                                                                                    
                                                                                                    
                                                                                                    
                                                                                                    
                                                                                                    
                                                                                                    
                                                                                                    
                                                                                                    
                                                                                                    
                                                                                                    
                                                                                                    
                           
<?xpacket end="w"?></metadata>
<defs><style>.cls-1{clip-path:url(#clippath);}.cls-2{fill:none;}.cls-2,.cls-3{stroke-width:0px;}.cls-3{fill:#000001;}</style><clipPath id="clippath"><rect class="cls-2" width="64" height="64"/></clipPath></defs><g class="cls-1"><path class="cls-3" d="m17.04,46.14c-2.47-2.68-3.85-6.31-3.86-10.22-.04-9.87,5.2-20.88,12.79-20.92h.04c7.57,0,12.89,10.95,12.94,20.8,0,.08,0,.16,0,.24.44-.2.91-.36,1.4-.44.49-.08,1.03-.15,1.59-.21-.1-5.57-1.66-11.29-4.34-15.68,1.72-1.08,3.5-1.72,5.23-1.72.81,0,1.61.14,2.38.43,3.65,1.4,4.84,5.61,5.22,8,.42,2.64.3,5.65-.28,8.58.3,0,.6,0,.88,0,.68,0,1.42,0,2.19.02.56-3.09.63-6.22.18-9.07-.84-5.22-3.36-8.89-7.11-10.32-3.4-1.3-7.05-.48-10.4,1.65-1.78-2.18-3.9-3.83-6.28-4.67-1.33-.47-3.99-1.1-7.11-.02-7.53,2.59-12.34,13.29-12.3,23.34.02,4.66,1.68,9.01,4.66,12.24,2.98,3.23,6.97,5.01,11.23,5.01h.07c3.22-.01,6.27-1.04,8.85-2.94,0,0,.01,0,.02,0,0-1.28.03-2.69.09-4.12-2.39,2.6-5.57,4.04-8.97,4.05-3.46,0-6.66-1.42-9.08-4.04Z"/><path class="cls-3" d="m63.44,40.83c-.19-1.17-1.09-2.07-2.26-2.26-3.39-.57-9.04-.57-10.17-.57s-6.78,0-10.17.57c-1.17.2-2.07,1.09-2.26,2.26-.57,3.39-.57,9.04-.57,10.17s0,6.78.57,10.17c.2,1.17,1.09,2.07,2.26,2.26,3.39.57,9.04.57,10.17.57s6.78,0,10.17-.57c1.17-.2,2.07-1.09,2.26-2.26.56-3.39.56-9.04.56-10.17,0-3.39,0-6.78-.56-10.17Zm-4.44,11.67c0,.28-.22.5-.5.5h-5.5v5.5c0,.28-.22.5-.5.5h-3c-.28,0-.5-.22-.5-.5v-5.5h-5.5c-.28,0-.5-.22-.5-.5v-3c0-.28.22-.5.5-.5h5.5v-5.5c0-.28.22-.5.5-.5h3c.28,0,.5.22.5.5v5.5h5.5c.28,0,.5.22.5.5v3Z"/></g></svg>