<?xml version="1.0" encoding="UTF-8"?><svg id="Laag_1" xmlns="http://www.w3.org/2000/svg" viewBox="0 0 64 64"><defs><style>.cls-1{fill:none;}</style></defs><rect class="cls-1" width="64" height="64"/><g><path d="m25.67,13.81c.71.88.9,1.45.77,2.58-.07.68-.25,1.83-.36,2.94-.21,1.54-1.03,6.12-.17,8.14.46,1.06,2.81,4.52,5.24,3.3,0,0-1.72-2.5-2.07-3.46-.35-.96.12-4.4.12-4.4,0,0,1.06,4.24,1.92,5.14.91.96,3.37,2.06,4.78,2.27,1.82.27,2.25-1.15,2.25-1.15,0,0-3.84-1.75-4.35-2.76-.64-1.28-1.33-3.61-.12-9.18.09-.39.42-.91.77-1.11,1.63-.89,3.04-1.28,4.59-2.46,1.46-1.11,2.73-2.35,1.81-3.93,0,0-1.56,1.3-3.69,2.41-3.09,1.61-4.85,1.65-6.19,1.41-2.77-.5-3.97-1.82-5.56-3.98-.64-.87-1.25-1.82-1.78-2.77-.9.27-1.04,1.36-.76,2.55.2.83,1.64,3.04,2.79,4.46Z"/><path d="m31.07,12.13c1.57.36,2.69-.4,3.09-2.11.37-1.62-.23-2.96-1.84-3.33-1.53-.35-2.69.4-3.11,2.2-.36,1.58.29,2.88,1.86,3.24Z"/><path d="m24.72,37.83c.92,0,1.84.2,2.69.57,1.23-1.09,2.81-1.7,4.5-1.7s3.27.62,4.5,1.7c.85-.37,1.76-.57,2.69-.57,1.41,0,2.71.43,3.8,1.16.4-4.01,1.04-9.32,1.99-14.45-3.25-.49-6.52-.8-9.8-.92.1.93.31,1.46.46,1.76.91.86,4.28,2.35,5.04,2.7l-.5,1.67c-.38,1.26-1.7,2.61-3.73,2.61-.89,0-1.87-.28-2.72-.6-1.52.77-2.27,1.26-3.53,1.26-3.25,0-5.49-3.53-6.02-4.77-.49-1.15-.59-2.67-.52-4.3-1.54.15-3.07.35-4.61.59.94,5.13,1.58,10.44,1.98,14.45,1.08-.73,2.39-1.15,3.79-1.15Z"/><path d="m59.26,14.34c-.76-.09-1.51.44-2.07,1.34-.43-.17-.9-.32-1.4-.45-.31-1.1-.94-1.88-1.75-1.98-.81-.1-1.61.5-2.18,1.5-.45,0-.89.03-1.3.08-.33-.98-.92-1.66-1.68-1.75-1.34-.16-2.66,1.58-2.95,3.9-.27,2.2.5,4.11,1.73,4.44-1.36,6.25-2.22,13.34-2.71,18.27-.27,2.71,1.31,5.15,3.69,6.11-.03.08-.08.13-.18.12-.81-.04-1.7-.28-2.49-.7-.88-.47-1.63-1.15-2.18-1.98-.39-.58-.37-.73-.71-1.24-.86-1.3-2.34-2.16-4.02-2.16-1.18,0-2.26.44-3.1,1.15-.85-1.37-2.36-2.29-4.09-2.29s-3.24.92-4.09,2.29c-.84-.71-1.91-1.15-3.1-1.15-1.68,0-3.14.86-4,2.16-.28.42-.39.74-.66,1.15-.57.9-1.38,1.64-2.34,2.12-.76.39-1.64.61-2.38.65-.1,0-.15-.05-.18-.12,2.38-.97,3.96-3.41,3.69-6.11-.49-4.94-1.35-12.03-2.71-18.28,1.21-.35,1.97-2.24,1.7-4.43-.28-2.32-1.6-4.06-2.95-3.9-.75.09-1.34.77-1.68,1.75-.41-.05-.84-.08-1.3-.08-.57-.99-1.37-1.6-2.18-1.5-.81.1-1.44.87-1.75,1.98-.5.13-.97.28-1.4.45-.56-.89-1.31-1.43-2.07-1.34-1.34.16-2.21,2.18-1.92,4.49.27,2.21,1.48,3.87,2.75,3.89.39,5.54,1.13,13.57,2.44,21.43-1.44,1.19-2.34,2.97-2.34,4.93,0,4.2,2.65,8.72,25.85,8.87,24.02.15,26.97-4.67,26.97-8.87,0-1.92-.87-3.66-2.26-4.86,1.31-7.88,2.05-15.96,2.45-21.51,1.26-.05,2.45-1.7,2.72-3.89.28-2.32-.58-4.33-1.92-4.49Z"/></g></svg>