<?xml version="1.0" encoding="UTF-8"?><svg id="Laag_1" xmlns="http://www.w3.org/2000/svg" xmlns:xlink="http://www.w3.org/1999/xlink" viewBox="0 0 64 64"><defs><style>.cls-1{fill:none;}.cls-2{clip-path:url(#clippath);}.cls-3{clip-path:url(#clippath-1);}</style><clipPath id="clippath"><rect class="cls-1" width="64" height="64"/></clipPath><clipPath id="clippath-1"><rect class="cls-1" width="64" height="64"/></clipPath></defs><g class="cls-2"><g class="cls-3"><path d="M60.88,52.35c-.39-.47-1.05-.58-1.56-.27-.02,.01-2.3,1.39-2.32,1.39v-6.97c0-5.24-4.26-9.5-9.5-9.5s-9.5,4.26-9.5,9.5v14.5h5v-14.5c0-2.48,2.02-4.6,4.5-4.6s4.5,2.12,4.5,4.6v6.97s-2.3-1.38-2.32-1.39c-.52-.31-1.18-.2-1.56,.27-.39,.47-.39,1.16,0,1.62l5.41,6.58c.24,.29,.6,.46,.97,.45,.37,.01,.73-.15,.97-.45l5.41-6.58c.39-.47,.39-1.15,0-1.62"/><path d="M35.62,35.83c1.97-2.2,3.43-4.85,3.93-8.36,1.88-.58,2.26-2.93,2.26-4.4s-.26-2.26-.78-2.5c-.25-.12-.5-.12-.72-.07,.19-3.05,.38-9.1-.9-11.37-1.39-2.48-3.24-3.13-6.47-2.32-2.12-1.12-3.56-2.23-7.26-1.22-2.58,.7-5.39,1.85-6.88,3.76-1.6,2.06-1.29,8.08-1.02,11.17-.24-.06-.52-.08-.8,.06-.53,.24-.78,1.04-.78,2.5s.38,3.82,2.26,4.4c.6,5.03,3.12,7.97,6.22,10.57,.82,.69,2.29,1.05,3.83,1.12,.14,.25,.14,.54-.41,.73-.92,.3-3.8,.73-6.91-.88-.03-.01-.04-.02-.07-.04-2.32,.62-10.32,2.91-12.81,5.53-2.91,3.06-4.05,14.5-4.05,14.5h30.75v-12.5c0-2.77,.92-5.32,2.44-7.39-.17-.05-.33-.09-.47-.13-1.06-.62-1.21-1.82-1.35-3.15"/></g></g></svg>