<?xml version="1.0" encoding="UTF-8"?><svg id="Laag_1" xmlns="http://www.w3.org/2000/svg" xmlns:xlink="http://www.w3.org/1999/xlink" viewBox="0 0 64 64"><defs><style>.cls-1{fill:none;}.cls-2{clip-path:url(#clippath);}.cls-3{clip-path:url(#clippath-1);}</style><clipPath id="clippath"><rect class="cls-1" width="64" height="64"/></clipPath><clipPath id="clippath-1"><rect class="cls-1" width="64" height="64"/></clipPath></defs><g class="cls-2"><g class="cls-3"><path d="M56.04,14.09c-1.89,0-4.11-1.34-4.8-1.85l-1.2-.9-1.2,.9c-.64,.48-2.9,1.85-4.8,1.85s-4.11-1.34-4.8-1.85l-1.2-.9-1.2,.9c-.64,.48-2.9,1.85-4.8,1.85s-4.11-1.34-4.8-1.85l-1.2-.9-1.2,.9c-.64,.48-2.9,1.85-4.8,1.85s-4.11-1.34-4.8-1.85l-1.2-.9-1.2,.9c-.64,.48-2.9,1.85-4.8,1.85-1.02,0-2.12-.39-3.04-.83v4.22c.94,.31,1.98,.52,3.04,.52,2.4,0,4.66-1.08,6-1.86,1.34,.79,3.6,1.86,6,1.86s4.66-1.08,6-1.86c1.34,.79,3.6,1.86,6,1.86s4.66-1.08,6-1.86c1.34,.79,3.6,1.86,6,1.86s4.66-1.08,6-1.86c1.34,.79,3.6,1.86,6,1.86,1.03,0,2.04-.2,2.96-.49v-4.2c-.9,.42-1.97,.79-2.96,.79"/><path d="M20.04,36c.58,0,1.15-.06,1.71-.17-.19-.74,0-1.54,.55-2.1,.66-.66,1.68-.83,2.52-.42,.08,.04,.99,.49,2.32,1.33-.51-.9-.78-1.5-.81-1.56-.37-.83-.19-1.81,.45-2.45,.15-.15,.32-.27,.5-.37-.01,0-.03-.02-.04-.03l-1.2-.9-1.2,.9c-.64,.48-2.9,1.85-4.8,1.85s-4.11-1.34-4.8-1.85l-1.2-.9-1.2,.9c-.64,.48-2.9,1.85-4.8,1.85-1.02,0-2.12-.39-3.04-.83v4.22c.94,.31,1.98,.52,3.04,.52,2.4,0,4.66-1.08,6-1.86,1.34,.79,3.6,1.86,6,1.86"/><path d="M51.24,30.24l-1.2-.9-1.2,.9c-.25,.18-.73,.5-1.34,.82,.72,.23,1.49,.44,2.28,.6,.76,.15,1.39,.69,1.65,1.42,.2,.58,.15,1.2-.12,1.73,1.3,.62,2.98,1.19,4.73,1.19,1.03,0,2.04-.2,2.96-.49v-4.2c-.9,.42-1.97,.79-2.96,.79-1.89,0-4.11-1.34-4.8-1.85"/><path d="M51.24,21.24l-1.2-.9-1.2,.9c-.64,.48-2.9,1.85-4.8,1.85-1.56,0-3.33-.91-4.3-1.51,0,.02,.01,.03,.02,.05,.37,1.88,1,3.57,1.67,4.98,.82,.23,1.71,.39,2.61,.39,2.4,0,4.66-1.08,6-1.86,1.34,.79,3.6,1.86,6,1.86,1.03,0,2.04-.2,2.96-.49v-4.2c-.9,.42-1.97,.79-2.96,.79-1.89,0-4.11-1.34-4.8-1.85"/><path d="M14.04,25.14c1.34,.79,3.6,1.86,6,1.86s4.66-1.08,6-1.86c1.34,.79,3.6,1.86,6,1.86,.28,0,.55-.02,.82-.04,.23-1.74,.81-3.22,1.51-4.38-.75,.29-1.56,.52-2.33,.52-1.89,0-4.11-1.34-4.8-1.85l-1.2-.9-1.2,.9c-.64,.48-2.9,1.85-4.8,1.85s-4.11-1.34-4.8-1.85l-1.2-.9-1.2,.9c-.64,.48-2.89,1.85-4.8,1.85-1.02,0-2.12-.39-3.04-.83v4.22c.94,.31,1.98,.52,3.04,.52,2.4,0,4.66-1.08,6-1.86"/><path d="M37.61,22.06s-4.62,3.87-1.7,11.06l-2.41,2.41c-2.66-2.22-5.15-3.33-5.15-3.33,0,0,1.11,2.49,3.33,5.15l-1.95,1.95c-3.03-2.62-5.86-4.01-5.86-4.01,0,0,1.39,2.83,4.01,5.86l-1.93,1.93c-3.45-3.08-6.66-4.78-6.66-4.78,0,0,1.71,3.21,4.78,6.66l-2.85,2.85c-3.2-3.4-5.26-6.24-5.26-6.24-6.08,10.11-.4,18.15-.4,18.15,9.1,1.18,15.29-3.81,15.29-3.81,0,0-3.9-2.56-7.24-5.68l2.84-2.84c3.64,3.37,7.17,5.25,7.17,5.25,0,0-1.88-3.53-5.25-7.17l1.88-1.88c3.22,2.92,6.38,4.47,6.38,4.47,0,0-1.55-3.16-4.47-6.38l1.89-1.89c2.85,2.52,5.68,3.78,5.68,3.78,0,0-1.26-2.83-3.78-5.67l2.37-2.37c7.19,2.92,11.06-1.7,11.06-1.7-3.57-.7-6.49-2.22-8.36-3.4-1.18-1.87-2.7-4.79-3.4-8.36m-17.13,30.19h-1.23v1.23c0,.41-.34,.75-.75,.75s-.75-.34-.75-.75v-1.23h-1.22c-.41,0-.75-.34-.75-.75s.34-.75,.75-.75h1.22v-1.22c0-.41,.34-.75,.75-.75s.75,.34,.75,.75v1.22h1.23c.41,0,.75,.34,.75,.75s-.34,.75-.75,.75"/></g></g></svg>