<?xml version="1.0" encoding="UTF-8"?><svg id="Laag_1" xmlns="http://www.w3.org/2000/svg" xmlns:xlink="http://www.w3.org/1999/xlink" viewBox="0 0 64 64"><defs><style>.cls-1{fill:none;}.cls-2{clip-path:url(#clippath);}.cls-3{clip-path:url(#clippath-1);}</style><clipPath id="clippath"><rect class="cls-1" width="64" height="64"/></clipPath><clipPath id="clippath-1"><rect class="cls-1" width="64" height="64"/></clipPath></defs><g class="cls-2"><g class="cls-3"><path d="M26.42,28.95c-.44-.68-1.35-.88-2.04-.44-.68,.44-.88,1.35-.44,2.04l.59,.91,2.47-1.61-.59-.91Z"/><path d="M29.53,26.94c-.44-.68-1.35-.88-2.04-.44-.68,.44-.88,1.35-.44,2.04l.59,.9,2.47-1.6-.58-.9Z"/><path d="M32.64,24.93c-.44-.68-1.35-.88-2.04-.44-.68,.44-.88,1.35-.44,2.04l.58,.9,2.47-1.6-.58-.89Z"/><path d="M48.02,12.34c-.84-.54-1.39-.51-1.54,.16-.34,1.5-1.45,4.64-2.91,6.87,3.44,4.85,2.01,5.02,2.01,5.02-1.07-1.65-2.27-3.08-2.92-3.81-.32,.35-.64,.65-.98,.86L13.95,39.39c.11,.42,.33,.89,.64,1.37,.31,.47,.65,.86,.98,1.14l3.85-2.49c-.11,1.58,.26,3.2,1.19,4.62,2.27,3.47,6.96,4.46,10.43,2.19l12.65-8.18c3.47-2.27,4.46-6.96,2.19-10.43-.38-.58-1.33-1.53-1.33-1.53,3.48-2.25,8.1-1.2,10.21-.76,.67,.14,.92-.35,.78-1.34-.08-.53-.96-3.16-3-6.3s-4.07-5.03-4.52-5.32m-16.46,29.97l-2.19,1.42c-2.1,1.37-4.91,.74-6.26-1.32-1.36-2.08-.76-4.9,1.31-6.26l2.22-1.44,4.91,7.59Zm3.1-2.02l-.63,.41-4.91-7.59,.63-.41,4.91,7.58Zm3.11-2l-.63,.41-4.91-7.59,.64-.41,4.91,7.59Zm4.27-2.79l-1.8,1.18-4.9-7.58,2.17-1.4c2.05-1.05,4.6-.38,5.85,1.55,1.36,2.08,.76,4.9-1.31,6.26"/><path d="M13.1,39.94c-.27,.09-2.43,.86-3.48,.65-.33-.07-.76,.91,.59,3,1.35,2.09,2.42,2.1,2.5,1.77,.23-1.04,1.82-2.7,2.01-2.91h0c-.33-.28-.68-.67-.99-1.14-.31-.48-.52-.95-.64-1.37h0"/></g></g></svg>