<?xml version="1.0" encoding="UTF-8"?><svg id="Laag_1" xmlns="http://www.w3.org/2000/svg" xmlns:xlink="http://www.w3.org/1999/xlink" viewBox="0 0 64 64"><defs><style>.cls-1{fill:none;}.cls-2{clip-path:url(#clippath);}.cls-3{clip-path:url(#clippath-1);}</style><clipPath id="clippath"><rect class="cls-1" width="64" height="64"/></clipPath><clipPath id="clippath-1"><rect class="cls-1" width="64" height="64"/></clipPath></defs><g class="cls-2"><g class="cls-3"><path d="M35,33.28c-.32,.24-.49-.01-.49-.01,0,0,6.11-8.05,6.87-9.6,1.58-3.2-.41-5.46-1.33-6.66-.67-.87-1.98-2.6-2.64-3.47-1.27,.32-3.03,.55-5.4,.55s-4.14-.23-5.4-.55c-.66,.87-1.97,2.6-2.64,3.47-.92,1.2-2.89,3.45-1.33,6.66,.76,1.57,.89,1.81,1.07,2.14,1.16,2.1-1.69,4.29-1.69,10.19,.07,5.75,.26,15.35,.5,18.82,.22,3.18,3.5,4.18,9.5,4.18s9.28-1,9.5-4.18c.24-3.47,.43-13.07,.5-18.82,0-3.27-.88-5.4-1.46-7l-5.54,4.29Z"/><path d="M37.54,6.65c-.19-.97-1.02-1.65-1.98-1.65h-7.12c-.96,0-1.79,.69-1.98,1.65-.27,1.4-.4,2.98-.46,4.35,0,.61,2.69,1,6,1s6-.39,6-1c-.06-1.36-.19-2.95-.46-4.35"/></g></g></svg>