<?xml version="1.0" encoding="UTF-8"?><svg id="Laag_1" xmlns="http://www.w3.org/2000/svg" xmlns:xlink="http://www.w3.org/1999/xlink" viewBox="0 0 64 64"><defs><style>.cls-1{fill:none;}.cls-2{clip-path:url(#clippath);}.cls-3{clip-path:url(#clippath-1);}</style><clipPath id="clippath"><rect class="cls-1" width="64" height="64"/></clipPath><clipPath id="clippath-1"><rect class="cls-1" width="64" height="64"/></clipPath></defs><g class="cls-2"><g class="cls-3"><path d="M31.5,11.98c3.14,0,4.95-2.21,4.95-5.39,0-3.62-1.9-5.57-4.95-5.57-3.22,0-4.95,2.3-4.95,5.57,0,3.45,1.82,5.39,4.95,5.39"/><path d="M43.69,32.89c-.69-3.8-1.54-5.87-1.85-8.51-.69-5.84-2.42-8.65-5.64-9.67-1.54-.49-3-.71-4.67-.71h-.06c-1.67,0-3.13,.22-4.67,.71-3.22,1.02-4.96,3.83-5.65,9.67-.31,2.64-1.16,4.72-1.85,8.51-.56,3.09,1.1,4.78,2.46,4.96,3.12-10.08,2.89-14.46,3.67-16.72,.14-.41,.49-1.03,.49-1.03-.66,2.77-.24,4.07,.09,5.47,.35,1.49,.43,3.05,.05,4.53-.72,2.8-3.02,6.47-3.02,15.4,0,0,2.3,.62,5.99,.3,.12,.2,.07,.46-.24,.68-.27,.19-1.1,.58-2.75,.63l.59,15.89s3.64-.57,3.89-4.24c0,0,.31-9,.45-13.19,.19-.03,.37-.06,.56-.09,.16-.03,.32-.05,.48-.08,.14,4.1,.45,13.26,.45,13.26,.19,3.78,3.9,4.35,3.9,4.35l.66-17.68c1.72,.17,2.93,.46,2.93,.46,0-8.93-2.3-12.88-3.02-15.68-.38-1.49-.3-3.04,.05-4.53,.33-1.4,.75-2.7,.09-5.47,0,0,.35,.63,.49,1.03,.77,2.26,.55,6.64,3.67,16.72,1.36-.18,3.02-1.87,2.46-4.96"/></g></g></svg>