<?xml version="1.0" encoding="UTF-8"?><svg id="Laag_1" xmlns="http://www.w3.org/2000/svg" xmlns:xlink="http://www.w3.org/1999/xlink" viewBox="0 0 64 64"><defs><style>.cls-1{fill:none;}.cls-2{clip-path:url(#clippath);}.cls-3{clip-path:url(#clippath-1);}</style><clipPath id="clippath"><rect class="cls-1" width="64" height="64"/></clipPath><clipPath id="clippath-1"><rect class="cls-1" width="64" height="64"/></clipPath></defs><g class="cls-2"><g class="cls-3"><path d="M12.3,31.25c4.51,1.88,7.7-.38,7.7-.38,0,0-.31-5.79-5.07-7.29-3.37-1.06-6.02-.44-7.28,.01-.48,.17-.75,.68-.6,1.17,.47,1.59,1.85,5.05,5.26,6.48"/><path d="M39,38H11c-.55,0-1,.45-1,1v3c0,.55,.45,1,1,1h1.45l3.16,18.17c.08,.48,.5,.83,.98,.83h16.81c.49,0,.9-.35,.99-.83l3.16-18.17h1.45c.55,0,1-.45,1-1v-3c0-.55-.45-1-1-1"/><path d="M28.34,12.96c.3-.25,.47-.16,.55-.1-4.3,6.9-7.12,14.87-6.71,23.14h4.29c-.59-4.29-.3-8.49,.71-12.22,9.43,1.02,15.79-11.96,11.19-22.2-.3-.68-1.23-.79-1.7-.21-7.93,9.69-13.66,4.74-17,12-1.24,2.7-.59,6.18,1.9,8.32,2.14-4.03,4.81-7.1,6.77-8.73"/><path d="M58.78,52.25l-8.56-11.64c-.28-.39-.74-.62-1.22-.62h-5.32c-.22,.02-.42,.09-.59,.21-.17,.12-.29,.3-.36,.5l-1.6,5.08c-.14,.46-.06,.96,.23,1.35l8.56,11.64c.33,.45,.99,.52,1.43,.19l7.18-5.28c.45-.33,.57-.98,.25-1.42m-11.88-7.04c-.68,.49-1.62,.35-2.12-.32-.5-.67-.35-1.62,.32-2.12,.68-.49,1.63-.35,2.12,.33,.49,.67,.34,1.61-.32,2.11"/></g></g></svg>