<?xml version="1.0" encoding="UTF-8"?><svg id="Laag_1" xmlns="http://www.w3.org/2000/svg" xmlns:xlink="http://www.w3.org/1999/xlink" viewBox="0 0 64 64"><defs><style>.cls-1{fill:none;}.cls-2{clip-path:url(#clippath);}.cls-3{clip-path:url(#clippath-1);}</style><clipPath id="clippath"><rect class="cls-1" width="64" height="64"/></clipPath><clipPath id="clippath-1"><rect class="cls-1" width="64" height="64"/></clipPath></defs><g class="cls-2"><rect x="20" y="15" width="24" height="5"/><rect x="20" y="41" width="24" height="3"/><rect x="20" y="46" width="18" height="3"/><rect x="20" y="24" width="10" height="3"/><rect x="20" y="29" width="10" height="3"/><rect x="20" y="34" width="10" height="3"/><rect x="33" y="24" width="11" height="13"/><g class="cls-3"><path d="M50,7H14c-1.1,0-2,.9-2,2V55c0,1.1,.9,2,2,2H50c1.1,0,2-.9,2-2V9c0-1.1-.9-2-2-2m-3,45H17V12h30V52Z"/></g></g></svg>