<?xml version="1.0" encoding="UTF-8"?><svg id="Laag_1" xmlns="http://www.w3.org/2000/svg" xmlns:xlink="http://www.w3.org/1999/xlink" viewBox="0 0 64 64"><defs><style>.cls-1{fill:none;}.cls-2{clip-path:url(#clippath);}.cls-3{clip-path:url(#clippath-1);}</style><clipPath id="clippath"><rect class="cls-1" width="64" height="64"/></clipPath><clipPath id="clippath-1"><rect class="cls-1" width="64" height="64"/></clipPath></defs><g class="cls-2"><g class="cls-3"><path d="M60.97,10.4l-5.12-1.81,.05-5.43c0-.81-.91-1.3-1.57-.83l-5.92,4.15c-.79,.56-1.27,1.46-1.28,2.43l-.03,3.37L23.61,28.75c-.7-.99-.46-2.37,.54-3.06l5.89-4.13c-1.44-.98-3.17-1.56-5.04-1.56-4.97,0-9,4.03-9,9s4.03,9,9,9,9-4.03,9-9c0-.84-.12-1.64-.33-2.41l5.92-4.15c.9,2,1.41,4.22,1.41,6.55,0,8.84-7.16,16-16,16s-16-7.16-16-16S16.16,13,25,13c4.26,0,8.12,1.68,10.98,4.4l5.83-4.08c-4.2-4.5-10.17-7.32-16.81-7.32C12.3,6,2,16.3,2,29c0,6.48,2.68,12.33,7,16.51l-4.72,10.23c-.69,1.51,.16,2.69,1.66,3.38,1.51,.69,3.09,.64,3.79-.87l4.2-9.1c3.29,1.81,7.06,2.84,11.08,2.84s7.79-1.03,11.08-2.84l4.2,9.1c.69,1.5,2.28,1.56,3.79,.87,1.51-.69,2.36-1.88,1.66-3.38l-4.72-10.23c4.31-4.18,7-10.03,7-16.51,0-3.83-.94-7.44-2.6-10.62l3.99-2.82,3.18,1.12c.91,.32,1.93,.18,2.72-.37l3-2.1-4.24-1.39c-.3-.14-.23-.34-.2-.39l5.96,.72,1.4-.98c.67-.47,.53-1.49-.24-1.76"/></g></g></svg>