<?xml version="1.0" encoding="UTF-8"?><svg id="Laag_1" xmlns="http://www.w3.org/2000/svg" xmlns:xlink="http://www.w3.org/1999/xlink" viewBox="0 0 64 64"><defs><style>.cls-1{fill:none;}.cls-2{clip-path:url(#clippath);}.cls-3{clip-path:url(#clippath-1);}</style><clipPath id="clippath"><rect class="cls-1" width="64" height="64"/></clipPath><clipPath id="clippath-1"><rect class="cls-1" width="64" height="64"/></clipPath></defs><g class="cls-2"><g class="cls-3"><path d="M25.82,23.9c.49,1.02,.94,2.27,1.36,3.78,.29,1.04,.65,1.84,1.06,2.53,1.74-.77,3.69-1.21,5.76-1.21,4.06,0,7.68,1.65,10.07,4.24,.92-2,1.1-3.55,1.17-7.32,.01-.8,.35-1.55,.9-2.1-1.25-2.56-3.76-4.56-6.87-5.39l4.9-5.35c.71-.77-.1-1.98-1.09-1.61l-4.09,1.53,3.53-5.88c.56-.93-.56-1.96-1.44-1.33l-3.09,2.21-1.02-4.61c-.23-1.04-1.72-1.04-1.95,0l-1.02,4.61-3.09-2.21c-.88-.63-2,.4-1.44,1.33l3.53,5.88-4.09-1.53c-.98-.37-1.8,.84-1.09,1.61l4.9,5.35c-3.14,.84-5.67,2.87-6.9,5.47"/><path d="M31.55,32.45l-1.52-.8c-4.11,1.38-7.03,4.81-7.03,8.85,0,.87,.15,1.7,.4,2.5h12.99c.53-.57,1.04-1.1,1.49-1.57,2.94-3.09,4.07-4.28,5.2-6.29-1.22-1.53-2.95-2.74-4.97-3.45l-1.44,.75,.69,1.54c.13,.29,.06,.63-.17,.85-.23,.22-.58,.27-.86,.12l-2.22-1.17-2.22,1.17c-.29,.15-.63,.1-.86-.12-.23-.22-.3-.56-.17-.85l.69-1.54Z"/><path d="M39.15,43h14.71c3.52-6.94,1.14-11.5-2.42-12.14,.33-2.26,.09-4.7-.12-6.18-.1-.69-.85-1.06-1.47-.73l-2.08,1.13c-.32,.17-.52,.51-.52,.87-.09,5.09-.43,6.61-2.34,10.05-1.3,2.34-2.58,3.66-5.75,7"/><path d="M21.31,43c-.2-.8-.31-1.64-.31-2.5,0-3.86,2.17-7.27,5.47-9.36-.46-.79-.88-1.73-1.21-2.93-1.31-4.7-2.57-5.89-4.26-6.15,.13-.94,.4-2.47,.9-3.95,.22-.65-.12-1.36-.78-1.59-.66-.22-1.36,.12-1.59,.78-.66,1.94-.96,3.93-1.08,4.88-1.42,.44-2.55,1.85-3.71,6.03-1.62,5.81-5.18,5.57-5.7,11.5-.1,1.17,0,2.27,.26,3.29h12.01Z"/><path d="M57,45H7s-6.07,9.36,13,16h24c19.07-6.64,13-16,13-16"/></g></g></svg>