<?xml version="1.0" encoding="UTF-8"?><svg id="Laag_1" xmlns="http://www.w3.org/2000/svg" xmlns:xlink="http://www.w3.org/1999/xlink" viewBox="0 0 64 64"><defs><style>.cls-1{fill:none;}.cls-2{clip-path:url(#clippath);}.cls-3{clip-path:url(#clippath-1);}</style><clipPath id="clippath"><rect class="cls-1" width="64" height="64"/></clipPath><clipPath id="clippath-1"><rect class="cls-1" width="64" height="64"/></clipPath></defs><g class="cls-2"><g class="cls-3"><path d="M60,32c0-2.36-1.38-4.58-3.79-6.49,1.13-2.85,1.22-5.46,.04-7.51-1.18-2.05-3.49-3.28-6.52-3.73-.45-3.03-1.68-5.34-3.72-6.52-2.05-1.18-4.66-1.09-7.51,.04-1.91-2.4-4.12-3.79-6.49-3.79s-4.58,1.38-6.49,3.79c-2.85-1.13-5.46-1.22-7.51-.04-2.05,1.18-3.27,3.49-3.73,6.52-3.03,.45-5.34,1.68-6.52,3.73-1.18,2.05-1.09,4.66,.04,7.51-2.4,1.91-3.79,4.12-3.79,6.49s1.38,4.58,3.79,6.49c-1.13,2.85-1.22,5.46-.04,7.51,1.18,2.05,3.49,3.27,6.52,3.72,.45,3.04,1.68,5.34,3.73,6.52,2.05,1.18,4.66,1.09,7.51-.04,1.91,2.4,4.12,3.79,6.49,3.79s4.58-1.38,6.49-3.79c2.85,1.13,5.46,1.22,7.51,.04,2.05-1.18,3.27-3.49,3.72-6.52,3.03-.45,5.34-1.68,6.52-3.72,1.18-2.05,1.09-4.66-.04-7.51,2.4-1.91,3.79-4.12,3.79-6.49m-28,20.1c-11.1,0-20.1-9-20.1-20.1S20.9,11.9,32,11.9s20.1,9,20.1,20.1-9,20.1-20.1,20.1"/><path d="M32,14c-9.94,0-18,8.06-18,18s8.06,18,18,18,18-8.06,18-18S41.94,14,32,14m10.74,10.62l-11.21,18.56c-.31,.51-.87,.83-1.47,.83h0c-.6,0-1.16-.32-1.47-.84l-7.34-12.25c-.43-.73-.28-1.66,.37-2.2,.65-.54,1.59-.54,2.23,.02l6.06,5.25,10.08-11.4c.59-.66,1.59-.76,2.31-.24,.71,.53,.91,1.51,.45,2.27"/></g></g></svg>