<?xml version="1.0" encoding="UTF-8"?><svg id="Laag_1" xmlns="http://www.w3.org/2000/svg" xmlns:xlink="http://www.w3.org/1999/xlink" viewBox="0 0 64 64"><defs><style>.cls-1{fill:none;}.cls-2{clip-path:url(#clippath);}.cls-3{clip-path:url(#clippath-1);}</style><clipPath id="clippath"><rect class="cls-1" width="64" height="64"/></clipPath><clipPath id="clippath-1"><rect class="cls-1" width="64" height="64"/></clipPath></defs><g class="cls-2"><g class="cls-3"><path d="M19,29h14c3.31,0,6-2.69,6-6v-6c0-7.4-3.44-14-13-14s-13,6.6-13,14v6c0,3.31,2.69,6,6,6"/><path d="M35.18,53.08c-.11-.68-.18-1.37-.18-2.08,0-.47,.03-.94,.08-1.4l-6.08-1.07v-7.61c4.52-.25,7.77-1.04,10-1.85v-7.63c-2.64,.28-7.58,.72-13,.72-6.39,0-12.14-.61-14.19-.85-.47-.06-.84-.43-.87-.9-.16-2.08-.21-4.54-.21-7.37,0-5.28-7.72-5.19-7.72-.7v1.68c0,1.1,.9,2,2,2h3.03c.08,4.59,.37,8.03,1.25,10.42h.02c.33,.76,.92,1.41,1.7,1.8,2.39,1.18,7.09,2.78,15.01,2.78,.33,0,.66,0,.98-.01,0,.06-.05,.19-.3,.31-.41,.2-1.82,.7-3.68,1.18v6.05l-12.35,2.18c-.96,.17-1.65,1-1.65,1.97v.67c-1.18,.56-2,1.76-2,3.15,0,1.93,1.57,3.5,3.5,3.5s3.5-1.57,3.5-3.5c0-1.21-.61-2.28-1.55-2.91l11.1-1.31,.25,1.51c-.79,.64-1.3,1.61-1.3,2.7,0,1.93,1.57,3.5,3.5,3.5s3.5-1.57,3.5-3.5c0-1.09-.51-2.06-1.3-2.7l.25-1.51,6.73,.79Z"/><path d="M55,42.52V8.96c0-3.84-3.12-6.96-6.96-6.96s-7.04,3.15-7.04,7.04V42.53c-2.5,2.07-4,5.18-4,8.47,0,6.07,4.93,11,11,11,5.54,0,10.05-4.04,10.86-9.26,.61-3.93-.88-7.77-3.86-10.22m.35,11.74c-1.08,2.69-3.62,4.3-6.29,4.67-.61,.08-.67-.07-.64-.24,2.92-1.2,4.87-4.02,4.87-7.22,0-2.61-1.3-4.91-3.29-6.33v-6.13h-3v-2h3v-5h-3v-2h3v-5h-3v-2h3v-4.78h-6V9c0-2.21,1.79-4,4-4h.04c2.19,0,3.96,1.77,3.96,3.96V44.08c3.24,1.88,5.05,5.94,3.35,10.18"/></g></g></svg>