<?xml version="1.0" encoding="UTF-8"?><svg id="Laag_1" xmlns="http://www.w3.org/2000/svg" xmlns:xlink="http://www.w3.org/1999/xlink" viewBox="0 0 64 64"><defs><style>.cls-1{fill:none;}.cls-2{clip-path:url(#clippath);}.cls-3{clip-path:url(#clippath-1);}</style><clipPath id="clippath"><rect class="cls-1" width="64" height="64"/></clipPath><clipPath id="clippath-1"><rect class="cls-1" width="64" height="64"/></clipPath></defs><g class="cls-2"><g class="cls-3"><path d="M62.17,19.88c-.84-2.03-3.16-2.99-5.19-2.15-1.36,.57-2.23,1.8-2.4,3.17-.03,.01-.07,0-.1,.02l-8.24,3.45c-1.45-2.73-3.6-4.9-6.14-6.38l1.49-3.54-1.58-.81c-.37-.24-.23-.49-.19-.55,.05,0,.94,.48,2.13,.33,.01,0,.03,0,.05,0h0c1.37-.19,2.6-1.05,3.17-2.42,.84-2.03-.12-4.35-2.15-5.19-2.03-.84-4.35,.12-5.19,2.15-.57,1.37-.3,2.85,.54,3.94-.02,.03-.04,.05-.06,.09l-1.86,4.43c-2.84-.83-5.92-.89-8.91-.06l-2.93-6.99-1.69,.55c-.43,.09-.51-.18-.52-.26,.04-.03,1-.33,1.74-1.27,.01-.01,.02-.03,.03-.04h0c.84-1.1,1.1-2.59,.54-3.95-.84-2.03-3.17-2.99-5.19-2.15-2.03,.84-2.99,3.16-2.15,5.19,.56,1.36,1.8,2.23,3.17,2.4,.01,.03,0,.07,.02,.1l3.33,7.95c-2.76,1.57-4.92,3.87-6.33,6.55l-4.07-1.63-.77,1.6c-.23,.37-.48,.25-.55,.2,0-.05,.45-.95,.28-2.14v-.05h-.02c-.21-1.36-1.11-2.58-2.49-3.11-2.05-.79-4.35,.24-5.14,2.29-.79,2.05,.24,4.35,2.29,5.13,1.38,.53,2.86,.23,3.93-.64,.03,.01,.05,.04,.09,.06l5.06,2.01c-.67,2.74-.64,5.67,.23,8.52l-7.41,3.05,.55,1.69c.09,.43-.18,.51-.26,.52-.03-.04-.33-1-1.27-1.74-.01,0-.03-.02-.04-.03h-.01c-1.09-.83-2.58-1.1-3.94-.53-2.03,.84-2.99,3.17-2.15,5.19s3.17,2.99,5.19,2.15c1.36-.57,2.23-1.8,2.4-3.17,.03-.01,.07,0,.1-.02l8.46-3.48c1.49,2.49,3.59,4.53,6.15,5.91l-1.71,4.08,1.58,.81c.37,.24,.24,.49,.19,.56-.05-.01-.94-.48-2.13-.34-.01,0-.03,0-.05,0h0c-1.37,.19-2.6,1.05-3.17,2.42-.84,2.03,.12,4.35,2.15,5.19,2.03,.84,4.35-.12,5.19-2.15,.57-1.36,.3-2.85-.54-3.94,.02-.03,.04-.05,.06-.09l2.13-5.1c1.33,.35,2.68,.54,4.04,.54,1.44,0,2.88-.21,4.29-.6l3.13,7.66,1.69-.55c.43-.09,.51,.18,.52,.26-.04,.02-1,.33-1.74,1.27l-.03,.04h0c-.84,1.1-1.1,2.59-.54,3.95,.84,2.03,3.17,2.99,5.19,2.15,2.03-.84,2.99-3.17,2.15-5.19-.57-1.36-1.8-2.23-3.17-2.41-.01-.03,0-.07-.02-.1l-3.52-8.6c2.45-1.38,4.47-3.35,5.91-5.75l4.28,1.69,.77-1.6c.23-.37,.48-.25,.55-.2,0,.05-.45,.95-.28,2.14v.05h.02c.21,1.36,1.11,2.58,2.49,3.11,2.05,.79,4.35-.24,5.14-2.29,.79-2.05-.24-4.35-2.29-5.13-1.38-.53-2.86-.23-3.93,.64-.03-.02-.05-.04-.09-.06l-5.02-1.98c.87-2.82,.93-5.77,.22-8.62l7.41-3.11-.55-1.69c-.09-.43,.18-.51,.26-.52,.03,.04,.33,1,1.27,1.74l.04,.03h.01c1.09,.83,2.58,1.1,3.94,.53,2.03-.84,2.99-3.17,2.15-5.19m-20.82,16c-1.05,2.52-3.01,4.49-5.53,5.53-2.52,1.05-5.3,1.05-7.83,0-2.52-1.05-4.49-3.01-5.53-5.53-2.16-5.21,.33-11.2,5.53-13.36,1.28-.53,2.6-.78,3.9-.78,4.01,0,7.83,2.38,9.46,6.31,1.05,2.52,1.04,5.3,0,7.83"/></g></g></svg>