<?xml version="1.0" encoding="UTF-8"?><svg id="Laag_1" xmlns="http://www.w3.org/2000/svg" xmlns:xlink="http://www.w3.org/1999/xlink" viewBox="0 0 64 64"><defs><style>.cls-1{fill:none;}.cls-2{clip-path:url(#clippath);}.cls-3{clip-path:url(#clippath-1);}</style><clipPath id="clippath"><rect class="cls-1" width="64" height="64"/></clipPath><clipPath id="clippath-1"><rect class="cls-1" width="64" height="64"/></clipPath></defs><g class="cls-2"><g class="cls-3"><path d="M48.16,16.19c2.63,0,4.15-1.63,4.15-4.52,0-.29-.03-.56-.06-.83,.93-.18,1.94-.53,1.93-1.18-.02-1.2-6.78-3.58-8.6-2.92-1.31,.47-1.56,2.77-1.59,4.01,0,.09-.03,1.19,.07,1.85,.32,2.16,1.77,3.59,4.09,3.59"/><path d="M18.97,16.05c2.48,0,3.92-1.56,3.92-4.34,0-2.63-1.37-4.48-3.92-4.48s-3.92,1.57-3.92,4.48c0,2.56,1.44,4.34,3.92,4.34"/><path d="M56.76,21.62c-1.21-2.5-3.26-2.97-3.96-3.15-2.72-.69-6.47-.67-9.27,0-.87,.21-1.57,.62-2.16,1.17,1.56,1.99,2.12,4.68,2.42,7.08,.13,1.1,.4,2.11,.71,3.29,.29,1.09,.61,2.33,.91,3.91h0c.31,1.67,.02,3.22-.82,4.37-.49,.68-1.15,1.18-1.87,1.45v19.24s4.16,.04,4.4-4.35c0,0,.61-16.02,.61-16.2,0-.18,.13-.41,.43-.41s.44,.23,.44,.41c0,.18,.62,16.32,.62,16.32,.31,4.27,4.39,4.23,4.39,4.23V24.48c.15-.12,.27,.05,.41,.34,.64,1.37,1.13,2.9,1.88,5.02,.58,1.64,1.45,3.78,2.24,5.67,.19,.46,.51,.86,.9,1.19-.36,5.18-1.5,21.29-1.57,21.95-.06,.62,1.9,.81,1.97,.23,.08-.62,1.69-17.21,2.07-21.09,.5,.06,.93,.02,1.18-.16,0,0-4.05-12.08-5.94-16.01"/><path d="M18.94,18.01c-.92,0-1.76,.09-2.6,.25,.66,.95,1.04,2.18,1.03,3.64-.02,2.42-1.16,4.23-2.98,5.04,1.36,1.03,2.11,2.65,2.11,4.62v6.6c1.23,.11,3.05,.31,4.57,.66,.52,.12,1.15,.26,1.76,.49-.4-.26-.76-.6-1.06-1.01-.84-1.15-1.13-2.7-.82-4.37,.29-1.58,.62-2.82,.91-3.91,.31-1.18,.58-2.19,.71-3.29,.29-2.4,.85-5.1,2.42-7.09-.57-.46-1.21-.8-1.95-1.02-1.33-.41-2.6-.6-4.04-.6h-.05Z"/><path d="M12.57,57.29c-4.36,0-7.92-3.55-7.92-7.91,0-1.75,.58-3.37,1.55-4.69-.38-.6-.64-1.3-.76-2.09-.08-.52-.14-1.1-.2-1.71-2.38,2.06-3.89,5.09-3.89,8.48,0,6.18,5.03,11.21,11.22,11.21,4.01,0,7.52-2.12,9.5-5.29-.53-1.33-1.12-2.9-1.72-4.52-.67,3.69-3.9,6.51-7.78,6.51"/><path d="M20.73,40.28c-2.43-.56-5.73-.73-5.73-.73v-8c0-4.2-3.99-4.81-6.05-3.94-.91,.39-1.63,1.23-1.98,3.06-.63,3.29-.48,8.69-.04,11.71,.47,3.19,3.66,3.32,4.53,3.32h8.62c1.17,3.19,2.46,6.76,3.51,9.36,1.34,3.35,3.87,2.98,4.61,2.79-.9-3.94-1.88-8.28-3.03-12.32-1.36-4.66-1.8-4.65-4.43-5.25"/><path d="M12.12,25.89c2.36,.02,3.74-1.63,3.76-4.01,.02-2.72-1.4-4.18-3.7-4.2-2.43-.02-3.74,1.69-3.76,4.15-.02,2.58,1.34,4.05,3.7,4.06"/><path d="M43.93,34.19c-.61-3.25-1.36-5.03-1.63-7.3-.56-4.61-1.9-7.01-4.33-8.05,0,0-.65-6.13-.77-7.27-.11-1.15-.21-1.77-.35-2.15-.58-1.49-1.84-2.43-3.67-2.43-1.71,0-3.01,.77-3.62,2.24-.16,.39-.3,1.21-.45,2.38-.23,1.78-.96,7.33-.96,7.33-2.28,1.09-3.55,3.48-4.09,7.94-.27,2.26-1.02,4.04-1.63,7.3-.49,2.65,.97,4.1,2.17,4.25,2.38-7.48,2.85-11.3,3.38-13.44-.08,1.25,.16,2.06,.36,2.92,.31,1.28,.38,2.61,.04,3.89-.36,1.36-1.17,7.09-1.81,13.18,.01,.04,.02,.08,.04,.12h0c1.17,4.16,2.14,8.45,3.33,13.62,1.09,.16,2.34,.27,3.71,.27,4.65,0,6.99-1.04,6.99-1.04,0-7.66-2.03-23.76-2.67-26.16-.34-1.28-.27-2.61,.04-3.89,.2-.85,.44-1.67,.36-2.92,.53,2.15,1,5.96,3.38,13.44,1.2-.15,2.67-1.6,2.17-4.25m-10.75-18.19c-1.72,0-2.71-1.45-2.71-3.55,0-.29,.02-.56,.05-.82h5.3c.04,.26,.06,.53,.06,.82,0,2.27-.99,3.55-2.71,3.55"/></g></g></svg>