<?xml version="1.0" encoding="UTF-8"?><svg id="Laag_1" xmlns="http://www.w3.org/2000/svg" viewBox="0 0 64 64"><defs><style>.cls-1{fill:none;}</style></defs><rect class="cls-1" width="64" height="64"/><g><path d="m52.2,44.8c-2.8,1-6.4,2.4-9.2,3.6.1.4.1.9,0,1.4-.4,2.8-2.8,4.6-6.2,4.7-7.7.4-12.5-1.6-13.5-2-.3-.1-.3-.3-.3-.4,5.6,1,9.1,1.1,13.5.4,3.3-.5,4.5-2.1,4.5-3.4s-.9-2-3-2.1c-7-.2-11-1-16.9-1.8-4.1-.6-8.1.5-11.4,2.6-3.2,2-4,3-4,3l5.8,11.1,7.5-3c.9-.3,1.8-.5,2.7-.3l10.3,2.3c2.3.4,4.6-.1,6.6-1.2l20.4-12.9s-1-4-6.8-2Z"/><path d="m31.16,41.96c.52.27,1.16.27,1.68,0,19.89-10.42,20.46-29.13,11.97-32.9-8.6-3.82-12.81,4.4-12.81,4.4,0,0-4.21-8.22-12.81-4.4-8.49,3.77-7.92,22.48,11.97,32.9Z"/></g></svg>