<?xml version="1.0" encoding="UTF-8"?><svg id="Laag_1" xmlns="http://www.w3.org/2000/svg" xmlns:xlink="http://www.w3.org/1999/xlink" viewBox="0 0 64 64"><defs><style>.cls-1{fill:none;}.cls-2{clip-path:url(#clippath);}.cls-3{clip-path:url(#clippath-1);}</style><clipPath id="clippath"><rect class="cls-1" width="64" height="64"/></clipPath><clipPath id="clippath-1"><rect class="cls-1" width="64" height="64"/></clipPath></defs><g class="cls-2"><g class="cls-3"><path d="M16,31c-6.63,0-12,5.37-12,12s5.37,12,12,12,12-5.37,12-12-5.37-12-12-12m0,17.25c-2.9,0-5.25-2.35-5.25-5.25s2.35-5.25,5.25-5.25,5.25,2.35,5.25,5.25-2.35,5.25-5.25,5.25"/><path d="M53,32.88c.68,0,1.35,.07,2,.18v-5.37c0-1.53-1.15-2.81-2.67-2.98l-5.33-.59V15.5c0-.83-.67-1.15-1.5-1.15s-1.5,.32-1.5,1.15v8.28l-4.03-.45-1.83-11.95c-.21-1.38-1.38-2.38-2.77-2.38H14.22l-2.3,15h-2.92c-.66,0-1.3,.26-1.77,.73l-5,5c-.98,.98-.58,2.16,.4,3.13,.98,.98,2.16,1.38,3.13,.4l4.27-4.27h11.93l8.03,8.03v4.97c0,1.66,1.34,3,3,3h7.88c0-6.69,5.43-12.12,12.12-12.12m-31-8.88h-5.02l1.53-10h3.48v10Zm13.3,10.74c.15,.3-.08,.43-.08,.43l-10.22-10.22V14h8.48l2.45,16h-3.43s2.65,4.44,2.8,4.74"/><path d="M53,35c-5.52,0-10,4.48-10,10s4.48,10,10,10,10-4.48,10-10-4.48-10-10-10m0,14.2c-2.32,0-4.2-1.88-4.2-4.2s1.88-4.2,4.2-4.2,4.2,1.88,4.2,4.2-1.88,4.2-4.2,4.2"/></g></g></svg>