<?xml version="1.0" encoding="UTF-8"?><svg id="Laag_1" xmlns="http://www.w3.org/2000/svg" xmlns:xlink="http://www.w3.org/1999/xlink" viewBox="0 0 64 64"><defs><style>.cls-1{fill:none;}.cls-2{clip-path:url(#clippath);}.cls-3{clip-path:url(#clippath-1);}</style><clipPath id="clippath"><rect class="cls-1" width="64" height="64"/></clipPath><clipPath id="clippath-1"><rect class="cls-1" width="64" height="64"/></clipPath></defs><g class="cls-2"><g class="cls-3"><path d="M35.66,43.25h-2.8l-1.52,13.75h3.93l1.46-7.22-1.04-6.34c-.01-.07-.02-.14-.03-.19"/><path d="M20,43.25c-1.71,0-1.91,.76-3.79,3.74l2.9,10.01h3.89l-2.93-13.75h-.07Z"/><path d="M60,16l-6-1c-.46-1.19-2-3-4-3h-2.36c-.5-1.23-.64-5-1.64-5-1.77,0-3,6-3,6,0,0-6.52,11.74-13.45,12.87-.62,.1-1.22,.18-1.81,.26l-9.53-10.81c1.28-.51,2.9-.77,4.86-.78l7.89,8.52c.98-.47,1.96-1.18,2.91-2.01l-8.55-9.23c-.44-.5-1.06-.76-1.83-.77-3.56-.04-6.42,.64-8.47,2.02-.55,.36-.91,.95-.99,1.6-.09,.66,.11,1.33,.56,1.83l13.18,15.05c-.03,.06-.17,.25-.49,.07l-6.97-5.17c-12.31-.73-16.18-8.2-14.45-13.24,.43-1.24-.78-1.7-1.53-.62C-.04,18.82,8.03,26.83,8.79,28.76c.6,1.51-.15,1.31-.48,4.88-.24,2.6,1.85,6.95,2.71,8.04l-3,4.99c-.4,.54-.52,1.22-.35,1.86l2.33,8.47h4l-1.28-8.69,3.11-4.94c.78-1.31,2.03-2.37,4.17-2.37h16c1.38,0,1.74,1.02,1.91,2.07l2.26,13.87h4.82s-2-21.94,2.63-30.22c1.78-3.2,4.16-4.71,7.37-4.71,5.33,0,5-6,5-6"/></g></g></svg>