<?xml version="1.0" encoding="UTF-8"?><svg id="Laag_1" xmlns="http://www.w3.org/2000/svg" xmlns:xlink="http://www.w3.org/1999/xlink" viewBox="0 0 64 64"><defs><style>.cls-1{fill:none;}.cls-2{clip-path:url(#clippath);}.cls-3{clip-path:url(#clippath-1);}</style><clipPath id="clippath"><rect class="cls-1" width="64" height="64"/></clipPath><clipPath id="clippath-1"><rect class="cls-1" width="64" height="64"/></clipPath></defs><g class="cls-2"><g class="cls-3"><path d="M61,15h-2v-1.07c0-.51-.45-.93-1-.93h-1v-1c0-.55-.45-1-1-1h-4.1c-.33,0-.65,.17-.83,.44l-1.04,1.56H9c-3.2,0-4,3-4,3l-2,8.19c0,.96,.7,1.76,1.64,1.96,5.02,1.07,3.49,7.51-.23,15.18-1.88,3.87-2.3,6.86-2.37,8.97-.07,2.03,1.46,3.7,3.49,3.7H15.06c2.06,0,3.85-1.42,4.32-3.42l2.61-11.03c1.73,.3,3.36,.45,4.87,.45,4.18,0,7.52-1.12,9.98-3.36,3.9-3.55,4.14-8.75,4.11-10.64h17.05c.55,0,1-.42,1-.93v-7.07c.07-.03,.33-.07,.47,.33l.97,4.67h.56c.55,0,1-.45,1-1v-6c0-.55-.45-1-1-1m-26.88,18.7c-2.26,2.22-6.12,2.77-11.21,1.94,0,0,.93-5.8,3.11-7.23,.63,4.36,4.73,4.59,4.73,4.59,.54,0,0-.69,0-.69-1.37-2.18-.68-4.98-.37-5.96,1.45-.53,6.64-.36,6.64-.36,0,1.23-.3,5.15-2.9,7.7"/></g></g></svg>