<?xml version="1.0" encoding="UTF-8"?><svg id="Laag_1" xmlns="http://www.w3.org/2000/svg" xmlns:xlink="http://www.w3.org/1999/xlink" viewBox="0 0 64 64"><defs><style>.cls-1{fill:none;}.cls-2{clip-path:url(#clippath);}.cls-3{clip-path:url(#clippath-1);}</style><clipPath id="clippath"><rect class="cls-1" width="64" height="64"/></clipPath><clipPath id="clippath-1"><rect class="cls-1" width="64" height="64"/></clipPath></defs><g class="cls-2"><g class="cls-3"><path d="M27.89,23.14v-3.26c0-.24-.02-.47-.06-.7-.68,.84-4.12,4.57-12.09,4.57-7.13,0-9.58-3.27-9.84-3.73-.11-.2-.19-.34-.06-.45h.08c2.27,1.48,5.66,2.4,9.52,2.4,6.98,0,12.44-3.01,12.44-6.86v-3.26c0-3.84-5.47-6.85-12.44-6.85S3,8.01,3,11.84v3.26c0,.85,.28,1.65,.76,2.39-.49,.74-.76,1.54-.76,2.38v3.26c0,3.84,5.47,6.86,12.45,6.86s12.44-3.01,12.44-6.86M15.45,7.63c5.44,0,9.85,2.02,9.85,4.51s-4.41,4.51-9.85,4.51-9.85-2.02-9.85-4.51,4.41-4.51,9.85-4.51"/><path d="M13.54,13.68v.6h1.38v-.5c.27,.02,.6,.02,.9,.02h.34v.48h1.35v-.55c2.48-.27,3.65-1.13,3.65-2.38,0-.49-.05-.7-.27-1.2h-1.83c.19,.46,.26,.69,.26,1.12,0,.55-.53,1-1.81,1.19v-1.57h-1.35v1.69c-.17,0-.34,.02-.54,.02-.24,0-.46,0-.7-.02v-1.69h-1.38v1.57c-1.25-.19-1.9-.59-1.9-1.23,0-.36,.07-.58,.22-1.03h-1.93c-.15,.38-.21,.65-.21,1,0,1.26,1.28,2.16,3.81,2.48"/><path d="M37.93,47.56c2.26,1.47,5.66,2.4,9.52,2.4,6.98,0,12.44-3.01,12.44-6.85v-3.26c0-3.84-5.47-6.85-12.44-6.85s-12.45,3.01-12.45,6.85v3.26c0,.84,.28,1.65,.76,2.39-.49,.74-.76,1.54-.76,2.39v3.26c0,3.84,5.47,6.86,12.45,6.86s12.44-3.01,12.44-6.86v-3.26c0-.24-.02-.47-.06-.7-.68,.84-4.12,4.57-12.09,4.57-7.13,0-9.58-3.27-9.84-3.73-.11-.2-.19-.34-.06-.45h.08Zm-.33-7.42c0-2.49,4.41-4.51,9.85-4.51s9.85,2.02,9.85,4.51-4.41,4.51-9.85,4.51-9.85-2.02-9.85-4.51"/><path d="M45.54,41.68v.6h1.38v-.5c.27,.02,.6,.02,.9,.02h.34v.48h1.35v-.55c2.47-.27,3.65-1.13,3.65-2.38,0-.49-.05-.7-.27-1.2h-1.83c.19,.46,.26,.69,.26,1.12,0,.55-.53,1-1.81,1.19v-1.57h-1.35v1.69c-.17,0-.34,.02-.55,.02-.24,0-.46,0-.7-.02v-1.69h-1.38v1.57c-1.25-.19-1.9-.59-1.9-1.23,0-.36,.07-.58,.22-1.03h-1.93c-.15,.38-.21,.65-.21,1,0,1.26,1.28,2.16,3.81,2.48"/><path d="M51.8,7h-5.48c-.91,0-1.74,.41-2.24,1.13L9.63,54.38c-.47,.65,.09,1.62,.93,1.62h5.48c.91,0,1.74-.41,2.24-1.13L52.72,8.62c.47-.65-.09-1.62-.93-1.62"/></g></g></svg>