<?xml version="1.0" encoding="UTF-8"?><svg id="Laag_1" xmlns="http://www.w3.org/2000/svg" xmlns:xlink="http://www.w3.org/1999/xlink" viewBox="0 0 64 64"><defs><style>.cls-1{fill:none;}.cls-2{clip-path:url(#clippath);}.cls-3{clip-path:url(#clippath-1);}</style><clipPath id="clippath"><rect class="cls-1" width="64" height="64"/></clipPath><clipPath id="clippath-1"><rect class="cls-1" width="64" height="64"/></clipPath></defs><g class="cls-2"><g class="cls-3"><path d="M30.45,16.2c1.64,.32,5.97,1.11,6.62,2.67,.62,1.48-1.11,4.32-2.05,5.76-.12,.19,.1,.4,.28,.27,1.37-.99,4.61-2.61,5.81-1.99,1.33,.69,2.43,4.87,2.7,6.49,.04,.22,.35,.22,.39,0,.38-1.68,1.39-5.94,2.62-6.5,1.25-.56,4.37,1.14,5.8,2.06,.18,.12,.4-.1,.27-.28-.98-1.44-2.85-4.45-2.04-5.82,.83-1.4,5.25-2.29,6.81-2.66,.21-.05,.2-.34,0-.39-1.63-.38-6.25-1.29-6.8-2.66-.56-1.37,1.11-4.34,1.99-5.75,.11-.18-.1-.39-.28-.28-1.43,.88-4.45,2.58-5.75,1.99-1.32-.6-2.29-5.54-2.67-7.12-.05-.2-.33-.21-.39,0-.43,1.59-1.5,6.62-2.65,7.12-1.14,.5-4.32-1.2-5.78-2.04-.18-.1-.38,.1-.27,.28,.86,1.36,2.54,4.31,2.01,5.8-.51,1.43-4.95,2.28-6.63,2.65-.21,.05-.21,.35,0,.39m13.55-5.39c2.86,0,5.19,2.32,5.19,5.19s-2.32,5.19-5.19,5.19-5.19-2.32-5.19-5.19,2.32-5.19,5.19-5.19"/><path d="M51.24,54.24l-1.2-.9-1.2,.9c-.64,.48-2.9,1.85-4.8,1.85s-4.11-1.34-4.8-1.85l-1.2-.9-1.2,.9c-.64,.48-2.9,1.85-4.8,1.85s-4.11-1.34-4.8-1.85l-1.2-.9-1.2,.9c-.64,.48-2.9,1.85-4.8,1.85s-4.11-1.34-4.8-1.85l-1.2-.9-1.2,.9c-.64,.48-2.89,1.85-4.8,1.85-1.02,0-2.12-.39-3.04-.83v4.22c.94,.3,1.98,.52,3.04,.52,2.4,0,4.66-1.08,6-1.86,1.34,.79,3.6,1.86,6,1.86s4.66-1.08,6-1.86c1.34,.79,3.6,1.86,6,1.86s4.66-1.08,6-1.86c1.34,.79,3.6,1.86,6,1.86s4.66-1.08,6-1.86c1.34,.79,3.6,1.86,6,1.86,1.03,0,2.04-.2,2.96-.49v-4.2c-.9,.42-1.97,.79-2.96,.79-1.89,0-4.11-1.34-4.8-1.85"/><path d="M51.24,45.24l-1.2-.9-1.2,.9c-.64,.48-2.9,1.85-4.8,1.85s-4.11-1.34-4.8-1.85l-1.2-.9-1.2,.9c-.64,.48-2.9,1.85-4.8,1.85s-4.11-1.34-4.8-1.85l-1.2-.9-1.2,.9c-.64,.48-2.9,1.85-4.8,1.85s-4.11-1.34-4.8-1.85l-1.2-.9-1.2,.9c-.64,.48-2.89,1.85-4.8,1.85-1.02,0-2.12-.39-3.04-.83v4.22c.94,.3,1.98,.52,3.04,.52,2.4,0,4.66-1.08,6-1.86,1.34,.79,3.6,1.86,6,1.86s4.66-1.08,6-1.86c1.34,.79,3.6,1.86,6,1.86s4.66-1.08,6-1.86c1.34,.79,3.6,1.86,6,1.86s4.66-1.08,6-1.86c1.34,.79,3.6,1.86,6,1.86,1.03,0,2.04-.2,2.96-.49v-4.2c-.9,.42-1.97,.79-2.96,.79-1.89,0-4.11-1.34-4.8-1.85"/><path d="M56.04,38.09c-1.89,0-4.11-1.34-4.8-1.85l-1.2-.9-1.2,.9c-.64,.48-2.9,1.85-4.8,1.85s-4.11-1.34-4.8-1.85l-1.2-.9-1.2,.9c-.64,.48-2.9,1.85-4.8,1.85s-4.11-1.34-4.8-1.85l-1.2-.9-1.2,.9c-.64,.48-2.9,1.85-4.8,1.85s-4.11-1.34-4.8-1.85l-1.2-.9-1.2,.9c-.64,.48-2.9,1.85-4.8,1.85-1.02,0-2.12-.39-3.04-.83v4.22c.94,.31,1.98,.52,3.04,.52,2.4,0,4.66-1.08,6-1.86,1.34,.79,3.6,1.86,6,1.86s4.66-1.08,6-1.86c1.34,.79,3.6,1.86,6,1.86s4.66-1.08,6-1.86c1.34,.79,3.6,1.86,6,1.86s4.66-1.08,6-1.86c1.34,.79,3.6,1.86,6,1.86,1.03,0,2.04-.2,2.96-.49v-4.2c-.9,.42-1.97,.79-2.96,.79"/></g></g></svg>