<?xml version="1.0" encoding="UTF-8"?><svg id="Laag_1" xmlns="http://www.w3.org/2000/svg" xmlns:xlink="http://www.w3.org/1999/xlink" viewBox="0 0 64 64"><defs><style>.cls-1{fill:none;}.cls-2{clip-path:url(#clippath);}.cls-3{clip-path:url(#clippath-1);}</style><clipPath id="clippath"><rect class="cls-1" width="64" height="64"/></clipPath><clipPath id="clippath-1"><rect class="cls-1" width="64" height="64"/></clipPath></defs><g class="cls-2"><g class="cls-3"><path d="M36.52,56.72c-1.36,1.63-1.67-.66-2.87-.24-1.2,.42-.36,2.52-.36,2.52h8.29c1.51-4.26-3.7-3.91-5.06-2.28"/><rect x="14" y="56" width="11" height="3"/><path d="M46,51c0-1-2,0-2-1,0-.65,.98-.88,1.2-1,.62-.34,1.79-1,1.79-2s-1.79-2-2.79-2c-3,0-2.24,5-3.19,5-.83,0-.72-.98-1.5-.98-.83,0-1.91,2.22-2.29,3.01-.34,.7-.35,1.98,.79,1.98,1,0,1.58-1.01,3-1,1,0,1,.67,1,1,0,1,1,1,1,1,2,0,3-3.94,3-4"/><path d="M52.61,44.11c-2.18-2.38-8.46-4.49-11.39-5.37-.15-1.12-.36-2.41-.55-3.48,2.05-2.48,3.49-5.92,3.77-7.91h0c3.24,.35,3.5-.04,3.5-3.49,0-3.05-.15-4.52-.64-5.42-.36-.67-.91-1.69-.91-1.69-.78-9.1-6.69-13.74-14.4-13.74h0c-7.71,0-13.62,4.64-14.41,13.74,0,0-.55,1.02-.91,1.69-.48,.9-.63,2.37-.63,5.42,0,3.47,.24,3.81,3.41,3.48h0c.38,2.71,2.46,6.4,4.32,8.48-.11,.81-.23,1.75-.35,2.73-2.51,.74-9.67,3-12.03,5.57-2.87,3.12-4.39,14.89-4.39,14.89h3l.49-2.91c1.03,.7,1.99,.84,1.78-1.14-.26-2.49,.67-2.5,3.67-1.27,3,1.23,3.72-2.19,2.45-2.68-1.27-.48-2.75-1.36-2.19-2.77,.55-1.36,1.81,.42,2.66-.54,.6-.69-.99-2.56-1.97-3.59,1.71-.79,3.9-1.62,6.34-2.38,.08,.63,.24,1.25,.46,1.86-1.2,.61-2.94,1.63-2.34,3.21,.17,.46,.31,1.54,2.54,1.82,1.19,.15,1.04,2.25-.69,1.95-1.28-.22-2.22-.26-2.22,1.38,0,2.05,1.96,2,2.58,1.9,.84-.13,.92-.63,1.36-1.27,.64-.92,2.45-.97,2.54,.28,.09,1.23-.09,3.13,2.42,3.13,1.81,0,1.15-1.71,2.43-2.93h0l1.8-1.29c1.16-.83,6.42-4.86,7.19-9.87,5.4,1.72,8.26,3.34,9.09,4.24,.82,.89,1.74,3.7,2.49,6.94-2.24,.45-1.02,3.72-2.99,2.88-1.98-.84,.76-2.69-.07-3.64-1.15-1.31-2.83,.67-2.83,2.65,0,0,0,1.02-1.62,1.02-1.74,0-2.38,3-2.38,3h14s-1.51-11.76-4.39-14.89M31.92,8.96h1.67l1.41,3.65v-3.65h1.09v5.15h-1.67l-1.4-3.65v3.65h-1.09v-5.15Zm-5,0h1.16v3.23c0,.67,.3,.98,.95,.98,.61,0,.93-.33,.93-.96v-3.24h1.11v3.27c0,1.18-.83,1.94-2.1,1.94-1.36,0-2.05-.63-2.05-1.87v-3.33Zm-4.21,10.04c.06-.17,.19-.38,.5-.54,1.42-.83,16.05-.83,17.47,0,.31,.16,.45,.37,.5,.54,.07,.45,.14,1.03,.2,1.68-2.31-.54-5.12-.68-9.42-.68s-7.12,.15-9.43,.69c.07-.82,.13-1.45,.17-1.69m9.68,30.34c-2.3-1.75-6.59-5.53-6.16-9.02,.24-1.91,.04-.55,.82-5.44-2.26-2.18-3.92-4.63-4.5-7.99-.11-.65-.16-1.48-.16-2.35,.09,.34,.29,.66,.81,.87l5.09,1.97c.47,.19,1.01,.05,1.31-.34l1.42-1.86c.11-.14,.28-.22,.46-.22h.99c.18,0,.35,.08,.46,.22l1.42,1.86c.3,.39,.84,.53,1.31,.34l5.09-1.97c.35-.14,.67-.4,.79-.8-.02,.85-.07,1.69-.18,2.44-.6,4-3.29,6.67-5.62,8.66-.78,.67-2.25,1.11-3.72,1.11-1.06,0-2.13-.29-2.93-.64,.61,.93,1.66,2.07,3.58,2.58,3.16,.84,5.46-.91,5.46-.91,0,0,.28,1.91,.27,2.42,.33,3.49-3.56,7.32-6.01,9.08"/></g></g></svg>