<?xml version="1.0" encoding="UTF-8"?><svg id="Laag_1" xmlns="http://www.w3.org/2000/svg" xmlns:xlink="http://www.w3.org/1999/xlink" viewBox="0 0 64 64"><defs><style>.cls-1{fill:none;}.cls-2{clip-path:url(#clippath);}.cls-3{clip-path:url(#clippath-1);}</style><clipPath id="clippath"><rect class="cls-1" width="64" height="64"/></clipPath><clipPath id="clippath-1"><rect class="cls-1" width="64" height="64"/></clipPath></defs><g class="cls-2"><g class="cls-3"><path d="M52.96,15.95l-16.81,16.81c-.22,.22-.49,.39-.78,.48l-11.72,3.91c-.49,.16-.96-.31-.8-.8l3.91-11.72c.1-.29,.26-.56,.48-.78l10.62-10.62c-2.76-.08-5.01-.08-5.84-.08-2,0-11.99,0-17.99,1.03-2.07,.36-3.65,1.98-4,4.12-1,6.17-1,11.7-1,13.76s0,7.59,1,13.76c.35,2.13,1.92,3.76,4,4.11,5.99,1.03,15.99,1.03,17.99,1.03h.2l11.25,6.87c.49,.31,1.14,.17,1.45-.33,.14-.23,.19-.49,.15-.74l-3.94-13.48s.23-.22,.47,.15c2.41,3.74,4.51,6.98,4.51,6.98,1.39-.13,2.72-.29,3.9-.49,2.07-.36,3.65-1.98,4-4.11,1-6.17,1-11.7,1-13.76,0-6.17,0-7.59-1-13.76-.15-.89-.51-1.69-1.04-2.35"/><path d="M32.96,30.24l.37,.37c.39,.39,1.03,.39,1.42,0L55.2,10.15l-2.67-.89-19.57,19.57c-.39,.39-.39,1.02,0,1.41"/><path d="M29.4,26.67l.37,.37c.39,.39,1.02,.39,1.41,0L51.64,6.58l-2.67-.89L29.4,25.26c-.39,.39-.39,1.02,0,1.41"/></g></g></svg>