<?xml version="1.0" encoding="UTF-8"?>
<svg id="Zwart" xmlns="http://www.w3.org/2000/svg" viewBox="0 0 64 64">
  <path d="M56.67,20.76c-.66,2.85-1.34,6.68-1.84,9.73.41.17.8.4,1.17.72,2.16,1.84,2.38,4.82.7,7.81-3.81,6.74-7.98,9.79-8.85,10.42-.25.18-.39.13-.48.04,0,0,0-.01,0-.01,3.79-4.23,5.8-7.13,7.51-11.18,1.3-3.07.6-4.92-.51-5.59-1.09-.65-2.22-.3-3.35,1.38-3.86,5.71-6.66,8.71-10.52,13.26-2.69,3.16-4.52,7.08-4.49,11.08.02,2.55.19,3.94.29,4.57h13.5l1.14-6.5c.16-.91.57-1.75,1.17-2.44l7.39-7.48c1.53-1.74,2.42-3.96,2.5-6.28v-24.18s-3.94-1.29-5.32,4.64Z"/>
  <path d="M12.99,34.08c-1.14-1.68-2.26-2.03-3.35-1.38-1.12.67-1.82,2.52-.51,5.59,1.72,4.05,3.72,6.95,7.51,11.18,0,0,0,.01,0,.01-.1.09-.23.14-.48-.04-.87-.63-5.05-3.68-8.85-10.42-1.68-2.98-1.46-5.96.7-7.81.37-.32.77-.56,1.17-.72-.5-3.06-1.17-6.88-1.84-9.73-1.38-5.92-5.32-4.64-5.32-4.64v24.17c.08,2.32.96,4.54,2.5,6.28l7.39,7.48c.61.69,1.02,1.53,1.17,2.44l1.14,6.5h13.5c.1-.63.26-2.03.29-4.57.04-4-1.8-7.92-4.49-11.08-3.87-4.55-6.66-7.55-10.52-13.26Z"/>
  <path d="M51,20c0-10.49-8.51-19-19-19S13,9.51,13,20s8.51,19,19,19,19-8.51,19-19ZM30.99,7.56c-.47.45-.27,1.19-.44,1.83l-.66.35-1.06-1.3.5-1.86c.05-.38-.13-.76-.46-.97-.38-.25-.87-.2-1.16.12l-.44.47.3,1.76-.11.3-.88-.6-.08-1.13-1.08-.2s-.14.88-.49,1.09c-.36.21-1.21-.07-1.39.49-.25.8.46.37.35,2.15l-.03.58.57-.26.21-.69.54-.13c.51-.12.08-1.32.53-1.56l2.19,2.07s.79,2,.36,2.53c-.43.53-1.88-.28-1.88-.28,0,0-.22,1.3-1.56,1.34-1.48.05-1.63,1.52-1.63,1.52,0,0-1.38.31-1.43.78-.05.48.25,1.59-.14,1.64-.4.05-.41.17-.57-.35-.16-.52-.15-1.33-.51-1.86-.35-.53-1.04-.95-1.61-.6-.57.35-.94,2.19-.21,2.4.73.21,1.07-.19,1.39.43.33.62-.19,2.46.41,3.35l.98.45,1.13,1.4,1.38.11c.51.04,1.01.25,1.41.6l.35.3c.48.41.2.37.81.48l.73.13c.32.06.59.29.7.61l.28.58c1.11.41.61.13,1.63.7l.46,1.7c-.74,1.62-.51,2.39-1.81,2.51,0,0-.67.11-1,.7-.22.39-1.7,3.42-1.7,3.42,0,0-1.34-.38-1.39-1.58-.06-1.57-.21-3.69-.42-4.22-.21-.53-.62-.97-1.11-1.24-.62-.34-1.22-.73-1.65-1.29-.27-.36-.14-.75-.27-1.09-.38-1.01-.68-1.05-.42-1.49.27-.44.65-1.13.65-1.13l-1.05-.52-.45-.99-.6-1.34-.95-.74c-.58-.45-1-1.08-1.21-1.78l-.32-1.11c-.03-.12-.09-.23-.13-.35,1.74-6.42,7.37-11.24,14.21-11.76l.88,2.86-.66.64ZM33.48,7.06c1.09.27,1.41-1.22,2.28-1.26l.4,1.11s-.31,1.65-.84,1.79c-.52.14-2.03-.73-2.03-.73l.19-.91ZM44.42,28.54c-.23.4-.84.62-1.12,1.01-.5.72-.36,1.97-.93,2.25-1.02.5-2.2.73-2.48.47-.39-.37-1.25-1.94-1.25-2.46v-3.76c0-.67-.9-2.27-.9-2.27,0,0-2.13-.02-2.95-.02s-2.06-1.17-2.06-1.17c0,0-.69-2.29,0-3.72.69-1.43,1.74-1.58,1.74-1.58l3.65-.73,2.09,1.22,2.79.53.77,1.06,1.24,1.75,1.63-.48-1.63-1.63-.94-1.7s1.22-1.22.88-1.87c-.34-.65-2.24.41-2.62-.16-.38-.57-.04-2.5-.04-2.5l-2.36-.97s-.74-.01-.68.54c.07.62,1.79,1.62,1.65,1.89-.13.26-.56.07-.56.07l-.65,1.15-1.36-.31s1.03-.39,1.16-.77c.13-.38-1.53-1.74-1.53-1.74l-.92.21-.42,1.67-1.11.97-1.38.2.06-1.02-.5-.17.66-1.64,1.43.12s.53-1.38.42-1.83c-.2-.88-1.12-.98-1.12-1.33s.99-.34,1.48-.83c.3-.3,1.12-2.86,1.69-3.72,5.73,2.44,9.75,8.12,9.75,14.73,0,1.99-.38,3.9-1.05,5.66-.87.43-1.78.61-1.78.61,0,0-.17,1.24-.75,2.28Z"/>
</svg>