<?xml version="1.0" encoding="UTF-8"?><svg id="Laag_1" xmlns="http://www.w3.org/2000/svg" xmlns:xlink="http://www.w3.org/1999/xlink" viewBox="0 0 64 64"><defs><style>.cls-1{fill:none;}.cls-2{clip-path:url(#clippath);}.cls-3{clip-path:url(#clippath-1);}</style><clipPath id="clippath"><rect class="cls-1" width="64" height="64"/></clipPath><clipPath id="clippath-1"><rect class="cls-1" width="64" height="64"/></clipPath></defs><g class="cls-2"><g class="cls-3"><path d="M55,7H9c-1.1,0-2,.9-2,2V43.99c0,1.1,.9,2,2,2H25.5s-.53,1.94-1.5,5.01c-.58,1.84-2.38,1.99-2.87,2h-2.13c-.55,0-1,.45-1,1v2h28v-2c0-.55-.45-1-1-1h-2.13c-.49,0-2.29-.16-2.87-2-.39-1.23-.7-2.27-.94-3.08,0,0-4.4-.64-8.98-1.53-.32-.06-.28-.3-.24-.38h25.17c1.1,0,2-.9,2-2V9c0-1.1-.9-2-2-2m-3,32H12V12H52v27Z"/><path d="M31.49,35.79c.32,.17,.71,.17,1.03,0,12.14-6.36,12.49-17.78,7.31-20.09-5.25-2.33-7.82,2.68-7.82,2.68,0,0-2.57-5.02-7.82-2.68-5.18,2.3-4.84,13.73,7.31,20.09m-5.36-11.47l1.39-1.46c.19-.2,.51-.21,.72-.02l3.49,3.32,4.74-6.26c.17-.22,.49-.27,.71-.1l1.61,1.22c.22,.17,.27,.49,.1,.71l-6.45,8.52c-.18,.24-.53,.27-.75,.06l-5.54-5.28c-.2-.19-.21-.51-.02-.72"/></g></g></svg>