<?xml version="1.0" encoding="UTF-8"?><svg id="Laag_1" xmlns="http://www.w3.org/2000/svg" xmlns:xlink="http://www.w3.org/1999/xlink" viewBox="0 0 64 64"><defs><style>.cls-1{fill:none;}.cls-2{clip-path:url(#clippath);}.cls-3{clip-path:url(#clippath-1);}</style><clipPath id="clippath"><rect class="cls-1" width="64" height="64"/></clipPath><clipPath id="clippath-1"><rect class="cls-1" width="64" height="64"/></clipPath></defs><g class="cls-2"><g class="cls-3"><path d="M32.11,25.99c-11.97,0-14.56-4.69-14.83-5.44-.09-.25-.09-.39-.03-.45,3.37,2.33,8.49,3.79,14.33,3.79,7.82,0,14.34-2.63,17.08-6.44,.62-.85,.63-2.01,.03-2.88-2.69-3.88-9.28-6.57-17.19-6.57-10.35,0-18.46,4.58-18.5,10.44v4.98c-.01,1.08,.26,2.11,.75,3.08-.48,.94-.75,1.94-.75,2.99v5c0,1.05,.27,2.05,.75,3-.48,.95-.75,1.95-.75,3v5c0,5.89,8.12,10.51,18.5,10.51s18.5-4.62,18.5-10.51v-5c0-.23-.03-.44-.06-.66-1.27,1.61-6.45,7.27-17.91,7.27s-14.56-4.69-14.83-5.44c-.09-.25-.09-.39-.03-.45,3.37,2.33,8.49,3.79,14.33,3.79,10.37,0,18.5-4.62,18.5-10.51v-5c0-.22-.03-.44-.06-.66-1.27,1.61-6.45,7.27-17.91,7.27s-14.56-4.69-14.83-5.44c-.09-.25-.09-.39-.03-.45,3.37,2.33,8.49,3.79,14.33,3.79,10.37,0,18.5-4.62,18.5-10.51v-4.75c-1.3,1.64-6.48,7.24-17.89,7.24"/></g></g></svg>