<?xml version="1.0" encoding="UTF-8"?><svg id="_01" xmlns="http://www.w3.org/2000/svg" xmlns:xlink="http://www.w3.org/1999/xlink" viewBox="0 0 64 64"><metadata><?xpacket begin="﻿" id="W5M0MpCehiHzreSzNTczkc9d"?>
<x:xmpmeta xmlns:x="adobe:ns:meta/" x:xmptk="Adobe XMP Core 9.1-c001 79.a8d4753, 2023/03/23-08:56:37        ">
   <rdf:RDF xmlns:rdf="http://www.w3.org/1999/02/22-rdf-syntax-ns#">
      <rdf:Description rdf:about=""
            xmlns:dc="http://purl.org/dc/elements/1.1/"
            xmlns:xmp="http://ns.adobe.com/xap/1.0/"
            xmlns:xmpMM="http://ns.adobe.com/xap/1.0/mm/"
            xmlns:stEvt="http://ns.adobe.com/xap/1.0/sType/ResourceEvent#">
         <dc:creator>
            <rdf:Seq/>
         </dc:creator>
         <xmp:MetadataDate>2023-11-29T12:02:02+01:00</xmp:MetadataDate>
         <xmpMM:InstanceID>xmp.iid:49be16ee-a442-4fc7-b909-d26d828940bd</xmpMM:InstanceID>
         <xmpMM:DocumentID>xmp.did:49be16ee-a442-4fc7-b909-d26d828940bd</xmpMM:DocumentID>
         <xmpMM:OriginalDocumentID>xmp.did:49be16ee-a442-4fc7-b909-d26d828940bd</xmpMM:OriginalDocumentID>
         <xmpMM:History>
            <rdf:Seq>
               <rdf:li>
                  <rdf:Description>
                     <stEvt:action>saved</stEvt:action>
                     <stEvt:instanceID>xmp.iid:49be16ee-a442-4fc7-b909-d26d828940bd</stEvt:instanceID>
                     <stEvt:when>2023-11-29T12:02:02+01:00</stEvt:when>
                     <stEvt:softwareAgent>Adobe Bridge 2024</stEvt:softwareAgent>
                     <stEvt:changed>/metadata</stEvt:changed>
                  </rdf:Description>
               </rdf:li>
            </rdf:Seq>
         </xmpMM:History>
      </rdf:Description>
   </rdf:RDF>
</x:xmpmeta>
                                                                                                    
                                                                                                    
                                                                                                    
                                                                                                    
                                                                                                    
                                                                                                    
                                                                                                    
                                                                                                    
                                                                                                    
                                                                                                    
                                                                                                    
                                                                                                    
                                                                                                    
                                                                                                    
                                                                                                    
                                                                                                    
                                                                                                    
                                                                                                    
                                                                                                    
                                                                                                    
                           
<?xpacket end="w"?></metadata>
<defs><style>.cls-1{clip-path:url(#clippath);}.cls-2{fill:none;}.cls-2,.cls-3{stroke-width:0px;}.cls-3{fill:#000001;}</style><clipPath id="clippath"><rect class="cls-2" width="64" height="64"/></clipPath></defs><g class="cls-1"><polygon class="cls-3" points="5.92 52.84 22.2 52.84 23.7 28.06 13.98 28.06 5.92 52.84"/><path class="cls-3" d="m9,32v-5.9l-4.05-.81c-.27-.09-.23-.26-.21-.31h42.53s.06.22-.21.31l-4.05.81v5.89h5.98v-7.01h3v-5.98H0v5.98h3.02v7.02h5.98Z"/><polygon class="cls-3" points="25.14 4.13 21.77 4.13 17.58 17 24.38 17 25.14 4.13"/><polygon class="cls-3" points="34.42 17 30.23 4.13 26.86 4.13 27.62 17 34.42 17"/><path class="cls-3" d="m40.04,34.3l-2.03-6.24h-9.71l1.49,24.78h4.04c-.02-1-.03-1.97-.03-2.84,0-3.22.11-7.68.61-10.7.42-2.51,2.38-4.47,4.89-4.89.24-.04.49-.07.74-.11Z"/><path class="cls-3" d="m62.43,39.83c-.2-1.17-1.09-2.07-2.26-2.26-3.39-.57-9.04-.57-10.17-.57s-6.78,0-10.17.57c-1.17.2-2.07,1.09-2.26,2.26-.57,3.39-.57,9.04-.57,10.17s0,6.78.57,10.17c.2,1.17,1.09,2.07,2.26,2.26,3.39.57,9.04.57,10.17.57s6.78,0,10.17-.57c1.17-.2,2.07-1.09,2.26-2.26.57-3.39.57-9.04.57-10.17,0-3.39,0-6.78-.57-10.17Zm-11.1,17.17c-2.97,0-5.07-1.45-5.68-4.62h-1.45v-1.62h1.28v-.45c0-.38,0-.79.04-1.15h-1.33v-1.65h1.58c.77-3.21,2.95-4.83,5.92-4.83.83,0,1.5.06,2.39.26v2.24c-1.05-.19-1.6-.28-2.46-.28-1.62,0-2.69.88-3.16,2.61h3.89v1.65h-4.17c-.02.3-.02.6-.02.9,0,.26,0,.49.02.71h4.17v1.62h-3.91c.49,1.75,1.65,2.48,3.06,2.48,1,0,1.58-.09,2.69-.32v2.11h0c-1.18.28-1.73.34-2.86.34Z"/></g></svg>