<?xml version="1.0" encoding="UTF-8"?><svg id="Laag_1" xmlns="http://www.w3.org/2000/svg" xmlns:xlink="http://www.w3.org/1999/xlink" viewBox="0 0 64 64"><defs><style>.cls-1{fill:none;}.cls-2{clip-path:url(#clippath);}.cls-3{clip-path:url(#clippath-1);}</style><clipPath id="clippath"><rect class="cls-1" width="64" height="64"/></clipPath><clipPath id="clippath-1"><rect class="cls-1" width="64" height="64"/></clipPath></defs><g class="cls-2"><g class="cls-3"><path d="M49.5,41c-3.04,0-5.5,2.46-5.5,5.5s2.46,5.5,5.5,5.5,5.5-2.46,5.5-5.5-2.46-5.5-5.5-5.5"/><path d="M18.5,41c-3.04,0-5.5,2.46-5.5,5.5s2.46,5.5,5.5,5.5,5.5-2.46,5.5-5.5-2.46-5.5-5.5-5.5"/><path d="M60.17,29.5c-3.61-5.76-7.9-11.45-10.51-14.81-1.97-2.53-4.05-2.69-6.98-2.69H8.39c-1.18,0-2.2,1-2.25,2.3-.02,.42-.15,3.43-.31,7.35l-2.96,.37c-.55,.07-.94,.57-.87,1.11,.06,.5,.49,.88,.99,.88H15.3c.03,.08,.11,.35-.4,.49-.43,.12-7.13,1.24-9.25,1.6-.09,2.12-.17,4.31-.26,6.4l-3.49,.46c-.56,.07-.97,.58-.9,1.14,.06,.51,.49,.9,1.01,.9H11.98c.03,.07,.08,.32-.3,.45-.29,.1-4.48,.93-6.45,1.31-.13,3.3-.21,5.83-.21,6.47,0,1.58,1.29,2.77,2.81,2.77h2.99c.26-4.01,3.6-7.2,7.68-7.2s7.41,3.19,7.67,7.2h15.65c.26-4.01,3.6-7.2,7.67-7.2s7.42,3.19,7.67,7.2h1.01c2.78,0,4.74-2.26,4.74-5.04,0-3.46-.36-7.63-2.76-11.46m-7.52,.5h-10.65v-11h5.87c.83,0,1.61,.39,2.11,1.05,1.45,1.93,3.02,4.1,4.57,6.36,1.04,1.52-.05,3.58-1.89,3.58"/></g></g></svg>