<?xml version="1.0" encoding="UTF-8"?><svg id="Laag_1" xmlns="http://www.w3.org/2000/svg" xmlns:xlink="http://www.w3.org/1999/xlink" viewBox="0 0 64 64"><defs><style>.cls-1{fill:none;}.cls-2{clip-path:url(#clippath);}.cls-3{clip-path:url(#clippath-1);}</style><clipPath id="clippath"><rect class="cls-1" width="64" height="64"/></clipPath><clipPath id="clippath-1"><rect class="cls-1" width="64" height="64"/></clipPath></defs><g class="cls-2"><g class="cls-3"><path d="M32.67,6.77l7.99-2.79c.45-.16,.45-.79,0-.94L32.67,.23c-.33-.11-.67,.13-.67,.47V6.3c0,.34,.34,.59,.67,.47"/><path d="M54,37l1.63-.54c.82-.27,1.37-1.04,1.37-1.9v-5.32c0-.75-.42-1.44-1.08-1.78-3.74-1.92-16.27-8.8-23.12-18.3-.39-.54-1.21-.54-1.6,0-6.85,9.5-19.38,16.38-23.12,18.3-.67,.34-1.08,1.03-1.08,1.78v5.01c0,.74,.4,1.41,1.05,1.76,1.38,.74,3.88,1.54,6.11-.69,0,0,3.25,4.77,11.33,.63,0,0,.77,.15,.03,.89-1.05,1.05-6.31,4.91-11.61,1.26,0,0-1.72,1.16-4.27,1.23-2.05,13.12-4.65,18.67-4.65,18.67H22c6,0,10-16,10-16,0-.16,4,16,10,16h17s-2.91-6.2-5-21m-29.05-9H13.34c4.82-2.8,12.18-7.65,17.71-13.88-.91,3.04-3.38,10.64-6.1,13.88m14.1,0c-2.72-3.24-5.18-10.84-6.1-13.88,5.53,6.23,12.89,11.09,17.71,13.88h-11.61Z"/></g></g></svg>