<?xml version="1.0" encoding="UTF-8"?><svg id="Laag_1" xmlns="http://www.w3.org/2000/svg" xmlns:xlink="http://www.w3.org/1999/xlink" viewBox="0 0 64 64"><defs><style>.cls-1{fill:none;}.cls-2{clip-path:url(#clippath);}.cls-3{clip-path:url(#clippath-1);}</style><clipPath id="clippath"><rect class="cls-1" width="64" height="64"/></clipPath><clipPath id="clippath-1"><rect class="cls-1" width="64" height="64"/></clipPath></defs><g class="cls-2"><g class="cls-3"><path d="M22.38,20.44c1.89-.48,2.66-2.08,2.18-3.99-.55-2.17-1.99-3.05-3.83-2.59-1.94,.49-2.64,2.13-2.15,4.09,.52,2.07,1.91,2.96,3.8,2.48"/><path d="M34,11.58c2.17,0,3.93-1.76,3.93-3.92s-1.76-3.93-3.93-3.93-3.93,1.76-3.93,3.93,1.76,3.92,3.93,3.92"/><path d="M19.06,25.61c.28,4.81,.39,5.65,2.18,11,0,0-1.27,.77-2.03,1.29-1.37,.93-2,2.39-1.23,3.85h0c1.21-.65,4.64-2.48,5.79-3.1,.54-.29,.86-.9,.76-1.53-.06-.35-.32-1.94-.55-3.4,.48,.36,1.21,.89,3.25,2.39-.07,1.22-.17,2.92-.17,4.18,0,1.97,.83,2.83,2.49,3.22,0,0,.66-5.57,1-8.39,.06-.51-.13-1.03-.54-1.39-1.44-1.28-2.61-2.34-3.46-3.12-.6-3.99-.43-5.45-.43-5.45,3.18-2.29,4.27-5.76,3.72-9.4-.23-1.47-1.2-2.44-2.63-2.01,1.27,4.26,.43,7.92-4.68,8.56-4.74,.59-7.49-2.03-7.24-6.92h0c-1.38-.04-2.11,1.29-2.02,2.67,.22,3.76,2.44,6.38,5.82,7.55"/><path d="M41.99,20.53c1.51,.24,2.64-.44,3.21-1.67,.32,.48,.92,1.08,1.86,.85,1.4-.34,1.18-1.42,2.94-1.03,.14,.03,.25-.13,.15-.24-.51-.55-1.63-1.53-3-1.41-.75,.06-1.24,.28-1.58,.51,.27-2.11-.7-3.43-2.53-3.71-1.98-.31-3.27,.93-3.58,2.93-.33,2.11,.6,3.47,2.53,3.77"/><path d="M53,27.4c-1.98-.37-3.43-.93-4.72-1.74-3.06-1.91-2.74-3.1-5.12-3.63-2.6-.58-4.43,.59-6.38-2.94-.67-1.21-1.23-2.94-1.72-5.43-1.41,.37-1.94,1.62-1.59,3.28,.64,3.02,1.68,5.91,4.43,7.67-.71,2.11-1.91,5.99-2.51,9.79-.06,.4,.25,.72,.65,.72h1.51c-.14,.89-.22,1.66-.25,1.85-.09,.63,0,1.06,.16,1.54,.49,1.52,1.61,4.63,2.02,5.81h0c1.56-.54,2.01-1.64,1.56-3.49-.45-1.84-.79-3.3-.79-3.3l.73-2.4h.68c.1,.64,.19,1.19,.22,1.36,.07,.44,.32,.84,.72,1.1,5.24,3.4,4.06,2.64,5.6,3.64h0c1.03-1.34,.29-2.47-.77-3.65-.62-.68-1.19-1.26-1.61-1.66l-2.54-.5c-.21-.07-.18-.25-.16-.29h3.12c.41,0,.72-.37,.64-.78l-1.46-7.66c1.51,1.29,2.81,2.03,4.34,2.24,1.61,.22,3-.05,3.26-1.53"/><path d="M52.79,44.72c-2.77,.95-6.37,2.41-9.22,3.61,.07,.43,.08,.89,.01,1.38-.41,2.81-2.82,4.58-6.24,4.74-7.73,.36-12.53-1.56-13.53-1.96-.29-.12-.32-.26-.29-.39h.01c5.6,.95,9.12,1.11,13.46,.41,3.3-.53,4.49-2.11,4.46-3.41-.03-1.27-.93-2.04-2.95-2.11-6.89-.24-10.92-1.01-16.82-1.87-4.1-.6-8.06,.47-11.43,2.63-3.16,2.03-4.04,2.98-4.04,2.98l5.79,11.14,7.48-3.04c.85-.35,1.78-.45,2.69-.3l10.26,2.28c2.29,.38,4.64-.06,6.64-1.22l20.48-12.85s-1.01-4.02-6.76-2.04"/></g></g></svg>