<?xml version="1.0" encoding="UTF-8"?><svg id="Laag_1" xmlns="http://www.w3.org/2000/svg" xmlns:xlink="http://www.w3.org/1999/xlink" viewBox="0 0 64 64"><defs><style>.cls-1{fill:none;}.cls-2{clip-path:url(#clippath);}.cls-3{clip-path:url(#clippath-1);}</style><clipPath id="clippath"><rect class="cls-1" width="64" height="64"/></clipPath><clipPath id="clippath-1"><rect class="cls-1" width="64" height="64"/></clipPath></defs><g class="cls-2"><g class="cls-3"><path d="M50,7H28.83c-.53,0-1.04,.21-1.42,.59l-14.83,14.83c-.38,.38-.59,.88-.59,1.42v31.17c0,1.1,.9,2,2,2H50c1.1,0,2-.9,2-2V9c0-1.1-.9-2-2-2m-3,45H17V25.29l-3.15-.93c-.34-.11-.22-.36-.22-.36h14.37c.55,0,1-.45,1-1V8.63s.25-.11,.36,.23l.93,3.13h16.71V52Z"/><polygon points="41.98 41 45 31 42.65 31 40.58 38.27 38.5 31 36 31 38.98 41 41.98 41"/><path d="M28.24,34.02c0,1.27,.66,2.16,1.9,2.57l1.19,.4c1.18,.39,1.28,.71,1.28,1.11,0,.59-.74,1-1.81,1-.84,0-1.51-.06-2.39-.22l-.29-.05v1.96l.2,.03c.85,.15,1.53,.17,2.41,.17,2.48,0,4.09-1.26,4.09-3.22,0-1.32-.69-2.15-2.18-2.61l-1.18-.37c-.86-.27-1.04-.57-1.04-.97,0-.59,.6-.93,1.65-.93,.69,0,1.24,.05,1.95,.18l.27,.05,.15-1.9-.21-.04c-.64-.13-1.34-.19-2.07-.19-2.38,0-3.92,1.19-3.92,3.02"/><path d="M24.68,32.97c.69,0,1.02,.01,1.77,.14l.26,.04,.17-1.92-.21-.04c-.72-.14-1.23-.19-1.94-.19-3.13,0-5.15,2.07-5.15,5.27,0,2.92,1.88,4.73,4.91,4.73,.98,0,1.36-.06,2.19-.23l.19-.04v-1.87l-.29,.05c-.79,.14-1.21,.18-1.98,.18-1.25,0-2.7-.78-2.7-2.99s1.42-3.13,2.76-3.13"/></g></g></svg>