<?xml version="1.0" encoding="UTF-8"?><svg id="Laag_1" xmlns="http://www.w3.org/2000/svg" xmlns:xlink="http://www.w3.org/1999/xlink" viewBox="0 0 64 64"><defs><style>.cls-1{fill:none;}.cls-2{clip-path:url(#clippath);}.cls-3{clip-path:url(#clippath-1);}</style><clipPath id="clippath"><rect class="cls-1" width="64" height="64"/></clipPath><clipPath id="clippath-1"><rect class="cls-1" width="64" height="64"/></clipPath></defs><g class="cls-2"><g class="cls-3"><path d="M48,54c-1.11,0-2,.9-2,2s.89,2,2,2,2-.89,2-2-.9-2-2-2"/><path d="M41,49c-1.11,0-2,.9-2,2s.89,2,2,2,2-.89,2-2-.9-2-2-2"/><path d="M32.5,54c-1.38,0-2.5,1.12-2.5,2.5s1.12,2.5,2.5,2.5,2.5-1.12,2.5-2.5-1.12-2.5-2.5-2.5"/><path d="M57.36,19.21l-13.22-13.22c-.78-.78-2.05-.78-2.83,0L6.08,41.16c-2.7,2.7-2.7,7.1,0,9.8l3.99,3.99c1.31,1.31,3.05,2.03,4.9,2.03h4.63c1.85,0,3.59-.72,4.9-2.03L57.36,22.04c.78-.78,.78-2.05,0-2.83M21.68,52.12c-.55,.55-1.29,.86-2.07,.86h-4.63c-.78,0-1.52-.3-2.07-.86l-3.99-3.99c-1.14-1.14-1.14-3,0-4.15l13.24-13.24,10.45,10.45-10.93,10.93Z"/></g></g></svg>