<?xml version="1.0" encoding="UTF-8"?><svg id="Laag_1" xmlns="http://www.w3.org/2000/svg" xmlns:xlink="http://www.w3.org/1999/xlink" viewBox="0 0 64 64"><defs><style>.cls-1{fill:none;}.cls-2{clip-path:url(#clippath);}.cls-3{clip-path:url(#clippath-1);}</style><clipPath id="clippath"><rect class="cls-1" width="64" height="64"/></clipPath><clipPath id="clippath-1"><rect class="cls-1" width="64" height="64"/></clipPath></defs><g class="cls-2"><g class="cls-3"><path d="M26.26,17.43l2.14,.74c.03,2.45,1.34,3.83,3.6,3.83s3.56-1.57,3.6-3.83l2.15-.74c.27-.09,.26-.48-.02-.55l-1.61-.44c-.56-.16-.82-.8-.53-1.3l1.44-2.47c.15-.26-.15-.55-.41-.39l-2.25,1.44c-.51,.33-1.2,.05-1.34-.54l-.74-3.15c-.07-.3-.49-.3-.56,0l-.74,3.15c-.14,.59-.82,.87-1.34,.54l-2.25-1.44c-.26-.16-.56,.13-.41,.39l1.44,2.47c.29,.5,.03,1.15-.53,1.3l-1.61,.44c-.27,.08-.29,.46-.02,.55"/><path d="M47.15,30.96l-4.62-3.19c-.22-.15-.52-.1-.69,.11l-1.52,2.05s-1.31-3.5-3.75-4.75c-2.44-1.25-5.07,0-7.44-1.81-1.96-1.5-1.4-3.29-4.05-4,0,0-1.2-1.81-1.2-6.69,0-1.14-.25-2.02-.57-2.69h1.19c.28,0,.5-.22,.5-.5v-1c0-.28-.22-.5-.5-.5h-1.4c.43-.52,.8-1.22,.89-2.16,.16-1.76-1.4-3.8-2.34-4.85-.17-.19-.48-.04-.44,.21,.37,2.47-2.21,2.6-2.21,4.64,0,.81,.47,1.56,1,2.16h-1.5c-.28,0-.5,.22-.5,.5v1c0,.28,.22,.5,.5,.5h1.07c-.14,.99-.18,2.85,1.37,3.12,0,0-.25,5.75,1.56,9.44,0,0-2.25,3-1.12,6.06,1.12,3.06,3.17,4.29,2.92,8.42,4.12-1.79,7.79-5.62,10.52-9.67,.15-.01,.17,.32,.06,.63-1.7,4.64-7.33,10.38-11.6,12.18,0,0-1.02,6.25,.98,9.75,5.32-3.93,9.42-10.98,12.62-18.25,.17-.02,.2,.18,.1,.63-1.95,9.73-7.16,16.46-13.79,21.49,0,0-.44,4.12-2.19,9.19h21s-1.56-4.44-2.38-12.94c0,0-2.84,1.79-6.1,2.68-.26,.07-.53,.02-.53-.12,0,0,6.32-3.9,7.77-6.43,0,0-1.42-4.19-1.53-9.77,0-.44,.1-.55,.22-.55l1.62,4.56,1.89-2.67c.51,.12,1.43,.13,2.24-1.02,.63-.89,.45-1.74,.15-2.35l1.93-2.74c.16-.23,.1-.54-.12-.7"/></g></g></svg>