<?xml version="1.0" encoding="UTF-8"?><svg id="Laag_1" xmlns="http://www.w3.org/2000/svg" xmlns:xlink="http://www.w3.org/1999/xlink" viewBox="0 0 64 64"><defs><style>.cls-1{fill:none;}.cls-2{clip-path:url(#clippath);}.cls-3{clip-path:url(#clippath-1);}</style><clipPath id="clippath"><rect class="cls-1" width="64" height="64"/></clipPath><clipPath id="clippath-1"><rect class="cls-1" width="64" height="64"/></clipPath></defs><g class="cls-2"><g class="cls-3"><path d="M55.65,34.3H8.35c-1.57,0-2.85,1.21-2.85,2.71v15.44H58.5v-15.44c0-1.5-1.28-2.71-2.85-2.71m-4.99,7.97H13.34c-1.5,0-2.71-1.21-2.71-2.71H53.37c0,1.5-1.21,2.71-2.71,2.71"/><path d="M35.91,31.13l.03,.61c.08,.79,.47,1.45,1.42,1.45h13.72c.82,0,1.4-.48,1.5-1.45l.04-.62c.09-1.62,.07-3.68-.04-4.96h0c-.03-.35-.06-.69-.1-1.02,.67-.9,2.75-4.07,2.32-8.53-.21-2.21-1.24-3.31-2.05-3.85-1.8-1.18-3.99-.66-4.56-.5-.5-1.09-2.18-1.89-4.2-1.89-1.27,0-2.42,.32-3.21,.83-.13,.08-.23,.16-.36,.26l2.87,.79c.2,.06,.2,.19,.15,.29h-6.76c-.29,0-.4,.38-.15,.53,.73,.45,1.71,1.11,2.2,1.62,.68,.72,.86,1.85,.9,2.22-1.28,1.1-4.2,5.23-3.72,14.19m12.99-16.39c.46-.13,1.69-.31,2.44,.2,.5,.33,.8,.98,.89,1.93,.17,1.76-.17,3.28-.6,4.44-.86-2.5-2.04-3.8-2.73-4.38v-2.19Zm-7.86,3.86l.11-.1h6.24l.11,.1c.72,.6,3.46,4.06,2.99,12.52h-12.42c-.48-8.46,2.26-11.92,2.98-12.52"/><path d="M12.46,32.11c1.61,0,3.17-1.37,2.84-2.99-.31-1.53-1.79-2.47-2.53-4.5-.09-.24-.2-.28-.32-.28s-.23,.03-.32,.28c-.74,2.03-2.22,2.96-2.52,4.5-.32,1.62,1.24,2.99,2.85,2.99m-.94-4.45c.23-.31,.48-.65,.72-1.03,0,.01,.02,.02,.02,.04-.31,1.1-.65,2.07-.65,2.76,0,.63,.45,1.31,.78,1.5-.05,0-.1,0-.14,0-.54,0-1.11-.27-1.45-.68-.23-.28-.31-.57-.25-.88,.11-.54,.49-1.06,.98-1.72"/><path d="M14.27,21.47c0-2.56,.01-2.56,4.17-2.56s4.17,0,4.17,4.35v9.68h3.64v-3.23h3.63c.75,0,1.35-.61,1.35-1.36v-8.72h-1.58v8.67s-.14,.04-.24-.23c-.03-.08-.2-1.25-.33-2.13h-2.83v-2.68c0-7.23-1.05-7.99-7.81-7.99s-7.81,1.24-7.81,6.19v1.48h3.64v-1.48Z"/></g></g></svg>