<?xml version="1.0" encoding="UTF-8"?><svg id="Laag_1" xmlns="http://www.w3.org/2000/svg" xmlns:xlink="http://www.w3.org/1999/xlink" viewBox="0 0 64 64"><defs><style>.cls-1{fill:none;}.cls-2{clip-path:url(#clippath);}.cls-3{clip-path:url(#clippath-1);}</style><clipPath id="clippath"><rect class="cls-1" width="64" height="64"/></clipPath><clipPath id="clippath-1"><rect class="cls-1" width="64" height="64"/></clipPath></defs><g class="cls-2"><g class="cls-3"><path d="M55.34,23c-.17-2.21-2.13-3.99-4.33-3.99h-9.01v-5.01c0-2.2-1.79-4-4-4h-12c-2.21,0-4,1.8-4,4v5.01H13.01c-2.2,0-4.17,1.79-4.33,3.99-.62,8.66-.62,17.34,0,26,.17,2.21,2.13,3.99,4.33,3.99H51.01c2.2,0,4.17-1.79,4.33-3.99,.62-8.66,.62-17.34,0-26M25.99,13.99h12.02v5.02h-12.02v-5.02Zm15.01,24.51c0,.28-.22,.5-.5,.5h-5.5v5.5c0,.28-.22,.5-.5,.5h-5c-.28,0-.5-.22-.5-.5v-5.5h-5.5c-.28,0-.5-.22-.5-.5v-5c0-.28,.22-.5,.5-.5h5.5v-5.5c0-.28,.22-.5,.5-.5h5c.28,0,.5,.22,.5,.5v5.5h5.5c.28,0,.5,.22,.5,.5v5Z"/></g></g></svg>