<?xml version="1.0" encoding="UTF-8"?><svg id="Laag_1" xmlns="http://www.w3.org/2000/svg" xmlns:xlink="http://www.w3.org/1999/xlink" viewBox="0 0 64 64"><defs><style>.cls-1{fill:none;}.cls-2{clip-path:url(#clippath);}.cls-3{clip-path:url(#clippath-1);}</style><clipPath id="clippath"><rect class="cls-1" width="64" height="64"/></clipPath><clipPath id="clippath-1"><rect class="cls-1" width="64" height="64"/></clipPath></defs><g class="cls-2"><g class="cls-3"><path d="M18.71,9.79c2.43,0,3.83-1.48,3.83-4.11,0-2.49-1.34-4.25-3.83-4.25s-3.83,1.48-3.83,4.25c0,2.43,1.4,4.11,3.83,4.11"/><path d="M24.54,12.03c-3.45-.65-5.54-.6-5.83-.6-1.8,0-5.36,.13-8.01,2.78-2.39,2.39-3.59,6-4.24,8.63-.96,3.83,.98,4.19,1.54,4.44v.02s2.45-9.27,5.31-10.54l.35,9.81-3.71,21.54s4.28,.91,5.06-2.96c.78-3.94,3.08-14.46,3.15-14.77,.08-.37,.35-.46,.56-.46s.48,.09,.56,.46c.07,.31,2.37,10.83,3.15,14.77,.77,3.88,5.06,2.96,5.06,2.96l-3.71-21.42,.37-10.6c1.26,.18,2.57,.45,3.84,.76-.01-1.05-.03-2.09-.03-3.1,.02-.27,.07-.52,.12-.76-1.25-.41-2.47-.75-3.53-.96"/><path d="M36.97,16.56s-1.45-.68-3.47-1.53c.03,1.35,.06,2.55,.08,3.43,1.43,.29,2.89-.49,3.38-1.9"/><path d="M43.5,19.98c2.66,0,4.2-1.88,4.2-4.57,0-3.08-1.61-4.73-4.2-4.73-2.73,0-4.21,1.95-4.21,4.73,0,2.92,1.54,4.57,4.21,4.57"/><path d="M54.72,10.42c0,.12-.23,9.02-.23,9.47-.71,.24-5.73,1.88-11,1.88s-10.26-1.64-10.98-1.88c0-.45-.23-9.35-.23-9.47-1.14,0-3.05,.74-3.23,3.33,0,2.17,.06,4.53,.06,6.69,0,1.55,.97,2.71,2.23,3.24,.91,.38,3.71,1.41,6.65,2V63.3c.16,0,4.12-.06,4.43-4.29,0,0,.62-16.34,.62-16.52,0-.18,.14-.42,.45-.42s.43,.24,.44,.42c0,.18,.62,16.4,.62,16.4,.24,4.31,4.19,4.4,4.44,4.41V25.69c2.94-.58,5.75-1.62,6.66-2,1.26-.53,2.23-1.69,2.23-3.24,0-2.16,.06-4.52,.06-6.69-.18-2.59-2.08-3.33-3.23-3.33"/></g></g></svg>