<?xml version="1.0" encoding="UTF-8"?><svg id="Laag_1" xmlns="http://www.w3.org/2000/svg" viewBox="0 0 64 64"><defs><style>.cls-1{fill:none;}</style></defs><rect class="cls-1" width="64" height="64"/><path d="m32,7c-13.81,0-25,11.19-25,25s11.19,25,25,25,25-11.19,25-25S45.81,7,32,7Zm-.34,11.64c5.06,0,8.23,3.17,8.23,9.11,0,5.2-3.04,8.84-8.23,8.84s-8.23-3.17-8.23-8.84c0-5.33,2.9-9.11,8.23-9.11Zm.34,34.36c-5.71,0-10.89-2.3-14.67-6.01.59-2.33,1.52-4.22,3.14-5.35,2.09-1.48,5.74-2.23,11.54-2.23s9.45.74,11.54,2.23c1.61,1.13,2.54,3.02,3.14,5.35-3.79,3.71-8.97,6.01-14.67,6.01Z"/></svg>