<?xml version="1.0" encoding="UTF-8"?><svg id="Laag_1" xmlns="http://www.w3.org/2000/svg" xmlns:xlink="http://www.w3.org/1999/xlink" viewBox="0 0 64 64"><defs><style>.cls-1{fill:none;}.cls-2{clip-path:url(#clippath);}.cls-3{clip-path:url(#clippath-1);}</style><clipPath id="clippath"><rect class="cls-1" width="64" height="64"/></clipPath><clipPath id="clippath-1"><rect class="cls-1" width="64" height="64"/></clipPath></defs><g class="cls-2"><g class="cls-3"><path d="M34.76,35.83c-.86-.65-1.01-1.76-1.13-2.99,1.97-2.2,3.43-4.85,3.93-8.36,1.88-.58,2.26-2.93,2.26-4.4s-.26-2.26-.78-2.5c-.25-.12-.5-.12-.72-.07,.19-3.05,.38-9.1-.89-11.37-1.39-2.48-3.24-3.13-6.47-2.32-2.12-1.12-3.56-2.23-7.26-1.22-2.58,.7-5.39,1.85-6.88,3.76-1.6,2.06-1.29,8.08-1.02,11.17-.24-.07-.52-.08-.8,.06-.53,.24-.78,1.04-.78,2.5s.38,3.82,2.26,4.4c.61,5.03,3.12,7.97,6.22,10.57,.82,.69,2.29,1.05,3.83,1.12,.14,.25,.14,.54-.41,.73-.92,.3-3.8,.73-6.9-.88-.03-.01-.04-.03-.07-.04-2.32,.62-10.32,2.91-12.82,5.53-2.91,3.06-4.05,14.5-4.05,14.5H31.05c-.02-.23-.05-.45-.05-.68v-3.66c0-.91,.17-1.81,.5-2.67-.33-.87-.5-1.76-.5-2.68v-3.66c0-2.65,1.39-5.01,3.76-6.84"/><path d="M45.85,44.73v.68h1.55v-.56c.31,.02,.67,.02,1.02,.02h.38v.54h1.52v-.62c2.78-.3,4.11-1.26,4.11-2.67,0-.55-.06-.78-.31-1.34h-2.06c.21,.52,.29,.78,.29,1.25,0,.62-.59,1.12-2.03,1.33v-1.76h-1.52v1.89c-.19,0-.38,.02-.61,.02-.27,0-.52-.01-.79-.02v-1.89h-1.55v1.75c-1.4-.21-2.13-.66-2.13-1.37,0-.41,.08-.65,.25-1.15h-2.17c-.17,.43-.23,.73-.23,1.12,0,1.42,1.44,2.42,4.28,2.78"/><path d="M48,54c7.85,0,14-3.38,14-7.68v-3.65c0-4.3-6.15-7.67-14-7.67s-14,3.37-14,7.67v3.65c0,.95,.31,1.85,.86,2.68-.55,.83-.86,1.72-.86,2.66v3.65c0,4.3,6.15,7.68,14,7.68s14-3.38,14-7.68v-3.65c0-.2-.03-.41-.05-.61-.72,.9-4.57,5.14-13.61,5.14-8.02,0-10.78-3.86-11.07-4.38-.12-.21-.2-.44-.08-.57,2.55,1.69,6.41,2.75,10.81,2.75m-11.3-11c0-2.84,5.06-5.15,11.3-5.15s11.3,2.31,11.3,5.15-5.06,5.15-11.3,5.15-11.3-2.31-11.3-5.15"/></g></g></svg>