<?xml version="1.0" encoding="UTF-8"?><svg id="Laag_1" xmlns="http://www.w3.org/2000/svg" xmlns:xlink="http://www.w3.org/1999/xlink" viewBox="0 0 64 64"><defs><style>.cls-1{fill:none;}.cls-2{clip-path:url(#clippath);}.cls-3{clip-path:url(#clippath-1);}</style><clipPath id="clippath"><rect class="cls-1" width="64" height="64"/></clipPath><clipPath id="clippath-1"><rect class="cls-1" width="64" height="64"/></clipPath></defs><g class="cls-2"><g class="cls-3"><path d="M42.76,23.82c1.91-.28,2.84-1.61,2.54-3.7-.28-1.98-1.54-3.22-3.5-2.94-1.86,.27-2.85,1.61-2.53,3.81,.28,1.93,1.58,3.1,3.49,2.83"/><path d="M37.01,36.86c.85-.43,3.25-1.31,3.7-2.15,.37-.71,.62-1.38,.84-2.01,.44,2.05,.75,3.14,1.15,4.97-1.5,.65-2.14,.93-3.62,1.53-.64,.26-1.23,.46-1.9,.95-.57,.43-1.24,1.52-1.11,3.35,.18,2.58,.68,6.85,1.03,9.38,.66-.06,2.11-.45,2.53-2.73,.25-1.36,.32-2.95,.27-6.35,.95-.37,2.19-.85,3.97-1.61,.53,3.56,.79,5.76,.97,6.64,.26,1.22,.86,2.12,1.29,2.79,1.3,2.03,3.23,4.48,4.56,6.44,.24-.22,1.96-1.99,.61-4.46-.82-1.5-2.63-4.29-2.63-4.29,0,0-.37-7.3-.46-7.68,0,0-1.5,.09-2.7,.2-.23,.02-.25-.16-.25-.16,0,0,1.74-.57,2.68-1.04,.79-.39,1.49-1.1,1.52-2.57,.02-1.19-1.04-6.43-1.35-8,.52,.35,1.78,1.23,2.05,1.8,.66,1.4,1.05,4.62,1.29,6.77,1.32-.25,2.01-1.42,2.01-2.68,0-1.13-.1-2.43-.27-3.56-.28-1.79-.56-2.28-1.28-3.11-1.18-1.34-3.52-3.16-4.77-3.94-2.27-1.41-6.14,.1-6.73,1.58-.23,.59-1.18,4.14-1.28,4.47-.21,.71-.26,1-.56,1.61-.28,.59-3.65,2.33-5.22,3.38,.26,.28,1.6,1.52,3.65,.47"/><path d="M51.5,60h-7.5v-3.9c0-1.16-.94-2.1-2.1-2.1h-7.9v-3.9c0-1.16-.94-2.1-2.1-2.1h-7.9v-3.9c0-1.16-.94-2.1-2.1-2.1h-7.9v-3.9c0-1.16-.94-2.1-2.1-2.1H2.5c-1.1,0-1.5,.9-1.5,2s.4,2,1.5,2h7.5v6h10v6h10v6h10v6h11.5c1.1,0,1.5-.9,1.5-2s-.4-2-1.5-2"/><path d="M15.5,7.7c1.92,.14,3.13-1.13,3.27-3.07,.16-2.21-.93-3.48-2.8-3.61-1.98-.14-3.14,1.19-3.28,3.18-.15,2.1,.88,3.37,2.81,3.5"/><path d="M7.89,23.11c.08-2.16,.23-5.4,.79-6.85,.23-.59,1.41-1.55,1.91-1.94-.18,1.5-.63,5.64-.74,7.18-.19,2.51,.77,5.14,1.82,8.23-2.06,.86-2.96,1.01-4.08,1.82-1.88,1.37-1.61,2.84-1.38,3.46,2.48-.68,5.35-1.45,7.8-2.31,1.27-.44,1.59-2.12,1.29-3.49-.21-.93-.42-1.9-.62-2.87,.96,1.16,4.03,4.54,4.03,4.54,0,0,.76,4.04,1.12,5.72,.6,2.75,3.06,2.95,3.39,2.96-.28-2.35-.59-5.84-.91-8.47-.1-.79-.25-1.86-.86-2.95-.41-.74-2.75-3.47-4.89-6.36,.25-1.68,.53-3.42,.8-5.31,.26,.62,.56,1.26,.98,1.95,.51,.81,2.97,1.5,3.84,1.87,2.12,.9,3.36-.44,3.6-.74-1.74-.99-5.11-2.4-5.45-2.99-.79-1.35-1.64-4.96-2.28-5.93-.76-1.16-4.66-2.66-6.83-1.08-1.19,.87-3.39,2.85-4.47,4.27-.65,.88-.9,1.39-1.05,3.2-.09,1.14-.09,2.44,0,3.57,.09,1.25,.86,2.38,2.2,2.53"/></g></g></svg>