<?xml version="1.0" encoding="UTF-8"?><svg id="Laag_1" xmlns="http://www.w3.org/2000/svg" xmlns:xlink="http://www.w3.org/1999/xlink" viewBox="0 0 64 64"><defs><style>.cls-1{fill:none;}.cls-2{clip-path:url(#clippath);}.cls-3{clip-path:url(#clippath-1);}</style><clipPath id="clippath"><rect class="cls-1" width="64" height="64"/></clipPath><clipPath id="clippath-1"><rect class="cls-1" width="64" height="64"/></clipPath></defs><g class="cls-2"><polygon points="32 6.13 41.12 18 59.94 18 52 3 32 3 12 3 4.06 18 22.88 18 32 6.13"/><g class="cls-3"><path d="M32,9.71l-8,10.29H7V60h12v-2h4v-2h4v-16h10v16h4v2h4v2h12V20h-17l-8-10.29Zm-10,41.29l-10,.06v-11.06h10v11Zm0-16H12v-11h10v11Zm10-19.25c1.54,0,2.79,1.2,2.79,2.75s-1.25,2.75-2.79,2.75-2.79-1.21-2.79-2.75,1.25-2.75,2.79-2.75m5,19.25h-10v-11h10v11Zm5-11h10v11h-10v-11Zm0,16h10v11.06l-10-.06v-11Z"/></g></g></svg>