<?xml version="1.0" encoding="UTF-8"?>
<svg id="Zwart" xmlns="http://www.w3.org/2000/svg" viewBox="0 0 64 64">
  <path d="M32.19,47.22c.12,1.4,1.13,2.73,3.02,2.73,7.17.26,12.83-3.26,12.76-11.31.02-3.93-.11-7.85-.48-11.77-.33-3.07-4.82-2.96-5,.14-.08,2.17-.29,7.72-.38,9.82-.08,4.87-.92,6.53-5.23,7-.01-6.81-.02-13.61-.22-20.45,8.61-2.29,8.12-7.9,6.61-17.64-.4-2.38-3.96-2.11-3.99.32,0,0-.03,5.44-.03,5.44-.08,2.63.54,5.67-2.67,6.52-.04.01-.08.02-.12.04-.2-4.37-.49-8.72-.95-13.04-.51-4.15-6.53-4.16-7.05,0-1.21,10.97-1.25,22.12-1.35,33.15-1.97-.33-3.28-.53-4.17-2.41-1.37-3.62-1-7.87-1.16-11.92l-.04-8.78c0-1.22-.92-2.28-2.16-2.41-1.33-.14-2.52.82-2.66,2.15-.46,4.48-.77,8.93-.83,13.44-.32,10.47,2.38,15.02,11,16.18,0,5.78.02,11.91.17,17.59h9.47c.08-3.4.13-6.85.15-10.26-.45.03-.9.05-1.34.03-1.52-.07-3.28-.75-3.7-2.86-.24-1.18,0-1.77.35-1.7Z"/>
</svg>