<?xml version="1.0" encoding="UTF-8"?><svg id="Laag_1" xmlns="http://www.w3.org/2000/svg" xmlns:xlink="http://www.w3.org/1999/xlink" viewBox="0 0 64 64"><defs><style>.cls-1{fill:none;}.cls-2{clip-path:url(#clippath);}.cls-3{clip-path:url(#clippath-1);}</style><clipPath id="clippath"><rect class="cls-1" width="64" height="64"/></clipPath><clipPath id="clippath-1"><rect class="cls-1" width="64" height="64"/></clipPath></defs><g class="cls-2"><g class="cls-3"><path d="M16.79,43.95c.14,.07,.32,.07,.46,0,5.5-2.73,5.65-7.64,3.31-8.63-2.38-1-3.54,1.15-3.54,1.15,0,0-1.16-2.16-3.54-1.15-2.35,.99-2.19,5.9,3.31,8.63"/><path d="M48,56h-4.87c5.79-3.46,9.69-9.78,9.69-17,0-7.71-4.44-14.39-10.88-17.66-.39,2.46-1.46,3.73-1.81,4.1-.29,.29-.57,.3-.66,.15,.32-.68,.54-1.81,.54-2.59,0-2.46-1.48-4.57-3.6-5.5l2.66-4.3-1.99-1.23,2.46-3.97,1.14,.7c.47,.29,1.09,.15,1.38-.32l.7-1.14c.34-.55-1.16-2.1-3.36-3.46-2.19-1.36-4.25-2.01-4.59-1.47l-.7,1.14c-.29,.47-.15,1.09,.32,1.38l1.14,.7-2.46,3.98-1.99-1.23-11.18,18.07-.35-.22c-.94-.58-2.17-.29-2.75,.65l-.79,1.28c-.34,.55,2.06,2.65,5.35,4.68,3.29,2.04,6.24,3.25,6.58,2.7l.79-1.28c.58-.94,.29-2.17-.65-2.75l-.23-.14,2.27-3.67c1.04,.87,2.38,1.4,3.85,1.4,1.75,0,3.33-.76,4.42-1.95,4.54,2.07,7.72,6.64,7.72,11.95,0,7.25-5.9,13.14-13.14,13.14-3.24,0-6.19-1.19-8.49-3.14h3.49v-4H11v4h4.93c1.69,2.87,4.08,5.29,6.94,7h-4.87c-1.66,0-3,1.34-3,3v3H51v-3c0-1.66-1.34-3-3-3m-14-31c-1.11,0-2-.89-2-2s.89-2,2-2,2,.9,2,2-.9,2-2,2"/></g></g></svg>