<?xml version="1.0" encoding="UTF-8"?><svg id="Laag_1" xmlns="http://www.w3.org/2000/svg" xmlns:xlink="http://www.w3.org/1999/xlink" viewBox="0 0 64 64"><defs><style>.cls-1{fill:none;}.cls-2{clip-path:url(#clippath);}.cls-3{clip-path:url(#clippath-1);}</style><clipPath id="clippath"><rect class="cls-1" width="64" height="64"/></clipPath><clipPath id="clippath-1"><rect class="cls-1" width="64" height="64"/></clipPath></defs><g class="cls-2"><g class="cls-3"><path d="M26.36,11.22c2.6,1.55,5.19,.62,6.75-2,1.78-2.99,1.15-5.53-1.38-7.03-2.67-1.59-5.23-.55-6.84,2.15-1.69,2.84-1.14,5.34,1.47,6.89"/><path d="M19.26,32.8l18.42,12.51c.25-.42,.6-1.03,1.02-1.72l-7.86-5.34c-.66-3.33-2.02-9.94-2.02-9.94-.64-5.65,1.55-8.93,.06-12.06-.74-1.56-5.09-5.57-9.34-5.43-1.98,.07-5.31,.83-8.28,1.53-.86,.22-1.22,.31-2.34,1.05-1.93,1.29-4.05,5.65-4.85,7.02-.99,1.71-.79,3.49,.36,5.12,0,0,.54-.8,1.32-1.9l9.21,6.26c0,.12-.19,.18-.46,.1-1.6-.48-4.93-1.54-4.93-1.54C7.64,34.32,1.04,54.18,.77,55c-1.39,4.14,1.78,6.17,2.27,6.46,.14-.31,7.69-17.05,10.7-23.74,1.43,2.7,4.16,7.88,4.16,7.88,.61,3.61,1.16,7.17,1.99,11.97,.79,4.58,4.97,4.43,5.15,4.42-.19-6.74-.26-9.69-.57-15.85-.13-1.73-2.44-7.21-5.2-13.33m5.69-3.89c.18,.94,1.07,4.53,1.66,6.46l-6.58-4.47c1.39-2.45,3.1-5.43,4.57-7.86,0,1.89,.16,4.56,.36,5.87m-13.94-12.02c.62-.32,2.51-.09,3.95,.15-1.56,2.67-2.98,5.73-3.91,7.77l-4.12-2.8c1.62-2.27,3.54-4.84,4.08-5.12"/><path d="M49.58,39.22c-1.75-2.05-3.73-2.63-5.53-.27-1.63,2.15-5.02,7.99-5.02,7.99,0,0-3.92,1.57-5.88,3.72-2.83,3.09-5.25,11.63-5.16,11.34H63.19s-7.01-15.03-13.61-22.78"/></g></g></svg>