<?xml version="1.0" encoding="UTF-8"?><svg id="Laag_1" xmlns="http://www.w3.org/2000/svg" xmlns:xlink="http://www.w3.org/1999/xlink" viewBox="0 0 64 64"><defs><style>.cls-1{fill:none;}.cls-2{clip-path:url(#clippath);}.cls-3{clip-path:url(#clippath-1);}</style><clipPath id="clippath"><rect class="cls-1" width="64" height="64"/></clipPath><clipPath id="clippath-1"><rect class="cls-1" width="64" height="64"/></clipPath></defs><g class="cls-2"><g class="cls-3"><path d="M15,47.22c-.53,.48-1.23,.78-2,.78-1.12,0-2.08-.62-2.6-1.53l.82,6.53h4.33l-.43-5.69s-.08-.06-.11-.09"/><polygon points="30.77 53 35.1 53 36.4 41 31.57 41 30.77 53"/><path d="M27.48,21.18c-1.45,0-3,.99-3,3.75,0,3.4,1.88,3.91,3,3.91,1.44,0,2.98-.98,2.98-3.74,0-2.53-1.06-3.92-2.98-3.92"/><path d="M63.51,22.29c-1.5-1.24-3.87-4.06-4.35-5.87,0,0,2.12-.12,2.59-1.13,.76-1.63-2.72-1.95-4.58-1.92,.61-.9,.88-1.38,1.42-2.34,.66-1.16-.92-2.29-1.81-1.3l-.03,.04c-.64,.71-1.1,1.23-1.86,1.93-3.8-.96-12.6,2.3-13.67,2.3H8.05c-1.9,0-3.58,1.77-3.8,3.8-.4,3.79-.89,10-1.11,12.12C.83,30.53,.04,32.95,.22,35.25c0,0,3.06,.77,4.79-.7,1.52-1.28,1.33-2.77,1.84-8.61,.22-2.56,.49-5.58,.72-7.78,.03-.31,.21-.55,.47-.67,0,4.8,0,13.21,0,15.46s-2.11,4.33-3.29,5.27c-.48,.38-.76,.96-.75,1.57l.83,13.22h4.16v-8.65c0-1.66,.62-2.75,1.14-3.34,.55,.53,1.17,.98,1.86,1.31v2.68c0,1.32,2,1.32,2,0v-2.08c.74,.1,1.26,.1,2,0v2.08c0,1.32,2,1.32,2,0v-2.68c1.45-.69,2.63-1.87,3.32-3.33h14.76c.96,.01,1.78,.69,1.96,1.63l2.37,12.38h4.33l-1.12-16.25,4.55-8.98c1.19-2.35,3.2-2.59,5.78-2.05l6.03,1.29c.44,.09,1.51,.37,3-1.33,1.2-1.38,1.14-2.89,.54-3.39M21.41,30.54l-.08,.02c-.97,.21-1.37,.27-2.51,.27-3.41,0-5.54-2.1-5.54-5.48,0-3.73,2.28-6.13,5.81-6.13,.81,0,1.39,.06,2.22,.22l.09,.02-.17,1.94-.11-.02c-.89-.15-1.3-.17-2.1-.17-2.06,0-3.39,1.55-3.39,3.94,0,2.78,1.79,3.77,3.32,3.77,.9,0,1.4-.05,2.33-.22l.12-.02v1.87Zm5.95,.32c-3.23,0-5.23-2.2-5.23-5.74,0-4.11,2.75-5.95,5.47-5.95,3.22,0,5.21,2.2,5.21,5.74,0,4.11-2.74,5.94-5.45,5.94m12.51,1.27h-5.77l-.26-1.32v-.02c.19-.82,.84-1.55,1.83-2.05l1-.51c.7-.37,.94-.62,.94-1.02,0-.44-.48-.69-1.28-.69-.71,0-1.27,.08-1.98,.27l-.13,.03v-1.66l.07-.02c.78-.21,1.54-.32,2.24-.32,1.85,0,2.91,.84,2.91,2.32,0,1.02-.64,1.83-1.85,2.34l-.91,.38c-.41,.18-.72,.39-.96,.66h4.13v1.62Z"/></g></g></svg>