<?xml version="1.0" encoding="UTF-8"?><svg id="Laag_1" xmlns="http://www.w3.org/2000/svg" xmlns:xlink="http://www.w3.org/1999/xlink" viewBox="0 0 64 64"><defs><style>.cls-1{fill:none;}.cls-2{clip-path:url(#clippath);}.cls-3{clip-path:url(#clippath-1);}</style><clipPath id="clippath"><rect class="cls-1" width="64" height="64"/></clipPath><clipPath id="clippath-1"><rect class="cls-1" width="64" height="64"/></clipPath></defs><g class="cls-2"><g class="cls-3"><path d="M57.86,42.65c-2.38-1.93-3.77-5.16-1.79-8.41,1.3-2.12,3.49-2.99,5.64-2.84,.47,.03,.62,.65,.22,.89-.89,.53-1.88,1.52-2,3.29-.22,3.35,3.72,4.99,3.72,4.99l-5.81,2.08Z"/><rect x="31" y="36" width="8" height="6"/><path d="M24.5,36c-2.49,0-4.5,2.02-4.5,4.5s2.01,4.5,4.5,4.5,4.5-2.01,4.5-4.5-2.02-4.5-4.5-4.5"/><path d="M45.5,36c-2.49,0-4.5,2.02-4.5,4.5s2.01,4.5,4.5,4.5,4.5-2.01,4.5-4.5-2.02-4.5-4.5-4.5"/><path d="M42,34v-13c0-.55-.45-1-1-1h-4l-6.55-3.28c-2.17-1.09-4.72-1.09-6.89,0l-4.31,2.16,3.64,.76c.32,.1,.27,.31,.25,.36H13c-.55,0-1,.45-1,1v13h3v6h-3v4h4c1.1,0,2-.9,2-2v-8h24Z"/><path d="M56.54,26.46l-1.9-6.33c-.38-1.27-1.55-2.14-2.87-2.14h-7.77v16h1.5c3.59,0,6.5,2.91,6.5,6.5,0,.17-.01,.33-.03,.5h5.03v-11.4c0-1.06-.16-2.12-.46-3.14m-8.54,1.54v-7h3.77l1.9,6.33c.07,.22,.1,.45,.15,.67h-5.81Z"/></g></g></svg>