<?xml version="1.0" encoding="UTF-8"?><svg id="Laag_1" xmlns="http://www.w3.org/2000/svg" xmlns:xlink="http://www.w3.org/1999/xlink" viewBox="0 0 64 64"><defs><style>.cls-1{fill:none;}.cls-2{clip-path:url(#clippath);}.cls-3{clip-path:url(#clippath-1);}</style><clipPath id="clippath"><rect class="cls-1" width="64" height="64"/></clipPath><clipPath id="clippath-1"><rect class="cls-1" width="64" height="64"/></clipPath></defs><g class="cls-2"><g class="cls-3"><path d="M41.23,38.74c-.15-1.11-.36-2.41-.55-3.48,1.79-2.17,2.89-4.41,3.25-6.7,1.33-1.22,2.07-3.17,2.07-5.56,0-.74,0-2.7-1.23-4.04,.12-1.35,.22-2.66,.22-3.88,2.23-.75,1.94-1.9,1.96-2.99,.05-3.06-2.39-6.71-16.95-8.8-10.32-1.48-12,3.01-12,5.87,0,2.2,.25,3.62,1.05,4.56-.1,1.84,0,3.78,.11,5.33-1.16,1.33-1.16,3.23-1.16,3.96,0,2.39,.74,4.33,2.06,5.55,.38,2.51,1.61,4.91,3.71,7.26-.11,.81-.23,1.75-.35,2.73-2.51,.74-9.67,3-12.03,5.57-2.87,3.12-4.39,14.89-4.39,14.89h12.85s-.24-3.24-2.53-2.97l-.89,1.31c-.78-.09-.01-2.25-.01-2.25,.32-.7-.87-2.03-1.77-1.28l-1.93,2.05c-1.65-.54-.26-2.03-1.65-2.63,.74-3.29,1.67-6.17,2.53-7.1,1.12-1.22,4.94-2.96,9.65-4.41,.49,3.99,4.12,7.57,7.32,10l1.77,1.34h0c.41,1.21,.02,2.75,1.73,2.75,2.51,0,2.33-1.9,2.42-3.13,.09-1.25,1.9-1.2,2.54-.28,.44,.64,.51,1.14,1.36,1.26,.62,.09,2.37-.28,2.56-1.9,.19-1.63-.92-1.6-2.19-1.38-1.73,.3-1.87-1.8-.69-1.95,2.22-.28,2.36-1.36,2.54-1.82,.5-1.33-.66-2.26-1.76-2.89,.22-.59,.38-1.19,.48-1.82,2.22,.71,4.01,1.4,5.41,2.03-.98,1.06-2.37,2.76-1.8,3.41,.85,.97,2.84-.91,2.66,.55-.18,1.45-.67,2.48-1.94,2.96-1.27,.48-.55,3.9,2.45,2.68,3-1.23,3.68-1.42,3.42,1.07-.21,2.05,.83,1.82,1.91,1.05,.02,.11,.04,.23,.06,.34l.52,3h2.99s-1.51-11.76-4.39-14.89c-2.18-2.37-8.46-4.49-11.39-5.37m-6.23-30.03c0-.39,.31-.7,.68-.7h3.64c.38,0,.68,.31,.68,.7v3.3c0,.21-.09,.41-.25,.54l-1.82,1.54c-.25,.21-.61,.21-.86,0l-1.82-1.54c-.16-.13-.25-.33-.25-.54v-3.3Zm.72,27c-.78,.66-2.25,1.11-3.72,1.11-1.06,0-2.12-.29-2.93-.64,.61,.93,1.65,2.07,3.58,2.59,3.15,.83,5.46-.91,5.46-.91,0,0,.28,1.91,.27,2.42,.33,3.49-3.56,7.32-6.01,9.08-2.3-1.75-6.59-5.53-6.16-9.02,.24-1.91,.04-.55,.82-5.44-2.28-2.2-4.1-4.87-4.1-8.06-1.62-.5-2.04-2.55-2.04-3.82s.32-1.96,.77-2.17c.39-.19,.77-.05,1.01,.09,.14,.65,.25,1.14,.29,1.31,.21,.85,1.02,.77,1.02,.77v-7.52c1.18,.12,2.57,.2,4.22,.28,5.27,.24,9.05,.24,11.78,.08v7.17s.82,.08,1.02-.77c.04-.17,.15-.66,.29-1.31,.24-.14,.62-.27,1.01-.09,.45,.21,.77,.9,.77,2.17s-.42,3.32-2.04,3.82c0,3.7-2.53,6.5-5.34,8.88"/><rect x="38" y="56" width="11" height="3"/><path d="M18.03,50.89c-.45,.15-1.72-.08-1.62,.62,.02,.17,.12,.33,.21,.48,.45,.69,1.03,1.35,1.84,1.63,.58,.2,1.22,.19,1.8,.05,1.5-.34,2.82-1.3,4.39-.39,.26,.15,.49,.34,.76,.47,1.39,.68,1.26-1.19,1.01-1.93-.21-.63-.58-1.2-.95-1.77-.27-.41-.6-.85-1.1-.93-.38-.06-.74,.11-1.12,.11-.33,0-.57-.11-.76-.27-.31-.27-.49-.68-.72-1.04-.5-.78-1.05-1.53-1.71-2.21-.27-.28-.61-.57-1.01-.57-.36,0-.65,.25-.9,.48-.53,.49-1.08,1.01-1.29,1.68-.21,.67,.02,1.54,.71,1.86,.24,.11,.52,.15,.77,.25,.99,.37,.39,1.23-.32,1.46"/><path d="M30.34,56.48c-1.22-.42-1.54,1.88-2.92,.25-1.38-1.63-6.68-1.98-5.15,2.28h8.43s.85-2.1-.37-2.52"/><path d="M46.75,36.1c-.08,.13-.05,.27,.09,.32,.65,.24,1.88,.42,3.6,.53-.05,.44-.11,1.19-.19,1.58-.06,.28-.22,.52-.48,.62-.17,.06-.31,.15-.47,.24,2.05,.96,3.85,2.05,4.94,3.23,.92,1,1.69,2.58,2.33,4.38h6.43s-.06-3.91-1.25-5.17c-.41-.43-1.22-.9-2.11-1.33-1.17-.58-2.72-1.09-3.41-1.35-.27-.1-.43-.34-.48-.62-.06-.35-.12-1.07-.17-1.51,1.76-.07,2.96-.25,3.57-.48,.12-.05,.18-.15,.13-.27-.33-.72-1.19-2.9-1.3-4.14-.06-.63-.08-1.37-.11-2.12,.39-.07,2.24-.44,2.15-1.53-.17-1.88-8.54-7.13-11.51-4.84-1.06,.82-.08,2.49,.34,3.12-1.05,1.89-.77,4.15-.82,5.48-.04,1.04-.9,3.24-1.26,3.87"/><path d="M9.77,42.62c1.21-1.32,3.31-2.51,5.59-3.52-.53-.11-1.12-.19-1.38-.26-.29-.08-.47-.33-.54-.62-.1-.37-.13-.83-.13-.83,.76-.89,1.32-1.95,1.52-3.34,.76-.24,.92-1.2,.92-1.8s-.1-.93-.32-1.03c-.16-.07-.3-.04-.41,.01v-2.42c.93-.78,1.5-1.66,1.5-2.28,0-1.34-2.69-2.42-6-2.42s-6,1.08-6,2.42c0,.61,.57,1.5,1.5,2.28v2.39c-.1-.03-.22-.04-.34,.02-.21,.1-.32,.43-.32,1.03s.15,1.57,.92,1.8c.17,1.44,.72,2.46,1.47,3.31,0,0-.02,.43-.1,.85-.06,.3-.25,.56-.54,.64-1.2,.33-3.86,1.18-4.79,2.16-1.19,1.26-1.29,5.99-1.29,5.99H7.43c.65-1.8,1.42-3.38,2.33-4.38"/></g></g></svg>