<?xml version="1.0" encoding="UTF-8"?><svg id="Laag_1" xmlns="http://www.w3.org/2000/svg" xmlns:xlink="http://www.w3.org/1999/xlink" viewBox="0 0 64 64"><defs><style>.cls-1{fill:none;}.cls-2{clip-path:url(#clippath);}.cls-3{clip-path:url(#clippath-1);}</style><clipPath id="clippath"><rect class="cls-1" width="64" height="64"/></clipPath><clipPath id="clippath-1"><rect class="cls-1" width="64" height="64"/></clipPath></defs><g class="cls-2"><g class="cls-3"><path d="M48,32c-8.84,0-16,7.16-16,16s7.16,16,16,16,16-7.16,16-16-7.16-16-16-16m0,28.16c-6.7,0-12.16-5.45-12.16-12.16s5.45-12.16,12.16-12.16,12.16,5.45,12.16,12.16-5.46,12.16-12.16,12.16"/><path d="M55.61,47.84h.02l-7.14-.71-.56-7.81c-.06-.55-.45-.96-1-.96s-.96,.36-1,.96l-.67,9.19c0,.86,.66,1.57,1.5,1.65,.05,.03,8.84-.63,8.84-.63,.58-.06,1-.3,1-.85s-.39-.81-1-.85"/><path d="M16.04,18.98l-4.04,4.52v13.5H4v10.4c1.6,.04,3.53-.97,4.16-1.36l2-1.29,2.02,1.3c.59,.37,2.51,1.36,4.05,1.36,.55,0,1.14-.13,1.7-.3v-5.09l25.79-14.89-2.69-4.66-4.28,2.47V5.03l2.78-1.79c.79-.51,1.04-1.56,.56-2.37-.47-.81-1.5-1.11-2.33-.67L.52,19.53c-.38,.19-.57,.63-.45,1.04l1.58,5.65c.16,.58,.84,.84,1.35,.51l13.05-8.38s.28,.27-.01,.62m1.89-1.85L34.07,6.76V26.5l-16.14,9.32V17.13Z"/><path d="M28.37,49.42c-2.47,0-5.11-1.66-5.13-1.68l-.94-.6-.94,.6s-2.68,1.68-5.13,1.68-5.11-1.66-5.13-1.68l-.94-.6-.94,.6s-2.68,1.68-5.13,1.68c-.03,0-.06,0-.09,0v3.36s.06,0,.09,0c2.44,0,4.8-1.03,6.07-1.69,1.26,.66,3.63,1.69,6.07,1.69s4.81-1.03,6.07-1.69c1.26,.66,3.63,1.69,6.07,1.69,.42,0,.83-.04,1.24-.09-.27-1.07-.46-2.18-.54-3.32-.24,.03-.47,.05-.7,.05"/></g></g></svg>