<?xml version="1.0" encoding="UTF-8"?><svg id="Laag_1" xmlns="http://www.w3.org/2000/svg" xmlns:xlink="http://www.w3.org/1999/xlink" viewBox="0 0 64 64"><defs><style>.cls-1{fill:none;}.cls-2{clip-path:url(#clippath);}.cls-3{clip-path:url(#clippath-1);}</style><clipPath id="clippath"><rect class="cls-1" width="64" height="64"/></clipPath><clipPath id="clippath-1"><rect class="cls-1" width="64" height="64"/></clipPath></defs><g class="cls-2"><g class="cls-3"><path d="M56.24,46.16c.59-1.37,.84-2.4,.63-3.49-.24-1.22-2.25-2.22-5.23-2.78-.32-.06-.67-.11-1.01-.16h0c-.44-.07-.87-.33-1.14-.71-.2-.28-.32-.64-.36-1.05,.91-.37,1.55-1.27,1.55-2.31,0-1.38-1.12-2.5-2.5-2.5-.56,0-1.07,.19-1.49,.5,.25,1.55-.16,2.04-.16,2.04-.13,.16-.21,.13-.24,.1,0-.05,.01-.09,.01-.14,0-1.38-1.12-2.5-2.5-2.5s-2.5,1.12-2.5,2.5c0,1.05,.64,1.94,1.55,2.31-.04,.41-.15,.77-.35,1.05-.27,.38-.7,.64-1.14,.7h0c-.35,.06-.69,.11-1.02,.17-2.98,.56-4.99,1.56-5.23,2.78-.14,.74-.07,1.44,.17,2.24h.01c.11,.38,.26,.8,.45,1.25-1.3,2.63-2.44,6.34-2.41,9.31,.04,3.67,2.59,6.47,12.66,6.47s12.62-2.79,12.66-6.47c.03-2.71-.92-6.28-2.41-9.31m-10.87-8.57c.25-.21,.46-.46,.62-.75,.16,.29,.37,.54,.62,.75-.01,.73,.11,1.34,.29,1.84-.3,0-.6-.02-.91-.02s-.61,.01-.91,.02c.18-.5,.3-1.11,.29-1.84m3.82,19.38c-1.03,.24-1.52,.3-2.51,.3-2.6,0-4.44-1.27-4.98-4.05h-1.27v-1.42h1.12v-.39c0-.34,0-.69,.04-1.01h-1.16v-1.44h1.39c.67-2.81,2.58-4.23,5.19-4.23,.73,0,1.31,.06,2.1,.22v1.97c-.92-.17-1.4-.24-2.15-.24-1.42,0-2.36,.77-2.77,2.28h3.41v1.44h-3.65c-.02,.26-.02,.52-.02,.79,0,.23,0,.43,.02,.62h3.65v1.42h-3.43c.43,1.54,1.44,2.17,2.68,2.17,.88,0,1.39-.07,2.36-.28v1.85Z"/><path d="M20,43h12.06c.02-.3,.06-.6,.12-.9,.15-.78,.51-1.48,1.04-2.1h-13.22v3Z"/><path d="M20,34v3h18.48c-.11-.43-.18-.88-.18-1.34,0-.58,.09-1.13,.26-1.66H20Z"/><path d="M16,52V25.29l-3.15-.93c-.34-.11-.22-.36-.22-.36h14.37c.55,0,1-.45,1-1V8.63s.25-.11,.36,.23l.93,3.13h16.71V30.61h0c.69-.3,1.43-.46,2.19-.46,1.03,0,1.99,.29,2.81,.78V9c0-1.1-.9-2-2-2H27.83c-.53,0-1.04,.21-1.42,.59l-14.83,14.83c-.38,.38-.59,.88-.59,1.42v31.17c0,1.1,.9,2,2,2H30.47c-.08-.47-.12-.97-.13-1.49-.01-1.14,.12-2.33,.33-3.51h-14.67Z"/><rect x="20" y="28" width="22" height="3"/></g></g></svg>