<?xml version="1.0" encoding="UTF-8"?><svg id="Laag_1" xmlns="http://www.w3.org/2000/svg" xmlns:xlink="http://www.w3.org/1999/xlink" viewBox="0 0 64 64"><defs><style>.cls-1{fill:none;}.cls-2{clip-path:url(#clippath);}.cls-3{clip-path:url(#clippath-1);}</style><clipPath id="clippath"><rect class="cls-1" width="64" height="64"/></clipPath><clipPath id="clippath-1"><rect class="cls-1" width="64" height="64"/></clipPath></defs><g class="cls-2"><g class="cls-3"><path d="M10.04,49c-3.25-.02-5.02,2.27-5.04,5.55-.03,3.46,1.8,5.42,4.96,5.45,3.17,.02,5.02-2.18,5.04-5.38,.03-3.64-1.88-5.6-4.96-5.62"/><path d="M25.04,49c-3.25-.02-5.02,2.27-5.04,5.55-.03,3.46,1.8,5.42,4.96,5.45,3.17,.02,5.02-2.18,5.04-5.38,.03-3.64-1.88-5.6-4.96-5.62"/><path d="M22,42.62c.03-3.64-1.88-5.6-4.96-5.62-3.25-.02-5.02,2.27-5.04,5.55-.02,3.46,1.8,5.42,4.96,5.45,3.17,.02,5.02-2.18,5.04-5.38"/><path d="M37,42.62c.03-3.64-1.88-5.6-4.96-5.62-3.25-.02-5.02,2.27-5.04,5.55-.02,3.46,1.8,5.42,4.96,5.45,3.17,.02,5.02-2.18,5.04-5.38"/><path d="M51.45,28.74c-.15-.44-.45-.33-.45-.33v4.59h1.51c-.38-1.89-.79-3.48-1.06-4.26"/><path d="M4,4v29H38.91l.09-7.64c-4.02-.55-9.23-1.11-13-1.49-3.98-.4-4.16-3.7-4.16-3.7,7.25-.35,21.02-.69,28.19,.83,3.92,.83,5.69,6.21,6.7,12h3.27V4H4Zm40.95,14.12c-3.23,0-5.1-2-5.1-5.55s1.79-5.73,5.1-5.73,5.1,2,5.1,5.73c0,3.27-1.87,5.55-5.1,5.55"/><path d="M52,42.62c.03-3.64-1.88-5.6-4.96-5.62-3.25-.02-5.02,2.27-5.04,5.55-.03,3.46,1.79,5.42,4.96,5.45,3.17,.02,5.02-2.18,5.04-5.38"/><path d="M40.04,49c-3.25-.02-5.02,2.27-5.04,5.55-.03,3.46,1.79,5.42,4.96,5.45,3.17,.02,5.02-2.18,5.04-5.38,.03-3.64-1.88-5.6-4.96-5.62"/><path d="M54.04,49c-3.25-.02-5.02,2.27-5.04,5.55-.03,3.46,1.79,5.42,4.96,5.45,3.17,.02,5.02-2.18,5.04-5.38,.03-3.64-1.88-5.6-4.96-5.62"/></g></g></svg>