<?xml version="1.0" encoding="UTF-8"?><svg id="Laag_1" xmlns="http://www.w3.org/2000/svg" xmlns:xlink="http://www.w3.org/1999/xlink" viewBox="0 0 64 64"><defs><style>.cls-1{fill:none;}.cls-2{clip-path:url(#clippath);}.cls-3{clip-path:url(#clippath-1);}</style><clipPath id="clippath"><rect class="cls-1" width="64" height="64"/></clipPath><clipPath id="clippath-1"><rect class="cls-1" width="64" height="64"/></clipPath></defs><g class="cls-2"><g class="cls-3"><path d="M48.76,26.29c.3-.69,.1-1.87-1.04-2.09-.51-.1-1.47,0-2.32,.11-.66-2.37-1.8-6.21-2.47-6.91-.9-.93-4.04-1.4-10.92-1.4s-10.02,.47-10.92,1.4c-.67,.7-1.81,4.54-2.47,6.91-.85-.12-1.81-.21-2.32-.11-1.15,.22-1.34,1.41-1.04,2.09,.14,.33,.65,.99,1.46,1.54-1.32,1.77-1.7,3.31-1.7,6.16v7.81s0,2.73,.32,4.25c.12,.55,.63,.95,1.22,.95h4.39c.59,0,1.11-.39,1.22-.95,.18-.85,.26-2.19,.29-2.98l-4.17-.83c-.22-.07-.18-.21-.17-.25h27.77s.05,.18-.17,.25l-4.17,.83c.03,.8,.11,2.13,.29,2.98,.12,.55,.63,.95,1.22,.95h4.4c.59,0,1.11-.39,1.22-.95,.32-1.52,.31-4.25,.31-4.25v-7.81c0-2.86-.38-4.4-1.69-6.16,.81-.55,1.31-1.22,1.46-1.54m-25.66-7.07c.4-.2,3.33-.54,8.91-.54s8.51,.34,8.91,.54c.4,.67,1.66,5.02,2.02,6.77-1.99,.55-6.51,.92-10.93,.92s-8.94-.37-10.93-.92c.36-1.76,1.62-6.1,2.02-6.77m1.08,17.64l-4-.32c-1.09-.09-1.75-.95-1.95-1.9l-.17-1.15c-.1-.71,.63-1.31,1.34-1.11l3.24,.9c.7,.27,1.24,.82,1.47,1.51l.44,1.65c.06,.22-.14,.44-.38,.42m11.83,2.14h-8v-2h8v2Zm9.95-5.5l-.17,1.15c-.2,.95-.86,1.81-1.95,1.9l-4,.32c-.24,.02-.44-.2-.38-.42l.44-1.65c.23-.69,.76-1.24,1.46-1.51l3.24-.9c.72-.2,1.45,.4,1.35,1.11"/><path d="M55.94,23.71l-.99,1.74c3.61,2.07,6.05,5.95,6.05,10.41s-2.44,8.34-6.05,10.41l.99,1.74c4.21-2.41,7.06-6.94,7.06-12.15s-2.85-9.73-7.06-12.15"/><path d="M59,35.85c0-3.72-2.03-6.95-5.04-8.68l-.99,1.74c2.41,1.38,4.03,3.97,4.03,6.94s-1.63,5.56-4.03,6.94l.99,1.74c3.01-1.72,5.04-4.96,5.04-8.68"/><path d="M55,35.85c0-2.23-1.22-4.17-3.03-5.21l-1,1.75c1.2,.69,2.02,1.97,2.02,3.46s-.82,2.77-2.02,3.46l1,1.75c1.81-1.03,3.03-2.98,3.03-5.21"/><path d="M3,35.85c0-4.46,2.44-8.34,6.05-10.41l-.99-1.74c-4.21,2.41-7.06,6.94-7.06,12.15s2.85,9.73,7.06,12.15l.99-1.74c-3.61-2.07-6.05-5.95-6.05-10.41"/><path d="M7,35.85c0-2.97,1.63-5.56,4.03-6.94l-.99-1.74c-3.01,1.72-5.04,4.96-5.04,8.68s2.03,6.95,5.04,8.68l.99-1.74c-2.41-1.38-4.03-3.97-4.03-6.94"/><path d="M13.02,32.39l-1-1.75c-1.81,1.03-3.02,2.98-3.02,5.21s1.22,4.17,3.02,5.21l1-1.75c-1.2-.69-2.02-1.97-2.02-3.46s.82-2.77,2.02-3.46"/></g></g></svg>