<?xml version="1.0" encoding="UTF-8"?><svg id="Laag_1" xmlns="http://www.w3.org/2000/svg" xmlns:xlink="http://www.w3.org/1999/xlink" viewBox="0 0 64 64"><defs><style>.cls-1{fill:none;}.cls-2{clip-path:url(#clippath);}.cls-3{clip-path:url(#clippath-1);}</style><clipPath id="clippath"><rect class="cls-1" width="64" height="64"/></clipPath><clipPath id="clippath-1"><rect class="cls-1" width="64" height="64"/></clipPath></defs><g class="cls-2"><g class="cls-3"><path d="M46,4.99c-.07-1.67-1.44-2.99-3.12-2.99h0c-1.67,0-3.05,1.32-3.12,3l-.44,20.1c0,.44-.37,.8-.81,.8s-.81-.36-.81-.8l-.44-20.1c-.07-1.67-1.44-3-3.12-3h0c-1.67,0-3.05,1.32-3.12,2.99l-1.05,18.69c-1.03-1.45-2.46-1.87-4.17-1.55-1.22,.23-3.1,1.64-4.04,2.77-.72,.87-1.1,1.7-1.3,2.6-.58-.24-1.18-.35-1.76-.3-2.07,.18-3.8,3.02-4.38,4.76-.89,2.67,.4,6.97,1.49,9.32,.95,2.05,2.7,3.33,7.47,2.3,.02,.06,.07,.1-.16,.33-.26,.27-1.99,1.31-4.14,1.5,.83,6.64,3.41,11.25,4.05,12.34v5.24h19v-5s5-6.16,5-14.81c0-11.87-1-38.2-1-38.2m-6.69,29.69c-.07-.03-7.29-2.7-11.73-4.04-1.55-.47-3,1.01-2.48,2.53,1.56,4.59,8.3,7.6,12.46,9.48-2.08,.91-5.63,2-7.78,6.96-.04,0-.13-.15-.12-.34,.08-1.75,1.26-4.54,3.3-6.52l.03-.02c-5.38-2.68-8.67-5.68-9.77-8.93-1.04-3.06,1.84-6.03,4.95-5.09,4.49,1.36,11.77,4.05,11.84,4.08,1.24,.46,.54,2.34-.69,1.88"/></g></g></svg>