<?xml version="1.0" encoding="UTF-8"?><svg id="Laag_1" xmlns="http://www.w3.org/2000/svg" xmlns:xlink="http://www.w3.org/1999/xlink" viewBox="0 0 64 64"><defs><style>.cls-1{fill:none;}.cls-2{clip-path:url(#clippath);}.cls-3{clip-path:url(#clippath-1);}</style><clipPath id="clippath"><rect class="cls-1" width="64" height="64"/></clipPath><clipPath id="clippath-1"><rect class="cls-1" width="64" height="64"/></clipPath></defs><g class="cls-2"><g class="cls-3"><path d="M56,20c-.73,0-1.41,.1-2,.29v-3.29c0-2.21-1.79-3-4-3s-4,.79-4,3v16.2c-.06,.02-.26,.07-.36-.25-.07-.23-.66-3.24-.99-4.95H18v-11c0-2.21-1.79-3-4-3s-4,.79-4,3v9.2c-.06,.02-.26,.07-.36-.25-.09-.28-.99-4.94-1.18-5.93-.15,0-.3-.02-.45-.02-2.21,0-4,.79-4,3v18c0,2.21,1.79,3,4,3,.73,0,1.41-.1,2-.29v3.29c0,2.21,1.79,3,4,3s4-.79,4-3v-11h28v11c0,2.21,1.79,3,4,3s4-.79,4-3v-3.29c.59,.2,1.27,.29,2,.29,2.21,0,4-.79,4-3V23c0-2.21-1.79-3-4-3"/></g></g></svg>