<?xml version="1.0" encoding="UTF-8"?><svg id="Laag_1" xmlns="http://www.w3.org/2000/svg" xmlns:xlink="http://www.w3.org/1999/xlink" viewBox="0 0 64 64"><defs><style>.cls-1{fill:none;}.cls-2{clip-path:url(#clippath);}.cls-3{clip-path:url(#clippath-1);}</style><clipPath id="clippath"><rect class="cls-1" width="64" height="64"/></clipPath><clipPath id="clippath-1"><rect class="cls-1" width="64" height="64"/></clipPath></defs><g class="cls-2"><g class="cls-3"><path d="M56.35,30.05L32.68,8.26c-.38-.35-.97-.35-1.35,0L7.65,30.05c-.41,.38-.65,.91-.65,1.47v1.48c0,.55,.45,1,1,1h4v21h8v-6h-4v-8h10v8h-4v6h30v-21h4c.55,0,1-.45,1-1v-1.48c0-.56-.23-1.09-.65-1.47m-10.35,18.95H30v-15h16v15Z"/><polygon points="38.53 43.33 41.5 46.93 40.87 42.01 38.22 41.22 39.55 39.66 44 40.91 39.7 37.32 36.89 39.51 32.83 37.16 35.95 41.54 32.36 44.58 38.53 43.33"/></g></g></svg>