<?xml version="1.0" encoding="UTF-8"?><svg id="Laag_1" xmlns="http://www.w3.org/2000/svg" xmlns:xlink="http://www.w3.org/1999/xlink" viewBox="0 0 64 64"><defs><style>.cls-1{fill:none;}.cls-2{clip-path:url(#clippath);}.cls-3{clip-path:url(#clippath-1);}</style><clipPath id="clippath"><rect class="cls-1" width="64" height="64"/></clipPath><clipPath id="clippath-1"><rect class="cls-1" width="64" height="64"/></clipPath></defs><g class="cls-2"><g class="cls-3"><path d="M27.83,30.69c-.09-.02-.19-.03-.3,.02-.2,.09-.29,.39-.29,.93s.14,1.42,.84,1.64c.17,1.38,.72,2.33,1.46,3.13-.05,.48-.1,.94-.52,1.16-.92,.25-3.8,1.08-4.71,2.04-1.08,1.14-1.5,5.39-1.5,5.39h18.38s-.41-4.25-1.49-5.39c-.83-.88-3.41-1.66-4.56-1.97-.54-.15-.62-.69-.68-1.25,.73-.82,1.27-1.8,1.46-3.11,.7-.22,.84-1.09,.84-1.64s-.1-.84-.29-.93c-.09-.04-.19-.04-.27-.03,.07-1.14,.14-3.38-.33-4.23-.52-.92-1.2-1.16-2.4-.86-.78-.42-1.32-.83-2.7-.45-.96,.26-2,.69-2.56,1.4-.59,.77-.48,3-.38,4.15"/><path d="M50,7H28.83c-.53,0-1.04,.21-1.41,.59l-14.83,14.83c-.38,.38-.59,.88-.59,1.41v31.17c0,1.1,.9,2,2,2H50c1.1,0,2-.9,2-2V9c0-1.1-.9-2-2-2m-3,45H17V25.29l-3.15-.93c-.34-.11-.22-.36-.22-.36h14.37c.55,0,1-.45,1-1V8.63s.25-.11,.36,.23l.93,3.13h16.71V52Z"/></g></g></svg>