<?xml version="1.0" encoding="UTF-8"?><svg id="Laag_1" xmlns="http://www.w3.org/2000/svg" xmlns:xlink="http://www.w3.org/1999/xlink" viewBox="0 0 64 64"><defs><style>.cls-1{fill:none;}.cls-2{clip-path:url(#clippath);}.cls-3{clip-path:url(#clippath-1);}</style><clipPath id="clippath"><rect class="cls-1" width="64" height="64"/></clipPath><clipPath id="clippath-1"><rect class="cls-1" width="64" height="64"/></clipPath></defs><g class="cls-2"><rect x="8" y="36" width="48" height="23"/><g class="cls-3"><path d="M60.11,12.64c-.26-.49-.96-.5-1.26-.04-.88,1.39-1.75,2.7-2.27,3.33-.81,.97-2.15,2.82-3.69,1.92l-4.54-2.67c-1.54-.91-.7-3.08-.24-4.26,.31-.79,1.02-2.31,1.76-3.86,.23-.48-.11-1.04-.64-1.05-3.22-.06-5.91,1.65-7.8,4.87-3.59,6.09-.92,10.85,5.72,14.33-.03,.13-.17,.23-.47,.2-.55-.06-2.85-.41-5.89-2.21l-6.38,10.82h10.99l4.62-7.84c3.93,.75,7.19-.97,9.39-4.69,1.82-3.08,2.08-6.12,.68-8.83"/><path d="M12.65,23.74l8.26-3.06s.16,.25-.1,.45l-3.52,2.84,3.72,10.02h9.6l-5.53-14.88,4.69-1.74c.52-.19,.78-.77,.59-1.29-2.06-5.54-1.54-4.15-3.13-8.44-.19-.52-.77-.78-1.29-.59L8.82,13.42c-.23,.08-.41,.25-.53,.46l-3.31,6.03c-.29,.53-.05,1.2,.53,1.42l6.44,2.41c.23,.08,.47,.09,.7,0"/></g></g></svg>