<?xml version="1.0" encoding="UTF-8"?><svg id="Laag_1" xmlns="http://www.w3.org/2000/svg" xmlns:xlink="http://www.w3.org/1999/xlink" viewBox="0 0 64 64"><defs><style>.cls-1{fill:none;}.cls-2{clip-path:url(#clippath);}.cls-3{clip-path:url(#clippath-1);}</style><clipPath id="clippath"><rect class="cls-1" width="64" height="64"/></clipPath><clipPath id="clippath-1"><rect class="cls-1" width="64" height="64"/></clipPath></defs><g class="cls-2"><g class="cls-3"><path d="M58,12h-4v-4c0-1.1-.9-2-2-2H20.83c-4.87,0-9.83,1.89-9.83,7v8.44c-3.34,.81-6,2.82-6,6.56v25c0,2.76,2.24,5,5,5h22c1.1,0,2-.9,2-2V30c0-1.1-.9-2-2-2h-9v12l-4-3-4,3v-12h-4.33c-.55,0-.81-.49-.61-1.05,.61-1.73,3.76-1.95,4.88-1.95h23.05v29h6c1.1,0,2-.9,2-2V15c0-1.1-.9-2-2-2H16.67c-.55,0-.81-.49-.61-1.05,.61-1.73,3.76-1.95,4.88-1.95h29.05V48h2c1.1,0,2-.9,2-2V15h3v29h1c1.1,0,2-.9,2-2V14c0-1.1-.9-2-2-2"/></g></g></svg>