<?xml version="1.0" encoding="UTF-8"?><svg id="Laag_1" xmlns="http://www.w3.org/2000/svg" xmlns:xlink="http://www.w3.org/1999/xlink" viewBox="0 0 64 64"><defs><style>.cls-1{fill:none;}.cls-2{clip-path:url(#clippath);}.cls-3{clip-path:url(#clippath-1);}</style><clipPath id="clippath"><rect class="cls-1" width="64" height="64"/></clipPath><clipPath id="clippath-1"><rect class="cls-1" width="64" height="64"/></clipPath></defs><g class="cls-2"><g class="cls-3"><path d="M30.13,45.71c1.47-1.55,4.63-2.81,7.54-3.71H6V16H41v3.71c.54-.21,1.11-.4,1.74-.57,.86-.24,1.6-.32,2.26-.33v-4.81c0-1.1-.9-2-2-2H4c-1.1,0-2,.9-2,2v30c0,1.1,.9,2,2,2H29.9c.08-.1,.15-.2,.24-.29"/><path d="M59.36,47.23c-1.5-1.58-6.13-2.98-8.19-3.54-.97-.26-1.12-1.24-1.22-2.24,1.31-1.47,2.29-3.24,2.62-5.58,1.26-.39,1.51-1.96,1.51-2.93s-.17-1.51-.52-1.67c-.17-.08-.33-.08-.48-.05,.13-2.04,.25-6.07-.6-7.59-.93-1.66-2.16-2.09-4.31-1.55-1.41-.75-2.37-1.49-4.84-.82-1.72,.47-3.6,1.23-4.59,2.51-1.07,1.38-.86,5.39-.68,7.45-.16-.04-.35-.05-.53,.04-.35,.16-.52,.69-.52,1.67s.25,2.55,1.51,2.93c.3,2.47,1.29,4.18,2.61,5.61-.09,.86-.18,1.68-.93,2.09-1.65,.45-6.82,1.95-8.45,3.67-1.94,2.04-2.7,9.68-2.7,9.68H62.03s-.73-7.63-2.67-9.68"/><path d="M29.34,25.52h0c-.36,.13-1.03,.4-1.63,.69-.46,.22-.87,.46-1.08,.68-.23,.24-.37,.66-.47,1.1h9.67c-.1-.44-.24-.86-.47-1.1-.21-.22-.62-.46-1.08-.68-.6-.3-1.27-.56-1.63-.69-.14-.05-.22-.18-.25-.32-.03-.18-.06-.44-.09-.67,.9-.04,1.65-.13,1.96-.24,.06-.02,.09-.08,.07-.14-.17-.37-.61-1.59-.67-2.23-.14-1.57-.13-4.37-2.27-3.66,0,0-1.36-.87-2.47,.59-.78,1.02-.59,2.38-.62,3.13-.02,.53-.46,1.77-.65,2.09-.04,.07-.03,.14,.05,.16,.33,.12,1.09,.22,1.97,.27-.02,.22-.06,.5-.1,.7-.03,.14-.11,.27-.25,.32"/><path d="M20.5,26.54c-.49-.51-2-.97-2.67-1.15-.32-.09-.36-.4-.4-.73,.43-.48,.74-1.05,.85-1.82,.41-.13,.49-.64,.49-.96s-.06-.49-.17-.54c-.05-.03-.11-.03-.16-.01,.04-.66,.08-1.98-.19-2.47-.3-.54-.7-.68-1.4-.5-.46-.24-.77-.49-1.58-.27-.56,.15-1.17,.4-1.49,.82-.35,.45-.28,1.76-.22,2.43-.05-.01-.11-.02-.17,.01-.12,.05-.17,.23-.17,.54s.08,.83,.49,.96c.1,.8,.42,1.36,.85,1.83-.03,.28-.06,.55-.3,.68-.54,.14-2.22,.63-2.75,1.19-.26,.28-.46,.86-.6,1.46h10.19c-.14-.59-.33-1.18-.59-1.46"/><path d="M14.34,37.52h0c-.36,.13-1.03,.4-1.63,.69-.46,.22-.87,.46-1.08,.68-.23,.24-.37,.66-.47,1.1h9.67c-.1-.44-.24-.86-.47-1.1-.21-.22-.62-.46-1.08-.68-.6-.3-1.27-.56-1.63-.69-.14-.05-.22-.18-.25-.32-.03-.18-.06-.44-.09-.67,.9-.04,1.65-.13,1.96-.24,.06-.02,.09-.08,.07-.14-.17-.37-.61-1.59-.67-2.23-.14-1.57-.13-4.37-2.28-3.66,0,0-1.36-.87-2.47,.59-.78,1.02-.59,2.37-.62,3.13-.02,.54-.46,1.77-.65,2.09-.04,.07-.03,.14,.05,.16,.33,.12,1.09,.21,1.97,.27-.03,.22-.06,.5-.1,.7-.03,.14-.11,.27-.25,.32"/><path d="M36.09,40c-.14-.59-.33-1.18-.59-1.46-.49-.51-2-.97-2.67-1.15-.32-.09-.36-.41-.4-.73,.43-.48,.74-1.06,.85-1.82,.41-.13,.49-.64,.49-.96s-.06-.49-.17-.54c-.06-.03-.11-.03-.16-.01,.04-.66,.08-1.98-.19-2.47-.3-.54-.7-.68-1.4-.5-.46-.24-.77-.49-1.58-.27-.56,.15-1.17,.4-1.49,.82-.35,.45-.28,1.76-.22,2.43-.05-.01-.11-.02-.17,.01-.11,.05-.17,.23-.17,.54s.08,.83,.49,.96c.1,.8,.42,1.36,.85,1.83-.03,.28-.06,.55-.3,.68-.54,.15-2.22,.63-2.75,1.19-.26,.27-.46,.86-.59,1.46h10.19Z"/></g></g></svg>