<?xml version="1.0" encoding="UTF-8"?><svg id="Laag_1" xmlns="http://www.w3.org/2000/svg" xmlns:xlink="http://www.w3.org/1999/xlink" viewBox="0 0 64 64"><defs><style>.cls-1{fill:none;}.cls-2{clip-path:url(#clippath);}.cls-3{clip-path:url(#clippath-1);}</style><clipPath id="clippath"><rect class="cls-1" width="64" height="64"/></clipPath><clipPath id="clippath-1"><rect class="cls-1" width="64" height="64"/></clipPath></defs><g class="cls-2"><g class="cls-3"><path d="M50.29,26.32c.36-1.43,.62-2.57,1.36-5.41,1.06-4.07-.53-6.73-2.56-10.27-2.27-3.95-4.07-5.93-10.36-3.28-3.7-2.77-5.29-4.31-11.33-2.7-4.2,1.11-10.16,3.38-11.4,4.89-1.52,1.85-3.61,7.76-3.73,9.32-.2,2.67,.38,3.97,1.49,7.42-2.76,1.76-2.76,5.44-2.76,6.71,0,3.63,1.14,6.55,3.15,8.33,.7,5.26,3.82,10.24,9.48,15.13,2.65,2.29,6.73,2.54,8.36,2.54s5.71-.25,8.36-2.54c5.57-4.82,8.75-9.89,9.47-15.12,2.02-1.77,3.16-4.7,3.16-8.33,0-1.26,0-4.91-2.71-6.68m-4.29,12.68c0,6-4.14,10.98-8.25,14.53-1.2,1.04-3.47,1.56-5.74,1.56s-4.54-.52-5.75-1.56c-4.11-3.56-8.25-8.46-8.25-14.53-2.5-.79-3.1-4-3.1-6s.44-3.08,1.14-3.42c.21-.1,.42-.14,.62-.14,.48,0,.88,.22,1.11,.39,.53,2.24,.93,3.89,1,4.17,.25,1.03,1.23,.93,1.23,.93v-12.25c6.49,.04,15.2-3.61,20.86-7.51,.1,.04,.17,.21,.07,.39-.53,.95-1.81,2.54-3.44,4.11l6.52,3.3v11.96s.98,.09,1.23-.93c.07-.28,.46-1.93,1-4.17,.24-.17,.64-.39,1.11-.39,.2,0,.41,.04,.62,.14,.7,.33,1.14,1.42,1.14,3.42s-.6,5.21-3.1,6"/></g></g></svg>