<?xml version="1.0" encoding="UTF-8"?><svg id="Laag_1" xmlns="http://www.w3.org/2000/svg" xmlns:xlink="http://www.w3.org/1999/xlink" viewBox="0 0 64 64"><defs><style>.cls-1{fill:none;}.cls-2{clip-path:url(#clippath);}.cls-3{clip-path:url(#clippath-1);}</style><clipPath id="clippath"><rect class="cls-1" width="64" height="64"/></clipPath><clipPath id="clippath-1"><rect class="cls-1" width="64" height="64"/></clipPath></defs><g class="cls-2"><g class="cls-3"><path d="M45,26h-3V15c0-1.66-1.34-3-3-3h-.89c-2.87-3.47-3.11-6.63-3.11-8,0-1.5,.07-3-3-3s-3,1.5-3,3c0,1.37-.25,4.53-3.11,8h-.89c-1.66,0-3,1.34-3,3v9.21c2.03,.42,6.49,1.35,6.74,1.43,.32,.1,.27,.31,.25,.36h-9.99c-2.21,0-4,1.79-4,4v29c0,2.21,1.79,4,4,4h26c2.21,0,4-1.79,4-4V30c0-2.21-1.79-4-4-4m-3.22,16.37c.8,8.41-3.74,10.72-7.09,10.44-3.26-.28-5.25-2.94-4.38-5.53,1.01-2.99,4.08-2.24,4.17-1.33-1.88,.09-2.11,2.22-1.42,3.12,1,1.31,4.77,1.47,5-2.34,.23-3.81-2.25-5.73-5.76-5.23-4.18,.6-5.77,5.02-5.39,7.93,.41,3.17,3.16,5.64,6.19,5.99,4.05,.46,7.25-2.26,8.08-3.45-.85,5.91-10.67,9.2-15.88,2.11-2.71-3.68-1.24-6.63-3.78-7.7-1.39-.58-3.02,.02-3.02,.02,.83-1.95,2.67-3.34,5.29-2.07,1.55-3.94,3.02-4.78,4.87-6.64,2.1-2.12-.77-4.74-2.56-3.75-.92,.51-.64,1.95,.13,2.79-1.52,.64-4.02-2-2.32-4.34,1.07-1.47,3.02-1.76,4.91-1.25,2.69,.73,3.5,3.36,6.59,5.9,1.46,1.2,3.62,1.99,4.44-.18,.46-1.22-.96-2.89-.96-2.89,0,0,3.58,.18,4.82,3.76s-1.93,4.63-1.93,4.63"/></g></g></svg>