<?xml version="1.0" encoding="UTF-8"?><svg id="Laag_1" xmlns="http://www.w3.org/2000/svg" xmlns:xlink="http://www.w3.org/1999/xlink" viewBox="0 0 64 64"><defs><style>.cls-1{fill:none;}.cls-2{clip-path:url(#clippath);}.cls-3{clip-path:url(#clippath-1);}</style><clipPath id="clippath"><rect class="cls-1" width="64" height="64"/></clipPath><clipPath id="clippath-1"><rect class="cls-1" width="64" height="64"/></clipPath></defs><g class="cls-2"><g class="cls-3"><path d="M58.58,50.48L34.38,9.47c-.54-.91-1.52-1.47-2.58-1.47h-.01c-1.06,0-2.05,.57-2.58,1.49L5.41,50.49c-.54,.93-.54,2.07,0,3,.53,.93,1.53,1.5,2.6,1.5H56c1.08,0,2.07-.58,2.61-1.51,.53-.94,.53-2.09-.02-3.01m-45.37-1.48L31.81,16.94l18.93,32.06H13.21Z"/><polygon points="22 37 23 37 23 39 25 39 25 37 39 37 39 39 41 39 41 37 42 37 42 35 22 35 22 37"/><polygon points="31 29 29.38 29 27.61 34 30.72 34 31 29"/><polygon points="36.39 34 34.62 29 33 29 33.28 34 36.39 34"/><polygon points="23 47 30 47 30.5 38 26.19 38 23 47"/><polygon points="33.5 38 34 47 41 47 37.81 38 33.5 38"/></g></g></svg>