<?xml version="1.0" encoding="UTF-8"?><svg id="Laag_1" xmlns="http://www.w3.org/2000/svg" xmlns:xlink="http://www.w3.org/1999/xlink" viewBox="0 0 64 64"><defs><style>.cls-1{fill:none;}.cls-2{clip-path:url(#clippath);}.cls-3{clip-path:url(#clippath-1);}</style><clipPath id="clippath"><rect class="cls-1" width="64" height="64"/></clipPath><clipPath id="clippath-1"><rect class="cls-1" width="64" height="64"/></clipPath></defs><g class="cls-2"><g class="cls-3"><path d="M57,16h-1c-.55,0-1,.45-1,1v10c0,.55,.45,1,1,1h1c1.1,0,2-.9,2-2v-8c0-1.1-.9-2-2-2"/><path d="M8,16h-1c-1.1,0-2,.9-2,2v8c0,1.1,.9,2,2,2h1c.55,0,1-.45,1-1v-10c0-.55-.45-1-1-1"/><path d="M49.25,4.75c-.74-1.1-1.98-1.75-3.31-1.75H18.06c-1.33,0-2.57,.65-3.31,1.75-1.42,2.1-2.77,5.7-3.25,8.25-1,5.25-1.5,15-1.5,15v25s0,4.17,.41,5.91c.15,.63,.81,1.09,1.57,1.09h5.03c.76,0,1.42-.45,1.57-1.09,.25-1.05,.35-2.99,.39-4.36,0,0-5.4-1.13-5.58-1.17-.31-.08-.35-.26-.3-.38H50.91c.05,.14,0,.3-.31,.38-.18,.05-5.57,1.18-5.57,1.18,.04,1.37,.14,3.31,.39,4.36,.15,.63,.81,1.09,1.57,1.09h5.03c.76,0,1.42-.45,1.57-1.09,.41-1.74,.41-5.91,.41-5.91V28s-.42-7.92-1.5-15c-.39-2.56-1.84-6.15-3.25-8.25M15.43,13.89c.1-.5,.48-.89,.99-.89h31.15c.51,0,.91,.38,.99,.89,.68,4.11,1.26,9.11,1.33,13.02,0,.59-.41,1.09-1,1.09H15.1c-.59,0-1.01-.5-1-1.09,.06-3.66,.65-9.66,1.33-13.02m4.57,35.11c0,.55-.45,1-1,1h-5c-.55,0-1-.45-1-1v-3c0-.55,.45-1,1-1h5c.55,0,1,.45,1,1v3Zm21-4H23l-.4-2h18.8l-.4,2Zm.8-4H22.2l-.4-2h20.4l-.4,2Zm.8-4H21.4l-.4-2h22l-.4,2Zm8.4,12c0,.55-.45,1-1,1h-5c-.55,0-1-.45-1-1v-3c0-.55,.45-1,1-1h5c.55,0,1,.45,1,1v3Z"/></g></g></svg>