<?xml version="1.0" encoding="UTF-8"?><svg id="Laag_1" xmlns="http://www.w3.org/2000/svg" xmlns:xlink="http://www.w3.org/1999/xlink" viewBox="0 0 64 64"><defs><style>.cls-1{fill:none;}.cls-2{clip-path:url(#clippath);}.cls-3{clip-path:url(#clippath-1);}</style><clipPath id="clippath"><rect class="cls-1" width="64" height="64"/></clipPath><clipPath id="clippath-1"><rect class="cls-1" width="64" height="64"/></clipPath></defs><g class="cls-2"><g class="cls-3"><path d="M25.77,40.35c-1.62-.93-4.12-1.71-5.46-2.06-.38-.11-.63-.44-.74-.81-.14-.48-.18-1.09-.18-1.09,1-1.16,1.75-2.55,2-4.37,.89-.28,1.15-1.3,1.2-2.07,1.44-.21,2.88-.47,4.3-.82,.45-.12,.67-.73,.33-.96-3.61-2.52-7.3-7.05-10.99-11.22-.27-.3-.67-.3-.94,0-3.69,4.17-7.38,8.7-10.99,11.22-.34,.23-.13,.85,.33,.96,1.41,.35,2.83,.6,4.26,.82,.05,.78,.3,1.8,1.2,2.08,.23,1.88,.96,3.22,1.94,4.33,0,0-.02,.57-.13,1.11-.08,.39-.33,.73-.71,.83-1.59,.44-5.33,1.58-6.57,2.87-1.58,1.64-1.71,7.84-1.71,7.84H21.96c.63-2.92,1.64-6.34,3.1-7.94,.19-.21,.44-.45,.7-.71"/><path d="M58.22,42.54c-.92-1-2.78-2.5-4.65-3.9-5.11,7.03-11.88,10.78-20.11,12.05-.51,.08-.47-.19-.47-.19,6.41-2.19,14.15-6.09,17.45-12.04,1.94-3.5,3.17-8.11,3.17-12.82,0-8.14-4.99-13.63-11.15-13.63s-11.16,5.49-11.16,13.63,3.74,16.3,8.74,18.32c-.02,.13-.17,.15-.38,.11-3.32-.65-5.88-3.06-7.88-5.75-2.01,1.49-4.1,3.15-5.09,4.23-2.2,2.4-3.35,11.46-3.35,11.46H61.58s-1.16-9.06-3.36-11.46m-22.72-12.25c-.66-3.91-.18-6.86-.18-6.86,0,0,2.35-1.46,7.14-1.46s7.13,1.46,7.13,1.46c0,0,.47,2.95-.18,6.86-.5,2.95-2.73,7.93-6.95,7.93s-6.46-4.98-6.95-7.93"/></g></g></svg>