<?xml version="1.0" encoding="UTF-8"?><svg id="Laag_1" xmlns="http://www.w3.org/2000/svg" xmlns:xlink="http://www.w3.org/1999/xlink" viewBox="0 0 64 64"><defs><style>.cls-1{fill:none;}.cls-2{clip-path:url(#clippath);}.cls-3{clip-path:url(#clippath-1);}</style><clipPath id="clippath"><rect class="cls-1" width="64" height="64"/></clipPath><clipPath id="clippath-1"><rect class="cls-1" width="64" height="64"/></clipPath></defs><g class="cls-2"><g class="cls-3"><path d="M26,29.05v-12.05c0-3.31-2.69-4-6-4s-6,.69-6,4v7.99c-.06,.02-.29,.06-.36-.25l-1.14-5.74H1v16H22.43l3.57-5.95Z"/><path d="M51.51,19l-1.14,5.74c-.07,.33-.31,.27-.36,.25v-7.99c0-3.31-2.69-4-6-4s-6,.69-6,4v12.05l3.57,5.95h21.43V19h-11.49Z"/><polygon points="28.67 29 17.66 54 46.35 54 35.33 29 28.67 29"/></g></g></svg>