<?xml version="1.0" encoding="UTF-8"?><svg id="Laag_1" xmlns="http://www.w3.org/2000/svg" xmlns:xlink="http://www.w3.org/1999/xlink" viewBox="0 0 64 64"><defs><style>.cls-1{fill:none;}.cls-2{clip-path:url(#clippath);}.cls-3{clip-path:url(#clippath-1);}</style><clipPath id="clippath"><rect class="cls-1" width="64" height="64"/></clipPath><clipPath id="clippath-1"><rect class="cls-1" width="64" height="64"/></clipPath></defs><g class="cls-2"><g class="cls-3"><path d="M54,12H10c-1.66,0-3,1.34-3,3V49c0,1.66,1.34,3,3,3H54c1.66,0,3-1.34,3-3V15c0-1.66-1.34-3-3-3m-37.5,2c.83,0,1.5,.67,1.5,1.5s-.67,1.5-1.5,1.5-1.5-.67-1.5-1.5,.67-1.5,1.5-1.5m-5,0c.83,0,1.5,.67,1.5,1.5s-.67,1.5-1.5,1.5-1.5-.67-1.5-1.5,.67-1.5,1.5-1.5M54,49H10V19H54v30Z"/><polygon points="26.9 43.55 29.75 44.65 37.1 24.45 34.25 23.35 26.9 43.55"/><polygon points="25.26 28.31 17.5 33.01 17.5 34.99 25.26 39.69 26.81 36.98 21.74 33.99 26.82 31.02 25.26 28.31"/><polygon points="38.74 28.31 37.18 31.02 42.26 34.01 37.18 36.97 38.74 39.69 46.49 34.99 46.49 33.01 38.74 28.31"/></g></g></svg>