<?xml version="1.0" encoding="UTF-8"?><svg id="Laag_1" xmlns="http://www.w3.org/2000/svg" xmlns:xlink="http://www.w3.org/1999/xlink" viewBox="0 0 64 64"><defs><style>.cls-1{fill:none;}.cls-2{clip-path:url(#clippath);}.cls-3{clip-path:url(#clippath-1);}</style><clipPath id="clippath"><rect class="cls-1" width="64" height="64"/></clipPath><clipPath id="clippath-1"><rect class="cls-1" width="64" height="64"/></clipPath></defs><g class="cls-2"><g class="cls-3"><path d="M30.54,57l-4.91-16.84c-.37-1.28-1.55-2.16-2.88-2.16H3.27c-1.13,0-1.95,1.09-1.63,2.18l5.73,19.66c.37,1.28,1.55,2.16,2.88,2.16H43c2.76,0,5-2.24,5-5H30.54Z"/><path d="M57.61,42.13c-2.18-2.37-8.46-4.5-11.39-5.38-.16-1.12-.36-2.41-.55-3.49,1.79-2.17,2.89-4.41,3.25-6.7,1.33-1.22,2.07-3.17,2.07-5.56,0-.74,0-2.7-1.23-4.04,.3-3.34,.51-8.5-.79-10.59-1.6-2.56-3.55-3.82-7.26-2.98-2.44-1.16-4.09-1.88-8.36-.84-2.97,.72-6.21,1.91-7.92,3.88-1.65,1.91-1.54,7.22-1.27,10.61-1.16,1.33-1.16,3.23-1.16,3.96,0,2.39,.74,4.33,2.06,5.55,.38,2.51,1.61,4.91,3.71,7.26-.11,.81-.23,1.75-.35,2.73-.57,.17-1.41,.42-2.36,.73,.69,.61,1.23,1.4,1.49,2.32l4.49,15.4h3.96c0-1.66,2.24-3,5-3s5,1.34,5,3h2c1.1,0,2,.91,2,2.02,0,1.94-.8,3.98-2.08,4.98h14.07s-1.51-16.74-4.39-19.87m-19.96-5.37c3.15,.84,5.46-.91,5.46-.91,0,0,.28,1.91,.27,2.42,.33,3.49-3.56,7.32-6.01,9.08-2.3-1.75-6.59-5.53-6.16-9.02,.24-1.91,.04-.55,.82-5.44-2.28-2.2-4.1-4.87-4.1-8.06-1.62-.5-2.04-2.55-2.04-3.82s.32-1.96,.77-2.17c.39-.18,.77-.05,1.01,.09,.14,.65,.25,1.14,.29,1.31,.21,.85,1.03,.77,1.03,.77v-6.75c2-.15,6.19-.75,10.75-3.11l5.25,3.53v6.33s.81,.08,1.02-.77c.04-.17,.15-.66,.29-1.31,.24-.14,.62-.27,1.01-.09,.45,.21,.77,.9,.77,2.17s-.42,3.31-2.04,3.82c0,3.7-2.53,6.5-5.34,8.88-.78,.67-2.25,1.11-3.72,1.11-1.06,0-2.12-.29-2.93-.64,.61,.93,1.66,2.07,3.59,2.58"/></g></g></svg>