<?xml version="1.0" encoding="UTF-8"?><svg id="Laag_1" xmlns="http://www.w3.org/2000/svg" xmlns:xlink="http://www.w3.org/1999/xlink" viewBox="0 0 64 64"><defs><style>.cls-1{fill:none;}.cls-2{clip-path:url(#clippath);}.cls-3{clip-path:url(#clippath-1);}</style><clipPath id="clippath"><rect class="cls-1" width="64" height="64"/></clipPath><clipPath id="clippath-1"><rect class="cls-1" width="64" height="64"/></clipPath></defs><g class="cls-2"><g class="cls-3"><path d="M58.09,11.03c-.26-1.61-1.46-2.84-3.03-3.1-4.54-.78-12.11-.78-13.62-.78s-9.08,0-13.62,.78c-1.57,.27-2.76,1.49-3.03,3.1-.22,1.35-.37,2.65-.48,3.87,3.99,.02,10.45,.17,14.7,.9,2.72,.46,4.77,2.55,5.22,5.32,.87,5.37,.87,6.76,.87,11.94,0,.6,0,1.55-.03,2.74l7.48,6.06c.53,.36,1.05,.19,1.33-.16,.2-.25,.22-.56,.06-.95l-1.99-5.44c1.11-.1,2.18-.23,3.12-.39,1.57-.27,2.76-1.49,3.03-3.1,.76-4.66,.76-8.83,.76-10.39,0-4.66,0-5.73-.76-10.39"/><path d="M38.63,18.02c-5.06-.87-13.5-.87-15.19-.87s-10.12,0-15.19,.87c-1.75,.3-3.08,1.67-3.38,3.46-.84,5.19-.84,9.85-.84,11.58s0,6.39,.84,11.58c.29,1.8,1.62,3.16,3.38,3.46,.66,.11,1.39,.21,2.14,.3l3.75-5.2c.2-.29,.4-.1,.4-.1l-3.26,11.5h-.01l-.05,.18c-.04,.25,0,.51,.15,.74,.31,.49,.96,.64,1.45,.33l11.25-6.88c2.57,0,9.95-.08,14.55-.86,1.75-.3,3.08-1.67,3.37-3.46,.84-5.19,.84-9.85,.84-11.58,0-5.19,0-6.39-.84-11.58-.29-1.8-1.62-3.16-3.37-3.46m-17.22,22.98c-.23,0-.42-.19-.42-.42v-4.58h-4.58c-.23,0-.42-.19-.42-.42v-4.17c0-.23,.19-.42,.42-.42h4.58v-4.58c0-.23,.19-.42,.42-.42h4.17c.23,0,.42,.19,.42,.42v4.58h4.58c.23,0,.42,.19,.42,.42v1.51l-2.21,2.92-1.07-1.01c-.45-.43-1.03-.66-1.65-.66-.65,0-1.28,.27-1.73,.74l-1.07,1.13c-.44,.46-.67,1.07-.66,1.71,.02,.64,.28,1.23,.74,1.67l1.66,1.58h-3.59Zm13.13-5.57l-4.97,6.56c-.08,.1-.19,.16-.31,.16-.1,0-.19-.03-.27-.11l-4.27-4.07c-.16-.15-.16-.4-.01-.55l1.07-1.13c.08-.08,.18-.12,.28-.12s.19,.04,.27,.11l2.69,2.56,3.65-4.82c.08-.1,.19-.15,.31-.15,.08,0,.17,.03,.24,.08l1.24,.94c.17,.13,.2,.37,.08,.55"/></g></g></svg>