<?xml version="1.0" encoding="UTF-8"?><svg id="Laag_1" xmlns="http://www.w3.org/2000/svg" xmlns:xlink="http://www.w3.org/1999/xlink" viewBox="0 0 64 64"><defs><style>.cls-1{fill:none;}.cls-2{clip-path:url(#clippath);}.cls-3{clip-path:url(#clippath-1);}</style><clipPath id="clippath"><rect class="cls-1" width="64" height="64"/></clipPath><clipPath id="clippath-1"><rect class="cls-1" width="64" height="64"/></clipPath></defs><g class="cls-2"><g class="cls-3"><path d="M58.33,56.21l-13.8-13.8L26.27,24.15,7.73,5.61l-2.12,2.12,13.33,13.33c-3.01-2.22-5.8-3.58-7.7-4.12-.11-.03-.22,.06-.21,.18,.46,4.58,3.94,12.54,10.54,19.09-5.77-1.17-11.1-.46-13.77,.72-.11,.05-.13,.19-.05,.27,1.59,1.5,6.64,4.91,14.48,5.6-4.5,3.21-6.45,6.54-6.92,7.43-.06,.11,.02,.24,.15,.24,1.15,.05,5.69,.11,11.75-3.27,.8-5.38,2.34-9.27,2.47-9.51,.14-.25,.3-.21,.3-.21-.46,5.64-.92,11.6-1.17,18.13,0,1,.68,1.85,1.6,1.99,.84,.13,1.88,.23,3.35-.05,.91-.18,1.55-1.06,1.52-2.06l-1.15-9.87c5.42,3.7,11.13,4.98,14.23,4.85l7.86,7.86,2.12-2.12Z"/><path d="M56.25,37.19c.09-.08,.06-.23-.05-.27-2.53-1.11-7.79-1.93-13.77-.72,6.56-6.51,10.08-14.46,10.54-19.09,.01-.12-.1-.21-.21-.18-2.51,.73-8.94,3.74-14.89,10.96,.03-9.97-3.35-17.76-5.74-20.93-.07-.09-.2-.09-.26,0-1.46,1.95-4.24,7.11-5.31,14.65l20.28,20.28c4.23-1.12,7.65-3.01,9.41-4.7"/></g></g></svg>