<?xml version="1.0" encoding="UTF-8"?>
<svg id="Zwart" xmlns="http://www.w3.org/2000/svg" viewBox="0 0 64 64">
  <path d="M54.38,16.21c-.33-.86.38-2.43-.33-3.38-.56-.75-2.3-.61-3.13-1.42-.83-.81-.74-2.55-1.51-3.09-.97-.68-2.52.08-3.39-.23-1.11-.39-2.01-1.84-2.95-1.7-1.06.15-1.47,1.84-2.3,2.49-.79.62-2.5.48-3.09,1.4-.46.71.49,2.05.29,2.92-.1.45-.58.88-.99,1.31,2.09.8,3.26,1.94,4.21,3.64.2.35.16.51.08.58,0,0-.01,0-.02-.01-2.5-2.17-5.85-3.03-9.26-1.41-3.4-1.61-6.72-.73-9.22,1.46-.02.01-.04.02-.06.04-.08-.06-.1-.22.08-.58.84-1.63,2.04-2.7,4.26-3.67-.42-.46-.93-.9-1.03-1.36-.2-.87.75-2.21.29-2.92-.59-.91-2.3-.78-3.09-1.4-.83-.65-1.25-2.34-2.31-2.49-.94-.13-1.84,1.32-2.95,1.7-.87.3-2.42-.46-3.39.23-.77.54-.68,2.28-1.51,3.09-.83.81-2.57.66-3.13,1.42-.71.95,0,2.52-.33,3.38-.42,1.1-1.9,1.95-1.79,2.9.12,1.06,1.79,1.53,2.42,2.38.59.81.41,2.51,1.3,3.13.69.48,2.07-.43,2.93-.21.81.21,1.52,1.69,2.4,1.68.82-.01,1.49-1.39,2.29-1.68-.34,1.07-.73,2.67-.86,4.71-.11,1.76,0,3.02,0,3.09-1.4,1.5-1.9,3.5-1.6,5.3.4,2.3,1.9,4.1,3.8,4.8.6,2,1.6,3.7,2.9,5.1-.1.6-.2,1.1-.2,1.5-6.3,2.3-9.3,7.2-9.2,13h36c.1-5.8-2.9-10.7-9.2-13-.1-.4-.1-.9-.2-1.5,1.3-1.4,2.2-3.1,2.9-5.1,1.9-.7,3.5-2.5,3.8-4.8.3-1.9-.1-3.9-1.6-5.3,0-.07.11-1.28,0-2.99-.12-2.03-.44-3.6-.81-4.79.78.34,1.43,1.65,2.23,1.66.88.01,1.59-1.46,2.4-1.68.86-.22,2.23.68,2.93.21.9-.62.71-2.32,1.3-3.13.62-.85,2.3-1.32,2.42-2.38.11-.94-1.37-1.79-1.79-2.9ZM44.3,37c-.3,1.7-1.7,3-3.3,2.5-.4,2.7-1.6,5.2-3.7,6.9-2.1,1.6-4.8,2.1-7.3,1.6,1.9,3.1,5.3,2.7,7.8,1.5.1.5.1.8.1.9,0,2.4-2.5,4.3-5.9,4.3-3.2,0-6.3-1.7-5.9-5,.1-.6.3-1.5.7-3.2-.9-.7-1.9-1.8-2.5-3.1-.6-1.1-1-2.4-1.3-3.9-1.6.5-3-.8-3.3-2.5-.3-1.7.6-3.2,2-3.4.5-.1,1,0,1.5.3,0-1,.12-4,.2-4.9.28-3.1,3.38-2.81,5.77-2.1,1.85.55,3.81.55,5.67.02,2.36-.67,5.4-.92,5.76,2.08.12,1,.2,4,.2,4.9.5-.3,1-.4,1.5-.3,1.4.2,2.3,1.8,2,3.4Z"/>
</svg>