<?xml version="1.0" encoding="UTF-8"?><svg id="Laag_1" xmlns="http://www.w3.org/2000/svg" xmlns:xlink="http://www.w3.org/1999/xlink" viewBox="0 0 64 64"><defs><style>.cls-1{fill:none;}.cls-2{clip-path:url(#clippath);}.cls-3{clip-path:url(#clippath-1);}</style><clipPath id="clippath"><rect class="cls-1" width="64" height="64"/></clipPath><clipPath id="clippath-1"><rect class="cls-1" width="64" height="64"/></clipPath></defs><g class="cls-2"><g class="cls-3"><path d="M31.92,30.1c-3.12,5.98-5.84,4.11-4.85,1.09,1.08-3.3,3.05-4.12,6.59-7.98,.3-.32,.35-.6,.19-.66-1.92,.92-8.23,4.27-9.2,8-1.58,6.05,4.98,9.34,9.48,.72,1.03-1.97,2.3-4.41,4.78-6.82,2.16-2.1,7.87-5.88,10.24-7.42,.96-.62-.4-2.74-1.35-2.12-2.41,1.57-8.28,5.45-10.62,7.73-2.77,2.69-4.15,5.34-5.26,7.46"/><path d="M25.19,21.74c-4.03,2.88-6.14,6.54-6.29,10.94-.12,3.51,1.39,6.44,4.13,8.04,1.4,.82,2.99,1.22,4.63,1.22,1.95,0,3.96-.58,5.79-1.71,2.88-1.79,3.94-3.8,5.18-6.12,.77-1.45,1.64-3.09,3.14-4.94,2.95-3.67,7.55-6.05,9.62-7,1.12-.51,.1-2.81-1.03-2.3-2.28,1.03-7.24,3.61-10.54,7.72-1.64,2.04-2.57,3.79-3.4,5.34-1.15,2.17-1.99,3.74-4.29,5.17-2.53,1.58-5.61,1.76-7.85,.45-1.95-1.13-2.97-3.18-2.88-5.77,.18-5.37,3.9-9.33,11.37-12.12,6.13-2.29,11.26-6.23,13.36-7.98,.9-.75-.63-2.74-1.59-1.94-.88,.73-2.33,1.88-4.18,3.12-7.36,4.93-10.12,4.29-15.16,7.89"/><path d="M15.33,13.25c2.63-2.98,5.48-4.15,8.5-5.39,2.75-1.13,5.37-2.08,6.94-3.54-.02-.14-.08-.29-.49-.31-1.06-.07-4.54,.24-6.55,.93-6.04,2.07-7.96,5.92-8.52,7.69-.17,.55-.03,.66,.11,.63"/><path d="M52.53,30.8c-4.1,1.77-7.45,5.71-9.86,10.2-.24,.44-.23,.76-.05,.78,3.92-3.5,5.15-5.67,10.04-8.28,.91-.49,.82-3.11-.14-2.7"/><path d="M45.74,41.77c-8.1,6.68-16.04,9.8-22.03,8.29-9.36-2.35-11.93-11.53-12.43-13.75-.16-.03-.31,.16-.39,.52-.9,3.68,1.81,9.55,4.76,12.11,2.6,2.26,5.23,3.39,7.89,3.89,5.25,1,10.66-.82,16.32-3.91,5.31-2.9,8.19-5.7,9.66-7.19,2.49-2.52,3.66-4.53,3.08-4.74-.62-.23-3.74,2.2-6.86,4.78"/><path d="M49.99,44.88c-5.19,4.26-13.44,10.79-23.76,10.88-6.02,.05-9.97-4.1-10.97-5.37-.28,.06-.32,.46-.26,.89,.67,4.6,9.24,10.87,23.62,4.24,3.99-1.84,9.68-5.62,11.39-9.21,.38-.78,.23-1.37-.03-1.43"/><path d="M48.06,52.32c-3.21,2.37-6.44,5.68-15.19,6.72-.09,.17,.03,.34,.4,.45,3.68,1.1,11.48,1,14.84-6.5,.18-.4,.12-.66-.04-.68"/><path d="M30.47,13.37c-.64,.27-.6,.93-.35,1.52,.26,.61,.68,1.08,1.34,.81,3.51-1.46,7.12-3.14,10.63-6.54,1.12-1.09-1.05-2.56-1.77-1.85-1.36,1.35-2.62,2.24-3.89,3.05-2.01,1.27-4.02,2.2-5.96,3.02"/><path d="M28.35,16.99c.61-.26,.58-.93,.34-1.51-.24-.57-.74-1.07-1.31-.83-3.52,1.46-6.61,2.98-8.7,6.19-2.63,4.02-2.68,9.16-1.86,11.6,.16,.47,.33,.46,.43,.39-.02-2.39,.5-10.46,8.01-14.4,1.01-.53,2.05-.99,3.1-1.44"/><path d="M41.81,33.5c-3.36,6.32-4.54,7.26-6.28,8.62-2.51,1.95-5.82,2.89-9.01,2.66-1.22-.09-1.61,2.56-.39,2.65,3.97,.28,8.03-1.05,10.93-3.32,3.9-3.04,4.35-5.15,6.88-9.29,2.28-3.73,6.86-6.27,8.76-7.21,.98-.48,.44-3.18-.85-2.51-2.47,1.28-7.52,3.67-10.04,8.4"/><path d="M22.88,46.81c.95,.3,1.65-2.25,.45-2.67-2.28-.79-4.31-2.29-5.67-4.58-5.23-8.78-3.31-18.93,1.7-23.44,2.07-1.86,5.02-3.1,8.15-4.42,3.44-1.44,6.97-2.93,9.67-5.38,1.28-1.17-1.44-2.29-2.22-1.56-2.41,2.26-5.12,3.24-8.42,4.63-3.18,1.34-6.47,2.72-8.85,4.86-7.41,6.66-6.88,19.02-2.15,26.65,1.89,3.05,4.41,4.98,7.35,5.92"/></g></g></svg>