<?xml version="1.0" encoding="UTF-8"?><svg id="Laag_1" xmlns="http://www.w3.org/2000/svg" xmlns:xlink="http://www.w3.org/1999/xlink" viewBox="0 0 64 64"><defs><style>.cls-1{fill:none;}.cls-2{clip-path:url(#clippath);}.cls-3{clip-path:url(#clippath-1);}</style><clipPath id="clippath"><rect class="cls-1" width="64" height="64"/></clipPath><clipPath id="clippath-1"><rect class="cls-1" width="64" height="64"/></clipPath></defs><g class="cls-2"><g class="cls-3"><path d="M60.12,44.37c-.27-.82-1.04-1.37-1.9-1.37h-9.21c-.02-.06-.07-.26,.25-.36,.22-.07,3.38-.63,5.29-.97l-2.1-6.3c-.27-.82-1.04-1.37-1.9-1.37h-8.54c-.02-.06-.07-.26,.25-.36,.22-.07,3.38-.63,5.29-.97l-2.1-6.3c-.27-.82-1.04-1.37-1.9-1.37h-2.56V15c2.33,0,2.33-4,0-4H23c-2.33,0-2.33,4,0,4v10h-2.56c-.86,0-1.62,.55-1.9,1.37l-2.1,6.3c1.91,.34,5.07,.9,5.29,.97,.32,.1,.27,.31,.25,.36H13.44c-.86,0-1.62,.55-1.9,1.37l-2.1,6.3c1.91,.34,5.07,.9,5.29,.97,.32,.1,.27,.31,.25,.36H5.77c-.86,0-1.62,.55-1.9,1.37l-2.88,8.63H63l-2.88-8.63Zm-36.77,5.63h-3.35l6-25h2l-4.65,25Zm10.65-25h-4v-5h4v5Zm6.65,25l-4.65-25h2l6,25h-3.35Z"/></g></g></svg>