<?xml version="1.0" encoding="UTF-8"?><svg id="Laag_1" xmlns="http://www.w3.org/2000/svg" xmlns:xlink="http://www.w3.org/1999/xlink" viewBox="0 0 64 64"><defs><style>.cls-1{fill:none;}.cls-2{clip-path:url(#clippath);}.cls-3{clip-path:url(#clippath-1);}</style><clipPath id="clippath"><rect class="cls-1" width="64" height="64"/></clipPath><clipPath id="clippath-1"><rect class="cls-1" width="64" height="64"/></clipPath></defs><g class="cls-2"><g class="cls-3"><path d="M52.23,44.76c-2.77,.95-6.37,2.41-9.22,3.61,.07,.43,.08,.89,.01,1.38-.41,2.81-2.82,4.58-6.24,4.74-7.73,.36-12.53-1.56-13.53-1.96-.29-.12-.32-.26-.29-.39h.01c5.59,.95,9.12,1.11,13.46,.41,3.3-.53,4.49-2.11,4.46-3.41-.03-1.27-.93-2.04-2.95-2.11-6.89-.24-10.92-1.01-16.82-1.87-4.1-.6-8.06,.47-11.43,2.63-3.16,2.03-4.04,2.98-4.04,2.98l5.79,11.14,7.48-3.04c.85-.35,1.78-.45,2.69-.3l10.26,2.28c2.29,.38,4.64-.06,6.64-1.22l20.48-12.85s-1.01-4.02-6.76-2.04"/><path d="M19.78,34.99c.96,.16,2.04,.29,3.18,.4,0,0,2.28-2.58,2.42-2.75,.21-.23,.26-.06,.26-.06l-2.12,7.48h0l-.03,.12c-.03,.16,0,.33,.1,.48,.2,.32,.62,.42,.95,.21l7.99-5.07h0c.68,0,1.2,0,1.5,0,1.58,0,9.49,0,14.23-.81,1.64-.28,2.89-1.56,3.16-3.24,.79-4.87,.79-5.98,.79-10.85s0-5.99-.79-10.85c-.27-1.68-1.52-2.96-3.16-3.24-4.74-.81-12.65-.81-14.23-.81s-9.49,0-14.23,.81c-1.64,.28-2.89,1.56-3.16,3.24-.79,4.87-.79,5.98-.79,10.85s0,5.99,.79,10.85c.27,1.68,1.52,2.96,3.16,3.24"/></g></g></svg>