<?xml version="1.0" encoding="UTF-8"?><svg id="Laag_1" xmlns="http://www.w3.org/2000/svg" xmlns:xlink="http://www.w3.org/1999/xlink" viewBox="0 0 64 64"><defs><style>.cls-1{fill:none;}.cls-2{clip-path:url(#clippath);}.cls-3{clip-path:url(#clippath-1);}</style><clipPath id="clippath"><rect class="cls-1" width="64" height="64"/></clipPath><clipPath id="clippath-1"><rect class="cls-1" width="64" height="64"/></clipPath></defs><g class="cls-2"><g class="cls-3"><path d="M52.61,44.11c-1.57-1.7-5.25-3.27-8.28-4.35,0,0-.16-.76-.64-1.27-1.1-1.17-3.03-1.09-3.32-3.24v-.03c-.09-.64,.1-1.27,.5-1.8,3.25-4.26,4.38-6.95,5.12-11.15,.89-5.03-.08-11.08-2.44-14-2.53-3.12-6.56-4.27-11.56-4.27s-9.03,1.15-11.56,4.27c-2.36,2.92-3.33,8.97-2.44,14,.75,4.21,1.87,6.89,5.12,11.15,.4,.52,.59,1.15,.51,1.8v.03c-.29,2.14-2.23,2.07-3.33,3.24-.48,.51-.64,1.27-.64,1.27-.2,.07,3.85,3.95,12.27,4.46,.06,.16-.07,.31-.33,.38-4.66,1.22-9.83-.53-14.43-3.9-2.26,.95-4.67,2.2-5.79,3.41-2.87,3.12-4.39,14.89-4.39,14.89H57s-1.51-11.77-4.39-14.89M24.8,23.75c-1.22-.86-2.63-3.06-1.29-4.35,1.29-1.24,6.04,.16,6.24,2.52,.19,2.3-2.86,3.3-4.95,1.82m7.52,10.28c-1.76,0-3.19-1.08-3.19-2.41s1.43-2.41,3.19-2.41,3.19,1.08,3.19,2.41-1.43,2.41-3.19,2.41m6.88-10.28c-2.09,1.47-5.14,.48-4.95-1.82,.19-2.36,4.95-3.76,6.24-2.52,1.34,1.29-.06,3.49-1.29,4.35"/></g></g></svg>