<?xml version="1.0" encoding="UTF-8"?><svg id="Laag_1" xmlns="http://www.w3.org/2000/svg" xmlns:xlink="http://www.w3.org/1999/xlink" viewBox="0 0 64 64"><defs><style>.cls-1{fill:none;}.cls-2{clip-path:url(#clippath);}.cls-3{clip-path:url(#clippath-1);}</style><clipPath id="clippath"><rect class="cls-1" width="64" height="64"/></clipPath><clipPath id="clippath-1"><rect class="cls-1" width="64" height="64"/></clipPath></defs><g class="cls-2"><g class="cls-3"><path d="M40,3.5c0-.28-.22-.5-.5-.5H14.5c-.28,0-.5,.22-.5,.5V31H7.5c-.28,0-.5,.22-.5,.5v29.5H27V19c0-.55,.45-1,1-1h12V3.5Z"/><path d="M56.5,20H29.5c-.28,0-.5,.22-.5,.5V61h12v-6h4v6h12V20.5c0-.28-.22-.5-.5-.5m-18.5,31h-4v-4h4v4Zm0-7h-4v-4h4v4Zm0-7h-4v-4h4v4Zm0-7h-4v-4h4v4Zm7,21h-4v-4h4v4Zm0-7h-4v-4h4v4Zm0-7h-4v-4h4v4Zm0-7h-4v-4h4v4Zm7,21h-4v-4h4v4Zm0-7h-4v-4h4v4Zm0-7h-4v-4h4v4Zm0-7h-4v-4h4v4Z"/></g></g></svg>