<?xml version="1.0" encoding="UTF-8"?><svg id="Laag_1" xmlns="http://www.w3.org/2000/svg" xmlns:xlink="http://www.w3.org/1999/xlink" viewBox="0 0 64 64"><defs><style>.cls-1{fill:none;}.cls-2{clip-path:url(#clippath);}.cls-3{clip-path:url(#clippath-1);}</style><clipPath id="clippath"><rect class="cls-1" width="64" height="64"/></clipPath><clipPath id="clippath-1"><rect class="cls-1" width="64" height="64"/></clipPath></defs><g class="cls-2"><g class="cls-3"><path d="M42,13c3.17,0,5-1.95,5-5.41s-1.75-5.59-5-5.59-5,1.95-5,5.59c0,3.19,1.83,5.41,5,5.41"/><path d="M21.99,11.77c3.02,0,4.77-2.14,4.77-5.22,0-3.51-1.83-5.39-4.77-5.39-3.1,0-4.77,2.22-4.77,5.39,0,3.34,1.75,5.22,4.77,5.22"/><path d="M54.86,33.74c-.7-3.77-1.48-5.83-1.8-8.45-.7-5.8-2.47-8.58-5.76-9.59-1.57-.48-3.06-.7-4.76-.7h-.06c-1.7,0-3.2,.22-4.76,.7-1.16,.36-2.13,.96-2.93,1.81,1.49,.76,2.38,2.34,2.38,4.72,0,2.99-1.71,5.03-4.65,5.03s-4.65-1.79-4.65-5.03c0-2.25,.88-4,2.53-4.78-1.66-2.31-4.4-3.45-8.88-3.45h0c-11.62,0-11.49,6.96-11.5,21.87,0,3.07,2.47,4.05,3.88,4.05,0-13.57,.5-16.52,.75-17.59,.1-.32,.31-.27,.36-.25,0,0,0,.71,0,40.92,0,0,4.87,.04,5.24-5.05,0,0,.73-19.24,.74-19.46,0-.21,.17-.49,.53-.49s.51,.28,.52,.49c0,.21,.73,19.32,.73,19.32,.27,4.97,4.76,5.18,5.21,5.19v-15.58c-.99,0-2.79-.57-2.93-2.92-.29-5.16-.15-13.43,2.99-14.97,1.93-.94,7.12-.94,9.23-.03,2.91,1.26,2.83,9.75,2.82,14.97,0,2.35-2.04,2.97-3.03,2.97v15.57c.14-.02,3.71-.64,3.96-4.21,0,0,.82-8.69,.96-12.85,.56-.09,.58-.1,1.05-.17,.14,4.06,.98,12.92,.98,12.92,.19,3.75,3.98,4.31,3.98,4.31l.02-17.3c1.76,.17,2.93,.27,2.93,.27,0-8.86-2.14-12.21-2.87-14.99-.39-1.48-.31-3.02,.05-4.5,.33-1.39,.76-2.68,.09-5.43,0,0,.35,.62,.5,1.03,.79,2.24,.71,6.89,3.89,16.89,1.39-.18,2.85-2.16,2.28-5.23"/></g></g></svg>