<?xml version="1.0" encoding="UTF-8"?><svg id="Laag_1" xmlns="http://www.w3.org/2000/svg" xmlns:xlink="http://www.w3.org/1999/xlink" viewBox="0 0 64 64"><defs><style>.cls-1{fill:none;}.cls-2{clip-path:url(#clippath);}.cls-3{clip-path:url(#clippath-1);}</style><clipPath id="clippath"><rect class="cls-1" width="64" height="64"/></clipPath><clipPath id="clippath-1"><rect class="cls-1" width="64" height="64"/></clipPath></defs><g class="cls-2"><g class="cls-3"><path d="M15.56,22.06c-2.22,0-3.42,1.56-3.42,3.79,0,2.35,1.25,3.67,3.42,3.67s3.42-1.5,3.42-3.67c0-2.47-1.31-3.79-3.42-3.79"/><path d="M32.02,7.68c1.65,0,2.6-1.14,2.6-2.79,0-1.88-1-2.88-2.6-2.88-1.69,0-2.6,1.19-2.6,2.88,0,1.79,.95,2.79,2.6,2.79"/><path d="M39.57,31.77l-4.28-12.97,.2-6.95c2.74,.06,3.77,.06,6.69,.14,2.02,.06,2.16-1.71,2.16-1.71,0,0-5.46-1.28-12.31-1.28h-.04c-6.86,0-11.79,1.18-11.79,1.18,0,0,.14,1.87,2.16,1.81,2.92-.08,3.39,.02,6.13-.04l.24,6.85-4.28,12.97s2.67,1.05,3.58-1.37c.93-2.46,3.55-9.06,3.64-9.24,.07-.14,.18-.25,.33-.25s.26,.11,.33,.25c.09,.19,2.71,6.78,3.64,9.24,.91,2.42,3.58,1.37,3.58,1.37"/><path d="M4.3,25.31c.12-3.64,2.4-6.03,3.28-6.77l1.03,8.48c.59,.41,1.23,.79,1.91,1.16-.25-.69-.38-1.47-.38-2.32,0-2.84,1.48-4.9,3.8-5.55l-.72-5.18s.91-.56,4.28-2.06c1.94-.86,1.23-2.6,1.23-2.6-7.5,1.85-12.11,4.11-15.09,9.03-1.99,3.29-1.86,6.64-.59,8.94,1.63,2.96,3.23,4.2,6.1,6.1l.29,9.07-4.94,14.72s3.43,1.47,4.86-2.12c1.19-2.98,3.56-8.22,3.68-8.45,.09-.18,.24-.32,.45-.32s.37,.13,.46,.32c.11,.23,2.4,9.92,3.72,13.03,1.32,3.09,4.89,1.76,4.89,1.76l-4.18-17.15,.26-8.01c2.78,.28,6.28,.61,8.96,.17,3.08-.51,2.85-3,2.85-3-7.8,.32-21.76-2.64-26.14-9.24"/><path d="M9.48,11.95c1.83-.28,2.7-1.72,2.42-3.55-.32-2.09-1.6-3.04-3.39-2.76-1.88,.29-2.69,1.77-2.4,3.66,.31,1.99,1.54,2.94,3.37,2.66"/><path d="M54.57,11.95c1.83,.28,3.07-.67,3.37-2.66,.29-1.89-.52-3.37-2.4-3.66-1.79-.28-3.07,.67-3.39,2.76-.28,1.83,.58,3.27,2.42,3.55"/><path d="M60.95,28.42c1.28-2.32,1.39-5.67-.59-8.94-2.98-4.92-7.59-7.17-15.09-9.03,0,0-.71,1.74,1.23,2.6,3.37,1.5,4.28,2.06,4.28,2.06l-.72,5.18c2.32,.65,3.8,2.71,3.8,5.55,0,.86-.13,1.63-.38,2.32,.68-.37,1.32-.75,1.91-1.16l1.03-8.48c.88,.74,3.16,3.13,3.28,6.77-4.38,6.6-18.34,9.56-26.14,9.24,0,0-.23,2.49,2.85,3,2.68,.44,6.18,.11,8.96-.17l.26,8.01-4.18,17.15s3.57,1.33,4.89-1.76c1.32-3.11,3.62-12.81,3.72-13.03,.09-.19,.25-.32,.46-.32s.36,.14,.45,.32c.12,.24,2.48,5.48,3.68,8.45,1.43,3.58,4.86,2.12,4.86,2.12l-4.94-14.72,.29-9.07c2.87-1.9,4.47-3.14,6.1-6.1"/><path d="M51.86,25.85c0-2.23-1.2-3.79-3.42-3.79s-3.42,1.32-3.42,3.79c0,2.17,1.25,3.67,3.42,3.67s3.42-1.32,3.42-3.67"/></g></g></svg>