<?xml version="1.0" encoding="UTF-8"?><svg id="Laag_1" xmlns="http://www.w3.org/2000/svg" xmlns:xlink="http://www.w3.org/1999/xlink" viewBox="0 0 64 64"><defs><style>.cls-1{fill:none;}.cls-2{clip-path:url(#clippath);}.cls-3{clip-path:url(#clippath-1);}</style><clipPath id="clippath"><rect class="cls-1" width="64" height="64"/></clipPath><clipPath id="clippath-1"><rect class="cls-1" width="64" height="64"/></clipPath></defs><g class="cls-2"><g class="cls-3"><path d="M61.22,30.21L32.81,3.32c-.46-.43-1.17-.43-1.63,0L2.78,30.21c-.49,.46-.78,1.11-.78,1.78v1.8c0,.67,.54,1.21,1.2,1.21h4.8v25H56v-25h4.8c.66,0,1.2-.54,1.2-1.21v-1.8c0-.68-.28-1.33-.78-1.78M22.5,55.15c-2.02,0-3.65-1.63-3.65-3.65s1.63-3.65,3.65-3.65,3.65,1.63,3.65,3.65-1.63,3.65-3.65,3.65m17,0c-2.02,0-3.65-1.63-3.65-3.65s1.63-3.65,3.65-3.65,3.65,1.63,3.65,3.65-1.63,3.65-3.65,3.65m2.09-9.37l-5.91,.43h-.06c-2.15,0-3.99-1.47-4.46-3.57l-1.72-7.73c-.08,0-.24,.03-.27,.32l.07,5.09-2.78,7.09c-.84-.81-1.94-1.37-3.15-1.54l5.49-13.85-1.99-8.9h-3.69c-.77,0-1.4-.62-1.4-1.4,0-.7,.52-1.28,1.19-1.39l5.16-.78c.96-.15,1.85,.49,2.04,1.43l4.46,20.89c.11,.48,.51,.82,1,.84l5.77-.42c.95-.07,1.8,.66,1.87,1.62,.07,.96-.65,1.8-1.62,1.87m-.59-8.78h-5l-2.32-11h9.8l-2.48,11Z"/></g></g></svg>