<?xml version="1.0" encoding="UTF-8"?><svg id="Laag_1" xmlns="http://www.w3.org/2000/svg" xmlns:xlink="http://www.w3.org/1999/xlink" viewBox="0 0 64 64"><defs><style>.cls-1{fill:none;}.cls-2{clip-path:url(#clippath);}.cls-3{clip-path:url(#clippath-1);}</style><clipPath id="clippath"><rect class="cls-1" width="64" height="64"/></clipPath><clipPath id="clippath-1"><rect class="cls-1" width="64" height="64"/></clipPath></defs><g class="cls-2"><g class="cls-3"><path d="M38,48h-12v4h14c1.1,0,2-.9,2-2v-11.02c-1.12,.58-2.3,1.34-4,1.84v7.17Z"/><path d="M58.1,34.04c-1.13,.66-2.9,1.5-5.33,1.14-1.16-.17-1.87-.59-2.77-1.12-1.23-.72-2.75-1.62-5.43-1.81-2.85-.2-4.71,.82-6.21,1.65-1.51,.83-2.67,1.46-4.86,1.14h0l2.06-3.31c.28-.45,.21-1.04-.16-1.4-.37-.36-.93-.38-1.33-.05l-6.95,5.91c-.24,.21-.38,.52-.38,.85s.14,.64,.38,.85l6.95,5.91c.4,.34,.96,.31,1.33-.05,.37-.36,.44-.96,.16-1.4l-2.05-3.28c3.18,.31,5.14-.76,6.77-1.66,1.35-.74,2.33-1.28,3.99-1.16,1.74,.12,2.6,.63,3.69,1.26,1.78,1.05,3.35,1.76,5.98,1.76,2.11,0,4.15-.59,6.17-1.78,.95-.56,1.06-1.7,.5-2.65-.56-.95-1.57-1.35-2.53-.8"/><path d="M42,22.79c-.99,.54-2.27,1.11-4,1.38v7.42c1.06-.56,2.36-1.15,4-1.41v-7.39Z"/><path d="M62.61,19.07l-6.95-5.91c-.4-.34-.96-.31-1.33,.05-.37,.36-.44,.96-.16,1.4l2.06,3.31h0c-2.19,.33-3.35-.3-4.86-1.13-1.5-.83-3.36-1.85-6.21-1.65-2.68,.19-4.2,1.09-5.43,1.81-.9,.53-1.61,.94-2.77,1.12-2.42,.36-4.2-.47-5.33-1.14-.95-.56-1.95-.13-2.51,.82-.56,.95-.47,2.07,.49,2.63,2.03,1.19,4.06,1.78,6.17,1.78,2.56,0,4.16-.69,5.98-1.76,1.09-.64,1.94-1.14,3.69-1.26,1.67-.12,2.64,.42,3.99,1.16,1.62,.9,3.59,1.97,6.77,1.66l-2.05,3.28c-.28,.45-.21,1.04,.16,1.4,.37,.36,.93,.38,1.33,.05l6.95-5.91c.24-.21,.38-.52,.38-.85s-.14-.64-.38-.85"/><path d="M22.96,11.16L13.12,6h24.88V15.4c1-.55,2.14-1.36,4-1.92V4c0-1.11-.9-2-2-2H5c-1.14,0-2,.92-2,2V50.69c0,.69,.35,1.33,.93,1.69l17,11.11c.62,.39,1.4,.41,2.03,.06,.64-.35,1.03-1.02,1.03-1.75V12.92c0-.73-.4-1.4-1.04-1.75M11.67,52.5l-4.67-2.91V30.4l4.67,2.73v19.36Zm0-23.08l-4.67-2.64V7.38l4.67,2.7V29.42Zm8.08,28.11l-5.08-3.16v-19.48l5.08,2.97v19.68Zm0-23.55l-5.08-2.87V11.82l5.08,2.94v19.23Z"/></g></g></svg>