<?xml version="1.0" encoding="UTF-8"?><svg id="Laag_1" xmlns="http://www.w3.org/2000/svg" xmlns:xlink="http://www.w3.org/1999/xlink" viewBox="0 0 64 64"><defs><style>.cls-1{fill:none;}.cls-2{clip-path:url(#clippath);}.cls-3{clip-path:url(#clippath-1);}</style><clipPath id="clippath"><rect class="cls-1" width="64" height="64"/></clipPath><clipPath id="clippath-1"><rect class="cls-1" width="64" height="64"/></clipPath></defs><g class="cls-2"><g class="cls-3"><path d="M44.74,56l.24-1.43-3.88-3.47-5.81,2.05,3.71-3.87v-7.53l-4.65,.73-4.52-7.89,5.81,5.22,6.66-1.91-1.08,9.47,8.78,6.05V9c0-1.1-.9-2-2-2H16c-1.1,0-2,.9-2,2V56h5v-9h6v9h19.74Zm-5.74-42h6v6h-6v-6Zm0,10h6v6h-6v-6Zm-10-10h6v6h-6v-6Zm0,10h6v6h-6v-6Zm-10-10h6v6h-6v-6Zm0,10h6v6h-6v-6Zm0,10h6v6h-6v-6Z"/></g></g></svg>