<?xml version="1.0" encoding="UTF-8"?><svg id="Laag_1" xmlns="http://www.w3.org/2000/svg" xmlns:xlink="http://www.w3.org/1999/xlink" viewBox="0 0 64 64"><defs><style>.cls-1{fill:none;}.cls-2{clip-path:url(#clippath);}.cls-3{clip-path:url(#clippath-1);}</style><clipPath id="clippath"><rect class="cls-1" width="64" height="64"/></clipPath><clipPath id="clippath-1"><rect class="cls-1" width="64" height="64"/></clipPath></defs><g class="cls-2"><g class="cls-3"><path d="M60.81,36.74c-3.01-1.32-9.27-2.3-16.39-.85,7.81-7.75,12-17.22,12.55-22.73,.01-.14-.12-.25-.25-.21-2.99,.87-10.64,4.45-17.72,13.04,.03-11.86-3.99-21.15-6.84-24.91-.08-.11-.23-.11-.31,0-2.19,2.91-6.87,11.88-6.84,24.91-6.28-7.63-13.68-11.89-17.73-13.04-.14-.04-.27,.07-.25,.21,.55,5.46,4.69,14.93,12.55,22.73-6.86-1.4-13.21-.54-16.39,.85-.13,.06-.16,.23-.06,.33,1.9,1.78,7.9,5.84,17.24,6.67-5.35,3.82-7.68,7.79-8.23,8.84-.07,.13,.03,.28,.17,.29,1.37,.05,6.77,.13,13.99-3.89,.96-6.4,2.78-11.03,2.94-11.32,.17-.3,.36-.24,.36-.24-.55,6.71-1.09,13.81-1.39,21.59,0,1.19,.81,2.2,1.91,2.37,1,.15,2.24,.28,3.98-.06,1.09-.21,1.85-1.26,1.81-2.45l-1.37-11.75c6.59,4.5,13.56,6,17.18,5.76,.14,0,.23-.16,.16-.29-.55-1.05-2.87-5.02-8.23-8.85,7.76-.69,14.35-3.89,17.24-6.66,.1-.1,.07-.27-.06-.33"/></g></g></svg>