<?xml version="1.0" encoding="UTF-8"?><svg id="Laag_1" xmlns="http://www.w3.org/2000/svg" xmlns:xlink="http://www.w3.org/1999/xlink" viewBox="0 0 24 24"><defs><style>.cls-1{fill:none;}.cls-2{clip-path:url(#clippath);}.cls-3{clip-path:url(#clippath-1);}</style><clipPath id="clippath"><rect class="cls-1" width="24" height="24"/></clipPath><clipPath id="clippath-1"><rect class="cls-1" width="24" height="24"/></clipPath></defs><g class="cls-2"><g class="cls-3"><path d="m16.26,13.68c-.66.66-.85,1.61-1.38,2.13-.51.51-2.54-1.1-4.09-2.63-1.52-1.54-3.14-3.57-2.63-4.09.53-.52,1.47-.71,2.13-1.38.66-.66-2.16-3.78-2.61-4.22-.44-.44-1.08-.49-1.59.02-2.93,2.93-2.31,6.95,2.13,11.65h0c.1.11.58.57.58.57,4.7,4.45,8.72,5.06,11.65,2.13.51-.51.46-1.15.02-1.59-.44-.44-3.56-3.27-4.22-2.6"/></g></g></svg>