<?xml version="1.0" encoding="UTF-8"?><svg id="Laag_1" xmlns="http://www.w3.org/2000/svg" xmlns:xlink="http://www.w3.org/1999/xlink" viewBox="0 0 64 64"><defs><style>.cls-1{fill:none;}.cls-2{clip-path:url(#clippath);}.cls-3{clip-path:url(#clippath-1);}.cls-4{fill-rule:evenodd;}</style><clipPath id="clippath"><rect class="cls-1" width="64" height="64"/></clipPath><clipPath id="clippath-1"><rect class="cls-1" width="64" height="64"/></clipPath></defs><g class="cls-2"><g class="cls-3"><path class="cls-4" d="M53.41,20.74c-1.41-2.65-2.39-3.64-4.69-4.73,0,0-11.55-5.25-11.74-5.33,0,0-.62-.22-.92-.29-4.72-1.09-9.32,3.49-9.32,3.49,0,0-9.21-7.87-14.84-.59-5.11,6.62,.51,11.98,2.77,13.71,2.27,1.73,5.98,4.07,5.98,4.07,0,0-.02,.17-.33,.08-.34-.09-3.87-1.03-5.75-1.93v16.39s-.08,1.33,.83,2.17c.32,.29,11.95,5.74,11.95,5.74,.57,.26,.88,.47,1.64,.47h19s2-.62,2-3v-19s6.53-5.42,3.41-11.26m-5.41,10.26v19c0,2.06-2,2-2,2,0,0-13.39,.12-16,0-2.21-.1-2-2-2-2v-18s-7.93-5.16-3.06-11.46c4.87-6.3,13.46,.9,13.46,.9,0,0,8.5-8.86,13.44,.41,2.69,5.05-3.84,9.15-3.84,9.15"/></g></g></svg>