<?xml version="1.0" encoding="UTF-8"?><svg id="Laag_1" xmlns="http://www.w3.org/2000/svg" xmlns:xlink="http://www.w3.org/1999/xlink" viewBox="0 0 64 64"><defs><style>.cls-1{fill:none;}.cls-2{clip-path:url(#clippath);}.cls-3{clip-path:url(#clippath-1);}</style><clipPath id="clippath"><rect class="cls-1" width="64" height="64"/></clipPath><clipPath id="clippath-1"><rect class="cls-1" width="64" height="64"/></clipPath></defs><g class="cls-2"><g class="cls-3"><path d="M11.45,33.82c2.56,4.58,6.73,8.18,15.55,8.18h10c12.67,0,22.97-.12,22.97-4.99,0-3.13-5.41-6.25-8.56-7.8,.93-1.58,2.42-4.53,.97-5.03-2.19-.77-6.99,2.21-9.8,4.93-.12-.07-.17-.24-.04-.51,.21-.46,1.09-2.19,3.21-4.23-5.24-5.14-15.87-13-27.77-7.27-6.25,3.01-8.74,8.29-7.81,13.21-3.64,1.48-7.73,4.74-7.06,10.55,.26,2.26,1.38,4.16,3.32,5.63,7.76,5.92,22.55,.84,27.95,7.39,.22,.26,.65,.08,.62-.26-.31-2.71-2.32-4.36-4.97-5.34-5.9-2.18-12.59-.77-19.04-3.49-2.24-.94-3.85-2.42-4.08-4.39-.41-3.58,2.39-5.58,4.54-6.58m40.05-.82c.83,0,1.5,.67,1.5,1.5s-.67,1.5-1.5,1.5-1.5-.67-1.5-1.5,.67-1.5,1.5-1.5"/></g></g></svg>