<?xml version="1.0" encoding="UTF-8"?><svg id="Laag_1" xmlns="http://www.w3.org/2000/svg" xmlns:xlink="http://www.w3.org/1999/xlink" viewBox="0 0 64 64"><defs><style>.cls-1{fill:none;}.cls-2{clip-path:url(#clippath);}.cls-3{clip-path:url(#clippath-1);}</style><clipPath id="clippath"><rect class="cls-1" width="64" height="64"/></clipPath><clipPath id="clippath-1"><rect class="cls-1" width="64" height="64"/></clipPath></defs><g class="cls-2"><g class="cls-3"><path d="M55.21,32.66l-23.21,16.76L8.79,32.66l-3.74,2.78c-.43,.32-.43,.97,0,1.29l25.74,19.15c.72,.54,1.69,.54,2.41,0l25.74-19.15c.43-.32,.43-.97,0-1.29l-3.74-2.78Z"/><path d="M30.79,44.8c.72,.54,1.69,.54,2.41,0l25.74-19.15c.43-.32,.43-.97,0-1.29L33.21,5.2c-.72-.54-1.69-.54-2.41,0L5.05,24.36c-.43,.32-.43,.97,0,1.29l25.74,19.15Z"/></g></g></svg>