<?xml version="1.0" encoding="UTF-8"?><svg id="Laag_1" xmlns="http://www.w3.org/2000/svg" xmlns:xlink="http://www.w3.org/1999/xlink" viewBox="0 0 64 64"><defs><style>.cls-1{fill:none;}.cls-2{clip-path:url(#clippath);}.cls-3{clip-path:url(#clippath-1);}</style><clipPath id="clippath"><rect class="cls-1" width="64" height="64"/></clipPath><clipPath id="clippath-1"><rect class="cls-1" width="64" height="64"/></clipPath></defs><g class="cls-2"><g class="cls-3"><path d="M17,52V25.29l-3.15-.93c-.34-.11-.22-.36-.22-.36h14.37c.55,0,1-.45,1-1V8.63s.25-.11,.36,.23l.93,3.13h16.71v23.4l5-5V9c0-1.1-.9-2-2-2H28.83c-.53,0-1.04,.21-1.41,.59l-14.83,14.83c-.38,.38-.59,.88-.59,1.41v31.17c0,1.1,.9,2,2,2H30.42l1.58-5h-15.01Zm33,5c1.1,0,2-.9,2-2v-4.55l-6.55,6.55h4.55Zm9.47-24.04c-1.91-1.91-4.28-2.63-5.3-1.62l-19.48,19.48-2.85,9c-.15,.47,.29,.91,.76,.76l9-2.85,19.48-19.48c1.01-1.02,.29-3.39-1.62-5.3m-23.84,24.57l-.73-.73,1.42-4.5,.92,.52,.72,1.66,1.57,.68,.59,.96-4.49,1.42Zm5.37-28.53H23v3h18v-3Zm0-10h-8v3h8v-3Zm0,16H23v3h18v-3Zm-18,9h12v-3h-12v3Z"/></g></g></svg>