<?xml version="1.0" encoding="UTF-8"?><svg id="Laag_1" xmlns="http://www.w3.org/2000/svg" xmlns:xlink="http://www.w3.org/1999/xlink" viewBox="0 0 64 64"><defs><style>.cls-1{fill:none;}.cls-2{clip-path:url(#clippath);}.cls-3{clip-path:url(#clippath-1);}</style><clipPath id="clippath"><rect class="cls-1" width="64" height="64"/></clipPath><clipPath id="clippath-1"><rect class="cls-1" width="64" height="64"/></clipPath></defs><g class="cls-2"><g class="cls-3"><path d="M51.09,29h-1.09v-5c0-9.92-8.07-18-18-18S14,14.08,14,24v3.49c1.3,.25,5.47,1.06,5.74,1.14,.32,.1,.27,.31,.25,.36h-7.08c-1.05,0-1.91,.85-1.91,1.91v23.6c0,.93,.67,1.72,1.58,1.88,3.04,.54,10.24,1.61,19.42,1.61s16.37-1.07,19.42-1.61c.91-.16,1.58-.95,1.58-1.88V30.91c0-1.06-.85-1.91-1.91-1.91m-29.09-5c0-5.51,4.49-10,10-10s10,4.49,10,10v3.49c1.3,.25,5.47,1.06,5.74,1.14,.32,.1,.27,.31,.25,.36H22v-5Zm10.38,27.26c-.24,.12-.53,.12-.77,0-9.08-4.75-9.34-13.29-5.46-15.01,3.93-1.75,5.85,2.01,5.85,2.01,0,0,1.92-3.75,5.85-2.01,3.87,1.72,3.62,10.26-5.46,15.01"/></g></g></svg>