<?xml version="1.0" encoding="UTF-8"?><svg id="Laag_1" xmlns="http://www.w3.org/2000/svg" xmlns:xlink="http://www.w3.org/1999/xlink" viewBox="0 0 64 64"><defs><style>.cls-1{fill:none;}.cls-2{clip-path:url(#clippath);}.cls-3{clip-path:url(#clippath-1);}</style><clipPath id="clippath"><rect class="cls-1" width="64" height="64"/></clipPath><clipPath id="clippath-1"><rect class="cls-1" width="64" height="64"/></clipPath></defs><g class="cls-2"><g class="cls-3"><path d="M31.48,44.06c-.22-.6-.49-.68-.78-.68s-.57,.08-.78,.68c-1.8,4.98-5.42,7.24-6.18,11.01-.79,3.96,3.03,7.31,6.97,7.31s7.76-3.35,6.96-7.31c-.76-3.74-4.38-6.03-6.18-11.01m-1.29,15.46c-1.33,0-2.73-.65-3.56-1.66-.56-.68-.77-1.4-.62-2.14,.27-1.34,1.21-2.61,2.4-4.22,.56-.75,1.17-1.58,1.78-2.51,.02,.03,.04,.06,.06,.09-.77,2.7-1.6,5.07-1.6,6.76,0,1.55,1.09,3.21,1.9,3.67-.12,.01-.24,.02-.35,.02"/><path d="M45.64,13.63c-.89-2.73-1.66-5.23-2.42-8.89-.3-1.46-.96-2.01-1.88-1.88-.94,.14-1.94,1.2-1.92,3.64,.02,2.61,.36,4.76,1.16,7.59,.72,2.56-1.66,3.87-2.98,3.18,0,0-.02-.01-.03-.02-1.99-1.08-2.48-1.67-3.63-2.75L22,3.05c-.92-.81-2.32-.74-3.17,.15h0c-.84,.9-.84,2.29,.02,3.17l11.03,11.01c.35,.35,.4,.9,.1,1.3h-.01c-.32,.44-.91,.55-1.35,.26L13.96,9.4c-1.05-.63-2.42-.32-3.09,.7h0c-.67,1.03-.42,2.4,.58,3.12l14.81,10.01c.42,.28,.57,.82,.38,1.28v.02c-.23,.54-.86,.78-1.39,.55l-13.79-6.02c-1.15-.44-2.44,.1-2.92,1.23h0c-.49,1.13,0,2.44,1.11,2.97l14.9,6.83c.41,.19,.65,.6,.64,1.05v.02c-.01,.7-.68,1.21-1.37,1.05l-10.53-2.48c-1.07-.2-2.11,.47-2.35,1.53h0c-.25,1.06,.39,2.13,1.44,2.42l11.93,3.07c1.34,.35,2.63,.85,3.87,1.47,.52,.26,1.09,.54,1.69,.82,2.13-1.12,9.37-4.94,9.61-5.07,.28-.15,.4,.06,.42,.12l-7.33,6.1c1.6,.61,3.31,1.15,4.99,1.47,4.81,.92,8.17,.04,12.07-5.31,6.48-8.91-1.98-16.63-3.98-22.73"/></g></g></svg>