<?xml version="1.0" encoding="UTF-8"?><svg id="Laag_1" xmlns="http://www.w3.org/2000/svg" xmlns:xlink="http://www.w3.org/1999/xlink" viewBox="0 0 64 64"><defs><style>.cls-1{fill:none;}.cls-2{clip-path:url(#clippath);}.cls-3{clip-path:url(#clippath-1);}</style><clipPath id="clippath"><rect class="cls-1" width="64" height="64"/></clipPath><clipPath id="clippath-1"><rect class="cls-1" width="64" height="64"/></clipPath></defs><g class="cls-2"><g class="cls-3"><path d="M16.84,32.87c-.09-.01-.17,0-.26,.18-.74,1.46-1.91,2.01-2.29,3.14-.4,1.19,.59,2.38,1.75,2.53,1.16,.16,2.43-.72,2.37-1.97-.07-1.19-1.04-2.04-1.36-3.65-.04-.19-.12-.23-.2-.24"/><path d="M24.38,32.98c-.07-.18-.15-.21-.23-.21-.09,0-.17,.03-.23,.21-.53,1.55-1.61,2.26-1.83,3.43-.23,1.23,.91,2.27,2.08,2.27,1.17,0,2.31-1.05,2.07-2.28-.23-1.16-1.31-1.87-1.85-3.42"/><path d="M15.76,41.44c-.09-.01-.17,0-.26,.18-.74,1.46-1.91,2.01-2.29,3.14-.4,1.19,.59,2.38,1.75,2.53,1.16,.16,2.43-.72,2.37-1.97-.07-1.19-1.04-2.04-1.36-3.64-.04-.19-.12-.23-.2-.24"/><path d="M24.38,42.06c-.07-.18-.15-.21-.23-.21-.09,0-.17,.03-.23,.21-.53,1.55-1.61,2.26-1.83,3.43-.23,1.23,.91,2.27,2.08,2.27,1.17,0,2.31-1.05,2.07-2.28-.23-1.16-1.31-1.87-1.85-3.42"/><path d="M14.68,50.01c-.09-.01-.17,0-.26,.18-.74,1.46-1.91,2.01-2.29,3.14-.4,1.19,.59,2.38,1.75,2.53,1.16,.16,2.43-.72,2.36-1.97-.07-1.19-1.04-2.04-1.36-3.65-.04-.19-.12-.23-.2-.24"/><path d="M24.38,51.15c-.07-.19-.15-.21-.23-.21-.09,0-.17,.03-.23,.21-.53,1.55-1.61,2.26-1.83,3.43-.23,1.23,.91,2.27,2.08,2.27,1.17,0,2.31-1.05,2.07-2.28-.23-1.16-1.31-1.87-1.85-3.42"/><path d="M32.37,38.73c1.16-.16,2.15-1.35,1.75-2.53-.38-1.13-1.55-1.68-2.29-3.14-.09-.17-.17-.19-.26-.18-.09,.01-.16,.05-.2,.24-.32,1.61-1.29,2.46-1.36,3.65-.07,1.25,1.2,2.13,2.37,1.97"/><path d="M33.45,47.3c1.16-.16,2.15-1.35,1.75-2.53-.38-1.13-1.55-1.68-2.29-3.14-.09-.18-.17-.19-.26-.18-.09,.01-.16,.05-.2,.24-.32,1.61-1.29,2.46-1.36,3.65-.07,1.25,1.2,2.13,2.37,1.97"/><path d="M33.99,50.19c-.09-.17-.18-.19-.26-.18-.09,.01-.16,.05-.2,.24-.32,1.61-1.29,2.46-1.36,3.64-.07,1.25,1.2,2.13,2.37,1.97,1.16-.16,2.15-1.35,1.75-2.53-.38-1.13-1.55-1.68-2.29-3.14"/><path d="M42.53,6.7h-12.33c-4.96,0-9,4.04-9,9v4l-8.54,5.13c-.9,.54-1.46,1.52-1.46,2.57v2.3c0,.55,.45,1,1,1h24c.55,0,1-.45,1-1v-2.3c0-1.05-.55-2.03-1.46-2.57l-8.54-5.13h-3.96c-.07-.2-.01-.41,.3-.48,1.84-.39,2.97-.63,3.66-.77v-2.75c0-1.65,1.35-3,3-3h12.33c1.65,0,3,1.35,3,3V56.86c1.06-.02,2.08-.03,3-.03s1.94,.01,3,.03V15.7c0-4.96-4.04-9-9-9"/></g></g></svg>