<?xml version="1.0" encoding="UTF-8"?><svg id="Laag_1" xmlns="http://www.w3.org/2000/svg" xmlns:xlink="http://www.w3.org/1999/xlink" viewBox="0 0 24 24"><defs><style>.cls-1{fill:none;}.cls-2{clip-path:url(#clippath);}.cls-3{clip-path:url(#clippath-1);}</style><clipPath id="clippath"><rect class="cls-1" width="24" height="24"/></clipPath><clipPath id="clippath-1"><rect class="cls-1" width="24" height="24"/></clipPath></defs><g class="cls-2"><g class="cls-3"><path d="m19.21,10.49c-.42-.45-1.1-.54-1.61-.2l-3.6,2.38V4.66c0-1.28-1.1-1.66-2.35-1.66s-2.65.38-2.65,1.66v8.01l-3.6-2.38c-.52-.34-1.2-.26-1.61.2-.41.45-.44,1.14-.05,1.62l6.79,8.5c.24.3.6.47.98.47s.74-.17.98-.47l6.79-8.5c.38-.48.36-1.17-.05-1.62"/></g></g></svg>