<?xml version="1.0" encoding="UTF-8"?><svg id="Laag_1" xmlns="http://www.w3.org/2000/svg" xmlns:xlink="http://www.w3.org/1999/xlink" viewBox="0 0 64 64"><defs><style>.cls-1{fill:none;}.cls-2{clip-path:url(#clippath);}.cls-3{clip-path:url(#clippath-1);}</style><clipPath id="clippath"><rect class="cls-1" width="64" height="64"/></clipPath><clipPath id="clippath-1"><rect class="cls-1" width="64" height="64"/></clipPath></defs><g class="cls-2"><g class="cls-3"><path d="M52,20.09V10.46c0-3.59-8.95-4.46-20-4.46s-20,.87-20,4.46v7.25c4.29,.76,10.53,1.87,10.74,1.93,.33,.09,.25,.36,.25,.36l-.35,.05H12.77c-4.26,0-7.72,3.41-7.72,7.61v18.86c0,9.68,20.63,10.44,26.95,10.44,9.03,0,26.95-1.46,26.95-10.44V27.66c0-3.94-3.06-7.19-6.95-7.57m3.05,26.43c0,4.24-11.88,6.53-23.05,6.53s-23.05-2.29-23.05-6.53V27.66c0-2.04,1.71-3.71,3.82-3.71H51.23c2.11,0,3.82,1.66,3.82,3.71v18.86Zm-23.05-16.29c-5.7,0-11.02,3.44-14.93,7.64,3.49,4.96,8.91,9.9,14.93,9.9s11.43-4.93,14.93-9.9c-3.92-4.22-9.24-7.64-14.93-7.64m0,14.55c-4.89,0-9.25-4.56-10.98-6.63,1.34-1.2,4.02-3.3,7.3-4.32-.89,.92-1.44,2.17-1.44,3.55,0,2.83,2.29,5.12,5.12,5.12s5.12-2.29,5.12-5.12c0-1.38-.55-2.62-1.43-3.54,3.27,1.02,5.96,3.13,7.3,4.32-1.72,2.07-6.07,6.63-10.98,6.63"/></g></g></svg>