<?xml version="1.0" encoding="UTF-8"?><svg id="Laag_1" xmlns="http://www.w3.org/2000/svg" xmlns:xlink="http://www.w3.org/1999/xlink" viewBox="0 0 64 64"><defs><style>.cls-1{fill:none;}.cls-2{clip-path:url(#clippath);}.cls-3{clip-path:url(#clippath-1);}</style><clipPath id="clippath"><rect class="cls-1" width="64" height="64"/></clipPath><clipPath id="clippath-1"><rect class="cls-1" width="64" height="64"/></clipPath></defs><g class="cls-2"><g class="cls-3"><path d="M50,7H28.83c-.53,0-1.04,.21-1.42,.59l-14.83,14.83c-.38,.38-.59,.88-.59,1.42v31.17c0,1.1,.9,2,2,2H50c1.1,0,2-.9,2-2V9c0-1.1-.9-2-2-2m-3,45H17V25.29l-3.15-.93c-.34-.11-.22-.36-.22-.36h14.37c.55,0,1-.45,1-1V8.63s.25-.11,.36,.23l.93,3.13h16.71V52Z"/><path d="M24.65,33.51c0,2.44,1.18,4.27,2.54,6.38,1.33,2.05,2.83,4.63,3.76,8.23,.12,.48,.56,.81,1.05,.81s.92-.33,1.05-.81c.93-3.6,2.44-6.18,3.76-8.23,1.36-2.11,2.54-3.94,2.54-6.38,0-4.19-3.16-7.36-7.35-7.36s-7.35,3.16-7.35,7.36m7.35-3.75c2.05,0,3.71,1.66,3.71,3.71s-1.66,3.71-3.71,3.71-3.71-1.66-3.71-3.71,1.66-3.71,3.71-3.71"/></g></g></svg>