<?xml version="1.0" encoding="UTF-8"?><svg id="Laag_1" xmlns="http://www.w3.org/2000/svg" xmlns:xlink="http://www.w3.org/1999/xlink" viewBox="0 0 64 64"><defs><style>.cls-1{fill:none;}.cls-2{clip-path:url(#clippath);}.cls-3{clip-path:url(#clippath-1);}</style><clipPath id="clippath"><rect class="cls-1" width="64" height="64"/></clipPath><clipPath id="clippath-1"><rect class="cls-1" width="64" height="64"/></clipPath></defs><g class="cls-2"><g class="cls-3"><path d="M62.78,47.25l-8.56-11.64c-.28-.39-.74-.62-1.22-.62h-5.32c-.22,.02-.42,.09-.59,.21-.17,.12-.29,.3-.36,.5l-1.6,5.08c-.14,.46-.06,.96,.23,1.35l8.56,11.64c.33,.45,.99,.52,1.43,.19l7.18-5.28c.45-.33,.57-.98,.25-1.42m-11.88-7.04c-.68,.49-1.62,.35-2.12-.32-.5-.67-.35-1.62,.32-2.12,.68-.49,1.63-.35,2.12,.33,.49,.67,.34,1.61-.32,2.11"/><path d="M57,24l-9.05-13.57c-.62-.92-1.53-1.62-2.58-1.97l-7.37-2.46c-2.12,3.55-5.92,7.39-10.45,6.68-.34-.05-.39-.27-.3-.38,2.29-.47,4.89-2.23,6.83-4.53-1.46,.47-3.21,.86-5.08,.86-4.89,0-9-2.62-9-2.62l-7.37,2.46c-1.05,.35-1.96,1.05-2.58,1.97L1,24l8,8.28,5-4.44v29.16h30V27.84l5,4.44,8-8.28Z"/></g></g></svg>