<?xml version="1.0" encoding="UTF-8"?><svg id="Laag_1" xmlns="http://www.w3.org/2000/svg" xmlns:xlink="http://www.w3.org/1999/xlink" viewBox="0 0 64 64"><defs><style>.cls-1{fill:none;}.cls-2{clip-path:url(#clippath);}.cls-3{clip-path:url(#clippath-1);}</style><clipPath id="clippath"><rect class="cls-1" width="64" height="64"/></clipPath><clipPath id="clippath-1"><rect class="cls-1" width="64" height="64"/></clipPath></defs><g class="cls-2"><g class="cls-3"><path d="M59.7,16.44c-1.15-1.4-2.82-2.27-4.58-2.6-.64-.75-1.33-1.25-1.85-1.55-.45-.26-1,.03-1.08,.55-.05,.33-.06,.68-.06,1.01-6.54,1.17-6.37,8.44-11.1,9.55-4.88,1.14-11.61-5.75-19.12-4.1-4.47,.98-6.95,3.3-8.27,5.95-6.93,.76-10.63,3.75-12.01,7.21-1.66,4.17,.06,9.03,3.59,11.48,3.72,2.58,8.69,2.66,8.85,.21,.03-.44-.18-.89-.67-1.22-.61-.41-2.35-.66-4.15-2.62-1.38-1.5-2.06-3.15-1.8-5.15,.32-2.41,2.56-4.07,4.92-5.03-.17,2.26,.07,5.81,3.74,9.01l-.78,1.33c-.37,.62-.31,1.4,.14,1.97l2.22,2.78c.38,.48,.97,.76,1.58,.76h4.52c-.1-2.76-3.19-3.16-3.71-3.17,0,0,1.4-1.84,2.85-3.66,.94-1.18,1.4-2.32,1.58-3.39,.59-3.62-1.66-6.75-1.66-6.75,.08-.16,.31-.09,.51,.06,2.47,1.89,3.34,4.33,3.41,7.07,4.89,.13,7.07,2.88,13.91,2.57l4.43,6.4c.38,.55,1,.87,1.66,.87h4.63c0-2.87-3.97-3.09-3.97-3.09l-.35-2.44c-.18-1.29,.34-2.55,1.32-3.4,2.39-2.06,3.62-3.97,4.35-5.72,1.23-2.94,1.02-5.42,2.44-7.31,1.66-2.22,4.35-1.37,6.12-2.09,.83-.34,1.45-1.02,1.68-2.52,.14-.94-1.87-1.22-3.29-2.95m-3.13,2.89c-.69,0-1.25-.56-1.25-1.25s.56-1.25,1.25-1.25,1.25,.56,1.25,1.25-.56,1.25-1.25,1.25"/></g></g></svg>