<?xml version="1.0" encoding="UTF-8"?><svg id="Laag_1" xmlns="http://www.w3.org/2000/svg" xmlns:xlink="http://www.w3.org/1999/xlink" viewBox="0 0 64 64"><defs><style>.cls-1{fill:none;}.cls-2{clip-path:url(#clippath);}.cls-3{clip-path:url(#clippath-1);}</style><clipPath id="clippath"><rect class="cls-1" width="64" height="64"/></clipPath><clipPath id="clippath-1"><rect class="cls-1" width="64" height="64"/></clipPath></defs><g class="cls-2"><g class="cls-3"><path d="M49.51,8.96c0,.51,.25,.93,.75,.98l2.52,.28c.78,.09,1.21-.48,1.21-1.27s-.44-1.35-1.21-1.26l-2.52,.28c-.5,.06-.75,.48-.75,.98"/><path d="M47.91,6.18c.44,.25,.93,.25,1.23-.15l1.5-2.04c.46-.63,.19-1.29-.49-1.68-.68-.39-1.39-.3-1.7,.42l-1.02,2.32c-.2,.46,.04,.89,.48,1.14"/><path d="M39.82,10.22l2.52-.28c.5-.06,.75-.48,.75-.99s-.25-.93-.75-.98l-2.52-.28c-.78-.09-1.21,.48-1.21,1.26s.44,1.35,1.21,1.26"/><path d="M43.33,38c-.08-1.51-.33-3.01-.76-4.47l3.61-3.6c1.03-1.03,1.27-2.94,.42-4.17-1.1-1.57-2.33-3.04-3.66-4.42l.83-.83c2.32-2.32,3.59-5.4,3.59-8.68v-3c0-.55-.42-1-.97-1s-1,.45-1,1v3c0,2.74-1.07,5.33-3.01,7.27l-.86,.86c-1.23-1.14-2.52-2.22-3.9-3.19-1.24-.85-3.14-.61-4.17,.43-.66,.66-1.32,1.32-1.98,1.98,1.93,1.01,3.73,2.35,5.26,4.07,.55,.61,1.15,1.57,1.41,2.18,.11,.26,.04,.38-.05,.42,0,0-.02,0-.03,.01-2.15-2.24-4.58-3.78-7.32-4.76-6.69-2.38-14.45-.89-19.81,4.47-7.42,7.42-7.42,19.45,0,26.87,2.85,2.85,6.38,4.59,10.06,5.25v-15.19c0-2.48,2.02-4.5,4.5-4.5h17.83Z"/><path d="M43.47,6.02c.3,.41,.79,.41,1.23,.16,.44-.25,.68-.68,.48-1.14l-1.02-2.33c-.31-.72-1.02-.81-1.7-.42-.68,.39-.95,1.05-.49,1.68l1.51,2.04Z"/><path d="M54.5,41H25.5c-.83,0-1.5,.67-1.5,1.5v19c0,.83,.67,1.5,1.5,1.5h29c.83,0,1.5-.67,1.5-1.5v-19c0-.83-.67-1.5-1.5-1.5m-1.87,3l-12.62,8.35-12.62-8.35h25.25Zm.37,15.96l-7.77-5.86s-.15,.1-.01,.27c.14,.17,4.36,5.64,4.36,5.64H30.52s4.21-5.46,4.35-5.63c.14-.17,0-.28,0-.28l-7.86,5.9v-13.25l12.3,8.2c.43,.28,.98,.28,1.41,0l12.28-8.2v13.2Z"/></g></g></svg>