<?xml version="1.0" encoding="UTF-8"?><svg id="Laag_1" xmlns="http://www.w3.org/2000/svg" xmlns:xlink="http://www.w3.org/1999/xlink" viewBox="0 0 64 64"><defs><style>.cls-1{fill:none;}.cls-2{clip-path:url(#clippath);}.cls-3{clip-path:url(#clippath-1);}</style><clipPath id="clippath"><rect class="cls-1" width="64" height="64"/></clipPath><clipPath id="clippath-1"><rect class="cls-1" width="64" height="64"/></clipPath></defs><g class="cls-2"><g class="cls-3"><path d="M18.02,53.7c0,1.03,.84,1.87,1.87,1.87h2.58v-21.24h-4.45v19.37Z"/><path d="M49.92,23.44l-14.89-6.71c-.6-.27-1.23-.45-1.87-.55v-2.07c0-.62,.4-1.2,1.05-1.52,2.12-1.04,3.23-3.38,2.7-5.71-.42-1.85-1.89-3.32-3.74-3.74-1.53-.35-3.11,0-4.32,.97-1.21,.96-1.9,2.4-1.9,3.95,0,.64,.52,1.17,1.17,1.17s1.16-.52,1.16-1.17c0-.83,.37-1.61,1.03-2.13,.66-.53,1.49-.71,2.35-.52,.97,.22,1.77,1.02,1.99,1.99,.29,1.27-.31,2.54-1.45,3.1-1.45,.71-2.35,2.09-2.35,3.61v2.07c-.64,.1-1.27,.28-1.87,.55l-14.88,6.71c-1.85,.84-3.05,2.69-3.05,4.72,0,2.85,2.32,5.17,5.17,5.17h7.25v25.81c0,1.03,.84,1.86,1.86,1.86h18.79c1.03,0,1.86-.83,1.86-1.86V30.22c0-2.57-2.09-4.66-4.66-4.66H22.7c-2.41,0-4.39,1.82-4.64,4.16l4.94,.65c.38,.05,.52,.28,.45,.63h-7.24c-1.57,0-2.85-1.28-2.85-2.84,0-1.12,.66-2.14,1.68-2.59l14.88-6.71c.66-.3,1.37-.45,2.08-.45s1.42,.15,2.07,.45l14.89,6.71c1.02,.46,1.67,1.48,1.67,2.59,0,1.57-1.28,2.84-2.85,2.84h-.82v2.33h.82c2.85,0,5.17-2.32,5.17-5.17,0-2.03-1.2-3.88-3.05-4.72m-15.41,6.49c1.33,0,2.15,.84,2.15,2.42,0,1.38-.79,2.34-2.15,2.34s-2.15-.84-2.15-2.34,.75-2.42,2.15-2.42m-5.4,13.57c.3-1.64,.63-2.54,.77-3.68,.3-2.53,1.19-3.74,2.61-4.18,.67-.21,1.32-.31,2.05-.31s1.37,.1,2.05,.31c1.42,.44,2.31,1.66,2.61,4.18,.14,1.14,.47,2.04,.77,3.68,.24,1.34-.49,2.07-1.08,2.15-1.37-4.36-1.27-6.25-1.61-7.23-.06-.18-.21-.45-.21-.45,.29,1.2,.1,1.76-.04,2.37-.15,.65-.19,1.32-.02,1.96,.32,1.21,1.11,2.78,1.11,6.64,0,0-.53-.09-1.3-.13v7.75s-1.85-.04-1.95-1.85c0,0,0-3.96,0-5.82-.1,.01-.21,.03-.31,.05-.12,.02-.23,.03-.34,.05,0,1.91,0,5.77,0,5.77-.13,1.76-1.95,1.81-1.95,1.81v-7.44c-.83-.03-1.3-.16-1.3-.16,0-3.86,.79-5.46,1.11-6.67,.17-.64,.16-1.32,0-1.96-.14-.6-.33-1.17-.04-2.37,0,0-.15,.27-.21,.45-.34,.98-.24,2.87-1.61,7.23-.6-.08-1.33-.81-1.08-2.15"/></g></g></svg>