<?xml version="1.0" encoding="UTF-8"?><svg id="Laag_1" xmlns="http://www.w3.org/2000/svg" xmlns:xlink="http://www.w3.org/1999/xlink" viewBox="0 0 64 64"><defs><style>.cls-1{fill:none;}.cls-2{clip-path:url(#clippath);}.cls-3{clip-path:url(#clippath-1);}</style><clipPath id="clippath"><rect class="cls-1" width="64" height="64"/></clipPath><clipPath id="clippath-1"><rect class="cls-1" width="64" height="64"/></clipPath></defs><g class="cls-2"><g class="cls-3"><path d="M19.81,49.38c-4.76-6.15-6.62-14.05-4.96-21.14,1.5-6.42,5.98-11.16,11.7-12.38,8.64-1.84,14.26,2.56,21.37,8.14,.89,.7,1.79,1.41,2.73,2.12,.97,.74,2.41,1.49,2.41,1.49,.14,0,.33-.23,.11-.74-.69-1.65-4.31-5.4-7.32-7.63-5.93-4.4-11.68-7.55-19.85-5.81-6.7,1.43-11.93,6.89-13.65,14.26-1.82,7.79,.2,16.46,5.41,23.19,3.28,4.24,7.15,6.56,10.82,7.92,4.27,1.59,9.59,1.78,12.99-.5,.33-.22,.4-.53,.25-.67-.54,.13-13.28,3.02-22-8.24"/><path d="M16.1,53.18c-1.85-2.26-4.07-6.17-4.99-9.99-.25-.03-.38,.41-.4,.85-.09,2.44,.55,4.91,1.33,6.88,1.18,2.97,2.88,5.48,6.04,7.42,1.48,.91,3.31,1.6,5.39,1.49,.37-.02,.71-.14,.68-.37-3.34-1.74-6.05-3.85-8.05-6.28"/><path d="M13.96,18.79c1.32-2.47,4.35-5.1,7.44-6.86,3.96-2.25,4.87-4.11,10.1-5.21,3.77-.79,9.2,.31,12.12,2.58,.25-.11,.18-.5-.14-1.07-2.12-3.88-8.7-4.91-13.53-3.84-3.83,.85-7.71,2.83-11.08,6.08-1.91,1.84-4.71,5.61-5.08,7.48-.13,.65-.02,.85,.16,.84"/><path d="M28.6,9.75c-.49,.28-.4,.45-.36,.5,7.02-.5,15.48,3.16,21.53,9.33,.23,.02,.27-.22,.08-.85-.34-1.18-1.52-3.4-3.96-5.34-2.61-2.08-5.22-3.3-8.48-4.24-3.77-1.09-7.99,.12-8.82,.6"/><path d="M52.66,36.1c-.37-.18-.72-.35-1.09-.54-4.67-2.33-7.25-4.37-10.67-7.05-.96-.76-1.99-1.57-3.15-2.45-3.43-2.62-7.53-3.2-10.69-1.53-3.33,1.76-4.96,5.58-4.47,10.47,.37,3.69,1.7,6.95,3.98,9.76,1.51,1.86,6.15,6.26,10.81,6.26,.55,0,.71-.16,.71-.38-7.84-3.71-12.31-9.53-12.95-15.88-.39-3.85,.76-6.79,3.15-8.05,2.24-1.19,5.26-.69,7.87,1.3,1.14,.87,2.16,1.67,3.11,2.42,3.66,2.88,6.39,5.03,11.59,7.57,.18,.09,.63,.34,.88,.45,.74,.35,1.19-.25,1.38-1.02,.14-.56,.06-1.09-.47-1.34"/><path d="M51.68,41.16c-1.9-.82-6.26-2.77-9.78-5.3-1.1-.79-2.24-1.8-3.35-2.77-3.1-2.74-6.62-5.84-9.3-3.24-.95,.92-1.45,2.55-1.36,4.47,.16,3.65,2.24,7.46,5.58,10.2,3.66,3,9.51,6.15,13.21,7.8,.61,.27,1.04-.2,1.38-.77h0c.4-.66,.42-1.25-.3-1.56-.24-.1-.48-.21-.7-.31-2.57-1.18-8.03-3.86-11.93-7.06-4.15-3.4-4.62-7.29-4.67-8.4-.06-1.33,.27-2.27,.61-2.6,.95-.92,3.5,1.33,5.75,3.32,1.15,1.02,2.34,2.07,3.55,2.93,3.64,2.61,8.13,4.64,10.27,5.56,.7,.3,1.24-.19,1.46-.9h0c.19-.6,.16-1.11-.42-1.37"/><path d="M50.09,45.51c-2.08-.8-6.85-2.78-9.57-4.71-3.63-2.58-5.46-4.19-7.26-6.23-.28,.05-.53,.43-.14,1.45,.66,1.75,1.84,3.92,5.88,6.79,2.97,2.11,7.95,4.17,10.13,5.01,.67,.26,1.1-.29,1.35-.94h0c.24-.63,.25-1.12-.39-1.37"/><path d="M52.82,30.12c-3.69-1.89-6.53-4.04-9.08-5.96-.73-.55-1.44-1.08-2.14-1.59-.28,.07-.31,.51-.01,1.3,.29,.78,.83,2.46,2.82,3.91,2.19,1.6,4.8,3.27,7.6,4.72,.85,.44,1.31-.39,1.3-1.33h0c0-.46-.07-.82-.48-1.04"/><path d="M45.34,54.86c-1.2-.55-2.91-1.28-4.14-1.83-1.62,.37-3.61,.27-5.17,.05-5.47-.79-9.96-4.01-12.02-7.14-.48-.74-2.83,.5-2.12,1.45,4.45,6.01,10.4,7.8,14.47,8.22,4.88,.51,7.41,.23,8.6-.24,.31-.12,.47-.33,.38-.51"/><path d="M22.36,43.45h0c-.38-.68-.66-1.24-.87-1.67-2.71-5.79-2.52-11.92,.51-16.38,2.08-3.06,5.2-4.82,8.58-4.72,3.49,.06,6.17,1.53,9.07,3.59,.2-.04,.37-.25,.13-1.06-.26-.89-1.01-2.6-3.24-3.69-1.75-.86-3.7-1.29-5.91-1.33-4.29-.07-8.2,2.05-10.78,5.84-3.52,5.18-3.79,12.2-.71,18.78,.31,.66,.64,1.28,.98,1.88,.61,1.07,2.65-.4,2.23-1.23"/></g></g></svg>