<?xml version="1.0" encoding="UTF-8"?><svg id="Laag_1" xmlns="http://www.w3.org/2000/svg" xmlns:xlink="http://www.w3.org/1999/xlink" viewBox="0 0 64 64"><defs><style>.cls-1{fill:none;}.cls-2{clip-path:url(#clippath);}.cls-3{clip-path:url(#clippath-1);}</style><clipPath id="clippath"><rect class="cls-1" width="64" height="64"/></clipPath><clipPath id="clippath-1"><rect class="cls-1" width="64" height="64"/></clipPath></defs><g class="cls-2"><g class="cls-3"><path d="M18,57h6v-13h7v13h23v-19H18v19Zm18-13s2-2,6-2,6,2,6,2v8h-12v-8Z"/><path d="M16.13,18.41s1.46,4.54,2.64,10.27l5.08-3.58c-.45-1.56-1.5-4.96-3.11-8.81,0,0,4.28-1.87,7.64,2.98,.13,.19,.43,.14,.46-.09,.26-2.12,.8-8.82-3.82-11.13-5.15-2.58-7.34,2.39-7.34,2.39C12.76,1.45,2.48,6.09,3.05,17.01c.01,.23,.31,.32,.46,.13,4.3-5.64,8.27-3.63,8.27-3.63C2.1,18.03,5.52,30.01,7.63,31.64c.15,.12,.37,0,.39-.18,.19-1.76,1.39-9.61,8.11-13.06"/><polygon points="36.09 19 12 36 60 36 36.09 19"/></g></g></svg>