<?xml version="1.0" encoding="UTF-8"?><svg id="Laag_1" xmlns="http://www.w3.org/2000/svg" xmlns:xlink="http://www.w3.org/1999/xlink" viewBox="0 0 64 64"><defs><style>.cls-1{fill:none;}.cls-2{clip-path:url(#clippath);}.cls-3{clip-path:url(#clippath-1);}</style><clipPath id="clippath"><rect class="cls-1" width="64" height="64"/></clipPath><clipPath id="clippath-1"><rect class="cls-1" width="64" height="64"/></clipPath></defs><g class="cls-2"><g class="cls-3"><path d="M12.53,22.95c1.78,.29,3.02-.79,3.32-2.59,.34-2.05-.56-3.33-2.3-3.61-1.83-.3-3.03,.84-3.34,2.69-.32,1.95,.53,3.22,2.32,3.51"/><path d="M16.63,36.24c1.49,1.57,3.05,.88,3.37,.72-2.82-3.77-3.27-3.08-4.21-6.46-.09-.31-1.05-3.98-1.12-4.21-.4-1.21-4.12-2.89-6.28-1.6-1.19,.71-3.42,2.36-4.55,3.6-.69,.76-.96,1.22-1.26,2.89-.18,1.05-.29,2.27-.31,3.33-.02,1.18,.6,2.29,1.84,2.55,.27-2.01,.69-5.02,1.33-6.33,.26-.53,1.45-1.33,1.95-1.65-.32,1.47-1.38,6.35-1.38,7.47,0,1.38,.86,2.1,1.44,2.7l2.23,2.34s-.02,.29-.43,.11c-1.05-.47-2.2-1.02-2.2-1.02-.43,1.63-1.04,3.96-1.81,5.27-.72,1.23-1.64,2.47-2.44,3.86-1.31,2.29,.27,3.97,.5,4.19,1.29-1.81,3.51-4.48,4.76-6.36,.97-1.45,1.7-3.15,2.48-5.08,.4,.36,2.15,2.08,2.43,2.6l3.05,6.96c.77,1.83,2.9,2.01,3.5,1.83-.25-1-2.57-9.81-3.66-11.61-.8-1.32-2.65-3.66-3.61-4.87,.33-1.74,.82-3.88,1.27-5.8,.84,2.62,1.21,2.56,3.12,4.57"/><path d="M48.98,55.89l1.02,5.11h6l-1.99-6.65c-1.46,.64-3.12,1.17-5.03,1.53"/><path d="M28,61h6l1.02-5.11c-1.9-.37-3.57-.89-5.03-1.53l-1.99,6.65Z"/><path d="M61.32,12.97c-1.47-2.9-4.75-9.16-5.99-9.87-1.58-.89-8.19-1.11-13.33-1.11s-11.75,.22-13.33,1.11c-1.25,.7-4.52,6.97-5.99,9.87-.49,.97-.72,2.05-.68,3.16l.9,23c.51,13.07,11.69,14.88,19.1,14.88s18.59-1.81,19.1-14.88l.9-23c.04-1.1-.19-2.19-.68-3.16m-19.32-6.12c1.74,0,3.15,1.41,3.15,3.15s-1.41,3.15-3.15,3.15-3.15-1.41-3.15-3.15,1.41-3.15,3.15-3.15m-9,36.3c-1.74,0-3.15-1.41-3.15-3.15s1.41-3.15,3.15-3.15,3.15,1.41,3.15,3.15-1.41,3.15-3.15,3.15m18,0c-1.74,0-3.15-1.41-3.15-3.15s1.41-3.15,3.15-3.15,3.15,1.41,3.15,3.15-1.41,3.15-3.15,3.15m5.6-25.86l-3.39,11c-.13,.42-.52,.71-.95,.71H31.74c-.44,0-.83-.29-.95-.71l-3.38-11c-.2-.64,.28-1.29,.95-1.29h27.29c.67,0,1.15,.65,.96,1.29"/></g></g></svg>