<?xml version="1.0" encoding="UTF-8"?><svg id="Laag_1" xmlns="http://www.w3.org/2000/svg" xmlns:xlink="http://www.w3.org/1999/xlink" viewBox="0 0 64 64"><defs><style>.cls-1{fill:none;}.cls-2{clip-path:url(#clippath);}.cls-3{clip-path:url(#clippath-1);}</style><clipPath id="clippath"><rect class="cls-1" width="64" height="64"/></clipPath><clipPath id="clippath-1"><rect class="cls-1" width="64" height="64"/></clipPath></defs><g class="cls-2"><g class="cls-3"><path d="M57.16,10.44c-4.82-4.7-12.65-4.38-17.44,.36l-4.46,4.41c-.87,.87-.88,2.27-.02,3.15l2.36,2.38c.86,.87,2.27,.88,3.15,.02l5.71-5.65v.03c2-2.32,5.56-2,7.17,.59,.87,1.4,.89,3.27-.03,4.64-1.17,1.75-4.66,1.69-6.14,1.69-.7,0-1.33,.3-1.62,.97l-1.4,3.27c-.13,.71,.1,1.44,.61,1.96l.54,.55c-2.47,2.75-5.4,5.8-8.77,9.14-5.4,5.34-9.56,9.05-12.75,11.63-.59,2.93-1.62,4.62-1.9,5.04-.15,.23-.31,.28-.43,.22,.26-.78,.38-1.67,.38-2.34,0-4.14-3.36-7.5-7.5-7.5-.68,0-1.34,.1-1.97,.27,1.24-4.06,3.62-10.19,8.1-19.45,3.53-7.29,3.72-7.24,10.18-19.49,.49-.95,.14-2.11-.79-2.63h0c-.93-.53-2.1-.22-2.66,.68-3.84,6.43-5.89,9.56-10.7,19.52-4.08,8.43-6.92,15.29-8.44,20.39-.75,2.52-1.48,5.56-1.26,8.31,.35,4.49,3.58,7.4,7.55,7.4,1.52,0,2.67-.41,3.91-1.1,4.31-2.38,11.78-8.3,21.39-17.8,3.35-3.31,6.28-6.36,8.78-9.13l.62,.63c.86,.87,2.27,.88,3.15,.02l4.75-4.7c4.86-4.81,4.86-12.68-.05-17.48M14.5,56.1c-1.99,0-3.6-1.61-3.6-3.6s1.61-3.6,3.6-3.6,3.6,1.61,3.6,3.6-1.61,3.6-3.6,3.6"/></g></g></svg>