<?xml version="1.0" encoding="UTF-8"?><svg id="Laag_1" xmlns="http://www.w3.org/2000/svg" xmlns:xlink="http://www.w3.org/1999/xlink" viewBox="0 0 64 64"><defs><style>.cls-1{fill:none;}.cls-2{clip-path:url(#clippath);}.cls-3{fill:#fff;}.cls-4{clip-path:url(#clippath-1);}</style><clipPath id="clippath"><rect class="cls-1" width="64" height="64"/></clipPath><clipPath id="clippath-1"><rect class="cls-1" width="64" height="64"/></clipPath></defs><g class="cls-2"><g class="cls-4"><path class="cls-3" d="M32,45.2c6.51,0,9.47-1.67,14.01-5.58,1.61-1.38,3.41-3.43,5.63-5.29l-1.25-2.75s.32-2.17,.53-3.27c.32-1.7,.56-6.03,.56-6.03-9.63,0-12.58-.98-13.99-2.12-1.8-1.45-2.9-2.96-5.5-2.96s-3.71,1.51-5.51,2.96c-1.41,1.14-4.35,2.12-13.98,2.12,0,0,.24,4.34,.56,6.03,.21,1.1,.53,3.27,.53,3.27l-1.25,2.75c2.49,2.09,4.45,4.29,6.2,5.77,4.23,3.58,7.22,5.1,13.45,5.1"/><path d="M61.93,23.84c-.23-2.69-1.89-4.53-4.34-4.79-1.41-.15-3.43,.23-5.42,1.48-1.69-.08-11.16,.21-13.56-1.73-1.76-1.42-3.29-3.35-6.6-3.35s-4.76,1.86-6.6,3.35c-2.38,1.92-11.61,1.64-13.56,1.73-1.99-1.26-4.01-1.63-5.42-1.48-2.45,.26-4.12,2.1-4.34,4.79-.35,4.23,2.79,9.48,9.43,12.07,2.01,1.72,4.42,4.26,5.92,5.53,4.41,3.73,7.72,5.51,14.58,5.51s10.33-1.85,15.16-6c1.41-1.21,3.37-3.34,5.37-5.05,6.63-2.59,9.77-7.83,9.41-12.06m-57.38,.21c.07-.86,.44-2.33,2.12-2.51,.85-.09,2.47,.14,4.12,1.28,.07,1.17,.29,4.34,.56,5.82,.14,.75,.33,1.99,.44,2.69l-.75,1.65c-5-2.47-6.69-6.56-6.49-8.93m40.32,14.24c-4.43,3.81-7.04,5.16-12.87,5.16s-8.42-1.38-12.32-4.68c-1.44-1.22-3.13-3.06-5.2-4.9l.85-1.87,10.82,2.91c.12-.14,.22-.49-.29-.77-.44-.24-8.16-4.51-11.07-6.12v-.02c-.16-.85-.31-2.56-.42-3.98,8.5-.12,11.47-1.09,13.22-2.5,1.84-1.48,2.54-2.58,4.41-2.58s2.55,1.08,4.4,2.58c1.74,1.41,4.72,2.38,13.22,2.5-.1,1.42-.26,3.13-.41,3.97v.02c-2.91,1.61-10.63,5.87-11.07,6.12-.51,.28-.42,.63-.29,.77l10.82-2.91,.85,1.87c-1.6,1.45-3.46,3.4-4.64,4.42m8.08-5.31l-.75-1.65c.1-.7,.3-1.94,.44-2.69,.28-1.48,.49-4.65,.56-5.82,1.65-1.15,3.26-1.38,4.12-1.28,1.67,.18,2.04,1.65,2.12,2.51,.2,2.37-1.49,6.46-6.48,8.93"/></g></g></svg>