<?xml version="1.0" encoding="UTF-8"?><svg id="Laag_1" xmlns="http://www.w3.org/2000/svg" xmlns:xlink="http://www.w3.org/1999/xlink" viewBox="0 0 24 24"><defs><style>.cls-1{fill:none;}.cls-2{clip-path:url(#clippath);}.cls-3{clip-path:url(#clippath-1);}</style><clipPath id="clippath"><rect class="cls-1" width="24" height="24"/></clipPath><clipPath id="clippath-1"><rect class="cls-1" width="24" height="24"/></clipPath></defs><g class="cls-2"><g class="cls-3"><path d="m19,2h-8.59c-.26,0-.52.1-.71.29l-5.41,5.41c-.19.19-.29.44-.29.71v12.59c0,.55.45,1,1,1h14c.55,0,1-.45,1-1V3c0-.55-.45-1-1-1m-1,18H6v-11h4c.55,0,1-.45,1-1v-4h7v16Z"/><rect x="8" y="11" width="8" height="1"/><rect x="8" y="14" width="8" height="1"/><rect x="8" y="17" width="8" height="1"/></g></g></svg>