<?xml version="1.0" encoding="UTF-8"?><svg id="Laag_1" xmlns="http://www.w3.org/2000/svg" xmlns:xlink="http://www.w3.org/1999/xlink" viewBox="0 0 64 64"><defs><style>.cls-1{fill:none;}.cls-2{clip-path:url(#clippath);}.cls-3{clip-path:url(#clippath-1);}</style><clipPath id="clippath"><rect class="cls-1" width="64" height="64"/></clipPath><clipPath id="clippath-1"><rect class="cls-1" width="64" height="64"/></clipPath></defs><g class="cls-2"><g class="cls-3"><path d="M46.36,15.16c-.39-.24-.88,.13-.73,.57,1.79,5.3,1.02,10.99-1.56,14.62-4.15,5.83-12.1,6.89-10.61,16.66,.14,.93,.45,1.88,.9,2.82,7.38-1.15,13.5-9,13.82-9.43,.36-.48,.69-.37,.75-.17-2.14,4.33-4.3,7.44-7.1,9.8-1.98,1.66-4.43,3.02-6.59,3.78-8.75,3.08-18.68-.7-23.04-9.18-2.3-4.48-2.72-9.59-1.17-14.39,.82-2.54,2.14-4.82,3.86-6.75l3.8,4.13c1.29,1.4,3.47,1.49,4.87,.2l6.76-6.23-2.33-2.54,6.34-5.84c.7-.65,.74-1.74,.1-2.44-.65-.7-1.74-.75-2.44-.1l-6.34,5.84-4.67-5.07,6.34-5.84c.7-.65,.74-1.74,.1-2.44-.65-.7-1.74-.75-2.44-.1l-6.34,5.84-2.34-2.54-6.76,6.23c-1.4,1.29-1.49,3.47-.2,4.87l2.83,3.07c-2.22,2.4-3.92,5.27-4.95,8.47-1.87,5.81-1.37,12.01,1.42,17.44,4.05,7.88,12.07,12.42,20.38,12.42,4.31,0,7.81-1.12,11.28-2.98,3.1,1.66,6.07,1.77,8.81,.67,13.36-5.36,14.09-30.93-2.75-41.4"/></g></g></svg>