<?xml version="1.0" encoding="UTF-8"?><svg id="Laag_1" xmlns="http://www.w3.org/2000/svg" xmlns:xlink="http://www.w3.org/1999/xlink" viewBox="0 0 64 64"><defs><style>.cls-1{fill:none;}.cls-2{clip-path:url(#clippath);}.cls-3{clip-path:url(#clippath-1);}</style><clipPath id="clippath"><rect class="cls-1" width="64" height="64"/></clipPath><clipPath id="clippath-1"><rect class="cls-1" width="64" height="64"/></clipPath></defs><g class="cls-2"><g class="cls-3"><path d="M56.72,39.87c-.65-2.39-5.37-6.84-7.64-8.76-.77-.66-1.76-1.01-2.77-1.01h-1.11c.97-4.71,2.8-10.55,5.71-16.95-.62-.24-12.22-7.06-28.04-7.08,.62,3.12,.86,4.45,1.5,9.33-3.43,1.16-5.94,2.73-8.3,4.53,1.11,2.79,2.16,5.98,2.9,10.16h-1.29c-1.01,0-2,.35-2.77,1.01-2.26,1.93-6.98,6.37-7.64,8.76-.61,2.24,.7,13.02,1.93,14.97,1.43,2.24,14.74,4.17,22.78,4.17s21.36-1.92,22.78-4.17c1.24-1.95,2.55-12.73,1.93-14.97m-24.72-1.72c-7.9,0-14.31-.96-14.31-2.14,0-.64,1.88-1.21,4.85-1.6-.43-5.98-2.06-11.18-2.84-13.4,1.02-.66,2.84-1.73,5.05-2.55,.47,3.99,.55,5.43,.79,7.91,.06,.01,.21,.03,.34-.28,1.01-2.46,1.56-10.69,.58-16.95,3.5,.24,11.77,1.25,20.53,5.41-1.38,3.26-4.72,11.83-5.49,19.87,2.94,.39,4.8,.96,4.8,1.6,0,1.18-6.41,2.14-14.31,2.14"/></g></g></svg>