<?xml version="1.0" encoding="UTF-8"?><svg id="Laag_1" xmlns="http://www.w3.org/2000/svg" xmlns:xlink="http://www.w3.org/1999/xlink" viewBox="0 0 64 64"><defs><style>.cls-1{fill:none;}.cls-2{clip-path:url(#clippath);}.cls-3{clip-path:url(#clippath-1);}</style><clipPath id="clippath"><rect class="cls-1" width="64" height="64"/></clipPath><clipPath id="clippath-1"><rect class="cls-1" width="64" height="64"/></clipPath></defs><g class="cls-2"><g class="cls-3"><path d="M46.2,28l6.29,7.4c.3,.35,.8,.45,1.21,.25l6.37-3.18c.51-.25,.7-.88,.43-1.38l-8.15-14.82c-1.51-2.75-3.98-4.86-6.93-5.94l-4.74-1.72c-1.06-.38-1.88-1.23-2.24-2.3l-.43-1.29-6-.02-6,.02-.43,1.29c-.36,1.07-1.18,1.92-2.24,2.3l-4.74,1.72c-2.95,1.07-5.42,3.19-6.93,5.94L3.5,31.09c-.27,.5-.08,1.12,.43,1.38l6.37,3.18c.41,.21,.91,.1,1.21-.25l6.29-7.4,.19,2.03c.67,7.28,.41,14.62-.8,21.83l-1.19,7.14H48l-1.19-7.14c-1.2-7.21-1.47-14.55-.8-21.83l.19-2.03Zm-15.06,2.11c0,1.89-1.25,3.12-3.19,3.12-2.07,0-3.12-1.01-3.12-3.01v-5.37h1.76v5.2c0,1.08,.46,1.58,1.44,1.58,.93,0,1.42-.54,1.42-1.55v-5.22h1.69v5.26Zm6.02,3.02h-2.39l-2.42-8.28h1.94l1.75,6.23,1.74-6.23h1.82l-2.45,8.28Z"/></g></g></svg>