<?xml version="1.0" encoding="UTF-8"?><svg id="Laag_1" xmlns="http://www.w3.org/2000/svg" xmlns:xlink="http://www.w3.org/1999/xlink" viewBox="0 0 64 64"><defs><style>.cls-1{fill:none;}.cls-2{clip-path:url(#clippath);}.cls-3{clip-path:url(#clippath-1);}</style><clipPath id="clippath"><rect class="cls-1" width="64" height="64"/></clipPath><clipPath id="clippath-1"><rect class="cls-1" width="64" height="64"/></clipPath></defs><g class="cls-2"><g class="cls-3"><path d="M26.19,10.94c.43-.04,.77-.19,1.04-.43,.42,1.6,1.64,2.7,3.57,3.12,2.96,.65,5.12-1.04,5.78-4.03,.74-3.4-.64-5.61-3.52-6.24-3.03-.67-5.14,1.13-5.81,4.19-.14,.62-.18,1.2-.16,1.74-.12,.09-.33,.03-.47-.41-.14-.45-.29-1.28-.07-2.51-.23-.07-.48-.1-.76-.07-1.23,.11-1.8,1.14-1.68,2.52,.13,1.46,.89,2.22,2.09,2.11"/><path d="M36,56c-1.66,0-3,1.34-3,3s1.34,3,3,3,3-1.34,3-3-1.34-3-3-3"/><path d="M48,56c-1.66,0-3,1.34-3,3s1.34,3,3,3,3-1.34,3-3-1.34-3-3-3"/><path d="M51.27,52.08c-.33-.06-.66-.07-1.23-.07-.01,0-.02,0-.03,0h-2.47c-.44,0-.6-.2-.67-.39l-4.41-16.94s-.03-.1-.05-.15c-.61-1.63-1.95-2.53-3.77-2.53h-2.5c-1.42-2.47-1.67-2.94-2.11-3.87-.29-.64-.33-.66-.55-1.75-.42-2.07-.6-5.19-.86-7.5-.33-2.93-5.14-5.59-8.37-4.57-4.5,1.43-8.11,10.53-9.38,13.41-.51,1.17-.74,2.27-.82,3.27l-2.04,17.48c1.53,.62,3.4,.54,5.57,.31,0,0,.01,.02,.02,.02,.13,.12,.05,.46-.24,.64-.27,.17-1.51,.61-3.15,.85,.01,2.39,.03,4.7,.08,6.6,.09,3.76,3.03,4.84,3.89,5.09,.04-.45,.55-9.44,.83-13.35,1.13-.13,2.33-.25,3.6-.32,.51,2.32,1.85,8.45,2.1,9.63,.61,2.88,2.72,4.27,5.08,4.07,0,0-.9-8.94-1.35-13.39,.51,.09,1.03,.2,1.56,.34,0,0-.81-8.97-3.89-15.44,1.01-2.32,2.12-4.89,3.14-7.24,.06,.33,.12,.66,.2,1,.44,1.72,.74,2.61,2.33,4.71,2.23,2.94,3.9,5.04,5.72,3.03h1.14c.65,0,.82,.22,.94,.51l1.78,6.84-4.35,10.85c-.31,.77,.16,1.37,.93,1.68,.77,.31,1.55,.2,1.85-.57l2.83-7.07,1.35,5.19s.02,.07,.03,.11c.52,1.51,1.87,2.45,3.52,2.45h1.98c1.2,0,2.02-.53,2.36-1.36,.24-.58,.19-1.41-.61-1.56"/></g></g></svg>