<?xml version="1.0" encoding="UTF-8"?><svg id="Laag_1" xmlns="http://www.w3.org/2000/svg" viewBox="0 0 64 64"><defs><style>.cls-1{fill:none;}</style></defs><rect class="cls-1" width="64" height="64"/><path d="m57.03,10.39s-12.11,2.51-17.8,3.48c-1.78.3-3.35,1.36-4.29,2.9l-3.39,5.97-7.17-2.38h0c-1.02-.34-2.18.23-2.53,1.27l-9.1,27.36v.02c-.07,0-.33-.02-.28-.35.03-.21.57-3.41,1.11-6.65h-6.08c-3.03,0-5.5,2.47-5.5,5.5s2.47,5.5,5.5,5.5h39c3.03,0,5.5-2.47,5.5-5.5s-2.47-5.5-5.5-5.5h-8.04l1.78-5.36c-.87.26-1.7.41-2.47.41-.9,0-1.35-.15-1.79-.29l-4.07,12.24h-14.96l8.05-24.22,10.73,3.57,3.64-3-3.55-1.18,2.87-3.07s3.07-.23,4-.21c.79.02,1.53,0,2.03.76.53.79.33,1.86-.4,2.46l-7.79,6.42c-1.45,1.2-1.69,2.26-1.09,3.26.26.41.74.81,1.42.96.89.21,2.15.12,3.77-.59,3.89-1.79,7.6-4.93,10.26-5.23.05-.04,2.63-.35,4.69-1.58,3.67-2.24,7.39-7.67,7.39-7.67l-5.97-9.3Z"/></svg>