<?xml version="1.0" encoding="UTF-8"?><svg id="Laag_1" xmlns="http://www.w3.org/2000/svg" xmlns:xlink="http://www.w3.org/1999/xlink" viewBox="0 0 64 64"><defs><style>.cls-1{fill:none;}.cls-2{clip-path:url(#clippath);}.cls-3{clip-path:url(#clippath-1);}</style><clipPath id="clippath"><rect class="cls-1" width="64" height="64"/></clipPath><clipPath id="clippath-1"><rect class="cls-1" width="64" height="64"/></clipPath></defs><g class="cls-2"><g class="cls-3"><path d="M52,12h-4.03c-3.65-4.85-9.44-8-15.97-8s-12.32,3.15-15.97,8h-4.03c-.55,0-1,.45-1,1V59H32v-11.63c3.36-.32,4.84-4.17,4.95-4.5,.08-.24,.03-.31-.06-.3-1.11,1.17-3.25,3.29-5.14,2.8-1.25-.32-.99-3.42-.36-4.6,.29-.54,.65-.88,1.25-1.01,2.11-.45,6.68-.92,9.36-.92,.57,0,1,.45,1,1v19.16h10V13c0-.55-.45-1-1-1m-13.69,24.84c.33-.53,.64-1.22,.64-1.99,0-1.66-1.45-3-1.45-3,0,0-1.45,1.34-1.45,3,0,.81,.35,1.55,.71,2.09-1.7-.18-3.26-1.33-3.68-3.71-.65-3.76,2.89-8.98,4.43-10.43,.27,5.15,3.12,4.41,4.39,8.49,.58,3.01-1.37,5.05-3.59,5.55"/></g></g></svg>