<?xml version="1.0" encoding="UTF-8"?><svg id="Laag_1" xmlns="http://www.w3.org/2000/svg" xmlns:xlink="http://www.w3.org/1999/xlink" viewBox="0 0 64 64"><defs><style>.cls-1{fill:none;}.cls-2{clip-path:url(#clippath);}.cls-3{clip-path:url(#clippath-1);}</style><clipPath id="clippath"><rect class="cls-1" width="64" height="64"/></clipPath><clipPath id="clippath-1"><rect class="cls-1" width="64" height="64"/></clipPath></defs><g class="cls-2"><g class="cls-3"><path d="M45.5,50.02c-.82,0-1.48,.66-1.48,1.48s.66,1.48,1.48,1.48,1.48-.66,1.48-1.48-.66-1.48-1.48-1.48"/><path d="M28.5,37c-4.14,0-7.5,3.36-7.5,7.5s3.36,7.5,7.5,7.5,7.5-3.36,7.5-7.5-3.36-7.5-7.5-7.5"/><path d="M61.22,30.21L32.81,3.32c-.46-.43-1.17-.43-1.63,0L2.78,30.21c-.49,.46-.78,1.11-.78,1.78v1.8c0,.67,.54,1.21,1.2,1.21h4.8v25H56v-25h4.8c.66,0,1.2-.54,1.2-1.21v-1.8c0-.68-.28-1.33-.78-1.78m-15.72,24.94c-2.02,0-3.65-1.63-3.65-3.65,0-1.09,.49-2.06,1.25-2.73l-1.22-3.67c-.22-.65-.83-1.09-1.52-1.09h-1.23c0,.17,.02,.33,.02,.5,0,5.88-4.77,10.65-10.65,10.65s-10.65-4.77-10.65-10.65c0-4.01,2.22-7.5,5.49-9.32l-1.47-9.87-3.73-.26c-.77-.05-1.35-.72-1.3-1.49,.05-.7,.6-1.24,1.28-1.3l5.21-.42c.96-.08,1.81,.62,1.94,1.57l.65,4.6h11.98c.68-.02,1.29,.48,1.4,1.17,.13,.75-.31,1.47-1.36,1.65l-14.18,.64c-.02,.06-.06,.27,.27,.35l2.49,.38,.26,1.81c.57-.09,1.15-.15,1.74-.15,4.65,0,8.6,2.99,10.05,7.15h1.81c1.99,0,3.74,1.26,4.37,3.15l1.25,3.75c1.79,.23,3.18,1.75,3.18,3.6,0,2.02-1.63,3.65-3.65,3.65"/></g></g></svg>