<?xml version="1.0" encoding="UTF-8"?><svg id="Laag_1" xmlns="http://www.w3.org/2000/svg" xmlns:xlink="http://www.w3.org/1999/xlink" viewBox="0 0 64 64"><defs><style>.cls-1{fill:none;}.cls-2{clip-path:url(#clippath);}.cls-3{clip-path:url(#clippath-1);}</style><clipPath id="clippath"><rect class="cls-1" width="64" height="64"/></clipPath><clipPath id="clippath-1"><rect class="cls-1" width="64" height="64"/></clipPath></defs><g class="cls-2"><g class="cls-3"><path d="M9.04,41.79c0-2.24,1.21-4.31,3.15-5.41l15.58-8.83c2.61-1.47,4.22-4.25,4.22-7.24,0-4.58-3.73-8.32-8.32-8.32h-7.99c-.82-2.33-3.04-4-5.65-4-3.31,0-6,2.69-6,6s2.69,6,6,6c2.61,0,4.83-1.67,5.65-4h7.99c2.38,0,4.32,1.94,4.32,4.32,0,1.55-.84,2.99-2.19,3.76l-15.58,8.83c-3.2,1.81-5.19,5.21-5.19,8.89,0,5.63,4.58,10.21,10.21,10.21h21.66l.84-4H15.25c-3.42,0-6.21-2.79-6.21-6.21m.96-24.79c-1.66,0-3-1.34-3-3s1.34-3,3-3,3,1.34,3,3-1.34,3-3,3"/><path d="M61.35,38.61c-2.62-.59-5.76-1.1-8.68-1.43-1.3-2.67-2.48-5.08-3.69-7.56-.2-.41-.55-.62-.96-.62s-.76,.21-.96,.62c-1.21,2.48-2.39,4.89-3.69,7.56-2.92,.34-6.06,.84-8.68,1.43-.89,.21-1.21,1.41-.62,2.08,1.8,1.98,3.94,4.25,6.11,6.43-.65,3.06-1.27,6.07-1.84,8.72-.15,.9,.89,1.54,1.75,1.13,2.61-1.18,5.45-2.58,7.93-4.23,2.48,1.64,5.31,3.05,7.93,4.23,.86,.4,1.9-.24,1.75-1.13-.57-2.65-1.19-5.66-1.84-8.72,2.17-2.18,4.31-4.45,6.11-6.43,.6-.67,.27-1.87-.62-2.08"/></g></g></svg>