<?xml version="1.0" encoding="UTF-8"?><svg id="Laag_1" xmlns="http://www.w3.org/2000/svg" xmlns:xlink="http://www.w3.org/1999/xlink" viewBox="0 0 64 64"><defs><style>.cls-1{fill:none;}.cls-2{clip-path:url(#clippath);}.cls-3{clip-path:url(#clippath-1);}</style><clipPath id="clippath"><rect class="cls-1" width="64" height="64"/></clipPath><clipPath id="clippath-1"><rect class="cls-1" width="64" height="64"/></clipPath></defs><g class="cls-2"><g class="cls-3"><path d="M31.29,16.44c-3.42,1.31-6.76,6.7-7.16,9.02-.2,1.15-.19,1.72,.42,2.07,5.05,2.9,2.33,6.85,.67,8.96-1.19,1.51-1.66,3.03,.05,4.17,1.21,.81,4.26,.16,6.06-1.8,3.2-3.5,3.89-8.66-1.47-14.28,.04-.08,.08-.15,.12-.22,3.01-5.44,6.86-5.26,6.23,1.8-.03,.34-.05,.6-.07,.77,.08,.1,.28,.2,.78-.25,1.36-1.23,2.13-3.51,1.76-5.75-.6-3.62-3.84-5.84-7.39-4.47"/><path d="M48.42,13.99c-1.97-4.22-5.61-7.39-10.27-8.93-3.24-1.07-7.06-1.32-10.48-.4-5.36,1.44-11.98,6.65-11.64,14.46,.19,4.3,2.07,3.89,2.37,3.8,.59-4.83,2.75-8.9,6.22-11.36,3.55-2.51,8.14-3.29,11.96-2.02,3.35,1.11,5.96,3.58,7.34,6.54,1.52,3.26,1.48,7.25-.1,11.23-.93,2.32-1.97,4.44-2.98,6.49-2.12,4.3-3.83,8.19-3.83,12.23,0,3.56-1.49,6.25-4.08,7.77-2.7,1.58-6.52,1.68-9.1,.25-3.52-1.97-5.39-7.96-5.46-12.82-.44-.11-2.17-.28-2.35,3.81-.25,5.78,1.55,11.04,5.4,13.15,4.21,2.31,9.83,2.16,14.02-.3,4.13-2.42,6.45-6.7,6.45-12.04,0-2.89,1.56-6.13,3.4-9.88,1-2.04,2.14-4.34,3.13-6.85,2.09-5.26,2.09-10.64,0-15.15"/></g></g></svg>