<?xml version="1.0" encoding="UTF-8"?><svg id="Laag_1" xmlns="http://www.w3.org/2000/svg" xmlns:xlink="http://www.w3.org/1999/xlink" viewBox="0 0 64 64"><defs><style>.cls-1{fill:none;}.cls-2{clip-path:url(#clippath);}.cls-3{clip-path:url(#clippath-1);}</style><clipPath id="clippath"><rect class="cls-1" width="64" height="64"/></clipPath><clipPath id="clippath-1"><rect class="cls-1" width="64" height="64"/></clipPath></defs><g class="cls-2"><g class="cls-3"><path d="M39.05,24.41l-.02-.02c.2-.86,.1-1.51-.22-2.37l-.98-.7-2.93,2.93,.87,.87,2.13-2.13c.31,1.1,.1,2.23-.54,3.37l.96,.6c.29-.45,.45-.79,.62-1.28,.67-.33,1.22-.32,1.63,.09,.61,.61,.43,1.47-.53,2.43l-.67,.67,.81,.81,.68-.68c1.55-1.55,1.83-3.31,.76-4.38-.7-.7-1.64-.79-2.57-.22"/><path d="M44.38,20.16l-.47,.14c.29-1.05,.2-1.63-.4-2.24-.73-.73-1.88-.66-2.92,.38-.92,.92-1,2.38-.26,3.12,.54,.54,.96,.64,1.71,.53l.43-.06c-.34,1.19-.16,1.87,.37,2.4,.78,.78,1.97,.64,3.08-.47,1.12-1.12,1.37-2.56,.55-3.38-.56-.56-1.1-.68-2.07-.43m-1.35,.42l-.82,.15c-.4,.06-.67,0-.92-.25-.35-.35-.34-.9,.04-1.28,.44-.43,.93-.47,1.33-.07,.34,.34,.48,.77,.38,1.46m2.19,2.54c-.5,.5-1.09,.57-1.49,.17-.4-.39-.48-.76-.38-1.52l.87-.19c.52-.12,.94-.07,1.21,.19,.34,.34,.27,.88-.21,1.35"/><path d="M44.24,14.8c-.69,.69-.68,1.79,0,2.47,.68,.68,1.78,.68,2.46,0,.68-.68,.69-1.79,0-2.47-.68-.68-1.79-.68-2.48,0m1.8,1.8c-.3,.3-.78,.3-1.1-.02-.31-.31-.32-.8-.02-1.1,.3-.3,.8-.3,1.11,.02,.31,.31,.31,.81,0,1.1"/><path d="M60.09,3.91C56.21,.03,49.92,.03,46.04,3.91L28.35,21.6c-3.33,3.33-5.75,7.45-7.05,11.97-1.3,4.52-3.72,8.64-7.05,11.97l-7.45,7.46,4.22,4.22,7.46-7.45c3.33-3.33,7.45-5.75,11.97-7.05,4.52-1.3,8.64-3.72,11.97-7.05l17.69-17.69c3.88-3.88,3.88-10.17,0-14.05m-7.95,16.76l-10.54,10.54c-.78,.77-2.03,.77-2.81,0l-5.62-5.62c-.78-.78-.78-2.04,0-2.81l10.54-10.54c.78-.78,2.03-.78,2.81,0l5.62,5.62c.78,.78,.78,2.03,0,2.81m2.13-7.06c-1.93,0-3.5-1.57-3.5-3.5s1.57-3.5,3.5-3.5,3.5,1.57,3.5,3.5-1.57,3.5-3.5,3.5"/><path d="M1.87,57.91c-1.16,1.16-1.16,3.05,0,4.22,1.16,1.16,3.05,1.16,4.22,0l3.51-3.51-4.22-4.22-3.51,3.51Z"/></g></g></svg>