<?xml version="1.0" encoding="UTF-8"?><svg id="Laag_1" xmlns="http://www.w3.org/2000/svg" xmlns:xlink="http://www.w3.org/1999/xlink" viewBox="0 0 24 24"><defs><style>.cls-1{fill:none;}.cls-2{clip-path:url(#clippath);}.cls-3{clip-path:url(#clippath-1);}</style><clipPath id="clippath"><rect class="cls-1" width="24" height="24"/></clipPath><clipPath id="clippath-1"><rect class="cls-1" width="24" height="24"/></clipPath></defs><g class="cls-2"><g class="cls-3"><path d="m15.34,1H2.66c-.36,0-.66.31-.66.68v8.64c0,.38.29.68.66.68h12.69c.36,0,.66-.31.66-.68V1.68c0-.38-.29-.68-.66-.68m-.82,1.36l-5.52,3.8L3.48,2.36h11.05ZM3.31,3.61l5.38,3.73c.09.06.2.1.31.1s.22-.03.31-.1l5.38-3.73v6l-3.4-2.66s-.07.05,0,.12c.06.08,1.91,2.56,1.91,2.56H4.85s1.84-2.48,1.9-2.56c.06-.08,0-.13,0-.13l-3.44,2.68V3.61Z"/><rect x="17" y="5" width="5" height="1"/><rect x="17" y="8" width="4" height="1"/><rect x="17" y="2" width="6" height="1"/><path d="m8,13.68v8.64c0,.38.29.68.66.68h12.69c.36,0,.66-.3.66-.68v-8.64c0-.38-.29-.68-.66-.68h-12.69c-.36,0-.66.3-.66.68m12.52.68l-5.52,3.8-5.52-3.8h11.05Zm.17,7.27l-3.44-2.68s-.06.05,0,.13c.06.08,1.9,2.56,1.9,2.56h-8.34s1.85-2.48,1.91-2.56c.06-.08,0-.12,0-.12l-3.4,2.67v-6l5.38,3.73c.09.06.2.1.31.1s.22-.03.31-.1l5.38-3.73v6.02Z"/><rect x="2" y="17" width="5" height="1"/><rect x="3" y="20" width="4" height="1"/><rect x="1" y="14" width="6" height="1"/></g></g></svg>