<?xml version="1.0" encoding="UTF-8"?><svg id="Laag_1" xmlns="http://www.w3.org/2000/svg" xmlns:xlink="http://www.w3.org/1999/xlink" viewBox="0 0 64 64"><defs><style>.cls-1{fill:none;}.cls-2{clip-path:url(#clippath);}.cls-3{clip-path:url(#clippath-1);}</style><clipPath id="clippath"><rect class="cls-1" width="64" height="64"/></clipPath><clipPath id="clippath-1"><rect class="cls-1" width="64" height="64"/></clipPath></defs><g class="cls-2"><g class="cls-3"><path d="M38,3H6c-1.1,0-2,.9-2,2V52h4.05l10.95-15.82v-6.18h6v3h4v-3h6v3h5V5c0-1.1-.9-2-2-2M15,36h-6v-6h6v6Zm0-10h-6v-6h6v6Zm0-10h-6v-6h6v6Zm10,10h-6v-6h6v6Zm0-10h-6v-6h6v6Zm10,10h-6v-6h6v6Zm0-10h-6v-6h6v6Z"/><path d="M59.52,35H23.5c-.58,0-1.48,.31-1.91,.95L5.94,58.57c-.72,1.04,.05,2.44,1.28,2.43H41.48c1.11,0,2.15-.55,2.78-1.47l15.22-22.32c.06,.01,.26,.09,.16,.41l-2.64,6.48v12.9h-8.35l-2.58,3.77c-.06,.08-.12,.15-.18,.23h15.1v-24.7c0-.74-.72-1.3-1.48-1.3m-18.19,23H10.3l13.65-20h31.22l-13.85,20Z"/><polygon points="28.06 49 23.21 56 30.72 56 35.56 49 28.06 49"/><polygon points="36.95 47 41.71 40.12 34.2 40.12 29.44 47 36.95 47"/><polygon points="27.69 47 32.45 40.12 25 40.12 20.24 47 27.69 47"/><polygon points="18.85 49 14 56 21.46 56 26.31 49 18.85 49"/><polygon points="32.47 56 40 56 44.85 49 37.31 49 32.47 56"/><polygon points="46.24 47 51 40.12 43.46 40.12 38.7 47 46.24 47"/></g></g></svg>