<?xml version="1.0" encoding="UTF-8"?><svg id="Laag_1" xmlns="http://www.w3.org/2000/svg" xmlns:xlink="http://www.w3.org/1999/xlink" viewBox="0 0 64 64"><defs><style>.cls-1{fill:none;}.cls-2{clip-path:url(#clippath);}.cls-3{clip-path:url(#clippath-1);}</style><clipPath id="clippath"><rect class="cls-1" width="64" height="64"/></clipPath><clipPath id="clippath-1"><rect class="cls-1" width="64" height="64"/></clipPath></defs><g class="cls-2"><g class="cls-3"><path d="M23.45,20c9.16,9.81,6.4,6.85,7.93,8.53,.49,.54,.75,.56,1.26,0,1.99-2.18-.22,.2,7.93-8.53H23.45Z"/><path d="M45,24c1.93-2.07,3-4.82,3-7.73v-4.27c1.37,0,2-1.11,2-2.47v-.05c0-1.37-.63-2.47-2-2.47H16c-1.37,0-2,1.11-2,2.47v.05c0,1.37,.63,2.47,2,2.47v4.27c0,2.91,1.07,5.66,3,7.73l6.1,6.53c.74,.79,.74,2.14,0,2.93l-6.1,6.54c-1.93,2.07-3,4.82-3,7.73v4.27c-1.37,0-2,1.11-2,2.47v.05c0,1.37,.63,2.47,2,2.47H48c1.37,0,2-1.11,2-2.47v-.05c0-1.37-.63-2.47-2-2.47v-4.27c0-2.91-1.07-5.66-3-7.73l-6.1-6.54c-.74-.79-.74-2.13,0-2.93l6.1-6.53Zm-9.02,12.19l6.1,6.53c1.22,1.31,1.92,3.13,1.92,5v4.27h-2v-4.27c0-.06-.01-.12-.02-.19-3.54-3.16-7.83-6.54-9.94-6.54s-6.46,3.41-10.02,6.57c0,.05-.01,.1-.01,.15v4.27h-2v-4.27c0-1.87,.7-3.69,1.92-5l6.1-6.53c2.16-2.31,2.16-6.07,0-8.39l-6.1-6.53c-1.22-1.31-1.92-3.13-1.92-5v-4.27h24v4.27c0,1.87-.7,3.69-1.92,5l-6.1,6.54c-2.16,2.31-2.16,6.07,0,8.39"/><path d="M32,33c-.55,0-1,.45-1,1s.45,1,1,1,1-.45,1-1-.45-1-1-1"/><path d="M32,37c-.55,0-1,.45-1,1s.45,1,1,1,1-.45,1-1-.45-1-1-1"/></g></g></svg>