<?xml version="1.0" encoding="UTF-8"?><svg id="Laag_1" xmlns="http://www.w3.org/2000/svg" xmlns:xlink="http://www.w3.org/1999/xlink" viewBox="0 0 64 64"><defs><style>.cls-1{fill:none;}.cls-2{clip-path:url(#clippath);}.cls-3{clip-path:url(#clippath-1);}</style><clipPath id="clippath"><rect class="cls-1" width="64" height="64"/></clipPath><clipPath id="clippath-1"><rect class="cls-1" width="64" height="64"/></clipPath></defs><g class="cls-2"><g class="cls-3"><path d="M48.9,6h-3.9l-2-2H18l-2,2h-3c-.55,0-1,.45-1,1v3c0,.55,.45,1,1,1h13.99c.02,.07,.08,.32-.31,.44l-11.31,1.43,4.36,44.42c.15,1.54,1.44,2.71,2.99,2.71h13.84c-1.08-1.38-1.72-3.11-1.72-5,0-4.51,3.65-8.16,8.16-8.16,1.06,0,2.07,.21,3,.58V11h1.13c.56,0,1.09-.19,1.49-.51l1.77-1.48c.39-.33,.61-.77,.61-1.24v-.03c0-.97-.94-1.75-2.1-1.75M15.57,13.47v0h0Z"/><path d="M43,49.06c-3.28,0-5.94,2.66-5.94,5.94s2.66,5.94,5.94,5.94,5.94-2.66,5.94-5.94-2.66-5.94-5.94-5.94"/></g></g></svg>