<?xml version="1.0" encoding="UTF-8"?><svg id="Laag_1" xmlns="http://www.w3.org/2000/svg" viewBox="0 0 64 64"><defs><style>.cls-1{fill:none;}</style></defs><rect class="cls-1" width="64" height="64"/><path d="m24.97,20.59c2.29.06,3.66-1.52,3.73-3.84.07-2.65-1.28-4.11-3.51-4.17-2.35-.06-3.66,1.58-3.73,3.97-.07,2.52,1.22,3.97,3.51,4.04Zm1.8,18.01c.24-4.89.16-5.89.42-8.97.69.92,1.15,1.34,1.8,2.08.74.83,1.76,1.14,2.66.46,1.39-1.04,3.31-3.8,4.1-5.25,1.38-2.54-.12-4.04-.12-4.04-1.96,2.48-4.5,5.37-4.5,5.37,0,0-1.77-3.66-2.81-4.93-1.44-1.77-4.66-2.15-6.82-.48-1.39,1.11-1.95,3.88-2.16,6.76-.11,1.47-.26,3.44-.27,5.19-.01,2.37-.01,5.6-.01,8.1,0,5.1.19,13,.19,13.58.08,3.48,2.93,4.11,3.4,4.19,0-.32,1.03-12.89,1.03-12.89,0,0-1.49-4.59-2.09-6.54-.08-.24-.06-.52.11-.52.4.63,3.32,7.14,3.32,7.3.63,2.85,1.26,5.61,2.13,9.33.87,3.56,4.11,3.24,4.27,3.24-.47-5.3-.75-6.81-1.4-12-.24-1.5-1.4-4.34-3.24-9.97Zm1.54-.72h4.2v-2.75h-4.08c-.03.75-.06,1.66-.11,2.75ZM51,2H13c-.55,0-1,.45-1,1v55.97c0,.57.46,1.03,1.03,1.03.3,0,.58-.13.78-.35l2.82-3.22c.24-.27.37-.62.37-.99V9.88h15.5v-2.75h-15.6l-1.7-2.14h34.14c.04.75-2.14,1.44-3.22,1.52-1.17.09-2.33-.16-3.35-.77-.47-.28-1.06-.28-1.53,0-2,1.21-4.52,1.2-6.52-.03-.31-.19-.72.03-.72.4v16.38c.15-.19.3-.38.45-.56.27-.34.66-.54,1.09-.57.03,0,.06,0,.09,0,.4,0,.78.16,1.06.44.85.85,1.88,3.04.37,5.82-.62,1.14-1.83,2.94-3.06,4.33v16.7c0,.34.15.68.43.87,1.91,1.32,4.37,1.47,6.4.43.73-.37,1.6-.37,2.32,0,2.16,1.1,4.82.86,6.77-.72.1.13-.13.49-.27.63-.7.7-1.64,1.26-2.66,1.61v3.95c0,.36.13.71.37.99l2.82,3.22c.2.22.48.35.78.35.57,0,1.03-.46,1.03-1.03V3c0-.55-.45-1-1-1Z"/></svg>