<?xml version="1.0" encoding="UTF-8"?><svg id="Laag_1" xmlns="http://www.w3.org/2000/svg" xmlns:xlink="http://www.w3.org/1999/xlink" viewBox="0 0 64 64"><defs><style>.cls-1{fill:none;}.cls-2{clip-path:url(#clippath);}.cls-3{clip-path:url(#clippath-1);}</style><clipPath id="clippath"><rect class="cls-1" width="64" height="64"/></clipPath><clipPath id="clippath-1"><rect class="cls-1" width="64" height="64"/></clipPath></defs><g class="cls-2"><g class="cls-3"><path d="M40.38,44.1c-.82,0-1.61,.16-2.33,.44-.34,.1-.53,.19-.53,.19,0,0,0-.22,.11-.39,.18-.27,.65-.56,1.99-1.04,.81-.29,1.66-.45,2.19-.52V21.66h1.33c.87,0,1.57-.7,1.57-1.57v-1.26c1.39,0,2.51-1.12,2.51-2.51s-1.12-2.51-2.51-2.51c-1.03,0-1.92,.62-2.3,1.52-.1-.08-.21-.14-.34-.19L21.58,7.1c-.72-.28-1.52,.05-1.8,.75l-.53,1.36c-.27,.69,.09,1.49,.81,1.77l14.86,5.83H18.36c-.87,0-1.57,.7-1.57,1.57v1.7c0,.87,.7,1.57,1.57,1.57h.89l2.75,35.34h5l2-2h6.69c.59,.63,1.31,1.14,2.11,1.49,.44,.21,.92,.36,1.46,.43,.36,.06,.74,.1,1.12,.1,3.57,0,6.46-2.89,6.46-6.46s-2.89-6.46-6.46-6.46m0,9.21c-1.52,0-2.75-1.23-2.75-2.75s1.23-2.75,2.75-2.75c1.52,0,2.75,1.23,2.75,2.75s-1.23,2.75-2.75,2.75"/></g></g></svg>