<?xml version="1.0" encoding="UTF-8"?><svg id="Laag_1" xmlns="http://www.w3.org/2000/svg" xmlns:xlink="http://www.w3.org/1999/xlink" viewBox="0 0 64 64"><defs><style>.cls-1{fill:none;}.cls-2{clip-path:url(#clippath);}.cls-3{fill:#fff;}.cls-4{clip-path:url(#clippath-1);}</style><clipPath id="clippath"><rect class="cls-1" width="64" height="64"/></clipPath><clipPath id="clippath-1"><rect class="cls-1" width="64" height="64"/></clipPath></defs><g class="cls-2"><g class="cls-4"><path class="cls-3" d="M62.41,57.34l-8.16-7.38c2.75-4.26,2.26-10-1.47-13.73-4.3-4.3-11.26-4.3-15.56,0-4.3,4.3-4.3,11.26,0,15.56,3.73,3.73,9.47,4.22,13.73,1.47l7.38,8.16c1.03,1.14,2.69,.94,3.85-.22,1.16-1.16,1.37-2.82,.22-3.85m-12.39-8.32c-2.77,2.77-7.27,2.77-10.04,0-2.77-2.77-2.77-7.27,0-10.04,2.77-2.77,7.27-2.77,10.04,0,2.77,2.77,2.77,7.27,0,10.04"/><path d="M19.23,25.99h13.51c3.2,0,5.79-2.59,5.79-5.79v-5.53c0-7.15-3.32-13.51-12.54-13.51S13.44,7.52,13.44,14.67v5.53c0,3.2,2.59,5.79,5.79,5.79"/><path d="M33.88,36.91c.51-.79,1.1-1.55,1.79-2.24,1.99-1.99,4.45-3.2,7.03-3.65,.41-2.08,.58-4.7,.63-7.92h2.92c1.07,0,1.93-.86,1.93-1.93v-1.62c0-4.34-7.45-4.4-7.45,.68,0,2.74-.05,5.11-.21,7.11-.03,.46-.39,.82-.84,.87-1.99,.24-7.53,.82-13.7,.82s-11.71-.59-13.7-.82c-.45-.06-.81-.42-.84-.87-.16-2.01-.2-4.38-.2-7.11,0-5.1-7.45-5-7.45-.68v1.62c0,1.07,.86,1.93,1.93,1.93h2.92c.07,4.43,.36,7.75,1.2,10.06h.02c.32,.74,.89,1.36,1.64,1.73,2.31,1.13,6.85,2.68,14.48,2.68,.32,0,.63,0,.94-.01,0,.05-.05,.18-.29,.3-.39,.19-1.75,.68-3.55,1.13v5.84l-11.91,2.1c-.92,.16-1.59,.96-1.59,1.9v.65c-1.14,.54-1.93,1.69-1.93,3.04,0,1.87,1.51,3.38,3.38,3.38s3.38-1.51,3.38-3.38c0-1.17-.59-2.2-1.5-2.8l10.71-1.26,.24,1.46c-.76,.62-1.25,1.55-1.25,2.61,0,1.87,1.51,3.38,3.38,3.38s3.38-1.51,3.38-3.38c0-1.06-.49-1.99-1.25-2.61l.24-1.46,4.43,.52c-.47-1.16-.77-2.38-.9-3.62l-3-.53v-7.35c1.9-.11,3.54-.32,5-.58"/><path d="M62.41,57.34l-8.16-7.38c2.75-4.26,2.26-10-1.47-13.73-4.3-4.3-11.26-4.3-15.56,0-4.3,4.3-4.3,11.26,0,15.56,3.73,3.73,9.47,4.22,13.73,1.47l7.38,8.16c1.03,1.14,2.69,.94,3.85-.22,1.16-1.16,1.37-2.82,.22-3.85m-12.39-8.32c-2.77,2.77-7.27,2.77-10.04,0-2.77-2.77-2.77-7.27,0-10.04,2.77-2.77,7.27-2.77,10.04,0,2.77,2.77,2.77,7.27,0,10.04"/></g></g></svg>