<?xml version="1.0" encoding="UTF-8"?><svg id="Laag_1" xmlns="http://www.w3.org/2000/svg" xmlns:xlink="http://www.w3.org/1999/xlink" viewBox="0 0 64 64"><defs><style>.cls-1{fill:none;}.cls-2{clip-path:url(#clippath);}.cls-3{clip-path:url(#clippath-1);}</style><clipPath id="clippath"><rect class="cls-1" width="64" height="64"/></clipPath><clipPath id="clippath-1"><rect class="cls-1" width="64" height="64"/></clipPath></defs><g class="cls-2"><g class="cls-3"><path d="M24.58,10.69c.92,0,1.26-.06,2.05-.22v-1.37c-.76,.14-1.18,.18-1.93,.18-1.47,0-2.82-1.01-2.82-3.18s1.32-3.32,2.87-3.32c.67,0,1.01,.01,1.74,.14l.13-1.43c-.63-.13-1.11-.18-1.81-.18-2.55,0-4.69,1.62-4.69,4.96,0,2.97,1.93,4.43,4.47,4.43"/><polygon points="32.97 10.59 35.69 1.41 33.95 1.41 31.85 8.93 31.78 8.93 29.66 1.41 27.79 1.41 30.48 10.59 32.97 10.59"/><polygon points="43.3 9.19 38.95 9.19 38.95 9.14 43.27 2.76 43.27 1.41 37.26 1.41 37.26 2.81 41.34 2.81 41.34 2.86 37.01 9.24 37.01 10.59 43.3 10.59 43.3 9.19"/><path d="M48,14H16c-1.1,0-2,.9-2,2V63h15v-9h6v9h15V16c0-1.1-.9-2-2-2M25,47h-6v-6h6v6Zm0-10h-6v-6h6v6Zm0-10h-6v-6h6v6Zm10,20h-6v-6h6v6Zm0-10h-6v-6h6v6Zm0-10h-6v-6h6v6Zm10,20h-6v-6h6v6Zm0-10h-6v-6h6v6Zm0-10h-6v-6h6v6Z"/></g></g></svg>