<?xml version="1.0" encoding="UTF-8"?><svg id="Laag_1" xmlns="http://www.w3.org/2000/svg" xmlns:xlink="http://www.w3.org/1999/xlink" viewBox="0 0 64 64"><defs><style>.cls-1{fill:none;}.cls-2{clip-path:url(#clippath);}.cls-3{clip-path:url(#clippath-1);}</style><clipPath id="clippath"><rect class="cls-1" width="64" height="64"/></clipPath><clipPath id="clippath-1"><rect class="cls-1" width="64" height="64"/></clipPath></defs><g class="cls-2"><g class="cls-3"><path d="M24.83,41.96c-1.77-.48-8.99-2.46-9.31-2.56-.36-.12-.24-.4-.24-.4h7.71c1.51,0,3.05,.12,4.76,.4,.78-2.65,1.24-5.88,1.24-9.4s-.45-6.75-1.22-9.4c-1.72,.28-3.26,.4-4.77,.4H8c-2.76,0-5,2.24-5,5v8c0,2.76,2.24,5,5,5h1.98l9.11,18.41c.98,1.98,3.38,2.79,5.36,1.81l3.59-1.78c1.98-.98,2.79-3.38,1.81-5.36l-5.02-10.13Z"/><path d="M57,7.1c-1.38-3.01-2.96-3.91-4.58-2.32-5.08,4.99-9.28,9.69-16.22,13.16-1.84,.92-3.8,1.58-5.61,2.06,.88,2.76,1.4,6.23,1.4,10s-.53,7.24-1.41,10c1.81,.48,3.77,1.14,5.62,2.06,6.93,3.47,11.13,8.17,16.22,13.16,1.62,1.59,3.2,.69,4.58-2.32,.73-1.6,3-10.5,3-22.9s-2.27-21.3-3-22.9"/></g></g></svg>