<?xml version="1.0" encoding="UTF-8"?><svg id="Laag_1" xmlns="http://www.w3.org/2000/svg" xmlns:xlink="http://www.w3.org/1999/xlink" viewBox="0 0 64 64"><defs><style>.cls-1{fill:none;}.cls-2{clip-path:url(#clippath);}.cls-3{clip-path:url(#clippath-1);}</style><clipPath id="clippath"><rect class="cls-1" width="64" height="64"/></clipPath><clipPath id="clippath-1"><rect class="cls-1" width="64" height="64"/></clipPath></defs><g class="cls-2"><g class="cls-3"><path d="M56.67,20.76c-.67,2.85-1.34,6.68-1.84,9.73,.4,.17,.8,.4,1.17,.72,2.16,1.84,2.38,4.82,.7,7.81-3.81,6.74-7.98,9.79-8.85,10.42-.25,.18-.39,.13-.49,.04h0c3.79-4.24,5.8-7.14,7.51-11.19,1.3-3.07,.6-4.92-.51-5.59-1.09-.65-2.22-.3-3.35,1.38-3.87,5.71-6.66,8.71-10.52,13.26-2.69,3.16-4.52,7.08-4.49,11.08,.02,2.55,.19,3.94,.29,4.58h13.5l1.14-6.5c.16-.91,.57-1.75,1.17-2.44l7.39-7.48c1.53-1.74,2.42-3.96,2.5-6.28V16.12s-3.94-1.28-5.32,4.64"/><path d="M12.99,34.08c-1.14-1.68-2.26-2.03-3.35-1.38-1.12,.67-1.82,2.52-.52,5.59,1.72,4.05,3.72,6.95,7.51,11.18v.02c-.1,.09-.23,.14-.49-.04-.87-.63-5.05-3.68-8.85-10.42-1.68-2.98-1.46-5.96,.7-7.81,.37-.32,.77-.56,1.17-.72-.5-3.06-1.17-6.88-1.84-9.73-1.38-5.92-5.32-4.64-5.32-4.64v24.17c.08,2.32,.96,4.54,2.5,6.28l7.39,7.48c.61,.69,1.02,1.53,1.18,2.44l1.14,6.5h13.5c.1-.64,.26-2.03,.29-4.57,.04-4-1.8-7.92-4.49-11.08-3.87-4.55-6.66-7.55-10.52-13.26"/><path d="M51,19.5C51,9.28,42.72,1,32.5,1S14,9.28,14,19.5s8.28,18.5,18.5,18.5,18.5-8.28,18.5-18.5M34.31,4.12c6.76,.79,12.2,5.95,13.42,12.58l-1.73,2.31-2,1-2-2-1.07-1.93s1.38-1.38,1-2.12c-.38-.73-2.54,.46-2.97-.18-.43-.64-.05-2.84-.05-2.84l-2.68-1.1s-.84-.02-.77,.62c.08,.71,2.03,1.83,1.87,2.15-.15,.29-.63,.08-.63,.08l-.74,1.3-1.54-.35s1.17-.44,1.32-.87c.14-.43-1.73-1.97-1.73-1.97l-1.05,.24-.47,1.89-1.26,1.1h-1.65l.15-.93-.61-.02,.79-2.04,1.62,.14s.6-1.57,.48-2.08c-.23-1-1.27-1.11-1.27-1.51s1.12-.39,1.68-.94c.34-.34,1.26-1.6,1.91-2.51m-5.4,.32c.93-.22,1.9-.36,2.89-.4l.14,.23s-.36,1.87-.95,2.03c-.59,.16-2.3-.83-2.3-.83l.22-1.04Zm-6.91,26.43c-2.55-2.35-4.3-5.54-4.82-9.12,1.75,1.17,4.82,3.53,4.82,5.67v3.45Zm1.94-22s-2.12,2.76-3.6,4.25c-.68,.69-1.69,1.22-2.58,1.6,1.31-4.02,4.22-7.32,7.98-9.15l-1.8,3.29Zm17.38,19.95c-.26,.46-.96,.7-1.27,1.15-.57,.81-.41,2.24-1.05,2.56-1.16,.57-2.5,.83-2.82,.53-.44-.42-1.18-2.2-1.18-2.79v-4.26c0-.76-1.02-2.98-1.02-2.98,0,0-2.65-.02-3.58-.02s-2.17-.93-2.17-.93c0,0-.79-2.6,0-4.23s1.81-1.79,1.81-1.79l4.14-.83,2.37,1.39,3.16,.6,.88,1.2,1.41,1.99,2,1.04,2-1.71s-.2,2.39-.99,3.89c-.79,1.49-2.83,2.61-2.83,2.61,0,0-.19,1.4-.86,2.58m1.39,.43l1.37-2.48,2.22-.24c-.77,1.51-1.78,2.88-2.98,4.05l-.6-1.33Z"/></g></g></svg>