<?xml version="1.0" encoding="UTF-8"?><svg id="Laag_1" xmlns="http://www.w3.org/2000/svg" xmlns:xlink="http://www.w3.org/1999/xlink" viewBox="0 0 64 64"><defs><style>.cls-1{fill:none;}.cls-2{clip-path:url(#clippath);}.cls-3{clip-path:url(#clippath-1);}</style><clipPath id="clippath"><rect class="cls-1" width="64" height="64"/></clipPath><clipPath id="clippath-1"><rect class="cls-1" width="64" height="64"/></clipPath></defs><g class="cls-2"><g class="cls-3"><path d="M30,12.5c0-6.35-6.49-11.5-14.5-11.5S1,6.15,1,12.5s6.49,11.5,14.5,11.5,14.5-5.15,14.5-11.5m-13.41-7.04l1.94-1.14c1.45,2.47,2.22,5.3,2.22,8.18s-.77,5.71-2.22,8.18l-1.94-1.14c1.25-2.13,1.91-4.56,1.91-7.04s-.66-4.91-1.91-7.04m-6.27,10.69l-1.9-1.21c.47-.73,.72-1.58,.72-2.44s-.25-1.71-.72-2.44l1.9-1.21c.7,1.1,1.07,2.36,1.07,3.65s-.37,2.56-1.07,3.65m2.18,1.09c.87-1.44,1.32-3.08,1.32-4.74s-.46-3.31-1.32-4.74l1.93-1.16c1.08,1.79,1.65,3.83,1.65,5.9s-.57,4.11-1.65,5.91l-1.93-1.16Z"/><path d="M7,31v2H42v-2c0-1.66-1.34-3-3-3H10c-1.66,0-3,1.34-3,3"/><path d="M52.79,36.94c-1.59-1.88-3.39-3.21-6.52-3.74-.76-.13-1.53-.28-2.26-.43v12.22c0,.33-.16,.64-.44,.83-.27,.19-.62,.23-.93,.1-.08-.03-7.82-3.07-10.93-4.35-2.99-1.23-3.79,.21-4.05,.68-.32,.58-.4,1.27-.21,2.02,.3,1.22,1.27,2.48,2.8,3.64,1.79,1.36,3.72,2.5,5.42,3.5,1.85,1.09,4.68,2.69,5.91,4.43,1.02,1.44,2.65,3.07,4.35,4.07,2.28,1.34,5.43,2.21,7.98,2.75l9.65-12.24c-1.87-2.37-9.07-11.48-10.77-13.49"/><path d="M29.03,49.51c-1.9-1.44-3.12-3.09-3.54-4.76-.31-1.25-.17-2.45,.41-3.48,.72-1.29,2.53-3.21,6.56-1.55,2.3,.95,7.16,2.87,9.54,3.8v-6.53H7v12c0,1.66,1.34,3,3,3H30.03c.02,.06,.08,.3-.25,.37-.68,.14-2.81,.55-4.56,.88,.89,1.84,1.53,3.15,1.7,3.48,.82,1.58,2.74,2.23,4.36,1.48h0c.64-.31,1.14-.79,1.47-1.37,.85,1.5,2.71,2.11,4.29,1.37h0c.97-.46,1.61-1.32,1.83-2.3-1.06-.88-2.56-1.78-4.23-2.76-1.75-1.03-3.73-2.2-5.61-3.63"/></g></g></svg>