<?xml version="1.0" encoding="UTF-8"?><svg id="Laag_1" xmlns="http://www.w3.org/2000/svg" xmlns:xlink="http://www.w3.org/1999/xlink" viewBox="0 0 64 64"><defs><style>.cls-1{fill:none;}.cls-2{clip-path:url(#clippath);}.cls-3{clip-path:url(#clippath-1);}</style><clipPath id="clippath"><rect class="cls-1" width="64" height="64"/></clipPath><clipPath id="clippath-1"><rect class="cls-1" width="64" height="64"/></clipPath></defs><g class="cls-2"><g class="cls-3"><path d="M36,1h-8V7h8V1Zm20,8H8V43H24c.02,.06-.05,.26-.37,.36l-5.4,1.07-3.23,18.56h7l1.74-10h16.52l1.74,10h7l-3.23-18.56-5.4-1.07c-.32-.1-.39-.31-.37-.36h16V9Zm-21,15h4v9h-4v-9Zm-13-9c2.45,0,4.64,1.1,6.1,2.83,1.18,1.4,1.9,3.2,1.9,5.17h-8V15Zm-2,18c-4.42,0-8-3.58-8-8s3.58-8,8-8v7.99h8c0,4.42-3.58,8.01-8,8.01m4.43,16l1.04-6h13.04l1.04,6h-15.13Zm20.57-16h-4V15h4v18Zm6,0h-4v-14h4v14Z"/></g></g></svg>