<?xml version="1.0" encoding="UTF-8"?><svg id="Laag_1" xmlns="http://www.w3.org/2000/svg" xmlns:xlink="http://www.w3.org/1999/xlink" viewBox="0 0 24 24"><defs><style>.cls-1{fill:none;}.cls-2{clip-path:url(#clippath);}.cls-3{clip-path:url(#clippath-1);}</style><clipPath id="clippath"><rect class="cls-1" width="24" height="24"/></clipPath><clipPath id="clippath-1"><rect class="cls-1" width="24" height="24"/></clipPath></defs><g class="cls-2"><g class="cls-3"><path d="m20.5,12c0,1.32-.47,2.53-1.25,3.48l1.41,1.42c1.14-1.31,1.83-3.02,1.83-4.9,0-4.14-3.36-7.5-7.5-7.5v2c3.03,0,5.5,2.47,5.5,5.5"/><path d="m17,12c0,.35-.1.68-.26.96l1.44,1.44c.51-.67.82-1.5.82-2.4,0-2.21-1.79-4-4-4v2c1.1,0,2,.9,2,2"/><path d="m13,4.75c0-.58-.62-.92-1.1-.59-.21.14-1.19.91-2.22,1.73l3.32,3.33v-4.47Z"/><path d="m3.74,2.28c-.39-.39-1.02-.39-1.41,0-.39.39-.39,1.02,0,1.41l4.3,4.31c-.58,0-1.62,0-1.62,0-2.22,0-3,2.09-3,4,0,1.91.78,4,3,4,0,0,2.01,0,2,0,0,0,4.42,3.52,4.9,3.85.48.33,1.1-.01,1.1-.59v-4.86l2.99,3c-.32.06-.65.1-.99.1v2c.92,0,1.79-.18,2.6-.49l2.72,2.72c.19.2.45.29.71.29s.51-.1.71-.29c.39-.39.39-1.02,0-1.41L3.74,2.28Z"/></g></g></svg>