<?xml version="1.0" encoding="UTF-8"?><svg id="Laag_1" xmlns="http://www.w3.org/2000/svg" xmlns:xlink="http://www.w3.org/1999/xlink" viewBox="0 0 64 64"><defs><style>.cls-1{fill:none;}.cls-2{clip-path:url(#clippath);}.cls-3{clip-path:url(#clippath-1);}</style><clipPath id="clippath"><rect class="cls-1" width="64" height="64"/></clipPath><clipPath id="clippath-1"><rect class="cls-1" width="64" height="64"/></clipPath></defs><g class="cls-2"><g class="cls-3"><path d="M26,20h5v-1.5c0-1.38-1.12-2.5-2.5-2.5s-2.5,1.12-2.5,2.5v1.5Z"/><path d="M50.5,39c-3.04,0-5.5,2.46-5.5,5.5s2.46,5.5,5.5,5.5,5.5-2.46,5.5-5.5-2.46-5.5-5.5-5.5"/><path d="M1,41.11c0,.99,.73,1.83,1.71,1.98l1.38,.2-3.09-6.29v4.11Z"/><path d="M63.3,39.2l-.75-3.57c-.42-2.01-2.11-3.51-4.15-3.7l-9.13-.85c-3.03-3.34-5.59-5.81-7.24-7.32-1.24-1.13-2.86-1.76-4.54-1.76h-12.48c-1.11,0-2,.9-2,2v7H2c-.55,0-1,.45-1,1v3.13l2.23,.27,3.8,7.74c.28-1.54,1.03-2.92,2.09-3.99l-1.59-3.23,3.2,.38,.63,1.29c.96-.43,2.01-.68,3.13-.68,4.03,0,7.32,3.14,7.57,7.1h3.56l-3.09-6.29,3.2,.38,2.9,5.91h4.05l-2.65-5.4,3.2,.38,2.46,5.01h4.05l-2.21-4.5,3.2,.38,2.02,4.11h.14c.26-3.96,3.55-7.1,7.58-7.1s7.28,3.11,7.57,7.04l2.65-.64c1.83-.44,2.97-2.26,2.58-4.1M29,31v-6h8.48c.93,0,1.82,.35,2.52,.98,1.3,1.18,3.05,2.86,5.1,5.02H29Z"/><path d="M21.43,18.99l1.98-.22c.39-.04,.59-.38,.59-.77s-.19-.73-.59-.77l-1.98-.22c-.61-.07-.95,.38-.95,.99s.34,1.06,.95,.99"/><path d="M33.59,18.77l1.98,.22c.61,.07,.95-.38,.95-.99s-.34-1.06-.95-.99l-1.98,.22c-.39,.04-.59,.38-.59,.77s.19,.73,.59,.77"/><path d="M25.29,13.98c.23,.32,.62,.32,.96,.12,.34-.2,.53-.53,.38-.9l-.8-1.83c-.25-.56-.8-.64-1.34-.33-.53,.31-.75,.83-.38,1.32l1.18,1.61Z"/><path d="M30.75,14.1c.34,.2,.73,.2,.96-.12l1.18-1.61c.36-.5,.15-1.02-.38-1.32-.53-.31-1.09-.23-1.34,.33l-.8,1.83c-.16,.36,.03,.7,.38,.89"/><path d="M14.5,39c-3.04,0-5.5,2.46-5.5,5.5s2.46,5.5,5.5,5.5,5.5-2.46,5.5-5.5-2.46-5.5-5.5-5.5"/></g></g></svg>