<?xml version="1.0" encoding="UTF-8"?><svg id="Laag_1" xmlns="http://www.w3.org/2000/svg" xmlns:xlink="http://www.w3.org/1999/xlink" viewBox="0 0 64 64"><defs><style>.cls-1{fill:none;}.cls-2{clip-path:url(#clippath);}.cls-3{clip-path:url(#clippath-1);}</style><clipPath id="clippath"><rect class="cls-1" width="64" height="64"/></clipPath><clipPath id="clippath-1"><rect class="cls-1" width="64" height="64"/></clipPath></defs><g class="cls-2"><g class="cls-3"><path d="M28.78,11.92c3.1-.45,4.59-2.89,4.14-6.04-.51-3.59-2.67-5.24-5.69-4.81-3.19,.46-4.58,2.98-4.11,6.21,.49,3.41,2.56,5.08,5.67,4.63"/><path d="M31.68,31.79c-1.94-.12-5.86-.47-8.62-.75l.04,6.96v19.96c.17,5.1,4.94,5.24,4.94,5.24,0,0,.94-24.33,.95-24.65s.17-.56,.51-.55c.36,0,.51,.28,.52,.49,0,.21,.73,19.32,.73,19.32,.29,5.24,5.25,5.19,5.25,5.19V31.18s-3.19,.54-3.38,.57c-.18,.03-.62,.06-.94,.04"/><path d="M44.91,20.92l-3.69,.55,1.11-3.6c.16-.53-.13-1.09-.66-1.25-.53-.16-1.09,.13-1.25,.66l-1.39,4.51-3.54,.53c-.36,.05-.67,.3-.79,.65l-1.47,4.02c-.71-.06-10.68-.92-11.25-.99,.09-1.08,.3-2.69,.61-3.67,.13-.41,.41-.33,.41-.33l.02,3.01c.27,.03,8.7,.75,9.47,.81l1.19-3.24c.27-.72,.9-1.24,1.66-1.35l2.27-.34c-.11-.55-.26-1.23-.45-2.09-.6-2.7-2.28-4.14-4.39-4.51-2.9-.5-6.24-.23-8.79,.4-4.24,1.04-5.44,5.87-5.81,11.55-.12,1.84,.55,3.11,3.16,3.48h0c2.4,.31,8,.78,10.44,.96,.24,.02,.57-.01,.68-.03,1-.17,9.54-1.61,9.54-1.61,.34-.06,.63-.29,.76-.62l2.71-6.83c.14-.36-.16-.74-.54-.68"/><path d="M41.49,6.75c-2.26,0-4.38,.54-6.28,1.48l.99,2.3c1.59-.81,3.39-1.27,5.29-1.27,3,0,5.73,1.14,7.81,3l1.71-1.82c-2.53-2.28-5.86-3.68-9.52-3.68"/><path d="M37.19,12.82l.99,2.31c.98-.55,2.11-.87,3.31-.87,1.68,0,3.21,.62,4.39,1.63l1.71-1.82c-1.63-1.44-3.76-2.32-6.1-2.32-1.55,0-3.02,.39-4.3,1.07"/></g></g></svg>