<?xml version="1.0" encoding="UTF-8"?><svg id="Laag_1" xmlns="http://www.w3.org/2000/svg" xmlns:xlink="http://www.w3.org/1999/xlink" viewBox="0 0 64 64"><defs><style>.cls-1{fill:none;}.cls-2{clip-path:url(#clippath);}.cls-3{clip-path:url(#clippath-1);}</style><clipPath id="clippath"><rect class="cls-1" width="64" height="64"/></clipPath><clipPath id="clippath-1"><rect class="cls-1" width="64" height="64"/></clipPath></defs><g class="cls-2"><g class="cls-3"><path d="M61.99,16.01h-1.99c-.37-6.29-2.14-9.5-3.01-10.72-.13-.18-.31-.27-.49-.27s-.36,.09-.49,.27c-.8,1.12-2.37,3.95-2.9,9.3,1.65,.32,4.96,.96,5.2,1.04,.32,.1,.27,.31,.25,.36h-7.55c-.73,.01-1.2,.78-.86,1.42,.79,1.53,1.85,4.07,1.85,7.58v10h-4c0-8.59-6.78-15.58-15.28-15.96,1.46-.2,2.63-1.13,3.21-2.38-.36,.21-.76,.36-1.2,.42-1.71,.22-3.27-.99-3.49-2.7-.2-1.56,.79-2.98,2.26-3.39-.58-.2-1.21-.28-1.86-.2-2.28,.29-3.89,2.37-3.6,4.65,.24,1.9,1.74,3.32,3.55,3.57-8.04,.2-14.6,6.33-15.48,14.18,2.28,.44,6.24,1.22,6.54,1.31,.42,.14,.36,.42,.33,.49H12v-10c0-3.51,1.06-6.05,1.85-7.58,.33-.65-.14-1.41-.86-1.41h-1.99c-.37-6.29-2.14-9.5-3.01-10.72-.13-.18-.31-.27-.49-.27s-.35,.09-.49,.27c-.8,1.12-2.37,3.95-2.9,9.3,1.65,.32,4.96,.96,5.2,1.04,.32,.1,.27,.31,.25,.36H2.01c-.73,.01-1.2,.78-.86,1.42,.79,1.53,1.85,4.07,1.85,7.58V58H24v-8.97c0-5.46,5.97-8.18,7.59-8.82,.13-.05,.27-.08,.41-.08s.27,.02,.4,.08c1.62,.64,7.6,3.36,7.6,8.82v8.97h21V25c0-3.51,1.06-6.05,1.85-7.58,.33-.65-.14-1.41-.86-1.41"/></g></g></svg>