<?xml version="1.0" encoding="UTF-8"?><svg id="Laag_1" xmlns="http://www.w3.org/2000/svg" xmlns:xlink="http://www.w3.org/1999/xlink" viewBox="0 0 64 64"><defs><style>.cls-1{fill:none;}.cls-2{clip-path:url(#clippath);}.cls-3{clip-path:url(#clippath-1);}</style><clipPath id="clippath"><rect class="cls-1" width="64" height="64"/></clipPath><clipPath id="clippath-1"><rect class="cls-1" width="64" height="64"/></clipPath></defs><g class="cls-2"><g class="cls-3"><path d="M27,20V2c0-.55-.45-1-1-1H14c-.55,0-1,.45-1,1V20c0,.55,.45,1,1,1h12c.55,0,1-.45,1-1M20,4c1.66,0,3,1.34,3,3s-1.34,3-3,3-3-1.34-3-3,1.34-3,3-3m4,14h-8v-4h8v4Z"/><path d="M56.03,35.52c-.98-2.97-3.61-3.64-5.16-2.69-.44-.9-1.56-2.36-3.49-2.59-1.97-.23-3.08,1.42-3.08,1.42-.06-.05-.92-2.44-3.5-2.53-1.82-.07-2.99,1.26-3.25,1.6-.5-6.09-1.35-14.88-1.42-15.95-.1-1.53-1.28-2.75-2.81-2.77h0c-1.53-.02-2.82,1.17-2.89,2.69-.04,1.08-.42,17.83-.42,30.54-.06,.02-.26,.07-.36-.25-.31-.98-1-5.49-1.14-6.25-1.71,1.31-4.15,3-4.35,6.06-.44,6.52,6.09,10.21,8.86,17.21h20c0-7.95,3.83-4.27,3.98-15,.04-2.64,.1-8.31-.95-11.48"/></g></g></svg>