<?xml version="1.0" encoding="UTF-8"?><svg id="Laag_1" xmlns="http://www.w3.org/2000/svg" xmlns:xlink="http://www.w3.org/1999/xlink" viewBox="0 0 64 64"><defs><style>.cls-1{fill:none;}.cls-2{clip-path:url(#clippath);}.cls-3{clip-path:url(#clippath-1);}</style><clipPath id="clippath"><rect class="cls-1" width="64" height="64"/></clipPath><clipPath id="clippath-1"><rect class="cls-1" width="64" height="64"/></clipPath></defs><g class="cls-2"><g class="cls-3"><path d="M31,10.91c2.84,0,4.48-2,4.48-4.87,0-3.28-1.72-5.03-4.48-5.03-2.91,0-4.48,2.08-4.48,5.03,0,3.12,1.64,4.87,4.48,4.87m-15,43.63v6.92c0,2.05,4,2.05,4,0v-6.92c0-2.05-4-2.05-4,0m26,0v6.92c0,2.05,4,2.05,4,0v-6.92c0-2.06-4-2.04-4,0m-5.4-40.95c-3.02-.72-8.26-.72-11.19,0-5.75,1.41-5.44,10.03-5.17,17.9,.09,2.77,2.32,3.85,3.54,3.85v-8.08c0-1.63,.08-3.07,.22-4.24,.32-2.82,.58-2.89,1.14-2.82v14.26l-2.64,21.55h-1.49v4l10.5-1,9.5,1v-4h-1.5l-2.62-21.55v-14.26c.58-.1,.87-.02,1.16,2.82,.12,1.18,.2,2.62,.2,4.2v8.12c1.22,0,3.43-1.05,3.54-3.85,.3-7.87,.59-16.53-5.18-17.9m-9.43,42.42c1.19-7.72,3.34-21.01,3.36-21.11,.04-.19,.15-.45,.48-.45s.43,.26,.47,.45c.02,.1,1.27,7.67,3.34,21.11h-7.64Z"/></g></g></svg>