<?xml version="1.0" encoding="UTF-8"?><svg id="Laag_1" xmlns="http://www.w3.org/2000/svg" xmlns:xlink="http://www.w3.org/1999/xlink" viewBox="0 0 64 64"><defs><style>.cls-1{fill:none;}.cls-2{clip-path:url(#clippath);}.cls-3{clip-path:url(#clippath-1);}</style><clipPath id="clippath"><rect class="cls-1" width="64" height="64"/></clipPath><clipPath id="clippath-1"><rect class="cls-1" width="64" height="64"/></clipPath></defs><g class="cls-2"><g class="cls-3"><path d="M57.28,44.88c-.54-1.62-1.97-1.98-2.81-1.46-.24-.49-.85-1.29-1.9-1.41-1.08-.12-1.68,.77-1.68,.77-.03-.03-.5-1.33-1.91-1.38-.99-.04-1.63,.69-1.77,.87-.28-3.32-.74-8.1-.77-8.69-.05-.83-.7-1.5-1.53-1.51h0c-.83-.01-1.54,.64-1.57,1.47-.02,.59-.23,10.81-.23,17.73-.03,.01-.21,.09-.3-.22-.2-.68-.75-3.66-.81-4.18-.93,.71-1.87,1.39-1.98,3.06-.19,2.89,3.43,9.56,10.37,8.75,3.77-.44,7.32-2.94,7.42-7.37v-.17c.02-1.44,.06-4.53-.51-6.25"/><path d="M39.35,41.04c.22-1,1.6-.95,1.42-2.33-.08-.66-.64-.84-.95-.91,.36-.19,.81-.67,.92-1.25,.08-.44,0-.92-.36-1.15-1-.65-.98-1.69-.98-1.69l2.75-1.46c.79-.51,1.01-1.56,.5-2.34l-5.22-5.88c-.17-.75,.11-2.12,0-2.75-.55-3.18-2.05-6.69-2.05-6.69,1.74-3.32,.89-6.27-1.73-7.95-2.98-1.92-13.74-2.11-21.65,2.19C3.64,13.36,4.55,21.83,5.95,26.08c1.64,4.94,6.43,11.95,6.77,17.23,.15,2.32-1.56,9.69-1.56,9.69H29.86v-5.22s-4.73-2.29-4.95-2.44c-.22-.15-.16-.33-.13-.38,0,0,6.8,1.43,9.43,1.83,2.06,.32,3.83-.23,4.68-1.18,1.77-1.96,.24-3.57,.46-4.57"/></g></g></svg>