<?xml version="1.0" encoding="UTF-8"?><svg id="Laag_1" xmlns="http://www.w3.org/2000/svg" xmlns:xlink="http://www.w3.org/1999/xlink" viewBox="0 0 64 64"><defs><style>.cls-1{fill:none;}.cls-2{clip-path:url(#clippath);}.cls-3{clip-path:url(#clippath-1);}</style><clipPath id="clippath"><rect class="cls-1" width="64" height="64"/></clipPath><clipPath id="clippath-1"><rect class="cls-1" width="64" height="64"/></clipPath></defs><g class="cls-2"><g class="cls-3"><path d="M26.5,8.64c2.09,0,3.3-1.48,3.3-3.61,0-2.42-1.26-3.73-3.3-3.73-2.15,0-3.3,1.54-3.3,3.73,0,2.31,1.21,3.61,3.3,3.61"/><path d="M37.5,8.64c2.09,0,3.3-1.48,3.3-3.61,0-2.42-1.26-3.73-3.3-3.73-2.15,0-3.3,1.54-3.3,3.73,0,2.31,1.21,3.61,3.3,3.61"/><path d="M52.23,44.76c-2.77,.95-6.37,2.41-9.22,3.61,.07,.43,.08,.89,.01,1.38-.41,2.81-2.82,4.58-6.24,4.74-7.73,.36-12.53-1.56-13.53-1.96-.29-.12-.32-.26-.29-.39h.01c5.6,.95,9.12,1.11,13.46,.41,3.29-.53,4.49-2.11,4.46-3.41-.03-1.27-.93-2.04-2.95-2.11-6.89-.24-10.92-1.01-16.82-1.87-4.1-.6-8.06,.47-11.43,2.63-3.16,2.03-4.04,2.98-4.04,2.98l5.79,11.14,7.48-3.04c.85-.35,1.78-.45,2.69-.3l10.26,2.28c2.29,.38,4.64-.06,6.64-1.22l20.48-12.85s-1-4.02-6.76-2.04"/><path d="M21,27.71v-8.72c0-1,0-2,.43-2.81,.22-.41,.51-.48,.57-.41v28.22c2.04,0,3.4-1.12,3.58-3.37,0,0,.43-13.46,.44-13.61,0-.15,.24-.34,.49-.34s.48,.19,.49,.34c0,.15,.44,13.61,.44,13.61,.17,2.26,1.55,3.37,3.57,3.37V14h2v30c2.04,0,3.4-1.12,3.58-3.37,0,0,.43-13.46,.44-13.61,0-.15,.25-.34,.49-.34s.48,.19,.49,.34c0,.15,.44,13.61,.44,13.61,.17,2.26,1.55,3.37,3.57,3.37V15.03c.09-.08,.49-.05,.57,.22,.44,1.5,.59,3.91,.59,6.43v5.72c.97,0,2.45-.6,2.58-2.72,.25-4.05,.7-10.84-2.22-13.32-1.47-1.25-5.07-1.38-7.1-1.38h-8.93c-1.95,0-5.51,.09-6.99,1.34-2.96,2.5-2.51,9.59-2.26,13.66,.13,2.11,1.77,2.71,2.74,2.71"/></g></g></svg>