<?xml version="1.0" encoding="UTF-8"?><svg id="Laag_1" xmlns="http://www.w3.org/2000/svg" xmlns:xlink="http://www.w3.org/1999/xlink" viewBox="0 0 64 64"><defs><style>.cls-1{fill:none;}.cls-2{clip-path:url(#clippath);}.cls-3{clip-path:url(#clippath-1);}</style><clipPath id="clippath"><rect class="cls-1" width="64" height="64"/></clipPath><clipPath id="clippath-1"><rect class="cls-1" width="64" height="64"/></clipPath></defs><g class="cls-2"><g class="cls-3"><path d="M8.77,28.27l9.18-5.23c-.65-.88-1.18-1.84-1.59-2.86l-12.05,6.86,14.02,24.62,11.73-6.68c.04-1.31,.11-2.64,.22-3.89l-10.72,6.11L8.77,28.27Z"/><path d="M39.19,10.94l4.61-2.63,10.79,18.94-10.11,5.76c.53,0,1.04,0,1.52,0,1.47,0,3.2,.02,4.93,.1l8.12-4.63L45.03,3.85l-7.49,4.26c.08,.1,.16,.19,.23,.29,.58,.8,1.04,1.65,1.41,2.53"/><path d="M27.24,36.28c-1.27,.72-2.68,.66-4.02-.66l3.52-2.01-.83-1.46-3.75,2.14c-.13-.18-.25-.39-.38-.62-.15-.27-.31-.54-.44-.82l3.75-2.14-.84-1.48-3.5,2c-.47-1.8,.05-3.14,1.51-3.97,.21-.12,.4-.22,.59-.31-.82-.36-1.58-.8-2.28-1.31-2.22,1.56-3.11,3.97-2.24,6.98l-1.42,.81,.84,1.48,1.19-.68c.15,.35,.36,.72,.55,1.06l.23,.4-1.15,.66,.83,1.46,1.31-.75c2.18,2.53,4.81,2.76,7.49,1.24,1.02-.58,1.49-.92,2.4-1.78l-1.08-1.9c-.88,.78-1.36,1.15-2.26,1.67"/><path d="M35.8,25.09l4.45,7.82,11.36-6.47-8.63-15.15-3.13,1.78c.32,1.47,.37,2.99,.13,4.51-.48,3.04-2.01,5.66-4.19,7.51"/><path d="M26.25,25.68c5.53,.87,10.71-2.91,11.57-8.44,.87-5.53-2.91-10.71-8.44-11.57-5.53-.86-10.71,2.91-11.57,8.44-.87,5.53,2.91,10.71,8.44,11.57m-3.08-10.08l.92,.15,.05-.32c.04-.28,.09-.57,.16-.83l-.96-.15,.19-1.19,1.14,.18c.92-2.23,2.67-3.15,4.82-2.82,.6,.1,1.07,.22,1.7,.46l-.25,1.62c-.73-.26-1.12-.38-1.74-.48-1.17-.18-2.04,.33-2.58,1.52l2.81,.44-.19,1.19-3.01-.47c-.05,.21-.08,.43-.12,.65-.03,.18-.06,.35-.06,.51l3,.47-.18,1.17-2.82-.44c.16,1.32,.91,1.97,1.92,2.13,.72,.11,1.15,.12,1.98,.07l-.24,1.53c-.88,.07-1.29,.05-2.1-.08-2.14-.34-3.49-1.62-3.58-3.97l-1.05-.16,.18-1.17Z"/><path d="M50.79,49.93c-.85,0-1.03,.98-1.03,1.8,0,1.63,.51,1.85,1.01,1.85,.71,0,1.06-.55,1.06-1.64,0-1.8-.6-2.01-1.04-2.01"/><path d="M41.23,44.31c-.86,0-1.04,.98-1.04,1.8,0,1.63,.52,1.85,1.02,1.85,.86,0,1.04-.89,1.04-1.64,0-1.8-.58-2.01-1.02-2.01"/><path d="M56.17,36.57c-3.39-.57-9.04-.57-10.17-.57s-6.78,0-10.17,.57c-1.17,.19-2.06,1.09-2.26,2.26-.57,3.39-.57,9.04-.57,10.17s0,6.78,.57,10.17c.19,1.17,1.09,2.07,2.26,2.26,3.39,.57,9.04,.57,10.17,.57s6.78,0,10.17-.57c1.17-.2,2.07-1.09,2.26-2.26,.56-3.39,.56-9.04,.56-10.17,0-3.39,0-6.78-.56-10.17-.19-1.17-1.09-2.07-2.26-2.26m-18.31,9.71c0-2.9,1.84-3.92,3.42-3.92,2.09,0,3.29,1.37,3.29,3.77,0,2.62-1.78,3.81-3.44,3.81-1.49,0-3.27-.63-3.27-3.65m6.43,9.73l-1.84-.73,5.23-13.28,1.84,.73-5.23,13.28Zm6.4-.45c-1.49,0-3.27-.63-3.27-3.65s1.84-3.92,3.42-3.92c2.09,0,3.29,1.37,3.29,3.77,0,2.63-1.73,3.81-3.44,3.81"/></g></g></svg>