<?xml version="1.0" encoding="UTF-8"?><svg id="Laag_1" xmlns="http://www.w3.org/2000/svg" xmlns:xlink="http://www.w3.org/1999/xlink" viewBox="0 0 64 64"><defs><style>.cls-1{fill:none;}.cls-2{clip-path:url(#clippath);}.cls-3{clip-path:url(#clippath-1);}</style><clipPath id="clippath"><rect class="cls-1" width="64" height="64"/></clipPath><clipPath id="clippath-1"><rect class="cls-1" width="64" height="64"/></clipPath></defs><g class="cls-2"><g class="cls-3"><path d="M30.69,61.24c.39,.91,1.8,.91,2.18,0l9.73-29.24H20.96l9.73,29.24Z"/><path d="M41,21c1.72-.89,3.78-5.28-1-7.77-1.6,2.17-4.01,3.2-6.36,3.85-.64,.18-1.72,.36-1.76-.08,0,0,16.92-7.88-.76-14.98-.66-.26-1.34,.35-1.06,.98,.86,1.93,2.34,4.4-.06,6.02-3.73,2.51-8,4.32-8,7.98,0,2.85,2.8,6.42,12,6,0,0,.29,.83-2.11,1.29-3.34,.63-10.31-.08-11.97-5.04-2.4,2.8-2.82,7.65,.69,10.75h22.47c3.87-3.83,.98-8.61-2.07-9"/></g></g></svg>