<?xml version="1.0" encoding="UTF-8"?><svg id="Laag_1" xmlns="http://www.w3.org/2000/svg" xmlns:xlink="http://www.w3.org/1999/xlink" viewBox="0 0 64 64"><defs><style>.cls-1{fill:none;}.cls-2{clip-path:url(#clippath);}.cls-3{clip-path:url(#clippath-1);}</style><clipPath id="clippath"><rect class="cls-1" width="64" height="64"/></clipPath><clipPath id="clippath-1"><rect class="cls-1" width="64" height="64"/></clipPath></defs><g class="cls-2"><g class="cls-3"><path d="M10,33.17v-1.2c0-1,.42-1.97,1.15-2.65l9.98-9.44-3.92-3.71c-.24-.23-.61-.23-.86,0L1.41,30.32c-.26,.24-.41,.58-.41,.94v.95c0,.35,.28,.64,.63,.64h2.53v13.16H14v-10.02h-1.2c-1.54,0-2.8-1.26-2.8-2.81m42,0v-1.2c0-.45-.19-.88-.52-1.19L32.54,12.86c-.31-.28-.78-.28-1.08,0L12.52,30.79c-.33,.31-.52,.74-.52,1.19v1.2c0,.45,.36,.81,.8,.81h3.2v16.87h32v-16.87h3.2c.44,0,.8-.36,.8-.81m-21.82-1.06c.38,5.39,.7,12.6,.7,12.93,0,.64-.82,1.13-1.88,1.13s-1.88-.5-1.88-1.13c0-.32,.28-7.4,.69-12.93-1.19-.38-2-1.25-2-2.17l.37-5.61c.02-.32,.26-.56,.58-.56s.55,.24,.57,.56l.35,5.05c.01,.09,.1,.16,.2,.16,.11,0,.21-.09,.21-.18l.34-5.04c.02-.31,.26-.56,.57-.56,.31,0,.56,.24,.57,.56l.34,5.03c0,.1,.1,.19,.21,.19,.1,0,.19-.08,.2-.17l.35-5.05c.02-.32,.26-.56,.57-.56s.56,.24,.57,.56l.37,5.59c0,.93-.82,1.81-2.01,2.18m7.36,2.47c-.24,.26-.6,.43-.95,.41h-.11c.97,5.92,.94,9.4-.1,10.63-.42,.49-.92,.55-1.26,.56h0c-.36,0-.82-.19-1.08-.44-.16-.15-.24-.33-.24-.5V24.64c0-.33,.19-.62,.5-.75,.31-.13,.64-.06,.88,.17,1.82,1.81,2.47,6.76,2.69,9.56,.03,.35-.09,.71-.34,.97m25.03-4.27l-14.95-14.15c-.24-.23-.61-.23-.86,0l-3.91,3.7,10,9.46c.73,.68,1.15,1.65,1.15,2.65v1.2c0,1.55-1.26,2.81-2.8,2.81h-1.2v10.02h9.82v-13.16h2.53c.35,0,.63-.28,.63-.64v-.95c0-.36-.15-.7-.41-.94"/></g></g></svg>