<?xml version="1.0" encoding="UTF-8"?><svg id="_01" xmlns="http://www.w3.org/2000/svg" xmlns:xlink="http://www.w3.org/1999/xlink" viewBox="0 0 64 64"><metadata><?xpacket begin="﻿" id="W5M0MpCehiHzreSzNTczkc9d"?>
<x:xmpmeta xmlns:x="adobe:ns:meta/" x:xmptk="Adobe XMP Core 9.1-c001 79.a8d4753, 2023/03/23-08:56:37        ">
   <rdf:RDF xmlns:rdf="http://www.w3.org/1999/02/22-rdf-syntax-ns#">
      <rdf:Description rdf:about=""
            xmlns:dc="http://purl.org/dc/elements/1.1/"
            xmlns:xmp="http://ns.adobe.com/xap/1.0/"
            xmlns:xmpMM="http://ns.adobe.com/xap/1.0/mm/"
            xmlns:stEvt="http://ns.adobe.com/xap/1.0/sType/ResourceEvent#">
         <dc:creator>
            <rdf:Seq/>
         </dc:creator>
         <xmp:MetadataDate>2023-11-29T12:02:02+01:00</xmp:MetadataDate>
         <xmpMM:InstanceID>xmp.iid:035a060d-4f0c-4bf5-8b82-d631298cd838</xmpMM:InstanceID>
         <xmpMM:DocumentID>xmp.did:035a060d-4f0c-4bf5-8b82-d631298cd838</xmpMM:DocumentID>
         <xmpMM:OriginalDocumentID>xmp.did:035a060d-4f0c-4bf5-8b82-d631298cd838</xmpMM:OriginalDocumentID>
         <xmpMM:History>
            <rdf:Seq>
               <rdf:li>
                  <rdf:Description>
                     <stEvt:action>saved</stEvt:action>
                     <stEvt:instanceID>xmp.iid:035a060d-4f0c-4bf5-8b82-d631298cd838</stEvt:instanceID>
                     <stEvt:when>2023-11-29T12:02:02+01:00</stEvt:when>
                     <stEvt:softwareAgent>Adobe Bridge 2024</stEvt:softwareAgent>
                     <stEvt:changed>/metadata</stEvt:changed>
                  </rdf:Description>
               </rdf:li>
            </rdf:Seq>
         </xmpMM:History>
      </rdf:Description>
   </rdf:RDF>
</x:xmpmeta>
                                                                                                    
                                                                                                    
                                                                                                    
                                                                                                    
                                                                                                    
                                                                                                    
                                                                                                    
                                                                                                    
                                                                                                    
                                                                                                    
                                                                                                    
                                                                                                    
                                                                                                    
                                                                                                    
                                                                                                    
                                                                                                    
                                                                                                    
                                                                                                    
                                                                                                    
                                                                                                    
                           
<?xpacket end="w"?></metadata>
<defs><style>.cls-1{clip-path:url(#clippath);}.cls-2{fill:none;}.cls-2,.cls-3{stroke-width:0px;}.cls-3{fill:#000001;}</style><clipPath id="clippath"><rect class="cls-2" width="64" height="64"/></clipPath></defs><g class="cls-1"><path class="cls-3" d="m52.98,8.65c0-.51-.39-.94-.9-.99,0,0-28.34-2.68-28.83-2.72-.49-.05-.97.09-1.37.38-.39.29-5.86,4.34-5.86,4.34l30.24,3.42s.47.8-1.23.93c-1.52.11-24.23-1.87-29.01-2.29v11.35c.64-.58,1.47-.92,2.33-.92,1.2,0,2.32.62,2.92,1.62.51.84,1,2.06,1.31,3.43.16-.02.33-.04.49-.04,1.12,0,2.18.55,2.84,1.46.45.62,1.6,2.4,2.15,4.77.12-.01.23-.04.34-.04,1.17,0,2.26.59,2.92,1.59.18.27,4.38,6.65,3.5,12.12v.04s-.01.04-.01.04c-.28,1.49-.76,2.86-1.41,4.1l12.23,1.15c.62.06,1.24-.12,1.75-.49l5.22-3.92c.25-.19.4-.48.4-.79l-.02-38.54Zm-1.97,32.06l-3.01,2.14v-2.01l3.01-2.14v2.01Zm0-3.87l-3.01,2.14v-2.01l3.01-2.15v2.01Zm0-3.87l-3.01,2.15v-6.12l3.01-2.16v6.13Z"/><path class="cls-3" d="m34.62,56.57c-2.6-1.59-3.91-2.46-5.79-4.19,1.59-1.45,2.6-3.47,3.04-5.79.58-3.62-1.99-8.41-3.04-9.98-.25-.37-.66-.3-.87,0-3.47,5.21-4.05,9.69-3.47,13.02-2.17-1.16-3.91-1.45-7.96-1.74-2.89-.14-5.79.13-7.09.29-.47.06-.7.48-.29,1.01,1.31,1.73,4.19,4.34,6.94,5.5,3.04,1.16,6.65,1.16,9.55-.14,2.31,2.89,4.05,4.48,6.22,6.36.87.72,2.31.58,3.18-.29,1.3-1.16,1.01-3.18-.43-4.05Z"/><path class="cls-3" d="m12.77,34.15c-.72-3.04.43-5.35-.72-7.52-1-1.85-4.23-2.44-6.4-2.46-.12,0-.22-.01-.35.1-.08.07-.15.18-.19.33-.44,2.15-.43,4.19.43,5.64,1.3,2.31,3.91,1.59,7.23,3.91Z"/><path class="cls-3" d="m17.98,25.33c-1.04,1.13-3.04,4.19-3.18,7.23-.14,3.76,2.31,6.51,2.31,6.51.58-3.76,2.17-4.92,2.75-7.96.29-2.31-.56-4.79-1.16-5.79-.11-.18-.48-.26-.72,0Z"/><path class="cls-3" d="m15.96,39.79s-2.17-2.75-5.35-4.05c-3.33-1.45-6.79-1.16-8.1-1.01-.3.03-.41.26-.29.58.74,1.87,3.18,3.76,6.22,3.62,2.46-.14,5.06,0,7.52.87Z"/><path class="cls-3" d="m22.32,45.29c.72-4.77,2.6-5.35,3.04-8.97.14-2.6-1.15-4.92-1.88-5.93-.24-.33-.72-.29-.87.14-1.14,3.33-2.6,4.77-3.04,7.81-.58,3.18,2.75,6.94,2.75,6.94Z"/><path class="cls-3" d="m21.45,46.3s-3.47-3.76-8.25-5.06c-3.76-1.01-7.23-.16-8.68.29-.38.12-.48.49-.29.72,1.42,1.76,3.18,3.33,5.79,3.47,3.62.14,6.8-.58,11.43.58Z"/></g></svg>