<?xml version="1.0" encoding="UTF-8"?><svg id="Laag_1" xmlns="http://www.w3.org/2000/svg" viewBox="0 0 64 64"><defs><style>.cls-1{fill:none;}</style></defs><rect class="cls-1" width="64" height="64"/><g><path d="m36.06,26.82c0,2.66-1.24,4.65-2.91,6.57-2.61,3-5.27,4.44-9.07,2.79,1.4,2.12,3.67,2.98,5.94,2.78,3.22-.28,5.76-3.39,7.39-6.2.79-1.36,1.3-2.75,1.53-4.2,1.33-1.22,2.07-3.17,2.07-5.56,0-.74,0-2.7-1.24-4.04.3-3.34.52-8.5-.78-10.59-1.6-2.56-3.55-3.82-7.26-2.98-2.44-1.16-4.09-1.88-8.36-.84-2.96.72-6.21,1.91-7.92,3.88-1.65,1.91-1.54,7.22-1.27,10.61-1.16,1.33-1.16,3.23-1.16,3.96,0,2.39.74,4.33,2.06,5.55.38,2.51,1.61,4.91,3.71,7.26-.11.81-.23,1.75-.35,2.73-3.17.93-9.8,3.15-12.02,5.57-2.87,3.12-4.39,14.89-4.39,14.89h31.45c-.42-2.97-.51-7.02-.51-10,0-2.04.05-4.57.21-6.92-.79,2.93-3.74,5.8-5.77,7.26-1.99-1.52-5.47-4.56-6.09-7.61-.16-.8-.09-1.21,0-1.98h0c.13-1.1.07-.58.75-4.87-2.28-2.2-4.1-4.87-4.1-8.06-1.62-.5-2.04-2.55-2.04-3.82s.32-1.96.77-2.17c.39-.18.77-.05,1.01.09.14.65.25,1.14.29,1.31.21.85,1.02.77,1.02.77v-6.75c2.07-.15,6.19-.75,10.75-3.11l5.25,3.53v6.33s.82.08,1.02-.77c.04-.17.15-.66.29-1.31.24-.14.62-.27,1.01-.09.45.21.77.9.77,2.17,0,1.27-.42,3.31-2.04,3.82Z"/><path d="m61.44,38.83c-.19-1.17-1.09-2.07-2.26-2.26-3.39-.57-9.04-.57-10.17-.57s-6.78,0-10.17.57c-1.17.2-2.07,1.09-2.26,2.26-.57,3.39-.57,9.04-.57,10.17s0,6.78.57,10.17c.2,1.17,1.09,2.07,2.26,2.26,3.39.57,9.04.57,10.17.57s6.78,0,10.17-.57c1.17-.2,2.07-1.09,2.26-2.26.56-3.39.56-9.04.56-10.17,0-3.39,0-6.78-.56-10.17Zm-3.97,3.62l-8.83,14.52c-.25.4-.69.65-1.16.65h0c-.47,0-.91-.25-1.16-.66l-5.78-9.65c-.34-.57-.22-1.31.29-1.73.51-.43,1.25-.42,1.76.01l4.77,4.13,7.94-8.88c.47-.52,1.25-.6,1.82-.19.56.42.71,1.19.35,1.79Z"/></g></svg>