<?xml version="1.0" encoding="UTF-8"?><svg id="Laag_1" xmlns="http://www.w3.org/2000/svg" xmlns:xlink="http://www.w3.org/1999/xlink" viewBox="0 0 64 64"><defs><style>.cls-1{fill:none;}.cls-2{clip-path:url(#clippath);}.cls-3{clip-path:url(#clippath-1);}</style><clipPath id="clippath"><rect class="cls-1" width="64" height="64"/></clipPath><clipPath id="clippath-1"><rect class="cls-1" width="64" height="64"/></clipPath></defs><g class="cls-2"><polygon points="38.83 21.73 32.59 20.03 31.2 16.99 30.42 21.5 26.04 22.82 20.77 21.68 25.59 25.16 28.64 24.2 28.73 27.67 31.88 22.97 40.65 23.82 41.92 20.14 46.63 19.69 41.01 18.01 38.83 21.73"/><g class="cls-3"><path d="M58.11,19.64l-1-.08c-.55-.04-1.03,.37-1.08,.92l-.78,9.97c-.04,.55,.37,1.03,.92,1.08l1,.08c1.1,.09,2.06-.74,2.15-1.84l.62-7.97c.09-1.1-.74-2.06-1.84-2.15"/><path d="M9.4,26.86l.78-9.97c.04-.55-.37-1.03-.92-1.07l-1-.08c-1.1-.09-2.06,.74-2.15,1.84l-.62,7.98c-.09,1.1,.74,2.06,1.84,2.15l1,.08c.55,.04,1.03-.37,1.08-.92"/><path d="M51.26,7.82c-.65-1.16-1.84-1.9-3.16-2-3.06-.24-8.97-.7-13.9-1.09l-13.89-1.09c-1.32-.1-2.61,.45-3.44,1.49-1.58,1.98-3.21,5.47-3.89,7.97-1.41,5.16-2.67,14.84-2.67,14.84l-.31,3.99-1.64,20.94s-.32,4.16-.05,5.93c.1,.64,.72,1.15,1.49,1.21h5.43c.7,0,1.08-.1,1.23-.57,.33-1.03,.58-2.95,.72-4.32,0,0-5.29-1.54-5.47-1.61-.31-.1-.33-.29-.27-.4l37.7,2.95c.04,.15-.02,.3-.34,.35-.18,.03-5.64,.74-5.64,.74v.03c-.21,.88-1.17,1.2-1.17,1.81s.47,1.03,1,1.03h9c.53,0,1-.41,1-1.03,0-.56-.8-.87-.85-1.73,.06-.57,.09-.95,.09-.95l1.64-20.94,.31-3.99s.2-7.92-.33-15.07c-.19-2.58-1.35-6.27-2.6-8.48M18.65,49.65c-.04,.55-.52,.96-1.08,.92l-4.99-.39c-.55-.04-.96-.53-.92-1.08l.23-2.99c.04-.55,.52-.96,1.07-.92l4.99,.39c.55,.04,.96,.52,.92,1.07l-.23,2.99Zm21.25-2.35l-17.94-1.4-.24-2.02,18.74,1.47-.55,1.96Zm1.11-3.92l-19.54-1.53-.24-2.02,20.34,1.59-.56,1.96Zm-20.03-5.58l-.24-2.02,21.93,1.72-.55,1.96-21.14-1.65Zm28.57,14.27c-.04,.55-.52,.96-1.08,.92l-4.99-.39c-.55-.04-.96-.52-.92-1.07l.23-2.99c.04-.55,.52-.96,1.07-.92l4.98,.39c.55,.04,.96,.52,.92,1.08l-.23,2.99Zm.62-22.11c-.04,.59-.49,1.05-1.08,1.01l-33.7-2.64c-.59-.05-.97-.58-.91-1.16,.35-3.65,1.4-9.58,2.34-12.88,.14-.49,.55-.85,1.06-.81l31.06,2.43c.51,.04,.88,.46,.92,.97,.36,4.15,.55,9.18,.31,13.08"/></g></g></svg>