<?xml version="1.0" encoding="UTF-8"?><svg id="Laag_1" xmlns="http://www.w3.org/2000/svg" xmlns:xlink="http://www.w3.org/1999/xlink" viewBox="0 0 64 64"><defs><style>.cls-1{fill:none;}.cls-2{clip-path:url(#clippath);}.cls-3{clip-path:url(#clippath-1);}</style><clipPath id="clippath"><rect class="cls-1" width="64" height="64"/></clipPath><clipPath id="clippath-1"><rect class="cls-1" x="3.52" y="7.15" width="56.96" height="50.53"/></clipPath></defs><g class="cls-2"><g class="cls-3"><path d="M49.53,35.75c0,1.51,1.22,2.73,2.73,2.73s2.73-1.22,2.73-2.73-1.22-2.73-2.73-2.73-2.73,1.22-2.73,2.73M15.11,16.13l1.83-3.16-6.33-3.65-1.83,3.17,6.33,3.65Zm12.66,7.31l1.83-3.17-6.33-3.65-1.83,3.17,6.33,3.65Zm12.66,7.31l1.83-3.16-6.33-3.65-1.83,3.17,6.33,3.65Zm11.83,9.69c2.59,0,4.68-2.1,4.68-4.68s-2.1-4.68-4.68-4.68-4.68,2.1-4.68,4.68,2.1,4.68,4.68,4.68M6.74,12.35l2.74-4.75c.25-.44,.81-.59,1.25-.33L48.97,29.35c.05-.04,.22-.22-.03-.51l-2.16-2.22h10.96c1.51,0,2.74,1.23,2.74,2.74v28.32h-16.44v-22.74L7.08,13.6c-.44-.25-.59-.81-.33-1.25"/></g><polygon points="20.77 32.55 21.99 57.68 35.26 57.68 25.23 32.55 20.77 32.55"/><polygon points="13.54 32.55 3.52 57.68 16.79 57.68 18.01 32.55 13.54 32.55"/></g></svg>