<?xml version="1.0" encoding="UTF-8"?><svg id="Laag_1" xmlns="http://www.w3.org/2000/svg" xmlns:xlink="http://www.w3.org/1999/xlink" viewBox="0 0 64 64"><defs><style>.cls-1{fill:none;}.cls-2{clip-path:url(#clippath);}.cls-3{clip-path:url(#clippath-1);}</style><clipPath id="clippath"><rect class="cls-1" width="64" height="64"/></clipPath><clipPath id="clippath-1"><rect class="cls-1" width="64" height="64"/></clipPath></defs><g class="cls-2"><g class="cls-3"><path d="M62.42,12.69l-2.5-1.43c-.42-.24-.76-.6-.99-1.03-.63-1.19-1.71-2.55-3.49-2.84-3.7-.62-8.32,.66-8.56,1.39-.33,.99,2.75,1.36,2.99,3.44,.23,1.99,1.03,6.23,.17,7.95-.89,1.78-2.64,2.55-5.11,3.91,.19,.46,.34,.99,.41,1.61,.24,2.11-.69,4.05-2.3,5.21,1.57,3.81,1.86,7.6,.81,10.89,2.36-.25,5.03-.78,7.45-1.46,.14,.09,.07,.34-.23,.56-2.59,1.89-5.55,2.88-8.22,3.19-1.16,2.05-2.94,3.73-5.23,4.96,1.11,.32,2.2,.6,3.22,.79l1,6.87c-1.06,.38-2.32,1.17-3.05,1.96-.01,0-.03-.02-.04-.03-1.36-.78-4.3-1.16-5.43-1.11l-1.28-6.12c1.27-.54,2.52-2.19,3.48-3.76,7.79-3.37,8.18-11.2,4.56-17.88,1.97-.24,3.3-1.93,3.08-3.83-.22-1.96-1.48-2.35-2.68-4.64,2.03-.27,4,.43,4,.43,.39,.04,.34-.43,.04-1.02-.82-1.56-2.28-2.8-3.36-3.96,2.06-2.28,2.53-4.35,2.03-5.15-.63-1.02-1.9,.05-1.9,.05,0,0-.21-1.72-.91-1.97-.85-.3-1.51,.84-1.51,.84,0,0-.31-1.87-1.3-2.11-.9-.21-1.3,1.34-1.3,1.34,0,0-.82-1.6-1.78-1.32-.8,.23-1.6,3.18,.13,5.59-2.29,.94-3.41,2.49-4.17,4.24-1.26,2.92-1.53,6.62-4.69,8.72-1.88,1.24-6.76,3.04-11.05-.45-3.85-3.13-6.32-8.94-7.09-11.02-1.04-2.83-9.22,5.52-1.75,14.22-5.24-.89-3.49,5.31,2.39,9.67-.95,.2-1.6,.6-1.8,1.19-.29,.84,.28,2.03,1.67,2.98,7.42,5.05,15.69,.14,15.69,.14,.25,.15,.3,.61-.39,1.11-1.87,1.37-3.87,2.26-5.72,2.84,1.11,1.54,2.43,2.9,3.89,3.54l2.91,6.47c-1.73,.72-3.78,2.33-3.55,3.33,.13,.6,.84,.65,1.55,.26,.64-.35,2.43-1.51,3.79-1.51,1.28,0,4.58,1.46,6.37,2.38,.55,.28,1.47,.21,1.5-.48,.03-.62-.59-1.3-1.5-1.94,2.88,.09,5.57,.66,5.6,.67,.49,.12,.95,.05,1.53-.26,.6-.32,2.13-1.35,3.4-1.35,1.19,0,4.28,1.36,5.95,2.22,.52,.26,1.38,.2,1.4-.45,.03-.66-.72-1.4-1.78-2.06,2.26,.23,4.25,.83,4.28,.83,1.06,.32,2.02-.83-.58-2.03-.79-.37-2.38-.83-4.23-.93l1.35-7.4c5.66-2.2,11.64-7.29,12.22-14.63,.59-7.52-2.16-13.94-3.27-17.59,.91-.61,1.34-1.06,1.47-2.44l2.29-.64c.45-.13,.53-.74,.12-.97m-24.91,4.31c.83,0,1.5,.67,1.5,1.5s-.67,1.5-1.5,1.5-1.5-.67-1.5-1.5,.67-1.5,1.5-1.5m-10.55,40.42l-1.64-5.82h3.22l2.34,7.1c-1.29-.6-2.73-1.08-3.91-1.29m19.21-.27c-.62-.22-1.61-.39-2.18-.51l.08-6.47c.55,0,1.12-.02,2.45-.29l-.35,7.27ZM54.99,13.5c-.83,0-1.5-.67-1.5-1.5s.67-1.5,1.5-1.5,1.5,.67,1.5,1.5-.67,1.5-1.5,1.5"/></g></g></svg>