<?xml version="1.0" encoding="UTF-8"?><svg id="Laag_1" xmlns="http://www.w3.org/2000/svg" xmlns:xlink="http://www.w3.org/1999/xlink" viewBox="0 0 64 64"><defs><style>.cls-1{fill:none;}.cls-2{clip-path:url(#clippath);}.cls-3{clip-path:url(#clippath-1);}</style><clipPath id="clippath"><rect class="cls-1" width="64" height="64"/></clipPath><clipPath id="clippath-1"><rect class="cls-1" width="64" height="64"/></clipPath></defs><g class="cls-2"><g class="cls-3"><path d="M21.17,20.06c2.84-.43,4.18-2.63,3.73-5.43-.51-3.19-2.5-4.64-5.27-4.22-2.92,.45-4.16,2.71-3.7,5.59,.49,3.03,2.41,4.49,5.25,4.06"/><path d="M42.99,33.48c-2.5-2.84-3.43-2.76-7.03-1.58-1.95,.66-4.04,1.5-6.01,2.34-1.46-4.75-2.96-8.7-2.96-8.7-2.19-6.47-10.52-4.33-9.32,1.65,.84,4.15,2.29,9.93,3.29,13.29,.65,2.18,2.94,3.59,6.05,3.04,2.26-.4,9.86-1.95,9.86-1.95,0,0,2.22,7.42,3.52,11.45,1.29,4.03,4.56,3.64,5.46,3.45l-3.69-18.65c.05-.06,.27-.09,.4,.19,.77,1.74,3.47,7.4,3.47,7.4,0,0,1.86,4.8,6.69,1.58-.6-.95-4.45-7.39-9.73-13.52"/><path d="M35.04,43.12c-.88,.36-1.31,.77-6.63,1.74-4.5,.83-8.52-1.56-9.54-5.66l-3.65-14.78c-.23-.95-1.25-1.52-2.2-1.29-.95,.24-1.58,1.32-1.35,2.27l3.41,14.63c.68,2.74,3.14,7.92,7.91,8.55v5.42h-1c-.93,0-2,1.07-2,2,0,.93,1.07,2,2,2h8c.93,0,2-1.07,2-2,0-.93-1.07-2-2-2h-3v-5c2.83-.47,8.74-2.35,8.74-2.35,.93-.26,1.61-1.14,1.41-2.11-.19-.97-1.23-1.78-2.11-1.42"/><path d="M13,22c.98,0,2-1.02,2-2V12c0-.98-1.02-2-2-2-.98,0-2,1.02-2,2v8c0,.98,1.02,2,2,2"/><path d="M41.05,7c1.07,0,1.95,.88,1.95,1.95v12.1c0,1.08-.88,1.95-1.95,1.95h-8.1c-1.07,0-1.95-.88-1.95-1.95V8.95c0-1.08,.88-1.95,1.95-1.95h8.1Zm0-2h-8.1c-2.18,0-3.95,1.77-3.95,3.95v12.1c0,2.18,1.77,3.95,3.95,3.95h8.1c2.18,0,3.95-1.77,3.95-3.95V8.95c0-2.18-1.77-3.95-3.95-3.95"/></g></g></svg>