<?xml version="1.0" encoding="UTF-8"?><svg id="Laag_1" xmlns="http://www.w3.org/2000/svg" xmlns:xlink="http://www.w3.org/1999/xlink" viewBox="0 0 64 64"><defs><style>.cls-1{fill:none;}.cls-2{clip-path:url(#clippath);}.cls-3{clip-path:url(#clippath-1);}</style><clipPath id="clippath"><rect class="cls-1" width="64" height="64"/></clipPath><clipPath id="clippath-1"><rect class="cls-1" width="64" height="64"/></clipPath></defs><g class="cls-2"><g class="cls-3"><path d="M31.01,56h-.01v6c0,.55,.44,.99,.99,.99h.02c.55,0,.99-.44,.99-.99v-6h-.01c-.63,.3-1.35,.3-1.98,0"/><path d="M27,54.01v6c0,.55,.44,.99,.99,.99h.02c.55,0,.99-.44,.99-.99v-5.03l-1.96-.98h-.04Z"/><path d="M23,52.01v6c0,.55,.44,.99,.99,.99h.02c.55,0,.99-.44,.99-.99v-5.02l-1.98-.99h-.02Z"/><path d="M19,50.01v6c0,.55,.44,.99,.99,.99h.02c.55,0,.99-.44,.99-.99v-5.01l-2-.99h0Z"/><path d="M15,54.01c0,.55,.44,.99,.99,.99h.02c.55,0,.99-.44,.99-.99v-5l-2-1v6Z"/><path d="M35,54.98v5.03c0,.55,.44,.99,.99,.99h.02c.55,0,.99-.44,.99-.99v-6h-.04l-1.96,.98Z"/><path d="M39,52.99v5.02c0,.55,.44,.99,.99,.99h.02c.55,0,.99-.44,.99-.99v-6h-.02l-1.98,.99Z"/><path d="M43,51v5.01c0,.55,.44,.99,.99,.99h.02c.55,0,.99-.44,.99-.99v-6h0l-1.99,.99Z"/><path d="M47,54.01c0,.55,.44,.99,.99,.99h.02c.55,0,.99-.44,.99-.99v-6l-2,1v5Z"/><path d="M59,11h-3v2h-5L33.67,1.51c-1.01-.68-2.32-.68-3.33,0L13,13h-3.81l-.74,3.67c-.13,.4-.39,.34-.46,.31v-5.99h-3c-2,0-2,2.02-2,4.5s0,4.5,2,4.5h3v-2h3V52.01c0,.55,.44,.99,.99,.99h.02c.55,0,.99-.44,.99-.99V15h3v27.76c0,.76,.43,1.45,1.1,1.79l14,7c.56,.28,1.23,.28,1.79,0l14-7c.68-.34,1.11-1.03,1.11-1.79V15h3V52.01c0,.55,.44,.99,.99,.99h.02c.55,0,.99-.44,.99-.99V18h3v2h3c2,0,2-2.01,2-4.5s0-4.5-2-4.5m-13,15l-28,16.25v-10l28-16.25v10ZM16.74,13L31.44,3.17c.34-.23,.77-.22,1.11,0l14.7,9.83H16.74Z"/></g></g></svg>