<?xml version="1.0" encoding="UTF-8"?><svg id="Laag_1" xmlns="http://www.w3.org/2000/svg" xmlns:xlink="http://www.w3.org/1999/xlink" viewBox="0 0 64 64"><defs><style>.cls-1{fill:none;}.cls-2{clip-path:url(#clippath);}.cls-3{clip-path:url(#clippath-1);}</style><clipPath id="clippath"><rect class="cls-1" width="64" height="64"/></clipPath><clipPath id="clippath-1"><rect class="cls-1" width="64" height="64"/></clipPath></defs><g class="cls-2"><g class="cls-3"><path d="M51.09,11H16.58s.06-.35,.46-.45c11.23-2.76,32.96-2.55,32.96-2.55v-2.32c0-1.06-1.07-1.79-2-1.68,0,0-36-.02-36,7,0,49.87,.08,37.88,.09,46,0,1.66,1.34,3,3,3H51.09c1.66,0,2.91-1.34,2.91-3V14c0-1.66-1.26-3-2.91-3m-18.09,39.1c-8.34,0-15.1-6.76-15.1-15.1s6.76-15.1,15.1-15.1,15.1,6.76,15.1,15.1-6.76,15.1-15.1,15.1"/><path d="M27.8,23.92c-3.88,1.82-6.64,5.61-7,10.08h4.23c.15-4.08,1.19-7.64,2.78-10.08"/><path d="M34.25,22.81c-.08,0-.17,0-.26-.01v11.2h4.97c-.22-5.45-2.2-10.01-4.72-11.19"/><path d="M38.2,23.92c1.59,2.44,2.63,6,2.78,10.08h4.23c-.36-4.47-3.13-8.26-7-10.08"/><path d="M27.03,34h4.97v-11.2c-.08,0-.17,0-.25,.01-2.52,1.17-4.5,5.74-4.72,11.19"/><path d="M20.8,36c.36,4.47,3.13,8.26,7,10.08-1.59-2.44-2.63-6-2.78-10.08h-4.23Z"/><path d="M34,36v11.2c.08,0,.17,0,.25-.01,2.52-1.17,4.5-5.74,4.72-11.19h-4.97Z"/><path d="M38.2,46.08c3.88-1.82,6.64-5.61,7-10.08h-4.23c-.15,4.08-1.19,7.64-2.78,10.08"/><path d="M31.75,47.19c.08,0,.17,0,.25,.01v-11.2h-4.97c.22,5.45,2.2,10.01,4.72,11.19"/></g></g></svg>