<?xml version="1.0" encoding="UTF-8"?><svg id="Laag_1" xmlns="http://www.w3.org/2000/svg" xmlns:xlink="http://www.w3.org/1999/xlink" viewBox="0 0 64 64"><defs><style>.cls-1{fill:none;}.cls-2{clip-path:url(#clippath);}.cls-3{clip-path:url(#clippath-1);}</style><clipPath id="clippath"><rect class="cls-1" width="64" height="64"/></clipPath><clipPath id="clippath-1"><rect class="cls-1" width="64" height="64"/></clipPath></defs><g class="cls-2"><g class="cls-3"><path d="M8,12H2c-.55,0-1,.45-1,1v9c0,.55,.45,1,1,1h2v31h2V23h2c.55,0,1-.45,1-1V13c0-.55-.45-1-1-1"/><path d="M50.5,42h-12c-.83,0-1.5,.67-1.5,1.5s.67,1.5,1.5,1.5h12c.83,0,1.5-.67,1.5-1.5s-.67-1.5-1.5-1.5"/><path d="M32.89,28.67c-1.75-.42-4.08-.42-5.78,0-3.33,.82-3.11,6.09-3.11,10.65,.11,1.6,1.28,2.05,1.99,2.05v-4.8c0-1.8,.17-3.21,.39-3.91,.07-.21,.22-.17,.22-.17v21.44s2.54,.02,2.74-2.64c0,0,.38-10.06,.39-10.18,0-.11,.09-.26,.27-.26s.27,.15,.27,.26c0,.11,.38,10.1,.38,10.1,.15,2.74,2.75,2.71,2.75,2.71v-21.44s.16-.06,.24,.17c.21,.63,.37,2.11,.37,3.89v4.82c.7,0,1.86-.44,1.99-2.05,0-4.55,.22-9.85-3.11-10.65"/><path d="M32.59,24.43c0-1.89-.99-2.91-2.59-2.91-1.68,0-2.59,1.2-2.59,2.91,0,1.8,.95,2.82,2.59,2.82s2.59-1.16,2.59-2.82m-4.31,.72l1.13-.43c.38-.14,.79-.14,1.17,0l1.12,.43c-.15,.62-.58,1.3-1.7,1.3-.97,0-1.53-.43-1.72-1.3"/><path d="M62,14H14c-.55,0-1,.45-1,1v2c0,.55,.45,1,1,1h6.98c.05,.12,.03,.31-.29,.37-.34,.07-.99,.2-1.69,.35V54h3V18H54V54h3V18h5c.55,0,1-.45,1-1v-2c0-.55-.45-1-1-1"/></g></g></svg>