<?xml version="1.0" encoding="UTF-8"?><svg id="Laag_1" xmlns="http://www.w3.org/2000/svg" xmlns:xlink="http://www.w3.org/1999/xlink" viewBox="0 0 64 64"><defs><style>.cls-1{fill:none;}.cls-2{clip-path:url(#clippath);}.cls-3{clip-path:url(#clippath-1);}</style><clipPath id="clippath"><rect class="cls-1" width="64" height="64"/></clipPath><clipPath id="clippath-1"><rect class="cls-1" width="64" height="64"/></clipPath></defs><g class="cls-2"><g class="cls-3"><path d="M47.52,46.93L19.05,15.81c3.67-3.07,8.39-4.93,13.54-4.93,11.65,0,21.12,9.47,21.12,21.12,0,5.82-2.37,11.1-6.19,14.93M11.48,32c0-4.52,1.43-8.72,3.86-12.16l27.84,30.43c-3.11,1.81-6.73,2.85-10.58,2.85-11.64,0-21.12-9.48-21.12-21.12M51.51,13.09c-5.05-5.05-11.77-7.83-18.91-7.83s-13.86,2.78-18.91,7.83c-5.05,5.05-7.83,11.77-7.83,18.91s2.78,13.86,7.83,18.91c5.05,5.05,11.76,7.83,18.91,7.83s13.86-2.78,18.91-7.83,7.83-11.76,7.83-18.91-2.78-13.86-7.83-18.91"/><path d="M22.2,30.14H13.34s-.19,1.31-.1,2.81c.2,3.39,1.1,4.47,1.1,4.47h14.35l-6.49-7.27Z"/><path d="M44.66,20.84c-.68-1.04-2.23-1-2.15-.75,3.2,2.09-1.23,4.65,.82,6.24,.1,.08,.17,.03,.17,.03-.21-1.4,.53-2.06,1.07-3.16,.33-.67,.67-1.49,.1-2.36"/><path d="M47.71,19.76c-1.1-1.69-3.51-1.68-3.37-1.26,5.06,3.44-1.78,7.44,1.46,10.06,.16,.13,.26,.06,.26,.06-.36-2.25,.76-3.31,1.56-5.06,.49-1.07,1-2.38,.08-3.79"/><path d="M48.18,33.68c0-2.13-.7-3.85-1.57-3.85s-1.61,1.94-1.61,4.05c0,.31,.02,.6,.05,.89-.01,.02-.04,.08-.19-.07-.38-.4-.66-1.48-.72-2.55,.04-1.45,.23-1.99,.23-1.99h-9.48l7.19,7.36h2.68c.18,.03,1.73,0,1.86,0h0c.86,0,1.56-1.73,1.56-3.85"/></g></g></svg>