<?xml version="1.0" encoding="UTF-8"?><svg id="Laag_1" xmlns="http://www.w3.org/2000/svg" xmlns:xlink="http://www.w3.org/1999/xlink" viewBox="0 0 64 64"><defs><style>.cls-1{fill:none;}.cls-2{clip-path:url(#clippath);}.cls-3{clip-path:url(#clippath-1);}</style><clipPath id="clippath"><rect class="cls-1" width="64" height="64"/></clipPath><clipPath id="clippath-1"><rect class="cls-1" width="64" height="64"/></clipPath></defs><g class="cls-2"><g class="cls-3"><path d="M21.57,49.04l1.97-1.04,1.98,1.04c.93,.49,3.89,1.75,6.43,1.75s5.51-1.27,6.44-1.76l1.97-1.04,1.98,1.04c.78,.41,3.03,1.38,5.25,1.67l.79-3.73c.53-2.52-.94-4.97-3.32-5.76l-3.17-20.15,.72,.15c.54,.11,1.07-.23,1.19-.77l1.66-7.83c.11-.54-.23-1.07-.77-1.19l-.98-.21c.46-2.16-.92-4.28-3.08-4.74-2.16-.46-4.28,.92-4.74,3.08l-.98-.21c-.54-.12-1.07,.23-1.19,.77l-1.66,7.83c-.11,.54,.23,1.07,.77,1.19l6.28,1.34c0,.23-.23,.49-.56,.53h-6.1l-9.99,15.42c-2.5-.25-4.85,1.39-5.38,3.91l-2.22,10.46c.09,0,.18,.02,.27,.02,2.54,0,5.51-1.27,6.44-1.76m15.56-26.06l1.02,6.49-4.6-.98,3.58-5.52Zm-6.49,10.01l8.34,1.77,.83,5.29-12.08-2.57,2.91-4.49Z"/><path d="M48.77,53.05c-3.63,0-7.43-1.99-7.47-2.01l-.94-.5-.94,.5s-3.84,2.01-7.47,2.01-7.43-1.99-7.47-2.01l-.94-.5-.94,.5s-3.84,2.01-7.47,2.01c-3.01,0-6.13-1.37-7.13-1.85v4.3c1.79,.69,4.43,1.5,7.13,1.5,3.45,0,6.82-1.31,8.41-2.03,1.59,.72,4.96,2.03,8.41,2.03s6.82-1.31,8.41-2.03c1.59,.72,4.96,2.03,8.41,2.03,1.86,0,3.68-.38,5.23-.85v-4.16c-1.43,.52-3.35,1.05-5.23,1.05"/></g></g></svg>