<?xml version="1.0" encoding="UTF-8"?><svg id="Laag_1" xmlns="http://www.w3.org/2000/svg" xmlns:xlink="http://www.w3.org/1999/xlink" viewBox="0 0 64 64"><defs><style>.cls-1{fill:none;}.cls-2{clip-path:url(#clippath);}.cls-3{clip-path:url(#clippath-1);}</style><clipPath id="clippath"><rect class="cls-1" width="64" height="64"/></clipPath><clipPath id="clippath-1"><rect class="cls-1" width="64" height="64"/></clipPath></defs><g class="cls-2"><g class="cls-3"><path d="M37,46.64v5.36h4.39l.63-2.4-1.1-3.6c-1.44,.28-2.61,.49-3.91,.64"/><path d="M20.83,52h4.17v-5.79c-2.05-.41-3.84-1-5.91-1.7l1.75,7.49Z"/><path d="M61,33.92s-5.74-3.45-8.84-9.01l3.7-5.26s-6.07-2.05-9.59,1.8l-5.89-2.1c-9.94-3.58-25.17-2.11-29.43,4.64-.12-.02-.31-.1-.32-.43-.03-.83,.68-2.42,1.5-3.71-1-1.59-4.4-1.81-5.66,.06-.89,1.33-.81,3.16,0,4.78-1.4,.75-3.03,.67-3.96,.53-.36-.06-.66,.3-.51,.64,.39,.9,1.32,2.3,3.47,2.67,1.69,.28,3.1-.22,4.01-.71-.22,.98-.35,2.03-.38,3.11-.05,2.02,.27,3.28,.77,5.4l3.69,15.67h4.39v-10c7.29,2.67,13.53,4.09,24.32,1.66l2.53,8.34h4.2v-10.13c5.88-1.74,11.43-3.72,11.43-3.72l.57-4.23Zm-11-2.41c-.83,0-1.5-.67-1.5-1.5s.67-1.5,1.5-1.5,1.5,.67,1.5,1.5-.67,1.5-1.5,1.5"/></g></g></svg>