<?xml version="1.0" encoding="UTF-8"?><svg id="Laag_1" xmlns="http://www.w3.org/2000/svg" xmlns:xlink="http://www.w3.org/1999/xlink" viewBox="0 0 64 64"><defs><style>.cls-1{fill:none;}.cls-2{clip-path:url(#clippath);}.cls-3{clip-path:url(#clippath-1);}</style><clipPath id="clippath"><rect class="cls-1" width="64" height="64"/></clipPath><clipPath id="clippath-1"><rect class="cls-1" width="64" height="64"/></clipPath></defs><g class="cls-2"><g class="cls-3"><path d="M14,25.96h2c.02-2.18,1.81-3.96,4-3.96h6c2.19,0,3.97,1.77,4,3.96h2c.07,0,.13,.01,.19,.02,.99-7.97,2.81-20.98,2.81-20.98H9.44c.27,7.75,2.81,14.65,4.13,21,.14-.02,.28-.04,.43-.04m11.56-6.23c-.75-.45-1.62-.73-2.56-.73s-1.81,.28-2.56,.73l-1.45-1.45c1.14-.8,2.52-1.27,4.01-1.27s2.87,.47,4.01,1.27l-1.45,1.45Zm-2.56-6.73c2.6,0,4.98,.91,6.86,2.42l-1.43,1.43c-1.51-1.15-3.39-1.85-5.44-1.85s-3.93,.69-5.44,1.85l-1.43-1.43c1.88-1.51,4.27-2.42,6.86-2.42"/><path d="M56.1,50.81c-2.81-.35-4.42-.42-6.94-.84-2.53-.42-11.15-6.45-13.33-7.72-1.42-.83-2.96-3.31-3.75-6.26-.03,0-.06,0-.09,0h-2c0,2.2-1.8,4-4,4h-6c-2.21,0-4-1.8-4-4h-1.74c-.29,4.91-1.23,9.48-2.84,14.17-1.96,5.75,1.89,9.02,5.33,9.65,3.44,.63,12.42-1.85,16.07-1.92,3.65-.07,7.08,1.82,11.01,2.03,3.93,.21,8.04-2.4,8.04-2.4,1.31,1.19,5.94,2.59,7.32-.28,1.69-3.51-.28-6.1-3.09-6.45"/><path d="M20,38h6c1.1,0,2-.9,2-2v-2h4c.55,0,1-.45,1-1v-4c0-.55-.45-1-1-1h-2.88c-.32,1.64-.7,4.17-.76,4.35-.1,.32-.31,.27-.36,.25v-6.6c0-1.1-.9-2-2-2h-6c-1.11,0-2,.9-2,2v2h-4c-.55,0-1,.45-1,1v4c0,.55,.45,1,1,1h4v2c0,1.1,.89,2,2,2m1.5-12c.83,0,1.5,.67,1.5,1.5s-.67,1.5-1.5,1.5-1.5-.67-1.5-1.5,.67-1.5,1.5-1.5"/></g></g></svg>