<?xml version="1.0" encoding="UTF-8"?><svg id="Laag_1" xmlns="http://www.w3.org/2000/svg" xmlns:xlink="http://www.w3.org/1999/xlink" viewBox="0 0 64 64"><defs><style>.cls-1{fill:none;}.cls-2{clip-path:url(#clippath);}.cls-3{clip-path:url(#clippath-1);}</style><clipPath id="clippath"><rect class="cls-1" width="64" height="64"/></clipPath><clipPath id="clippath-1"><rect class="cls-1" width="64" height="64"/></clipPath></defs><g class="cls-2"><g class="cls-3"><path d="M38,19.02v6.35c0,.91,.73,1.64,1.64,1.64h12.73c.9,0,1.64-.73,1.64-1.64v-5.72c0-.9-.73-1.64-1.64-1.64h-6.81C40.39,12.61,30.08,1.83,29.65,1.43c-.56-.54-1.43-.58-2.05-.1-.66,.51-.8,1.44-.33,2.12l10.73,15.56Z"/><path d="M3.01,43.8c0,3.37,.59,9.39,1.13,12.93,1.9-.05,4.19-1.99,5.93-3.29,1.86,1.4,4.13,3.3,6,3.3s4.24-1.98,6-3.3c1.86,1.4,4.13,3.3,6,3.3,.26,0,.54-.05,.82-.12,.54-3.55,1.12-9.47,1.12-12.82,0,0-2-.85-4-1.75v-6.56c0-.28-.23-.49-.5-.49h-2.5v-3.51c0-.28-.23-.49-.5-.49H10.5c-.28,0-.5,.21-.5,.49v3.51h-2.5c-.28,0-.5,.21-.5,.49v3.89c2-.47,3.76-.89,6.16-1.06,4.16-.3,7.09,.91,8.97,2.06,.24,.15,.31,.33,.3,.5-1.9-.52-3.96-.88-5.93-.88-6.26,0-13.49,3.8-13.49,3.8m10.99,6.2H7v-3.01c0-.55,.45-1,1-1s1,.45,1,1v1.01h3v-1.01c0-.55,.45-1,1-1s1,.45,1,1v3.01Zm5-3.01c0-.55,.45-1,1-1s1,.45,1,1v1.01h3v-1.01c0-.55,.45-1,1-1s1,.45,1,1v3.01h-7v-3.01Z"/><path d="M52,43v-8l-5-6h-6l-5,6v8h-4v11.98c.33-.24,1.7-1.27,2.06-1.54,1.86,1.4,4.13,3.3,6,3.3s4.24-1.98,6-3.3c1.86,1.4,4.13,3.3,6,3.3s4.24-1.98,6-3.3c1.87,1.4,3.36,2.62,4.94,3.11v-13.55h-11Zm-11.4,0l1.4-7h4l1.4,7h-6.8Z"/><path d="M52.06,58.94c-2.46,0-4.92-1.94-6-2.75-1,.75-3.49,2.75-6,2.75s-4.92-1.94-6-2.75c-1,.75-3.49,2.75-6,2.75s-4.92-1.94-6-2.75c-1,.75-3.49,2.75-6,2.75s-4.92-1.94-6-2.75c-1,.75-3.49,2.75-6,2.75-1.02,0-2.12-.39-3.04-.83v4.22c.94,.31,1.98,.52,3.04,.52,2.4,0,4.66-1.08,6-1.86,1.34,.79,3.6,1.86,6,1.86s4.66-1.08,6-1.86c1.34,.79,3.6,1.86,6,1.86s4.66-1.08,6-1.86c1.34,.79,3.6,1.86,6,1.86s4.66-1.08,6-1.86c1.34,.79,3.6,1.86,6,1.86s4.66-1.08,6-1.86c1.14,.67,2.95,1.54,4.94,1.79v-3.96c-2.08-.43-4.01-1.93-4.94-2.63-1,.75-3.49,2.75-6,2.75"/></g></g></svg>