<?xml version="1.0" encoding="UTF-8"?><svg id="Laag_1" xmlns="http://www.w3.org/2000/svg" xmlns:xlink="http://www.w3.org/1999/xlink" viewBox="0 0 64 64"><defs><style>.cls-1{fill:none;}.cls-2{clip-path:url(#clippath);}.cls-3{clip-path:url(#clippath-1);}</style><clipPath id="clippath"><rect class="cls-1" width="64" height="64"/></clipPath><clipPath id="clippath-1"><rect class="cls-1" width="64" height="64"/></clipPath></defs><g class="cls-2"><g class="cls-3"><path d="M2,42c-.55,0-1,.45-1,1v12c0,.55,.45,1,1,1H35.1c-.08-1.76-.1-3.51-.1-5,0-2.66,.08-6.16,.39-9H2Zm29,7.78v2.22h-2v-2.22c-.62-.35-1.05-1.01-1.05-1.78,0-1.13,.92-2.05,2.05-2.05s2.05,.92,2.05,2.05c0,.77-.43,1.43-1.05,1.78"/><path d="M51,35c1.2,0,2.59,.02,4,.06v-1.73c0-.86-.28-1.71-.8-2.4l-5.2-6.93-1.52-7.59c-.28-1.4-1.51-2.41-2.94-2.41h-13.98c.86-1.94,1.53-4.27,1.05-7.31l-.27-1.69h-13.37l.36,2.31c.44,2.79-.47,4.62-1.56,6.69h-1.32c-1.43,0-2.66,1.01-2.94,2.41l-1.52,7.59-5.2,6.93c-.52,.69-.8,1.53-.8,2.4v6.67h30.69c.52-2.26,2.33-4.01,4.64-4.39,3.01-.5,7.46-.61,10.67-.61m-23.58-10h-9.32c-4.5-8,3.48-10,2.21-18h9.32c1.26,8-6.71,10-2.21,18m5.58-3v-5h11.54l1,5h-12.54Z"/><path d="M55.79,51.93c-.85,0-1.02,.98-1.02,1.8,0,1.63,.51,1.85,1,1.85,.71,0,1.06-.55,1.06-1.64,0-1.8-.6-2.01-1.04-2.01"/><path d="M46.22,46.31c-.86,0-1.04,.98-1.04,1.8,0,1.63,.52,1.85,1.02,1.85,.86,0,1.04-.89,1.04-1.64,0-1.8-.58-2.01-1.02-2.01"/><path d="M63.44,40.83c-.19-1.17-1.09-2.07-2.26-2.26-3.39-.57-9.04-.57-10.17-.57s-6.78,0-10.17,.57c-1.17,.19-2.06,1.09-2.26,2.26-.57,3.39-.57,9.04-.57,10.17s0,6.78,.57,10.17c.2,1.17,1.09,2.07,2.26,2.26,3.39,.57,9.04,.57,10.17,.57s6.78,0,10.17-.57c1.17-.2,2.07-1.09,2.26-2.26,.56-3.39,.56-9.04,.56-10.17,0-3.39,0-6.78-.56-10.17m-20.58,7.45c0-2.9,1.84-3.92,3.42-3.92,2.09,0,3.29,1.37,3.29,3.77,0,2.62-1.78,3.81-3.44,3.81-1.49,0-3.27-.63-3.27-3.65m6.43,9.73l-1.84-.73,5.23-13.28,1.84,.73-5.23,13.28Zm6.4-.45c-1.49,0-3.27-.63-3.27-3.65s1.84-3.92,3.42-3.92c2.09,0,3.29,1.37,3.29,3.77,0,2.63-1.73,3.81-3.44,3.81"/></g></g></svg>