<?xml version="1.0" encoding="UTF-8"?><svg id="Laag_1" xmlns="http://www.w3.org/2000/svg" xmlns:xlink="http://www.w3.org/1999/xlink" viewBox="0 0 64 64"><defs><style>.cls-1{fill:none;}.cls-2{clip-path:url(#clippath);}.cls-3{clip-path:url(#clippath-1);}</style><clipPath id="clippath"><rect class="cls-1" width="64" height="64"/></clipPath><clipPath id="clippath-1"><rect class="cls-1" width="64" height="64"/></clipPath></defs><g class="cls-2"><g class="cls-3"><path d="M8.5,12.24c1.77,0,3.21-1.44,3.21-3.21s-1.44-3.21-3.21-3.21-3.21,1.44-3.21,3.21,1.44,3.21,3.21,3.21"/><path d="M25.5,12.24c1.77,0,3.21-1.44,3.21-3.21s-1.44-3.21-3.21-3.21-3.21,1.44-3.21,3.21,1.44,3.21,3.21,3.21"/><path d="M38.5,12.24c1.77,0,3.21-1.44,3.21-3.21s-1.44-3.21-3.21-3.21-3.21,1.44-3.21,3.21,1.44,3.21,3.21,3.21"/><path d="M55.5,12.24c1.77,0,3.21-1.44,3.21-3.21s-1.44-3.21-3.21-3.21-3.21,1.44-3.21,3.21,1.44,3.21,3.21,3.21"/><path d="M48.76,35.37c.66-.1,1.44-.42,1.8-1.38,.69-1.81,.45-7.91,.06-10-.32-1.75-.49-2.99-5.62-2.99-3.96,0-4.96,.74-5.36,1.88,.05,.21,.1,.42,.14,.65v.06c.33,1.74,.78,8.16-.07,10.9,.41,.58,1.01,.81,1.53,.88l.76,10.63h-7l.76-10.63c.66-.1,1.44-.42,1.8-1.38,.69-1.81,.45-7.91,.06-10-.32-1.75-.49-2.99-5.62-2.99s-5.3,1.24-5.62,2.99c-.39,2.09-.63,8.19,.06,10,.37,.96,1.15,1.28,1.8,1.38l.76,10.63h-7l.76-10.63c.52-.08,1.12-.3,1.53-.88-.85-2.74-.4-9.16-.08-10.9,.05-.24,.1-.47,.15-.7-.4-1.15-1.4-1.89-5.37-1.89-5.13,0-5.3,1.24-5.62,2.99-.39,2.09-.63,8.19,.06,10,.37,.96,1.15,1.28,1.8,1.38l.76,10.63H6v4H58v-4h-10l.76-10.63Z"/><path d="M19,18.9c1.9,0,3.45-1.54,3.45-3.45s-1.55-3.45-3.45-3.45-3.45,1.54-3.45,3.45,1.55,3.45,3.45,3.45"/><path d="M45,18.9c1.9,0,3.45-1.54,3.45-3.45s-1.54-3.45-3.45-3.45-3.45,1.54-3.45,3.45,1.54,3.45,3.45,3.45"/><path d="M32,18.9c1.9,0,3.45-1.54,3.45-3.45s-1.54-3.45-3.45-3.45-3.45,1.54-3.45,3.45,1.55,3.45,3.45,3.45"/><rect x="11" y="55" width="42" height="4"/><path d="M13,37h-1.75l.15-2.18s-.02-.03-.02-.05c-.97-2.55-.5-9.38-.17-11.18,.38-2.03,1.17-3.3,2.72-4.02-.06-1.13-.16-2.13-.28-2.75-.3-1.6-.45-2.75-5.16-2.75s-4.86,1.15-5.16,2.75c-.35,1.92-.57,7.51,.06,9.17,.34,.88,1.05,1.18,1.65,1.27l.7,9.74H1v4H13v-4Z"/><path d="M58.25,37l.69-9.74c.6-.09,1.32-.38,1.65-1.27,.63-1.66,.41-7.25,.06-9.17-.3-1.6-.45-2.75-5.16-2.75s-4.86,1.15-5.16,2.75c-.11,.62-.21,1.62-.28,2.75,1.55,.71,2.34,1.96,2.71,3.96v.06c.34,1.8,.81,8.63-.16,11.18,0,.02-.02,.03-.02,.05l.16,2.18h-1.75v4h12v-4h-4.75Z"/></g></g></svg>