<?xml version="1.0" encoding="UTF-8"?><svg id="Laag_1" xmlns="http://www.w3.org/2000/svg" xmlns:xlink="http://www.w3.org/1999/xlink" viewBox="0 0 64 64"><defs><style>.cls-1{fill:none;}.cls-2{clip-path:url(#clippath);}.cls-3{clip-path:url(#clippath-1);}</style><clipPath id="clippath"><rect class="cls-1" width="64" height="64"/></clipPath><clipPath id="clippath-1"><rect class="cls-1" width="64" height="64"/></clipPath></defs><g class="cls-2"><polygon points=".49 19.01 8.05 26.84 10.13 24.96 2.19 16.51 .49 19.01"/><polygon points="46.86 26.84 54.42 19.01 52.72 16.51 44.78 24.97 46.86 26.84"/><g class="cls-3"><path d="M30.85,50l.42-2.2c.24-1.19,.81-2.25,1.65-3.1l9.08-9.08v-13.16l1.29,1.16,8.28-8.81-6.2-9.13c-.58-.88-1.44-1.53-2.44-1.86l-6.97-2.32c-2,3.36-5.59,6.99-9.88,6.31-.32-.05-.37-.26-.28-.36,2.16-.44,4.62-2.11,6.45-4.28-1.37,.45-3.03,.81-4.8,.81-4.62,0-8.51-2.48-8.51-2.48l-6.97,2.32c-1,.33-1.86,.99-2.44,1.86L3.34,14.82l8.28,8.81,1.38-1.24v27.61H30.85Zm-6.85-29.07v-2.84c1.64-.48,3.3-.85,4.83-.85h1.17v13.76h-3v-10.37c-1.26,0-1.76,.08-3,.29"/><path d="M63.22,32.8l-6.43-6.43c-1.05-1.05-2.59,.33-1.91,1.56,.79,1.43,1.22,2.09,1.22,2.09l-3.62,3.62s.59,1.13,1.7,3.27c.15,.29-.04,.4-.08,.41,0,0-5.7-5.7-6.91-6.91-.81-.81-2.45,.44-1.73,1.71,.7,1.24,1.69,2.88,1.69,2.88l-11.97,11.97c-.39,.39-.66,.89-.77,1.43l-1.26,6.57-7.16,7.41h2.41l6.2-5.95,6.59-1.24c.55-.11,1.05-.38,1.44-.77l11.97-11.96s1.64,.99,2.88,1.69c1.27,.72,2.52-.92,1.71-1.73l-4.27-4.27,4.65-4.65s.66,.43,2.09,1.22c1.23,.68,2.61-.86,1.56-1.91m-13.26,10.3l-1.98-1.98-.99,1.98,1.49,1.49-1.49,1.49-1.98-1.98-.99,1.98,1.49,1.49-1.49,1.49-1.98-1.98-.99,1.98,1.49,1.49-1.49,1.49-3.47-3.47,11.41-11.41,3.47,3.47-2.48,2.48Z"/></g></g></svg>