<?xml version="1.0" encoding="UTF-8"?><svg id="Laag_1" xmlns="http://www.w3.org/2000/svg" xmlns:xlink="http://www.w3.org/1999/xlink" viewBox="0 0 64 64"><defs><style>.cls-1{fill:none;}.cls-2{clip-path:url(#clippath);}.cls-3{clip-path:url(#clippath-1);}</style><clipPath id="clippath"><rect class="cls-1" width="64" height="64"/></clipPath><clipPath id="clippath-1"><rect class="cls-1" width="64" height="64"/></clipPath></defs><g class="cls-2"><g class="cls-3"><path d="M8.36,33.85c-.91,.71-1.24,1.94-.83,3.01l2.22,5.78s0-.01,.01-.02c1.49-1.62,4.39-3.04,6.56-3.95l.88-.37-5.44-14.14,2.23-4.05c.57-1.03-.25-2.28-1.43-2.17l-3.08,.3-.69-1.8c-.36-.93-1.23-.93-2.16-.57-.93,.36-1.58,.94-1.22,1.87l5.44,14.15-2.49,1.96Z"/><path d="M52.61,44.11c-1.57-1.7-5.25-3.27-8.28-4.35,0,0-.16-.76-.64-1.28-1.1-1.17-3.03-1.09-3.32-3.24v-.03c-.09-.64,.1-1.28,.5-1.8,3.25-4.26,4.38-6.95,5.12-11.15,.89-5.03-.08-11.08-2.44-14-2.53-3.12-6.56-4.27-11.56-4.27s-9.03,1.15-11.56,4.27c-2.36,2.92-3.33,8.97-2.44,14,.75,4.21,1.87,6.89,5.12,11.15,.4,.52,.59,1.15,.51,1.8v.03c-.29,2.14-2.23,2.07-3.33,3.24-.48,.51-.64,1.28-.64,1.28-.19,.07,3.85,3.95,12.27,4.45,.06,.16-.07,.31-.33,.38-4.66,1.21-9.83-.53-14.43-3.9-2.26,.95-4.67,2.2-5.79,3.41-2.87,3.12-4.39,14.89-4.39,14.89H28.75l1.81-1.58s.55,.63,1.37,1.58h3.27c-1.82-1.89-3.06-3.18-3.06-3.18l2.16-2.08s1.59,1.65,3.47,3.6c.57,.59,.94,1.15,1.2,1.66h18.03s-1.51-11.77-4.39-14.89M32,27c-5.76,0-8.96-3.17-10.28-4.91-.41-.55-.17-1.33,.48-1.55,1.74-.59,5.25-1.54,9.8-1.54s8.06,.95,9.8,1.54c.65,.22,.9,1,.48,1.55-1.32,1.73-4.52,4.91-10.28,4.91m11.06,30.25c-.64,0-2-.19-3.56-1.64-2.16-2.01-3.67-3.4-3.67-3.4l2.04-2.2s1.68,1.56,3.67,3.4c1.56,1.45,1.86,2.79,1.9,3.43,.02,.22-.16,.42-.39,.42m3.81-4.34c-.63,.05-2.01-.03-3.68-1.36-2.32-1.83-3.92-3.1-3.92-3.1l1.86-2.35s1.79,1.42,3.92,3.1c1.67,1.32,2.08,2.63,2.17,3.26,.03,.22-.13,.43-.35,.45m3.42-4.51c-.63,.1-2,.09-3.75-1.1-2.43-1.67-4.12-2.83-4.12-2.83l1.69-2.48s1.89,1.29,4.13,2.83c1.75,1.2,2.25,2.48,2.39,3.11,.05,.22-.1,.44-.33,.47"/></g></g></svg>