<?xml version="1.0" encoding="UTF-8"?><svg id="Laag_1" xmlns="http://www.w3.org/2000/svg" viewBox="0 0 64 64"><defs><style>.cls-1{fill:none;}</style></defs><rect class="cls-1" width="64" height="64"/><rect class="cls-1" width="64" height="64"/><path d="m59.95,21.37c-7.78-.81-19.49.77-24.12,1.48-.06-.27-.13-.54-.21-.79.86-.55,7.85-5.02,7.85-5.02.42-.27.7-.75.69-1.28-.03-2.3-.17-4.74.35-6.99,1.24-2.22,4.08-3.8,6.19-5.32.33-.21.46-.64.28-1-.19-.38-.65-.54-1.04-.35-2.64,1.4-5.04,2.56-7.17,4.87-.28.34-.55.82-.68,1.26-.66,2.2-.82,4.44-.91,6.7l-6.96,4.45c.32-.48.51-1,.51-1.43,0-.35-.13-.67-.35-.95.37-.42.76-.82,1.15-1.19.92-.87,1.94-1.64,3.05-2.3.17-.1.25-.32.17-.52-.09-.21-.33-.32-.54-.23-1.94.79-3.72,1.9-5.28,3.28l-.59-9.75c-.02-.26-.22-.47-.49-.49-.29-.02-.54.2-.55.49l-.57,9.5c-1.49-1.26-3.16-2.29-4.98-3.03-.46-.2-.81.5-.37.75,1.56.92,2.99,2.12,4.19,3.49-.21.28-.35.6-.35.95,0,.43.19.95.51,1.43l-6.96-4.45c-.09-2.37-.25-4.72-1.01-7-.82-1.78-2.68-2.83-4.06-3.77-1.2-.76-2.42-1.43-3.69-2.06-.35-.17-.77-.06-.99.27-.23.36-.13.84.23,1.07,2.12,1.52,4.96,3.11,6.21,5.33.52,2.25.38,4.68.35,6.99,0,.5.24.99.69,1.28l7.85,5.02c-.08.26-.15.52-.21.79-4.63-.71-16.34-2.3-24.12-1.48-1.68.18-2.1,2.46-.6,3.23,3.17,1.64,7.9,3.55,12.69,3.57,5.25.02,9.42-1.94,11.8-3.42,0,.09,0,.17,0,.26,0,2.79,1.07,5.16,2.58,6.12-.09.14-.29.15-.47.12-.07-.01-.14-.03-.19-.04-.13-.04-.25-.11-.38-.17,0,0,0,.01,0,.02-1.2-.56-2.18-2.06-2.66-3.95l-10.9,6.54c-.41.25-.7.69-.73,1.2-.3,3.21-.3,6.66-1.14,9.75-1.22,1.53-3.09,2.68-4.77,3.97-1.55,1.11-3.14,2.21-4.73,3.27-.91.62-.05,2.03.91,1.52,3.53-1.92,6.84-3.67,10.02-6.28.35-.33.71-.66.98-1.13,1.3-3.24,1.39-6.71,1.65-10.13l7.96-4.78c-1.42,1.51-2.78,3.08-4.02,4.9-.67.95-1.42,2.47-1.4,3.85-.23,3.52.41,7.15-.03,10.55-.19,1.12-.86,2.05-1.46,3.04-1.59,2.43-3.44,4.82-5.3,7.13-.72.86.53,1.98,1.31,1.2,2.95-3.15,6.5-6.37,8.12-10.51.69-3.41.24-6.82.31-10.16.02-.64.03-1.26.14-1.88.23-.53.51-1.04.82-1.55,1.23-1.99,2.99-3.79,4.67-5.52-.45,2.2-.71,4.93-.71,7.84,0,7.07,1.56,14.96,3.48,14.96s3.48-7.89,3.48-14.96c0-2.92-.27-5.65-.71-7.85,1.71,1.75,3.38,3.6,4.68,5.51.4.63.74,1.2.84,1.69.08.58.11,1.16.12,1.76.07,3.35-.38,6.75.31,10.16.4,1.37,1.24,2.52,2.03,3.62,1.87,2.5,3.93,4.72,6.09,6.88.32.32.83.35,1.19.06.39-.31.44-.88.12-1.26-1.86-2.31-3.71-4.7-5.3-7.13-.69-1.13-1.43-2.19-1.53-3.51-.33-3.56.37-7.4-.06-11.05-.19-1.12-.82-2.13-1.3-2.88-1.24-1.81-2.6-3.38-4.02-4.9l7.95,4.77c.23,3.26.41,6.47,1.42,9.63.21.63.75,1.22,1.22,1.63,3.18,2.62,6.49,4.37,10.02,6.28.98.52,1.82-.92.91-1.52-3.16-2.27-6.93-4.43-9.49-7.24-.84-3.09-.84-6.54-1.14-9.75-.03-.48-.29-.94-.73-1.2l-12.11-7.27s0,0,0,0c.06-.44.09-.9.09-1.37,0-.09,0-.17,0-.26,2.38,1.47,6.55,3.44,11.8,3.42,4.8-.02,9.52-1.94,12.69-3.57,1.5-.78,1.08-3.06-.6-3.23Z"/></svg>