<?xml version="1.0" encoding="UTF-8"?><svg id="Laag_1" xmlns="http://www.w3.org/2000/svg" xmlns:xlink="http://www.w3.org/1999/xlink" viewBox="0 0 64 64"><defs><style>.cls-1{fill:none;}.cls-2{clip-path:url(#clippath);}.cls-3{clip-path:url(#clippath-1);}</style><clipPath id="clippath"><rect class="cls-1" width="64" height="64"/></clipPath><clipPath id="clippath-1"><rect class="cls-1" width="64" height="64"/></clipPath></defs><g class="cls-2"><g class="cls-3"><path d="M14.04,39.69c1.57,1.18,4,3.25,6,3.25s4.41-2.06,6-3.25c1.57,1.18,4,3.25,6,3.25,.85,0,1.78-.38,2.69-.9l-1.85-.94,1.88-3.69c.35-.68,1.18-.95,1.86-.6s.95,1.18,.6,1.86l-.63,1.23,.71,.36c.26-.2,.51-.39,.73-.56,.68,.51,1.52,1.18,2.41,1.78l.47-.93c.35-.68,1.18-.95,1.86-.6,.68,.35,.95,1.18,.6,1.86l-.48,.93c.39,.12,.77,.21,1.14,.21,1.94,0,4.25-1.92,5.84-3.13-.59-.79-1.78-2.31-3.4-4.09l4.12-8.07c.17-.34,.04-.76-.3-.93l-3.08-1.57,2.2-4.31c.17-.34,.04-.76-.3-.93l-14.77-7.54c-.34-.17-.76-.04-.93,.3l-2.2,4.31-3.08-1.57c-.34-.17-.76-.04-.93,.3l-3.1,6.59c2.83,.05,5.22,.78,8.12,1.78,5.45,1.88,8.95,4.58,10.53,7.17,.21,.34,.18,.6,.05,.79-2.02-1.83-4.32-3.58-6.74-4.82-7.71-3.93-19.01-3.79-19.01-3.79-2.52,4.93-4.4,11.37-5.55,15.24-.38,1.27-.41,2.27-.28,3.07,1.03-.66,2.01-1.45,2.79-2.04m5.95-9.83c.35-.68,1.18-.95,1.86-.6s.95,1.18,.6,1.86l-.63,1.23,3.69,1.89,.63-1.23c.35-.68,1.18-.95,1.86-.6,.68,.35,.95,1.18,.6,1.86l-1.89,3.69-8.61-4.4,1.89-3.69Z"/><path d="M56.04,44.94c-2.46,0-4.92-1.94-6-2.75-1,.75-3.49,2.75-6,2.75s-4.92-1.94-6-2.75c-1,.75-3.49,2.75-6,2.75s-4.92-1.94-6-2.75c-1,.75-3.49,2.75-6,2.75s-4.92-1.94-6-2.75c-1,.75-3.49,2.75-6,2.75-1.02,0-2.12-.39-3.04-.83v4.22c.94,.3,1.98,.52,3.04,.52,2.4,0,4.66-1.08,6-1.86,1.34,.79,3.6,1.86,6,1.86s4.66-1.08,6-1.86c1.34,.79,3.6,1.86,6,1.86s4.66-1.08,6-1.86c1.34,.79,3.6,1.86,6,1.86s4.66-1.08,6-1.86c1.34,.79,3.6,1.86,6,1.86,1.03,0,2.04-.2,2.96-.49v-4.2c-.9,.42-1.97,.79-2.96,.79"/></g></g></svg>