<?xml version="1.0" encoding="UTF-8"?><svg id="Laag_1" xmlns="http://www.w3.org/2000/svg" xmlns:xlink="http://www.w3.org/1999/xlink" viewBox="0 0 64 64"><defs><style>.cls-1{fill:none;}.cls-2{clip-path:url(#clippath);}.cls-3{clip-path:url(#clippath-1);}</style><clipPath id="clippath"><rect class="cls-1" width="64" height="64"/></clipPath><clipPath id="clippath-1"><rect class="cls-1" width="64" height="64"/></clipPath></defs><g class="cls-2"><g class="cls-3"><path d="M18.83,45H7v-13h14.14c.14-.35,.34-.7,.62-1-.06-1.18-.06-2.16-.01-3H5c-1.1,0-2,.9-2,2v17c0,1.1,.9,2,2,2H14.81c.37-.87,.81-1.63,1.32-2.17,.75-.79,1.74-1.35,2.7-1.83"/><path d="M59,28h-17.69c.04,.84,.06,1.83,.01,3.02,.28,.29,.47,.63,.6,.98h15.08v13h-12.78c1.2,.59,2.12,1.2,2.71,1.83,.51,.54,.95,1.31,1.33,2.17h10.75c1.1,0,2-.9,2-2V30c0-1.1-.9-2-2-2"/><path d="M5,26H21.99c.26-1.27,.66-1.96,1.01-2.42,.46-.59,1.04-1.11,1.75-1.58H7V9H27v11.87c1.89-.73,3.08-.89,4-.89V7c0-1.1-.9-2-2-2H5c-1.1,0-2,.9-2,2V24c0,1.1,.9,2,2,2"/><path d="M59,5h-24c-1.1,0-2,.9-2,2v13.27c.56,.18,1.05,.42,1.5,.65,.92-.15,1.75-.12,2.5,.05V9h20v13h-18c.52,.44,.98,1,1.37,1.71,.16,.29,.5,.89,.73,2.29h17.9c1.1,0,2-.9,2-2V7c0-1.1-.9-2-2-2"/><path d="M37.15,44.81c-.96-.26-1.11-1.24-1.22-2.24,.72-.81,1.34-1.71,1.8-2.75-.2,.11-.43,.23-.69,.34-.86,.38-1.93,.54-3.03,.51-.1,.27-.39,.46-.74,.46h-2.83c-.37,0-.88-.38-.88-1.13s.5-1.13,.88-1.13h2.83c.43,0,.74,.31,.74,.49,.53,.01,1.85,0,2.97-.58,.92-.48,1.49-1.3,1.55-1.77,1.25-.39,1.5-1.95,1.5-2.93s-.17-1.5-.52-1.67c-.17-.08-.33-.08-.48-.05,.13-2.03,.25-6.06-.6-7.57-.93-1.65-2.16-2.08-4.31-1.54-1.41-.75-2.37-1.49-4.83-.81-1.71,.47-3.59,1.23-4.58,2.5-1.07,1.37-.86,5.38-.68,7.44-.16-.04-.34-.05-.53,.04-.35,.16-.52,.69-.52,1.67s.25,2.54,1.5,2.93c.3,2.47,1.29,4.18,2.61,5.6-.09,.85-.18,1.68-.93,2.08-1.64,.44-6.81,1.94-8.43,3.66-1.94,2.04-2.69,9.66-2.69,9.66H48s-.73-7.62-2.67-9.66c-1.5-1.57-6.12-2.97-8.18-3.53"/></g></g></svg>