<?xml version="1.0" encoding="UTF-8"?><svg id="Laag_1" xmlns="http://www.w3.org/2000/svg" xmlns:xlink="http://www.w3.org/1999/xlink" viewBox="0 0 64 64"><defs><style>.cls-1{fill:none;}.cls-2{clip-path:url(#clippath);}.cls-3{clip-path:url(#clippath-1);}</style><clipPath id="clippath"><rect class="cls-1" width="64" height="64"/></clipPath><clipPath id="clippath-1"><rect class="cls-1" width="64" height="64"/></clipPath></defs><g class="cls-2"><g class="cls-3"><path d="M20.12,38.77c.62-1.58-.16-3.36-1.73-3.98l-1.72-.67c.94-.17,1.79-.76,2.23-1.69,.73-1.53,.09-3.36-1.44-4.09l-.6-.29c1.21,.08,2.4-.57,2.96-1.73,.73-1.53,.09-3.36-1.44-4.09l-3.95-1.89c-1.53-.73-3.36-.09-4.09,1.44-.73,1.53-.09,3.36,1.44,4.09l.6,.29c-1.21-.08-2.4,.57-2.96,1.73-.73,1.53-.09,3.36,1.44,4.09l2.12,1.01c-1.14,.08-2.19,.79-2.64,1.93-.62,1.58,.16,3.36,1.73,3.98l4.08,1.6c1.58,.62,3.36-.15,3.98-1.73"/><path d="M18,19.83h0V8h20v11c.16-.14,.32-.27,.51-.39,1.06-.67,2.32-.84,3.49-.57V5.14c0-1.74-1.35-3.46-3.19-3.73-3.6-.52-7.2-.78-10.81-.78-3.61,0-7.21,.26-10.81,.78-1.84,.27-3.19,1.99-3.19,3.73V14.77c-.06,.02-.3,.08-.36-.25-.08-.4-.48-2.52-.79-4.22l-2.03-.75c-1.49-.55-3.2,.16-3.9,1.64-.73,1.52-.12,3.3,1.36,4.01l9.73,4.63Z"/><path d="M54.33,50.83l-2.48-19.6c-.19-1.67-.99-3.22-2.24-4.35l-6.89-6.28c-.87-.79-2.16-.91-3.16-.28-1.17,.73-1.57,2.24-.92,3.46,1.02,1.93,2.79,4.83,5.36,7.54v11.48c0,2.79-2.15,5.3-4.9,5.71-4.3,.62-7.49,.76-11.18,.8-1.22,0-2.44-.04-3.66-.1,.67,1.07,1.6,2.19,2.91,3.24,4.59,3.67,6.75,6.34,6.75,6.34l3.14,4.98,19.31-9.43-2.04-3.5Z"/><path d="M38.81,46.52c1.85-.27,3.19-1.99,3.19-3.73v-10.7c-1.67-1.86-3-3.76-4-5.4v10.32h-15.72c.11,.82,.02,1.68-.3,2.5-1.04,2.65-4,3.87-6.57,2.86l-1.41-.55v.98c0,1.74,1.35,3.46,3.19,3.73,3.61,.52,7.21,.78,10.81,.78,3.6,0,7.2-.26,10.81-.78m-13.29-4.64c0-1.37,1.11-2.48,2.48-2.48s2.48,1.11,2.48,2.48-1.11,2.48-2.48,2.48-2.48-1.11-2.48-2.48"/></g></g></svg>