<?xml version="1.0" encoding="UTF-8"?><svg id="Laag_1" xmlns="http://www.w3.org/2000/svg" xmlns:xlink="http://www.w3.org/1999/xlink" viewBox="0 0 64 64"><defs><style>.cls-1{fill:none;}.cls-2{clip-path:url(#clippath);}.cls-3{clip-path:url(#clippath-1);}</style><clipPath id="clippath"><rect class="cls-1" width="64" height="64"/></clipPath><clipPath id="clippath-1"><rect class="cls-1" width="64" height="64"/></clipPath></defs><g class="cls-2"><g class="cls-3"><path d="M26.04,47.59c1.85,1.39,4.12,3.3,6,3.3s4.25-1.98,6-3.3c1.85,1.39,4.12,3.3,6,3.3s4.25-1.98,6-3.3c1.73,1.3,2.5,1.91,3.5,2.48,1.99-4.51-3.7-8.12-3.85-10.07-.09-1.24,.27-2,.89-2.45,1.4-1,2.42,0,4.84,.29,2.7,.33,4.25-2.64,3.22-3.15-1.71-.1-4.49-.66-5.49-1.68-.37-.38-.35-1.13-.49-2.01-.16-.99-.94-5.15-6.92-3.69-9.93,2.43-3.74,11.69-3.74,11.69-12.52,3.65-15.92-2.77-16.75-5.56-.16-.55-.91-.6-1.14-.08-3.6,7.99-1.36,14.1-.46,16.01,.47-.33,1.91-1.42,2.39-1.78"/><path d="M56.04,53.09c-2.46,0-4.92-1.94-6-2.75-1,.75-3.49,2.75-6,2.75s-4.92-1.94-6-2.75c-1,.75-3.49,2.75-6,2.75s-4.92-1.94-6-2.75c-1,.75-3.49,2.75-6,2.75s-4.92-1.94-6-2.75c-1,.75-3.49,2.75-6,2.75-1.02,0-2.12-.39-3.04-.83v4.22c.94,.3,1.98,.52,3.04,.52,2.4,0,4.66-1.08,6-1.86,1.34,.79,3.6,1.86,6,1.86s4.66-1.08,6-1.86c1.34,.79,3.6,1.86,6,1.86s4.66-1.08,6-1.86c1.34,.79,3.6,1.86,6,1.86s4.66-1.08,6-1.86c1.34,.79,3.6,1.86,6,1.86,1.03,0,2.04-.2,2.96-.49v-4.2c-.9,.42-1.97,.79-2.96,.79"/><path d="M14.08,42.57l-.23,4.9c.46,.33,2.44,1.8,2.9,2.11l1.04-21.94c.92-.48,1.57-1.4,1.62-2.51l.38-7.99c.06-1.31-.73-2.45-1.88-2.92,0-1.78-.39-2.2-.88-2.22-.48-.02-.91,.35-1.08,2.13-1.19,.35-2.09,1.41-2.15,2.72l-.38,7.99c-.05,1.11,.51,2.09,1.38,2.65l-.58,12.13c-.08,.01-.23,0-.3-.27,0,0-.3-2.99-.89-4.68-.95-2.71-2.9-4.59-3.99-5.66-.4-.39-1.04-.09-1.03,.48,.04,1.55,.3,4.21,1.45,6.84,1.41,3.25,3.74,5.47,4.63,6.25"/></g></g></svg>