<?xml version="1.0" encoding="UTF-8"?><svg id="Laag_1" xmlns="http://www.w3.org/2000/svg" xmlns:xlink="http://www.w3.org/1999/xlink" viewBox="0 0 64 64"><defs><style>.cls-1{fill:none;}.cls-2{clip-path:url(#clippath);}.cls-3{clip-path:url(#clippath-1);}</style><clipPath id="clippath"><rect class="cls-1" width="64" height="64"/></clipPath><clipPath id="clippath-1"><rect class="cls-1" width="64" height="64"/></clipPath></defs><g class="cls-2"><g class="cls-3"><path d="M11,19h5v-3.78c1.82,.24,5,.62,7.22,.62,1.07,0,2.31-.74,2.78-1.82,.47-1.07-.13-1.82-1.2-1.82-2.74,0-7.41,.76-8.89,1.02-.18-1.06-.64-2.06-1.35-2.9-.56-.65-1.57-.65-2.12,0-.7,.83-1.17,1.83-1.35,2.9-1.48-.25-6.15-1.02-8.89-1.02-1.07,0-1.67,.74-1.2,1.82,.47,1.07,1.7,1.82,2.78,1.82,2.23,0,5.4-.38,7.22-.62v3.78Z"/><path d="M61.8,12.19c-2.74,0-7.41,.76-8.89,1.02-.18-1.06-.64-2.06-1.35-2.9-.56-.65-1.57-.65-2.12,0-.71,.83-1.17,1.83-1.35,2.9-1.48-.25-6.15-1.02-8.89-1.02-1.07,0-1.67,.75-1.21,1.82,.47,1.07,1.71,1.82,2.78,1.82,2.22,0,5.4-.38,7.22-.62v3.78h5v-3.78c1.82,.24,5,.62,7.22,.62,1.07,0,2.31-.74,2.78-1.82,.47-1.07-.13-1.82-1.2-1.82"/><path d="M25.08,39.01c-.68,1.18-1.08,2.54-1.08,4,0,4.42,3.58,8,8,8s8-3.58,8-8c0-1.46-.4-2.82-1.08-4h-13.84Zm6.92,8c-1.38,0-2.5-1.12-2.5-2.5s1.12-2.5,2.5-2.5,2.5,1.12,2.5,2.5-1.12,2.5-2.5,2.5"/><path d="M53.74,21.01H10.26c-.7,0-1.26,.57-1.26,1.26,0,1.57,1.16,2.89,2.72,3.09l15.57,2.09c.01,.06,.03,.27-.3,.33l-6.05,.39-1.23,1.48c-2.77,3.34-4.68,7.3-5.58,11.54l-2.49,11.75c-.2,.94,.52,1.59,1.46,1.79,.95,.2,1.76-.12,1.96-1.07l2.49-11.75c.78-3.68,2.44-7.13,4.85-10.03l1.09-1.31,1.91,6.43h13.19l1.91-6.43,1.09,1.31c2.4,2.9,4.07,6.34,4.85,10.03l2.49,11.75c.2,.95,1.01,1.27,1.96,1.07,.94-.2,1.66-.85,1.46-1.79l-2.49-11.75c-.9-4.24-2.81-8.2-5.58-11.54l-1.23-1.48-6.05-.39c-.33-.06-.31-.27-.3-.33l15.57-2.09c1.55-.2,2.72-1.53,2.72-3.09,0-.7-.56-1.26-1.26-1.26"/></g></g></svg>