<?xml version="1.0" encoding="UTF-8"?><svg id="Laag_1" xmlns="http://www.w3.org/2000/svg" xmlns:xlink="http://www.w3.org/1999/xlink" viewBox="0 0 64 64"><defs><style>.cls-1{fill:none;}.cls-2{clip-path:url(#clippath);}.cls-3{clip-path:url(#clippath-1);}</style><clipPath id="clippath"><rect class="cls-1" width="64" height="64"/></clipPath><clipPath id="clippath-1"><rect class="cls-1" width="64" height="64"/></clipPath></defs><g class="cls-2"><g class="cls-3"><path d="M21.64,55.99l1.23-.4c.27-.09,.28-.47,.01-.57l-3.41-1.29c-.25-.09-.52,.08-.55,.34l-.3,3.59c-.02,.28,.32,.44,.52,.23l.8-.83c1.7,2.43,3.82,3.5,5.05,3.95v-2.16c-.96-.45-2.25-1.31-3.35-2.86M48,2H17c-1.1,0-2,.9-2,2V52h4V6h27L27,15V62l19-10h4V4c0-1.1-.9-2-2-2m-15.15,35.07c-.11,1.07-.95,1.94-1.89,1.94s-1.6-.87-1.5-1.94c.11-1.07,.95-1.94,1.89-1.94s1.6,.87,1.5,1.94"/></g></g></svg>