<?xml version="1.0" encoding="UTF-8"?><svg id="Laag_1" xmlns="http://www.w3.org/2000/svg" xmlns:xlink="http://www.w3.org/1999/xlink" viewBox="0 0 64 64"><defs><style>.cls-1{fill:none;}.cls-2{clip-path:url(#clippath);}.cls-3{clip-path:url(#clippath-1);}</style><clipPath id="clippath"><rect class="cls-1" width="64" height="64"/></clipPath><clipPath id="clippath-1"><rect class="cls-1" width="64" height="64"/></clipPath></defs><g class="cls-2"><g class="cls-3"><path d="M38.98,55.89l1.02,5.11h6l-1.99-6.65c-1.46,.64-3.12,1.17-5.03,1.53"/><path d="M18,61h6l1.02-5.11c-1.9-.37-3.57-.89-5.03-1.53l-1.99,6.65Z"/><path d="M51.32,12.97c-1.47-2.9-4.75-9.16-5.99-9.87-1.58-.89-8.19-1.11-13.33-1.11s-11.75,.22-13.33,1.11c-1.25,.7-4.52,6.97-5.99,9.87-.49,.97-.72,2.05-.68,3.16l.9,23c.51,13.07,11.69,14.88,19.1,14.88s18.59-1.81,19.1-14.88l.9-23c.04-1.1-.19-2.19-.68-3.16M32,6.85c1.74,0,3.15,1.41,3.15,3.15s-1.41,3.15-3.15,3.15-3.15-1.41-3.15-3.15,1.41-3.15,3.15-3.15m-9,36.3c-1.74,0-3.15-1.41-3.15-3.15s1.41-3.15,3.15-3.15,3.15,1.41,3.15,3.15-1.41,3.15-3.15,3.15m18,0c-1.74,0-3.15-1.41-3.15-3.15s1.41-3.15,3.15-3.15,3.15,1.41,3.15,3.15-1.41,3.15-3.15,3.15m5.6-25.86l-3.39,11c-.13,.42-.52,.71-.95,.71H21.74c-.44,0-.83-.29-.95-.71l-3.38-11c-.2-.64,.28-1.29,.95-1.29h27.29c.67,0,1.15,.65,.96,1.29"/></g></g></svg>