<?xml version="1.0" encoding="UTF-8"?><svg id="Laag_1" xmlns="http://www.w3.org/2000/svg" xmlns:xlink="http://www.w3.org/1999/xlink" viewBox="0 0 64 64"><defs><style>.cls-1{fill:none;}.cls-2{clip-path:url(#clippath);}.cls-3{clip-path:url(#clippath-1);}</style><clipPath id="clippath"><rect class="cls-1" width="64" height="64"/></clipPath><clipPath id="clippath-1"><rect class="cls-1" width="64" height="64"/></clipPath></defs><g class="cls-2"><g class="cls-3"><path d="M14.32,47c1.41-1.66,3.14-3.07,5.17-4.17-.19-.77-.44-1.45-.8-1.82-.94-.99-3.6-1.87-4.8-2.2-.49-.2-.57-.88-.6-1.41,.76-.89,1.32-1.95,1.52-3.34,.76-.24,.92-1.2,.92-1.8s-.1-.93-.32-1.03c-.16-.07-.3-.04-.41,.01v-2.23c0-1-.07-1.99-.35-2.51-.55-1.02-1.23-1.43-2.52-1.09-.84-.46-1.42-1.04-2.9-.63-1.03,.29-2.15,.81-2.74,1.59-.37,.49-.46,1.56-.47,2.63l-.02,2.2c-.1-.03-.22-.04-.34,.02-.21,.1-.32,.43-.32,1.03s.15,1.57,.92,1.8c.17,1.44,.73,2.46,1.47,3.31-.03,.6-.07,1.33-.64,1.49-1.2,.33-3.86,1.18-4.79,2.16-1.19,1.26-1.29,5.99-1.29,5.99H14.32Z"/><path d="M49.78,39.08c-.7,.26-2.24,.77-3.41,1.35-.89,.43-1.7,.9-2.11,1.33-.17,.17-.31,.4-.43,.66,2.39,1.15,4.42,2.7,6.01,4.58h13.17s-.06-3.91-1.25-5.17c-.41-.43-1.22-.9-2.11-1.33-1.17-.58-2.72-1.09-3.41-1.35-.62-.23-.53-1.05-.66-2.14,1.76-.07,2.96-.25,3.57-.48,.12-.05,.18-.16,.13-.27-.33-.72-1.19-2.9-1.3-4.14-.06-.63-.08-1.37-.11-2.13,0,0,0,0,.02,0-.26-2.9-.97-5.58-4.12-4.5,0,0-2.53-1.7-4.58,1.14-.86,1.19-1.08,2.09-1.13,3.36h.02c-.04,.85-.01,1.64-.04,2.23-.04,1.04-.9,3.25-1.26,3.87-.08,.13-.05,.27,.09,.32,.65,.24,1.88,.42,3.6,.53-.05,.42-.11,1.44-.29,1.82h0c-.08,.14-.2,.25-.36,.32"/><path d="M39.92,43.05c-.08-.61-.2-1.42-.39-2.52,1.37-1.58,2.45-3.59,3.08-5.89,1.69-.75,2.96-2.46,3.29-4.6,.29-1.86-.2-3.62-1.21-4.89,.26-10.68-3.41-14.14-3.41-14.14,.78-1.57,2.47-2.69,2.47-2.69-5.26-.96-7.99,1.4-7.99,1.4-4.8-3.55-11.49-2.32-11.49-2.32,1.3,1.3,1.88,2.66,1.88,2.66-8.7,3.82-8.25,9.83-8.25,9.83,0,0,1.3-1.02,2.01-1.23,0,0-.66,2.98-.54,6.4-1.06,1.27-1.59,3.07-1.29,4.98,.33,2.14,1.6,3.85,3.29,4.6,.63,2.3,1.71,4.31,3.08,5.89-.19,1.14-.31,1.96-.39,2.57-8.01,2.41-11.91,8.56-11.91,15.91H52c0-7.39-3.96-13.58-12.08-15.95m-7.93,6.08c-2.95,0-5.09-1.8-5.09-4.28,0-.51,.53-4.07,.75-5.34-1.92-1.66-3.32-4.37-3.77-7.57-1.4,.48-2.59-.84-2.83-2.37-.24-1.58,.52-3.05,1.71-3.27,.45-.09,.9,.02,1.29,.26,0-.78,.04-1.58,.13-2.38,3.11-.64,5.22-1.92,5.22-1.92-.19,1.71-1.23,3.68-1.23,3.68,4.61-.55,7.53-5.38,7.53-5.38,.58,2.39,2.08,3.96,2.08,3.96,.59-1.17,1.2-1.88,1.69-2.32,.34,1.43,.48,2.94,.48,4.36,.4-.25,.84-.35,1.29-.26,1.19,.23,1.95,1.69,1.71,3.27-.24,1.52-1.43,2.86-2.83,2.37-.85,6.11-5.16,10.4-9.82,9.04,1.6,3.16,4.4,2.91,6.55,1.73,.19,1.29,.24,1.88,.24,2.14,0,2.48-2.14,4.28-5.09,4.28"/></g></g></svg>