<?xml version="1.0" encoding="UTF-8"?><svg id="Laag_1" xmlns="http://www.w3.org/2000/svg" xmlns:xlink="http://www.w3.org/1999/xlink" viewBox="0 0 64 64"><defs><style>.cls-1{fill:none;}.cls-2{clip-path:url(#clippath);}.cls-3{clip-path:url(#clippath-1);}</style><clipPath id="clippath"><rect class="cls-1" width="64" height="64"/></clipPath><clipPath id="clippath-1"><rect class="cls-1" width="64" height="64"/></clipPath></defs><g class="cls-2"><g class="cls-3"><path d="M30.88,43c0-6.69,5.43-12.12,12.12-12.12,6.01,0,10.99,4.38,11.94,10.12h.06c1.1,0,2-.89,2-2v-14c0-1.1-.9-2-2-2h-14V9c0-1.1-.9-2-2-2h-14c-1.1,0-2,.9-2,2v14H9c-1.1,0-2,.9-2,2v14c0,1.11,.9,2,2,2h14v14c0,1.1,.9,2,2,2h14c1.1,0,2-.9,2-2v-.06c-5.74-.95-10.12-5.93-10.12-11.94"/><path d="M57.45,52.83l-4.92-4.92c-1.25,1.26-2.43,1.86-2.74,1.98-.62,.26-.92,.21-1.02,.02,1.97-1.65,3.23-4.13,3.23-6.9,0-4.97-4.03-9-9-9s-9,4.03-9,9,4.03,9,9,9c1.39,0,2.71-.33,3.89-.89l6.14,6.14c1.18,1.18,2.57,.49,3.74-.68,1.17-1.17,1.86-2.56,.68-3.74m-14.45-4.73c-2.82,0-5.1-2.28-5.1-5.1s2.28-5.1,5.1-5.1,5.1,2.28,5.1,5.1-2.28,5.1-5.1,5.1"/></g></g></svg>