<?xml version="1.0" encoding="UTF-8"?>
<svg id="Zwart" xmlns="http://www.w3.org/2000/svg" viewBox="0 0 64 64">
  <path d="M32,8c-13.25,0-24,10.75-24,24s10.75,24,24,24,24-10.75,24-24-10.75-24-24-24ZM30.72,16.29c-.59.57-.34,1.5-.55,2.31l-.84.44-1.34-1.64.63-2.34c.06-.47-.17-.96-.58-1.23-.48-.31-1.09-.25-1.46.15l-.55.6.37,2.22-.14.37-1.11-.75-.09-1.42-1.37-.26s-.17,1.11-.62,1.38c-.45.26-1.53-.09-1.75.62-.31,1.01.58.47.45,2.72l-.04.74.73-.33.26-.88.68-.17c.64-.15.1-1.67.67-1.97l2.77,2.62s1,2.53.45,3.2c-.54.67-2.38-.35-2.38-.35,0,0-.28,1.65-1.97,1.7-1.87.06-2.06,1.92-2.06,1.92,0,0-1.74.39-1.8.99-.07.6.32,2.01-.18,2.08-.5.07-.52.22-.72-.44-.2-.66-.19-1.68-.64-2.35-.45-.67-1.31-1.2-2.03-.76-.72.44-1.19,2.76-.27,3.03.93.27,1.35-.24,1.76.54.41.78-.23,3.1.52,4.24l1.24.57,1.43,1.77,1.75.14c.65.05,1.27.31,1.78.75l.44.38c.61.52.26.47,1.02.61l.92.16c.41.07.75.37.89.77l.36.73c1.4.52.77.16,2.05.89l.58,2.15c-.93,2.05-.65,3.02-2.28,3.16,0,0-.85.13-1.26.88-.25.45-1.8,3.62-2.09,4.21-.4-.17-.78-.36-1.17-.55-.33-.31-.61-.74-.63-1.34-.08-1.98-.26-4.66-.53-5.32-.27-.67-.78-1.22-1.41-1.56-.79-.43-1.54-.92-2.08-1.63-.35-.46-.18-.95-.35-1.38-.49-1.27-.86-1.32-.53-1.89.34-.56.83-1.42.83-1.42l-1.33-.65-.56-1.26-.75-1.69-1.2-.93c-.73-.57-1.27-1.36-1.53-2.25l-.41-1.4s-.03-.06-.04-.1c2.09-8.18,9.22-14.36,17.88-15l1.04,3.41-.84.81ZM33.87,15.66c1.38.34,1.78-1.54,2.88-1.59l.5,1.41s-.4,2.08-1.06,2.26c-.66.18-2.56-.92-2.56-.92l.24-1.15ZM48.63,39.91s-.22,1.56-.95,2.87c-.29.51-1.07.78-1.42,1.28-.63.9-.45,2.49-1.17,2.85-1.29.63-2.78.92-3.13.59-.49-.47-1.58-2.45-1.58-3.11v-4.75c0-.85-1.14-2.87-1.14-2.87,0,0-2.69-.03-3.72-.03s-2.6-1.48-2.6-1.48c0,0-.87-2.9,0-4.7.87-1.81,2.2-1.99,2.2-1.99l4.61-.93,2.64,1.55,3.52.67.97,1.33,1.57,2.21,1.88-.79-1.88-1.88-1.19-2.15s1.54-1.54,1.11-2.36c-.43-.82-2.83.51-3.31-.2-.48-.72-.05-3.16-.05-3.16l-2.98-1.23s-.93-.02-.85.68c.09.79,2.26,2.04,2.08,2.39-.16.32-.7.09-.7.09l-.82,1.45-1.72-.39s1.31-.5,1.47-.97c.16-.48-1.93-2.19-1.93-2.19l-1.16.26-.53,2.11-1.4,1.23-1.75.25.07-1.28-.64-.22.84-2.08,1.81.15s.67-1.74.53-2.32c-.26-1.11-1.42-1.24-1.42-1.68s1.25-.43,1.86-1.05c.35-.35,1.31-3.29,2.02-4.52,7.18,3.04,12.23,10.15,12.23,18.43,0,2.57-.5,5.02-1.39,7.27-1.01.45-1.98.64-1.98.64Z"/>
</svg>