<?xml version="1.0" encoding="UTF-8"?><svg id="Laag_1" xmlns="http://www.w3.org/2000/svg" xmlns:xlink="http://www.w3.org/1999/xlink" viewBox="0 0 64 64"><defs><style>.cls-1{fill:none;}.cls-2{clip-path:url(#clippath);}.cls-3{clip-path:url(#clippath-1);}</style><clipPath id="clippath"><rect class="cls-1" width="64" height="64"/></clipPath><clipPath id="clippath-1"><rect class="cls-1" width="64" height="64"/></clipPath></defs><g class="cls-2"><g class="cls-3"><path d="M33.45,42c.23-.91,.39-1.92,.47-3h-9.98c-.07,1.05-.19,2.05-.37,3h9.88Z"/><rect x="24" y="34" width="10" height="3"/><rect x="24" y="29" width="10" height="3"/><path d="M57,11H16c-1.1,0-2,.9-2,2v24.17c0,1.62-.16,3.14-.46,4.46,0,0-.3,.1-.34-.3-.43-3.51-2.35-20.33-2.35-20.33H6.77c-1.03,0-1.71,.81-1.6,1.72,.57,4.55,1.81,12.57,2.4,16.64,.94,6.5,1.83,12.64,9.43,12.64H49.17c5.97,0,9.83-5.82,9.83-14.83V13c0-1.1-.9-2-2-2m-3,26.17c0,4.74-1.51,9.83-4.83,9.83H16.86c1.38-2.55,2.14-6,2.14-11V16H54v21.17Z"/><rect x="24" y="21" width="25" height="5"/><path d="M37,35v2.17c0,1.72-.16,3.34-.45,4.83h11.84c.5-1.15,.6-3.22,.6-5v-8h-12v6Z"/><path d="M33.92,39h-9.98c-.07,1.05-.19,2.05-.37,3h9.88c.23-.91,.39-1.92,.47-3"/><rect x="24" y="34" width="10" height="3"/><rect x="24" y="29" width="10" height="3"/></g></g></svg>