<?xml version="1.0" encoding="UTF-8"?><svg id="Laag_1" xmlns="http://www.w3.org/2000/svg" xmlns:xlink="http://www.w3.org/1999/xlink" viewBox="0 0 64 64"><defs><style>.cls-1{fill:none;}.cls-2{clip-path:url(#clippath);}.cls-3{clip-path:url(#clippath-1);}</style><clipPath id="clippath"><rect class="cls-1" width="64" height="64"/></clipPath><clipPath id="clippath-1"><rect class="cls-1" width="64" height="64"/></clipPath></defs><g class="cls-2"><g class="cls-3"><path d="M48.85,52h13.15v-3h-13.15c-.31-1.55-1.11-2.92-2.22-3.96l8.15-13.21c.39,.1,.8,.17,1.22,.17,2.76,0,5-2.24,5-5s-2.24-5-5-5c-.56,0-1.1,.11-1.6,.29l-9.23-12.55c.52-.79,.84-1.72,.84-2.73,0-2.76-2.24-5-5-5s-5.13,2.25-4.97,5.27l-14.51,6.77c-1.32-1.78-3.41-2.95-5.78-3.03l-1.55-9.01h-3.04l1.63,9.52c-2.34,.91-4.12,2.97-4.63,5.48H2v3h6.15c.54,2.66,2.48,4.8,5.02,5.63l-2.12,18.47c-2.31,.44-4.05,2.47-4.05,4.91,0,2.76,2.24,5,5,5,2.15,0,3.96-1.36,4.67-3.26l17.42,.89c.7,4.62,5.43,7.52,9.9,5.94l2.66,4.43h3.5l-3.59-5.98c1.14-1.05,1.97-2.44,2.29-4.02M39.36,11.72c.5,.17,1.03,.28,1.59,.28,.66,0,1.3-.14,1.88-.37l9.14,12.43c-.12,.16-.22,.33-.31,.5l-18.38-3.86,6.07-8.99Zm11.69,15.78c.01,.1,.02,.21,.03,.31l-18.5,9.34-5.68-6.99,4.57-6.77,19.57,4.11Zm-21.21,11.04l-13.05,6.59,8.35-12.37,4.69,5.78Zm-4.92-10.81l-3.63-4.47c.44-.53,.81-1.13,1.08-1.78l5.92,1.24-3.38,5Zm-5.96-2.58l4.2,5.17-9.06,13.41,2.04-17.76c1.01-.09,1.96-.37,2.82-.82m12.81,15.77l3.92,4.83c-.68,.83-1.18,1.81-1.46,2.89l-16.12-.82,13.65-6.9Zm6.25,2.94l-3.51-4.32,17.41-8.79-7.85,12.73c-2.04-.75-4.21-.57-6.05,.39m-1.31-33.6l-6.61,9.78-7.12-1.49s0-.03,0-.04c0-.6-.08-1.18-.21-1.74l13.94-6.5Z"/></g></g></svg>