<?xml version="1.0" encoding="UTF-8"?>
<svg id="a" data-name="01" xmlns="http://www.w3.org/2000/svg" xmlns:xlink="http://www.w3.org/1999/xlink" viewBox="0 0 64 64">
  <defs>
    <clipPath id="b">
      <rect width="64" height="64" fill="none" stroke-width="0"/>
    </clipPath>
  </defs>
  <g clip-path="url(#b)">
    <g>
      <path d="M40.76,14.33c0-.4-.26-.75-.64-.87l-16.43-5.14s-.07,0-.11-.02c-.17-.05-.35-.08-.54-.08l-16.96.35c-.26,0-.32.37-.08.46l18.71,6.77c.39.12.8.15,1.2.09,0,0,12.37-1.62,12.44-1.62.24-.01.26.14.26.18l-15.25,5.73-14.23-5.34,4.06-1.27-3.24-1.17-3.34,1.04c-.38.12-.64.47-.64.87v22.56c0,.33.18.64.47.8l16.48,9.27c.28.16.62.16.9,0l8.52-4.79v-12.67c0-1.22.72-2.33,1.82-2.82,1.15-.51,3.28-1.26,6.6-1.69v-10.65Z" stroke-width="0"/>
      <path d="M57.52,28.51c-1.34-.6-4.89-1.85-11.27-1.85s-9.93,1.24-11.27,1.85c-.39.17-.63.56-.63.98v15.66c0,1.84.78,3.58,2.14,4.82,3.61,3.29,7.67,5.08,9.17,5.68.39.15.81.15,1.2,0,1.5-.59,5.56-2.39,9.17-5.68,1.36-1.24,2.14-2.98,2.14-4.82v-15.66c0-.42-.24-.81-.63-.98ZM44.63,36.04c-.19-.03-.39-.04-.59-.04-2.13,0-3.86,1.73-3.86,3.86s1.73,3.86,3.86,3.86c.2,0,.4-.01.59-.04v1.67c-.19.02-.39.03-.59.03-3.04,0-5.51-2.47-5.51-5.51s2.47-5.51,5.51-5.51c.2,0,.4.01.59.03v1.67ZM53.97,36.04c-.18-.03-.36-.04-.55-.04-1.85,0-3.39,1.3-3.77,3.03h3.22v1.65h-3.22c.38,1.73,1.92,3.03,3.77,3.03.19,0,.37-.01.55-.04v1.67c-.18.02-.37.03-.55.03-3.05,0-5.51-2.47-5.51-5.51s2.47-5.51,5.51-5.51c.19,0,.37,0,.55.03v1.67Z" stroke-width="0"/>
    </g>
  </g>
</svg>