<?xml version="1.0" encoding="UTF-8"?><svg id="Laag_1" xmlns="http://www.w3.org/2000/svg" xmlns:xlink="http://www.w3.org/1999/xlink" viewBox="0 0 64 64"><defs><style>.cls-1{fill:none;}.cls-2{clip-path:url(#clippath);}.cls-3{clip-path:url(#clippath-1);}</style><clipPath id="clippath"><rect class="cls-1" width="64" height="64"/></clipPath><clipPath id="clippath-1"><rect class="cls-1" width="64" height="64"/></clipPath></defs><g class="cls-2"><g class="cls-3"><path d="M40.21,35.37c4.56-.01,8.14-1.45,10.82-4.26,5.62-5.9,5.2-14.3,5.2-15.68s-.65-1.43-1.55-1.43h-9.69v-1.99H24.45v11.35c0,7.69,1.97,9.56,1.97,9.56,0,0-.28,.24-.66-.06-1.11-.87-3.48-3.67-3.48-9.51V12h-3.04v1.99H9.56c-.9,0-1.55,.05-1.55,1.43s-.42,9.79,5.2,15.68c2.68,2.82,6.26,4.25,10.82,4.26,1.72,1.71,3.59,2.65,5.08,2.65,0,0,1.03,4.78-2.57,6.33-3.6,1.55-7.36,2.5-7.29,3.75v7.83h25.75v-7.83c.06-1.25-3.69-2.21-7.29-3.75-3.6-1.54-2.58-6.33-2.58-6.33,1.49,0,3.36-.94,5.08-2.65m4.85-12.65v-6.17h7.12c.72,0,1.11-.07,.99,.99-.34,3-1.11,8.16-4.31,11.52-1.61,1.69-3.67,2.73-6.22,3.13,1.43-2.49,2.43-5.68,2.43-9.47m-29.67,6.33c-3.2-3.35-3.97-8.52-4.31-11.52-.12-1.06,.27-.99,.99-.99h7.11v6.17c0,3.79,1,6.98,2.43,9.47-2.55-.4-4.61-1.45-6.22-3.13m12.05-8.9v-2.38c1.65-.49,3.27-.73,4.82-.73h1.7v13.39h-3.06v-10.58c-1.27,0-2.22,.08-3.46,.3m14.56,32.84H22v-3.07h20v3.07Z"/></g></g></svg>