<?xml version="1.0" encoding="UTF-8"?><svg id="Laag_1" xmlns="http://www.w3.org/2000/svg" viewBox="0 0 64 64"><defs><style>.cls-1{fill:none;}</style></defs><rect class="cls-1" width="64" height="64"/><path d="m44.24,25.9c-.21-.22-.62-.46-1.08-.68-.6-.3-1.27-.56-1.63-.69-.14-.05-.22-.18-.25-.32-.03-.18-.06-.44-.09-.67.9-.04,1.65-.13,1.96-.24.06-.02.09-.08.06-.14-.17-.37-.61-1.59-.67-2.23-.14-1.57-.13-4.37-2.28-3.66,0,0-1.36-.87-2.47.59-.78,1.02-.59,2.38-.62,3.13-.02.54-.46,1.77-.64,2.09-.04.07-.03.14.05.16.33.12,1.09.22,1.97.27-.02.22-.06.5-.1.7-.03.14-.11.27-.25.32h0c-.36.13-1.03.4-1.63.69-.46.22-.87.46-1.08.68-.23.24-.37.66-.47,1.1h9.67c-.09-.44-.24-.86-.47-1.1Z"/><path d="m25.71,24.39c-.31-.09-.36-.4-.4-.73.43-.48.75-1.06.85-1.82.41-.13.49-.64.49-.96s-.06-.49-.17-.54c-.05-.03-.11-.02-.16-.01.04-.66.08-1.98-.19-2.47-.3-.54-.7-.68-1.41-.5-.46-.24-.77-.49-1.58-.27-.56.15-1.17.4-1.49.82-.35.45-.28,1.76-.22,2.43-.05-.01-.11-.02-.17.01-.11.05-.17.23-.17.54s.08.83.49.96c.1.81.42,1.36.85,1.83-.03.28-.06.55-.3.68-.54.15-2.22.63-2.75,1.19-.26.28-.46.86-.6,1.46h10.19c-.14-.59-.33-1.18-.59-1.46-.49-.51-2-.97-2.67-1.15Z"/><path d="m27.16,37.22c-.6-.3-1.27-.56-1.63-.69-.14-.05-.22-.18-.25-.32-.03-.18-.06-.44-.09-.67.9-.04,1.65-.13,1.96-.24.06-.02.09-.08.06-.14-.17-.37-.61-1.59-.67-2.23-.14-1.57-.13-4.37-2.28-3.66,0,0-1.36-.87-2.47.59-.78,1.02-.59,2.38-.62,3.13-.02.54-.46,1.77-.64,2.09-.04.07-.03.14.05.16.33.12,1.09.22,1.97.27-.02.22-.06.5-.1.7-.03.14-.11.27-.25.32h0c-.36.13-1.03.4-1.63.69-.46.22-.87.46-1.08.68-.23.24-.37.66-.47,1.1h9.67c-.09-.44-.24-.86-.47-1.1-.21-.22-.62-.46-1.08-.68Z"/><path d="m41.71,36.39c-.31-.09-.36-.4-.4-.73.43-.48.75-1.06.85-1.82.41-.13.49-.64.49-.96s-.06-.49-.17-.54c-.05-.03-.11-.02-.16-.01.04-.66.08-1.98-.19-2.47-.3-.54-.7-.68-1.41-.5-.46-.24-.77-.49-1.58-.27-.56.15-1.17.4-1.49.82-.35.45-.28,1.76-.22,2.43-.05-.01-.11-.02-.17.01-.11.05-.17.23-.17.54s.08.83.49.96c.1.81.42,1.36.85,1.83-.03.28-.06.55-.3.68-.54.15-2.22.63-2.75,1.19-.26.28-.46.86-.6,1.46h10.19c-.14-.59-.33-1.18-.59-1.46-.49-.51-2-.97-2.67-1.15Z"/><path d="m54,42V14c0-1.65-1.35-3-3-3H13c-1.65,0-3,1.35-3,3v28l-7,3v2c0,1.1.9,2,2,2h54c1.1,0,2-.9,2-2v-2l-7-3ZM14,15h36v26H14V15Z"/></svg>