<?xml version="1.0" encoding="UTF-8"?><svg id="Laag_1" xmlns="http://www.w3.org/2000/svg" xmlns:xlink="http://www.w3.org/1999/xlink" viewBox="0 0 64 64"><defs><style>.cls-1{fill:none;}.cls-2{clip-path:url(#clippath);}.cls-3{clip-path:url(#clippath-1);}</style><clipPath id="clippath"><rect class="cls-1" width="64" height="64"/></clipPath><clipPath id="clippath-1"><rect class="cls-1" width="64" height="64"/></clipPath></defs><g class="cls-2"><g class="cls-3"><path d="M55.89,41.14c-5.21-5.21-10.4-3.5-15.3,1.92h-.01c-.12-.05-.18-.22-.08-.49,.2-.52,1.11-2.65,3.6-5.14L26.62,19.94c-2.49,2.51-4.63,3.42-5.15,3.62-.28,.11-.44,.04-.51-.08,5.56-5.03,6.95-10.31,1.96-15.3-2.64-2.64-5.66-3.63-8.77-2.76-.51,.14-.69,.77-.36,1.17,1.1,1.32,2.17,2.61,2.67,3.3,.74,1.02,2.1,2.92,.84,4.19l-3.72,3.72c-1.26,1.26-3.03-.19-4.05-.93-.66-.48-1.83-1.53-3.03-2.66-.4-.38-1.08-.19-1.21,.35-.68,2.97,.34,5.85,2.87,8.38,3.06,3.06,6.64,3.9,10.26,2.2l20.51,20.51c-1.71,3.62-.86,7.21,2.2,10.26,2.53,2.53,5.41,3.55,8.38,2.87,.54-.12,.73-.8,.35-1.21-1.12-1.2-2.18-2.37-2.66-3.03-.74-1.02-2.2-2.78-.93-4.05l3.72-3.72c1.26-1.26,3.16,.09,4.19,.83,.69,.5,1.99,1.56,3.3,2.67,.4,.34,1.03,.15,1.17-.36,.87-3.1-.12-6.13-2.76-8.77"/><path d="M17.6,38.63c-5.4,5.4-10.61,12.48-9.88,15.84l-2.55,2.55c-.45,.45-.45,1.19,0,1.65,.23,.23,.53,.34,.82,.34s.6-.11,.82-.34l2.55-2.55c3.37,.71,10.51-4.56,15.83-9.87l5.8-5.8-7.61-7.61-5.8,5.8"/><path d="M31.97,19.7c.28,0,.57-.11,.78-.32l9.35-9.35c.51-.51,1.24-1.1,2-1.05,.49,.03,.81,.3,1.14,.62,.32,.32,.77,.83,.77,.83l-13.04,13.04,7.61,7.61,14.51-14.51c.84-.84,.37-1.82-.47-2.66l-3.06-3.08c.03-.07,.19-.29,.57-.08l3.62,2.03,2.22-2.22c1.26-1.26,.49-2.54-.77-3.8-1.26-1.26-2.54-2.03-3.8-.77l-3.36,3.36s-2.25-2.23-2.25-2.23c-1.36-1.26-3.97-2.01-6.98,1.05l-9.64,9.64c-.43,.43-.43,1.13,0,1.57,.22,.22,.5,.32,.78,.32"/></g></g></svg>