<?xml version="1.0" encoding="UTF-8"?><svg id="Laag_1" xmlns="http://www.w3.org/2000/svg" xmlns:xlink="http://www.w3.org/1999/xlink" viewBox="0 0 64 64"><defs><style>.cls-1{fill:none;}.cls-2{clip-path:url(#clippath);}.cls-3{clip-path:url(#clippath-1);}</style><clipPath id="clippath"><rect class="cls-1" width="64" height="64"/></clipPath><clipPath id="clippath-1"><rect class="cls-1" width="64" height="64"/></clipPath></defs><g class="cls-2"><g class="cls-3"><path d="M61.99,20.57l-5.57-5.57h-15.07L23.61,1.21c-.33-.25-.84-.3-1.23,0L4.66,15h-.66c-1.65,0-3,1.35-3,3v5c0,1.65,1.35,3,3,3H8c1.66,0,3-1.35,3-3h8V63h2v-4.7l3.13,4.7h2.87V28.73c.35-.23,1.49-1.34,1.82-1.65,.75-.71,1.18-1.71,1.18-2.75v-7.33h4.7l-3.97,2.65,.67,3.35h22.61v11.12l-1.25,1.47,.67,2.92h.88c-.03,.38,.08,.74,.31,1.03,.28,.34,.56,.64,.77,.93,.21,.28,.24,.73-.08,.98-.32,.25-.78,.19-1.06-.11-.29-.32-.49-.62-.77-1.02-.12-.16-.37-.09-.39,.11-.04,.44-.01,1.21,.29,1.71,.72,1.17,2.3,1.02,2.98,.42,.85-.76,.76-1.77,.4-2.42-.28-.51-.72-.92-.97-1.25-.07-.09-.1-.24-.1-.36h.9l.67-2.87-1.25-1.51v-11.12h4.98c.58,0,1.09-.34,1.31-.88s.1-1.14-.31-1.55M23,6.77l1.76,8.23h-3.52l1.76-8.23Zm-4,14.23h-5.7l5.7-3.8v3.8Zm-8-.87v-3.13h4.7l-4.7,3.13Zm8.19-5.13H7.91L21.45,4.48l-2.25,10.52Zm4.94,21h-3.13v-4.7l3.13,4.7Zm0,9h-3.13v-4.7l3.13,4.7Zm-3.13,4.3l3.13,4.7h-3.13v-4.7Zm4,11.39l-3.13-4.7h3.13v4.7Zm0-9l-3.13-4.7h3.13v4.7Zm0-9l-3.13-4.7h3.13v4.7Zm0-9l-3.13-4.7h3.13v4.7Zm2-10.7c0,.55-.45,1-1,1h-3c-.55,0-1-.45-1-1v-4c0-.55,.45-1,1-1h3c.55,0,1,.45,1,1v4Zm10-2h-4.7l4.7-3.13v3.13Zm-10.19-6l-2.26-10.53,13.53,10.53h-11.28Zm12.19,2h4.7l-4.7,3.13v-3.13Zm8,4h-5.7l5.7-3.8v3.8Zm2-4h4.7l-4.7,3.13v-3.13Zm2.3,4l4.97-3.31,3.31,3.31h-8.28Z"/></g></g></svg>