<?xml version="1.0" encoding="UTF-8"?><svg id="Laag_1" xmlns="http://www.w3.org/2000/svg" xmlns:xlink="http://www.w3.org/1999/xlink" viewBox="0 0 64 64"><defs><style>.cls-1{fill:none;}.cls-2{clip-path:url(#clippath);}.cls-3{clip-path:url(#clippath-1);}</style><clipPath id="clippath"><rect class="cls-1" width="64" height="64"/></clipPath><clipPath id="clippath-1"><rect class="cls-1" width="64" height="64"/></clipPath></defs><g class="cls-2"><g class="cls-3"><path d="M54.41,40.51c-2.44-1.13-4.31-2.25-8.05-5.61-2.31-2.07-6.11-3.69-9.58-3.7-5.6-.02-8.13,1.84-15.36,5.33,2.23,2.63,5.14,4.3,5.14,4.3-.01,.16-.16,.24-.59,.16-1.07-.18-3.77-1.31-6.02-3.85-1.56-1.77-2.01-3.51-3.4-4.97-1.4-1.47-3.86-2.57-5.19-3.09-.55-.22-1.17,.02-1.44,.54-.73,1.44-1.77,4.39,.33,7.02,2.34,2.92,5.79,3.43,7.99,5.63-.77,.38-1.5,.86-1.78,1.43-.69,1.39,1.09,3.37,1.09,3.37,0,0-2.06-.03-2.83,2.01-.11,.3,.19,.59,.5,.48l1.71-.62,.14,1.02c.04,.28,.35,.43,.59,.27l1.55-1.01,.28,1.01c.07,.24,.34,.36,.55,.24,.7-.39,2.01-1.27,2.08-2.4,.02-.31-.04-.79-.14-1.33,1.35,1.05,2.96,1.72,4.92,2.1,.25,.69,.49,1.09,.49,1.09,0,0-1.54-.05-2.63,.84-.64,.52-.9,1.29-1.01,1.85-.06,.3,.25,.54,.53,.42l1.85-.8,.12,1.17c.03,.28,.35,.44,.59,.29l1.72-1.08,.33,1.1c.07,.23,.33,.34,.55,.23,.76-.41,2.33-1.38,2.67-2.57,.14-.5,.07-1.23-.09-1.99,4.31,.24,10.05,.21,12.93-.66,.34,.37,.73,.7,1.17,.98,0,0-1.23,1.23-.46,2.93,.11,.26,.47,.3,.65,.08l1.39-1.66,.56,1.3c.11,.26,.47,.31,.65,.09l1.5-1.82,.8,1.04c.16,.21,.49,.2,.63-.03,.52-.85,1.42-2.69,.19-3.89-1.47-1.43-3.62-1.85-3.89-2.77-.05-.18-.03-.41,.03-.66,3.19-.43,5.31-1.67,6.41-2.52,.46-.35,.36-1.06-.16-1.3m-42.04-7.35c-.53,0-.96-.43-.96-.96s.43-.96,.96-.96,.96,.43,.96,.96-.43,.96-.96,.96"/><polygon points="32 8.31 2 20.31 2 55 7 55 7 23.69 32 13.69 57 23.69 57 55 62 55 62 20.31 32 8.31"/></g></g></svg>