<?xml version="1.0" encoding="UTF-8"?><svg id="Laag_1" xmlns="http://www.w3.org/2000/svg" xmlns:xlink="http://www.w3.org/1999/xlink" viewBox="0 0 64 64"><defs><style>.cls-1{fill:none;}.cls-2{clip-path:url(#clippath);}.cls-3{clip-path:url(#clippath-1);}</style><clipPath id="clippath"><rect class="cls-1" width="64" height="64"/></clipPath><clipPath id="clippath-1"><rect class="cls-1" width="64" height="64"/></clipPath></defs><g class="cls-2"><g class="cls-3"><path d="M58.52,39.01H8.15L51.73,13.84c.71-.41,.95-1.32,.54-2.03-.41-.71-1.32-.96-2.03-.54l-3.22,1.86-4.27-3.8c-2.42-2.16-5.96-2.52-8.76-.89L8.39,23.21c-2.81,1.62-4.26,4.86-3.61,8.04l1.6,7.75H3.62c-.82,.01-1.48,.68-1.48,1.49s.66,1.48,1.48,1.48h3.26l2.67,8.78c.95,3.12,3.83,5.26,7.1,5.26h28.85c3.26,0,6.15-2.13,7.1-5.26l2.67-8.78h3.26c.81,0,1.48-.66,1.48-1.48s-.66-1.48-1.48-1.48"/></g></g></svg>