<?xml version="1.0" encoding="UTF-8"?><svg id="Laag_1" xmlns="http://www.w3.org/2000/svg" xmlns:xlink="http://www.w3.org/1999/xlink" viewBox="0 0 64 64"><defs><style>.cls-1{fill:none;}.cls-2{clip-path:url(#clippath);}.cls-3{clip-path:url(#clippath-1);}</style><clipPath id="clippath"><rect class="cls-1" width="64" height="64"/></clipPath><clipPath id="clippath-1"><rect class="cls-1" width="64" height="64"/></clipPath></defs><g class="cls-2"><g class="cls-3"><path d="M53.67,54.15l-1.1-.71-1.1,.71s-2.99,1.92-5.76,1.92-5.73-1.91-5.76-1.92l-1.1-.71-1.1,.71s-2.99,1.92-5.76,1.92-5.73-1.91-5.76-1.92l-1.1-.72-1.1,.72s-3.01,1.92-5.76,1.92-5.73-1.91-5.76-1.92l-1.1-.71-1.1,.71s-2.99,1.92-5.76,1.92c-1.25,0-2.53-.39-3.57-.81v4.17c1.1,.34,2.33,.58,3.57,.58,2.75,0,5.42-1.18,6.86-1.94,1.44,.76,4.11,1.94,6.86,1.94s5.42-1.18,6.86-1.94c1.44,.76,4.11,1.94,6.86,1.94s5.41-1.18,6.86-1.94c1.44,.76,4.11,1.94,6.86,1.94s5.42-1.18,6.86-1.94c1.44,.76,4.11,1.94,6.86,1.94,1.24,0,2.47-.24,3.57-.58v-4.17c-1.04,.43-2.33,.82-3.57,.82-2.77,0-5.73-1.91-5.76-1.92"/><path d="M8,34h4v9.3l1.67,1.09s2.53,1.58,4.61,1.58c1.74,0,3.93-1.15,4.63-1.59l2.23-1.46,.06,.03,1.8,1.18v-4.14h10v4.14l1.86-1.21,.06,.03,2.19,1.42c.69,.44,2.86,1.58,4.61,1.58s3.93-1.15,4.62-1.59l1.66-1.08v-9.3h4c.55,0,1-.45,1-1v-1.48c0-.56-.23-1.09-.65-1.47L32.68,8.26c-.38-.35-.97-.35-1.35,0L7.65,30.05c-.41,.38-.65,.91-.65,1.47v1.48c0,.55,.45,1,1,1"/><path d="M59.43,48.07c-2.77,0-5.73-1.9-5.76-1.92l-1.1-.71-1.09,.71s-2.99,1.92-5.76,1.92-5.73-1.9-5.76-1.92l-1.1-.71-1.1,.71s-2.99,1.92-5.76,1.92-5.73-1.9-5.76-1.92l-1.1-.72-1.1,.72s-3.01,1.92-5.76,1.92-5.73-1.9-5.76-1.92l-1.1-.71-1.09,.71s-2.99,1.92-5.76,1.92c-1.25,0-2.53-.39-3.57-.81v4.17c1.1,.34,2.33,.58,3.57,.58,2.75,0,5.41-1.18,6.86-1.94,1.44,.76,4.11,1.94,6.86,1.94s5.41-1.18,6.86-1.94c1.44,.76,4.11,1.94,6.86,1.94s5.42-1.18,6.86-1.94c1.44,.76,4.11,1.94,6.86,1.94s5.42-1.18,6.86-1.94c1.44,.76,4.11,1.94,6.86,1.94,1.24,0,2.47-.24,3.57-.58v-4.17c-1.04,.43-2.33,.82-3.57,.82"/></g></g></svg>