<?xml version="1.0" encoding="UTF-8"?><svg id="Laag_1" xmlns="http://www.w3.org/2000/svg" xmlns:xlink="http://www.w3.org/1999/xlink" viewBox="0 0 64 64"><defs><style>.cls-1{fill:none;}.cls-2{clip-path:url(#clippath);}.cls-3{clip-path:url(#clippath-1);}</style><clipPath id="clippath"><rect class="cls-1" width="64" height="64"/></clipPath><clipPath id="clippath-1"><rect class="cls-1" width="64" height="64"/></clipPath></defs><g class="cls-2"><g class="cls-3"><path d="M12.17,27.64c-1.86,2.71-.93,6.43,1.93,7.15,1.81,.45,3.29-.3,4.13-.91-.76-.73-1.23-1.75-1.23-2.88,0-2.21,1.79-4,4-4h22c2.2,0,4,1.79,4,4,0,1.13-.48,2.15-1.23,2.88,.84,.61,2.32,1.37,4.13,.91,2.86-.72,3.78-4.43,1.93-7.15-2.31-3.38-7.5-3.07-11.04-9.64-4.14-7.67-4.28-16.21-4.28-16.21,0,0-3.07,8.07-7.07,13.21-3.29-1.93-4.64-5-4.64-5,0,0-.21,7.21-3.14,10.5-2.93,3.29-7.61,4.43-9.47,7.14"/><path d="M58,17h-10c-.55,0-1,.45-1,1v2c0,.55,.45,1,1,1h7v17h-10.55l-2.22-5h.77c1.1,0,2-.9,2-2s-.9-2-2-2H21c-1.1,0-2,.9-2,2s.9,2,2,2h.77l-2.22,5H9V21h7c.55,0,1-.45,1-1v-2c0-.55-.45-1-1-1H6c-2.21,0-4,1.79-4,4V59c0,.55,.45,1,1,1h5c.55,0,1-.45,1-1v-14h10.29c1.46,2.4,4.85,5,12.71,5s11.25-2.6,12.71-5h10.29v14c0,.55,.45,1,1,1h5c.55,0,1-.45,1-1V21c0-2.21-1.79-4-4-4m-31.5,20.3c-.99,0-1.8-.81-1.8-1.8s.81-1.8,1.8-1.8,1.8,.81,1.8,1.8-.81,1.8-1.8,1.8m5.5,0c-.99,0-1.8-.81-1.8-1.8s.81-1.8,1.8-1.8,1.8,.81,1.8,1.8-.81,1.8-1.8,1.8m5.5,0c-.99,0-1.8-.81-1.8-1.8s.81-1.8,1.8-1.8,1.8,.81,1.8,1.8-.81,1.8-1.8,1.8"/></g></g></svg>