<?xml version="1.0" encoding="UTF-8"?><svg id="Laag_1" xmlns="http://www.w3.org/2000/svg" xmlns:xlink="http://www.w3.org/1999/xlink" viewBox="0 0 64 64"><defs><style>.cls-1{fill:none;}.cls-2{clip-path:url(#clippath);}.cls-3{clip-path:url(#clippath-1);}</style><clipPath id="clippath"><rect class="cls-1" width="64" height="64"/></clipPath><clipPath id="clippath-1"><rect class="cls-1" width="64" height="64"/></clipPath></defs><g class="cls-2"><g class="cls-3"><path d="M47.85,27.89c-.51-6.33-2.17-20.42-7.07-25.29-1.03-1.02-2.78-.28-2.78,1.16V59c0,1.13,1.87,2.01,3,2,3.1-.03,7.63-2.11,3-30h.94c1.7,.02,3.04-1.42,2.91-3.11"/><path d="M30.99,2c-.56,0-.96,.44-.99,1l-.93,13.56c-.06,.53-.53,.94-1.06,.94s-1.08-.44-1.11-1l-.9-13.5c-.03-.56-.44-.99-1-1-.56,0-.97,.44-1,1l-.9,13.5c-.03,.56-.54,1-1.1,1s-1-.41-1.07-.94l-.93-13.56c-.03-.56-.43-1-.99-1s-.98,.44-1.01,1l-1,15c0,2.38,2.32,4.6,5.4,5.44-1.15,14.95-1.89,34.22-1.89,35.06,0,1.38,2.01,2.5,4.49,2.5s4.5-1.12,4.5-2.5c0-.81-.68-18.8-1.76-33.5,0,0-2.04-.13-3.15-.9-.2-.14-.24-.23-.24-.34,.22,.01,.43,.03,.66,.03,4.28,0,8-2.78,8-5.79l-1-15c-.03-.56-.45-1-1.01-1"/></g></g></svg>