<?xml version="1.0" encoding="UTF-8"?><svg id="Laag_1" xmlns="http://www.w3.org/2000/svg" xmlns:xlink="http://www.w3.org/1999/xlink" viewBox="0 0 24 24"><defs><style>.cls-1{fill:none;}.cls-2{clip-path:url(#clippath);}.cls-3{clip-path:url(#clippath-1);}</style><clipPath id="clippath"><rect class="cls-1" width="24" height="24"/></clipPath><clipPath id="clippath-1"><rect class="cls-1" width="24" height="24"/></clipPath></defs><g class="cls-2"><g class="cls-3"><path d="m5,21c0,.55.45,1,1,1h12c.55,0,1-.45,1-1v-13H5v13Zm10-11h2v9l-2,1v-10Zm-4,0h2v9l-2,1v-10Zm-4,0h2v9l-2,1v-10Z"/><path d="m19,4h-3v-1c0-.55-.45-1-1-1h-6c-.55,0-1,.45-1,1v1h-3c-.55,0-1,.45-1,1v2h16v-2c0-.55-.45-1-1-1"/></g></g></svg>