<?xml version="1.0" encoding="UTF-8"?><svg id="Laag_1" xmlns="http://www.w3.org/2000/svg" xmlns:xlink="http://www.w3.org/1999/xlink" viewBox="0 0 64 64"><defs><style>.cls-1{fill:none;}.cls-2{clip-path:url(#clippath);}.cls-3{clip-path:url(#clippath-1);}</style><clipPath id="clippath"><rect class="cls-1" width="64" height="64"/></clipPath><clipPath id="clippath-1"><rect class="cls-1" width="64" height="64"/></clipPath></defs><g class="cls-2"><g class="cls-3"><path d="M63.01,14.7L31.98,.97,.94,14.7l2.02,4.57L31.98,6.44l29.01,12.84,2.02-4.57Zm-14.93,5.05c-2.69-.42-4.43,1.26-4.86,3.97-.45,2.86,.81,4.71,3.43,5.12,2.04,.32,3.58-.59,4.36-2.26,.44,.65,1.26,1.47,2.53,1.16,1.9-.46,1.61-1.93,3.99-1.4,.19,.04,.33-.18,.2-.33-.69-.75-2.21-2.07-4.07-1.91-1.01,.09-1.69,.38-2.15,.69,.37-2.87-.95-4.65-3.43-5.04m.17,11.63c-3.53-.78-6.01,.59-8.67-4.2-.9-1.63-1.67-3.99-2.34-7.37-1.91,.51-2.64,2.21-2.16,4.45,.86,4.1,2.28,8.02,6.01,10.41-.97,2.86-2.6,8.14-3.41,13.29-.09,.54,.34,.97,.88,.97h2.05c-.18,1.21-.3,2.26-.33,2.51-.12,.86,0,1.44,.22,2.09,.67,2.07,2.19,6.29,2.74,7.88h0c2.12-.74,2.73-2.23,2.12-4.73-.61-2.5-1.08-4.48-1.08-4.48l.99-3.25h.92c.14,.87,.26,1.62,.3,1.85,.1,.59,.44,1.14,.98,1.49,7.12,4.62,5.51,3.58,7.6,4.94h0c1.39-1.81,.43-3.39-1.05-4.95-1.46-1.55-2.02-2.11-3.24-3.33h1.62c.56,0,.98-.51,.87-1.05l-1.99-10.4c2.06,1.75,3.82,2.96,5.89,3.24,2.19,.3,4.07-.07,4.43-2.07-2.68-.51-4.66-1.27-6.41-2.36-4.16-2.59-3.72-4.21-6.95-4.93m-16.75-8.38c0-1.93-1.57-3.5-3.5-3.5-1.19,0-2.23,.6-2.87,1.5H14.87c-.63-.9-1.68-1.5-2.87-1.5-1.93,0-3.5,1.57-3.5,3.5,0,1.19,.59,2.23,1.5,2.87v10.27c-.91,.63-1.5,1.68-1.5,2.87s.59,2.23,1.5,2.87v10.27c-.91,.63-1.5,1.68-1.5,2.87,0,1.93,1.57,3.5,3.5,3.5,1.19,0,2.23-.6,2.87-1.5h10.27c.63,.9,1.68,1.5,2.87,1.5,1.93,0,3.5-1.57,3.5-3.5,0-1.19-.6-2.23-1.5-2.87v-10.27c.9-.63,1.5-1.68,1.5-2.87s-.6-2.23-1.5-2.87v-10.27c.9-.63,1.5-1.68,1.5-2.87m-11.5,29.53c-3.06,0-5.53-2.48-5.53-5.53s2.48-5.53,5.53-5.53,5.53,2.48,5.53,5.53-2.48,5.53-5.53,5.53m6-16.4c-.34,.24-.63,.53-.87,.87H14.87c-.24-.34-.53-.63-.87-.87v-10.27c.34-.24,.63-.53,.87-.87h10.27c.24,.34,.53,.63,.87,.87v10.27Z"/></g></g></svg>