<?xml version="1.0" encoding="UTF-8"?><svg id="Laag_1" xmlns="http://www.w3.org/2000/svg" viewBox="0 0 64 64"><defs><style>.cls-1{fill:none;}</style></defs><rect class="cls-1" width="64" height="64"/><path d="m37.48,38.46c-.85-.29-1.63-.54-2.25-.73-.15-1.12-.36-2.41-.55-3.48,1.79-2.17,2.89-4.4,3.25-6.7,1.33-1.22,2.07-3.17,2.07-5.56,0-.74,0-2.7-1.23-4.04.3-3.34.52-8.5-.79-10.59-1.6-2.56-3.55-3.82-7.26-2.98-2.44-1.16-4.09-1.88-8.36-.84-2.96.72-6.21,1.91-7.92,3.88-1.65,1.91-1.54,7.22-1.27,10.61-1.16,1.33-1.16,3.23-1.16,3.96,0,2.39.74,4.33,2.06,5.55.38,2.51,1.61,4.91,3.71,7.26-.11.81-.23,1.75-.35,2.73-2.51.73-9.67,3-12.03,5.57-2.87,3.12-4.39,14.89-4.39,14.89h45.22c-1.37-3.65-3.03-6.44-4.29-8.39-2.22-3.43-4.29-6.69-4.44-11.14Zm-11.1,9.88c-2.3-1.75-6.59-5.53-6.16-9.02.24-1.91.04-.55.82-5.44-2.28-2.2-4.1-4.87-4.1-8.06-1.62-.5-2.04-2.55-2.04-3.82s.32-1.96.77-2.17c.39-.18.77-.05,1.01.09.14.65.25,1.14.29,1.31.21.85,1.02.77,1.02.77v-6.75c2.07-.15,6.19-.75,10.75-3.11l5.25,3.53v6.33s.82.08,1.02-.77c.04-.17.15-.66.29-1.31.24-.14.62-.27,1.01-.09.45.21.77.9.77,2.17s-.42,3.31-2.04,3.82c0,3.7-2.53,6.5-5.34,8.88-.78.66-2.25,1.11-3.72,1.11-1.06,0-2.13-.29-2.93-.63.61.93,1.66,2.07,3.58,2.59,3.15.83,5.46-.91,5.46-.91,0,0,.28,1.91.27,2.42.33,3.49-3.56,7.32-6.01,9.08Z"/><path d="m52,26.41c-6.58,0-11.55,4.97-11.55,11.55,0,3.83,1.85,6.7,3.99,10.01,2.08,3.22,4.44,7.51,5.91,13.16.2.75.87,1.27,1.65,1.27s1.45-.52,1.65-1.27c1.47-5.65,3.83-9.94,5.91-13.16,2.14-3.32,3.99-6.18,3.99-10.01,0-6.59-4.96-11.55-11.55-11.55Zm0,18.13c-3.62,0-6.56-2.94-6.56-6.56s2.94-6.56,6.56-6.56,6.56,2.94,6.56,6.56-2.94,6.56-6.56,6.56Z"/><circle cx="52" cy="37.98" r="3.21" transform="translate(-1.48 2.12) rotate(-2.3)"/></svg>