<?xml version="1.0" encoding="UTF-8"?><svg id="Laag_1" xmlns="http://www.w3.org/2000/svg" xmlns:xlink="http://www.w3.org/1999/xlink" viewBox="0 0 64 64"><defs><style>.cls-1{fill:none;}.cls-2{clip-path:url(#clippath);}.cls-3{clip-path:url(#clippath-1);}</style><clipPath id="clippath"><rect class="cls-1" width="64" height="64"/></clipPath><clipPath id="clippath-1"><rect class="cls-1" width="64" height="64"/></clipPath></defs><g class="cls-2"><g class="cls-3"><path d="M43.4,56.14c-6.11,0-11.23-4.33-12.46-10.08-1.15,1.35-2.49,2.52-3.56,3.28-2.3-1.75-6.59-5.53-6.16-9.02,.24-1.91,.04-.55,.82-5.44-2.28-2.2-4.1-4.87-4.1-8.06-1.62-.5-2.04-2.54-2.04-3.82s.32-1.96,.77-2.17c.39-.18,.77-.05,1.01,.09,.14,.65,.25,1.14,.29,1.31,.21,.85,1.02,.77,1.02,.77v-6.74c2.07-.15,6.19-.75,10.75-3.11l5.25,3.53v6.33s.82,.08,1.02-.77c.04-.17,.15-.66,.29-1.31,.24-.14,.62-.27,1.01-.09,.45,.21,.77,.9,.77,2.17s-.42,3.31-2.04,3.82c0,2.27-.96,4.2-2.34,5.9h-.02c-.65,.81-1.39,1.56-2.18,2.27l-.02,.02c-.26,.23-.52,.46-.78,.69h-.01c-.36,.31-.93,.6-1.61,.81h0c-.64,.2-1.37,.3-2.1,.3-1.06,0-2.12-.29-2.93-.64,.61,.93,1.66,2.08,3.58,2.59,.51,.14,.98,.19,1.44,.2h0c.06,.02,.11,0,.16,0,.21,0,.41,0,.61-.02,.09,0,.18-.01,.26-.02,.3-.04,.59-.08,.86-.15h0c.1-.02,.3-.08,.52-.15,.03,0,.06-.02,.08-.02h.02c.13-.06,.26-.1,.39-.16v-.02s.03-.02,.04-.02c.59-.27,1.16-.66,1.69-1.11l.02-.02c.53-.45,1.02-.95,1.47-1.47,.1-.12,.2-.24,.3-.35,.06-.07,.12-.14,.17-.22,.69-.87,1.3-1.78,1.79-2.63,.22-.37,.34-.61,.34-.61h0s.01-.04,.02-.05h.01c.54-1.12,.9-2.25,1.08-3.39,1.33-1.22,2.07-3.16,2.07-5.55,0-.75,0-2.7-1.23-4.04,.3-3.34,.51-8.5-.79-10.59-1.6-2.57-3.55-3.82-7.26-2.98-2.43-1.16-4.09-1.88-8.36-.84-2.96,.72-6.21,1.91-7.92,3.88-1.65,1.91-1.54,7.22-1.27,10.6-1.16,1.33-1.16,3.23-1.16,3.96,0,2.39,.74,4.33,2.06,5.55,.38,2.51,1.61,4.91,3.71,7.26-.11,.81-.23,1.75-.35,2.73-2.51,.73-9.67,3-12.03,5.57-2.87,3.12-4.39,14.89-4.39,14.89H50.82l-3.49-3.49c-1.27,.41-2.6,.63-3.93,.63"/><path d="M58.27,54.36l-6.46-6.38c.71-1.32,1.12-2.83,1.12-4.43,0-5.17-4.21-9.38-9.38-9.38s-9.38,4.21-9.38,9.38,4.21,9.38,9.38,9.38c1.58,0,3.07-.4,4.38-1.09l6.47,6.4c.43,.43,.99,.67,1.55,.72,.71,.06,1.44-.18,1.98-.72l.34-.34c.53-.53,.77-1.24,.72-1.94-.04-.58-.28-1.15-.72-1.59m-14.73-5.13c-3.14,0-5.68-2.54-5.68-5.69s2.55-5.68,5.68-5.68,5.68,2.55,5.68,5.68-2.55,5.69-5.68,5.69"/></g></g></svg>