<?xml version="1.0" encoding="UTF-8"?><svg id="Laag_1" xmlns="http://www.w3.org/2000/svg" xmlns:xlink="http://www.w3.org/1999/xlink" viewBox="0 0 64 64"><defs><style>.cls-1{fill:none;}.cls-2{clip-path:url(#clippath);}.cls-3{clip-path:url(#clippath-1);}</style><clipPath id="clippath"><rect class="cls-1" width="64" height="64"/></clipPath><clipPath id="clippath-1"><rect class="cls-1" width="64" height="64"/></clipPath></defs><g class="cls-2"><g class="cls-3"><path d="M35.45,48.74l.39,9.25h3.47l.65-9.62c-1.39,.63-2.94,.78-4.5,.37"/><path d="M19.95,46.98c-.65,.12-1.07,.12-1.47,.1l1.72,10.91h3.47l-.38-9.7c-1.21-.14-2.36-.58-3.33-1.31"/><path d="M60.12,26.47c-1.54-1.81-3.69-3.61-6.01-4.77,.39-.61,.61-1.32,.61-2.1,0-2.2-1.79-3.99-3.99-3.99-.92,0-1.76,.33-2.44,.85-1.48-1.2-3.5-1.22-4.99-.04-1.61-1.96-4.34-2.33-6.38-.98-1.66-1.91-4.39-2.2-6.39-.8-2.01-1.8-4.99-1.62-6.78,.35-2.38-1.88-5.71-1.14-7.16,1.41-2.68-1.14-5.77,.35-6.53,3.2-3.46,.06-5.78,3.63-4.31,6.83-3.18,1.82-3.26,6.25-.27,8.22-1.43,2.97,.43,6.26,3.45,6.83,.36,1.29,1.24,2.35,2.4,2.97l1.38,13.54h3.07l.6-13.52c1.23,.69,2.67,.85,4.11,.29,1.61,1.77,4.19,2.11,6.18,.82,1.93,2.14,5.21,2.15,7.15,.01,1.84,1.8,4.78,1.86,6.69,.05,.4,.24,.84,.42,1.29,.56l1.36,11.79h3.38l.3-12.49c1.17-.77,2.63-2.58,2.39-5.36,2.11-1.24,2.42-3.25,2.39-4.3-1.66-.17-3.62-.52-5.73-1.2-2.4-.77-4.1-2.64-4.85-5.25-2.61-.18-3.11-2.27-2.5-3.57,1.99-4.19,6.53-4.88,7.35-4.95,.43-.04,.54,.08,.54,.21-2.36,.89-4.73,2.76-6.08,5.6-.13,.27,.02,.62,.3,.65,3.93,.37,6.88-2.47,6.88-2.47,.18,.06,.24,.31-.08,.75-.88,1.18-2.62,2.51-4.41,3.48,.46,1.44,1.42,3,3.45,3.65,4.43,1.42,8.65,1.42,10.83,1.04,4.8-.86,4.8-4.95,2.8-7.29m-7.68,.49c-.77,0-1.4-.63-1.4-1.4s.63-1.4,1.4-1.4,1.4,.63,1.4,1.4-.63,1.4-1.4,1.4"/></g></g></svg>