<?xml version="1.0" encoding="UTF-8"?><svg id="Laag_1" xmlns="http://www.w3.org/2000/svg" xmlns:xlink="http://www.w3.org/1999/xlink" viewBox="0 0 64 64"><defs><style>.cls-1{fill:none;}.cls-2{clip-path:url(#clippath);}.cls-3{clip-path:url(#clippath-1);}</style><clipPath id="clippath"><rect class="cls-1" width="64" height="64"/></clipPath><clipPath id="clippath-1"><rect class="cls-1" width="64" height="64"/></clipPath></defs><g class="cls-2"><g class="cls-3"><path d="M54.89,4H21c-6.93,0-14,2.69-14,9.97V53.16c0,4.09,2.12,6.84,6,6.84H46.88c1.17,0,2.12-.95,2.12-2.11V16.11c0-1.17-.95-2.11-2.12-2.11H13.88c-.91,0-1.34-.82-1.02-1.75,1.01-2.88,6.26-3.25,8.14-3.25h31V51h3c1.1,0,2-.9,2-2V6.11c0-1.17-.95-2.11-2.11-2.11"/></g></g></svg>