<?xml version="1.0" encoding="UTF-8"?><svg id="Laag_1" xmlns="http://www.w3.org/2000/svg" xmlns:xlink="http://www.w3.org/1999/xlink" viewBox="0 0 64 64"><defs><style>.cls-1{fill:none;}.cls-2{clip-path:url(#clippath);}.cls-3{clip-path:url(#clippath-1);}</style><clipPath id="clippath"><rect class="cls-1" width="64" height="64"/></clipPath><clipPath id="clippath-1"><rect class="cls-1" width="64" height="64"/></clipPath></defs><g class="cls-2"><g class="cls-3"><path d="M42.9,11.79c3.02,.66,5.23-1.07,5.9-4.11,.76-3.47-.66-5.73-3.6-6.37-3.1-.68-5.25,1.15-5.93,4.28-.72,3.3,.61,5.54,3.63,6.2"/><path d="M48.91,26.45c-.69-1.69-1.63-8.04-2.38-9.78-.76-1.76-5.94-4.51-9.5-4.66-1.89-.08-8.53,.58-10.75,2.81-.73,.78-1.05,1.85-1.04,2.85-.07,3.13,2.65,7.89,4.32,10.54-1.37,4.59-1.07,4.99,.14,8.94,.76,11.18,.68,9.77,.69,10.54-.03,2.66-.29,6.35-.38,9.93-.11,4.17,3.05,4.99,3.78,5.12,.61-3.5,1.89-11.15,2.22-14.65-.83-1.99-2.55-6.09-3.38-8.21-.08-.2-.07-.35-.05-.47,.55,.78,4.09,5.9,4.3,6.83,.64,2.26,1.62,8.15,2.56,12.15,1.09,4.62,5.34,4.2,5.52,4.18-.38-4.31-.84-11.81-1.35-16.13-.27-2.21-.38-2.44-.73-3.63-.9-2.81-2.55-6.41-3.81-9.08,.93-3.94,2.74-8.22,4.29-11.47,.37,1.7,1.04,4.28,1.74,5.85,.54,1.31,2.43,3.98,3.08,4.98,2.27,3.49,5.5,2.41,5.53,2.4-1.8-3.45-4.27-7.69-4.79-9.04m-18-2.81c-.56-1.36-1.58-3.58-1.62-5.91,1.1-.45,3.24-.8,4.27-.87-1.11,2.11-1.98,4.61-2.65,6.79"/><polygon points="11.97 22.69 23.75 25.93 17.26 21.7 21.27 17.71 9.49 14.47 15.98 18.7 11.97 22.69"/><polygon points="16.25 28.44 6.61 35.96 13.89 33.28 14.69 38.88 24.33 31.36 17.06 34.04 16.25 28.44"/></g></g></svg>