<?xml version="1.0" encoding="UTF-8"?><svg id="Laag_1" xmlns="http://www.w3.org/2000/svg" xmlns:xlink="http://www.w3.org/1999/xlink" viewBox="0 0 64 64"><defs><style>.cls-1{fill:none;}.cls-2{clip-path:url(#clippath);}.cls-3{clip-path:url(#clippath-1);}</style><clipPath id="clippath"><rect class="cls-1" width="64" height="64"/></clipPath><clipPath id="clippath-1"><rect class="cls-1" width="64" height="64"/></clipPath></defs><g class="cls-2"><g class="cls-3"><path d="M42.43,28.88c-.45-.36-1.16-.81-2.3-1.66-1.06-.79-2.17-1.68-2.64-2.31-.38-.49-.44-1.94-.7-3.37-.37-2.05-3.29-6.38-3.29-6.38,.6-2.33-1.23-9.38-12.87-6.27C5.17,13.02,5,24.11,4.98,25.55c-.12,8.61,4.61,12.24,8.14,16.52,4.15,5.04,5.68,6.2,2.55,12.93h19.82c-.67-3.55-.58-6.11-.58-6.11-2.49-.24-4-1.06-5.04-1.85-.64-.49-.45-.61-.4-.69,0,0,2.88,1.48,7.96,1.05,2.69-.23,4.32-1.77,3.58-4.97-.16-.69,.18-1.4,.53-1.95,.51-.82,.96-1.26,.22-2.23-.32-.42-.7-.75-.7-.75,0,0,.7-.59,.94-1.27,.38-1.07-.15-1.13-.62-1.93-.39-.67-.4-1.41-.4-1.41,0,0,.93-.79,1.58-1.48,.36-.38,1.23-1.44-.14-2.53"/><path d="M59,45.37l-9.69-8.13c.05-.34-.05-.69-.33-.93l-3.83-3.21c-.42-.35-1.05-.3-1.41,.12-.35,.42-.3,1.05,.12,1.41l3.83,3.21c.28,.24,.65,.27,.97,.16l9.69,8.13c.21,.18,.53,.15,.7-.06,.18-.21,.15-.53-.06-.71"/></g></g></svg>