<?xml version="1.0" encoding="UTF-8"?><svg id="Laag_1" xmlns="http://www.w3.org/2000/svg" xmlns:xlink="http://www.w3.org/1999/xlink" viewBox="0 0 64 64"><defs><style>.cls-1{fill:none;}.cls-2{clip-path:url(#clippath);}.cls-3{clip-path:url(#clippath-1);}</style><clipPath id="clippath"><rect class="cls-1" width="64" height="64"/></clipPath><clipPath id="clippath-1"><rect class="cls-1" width="64" height="64"/></clipPath></defs><g class="cls-2"><g class="cls-3"><path d="M55,7H9c-1.1,0-2,.9-2,2V43.99c0,1.1,.9,2,2,2H25.5s-.53,1.94-1.5,5.01c-.58,1.84-2.38,1.99-2.87,2h-2.13c-.55,0-1,.45-1,1v2h28v-2c0-.55-.45-1-1-1h-2.13c-.49,0-2.29-.16-2.87-2-.39-1.23-.7-2.27-.94-3.08,0,0-4.4-.64-8.98-1.53-.32-.06-.28-.3-.24-.38h25.17c1.1,0,2-.9,2-2V9c0-1.1-.9-2-2-2m-3,32H12V12H52v27Z"/><polygon points="33.48 28.14 37.35 30.64 38.85 28.32 35.13 25.91 37.89 24.11 26.02 21.2 32.46 30.96 33.48 28.14"/></g></g></svg>