<?xml version="1.0" encoding="UTF-8"?><svg id="Laag_1" xmlns="http://www.w3.org/2000/svg" xmlns:xlink="http://www.w3.org/1999/xlink" viewBox="0 0 64 64"><defs><style>.cls-1{fill:none;}.cls-2{clip-path:url(#clippath);}.cls-3{clip-path:url(#clippath-1);}</style><clipPath id="clippath"><rect class="cls-1" width="64" height="64"/></clipPath><clipPath id="clippath-1"><rect class="cls-1" width="64" height="64"/></clipPath></defs><g class="cls-2"><polygon points="29.92 27.36 29.92 26 25.15 26 25.15 34.98 29.96 34.98 29.96 33.63 26.82 33.63 26.82 31.04 29.67 31.04 29.67 29.68 26.82 29.68 26.82 27.36 29.92 27.36"/><g class="cls-3"><path d="M32.06,26v5.87c0,2.09,1.05,3.22,3.38,3.22,2.15,0,3.46-1.33,3.46-3.34v-5.75h-1.58v5.71c0,1.25-.64,1.92-1.78,1.92s-1.81-.6-1.81-1.94v-5.68h-1.66Z"/><path d="M51.41,20.41l-14.83-14.83c-.38-.38-.88-.59-1.41-.59H14c-1.1,0-2,.9-2,2V53c0,1.1,.9,2,2,2h18v-5h-15V10h16.71l.93-3.14c.11-.34,.36-.23,.36-.23v14.37c0,.55,.45,1,1,1h14.37s.12,.25-.22,.36l-3.15,.93v26.71h-5v5h8c1.1,0,2-.9,2-2V21.83c0-.53-.21-1.04-.59-1.42"/><path d="M37,41c-2.76,0-5,2.24-5,5,0,1.63,.79,3.07,2,3.98v8.46c0,.5,.61,.75,.96,.4l1.64-1.64c.22-.22,.58-.22,.8,0l1.64,1.64c.35,.35,.96,.1,.96-.4v-8.46c1.21-.91,2-2.35,2-3.98,0-2.76-2.24-5-5-5m0,7c-1.1,0-2-.9-2-2s.9-2,2-2,2,.9,2,2-.9,2-2,2"/></g></g></svg>