<?xml version="1.0" encoding="UTF-8"?><svg id="Laag_1" xmlns="http://www.w3.org/2000/svg" xmlns:xlink="http://www.w3.org/1999/xlink" viewBox="0 0 64 64"><defs><style>.cls-1{fill:none;}.cls-2{clip-path:url(#clippath);}.cls-3{clip-path:url(#clippath-1);}</style><clipPath id="clippath"><rect class="cls-1" width="64" height="64"/></clipPath><clipPath id="clippath-1"><rect class="cls-1" width="64" height="64"/></clipPath></defs><g class="cls-2"><g class="cls-3"><path d="M52.02,14.72l-3.02-1.12V2.44c0-.7-.69-1.18-1.35-.94l-15.65,5.8L16.35,1.5c-.65-.24-1.35,.24-1.35,.94V13.6l-3.02,1.12c-.59,.22-.98,.78-.98,1.41V48.28c0,.74,.77,1.22,1.44,.9l18.04-8.79,1.16-5.82c.1-.32,.31-.27,.36-.25v5.33l19.56,9.53c.67,.32,1.44-.16,1.44-.9V16.13c0-.63-.39-1.19-.98-1.41M18,5.8l8.82,3.42-8.82,3.27V5.8Zm11,25.41l-14,6.13V17.83l14-5.43V31.2ZM46,5.8v6.69l-8.82-3.27,8.82-3.42Zm3,31.53l-14-6.13V12.39l14,5.43v19.5Z"/><path d="M44.85,49.59l-10.54-2.9c-.77-.26-1.42,.16-1.84,.85-.28,.71-.14,1.55,.42,1.98l3.18,2.47c-6.51,1.82-11.8-.16-14.97-2.08-2.14-1.3-5.72,2.33-3.11,3.98,4.35,2.76,11.44,5.47,20.06,2.77l-.57,4.1c-.07,.64,.35,1.34,1.06,1.63s1.49-.07,1.84-.71l5.37-9.9c.21-.35,.21-.92,.07-1.34-.14-.42-.56-.71-.99-.85"/></g></g></svg>