<?xml version="1.0" encoding="UTF-8"?><svg id="Laag_1" xmlns="http://www.w3.org/2000/svg" xmlns:xlink="http://www.w3.org/1999/xlink" viewBox="0 0 64 64"><defs><style>.cls-1{fill:none;}.cls-2{clip-path:url(#clippath);}.cls-3{clip-path:url(#clippath-1);}</style><clipPath id="clippath"><rect class="cls-1" width="64" height="64"/></clipPath><clipPath id="clippath-1"><rect class="cls-1" width="64" height="64"/></clipPath></defs><g class="cls-2"><g class="cls-3"><path d="M59.13,28.33c-3.27-5.23-11.99-16.33-27.13-16.33S8.14,23.09,4.87,28.33c-1.02,1.64-1.02,3.71,0,5.35,3.27,5.23,11.99,16.33,27.13,16.33s23.86-11.09,27.13-16.33c1.02-1.64,1.02-3.71,0-5.35m-27.13-7.43c3.37,0,6.1,2.73,6.1,6.1s-2.73,6.1-6.1,6.1-6.1-2.73-6.1-6.1,2.73-6.1,6.1-6.1m0,24.1c-15.38,0-22.22-14-22.22-14,0,0,3.1-6.34,9.82-10.49-.78,1.49-1.31,3.12-1.51,4.84-.97,8.47,5.63,15.65,13.91,15.65,7.37,0,13.42-5.7,13.96-12.94,.36-4.83-4.08-7.81-8.46-10.13-.18-.1-.17-.3-.16-.34,11.64,2.67,16.88,13.41,16.88,13.41,0,0-6.84,14-22.22,14"/></g></g></svg>