<?xml version="1.0" encoding="UTF-8"?><svg id="Laag_1" xmlns="http://www.w3.org/2000/svg" viewBox="0 0 64 64"><defs><style>.cls-1{fill:none;}</style></defs><rect class="cls-1" width="64" height="64"/><path d="m20.29,37.79h4.27l.76,2.96h3.68l-4.16-14.27h-4.49l-4.18,14.27h3.36l.76-2.96Zm2.13-8.1l1.45,5.42h-2.9l1.45-5.42Z"/><path d="m34.13,36.1c.37.04.75.05,1.24.05,3.19,0,5.33-2.04,5.33-5.08,0-2.83-1.95-4.6-5.08-4.6h-4.72v14.27h3.23v-4.65Zm-.04-6.96h1.11c1.42,0,2.14.71,2.14,2.12s-.87,2.21-2.33,2.21c-.34,0-.65-.02-.93-.05v-4.28Z"/><rect x="42.88" y="26.48" width="3.23" height="14.27"/><path d="m54,12H10c-1.66,0-3,1.34-3,3v34c0,1.66,1.34,3,3,3h44c1.66,0,3-1.34,3-3V15c0-1.66-1.34-3-3-3Zm-37.5,2c.83,0,1.5.67,1.5,1.5s-.67,1.5-1.5,1.5-1.5-.67-1.5-1.5.67-1.5,1.5-1.5Zm-5,0c.83,0,1.5.67,1.5,1.5s-.67,1.5-1.5,1.5-1.5-.67-1.5-1.5.67-1.5,1.5-1.5Zm42.5,35H10v-30h44v30Z"/></svg>