<?xml version="1.0" encoding="UTF-8"?><svg id="Laag_1" xmlns="http://www.w3.org/2000/svg" xmlns:xlink="http://www.w3.org/1999/xlink" viewBox="0 0 64 64"><defs><style>.cls-1{fill:none;}.cls-2{clip-path:url(#clippath);}.cls-3{clip-path:url(#clippath-1);}</style><clipPath id="clippath"><rect class="cls-1" width="64" height="64"/></clipPath><clipPath id="clippath-1"><rect class="cls-1" width="64" height="64"/></clipPath></defs><g class="cls-2"><g class="cls-3"><path d="M42,27.95V11.84c0-.28-.11-.55-.31-.74l-7.78-7.78c-.2-.2-.46-.31-.74-.31h-11.11c-.58,0-1.05,.47-1.05,1.05V27.95c0,.58,.47,1.05,1.05,1.05h18.9c.58,0,1.05-.47,1.05-1.05m-3-1.95h-15V6h9v5c0,.55,.45,1,1,1h5v14Z"/><path d="M13.91,34.31c-.2-.2-.46-.31-.74-.31H2.05c-.58,0-1.05,.47-1.05,1.05v23.9c0,.58,.47,1.05,1.05,1.05H20.95c.58,0,1.05-.47,1.05-1.05v-16.11c0-.28-.11-.55-.31-.74l-7.78-7.78Zm5.09,22.69H4v-20H13v5c0,.55,.45,1,1,1h5v14Z"/><path d="M61.69,42.09l-7.78-7.78c-.2-.2-.46-.31-.74-.31h-11.11c-.58,0-1.05,.47-1.05,1.05v23.9c0,.58,.47,1.05,1.05,1.05h18.9c.58,0,1.05-.47,1.05-1.05v-16.11c0-.28-.11-.55-.31-.74m-2.69,14.91h-15v-20h9v5c0,.55,.45,1,1,1h5v14Z"/><polygon points="33 31 30 31 30 40.17 24 43.92 24 47.46 31.5 42.77 39 47.46 39 43.92 33 40.17 33 31"/></g></g></svg>