<?xml version="1.0" encoding="UTF-8"?><svg id="Laag_1" xmlns="http://www.w3.org/2000/svg" xmlns:xlink="http://www.w3.org/1999/xlink" viewBox="0 0 64 64"><defs><style>.cls-1{fill:none;}.cls-2{clip-path:url(#clippath);}.cls-3{clip-path:url(#clippath-1);}</style><clipPath id="clippath"><rect class="cls-1" width="64" height="64"/></clipPath><clipPath id="clippath-1"><rect class="cls-1" width="64" height="64"/></clipPath></defs><g class="cls-2"><g class="cls-3"><path d="M10.95,20.64l8.57,2.68c.03-4.07-.68-9.02-4.36-12.95,.11-.18,.35-.2,.64-.05,3.35,1.66,6.02,6.24,6.05,13.68v.02H55.72c-.05-1.01-.98-16-12.22-16H16.25c-5.5,0-7.31,5.43-8.16,11.72,.16,3.69,.96,16.94,1.24,20.51,.05,.57,.33,1.08,.78,1.43l8.5,6.17,.86-21.97-8.91-5.02c0-.06,.07-.26,.4-.2"/><path d="M53.55,37.35l1.86-11.35H21.86l-.86,22h10v-.45c0-6.13,7.31-10.75,17-10.75,1.96,0,3.82,.2,5.55,.55m-14.61-4.32l-.14,1.97h-2l.14-2.03c-.7-.38-1.19-1.11-1.19-1.97,0-1.24,1.01-2.25,2.24-2.25s2.25,1.01,2.25,2.25c0,.9-.54,1.68-1.31,2.03"/><path d="M48,40c-7.85,0-14,3.37-14,7.67v3.65c0,4.3,6.15,7.68,14,7.68s14-3.37,14-7.68v-3.65c0-4.3-6.15-7.67-14-7.67m0,13.15c-6.24,0-11.3-2.31-11.3-5.15s5.06-5.15,11.3-5.15,11.3,2.31,11.3,5.15-5.06,5.15-11.3,5.15"/><path d="M52.07,45.77c.21,.52,.29,.78,.29,1.26,0,.62-.59,1.11-2.03,1.33v-1.76h-1.52v1.89c-.19,.01-.38,.02-.61,.02-.27,0-.52,0-.79-.02v-1.89h-1.56v1.75c-1.4-.21-2.13-.66-2.13-1.38,0-.41,.08-.65,.25-1.15h-2.17c-.17,.43-.23,.73-.23,1.12,0,1.42,1.44,2.42,4.28,2.78v.68h1.56v-.56c.31,.02,.67,.02,1.02,.02h.38v.54h1.52v-.62c2.78-.3,4.11-1.26,4.11-2.67,0-.55-.06-.79-.31-1.34h-2.06Z"/></g></g></svg>