<?xml version="1.0" encoding="UTF-8"?><svg id="Laag_1" xmlns="http://www.w3.org/2000/svg" xmlns:xlink="http://www.w3.org/1999/xlink" viewBox="0 0 64 64"><defs><style>.cls-1{fill:none;}.cls-2{clip-path:url(#clippath);}.cls-3{clip-path:url(#clippath-1);}</style><clipPath id="clippath"><rect class="cls-1" width="64" height="64"/></clipPath><clipPath id="clippath-1"><rect class="cls-1" width="64" height="64"/></clipPath></defs><g class="cls-2"><g class="cls-3"><path d="M55.89,36l-.9,1c-.57,.63-1.38,1-2.23,1H14.68c-.94,0-1.8-.43-2.36-1.15-.2,.51-.32,1.06-.32,1.65,0,1.45,.57,2.44,2.63,5.06,2.45,3.12,4.48,4.44,7.15,4.44h27.68c1.94,0,3.53-.46,5.97-2.58,.76-.66,1.59-1.48,2.55-2.49,1.67-1.77,3.03-2.96,3.03-5.43,0-.52-.08-1.02-.21-1.5h-4.89Zm-33.89,10c-1.66,0-3-1.34-3-3s1.34-3,3-3,3,1.34,3,3-1.34,3-3,3m9,0c-1.66,0-3-1.34-3-3s1.34-3,3-3,3,1.34,3,3-1.34,3-3,3m9,0c-1.66,0-3-1.34-3-3s1.34-3,3-3,3,1.34,3,3-1.34,3-3,3m9,0c-1.66,0-3-1.34-3-3s1.34-3,3-3,3,1.34,3,3-1.34,3-3,3"/><path d="M62.72,26h-19.98c-.02-.06-.07-.26,.25-.36l6.19-1.02h0l7.29-1.22c.36-.06,.65-.31,.78-.65l.8-2.22c.22-.6-.18-1.25-.82-1.33l-14.12-1.77c-2.9-.36-5.84-.4-8.75-.1l-4.8,.49c-.36,.04-.69,.18-.96,.42l-1.85,1.63-6.04-.53c-.81-.07-1.56,.26-2.07,.82l-16.45-1.44c-.55-.05-1.04,.36-1.08,.91l-.09,1c-.05,.55,.36,1.04,.91,1.08l16.45,1.44c.4,.64,1.08,1.1,1.89,1.17l5.35,.47,1.46,1.34-14.05,4.52c-.55,.18-.84,.78-.62,1.32l1.35,3.38c.15,.38,.52,.63,.93,.63H52.76c.28,0,.55-.12,.74-.33l1.2-1.34c.19-.21,.46-.33,.74-.33h5.77c.46,0,.86-.31,.97-.76l1.5-6c.16-.63-.32-1.24-.97-1.24"/></g></g></svg>