<?xml version="1.0" encoding="UTF-8"?><svg id="Laag_1" xmlns="http://www.w3.org/2000/svg" viewBox="0 0 64 64"><defs><style>.cls-1{fill:none;}</style></defs><rect class="cls-1" width="64" height="64"/><rect class="cls-1" width="64" height="64"/><path d="m42,8v20h5V5c0-1.1-.9-2-2-2h-21.17c-.53,0-1.04.21-1.41.59l-14.83,14.83c-.37.38-.59.88-.59,1.41v31.17c0,1.1.9,2,2,2h13v-5h-10v-26.71l-3.15-.93c-.34-.11-.22-.36-.22-.36h14.37c.55,0,1-.45,1-1V4.63s.25-.11.36.23l.93,3.13h16.71Z"/><path d="m36.45,31h-8.91c-1.41,0-2.55,1.14-2.55,2.55v8.91c0,1.41,1.14,2.55,2.55,2.55h8.91c1.41,0,2.55-1.14,2.55-2.55v-8.91c0-1.41-1.14-2.55-2.55-2.55Zm-1.02,8h-2.44v2.44c0,.55-.45,1-1,1s-1-.45-1-1v-2.44h-2.44c-.55,0-1-.45-1-1s.45-1,1-1h2.44v-2.44c0-.55.45-1,1-1s1,.45,1,1v2.44h2.44c.55,0,1,.45,1,1s-.45,1-1,1Z"/><path d="m53.45,31h-8.91c-1.41,0-2.55,1.14-2.55,2.55v8.91c0,1.41,1.14,2.55,2.55,2.55h8.91c1.41,0,2.55-1.14,2.55-2.55v-8.91c0-1.41-1.14-2.55-2.55-2.55Zm-1.02,8h-6.87c-.55,0-1-.45-1-1s.45-1,1-1h6.87c.55,0,1,.45,1,1s-.45,1-1,1Z"/><path d="m53.45,48h-8.91c-1.41,0-2.55,1.14-2.55,2.55v8.91c0,1.41,1.14,2.55,2.55,2.55h8.91c1.41,0,2.55-1.14,2.55-2.55v-8.91c0-1.41-1.14-2.55-2.55-2.55Zm-.95,10h-7c-.55,0-1-.45-1-1s.45-1,1-1h7c.55,0,1,.45,1,1s-.45,1-1,1Zm0-4h-7c-.55,0-1-.45-1-1s.45-1,1-1h7c.55,0,1,.45,1,1s-.45,1-1,1Z"/><path d="m36.45,48h-8.91c-1.41,0-2.55,1.14-2.55,2.55v8.91c0,1.41,1.14,2.55,2.55,2.55h8.91c1.41,0,2.55-1.14,2.55-2.55v-8.91c0-1.41-1.14-2.55-2.55-2.55Zm-1,9.04c.39.39.39,1.02,0,1.41-.2.2-.45.29-.71.29s-.51-.1-.71-.29l-2.04-2.04-2.04,2.04c-.2.2-.45.29-.71.29s-.51-.1-.71-.29c-.39-.39-.39-1.02,0-1.41l2.04-2.04-2.04-2.04c-.39-.39-.39-1.02,0-1.41.39-.39,1.02-.39,1.41,0l2.04,2.04,2.04-2.04c.39-.39,1.02-.39,1.41,0,.39.39.39,1.02,0,1.41l-2.04,2.04,2.04,2.04Z"/></svg>