<?xml version="1.0" encoding="UTF-8"?><svg id="Laag_1" xmlns="http://www.w3.org/2000/svg" xmlns:xlink="http://www.w3.org/1999/xlink" viewBox="0 0 64 64"><defs><style>.cls-1{fill:none;}.cls-2{clip-path:url(#clippath);}.cls-3{clip-path:url(#clippath-1);}</style><clipPath id="clippath"><rect class="cls-1" width="64" height="64"/></clipPath><clipPath id="clippath-1"><rect class="cls-1" width="64" height="64"/></clipPath></defs><g class="cls-2"><g class="cls-3"><path d="M32,8c-13.25,0-24,10.74-24,24s10.74,24,24,24,24-10.74,24-24S45.26,8,32,8m20.04,26.61v.03c-.09,.72-.8,1.21-1.51,1.05-5.3-1.21-7.17-1.82-7.46-.72-.29,1.1,1.62,1.51,6.82,3.11,.69,.21,1.06,.98,.78,1.65v.02c-.29,.67-1.09,.94-1.73,.61-4.81-2.54-6.45-3.61-7.02-2.62-.57,.99,1.18,1.88,5.79,4.77,.62,.39,.77,1.23,.32,1.8,0,0-.01,.01-.02,.02-.44,.57-1.28,.62-1.81,.14-3.99-3.7-5.3-5.16-6.11-4.35-.81,.81,.65,2.12,4.35,6.11,.49,.53,.43,1.36-.13,1.81l-.02,.02c-.57,.45-1.41,.29-1.8-.32-2.89-4.61-3.78-6.36-4.77-5.79-.99,.57,.08,2.22,2.62,7.02,.34,.64,.06,1.44-.6,1.71h-.02c-.67,.29-1.43-.08-1.65-.77-1.6-5.2-2.01-7.11-3.11-6.82-1.1,.3-.5,2.16,.72,7.46,.16,.71-.32,1.41-1.04,1.5h-.03c-.71,.09-1.34-.47-1.37-1.18-.2-5.43-.1-7.4-1.24-7.4s-1.04,1.96-1.24,7.4c-.03,.72-.66,1.27-1.37,1.18h-.03c-.72-.09-1.21-.8-1.04-1.51,1.21-5.3,1.82-7.17,.72-7.46-1.1-.3-1.51,1.62-3.11,6.82-.21,.69-.98,1.06-1.65,.78h-.02c-.66-.29-.94-1.09-.6-1.72,2.54-4.81,3.61-6.45,2.62-7.02-.99-.57-1.88,1.18-4.77,5.79-.39,.61-1.23,.77-1.8,.32l-.02-.02c-.57-.44-.62-1.28-.14-1.81,3.7-3.99,5.16-5.3,4.35-6.11-.81-.81-2.12,.65-6.11,4.35-.53,.49-1.37,.43-1.81-.14l-.02-.02c-.45-.57-.29-1.41,.32-1.8,4.61-2.89,6.36-3.78,5.79-4.77-.57-.99-2.22,.08-7.02,2.62-.64,.34-1.44,.06-1.71-.61v-.02c-.29-.67,.08-1.43,.77-1.65,5.19-1.6,7.11-2.01,6.82-3.11s-2.16-.5-7.46,.72c-.71,.16-1.42-.32-1.5-1.05v-.03c-.09-.71,.46-1.34,1.18-1.37,5.43-.2,7.39-.1,7.39-1.24s-1.96-1.04-7.39-1.24c-.72-.03-1.27-.66-1.18-1.37v-.03c.09-.72,.8-1.21,1.51-1.04,5.3,1.21,7.17,1.82,7.46,.72,.3-1.1-1.62-1.51-6.82-3.11-.69-.21-1.06-.98-.78-1.65v-.02c.29-.66,1.09-.94,1.72-.6,4.81,2.54,6.45,3.61,7.02,2.62,.57-.99-1.18-1.88-5.79-4.77-.62-.39-.77-1.23-.32-1.8l.02-.02c.44-.56,1.28-.62,1.81-.13,3.99,3.7,5.3,5.16,6.11,4.35,.81-.81-.65-2.12-4.35-6.11-.49-.53-.43-1.37,.14-1.81l.02-.02c.57-.45,1.41-.29,1.8,.32,2.89,4.61,3.78,6.36,4.77,5.78,.99-.57-.08-2.22-2.62-7.02-.34-.64-.06-1.44,.6-1.71h.02c.67-.29,1.43,.08,1.65,.77,1.6,5.19,2.01,7.11,3.11,6.82,1.1-.3,.49-2.16-.72-7.46-.16-.71,.32-1.42,1.04-1.5h.03c.71-.09,1.34,.46,1.37,1.18,.2,5.43,.1,7.4,1.24,7.4s1.04-1.96,1.24-7.4c.03-.72,.66-1.27,1.37-1.18h.03c.72,.09,1.21,.8,1.04,1.51-1.21,5.3-1.82,7.17-.72,7.46,1.1,.29,1.51-1.62,3.11-6.82,.21-.69,.98-1.06,1.65-.78h.02c.67,.29,.94,1.09,.6,1.73-2.54,4.81-3.61,6.45-2.62,7.02,.99,.57,1.88-1.18,4.77-5.78,.39-.62,1.23-.77,1.8-.32l.02,.02c.56,.44,.62,1.28,.13,1.81-3.7,3.99-5.16,5.3-4.35,6.11,.81,.81,2.12-.65,6.11-4.35,.53-.49,1.37-.43,1.81,.14l.02,.02c.45,.57,.29,1.41-.32,1.8-4.61,2.89-6.36,3.78-5.79,4.77,.57,.99,2.22-.08,7.02-2.62,.64-.34,1.44-.06,1.71,.6v.02c.29,.67-.08,1.43-.77,1.65-5.19,1.6-7.11,2.01-6.82,3.11,.3,1.1,2.16,.49,7.46-.72,.71-.16,1.42,.32,1.5,1.04v.03c.09,.71-.46,1.35-1.18,1.37-5.43,.2-7.4,.1-7.4,1.24s1.96,1.04,7.4,1.24c.72,.03,1.27,.66,1.18,1.37"/><path d="M32,23c-1.05,0-2.06,.19-3,.52,1.23,.69,2.06,1.99,2.06,3.5,0,2.23-1.81,4.04-4.04,4.04-1.51,0-2.81-.84-3.5-2.06-.33,.94-.52,1.95-.52,3,0,4.97,4.03,9,9,9s9-4.03,9-9-4.03-9-9-9"/></g></g></svg>