<?xml version="1.0" encoding="UTF-8"?><svg id="Laag_1" xmlns="http://www.w3.org/2000/svg" xmlns:xlink="http://www.w3.org/1999/xlink" viewBox="0 0 64 64"><defs><style>.cls-1{fill:none;}.cls-2{clip-path:url(#clippath);}.cls-3{clip-path:url(#clippath-1);}</style><clipPath id="clippath"><rect class="cls-1" width="64" height="64"/></clipPath><clipPath id="clippath-1"><rect class="cls-1" width="64" height="64"/></clipPath></defs><g class="cls-2"><g class="cls-3"><path d="M15,9H49v23.8c.4,0,2.59,.01,5,.03V15l1.7-7.96c.61-2.84-1.91-5.36-4.75-4.75l-7.95,1.7h-.66c-3.26-.65-6.69-1-10.24-1s-6.96,.35-10.22,1h-.88l-7.96-1.7c-2.84-.61-5.36,1.91-4.75,4.75l1.71,7.96V49l-1.71,7.96c-.61,2.84,1.91,5.36,4.75,4.75l7.96-1.71h.9c3.22,.64,6.6,.99,10.1,1v-6H15V9Zm22.01,12.16c0,.26,0,7.84,0,14.65,.43-.27,.89-.51,1.37-.75l-1.02-14.42c-.19-.07-.33,.13-.34,.52m-11.22,15c-1.35-.93-2.21-4.66-2.19-6.16,.01-1.17,.28-1.82,.32-2.98,.02-.75-.29-2.14,.31-3.85h0s5-3.47,11.59,6.02c0,0,.18-.13,.03-.59-.6-1.83-2.78-6.64-7.06-7.61-1.53-.35-2.63-.19-3.38,.07,.3-.39,.67-.79,1.1-1.19,1.56-1.45,5.09-2.49,5.09-2.49,1.97-3.19,8.26-1.23,9.45,5.93l2.02,10.14c1.24-.27,2.55-.47,3.93-.56V11H17V53h6.44c2.48-10.15,7.31-12.75,7.31-12.75l-.76-2.18c2.58-1.67,3.16-3.54,3.16-3.54-1.92,1.13-4.1,1.65-4.62,1.76-.85,.13-2.17,.25-2.73-.15m23.21,18.84c7.85,0,14-3.38,14-7.68v-3.66c0-4.3-6.15-7.67-14-7.67s-14,3.37-14,7.67v3.66c0,.95,.31,1.85,.86,2.68-.55,.83-.86,1.72-.86,2.66v3.66c0,4.3,6.15,7.68,14,7.68s14-3.38,14-7.68v-3.66c0-.2-.03-.4-.06-.6-.71,.89-4.57,5.14-13.61,5.14-8.02,0-10.78-3.86-11.07-4.38-.12-.21-.2-.44-.08-.57,2.55,1.69,6.41,2.75,10.81,2.75m-11.3-11c0-2.84,5.06-5.15,11.3-5.15s11.3,2.31,11.3,5.15-5.06,5.15-11.3,5.15-11.3-2.31-11.3-5.15m9.15,1.73v.68h1.55v-.56c.31,.02,.67,.02,1.02,.02h.38v.54h1.52v-.62c2.78-.3,4.11-1.27,4.11-2.67,0-.55-.06-.79-.31-1.34h-2.06c.21,.52,.29,.78,.29,1.25,0,.62-.59,1.11-2.03,1.33v-1.76h-1.52v1.89c-.19,0-.38,.02-.61,.02-.27,0-.52-.01-.79-.02v-1.89h-1.55v1.75c-1.4-.21-2.13-.66-2.13-1.38,0-.41,.08-.65,.25-1.15h-2.17c-.17,.43-.23,.73-.23,1.12,0,1.42,1.44,2.42,4.28,2.78"/></g></g></svg>