<?xml version="1.0" encoding="UTF-8"?><svg id="Laag_1" xmlns="http://www.w3.org/2000/svg" xmlns:xlink="http://www.w3.org/1999/xlink" viewBox="0 0 64 64"><defs><style>.cls-1{fill:none;}.cls-2{clip-path:url(#clippath);}.cls-3{clip-path:url(#clippath-1);}</style><clipPath id="clippath"><rect class="cls-1" width="64" height="64"/></clipPath><clipPath id="clippath-1"><rect class="cls-1" width="64" height="64"/></clipPath></defs><g class="cls-2"><g class="cls-3"><path d="M55.37,22.2c1.31-.95,2.09-2.43,1.92-4.01-.31-2.77-3.41-4.6-6.51-3.7-.59-1.91-2.29-3.26-4.25-3.25-1.71,.01-3.26,1.08-4.01,2.63-.31,.65-.48,1.38-.46,2.17,0,0,0,0,0,0-.1,.08-.26,0-.39-.31-.22-.51-.34-1.08-.34-1.67,0-1.8,1.14-3.35,2.76-4.03,.16-2.75-2.21-4.86-4.97-4.86-1.11,0-2.12,.34-2.95,.91-.9-1.3-2.49-2.17-4.32-2.17-2.8,0-5.08,2.04-5.1,4.56-3.04-.3-5.38,2-5.38,4.62,0,1.04,.39,2.03,1,2.81-.06,.2-.35,.18-.57,.01-1.17-.86-1.93-2.22-1.93-3.75,0-1.02,.34-1.96,.92-2.73-.65-.32-1.39-.5-2.18-.5-2.25,0-4.12,1.43-4.61,3.34-.75-.51-1.66-.81-2.64-.81-2.56,0-4.64,2.04-4.64,4.55,0,1.06,.39,2.03,1.01,2.8-1.61,.73-2.72,2.26-2.72,4.04,0,2.46,2.13,4.55,4.93,4.49-.52,2.5,1.24,4.82,3.69,5.05,.27-2.26,2.26-4.2,5.04-4.11,.26,0,.41,.13,.39,.32-2.36,.88-3.64,2.99-3.43,5.01,.28,2.65,2.95,4.54,5.97,4.23,.61-.07,1.19-.22,1.72-.44,1.05,2.19,3.32,3.57,5.96,3.57s5.05-1.61,6.06-3.9c.64,.33,1.37,.56,2.15,.64,6.19,.65,8.46-6.89,2.54-9.11-.02-.18,.14-.31,.39-.32,2.97-.09,5.09,2.12,5.09,4.64,0,.7-.17,1.37-.47,1.96,2.87,1.01,5.91-.63,6.57-3.3,3.41,.62,6.52-1.81,6.52-4.99,0-1.89-1.1-3.53-2.74-4.41m-37.91,2.74c-2.45,0-4.43-1.78-4.43-3.97s1.98-3.97,4.43-3.97,4.43,1.78,4.43,3.97-1.98,3.97-4.43,3.97m12.46,9.83c-2.91,.27-5.45-1.44-5.67-3.83-.22-2.39,1.96-4.54,4.87-4.81,2.91-.27,5.45,1.44,5.67,3.83,.22,2.39-1.96,4.54-4.87,4.81m3.07-15.77c-2.67,0-4.83-1.77-4.83-3.95s2.16-3.95,4.83-3.95,4.83,1.77,4.83,3.95-2.16,3.95-4.83,3.95m13.49,7.73c-2.42,.11-4.45-1.53-4.55-3.66-.1-2.13,1.78-3.95,4.2-4.06,2.42-.11,4.45,1.53,4.55,3.66,.1,2.13-1.78,3.95-4.2,4.06"/><path d="M37.95,39.95c-.58-.01-.95-.04-1.68-.2-2.41,3.13-6.57,4.21-10.15,2.86,.4,6.64-2.25,11.4-3.34,14.04l3.14,1.29c.53-1.3,1.66-3.46,2.5-6.24-.33,5.35-.75,8.85-.76,8.9l3.37,.42c0-.06,.49-3.98,.83-9.9,.71,4.93,1.45,8.7,1.46,8.76l3.34-.66c-.01-.06-.85-4.31-1.59-9.65,.81,3.06,1.97,5.74,2.58,7.37l3.19-1.19c-1.26-3.35-4.31-10.11-2.9-15.79"/></g></g></svg>