<?xml version="1.0" encoding="UTF-8"?><svg id="Laag_1" xmlns="http://www.w3.org/2000/svg" xmlns:xlink="http://www.w3.org/1999/xlink" viewBox="0 0 64 64"><defs><style>.cls-1{fill:none;}.cls-2{clip-path:url(#clippath);}.cls-3{clip-path:url(#clippath-1);}</style><clipPath id="clippath"><rect class="cls-1" width="64" height="64"/></clipPath><clipPath id="clippath-1"><rect class="cls-1" width="64" height="64"/></clipPath></defs><g class="cls-2"><g class="cls-3"><path d="M6,20.5c0-3.86,3.14-7,7-7v4.5c0,1.66,1.34,3,3,3h8v-3h7.5c.83,0,1.5-.67,1.5-1.5s-.67-1.5-1.5-1.5h-7.5v-6h7.5c.83,0,1.5-.67,1.5-1.5s-.67-1.5-1.5-1.5h-7.5V3h-8c-1.66,0-3,1.34-3,3v4.5c-5.51,0-10,4.49-10,10v19.43c.89-.89,1.9-1.65,3-2.27V20.5Z"/><path d="M51,38c-.7,0-1.38,.08-2.05,.2-.62-2.69-1.24-5.44-1.24-5.44h0l-2.02-10.14c-.21-1.04-1.2-1.75-2.26-1.59l-5.73,.87c-.75,.11-1.32,.76-1.32,1.54,0,.86,.7,1.55,1.55,1.55h4.15l1.1,5.49-20.37,3.92-.69-2.4h-2.19c-.3,0-.29-.26-.29-.26,0,0,5.65-2.37,6.7-2.78,1.03-.4,.78-1.96-.34-1.96h-9.81c-.79,0-1.54,.36-1.92,.97-1.39,2.18,3.09,3.8,3.67,4l1.21,4.19s-8.21,11.44-8.47,11.8c-1.5,2.09-.34,4.67,1.89,5,1.45,.21,7.55,1.02,7.55,1.02-1.4,2.49-4.05,4.17-7.11,4.17-4.51,0-8.16-3.65-8.16-8.16s3.33-7.81,7.54-8.13l2.63-3.69c-.65-.11-1.32-.18-2.01-.18-6.63,0-12,5.37-12,12s5.37,12,12,12c5.03,0,9.32-3.09,11.11-7.47l3.35,.43c2.82,.34,4.53-1.85,4.53-3.96,0-.58-.13-1.12-.35-1.62l12.62-13.81c.29,1.14,.66,2.5,1.1,3.85,2.41,7.4,5.39,10.91,5.79,11.38,.41,.49,1.16,.17,1.07-.36-.1-.61-1.2-3.43-2.41-8.5,.39-.06,.78-.1,1.18-.1,4.51,0,8.16,3.65,8.16,8.16s-3.65,8.16-8.16,8.16-8.16-3.65-8.16-8.16c0-2.16,.85-4.13,2.22-5.59-.5-1.15-.99-2.43-1.47-3.84-2.79,2.2-4.59,5.6-4.59,9.43,0,6.63,5.37,12,12,12s12-5.37,12-12-5.37-12-12-12m-34.71,9l4.27-5.94,1.72,5.94h-5.98Zm12.1,0h-1.96l-2.52-8.74,15.14-2.91-10.66,11.65Z"/></g></g></svg>