<?xml version="1.0" encoding="UTF-8"?><svg id="Laag_1" xmlns="http://www.w3.org/2000/svg" viewBox="0 0 64 64"><defs><style>.cls-1{fill:none;}</style></defs><rect class="cls-1" width="64" height="64"/><path d="m53.86,14.12c-.34-2.06-1.91-3.63-3.97-3.97-5.96-.99-15.9-.99-17.88-.99s-11.92,0-17.88.99c-2.06.34-3.63,1.91-3.97,3.97-.99,5.96-.99,15.9-.99,17.88s0,11.92.99,17.88c.34,2.06,1.91,3.63,3.97,3.97,5.96.99,15.9.99,17.88.99s11.92,0,17.88-.99c2.06-.34,3.63-1.91,3.97-3.97.99-5.96.99-15.9.99-17.88,0-5.96,0-11.92-.99-17.88Zm-11.67,19.49l-15,11.11c-.35.26-.77.39-1.19.39-.31,0-.62-.07-.9-.21-.67-.34-1.1-1.03-1.1-1.79v-22.23c0-.76.43-1.45,1.1-1.79.67-.34,1.48-.27,2.09.18l15,11.11c.51.38.81.97.81,1.61s-.3,1.23-.81,1.61Z"/></svg>