<?xml version="1.0" encoding="UTF-8"?><svg id="Laag_1" xmlns="http://www.w3.org/2000/svg" viewBox="0 0 64 64"><defs><style>.cls-1{fill:none;}</style></defs><rect class="cls-1" width="64" height="64"/><path d="m53.86,14.12c-.34-2.06-1.91-3.63-3.97-3.97-5.96-.99-15.9-.99-17.88-.99s-11.92,0-17.88.99c-2.06.34-3.63,1.91-3.97,3.97-.99,5.96-.99,15.9-.99,17.88s0,11.92.99,17.88c.34,2.06,1.91,3.63,3.97,3.97,5.96.99,15.9.99,17.88.99s11.92,0,17.88-.99c2.06-.34,3.63-1.91,3.97-3.97.99-5.96.99-15.9.99-17.88,0-5.96,0-11.92-.99-17.88Zm-6.46,5.32l-2.12,18.06c-.14,1.21-1.12,2.15-2.34,2.24-.06,0-.13,0-.19,0-1.14,0-2.15-.76-2.45-1.87l-1.16-4.24s2.58-5.26,2.79-5.69c.19-.39-.07-.46-.07-.46l-12.63,12.63c-1.44,1.44-3.12.63-4.53-.78-1.41-1.41-2.23-3.09-.78-4.53l9.18-9.18-6.94-1.9c-1.18-.32-1.96-1.43-1.87-2.65.09-1.22,1.03-2.2,2.24-2.34l18.06-2.12c.78-.09,1.55.18,2.1.73.55.55.82,1.32.73,2.1Z"/></svg>