<?xml version="1.0" encoding="UTF-8"?><svg id="Laag_1" xmlns="http://www.w3.org/2000/svg" xmlns:xlink="http://www.w3.org/1999/xlink" viewBox="0 0 64 64"><defs><style>.cls-1{fill:none;}.cls-2{clip-path:url(#clippath);}.cls-3{clip-path:url(#clippath-1);}</style><clipPath id="clippath"><rect class="cls-1" width="64" height="64"/></clipPath><clipPath id="clippath-1"><rect class="cls-1" width="64" height="64"/></clipPath></defs><g class="cls-2"><g class="cls-3"><path d="M21.5,57c-1.38,0-2.5,1.12-2.5,2.5s1.12,2.5,2.5,2.5,2.5-1.12,2.5-2.5-1.12-2.5-2.5-2.5M10,21.5c0-1.93-1.57-3.5-3.5-3.5s-3.5,1.57-3.5,3.5,1.57,3.5,3.5,3.5,3.5-1.57,3.5-3.5m32.83,9.11c1.71-2.95,1.53-6.52-.23-9.26L55.09,5.07c1.01-1.31,.27-2.56-1.04-3.57-1.32-1.01-2.71-1.4-3.72-.08l-12.49,16.28c-3.1-.99-6.59-.25-9,2.17-.31,.31-.63,.59-.94,.89l14.32,10.99c.21-.38,.39-.76,.61-1.14m-21.81-12.12c1.1-.84,1.31-2.41,.47-3.5-.84-1.1-2.41-1.31-3.5-.47-1.1,.84-1.31,2.4-.47,3.5,.84,1.1,2.41,1.31,3.5,.47M9.5,53c-1.93,0-3.5,1.57-3.5,3.5s1.57,3.5,3.5,3.5,3.5-1.57,3.5-3.5-1.57-3.5-3.5-3.5m-2.6-20.35c-.52,.16-.82,.71-.66,1.23,.29,.93,.85,2.5,1.84,4.39,4.26-1.09,8.32-2.73,11.5-4.67,0,0,.29,.17-.19,.61-3.08,2.73-6.35,4.93-9.84,6.56,1.73,2.69,4.24,5.71,7.87,8.49,2.02,1.55,4.03,2.74,5.93,3.67,1.02-5.61,3.38-10.83,6.93-15.74,.38-.53,.59-.25,.59-.25-2.34,4.87-4.11,11.21-4.48,17.29,3.97,1.46,7.22,1.78,8.77,1.84,.55,.02,1-.41,1.02-.96,.36-8.13,1.86-15.01,5.1-21.56l-14.85-11.39c-5.5,4.82-11.75,8.06-19.52,10.51m48.6,12.35c-1.93,0-3.5,1.57-3.5,3.5s1.57,3.5,3.5,3.5,3.5-1.57,3.5-3.5-1.57-3.5-3.5-3.5m1.62-17c-2.21-.07-4.05,1.67-4.11,3.88-.07,2.21,1.67,4.05,3.88,4.11,2.21,.07,4.05-1.67,4.11-3.88,.07-2.21-1.67-4.05-3.88-4.11m-12.62,26c-1.38,0-2.5,1.12-2.5,2.5s1.12,2.5,2.5,2.5,2.5-1.12,2.5-2.5-1.12-2.5-2.5-2.5m1-17c-1.38,0-2.5,1.12-2.5,2.5s1.12,2.5,2.5,2.5,2.5-1.12,2.5-2.5-1.12-2.5-2.5-2.5"/></g></g></svg>