<?xml version="1.0" encoding="UTF-8"?><svg id="Laag_1" xmlns="http://www.w3.org/2000/svg" xmlns:xlink="http://www.w3.org/1999/xlink" viewBox="0 0 64 64"><defs><style>.cls-1{fill:none;}.cls-2{clip-path:url(#clippath);}.cls-3{clip-path:url(#clippath-1);}</style><clipPath id="clippath"><rect class="cls-1" width="64" height="64"/></clipPath><clipPath id="clippath-1"><rect class="cls-1" width="64" height="64"/></clipPath></defs><g class="cls-2"><g class="cls-3"><path d="M60.43,36.83c-.19-1.17-1.09-2.07-2.26-2.26-3.39-.57-9.04-.57-10.17-.57s-6.78,0-10.17,.57c-1.17,.2-2.07,1.09-2.26,2.26-.56,3.39-.56,9.04-.56,10.17s0,6.78,.56,10.17c.19,1.17,1.09,2.07,2.26,2.26,3.39,.56,9.04,.56,10.17,.56s6.78,0,10.17-.56c1.17-.2,2.07-1.09,2.26-2.26,.57-3.39,.57-9.04,.57-10.17,0-3.39,0-6.78-.57-10.17m-4.43,11.67c0,.28-.22,.5-.5,.5h-5.5v5.5c0,.28-.22,.5-.5,.5h-3c-.28,0-.5-.22-.5-.5v-5.5h-5.5c-.28,0-.5-.22-.5-.5v-3c0-.28,.22-.5,.5-.5h5.5v-5.5c0-.28,.22-.5,.5-.5h3c.28,0,.5,.22,.5,.5v5.5h5.5c.28,0,.5,.22,.5,.5v3Z"/><path d="M13.91,28.04V13.37h25.66v15.52c0,.75-.06,1.51-.16,2.25,1.18-.12,2.45-.2,3.73-.25,.06-.64,.1-1.3,.1-2V11.17c0-.81-.66-1.47-1.47-1.47H11.71c-.81,0-1.47,.66-1.47,1.47V28.89c0,1.19-.12,2.3-.33,3.27,0,0-.22,.07-.25-.22-.31-2.58-1.72-14.9-1.72-14.9h-2.99c-.76,0-1.26,.59-1.17,1.26,.42,3.33,1.33,9.22,1.76,12.2,.69,4.77,1.34,9.27,6.91,9.27h19.58c.09-1.25,.21-2.45,.38-3.47,.01-.07,.03-.13,.05-.19H12.35c1.01-1.87,1.57-4.4,1.57-8.07"/><rect x="17.58" y="17.04" width="18.33" height="3.67"/><path d="M35.91,28.77v-5.87h-8.8v5.99c0,1.26-.12,2.45-.33,3.54h8.04c.25-.18,.52-.34,.8-.48,.23-.87,.28-2.1,.28-3.19"/><path d="M17.26,32.44h7.24c.17-.67,.28-1.41,.35-2.2h-7.32c-.05,.77-.14,1.5-.27,2.2"/><rect x="17.58" y="26.57" width="7.33" height="2.2"/><rect x="17.58" y="22.91" width="7.33" height="2.2"/></g></g></svg>