<?xml version="1.0" encoding="UTF-8"?><svg id="Laag_1" xmlns="http://www.w3.org/2000/svg" xmlns:xlink="http://www.w3.org/1999/xlink" viewBox="0 0 64 64"><defs><style>.cls-1{fill:none;}.cls-2{clip-path:url(#clippath);}.cls-3{clip-path:url(#clippath-1);}</style><clipPath id="clippath"><rect class="cls-1" width="64" height="64"/></clipPath><clipPath id="clippath-1"><rect class="cls-1" width="64" height="64"/></clipPath></defs><g class="cls-2"><g class="cls-3"><path d="M50,31.9v-5.13c1.35-.65,3.99-2.09,4.7-3.62,.47-1,.15-2.75-1.54-3.08-.72-.14-2.28,0-3.51,.17-.7-5.3-2.04-13.54-2.65-15.24-.44-1.22-1.78-1.7-3.15-2,0,0-7.16-1-15.85-1s-15.85,1-15.85,1c-1.38,.3-2.71,.78-3.15,2-.62,1.7-1.95,9.94-2.65,15.24-1.23-.17-2.8-.31-3.51-.17-1.69,.33-2,2.08-1.54,3.08,.72,1.53,3.36,2.96,4.7,3.62v23.57s0,3.97,.41,5.63c.15,.6,.81,1.03,1.57,1.03h6.03c.76,0,1.42-.43,1.57-1.03,.25-1.01,.35-3.04,.39-4.47l-5.71-1.14c-.32-.1-.27-.31-.25-.36h23.9c0-.7-.02-1.38-.02-2h-12.9v-3h12.93c.06-2.65,.21-5.53,.57-7.68,.41-2.47,2.34-4.4,4.81-4.81,3.01-.5,7.47-.61,10.68-.61m-32.22,12.05l-6.3-.5c-1.71-.14-2.75-1.5-3.07-2.99l-.26-1.81c-.16-1.11,.99-2.06,2.12-1.75l5.1,1.42c1.11,.43,1.95,1.29,2.3,2.38l.7,2.6c.09,.34-.22,.69-.59,.66m10.22-15.8c-9.28,0-14.94-1.83-17.25-2.91-.73-.34-1.14-1.11-1.02-1.91,.52-3.46,1.97-12.94,2.4-14.75,.08-.02,8.03-.83,15.88-.83s15.8,.81,15.88,.83c.42,1.8,1.87,11.28,2.4,14.75,.12,.8-.3,1.57-1.02,1.91-2.32,1.09-7.97,2.91-17.25,2.91"/><path d="M62.44,37.83c-.19-1.17-1.09-2.07-2.26-2.26-3.39-.57-9.04-.57-10.17-.57s-6.78,0-10.17,.57c-1.17,.19-2.07,1.09-2.26,2.26-.57,3.39-.57,9.04-.57,10.17s0,6.78,.57,10.17c.19,1.17,1.09,2.07,2.26,2.26,3.39,.57,9.04,.57,10.17,.57s6.78,0,10.17-.57c1.17-.2,2.07-1.09,2.26-2.26,.56-3.39,.56-9.04,.56-10.17,0-3.39,0-6.78-.56-10.17m-11.75,1.43c.19-1.23,.98-1.98,2.19-1.79,1.15,.19,1.74,1.03,1.53,2.39-.19,1.19-1,1.91-2.18,1.72-1.18-.19-1.74-1.03-1.54-2.32m-.18,18.95c-3.15,0-5.7-2.55-5.7-5.7,0-1.53,.61-2.92,1.59-3.94,0,.2-.01,.41-.01,.57,0,.89,.3,1.68,.8,2.31-.11,.34-.18,.69-.18,1.06,0,1.93,1.57,3.5,3.5,3.5,1.23,0,2.31-.64,2.94-1.6,.09,.24,.18,.48,.26,.69l.19,.53c.15,.4,.32,.73,.51,1.04-1.02,.96-2.39,1.55-3.89,1.55m4.76-3.24c-.36-.98-1.04-2.77-1.41-3.95-.03,0-2.72,0-3.78,0s-2.18-.56-2.19-1.86c0-.95,.14-2.73,.4-4.16-.47,.14-1.05,.39-1.36,.7-.51,.46-1.72,2-2.16,2.53-.22,.24-.96,.93-1.85,.41,.55-.96,1.89-3.22,2.57-4.09,.18-.24,.44-.5,.83-.74,1.18-.77,2.44-1.3,3.03-1.52,.81-.3,2.05-.2,2.65,.54,.46,.57,.32,1.13,.19,2.04-.1,.71-.22,1.86-.42,3.07,.79,.16,2.22,.47,2.97,.77,.5,.22,.73,.4,1.01,1.06,.57,1.42,1.4,5.32,1.76,6.82-.38,.09-1.54,.28-2.24-1.62"/></g></g></svg>