<?xml version="1.0" encoding="UTF-8"?><svg id="Laag_1" xmlns="http://www.w3.org/2000/svg" xmlns:xlink="http://www.w3.org/1999/xlink" viewBox="0 0 64 64"><defs><style>.cls-1{fill:none;}.cls-2{clip-path:url(#clippath);}.cls-3{clip-path:url(#clippath-1);}</style><clipPath id="clippath"><rect class="cls-1" width="64" height="64"/></clipPath><clipPath id="clippath-1"><rect class="cls-1" width="64" height="64"/></clipPath></defs><g class="cls-2"><g class="cls-3"><path d="M51.41,22.41l-14.83-14.83c-.38-.38-.88-.59-1.41-.59H14c-1.1,0-2,.9-2,2V55c0,1.1,.9,2,2,2h18v-5h-15V12h16.71l.93-3.14c.11-.34,.36-.23,.36-.23v14.37c0,.55,.45,1,1,1h14.37s.12,.25-.22,.36l-3.15,.93v26.71h-5v5h8c1.1,0,2-.9,2-2V23.83c0-.53-.21-1.04-.59-1.42"/><path d="M21,38.26c.85,.39,1.91,.74,3.03,.74,1.6,0,3.11-.72,4-1.24,.89,.53,2.4,1.24,4,1.24s3.11-.72,4-1.24c.89,.53,2.4,1.24,4,1.24,1.09,0,2.13-.33,2.97-.71v-2.99c-.81,.53-1.88,1.09-2.97,1.09-1.64,0-3.28-1.29-4-1.83-.67,.5-2.32,1.83-4,1.83s-3.28-1.29-4-1.83c-.67,.5-2.32,1.83-4,1.83-1.11,0-2.2-.59-3.03-1.14v3Z"/><path d="M28.03,31.76c.89,.53,2.4,1.24,4,1.24s3.11-.72,4-1.24c.89,.53,2.4,1.24,4,1.24,1.09,0,2.13-.33,2.97-.71v-2.99c-.81,.53-1.88,1.09-2.97,1.09-1.64,0-3.28-1.29-4-1.83-.67,.5-2.32,1.83-4,1.83s-3.28-1.29-4-1.83c-.67,.5-2.32,1.83-4,1.83-1.11,0-2.2-.59-3.03-1.14v3c.85,.39,1.92,.74,3.03,.74,1.6,0,3.11-.72,4-1.24"/><path d="M37,43c-2.76,0-5,2.24-5,5,0,1.63,.79,3.07,2,3.98v8.46c0,.5,.61,.75,.96,.4l1.64-1.64c.22-.22,.58-.22,.8,0l1.64,1.64c.35,.35,.96,.1,.96-.4v-8.46c1.21-.91,2-2.35,2-3.98,0-2.76-2.24-5-5-5m0,7c-1.1,0-2-.9-2-2s.9-2,2-2,2,.9,2,2-.9,2-2,2"/></g></g></svg>