<?xml version="1.0" encoding="UTF-8"?>
<svg id="Zwart" xmlns="http://www.w3.org/2000/svg" viewBox="0 0 64 64">
  <path d="M63.44,40.83c-.2-1.17-1.09-2.06-2.26-2.26-3.39-.57-9.04-.57-10.17-.57s-6.78,0-10.17.57c-1.17.2-2.07,1.09-2.26,2.26-.57,3.39-.57,9.04-.57,10.17s0,6.78.57,10.17c.2,1.17,1.09,2.06,2.26,2.26,3.39.57,9.04.57,10.17.57s6.78,0,10.17-.57c1.17-.2,2.07-1.09,2.26-2.26.56-3.39.56-9.04.56-10.17,0-3.39,0-6.78-.56-10.17ZM51.68,55.02h-3.33l-2.37-6.04v6.04h-2.18v-9.02h3.32l2.39,6.04v-6.04h2.18v9.02ZM59.49,55.02h-5.65v-9.02h2.4v7.14h3.25v1.88Z"/>
  <path d="M32.05,4.05c.73-.15.88-.25.88-.4s-.44-.29-1.17-.32c0,0-1.11.18-1.06.65.06.47.62.22,1.35.08Z"/>
  <path d="M21.3,25.42l2.48,1.1c.4.18.85.18,1.25,0,1.13-.52,2.7-1.43,3.3-2.54.12-.21.15-.46.14-.71,0-.23-.02-.46-.05-.67-.08-.73-.68-1.3-1.41-1.35-.42-.03-.93-.04-1.47-.03-.41,0-.8.17-1.08.45l-3.15,3.15v.62Z"/>
  <path d="M16.57,14.06c.26.03,1.06-.82,1.26-1.03.21-.21.19-1.47,0-1.73-.19-.26-.34-.63-.73-.47-.39.15-1.42,2.46-1.36,2.74s.56.46.82.49Z"/>
  <path d="M27.7,4.89c.56-.1,1.53-.07,1.5-.63,0,0-.03-.41-1.79-.1-1.76.31-1.99.29-1.99.7s1.72.13,2.28.03Z"/>
  <path d="M21.82,6.75s1.18-.74,2.12-.73c.94.01.53-.75.53-.75,0,0-.65-.65-2.56.55-1.91,1.2-1.41,1.34-1.38,1.42.03.08.57.09,1.28-.49Z"/>
  <path d="M19.16,9.26c.26-.5,1.02-.64.7-1.07,0,0-.7-.18-1.35.56-.64.73-1.06,1.08-.79,1.47.26.38,1.18-.46,1.44-.96Z"/>
  <path d="M7.93,37.48l1.34,1.26c.3.29.76.34,1.12.13l.39-.23c.33-.19.42-.47.15-.74l-2.99-1.98c-.06-.04-.14-.07-.21-.07-.48.02-2.08,0-2.08,1.05l1.48.2c.27.13.53.25.8.38Z"/>
  <path d="M6.66,39.45l.44.28c.54.34,1.23.35,1.79.03h0s-1.46-1.19-1.46-1.19c-.28-.23-.62-.37-.97-.41l-1.52-.17c-.22-.02-.45.06-.59.24-.22.29-.42.58-.59.88l2.03.07c.31.01.61.1.87.27Z"/>
  <path d="M32.32,36.79c-.19-.3-.21-.68-.07-1.01l.2-.44c.2-.45.67-.71,1.15-.64l4.6.66c.34.05.68-.07.92-.31l2.18-2.18c.46-.46.44-1.2-.03-1.64l-.03-.03c-.47-.44-.49-1.18-.03-1.64l3.17-3.17c.2-.2.32-.48.32-.77v-1.86c0-.6-.49-1.09-1.09-1.09h-2.38c-.47,0-.88-.3-1.03-.74l-.34-1.02c-.16-.47.02-.98.43-1.25l3.58-2.39c.52-.35.83-.93.83-1.55v-5.77c0-1.09-.53-2.11-1.41-2.74l-3.33-2.38c-.76-.54-1.74-.7-2.63-.41l-12.21,3.94c-.4.13-.69.47-.74.88l-.81,5.72c-.07.52.24,1.02.73,1.18l.95.32c.44.15.74.56.74,1.03v1.71c0,.38.3.69.68.71,1.02.05,1.96.2,2.35.59.65.65.7,2.78.7,3.31-.01.08-.03.16-.04.23-.75,2.1-3.92,3.85-4.99,4.38-.21.11-.47.1-.68-.01l-3.48-1.97c-.31-.14-.51-.45-.51-.79v-2.41s0-1.57,0-1.57c0-.45.27-.86.68-1.04h.02c.56-.25.82-.89.6-1.46l-1.03-2.65c-.16-.42-.57-.69-1.01-.69-1.46,0-1.59.12-2.44-.35-.58-.32-1.31-.05-1.54.57-.23.62-.37,6.32-1.48,9.43-1.5,4.21-4.66,6.87-4.66,6.87-.07.19-.12.39-.15.6-.04.26-.09.62-.13.91-.05.3.06.6.27.82.81.8,2.71,2.68,2.71,2.68.66.66.52,1.77-.29,2.24l-2.03,1.19c-.21.12-.22.42-.03.56.97.72,1.81,1.34,1.87,1.39.16.12.05.48.05.48l-3.85-2.13c-.76-.44-1.65-.69-2.53-.67,0,0-4.48.35-3.3,1.52.59.54,1.79,1.92,2.18,1.78.27-.09.61-.38.61-.38l2.58,1.46c.2.08.2-.27.39-.61.19-.34.61-.49.98-.34,0,0,2.85,1.24,3.33,1.38.37.1.69.04.98-.3.25-.29.9-1.34.9-1.34.23-.34.64-.53,1.05-.48l5.86.77c.33.04.62.23.79.52.41.85.56,1.06,1.03,1.32.2.11,6.55,2.8,6.55,2.8.51.22.78.79.61,1.32l-.95,3.06c0,.22,0,.43,0,.65l.46,1.46c.14.45.56.76,1.04.76h3.26c.6,0,1.09-.5,1.09-1.1-.21-.36-1.1-2.05-1.31-2.15l-.5-.25c-.37-.18-.6-.56-.6-.97v-.58c0-.29.11-.57.32-.77l1.9-1.66c.09-.14.17-.28.26-.43l1.46-4.38c.1-.3.06-.64-.1-.91l-3.6-5.86Z"/>
  <path d="M9.86,45.52l-1.31-.57c-.1-.04-.21-.03-.29.04l-1.08.93c-.09.08-.23.09-.33.02l-1.86-1.22c-.15-.1-.35-.11-.51-.02l-.46.26c-.17.1-.38.08-.54-.03l-1.65-1.22c-.15-.11-.35-.07-.45.09l-1.26,2.04c-.06.1-.05.22.02.32l.7.78c.09.11.22.18.36.19,0,0,1.41.37,1.6.12.19-.25.23-.96.23-.96l1.07.05c.06,0,.11,0,.16.03l2.99,1.6c.1.05.22.04.31-.03l2.37-1.95c.16-.13.13-.39-.07-.47Z"/>
</svg>