<?xml version="1.0" encoding="UTF-8"?><svg id="Laag_1" xmlns="http://www.w3.org/2000/svg" xmlns:xlink="http://www.w3.org/1999/xlink" viewBox="0 0 64 64"><defs><style>.cls-1{fill:none;}.cls-2{clip-path:url(#clippath);}.cls-3{clip-path:url(#clippath-1);}</style><clipPath id="clippath"><rect class="cls-1" width="64" height="64"/></clipPath><clipPath id="clippath-1"><rect class="cls-1" width="64" height="64"/></clipPath></defs><g class="cls-2"><g class="cls-3"><path d="M9,26h5.99c.02,.06,.05,.29-.25,.36-1.13,.28-3.74,.91-3.74,.91v13.72c0,1.96,.48,3.94,1.05,5.62,.83-.52,1.48-1.04,3-2.18,1.87,1.4,4.13,3.3,6,3.3s4.3-2.03,6-3.3c1.87,1.4,4.13,3.3,6,3.3s4.3-2.03,6-3.3c1.87,1.4,4.13,3.3,6,3.3s4.3-2.03,6-3.3c1.5,1.12,2.15,1.64,2.93,2.14,.56-1.66,1.02-3.61,1.02-5.57v-11c0-1.66-1.34-2-3-2s-3,.34-3,2v8h-7.92c.31,0,.63-.21,.69-.5,.17-.8,.22-1.99,.22-1.99v-4.09c0-1.5-.26-2.13-.95-3.05,.42-.29,.72-.64,.8-.81,.16-.36,.04-.98-.56-1.1-.26-.05-.84,0-1.28,.06-.34-1.24-.95-2.38-1.3-2.74-.47-.49-3.09-.79-5.71-.78-2.61,0-5.23,.3-5.71,.78-.36,.36-.95,1.5-1.29,2.74-.44-.06-1.01-.11-1.27-.06-.6,.12-.7,.74-.55,1.1,.08,.17,.35,.52,.77,.81-.69,.93-.95,1.56-.95,3.05v4.09s.06,1.2,.22,1.99c.06,.29,.39,.5,.69,.5h-7.92v-12h2c.99,0,1.83-.72,1.98-1.7l2-13c.09-.58-.08-1.16-.46-1.61-.38-.44-.93-.7-1.52-.7H7c-.58,0-1.14,.26-1.52,.7-.38,.44-.55,1.03-.46,1.61l2,13c.15,.98,.99,1.7,1.98,1.7m18.22,12c.31,0,.58-.32,.64-.61,.09-.44,.19-1.39,.19-1.39h9.93s.08,.95,.17,1.39c.06,.29,.33,.61,.64,.61h-11.57Zm12.37-7.26c.38-.1,.76,.21,.7,.58l-.09,.6c-.1,.5-.45,.95-1.02,.99l-2.09,.17c-.12,.01-.23-.1-.2-.22l.23-.86c.12-.36,.4-.65,.77-.79l1.69-.47Zm-10.57-5.63c.56-.07,1.8-.17,3.98-.17s3.42,.1,3.98,.17c.59,1.53,.92,2.65,1.12,3.65-1.26,.2-3.25,.33-5.1,.33s-3.85-.13-5.1-.33c.2-1,.55-2.26,1.12-3.65m-2.61,5.63l1.69,.47c.37,.14,.65,.43,.77,.79l.23,.86c.03,.11-.07,.23-.2,.22l-2.09-.17c-.57-.05-.92-.5-1.02-.99l-.09-.6c-.05-.37,.33-.69,.7-.58m-7.74-17.74l-.92,6h-7.49l-.92-6h9.34Z"/><path d="M57.04,49.94c-2.46,0-4.92-1.94-6-2.75-1,.75-3.49,2.75-6,2.75s-4.92-1.94-6-2.75c-1,.75-3.49,2.75-6,2.75s-4.92-1.94-6-2.75c-1,.75-3.49,2.75-6,2.75s-4.92-1.94-6-2.75c-1,.75-3.49,2.75-6,2.75-1.02,0-2.12-.39-3.04-.83v4.22c.94,.3,1.98,.52,3.04,.52,2.4,0,4.66-1.08,6-1.86,1.34,.79,3.6,1.86,6,1.86s4.66-1.08,6-1.86c1.34,.79,3.6,1.86,6,1.86s4.66-1.08,6-1.86c1.34,.79,3.6,1.86,6,1.86s4.66-1.08,6-1.86c1.34,.79,3.6,1.86,6,1.86,1.03,0,2.04-.2,2.96-.49v-4.2c-.9,.42-1.97,.79-2.96,.79"/></g></g></svg>