<?xml version="1.0" encoding="UTF-8"?><svg id="Laag_1" xmlns="http://www.w3.org/2000/svg" viewBox="0 0 64 64"><defs><style>.cls-1{fill:none;}</style></defs><rect class="cls-1" width="64" height="64"/><g><path d="m63,38h-17c-.55,0-1,.45-1,1v24h8v-5h3v5h8v-24c0-.55-.45-1-1-1Zm-12,17h-3v-3h3v3Zm0-5h-3v-3h3v3Zm0-5h-3v-3h3v3Zm5,10h-3v-3h3v3Zm0-5h-3v-3h3v3Zm0-5h-3v-3h3v3Zm5,10h-3v-3h3v3Zm0-5h-3v-3h3v3Zm0-5h-3v-3h3v3Z"/><path d="m41.18,37.46c1.26-5.09,1.81-8.52,1.81-12.24,0-7.48-2.81-15.48-7.13-18.07-2.75-1.65-5.84-1.05-5.84-1.05,0,0-2.97-2.86-8.17-1.88-8.48,1.6-14.84,9.74-14.84,21,0,3.73.56,7.15,1.82,12.24.1.42.5.67.87.54,1.82-.64,4.29-1.01,7.36-1.3-.1.86-.22,1.83-.33,2.81-4.55,1.76-9.24,2.3-12.08,2.45-1.52.08-2.73,1.3-2.82,2.82l-.84,14.23h41v-17.35c-2.38-.3-5.22-.86-8.05-1.87-.06-.04-.13-.08-.18-.12-.1-.85-.24-1.89-.39-2.89,2.82.3,5.22.64,6.92,1.24.37.13.77-.12.87-.54Zm-7.12-10.64c-.53,3.18-2.82,7.63-5.34,9.18-1.72,1.06-4.87,1.23-6.71.44.42.84,1.27,1.84,3.15,2.31,2.54.63,4.85-.4,5.45-.75.11.79.22,1.59.29,2.28.05.43.23,1.83,2.22,2.65-2.33,7.38-8.06,13.83-8.06,13.83,0,0-6.42-6.91-8.07-13.93,1.93-.69,2.39-1.95,2.44-2.4.07-.58.58-5.32.58-5.32-2.52-2.48-3.6-5.57-4.06-8.28-.29-1.73-.25-3.34-.16-4.41,4.8-1.89,11.6-5.75,14.24-9.06,0,0,.32.01.12.5-.34.83-.85,1.81-1.55,2.98,1.24,2.63,3.47,4.56,5.68,5.93.07,1.03.07,2.47-.2,4.06Z"/><circle cx="20" cy="44" r="1.5"/><circle cx="23.1" cy="46.1" r="1.5"/><circle cx="26.9" cy="46.1" r="1.5"/><circle cx="30" cy="44" r="1.5"/></g></svg>