<?xml version="1.0" encoding="UTF-8"?><svg id="Laag_1" xmlns="http://www.w3.org/2000/svg" xmlns:xlink="http://www.w3.org/1999/xlink" viewBox="0 0 64 64"><defs><style>.cls-1{fill:none;}.cls-2{clip-path:url(#clippath);}.cls-3{clip-path:url(#clippath-1);}</style><clipPath id="clippath"><rect class="cls-1" width="64" height="64"/></clipPath><clipPath id="clippath-1"><rect class="cls-1" width="64" height="64"/></clipPath></defs><g class="cls-2"><g class="cls-3"><path d="M40.16,36.28l-4.21-1.46c-.34-1.22-.82-2.37-1.43-3.44l1.94-4.01c.23-.48,.14-1.05-.24-1.43l-2.17-2.17c-.38-.38-.95-.47-1.43-.24l-4.03,1.95c-1.06-.59-2.2-1.05-3.4-1.38l-1.48-4.26c-.17-.5-.65-.84-1.18-.84h-3.07c-.53,0-1.01,.34-1.18,.84l-1.49,4.31c-1.16,.34-2.26,.8-3.29,1.38l-4.12-2c-.48-.23-1.05-.13-1.43,.24l-2.17,2.17c-.38,.38-.47,.95-.24,1.43l2.02,4.16c-.56,1.01-.99,2.09-1.31,3.22l-4.4,1.52c-.5,.17-.84,.65-.84,1.18v3.07c0,.53,.34,1.01,.84,1.18l4.21,1.46c.34,1.22,.82,2.37,1.43,3.44l-1.94,4.01c-.23,.48-.14,1.05,.24,1.43,1.33,1.33,.84,.84,2.17,2.17,.38,.38,.95,.47,1.43,.24l4.03-1.95c1.06,.59,2.2,1.05,3.4,1.38l1.48,4.26c.17,.5,.65,.84,1.18,.84h3.07c.53,0,1.01-.34,1.18-.84l1.5-4.31c1.16-.34,2.26-.8,3.29-1.38l4.12,2c.48,.23,1.05,.14,1.43-.24,1.33-1.33,.84-.84,2.17-2.17,.38-.38,.47-.95,.24-1.43l-2.02-4.16c.56-1.01,.99-2.09,1.31-3.22l4.4-1.52c.5-.17,.84-.65,.84-1.18v-3.07c0-.53-.34-1.01-.84-1.18m-19.16,8.82c-3.37,0-6.1-2.73-6.1-6.1s2.73-6.1,6.1-6.1,6.1,2.73,6.1,6.1-2.73,6.1-6.1,6.1"/><path d="M62.41,18.1l-2.94-1.02c-.24-.85-.57-1.66-1-2.41l1.36-2.8c.16-.34,.1-.74-.17-1-.93-.93-.59-.59-1.52-1.52-.26-.26-.67-.33-1-.17l-2.82,1.37c-.74-.42-1.54-.74-2.38-.97l-1.03-2.98c-.12-.35-.45-.59-.83-.59h-2.15c-.37,0-.71,.24-.83,.59l-1.05,3.02c-.81,.23-1.58,.56-2.3,.97l-2.89-1.4c-.34-.16-.74-.1-1,.17-.93,.93-.59,.59-1.52,1.52-.26,.26-.33,.67-.17,1l1.41,2.91c-.39,.71-.69,1.46-.92,2.26l-3.08,1.07c-.35,.12-.59,.45-.59,.83v2.15c0,.37,.24,.7,.59,.83l2.94,1.02c.24,.85,.57,1.66,1,2.41l-1.36,2.8c-.16,.34-.09,.74,.17,1,.93,.93,.59,.59,1.52,1.52,.26,.26,.66,.33,1,.17l2.82-1.37c.74,.41,1.54,.74,2.38,.97l1.03,2.98c.12,.35,.45,.59,.83,.59h2.15c.37,0,.71-.24,.83-.59l1.05-3.02c.81-.24,1.58-.56,2.3-.97l2.89,1.4c.33,.16,.74,.09,1-.17,.93-.93,.59-.59,1.52-1.52,.26-.26,.33-.66,.17-1l-1.41-2.91c.39-.71,.69-1.46,.92-2.26l3.08-1.07c.35-.12,.59-.45,.59-.83v-2.15c0-.37-.24-.7-.59-.83m-13.41,6.17c-2.36,0-4.27-1.91-4.27-4.27s1.91-4.27,4.27-4.27,4.27,1.91,4.27,4.27-1.91,4.27-4.27,4.27"/></g></g></svg>