<?xml version="1.0" encoding="UTF-8"?><svg id="Laag_1" xmlns="http://www.w3.org/2000/svg" xmlns:xlink="http://www.w3.org/1999/xlink" viewBox="0 0 64 64"><defs><style>.cls-1{fill:none;}.cls-2{clip-path:url(#clippath);}.cls-3{clip-path:url(#clippath-1);}</style><clipPath id="clippath"><rect class="cls-1" width="64" height="64"/></clipPath><clipPath id="clippath-1"><rect class="cls-1" width="64" height="64"/></clipPath></defs><g class="cls-2"><g class="cls-3"><path d="M54.7,15.03l-.89-.45c-.49-.25-1.09-.05-1.34,.44l-4,7.97h-10.46c-.55,0-1,.45-1,1v1c0,.55,.45,1,1,1h-9v3h18v31h-11c-1.66,0-3,1.34-3,3h20c0-1.66-1.34-3-3-3V29h3v-3h-2.69l4.83-9.63c.25-.49,.05-1.09-.44-1.34"/><path d="M41.4,52.15l-1.4,.8v-16.89l1.4,.8c.25,.15,.57,.09,.76-.13,.19-.22,.2-.55,.02-.77l-2.7-3.42c-.12-.15-.29-.23-.48-.23s-.36,.08-.48,.23c-.12,.15-2.7,3.42-2.7,3.42-.18,.23-.17,.55,.02,.77,.19,.22,.51,.28,.76,.13l1.4-.8v16.89l-1.4-.8c-.25-.14-.57-.09-.76,.13-.19,.22-.2,.55-.02,.78l2.7,3.42c.12,.15,.29,.23,.48,.23,.19,0,.36-.09,.48-.23,.12-.15,2.7-3.42,2.7-3.42,.18-.23,.17-.55-.02-.78-.19-.22-.51-.28-.76-.13"/><path d="M15.88,12.13c3.02,.13,4.84-1.87,4.95-4.85,.12-3.4-1.64-5.3-4.58-5.42-3.1-.13-4.85,1.95-4.96,5.01-.11,3.23,1.57,5.13,4.59,5.26"/><path d="M31,22.94c-3.07-.07-4.41-.71-6.36-1.98-1.79-1.17-3.8-3.97-5.43-5.5-1.15-1.08-2.66-1.59-4.14-1.4-2.05,.27-3.87,1.88-3.98,4.74-.16,4.45,1.76,9.95,1.36,12.88-.24,1.82-.63,2.9-.3,4.57,.42,2.1,1.33,3.08,1.58,6.67,.14,2.01,.25,10.38,.42,14.83,.17,4.45,3.51,4.98,4.48,5.04,1.18-12.24,2.13-30.2,2.23-40.19,.65,.67,1.57,1.46,2.89,2.16,3.69,1.97,10.49,1.23,10.49,1.23,0,0-.18-2.98-3.25-3.05"/></g></g></svg>