<?xml version="1.0" encoding="UTF-8"?><svg id="Laag_1" xmlns="http://www.w3.org/2000/svg" xmlns:xlink="http://www.w3.org/1999/xlink" viewBox="0 0 64 64"><defs><style>.cls-1{fill:none;}.cls-2{clip-path:url(#clippath);}.cls-3{clip-path:url(#clippath-1);}</style><clipPath id="clippath"><rect class="cls-1" width="64" height="64"/></clipPath><clipPath id="clippath-1"><rect class="cls-1" width="64" height="64"/></clipPath></defs><g class="cls-2"><g class="cls-3"><path d="M11.39,5.65l2.74,1.22,1.62-3.65-2.74-1.22c-1.01-.45-1.71,.16-2.15,1.17-.45,1.01-.48,2.03,.53,2.48m41.34,12.98c-1.62-.24-3.24-.44-4.87-.62L17.15,4.38l-1.22,2.74,22.97,10.2c-.57-.03-1.14-.07-1.71-.09-1.73-.06-3.46-.09-5.19-.09-6.93,0-13.85,.5-20.73,1.5-3.47,.52-6.27,3.9-6.27,7.36v27.69c0,3.47,2.83,6.29,6.31,6.31H52.69c3.49-.02,6.31-2.84,6.31-6.31V26c0-3.46-2.8-6.84-6.27-7.36M9,29v-3c0-1.53,1.39-3.19,2.85-3.41,6.65-.97,13.43-1.46,20.15-1.46s13.5,.49,20.14,1.45c1.47,.22,2.86,1.88,2.86,3.41v3H9Zm6.85,6.5c0-.91,.74-1.65,1.65-1.65s1.65,.74,1.65,1.65-.74,1.65-1.65,1.65-1.65-.74-1.65-1.65m.3,6c0,.91-.74,1.65-1.65,1.65s-1.65-.74-1.65-1.65,.74-1.65,1.65-1.65,1.65,.74,1.65,1.65m4.35-1.65c.91,0,1.65,.74,1.65,1.65s-.74,1.65-1.65,1.65-1.65-.74-1.65-1.65,.74-1.65,1.65-1.65m1.35-4.35c0-.91,.74-1.65,1.65-1.65s1.65,.74,1.65,1.65-.74,1.65-1.65,1.65-1.65-.74-1.65-1.65m4.65,4.35c.91,0,1.65,.74,1.65,1.65s-.74,1.65-1.65,1.65-1.65-.74-1.65-1.65,.74-1.65,1.65-1.65m1.35-4.35c0-.91,.74-1.65,1.65-1.65s1.65,.74,1.65,1.65-.74,1.65-1.65,1.65-1.65-.74-1.65-1.65m-13.35,13.65c-.91,0-1.65-.74-1.65-1.65s.74-1.65,1.65-1.65,1.65,.74,1.65,1.65-.74,1.65-1.65,1.65m3,6c-.91,0-1.65-.74-1.65-1.65s.74-1.65,1.65-1.65,1.65,.74,1.65,1.65-.74,1.65-1.65,1.65m3-6c-.91,0-1.65-.74-1.65-1.65s.74-1.65,1.65-1.65,1.65,.74,1.65,1.65-.74,1.65-1.65,1.65m3,6c-.91,0-1.65-.74-1.65-1.65s.74-1.65,1.65-1.65,1.65,.74,1.65,1.65-.74,1.65-1.65,1.65m3-6c-.91,0-1.65-.74-1.65-1.65s.74-1.65,1.65-1.65,1.65,.74,1.65,1.65-.74,1.65-1.65,1.65m3,6c-.91,0-1.65-.74-1.65-1.65s.74-1.65,1.65-1.65,1.65,.74,1.65,1.65-.74,1.65-1.65,1.65m3-6c-.91,0-1.65-.74-1.65-1.65s.74-1.65,1.65-1.65,1.65,.74,1.65,1.65-.74,1.65-1.65,1.65m0-6c-.91,0-1.65-.74-1.65-1.65s.74-1.65,1.65-1.65,1.65,.74,1.65,1.65-.74,1.65-1.65,1.65m15.5,7.95c-3.92,0-7.1-3.18-7.1-7.1s3.18-7.1,7.1-7.1,7.1,3.18,7.1,7.1-3.18,7.1-7.1,7.1m0-12.1c-2.76,0-5,2.24-5,5s2.24,5,5,5,5-2.24,5-5-2.24-5-5-5"/></g></g></svg>