<?xml version="1.0" encoding="UTF-8"?><svg id="Laag_1" xmlns="http://www.w3.org/2000/svg" xmlns:xlink="http://www.w3.org/1999/xlink" viewBox="0 0 64 64"><defs><style>.cls-1{fill:none;}.cls-2{clip-path:url(#clippath);}.cls-3{clip-path:url(#clippath-1);}</style><clipPath id="clippath"><rect class="cls-1" width="64" height="64"/></clipPath><clipPath id="clippath-1"><rect class="cls-1" width="64" height="64"/></clipPath></defs><g class="cls-2"><g class="cls-3"><path d="M17.84,15.99c2.97,.13,4.77-1.81,4.87-4.71,.12-3.3-1.61-5.15-4.51-5.27-3.05-.13-4.77,1.89-4.88,4.88-.11,3.14,1.54,4.99,4.52,5.11"/><path d="M26,44h-10c-1.1,0-2,.9-2,2s.9,2,2,2h10c1.1,0,2-.89,2-2s-.9-2-2-2"/><path d="M56.7,19.03l-.89-.45c-.49-.25-1.09-.05-1.34,.44l-4,7.97h-10.46c-.55,0-1,.45-1,1v1c0,.55,.45,1,1,1h-3.75s-.18-2.99-3.25-3.06c-3.07-.07-4.41-.71-6.36-1.98-2.89-1.88-4.55-5.83-7.64-6.74-2.77-.82-6,.9-5.98,4.78,.02,4.45,.34,10.95,.69,14.61,.23,2.38,2.31,4.31,5.62,4.37,2.41,.05,10.41,0,10.41,0,0,0,2.01,7.98,3.03,12.31,1.02,4.33,4.4,4.21,5.36,4.09,0,0-1.66-16.26-2.16-18.63-.49-2.31-.58-4.19-3.58-4.49-2.16-.22-5.4-.31-8.2-.21-.28-2.66-.64-5.7-.92-8.04,.62,.57,1.42,1.19,2.48,1.76,1.47,.78,3.41,1.13,5.24,1.28v2.96h24v-3h-2.69l4.83-9.63c.25-.49,.05-1.09-.44-1.34"/></g></g></svg>