<?xml version="1.0" encoding="UTF-8"?>
<svg id="Zwart" xmlns="http://www.w3.org/2000/svg" viewBox="0 0 64 64">
  <rect x="21" y="24" width="22" height="3"/>
  <rect x="21" y="11" width="10" height="3"/>
  <rect x="21" y="16" width="10" height="3"/>
  <path d="M34.42,28.99c-.61,1.28-1.5,2.92-1.13,4.37.07.28.31.41.58.44.57.07,1.5-.6,1.98-1.22,0,.07,0,.13,0,.15.04.3.19.69.43.89.21.17.48.24.73.09.37-.21.61-.55.83-.9.03.36.17.68.53.85.77.38,1.21-.29,1.62-.89.15.2.41.36.67.27.75-.26.49-.86,1.02-.09.44.63,1.48.03,1.04-.61-.31-.46-.24-1.01-.84-1.16-.4-.1-.72.15-1.03.39-.01-.04-.03-.09-.04-.13-.09-.35-.57-.59-.88-.36-.52.38-.61.74-.89,1.27-.24.45.11-.39.15-.66.03-.23.07-.45.08-.69.03-.48-.52-.71-.9-.52-.57.29-.87.85-1.2,1.36.1-.45.2-.94,0-1.21-.12-.16-.3-.33-.52-.3-.87.11-1.57,1.47-2.23,2.01.09-.95.69-2.05,1.04-2.78.33-.69-.7-1.3-1.04-.61Z"/>
  <path d="M22.31,28.99c-.61,1.28-1.5,2.92-1.13,4.37.07.28.31.41.58.44.57.07,1.5-.6,1.98-1.22,0,.07,0,.13,0,.15.05.3.19.69.43.89.21.17.48.24.73.09.37-.21.61-.55.83-.9.03.36.17.68.53.85.77.38,1.21-.29,1.62-.89.15.2.41.36.67.27.75-.26.49-.86,1.02-.09.44.63,1.48.03,1.04-.61-.31-.46-.24-1.01-.84-1.16-.4-.1-.72.15-1.03.39-.01-.04-.03-.09-.04-.13-.09-.35-.57-.59-.88-.36-.52.38-.61.74-.89,1.27-.24.45.11-.39.15-.66.03-.23.07-.45.08-.69.03-.48-.52-.71-.9-.52-.57.29-.87.85-1.2,1.36.1-.45.2-.94,0-1.21-.12-.16-.3-.33-.52-.3-.87.11-1.57,1.47-2.23,2.01.09-.95.69-2.05,1.04-2.78.33-.69-.7-1.3-1.04-.61Z"/>
  <polygon points="42.84 46 21.16 46 24.15 51 39.85 51 42.84 46"/>
  <path d="M17,6h16.74l.92-3.11c.11-.34.34-.21.34-.21v14.37c0,.55.48.96,1.03.96h14.37s.11.27-.23.38l-3.16.95v18.16c1.32-1.98,3.53-5.3,5-7.5v-12.13c0-.53-.19-1.04-.57-1.41L36.61,1.61c-.37-.38-.88-.61-1.41-.61H14.03c-1.1,0-2.03.94-2.03,2.04v26.95c1.47,2.2,3.68,5.52,5,7.5V6Z"/>
  <path d="M8.65,44.89l3.8-2.27,3.8-2.27s-6.26-9.43-7.39-11.07c-1.13-1.64-2.88-1.37-4.59-.34-1.6.95-2.62,2.26-2.01,3.86l-.07.04c-1.38.83-1.93,2.56-1.28,4.03l2.86,6.45c.5,1.12,1.8,1.62,2.92,1.13l-3.76-8.47c-.19-.42-.04-.9.32-1.17,1.8,3.39,5.38,10.1,5.38,10.1Z"/>
  <path d="M23.99,60.21c.32-2.83.21-4.83-1.41-7.54l-6.18-10.34-6.08,3.64,6.18,10.34c1.62,2.72,3.33,3.76,5.97,4.82l.83,1.38c.24.4.77.57,1.21.31.42-.25.56-.79.31-1.21l-.83-1.38Z"/>
  <path d="M61.8,32.84l-.07-.04c.61-1.61-.41-2.91-2.01-3.86-1.71-1.02-3.47-1.3-4.59.34-1.13,1.64-7.39,11.07-7.39,11.07l3.8,2.27,3.8,2.27s3.58-6.7,5.38-10.1c.37.27.51.75.32,1.17l-3.76,8.47c1.12.5,2.43,0,2.92-1.13l2.86-6.45c.65-1.47.11-3.2-1.28-4.03Z"/>
  <path d="M41.42,52.67c-1.62,2.72-1.73,4.71-1.41,7.54l-.83,1.38c-.25.42-.11.96.31,1.21.44.27.98.09,1.21-.31l.83-1.38c2.64-1.06,4.35-2.1,5.97-4.82l6.18-10.34-6.08-3.64-6.18,10.34Z"/>
</svg>