<?xml version="1.0" encoding="UTF-8"?><svg id="Laag_1" xmlns="http://www.w3.org/2000/svg" xmlns:xlink="http://www.w3.org/1999/xlink" viewBox="0 0 64 64"><defs><style>.cls-1{fill:none;}.cls-2{clip-path:url(#clippath);}.cls-3{clip-path:url(#clippath-1);}</style><clipPath id="clippath"><rect class="cls-1" width="64" height="64"/></clipPath><clipPath id="clippath-1"><rect class="cls-1" width="64" height="64"/></clipPath></defs><g class="cls-2"><g class="cls-3"><path d="M50.91,34.95c-.51-.64-1.71-.08-1.71-.08,0,0-3.3,2.58-3.89,2.97-.59,.39-.53-.06-.1-.62,.43-.56,5.51-4.47,5.51-4.47,0,0,1.02-1.14,.32-1.9-.71-.77-1.67-.24-1.67-.24,0,0-4.75,3.84-5.17,4.15-.42,.31-.73-.27-.05-.82,.68-.55,5.94-4.87,5.94-4.87,0,0,.95-1.11,.23-1.8-.71-.69-2.05-.07-2.05-.07,0,0-5.48,4.59-5.95,4.94-.47,.35-1.15,.12-.22-.83,.94-.95,3.92-4.11,3.92-4.11,0,0,.98-.97,.29-1.77-.68-.79-2.22,.16-2.22,.16,0,0-6.05,5.68-7.08,6.63-1.02,.95-2.17,1.85-1.59,.68,.58-1.17,2.72-4.5,2.72-4.5,0,0,.61-1.28-.75-1.92-1.08-.51-3.04,1.87-4.68,4.97-1.64,3.1-2.86,5.26-4.36,6.96-.18,.21-.41,.42-.67,.65h0c-.2,.18-.43,.35-.67,.54,0-.02,0-.04,0-.06-.86,.61-2.45,1.7-4.15,2.74-2.21,1.34-5.07,3.04-5.07,3.04,0,0,4.72-3.59,6.91-5.63,1.17-1.09,2.1-2.77,2.7-4.09,.23-2.14,.54-4.24,1.05-5.39,.92-2.08,2.37-4.09,4.5-6.88,2.13-2.79,3.47-5.57,2.55-6.34-1.15-.96-2.06,.13-2.06,.13,0,0-2.12,3.34-2.94,4.35-.82,1.02-.48-.4-.05-1.72,.43-1.33,3.05-9.2,3.05-9.2,0,0,.22-1.8-.79-2.09-1.02-.29-1.49,1.01-1.49,1.01,0,0-1.62,4.03-2.09,5.28-.47,1.25-.97,.72-.84,.15,.12-.57,2-7.47,2-7.47,0,0,0-1.47-.92-1.83-.92-.36-1.54,.97-1.54,.97,0,0-1.72,6.58-1.93,7.43-.22,.85-.88,.81-.77,.3,.11-.51,1.61-6.44,1.61-6.44,0,0,.07-1.09-.92-1.42-.99-.32-1.6,1.09-1.6,1.09,0,0-1.42,6.25-1.75,6.88-.33,.63-.71,.87-.6,.17,.1-.7,1.07-4.78,1.07-4.78,0,0,0-1.32-.79-1.51-.79-.2-1.28,.72-1.64,1.83-.36,1.1-1.36,4.56-1.76,8.24-.4,3.67,.65,5.32-.03,9.68-.69,4.35-5.1,17.18-5.1,17.18,0,0,1.06,.55,2.56,1.16-1.87,1.21-3.52,2.3-3.52,2.3,0,0,1.94,3.03,3.9,5.33,1.97,2.29,4.38,4.17,4.38,4.17,0,0,9.79-9.38,13.46-11.83,3.67-2.45,5.6-2.18,8.77-4.08,3.17-1.91,5.89-4.26,6.74-5.05,.85-.79,1.48-1.61,.97-2.25"/></g></g></svg>