<?xml version="1.0" encoding="UTF-8"?>
<svg id="Zwart" xmlns="http://www.w3.org/2000/svg" viewBox="0 0 64 64">
  <path d="M46.7,46.2c-.6-.99-1.17-1.75-1.73-2.52-1.17-1.59-2.39-3.15-3.63-4.7.49-2.58,1.21-5.76,1.88-8.6.29.89.61,1.82,1.11,2.82.6,1.18,2.6,3,3.52,3.96,2.21,2.32,4.53,1.31,5,1.06-.84-1.12-2.91-3.51-3.48-4.2-.44-.54-1.5-1.79-1.78-2.43-.39-.85-.71-1.95-.99-2.95-.13-.47-1.46-5.95-1.66-6.25-.72-1.79-6.12-4.28-9.32-2.38-1.76,1.05-5.07,3.51-6.74,5.35-1.02,1.13-1.43,1.81-1.87,4.29-.27,1.56-.44,3.37-.47,4.95-.02,1.13.37,2.22,1.14,2.95l-2.17,5.83-4.17-1.73c-1.16-.48-2.51-.07-3.19.99-.9,1.39-1.47,2-3.21,6.33-1.84,4.28-1.87,5.12-2.22,6.74-.26,1.23.38,2.48,1.55,2.96l1.37.57s.5-1.2,1.62-1.86c1.3-.76,2.45-.51,2.84-.39.22.07.27.25.2.33-.92-.1-1.78.26-2.39.86-1.29,1.27-1.23,3.24-.02,4.43.56.55,1.33.89,2.17.89s1.65-.36,2.22-.93c.55-.56.89-1.33.89-2.17,0-.99-.47-1.87-1.2-2.43,0,0,7.3-19.59,7.3-19.59.39-2.99,1.02-7.45,1.97-9.38.39-.79,2.15-1.97,2.89-2.45-.47,2.17-2.09,9.42-2.09,11.08,0,2.05,1.33,3.12,2.17,4.01l3.31,3.47s-.12.21-.4.05c-1.45-.84-3.36-1.94-3.36-1.94-.48,1.79-1.25,4.72-1.93,6.45-.54,1.38-.36.99-.88,1.89-1.06,1.82-2.44,3.66-3.62,5.73-1.94,3.4.41,5.9.74,6.21,1.91-2.68,5.2-6.65,7.06-9.44.62-.92.69-1,1.39-2.34.53-1.07,1.25-2.62,2.29-5.19.46.42.9.89,1.35,1.34,1.12,1.13,1.81,1.68,2.25,2.51.13.25.41.82.69,1.55,1.71,4.4,3.08,6.97,3.83,8.77,1.14,2.71,4.3,2.98,5.19,2.71-.87-3.45-2.89-10.49-4.01-13.92-.79-2.42-.9-2.46-1.41-3.3Z"/>
  <path d="M14.04,18.81c1.18.61,2.15,4.32,2.39,5.76.03.19.31.2.35,0,.33-1.49,1.23-5.27,2.32-5.76,1.11-.5,3.88,1.01,5.15,1.83.16.1.35-.09.24-.25-.87-1.28-2.53-3.95-1.81-5.16.74-1.24,4.66-2.03,6.03-2.36.18-.04.18-.3,0-.35-1.44-.33-5.54-1.15-6.03-2.36-.49-1.22.98-3.85,1.76-5.1.1-.16-.09-.34-.25-.24-1.27.78-3.95,2.28-5.1,1.76-1.17-.53-2.03-4.92-2.37-6.31-.04-.18-.3-.18-.34,0-.39,1.41-1.33,5.87-2.35,6.32-1.01.44-3.83-1.06-5.13-1.81-.16-.09-.34.09-.24.25.76,1.21,2.25,3.82,1.78,5.14-.45,1.27-4.39,2.03-5.88,2.35-.19.04-.19.31,0,.35,1.46.29,5.29.99,5.87,2.37.55,1.31-.98,3.83-1.82,5.11-.11.17.09.36.25.24,1.22-.88,4.09-2.32,5.15-1.77ZM12,12.67c0-2.54,2.06-4.6,4.6-4.6s4.6,2.06,4.6,4.6-2.06,4.6-4.6,4.6-4.6-2.06-4.6-4.6Z"/>
  <path d="M38.31,13.11c-.33,2.71.92,4.48,3.47,4.89,2.65.43,4.49-1.17,4.92-3.84.06-.39.1-.76.1-1.11,2.04-.28,3.39-.75,3.38-1.28,0-.55-1.53-1.03-3.8-1.27-.31-1.27-.88-3.35-1.35-3.62-.68-.4-4.89-.16-5.56.44-.54.48-.87,2.48-.97,3.27-2.13.28-3.55.76-3.54,1.3,0,.52,1.33.96,3.35,1.22Z"/>
</svg>