<?xml version="1.0" encoding="UTF-8"?><svg id="Laag_1" xmlns="http://www.w3.org/2000/svg" xmlns:xlink="http://www.w3.org/1999/xlink" viewBox="0 0 64 64"><defs><style>.cls-1{fill:none;}.cls-2{clip-path:url(#clippath);}.cls-3{clip-path:url(#clippath-1);}</style><clipPath id="clippath"><rect class="cls-1" width="64" height="64"/></clipPath><clipPath id="clippath-1"><rect class="cls-1" width="64" height="64"/></clipPath></defs><g class="cls-2"><g class="cls-3"><path d="M21.5,48.36l-1.48,2.08-1.84-1.78c-.06-.06-.13-.13-.19-.2l-2.31,7.32h7.03l2.13-11.81c-.4,.52-.8,1.05-1.21,1.57-.8,1.03-1.55,2.01-2.12,2.81"/><path d="M31.52,45.89c-.18-.42-.4-.89-.66-1.45-.36-.78-.82-1.77-1.33-2.97l-.97,14.32h7.03l-.46-6.76c-1.42-.41-2.87-1.37-3.61-3.14"/><polygon points="11 41.23 2.8 55.79 9.83 55.79 16.06 41.23 11 41.23"/><polygon points="38.82 41.23 41.44 55.79 48.47 55.79 43.88 41.23 38.82 41.23"/><polygon points="53.16 41.23 48.1 41.23 54.33 55.79 61.35 55.79 53.16 41.23"/><path d="M29.76,13.8c1.94,.32,3.29-.86,3.61-2.81,.37-2.23-.61-3.62-2.5-3.93-1.99-.33-3.3,.91-3.63,2.92-.35,2.12,.58,3.5,2.52,3.82"/><path d="M31.64,24.87c.44,.87,1.91,2.2,2.58,2.9,1.62,1.71,3.32,.96,3.67,.78-.62-.82-2.13-2.57-2.55-3.08-.32-.4-1.1-1.32-1.31-1.78-.29-.62-.52-1.43-.73-2.17-.1-.34-1.07-4.37-1.22-4.58-.53-1.31-4.49-3.14-6.83-1.74-1.29,.77-3.72,2.57-4.94,3.92-.75,.83-1.05,1.33-1.37,3.15-.19,1.15-.32,2.47-.34,3.63-.03,1.28,.65,2.49,2,2.77,.29-2.19,.75-5.46,1.45-6.88,.28-.58,1.58-1.44,2.12-1.79-.34,1.59-1.53,6.91-1.53,8.13,0,1.51,.97,2.29,1.59,2.94l2.43,2.54s-.09,.15-.3,.03c-1.06-.61-2.46-1.42-2.46-1.42-.35,1.31-.92,3.46-1.42,4.73-.4,1.01-.26,.73-.65,1.39-.78,1.34-1.79,2.68-2.66,4.2-1.42,2.49,.3,4.32,.54,4.56,1.4-1.97,3.81-4.88,5.17-6.92,.46-.68,.51-.73,1.02-1.72,.39-.79,.92-1.92,1.68-3.81,.33,.31,.66,.65,.99,.99,.82,.83,1.33,1.23,1.65,1.84,.1,.19,.3,.6,.51,1.13,1.25,3.23,2.26,5.11,2.81,6.43,.83,1.99,3.15,2.19,3.8,1.99-.64-2.53-2.12-7.7-2.94-10.2-.58-1.77-.66-1.8-1.04-2.42-.44-.72-.86-1.28-1.27-1.85-.86-1.17-1.75-2.31-2.66-3.45,.36-1.89,.89-4.22,1.38-6.31,.21,.65,.45,1.34,.81,2.07"/></g></g></svg>