<?xml version="1.0" encoding="UTF-8"?><svg id="Laag_1" xmlns="http://www.w3.org/2000/svg" xmlns:xlink="http://www.w3.org/1999/xlink" viewBox="0 0 64 64"><defs><style>.cls-1{fill:none;}.cls-2{clip-path:url(#clippath);}.cls-3{clip-path:url(#clippath-1);}</style><clipPath id="clippath"><rect class="cls-1" width="64" height="64"/></clipPath><clipPath id="clippath-1"><rect class="cls-1" width="64" height="64"/></clipPath></defs><g class="cls-2"><g class="cls-3"><path d="M44,18.25v-4.25h1.49c.89,0,1.68-.59,1.92-1.45l1.59-5.55H1l1.59,5.55c.25,.86,1.03,1.45,1.92,1.45h7.91c.02,.06,.07,.26-.25,.36-.22,.07-3.96,.82-6.17,1.25v2.63c0,10.49,8.51,11.75,19,11.75s19-1.26,19-11.75m-8,4.95c-1.22,0-2.2-.98-2.2-2.2s.99-2.2,2.2-2.2,2.2,.99,2.2,2.2-.99,2.2-2.2,2.2"/><path d="M60.91,40.92l-14.77-11.29c-.66-.5-1.6-.38-2.1,.28-.5,.66-.38,1.6,.28,2.1l14.77,11.29c.66,.5,1.6,.38,2.1-.28,.5-.66,.38-1.6-.28-2.1"/><path d="M39.39,34.64c-.31-.77-1.18-1.14-1.95-.84-.77,.31-1.14,1.18-.84,1.95l9.33,23.36c.31,.77,1.18,1.14,1.95,.84,.77-.31,1.14-1.18,.84-1.95l-9.33-23.36Z"/><path d="M61,22h-12c-.83,0-1.5,.67-1.5,1.5s.67,1.5,1.5,1.5h12c.83,0,1.5-.67,1.5-1.5s-.67-1.5-1.5-1.5"/></g></g></svg>