<?xml version="1.0" encoding="UTF-8"?><svg id="Laag_1" xmlns="http://www.w3.org/2000/svg" xmlns:xlink="http://www.w3.org/1999/xlink" viewBox="0 0 64 64"><defs><style>.cls-1{fill:none;}.cls-2{clip-path:url(#clippath);}.cls-3{clip-path:url(#clippath-1);}</style><clipPath id="clippath"><rect class="cls-1" width="64" height="64"/></clipPath><clipPath id="clippath-1"><rect class="cls-1" width="64" height="64"/></clipPath></defs><g class="cls-2"><g class="cls-3"><path d="M18.69,17.64c0-2.37-1.19-3.64-3.19-3.64s-3.19,1.46-3.19,3.64,1.18,3.46,3.19,3.46,3.19-1.46,3.19-3.46"/><path d="M20.6,38.96c.91,0,2.37-.55,2.55-2.55,0-5.65,.27-12.66-4.01-13.67-2.19-.55-5.19-.55-7.29,0-4.19,1-4.01,8.02-4.01,13.76,.18,2,1.64,2.55,2.55,2.55v-5.28c0-2.46,.46-5.1,.73-6.01,.09-.27,.27-.18,.27-.18v27.42s3.01,0,3.28-3.37c0,0,.45-12.76,.45-12.85,0-.18,.09-.36,.36-.36s.37,.18,.37,.36,.46,12.76,.46,12.76c.18,3.46,3.28,3.46,3.28,3.46V27.48s.18-.09,.27,.18c.27,.82,.73,3.46,.73,5.92v5.38Z"/><path d="M50.5,19c.83,0,1.5-.67,1.5-1.5s-.67-1.5-1.5-1.5-1.5,.67-1.5,1.5,.67,1.5,1.5,1.5"/><path d="M50.5,24c.83,0,1.5-.67,1.5-1.5s-.67-1.5-1.5-1.5-1.5,.67-1.5,1.5,.67,1.5,1.5,1.5"/><path d="M50.5,29c.83,0,1.5-.67,1.5-1.5s-.67-1.5-1.5-1.5-1.5,.67-1.5,1.5,.67,1.5,1.5,1.5"/><path d="M35.5,21.25c2.07,0,3.28-1.46,3.28-3.56,0-2.4-1.25-3.68-3.28-3.68-2.13,0-3.28,1.52-3.28,3.68,0,2.28,1.2,3.56,3.28,3.56"/><path d="M41.94,38.36c.9-.12,2-1.23,1.63-3.28-.45-2.51-1.02-3.89-1.22-5.63-.45-3.86-1.6-5.72-3.73-6.4-1.02-.32-1.98-.47-3.09-.47h-.04c-1.1,0-2.07,.15-3.09,.47-2.13,.68-3.28,2.53-3.73,6.4-.2,1.75-.77,3.12-1.22,5.63-.37,2.04,.73,3.16,1.63,3.28,2.06-6.67,1.91-9.56,2.43-11.06,.09-.27,.32-.68,.32-.68-.44,1.83-.16,2.69,.06,3.62,.23,.98,.28,2.02,.03,3-.48,1.85-2,4.28-2,10.19,0,0,1.52,.41,3.97,.2,.08,.13,.05,.3-.16,.45-.18,.13-.73,.38-1.82,.42l.39,10.51s2.41-.38,2.57-2.81c0,0,.2-5.95,.3-8.73,.51-.08,.31-.06,.69-.11,.09,2.71,.3,8.77,.3,8.77,.12,2.5,2.58,2.87,2.58,2.87l.44-11.69c1.14,.11,1.94,.3,1.94,.3,0-5.91-1.52-8.52-2-10.37-.25-.98-.2-2.01,.03-3,.22-.93,.5-1.79,.06-3.62,0,0,.23,.42,.32,.68,.51,1.5,.36,4.39,2.43,11.06"/><path d="M55,48.81v8.19H5V7H55V30.2c1.11-.99,2.89-.99,4,0V5c0-1.1-.9-2-2-2H3c-1.1,0-2,.9-2,2V59c0,1.11,.9,2,2,2H57c1.1,0,2-.89,2-2v-10.19c-.55,.5-1.25,.78-2,.78s-1.45-.28-2-.78"/><path d="M56.29,31.71l-4.59,4.59c-.63,.63-.18,1.71,.71,1.71h9.17c.89,0,1.34-1.08,.71-1.71l-4.59-4.59c-.39-.39-1.02-.39-1.41,0"/><path d="M61.59,41h-9.17c-.89,0-1.34,1.08-.71,1.71l4.59,4.59c.39,.39,1.02,.39,1.41,0l4.59-4.59c.63-.63,.18-1.71-.71-1.71"/></g></g></svg>