<?xml version="1.0" encoding="UTF-8"?><svg id="Laag_1" xmlns="http://www.w3.org/2000/svg" xmlns:xlink="http://www.w3.org/1999/xlink" viewBox="0 0 64 64"><defs><style>.cls-1{fill:none;}.cls-2{clip-path:url(#clippath);}.cls-3{clip-path:url(#clippath-1);}</style><clipPath id="clippath"><rect class="cls-1" width="64" height="64"/></clipPath><clipPath id="clippath-1"><rect class="cls-1" width="64" height="64"/></clipPath></defs><g class="cls-2"><g class="cls-3"><path d="M35.64,55.79l1.23-.41c.27-.09,.28-.47,.01-.57l-3.41-1.29c-.25-.09-.52,.08-.54,.34l-.3,3.59c-.02,.28,.32,.44,.51,.23l.8-.83c1.7,2.43,3.82,3.5,5.05,3.95v-2.16c-.96-.45-2.25-1.31-3.36-2.86M55,7H9V52h30v-3.99h-5.02V11h13.64l-6.62,5.66V61.41l3.53,.86,10.47-10.27V7ZM30.02,48H13v-10H30.02v10Zm0-14H13V11H30.02v23Zm20.98,16.33l-6,5.88v-10.91l6-5.23v10.26Zm0-15.57l-6,5.23V18.5l6-5.13v21.39Z"/></g></g></svg>