<?xml version="1.0" encoding="UTF-8"?><svg id="Laag_1" xmlns="http://www.w3.org/2000/svg" xmlns:xlink="http://www.w3.org/1999/xlink" viewBox="0 0 64 64"><defs><style>.cls-1{fill:none;}.cls-2{clip-path:url(#clippath);}.cls-3{clip-path:url(#clippath-1);}</style><clipPath id="clippath"><rect class="cls-1" width="64" height="64"/></clipPath><clipPath id="clippath-1"><rect class="cls-1" width="64" height="64"/></clipPath></defs><g class="cls-2"><g class="cls-3"><path d="M18,43.81c0,4,.84,8.79,1.43,11.65,1.29-.4,2.45-1.02,2.79-1.24l2.27-1.46,2.27,1.46c.65,.41,2.92,1.58,4.73,1.58s4.21-1.25,4.73-1.58l2.27-1.46,2.27,1.46c.43,.27,1.56,.86,2.8,1.24,.59-2.86,1.43-7.63,1.43-11.65,0,0-1.63-.85-4-1.75v-6.56c0-.28-.22-.5-.5-.5h-2.5v-3.5c0-.28-.22-.5-.5-.5h-12c-.28,0-.5,.22-.5,.5v3.5h-2.5c-.28,0-.5,.22-.5,.5v3.89c1.68-.47,3.76-.89,6.16-1.06,4.16-.3,7.1,.91,8.97,2.06,.24,.15,.31,.33,.3,.5-1.9-.52-3.96-.89-5.93-.89-6.26,0-13.5,3.81-13.5,3.81m11,6.19h-7v-3c0-.55,.45-1,1-1s1,.45,1,1v1h3v-1c0-.55,.45-1,1-1s1,.45,1,1v3Zm5-3c0-.55,.45-1,1-1s1,.45,1,1v1h3v-1c0-.55,.45-1,1-1s1,.45,1,1v3h-7v-3Z"/><rect x="16" y="12" width="31" height="15"/><path d="M56,35V10h3V2H4V10h3v25H3v20.77c.17,.02,.34,.03,.5,.03,1.88,0,4.21-1.25,4.73-1.58l2.27-1.46,2.27,1.46c.23,.15,.68,.39,1.23,.64V10H49V54.86c.58-.27,1.03-.52,1.23-.65l2.27-1.46,2.27,1.46c.65,.41,2.92,1.58,4.73,1.58,.16,0,.33-.02,.5-.03v-20.77h-4Z"/><path d="M53.58,56.19l-1.08-.69-1.08,.69s-3.09,1.93-5.92,1.93-5.89-1.91-5.92-1.93l-1.08-.69-1.08,.69s-3.09,1.93-5.92,1.93-5.89-1.91-5.92-1.93l-1.08-.69-1.08,.69s-3.09,1.93-5.92,1.93-5.89-1.91-5.92-1.93l-1.08-.69-1.08,.69s-3.09,1.93-5.92,1.93c-.17,0-.33,0-.5-.02v3.88c.17,0,.33,.02,.5,.02,2.81,0,5.54-1.19,7-1.95,1.46,.76,4.19,1.95,7,1.95s5.54-1.19,7-1.95c1.46,.76,4.19,1.95,7,1.95s5.54-1.19,7-1.95c1.46,.76,4.19,1.95,7,1.95s5.54-1.19,7-1.95c1.46,.76,4.19,1.95,7,1.95,.17,0,.33-.01,.5-.02v-3.88c-.17,.01-.33,.02-.5,.02-2.85,0-5.89-1.91-5.92-1.93"/></g></g></svg>