<?xml version="1.0" encoding="UTF-8"?><svg id="Laag_1" xmlns="http://www.w3.org/2000/svg" xmlns:xlink="http://www.w3.org/1999/xlink" viewBox="0 0 64 64"><defs><style>.cls-1{fill:none;}.cls-2{clip-path:url(#clippath);}.cls-3{clip-path:url(#clippath-1);}</style><clipPath id="clippath"><rect class="cls-1" width="64" height="64"/></clipPath><clipPath id="clippath-1"><rect class="cls-1" width="64" height="64"/></clipPath></defs><g class="cls-2"><g class="cls-3"><path d="M34.11,45.23c.41,3.07,1.09,6.09,2.02,9.04,.35,1.09,1.58,1.79,2.7,1.58,.36-.07,.72-.14,1.08-.21-1.08-2.36-3.27-7.64-3.31-7.73-.36-.68-1.89-2.07-2.49-2.68"/><path d="M56.63,37.65c-.35-1.09-1.58-1.79-2.7-1.58-1.82,.35-3.62,.71-5.44,1.07l-.22-1.08c-.24-1.19-1.24-2.05-2.39-2.05-.01,0-.03,0-.04,0-1.15-2.21-2.61-4.87-2.82-5.89-.53-2.43-.37-8.82-1.03-10.78-.52-1.54-2.06-2.95-3.47-3.74-2.3-1.33-5.92-2.04-8.27-.64-1.98,1.18-5.72,3.96-7.6,6.03-1.15,1.28-1.61,2.04-2.11,4.84-.3,1.76-.71,3.81-.74,5.58-.03,1.28,.41,2.5,1.28,3.33l-2.44,6.57-4.7-1.96c-1.31-.55-2.82-.07-3.6,1.12-1.01,1.56-1.66,2.26-3.62,7.14-2.08,4.83-2.12,5.78-2.51,7.6-.3,1.39,.43,2.8,1.74,3.34l1.55,.64s.56-1.35,1.83-2.09c1.47-.86,2.76-.58,3.2-.44,.25,.08,.3,.28,.23,.37-1.04-.11-2,.3-2.69,.97-1.45,1.44-1.38,3.66-.02,5,.63,.62,1.5,1,2.45,1s1.86-.4,2.5-1.05c.62-.63,1-1.5,1-2.45,0-1.12-.53-2.1-1.35-2.74,0,0,8.23-22.1,8.23-22.1,0,0,.62-6.28,2.44-10.58,.39-.91,2.43-2.22,3.26-2.76-.53,2.45-2.35,10.63-2.35,12.5,0,2.32,1.5,3.52,2.45,4.52l3.73,3.91s-.14,.24-.46,.05c-1.63-.95-3.78-2.19-3.78-2.19-1.07,4.05-1.99,7.39-3.18,9.41-1.2,2.05-2.75,4.13-4.08,6.46-2.19,3.83,.46,6.65,.83,7.01,2.15-3.02,5.87-7.5,7.96-10.65,1.63-2.42,2.85-5.27,4.15-8.49,.67,.61,3.6,3.47,4.07,4.34,.15,.28,.46,.93,.78,1.74,1.93,4.97,3.47,7.86,4.32,9.9,1.28,3.06,4.85,3.36,5.85,3.06-.98-3.89-3.26-11.83-4.52-15.69-.9-2.73-1.02-2.77-1.6-3.72-1.34-2.2-4.42-6.12-6.04-8.14,.23-1.22,1.02-4.64,1.84-8.24,.09,.93,.23,1.91,.49,2.98,.32,1.25,2.59,4.85,3.27,5.76-.79,.53-1.23,1.55-1.02,2.59l.1,.48c1.65,2.2,2.19,3.05,2.81,4.05,.53,.86,.76,1.29,1.58,3.77,.68,2.06,1.61,5.2,2.5,8.28,2.94-.57,5.86-1.15,8.8-1.71,1.11-.22,2-1.32,1.92-2.47-.3-4.14-1.09-8.23-2.35-12.19M12.5,60c-.83,0-1.5-.67-1.5-1.5s.67-1.5,1.5-1.5,1.5,.67,1.5,1.5-.67,1.5-1.5,1.5m30.96-21.89l-.21-1.06c-.06-.28,.07-.55,.28-.59l2.3-.46c.23-.05,.43,.19,.48,.43l.21,1.07c-1.02,.2-2.04,.4-3.07,.59"/><path d="M39.1,11.62c2.82,1.09,5.22-.25,6.32-3.1,1.25-3.24,.22-5.64-2.53-6.71-2.9-1.12-5.25,.33-6.38,3.26-1.19,3.08-.23,5.46,2.59,6.55"/></g></g></svg>