<?xml version="1.0" encoding="UTF-8"?><svg id="Laag_1" xmlns="http://www.w3.org/2000/svg" xmlns:xlink="http://www.w3.org/1999/xlink" viewBox="0 0 64 64"><defs><style>.cls-1{fill:none;}.cls-2{clip-path:url(#clippath);}.cls-3{clip-path:url(#clippath-1);}</style><clipPath id="clippath"><rect class="cls-1" width="64" height="64"/></clipPath><clipPath id="clippath-1"><rect class="cls-1" width="64" height="64"/></clipPath></defs><g class="cls-2"><g class="cls-3"><path d="M14,21H50c1.66,0,3-1.34,3-3v-7c0-1.66-1.34-3-3-3H14c-1.66,0-3,1.34-3,3v7c0,1.66,1.34,3,3,3m2-7.2c1.21,0,2.2,.99,2.2,2.2s-.99,2.2-2.2,2.2-2.2-.99-2.2-2.2,.99-2.2,2.2-2.2"/><path d="M14,36h23.76l5.83-5.83c.76-.76,1.76-1.17,2.83-1.17h6.59v-3c0-1.66-1.34-3-3-3H14c-1.66,0-3,1.34-3,3v7c0,1.66,1.34,3,3,3m2-7.2c1.21,0,2.2,.99,2.2,2.2s-.99,2.2-2.2,2.2-2.2-.99-2.2-2.2,.99-2.2,2.2-2.2"/><path d="M11,41v7c0,1.66,1.34,3,3,3h20v-9.59c0-1.07,.42-2.07,1.17-2.83l.59-.59H14c-1.66,0-3,1.34-3,3m5,2.8c1.21,0,2.2,.99,2.2,2.2s-.99,2.2-2.2,2.2-2.2-.98-2.2-2.2,.99-2.2,2.2-2.2"/><path d="M58,32h-11.59c-.26,0-.52,.1-.71,.29l-8.41,8.41c-.19,.19-.29,.44-.29,.71v16.59c0,.55,.45,1,1,1h20c.55,0,1-.45,1-1v-25c0-.55-.45-1-1-1m-2,24h-16v-14h6c.55,0,1-.45,1-1v-6h9v21Z"/></g></g></svg>