<?xml version="1.0" encoding="UTF-8"?><svg id="Laag_1" xmlns="http://www.w3.org/2000/svg" xmlns:xlink="http://www.w3.org/1999/xlink" viewBox="0 0 64 64"><defs><style>.cls-1{fill:none;}.cls-2{clip-path:url(#clippath);}.cls-3{font-family:MyriadPro-Regular, 'Myriad Pro';font-size:7px;}.cls-4{letter-spacing:0em;}.cls-5{clip-path:url(#clippath-1);}.cls-6{clip-path:url(#clippath-3);}.cls-7{clip-path:url(#clippath-2);}.cls-8{letter-spacing:0em;}</style><clipPath id="clippath"><rect class="cls-1" x="874.17" y="822.97" width="64" height="64"/></clipPath><clipPath id="clippath-1"><rect class="cls-1" x="874.17" y="822.97" width="64" height="64"/></clipPath><clipPath id="clippath-2"><rect class="cls-1" width="64" height="64"/></clipPath><clipPath id="clippath-3"><rect class="cls-1" width="64" height="64"/></clipPath></defs><g class="cls-2"><g class="cls-5"><text class="cls-3" transform="translate(-8.51 7.94)"><tspan x="0" y="0">0301 ma</tspan><tspan class="cls-4" x="25.06" y="0">r</tspan><tspan class="cls-8" x="27.38" y="0">ine </tspan></text></g></g><g class="cls-7"><rect x="29" y="7" width="6" height="15"/><g class="cls-6"><path d="M36.58,39.76c-1.03,1.09-1.58,5.18-1.58,5.18h18s-.54-4.1-1.58-5.18c-.82-.86-3.61-1.9-4.76-2.3-.1-.32-.17-.64-.22-.94,.83-.83,1.31-1.94,1.56-3.11,.28-.16,.72-.41,.79-1.56,.07-1.3-.13-1.69-.61-1.66,.06-.34,.07-.98,.06-1.66,0-.73-.04-1.5-.33-2.03-.36-.65-.88-1.04-1.88-.8-.88-.42-1.8-.87-3.34-.53-1.74,.38-2.35,.99-2.58,1.33-.33,.5-.36,1.27-.36,2,0,.7-.01,1.35,.05,1.69-.48-.02-.68,.36-.61,1.66,.07,1.15,.53,1.4,.8,1.56,.24,1.17,.71,2.27,1.54,3.11-.05,.3-.11,.62-.2,.93-1.14,.4-3.94,1.44-4.76,2.31"/><rect x="12" y="43" width="10" height="2"/><rect x="12" y="39" width="15" height="2"/><rect x="12" y="35" width="15" height="2"/><rect x="29" y="7" width="6" height="15"/><path d="M56,13h-19v4h19V49H8V17H27v-4H8c-2.21,0-4,1.79-4,4V49c0,2.21,1.79,4,4,4H56c2.21,0,4-1.79,4-4V17c0-2.21-1.79-4-4-4"/></g></g></svg>