<?xml version="1.0" encoding="UTF-8"?><svg id="Laag_1" xmlns="http://www.w3.org/2000/svg" xmlns:xlink="http://www.w3.org/1999/xlink" viewBox="0 0 64 64"><defs><style>.cls-1{fill:none;}.cls-2{clip-path:url(#clippath);}.cls-3{clip-path:url(#clippath-1);}</style><clipPath id="clippath"><rect class="cls-1" width="64" height="64"/></clipPath><clipPath id="clippath-1"><rect class="cls-1" width="64" height="64"/></clipPath></defs><g class="cls-2"><g class="cls-3"><path d="M2.25,26c3.89,0,6.71-2.53,9.2-4.76,.76-.68,1.5-1.35,2.22-1.9,0,.01,0,.02,.01,.03,1.54,4.21,4.57,6.63,8.3,6.63s6.69-2.52,9.17-4.75c.77-.69,1.52-1.37,2.25-1.92l.02,.05c1.54,4.21,4.57,6.63,8.3,6.63s6.68-2.52,9.14-4.74c.78-.7,1.54-1.39,2.27-1.95,0,.02,.01,.04,.02,.06,1.44,3.93,4.42,6.73,8.41,6.62l1.43-.04v-4l-1.54,.04c-4.93,0-5.39-8-5.39-8-5.99,0-9.41,8-14.35,8s-5.39-8-5.39-8c-5.93,0-9.41,8-14.34,8s-5.39-8-5.39-8c-5.87,0-9.41,8-14.34,8-.46,0-.86-.09-1.25-.21v4.11c.41,.06,.82,.1,1.25,.1"/><path d="M11.45,35.24c.76-.68,1.5-1.35,2.22-1.9v.03c1.55,4.21,4.58,6.63,8.32,6.63s6.69-2.52,9.17-4.75c.77-.69,1.52-1.37,2.25-1.92l.02,.05c1.54,4.21,4.57,6.63,8.3,6.63s6.68-2.52,9.14-4.74c.78-.7,1.54-1.39,2.27-1.95,0,.02,.02,.04,.02,.06,1.54,4.21,4.57,6.63,8.3,6.63h.11l1.43-.04v-4l-1.54,.04c-4.93,0-5.39-8-5.39-8-5.99,0-9.41,8-14.35,8s-5.39-8-5.39-8c-5.93,0-9.41,8-14.34,8s-5.39-8-5.39-8c-5.87,0-9.41,8-14.35,8-.46,0-.86-.09-1.24-.21v4.11c.41,.06,.82,.1,1.24,.1,3.89,0,6.71-2.53,9.2-4.76"/><path d="M56.07,42c-5.99,0-9.41,8-14.35,8s-5.39-8-5.39-8c-5.93,0-9.41,8-14.35,8s-5.39-8-5.39-8c-5.87,0-9.41,8-14.35,8-.46,0-.86-.09-1.24-.21v4.11c.41,.06,.82,.1,1.24,.1,3.89,0,6.71-2.53,9.2-4.76,.76-.68,1.5-1.35,2.22-1.9v.03c1.55,4.21,4.58,6.63,8.31,6.63s6.69-2.52,9.17-4.75c.77-.69,1.52-1.37,2.25-1.92l.02,.05c1.54,4.21,4.57,6.63,8.3,6.63s6.68-2.52,9.14-4.74c.78-.7,1.54-1.39,2.27-1.95,0,.02,.01,.04,.02,.06,1.44,3.92,4.42,6.73,8.41,6.62l1.43-.04v-4l-1.54,.04c-4.93,0-5.39-8-5.39-8"/></g></g></svg>