<?xml version="1.0" encoding="UTF-8"?><svg id="Laag_1" xmlns="http://www.w3.org/2000/svg" xmlns:xlink="http://www.w3.org/1999/xlink" viewBox="0 0 64 64"><defs><style>.cls-1{fill:none;}.cls-2{clip-path:url(#clippath);}.cls-3{clip-path:url(#clippath-1);}</style><clipPath id="clippath"><rect class="cls-1" width="64" height="64"/></clipPath><clipPath id="clippath-1"><rect class="cls-1" width="64" height="64"/></clipPath></defs><g class="cls-2"><g class="cls-3"><path d="M56.68,20.76c-.67,2.85-1.34,6.68-1.84,9.73,.4,.17,.8,.4,1.17,.72,2.16,1.84,2.38,4.82,.7,7.81-3.81,6.74-7.98,9.79-8.85,10.42-.25,.18-.39,.13-.49,.04h0c3.79-4.24,5.8-7.14,7.51-11.19,1.3-3.07,.6-4.92-.51-5.59-1.09-.65-2.22-.3-3.35,1.38-3.87,5.71-6.66,8.71-10.52,13.26-2.69,3.16-4.52,7.08-4.49,11.08,.02,2.55,.19,3.94,.29,4.58h13.5l1.14-6.5c.16-.91,.57-1.75,1.17-2.44l7.39-7.48c1.53-1.74,2.42-3.96,2.5-6.28V16.12s-3.94-1.28-5.32,4.64"/><path d="M12.98,34.08c-1.14-1.68-2.26-2.03-3.35-1.38-1.12,.67-1.82,2.52-.52,5.59,1.72,4.05,3.72,6.95,7.51,11.18v.02c-.1,.09-.24,.14-.49-.04-.87-.63-5.05-3.68-8.85-10.42-1.68-2.98-1.46-5.96,.7-7.81,.37-.32,.77-.56,1.17-.72-.5-3.06-1.17-6.88-1.84-9.73-1.38-5.92-5.32-4.64-5.32-4.64v24.17c.08,2.32,.96,4.54,2.5,6.28l7.39,7.48c.61,.69,1.02,1.53,1.18,2.44l1.14,6.5h13.5c.1-.64,.27-2.03,.29-4.57,.04-4-1.8-7.92-4.49-11.08-3.87-4.55-6.66-7.55-10.52-13.26"/><path d="M31.65,11.19c2.24,.35,3.92-.65,4.76-2.47,.48,.72,1.37,1.6,2.77,1.27,2.07-.5,1.76-2.11,4.36-1.54,.21,.05,.36-.2,.22-.36-.76-.82-2.41-2.26-4.45-2.09-1.11,.1-1.85,.41-2.35,.76,.4-3.14-1.03-5.09-3.75-5.51-2.94-.46-4.85,1.38-5.31,4.34-.49,3.13,.89,5.15,3.75,5.6"/><path d="M40.85,41.92c1.52-1.98,.47-3.7-1.15-5.41-1.6-1.69-2.21-2.31-3.55-3.64h1.77c.61,0,1.07-.55,.95-1.15l-2.17-11.38c2.25,1.92,4.17,3.02,6.45,3.32,2.39,.32,4.45-.07,4.84-2.26-2.93-.55-5.09-1.39-7.01-2.58-4.55-2.84-4.07-4.61-7.6-5.39-3.86-.86-6.57,.87-9.48-4.37-.99-1.79-1.82-4.36-2.56-8.06-2.09,.56-2.88,2.41-2.36,4.87,.94,4.48,2.49,8.77,6.57,11.39-1.06,3.13-2.84,8.9-3.73,14.54-.09,.59,.37,1.07,.96,1.07h2.24c-.2,1.32-.33,2.47-.37,2.75-.13,.94,0,1.57,.23,2.28,.73,2.26,2.39,6.88,3,8.62h0c2.32-.81,2.99-2.44,2.32-5.18-.66-2.74-1.18-4.9-1.18-4.9l1.09-3.56h1c.16,.95,.28,1.77,.32,2.02,.11,.65,.48,1.25,1.07,1.63,7.78,5.05,6.03,3.91,8.32,5.4h0Z"/></g></g></svg>