<?xml version="1.0" encoding="UTF-8"?><svg id="Laag_1" xmlns="http://www.w3.org/2000/svg" xmlns:xlink="http://www.w3.org/1999/xlink" viewBox="0 0 64 64"><defs><style>.cls-1{fill:none;}.cls-2{clip-path:url(#clippath);}.cls-3{clip-path:url(#clippath-1);}</style><clipPath id="clippath"><rect class="cls-1" width="64" height="64"/></clipPath><clipPath id="clippath-1"><rect class="cls-1" width="64" height="64"/></clipPath></defs><g class="cls-2"><g class="cls-3"><path d="M51.25,45.1c-2.04-2.22-7.9-4.19-10.63-5.02-.15-1.04-.34-2.25-.51-3.25,1.67-2.02,2.7-4.11,3.03-6.25,1.24-1.14,1.93-2.96,1.93-5.19,0-.7,0-2.52-1.15-3.77,.28-3.12,.48-7.94-.74-9.89-.11-.17-.22-.32-.33-.47l1.94-.65v6.35l1.32-1.32,1.37,1.37v-7.44l3.03-1.09L32,3.84,13.8,8.47l7.93,2.81c-.18,.17-.36,.33-.52,.51-1.54,1.78-1.44,6.74-1.19,9.9-1.08,1.24-1.09,3.01-1.09,3.69,0,2.23,.69,4.04,1.92,5.18,.36,2.35,1.71,4.73,3.67,6.92-.1,.75-.22,1.4-.54,2.41-2.35,.69-9.03,2.8-11.24,5.2-2.68,2.92-4.1,13.9-4.1,13.9H55.34s-1.41-10.99-4.1-13.9m-14.52,7.9v4h-9v-4h-4l3.65-16.52c-2.13-2.05-3.83-4.54-3.83-7.53-1.51-.47-1.91-2.38-1.91-3.56s.3-1.83,.72-2.03c.37-.17,.72-.04,.95,.08,.13,.61,.23,1.06,.27,1.22,.19,.79,.95,.72,.95,.72v-6.3c1.94-.14,5.78-.7,10.04-2.9l4.9,3.29v5.91s.76,.07,.96-.72c.04-.16,.14-.61,.27-1.22,.23-.13,.58-.26,.95-.08,.42,.2,.72,.84,.72,2.03s-.4,3.09-1.91,3.56c0,3.46-2.37,6.07-4.99,8.3-.73,.62-2.1,1.03-3.47,1.03-.99,0-1.98-.27-2.73-.59,.57,.87,1.55,1.94,3.35,2.41,2.95,.78,5.1-.85,5.1-.85l3.01,13.75h-4Z"/></g></g></svg>