<?xml version="1.0" encoding="UTF-8"?><svg id="Laag_1" xmlns="http://www.w3.org/2000/svg" xmlns:xlink="http://www.w3.org/1999/xlink" viewBox="0 0 64 64"><defs><style>.cls-1{fill:none;}.cls-2{clip-path:url(#clippath);}.cls-3{clip-path:url(#clippath-1);}</style><clipPath id="clippath"><rect class="cls-1" width="64" height="64"/></clipPath><clipPath id="clippath-1"><rect class="cls-1" width="64" height="64"/></clipPath></defs><g class="cls-2"><g class="cls-3"><path d="m55,7H9c-1.1,0-2,.9-2,2v34.99c0,1.1.9,2,2,2h16.5s-.53,1.94-1.5,5.01c-.58,1.84-2.38,1.99-2.87,2h-2.13c-.55,0-1,.45-1,1v2h28v-2c0-.55-.45-1-1-1h-2.13c-.49,0-2.29-.16-2.87-2-.39-1.23-.7-2.27-.94-3.08,0,0-4.4-.64-8.98-1.53-.32-.06-.28-.3-.24-.38h25.17c1.1,0,2-.9,2-2V9c0-1.1-.9-2-2-2m-3,32H12V12h40v27Z"/><rect x="33" y="20" width="4" height="8"/><rect x="39" y="16" width="4" height="12"/><rect x="45" y="19" width="4" height="9"/><path d="m39,37.81c1.75,0,3.21-1.2,3.66-2.81h7.34v-2h-7.34c-.44-1.61-1.91-2.81-3.66-2.81s-3.22,1.19-3.66,2.81H15v2h20.34c.44,1.61,1.91,2.81,3.66,2.81m0-5.75c1.07,0,1.94.87,1.94,1.94s-.87,1.94-1.94,1.94-1.94-.87-1.94-1.94.87-1.94,1.94-1.94"/><path d="m21.49,30c3.58,0,6.49-2.9,6.49-6.49,0-1.26-.37-2.44-.99-3.43l-5.99,3.43v-6.46c-3.32.28-5.99,3.07-5.99,6.46,0,3.58,2.9,6.49,6.49,6.49"/><path d="m23.05,13.41v6.49l5.49-3.43c-1.15-1.83-3.18-3.05-5.49-3.05"/></g></g></svg>