<?xml version="1.0" encoding="UTF-8"?><svg id="Laag_1" xmlns="http://www.w3.org/2000/svg" xmlns:xlink="http://www.w3.org/1999/xlink" viewBox="0 0 64 64"><defs><style>.cls-1{fill:none;}.cls-2{clip-path:url(#clippath);}.cls-3{clip-path:url(#clippath-1);}</style><clipPath id="clippath"><rect class="cls-1" width="64" height="64"/></clipPath><clipPath id="clippath-1"><rect class="cls-1" width="64" height="64"/></clipPath></defs><g class="cls-2"><g class="cls-3"><path d="M41,34.79c-.16,.56-.36,1.13-.62,1.61-.94,1.78-3.37,3.11-3.37,3.11,0,0-.23,1.67-1.02,3.07-.31,.54-1.14,.83-1.51,1.37-.67,.97-.48,2.66-1.25,3.04-1.37,.67-2.97,.99-3.35,.63-.52-.5-1.41-2.62-1.41-3.32v-5.07c0-.91-1.21-3.54-1.21-3.54,0,0-3.15-.03-4.26-.03s-2.58-1.11-2.58-1.11c0,0-.94-3.09,0-5.03,.93-1.93,2.15-2.13,2.15-2.13l4.93-.99,2.82,1.65,3.76,.72,1.04,1.43,1.68,2.37,2.38,1.24,1.82-1.56v-1.07l-1.82,.91-2.38-2.38-1.28-2.29s1.65-1.65,1.19-2.52c-.46-.87-3.03,.55-3.53-.22s-.06-3.38-.06-3.38l-3.19-1.31s-1-.02-.91,.73c.09,.84,2.41,2.18,2.23,2.56-.17,.35-.75,.09-.75,.09l-.88,1.55-1.84-.41s1.4-.53,1.57-1.04c.17-.51-2.06-2.34-2.06-2.34l-1.24,.28-.56,2.25-1.5,1.31h-1.97l.17-1.1-.72-.02,.94-2.43,1.93,.16s.71-1.86,.57-2.48c-.27-1.19-1.51-1.32-1.51-1.79s1.34-.46,1.99-1.12c.36-.36,1.25-1.57,1.99-2.6,5.82,.6,10.8,4.01,13.63,8.82v-5.05c-3.84-4.21-9.35-6.87-15.5-6.87-11.6,0-21,9.4-21,21s9.4,21,21,21c4.29,0,8.28-1.29,11.6-3.5,.36-2.95,1.72-5.7,3.9-7.77v-6.43ZM21.14,14.06c1.19-.3,2.41-.47,3.68-.52-.1,.49-.5,2.11-1.1,2.27-.71,.19-2.74-.98-2.74-.98l.16-.76Zm-8.12,30.38c-2.71-2.61-4.59-6.06-5.24-9.93,2.11,1.47,5.24,4.05,5.24,6.41v3.53Zm2.31-25.58s-2.52,3.28-4.28,5.06c-.67,.68-1.61,1.22-2.52,1.65,1.51-4.3,4.6-7.86,8.58-9.98l-1.78,3.27Z"/><path d="M57,42.12V8.84c0-3.81-3.12-6.9-6.96-6.9s-7.04,3.12-7.04,6.98V42.12c-2.5,2.05-4,5.14-4,8.4,0,6.01,4.93,10.91,11,10.91,5.54,0,10.05-4.01,10.86-9.18,.61-3.9-.88-7.71-3.86-10.14m.35,11.63c-1.08,2.66-3.62,4.26-6.29,4.62-.61,.08-.67-.07-.64-.24,2.92-1.19,4.86-3.97,4.86-7.15,0-2.58-1.3-4.86-3.29-6.26v-5.72h-3v-2h3v-5h-3v-2h3v-5h-3v-2h3v-5h-6V8.94c0-2.17,1.79-3.94,4-3.94h.04c2.19,0,3.96,1.76,3.96,3.92V43.67c3.24,1.86,5.05,5.88,3.35,10.08"/></g></g></svg>