<?xml version="1.0" encoding="UTF-8"?><svg id="Laag_1" xmlns="http://www.w3.org/2000/svg" viewBox="0 0 64 64"><defs><style>.cls-1{fill:none;}</style></defs><rect class="cls-1" width="64" height="64"/><path d="m32,20c1.82,0,2.87-1.28,2.87-3.13,0-2.1-1.1-3.23-2.87-3.23-1.87,0-2.87,1.33-2.87,3.23,0,2,1.05,3.13,2.87,3.13Zm18.15,1.51c-1.6-.41-3.75-.41-5.31,0-2.39.63-2.79,3.94-2.85,7.49h11c-.06-3.56-.45-6.88-2.85-7.49Zm-2.65-1.51c1.82,0,2.87-1.28,2.87-3.13,0-2.1-1.1-3.23-2.87-3.23-1.87,0-2.87,1.33-2.87,3.23,0,2,1.05,3.13,2.87,3.13Zm15.26,17.63l-3.87-5.95c-.28-.43-.75-.68-1.26-.68H6.37c-.51,0-.98.26-1.26.68l-3.87,5.95c-.16.24-.24.53-.24.82v.56c0,.55.45,1,1,1h3v9.5c0,1.1.9,1.5,2,1.5s2-.4,2-1.5v-7.5h46v7.5c0,1.1.9,1.5,2,1.5s2-.4,2-1.5v-9.5h3c.55,0,1-.45,1-1v-.56c0-.29-.08-.57-.24-.82ZM19.15,21.51c-1.6-.41-3.75-.41-5.31,0-2.39.63-2.79,3.94-2.85,7.49h11c-.06-3.56-.45-6.88-2.85-7.49Zm-2.65-1.51c1.82,0,2.87-1.28,2.87-3.13,0-2.1-1.1-3.23-2.87-3.23-1.87,0-2.87,1.33-2.87,3.23,0,2,1.05,3.13,2.87,3.13Zm18.15,1.51c-1.6-.41-3.75-.41-5.31,0-2.39.63-2.79,3.94-2.85,7.49h11c-.06-3.56-.45-6.88-2.85-7.49Z"/></svg>