<?xml version="1.0" encoding="UTF-8"?><svg id="Laag_1" xmlns="http://www.w3.org/2000/svg" xmlns:xlink="http://www.w3.org/1999/xlink" viewBox="0 0 64 64"><defs><style>.cls-1{fill:none;}.cls-2{clip-path:url(#clippath);}.cls-3{clip-path:url(#clippath-1);}</style><clipPath id="clippath"><rect class="cls-1" width="64" height="64"/></clipPath><clipPath id="clippath-1"><rect class="cls-1" width="64" height="64"/></clipPath></defs><g class="cls-2"><g class="cls-3"><path d="M47.63,19.31c-.14-2.4-.38-4.8-.78-7.2-.34-2.06-1.91-3.63-3.97-3.97-5.96-.99-15.9-.99-17.88-.99s-11.92,0-17.88,.99c-2.06,.34-3.63,1.91-3.97,3.97-.99,5.96-.99,15.9-.99,17.88s0,11.92,.99,17.88c.34,2.06,1.91,3.63,3.97,3.97,5.96,.99,15.9,.99,17.88,.99,1.23,0,5.51,0,10-.24v-11.48c0-1.5,.8-2.81,2-3.54v-5.1c0-6.46,4.56-11.87,10.63-13.19m-19.63,26.69h-6.56l.56-14v-8h6v22Zm-2.98-26c-2.24,0-3.52-1.25-3.52-3.54,0-1.94,1.19-3.46,3.48-3.46s3.52,1.21,3.52,3.46c0,1.99-1.19,3.54-3.48,3.54"/><path d="M61.86,40h-16.86v-7.5c0-3.03,2.47-5.5,5.5-5.5s5.5,2.47,5.5,5.5v1.5h5v-1.5c0-5.79-4.71-10.5-10.5-10.5s-10.5,4.71-10.5,10.5v7.5h-.86c-.63,0-1.14,.51-1.14,1.13v13.8c0,.55,.4,1.02,.94,1.12,1.81,.32,6.1,.95,11.56,.95s9.75-.63,11.56-.95c.54-.1,.94-.57,.94-1.12v-13.8c0-.62-.51-1.13-1.14-1.13m-9.86,8.62v3.38h-3v-3.38c-.66-.47-1.1-1.24-1.1-2.12,0-1.44,1.16-2.6,2.6-2.6s2.6,1.16,2.6,2.6c0,.88-.44,1.65-1.1,2.12"/></g></g></svg>