<?xml version="1.0" encoding="UTF-8"?><svg id="Laag_1" xmlns="http://www.w3.org/2000/svg" xmlns:xlink="http://www.w3.org/1999/xlink" viewBox="0 0 64 64"><defs><style>.cls-1{fill:none;}.cls-2{clip-path:url(#clippath);}.cls-3{clip-path:url(#clippath-1);}</style><clipPath id="clippath"><rect class="cls-1" width="64" height="64"/></clipPath><clipPath id="clippath-1"><rect class="cls-1" width="64" height="64"/></clipPath></defs><g class="cls-2"><g class="cls-3"><path d="M46.3,32.61v15.8H17.7v-15.8h-3.73c-1.1,0-2,.9-2,2v17.53c0,1.11,.9,2,2,2H50.04c1.1,0,2-.89,2-2v-17.53c0-1.1-.9-2-2-2h-3.73Z"/><line x1="28.26" y1="23.77" x2="26.47" y2="24.79"/><path d="M28.26,23.77v17.87c0,2.03,1.75,2.64,3.73,2.64s3.74-.61,3.74-2.64V23.77l6.22,3.55c1.05,.6,2.38,.37,3.17-.55,.79-.92,.82-2.27,.07-3.22l-11.21-14.2c-.48-.61-1.21-.96-1.99-.96s-1.51,.35-1.99,.96l-11.21,14.2c-.36,.46-.54,1.01-.54,1.57,0,.59,.2,1.18,.61,1.65,.79,.92,2.12,1.15,3.17,.55l1.93-1.1,2.5-1.43,1.79-1.02"/></g></g></svg>