<?xml version="1.0" encoding="UTF-8"?><svg id="Laag_1" xmlns="http://www.w3.org/2000/svg" xmlns:xlink="http://www.w3.org/1999/xlink" viewBox="0 0 64 64"><defs><style>.cls-1{fill:none;}.cls-2{clip-path:url(#clippath);}.cls-3{clip-path:url(#clippath-1);}</style><clipPath id="clippath"><rect class="cls-1" width="64" height="64"/></clipPath><clipPath id="clippath-1"><rect class="cls-1" width="64" height="64"/></clipPath></defs><g class="cls-2"><g class="cls-3"><path d="M45,31c-4.42,0-8,3.58-8,8v7.99c-.06,.02-.26,.07-.36-.25l-.95-4.74h-13.69c-6.62,0-12,5.38-12,12v9h8v-9c0-2.21,1.79-4,4-4h15v13h16v-24c0-4.42-3.58-8-8-8"/><path d="M26.78,23.06c.58-5.92,6.25-6.67,6.25-6.67,0,4.92-3.33,7.42-3.33,7.42,0,0,7.5,.83,12.58-2.75,6.74-4.75,1.83-13.25,1.83-13.25,0,0-.17,3.08-1.75,4.92-1.58,1.83-4.25,3.17-5.08,1.83s3.44-2.74,2.75-7.92c-.5-3.75-5.33-5.92-5.33-5.92,0,0,1.25,4.75-.92,8.08-2.17,3.33-9.42,2.67-10.58,7.33-1.17,4.67,3.58,6.92,3.58,6.92"/><rect x="23" y="26" width="10" height="14"/><rect x="23" y="52" width="10" height="11"/></g></g></svg>