<?xml version="1.0" encoding="UTF-8"?><svg id="Laag_1" xmlns="http://www.w3.org/2000/svg" viewBox="0 0 64 64"><defs><style>.cls-1{fill:none;}</style></defs><rect class="cls-1" width="64" height="64"/><path d="m57.03,4.1l-18.2,2.14c-1.22.14-2.17,1.13-2.26,2.36-.09,1.22.7,2.34,1.88,2.67l7,1.91-9.25,9.25c-1.45,1.45-.63,3.15.79,4.57,1.42,1.42,3.11,2.24,4.56.79l12.73-12.73s.22.06.03.38c-.23.41-2.97,5.12-2.97,5.12l1.36,4.98c.32,1.18,1.44,1.97,2.67,1.88.63-.05,1.2-.32,1.62-.74.4-.4.66-.92.73-1.51l2.14-18.2c.09-.78-.18-1.56-.73-2.11s-1.33-.83-2.11-.73Z"/><path d="m6.97,59.9l18.2-2.14c1.22-.14,2.17-1.13,2.26-2.36.09-1.22-.7-2.34-1.88-2.67l-7-1.91,9.25-9.25c1.45-1.45.63-3.15-.79-4.57-1.42-1.42-3.11-2.24-4.56-.79l-12.73,12.73s-.22-.06-.03-.38c.23-.41,2.97-5.12,2.97-5.12l-1.36-4.98c-.32-1.18-1.44-1.97-2.67-1.88-.63.05-1.2.32-1.62.74-.4.4-.66.92-.73,1.51l-2.14,18.2c-.09.78.18,1.56.73,2.11s1.33.83,2.11.73Z"/></svg>