<?xml version="1.0" encoding="UTF-8"?><svg id="Laag_1" xmlns="http://www.w3.org/2000/svg" xmlns:xlink="http://www.w3.org/1999/xlink" viewBox="0 0 64 64"><defs><style>.cls-1{fill:none;}.cls-2{clip-path:url(#clippath);}.cls-3{clip-path:url(#clippath-1);}</style><clipPath id="clippath"><rect class="cls-1" width="64" height="64"/></clipPath><clipPath id="clippath-1"><rect class="cls-1" width="64" height="64"/></clipPath></defs><g class="cls-2"><g class="cls-3"><path d="M59.5,11h-3.5c-.55,0-1,.45-1,1v5.01c-.06,.02-.29,.07-.39-.25-.05-.17-.52-2.16-.84-3.76h-1.83c-.28-1.54-1.49-2.82-3.08-2.98-1.63-.16-3.05,.79-3.6,2.19-.42,1.06-2.08,1.09-2.53-.02-.52-1.28-1.76-2.19-3.23-2.19s-2.72,.91-3.23,2.19c-.44,1.1-2.1,1.09-2.54,0-.52-1.28-1.76-2.19-3.23-2.19s-2.72,.91-3.23,2.19c-.44,1.1-2.1,1.09-2.54,0-.52-1.28-1.76-2.19-3.23-2.19s-2.72,.91-3.23,2.19c-.45,1.11-2.11,1.07-2.53,.02-.55-1.4-1.97-2.35-3.6-2.19-1.81,.18-3.14,1.83-3.14,3.65v.33h-2c-.83,0-1,.67-1,1.5s.17,1.5,1,1.5h2V50.33c0,1.82,1.32,3.47,3.14,3.65,1.63,.16,3.05-.79,3.6-2.19,.42-1.06,2.08-1.09,2.53,.02,.52,1.28,1.76,2.19,3.23,2.19s2.72-.91,3.23-2.19c.44-1.1,2.1-1.09,2.54,0,.52,1.28,1.76,2.19,3.23,2.19s2.72-.91,3.23-2.19c.44-1.1,2.1-1.09,2.54,0,.52,1.28,1.76,2.19,3.23,2.19s2.71-.91,3.23-2.19c.45-1.11,2.11-1.07,2.53-.02,.55,1.4,1.97,2.35,3.6,2.19,1.81-.18,3.14-1.83,3.14-3.65V18h3v1c0,.55,.45,1,1,1h3.5c1.93,0,2.5-2.57,2.5-4.5s-.57-4.5-2.5-4.5M18,45c0,.55-.45,1-1,1s-1-.45-1-1V19c0-.55,.45-1,1-1s1,.45,1,1v26Zm9,0c0,.55-.45,1-1,1s-1-.45-1-1V19c0-.55,.45-1,1-1s1,.45,1,1v26Zm9,0c0,.55-.45,1-1,1s-1-.45-1-1V19c0-.55,.45-1,1-1s1,.45,1,1v26Zm9,0c0,.55-.45,1-1,1s-1-.45-1-1V19c0-.55,.45-1,1-1s1,.45,1,1v26Z"/></g></g></svg>