<?xml version="1.0" encoding="UTF-8"?><svg id="Laag_1" xmlns="http://www.w3.org/2000/svg" viewBox="0 0 64 64"><defs><style>.cls-1{fill:none;}</style></defs><rect class="cls-1" y="0" width="64" height="64"/><path d="m47.04,15.9h-.02l-24.12.11c-1.85,0-3.45,1.33-3.79,3.15-.35,1.82.65,3.64,2.37,4.32l8.06,3.22-15,11.96c-1.11.88-1.6,2.05-1.42,3.36.15,1.05.72,2.2,1.69,3.43.98,1.23,1.97,2.04,2.96,2.42.43.16.85.24,1.28.24.8,0,1.59-.29,2.32-.88l15-11.96,1.34,8.58c.28,1.83,1.83,3.21,3.68,3.28.92.03,1.84-.26,2.56-.84.68-.54,1.16-1.3,1.36-2.15l5.49-23.48c.27-1.16,0-2.36-.74-3.3-.74-.93-1.84-1.46-3.03-1.46Z"/></svg>