<?xml version="1.0" encoding="UTF-8"?><svg id="Laag_1" xmlns="http://www.w3.org/2000/svg" xmlns:xlink="http://www.w3.org/1999/xlink" viewBox="0 0 64 64"><defs><style>.cls-1{fill:none;}.cls-2{clip-path:url(#clippath);}.cls-3{clip-path:url(#clippath-1);}</style><clipPath id="clippath"><rect class="cls-1" width="64" height="64"/></clipPath><clipPath id="clippath-1"><rect class="cls-1" width="64" height="64"/></clipPath></defs><g class="cls-2"><g class="cls-3"><path d="M30.7,16.08c.51-.14,.82-1.76,.82-1.76l-.12-.2c-.86,.04-1.69,.15-2.5,.35l-.19,.9s1.48,.85,1.99,.71"/><path d="M40.83,35.93l.52,1.15c1.04-1.02,1.91-2.2,2.58-3.5l-1.92,.21-1.18,2.14Z"/><path d="M33.57,14.19c-.56,.79-1.36,1.88-1.65,2.18-.48,.48-1.45,.47-1.45,.81s.9,.44,1.1,1.3c.1,.45-.42,1.8-.42,1.8l-1.4-.12-.68,1.77h.52l-.13,.81h1.43l1.09-.94,.41-1.64,.91-.2s1.62,1.33,1.5,1.7-1.14,.76-1.14,.76l1.34,.3,.64-1.12s.42,.18,.55-.07c.14-.27-1.55-1.25-1.62-1.86-.06-.55,.66-.53,.66-.53l2.32,.95s-.33,1.9,.04,2.46,2.24-.48,2.57,.16c.33,.63-.86,1.83-.86,1.83l.93,1.67,1.73,1.73,1.73-.87,1.5-2c-1.06-5.73-5.76-10.19-11.61-10.88"/><path d="M42.82,31.06c.68-1.29,.85-3.36,.85-3.36l-1.73,1.48-1.73-.9-1.22-1.72-.76-1.04-2.73-.52-2.05-1.2-3.58,.72s-.88,.14-1.56,1.55c-.68,1.4,0,3.65,0,3.65,0,0,1.07,.81,1.88,.81s3.09,.02,3.09,.02c0,0,.88,1.91,.88,2.57v3.69c0,.51,.64,2.06,1.03,2.42,.27,.26,1.44,.03,2.43-.46,.56-.27,.42-1.51,.91-2.21,.27-.39,.88-.6,1.1-.99,.57-1.02,.74-2.23,.74-2.23,0,0,1.77-.97,2.45-2.26"/><path d="M19.25,23.37c.77-.33,1.65-.79,2.24-1.38,1.28-1.29,3.11-3.68,3.11-3.68l1.55-2.85c-3.25,1.58-5.77,4.43-6.9,7.91"/><path d="M18.75,29.44c.45,3.1,1.97,5.86,4.17,7.89v-2.99c0-1.85-2.66-3.89-4.17-4.9"/><path d="M58.72,12.23c-.42-2.59-2.34-4.55-4.86-4.99-7.29-1.25-19.44-1.25-21.87-1.25h0c-2.43,0-14.58,0-21.87,1.25-2.52,.43-4.44,2.4-4.86,4.99-1.22,7.48-1.22,9.19-1.22,16.67s0,9.2,1.22,16.67c.42,2.59,2.34,4.55,4.86,4.98,1.47,.25,3.14,.45,4.89,.61,0,0,3.5-3.96,3.73-4.22,.32-.36,.4-.1,.4-.1h0l-3.26,11.5h0l-.05,.18c-.04,.25,0,.51,.15,.74,.31,.49,.96,.64,1.45,.33l12.28-7.79c1.04,0,1.84,0,2.3,0h0c2.43,0,14.58,0,21.87-1.25,2.52-.43,4.44-2.4,4.86-4.98,1.22-7.48,1.22-9.19,1.22-16.67s0-9.2-1.22-16.67m-26.72,31.47c-8.95,0-16.2-7.25-16.2-16.2s7.25-16.2,16.2-16.2,16.2,7.25,16.2,16.2-7.25,16.2-16.2,16.2"/></g></g></svg>