<?xml version="1.0" encoding="UTF-8"?><svg id="Laag_1" xmlns="http://www.w3.org/2000/svg" xmlns:xlink="http://www.w3.org/1999/xlink" viewBox="0 0 64 64"><defs><style>.cls-1{fill:none;}.cls-2{clip-path:url(#clippath);}.cls-3{clip-path:url(#clippath-1);}</style><clipPath id="clippath"><rect class="cls-1" width="64" height="64"/></clipPath><clipPath id="clippath-1"><rect class="cls-1" width="64" height="64"/></clipPath></defs><g class="cls-2"><g class="cls-3"><path d="M40.24,32.24h0c.77,.42,1.72,.13,2.14-.63l2.26-4.16,3.73,2.02,2.01-3.7-3.73-2.02,2.26-4.16c.42-.77,.13-1.72-.63-2.14-.77-.42-1.72-.13-2.14,.63l-6.52,12.03c-.42,.77-.13,1.72,.64,2.14"/><path d="M19.43,17.46c3.15-.48,4.62-2.91,4.13-6.01-.57-3.53-2.77-5.13-5.84-4.67-3.23,.49-4.61,3-4.1,6.18,.54,3.36,2.66,4.97,5.81,4.49"/><path d="M42.26,37.08c-1.01-2.19-2.21-2.9-4.87-2.72-2.5,.18-4.43,.44-7.78,.73-1.21-3.93-2.7-8.44-3.37-10.46,2.61,.21,6.01,.21,7.13,.12,1.57-.15,4.44-1.57,5.9-2.15,3.53-1.42,3.42-4.43,3.36-5.06-1.61,.44-5.14,1.69-6.15,2-.79,.25-2.63,.87-3.46,.91-1.11,.06-2.47-.07-3.69-.19-.54-.06-7.17-.95-8.23-1.03-3.16-.23-6.35,2.06-5.52,6.15,.93,4.59,2.54,11.4,3.64,15.12,.72,2.41,3.26,3.98,6.7,3.37,2.5-.44,10.92-1.63,10.92-1.63,0,0,4.78,7.89,7.03,12,2.25,4.11,5.72,3,6.66,2.61-2.71-6.94-6.78-16.57-8.25-19.75"/></g></g></svg>