<?xml version="1.0" encoding="UTF-8"?><svg id="Laag_1" xmlns="http://www.w3.org/2000/svg" xmlns:xlink="http://www.w3.org/1999/xlink" viewBox="0 0 64 64"><defs><style>.cls-1{fill:none;}.cls-2{clip-path:url(#clippath);}.cls-3{clip-path:url(#clippath-1);}</style><clipPath id="clippath"><rect class="cls-1" width="64" height="64"/></clipPath><clipPath id="clippath-1"><rect class="cls-1" width="64" height="64"/></clipPath></defs><g class="cls-2"><g class="cls-3"><path d="M28.93,34.81c1.08,0,1.6-.06,2.72-.32v-2.01c-1.06,.22-1.61,.31-2.56,.31-1.34,0-2.44-.69-2.91-2.36h3.72v-1.54h-3.96c-.02-.2-.02-.43-.02-.67,0-.28,0-.57,.02-.85h3.96v-1.56h-3.7c.45-1.65,1.46-2.48,3.01-2.48,.81,0,1.34,.08,2.34,.26v-2.13c-.85-.18-1.48-.24-2.28-.24-2.82,0-4.9,1.54-5.63,4.59h-1.51v1.56h1.26c-.04,.35-.04,.73-.04,1.1v.43h-1.22v1.54h1.38c.59,3.01,2.58,4.39,5.41,4.39"/><path d="M15,41H58V15H15v26Zm40-3H18V18H55v20Z"/><rect x="41" y="20" width="12" height="16"/><polygon points="13 20 10 20 10 46 53 46 53 43 13 43 13 20"/><polygon points="8 25 5 25 5 51 48 51 48 48 8 48 8 25"/></g></g></svg>