<?xml version="1.0" encoding="UTF-8"?><svg id="Laag_1" xmlns="http://www.w3.org/2000/svg" xmlns:xlink="http://www.w3.org/1999/xlink" viewBox="0 0 64 64"><defs><style>.cls-1{fill:none;}.cls-2{clip-path:url(#clippath);}.cls-3{clip-path:url(#clippath-1);}</style><clipPath id="clippath"><rect class="cls-1" width="64" height="64"/></clipPath><clipPath id="clippath-1"><rect class="cls-1" width="64" height="64"/></clipPath></defs><g class="cls-2"><g class="cls-3"><path d="M39.78,33.91c-1.05-.58-1.1-1.62-1.1-1.62l2.64-1.65c.75-.56,.9-1.63,.33-2.37l-5.62-5.49c-.22-.73-.04-2.12-.19-2.74-.77-3.13-2.52-6.53-2.52-6.53,1.5-3.43,.44-6.32-2.29-7.81-3.11-1.7-13.85-1.13-21.44,3.72C1.57,14.54,3.08,22.92,4.78,27.06c1.98,4.81,7.61,10.97,7.94,16.25,.15,2.32-1.56,9.69-1.56,9.69H29.86v-3.38s-4.62-3.7-4.81-3.89c-.18-.19-.09-.36-.05-.4,0,0,4.6,2.04,7.09,2.96,1.95,.73,3.79,.55,4.83-.21,2.13-1.57,.95-3.44,1.37-4.38s1.46-.41,1.56-1.8c.02-.26-.13-.72-.47-.97-2-1.48-2.05-2.64,.02-4.59,.3-.28,.76-.72,.82-1.32,.05-.44-.07-.92-.44-1.12"/><path d="M60.03,44.97l-12.71-4.47c-.26-.81-1.25-1.67-2.61-2.15-1.78-.63-3.51-.35-3.85,.61-.34,.97,.83,2.26,2.62,2.89,1.36,.48,2.67,.43,3.38-.04l12.71,4.47c.36,.13,.76-.06,.89-.42,.13-.36-.06-.76-.42-.89"/></g></g></svg>