<?xml version="1.0" encoding="UTF-8"?><svg id="Laag_1" xmlns="http://www.w3.org/2000/svg" xmlns:xlink="http://www.w3.org/1999/xlink" viewBox="0 0 64 64"><defs><style>.cls-1{fill:none;}.cls-2{clip-path:url(#clippath);}.cls-3{clip-path:url(#clippath-1);}</style><clipPath id="clippath"><rect class="cls-1" width="64" height="64"/></clipPath><clipPath id="clippath-1"><rect class="cls-1" width="64" height="64"/></clipPath></defs><g class="cls-2"><g class="cls-3"><path d="M52.61,44.11c-2.18-2.38-8.46-4.49-11.39-5.37-.15-1.12-.36-2.41-.55-3.48,1.38-1.67,2.34-3.39,2.87-5.13,1.09-.14,1.97-.97,2.13-2.1l1.29-8.47c.19-1.26-.59-2.46-1.8-2.79-.08-.02-.16-.04-.24-.06,.16-3.08,.08-6.67-.95-8.33-1.6-2.56-3.55-3.82-7.26-2.98-2.44-1.16-4.09-1.88-8.36-.84-2.97,.72-6.21,1.91-7.92,3.88-1.31,1.51-1.51,5.15-1.4,8.28-.07,.02-.14,.03-.21,.05-1.21,.33-1.98,1.53-1.8,2.79l1.29,8.47c.17,1.12,1.03,1.95,2.12,2.1,.58,1.95,1.69,3.84,3.34,5.69-.11,.81-.23,1.75-.35,2.73-2.51,.74-9.67,3-12.03,5.57-2.87,3.12-4.39,14.89-4.39,14.89H57s-1.51-11.76-4.39-14.89M22.18,27.03c-.55,.11-1.09-.26-1.17-.82l-.22-1.52c2.73-1.46,8.21-2.31,8.21-2.31,0-.06-.01-.27-.35-.28,0,0-2.84-.46-8.16,.62l-.34-2.33c-.08-.51,.25-1.01,.74-1.13,7.27-1.77,14.93-1.77,22.19,0,.5,.12,.82,.62,.74,1.13l-.22,1.5c-2.6-.93-4.87-.88-4.87-.88-.33-.04-.37,.17-.38,.23,0,0,2.67,.56,5.06,1.91l-.45,3.05c-.08,.56-.62,.94-1.17,.82-3.23-.65-6.52-.98-9.82-.98s-6.59,.33-9.82,.98m12.57-13.88l3.33,2.24c-2.66-.33-5.34-.43-8.01-.32,1.45-.45,3.04-1.07,4.68-1.92m-2.37,36.19c-2.3-1.75-6.59-5.53-6.16-9.02,.24-1.91,.04-.55,.82-5.44-1.57-1.51-2.9-3.26-3.59-5.23,5.63-1.04,11.44-1.04,17.07,0-.88,2.36-2.77,4.32-4.81,6.06-.78,.67-2.25,1.11-3.72,1.11-1.06,0-2.13-.29-2.93-.64,.61,.93,1.66,2.07,3.58,2.58,3.16,.84,5.46-.91,5.46-.91,0,0,.28,1.91,.27,2.42,.33,3.49-3.56,7.32-6.01,9.08"/></g></g></svg>