<?xml version="1.0" encoding="UTF-8"?><svg id="Laag_1" xmlns="http://www.w3.org/2000/svg" xmlns:xlink="http://www.w3.org/1999/xlink" viewBox="0 0 64 64"><defs><style>.cls-1{fill:none;}.cls-2{clip-path:url(#clippath);}.cls-3{clip-path:url(#clippath-1);}</style><clipPath id="clippath"><rect class="cls-1" width="64" height="64"/></clipPath><clipPath id="clippath-1"><rect class="cls-1" width="64" height="64"/></clipPath></defs><g class="cls-2"><g class="cls-3"><path d="M57,7h-2c-1.11,0-2,.9-2,2v6h-1.69c-.29,1.57-.69,2.33-.85,2.66-.14,.28-.32,.36-.45,.33v-2.49c0-1.92-1.58-3.5-3.5-3.5-1.75,0-3.2,1.31-3.45,3h-8.74c-.29,1.57-.69,2.33-.85,2.66-.14,.28-.32,.36-.45,.33v-2.49c0-1.92-1.58-3.5-3.5-3.5-1.75,0-3.2,1.31-3.45,3h-1.74c-.29,1.57-.69,2.33-.85,2.66-.14,.28-.32,.36-.45,.33v-2.49c0-1.92-1.58-3.5-3.5-3.5-1.75,0-3.2,1.31-3.45,3h-5.05v-6c0-1.1-.9-2-2-2h-2c-1.1,0-2,.9-2,2V57h6v-8h9.05c.25,1.69,1.7,3,3.45,3s3.2-1.31,3.45-3h4.1c.25,1.69,1.69,3,3.45,3s3.2-1.31,3.45-3h5.1c.25,1.69,1.69,3,3.45,3s3.2-1.31,3.45-3h3.05v8h6V9c0-1.1-.9-2-2-2m-4,37h-1.69c-.29,1.57-.69,2.33-.85,2.66-.14,.28-.32,.36-.45,.33v-2.49c0-1.92-1.58-3.5-3.5-3.5-1.75,0-3.2,1.31-3.45,3h-3.74c-.29,1.57-.69,2.33-.85,2.66-.14,.28-.32,.36-.45,.33v-2.49c0-1.92-1.58-3.5-3.5-3.5-1.75,0-3.2,1.31-3.45,3h-2.74c-.29,1.57-.69,2.33-.85,2.66-.14,.28-.32,.36-.45,.33v-2.49c0-1.92-1.58-3.5-3.5-3.5-1.75,0-3.2,1.31-3.45,3H11v-9h2.05c.25,1.69,1.69,3,3.45,3s3.2-1.31,3.45-3h10.1c.25,1.69,1.69,3,3.45,3s3.2-1.31,3.45-3h4.1c.25,1.69,1.69,3,3.45,3s3.2-1.31,3.45-3h5.05v9Zm0-14h-3.69c-.29,1.57-.69,2.33-.85,2.66-.14,.28-.32,.36-.45,.33v-2.49c0-1.92-1.58-3.5-3.5-3.5-1.75,0-3.2,1.31-3.45,3h-2.74c-.29,1.57-.69,2.33-.85,2.66-.14,.28-.32,.36-.45,.33v-2.49c0-1.92-1.58-3.5-3.5-3.5-1.75,0-3.2,1.31-3.45,3h-8.74c-.29,1.57-.69,2.33-.85,2.66-.14,.28-.32,.36-.46,.33v-2.49c0-1.92-1.58-3.5-3.5-3.5-1.75,0-3.2,1.31-3.45,3h-2.05v-10h5.05c.25,1.69,1.69,3,3.45,3s3.2-1.31,3.45-3h3.1c.25,1.69,1.69,3,3.45,3s3.2-1.31,3.45-3h10.1c.25,1.69,1.69,3,3.45,3s3.2-1.31,3.45-3h3.05v10Z"/></g></g></svg>