<?xml version="1.0" encoding="UTF-8"?><svg id="Laag_1" xmlns="http://www.w3.org/2000/svg" viewBox="0 0 64 64"><defs><style>.cls-1{fill:none;}</style></defs><rect class="cls-1" width="64" height="64"/><g><path d="m39.1,15.19c.38-.03.7-.17.94-.39.38,1.44,1.47,2.43,3.21,2.81,2.66.58,4.61-.94,5.2-3.62.67-3.06-.58-5.05-3.17-5.62-2.73-.6-4.63,1.02-5.23,3.77-.12.56-.16,1.08-.15,1.57-.11.08-.29.03-.42-.37-.13-.4-.26-1.15-.06-2.26-.21-.06-.43-.09-.68-.07-1.1.1-1.62,1.03-1.51,2.27.12,1.31.8,2,1.88,1.9Z"/><path d="m48.5,56c-1.38,0-2.5,1.12-2.5,2.5s1.12,2.5,2.5,2.5,2.5-1.12,2.5-2.5-1.12-2.5-2.5-2.5Z"/><path d="m58.5,56c-1.38,0-2.5,1.12-2.5,2.5s1.12,2.5,2.5,2.5,2.5-1.12,2.5-2.5-1.12-2.5-2.5-2.5Z"/><path d="m61.34,52.17c-.3-.06-.6-.06-1.11-.07-.01,0-.02,0-.03,0h-2.22c-.4,0-.54-.18-.61-.35l-3.97-15.34s-.03-.09-.04-.13c-.55-1.47-1.75-2.28-3.4-2.28h-2.25c-1.28-2.22-1.51-2.64-1.9-3.49-.27-.58-.29-.59-.49-1.57-.37-1.87-.54-4.55-.78-6.63-.3-2.63-4.62-5.03-7.53-4.11-1.85.59-3.54,2.59-4.93,4.84-1.71,2.77-3.59,6.57-4.29,10.39l-1.79,15.38c.59.24,1.25.36,1.95.4.02,1.5.06,5.62.1,7.17.08,3.38,2.72,4.36,3.5,4.58.03-.4.5-8.5.74-12.01,1.02-.11,2.1-.23,3.24-.29.46,2.09,1.67,7.59,1.89,8.64.55,2.6,2.45,3.85,4.57,3.66,0,0-.81-8.03-1.22-12.03.46.08.93.18,1.41.3,0,0-.73-8.08-3.5-13.9.91-2.08,1.91-4.4,2.83-6.52.06.3.11.59.18.9.39,1.55.67,2.35,2.09,4.24,2,2.65,3.51,4.54,5.15,2.73h1.03c.58,0,.74.2.84.46l1.6,6.16-3.91,10.02c-.28.69.15,1.24.84,1.51.69.28,1.39.18,1.67-.51l2.55-6.62,1.21,4.77s.02.07.03.1c.47,1.36,1.69,2.21,3.17,2.21h1.79c1.08,0,1.82-.48,2.12-1.22.21-.52.17-1.27-.55-1.41Z"/><path d="m33.46,19.17c-1.31-1.42-3.19-1.31-5,.06-1.24.94-2.39,1.84-3.27,2.51-1.19-2.32-2.8-5.65-3.6-6.66-1.12-1.41-3.44-3.44-6.72-2.79-2.71.54-3.63,2.59-4.04,5.04-.37,2.21-.11,4.83-.19,6.97-.06,1.06-.19,2.3-.56,4.79-.67,4.45-.26,4.92.6,7.13.63,4.42.11,9.48.08,10.2-.15,2.49-.55,5.94-.79,9.29-.28,3.9,2.64,4.81,3.32,4.97.72-3.26,2.38-10.39,2.85-13.66-.7-1.9-2.27-5.57-3.04-7.68-.11-.3-.1-.55.07-.59.48.75,3.58,5.71,3.74,6.59.5,2.15,1.17,7.71,1.87,11.5.82,4.38,4.82,4.17,4.99,4.16-.17-4.06-.28-11.11-.57-15.19-.15-2.08-.25-2.3-.53-3.43-.73-2.67-2-6.41-3.19-8.91.47-6.63.2-9.01.47-12.6.75,1.45,2.21,3.61,3.17,4.91.75,1.02,2.12.57,2.53.23,1.3-1.09,3.75-3.25,5.04-4.4,1.29-1.15,2.75-2.45,2.75-2.45Z"/><path d="m16.95,10.88c2.82.02,4.47-1.95,4.49-4.79.02-3.24-1.67-5-4.42-5.02-2.9-.02-4.47,2.03-4.49,4.95-.02,3.09,1.6,4.84,4.42,4.86Z"/></g></svg>