<?xml version="1.0" encoding="UTF-8"?><svg id="Laag_1" xmlns="http://www.w3.org/2000/svg" xmlns:xlink="http://www.w3.org/1999/xlink" viewBox="0 0 64 64"><defs><style>.cls-1{fill:none;}.cls-2{clip-path:url(#clippath);}.cls-3{clip-path:url(#clippath-1);}</style><clipPath id="clippath"><rect class="cls-1" width="64" height="64"/></clipPath><clipPath id="clippath-1"><rect class="cls-1" width="64" height="64"/></clipPath></defs><g class="cls-2"><g class="cls-3"><path d="M37,8H5c-1.1,0-2,.9-2,2V57H39V10c0-1.1-.9-2-2-2M14,41h-6v-6h6v6Zm0-10h-6v-6h6v6Zm0-10h-6v-6h6v6Zm10,20h-6v-6h6v6Zm0-10h-6v-6h6v6Zm0-10h-6v-6h6v6Zm10,20h-6v-6h6v6Zm0-10h-6v-6h6v6Zm0-10h-6v-6h6v6Z"/><rect x="41" y="8" width="4" height="49"/><path d="M52.64,28.05c-.26,.43-.19,.99,.16,1.33,.2,.2,.47,.28,.73,.26,.19-.02,.38-.09,.54-.23l6.58-5.65c.23-.2,.36-.49,.36-.81,0-.31-.14-.61-.37-.81l-6.64-5.58c-.16-.13-.35-.21-.54-.22-.26-.02-.52,.07-.72,.27-.35,.35-.41,.91-.15,1.33l1.92,3.04h-7.5v4h7.52l-1.88,3.05Z"/><path d="M55.41,36.96c.27-.42,.2-.99-.15-1.33-.2-.2-.47-.29-.72-.27-.19,.01-.38,.09-.54,.22l-6.63,5.58c-.23,.19-.37,.49-.37,.81s.13,.61,.36,.81l6.58,5.65c.16,.14,.35,.21,.54,.23,.26,.02,.52-.07,.73-.26,.36-.34,.42-.91,.16-1.33l-1.88-3.05h7.52v-4h-7.5l1.92-3.04Z"/></g></g></svg>