<?xml version="1.0" encoding="UTF-8"?><svg id="Laag_1" xmlns="http://www.w3.org/2000/svg" xmlns:xlink="http://www.w3.org/1999/xlink" viewBox="0 0 64 64"><defs><style>.cls-1{fill:none;}.cls-2{clip-path:url(#clippath);}.cls-3{clip-path:url(#clippath-1);}</style><clipPath id="clippath"><rect class="cls-1" width="64" height="64"/></clipPath><clipPath id="clippath-1"><rect class="cls-1" width="64" height="64"/></clipPath></defs><g class="cls-2"><g class="cls-3"><path d="M27.28,12.59c.81,0,1.34,.08,2.34,.26v-2.13c-.85-.18-1.48-.24-2.28-.24-2.83,0-4.9,1.55-5.63,4.59h-1.5v1.57h1.26c-.04,.35-.04,.73-.04,1.1v.43h-1.22v1.55h1.38c.2,1,.56,1.81,1.05,2.46,.6-.6,1.25-1.14,1.94-1.65-.13-.24-.24-.51-.33-.82h1.55c.7-.43,1.42-.82,2.17-1.14v-.41h-3.96c-.02-.2-.02-.43-.02-.67,0-.28,0-.57,.02-.85h3.96v-1.57h-3.7c.45-1.65,1.46-2.48,3.01-2.48"/><path d="M38.95,27h-8.89c-1.17,.75-2.15,1.78-2.83,3h14.54c-.67-1.22-1.65-2.25-2.83-3"/><path d="M16,7H53V27h-3.28c.44,.96,.79,1.96,1.05,3h5.23V4H13V30h5.24c.26-1.04,.61-2.04,1.05-3h-3.29V7Z"/><path d="M39,9v8.86c4.02,1.12,7.43,3.7,9.63,7.14h2.37V9h-12Z"/><path d="M42.55,32H26.45c-.16,.64-.25,1.31-.25,2,0,.34,.03,.67,.07,1h16.47c.04-.33,.07-.66,.07-1,0-.69-.1-1.36-.25-2"/><path d="M17.74,34c0-.68,.05-1.34,.13-2h-6.87V9h-3v26h9.79c-.02-.33-.05-.66-.05-1"/><path d="M28.78,40h11.44c.87-.83,1.57-1.85,2.01-3h-15.47c.45,1.15,1.14,2.17,2.01,3"/><path d="M6,37V14H3v26h15.86c-.37-.96-.66-1.96-.84-3H6Z"/><path d="M60.01,54.35l-12.25-11.41c-1.69,1.52-3.08,2.08-3.44,2.21-.2,.07-.33,.02-.37-.06,.24-.2,1.83-1.78,2.74-3.13,1.53-2.27,2.37-5.02,2.37-7.95,0-8.05-6.52-14.57-14.57-14.57s-14.57,6.52-14.57,14.57,6.52,14.57,14.57,14.57c2.94,0,5.66-.88,7.95-2.37l12.4,13.31c.85,.85,2.18,.96,3.15,.26,.73-.53,1.06-.61,2.26-2.26,.7-.97,.59-2.3-.26-3.15m-25.5-9.85c-5.79,0-10.5-4.71-10.5-10.5s4.71-10.5,10.5-10.5,10.5,4.71,10.5,10.5-4.71,10.5-10.5,10.5"/></g></g></svg>