<?xml version="1.0" encoding="UTF-8"?><svg id="Laag_1" xmlns="http://www.w3.org/2000/svg" viewBox="0 0 64 64"><defs><style>.cls-1{fill:none;}</style></defs><rect class="cls-1" width="64" height="64"/><path d="m54.89,4H21c-6.93,0-14,2.69-14,9.97v39.19c0,4.09,2.12,6.84,6,6.84h33.88c1.17,0,2.12-.95,2.12-2.11V16.11c0-1.17-.95-2.11-2.12-2.11H13.88c-.91,0-1.34-.83-1.02-1.75,1.01-2.88,6.26-3.25,8.14-3.25h31v42h3c1.1,0,2-.9,2-2V6.11c0-1.17-.95-2.11-2.11-2.11Zm-22.39,34.72l5.5-8.64h-5.18v-2.09h8.32v1.96l-.02.02-5.8,8.94h5.86v2.09h-8.7l.02-2.29Zm-6.49-4.72h5v2h-5v-2Zm-12.04,6.88l3.71-12.89h3.57l.02.07,3.69,12.95h-2.8l-.8-3h-4.1l-.8,3h-2.55l.04-.12Z"/><polygon points="19.32 30.21 17.78 36 20.82 36 19.32 30.21"/></svg>