<?xml version="1.0" encoding="UTF-8"?><svg id="Laag_1" xmlns="http://www.w3.org/2000/svg" xmlns:xlink="http://www.w3.org/1999/xlink" viewBox="0 0 24 24"><defs><style>.cls-1{fill:none;}.cls-2{clip-path:url(#clippath);}.cls-3{clip-path:url(#clippath-1);}</style><clipPath id="clippath"><rect class="cls-1" width="24" height="24"/></clipPath><clipPath id="clippath-1"><rect class="cls-1" width="24" height="24"/></clipPath></defs><g class="cls-2"><g class="cls-3"><path d="m20.5,1H5.5c-.83,0-1.5.67-1.5,1.5v4.5h3v-3h12v15H7v-3h-3v4.5c0,.83.67,1.5,1.5,1.5h15c.83,0,1.5-.67,1.5-1.5V2.5c0-.83-.67-1.5-1.5-1.5"/><path d="m9.46,15.39c-.34.43-.3,1.04.06,1.4.36.37.96.4,1.4.06l5.66-4.57c.47-.4.6-1.09,0-1.58l-5.66-4.57c-.43-.31-1.03-.31-1.4.06-.37.36-.37.97-.06,1.4l2.07,2.44H2.81c-.97,0-1.22.73-1.22,1.46s.24,1.46,1.22,1.46h8.72l-2.07,2.44Z"/></g></g></svg>