<?xml version="1.0" encoding="UTF-8"?><svg id="Laag_1" xmlns="http://www.w3.org/2000/svg" xmlns:xlink="http://www.w3.org/1999/xlink" viewBox="0 0 64 64"><defs><style>.cls-1{fill:none;}.cls-2{clip-path:url(#clippath);}.cls-3{clip-path:url(#clippath-1);}</style><clipPath id="clippath"><rect class="cls-1" width="64" height="64"/></clipPath><clipPath id="clippath-1"><rect class="cls-1" width="64" height="64"/></clipPath></defs><g class="cls-2"><g class="cls-3"><path d="M52.23,41.26c-2.77,.95-6.37,2.41-9.22,3.61,.07,.43,.08,.89,.01,1.38-.41,2.81-2.82,4.58-6.24,4.74-7.73,.36-12.53-1.56-13.53-1.96-.29-.12-.32-.26-.29-.39h.01c5.59,.95,9.12,1.11,13.46,.41,3.3-.53,4.49-2.11,4.46-3.41-.03-1.27-.93-2.04-2.95-2.11-6.89-.24-10.92-1.01-16.82-1.87-4.1-.6-8.06,.47-11.43,2.63-3.16,2.03-4.04,2.99-4.04,2.99l5.79,11.14,7.48-3.04c.85-.35,1.78-.45,2.69-.3l10.26,2.28c2.29,.38,4.64-.06,6.64-1.22l20.48-12.85s-1-4.02-6.76-2.04m-24.34-4.03c.16,.52,.55,.93,1.07,1.12,.51,.19,1.09,.14,1.56-.14l11.05-6.53c.74-.44,1.07-1.33,.78-2.12-.29-.79-1.11-1.27-1.96-1.13l-4.52,.72c2.82-5.82,8.2-10.21,14.73-11.61,.81-.17,1.61-.92,1.57-2.04l-.08-2.06c-.04-1.07-1.28-1.85-2.33-1.64-8.71,1.74-15.86,7.64-19.41,15.47l-3.12-3.72c-.54-.65-1.48-.83-2.24-.42-.76,.41-1.12,1.28-.87,2.09l3.77,12.02Z"/></g></g></svg>