<?xml version="1.0" encoding="UTF-8"?><svg id="Laag_1" xmlns="http://www.w3.org/2000/svg" xmlns:xlink="http://www.w3.org/1999/xlink" viewBox="0 0 64 64"><defs><style>.cls-1{fill:none;}.cls-2{clip-path:url(#clippath);}.cls-3{clip-path:url(#clippath-1);}</style><clipPath id="clippath"><rect class="cls-1" width="64" height="64"/></clipPath><clipPath id="clippath-1"><rect class="cls-1" width="64" height="64"/></clipPath></defs><g class="cls-2"><g class="cls-3"><path d="M13.94,39.99c-1.6,.47-5.93,1.41-11.74,.01,0,0-.88,9.82,3.08,15.36l15.52-8.12c-3.7-2.52-5.74-5.2-6.86-7.26"/><path d="M34.02,50.65l11.94-11.55c-4.76,1.51-8.83,2.38-12.87,2.65h0c.03-5.85-1.42-11.39-3.67-16.68-2.01-4.83-5.71-11.11-.88-13.57,3.3-1.88,9.85,.39,12.31,9.31-.06,.09-.22,.25-.41,.04-.92-1.02-2.56-3.8-5.59-5.88-6.33,9.01,4.77,17.47,14.74,16.9,.72-.04,1.16-.81,.83-1.46-4.26-8.58,1.1-11.11-3.84-16.3-1.44-1.51-4.13-2.32-6.71-2-4.19-5.72-11-6.21-14.81-2.98-5.54,4.76-2.27,11.32,.36,17.6,2.34,5.46,3.44,10.76,3.54,14.98,0,.03,0,.06,0,.09-3.91-.13-7.98-.8-12.8-2,2.14,3.34,7.01,8.22,17.83,10.85"/><path d="M48.22,39.69l-4.93,4.77c1.45,1.43,7.09,6.33,17.67,8.56l.93-12.9c-4.95,1.43-9.89,.93-13.67-.43"/><path d="M22.77,48.47l-11.98,6.27c2.13,1.71,9.38,6.42,24.39,6.39l-1.87-8.6c-4.36-1.08-7.82-2.5-10.54-4.06"/><path d="M49.93,51.43l-.19-.14c-4.35-2.17-6.91-4.46-7.89-5.44l-6.57,6.35,1.46,6.71c2.77-.15,13.05-.92,21.16-4.56-3.03-.81-5.61-1.82-7.77-2.86l-.21-.06Z"/></g></g></svg>