<?xml version="1.0" encoding="UTF-8"?><svg id="Laag_1" xmlns="http://www.w3.org/2000/svg" xmlns:xlink="http://www.w3.org/1999/xlink" viewBox="0 0 64 64"><defs><style>.cls-1{fill:none;}.cls-2{clip-path:url(#clippath);}.cls-3{clip-path:url(#clippath-1);}</style><clipPath id="clippath"><rect class="cls-1" width="64" height="64"/></clipPath><clipPath id="clippath-1"><rect class="cls-1" width="64" height="64"/></clipPath></defs><g class="cls-2"><g class="cls-3"><path d="M60,39v-4c0-.55-.45-1-1-1h-4c-.52,0-.94,.41-.98,.92l-15.81-10.39c.44-1.72,.05-3.45-.66-4.73-.89-1.6-2.26-2.88-3.04-3.91-.17-.23-.26-.57-.31-.89h1.8c.55,0,1-.45,1-1v-5c0-.55-.45-1-1-1h-1V2h-2v6h-2V2h-2v6h-1c-.55,0-1,.45-1,1v5c0,.55,.45,1,1,1h1.94c-.02,1.13,.34,2.19,1.04,3.05,.87,1.06,1.75,2.01,2.4,2.9,.21,.28,.35,.62,.43,.97-1.63-.52-3.42-.32-4.92,.59-.45-.59-.88-1.22-1.4-1.95-.36-.51-1.15-.28-1.19,.35-.06,.82-.03,2.01,.18,3.16l-16.5,10.84c-.04-.51-.46-.92-.98-.92H5c-.55,0-1,.45-1,1v4c0,.55,.45,1,1,1v16c-.55,0-1,.45-1,1v4c0,.55,.45,1,1,1h4c.55,0,1-.45,1-1H54c0,.55,.45,1,1,1h4c.55,0,1-.45,1-1v-4c0-.55-.45-1-1-1v-16c.55,0,1-.45,1-1M13,56h-2v-16h2v16Zm8,0h-2v-16h2v16Zm8,0h-2v-16h2v16Zm8,0h-2v-16h2v16Zm8,0h-2v-16h2v16ZM15.32,35l12.36-8.12c2.02,2.56,5.49,2.52,7.69,1.33-.73-.88-1.78-2.03-3.31-3.39,.02-.44,1.13,0,1.65,.34,1.19,.75,4.85,3.19,5.13,3.37l9.84,6.47H15.32Zm37.68,21h-2v-16h2v16Z"/></g></g></svg>