<?xml version="1.0" encoding="UTF-8"?><svg id="Laag_1" xmlns="http://www.w3.org/2000/svg" xmlns:xlink="http://www.w3.org/1999/xlink" viewBox="0 0 64 64"><defs><style>.cls-1{fill:none;}.cls-2{clip-path:url(#clippath);}.cls-3{clip-path:url(#clippath-1);}</style><clipPath id="clippath"><rect class="cls-1" width="64" height="64"/></clipPath><clipPath id="clippath-1"><rect class="cls-1" width="64" height="64"/></clipPath></defs><g class="cls-2"><polygon points="6.57 7.07 1.42 9.39 11.31 16.58 6.72 10.33 11.88 8.01 1.99 .83 6.57 7.07"/><polygon points="50.12 8.01 55.28 10.33 50.69 16.58 60.58 9.39 55.43 7.07 60.01 .83 50.12 8.01"/><g class="cls-3"><path d="M34.01,54.25c.02-1.03,.52-1.97,1.33-2.58-.88-.63-1.41-1.64-1.39-2.73,0-.56,.16-1.11,.44-1.58-1.42,.81-2.68,1.34-3.34,1.59-1.49-.64-6.14-2.88-8.39-6.8,2.88-1.19,2.71-2.27,2.76-2.72,.07-.58,.58-5.32,.58-5.32-2.52-2.48-3.6-5.57-4.06-8.28-.29-1.73-.25-3.34-.16-4.41,4.8-1.89,11.6-5.75,14.24-9.06,0,0,.32,.01,.12,.5-.35,.83-.85,1.81-1.55,2.98,1.24,2.63,3.47,4.56,5.68,5.93,.07,1.03,.07,2.46-.2,4.06-.53,3.18-2.82,7.63-5.34,9.19-1.72,1.06-4.87,1.23-6.71,.44,.42,.84,1.27,1.84,3.15,2.31,2.54,.63,4.85-.41,5.45-.75,.11,.8,.22,1.59,.29,2.28,.01,.14,.04,.35,.16,.61l2.67-1.51c-.1-.79-.22-1.72-.35-2.61,1.47,.16,2.83,.32,4.03,.53l4.38-2.48c.82-3.7,1.19-6.56,1.19-9.6,0-7.49-2.81-15.48-7.13-18.07-2.75-1.65-5.84-1.05-5.84-1.05,0,0-2.97-2.86-8.17-1.88-8.48,1.6-14.84,9.74-14.84,21,0,3.72,.56,7.15,1.82,12.24,.1,.42,.5,.67,.88,.54,1.82-.64,4.29-1.01,7.36-1.3-.11,.94-.24,1.99-.36,3.06-1.67,1.19-8.78,2.66-11.5,5.5-2.76,2.88-4.21,13.74-4.21,13.74h30l-1.42-.87c-1-.61-1.6-1.71-1.57-2.89"/><path d="M62.04,51.36l-.67-.34-12.99,8.64-11.07-6.77-.62,.34c-.39,.22-.64,.62-.64,1.07,0,.44,.22,.86,.6,1.09l11.1,6.81c.2,.12,.43,.18,.65,.18,.24,0,.48-.07,.69-.21l13.06-8.66c.37-.24,.58-.67,.56-1.11-.03-.44-.28-.84-.68-1.04"/><path d="M61.99,45.91l-.66-.34-13,8.63-11.05-6.67-.64,.36c-.39,.22-.63,.63-.64,1.07,0,.44,.22,.86,.6,1.09l11.1,6.7c.2,.12,.42,.18,.65,.18,.24,0,.48-.07,.69-.21l13.06-8.66c.37-.24,.58-.67,.56-1.11-.02-.44-.28-.84-.68-1.04"/><path d="M35.91,43.6c0,.44,.22,.86,.61,1.09l11.1,6.66c.2,.12,.42,.18,.64,.18,.24,0,.48-.07,.69-.21l13.06-8.66c.37-.24,.58-.67,.56-1.11-.03-.44-.28-.84-.68-1.04l-10.82-5.54c-.37-.19-.82-.18-1.18,.02l-13.34,7.54c-.39,.22-.63,.63-.64,1.07m14.62-6.1l8.32,4.26-10.62,7.05-8.59-5.15,10.89-6.15Z"/></g></g></svg>