<?xml version="1.0" encoding="UTF-8"?><svg id="Laag_1" xmlns="http://www.w3.org/2000/svg" xmlns:xlink="http://www.w3.org/1999/xlink" viewBox="0 0 64 64"><defs><style>.cls-1{fill:none;}.cls-2{clip-path:url(#clippath);}.cls-3{clip-path:url(#clippath-1);}</style><clipPath id="clippath"><rect class="cls-1" width="64" height="64"/></clipPath><clipPath id="clippath-1"><rect class="cls-1" width="64" height="64"/></clipPath></defs><g class="cls-2"><g class="cls-3"><path d="M17.72,40.68s4.63-3.86,1.74-11.05c4.21-.18,7.49-.87,10.54-2.01,.54-1.16,.83-2.54,1-4.19,0,0,.33-.15,.48,.37,.43,1.46,.17,5.13-.45,6.48-.17,.37,.17,.78,.57,.69,7.17-1.61,11.53-13.2,11.29-22.69-.02-.96-.62-1.82-1.53-2.16-4.07-1.5-8.57-1.42-12.37-.12,0,.02-8.84-1.05-13.89,5.39-.22,.29-.08,.71,.27,.79l4.62,.81c-2.43,3.71-3.73,8.73-2.94,14.22-7.18-2.94-11.06,1.78-11.06,1.78,3.57,.71,6.48,2.13,8.35,3.32,1.18,1.87,2.68,4.8,3.38,8.37M35.5,7.8c.94,0,1.7,.77,1.69,1.71,0,.94-.77,1.7-1.71,1.69-.94,0-1.7-.77-1.69-1.7,0-.94,.77-1.7,1.71-1.7"/><path d="M14.63,53.15l-1.1-.71-1.1,.71s-3.01,1.93-5.79,1.93c-.89,0-1.81-.2-2.64-.47v4.07c.85,.2,1.74,.33,2.64,.33,2.76,0,5.44-1.18,6.89-1.94,1.45,.76,4.13,1.94,6.89,1.94,.88,0,1.75-.12,2.58-.31v-4.07c-.82,.26-1.71,.46-2.58,.46-2.78,0-5.76-1.91-5.79-1.92"/><polygon points="45 25 45 35 35 35 35 45 25 45 25 59 29 59 29 49 39 49 39 39 49 39 49 29 59 29 59 25 45 25"/></g></g></svg>