<?xml version="1.0" encoding="UTF-8"?><svg id="Laag_1" xmlns="http://www.w3.org/2000/svg" viewBox="0 0 64 64"><defs><style>.cls-1{fill:none;}</style></defs><rect class="cls-1" width="64" height="64"/><path d="m56.72,54c-1.18-1.25-3.54-2.6-6.13-3.85-3.39-1.68-7.18-3.16-9.21-3.92-.77-.29-1.26-1-1.4-1.81-.17-1.01-.36-2.51-.51-3.77,5.12-.21,9.35-.71,11.11-1.38.35-.13.52-.45.37-.79-.96-2.1-3.46-9.01-3.78-12.62-.77-8.86-.74-24.71-12.87-20.73,0,0-7.71-4.92-13.96,3.31-4.4,5.79-3.33,13.43-3.51,17.7-.13,3.03-2.61,10.03-3.65,11.84-.22.39-.15.78.27.93,1.89.68,6.14,1.22,11.14,1.53-.1.9-.23,1.96-.37,2.9h0c-.02.14-.04.26-.06.4-.04.23-.08.47-.12.68-.16.81-.63,1.52-1.4,1.81-.85.32-2.02.77-3.33,1.31,0,0,0,0,0,0-1.81.74-3.9,1.64-5.86,2.61-2.59,1.25-4.95,2.61-6.13,3.85-1.58,1.67-2.48,4.94-2.98,8h55.37c-.51-3.06-1.4-6.34-2.98-8Zm-20-4.91c-.67,1.91-1.78,3.12-2.56,3.12s-1.49-1.26-2.15-1.26-1.36,1.26-2.15,1.26-1.89-1.21-2.56-3.12c-.8-2.27-.77-5.92.31-6.01,1.08-.09,1.89,2.16,2.37,2.83.59.83,1.33,1.22,2.04,1.21.71,0,1.44-.4,2.02-1.21.48-.67,1.29-2.93,2.37-2.83,1.07.09,1.1,3.74.31,6.01Z"/></svg>