<?xml version="1.0" encoding="UTF-8"?><svg id="Laag_1" xmlns="http://www.w3.org/2000/svg" xmlns:xlink="http://www.w3.org/1999/xlink" viewBox="0 0 64 64"><defs><style>.cls-1{fill:none;}.cls-2{clip-path:url(#clippath);}.cls-3{clip-path:url(#clippath-1);}</style><clipPath id="clippath"><rect class="cls-1" width="64" height="64"/></clipPath><clipPath id="clippath-1"><rect class="cls-1" width="64" height="64"/></clipPath></defs><g class="cls-2"><g class="cls-3"><path d="M58.09,11.03c-.26-1.61-1.46-2.84-3.03-3.1-4.54-.78-12.11-.78-13.62-.78s-9.08,0-13.62,.78c-1.57,.27-2.76,1.49-3.03,3.1-.22,1.35-.37,2.66-.48,3.87,3.98,.02,10.45,.17,14.7,.9,2.72,.46,4.77,2.55,5.22,5.32,.87,5.37,.87,6.76,.87,11.94,0,.6,0,1.55-.03,2.74,0,0,6.96,5.67,7.48,6.06,.51,.39,1.05,.19,1.33-.16,.2-.25,.21-.56,.06-.95-.15-.41-1.99-5.44-1.99-5.44,1.11-.1,2.18-.23,3.12-.39,1.57-.27,2.77-1.49,3.03-3.1,.76-4.66,.76-8.83,.76-10.39,0-4.66,0-5.73-.76-10.39"/><path d="M24.47,25.57c-1.4,0-3.04,.62-4.03,1.59-.64,.61-.94,1.29-.79,1.79,.19,.63,1.15,1.17,2.58,1.43,.76,.14,1.88,.28,2.72,.42,.41-.53,.74-1.01,.95-1.43,.65-1.3,.85-2.4,.53-3-.32-.62-1.26-.79-1.95-.79"/><path d="M42.01,21.48c-.29-1.8-1.62-3.16-3.37-3.46-5.06-.87-13.5-.87-15.19-.87s-10.12,0-15.19,.87c-1.75,.3-3.08,1.66-3.38,3.46-.84,5.19-.84,9.85-.84,11.58s0,6.39,.84,11.58c.29,1.8,1.62,3.16,3.38,3.46,.66,.11,1.39,.21,2.14,.3l3.75-5.2c.2-.29,.4-.1,.4-.1,0,0-3.17,11.19-3.26,11.49-.1,.31-.12,.58,.09,.92,.31,.49,.96,.64,1.45,.33,.49-.31,11.25-6.88,11.25-6.88,2.57,0,9.95-.08,14.55-.86,1.75-.3,3.08-1.67,3.37-3.46,.84-5.19,.84-9.85,.84-11.58,0-5.19,0-6.39-.84-11.58m-12.72,22.24c-.65,.68-1.72,.71-2.4,.07-.68-.65-.71-1.72-.07-2.4,.79-.84,2.82-3.61,1.82-5.24-.51-.83-1.38-1.3-2.43-1.61-2.53,2.78-5.74,5.51-6.25,5.93-.72,.6-1.79,.51-2.4-.21-.6-.72-.51-1.79,.21-2.4,.95-.8,2.74-2.38,4.42-4.06-.2-.03-.39-.06-.58-.1-3.76-.69-4.88-2.67-5.22-3.79-.52-1.75,.11-3.7,1.69-5.22,1.9-1.82,4.99-2.83,7.51-2.45,1.77,.27,3.14,1.17,3.85,2.54,.59,1.14,.98,3.12-.51,6.09-.14,.27-.31,.56-.5,.86,1.21,.54,2.31,1.34,3.1,2.62,2.06,3.34-.44,7.45-2.24,9.35"/></g></g></svg>