<?xml version="1.0" encoding="UTF-8"?><svg id="Laag_1" xmlns="http://www.w3.org/2000/svg" viewBox="0 0 64 64"><defs><style>.cls-1{fill:none;}</style></defs><rect class="cls-1" width="64" height="64"/><g><path d="m32,26.78c-2.94,0-5.34,2.34-5.34,5.22s2.4,5.23,5.34,5.23,5.34-2.35,5.34-5.23-2.39-5.22-5.34-5.22Z"/><path d="m53.86,14.12c-.34-2.06-1.91-3.63-3.98-3.97-5.96-.99-15.89-.99-17.88-.99s-11.92,0-17.88.99c-2.06.34-3.63,1.91-3.97,3.97-.99,5.96-.99,15.9-.99,17.88s0,11.92.99,17.88c.34,2.06,1.91,3.63,3.97,3.97,5.96,1,15.9,1,17.88,1s11.92,0,17.88-1c2.06-.34,3.63-1.91,3.98-3.97.99-5.96.99-15.89.99-17.88,0-5.96,0-11.92-.99-17.88Zm-5.2,18.73c0,.48-.36,1.02-.79,1.21l-2.97,1.35c-.44.17-.96.67-1.14,1.11l-.17.4c-.18.44-.17,1.15.04,1.58l1.17,2.92c.18.44.06,1.07-.29,1.4l-1.35,1.32c-.34.33-.98.47-1.43.3l-3.06-1.11c-.44-.19-1.16-.19-1.6-.01l-.43.18c-.44.18-.94.69-1.1,1.14l-1.28,2.88c-.19.44-.73.8-1.21.8h-1.92c-.48,0-1.03-.35-1.23-.79l-1.36-2.88c-.18-.44-.68-.95-1.13-1.13l-.43-.18c-.44-.18-1.16-.16-1.59.03l-3,1.16c-.44.18-1.08.05-1.42-.28l-1.35-1.32c-.34-.33-.48-.97-.3-1.41l1.12-2.98c.19-.44.2-1.15.01-1.59l-.17-.39c-.19-.44-.7-.93-1.15-1.09l-2.96-1.26c-.44-.18-.8-.72-.8-1.2v-1.85c0-.48.36-1.02.79-1.21l2.97-1.34c.44-.17.96-.67,1.14-1.11l.17-.4c.18-.44.17-1.15-.04-1.58l-1.17-2.92c-.18-.44-.05-1.07.29-1.41l1.35-1.32c.34-.33.98-.47,1.43-.3l3.07,1.1c.44.19,1.16.19,1.6.01l.42-.17c.44-.18.94-.69,1.1-1.14l1.28-2.88c.19-.44.73-.8,1.21-.8h1.92c.48,0,1.03.35,1.23.79l1.36,2.88c.18.44.68.95,1.13,1.13l.43.17c.44.18,1.16.16,1.59-.04l3-1.16c.44-.18,1.08-.05,1.42.28l1.35,1.32c.34.33.48.97.31,1.41l-1.12,2.98c-.19.44-.2,1.15-.02,1.59l.17.4c.18.44.7.93,1.15,1.09l2.96,1.26c.44.18.8.72.8,1.19v1.84Z"/></g></svg>