<?xml version="1.0" encoding="UTF-8"?><svg id="Laag_1" xmlns="http://www.w3.org/2000/svg" xmlns:xlink="http://www.w3.org/1999/xlink" viewBox="0 0 64 64"><defs><style>.cls-1{fill:none;}.cls-2{clip-path:url(#clippath);}.cls-3{clip-path:url(#clippath-1);}</style><clipPath id="clippath"><rect class="cls-1" width="64" height="64"/></clipPath><clipPath id="clippath-1"><rect class="cls-1" width="64" height="64"/></clipPath></defs><g class="cls-2"><g class="cls-3"><path d="M30,16h-9v9h9v-9Zm-4.5,7c-1.38,0-2.5-1.12-2.5-2.5s1.12-2.5,2.5-2.5,2.5,1.12,2.5,2.5-1.12,2.5-2.5,2.5"/><path d="M30,27h-9v9h9v-9Zm-4.5,7c-1.38,0-2.5-1.12-2.5-2.5s1.12-2.5,2.5-2.5,2.5,1.12,2.5,2.5-1.12,2.5-2.5,2.5"/><rect x="32" y="30" width="12" height="3"/><path d="M50,57c1.1,0,2-.9,2-2v-4.61l-6.61,6.61h4.61Z"/><path d="M17,52V12h16.71l.93-3.13c.11-.34,.36-.23,.36-.23v14.37c0,.55,.45,1,1,1h14.37s.12,.25-.22,.36l-3.15,.93v10.05l5-5v-6.51c0-.53-.21-1.04-.59-1.41l-14.83-14.83c-.38-.38-.88-.59-1.42-.59H14c-1.1,0-2,.9-2,2V55c0,1.1,.9,2,2,2H30.15l1.58-5h-14.73Z"/><polygon points="32 44 38.34 44 41.34 41 32 41 32 44"/><path d="M59.09,33.27c-1.91-1.91-4.28-2.63-5.3-1.62l-19.48,19.48-2.85,8.99c-.15,.47,.29,.91,.76,.77l9-2.85,19.48-19.48c1.01-1.01,.29-3.39-1.62-5.3m-23.84,24.57l-.73-.73,1.42-4.5,.92,.52,.72,1.66,1.57,.68,.59,.96-4.49,1.42Z"/><path d="M21,47h9v-9h-9v9Zm1.57-5.99c.35-.29,.85-.29,1.2,0l1.12,.97,2.16-2.42c.32-.36,.85-.41,1.24-.13,.39,.29,.49,.81,.24,1.22l-2.77,4.55c-.17,.27-.47,.44-.79,.44-.32,0-.63-.17-.79-.45l-1.81-3.03c-.23-.39-.15-.89,.2-1.18"/></g></g></svg>