<?xml version="1.0" encoding="UTF-8"?><svg id="Laag_1" xmlns="http://www.w3.org/2000/svg" xmlns:xlink="http://www.w3.org/1999/xlink" viewBox="0 0 64 64"><defs><style>.cls-1{fill:none;}.cls-2{clip-path:url(#clippath);}.cls-3{clip-path:url(#clippath-1);}</style><clipPath id="clippath"><rect class="cls-1" width="64" height="64"/></clipPath><clipPath id="clippath-1"><rect class="cls-1" width="64" height="64"/></clipPath></defs><g class="cls-2"><g class="cls-3"><path d="M20.66,6.75c-.42-.56-1.07-.89-1.77-.91-.7-.02-1.37,.28-1.82,.82L6.96,18.67c-.72,.86-.72,2.11,0,2.96,.72,.85,1.96,1.07,2.92,.49l5.17-3.04,.02,36.61c0,1.91,1.55,2.3,3.46,2.3s3.46-.39,3.46-2.3V19.22l5.06,3.35c.94,.62,2.18,.47,2.94-.34,.77-.82,.83-2.07,.15-2.96L20.66,6.75Z"/><rect x="38" y="10" width="20" height="8"/><rect x="42" y="22" width="16" height="8"/><rect x="46" y="34" width="12" height="8"/><rect x="50" y="46" width="8" height="8"/></g></g></svg>