<?xml version="1.0" encoding="UTF-8"?><svg id="Laag_1" xmlns="http://www.w3.org/2000/svg" xmlns:xlink="http://www.w3.org/1999/xlink" viewBox="0 0 64 64"><defs><style>.cls-1{fill:none;}.cls-2{clip-path:url(#clippath);}.cls-3{clip-path:url(#clippath-1);}</style><clipPath id="clippath"><rect class="cls-1" width="64" height="64"/></clipPath><clipPath id="clippath-1"><rect class="cls-1" width="64" height="64"/></clipPath></defs><g class="cls-2"><g class="cls-3"><path d="M15.91,44.01c-.1-1.04-.04-1.99,.19-2.84-1.95,.87-3.75,1.88-4.72,2.94-2.87,3.12-4.39,14.89-4.39,14.89h7.86c-.6-1-4.31-11.55,1.05-14.99"/><path d="M44.5,48.5c-1.11,0-2,.9-2,2s.89,2,2,2,2-.89,2-2-.9-2-2-2"/><path d="M52.61,44.11c-1.05-1.15-3.07-2.23-5.19-3.15,.53,1.64,.43,3.57-.3,5.76,1.19,.83,1.98,2.21,1.98,3.77,0,2.54-2.06,4.6-4.6,4.6-1.74,0-3.24-.97-4.02-2.4-.41-.75-.59-1.71-.56-1.91,.75-.33,1.41-1.08,1.71-1.96,.23-.68,.25-1.42,.19-2.06,.76-.54,1.67-.87,2.68-.87,.09,0,.17,.02,.25,.03,.64-1.94,.68-3.52,.08-4.72-.8-1.6-2.58-2.21-3.58-2.44v-.02h-.03c-.15-1.13-.36-2.42-.55-3.49,1.79-2.17,2.89-4.4,3.25-6.7,1.33-1.22,2.07-3.17,2.07-5.56,0-.74,0-2.7-1.23-4.04,.3-3.34,.51-8.5-.79-10.59-1.6-2.56-3.55-3.82-7.26-2.98-2.44-1.16-4.09-1.88-8.36-.84-2.97,.72-6.21,1.91-7.92,3.88-1.65,1.91-1.54,7.22-1.27,10.6-1.16,1.33-1.16,3.23-1.16,3.96,0,2.39,.74,4.33,2.06,5.55,.38,2.51,1.61,4.91,3.71,7.26-.11,.81-.23,1.75-.35,2.73-.55,.16-1.32,.4-2.21,.69-1.93,.68-2.86,1.93-2.86,3.88,1-.13,2,.02,2.95,.47,1.36,.63,2.51,1.77,3.46,3.06-.29,.82-.55,1.51-.7,1.76-.13,.21-.33,.51-.56,.87-.89-1.49-1.99-2.84-3.24-3.42-.85-.4-1.67-.38-2.57,.03-3.48,1.61-1.91,8.02-1.04,10.77,.51-.22,1.04-.38,1.45-.47,.4-.09,.71-.11,.97-.07-1.06,1.64-1.86,2.87-1.86,2.87v.02h2.37c1.54-2.38,5.23-8.07,6.17-9.53,.92-1.44,3.01-9.24,3.59-9.73,.21-.18,.54-.33,1-.46,.09-.57,.68-4.67,.62-9.64,0-.66,.12-1.7,.8-1.77,.77-.08,1.18,.82,1.3,1.59,.6,3.96,.47,8.51,.43,9.4,2.26-.13,4.6,.02,5.05,.35,.8,.6,2.54,4.22,2.27,5.22-.27,1-1.21,1.31-1.21,1.31,0,0,.47,1.47,.13,2.47-.33,1-1.53,1.07-1.53,1.07,0,0-.13,1.13-.27,1.93-.13,.8-.93,1.27-1.67,.47-.73-.8-.73-4.07-.73-4.07l-1.86,.26c-.8,4.33-3.49,5.46-3.49,5.46l-1.93,5.68h28.75s-1.51-11.77-4.39-14.89m-17.16-8.21c-.02-1.89-.23-4.16-.58-6.49-.37-2.48-1.76-3.41-3.03-3.41-2.07,.11-2.77,1.83-2.75,3.92,.04,3.53-.36,6.38-.55,7.96-.18,.1-.36,.21-.51,.34-.56,.48-.85,1.1-1.72,3.73-.12-.54-.16-1.08-.1-1.62,.24-1.91,.04-.55,.82-5.44-2.28-2.2-4.1-4.87-4.1-8.06-1.62-.5-2.04-2.55-2.04-3.82s.32-1.96,.77-2.17c.39-.19,.77-.05,1.01,.09,.14,.65,.25,1.14,.29,1.31,.21,.85,1.02,.77,1.02,.77v-6.74c2.07-.15,6.19-.75,10.75-3.11l5.25,3.53v6.32s.82,.08,1.02-.77c.04-.17,.15-.66,.29-1.31,.24-.14,.62-.27,1.01-.09,.45,.21,.77,.9,.77,2.17s-.42,3.31-2.04,3.82c0,3.88-3.4,7.59-5.61,9.08"/></g></g></svg>