<?xml version="1.0" encoding="UTF-8"?><svg id="Laag_1" xmlns="http://www.w3.org/2000/svg" xmlns:xlink="http://www.w3.org/1999/xlink" viewBox="0 0 64 64"><defs><style>.cls-1{fill:none;}.cls-2{clip-path:url(#clippath);}.cls-3{clip-path:url(#clippath-1);}</style><clipPath id="clippath"><rect class="cls-1" width="64" height="64"/></clipPath><clipPath id="clippath-1"><rect class="cls-1" width="64" height="64"/></clipPath></defs><g class="cls-2"><g class="cls-3"><path d="M61.05,34.09l-1.16,.02c.76-4.29-1.2-7.16-1.3-7.3l-.82,.58-.82,.58s1.55,2.27,.98,5.7l-1.16-.58c-.25-.13-.52,.13-.41,.39l1.5,3.32c.11,.24,.42,.32,.63,.14l2.75-2.33c.22-.18,.08-.53-.2-.53m-12.05-22.09H15c-1.66,0-3,1.34-3,3V49c0,1.66,1.34,3,3,3H49c1.66,0,3-1.34,3-3V15c0-1.66-1.34-3-3-3m-17,3.8c2.97,0,5.74,.81,8.12,2.2H23.88c2.39-1.39,5.16-2.2,8.12-2.2m16.92,17.58c-.27,.05-.53,.1-.8,.15-.08,.85-.24,1.66-.44,2.46H16.32c-.21-.81-.37-1.64-.45-2.5-.2-.04-.4-.08-.61-.12-.32-.06-.28-.3-.25-.38H49.17c.04,.09,.08,.32-.24,.38m0,6c-.95,.19-1.89,.36-2.79,.52-.42,.75-.91,1.44-1.43,2.1H19.3c-.54-.67-1.03-1.38-1.46-2.14-.83-.15-1.7-.31-2.57-.48-.32-.06-.28-.3-.25-.38H49.17c.04,.09,.08,.32-.24,.38m0-12c-.45,.09-.89,.17-1.33,.25,.22,.77,.37,1.56,.48,2.36H15.94c.1-.82,.26-1.62,.48-2.4-.38-.07-.76-.15-1.15-.22-.32-.06-.28-.3-.25-.38H49.17c.04,.09,.08,.32-.24,.38m0-6c-1.42,.28-2.83,.53-4.09,.75,.45,.59,.86,1.22,1.23,1.87H17.94c.38-.66,.79-1.3,1.25-1.9-1.22-.21-2.56-.45-3.93-.72-.32-.06-.28-.3-.25-.38H49.17c.04,.09,.08,.32-.24,.38M15,13.5c.83,0,1.5,.67,1.5,1.5s-.67,1.5-1.5,1.5-1.5-.67-1.5-1.5,.67-1.5,1.5-1.5m0,37c-.83,0-1.5-.67-1.5-1.5s.67-1.5,1.5-1.5,1.5,.67,1.5,1.5-.67,1.5-1.5,1.5m17-2.3c-2.78,0-5.39-.7-7.68-1.93-2.47-.22-6.07-.55-9.05-.88-.33-.04-.28-.3-.25-.38H49.17c.04,.09,.08,.35-.24,.38-3.06,.35-6.81,.69-9.29,.91-2.28,1.22-4.87,1.91-7.63,1.91m17,2.3c-.83,0-1.5-.67-1.5-1.5s.67-1.5,1.5-1.5,1.5,.67,1.5,1.5-.67,1.5-1.5,1.5m0-34c-.83,0-1.5-.67-1.5-1.5s.67-1.5,1.5-1.5,1.5,.67,1.5,1.5-.67,1.5-1.5,1.5"/></g></g></svg>