<?xml version="1.0" encoding="UTF-8"?><svg id="Laag_1" xmlns="http://www.w3.org/2000/svg" xmlns:xlink="http://www.w3.org/1999/xlink" viewBox="0 0 64 64"><defs><style>.cls-1{fill:none;}.cls-2{clip-path:url(#clippath);}.cls-3{clip-path:url(#clippath-1);}</style><clipPath id="clippath"><rect class="cls-1" width="64" height="64"/></clipPath><clipPath id="clippath-1"><rect class="cls-1" width="64" height="64"/></clipPath></defs><g class="cls-2"><g class="cls-3"><path d="M37.1,23.52l14.2-9.32s.87-.61,.97-.69c1.3-.99,.22-3.16,.22-3.16l-16.76,11.12s6.37-10.02,8.48-13.48c.3-.49,.51-.85,.61-1.03,.78-1.44-1.1-2.97-1.1-2.97l-12.62,20.24s-.67,1.02,.04,1.95c.55,.71,1.6,.53,1.6,.53l19.71-3.11s1.37-.21,1.57-.25c1.6-.36,1.91-2.81,1.91-2.81l-18.85,2.99Z"/><path d="M33.31,46.47c-1.2,4.3-4.14,6.9-8.09,7.13-3.84,.23-7.45-1.87-8.79-5.12-2.47-6,3.23-10.19,4.13-10.82-.91-2.28-2.02-3.5-3-4.15-1.37,.78-4.18,2.98-5.78,6.47-1.5,3.27-1.51,6.88-.05,10.43,2.15,5.22,7.82,8.62,13.8,8.26,6.16-.37,10.9-4.42,12.69-10.85,1.91-6.88,3.83-8.56,9.79-8.56v-5.09c-9.43,0-12.53,4.51-14.69,12.29"/><path d="M21.96,37.13s.68-.18,1.13-.59c.45-.41,5.29-6.96,5.29-6.96l-1.42-2.09s-2.62,1.29-3.4,1.65l-3.13-4.58s-4.42,2.34-6.1,3.37c-1.16,1.59-.13,3.02-.13,3.02l5.32-3.08,1.56,2.32c-1.38,.57-2.1,.87-2.5,1.09-.4,.22-.6,.73-.6,.73,1.32,.74,2.84,2.2,3.99,5.11"/><path d="M30.27,29.44l-.53,.39c-.44,.33-1.07,.23-1.4-.21l-1.64-2.22c-.33-.44-.23-1.07,.21-1.4l.53-.39c.44-.33,1.07-.23,1.4,.21l1.64,2.22c.33,.44,.23,1.07-.21,1.4"/></g></g></svg>