<?xml version="1.0" encoding="UTF-8"?><svg id="Laag_1" xmlns="http://www.w3.org/2000/svg" xmlns:xlink="http://www.w3.org/1999/xlink" viewBox="0 0 64 64"><defs><style>.cls-1{fill:none;}.cls-2{clip-path:url(#clippath);}.cls-3{clip-path:url(#clippath-1);}</style><clipPath id="clippath"><rect class="cls-1" width="64" height="64"/></clipPath><clipPath id="clippath-1"><rect class="cls-1" width="64" height="64"/></clipPath></defs><g class="cls-2"><g class="cls-3"><path d="M31.51,8.63c2.09,0,3.3-1.48,3.3-3.61,0-2.42-1.26-3.73-3.3-3.73-2.15,0-3.3,1.54-3.3,3.73,0,2.31,1.21,3.61,3.3,3.61"/><path d="M39,55v-10h-15v5H12v12H51v-7h-12Zm-6,3h-2v-6.18c-.75,0-1.26,.05-2,.18v-1.69c.98-.29,1.96-.51,2.88-.51h1.12v8.19Z"/><path d="M26,27.7v-8.72c0-1,0-2,.43-2.81,.22-.41,.52-.48,.58-.41v28.22c2.04,0,3.4-1.12,3.58-3.37,0,0,.43-13.46,.44-13.61,0-.15,.24-.34,.49-.34s.48,.19,.49,.34c0,.15,.44,13.61,.44,13.61,.17,2.25,1.44,3.37,3.48,3.37V15.77c.06-.07,.45,0,.67,.41,.43,.81,.43,1.81,.43,2.81v8.72c.97,0,2.61-.6,2.74-2.71,.25-4.07,.7-11.16-2.25-13.66-1.25-1.06-3.99-1.28-5.99-1.33-2,.05-4.74,.27-5.99,1.33-2.96,2.5-2.5,9.59-2.25,13.66,.13,2.12,1.76,2.71,2.73,2.71"/></g></g></svg>