<?xml version="1.0" encoding="UTF-8"?><svg id="Laag_1" xmlns="http://www.w3.org/2000/svg" xmlns:xlink="http://www.w3.org/1999/xlink" viewBox="0 0 64 64"><defs><style>.cls-1{fill:none;}.cls-2{clip-path:url(#clippath);}.cls-3{clip-path:url(#clippath-1);}</style><clipPath id="clippath"><rect class="cls-1" width="64" height="64"/></clipPath><clipPath id="clippath-1"><rect class="cls-1" width="64" height="64"/></clipPath></defs><g class="cls-2"><g class="cls-3"><path d="M55,10c-1.66,0-3,1.34-3,3,0,.88,.39,1.67,1,2.22v4.78H12v-4.78c.61-.55,1-1.34,1-2.22,0-1.66-1.34-3-3-3s-3,1.34-3,3c0,.88,.39,1.67,1,2.22V52c0,1.1,.9,1.5,2,1.5s2-.4,2-1.5v-3H53v3c0,1.1,.9,1.5,2,1.5s2-.4,2-1.5V15.22c.61-.55,1-1.34,1-2.22,0-1.66-1.34-3-3-3M17,40h-5v-16h5v16Zm9,0h-5v-16h5v16Zm9,0h-5v-16h5v16Zm9,0h-5v-16h5v16Zm9,6.32s-.28,.09-.36-.25c-.04-.14-.54-2.95-1.1-6.07h-3.54v-16h5v22.32Z"/></g></g></svg>