<?xml version="1.0" encoding="UTF-8"?><svg id="Laag_1" xmlns="http://www.w3.org/2000/svg" xmlns:xlink="http://www.w3.org/1999/xlink" viewBox="0 0 64 64"><defs><style>.cls-1{fill:none;}.cls-2{clip-path:url(#clippath);}.cls-3{clip-path:url(#clippath-1);}</style><clipPath id="clippath"><rect class="cls-1" width="64" height="64"/></clipPath><clipPath id="clippath-1"><rect class="cls-1" width="64" height="64"/></clipPath></defs><g class="cls-2"><g class="cls-3"><path d="M52.93,35.85l-17.22-7.74c-.58-.26-1.2-.46-1.86-.6v-1.97c0-.52,.36-1.02,.93-1.3,2.66-1.3,4.06-4.23,3.39-7.15-.53-2.32-2.38-4.16-4.7-4.69-.48-.11-.97-.17-1.46-.17-1.43,0-2.84,.49-3.95,1.38-1.52,1.21-2.39,3.01-2.39,4.94,0,1.02,.83,1.84,1.85,1.84s1.85-.83,1.85-1.84c0-.81,.36-1.56,1-2.06,.47-.38,1.04-.57,1.64-.57,.21,0,.43,.03,.65,.07,.94,.21,1.71,.98,1.92,1.92,.28,1.23-.3,2.47-1.41,3.01-1.85,.9-3.01,2.67-3.01,4.62v1.97c-.66,.14-1.29,.33-1.87,.6l-17.22,7.74c-2.32,1.04-3.82,3.36-3.82,5.9,0,3.57,2.91,6.47,6.49,6.47H50.26c3.58,0,6.48-2.9,6.48-6.47,0-2.54-1.5-4.85-3.82-5.9m-2.67,8.68H13.74c-1.54,0-2.79-1.25-2.79-2.78,0-1.09,.65-2.09,1.64-2.53l17.22-7.74c.69-.31,1.43-.47,2.19-.47s1.5,.16,2.2,.47l17.22,7.74c1,.45,1.64,1.44,1.64,2.53,0,1.53-1.25,2.78-2.79,2.78"/></g></g></svg>