<?xml version="1.0" encoding="UTF-8"?><svg id="Laag_1" xmlns="http://www.w3.org/2000/svg" xmlns:xlink="http://www.w3.org/1999/xlink" viewBox="0 0 64 64"><defs><style>.cls-1{fill:none;}.cls-2{clip-path:url(#clippath);}.cls-3{clip-path:url(#clippath-1);}</style><clipPath id="clippath"><rect class="cls-1" width="64" height="64"/></clipPath><clipPath id="clippath-1"><rect class="cls-1" width="64" height="64"/></clipPath></defs><g class="cls-2"><g class="cls-3"><path d="M44.69,34c-1.33,.49-3.23,1.27-4.44,1.98,2.2,.59,5.17,1.47,7.17,2.57h.02c1.77,.99,2.34,1.74,3.02,3.32,.43,1.01,.79,2.24,1.11,3.56l6.02-6.81c-.19-.78-.47-1.51-.88-1.94-.86-.89-3.68-2.05-5.41-2.69-.27-.1-.45-.35-.49-.63-.06-.35-.13-.87-.18-1.3,1.81-.07,3.3-.25,3.92-.48,.12-.05,.18-.16,.13-.27-.34-.73-1.22-3.12-1.33-4.36-.27-3.06-.26-8.55-4.54-7.17,0,0-2.72-1.7-4.93,1.15-1.55,2-1.17,4.65-1.24,6.12-.04,1.05-.92,3.47-1.29,4.1-.08,.13-.05,.27,.1,.32,.67,.24,2.17,.42,3.93,.53-.09,.81-.11,.86-.2,1.38-.05,.28-.22,.53-.49,.63"/><path d="M38.73,44.72c1.81-1.52,4.43-1.51,6.22,.05l4.09,3.54,.74-.84c-.51-2.64-1.19-5.06-2.06-6.02-1.75-1.92-8.67-3.51-12.09-4.38-1.19,4.77-3.31,10.91-6.61,15.23-.38-2.13-1.01-4.99-1.7-6.92,.93-1.43,2.19-3.65,2.19-3.65,0,0-1.07-1.74-3.5-1.74s-3.5,1.74-3.5,1.74c0,0,1.25,2.22,2.19,3.65-.68,1.91-1.31,4.75-1.69,6.88-3.17-4.34-5.28-10.5-6.5-15.26-3.37,.8-10.43,2.33-12.21,4.44-2.17,2.57-3.29,15.49-3.29,15.49H41.34l-3.65-6.08c-1.22-2.04-.78-4.62,1.03-6.14"/><path d="M14.06,26.49c.52,3.4,2.58,6.6,6.27,9.74,1.75,1.49,4.3,1.76,5.67,1.76s3.92-.27,5.67-1.76c3.63-3.09,5.73-6.36,6.26-9.74,1.33-1.22,2.07-3.17,2.07-5.56,0-.74,0-2.7-1.23-4.03,.3-3.34,.51-8.5-.79-10.59-1.6-2.57-3.55-3.82-7.26-2.98-2.44-1.16-4.09-1.88-8.36-.84-2.97,.72-6.21,1.91-7.92,3.88-1.65,1.91-1.54,7.22-1.27,10.61-1.16,1.33-1.16,3.22-1.16,3.95,0,2.39,.74,4.33,2.06,5.55m1.61-7.73c.14-.06,.27-.09,.4-.09,.24,0,.46,.09,.61,.18,.14,.65,.25,1.14,.29,1.31,.21,.85,1.02,.77,1.02,.77v-6.74c2.07-.15,6.19-.75,10.75-3.11l5.25,3.53v6.33s.82,.08,1.02-.77c.04-.17,.15-.66,.29-1.31,.16-.09,.37-.18,.61-.18,.13,0,.26,.03,.4,.09,.45,.21,.77,.9,.77,2.17s-.42,3.31-2.04,3.82c0,3.82-2.68,6.92-5.34,9.19-.78,.66-2.25,1.13-3.72,1.13s-2.94-.46-3.72-1.13c-2.66-2.26-5.34-5.32-5.34-9.19-1.62-.5-2.04-2.54-2.04-3.82s.32-1.96,.77-2.17"/><path d="M62.27,40.35c-.75-.55-1.79-.45-2.41,.25l-10.54,11.92-6.33-5.48c-.67-.58-1.66-.59-2.33-.02-.68,.57-.84,1.54-.39,2.3l7.67,12.8c.32,.54,.91,.87,1.54,.87h0c.63,0,1.21-.33,1.54-.86l11.72-19.4c.48-.8,.28-1.83-.46-2.38"/></g></g></svg>