<?xml version="1.0" encoding="UTF-8"?><svg id="Laag_1" xmlns="http://www.w3.org/2000/svg" xmlns:xlink="http://www.w3.org/1999/xlink" viewBox="0 0 64 64"><defs><style>.cls-1{fill:none;}.cls-2{clip-path:url(#clippath);}.cls-3{clip-path:url(#clippath-1);}</style><clipPath id="clippath"><rect class="cls-1" width="64" height="64"/></clipPath><clipPath id="clippath-1"><rect class="cls-1" width="64" height="64"/></clipPath></defs><g class="cls-2"><g class="cls-3"><path d="M2,36v8c0,1.1,.9,2,2,2H53v-3H20v-6H53v-3H4c-1.1,0-2,.9-2,2"/><path d="M58.19,26.03c.76-2.17,3.51-2.24,4.34-5,.7-2.33-.6-4.47-2.77-5.55,0,0,.9,1.81,.38,3.53-.79,2.64-3.8,2.88-4.74,5.54-.93,2.62,.48,5.18,3.77,5.92,0,0-1.69-2.42-.99-4.43"/><path d="M55.53,16.43c.76-2.17,3.51-2.24,4.34-5,.7-2.33-.6-4.47-2.77-5.55,0,0,.9,1.81,.38,3.53-.79,2.64-3.8,2.88-4.74,5.54-.93,2.62,.48,5.18,3.77,5.92,0,0-1.69-2.42-.99-4.43"/><rect x="55" y="34" width="3" height="12"/><path d="M62,34h-2v12h2c.55,0,1-.45,1-1v-10c0-.55-.45-1-1-1"/></g></g></svg>