<?xml version="1.0" encoding="UTF-8"?><svg id="Laag_1" xmlns="http://www.w3.org/2000/svg" xmlns:xlink="http://www.w3.org/1999/xlink" viewBox="0 0 64 64"><defs><style>.cls-1{fill:none;}.cls-2{clip-path:url(#clippath);}.cls-3{clip-path:url(#clippath-1);}</style><clipPath id="clippath"><rect class="cls-1" width="64" height="64"/></clipPath><clipPath id="clippath-1"><rect class="cls-1" width="64" height="64"/></clipPath></defs><g class="cls-2"><g class="cls-3"><path d="M49,4h-16.96c-1.8,0-3.46,.97-4.35,2.54l-4.85,8.57-2.79-4.13c-.31-.46-.93-.58-1.39-.27l-8.14,5.5c-.46,.31-.58,.93-.27,1.39l2.1,3.11,4.77-2.01c.32-.09,.4,.1,.41,.16l-6.21,4.23c-.83,.56-1.32,1.49-1.32,2.49v30.42c0,1.66,1.34,3,3,3H51c1.66,0,3-1.34,3-3V9c0-2.76-2.24-5-5-5M27.77,42.83c-1.23,2.69-1.51,4.59-1.77,6.07-.18,.99-1.07,1.25-2.06,1.07-.99-.18-1.69-.72-1.51-1.71,1.3-7.27,6.19-11.94,10.38-15.36-.06-.09-.21-.24-.61-.07-2.45,1.06-6,3-9.37,6.14-1.66-2.79-1.24-6.27,.71-8.49,5.51-6.28,9.77,.65,20.87-7.29,.3-.21,.73-.06,.79,.3,2.19,11.74-8.23,23.34-17.44,19.35M48,14H30.36l2.26-4h15.38v4Z"/></g></g></svg>