<?xml version="1.0" encoding="UTF-8"?><svg id="Laag_1" xmlns="http://www.w3.org/2000/svg" xmlns:xlink="http://www.w3.org/1999/xlink" viewBox="0 0 64 64"><defs><style>.cls-1{fill:none;}.cls-2{clip-path:url(#clippath);}.cls-3{clip-path:url(#clippath-1);}</style><clipPath id="clippath"><rect class="cls-1" width="64" height="64"/></clipPath><clipPath id="clippath-1"><rect class="cls-1" width="64" height="64"/></clipPath></defs><g class="cls-2"><g class="cls-3"><path d="M61.22,30.21L32.81,3.32c-.46-.43-1.17-.43-1.62,0L2.77,30.21c-.49,.46-.78,1.11-.78,1.78v1.8c0,.67,.54,1.21,1.2,1.21H8v25H56v-25h4.8c.66,0,1.2-.54,1.2-1.21v-1.8c0-.68-.28-1.33-.78-1.78m-13.86,9.09l-2.37,1.2v6.54c0,2.64-2.08,4.49-4.26,4.2-2.17-.28-7.64-1.49-7.64-1.49-.02,.03-.08,.16,.12,.27l3.72,1.92,.09,4.06h-15.1s1.4-5.72,1.28-7.62c-.28-4.34-4.12-10.09-5.46-14.15-1.15-3.49-1.9-10.45,4.96-14.18,6.5-3.53,15.23-3.37,17.68-1.8,2.15,1.38,2.85,3.82,1.42,6.55,0,0,1.32,2.89,1.77,5.49,.09,.52-.14,1.65,0,2.26l4.19,4.83c.42,.64,.24,1.51-.41,1.92"/><path d="M38.62,23.46c-.75-.48-1.86-.34-2.45-.7-.6-.37-1.35-1.47-2.51-1.52-1.29-.06-2.41,.98-3.37,1-.95,.01-2.02-.4-3.5,.15-1.11,.41-1.39,1.75-2.02,2.07-.64,.32-1.33,.24-2.19,.68-.82,.42-1.41,1.01-1.58,1.97-.11,.66,0,1.87-.22,2.24-.71,1.18-.99,1.9-.52,3.44,.31,1.01,1.14,1.56,1.67,1.82,.3,.15,.53,.4,.63,.72,.47,1.41,1.17,2.37,3.07,2.28,0,0-.12,1.2-.05,2.26h2.17c.33-3.39,1.06-4.94,5.13-5.46,4.72-.6,7.01-1.13,7.77-2.63,.9-1.76-.16-3.2-.61-4.1-.47-.94,.83-2.8-1.41-4.22"/></g></g></svg>