<?xml version="1.0" encoding="UTF-8"?><svg id="Laag_1" xmlns="http://www.w3.org/2000/svg" xmlns:xlink="http://www.w3.org/1999/xlink" viewBox="0 0 64 64"><defs><style>.cls-1{fill:none;}.cls-2{clip-path:url(#clippath);}.cls-3{clip-path:url(#clippath-1);}</style><clipPath id="clippath"><rect class="cls-1" width="64" height="64"/></clipPath><clipPath id="clippath-1"><rect class="cls-1" width="64" height="64"/></clipPath></defs><g class="cls-2"><g class="cls-3"><path d="M28.5,15.76c2.22,0,3.5-1.56,3.5-3.81,0-2.56-1.34-3.93-3.5-3.93-2.27,0-3.5,1.62-3.5,3.93,0,2.44,1.28,3.81,3.5,3.81"/><path d="M34.09,35.56c.98,0,2.76-.57,2.76-2.85,0-6.32,.31-14.01-4.31-15.11-2.42-.58-5.67-.58-8.02,0-4.62,1.13-4.41,8.79-4.41,15.11,0,2.21,1.78,2.85,2.76,2.85v-5.86c0-2.7,.54-5.61,.85-6.58,.09-.3,.3-.24,.3-.24v30.12s3.33,.03,3.6-3.67c0,0,.53-13.97,.53-14.13,0-.16,.12-.36,.38-.36s.37,.2,.38,.36c0,.16,.53,14.03,.53,14.03,.21,3.8,3.56,3.77,3.56,3.77V22.88s.22-.08,.33,.24c.29,.87,.77,3.8,.77,6.55v5.89Z"/><path d="M9.5,15.76c2.22,0,3.5-1.56,3.5-3.81,0-2.56-1.34-3.93-3.5-3.93-2.27,0-3.5,1.62-3.5,3.93,0,2.44,1.28,3.81,3.5,3.81"/><path d="M13.54,17.6c-2.42-.58-5.67-.58-8.02,0C.9,18.74,1.1,26.39,1.1,32.71c0,2.21,1.78,2.85,2.76,2.85v-5.86c0-2.7,.54-5.61,.85-6.58,.09-.3,.3-.24,.3-.24v30.12s3.33,.03,3.6-3.67c0,0,.53-13.97,.53-14.13,0-.16,.12-.36,.38-.36s.37,.2,.38,.36c0,.16,.53,14.03,.53,14.03,.21,3.8,3.56,3.77,3.56,3.77V22.88s.22-.08,.33,.24c.3,.87,.77,3.8,.77,6.55v5.89c.98,0,2.76-.57,2.76-2.85,0-6.32,.31-14.01-4.31-15.11"/><path d="M53.53,34.26c-.55,0-1.08,.07-1.6,.16-.48-2.1-.97-4.25-.97-4.25h0l-1.61-8.07c-.16-.81-.94-1.36-1.76-1.24l-4.47,.68c-.58,.09-1.03,.59-1.03,1.2,0,.67,.54,1.21,1.21,1.21h3.24l.89,4.45-8.38,1.62c0,.53,0,1.06,0,1.57v1.61l5.16-1-8.32,9.09h-.87v6.2l.15,.02c2.2,.26,3.54-1.44,3.54-3.09,0-.45-.1-.88-.27-1.27l9.85-10.78c.22,.89,.51,1.95,.86,3,1.88,5.78,4.21,8.52,4.52,8.89,.32,.38,.91,.13,.84-.28-.08-.48-.94-2.68-1.88-6.64,.3-.05,.61-.08,.92-.08,3.52,0,6.37,2.85,6.37,6.37s-2.85,6.37-6.37,6.37-6.37-2.85-6.37-6.37c0-1.53,.55-2.93,1.45-4.03-.4-.91-.8-1.93-1.18-3.05-1.99,1.72-3.27,4.24-3.27,7.08,0,5.17,4.2,9.37,9.37,9.37s9.37-4.19,9.37-9.37-4.19-9.37-9.37-9.37"/></g></g></svg>