<?xml version="1.0" encoding="UTF-8"?><svg id="Laag_1" xmlns="http://www.w3.org/2000/svg" viewBox="0 0 64 64"><defs><style>.cls-1{fill:none;}</style></defs><rect class="cls-1" width="64" height="64"/><path d="m32,20c1.82,0,2.87-1.28,2.87-3.13,0-2.1-1.1-3.23-2.87-3.23-1.87,0-2.87,1.33-2.87,3.23,0,2,1.05,3.13,2.87,3.13Zm30.76,17.63l-3.87-5.95c-.28-.43-.75-.68-1.26-.68h-.91l-.67-2.01c.3-.02.58-.16.76-.41.19-.26.24-.6.14-.9l-.9-2.69c.3-.02.58-.16.76-.41.19-.26.24-.6.14-.9l-2-6c-.14-.41-.52-.68-.95-.68h-7c-.43,0-.81.28-.95.68l-2,6c-.1.31-.05.64.14.9.18.25.46.39.76.41l-.9,2.69c-.1.31-.05.64.14.9.18.25.46.39.76.41l-.67,2.01h-17.28c-.04-.14-.09-.27-.19-.38l-4.13-5c-.18-.22-.44-.35-.72-.36-.29-.01-.55.09-.75.28-.77.74-1.63,1.39-2.49,1.95-.46-1.63-.88-3.71-.82-5.75,0-.28-.1-.55-.3-.75-.2-.2-.47-.29-.75-.29l-6.48.32c-.52.03-.93.45-.95.97,0,.12-.04,1.56.18,3.43l-5.27,3.08c-.45.26-.62.83-.4,1.3.04.08.43.89,1.11,1.98l-3.81,5.85c-.16.24-.24.53-.24.82v.56c0,.55.45,1,1,1h3v9.5c0,1.1.9,1.5,2,1.5s2-.4,2-1.5v-7.5h46v7.5c0,1.1.9,1.5,2,1.5s2-.4,2-1.5v-9.5h3c.55,0,1-.45,1-1v-.56c0-.29-.08-.57-.24-.82ZM15.91,22.75c.1,2.95.97,5.76,1.56,7.36l-4.46.22c-1.27-2.42-1.53-5.76-1.57-7.36l4.47-.22Zm-4.94,12.79c-2.24-1.56-4.01-4.41-4.79-5.8l3.79-2.21c.32,1.49.82,3.05,1.63,4.35.18.29.5.47.85.47.02,0,.03,0,.05,0l.9-.04,1.01,1.22-3.43,2.01Zm7.19-.6l-2.27-2.75,3.08-.15c.33-.02.63-.2.81-.48.17-.28.19-.63.05-.94,0-.01-.2-.45-.47-1.17.82-.51,1.66-1.09,2.44-1.76l2.85,3.46c-1.21,1.04-3.85,3.09-6.5,3.79Zm28.23.06l.67-2h6.89l.67,2h-8.23Zm7.95-4h-7.95l.67-2h6.89l.67,2h-.28Zm-7.95-4l.67-2h6.89l.67,2h-8.23Zm0-4l1.33-4h5.56l1.33,4h-8.23Zm-10.39,6l-.03-3.26c1.17.42,2.97.93,3.62.83,1.07-.16,3.91-6.73,3.91-6.73h0c-.94-.42-2.04-.12-2.64.72l-1.98,2.79s-1.17-.68-2.37-1.21c-.03-.01-1.23-.6-2.87-.83-1.42-.2-3.04-.13-4.29.2-1.98.52-2.59,2.87-2.77,5.68l1.49,1.81h7.93Z"/></svg>