<?xml version="1.0" encoding="UTF-8"?><svg id="Laag_1" xmlns="http://www.w3.org/2000/svg" viewBox="0 0 64 64"><defs><style>.cls-1{fill:none;}</style></defs><rect class="cls-1" width="64" height="64"/><path d="m59.97,42.73c-2.18-4.33-4.31-8.49-8.05-11.83-2.75-2.1-6.16-2.81-9.6-3.01,1.44-.56,2.85-1.23,4.23-2.15,1.98-1.48,2.67-3.88,3.67-5.79.37-.81.98-1.22,1.81-1.62,1.76-.86,3.85-1.43,5.86-1.91.93-.22.67-1.63-.27-1.52-2.18.25-4.3.61-6.47,1.4-1.15.4-2.39,1.18-3.06,2.3-1.19,1.67-1.78,3.62-3.34,4.73-1.66,1.03-3.68,1.78-5.67,2.46,1.53-1.36,2.84-2.94,3.83-4.79,2.36-5,1.83-10.67,1.54-15.99-.08-.94-1.5-.9-1.54.03-.1,2.04-.25,4.1-.51,6.12-.66,6.46-2.33,10.53-7.7,14.19-.01,0-.02-.01-.03-.02.48-.74,1.06-1.73,1.12-2.31.08-.81-.31-4.54-2.09-5.97-.47-.38-1.15-.44-1.81-.43-.66-.01-1.34.06-1.82.43-1.79,1.43-2.18,5.16-2.09,5.97.05.53.53,1.38.98,2.09-1.3-.94-2.57-2.07-3.62-3.28-3.92-4.53-3.75-11.08-4.26-16.78-.01-.38-.31-.71-.7-.75-.43-.04-.8.27-.84.7-.2,2.11-.25,4.19-.24,6.31-.13,6.15,1.41,10.75,5.54,14.45-1.05-.37-2.08-.76-3.08-1.17-.91-.38-1.9-.82-2.52-1.27-1.77-1.27-2.38-3.73-3.9-5.47-.69-.79-1.62-1.21-2.49-1.56-2.17-.79-4.28-1.15-6.47-1.4-.38-.04-.75.2-.84.59-.1.42.16.83.57.93,2.52.72,5.44,1.17,7.32,2.96,1.29,2.05,1.81,4.73,4.01,6.36,1.38.91,2.79,1.58,4.22,2.15-2.72.18-5.4.7-7.9,1.89-4.79,2.86-7.27,8.25-9.73,12.95-.41.86.86,1.54,1.36.74,2.41-3.61,5.17-7.59,8.51-10.24,1.18-.84,2.59-1.37,4.1-1.72-6.38,5.79-7.33,15.95-5.67,24.1.19.94,1.62.72,1.53-.23-.42-4.66-.13-10.41,2.05-15.47,1.03-2.6,1.97-3.77,2.32-4.27,2.66-3.67,4.37-4.78,4.93-5.11.51-.3.52-.03.52-.03,0,0-2.31,2.44-4.07,6.44-1.01,2.45-1.71,5.12-1.89,7.89-.69,10.88,7.46,14.88,14.17,14.88s14.86-4,14.17-14.88c-.31-4.85-2.2-9.41-4.62-12.97-.66-.88-1.12-1.36-1.12-1.36,0,0,0-.27.52.03.56.34,2.27,1.44,4.93,5.11.39.54,1.46,1.87,2.59,4.97.83,2.09,2.48,7.25,1.78,14.73-.05.4.21.78.61.86.42.09.83-.18.91-.6.51-2.45.7-4.89.7-7.37.18-6.06-1.96-12.48-6.35-16.71,1.54.34,2.98.85,4.08,1.71,3.34,2.65,6.1,6.64,8.51,10.24.5.81,1.76.12,1.36-.74Z"/></svg>