<?xml version="1.0" encoding="UTF-8"?><svg id="Laag_1" xmlns="http://www.w3.org/2000/svg" xmlns:xlink="http://www.w3.org/1999/xlink" viewBox="0 0 64 64"><defs><style>.cls-1{fill:none;}.cls-2{clip-path:url(#clippath);}.cls-3{clip-path:url(#clippath-1);}</style><clipPath id="clippath"><rect class="cls-1" width="64" height="64"/></clipPath><clipPath id="clippath-1"><rect class="cls-1" width="64" height="64"/></clipPath></defs><g class="cls-2"><g class="cls-3"><path d="M32,8c-13.25,0-24,10.75-24,24s10.75,24,24,24,24-10.74,24-24S45.25,8,32,8m8,18.76c1.79,0,3.24,1.45,3.24,3.24s-1.45,3.24-3.24,3.24-3.24-1.45-3.24-3.24,1.45-3.24,3.24-3.24m-16,0c1.79,0,3.24,1.45,3.24,3.24s-1.45,3.24-3.24,3.24-3.24-1.45-3.24-3.24,1.45-3.24,3.24-3.24m20.19,13.29c-1.93,4-6.66,8.07-12.19,8.07s-10.26-4.07-12.19-8.07c-.23-.47,.32-.95,.75-.66,2.93,1.98,6.97,3.58,11.44,3.58s8.52-1.6,11.44-3.58c.43-.29,.97,.19,.75,.66"/></g></g></svg>