<?xml version="1.0" encoding="UTF-8"?><svg id="Laag_1" xmlns="http://www.w3.org/2000/svg" xmlns:xlink="http://www.w3.org/1999/xlink" viewBox="0 0 64 64"><defs><style>.cls-1{fill:none;}.cls-2{clip-path:url(#clippath);}.cls-3{clip-path:url(#clippath-1);}</style><clipPath id="clippath"><rect class="cls-1" width="64" height="64"/></clipPath><clipPath id="clippath-1"><rect class="cls-1" width="64" height="64"/></clipPath></defs><g class="cls-2"><g class="cls-3"><path d="M31,47.78l7.32-7.32c-.28-1.16-.32-2.32-.18-3.47h-3.14v-6h6c.2-.21,.38-.44,.6-.66,1.35-1.35,2.84-2.31,4.4-2.89V6c0-1.1-.9-2-2-2H12c-1.1,0-2,.9-2,2V53h15v-9h6v3.78Zm4-36.78h6v6h-6v-6Zm0,10h6v6h-6v-6Zm-14,16h-6v-6h6v6Zm0-10h-6v-6h6v6Zm0-10h-6v-6h6v6Zm4-6h6v6h-6v-6Zm0,10h6v6h-6v-6Zm0,10h6v6h-6v-6Z"/><path d="M58.82,38.02c-.11-.46-.68-.62-1.03-.3-1.01,.95-2.01,1.85-2.57,2.25-.87,.63-2.36,1.86-3.43,.79l-3.16-3.16c-1.07-1.07,.08-2.68,.71-3.55,.42-.58,1.33-1.68,2.26-2.8,.29-.34,.13-.88-.3-1-2.63-.74-5.2,.1-7.43,2.34-3.52,3.52-3.6,7.86,.53,11.99,.37,.37,.74,.69,1.11,.99-.04,.14-.32,.15-.49,.09-.4-.13-2.12-.86-4.19-3.19l-11.73,11.73c-1.51,1.51-.63,3.3,.88,4.8,1.5,1.51,3.29,2.39,4.8,.88l12.91-12.91c3.07,1.45,6.11,.73,8.7-1.86,2.14-2.14,3.01-4.59,2.43-7.1m-25.96,19.7c-.88,0-1.59-.71-1.59-1.59s.71-1.59,1.59-1.59,1.59,.71,1.59,1.59-.71,1.59-1.59,1.59"/></g></g></svg>