<?xml version="1.0" encoding="UTF-8"?><svg id="Laag_1" xmlns="http://www.w3.org/2000/svg" xmlns:xlink="http://www.w3.org/1999/xlink" viewBox="0 0 64 64"><defs><style>.cls-1{fill:none;}.cls-2{clip-path:url(#clippath);}.cls-3{clip-path:url(#clippath-1);}</style><clipPath id="clippath"><rect class="cls-1" width="64" height="64"/></clipPath><clipPath id="clippath-1"><rect class="cls-1" width="64" height="64"/></clipPath></defs><g class="cls-2"><g class="cls-3"><path d="M39.77,19.79c-.44-.49-1.04-1.15-3.18-.01-2.51,1.34-6.8,4.89-10.24,6.35-3.58,1.51-5.95,.26-6.89-1.27-.97-1.57-1.01-4,1.76-6.12,2.99-2.29,4.75-4.25,6.31-5.98,.81-.9,1.58-1.76,2.44-2.58-6.59-4.61-15.62-4.02-21.3,1.8-5.75,5.89-6.01,15.05-1.13,21.61,.95,1.28,1.83,2.36,2.62,3.26,.61-.5-1.1,.7,7.99-5.54,2.09-1.43,4.98-.99,6.58,1.01,.71,.89,1.07,2,1.06,3.13,1.8-.53,3.84,.02,5.13,1.57,.89,1.07,1.34,2.44,1.04,4.05,1.37,.03,2.76,.56,3.7,1.72,.96,1.19,1.29,2.84,.97,4.22,1.49,.03,2.7,.65,3.56,1.68,.68,.81,1.03,1.77,1.1,2.74,.66,.06,1.34-.12,1.89-.56,1.1-.9,1.26-2.52,.36-3.66-.09-.11-10.48-13.17-10.72-13.47-.23-.29-.25-.69,.01-.94,.27-.26,.7-.23,.94,.04,.24,.26,11.53,12.2,11.53,12.2,1.06,1.12,2.81,1.2,3.93,.18,1.1-1.01,1.17-2.74,.17-3.89,0,0-10.9-12.47-11.15-12.75-.24-.28-.25-.69,.01-.94,.26-.25,.68-.23,.94,.03,.27,.27,11.96,11.79,11.96,11.79,1.08,1.06,2.79,1.09,3.86,.06,1-.97,1.2-2.48-.12-3.86-.58-.6-14.15-14.75-15.14-15.85"/><path d="M55.53,12.84c-4.76-5.52-12.98-6.92-18.13-4.81-7.24,2.97-7.28,6.67-14.83,12.45-1.64,1.25-1.72,2.4-1.22,3.22,.51,.83,1.9,1.36,4.16,.4,3.01-1.27,7.88-5.1,10.06-6.26,2.14-1.14,4.18-1.38,5.85,.49,.97,1.08,15.09,15.79,15.09,15.79,5.49-7.46,3.73-15.83-.97-21.28"/><path d="M23.01,33.69c-.89-1.11-2.47-1.36-3.62-.57l-7.63,5.24c-1.33,.92-1.61,2.77-.61,4.09,.97,1.28,2.78,1.55,4.03,.6l7.39-5.56c1.19-.89,1.38-2.61,.43-3.79"/><path d="M29.23,38.42h0c-.92-1.1-2.53-1.3-3.65-.46l-8.68,6.38c-1.29,.97-1.5,2.83-.46,4.11,1.02,1.24,2.83,1.45,4.06,.46l8.41-6.73c1.14-.92,1.28-2.61,.32-3.76"/><path d="M33.94,44.26c-.9-1.11-2.55-1.35-3.64-.47l-7.52,6.01c-1.22,.98-1.38,2.78-.37,4.02,1.05,1.28,2.93,1.45,4.14,.37l7.19-6.4c1-.89,1.07-2.47,.21-3.54"/><path d="M34.92,49.79l-5.52,4.8c-1.05,.92-1.12,2.54-.17,3.6,.96,1.07,2.59,1.18,3.63,.24l5.47-4.86c.99-.89,1.08-2.43,.2-3.48-.92-1.09-2.55-1.23-3.59-.31"/></g></g></svg>