<?xml version="1.0" encoding="UTF-8"?><svg id="Laag_1" xmlns="http://www.w3.org/2000/svg" xmlns:xlink="http://www.w3.org/1999/xlink" viewBox="0 0 64 64"><defs><style>.cls-1{fill:none;}.cls-2{clip-path:url(#clippath);}.cls-3{clip-path:url(#clippath-1);}</style><clipPath id="clippath"><rect class="cls-1" width="64" height="64"/></clipPath><clipPath id="clippath-1"><rect class="cls-1" width="64" height="64"/></clipPath></defs><g class="cls-2"><g class="cls-3"><path d="M14.61,33.58c.12-.48-.13-.99-.58-1.21l-3.19-1.56c1.66-1.31,4.96-3.17,10.01-2.8,5.04,.36,8.27,3.41,12.01,6.95,4.41,4.17,9.3,8.79,17.76,8.79,1.77,0,3.7-.2,5.81-.66,1.08-.23,1.25-1.28,1.02-2.36-.23-1.08-.78-1.78-1.86-1.55-10.15,2.17-14.93-2.35-19.99-7.13-3.94-3.72-8.01-7.57-14.47-8.03-6-.43-10.12,1.68-12.45,3.41v-3.62c0-.5-.36-.95-.84-1.05-.48-.1-.95,.16-1.1,.63l-2.63,8.26c-.19,.61,.22,1.28,.85,1.37l8.58,1.27c.49,.07,.93-.23,1.05-.71"/><path d="M8.95,14.59c10.34-5.05,15.98-.29,21.95,4.74,4.52,3.81,9.2,7.76,15.59,6.2,3.4-.83,5.85-3.1,7.41-5.04l1.11,3.47c.15,.48,.63,.79,1.12,.74,.49-.05,.85-.44,.85-.93l-.02-8.67c0-.64-.6-1.15-1.23-1.04l-8.56,1.41c-.49,.08-.82,.5-.78,.99,.03,.49,.42,.91,.92,.98l3.49,.51c-1.14,1.44-2.91,3.12-5.26,3.69-4.42,1.07-7.97-1.91-12.07-5.38-6.06-5.11-13.6-11.47-26.28-5.28-.99,.49-1.01,1.45-.53,2.44,.49,.99,1.29,1.63,2.28,1.15"/><path d="M55.59,48.48c-10.64,1.89-15.66-1.45-20.51-4.68-3.31-2.2-6.73-4.47-11.48-4.42-7.02,.08-11.55,5.1-13.56,7.93l-1.07-3.32c-.15-.48-.63-.79-1.12-.74-.49,.05-.85,.44-.85,.94l.03,8.67c0,.64,.6,1.15,1.23,1.04l8.55-1.42c.49-.08,.82-.51,.78-.99-.03-.49-.42-.91-.92-.98l-3.62-.52c1.4-2.09,5.04-6.54,10.59-6.6,3.55-.04,6.03,1.63,9.21,3.75,4.03,2.68,8.85,5.89,16.98,5.89,1.95,0,4.08-.18,6.44-.6,1.09-.19,1.14-1.25,.94-2.34-.19-1.09-.56-1.79-1.64-1.6"/></g></g></svg>