<?xml version="1.0" encoding="UTF-8"?><svg id="Laag_1" xmlns="http://www.w3.org/2000/svg" xmlns:xlink="http://www.w3.org/1999/xlink" viewBox="0 0 64 64"><defs><style>.cls-1{fill:none;}.cls-2{clip-path:url(#clippath);}.cls-3{clip-path:url(#clippath-1);}</style><clipPath id="clippath"><rect class="cls-1" width="64" height="64"/></clipPath><clipPath id="clippath-1"><rect class="cls-1" width="64" height="64"/></clipPath></defs><g class="cls-2"><path d="M24.25,50.35l-2.18,7.45h1.53l.41-1.6h2.52l.41,1.6h1.7l-2.17-7.45h-2.23Zm.06,4.67l.92-3.44h.08l.92,3.44h-1.92Z"/><polygon points="31.25 54.58 33.55 54.58 33.55 53.37 31.25 53.37 31.25 51.56 33.75 51.56 33.75 50.35 29.77 50.35 29.77 57.81 33.78 57.81 33.78 56.6 31.25 56.6 31.25 54.58"/><g class="cls-3"><path d="M37.55,50.35h-2.17v7.45h2.1c2.5,0,4.03-1.24,4.03-3.94,0-2.23-1.4-3.51-3.96-3.51m0,6.25h-.69v-5.04h.6c1.55,0,2.5,.83,2.5,2.38,0,1.9-.94,2.67-2.41,2.67"/><polygon points="34.73 27.64 30.38 27.64 28.21 34.03 31.25 34.03 31.26 39.5 36.6 31.84 33.38 31.84 34.73 27.64"/><path d="M51.41,8.34c-3.04-.54-10.24-1.6-19.41-1.6s-16.37,1.07-19.41,1.6c-.91,.16-1.58,.95-1.58,1.88V43.73c0,.93,.67,1.72,1.58,1.88,3.04,.54,10.24,1.61,19.41,1.61s16.37-1.07,19.41-1.61c.91-.16,1.58-.95,1.58-1.88V10.22c0-.93-.67-1.72-1.58-1.88m-18.95,33.39c-.29,.15-.63,.15-.92,0-10.89-5.7-11.2-15.95-6.55-18.02,4.71-2.09,7.01,2.41,7.01,2.41,0,0,2.3-4.5,7.01-2.41,4.65,2.07,4.34,12.31-6.56,18.02m16.72-23.5H14.82c-.41,0-.36-.36-.36-.36,1.22-.25,1.92-.38,2.55-.51v-3.63c3.48-.47,8.77-.99,14.99-.99s11.51,.52,14.99,.99v3.63c.63,.12,1.33,.26,2.55,.51,0,0,.05,.36-.36,.36"/></g></g></svg>