<?xml version="1.0" encoding="UTF-8"?><svg id="Laag_1" xmlns="http://www.w3.org/2000/svg" xmlns:xlink="http://www.w3.org/1999/xlink" viewBox="0 0 64 64"><defs><style>.cls-1{fill:none;}.cls-2{clip-path:url(#clippath);}.cls-3{clip-path:url(#clippath-1);}</style><clipPath id="clippath"><rect class="cls-1" width="64" height="64"/></clipPath><clipPath id="clippath-1"><rect class="cls-1" width="64" height="64"/></clipPath></defs><g class="cls-2"><g class="cls-3"><path d="M58.58,11.83c-7.68-1.11-15.41-1.11-23.09,0-1.98,.29-3.49,2.13-3.49,4V56.17c0,1.87,1.59,3.7,3.57,4,7.68,1.11,15.33,1.11,23.01,0,1.98-.29,3.42-2.13,3.42-4V15.83c0-1.87-1.44-3.7-3.42-4m-11.58,46.37c-1.49,0-2.7-1.21-2.7-2.7s1.21-2.7,2.7-2.7,2.7,1.21,2.7,2.7-1.21,2.7-2.7,2.7m11-8.2h-22V18h22V50Z"/><path d="M7,20.29l-3.15-.93c-.34-.11-.22-.36-.22-.36h14.37c.55,0,1-.45,1-1V3.63s.25-.11,.36,.23l.93,3.13h16.71v2.63c1.66-.2,3.33-.36,5-.46V4c0-1.1-.9-2-2-2H18.83c-.53,0-1.04,.21-1.42,.59L2.59,17.41c-.38,.38-.59,.88-.59,1.42v31.17c0,1.1,.9,2,2,2H30v-5H7V20.29Z"/><path d="M45.12,38.99c.26,.39,.67,.66,1.14,.66h0c.47,0,.89-.25,1.14-.65,4.2-6.64,6.69-10.5,6.69-10.5,.35-.59,.2-1.35-.35-1.75-.55-.41-1.32-.33-1.78,.18l-5.82,6.55-3.84-3.38c-.49-.43-1.22-.43-1.72-.02s-.63,1.13-.3,1.69c0,0,2.1,3.21,4.83,7.21"/><path d="M26.23,23.82l-6.95,7.82-4.58-4.03c-.59-.51-1.45-.52-2.05-.02-.6,.5-.75,1.35-.36,2.02,0,0,2.51,3.84,5.76,8.61,.32,.46,.8,.78,1.36,.79h0c.56,0,1.06-.3,1.36-.77,5.01-7.93,7.99-12.53,7.99-12.53,.42-.7,.24-1.61-.42-2.09-.66-.49-1.58-.39-2.12,.22"/></g></g></svg>