<?xml version="1.0" encoding="UTF-8"?><svg id="Laag_1" xmlns="http://www.w3.org/2000/svg" xmlns:xlink="http://www.w3.org/1999/xlink" viewBox="0 0 64 64"><defs><style>.cls-1{fill:none;}.cls-2{clip-path:url(#clippath);}.cls-3{clip-path:url(#clippath-1);}</style><clipPath id="clippath"><rect class="cls-1" width="64" height="64"/></clipPath><clipPath id="clippath-1"><rect class="cls-1" width="64" height="64"/></clipPath></defs><g class="cls-2"><g class="cls-3"><path d="M12.64,41.4c1.36,.68,2.76,1.18,4.15,1.5,1.84-1.5,3.32-2.7,4.01-3.23,4.54-3.55,9.32-4.62,13.35-3.25,3.85-4.91,5.89-11.98,5.62-20.03-.08-2.36-1.74-4.27-3.93-4.8l-.02-1.1,1.17-2.36-1.75,.19-1.65-.71-.9,.61-1.46,.1,1.78,2.31,.02,1.06c-2.12,.69-3.63,2.7-3.55,5.04,.29,8.47-2.68,13.47-5.56,15.32-2.03,1.3-4.28,1.35-6.71,.14-2.42-1.21-3.74-3.04-3.92-5.44-.25-3.41,1.95-8.79,8.89-13.65,1.92-1.34,2.61-3.75,1.89-5.86l.86-.62,2.92,.03-.8-1.23-.05-1.08-1.56-.89-.9-1.51-1.18,2.35-.88,.64c-.3-.25-.62-.46-.96-.63-1.63-.81-3.65-.73-5.25,.39C7.4,10.91,2.45,19.45,3.05,27.52c.45,6.01,3.94,11.07,9.59,13.89"/><path d="M46.23,37.9c4.54-4.61,2.3-13.02,2.3-13.02,0,0-4.84,2.82-6.81,5.74-1.97,2.91-.9,5.32-1.79,6.67-.54,.82-2.14,2.16-3.33,3.09-4.09-3.72-9.63-2.73-14.44,1.03-.12,.1-.26,.2-.4,.32,2.34,.17,5.75,1.76,5.78,7.61,0,.44-.17,.62-.33,.5,0,0-2.39-7.05-8.63-5.53h-.03c-1.51,1.24-3.24,2.67-4.94,4.1,1.82,.24,4.44,1.58,4.35,5.71,0,.31-.19,.45-.32,.37,0,0-1.64-4.44-6.42-4.04-2.92,2.51-5.43,4.77-6.17,5.72-1.77,2.25-.47,5.21,2.71,4.6,3.94-.76,13.81-2.77,23.59-4.94,7.66-1.7,9.47-7.43,7.8-11.82,1.73-.78,3.63-1.36,5.18-1.06,2.58,.5,5.69,1.76,8.66,1.26,6.6-1.11,9.56-3.93,9.56-3.93-6.08-7.45-16.3-2.38-16.3-2.38"/></g></g></svg>