<?xml version="1.0" encoding="UTF-8"?><svg id="Laag_1" xmlns="http://www.w3.org/2000/svg" xmlns:xlink="http://www.w3.org/1999/xlink" viewBox="0 0 64 64"><defs><style>.cls-1{fill:none;}.cls-2{clip-path:url(#clippath);}.cls-3{clip-path:url(#clippath-1);}</style><clipPath id="clippath"><rect class="cls-1" width="64" height="64"/></clipPath><clipPath id="clippath-1"><rect class="cls-1" width="64" height="64"/></clipPath></defs><g class="cls-2"><g class="cls-3"><path d="M59.43,48.07c-2.77,0-5.73-1.9-5.76-1.92l-1.1-.71-1.09,.71s-2.99,1.92-5.76,1.92-5.73-1.9-5.76-1.92l-1.1-.71-1.1,.71s-2.99,1.92-5.76,1.92-5.73-1.9-5.76-1.92l-1.1-.72-1.1,.72s-3.01,1.92-5.76,1.92-5.73-1.9-5.76-1.92l-1.1-.71-1.09,.71s-2.99,1.92-5.76,1.92c-.87,0-1.76-.19-2.57-.45v4.07c.83,.19,1.69,.31,2.57,.31,2.75,0,5.41-1.18,6.86-1.94,1.44,.76,4.11,1.94,6.86,1.94s5.41-1.18,6.86-1.94c1.44,.76,4.11,1.94,6.86,1.94s5.42-1.18,6.86-1.94c1.44,.76,4.11,1.94,6.86,1.94s5.42-1.18,6.86-1.94c1.44,.76,4.11,1.94,6.86,1.94,.88,0,1.75-.12,2.57-.31v-4.07c-.81,.26-1.7,.46-2.57,.46"/><path d="M53.67,54.15l-1.1-.71-1.1,.71s-2.99,1.92-5.76,1.92-5.73-1.91-5.76-1.92l-1.1-.71-1.1,.71s-2.99,1.92-5.76,1.92-5.73-1.91-5.76-1.92l-1.1-.72-1.1,.72s-3.01,1.92-5.76,1.92-5.73-1.91-5.76-1.92l-1.1-.71-1.1,.71s-2.99,1.92-5.76,1.92c-.87,0-1.76-.19-2.57-.45v4.07c.83,.19,1.69,.31,2.57,.31,2.75,0,5.42-1.18,6.86-1.94,1.44,.76,4.11,1.94,6.86,1.94s5.42-1.18,6.86-1.94c1.44,.76,4.11,1.94,6.86,1.94s5.41-1.18,6.86-1.94c1.44,.76,4.11,1.94,6.86,1.94s5.42-1.18,6.86-1.94c1.44,.76,4.11,1.94,6.86,1.94,.88,0,1.75-.12,2.57-.31v-4.07c-.81,.26-1.7,.46-2.57,.46-2.77,0-5.73-1.91-5.76-1.92"/><path d="M24.53,34l7.47-14.86s7.24,14.33,7.47,14.86c14.07-6.71,9.97-21,9.97-21l-15.44,4V1h-4V17l-15.44-4s-4.1,14.29,9.97,21"/></g></g></svg>