<?xml version="1.0" encoding="UTF-8"?><svg id="Laag_1" xmlns="http://www.w3.org/2000/svg" xmlns:xlink="http://www.w3.org/1999/xlink" viewBox="0 0 64 64"><defs><style>.cls-1{fill:none;}.cls-2{clip-path:url(#clippath);}.cls-3{clip-path:url(#clippath-1);}</style><clipPath id="clippath"><rect class="cls-1" width="64" height="64"/></clipPath><clipPath id="clippath-1"><rect class="cls-1" width="64" height="64"/></clipPath></defs><g class="cls-2"><g class="cls-3"><path d="M55.64,25.41c-1.41-1.85-3.31-3.23-5.59-3.9-1.55-.46-4.84-.94-8.59,.77,0,0-.16-.07,.05-.39,.2-.31,2.58-2.61,6.99-2.42-.93-.98-3.53-3.83-4.53-4.9-3.92-4.21-8.92-2.88-9.87,1.87-.64-.28-1.34-.44-2.09-.44s-1.45,.16-2.09,.44c-.95-4.75-5.94-6.08-9.86-1.87-1,1.07-3.6,3.92-4.53,4.9,4.41-.19,6.78,2.11,6.99,2.42,.21,.32,.05,.39,.05,.39-3.75-1.72-7.05-1.23-8.59-.77-2.28,.67-4.17,2.06-5.59,3.9-3.86,5.06-6.35,9.05-6.35,13.59,0,7.17,5.82,13,12.99,13s12.74-5.6,12.98-12.56c1.06,.96,2.47,1.56,4.02,1.56s2.96-.59,4.02-1.56c.24,6.96,5.96,12.56,12.98,12.56s12.99-5.83,12.99-13c0-4.54-2.49-8.53-6.35-13.59M15,48.18c-5.06,0-9.18-4.12-9.18-9.18s4.12-9.18,9.18-9.18,9.18,4.12,9.18,9.18-4.12,9.18-9.18,9.18m34,0c-5.06,0-9.18-4.12-9.18-9.18s4.12-9.18,9.18-9.18,9.18,4.12,9.18,9.18-4.12,9.18-9.18,9.18"/></g></g></svg>