<?xml version="1.0" encoding="UTF-8"?><svg id="Laag_1" xmlns="http://www.w3.org/2000/svg" xmlns:xlink="http://www.w3.org/1999/xlink" viewBox="0 0 64 64"><defs><style>.cls-1{fill:none;}.cls-2{clip-path:url(#clippath);}.cls-3{clip-path:url(#clippath-1);}</style><clipPath id="clippath"><rect class="cls-1" width="64" height="64"/></clipPath><clipPath id="clippath-1"><rect class="cls-1" width="64" height="64"/></clipPath></defs><g class="cls-2"><g class="cls-3"><path d="M35.78,33.51c-.92,0-1.91,.64-1.91,2.43,0,1.64,.68,2.54,1.91,2.54,.92,0,1.9-.64,1.9-2.42,0-1.67-.66-2.55-1.9-2.55"/><path d="M44.65,33.51c-.92,0-1.91,.64-1.91,2.43,0,1.64,.68,2.54,1.91,2.54,.92,0,1.9-.64,1.9-2.42,0-1.67-.66-2.55-1.9-2.55"/><path d="M58.07,5H5.93c-1.07,0-1.93,.97-1.93,2.16V43.84c0,1.19,.86,2.16,1.93,2.16H28v14h8v-12.46l-5.77-1.15c-.35-.11-.3-.34-.27-.4h28.12c1.07,0,1.93-.96,1.93-2.15V7.16c0-1.19-.86-2.16-1.93-2.16M15.3,33.53h-2.16v6.61h-1.94v-6.61h-2.16v-1.68h6.26v1.68Zm5.55,6.61h-4.62v-8.29h4.58v1.68h-2.66v1.52h2.44v1.67h-2.44v1.74h2.69v1.67Zm8.6,0l-2.26-3.39h-.29v3.39h-1.92v-8.29h1.92v3.23h.26l2.35-3.23h2.26l-2.92,3.91,2.98,4.37h-2.39Zm6.24,.11c-2.36,0-3.82-1.6-3.82-4.18,0-2.99,2-4.32,3.99-4.32,2.35,0,3.81,1.6,3.81,4.18,0,2.98-2,4.32-3.98,4.32m4.31-12.25h-6v-6h-4v6h-6v-8h-1.6c-.22,0-.4-.18-.4-.4v-1.19c0-.22,.09-.44,.26-.59l9.47-9.03c.15-.14,.39-.14,.54,0l9.47,9.03c.17,.15,.26,.36,.26,.59v1.19c0,.22-.18,.4-.4,.4h-1.6v8Zm4.56,12.25c-2.36,0-3.82-1.6-3.82-4.18,0-2.99,2-4.32,3.99-4.32,2.35,0,3.81,1.6,3.81,4.18,0,2.98-2,4.32-3.98,4.32m7.75-2.84c-.23,0-.42,0-.6-.02v2.75h-1.93v-8.29h2.69c1.82,0,2.96,1.01,2.96,2.64,0,1.77-1.23,2.92-3.12,2.92"/><path d="M52.26,33.5h-.56v2.26c.13,.01,.27,.02,.43,.02,.49,0,1.32-.15,1.32-1.18,0-.75-.38-1.1-1.19-1.1"/></g></g></svg>