<?xml version="1.0" encoding="UTF-8"?><svg id="Laag_1" xmlns="http://www.w3.org/2000/svg" xmlns:xlink="http://www.w3.org/1999/xlink" viewBox="0 0 64 64"><defs><style>.cls-1{fill:none;}.cls-2{clip-path:url(#clippath);}.cls-3{clip-path:url(#clippath-1);}</style><clipPath id="clippath"><rect class="cls-1" width="64" height="64"/></clipPath><clipPath id="clippath-1"><rect class="cls-1" width="64" height="64"/></clipPath></defs><g class="cls-2"><g class="cls-3"><path d="M56,50h-2l-4.94-11h-2.48l4.42,11h-3l-3.74-11h-2.32l3.06,11h-3l-2.38-11h-2.32l1.7,11h-3l-1.02-11h-2.32l.34,11h-3l.34-11h-2.32l-1.02,11h-3l1.7-11h-2.32l-2.38,11h-3l3.06-11h-2.32l-3.74,11h-3l4.42-11h-2.48l-4.94,11h-2c-.55,0-1,.45-1,1v3c0,.55,.45,1,1,1H56c.55,0,1-.45,1-1v-3c0-.55-.45-1-1-1m0-18h-2l-5-11.13V9c0-.55-.45-1-1-1H15c-.55,0-1,.45-1,1v11.87l-5,11.13h-2c-.55,0-1,.45-1,1v3c0,.55,.45,1,1,1H56c.55,0,1-.45,1-1v-3c0-.55-.45-1-1-1m-44,0l4.42-11h2.32l-3.74,11h-3Zm9,0h-3l3.06-11h2.32l-2.38,11Zm6,0h-3l1.7-11h2.32l-1.02,11Zm3,0l.34-11h2.32l.34,11h-3Zm6,0l-1.02-11h2.32l1.7,11h-3Zm6,0l-2.38-11h2.32l3.06,11h-3Zm6,0l-3.74-11h2.32l4.42,11h-3Z"/></g></g></svg>