<?xml version="1.0" encoding="UTF-8"?><svg id="Laag_1" xmlns="http://www.w3.org/2000/svg" xmlns:xlink="http://www.w3.org/1999/xlink" viewBox="0 0 64 64"><defs><style>.cls-1{fill:none;}.cls-2{clip-path:url(#clippath);}.cls-3{clip-path:url(#clippath-1);}</style><clipPath id="clippath"><rect class="cls-1" width="64" height="64"/></clipPath><clipPath id="clippath-1"><rect class="cls-1" width="64" height="64"/></clipPath></defs><g class="cls-2"><g class="cls-3"><path d="M13,41H51c2.21,0,4-1.79,4-4V13c0-2.21-1.79-4-4-4H13c-2.21,0-4,1.79-4,4v24c0,2.21,1.79,4,4,4M51,22.8c1.22,0,2.2,.99,2.2,2.2s-.99,2.2-2.2,2.2-2.2-.99-2.2-2.2,.99-2.2,2.2-2.2M13,13H47v24H13V13Z"/><path d="M58.72,51.17l-2.92-6.41c-.49-1.07-1.55-1.76-2.73-1.76H10.93c-1.18,0-2.24,.69-2.73,1.76l-2.92,6.41c-.6,1.32,.37,2.83,1.82,2.83H56.89c1.46,0,2.42-1.5,1.82-2.83m-33.72-.17l1.5-4h11l1.5,4h-14Z"/></g></g></svg>