<?xml version="1.0" encoding="UTF-8"?><svg id="Laag_1" xmlns="http://www.w3.org/2000/svg" xmlns:xlink="http://www.w3.org/1999/xlink" viewBox="0 0 64 64"><defs><style>.cls-1{fill:none;}.cls-2{clip-path:url(#clippath);}.cls-3{clip-path:url(#clippath-1);}.cls-4{clip-path:url(#clippath-3);}.cls-5{clip-path:url(#clippath-2);}</style><clipPath id="clippath"><rect class="cls-1" x="538.17" y="822.97" width="64" height="64"/></clipPath><clipPath id="clippath-1"><rect class="cls-1" x="538.17" y="822.97" width="64" height="64"/></clipPath><clipPath id="clippath-2"><rect class="cls-1" width="64" height="64"/></clipPath><clipPath id="clippath-3"><rect class="cls-1" width="64" height="64"/></clipPath></defs><g class="cls-2"><g class="cls-3"><path d="M29.65,5.62c0,1.55-.57,2.4-1.58,2.4-.89,0-1.49-.83-1.51-2.34,0-1.53,.66-2.37,1.58-2.37s1.51,.85,1.51,2.3Zm-2.47,.07c0,1.18,.36,1.86,.92,1.86,.63,0,.93-.74,.93-1.9s-.29-1.86-.92-1.86c-.54,0-.93,.66-.93,1.9Zm3.18,1.55c.18,.11,.58,.29,1.01,.29,.79,0,1.04-.5,1.03-.88,0-.64-.58-.91-1.18-.91h-.34v-.46h.34c.45,0,1.02-.23,1.02-.77,0-.36-.23-.69-.8-.69-.36,0-.71,.16-.91,.3l-.16-.45c.24-.18,.7-.35,1.19-.35,.9,0,1.3,.53,1.3,1.09,0,.47-.28,.87-.84,1.07h0c.56,.13,1.02,.55,1.02,1.18,0,.73-.57,1.37-1.66,1.37-.51,0-.96-.16-1.18-.31l.17-.48Zm6.47-1.62c0,1.55-.57,2.4-1.58,2.4-.89,0-1.49-.83-1.51-2.34,0-1.53,.66-2.37,1.58-2.37s1.51,.85,1.51,2.3Zm-2.47,.07c0,1.18,.36,1.86,.92,1.86,.63,0,.93-.74,.93-1.9s-.29-1.86-.92-1.86c-.54,0-.93,.66-.93,1.9Zm4.94,2.26v-1.24h-2.12v-.41l2.03-2.91h.67v2.83h.64v.48h-.64v1.24h-.58Zm0-1.72v-1.52c0-.24,0-.48,.02-.71h-.02c-.14,.27-.25,.46-.38,.67l-1.11,1.55h1.49Zm3.28,1.11c.18,.12,.5,.25,.81,.25,.45,0,.66-.22,.66-.5,0-.29-.18-.46-.63-.62-.61-.22-.9-.55-.9-.96,0-.55,.44-.99,1.17-.99,.34,0,.64,.1,.83,.21l-.15,.45c-.13-.08-.38-.2-.69-.2-.36,0-.57,.21-.57,.46,0,.28,.2,.41,.64,.57,.59,.22,.89,.52,.89,1.02,0,.6-.46,1.02-1.27,1.02-.37,0-.71-.09-.95-.23l.15-.47Zm2.86-4.34h.62V7.94h-.62V2.97Zm3.53,4.97l-.05-.43h-.02c-.19,.27-.55,.5-1.04,.5-.69,0-1.04-.48-1.04-.97,0-.82,.73-1.27,2.04-1.26v-.07c0-.28-.08-.78-.77-.78-.32,0-.64,.1-.88,.25l-.14-.41c.28-.18,.69-.3,1.11-.3,1.04,0,1.29,.71,1.29,1.39v1.27c0,.29,.01,.58,.06,.81h-.56Zm-.09-1.73c-.67-.01-1.44,.11-1.44,.76,0,.4,.27,.59,.58,.59,.44,0,.72-.28,.82-.57,.02-.06,.04-.13,.04-.2v-.59Zm4,1.6c-.16,.08-.52,.2-.97,.2-1.02,0-1.69-.69-1.69-1.73s.71-1.8,1.82-1.8c.36,0,.69,.09,.85,.18l-.14,.48c-.15-.08-.38-.16-.71-.16-.78,0-1.2,.57-1.2,1.28,0,.78,.5,1.27,1.18,1.27,.35,0,.58-.09,.76-.17l.11,.46Zm.72-4.85h.62v2.12h.01c.1-.18,.25-.33,.44-.43,.18-.11,.4-.18,.63-.18,.46,0,1.18,.28,1.18,1.45v2.02h-.62v-1.95c0-.55-.2-1.01-.78-1.01-.4,0-.71,.28-.83,.62-.04,.08-.04,.18-.04,.29v2.05h-.62V2.97Zm4.6,.61v.97h.88v.47h-.88v1.83c0,.42,.12,.66,.46,.66,.16,0,.28-.02,.36-.04l.03,.46c-.12,.05-.31,.08-.55,.08-.29,0-.52-.09-.67-.26-.18-.18-.24-.48-.24-.88v-1.85h-.53v-.47h.53v-.81l.6-.16Zm4.6,2.64c0,1.25-.87,1.8-1.69,1.8-.92,0-1.62-.67-1.62-1.74,0-1.13,.74-1.8,1.68-1.8s1.63,.71,1.63,1.74Zm-2.69,.03c0,.74,.43,1.3,1.03,1.3s1.03-.55,1.03-1.32c0-.57-.29-1.3-1.02-1.3s-1.04,.67-1.04,1.32Zm5.56,1.69v-2.92h-1.42v2.92h-.61v-2.92h-.48v-.47h.48v-.11c0-.48,.11-.89,.38-1.16,.2-.2,.48-.32,.85-.32,.2,0,.38,.06,.48,.12l-.13,.46c-.09-.04-.22-.08-.36-.08-.48,0-.62,.41-.62,.95v.15h1.42v-.16c0-.48,.11-.91,.4-1.18,.23-.22,.54-.32,.82-.32,.22,0,.41,.05,.53,.1l-.08,.48c-.1-.04-.22-.08-.4-.08-.52,0-.66,.46-.66,.98v.18h.82v.47h-.81v2.92h-.62Zm2.24-1.58c.01,.83,.55,1.18,1.16,1.18,.44,0,.71-.08,.94-.18l.11,.44c-.22,.1-.59,.21-1.13,.21-1.04,0-1.67-.69-1.67-1.71s.6-1.83,1.59-1.83c1.11,0,1.4,.97,1.4,1.6,0,.13-.01,.22-.02,.29h-2.38Zm1.81-.44c0-.39-.16-1-.85-1-.62,0-.9,.57-.95,1h1.8Zm1.36-.31c0-.4,0-.74-.03-1.06h.54l.02,.67h.03c.15-.46,.53-.74,.94-.74,.07,0,.12,0,.18,.02v.58c-.06-.01-.13-.02-.21-.02-.43,0-.74,.33-.83,.79-.01,.08-.03,.18-.03,.29v1.81h-.61v-2.33Zm2.29,2.33c.01-.23,.03-.57,.03-.88V2.97h.61v2.13h.01c.22-.38,.61-.62,1.16-.62,.84,0,1.44,.7,1.43,1.73,0,1.21-.76,1.81-1.52,1.81-.49,0-.88-.19-1.13-.64h-.02l-.03,.56h-.53Zm.64-1.36c0,.08,.01,.15,.03,.22,.12,.43,.48,.72,.92,.72,.64,0,1.03-.53,1.03-1.3,0-.68-.35-1.26-1.01-1.26-.42,0-.81,.29-.94,.76-.01,.07-.04,.15-.04,.25v.61Zm3.72-.22c.01,.83,.55,1.18,1.16,1.18,.44,0,.71-.08,.94-.18l.11,.44c-.22,.1-.59,.21-1.13,.21-1.04,0-1.67-.69-1.67-1.71s.6-1.83,1.59-1.83c1.11,0,1.4,.97,1.4,1.6,0,.13-.01,.22-.02,.29h-2.38Zm1.81-.44c0-.39-.16-1-.85-1-.62,0-.9,.57-.95,1h1.8Zm1.36-2.95h.62V7.94h-.62V2.97Zm2,3.39c.01,.83,.55,1.18,1.16,1.18,.44,0,.71-.08,.94-.18l.11,.44c-.22,.1-.59,.21-1.13,.21-1.04,0-1.67-.69-1.67-1.71s.6-1.83,1.59-1.83c1.11,0,1.4,.97,1.4,1.6,0,.13-.01,.22-.02,.29h-2.38Zm1.81-.44c0-.39-.16-1-.85-1-.62,0-.9,.57-.95,1h1.8Zm2.04-2.32c0,.21-.15,.38-.39,.38-.22,0-.37-.17-.37-.38s.16-.39,.39-.39,.38,.17,.38,.39Zm-.69,4.34v-3.39h.62v3.39h-.62Zm4.57-4.97V7.07c0,.3,0,.64,.03,.88h-.55l-.03-.59h-.01c-.19,.38-.6,.67-1.16,.67-.82,0-1.45-.69-1.45-1.72,0-1.13,.69-1.82,1.52-1.82,.52,0,.87,.25,1.02,.52h.01V2.97h.62Zm-.62,2.96c0-.08,0-.18-.03-.26-.09-.39-.43-.71-.89-.71-.64,0-1.02,.56-1.02,1.31,0,.69,.34,1.25,1,1.25,.41,0,.79-.27,.9-.74,.02-.08,.03-.17,.03-.27v-.59Z"/></g></g><g class="cls-5"><g class="cls-4"><path d="M32.45,36.78c0,.8,.62,1.3,1.69,1.3,.89,0,1.58-.18,2.35-.59v-2.12c-.43-.02-1.03-.05-1.48-.05-1.85,0-2.56,.59-2.56,1.46"/><path d="M54.89,4H21c-6.93,0-14,2.69-14,9.97V53.16c0,4.09,2.12,6.84,6,6.84H46.88c1.17,0,2.12-.95,2.12-2.11V16.11c0-1.17-.95-2.11-2.12-2.11H13.88c-.91,0-1.34-.82-1.02-1.75,1.01-2.88,6.26-3.25,8.14-3.25h31V51h3c1.1,0,2-.9,2-2V6.11c0-1.17-.95-2.11-2.11-2.11m-20.91,26.92c-1.1,0-2.01,.18-3.22,.69l-.37-2.17c1.39-.59,2.6-.87,4.06-.87,3.04,0,4.54,1.44,4.54,3.97v7.47h-2.42v-.73c-.94,.59-1.85,.87-3.2,.87-2.31,0-3.58-1.26-3.58-3.15,0-2.08,1.6-3.54,5.14-3.54,.57,0,1.07,.02,1.55,.02v-.64c0-1.23-.73-1.92-2.51-1.92m-13.5-5.92h4.14l4.41,15h-3.13l-.96-3.43h-5.12l-.96,3.43h-2.84l4.46-15Z"/><polygon points="22.47 27.42 22.31 27.42 20.37 34.37 24.35 34.37 22.47 27.42"/></g></g></svg>