<?xml version="1.0" encoding="UTF-8"?><svg id="Laag_1" xmlns="http://www.w3.org/2000/svg" xmlns:xlink="http://www.w3.org/1999/xlink" viewBox="0 0 64 64"><defs><style>.cls-1{fill:none;}.cls-2{clip-path:url(#clippath);}.cls-3{clip-path:url(#clippath-1);}</style><clipPath id="clippath"><rect class="cls-1" width="64" height="64"/></clipPath><clipPath id="clippath-1"><rect class="cls-1" width="64" height="64"/></clipPath></defs><g class="cls-2"><polygon points="37.89 24.11 26.02 21.2 32.46 30.96 33.48 28.14 37.35 30.64 38.85 28.32 35.13 25.91 37.89 24.11"/><g class="cls-3"><path d="M58.57,45.29l-5.56-8.27-.97-22.14c-.06-1.62-1.38-2.88-3-2.88H14.96c-1.62,0-2.93,1.26-3,2.87l-.97,22.14-5.56,8.27c-.28,.47-.43,1-.43,1.54v4.17c0,1.1,.9,2,2,2H57c1.1,0,2-.9,2-2v-4.17c0-.54-.15-1.08-.43-1.54m-33.57,.71l2-4h10l2,4h-14Zm26.87-9H12.13c-.02-.12,0-.29,.24-.36,1.18-.37,2.68-.79,2.68-.79l.87-19.84H48.08l.87,19.84s1.16,.33,2.67,.78c.24,.07,.28,.26,.25,.38"/></g></g></svg>