<?xml version="1.0" encoding="UTF-8"?><svg id="Laag_1" xmlns="http://www.w3.org/2000/svg" xmlns:xlink="http://www.w3.org/1999/xlink" viewBox="0 0 64 64"><defs><style>.cls-1{fill:none;}.cls-2{clip-path:url(#clippath);}.cls-3{clip-path:url(#clippath-1);}</style><clipPath id="clippath"><rect class="cls-1" width="64" height="64"/></clipPath><clipPath id="clippath-1"><rect class="cls-1" width="64" height="64"/></clipPath></defs><g class="cls-2"><g class="cls-3"><path d="M20.04,38.09c1.96,0,4.28-1.96,6-3.25,1.84,1.38,4.08,3.25,6,3.25,1.65,0,3.62-1.45,4.52-2.14-1.22-1.23-3.31-3.41-4.85-5.64-1.33-1.83-2.57-3.87-3.36-5.98,2.15-.89,5.77-2.2,11.27-3.89-.3-.9-1.53-3.08-6.37-2.06-2.3,.48-7.28,1.53-8.95,2.94-1.15,.97-1.18,1.87-.89,3.07,.53,2.26,1.83,4.86,3,6.75-3.94,2.13-7.05,4.42-9.06,6.05,.86,.5,1.82,.91,2.7,.91"/><path d="M56.04,40.09c-2.46,0-4.92-1.94-6-2.75-1,.75-3.49,2.75-6,2.75s-4.92-1.94-6-2.75c-1,.75-3.49,2.75-6,2.75s-4.92-1.94-6-2.75c-1,.75-3.49,2.75-6,2.75s-4.92-1.94-6-2.75c-1,.75-3.49,2.75-6,2.75-1.02,0-2.12-.39-3.04-.83v4.22c.94,.31,1.98,.52,3.04,.52,2.4,0,4.66-1.08,6-1.86,1.34,.79,3.6,1.86,6,1.86s4.66-1.08,6-1.86c1.34,.79,3.6,1.86,6,1.86s4.66-1.08,6-1.86c1.34,.79,3.6,1.86,6,1.86s4.66-1.08,6-1.86c1.34,.79,3.6,1.86,6,1.86,1.03,0,2.04-.2,2.96-.49v-4.2c-.9,.42-1.97,.79-2.96,.79"/><path d="M35.83,32.56c1.48,2.41,4.02,2.76,6.45,1.27,2.76-1.7,3.35-4.07,1.91-6.41-1.52-2.47-4.09-2.72-6.58-1.18-2.63,1.62-3.25,3.92-1.77,6.32"/></g></g></svg>