<?xml version="1.0" encoding="UTF-8"?><svg id="Laag_1" xmlns="http://www.w3.org/2000/svg" viewBox="0 0 64 64"><defs><style>.cls-1{fill:none;}</style></defs><rect class="cls-1" width="64" height="64"/><g><path d="m36.84,43.5c.22-1.76,1.58-3.13,3.27-3.43-2.24-.91-4.42-1.68-5.34-2.41-.1-.85-.24-1.89-.39-2.89,2.82.3,5.22.64,6.92,1.24.37.13.77-.12.87-.54,1.26-5.09,1.81-8.52,1.81-12.24,0-7.48-2.81-15.48-7.13-18.07-2.75-1.65-5.84-1.05-5.84-1.05,0,0-2.97-2.86-8.17-1.88-8.48,1.6-14.84,9.74-14.84,21,0,3.73.56,7.15,1.82,12.24.1.42.5.67.87.54,1.82-.64,4.29-1.01,7.36-1.3-.11.94-.24,1.99-.36,3.06-1.67,1.19-8.78,2.66-11.49,5.5-2.76,2.88-4.21,13.74-4.21,13.74h35v-3.98c-.74-.84-1.12-1.97-.97-3.15l.81-6.38Zm-10.79,4.44c-1.49-.64-6.14-2.88-8.39-6.8,2.88-1.19,2.71-2.27,2.76-2.72.07-.58.58-5.32.58-5.32-2.52-2.48-3.6-5.57-4.06-8.28-.29-1.73-.25-3.34-.16-4.41,4.8-1.89,11.6-5.75,14.24-9.06,0,0,.32.01.12.5-.34.83-.85,1.81-1.55,2.98,1.24,2.63,3.47,4.56,5.68,5.93.07,1.03.07,2.47-.2,4.06-.53,3.18-2.82,7.63-5.34,9.18-1.72,1.06-4.87,1.23-6.71.44.42.84,1.27,1.84,3.15,2.31,2.54.63,4.85-.4,5.45-.75.11.79.22,1.59.29,2.28.05.43.16,1.49,3.13,2.88-2.32,4.03-7.4,6.19-8.98,6.78Z"/><path d="m53,55v1c0,.55-.45,1-1,1h-2c-.55,0-1-.45-1-1v-1s0-.03,0-.04c-4.22-.17-7.19-.84-9.01-1.41v6.45c0,.55.49,1,1.04,1h20c.55,0,.96-.45.96-1v-6.43c-1.83.57-4.8,1.23-9.01,1.39,0,.01,0,.02,0,.04Z"/><path d="m62.26,43.87c-.06-.5-.49-.87-.99-.87h-5.23v-1.4c0-1.04-.79-2-1.8-2.2-2.12-.4-4.27-.41-6.4,0-1.01.2-1.8,1.16-1.8,2.2v1.4h-5.23c-.5,0-.93.37-.99.87l-.81,6.38c-.06.45.2.89.62,1.06,1.47.56,5.2,1.69,11.41,1.69s9.94-1.13,11.41-1.69c.43-.16.68-.6.62-1.06l-.81-6.38Zm-10.26-.87v6h-2v-6h-1.96v-1.4c0-.09.12-.23.18-.24,1.87-.36,3.77-.36,5.64,0,.07.01.18.15.18.24v1.4h-2.04Z"/></g></svg>