<?xml version="1.0" encoding="UTF-8"?><svg id="Laag_1" xmlns="http://www.w3.org/2000/svg" xmlns:xlink="http://www.w3.org/1999/xlink" viewBox="0 0 64 64"><defs><style>.cls-1{fill:none;}.cls-2{clip-path:url(#clippath);}.cls-3{clip-path:url(#clippath-1);}</style><clipPath id="clippath"><rect class="cls-1" width="64" height="64"/></clipPath><clipPath id="clippath-1"><rect class="cls-1" width="64" height="64"/></clipPath></defs><g class="cls-2"><polygon points="4 60 23.06 60 26.49 3 22.55 3 4 60"/><g class="cls-3"><path d="M59.47,6.06l-15.67-.06c-1.05,0-1.96,.74-2.16,1.77-.21,1.03,.35,2.06,1.32,2.46l5.74,2.35s-.84,.7-.91,.75c-2.99,2.38-6.31,5.4-8.87,9.57L32.45,3h-3.94l3.43,57h19.06s-2.83-8.17-6.09-18.71c-3.26-10.55,.89-18.15,8.86-24.56,.42-.34,1.76-1.4,2.24-1.65,0,0,.21,.14-.1,.53-.25,.31-2.96,3.84-2.96,3.84l.64,4.37c.15,1.04,1.02,1.82,2.07,1.87,.54,.03,1.05-.15,1.45-.47,.38-.3,.66-.72,.78-1.21l3.7-15.23c.33-1.38-.71-2.71-2.12-2.71"/></g></g></svg>