<?xml version="1.0" encoding="UTF-8"?><svg id="Laag_1" xmlns="http://www.w3.org/2000/svg" xmlns:xlink="http://www.w3.org/1999/xlink" viewBox="0 0 64 64"><defs><style>.cls-1{fill:none;}.cls-2{clip-path:url(#clippath);}.cls-3{clip-path:url(#clippath-1);}</style><clipPath id="clippath"><rect class="cls-1" width="64" height="64"/></clipPath><clipPath id="clippath-1"><rect class="cls-1" width="64" height="64"/></clipPath></defs><g class="cls-2"><g class="cls-3"><path d="M49.51,42.26c.97,0,1.75-.79,1.75-1.75s-.79-1.75-1.75-1.75-1.76,.78-1.76,1.75,.79,1.75,1.76,1.75"/><path d="M43.51,36c-.83,0-1.5,.67-1.5,1.5s.67,1.5,1.5,1.5,1.5-.67,1.5-1.5-.67-1.5-1.5-1.5"/><path d="M38.51,30c-.83,0-1.5,.67-1.5,1.5s.67,1.5,1.5,1.5,1.5-.67,1.5-1.5-.67-1.5-1.5-1.5"/><path d="M61.37,46.33c-2.08-2.86-8.77-11.91-13.36-16.33-4.16-4-8.04-6.78-14-5-4.18,1.25-7.37,4.42-9.41,7.04,2.62,3.39,6.32,8.55,7.3,14.81,.43,2.74,.28,5.12-.17,7.14h18.38c.36,0,.72-.1,1.03-.28l9.95-5.94c.5-.3,.64-.97,.3-1.44m-5.47,1.04c-.27-.79-1.01-1.37-1.89-1.37-1.1,0-2,.9-2,2,0,.53,.21,1.01,.55,1.37l-2.73,1.63s-1.62-1.8-3.79-4.29c.58-.35,.98-.98,.98-1.71,0-1.1-.9-2-2-2-.62,0-1.18,.29-1.54,.74-2.81-3.29-5.82-6.96-7.39-9.31-2.7-4.06-2.5-6.93,1.46-6.98,2.25-.03,4.18,1.03,6.37,2.88-.54,.36-.9,.97-.9,1.67,0,1.1,.89,2,2,2,.75,0,1.39-.42,1.74-1.02,3.62,3.71,8.31,9.86,10.9,13.35l-1.75,1.04Z"/><path d="M20.31,30c-.42-.68-.67-1.38-.81-2h.51c1.1,0,2-.9,2-2v-5c0-1.09-.87-1.97-1.95-1.99,.2-2.65,1.16-4.66,2.22-6.1l5.6,7.28c.45,.58,1.27,.71,1.87,.29,.55-.38,.74-1.11,.46-1.72l-4.15-8.76h2.95c1.1,0,2-.9,2-2v-3c0-1.1-.9-2-2-2H7.63c-.38,0-.72,.21-.89,.55l-3.46,6.93c-.16,.32-.14,.7,.06,1l5.01,7.52h-.33c-1.1,0-2,.9-2,2v5c0,1.1,.9,2,2,2h6.98c.02,.06,.07,.26-.25,.36l-6.88,1.39c-2.37,4.45-5.85,12.04-5.85,18.24,0,5.78,1.14,9.37,2.01,11.28,.49,1.06,1.55,1.72,2.72,1.72H23.96c.83,0,1.62-.34,2.19-.95,1.66-1.76,4.66-5.99,3.58-12.85-1.29-8.19-7.68-14.4-9.41-17.2m3.49,21.79c-.33,1.88-2.02,3.21-3.92,3.21h-7.72c-2.05,0-3.77-1.55-3.98-3.59-.1-1-.17-2.13-.17-3.41,0-16.33,13.79-12.6,15.79,.13,.22,1.41,.19,2.63,0,3.66"/></g></g></svg>