<?xml version="1.0" encoding="UTF-8"?><svg id="Laag_1" xmlns="http://www.w3.org/2000/svg" xmlns:xlink="http://www.w3.org/1999/xlink" viewBox="0 0 24 24"><defs><style>.cls-1{fill:none;}.cls-2{clip-path:url(#clippath);}.cls-3{clip-path:url(#clippath-1);}</style><clipPath id="clippath"><rect class="cls-1" width="24" height="24"/></clipPath><clipPath id="clippath-1"><rect class="cls-1" width="24" height="24"/></clipPath></defs><g class="cls-2"><g class="cls-3"><path d="m4.66,14h7.93l-2.38,3.57c-.34.51-.26,1.19.2,1.6.26.24.6.35.93.32.24-.02.49-.11.69-.27l8.5-6.76c.3-.24.47-.59.47-.97s-.17-.73-.47-.97L12.03,3.77c-.23-.18-.51-.27-.78-.27-.3,0-.6.11-.84.33-.45.41-.54,1.09-.2,1.6l2.38,3.57h-7.93c-1.28,0-1.66,1.41-1.66,2.65s.38,2.35,1.66,2.35"/></g></g></svg>