<?xml version="1.0" encoding="UTF-8"?><svg id="Laag_1" xmlns="http://www.w3.org/2000/svg" xmlns:xlink="http://www.w3.org/1999/xlink" viewBox="0 0 64 64"><defs><style>.cls-1{fill:none;}.cls-2{clip-path:url(#clippath);}.cls-3{clip-path:url(#clippath-1);}</style><clipPath id="clippath"><rect class="cls-1" width="64" height="64"/></clipPath><clipPath id="clippath-1"><rect class="cls-1" width="64" height="64"/></clipPath></defs><g class="cls-2"><g class="cls-3"><path d="M53.96,8.3c-1.51-.35-3.33,1.41-4.05,4.14-.61,2.12-.33,4.04,.33,5.04l-6.24,22.05v7.93l8.35-29.52c1.16-.52,2.4-2.09,2.86-4.06,.72-2.73,.25-5.23-1.26-5.58"/><rect x="30" y="22.75" width="4" height="1.5"/><path d="M32,2c-5.52,0-10,1.36-10,6.6V55.39c0,5.24,4.48,6.6,10,6.6s10-1.36,10-6.6V8.6c0-5.24-4.48-6.6-10-6.6m6.4,19.66c.25,0,.43,.02,.68,.07l.1,.02-.06,.8-.13-.02c-.25-.04-.37-.05-.61-.05-.55,0-.89,.4-.89,1.05,0,.73,.47,.99,.86,.99,.27,0,.41-.01,.68-.06l.14-.03v.78l-.09,.02c-.3,.07-.42,.08-.77,.08-1.09,0-1.77-.66-1.77-1.72,0-1.17,.72-1.92,1.85-1.92m-9.4-3.66h6v16h-6V18Zm3,37.5c-3.04,0-5.5-2.46-5.5-5.5s2.46-5.5,5.5-5.5,5.5,2.46,5.5,5.5-2.46,5.5-5.5,5.5m7.37-27.96h-.92v2.8h-.9v-2.8h-.91v-.78h2.73v.78Z"/></g></g></svg>