<?xml version="1.0" encoding="UTF-8"?><svg id="Laag_1" xmlns="http://www.w3.org/2000/svg" xmlns:xlink="http://www.w3.org/1999/xlink" viewBox="0 0 64 64"><defs><style>.cls-1{fill:none;}.cls-2{clip-path:url(#clippath);}.cls-3{clip-path:url(#clippath-1);}</style><clipPath id="clippath"><rect class="cls-1" y="-1.05" width="64" height="64"/></clipPath><clipPath id="clippath-1"><rect class="cls-1" y="-1.05" width="64" height="64"/></clipPath></defs><g class="cls-2"><g class="cls-3"><path d="M8.84,36.1c.96-.59,2.12-.72,3.19-.35l.05,.02c-.37-1.55-.59-3.15-.59-4.81,0-10.8,8.35-19.62,18.94-20.42h0c.05,.05,.05,.15-.13,.26-.26,.17-2.67,1.07-2.81,1.12l-1.57,2.78c-.38,.67-.22,1.5,.37,1.99,.59,.48,1.44,.47,2.02-.03l8.06-7.03c.36-.31,.56-.77,.53-1.25,0-.48-.21-.93-.58-1.23L28.04,.38c-.59-.48-1.44-.47-2.02,.04-.57,.5-.7,1.35-.3,2l2.07,3.38h0C15.71,7.81,6.5,18.3,6.5,30.95c0,2.33,.32,4.58,.9,6.72,.32-.64,.8-1.19,1.44-1.57"/><path d="M48.04,48.43c-.99-.54-1.69-1.48-1.9-2.59v-.05c-3.69,3.5-8.65,5.66-14.13,5.66-7.03,0-13.22-3.55-16.9-8.94h0c.02-.07,.1-.11,.28-.02,.27,.14,2.26,1.77,2.38,1.87l3.19-.03c.76,0,1.41-.56,1.53-1.32,.12-.75-.32-1.49-1.04-1.73l-10.12-3.46c-.45-.16-.95-.1-1.35,.16-.41,.23-.7,.65-.77,1.11l-1.69,10.56c-.12,.75,.32,1.48,1.04,1.73,.72,.24,1.52-.06,1.88-.73l1.89-3.49v-.02c4.69,5.67,11.75,9.3,19.68,9.3,7.08,0,13.48-2.89,18.1-7.54-.07,0-.14,.02-.21,.02-.64,0-1.28-.17-1.86-.5"/><path d="M61.43,41.04c-.15-.75-.81-1.28-1.58-1.26l-3.97,.11h0c1.04-2.78,1.62-5.79,1.62-8.93,0-11.84-8.07-21.8-19.02-24.67,.4,.6,.64,1.3,.64,2.04,.03,1.13-.43,2.2-1.29,2.94l-.03,.03c8.49,2.5,14.7,10.35,14.7,19.65,0,3.18-.75,6.18-2.04,8.86-.06,.02-.14-.03-.15-.24-.02-.31,.41-2.85,.43-3l-1.62-2.75c-.39-.66-1.19-.94-1.91-.67-.71,.27-1.13,1.02-.98,1.77l2.06,10.5c.09,.47,.39,.87,.81,1.09,.41,.24,.91,.28,1.35,.11l10-3.81c.71-.27,1.13-1.02,.98-1.77"/><path d="M41,39.95v-9h1.5c.28,0,.5-.22,.5-.5v-1.06c0-.28-.12-.55-.33-.74l-10.34-9.4c-.19-.17-.48-.17-.67,0l-10.34,9.4c-.21,.19-.33,.46-.33,.74v1.06c0,.28,.22,.5,.5,.5h1.5v9h7v-7h4v7h7Z"/></g></g></svg>