<?xml version="1.0" encoding="UTF-8"?><svg id="Laag_1" xmlns="http://www.w3.org/2000/svg" xmlns:xlink="http://www.w3.org/1999/xlink" viewBox="0 0 64 64"><defs><style>.cls-1{fill:none;}.cls-2{clip-path:url(#clippath);}.cls-3{clip-path:url(#clippath-1);}</style><clipPath id="clippath"><rect class="cls-1" width="64" height="64"/></clipPath><clipPath id="clippath-1"><rect class="cls-1" width="64" height="64"/></clipPath></defs><g class="cls-2"><g class="cls-3"><path d="M26.99,36.68c-4.18-5.17-7.67-4.74-11.54-9.23-.27-.31-.78-.19-.86,.21-.54,2.49-1.44,9.25,3.32,14.12,5.94,6.08,10.62,5.66,11.67,11.25,0,0,2.89-9.56-2.58-16.35"/><path d="M50.39,25.96c-.07-.52-.81-.59-.97-.08-3.33,10.59-11.84,10.31-13.43,22.11-.11-.01-.41-.09-.4-.67,.06-2.28,.36-5.34,1.21-8.77-.29-.91-.63-1.83-1.03-2.78-1.53-3.82-2.5-6.4-2.56-9.26,13.76-.52,10.49-18.96,9.74-22.47-.07-.31-.39-.47-.68-.35-3.02,1.3-8.41,4.46-13.51,13.12-.16,.02-.29-.09-.21-.42,1.26-5.53,5.21-9.88,8.08-11.89,0,0-.89-1.14-1.7-1.88-.14-.12-.33-.16-.5-.1-2,.75-4.99,2.92-4.99,2.92,0,0-.79-2.69-1.63-4.73-.14-.34-.59-.42-.83-.14-3.68,4.24-12.68,18.8,2.1,25.17-.45,5.62,.77,7.25,2.57,13.62,2.45,7.73-.77,15.85-2.22,20.02-.91,2.62,.8,3.31,2.41,3.83,1.75,.57,3.28,.37,3.78-1.4,.41-1.47,.78-2.86,1.1-4.2,.12-.37,.26-.85,.43-1.46,1.85-6.81,7.99-6.81,11.27-13.15,3.27-6.33,2.76-11.43,1.97-17.04"/></g></g></svg>