<?xml version="1.0" encoding="UTF-8"?>
<svg id="Zwart" xmlns="http://www.w3.org/2000/svg" viewBox="0 0 64 64">
  <path d="M31.07,17.11c-.39.59-.62,1.3-.62,2.06,0,.5.1.98.28,1.42-.87.36-1.49,1.22-1.49,2.23,0,.45.13.87.35,1.23l3.99.21c.28-.38.46-.84.48-1.34.05,0,.11.02.16.02,1.74,0,3.19-1.18,3.62-2.78.55.22,1.15.35,1.78.35,2.54,0,4.6-1.98,4.76-4.48,2.06-.32,3.65-2.08,3.65-4.23s-1.68-4.02-3.83-4.25c-.16-2.48-2.21-4.46-4.73-4.46-1.28,0-2.44.51-3.29,1.33-.69-.61-1.59-.99-2.58-.99-2.17,0-3.92,1.76-3.92,3.92,0,.55.12,1.08.32,1.55-1.27.82-2.11,2.23-2.11,3.85,0,2.04,1.34,3.75,3.17,4.35Z"/>
  <polygon points="27.52 17.78 24.76 17 23.16 19.39 27.63 20.65 27.52 17.78"/>
  <polygon points="42.31 25.71 43.37 27.76 45.29 27.57 45.4 25.4 43.56 24.25 42.31 25.71"/>
  <polygon points="19.15 28.66 17.42 29.66 19.83 31.81 19.15 28.66"/>
  <path d="M6.72,53.58l1.32-.99,1.48,1.11c.94.71,2.91,2.19,4.52,2.19s3.63-1.51,4.48-2.16l1.52-1.14,1.48,1.11c.94.71,2.91,2.19,4.52,2.19s3.63-1.51,4.48-2.16l1.52-1.14,1.48,1.11c.94.71,2.91,2.19,4.52,2.19s3.63-1.51,4.48-2.16l1.52-1.14,1.47,1.1c.94.71,2.89,2.18,4.52,2.19,1.61,0,3.39-1.33,4.69-2.31l1.32-.99,1.32.99c.71.53,2.75,2.15,4.46,2.29l-2.89-5.48c-.65-1.13-1.52-2.11-2.54-2.92l-4.28-3.34c-3.67-2.86-6.65-6.51-8.73-10.68-1.49-2.99-1.53-3.19-4.01-8.87l-8.72,6.02s-.49-.28.09-.87c.3-.31,1.83-1.73,3.45-3.25l-9.19-.49-3.1,7.44c-1.25,3.01-3.08,5.74-5.39,8.04-3.48,3.48-4.79,4.11-10.08,7.57-.92.6-1.63,1.49-2.02,2.52l-1.58,4.22c1.33-.46,1.95-.75,3.9-2.23ZM36.92,37.25c.27.51,2.4,5.56,2.4,5.56l4.49.65s4.31,7.27,4.7,7.95c.47.81,0,.98,0,.98l-5.89-6.8-4.99-.67c-.04-.13-1.41-8-1.46-8.18,0,0,.34-.28.75.5ZM16.46,48.9c.39-.68,4.94-6.89,4.94-6.89l4.12-1.44s2.13-5.05,2.4-5.56c.41-.78.75-.5.75-.5,0,0-1.41,8.04-1.46,8.18l-4.62,1.47-6.13,5.74s-.47-.17,0-.98Z"/>
  <path d="M62.01,58.09c-2.45-.02-4.89-1.94-5.96-2.75-1,.75-3.48,2.75-6,2.75s-4.92-1.94-6-2.75c-1,.75-3.48,2.75-6,2.75s-4.92-1.94-6-2.75c-1,.75-3.48,2.75-6,2.75s-4.92-1.94-6-2.75c-1.38,1.04-3.67,2.75-6,2.75-2.46,0-4.92-1.94-6-2.75-1,.75-3.48,2.75-6,2.75-.35,0-.7-.05-1.04-.12v3.96c.34.04.69.07,1.04.07,2.4,0,4.66-1.08,6-1.86,1.34.79,3.6,1.86,6,1.86,2.86,0,5.73-1.7,6-1.86,1.34.79,3.6,1.86,6,1.86s4.66-1.08,6-1.86c1.34.79,3.6,1.86,6,1.86s4.66-1.08,6-1.86c1.34.79,3.6,1.86,6,1.86s4.66-1.08,6-1.86c1.78,1.05,3.93,1.86,6,1.86.32,0,.64-.02.96-.06v-3.95c-.33.06-.66.1-.99.1Z"/>
</svg>