<?xml version="1.0" encoding="UTF-8"?><svg id="Laag_1" xmlns="http://www.w3.org/2000/svg" xmlns:xlink="http://www.w3.org/1999/xlink" viewBox="0 0 64 64"><defs><style>.cls-1{fill:none;}.cls-2{clip-path:url(#clippath);}.cls-3{clip-path:url(#clippath-1);}</style><clipPath id="clippath"><rect class="cls-1" width="64" height="64"/></clipPath><clipPath id="clippath-1"><rect class="cls-1" width="64" height="64"/></clipPath></defs><g class="cls-2"><g class="cls-3"><path d="M55.3,23.81c-4.58-1.04-10.07-1.92-15.18-2.51-2.28-4.67-4.34-8.88-6.45-13.22-.35-.72-.96-1.08-1.67-1.08s-1.32,.36-1.67,1.08c-2.11,4.34-4.17,8.54-6.45,13.22-5.11,.59-10.6,1.47-15.18,2.51-1.56,.37-2.12,2.47-1.08,3.64,3.14,3.47,6.89,7.43,10.68,11.24-1.14,5.35-2.23,10.46-3.22,15.09-.26,1.57,1.55,2.69,3.06,1.98,4.57-2.05,9.53-4.36,13.86-7.23,4.33,2.87,9.29,5.18,13.86,7.23,1.51,.71,3.31-.41,3.06-1.98-.99-4.63-2.08-9.74-3.22-15.09,3.79-3.81,7.54-7.77,10.68-11.24,1.05-1.17,.48-3.27-1.08-3.64"/></g></g></svg>