<?xml version="1.0" encoding="UTF-8"?><svg id="Laag_1" xmlns="http://www.w3.org/2000/svg" xmlns:xlink="http://www.w3.org/1999/xlink" viewBox="0 0 64 64"><defs><style>.cls-1{fill:none;}.cls-2{clip-path:url(#clippath);}.cls-3{clip-path:url(#clippath-1);}</style><clipPath id="clippath"><rect class="cls-1" width="64" height="64"/></clipPath><clipPath id="clippath-1"><rect class="cls-1" width="64" height="64"/></clipPath></defs><g class="cls-2"><g class="cls-3"><path d="M28,35c-3.87,0-7,3.13-7,7s3.13,7,7,7,7-3.13,7-7-3.13-7-7-7"/><path d="M49.23,21.03c1.76-.76,2.25-2.43,1.48-4.21-.87-2.02-2.41-2.65-4.12-1.91-1.81,.78-2.23,2.48-1.44,4.31,.83,1.92,2.32,2.57,4.08,1.81"/><path d="M61.59,27.67c-.86-1.04-4.3-4.99-6.42-6.3-1.7-1.05-3.18-1.3-4.73,.13-.18,.17-.36,.34-.52,.51h0c-.22,.12-2.8,3.23-3.03,3.49-.49,.56-1.04,1.17-1.56,1.59-.38,.32-1.45,.79-1.91,1-.58,.27-2.66,1.15-3.55,1.61,.23,.31,1.34,1.51,3.55,.88,.99-.28,2.74-.88,3.5-1.44,.52-.4,1.99-2.03,2.76-2.87l6.09,4.6-3.86,5.56c-.37,.49-.58,1.09-.59,1.7l-.3,10.19c1.59-.43,2.76-1.26,2.98-2.89l.88-6.28,5.14-6.21s.16,.07,.07,.28c-.46,1.09-1.45,3.13-1.47,3.18l1.34,11.8c1.62-.57,2.44-1.64,2.47-3.36l.46-13.5c.02-1.35-.44-2.66-1.29-3.7"/><path d="M24.35,25.97c3.74-4.11,10.59-10.64,15.32-11.25,.6-.08,1.01-.58,.97-1.58-.02-.8-.46-1-1.25-.89-6.66,.87-15.05,9.9-17.78,13.05-.78-.73-8.2-7.56-12.16-8.4-1.86-.4-5.02-.7-8.44-.8v27.91H19.14c-.14-.64-.23-1.31-.23-2,0-5.03,4.07-9.1,9.1-9.1s9.1,4.07,9.1,9.1c0,.69-.08,1.36-.23,2h3.64c.47,0,.9-.24,1.14-.65,1.38-2.35,3.47-6.1,1.53-9.02-2.67-4.04-13.7-7.11-18.85-8.36m-6.21,2.03H3v-9.02c2.58,.15,4.69,.4,5.89,.65,2.27,.48,6.47,3.95,9.71,7.3,.39,.4,.1,1.07-.46,1.07"/></g></g></svg>