<?xml version="1.0" encoding="UTF-8"?><svg id="Laag_1" xmlns="http://www.w3.org/2000/svg" xmlns:xlink="http://www.w3.org/1999/xlink" viewBox="0 0 64 64"><defs><style>.cls-1{fill:none;}.cls-2{clip-path:url(#clippath);}.cls-3{clip-path:url(#clippath-1);}</style><clipPath id="clippath"><rect class="cls-1" width="64" height="64"/></clipPath><clipPath id="clippath-1"><rect class="cls-1" width="64" height="64"/></clipPath></defs><g class="cls-2"><g class="cls-3"><path d="M27.5,6.16c-1.18,.51-2.68,1.15-5.87,2.52l-9.56-3.47c-.18-.07-.39-.06-.57,.02l-.79,.34c-.16,.07-.21,.28-.08,.41l5.04,5.26c-.15,.06-.28,.12-.43,.18-2.13,.91-3.9,1.79-5.34,2.58l-5.92-3.02c-.2-.1-.44-.11-.65-.02l-.76,.32c-.16,.07-.21,.27-.09,.4l3.96,4.46c-.47,.34-.82,.63-1.04,.83-.32,.31-.21,.84,.23,.91,2.65,.4,7.91-.7,11.21-1.73l-2.43,8.52c-.06,.21,.15,.39,.35,.31l1.65-.71c.14-.06,.25-.16,.34-.28l7.12-10.71c2.49-1.06,5.32-2.28,6.21-2.66,2.53-1.08,4.09-2.65,3.91-3.8-.17-1.06-2.55-2.35-6.49-.66"/><path d="M58.45,19h-3.45v-4.58c0-.55-.45-.82-1-.82s-1,.26-1,.82v4.58h-15.45c-.3,0-.53,.26-.5,.55l1.9,19c.03,.25,.24,.45,.5,.45h3.55v22h10v-19.95l-6.87-1.66c-.34-.11-.29-.33-.27-.39h10.69c.26,0,.47-.19,.5-.45l1.9-19c.03-.3-.2-.55-.5-.55m-4.75,13h-11.4l-.8-8h13l-.8,8Z"/></g></g></svg>