<?xml version="1.0" encoding="UTF-8"?><svg id="Laag_1" xmlns="http://www.w3.org/2000/svg" xmlns:xlink="http://www.w3.org/1999/xlink" viewBox="0 0 64 64"><defs><style>.cls-1{fill:none;}.cls-2{clip-path:url(#clippath);}.cls-3{clip-path:url(#clippath-1);}</style><clipPath id="clippath"><rect class="cls-1" width="64" height="64"/></clipPath><clipPath id="clippath-1"><rect class="cls-1" width="64" height="64"/></clipPath></defs><g class="cls-2"><g class="cls-3"><path d="M57,30h-1c-.55,0-1,.45-1,1v9c0,.55,.45,1,1,1h1c1.1,0,2-.9,2-2v-7c0-1.1-.9-2-2-2"/><path d="M8,30h-1c-1.11,0-2,.9-2,2v7c0,1.1,.89,2,2,2h1c.55,0,1-.45,1-1v-9c0-.55-.45-1-1-1"/><path d="M48.37,24h-7.66l-1.09,4h8.56c.52,0,.95,.39,1,.91,.42,5.01,.82,7.42,.86,14.09,0,.55-.45,1-1,1H14.97c-.56,0-1.01-.44-1-1,.04-6.66,.44-9.07,.86-14.09,.04-.52,.48-.91,1-.91h8.56l-1.09-4h-7.66c-2.07,0-3.63,2-4.06,4.53-.83,4.89-.47,5.72-1.57,16.47v11s0,3.57,.37,5.07c.13,.54,.72,.93,1.4,.93h4.47c.68,0,1.27-.39,1.4-.93,.22-.91,.31-2.57,.34-3.74,0,0-3.59-.76-4.59-.95-.32-.06-.34-.25-.29-.37H50.91c.03,.13,.01,.3-.35,.39-.16,.04-4.54,.94-4.54,.94,.03,1.17,.12,2.84,.34,3.74,.13,.54,.72,.93,1.4,.93h4.47c.68,0,1.27-.39,1.4-.93,.37-1.49,.37-5.07,.37-5.07v-11c-1.17-10.99-.74-11.58-1.57-16.47-.43-2.53-1.99-4.53-4.06-4.53m-28.37,27.5c0,.28-.22,.5-.5,.5h-5c-.28,0-.5-.22-.5-.5v-3c0-.28,.22-.5,.5-.5h5c.28,0,.5,.22,.5,.5v3Zm16,.5h-8v-2h8v2Zm14-.5c0,.28-.22,.5-.5,.5h-5c-.28,0-.5-.22-.5-.5v-3c0-.28,.22-.5,.5-.5h5c.28,0,.5,.22,.5,.5v3Z"/><path d="M20,22h2.74l-.87-3.19h0l5.39-7.15c.23-.24,.4-.1,.44-.06l-3.7,7.4,3,10.99h4.18c-.02,1.04-.6,1.44-.79,1.53-2.55,1.03-3.98,3.82-3.16,6.6,.59,2.01,2.38,3.53,4.45,3.79,3.5,.45,5.6-2.61,5.11-5.67l-.89,.06c-.47,.03-.88,.35-.98,.81-.24,1.07-1.17,1.91-2.33,1.99-1.58,.11-2.93-1.25-2.72-2.91,.12-.92,.77-1.68,1.62-2.05,1-.42,2.52-1.76,2.54-4.15h2.97l3-11-3.7-7.4s.2-.18,.44,.06l5.39,7.15h0l-.87,3.2h2.75c1.1,0,2-.89,2-2V5c0-1.1-.9-2-2-2H20c-1.11,0-2,.9-2,2v15c0,1.11,.89,2,2,2"/></g></g></svg>