<?xml version="1.0" encoding="UTF-8"?><svg id="Laag_1" xmlns="http://www.w3.org/2000/svg" xmlns:xlink="http://www.w3.org/1999/xlink" viewBox="0 0 64 64"><defs><style>.cls-1{fill:none;}.cls-2{clip-path:url(#clippath);}.cls-3{clip-path:url(#clippath-1);}</style><clipPath id="clippath"><rect class="cls-1" width="64" height="64"/></clipPath><clipPath id="clippath-1"><rect class="cls-1" width="64" height="64"/></clipPath></defs><g class="cls-2"><g class="cls-3"><path d="M58.33,56.21l-11.19-11.19-4-4L21.14,19.02l-4-4L7.73,5.61l-2.12,2.12,11.53,11.53V52.34c0,1.83,1.52,3.62,3.44,3.98,.04,.01,.09,.01,.13,.02,2.15,.31,4.29,.54,6.43,.68,.73,.04,1.47,.07,2.2,.1,1.87,.07,3.73,.07,5.6,0,.73-.03,1.47-.06,2.2-.1,2.14-.14,4.28-.37,6.43-.68,1.49-.22,2.76-1.32,3.3-2.64,.04-.1,.08-.21,.11-.32,.04-.12,.07-.24,.09-.36,.05-.22,.07-.45,.07-.68v-3.08l9.07,9.07,2.12-2.12Zm-26.19-1.84c-1.49,0-2.7-1.21-2.7-2.7s1.21-2.7,2.7-2.7,2.7,1.21,2.7,2.7-1.21,2.7-2.7,2.7m11-8.2H21.14V23.26l22,22v.91Z"/><path d="M21.14,14.17h22v24.02l4,4c0-11.14,0-27.76,0-30.19,0-1.87-1.44-3.7-3.42-4-7.68-1.11-15.41-1.11-23.09,0-1.98,.29-3.49,2.13-3.49,4v.19l4,4v-2.02Z"/></g></g></svg>