<?xml version="1.0" encoding="UTF-8"?><svg id="Laag_1" xmlns="http://www.w3.org/2000/svg" xmlns:xlink="http://www.w3.org/1999/xlink" viewBox="0 0 64 64"><defs><style>.cls-1{fill:none;}.cls-2{clip-path:url(#clippath);}.cls-3{clip-path:url(#clippath-1);}</style><clipPath id="clippath"><rect class="cls-1" width="64" height="64"/></clipPath><clipPath id="clippath-1"><rect class="cls-1" width="64" height="64"/></clipPath></defs><g class="cls-2"><g class="cls-3"><path d="M45,39c-1.11,0-2,.9-2,2s.89,2,2,2,2-.89,2-2-.9-2-2-2"/><path d="M51,41c0,1.11,.89,2,2,2s2-.89,2-2-.9-2-2-2-2,.9-2,2"/><path d="M37.47,6.82c.3-.03,.55-.14,.74-.3,.3,1.13,1.16,1.91,2.52,2.21,2.09,.46,3.62-.74,4.08-2.85,.53-2.4-.45-3.97-2.49-4.41-2.15-.47-3.64,.8-4.11,2.96-.1,.44-.12,.85-.12,1.23-.09,.06-.23,.02-.33-.29-.1-.32-.2-.91-.05-1.78-.16-.05-.34-.07-.53-.05-.87,.08-1.28,.81-1.19,1.78,.09,1.03,.63,1.57,1.48,1.49"/><path d="M52.23,44.76c-2.77,.95-6.37,2.41-9.22,3.61,.07,.43,.08,.89,.01,1.38-.41,2.81-2.82,4.58-6.24,4.74-7.73,.36-12.53-1.56-13.53-1.96-.29-.12-.32-.26-.29-.39h.01c5.6,.95,9.12,1.11,13.46,.41,3.29-.53,4.49-2.11,4.46-3.41-.03-1.27-.93-2.04-2.95-2.11-6.89-.24-10.92-1.01-16.82-1.87-4.1-.6-8.06,.47-11.43,2.63-3.16,2.03-4.04,2.98-4.04,2.98l5.79,11.14,7.48-3.04c.85-.35,1.78-.45,2.69-.3l10.26,2.28c2.29,.38,4.64-.06,6.64-1.22l20.48-12.85s-1-4.02-6.76-2.04"/><path d="M22.2,7.88c2,.2,3.3-1.07,3.51-3.06,.23-2.26-.86-3.6-2.81-3.79-2.06-.2-3.31,1.12-3.52,3.17-.22,2.15,.82,3.48,2.82,3.68"/><path d="M20.12,31.91c-.48,.11-1.31,.23-2.29,.2-.1,.47-.2,.88-.33,1.39-.56,2.12-1.18,4.17-1.45,5.83-.3,1.79,.87,3.4,1.83,3.68,1.2-3.8,1.9-5.83,2.58-7.8,.24,1.97,.41,3.71,.51,4.37,.35,2.31,2.07,3.47,3.03,3.4,0,0-.14-5.46-.27-10.91,0-.39-.02-.78-.02-1.18,1.27-.32,2.22-.81,2.22-.81-.34-4.42-1.28-6.45-1.87-8.32,.23-2.28,.39-4.72,.41-6.65,.55,1.15,1.32,2.54,2.16,3.5,1.07,1.22,2.07,2.32,3.03,3.32,1.36,1.42,2.52,1.15,3.21,.74-.49-.81-4.57-6.1-4.86-6.61-2.21-3.71-2.66-6.28-5.08-6.77-1.05-.21-2.24-.27-3.13,.4-1.19,.91-1.72,2.55-1.61,4.77,.14,2.96,.81,3.75-.08,5.83-.57,1.33-.86,2.02-1.29,3.61-.4,1.5-.81,2.56-1.66,5.72,.74,.55,2.66,1.52,5.62,1.56,.09,.2-.03,.58-.67,.73"/><path d="M34.45,22.39c.27,.44,.13,1.01-.32,1.28l-.5,.3c-1.62,.96-3.5,.62-5.04-.97l-1.22,10.43c.46,.19,.98,.27,1.53,.31,0,0,.05,4.61,.08,5.64,.07,2.66,2.14,3.43,2.75,3.6,.03-.32,.39-6.68,.58-9.44,.8-.09,1.65-.18,2.54-.23,.36,1.64,1.31,5.98,1.49,6.81,.43,2.04,1.92,3.02,3.59,2.88,0,0-.63-6.33-.96-9.47,.36,.06,.73,.14,1.11,.24,0,0-.57-6.35-2.75-10.92,.71-1.64,1.5-3.46,2.22-5.12,.04,.23,.08,.47,.14,.71,.31,1.22,.52,1.85,1.65,3.33,1.57,2.08,2.76,3.57,4.04,2.14h.81c.46,0,.58,.15,.66,.36l1.26,4.84-3.07,7.67c-.22,.54,.11,.97,.66,1.19,.54,.22,1.09,.14,1.31-.4l2-5,.95,3.63s.02,.05,.02,.08c.37,1.07,1.32,1.74,2.49,1.74h1.4c.85,0,1.43-.37,1.67-.96,.17-.41,.13-.87-.43-.98-.24-.05-.47-.05-.87-.05h-1.77c-.31,0-.42-.27-.48-.4l-3.11-11.94s-.02-.07-.03-.1c-.43-1.15-1.38-1.79-2.67-1.79h-1.77c-1.01-1.75-1.18-2.08-1.49-2.74-.21-.46-.23-.47-.39-1.24-.3-1.47-.43-3.47-.61-5.1-.23-2.07-3.63-3.95-5.92-3.23-2.42,.77-4.48,4.56-5.72,7.23,.35,.47,4.14,5.69,4.14,5.69"/></g></g></svg>