<?xml version="1.0" encoding="UTF-8"?><svg id="_01" xmlns="http://www.w3.org/2000/svg" xmlns:xlink="http://www.w3.org/1999/xlink" viewBox="0 0 64 64"><metadata><?xpacket begin="﻿" id="W5M0MpCehiHzreSzNTczkc9d"?>
<x:xmpmeta xmlns:x="adobe:ns:meta/" x:xmptk="Adobe XMP Core 9.1-c001 79.a8d4753, 2023/03/23-08:56:37        ">
   <rdf:RDF xmlns:rdf="http://www.w3.org/1999/02/22-rdf-syntax-ns#">
      <rdf:Description rdf:about=""
            xmlns:dc="http://purl.org/dc/elements/1.1/"
            xmlns:xmp="http://ns.adobe.com/xap/1.0/"
            xmlns:xmpMM="http://ns.adobe.com/xap/1.0/mm/"
            xmlns:stEvt="http://ns.adobe.com/xap/1.0/sType/ResourceEvent#">
         <dc:creator>
            <rdf:Seq/>
         </dc:creator>
         <xmp:MetadataDate>2023-12-05T09:25:16+01:00</xmp:MetadataDate>
         <xmpMM:InstanceID>xmp.iid:58f7eef1-7e59-4f78-b466-34ee82c642bc</xmpMM:InstanceID>
         <xmpMM:DocumentID>xmp.did:58f7eef1-7e59-4f78-b466-34ee82c642bc</xmpMM:DocumentID>
         <xmpMM:OriginalDocumentID>xmp.did:58f7eef1-7e59-4f78-b466-34ee82c642bc</xmpMM:OriginalDocumentID>
         <xmpMM:History>
            <rdf:Seq>
               <rdf:li>
                  <rdf:Description>
                     <stEvt:action>saved</stEvt:action>
                     <stEvt:instanceID>xmp.iid:58f7eef1-7e59-4f78-b466-34ee82c642bc</stEvt:instanceID>
                     <stEvt:when>2023-12-05T09:25:16+01:00</stEvt:when>
                     <stEvt:softwareAgent>Adobe Bridge 2024</stEvt:softwareAgent>
                     <stEvt:changed>/metadata</stEvt:changed>
                  </rdf:Description>
               </rdf:li>
            </rdf:Seq>
         </xmpMM:History>
      </rdf:Description>
   </rdf:RDF>
</x:xmpmeta>
                                                                                                    
                                                                                                    
                                                                                                    
                                                                                                    
                                                                                                    
                                                                                                    
                                                                                                    
                                                                                                    
                                                                                                    
                                                                                                    
                                                                                                    
                                                                                                    
                                                                                                    
                                                                                                    
                                                                                                    
                                                                                                    
                                                                                                    
                                                                                                    
                                                                                                    
                                                                                                    
                           
<?xpacket end="w"?></metadata>
<defs><style>.cls-1{clip-path:url(#clippath);}.cls-2{fill:none;}.cls-2,.cls-3{stroke-width:0px;}.cls-3{fill:#000001;}</style><clipPath id="clippath"><rect class="cls-2" width="64" height="64"/></clipPath></defs><g class="cls-1"><rect class="cls-3" x="14" y="28" width="8" height="6"/><rect class="cls-3" x="26" y="28" width="8" height="6"/><rect class="cls-3" x="38" y="28" width="8" height="6"/><rect class="cls-3" x="14" y="38" width="8" height="6"/><rect class="cls-3" x="26" y="38" width="8" height="6"/><path class="cls-3" d="m33.8,49H10v-26h40v10.8c1.49,0,3.24.02,5,.1V12c0-1.1-.9-2-2-2h-6.92l-1.71,5.75c-.11.33-.37.23-.37.23v-5.98h0c-.01-1.26-.06-3.35-.18-4.12-.11-.67-.23-1.88-1.2-1.88h-2.86c-.97,0-1.18,1.23-1.28,1.89-.13.77-.3,2.85-.4,4.11h-16l-1.71,5.75c-.11.33-.37.23-.37.23v-5.98h0c-.01-1.26-.06-3.35-.18-4.12-.11-.67-.23-1.88-1.2-1.88h-2.86c-.97,0-1.18,1.23-1.28,1.89-.13.77-.3,2.85-.4,4.11h-7.08c-1.1,0-2,.9-2,2v40c0,1.1.9,2,2,2h26.86c-.04-1.41-.06-2.8-.06-4,0-.32,0-.66,0-1Z"/><path class="cls-3" d="m62.43,39.83c-.2-1.17-1.09-2.07-2.26-2.26-3.39-.57-9.04-.57-10.17-.57s-6.78,0-10.17.57c-1.17.2-2.07,1.09-2.26,2.26-.57,3.39-.57,9.04-.57,10.17s0,6.78.57,10.17c.2,1.17,1.09,2.07,2.26,2.26,3.39.57,9.04.57,10.17.57s6.78,0,10.17-.57c1.17-.2,2.07-1.09,2.26-2.26.57-3.39.57-9.04.57-10.17,0-3.39,0-6.78-.57-10.17Zm-11.1,17.17c-2.97,0-5.07-1.45-5.68-4.62h-1.45v-1.62h1.28v-.45c0-.38,0-.79.04-1.15h-1.33v-1.65h1.58c.77-3.21,2.95-4.83,5.92-4.83.83,0,1.5.06,2.39.26v2.24c-1.05-.19-1.6-.28-2.46-.28-1.62,0-2.69.88-3.16,2.61h3.89v1.65h-4.17c-.02.3-.02.6-.02.9,0,.26,0,.49.02.71h4.17v1.62h-3.91c.49,1.75,1.65,2.48,3.06,2.48,1,0,1.58-.09,2.69-.32v2.11h0c-1.18.28-1.73.34-2.86.34Z"/></g></svg>