<?xml version="1.0" encoding="UTF-8"?><svg id="Laag_1" xmlns="http://www.w3.org/2000/svg" viewBox="0 0 64 64"><defs><style>.cls-1{fill:none;}</style></defs><rect class="cls-1" width="64" height="64"/><g><path d="m39.03,38.65c-1.07-.38-2.05-.69-2.8-.91-.15-1.12-.36-2.41-.55-3.48,1.79-2.17,2.89-4.4,3.25-6.7,1.33-1.22,2.07-3.17,2.07-5.56,0-.74,0-2.7-1.23-4.04.3-3.34.52-8.5-.79-10.59-1.6-2.56-3.55-3.82-7.26-2.98-2.44-1.16-4.09-1.88-8.36-.84-2.96.72-6.21,1.91-7.92,3.88-1.65,1.91-1.54,7.22-1.27,10.61-1.16,1.33-1.16,3.23-1.16,3.96,0,2.39.74,4.33,2.06,5.55.38,2.51,1.61,4.91,3.71,7.26-.11.81-.23,1.75-.35,2.73-2.51.73-9.67,3-12.03,5.57-2.87,3.12-4.39,14.89-4.39,14.89h33.82c-1.15-2.25-1.82-4.8-1.82-7.5,0-4.65,1.93-8.85,5.03-11.85Zm-11.65,9.69c-2.3-1.75-6.59-5.53-6.16-9.02.24-1.91.04-.55.82-5.44-2.28-2.2-4.1-4.87-4.1-8.06-1.62-.5-2.04-2.55-2.04-3.82s.32-1.96.77-2.17c.39-.18.77-.05,1.01.09.14.65.25,1.14.29,1.31.21.85,1.02.77,1.02.77v-6.75c2.07-.15,6.19-.75,10.75-3.11l5.25,3.53v6.33s.82.08,1.02-.77c.04-.17.15-.66.29-1.31.24-.14.62-.27,1.01-.09.45.21.77.9.77,2.17s-.42,3.31-2.04,3.82c0,3.7-2.53,6.5-5.34,8.88-.78.66-2.25,1.11-3.72,1.11-1.06,0-2.13-.29-2.93-.63.61.93,1.66,2.07,3.58,2.59,3.15.83,5.46-.91,5.46-.91,0,0,.28,1.91.27,2.42.33,3.49-3.56,7.32-6.01,9.08Z"/><path d="m50.5,37c-7.46,0-13.5,6.04-13.5,13.5s6.04,13.5,13.5,13.5,13.5-6.04,13.5-13.5-6.04-13.5-13.5-13.5Zm0,23.5c-5.51,0-10-4.49-10-10s4.49-10,10-10,10,4.49,10,10-4.49,10-10,10Z"/><path d="m54.83,44.52l-6.05,3.78c-.21.13-.4.34-.5.51l-3.64,6.2c-.26.44-.18.97.18,1.33.36.35.9.41,1.33.14l6.06-3.79c.21-.13.39-.33.5-.51l3.63-6.19c.26-.44.19-.97-.18-1.33-.36-.35-.9-.41-1.33-.14Zm-3.26,7.02c-.27.28-.65.46-1.08.46-.83,0-1.5-.67-1.5-1.5,0-.4.16-.77.42-1.04.27-.29.66-.46,1.08-.46.83,0,1.5.67,1.5,1.5,0,.41-.16.77-.42,1.04Z"/></g></svg>