<?xml version="1.0" encoding="UTF-8"?><svg id="Laag_1" xmlns="http://www.w3.org/2000/svg" xmlns:xlink="http://www.w3.org/1999/xlink" viewBox="0 0 64 64"><defs><style>.cls-1{fill:none;}.cls-2{clip-path:url(#clippath);}.cls-3{clip-path:url(#clippath-1);}</style><clipPath id="clippath"><rect class="cls-1" width="64" height="64"/></clipPath><clipPath id="clippath-1"><rect class="cls-1" width="64" height="64"/></clipPath></defs><g class="cls-2"><g class="cls-3"><path d="M23.4,53.18l-3.4,1.93v-7.11h-4v7.11l-3.42-1.93c-.57-.33-1.31-.2-1.74,.3-.43,.5-.45,1.24-.05,1.76l6.11,7.74c.26,.33,.66,.53,1.08,.53s.82-.19,1.08-.53l6.11-7.74c.41-.52,.39-1.25-.04-1.76-.43-.5-1.16-.63-1.74-.3"/><path d="M58.97,39.94l-7.74-6.11c-.52-.41-1.25-.39-1.76,.04-.5,.43-.63,1.16-.3,1.74l1.93,3.4h-7.11v4h7.11l-1.93,3.42c-.33,.57-.2,1.31,.3,1.74s1.24,.45,1.76,.04l7.74-6.11c.33-.26,.52-.66,.52-1.08s-.19-.82-.52-1.08"/><path d="M34.74,1.85c.76-.15,.92-.26,.92-.41s-.46-.31-1.22-.34c0,0-1.16,.18-1.1,.67,.06,.49,.64,.23,1.41,.08"/><path d="M23.53,24.14l2.58,1.14c.42,.18,.89,.19,1.3,0,1.18-.54,2.81-1.5,3.44-2.65,.12-.22,.15-.48,.14-.74,0-.24-.03-.48-.05-.7-.09-.76-.71-1.36-1.48-1.41-.44-.03-.97-.04-1.53-.03-.42,0-.83,.17-1.13,.47l-3.28,3.28v.64Z"/><path d="M18.59,12.29c.27,.03,1.1-.86,1.31-1.07,.21-.21,.19-1.53,0-1.8-.2-.27-.35-.65-.76-.5-.41,.16-1.48,2.56-1.42,2.86s.58,.48,.86,.51"/><path d="M30.21,2.73c.58-.11,1.6-.07,1.57-.66,0,0-.03-.42-1.87-.1-1.83,.32-2.08,.3-2.08,.73s1.8,.14,2.38,.03"/><path d="M24.07,4.67s1.23-.77,2.21-.76c.98,.01,.56-.78,.56-.78,0,0-.67-.68-2.67,.57-1.99,1.25-1.47,1.4-1.43,1.48,.03,.08,.6,.09,1.34-.51"/><path d="M21.29,7.29c.27-.52,1.07-.67,.72-1.11,0,0-.73-.18-1.41,.58-.67,.76-1.1,1.13-.83,1.53,.27,.4,1.23-.48,1.51-1"/><path d="M9.58,36.72l1.39,1.31c.32,.3,.79,.35,1.17,.13l.4-.24c.34-.2,.44-.49,.16-.77l-3.12-2.07c-.07-.04-.14-.07-.22-.07-.5,.02-2.16,0-2.16,1.1l1.54,.21c.29,.14,.55,.26,.84,.4"/><path d="M8.26,38.78l.46,.29c.57,.36,1.29,.37,1.87,.03h.01l-1.52-1.24c-.29-.24-.64-.38-1.01-.42l-1.58-.18c-.23-.03-.47,.07-.61,.25-.23,.3-.44,.61-.62,.92l2.12,.08c.32,.01,.63,.11,.9,.28"/><path d="M44.35,30.2l-.03-.03c-.49-.46-.51-1.23-.03-1.71l3.3-3.3c.21-.21,.33-.5,.33-.8v-1.94c0-.63-.51-1.14-1.13-1.14h-2.48c-.49,0-.92-.31-1.08-.78l-.35-1.06c-.16-.49,.02-1.02,.45-1.3l3.73-2.49c.54-.36,.87-.97,.87-1.62v-6.02c0-1.14-.55-2.2-1.47-2.86l-3.47-2.48c-.8-.57-1.81-.73-2.74-.43l-12.73,4.11c-.41,.13-.72,.49-.78,.92l-.84,5.97c-.08,.54,.24,1.06,.76,1.24l.99,.33c.46,.16,.78,.59,.78,1.08v1.79c0,.4,.31,.72,.71,.74,1.06,.05,2.04,.21,2.45,.61,.68,.68,.73,2.9,.73,3.46-.01,.08-.03,.16-.04,.24-.79,2.19-4.09,4.01-5.2,4.57-.22,.11-.49,.11-.7-.01l-3.62-2.05c-.32-.14-.53-.46-.53-.82v-4.14c0-.47,.28-.9,.71-1.08h.02c.58-.26,.86-.93,.63-1.52l-1.08-2.76c-.17-.44-.59-.72-1.06-.72-1.52,0-1.66,.12-2.55-.37-.61-.33-1.37-.05-1.61,.59-.24,.65-.39,6.59-1.55,9.84-1.57,4.39-4.86,7.17-4.86,7.17-.08,.2-.13,.41-.16,.62-.04,.27-.09,.65-.14,.95-.05,.31,.06,.63,.28,.85,.85,.83,2.82,2.8,2.82,2.8,.69,.69,.54,1.84-.3,2.33l-2.12,1.24c-.22,.13-.23,.43-.03,.58,1.01,.75,1.89,1.4,1.95,1.45,.17,.12,.05,.5,.05,.5l-4.01-2.22c-.79-.46-1.72-.72-2.63-.7,0,0-4.67,.36-3.44,1.59,.62,.57,1.86,2,2.28,1.86,.28-.09,.64-.39,.64-.39l2.69,1.52c.2,.08,.21-.28,.41-.64,.2-.36,.64-.51,1.02-.35,0,0,2.98,1.3,3.47,1.44,.39,.11,.72,.04,1.02-.31,.26-.31,.93-1.4,.93-1.4,.24-.36,.66-.55,1.09-.5l6.11,.8c.34,.04,.65,.24,.83,.54,.43,.89,.58,1.1,1.07,1.37,.21,.11,6.83,2.92,6.83,2.92,.53,.23,.81,.83,.64,1.38l-.99,3.19c0,.23,0,.45,0,.68l.48,1.52c.15,.47,.59,.8,1.09,.8h3.4c.63-.01,1.13-.52,1.13-1.14-.22-.37-1.15-2.13-1.36-2.24l-.52-.26c-.39-.19-.63-.59-.63-1.02v-.6c0-.3,.12-.59,.33-.8l1.99-1.73c.09-.15,.18-.29,.27-.44l1.52-4.56c.11-.32,.07-.67-.11-.95l-3.75-6.11c-.19-.32-.22-.71-.07-1.05l.2-.46c.2-.47,.69-.74,1.2-.67l4.79,.68c.35,.05,.71-.07,.96-.32l2.27-2.27c.48-.48,.46-1.25-.04-1.71"/><path d="M11.6,45.1l-1.37-.6c-.1-.05-.22-.03-.31,.05l-1.12,.97c-.1,.08-.24,.09-.35,.02l-1.94-1.27c-.16-.11-.37-.11-.54-.02l-.47,.27c-.18,.1-.4,.09-.56-.03l-1.72-1.27c-.15-.11-.36-.07-.47,.09l-1.32,2.12c-.06,.1-.06,.23,.02,.33l.73,.81c.09,.12,.22,.19,.37,.2,0,0,1.47,.39,1.67,.12,.19-.26,.23-1,.23-1l1.12,.05c.06,0,.12,0,.17,.03l3.12,1.67c.1,.06,.23,.04,.32-.03l2.48-2.03c.17-.14,.13-.4-.07-.49"/></g></g></svg>