<?xml version="1.0" encoding="UTF-8"?><svg id="Laag_1" xmlns="http://www.w3.org/2000/svg" xmlns:xlink="http://www.w3.org/1999/xlink" viewBox="0 0 64 64"><defs><style>.cls-1{fill:none;}.cls-2{clip-path:url(#clippath);}.cls-3{clip-path:url(#clippath-1);}</style><clipPath id="clippath"><rect class="cls-1" width="64" height="64"/></clipPath><clipPath id="clippath-1"><rect class="cls-1" width="64" height="64"/></clipPath></defs><g class="cls-2"><polygon points="39.48 28.14 43.35 30.64 44.85 28.32 41.13 25.91 43.89 24.11 32.02 21.2 38.46 30.96 39.48 28.14"/><g class="cls-3"><path d="M61,7H15c-1.1,0-2,.9-2,2V26.48c-.82,10.84-3.25,19.5-9.82,28.95l-1.75,2.51,2.89-1c.06-.02,5.63-1.91,11.51-.96,7.21,1.16,11.04,5.66,11.08,5.7l1.16,1.39,.56-1.72c.02-.06,.8-2.38,2.28-5.36h21.08v-2c0-.55-.45-1-1-1h-2.13c-.49,0-2.29-.16-2.87-2-.39-1.23-.7-2.27-.94-3.08,0,0-1.6-.64-6.18-1.53-.32-.06-.28-.3-.24-.38h22.37c1.1,0,2-.9,2-2V9c0-1.1-.9-2-2-2M15.13,24.6l1.79,5.87c-1,7.35-2.9,13.77-5.82,19.59l-.13,.25-3.8,2.61c5.41-9.02,7.35-17.61,7.96-28.32m6.39,14.07l-1.56-5.11c3.32,3.32,7.12,6.38,10.85,8.74l-3.89,.36c-1.94-1.24-3.76-2.58-5.4-3.98m3.64,5.23c-.59,.8-1.15,1.65-1.69,2.55-1.09-.42-2.22-.76-3.37-1.02,.5-1.38,.94-2.79,1.32-4.24,1.18,.94,2.43,1.85,3.74,2.71m-2,4.58l.94,3.37c-2.11-.99-4.39-1.71-6.82-2.1-.55-.09-1.1-.15-1.64-.2l3.35-2.3c1.44,.26,2.84,.68,4.17,1.23m-5.24-2.92l-3.7,2.54c1.78-4.11,3.12-8.5,4.03-13.28l1.48,4.85c-.49,2.05-1.09,3.99-1.82,5.89m-1.76,8.46c-1.31-.21-2.59-.29-3.81-.29-1.08,0-2.11,.07-3.06,.17l3.53-2.42c1.35-.05,2.73,.02,4.13,.25,2.88,.46,5.51,1.41,7.87,2.78l.98,3.54c-2.05-1.51-5.26-3.31-9.66-4.02m9.95-2.41l-1.07-3.85c.66-1.11,1.36-2.16,2.09-3.12l4.24-.39c-2.4,2.62-4.13,5.3-5.26,7.36m1.74,6.26l-.95-3.42v-.02c1.09-2.28,3.5-6.63,7.56-10.47l3.4-.31c-5.07,3.88-8.41,10.45-10,14.22m6.37-15.89c-4.18-2.3-10.34-6.76-15.46-12.62l-.13-.15-1.51-4.93c3.88,5.58,9.07,9.8,13.28,12.6,3.17,2.11,6.1,3.66,8.25,4.69l-4.45,.41Zm23.78-2.97h-20c-5.57-2.86-14.57-8.48-20-17V12H58v27Z"/></g></g></svg>