<?xml version="1.0" encoding="UTF-8"?><svg id="Laag_1" xmlns="http://www.w3.org/2000/svg" xmlns:xlink="http://www.w3.org/1999/xlink" viewBox="0 0 64 64"><defs><style>.cls-1{fill:none;}.cls-2{clip-path:url(#clippath);}.cls-3{clip-path:url(#clippath-1);}</style><clipPath id="clippath"><rect class="cls-1" width="64" height="64"/></clipPath><clipPath id="clippath-1"><rect class="cls-1" width="64" height="64"/></clipPath></defs><g class="cls-2"><g class="cls-3"><path d="M54,49V15l1.71-7.96c.61-2.84-1.91-5.36-4.75-4.75l-7.96,1.71s-5.38-1-11.08-1-10.92,1-10.92,1l-7.95-1.71c-2.84-.61-5.36,1.91-4.75,4.75l1.7,7.96V49l-1.7,7.95c-.61,2.84,1.91,5.36,4.75,4.75,.17-.04,7.89-1.7,8.07-1.7,3.45,.65,7.07,1,10.81,1,5.72,0,11.08-1,11.08-1l7.96,1.7c2.84,.61,5.36-1.91,4.75-4.75l-1.71-7.95Zm-5,6H15V9H49V55Z"/><path d="M47,11H17V53h30V11Zm-4.1,21.53c.96,.96,1.27,1.69,.96,2.24-.19,.33-.56,.5-1.1,.5-.35,0-.79-.07-1.31-.21,.35,1.31,.25,2.1-.29,2.41-.13,.08-.28,.12-.45,.12-.19,0-.71,0-1.79-1.07-.21,.79-.64,1.95-1.46,1.95-.64,0-1.14-.64-1.49-1.9-.6,.59-1.48,1.32-2.2,.91-.67-.39-.51-1.49-.32-2.24-.01-.06-.08-.15-.42,0-1,.45-2.26,2.67-1.06,4.12,.51,.62,1.63,1.07,2.92,.48,.6,.84,1.38,1.27,2.32,1.27,.67,0,1.25-.23,1.75-.66,.02,.27,.04,.53,.04,.81,0,3.62-4,8.75-4,8.75h-6s-4-5.07-4-8.75c0-1.27,.24-2.41,.55-3.36-.58,.57-1.46,1.29-2.16,.89-.54-.31-.64-1.11-.29-2.41-1.31,.35-2.1,.26-2.41-.29-.31-.54,0-1.28,.96-2.24-1.31-.35-1.95-.83-1.95-1.46s.64-1.11,1.95-1.46c-.96-.96-1.27-1.69-.96-2.23,.32-.55,1.11-.64,2.41-.29-.35-1.31-.25-2.1,.29-2.41,.29-.17,.64-.14,.95,0,.15-.18,.31-.37,.5-.57-1.76-.35-2.63-.89-2.67-1.65-.04-.76,.78-1.38,2.5-1.89-1.35-1.18-1.83-2.09-1.49-2.76,.35-.68,1.39-.8,3.11-.39-.58-1.7-.54-2.73,.1-3.14,.62-.4,1.59,0,2.89,1.22,.35-1.76,.89-2.63,1.65-2.67h0c.78,0,1.39,.83,1.89,2.5,1.41-1.6,2.08-1.6,2.32-1.59,.16,0,.31,.04,.44,.11,.68,.35,.81,1.37,.39,3.12,1.69-.57,2.73-.54,3.14,.09,.41,.64,.01,1.59-1.22,2.89,1.76,.35,2.63,.89,2.67,1.65,.03,.68-.63,1.25-2.01,1.73,.13,.27,.25,.6,.35,.99h0c1.07-1.06,1.59-1.06,1.78-1.06,.16,0,.31,.04,.45,.12,.54,.31,.64,1.11,.29,2.42,1.31-.35,2.1-.26,2.41,.29,.31,.54,0,1.28-.96,2.23,1.31,.35,1.95,.83,1.95,1.46s-.64,1.11-1.95,1.46"/><path d="M27.15,31.51c-.6-.31-.77-1.14-.51-2.52-1.69,.22-2.99,1.65-2.99,3.4,0,1.9,1.54,3.44,3.44,3.44s3.44-1.54,3.44-3.44c0-.83-.3-1.58-.79-2.17-1.1,1.19-1.97,1.61-2.59,1.3"/><path d="M39.02,28.04c-.24,.1-.55,.15-.92,.15-.45,0-1.01-.08-1.65-.24,.58,1.7,.54,2.73-.1,3.14-.51,.33-1.27,.11-2.26-.68-.05,.22-.07,.45-.07,.68,0,1.9,1.54,3.44,3.44,3.44s3.44-1.54,3.44-3.44c0-1.34-.77-2.48-1.88-3.05"/><path d="M35.37,23.14c-.1-2.21-1.98-3.91-4.18-3.81-2.21,.1-3.91,1.97-3.81,4.18,.1,2.21,1.98,3.91,4.18,3.81,2.21-.1,3.91-1.98,3.81-4.18"/></g></g></svg>