<?xml version="1.0" encoding="UTF-8"?><svg id="Laag_1" xmlns="http://www.w3.org/2000/svg" xmlns:xlink="http://www.w3.org/1999/xlink" viewBox="0 0 64 64"><defs><style>.cls-1{fill:none;}.cls-2{clip-path:url(#clippath);}.cls-3{clip-path:url(#clippath-1);}</style><clipPath id="clippath"><rect class="cls-1" width="64" height="64"/></clipPath><clipPath id="clippath-1"><rect class="cls-1" width="64" height="64"/></clipPath></defs><g class="cls-2"><g class="cls-3"><path d="M18.51,10.75c1.78,0,3.52-1.59,3.16-3.46-.34-1.77-1.99-2.85-2.8-5.21-.1-.28-.22-.32-.35-.32s-.26,.04-.36,.32c-.82,2.35-2.46,3.42-2.8,5.21-.36,1.87,1.37,3.46,3.16,3.46"/><path d="M16.62,17.2c-.34-1.77-1.99-2.85-2.8-5.21-.1-.28-.22-.32-.35-.32s-.26,.04-.36,.32c-.82,2.35-2.46,3.42-2.8,5.21-.36,1.87,1.37,3.46,3.16,3.46s3.52-1.59,3.16-3.46"/><path d="M23.53,20.66c1.78,0,3.52-1.59,3.16-3.46-.34-1.77-1.99-2.85-2.8-5.21-.1-.28-.22-.32-.35-.32s-.26,.04-.36,.32c-.82,2.35-2.46,3.42-2.8,5.21-.36,1.87,1.37,3.46,3.16,3.46"/><path d="M53.54,33.78c1.1-9.48-8.8-12.55-13.62-15.34-2.16-1.25-4.1-2.41-6.7-4.34-1.03-.77-1.79-.74-2.3-.12-.53,.63-.56,1.89,.87,3.46,1.52,1.67,3.01,2.86,5.2,4.17,1.1,.66,.72,2.42-.57,2.46h-.03c-9.38,.13-15.77,.18-19.11,.25-1.06,.06-1.89,.94-1.88,2.01h0c.01,1.07,.87,1.93,1.93,1.96l1.69,.02c.68-.69,1.63-1.12,2.68-1.12s1.98,.42,2.66,1.11c.86-.67,1.93-1.09,3.11-1.09,2.8,0,5.07,2.27,5.07,5.07,0,.16-.03,.32-.05,.48,.43-.15,.89-.25,1.37-.25s.95,.1,1.39,.25c-.18-.51-.29-1.05-.29-1.62,0-2.74,2.22-4.97,4.97-4.97s4.97,2.22,4.97,4.97c0,.2-.04,.39-.06,.59,1.92,.94,3.24,2.9,3.24,5.18,0,1.24-.4,2.38-1.07,3.32-.9-1.24-1.76-2.37-2.42-3.38-1.35-2.09-2.55-4.01-3.99-6.91-.57-1.15-1.25-1.47-1.99-1.15-.76,.33-1.36,1.43-.8,3.48,.6,2.18,1.38,3.91,2.74,6.08,.68,1.09-.46,2.49-1.62,1.93h-.03c-2.28-1.14-2.7-1.3-4.94-2.4l-12.19-6.09c-.97-.43-2.11-.02-2.58,.94h0c-.47,.96-.1,2.11,.83,2.62,0,0,12.02,6.3,12.26,6.43,.24,.13,.34,.35,.34,.57,0,.36-.29,.65-.64,.65-.12,0-.32-.08-.43-.13l-14.4-7.02c-.97-.43-2.11-.02-2.58,.93h0c-.47,.96-.1,2.11,.83,2.62,0,0,13.77,7.01,14.25,7.25,.49,.25,.6,.65,.42,.98-.17,.32-.55,.44-.92,.26l-12.27-6.12c-.97-.43-2.11-.02-2.58,.94h0c-.47,.96-.1,2.11,.83,2.62l13.52,7.04c.4,.2,.51,.53,.39,.83-.11,.28-.46,.41-.82,.23l-9-4.47c-.86-.38-1.87-.02-2.29,.83h0c-.42,.85-.09,1.87,.74,2.32,.06,.03,8.34,4.39,10.75,5.6,2.96,1.49,7.01,3.42,11.1,4.03,4.19,.62,7.08-.25,10.26-5.03,3.54-5.32,1.38-10.32-1.34-14.45,2.93-1.39,4.57-3.63,5.14-8.45"/></g></g></svg>