<?xml version="1.0" encoding="UTF-8"?><svg id="Laag_1" xmlns="http://www.w3.org/2000/svg" xmlns:xlink="http://www.w3.org/1999/xlink" viewBox="0 0 64 64"><defs><style>.cls-1{fill:none;}.cls-2{clip-path:url(#clippath);}.cls-3{clip-path:url(#clippath-1);}</style><clipPath id="clippath"><rect class="cls-1" width="64" height="64"/></clipPath><clipPath id="clippath-1"><rect class="cls-1" width="64" height="64"/></clipPath></defs><g class="cls-2"><g class="cls-3"><path d="M45.72,50.95c-.96,.08-1.74,.06-2.59-.02-.78,3.03-.03,4.61,.6,5.94,.59,1.24,.98,2.06-.1,4.38-.29,.63-.02,1.37,.6,1.66,.63,.29,1.37,.02,1.66-.6,1.58-3.38,.79-5.04,.1-6.51-.55-1.16-1.08-2.28-.27-4.84"/><path d="M25.3,45.94c-.9,.08-1.7,.08-2.6,0-.99,3.86,.37,6.03,1.51,7.84,1.28,2.04,2.21,3.52-.07,7.52-.34,.6-.13,1.36,.47,1.7,.6,.34,1.36,.14,1.7-.47,3.02-5.3,1.43-7.85,.01-10.09-1.1-1.74-2.06-3.29-1.03-6.51"/><path d="M59,24.57c0-9.13-7.25-13.57-14.5-13.57-.81,0-1.62,.06-2.42,.18,.73,5.96-1.19,9.72-2.5,11.48-.31,.42-.57,.42-.62,.33,.66-1.99,1.03-4.01,1.03-5.99,0-10.09-8-15-16-15S8,6.91,8,17c0,7.85,5.67,16.13,13.35,22.08l-1.74,2.89c-.33,.56-.06,1.28,.56,1.47,2.37,.72,5.13,.77,7.64,0,.62-.19,.9-.91,.56-1.47l-1.74-2.89c2.14-1.66,4.12-3.51,5.87-5.47,2.17,4.03,5.56,7.83,9.58,10.94l-1.51,2.51c-.34,.56-.06,1.29,.56,1.47,2.1,.61,4.5,.64,6.69,0,.62-.18,.9-.91,.56-1.47l-1.51-2.51c6.96-5.39,12.1-12.88,12.1-19.98M17,15c0,1.29,.22,2.64,.61,4.02l-5.13,1.54c-.32-1.22-.48-2.41-.48-3.56,0-7.09,5.03-9.94,9.31-10.74-2.43,1.67-4.31,4.41-4.31,8.74"/></g></g></svg>