<?xml version="1.0" encoding="UTF-8"?><svg id="Laag_1" xmlns="http://www.w3.org/2000/svg" xmlns:xlink="http://www.w3.org/1999/xlink" viewBox="0 0 64 64"><defs><style>.cls-1{fill:none;}.cls-2{clip-path:url(#clippath);}.cls-3{clip-path:url(#clippath-1);}</style><clipPath id="clippath"><rect class="cls-1" width="64" height="64"/></clipPath><clipPath id="clippath-1"><rect class="cls-1" width="64" height="64"/></clipPath></defs><g class="cls-2"><g class="cls-3"><path d="M23.2,45.47c-.13-.69-.78-1.1-1.4-1.05-.47-.06-1.08,.31-1.3,1.19l-.56,4.7-6.65-5.68c-1.08-.92-2.27-.21-3.12,.79-.85,1-1.51,2.44-.43,3.37l6.65,5.68-4.55,1.29c-.6,.2-1.1,.78-.97,1.47-.02,.7,.56,1.2,1.26,1.22l11.89,.39c.85,0,1.57-.82,1.42-1.66l-2.23-11.69Z"/><path d="M29.81,8.04c1.8,.13,2.93-1.06,3.06-2.88,.15-2.07-.87-3.25-2.62-3.38-1.85-.13-2.93,1.11-3.06,2.98-.14,1.97,.82,3.15,2.62,3.27"/><path d="M55,43h-2.88l-19.84-16.72c.63-8.53,.82-10.22,.46-13.83-.4-4-5.84-4.15-6.37-.92-.62,3.8-.2,6.66-.05,7.49,1.89,2.36,4.17,5.22,4.3,5.38,.21,.26,0,.41-.04,.44l-8.95-7.53c-2.52-2.13-5.73-3.3-9.02-3.3h-3.61c-4.42,0-8,3.58-8,8s3.58,8,8,8h2.88l30.49,25.7c2.52,2.13,5.73,3.3,9.02,3.3h3.61c4.42,0,8-3.58,8-8s-3.58-8-8-8m0,12h-3.61c-2.36,0-4.64-.84-6.45-2.35L13.99,26.55c-.42-.36-.96-.55-1.51-.55h-3.48c-2.21,0-4-1.79-4-4s1.79-4,4-4h3.48c2.44,0,4.81,.86,6.67,2.44l8.57,7.22c.05,1.19,.22,5.13,.35,6.94,.26,3.52,3.27,4.2,3.68,4.28,.06-2.1,.19-4.92,.29-7.57l18.06,15.22c.36,.3,.82,.47,1.29,.47h3.61c2.21,0,4,1.79,4,4s-1.79,4-4,4"/></g></g></svg>