<?xml version="1.0" encoding="UTF-8"?><svg id="Laag_1" xmlns="http://www.w3.org/2000/svg" xmlns:xlink="http://www.w3.org/1999/xlink" viewBox="0 0 64 64"><defs><style>.cls-1{fill:none;}.cls-2{clip-path:url(#clippath);}.cls-3{clip-path:url(#clippath-1);}</style><clipPath id="clippath"><rect class="cls-1" width="64" height="64"/></clipPath><clipPath id="clippath-1"><rect class="cls-1" width="64" height="64"/></clipPath></defs><g class="cls-2"><g class="cls-3"><path d="M56.69,7.14c-4.75-4.75-10.98-6.21-17.51,.32-4.66,4.66-7.66,11.59-7.29,16.91l-4.92,5.19-3.52-3.52-11.46,11.46,14.12,14.12,11.46-11.46-3.3-3.3,3-2.84c-2.84-1.52-3.57-3.55-3.76-4.11-.13-.38-.07-.64,.14-.63,.02,0,.04,.02,.06,.03,.13,.15,.24,.31,.38,.45,4.75,4.75,15.76,1.43,22.29-5.1,6.53-6.53,5.06-12.76,.32-17.51"/><path d="M5.21,52.55c-2.43,2.39-2.61,4.58-.57,6.65,2.07,2.03,4.26,1.86,6.65-.57l9.7-9.19-6.59-6.59-9.19,9.7Z"/></g></g></svg>