<?xml version="1.0" encoding="UTF-8"?><svg id="Laag_1" xmlns="http://www.w3.org/2000/svg" xmlns:xlink="http://www.w3.org/1999/xlink" viewBox="0 0 64 64"><defs><style>.cls-1{fill:none;}.cls-2{clip-path:url(#clippath);}.cls-3{clip-path:url(#clippath-1);}</style><clipPath id="clippath"><rect class="cls-1" width="64" height="64"/></clipPath><clipPath id="clippath-1"><rect class="cls-1" width="64" height="64"/></clipPath></defs><g class="cls-2"><g class="cls-3"><path d="M17.34,33c-.16-.79-.84-1.35-1.63-1.36-3.25-.03-5.16,2.33-5.97,5.49l1.34,6.78s-.23,.11-.39-.17l-2.18-5.28c-.7,.33-1.21,.79-1.53,1.38-.73,1.32-.62,3.2-.22,5.27,.45,2.29,1.16,4.23,2.61,5.07,.68,.4,1.54,.54,2.6,.36,1.98,3.12,4.89,5.04,8.19,3.64,.72-.31,1.14-1.09,.99-1.88l-3.81-19.3Z"/><path d="M47.13,18.25c.2,.23,.41,.45,.61,.69,2.25,2.84,3.38,6.6,3.4,11.23,1.14,.45,2.16,1.18,3,2.19,.32,.38,.6,.8,.85,1.23,.65-7.12-.73-12.87-4.12-17.14-5.75-7.24-15.48-7.87-19.4-7.8-4.63,.08-13.17,1.21-18.39,7.94-3.29,4.23-4.62,9.9-4.01,16.89,.24-.39,.49-.77,.78-1.13,.85-1.03,1.89-1.78,3.06-2.22,.02-4.56,1.13-8.27,3.32-11.09,.14-.18,.29-.34,.44-.51,1.35,.16,2.75-.19,3.92-1.04,3.21-2.32,6.58-2.69,10.89-2.75v-.11l.03,.11c4.36-.05,7.82,.25,11.17,2.54,1.32,.9,2.91,1.23,4.44,.96"/><path d="M57.01,39.84c-.32-.58-.83-1.05-1.53-1.38l-2.18,5.28c-.16,.28-.34,.2-.39,.17l1.34-6.78c-.81-3.16-2.72-5.52-5.97-5.49-.79,0-1.47,.57-1.63,1.36l-3.81,19.3c-.16,.79,.26,1.57,.99,1.88,3.3,1.39,6.21-.52,8.19-3.64,1.06,.18,1.92,.04,2.6-.36,1.44-.84,2.15-2.78,2.61-5.07h0c.41-2.07,.51-3.95-.22-5.27"/></g></g></svg>