<?xml version="1.0" encoding="UTF-8"?><svg id="Laag_1" xmlns="http://www.w3.org/2000/svg" xmlns:xlink="http://www.w3.org/1999/xlink" viewBox="0 0 64 64"><defs><style>.cls-1{fill:none;}.cls-2{clip-path:url(#clippath);}.cls-3{clip-path:url(#clippath-1);}</style><clipPath id="clippath"><rect class="cls-1" width="64" height="64"/></clipPath><clipPath id="clippath-1"><rect class="cls-1" width="64" height="64"/></clipPath></defs><g class="cls-2"><g class="cls-3"><path d="M32.71,8.1c-4.15,0-7.51,2.98-7.51,6.65,0,5.35,4.54,9.88,4.54,16.6s-4.54,11.24-4.54,16.6c0,3.67,3.36,6.65,7.51,6.65s7.51-2.98,7.51-6.65c0-5.36-4.54-9.89-4.54-16.6s4.54-11.24,4.54-16.6c0-3.67-3.36-6.65-7.51-6.65"/><path d="M50.17,27.27c-.33-1.1-1.78-2.16-3.01-2.38-1.18-.19-2.33-.35-3.47-.5,1.2-2.77,2.53-5.91,2.53-9.64,0-6.98-6.06-12.65-13.51-12.65s-13.51,5.67-13.51,12.65c0,3.73,1.34,6.87,2.53,9.64-1.14,.15-2.28,.31-3.47,.5-1.23,.21-2.68,1.27-3.01,2.38-.79,2.66-.79,5.5,0,8.17,.33,1.1,1.78,2.16,3.01,2.38,.73,.12,1.42,.21,2.13,.31,.92-1.48,2.49-4.02,2.64-4.24,.15-.23,.31-.18,.39-.13-.36,1.45-.98,2.89-1.66,4.48-1.2,2.79-2.57,5.95-2.57,9.72,0,6.98,6.06,12.65,13.51,12.65s13.51-5.67,13.51-12.65c0-3.76-1.36-6.93-2.57-9.72-.68-1.59-1.3-3.03-1.66-4.48,.08-.05,.23-.1,.39,.13,.15,.22,1.72,2.76,2.64,4.24,.71-.1,1.41-.19,2.13-.31,1.23-.22,2.69-1.27,3.01-2.38,.79-2.66,.79-5.5,0-8.17m-10.18-4.38c-1.13,2.62-2.3,5.33-2.3,8.46s1.17,5.84,2.3,8.47c1.1,2.55,2.24,5.2,2.24,8.13,0,4.77-4.27,8.65-9.51,8.65s-9.51-3.88-9.51-8.65c0-2.94,1.14-5.58,2.24-8.13,1.13-2.62,2.3-5.33,2.3-8.47s-1.17-5.84-2.3-8.46c-1.1-2.55-2.24-5.2-2.24-8.14,0-4.77,4.27-8.65,9.51-8.65s9.51,3.88,9.51,8.65c0,2.94-1.14,5.58-2.24,8.14"/></g></g></svg>