<?xml version="1.0" encoding="UTF-8"?><svg id="Laag_1" xmlns="http://www.w3.org/2000/svg" xmlns:xlink="http://www.w3.org/1999/xlink" viewBox="0 0 64 64"><defs><style>.cls-1{fill:none;}.cls-2{clip-path:url(#clippath);}.cls-3{clip-path:url(#clippath-1);}</style><clipPath id="clippath"><rect class="cls-1" width="64" height="64"/></clipPath><clipPath id="clippath-1"><rect class="cls-1" width="64" height="64"/></clipPath></defs><g class="cls-2"><g class="cls-3"><path d="M31.65,41.95c-15.01,3.46-17.76,3.42-24.84,.7h0s-.42,.05-.21,.67c.89,2.67,8.29,5.88,19.73,3.86,8.19-1.45,14.44-1.73,18.42,.93,2.48,1.66,2.2,4.01,1.91,5.88,9.01,1.78,6.72-17.05-15.02-12.04"/><path d="M31.65,41.95c-15.01,3.46-17.76,3.42-24.84,.7h0s-.42,.05-.21,.67c.89,2.67,8.29,5.88,19.73,3.86,8.19-1.45,14.44-1.73,18.42,.93,2.48,1.66,2.2,4.01,1.91,5.88,9.01,1.78,6.71-17.05-15.02-12.04m-5.48-15.64c4.55-2.44,7.03-7.96,6.51-10.27-.08-.34-.3-.29-.38-.26-1.37,1.53-3.14,3.62-4.77,4.98-5.34,4.41-9.54,2.8-10.56,.89-.19-.06-.38,.09-.49,.56-.91,3.92,4.4,6.99,9.68,4.1m21.58,2.97l-1.6,2.78c.67,.39,1.13,1.1,1.13,1.94h3.2c0-2.01-1.1-3.77-2.72-4.71m-35.54,5.89c2.34,2.14,5.53,4.36,9.34,3.81,5.11-.73,6.87-7.49,5.74-7.54C14.89,40.79,10.13,20.34,1.17,25.94c-.45,.28-.22,.59-.22,.59h-.01c5.85,1.22,7.42,5.13,11.28,8.64m50.4,6.84l-15.97-27.04c-.36-.6-1-.97-1.7-.97h0c-.7,0-1.35,.38-1.7,.99l-14.76,25.43c.85-.19,1.74-.39,2.68-.61,.58-.13,1.39-.3,2.35-.45l11.45-19.73,12.62,21.37h-9.79c1.62,.88,3.09,2.11,4.27,3.79,.05,.07,.08,.14,.13,.21h8.73c.71,0,1.36-.38,1.72-1,.35-.62,.35-1.38-.01-1.99m-23.03-8.02h3.2c0-.83,.46-1.55,1.13-1.94l-1.6-2.78c-1.63,.94-2.73,2.7-2.73,4.71m5.45,2.25c-.41,0-.79-.12-1.12-.31l-1.6,2.78c.8,.46,1.73,.73,2.72,.73s1.92-.27,2.72-.73l-1.6-2.78c-.33,.19-.71,.31-1.12,.31m0-3.53c-.71,0-1.29,.58-1.29,1.28s.58,1.28,1.29,1.28,1.28-.57,1.28-1.28-.57-1.28-1.28-1.28"/></g></g></svg>