<?xml version="1.0" encoding="UTF-8"?><svg id="Laag_1" xmlns="http://www.w3.org/2000/svg" xmlns:xlink="http://www.w3.org/1999/xlink" viewBox="0 0 64 64"><defs><style>.cls-1{fill:none;}.cls-2{clip-path:url(#clippath);}.cls-3{clip-path:url(#clippath-1);}</style><clipPath id="clippath"><rect class="cls-1" width="64" height="64"/></clipPath><clipPath id="clippath-1"><rect class="cls-1" width="64" height="64"/></clipPath></defs><g class="cls-2"><g class="cls-3"><path d="M25.24,31.75c4.03,.86,6.36-1.44,6.36-1.44,0,0-1.09-4.65-5.28-5.17-2.96-.37-5.08,.53-6.07,1.09-.37,.21-.52,.66-.33,1.04,.62,1.22,2.26,3.83,5.32,4.48"/><path d="M31.5,22.97c1.43-3.83,3.47-6.79,5-8.61,.28-.33,.48-.21,.54-.17v.03c-3.36,8.31-3.55,15.03-2.4,20.96-3.22,.83-5.7,3.8-8.64,4.18-2.41,.31-4.65,1.11-5.74,2.87,.78,.11,1.54,.22,2.27,.32,4.86,.7,8.7,1.26,14.7,1.43,2.22,.06,3.52,.79,4.27,1.65l.21-.09c4.12-1.76,7.47-3.1,9.94-3.97,.28-.1,.55-.18,.81-.25-1.41-1.41-3.04-2.5-4.65-2.38-3.69,.27-6.17-2.17-8.88-3.35-1.14-3.28-1.68-7.34-1.29-11.5,8.3-1,11.71-13.37,6.06-21.69-.38-.56-1.23-.51-1.56,.08-5.59,9.97-11.54,6.43-13.39,13.49-.66,2.52,.36,5.42,2.73,7"/><path d="M52.39,43.65c-2.94,1.03-6.77,2.62-9.8,3.91,.08,.46,.1,.95,.02,1.47-.42,2.99-2.97,4.9-6.62,5.1-8.24,.43-13.37-1.57-14.43-2-.31-.12-.34-.27-.31-.41h.01c5.97,.98,9.73,1.12,14.35,.35,3.51-.59,4.77-2.28,4.73-3.66-.04-1.35-1-2.16-3.16-2.22-7.34-.21-11.64-1-17.94-1.88-4.38-.61-8.59,.55-12.16,2.88-3.36,2.18-4.28,3.21-4.28,3.21l6.24,11.83,7.95-3.29c.91-.38,1.9-.49,2.87-.34l10.95,2.36c2.44,.39,4.94-.09,7.07-1.35l21.73-13.83s-1.1-4.27-7.21-2.13"/></g></g></svg>