<?xml version="1.0" encoding="UTF-8"?><svg id="Laag_1" xmlns="http://www.w3.org/2000/svg" xmlns:xlink="http://www.w3.org/1999/xlink" viewBox="0 0 64 64"><defs><style>.cls-1{fill:none;}.cls-2{clip-path:url(#clippath);}.cls-3{clip-path:url(#clippath-1);}</style><clipPath id="clippath"><rect class="cls-1" width="64" height="64"/></clipPath><clipPath id="clippath-1"><rect class="cls-1" width="64" height="64"/></clipPath></defs><g class="cls-2"><g class="cls-3"><path d="M35.29,43.95c1.22,1.5,3.42,1.73,4.92,.51,1.5-1.22,1.73-3.42,.52-4.92-.61-.75-1.46-1.18-2.35-1.27-.53-2.08-.83-4.58,.1-5.92,.8-1.16,3.61-1.25,6.28-.92,.12,.5,.33,.99,.68,1.41,1.22,1.5,3.42,1.73,4.92,.51,1.5-1.22,1.73-3.42,.51-4.92-.86-1.06-2.22-1.48-3.47-1.2-1.4-1.99-2.44-4.23-1.67-5.31,.81-1.13,3.46-1.62,6.08-1.71,.13,.41,.33,.8,.61,1.15,1.22,1.5,3.42,1.73,4.92,.51s1.73-3.42,.51-4.92c-.99-1.22-2.63-1.58-4.01-1.03C27.26-3.09,14.08,3.12,9.57,6.77c-4.5,3.65-13.29,15.25-.25,45.13-1.22,1.25-1.34,3.24-.22,4.63,1.22,1.5,3.42,1.73,4.92,.52,1.5-1.22,1.73-3.42,.51-4.92-.21-.26-.45-.46-.71-.64,.61-2.74,1.7-5.6,3.08-6.2,1.2-.52,3.16,.93,4.81,2.7-.53,1.17-.41,2.58,.45,3.65,1.22,1.5,3.42,1.73,4.92,.52,1.5-1.22,1.73-3.42,.52-4.92-.34-.42-.75-.72-1.21-.94,.23-2.68,.91-5.39,2.2-5.93,1.53-.64,3.97,.22,5.92,1.19-.05,.85,.19,1.71,.76,2.42m-7.84-6.38c-1.24,.52-2.12,1.57-2.73,2.85-.2-.02-.41-.03-.61-.05-1.19-.12-2.37-.31-3.54-.51,.87-1.72,1.65-3.49,2.32-5.28,.6,.09,1.2,.17,1.8,.23,1.34,.14,2.67,.21,4,.23-.28,.82-.58,1.62-.9,2.42-.11,.04-.23,.06-.35,.11M5.94,19.12c.9,.74,1.81,1.45,2.77,2.09-.28,1.98-.73,3.91-1.33,5.78-.62-.38-1.23-.78-1.83-1.19-.1-2.3,0-4.56,.39-6.68m2.88-7.2c.28,2.31,.33,4.65,.15,7.02-.87-.62-1.7-1.31-2.51-2.01,.53-1.82,1.3-3.51,2.36-5.01m2.16,1.53c1.77,1.41,3.68,2.6,5.68,3.55-.02,1.21-.09,2.42-.22,3.63-.08,.76-.18,1.51-.3,2.26-1.84-.74-3.6-1.64-5.28-2.68,0-.05,.02-.11,.02-.16,.23-2.22,.26-4.42,.1-6.6m28.22-2.81c.15,1.76,.23,3.54,.23,5.32-1.81,.72-3.69,1.24-5.61,1.55,.05-1.91,0-3.8-.13-5.69,1.62-.33,3.2-.85,4.74-1.55,.26,.12,.52,.24,.78,.37m-3.19,19.99c-.42,.6-.69,1.28-.87,2-1.23,.17-2.46,.31-3.71,.37,.54-1.87,1-3.77,1.36-5.7,1.99-.18,3.94-.52,5.86-1.02-.14,.9-.31,1.79-.49,2.68-.87,.37-1.62,.9-2.16,1.67m-10.32-5.36c-.09,0-.17-.02-.26-.03,.32-1.84,.55-3.69,.68-5.56,1.08,.12,2.17,.18,3.26,.18,.79,0,1.58-.03,2.37-.1-.05,.81-.11,1.63-.2,2.44-.11,1.08-.26,2.15-.43,3.21-1.79,.09-3.6,.04-5.41-.15m5.05,2.17c-.37,1.9-.84,3.78-1.4,5.61-1.47,0-2.96-.08-4.44-.23-.45-.05-.89-.11-1.33-.17,.59-1.79,1.09-3.6,1.48-5.44,.14,.02,.29,.04,.43,.06,1.31,.14,2.62,.2,3.93,.2,.45,0,.89-.01,1.33-.03m-4.67-15.42c1.09,.16,2.19,.25,3.29,.25,.78,0,1.57-.06,2.35-.14,.13,1.87,.16,3.75,.11,5.64-1.76,.15-3.54,.14-5.33-.05-.09,0-.18-.02-.28-.04,.06-1.89,.02-3.78-.13-5.67m7.09,13.24c.14-.94,.27-1.89,.37-2.84,.1-.97,.18-1.93,.23-2.9,1.91-.29,3.8-.76,5.64-1.43-.05,1.63-.14,3.27-.31,4.91-.04,.38-.1,.76-.15,1.14-1.89,.54-3.82,.91-5.78,1.12m.36-15.44c-.06-.57-.13-1.14-.21-1.71,.87,.32,1.74,.67,2.6,1.03-.78,.28-1.58,.51-2.38,.68m-1.98,.32c-1.9,.21-3.81,.14-5.68-.19-.16-1.32-.38-2.63-.64-3.94,1.97,.27,3.96,.75,5.95,1.37,.14,.91,.27,1.83,.37,2.75m-7.33,7.25c-1.93-.36-3.8-.92-5.57-1.67-.02-2.19-.2-4.38-.54-6.55,1.86,1.11,3.87,1.93,5.94,2.44,.17,1.92,.23,3.85,.18,5.77m-5.6,.45c1.79,.7,3.64,1.21,5.52,1.55-.12,1.87-.35,3.73-.68,5.57-1.86-.31-3.67-.77-5.43-1.37,.32-1.9,.51-3.82,.59-5.75m4.46,9.08c-.4,1.83-.9,3.63-1.5,5.41-1.85-.34-3.66-.79-5.43-1.37,.62-1.77,1.12-3.57,1.51-5.39,1.76,.58,3.57,1.03,5.42,1.35m-7.29-2.02c-.38,1.85-.89,3.65-1.51,5.42-1.76-.66-3.47-1.43-5.12-2.32,.61-1.83,1.08-3.71,1.4-5.63,1.67,.98,3.41,1.83,5.22,2.53m-9.07,4.01c-.21,.54-.45,1.07-.69,1.6-.11-.74-.21-1.48-.28-2.22,.33,.21,.64,.43,.97,.62m.24,6.47c-.12-.51-.23-1.03-.34-1.55,.69-1.28,1.33-2.58,1.86-3.93,1.65,.87,3.35,1.64,5.1,2.3-.7,1.74-1.51,3.42-2.44,5.05-1.43-.55-2.82-1.19-4.19-1.87m3.14,3.6c-.48,.76-1,1.5-1.54,2.23-.34-1.07-.66-2.18-.97-3.31,.83,.38,1.66,.75,2.51,1.08m5.35-6.14c1.77,.58,3.59,1.05,5.45,1.4-.68,1.78-1.46,3.52-2.35,5.22-1.88-.41-3.72-.93-5.52-1.54,.92-1.65,1.73-3.35,2.42-5.08m15.38,2.19c1.37-.04,2.73-.17,4.08-.34-.02,1.33,.18,2.69,.47,3.89-1.58-.74-3.48-1.39-5.31-1.44,.26-.7,.52-1.4,.76-2.11m9.49-6.65c.17-.9,.33-1.8,.46-2.71,.7-.23,1.39-.49,2.08-.76,.38,1.22,1.03,2.4,1.7,3.44-1.35-.15-2.84-.18-4.24,.03m2.99-8.2c-.6,.84-.82,1.77-.8,2.74-.48,.2-.96,.38-1.45,.55,.01-.09,.03-.18,.03-.26,.21-1.98,.31-3.96,.35-5.92,1.67-.75,3.27-1.69,4.81-2.78,.25,.15,.49,.3,.73,.45,.01,.98,0,1.95-.02,2.93-1.51,.45-2.85,1.16-3.65,2.29m-2.02-8.49c1.05,.55,2.08,1.12,3.06,1.69-.94,.62-1.91,1.2-2.91,1.69-.02-1.13-.08-2.26-.15-3.39m7.68,5.75c0-.4,.01-.81,.01-1.21,.54,.35,1.06,.7,1.55,1.03-.51,.04-1.03,.1-1.56,.19M23.14,5.81c.26,1.22,.49,2.44,.65,3.67-2.21-.64-4.32-1.68-6.23-3.08-.02-.06-.03-.13-.05-.2,1.35-.31,2.76-.45,4.2-.45,.47,0,.94,.03,1.42,.06m-8.08,1.16c.24,.21,.49,.42,.74,.62,.48,2.35,.76,4.75,.84,7.18-2.17-1.13-4.18-2.55-5.99-4.23-.03-.21-.08-.41-.12-.62,.29-.28,.6-.56,.92-.82,1.12-.91,2.33-1.61,3.6-2.13m-3.7,42.01c-.23-.56-.46-1.14-.7-1.75,.38,.13,.77,.24,1.16,.36-.17,.46-.33,.93-.47,1.39m1.29-3.23c-.97-.29-1.93-.61-2.89-.95-.15-.42-.3-.85-.45-1.29,.96-1.24,1.86-2.51,2.67-3.83,1.81,.63,3.66,1.16,5.55,1.6-.18,.31-.37,.61-.56,.92-.42,.04-.84,.14-1.26,.32-1.32,.57-2.31,1.79-3.07,3.23m6.48-3.28c.15-.25,.31-.5,.45-.76,1.42,.27,2.86,.49,4.32,.65,.03,0,.07,0,.1,0-.28,1.02-.45,2.08-.55,3.08-1.2-1.22-2.72-2.43-4.32-2.97"/><path d="M54.98,47.7c-.49-.92-1.9-3.33-3.18-3.47-1.48-.21-5.16-.22-7.28,.48-.21,.07-.35,.35-.28,.57,0,.14,.85,1.98,1.2,2.76-2.97,.98-4.67,2.4-6.37,2.4-2.4,0-4.03-2.06-5.94-3.26-.35-.21-.78,.07-.78,.49,.07,2.9,3.1,5.24,3.1,5.94s-2.97,2.82-2.98,5.79c0,.42,.42,.71,.78,.5,1.91-1.2,3.4-3.11,5.87-3.03,1.56,0,3.04,.92,5.3,1.78,0,0-1.77,1.48-2.05,1.76-.28,.28-.2,.72,.14,.85,.31,.12,1.87,.81,3.79,.26,.86-.24,1.79-.74,2.72-1.67,.79,.13,3.99,.53,7.72-.86,3.32-1.24,5.87-3.42,5.87-5.34,0-2.26-3.46-4.88-7.63-5.95m.51,6.43c-.85,0-1.62-.78-1.62-1.63s.78-1.62,1.63-1.62c.85,0,1.62,.78,1.62,1.63,0,.85-.78,1.62-1.63,1.62"/></g></g></svg>