<?xml version="1.0" encoding="UTF-8"?><svg id="Laag_1" xmlns="http://www.w3.org/2000/svg" xmlns:xlink="http://www.w3.org/1999/xlink" viewBox="0 0 64 64"><defs><style>.cls-1{fill:none;}.cls-2{clip-path:url(#clippath);}.cls-3{clip-path:url(#clippath-1);}</style><clipPath id="clippath"><rect class="cls-1" width="64" height="64"/></clipPath><clipPath id="clippath-1"><rect class="cls-1" width="64" height="64"/></clipPath></defs><g class="cls-2"><g class="cls-3"><path d="M34.95,37.19c-.17-.75-.26-1.61-.26-1.61,1.99-2.22,3.47-4.91,3.97-8.46,1.9-.59,2.28-2.96,2.28-4.44s-.26-2.28-.79-2.53c-.26-.12-.51-.12-.73-.07,.19-3.09,.38-9.2-.91-11.5-1.41-2.51-3.28-3.16-6.53-2.34-2.14-1.13-3.59-2.25-7.34-1.23-2.6,.71-5.45,1.87-6.95,3.8-1.62,2.09-1.31,8.17-1.03,11.29-.24-.07-.52-.08-.81,.06-.53,.25-.79,1.05-.79,2.53s.38,3.86,2.28,4.44c.61,5.08,3.15,8.06,6.28,10.69,.83,.7,2.32,1.06,3.87,1.13,.14,.25-.03,.44-.58,.63-.93,.31-3.08,.62-6.22-1.01-.03-.01-.04-.03-.07-.04-.38,.1-1.51,.48-2.15,.66-3.28,.96-9.28,2.94-11.38,5.16-2.94,3.1-4.09,14.66-4.09,14.66h32v-11.87c0-1.49,.81-2.8,2-3.52v-1.11c0-1.13,.16-2.23,.42-3.28-.32-.09-.62-.17-.88-.25-.84-.23-1.4-.94-1.59-1.79"/><path d="M61.86,46h-.86v-3.5c0-5.79-4.71-10.5-10.5-10.5s-10.5,4.71-10.5,10.5v3.5h-.86c-.63,0-1.14,.51-1.14,1.13v13.8c0,.55,.4,1.02,.94,1.12,1.81,.32,6.1,.95,11.56,.95s9.75-.63,11.56-.95c.54-.1,.94-.56,.94-1.12v-13.8c0-.63-.51-1.13-1.14-1.13m-9.86,8.62v3.38h-3v-3.38c-.66-.47-1.1-1.24-1.1-2.12,0-1.44,1.16-2.6,2.6-2.6s2.6,1.16,2.6,2.6c0,.88-.44,1.65-1.1,2.12m4-8.62h-11v-3.5c0-3.03,2.47-5.5,5.5-5.5s5.5,2.47,5.5,5.5v3.5Z"/></g></g></svg>