<?xml version="1.0" encoding="UTF-8"?><svg id="Laag_1" xmlns="http://www.w3.org/2000/svg" xmlns:xlink="http://www.w3.org/1999/xlink" viewBox="0 0 64 64"><defs><style>.cls-1{fill:none;}.cls-2{clip-path:url(#clippath);}.cls-3{clip-path:url(#clippath-1);}</style><clipPath id="clippath"><rect class="cls-1" width="64" height="64"/></clipPath><clipPath id="clippath-1"><rect class="cls-1" width="64" height="64"/></clipPath></defs><g class="cls-2"><g class="cls-3"><path d="M63.08,32c-2.4-1.96-5.58-4.6-7.88-6.8l3.21-5.61c-4.16-1.01-8.34-2.12-12.75-3.68,1.06-4.23,1.66-6.57,2.27-8.98-2.56,.4-8.65,1.4-17.53,2.22l-1.69-5.6c-7.21,3.71-14.59,7.2-23.23,10.66l3.6,10.24c-3.12,3.08-5.59,5.43-7.97,7.64l8.23,9.33c-.19-1.53-.31-3.16-.33-4.91l-3.73-4.22c2.37-2.24,8.27-7.89,13.31-13.33l7.5,9.16c.24-1.06,.91-1.96,1.81-2.52l-9.19-11.23c-1.5,1.65-3.41,3.79-7.29,7.71l-2.17-6.18c2.88-1.2,10.06-4.25,17.62-8.06l5.18,17.16h3.13l-3.9-12.93c2.59-.25,7.42-.74,12.63-1.5-.81,3.21-2.36,9.37-3.61,14.46,1.1,.08,2.07,.61,2.75,1.41,.58-2.4,1.25-5.08,1.88-7.62,3.43,1.2,6.85,2.17,8.91,2.71l-9.71,17.01c.15,1.66,.45,3.19,.84,4.58l8.71-15.25c1.72,1.61,3.8,3.38,5.09,4.46l-12.75,14.32c.65,1.98,2.08,5.47,2.9,7.35,0,0-.2,.29-.57-.12-1.68-1.85-6.34-8.34-6.34-17.88v-7c0-1.1-.9-2-2-2h-10c-1.1,0-2,.9-2,2v2H13c-1.1,0-2,.9-2,2v3c0,11.41,4.36,17.96,6.64,20.61,.76,.88,1.86,1.39,3.02,1.39h27.17c1.18,0,2.27-.68,2.75-1.76,.99-2.23,2.8-6.79,2.81-13.36l9.69-10.88Z"/></g></g></svg>