<?xml version="1.0" encoding="UTF-8"?><svg id="Laag_1" xmlns="http://www.w3.org/2000/svg" xmlns:xlink="http://www.w3.org/1999/xlink" viewBox="0 0 64 64"><defs><style>.cls-1{fill:none;}.cls-2{clip-path:url(#clippath);}.cls-3{clip-path:url(#clippath-1);}</style><clipPath id="clippath"><rect class="cls-1" width="64" height="64"/></clipPath><clipPath id="clippath-1"><rect class="cls-1" width="64" height="64"/></clipPath></defs><g class="cls-2"><g class="cls-3"><path d="M22.12,23.44c-.38-.4-1.01-.42-1.41-.04l-1.71,1.61c-.4,.38-.42,1.01-.04,1.41l6.39,6.77c.38,.4,1.01,.42,1.41,.04l1.71-1.61c.4-.38,.42-1.01,.04-1.41l-6.39-6.77Zm.65,5.24c-.22,.21-.57,.2-.78-.02s-.2-.58,.02-.78c.21-.2,.58-.19,.78,.02,.21,.22,.2,.57-.02,.78m1.3,1.38c-.23,.21-.58,.2-.78-.02-.21-.22-.2-.57,.02-.78,.21-.2,.58-.19,.78,.02,.21,.22,.2,.57-.02,.78m.08-2.68c-.23,.21-.57,.2-.78-.02-.21-.22-.2-.57,.02-.78,.22-.2,.58-.19,.78,.02,.21,.22,.2,.57-.02,.78m1.3,1.38c-.22,.21-.57,.2-.78-.02-.21-.22-.2-.58,.02-.78,.21-.2,.58-.19,.78,.02,.21,.22,.2,.57-.02,.78"/><path d="M38.93,28.56c1.33-1.22,2.07-3.17,2.07-5.56,0-.75,0-2.7-1.23-4.04,.3-3.34,.51-8.5-.79-10.59-1.6-2.57-3.55-3.82-7.26-2.98-2.43-1.16-4.09-1.88-8.36-.84-2.96,.72-6.21,1.91-7.92,3.88-1.65,1.91-1.54,7.22-1.27,10.6-1.16,1.33-1.16,3.23-1.16,3.96,0,2.39,.74,4.33,2.06,5.55,0,0-4.29,6.04-3.89,12.59-1.97,.88-3.8,1.89-4.79,2.97-2.87,3.12-4.39,14.89-4.39,14.89H31v-7.47c-1.06,.49-2.35,.77-4,.77-5.16,0-6.8-2.69-8.87-6.1-.97-1.6-1.98-3.25-3.42-4.6-.4-3.37,.77-6.45,1.79-8.39,2.56,3.36,6.25,6.67,10.49,6.59,2.01,.04,3.8-.65,5.47-1.74,1.69-2.44,4.75-4.36,8.65-5.39-.21-.47-1.17-2.42-2.19-4.1m-2.87-1.74c0,1.3-.23,2.53-.84,3.58-1.63,2.79-4.97,5.97-8.22,5.89-3.29,.08-6.8-3.23-8.36-6.11-.54-1-.69-2.17-.69-3.36-1.62-.5-2.04-2.54-2.04-3.82s.32-1.96,.77-2.18c.39-.18,.77-.05,1.01,.09,.14,.65,.25,1.14,.29,1.31,.21,.85,1.02,.77,1.02,.77v-6.74c2.07-.15,6.19-.75,10.75-3.11l5.25,3.53v6.33s.82,.08,1.02-.77c.04-.17,.15-.66,.29-1.31,.24-.14,.62-.27,1.01-.09,.45,.21,.77,.9,.77,2.18s-.42,3.31-2.04,3.82"/><path d="M48,54c7.85,0,14-3.38,14-7.68v-3.65c0-4.3-6.15-7.67-14-7.67s-14,3.37-14,7.67v3.65c0,.95,.31,1.85,.86,2.68-.55,.83-.86,1.72-.86,2.66v3.65c0,4.3,6.15,7.68,14,7.68s14-3.38,14-7.68v-3.65c0-.2-.03-.41-.05-.61-.72,.9-4.57,5.14-13.61,5.14-8.02,0-10.78-3.86-11.07-4.38-.12-.21-.2-.44-.08-.57,2.55,1.69,6.41,2.75,10.81,2.75m-11.3-11c0-2.84,5.06-5.15,11.3-5.15s11.3,2.31,11.3,5.15-5.06,5.15-11.3,5.15-11.3-2.31-11.3-5.15"/><path d="M45.85,44.73v.68h1.55v-.56c.38,.02,1,.02,1.4,.02v.54h1.52v-.62c2.78-.3,4.11-1.26,4.11-2.67,0-.55-.06-.78-.31-1.34h-2.06c.21,.52,.29,.78,.29,1.25,0,.62-.59,1.12-2.03,1.33v-1.76h-1.52v1.89c-.58,.03-.8,.02-1.4,0v-1.89h-1.55v1.75c-1.4-.21-2.13-.66-2.13-1.37,0-.41,.08-.65,.25-1.15h-2.17c-.17,.43-.23,.73-.23,1.12,0,1.42,1.44,2.42,4.28,2.78"/></g></g></svg>