<?xml version="1.0" encoding="UTF-8"?><svg id="Laag_1" xmlns="http://www.w3.org/2000/svg" xmlns:xlink="http://www.w3.org/1999/xlink" viewBox="0 0 64 64"><defs><style>.cls-1{fill:none;}.cls-2{clip-path:url(#clippath);}.cls-3{clip-path:url(#clippath-1);}</style><clipPath id="clippath"><rect class="cls-1" width="64" height="64"/></clipPath><clipPath id="clippath-1"><rect class="cls-1" width="64" height="64"/></clipPath></defs><g class="cls-2"><g class="cls-3"><path d="M29.99,39.88l-.05-.45c0-.99-1.33-3.34-1.33-3.34,0,0-3.14-.03-4.34-.03s-3.04-1.73-3.04-1.73c0,0-1.02-3.38,0-5.48,1.02-2.11,2.57-2.32,2.57-2.32l5.38-1.08,3.08,1.8,4.1,.78,1.14,1.56,.23,.33c.59-.26,1.2-.47,1.82-.64l-.22-.22-1.39-2.5s1.79-1.8,1.3-2.75c-.5-.95-3.3,.6-3.85-.24s-.06-3.68-.06-3.68l-3.48-1.43s-1.09-.02-1,.8c.1,.92,2.63,2.38,2.43,2.79-.19,.38-.82,.1-.82,.1l-.96,1.69-2-.45s1.52-.58,1.71-1.13c.19-.56-2.25-2.56-2.25-2.56l-1.36,.31-.61,2.45-1.64,1.43h-2.15l.19-1.2-.79-.02,1.02-2.65,2.11,.18s.78-2.03,.62-2.7c-.3-1.3-1.65-1.44-1.65-1.96s1.46-.5,2.17-1.22c.44-.44,1.63-2.08,2.48-3.26,8.77,1.03,15.83,7.72,17.41,16.31l-1.27,1.69c1.96,.37,3.84,1.2,5.49,2.47,0-.17,.01-.34,.01-.51,0-13.25-10.75-24-24-24S3,17.75,3,31s10.75,24,24,24c3.21,0,6.27-.63,9.06-1.77-.86-.53-1.66-1.16-2.4-1.89-3.11-3.11-4.33-7.41-3.68-11.45m-7.64-28.42c1.21-.29,2.47-.46,3.75-.52l.19,.3s-.46,2.43-1.23,2.63c-.77,.21-2.99-1.07-2.99-1.07l.28-1.35ZM13.38,45.75c-3.3-3.05-5.57-7.18-6.25-11.84,2.27,1.52,6.25,4.58,6.25,7.35v4.48Zm2.52-28.54s-2.74,3.58-4.66,5.52c-.88,.89-2.19,1.58-3.35,2.08,1.7-5.22,5.48-9.49,10.35-11.87l-2.33,4.28ZM60.41,55.34l-8.16-7.38c2.75-4.26,2.26-10-1.47-13.73-4.3-4.3-11.26-4.3-15.56,0s-4.3,11.26,0,15.56c3.73,3.73,9.47,4.22,13.73,1.47l7.38,8.16c1.03,1.14,2.69,.94,3.85-.22,1.16-1.16,1.37-2.82,.22-3.85m-12.39-8.32c-2.77,2.77-7.27,2.77-10.04,0-2.77-2.77-2.77-7.27,0-10.04,2.77-2.77,7.27-2.77,10.04,0,2.77,2.77,2.77,7.27,0,10.04"/></g></g></svg>