<?xml version="1.0" encoding="UTF-8"?><svg id="Laag_1" xmlns="http://www.w3.org/2000/svg" xmlns:xlink="http://www.w3.org/1999/xlink" viewBox="0 0 64 64"><defs><style>.cls-1{fill:none;}.cls-2{clip-path:url(#clippath);}.cls-3{clip-path:url(#clippath-1);}</style><clipPath id="clippath"><rect class="cls-1" width="64" height="64"/></clipPath><clipPath id="clippath-1"><rect class="cls-1" width="64" height="64"/></clipPath></defs><g class="cls-2"><g class="cls-3"><path d="M58.72,14.57l-3.14-4.71c-.36-.53-1.02-.86-1.74-.86H29.52c-.02-.06-.07-.26,.25-.36,.2-.06,2.51-.52,4.24-.85v-3.13c0-1.16-1.57-1.45-3.5-1.45s-3.5,.29-3.5,1.45v4.34h-5c-.55,0-1,.45-1,1v10c0,.55,.45,1,1,1h31.84c.72,0,1.38-.33,1.74-.86l3.14-4.71c.17-.26,.17-.59,0-.85"/><path d="M41,23H9.16c-.72,0-1.38,.33-1.74,.86l-3.14,4.71c-.17,.26-.17,.59,0,.85l3.14,4.71c.36,.53,1.02,.86,1.74,.86H31.48c.02,.06,.07,.26-.25,.36-.2,.06-2.51,.52-4.23,.85v26.78h7v-28h7c.55,0,1-.45,1-1v-10c0-.55-.45-1-1-1"/></g></g></svg>