<?xml version="1.0" encoding="UTF-8"?><svg id="Laag_1" xmlns="http://www.w3.org/2000/svg" xmlns:xlink="http://www.w3.org/1999/xlink" viewBox="0 0 64 64"><defs><style>.cls-1{fill:none;}.cls-2{clip-path:url(#clippath);}.cls-3{clip-path:url(#clippath-1);}</style><clipPath id="clippath"><rect class="cls-1" width="64" height="64"/></clipPath><clipPath id="clippath-1"><rect class="cls-1" width="64" height="64"/></clipPath></defs><g class="cls-2"><g class="cls-3"><path d="M55.59,47.4l-18.99-18.99c-3.35,3.77-6.43,4.91-7.08,5.12-.28,.09-.45,.02-.5-.1,.6-.49,1.2-1.01,1.8-1.61,6.68-6.68,6.55-13.72,.85-19.41-3.62-3.62-7.78-4.98-12.04-3.79-.7,.19-.95,1.06-.49,1.61,1.52,1.81,2.98,3.59,3.67,4.53,1.02,1.4,2.88,4.01,1.15,5.75l-5.11,5.11c-1.73,1.74-4.16-.26-5.56-1.28-.91-.66-2.51-2.11-4.16-3.65-.55-.52-1.49-.26-1.66,.48-.93,4.07,.47,8.03,3.94,11.5,4.19,4.2,9.12,5.36,14.09,3.02l20.91,20.91c2.45,2.45,5.34,1.02,7.77-1.42,2.44-2.43,3.87-5.32,1.42-7.77m-6.09,5.67c-1.42,0-2.58-1.15-2.58-2.57s1.15-2.57,2.58-2.57,2.57,1.15,2.57,2.57-1.15,2.57-2.57,2.57"/></g></g></svg>