<?xml version="1.0" encoding="UTF-8"?><svg id="Laag_1" xmlns="http://www.w3.org/2000/svg" xmlns:xlink="http://www.w3.org/1999/xlink" viewBox="0 0 64 64"><defs><style>.cls-1{fill:none;}.cls-2{clip-path:url(#clippath);}.cls-3{clip-path:url(#clippath-1);}</style><clipPath id="clippath"><rect class="cls-1" width="64" height="64"/></clipPath><clipPath id="clippath-1"><rect class="cls-1" width="64" height="64"/></clipPath></defs><g class="cls-2"><g class="cls-3"><path d="M56.83,13.44l-6.83,2.28c-2.65,.88-4.41-.62-5.53-1.37-2.4-1.62-5.54-1.59-7.91,.06-2.37,1.65-5.97,4.67-11.45,7.51-1.62,.85-2.02,2.37-1.24,3.36,1.83,2.34,7.67,.58,10.44-.51,5.72-2.26,6.28-3.74,9.56-1.09l11.19,9.05c7.61-2.39,8.94-4.64,8.94-4.64l-7.17-14.64Z"/><path d="M42.49,25.38c-1.55-1.26-1.51-1.17-4.06,0-2.04,.93-7.01,3.25-11.34,3.25-2.25,0-3.92-.67-4.95-2-1.61-2.06-.92-5.17,1.96-6.67,2.34-1.22,4.33-2.48,6.03-3.64l-2.69-1.87c-2.37-1.65-5.51-1.67-7.91-.06-1.13,.76-2.89,2.26-5.53,1.37l-6.83-2.28L0,28.13s1.08,1.8,6.73,3.89c3.4-3.08,4.72-3.87,6.76-3.87s3.99,.99,5.12,2.77c2.38-.86,5.11,.09,6.6,1.89,.71,.86,1.16,1.94,1.32,3.08,3.57,1.21,4.88,4.95,3.81,7.85,2.48,1.97,2.81,5.5,1.09,8.03,3.27,2.76,6.74-.72,7.02-3.04,2.85-.29,4.41-1.81,4.62-4.95,2.66,0,5.28-1.99,4.91-5.07,3.44,.64,6.05-3.91,3.89-5.68-3.97-3.25,2.32,1.8-9.37-7.65"/><path d="M26.95,44.61l.47-.39c1.43-1.18,1.37-3.6,.19-5.03-.8-.97-2.15-1.5-3.39-1.38,1.12-3.79-3.38-6.26-5.7-4.34l-1.13,.93c.02-3.5-3.86-5.18-6.27-3.18l-2.73,2.26c-2.22,1.83-1.95,4.18-.77,5.61,1.27,1.54,3.23,1.65,4.67,.92-.06,.98,.24,2.01,.86,2.77,.8,.97,2.15,1.5,3.38,1.38-.35,1.19-.08,2.61,.72,3.58,.94,1.14,2.64,1.68,4.01,1.26-.16,1.07,.13,2.26,.83,3.1,1.18,1.43,3.61,1.89,5.35,.45l1.33-1.1c1.85-1.53,1.89-4.03,.71-5.46-.62-.75-1.58-1.24-2.55-1.37"/></g></g></svg>