<?xml version="1.0" encoding="UTF-8"?><svg id="Laag_1" xmlns="http://www.w3.org/2000/svg" xmlns:xlink="http://www.w3.org/1999/xlink" viewBox="0 0 64 64"><defs><style>.cls-1{fill:none;}.cls-2{clip-path:url(#clippath);}.cls-3{clip-path:url(#clippath-1);}</style><clipPath id="clippath"><rect class="cls-1" width="64" height="64"/></clipPath><clipPath id="clippath-1"><rect class="cls-1" width="64" height="64"/></clipPath></defs><g class="cls-2"><g class="cls-3"><path d="M61.72,24.86l-3.87-5.86-.77-14.58c-.04-.8-.7-1.42-1.5-1.42h-23.15c-.8,0-1.46,.62-1.5,1.42l-.77,14.58-3.87,5.86c-.19,.31-.28,.67-.28,1.03v2.78c0,.74,.6,1.33,1.33,1.33H60.67c.74,0,1.33-.6,1.33-1.33v-2.78c0-.36-.1-.72-.28-1.03m-21.72,.14l1.14-3h5.72l1.14,3h-8Zm-6.84-6l.68-13h20.31l.68,13h-21.68Z"/><path d="M17.6,30.6c-.4-.4-.9-.6-1.4-.6H5c-1.1,0-2,.9-2,2v25c0,1.1,.9,2,2,2H24c1.1,0,2-.9,2-2v-17.2c0-.5-.2-1-.6-1.4l-7.8-7.8Zm5.4,25.4H6v-23h10v5c0,1.1,.9,2,2,2h5v16Z"/><path d="M49.9,33.52c-.1-.4-.5-.8-.9-1-.4-.2-.9-.1-1.3,.1l-9.5,5.4c-.4,.2-.6,.5-.7,.8-.1,.4-.1,.7,0,1.1,.3,.7,1,1.2,1.7,1.1l4-.5c-2.7,4.8-7.4,8.3-13,9.3-.7,.1-1.2,.7-1.2,1.7v1.8c0,1,.8,1.7,1.7,1.4,7.4-1.2,13.7-5.9,17.1-12.4l2.5,3.3c.4,.5,1.2,.7,1.9,.4,.7-.3,1-1.1,.8-1.8l-3.1-10.7Z"/></g></g></svg>