<?xml version="1.0" encoding="UTF-8"?><svg id="Laag_1" xmlns="http://www.w3.org/2000/svg" xmlns:xlink="http://www.w3.org/1999/xlink" viewBox="0 0 24 24"><defs><style>.cls-1{fill:none;}.cls-2{clip-path:url(#clippath);}.cls-3{clip-path:url(#clippath-1);}</style><clipPath id="clippath"><rect class="cls-1" width="24" height="24"/></clipPath><clipPath id="clippath-1"><rect class="cls-1" width="24" height="24"/></clipPath></defs><g class="cls-2"><rect x="6" y="1" width="12" height="3"/><g class="cls-3"><path d="m22,5H2c-.55,0-1,.45-1,1v7.99c0,.55.45,1,1,1h3v1.59c0,.26.11.52.29.71l4.41,4.41c.19.19.44.29.71.29h7.59c.55,0,1-.45,1-1v-6.01h3c.55,0,1-.45,1-1v-7.99c0-.55-.45-1-1-1m-5,15h-6v-3c0-.55-.45-1-1-1h-3v-4h10v8Zm4-11h-2v-2h2v2Z"/></g></g></svg>