<?xml version="1.0" encoding="UTF-8"?><svg id="Laag_1" xmlns="http://www.w3.org/2000/svg" xmlns:xlink="http://www.w3.org/1999/xlink" viewBox="0 0 64 64"><defs><style>.cls-1{fill:none;}.cls-2{clip-path:url(#clippath);}.cls-3{clip-path:url(#clippath-1);}</style><clipPath id="clippath"><rect class="cls-1" width="64" height="64"/></clipPath><clipPath id="clippath-1"><rect class="cls-1" width="64" height="64"/></clipPath></defs><g class="cls-2"><g class="cls-3"><path d="M11.33,40.75c-.23-.63-.52-.72-.83-.72s-.6,.09-.83,.72c-1.91,5.23-5.75,7.61-6.56,11.57-.84,4.16,3.22,7.68,7.39,7.68s8.24-3.52,7.39-7.68c-.81-3.94-4.65-6.34-6.56-11.57m-1.37,16.02c-1.34,0-2.75-.65-3.59-1.66-.56-.68-.77-1.4-.62-2.14,.27-1.33,1.22-2.6,2.41-4.21,.56-.75,1.18-1.58,1.79-2.51,.02,.03,.04,.06,.06,.09-.77,2.69-1.62,5.06-1.62,6.75,0,1.55,1.1,3.2,1.91,3.66-.12,.01-.24,.02-.35,.02"/><path d="M59.69,20.76c2.26-4.31,1.51-12.61-1.61-16.51-3.14-3.91-7.17-1.99-10.86,.97h0l-1.57,1.25-5.5,4.42L9.65,35.36c-.96,.77-.2,2.31,1,2.01l15.79-3.93s-1.86-4.09-1.98-4.41c-.12-.31,.07-.41,.13-.43l10.71,13.31c1.05,1.3,7.53-2.16,14.47-7.74,6.95-5.58,11.74-11.15,10.69-12.45l-.77-.97Zm-2.96-3.68l-7.03-8.76c3.19-2.55,4.3-2.7,5.2-1.57,1.74,2.17,2.49,7.02,1.83,10.33"/><path d="M26.09,14.07c1.69-.71,2.67-1.25,2.67-1.25l2.26,2.81,3.93-3.15-2.26-2.82s.71-.81,1.77-2.31c.91-1.29-.64-3.01-1.94-1.97-1.23,.99-6.7,5.38-7.93,6.37-1.3,1.05,.05,2.93,1.5,2.32"/></g></g></svg>