<?xml version="1.0" encoding="UTF-8"?><svg id="Laag_1" xmlns="http://www.w3.org/2000/svg" xmlns:xlink="http://www.w3.org/1999/xlink" viewBox="0 0 64 64"><defs><style>.cls-1{fill:none;}.cls-2{clip-path:url(#clippath);}.cls-3{clip-path:url(#clippath-1);}</style><clipPath id="clippath"><rect class="cls-1" width="64" height="64"/></clipPath><clipPath id="clippath-1"><rect class="cls-1" width="64" height="64"/></clipPath></defs><g class="cls-2"><g class="cls-3"><path d="M61,37.94c.95-.65,1.55-1.43,1.71-1.82,.35-.81,.12-2.2-1.23-2.46-.6-.12-1.73,0-2.73,.13-.77-2.79-2.12-7.32-2.91-8.14-1.06-1.1-4.75-1.65-12.85-1.65s-11.8,.55-12.85,1.65c-.79,.82-2.13,5.35-2.91,8.14-1-.14-2.13-.25-2.73-.13-1.35,.26-1.58,1.66-1.23,2.46,.17,.39,.77,1.17,1.71,1.82-1.55,2.08-2,3.89-2,7.26v9.2s0,2.69,.38,4.48c.14,.65,.74,1.12,1.44,1.12h5.17c.7,0,1.3-.46,1.44-1.12,.19-.92,.29-2.58,.33-3.57l-4.48-.93c-.25-.08-.31-.24-.26-.38h31.97c.02,.06,.07,.27-.26,.38l-4.49,.93c.04,.95,.13,2.59,.34,3.57,.14,.65,.74,1.12,1.44,1.12h5.17c.7,0,1.3-.46,1.44-1.12,.38-1.79,.38-4.48,.38-4.48v-9.2c0-3.37-.45-5.18-2-7.26m-27.21,10.64l-4.71-.38c-1.28-.1-2.06-1.12-2.29-2.24l-.19-1.35c-.12-.83,.74-1.54,1.58-1.31l3.81,1.06c.83,.32,1.45,.97,1.72,1.78l.52,1.94c.07,.26-.16,.51-.44,.49m14.21,3.42h-10v-2h10v2Zm-5-15.14c-5.2,0-10.52-.44-12.86-1.09,.42-2.07,1.91-7.19,2.37-7.98,.47-.23,3.92-.63,10.48-.63s10.01,.4,10.48,.63c.47,.79,1.95,5.91,2.37,7.98-2.34,.65-7.66,1.09-12.86,1.09m16.41,7.75l-.19,1.35c-.23,1.12-1.02,2.13-2.29,2.24l-4.71,.38c-.28,.02-.51-.23-.44-.49l.52-1.94c.27-.81,.89-1.46,1.72-1.78l3.81-1.06c.84-.24,1.7,.47,1.58,1.31"/><path d="M21.16,35.12c-6.27-.32-10.19-1.62-11.93-2.43-.63-.29-.98-.96-.88-1.64,.45-2.98,1.7-10.84,2.06-12.39,.07-.02,6.91-.72,13.65-.72s13.59,.7,13.66,.72c.12,.52,.35,1.76,.6,3.29,1.01-.04,2.13-.06,3.37-.07-.49-2.9-.99-5.46-1.29-6.3-.38-1.05-1.53-1.47-2.71-1.72,0,0-6.15-.86-13.63-.86s-13.63,.86-13.63,.86c-1.18,.26-2.33,.67-2.71,1.72-.53,1.47-1.68,8.26-2.28,12.81-1.06-.14-2.4-.27-3.02-.15-1.45,.28-1.72,1.79-1.32,2.65,.62,1.32,2.89,2.55,4.05,3.11v20.27s0,3.41,.35,4.84c.13,.52,.7,.89,1.35,.89h5.18c.65,0,1.23-.37,1.35-.89,.22-.87,.3-2.61,.33-3.84l-4.91-.98c-.27-.09-.23-.27-.22-.31h12.4v-8.78c0-2.66,.25-4.77,1.4-6.9-.42-.46-.75-.94-.94-1.38-.25-.56-.34-1.18-.3-1.8m-5.88,13.66l-5.42-.43c-1.47-.12-2.37-1.29-2.64-2.57l-.22-1.55c-.14-.96,.85-1.77,1.82-1.5l4.39,1.22c.95,.37,1.67,1.11,1.98,2.05l.6,2.23c.08,.3-.19,.59-.51,.56"/></g></g></svg>