<?xml version="1.0" encoding="UTF-8"?><svg id="Laag_1" xmlns="http://www.w3.org/2000/svg" viewBox="0 0 64 64"><defs><style>.cls-1{fill:none;}</style></defs><rect class="cls-1" width="64" height="64"/><g><path d="m25.76,31.24l1.71-1.61c.4-.38.42-1.01.04-1.41l-6.39-6.77c-.38-.4-1.01-.42-1.41-.04l-1.71,1.61c-.4.38-.42,1.01-.04,1.41l6.39,6.77c.38.4,1.01.42,1.41.04Zm-3.98-4.56c-.22.21-.57.2-.78-.02-.21-.22-.2-.58.02-.78.21-.2.58-.19.78.02.21.22.2.57-.02.78Zm1.3,1.38c-.23.21-.58.2-.78-.02-.21-.22-.2-.57.02-.78.21-.2.58-.19.78.02.21.22.2.57-.02.78Zm.08-2.68c-.23.21-.57.2-.78-.02-.21-.22-.2-.57.02-.78.21-.2.58-.19.78.02.21.22.2.57-.02.78Zm.52,1.35c-.21-.22-.2-.58.02-.78.21-.2.58-.19.78.02.21.22.2.57-.02.78-.22.21-.57.2-.78-.02Z"/><path d="m26.12,37.01c3.59,0,6.9-2.4,9.12-5.25.77,1.4,1.22,2.53,1.4,3.85,1.65-.91,3.59-1.61,5.75-2.05,1.1-4.59,1.59-7.84,1.59-11.34,0-7.48-2.81-15.48-7.13-18.07-2.75-1.65-5.84-1.05-5.84-1.05,0,0-2.97-2.86-8.17-1.88-8.48,1.6-14.84,9.74-14.84,21,0,3.73.56,7.15,1.82,12.24.1.42.5.67.87.54.61-.21,1.3-.39,2.06-.55-.26,1.25-.32,2.63-.19,4.37-2.39.88-4.96,1.98-6.36,3.45-2.76,2.88-4.21,13.74-4.21,13.74h29v-3.33c0-.91.17-1.81.5-2.67-.33-.87-.5-1.76-.5-2.68v-2.21c-1.47,1.21-3.05,1.52-4.88,1.52-2.48,0-4.52-.55-6.44-3.22-.38-.53-.73-1.06-1.07-1.58-.9-1.37-1.83-2.79-3.1-3.84-.13-2.59.31-4.07,1.49-6.23,2.21,2.85,5.53,5.25,9.12,5.25Zm-9.35-17.6c4.8-1.89,11.6-5.75,14.24-9.06,0,0,.32.01.12.5-.34.83-.85,1.81-1.55,2.98,1.24,2.63,3.47,4.56,5.68,5.93.07,1.03.07,2.47-.2,4.06-.41,2.44-1.74,5.71-3.63,7.67-2.32,2.4-4.14,2.44-5.24,2.44s-3.31-.17-5.57-2.63c-.8-.87-1.58-1.76-2.15-2.71-.8-1.59-1.27-3.24-1.53-4.76-.29-1.73-.25-3.34-.16-4.41Z"/><path d="m48,55c7.85,0,14-3.37,14-7.68v-3.65c0-4.3-6.15-7.67-14-7.67s-14,3.37-14,7.67v3.65c0,.95.31,1.85.86,2.68-.55.83-.86,1.72-.86,2.66v3.65c0,4.3,6.15,7.68,14,7.68s14-3.37,14-7.68v-3.65c0-.2-.03-.41-.05-.61-.71.9-4.57,5.14-13.61,5.14-8.02,0-10.78-3.86-11.07-4.38-.12-.21-.2-.44-.08-.57,2.55,1.69,6.41,2.75,10.81,2.75Zm-11.3-11c0-2.84,5.06-5.15,11.3-5.15s11.3,2.31,11.3,5.15-5.06,5.15-11.3,5.15-11.3-2.31-11.3-5.15Z"/><path d="m45.85,45.73v.68h1.55v-.56c.38.02,1,.02,1.4.02v.54h1.52v-.62c2.78-.3,4.11-1.26,4.11-2.67,0-.55-.06-.78-.31-1.34h-2.06c.21.52.29.78.29,1.25,0,.62-.59,1.12-2.03,1.33v-1.76h-1.52v1.89c-.58.03-.8.02-1.4,0v-1.89h-1.56v1.75c-1.4-.21-2.13-.66-2.13-1.37,0-.41.08-.65.25-1.15h-2.17c-.17.43-.23.73-.23,1.12,0,1.42,1.44,2.42,4.28,2.78Z"/></g></svg>