<?xml version="1.0" encoding="UTF-8"?><svg id="Laag_1" xmlns="http://www.w3.org/2000/svg" xmlns:xlink="http://www.w3.org/1999/xlink" viewBox="0 0 64 64"><defs><style>.cls-1{fill:none;}.cls-2{clip-path:url(#clippath);}.cls-3{clip-path:url(#clippath-1);}</style><clipPath id="clippath"><rect class="cls-1" width="64" height="64"/></clipPath><clipPath id="clippath-1"><rect class="cls-1" width="64" height="64"/></clipPath></defs><g class="cls-2"><g class="cls-3"><path d="M38.53,50.26c-1.12-.3-1.29-1.44-1.41-2.6,1.52-1.7,2.65-3.75,3.03-6.46,1.46-.45,1.75-2.26,1.75-3.4s-.2-1.74-.61-1.93c-.2-.09-.5-.09-.67-.05,.15-2.36,.29-7.03-.69-8.78-1.08-1.92-2.4-2.42-4.89-1.79-1.63-.87-2.75-1.72-5.61-.94-1.99,.54-4.06,1.43-5.2,2.9-1.24,1.59-1,6.24-.79,8.63-.18-.05-.51-.06-.73,.04-.41,.19-.61,.8-.61,1.93s.29,2.95,1.75,3.4c.47,3.88,2.41,6.16,4.81,8.17,.63,.53,1.77,.81,2.96,.86,.11,.19,.11,.42-.32,.56-.71,.23-2.94,.57-5.34-.68-.02-.01-.03-.02-.05-.03-1.79,.48-7.97,2.25-9.9,4.27-.85,.9-1.5,2.72-1.99,4.64H50c-.48-1.92-1.13-3.74-1.98-4.64-1.73-1.83-7.1-3.45-9.49-4.1"/><path d="M43.45,24.37l8.06,3.34c.54,.22,1.16,.04,1.48-.45,.32-.49,.26-1.13-.16-1.54l-2.13-2.08c1.75-.55,3.94-1.58,5.3-3.44,1.85-2.52,1.35-4.96,.97-6.73-.27-1.29-.39-1.99-.03-2.59,.51-.84,2.2-1.01,3.77-.37l1.5-3.71c-3.48-1.41-7.13-.57-8.69,2.01-1.19,1.97-.79,3.92-.47,5.48,.34,1.62,.48,2.51-.28,3.55-.73,1-2.15,1.64-3.38,2.02v-.02l.83-3.35c.14-.57-.14-1.15-.67-1.4-.53-.25-1.16-.08-1.5,.39l-5.12,7.06c-.22,.3-.29,.69-.19,1.05,.1,.36,.36,.65,.71,.8"/><path d="M62.24,36.79l-6.88-5.36c-.46-.36-1.11-.34-1.55,.04-.44,.38-.55,1.03-.25,1.53l1.65,2.82c-1.93-.41-4.24-.55-6.01,.45-.94,.53-2.12,1.6-2.41,3.71-.09,.69-.02,1.36,.05,2.01,.08,.74,.17,1.51-.09,1.82-.15,.17-.83,.75-3.41,.89l.22,3.99c3.07-.17,5.06-.9,6.24-2.3,1.37-1.62,1.15-3.56,1.01-4.84-.04-.39-.09-.82-.06-1.02,.08-.58,.29-.7,.41-.77,.78-.44,2.43-.24,3.95,.17l-1.5,2.67c-.29,.51-.17,1.15,.27,1.53,.45,.38,1.1,.39,1.55,.02l6.81-5.45c.29-.23,.46-.59,.46-.96,0-.37-.18-.73-.47-.96"/><path d="M19.19,43.73c.1-.36,.03-.75-.19-1.05l-5.17-7.02c-.34-.47-.98-.63-1.51-.38-.53,.25-.81,.84-.66,1.41l.86,3.31c-1.4-.6-3.59-1.84-4.65-4.05-1.02-2.13-.81-4.83,.62-8.02l-3.65-1.64c-1.95,4.34-2.14,8.18-.56,11.43,1.7,3.5,5.02,5.29,6.98,6.09l-2.14,2.14c-.41,.41-.48,1.06-.15,1.55,.32,.48,.95,.67,1.49,.44l8.03-3.4c.34-.15,.6-.44,.7-.8"/><path d="M31.65,21.49c.24,.28,.6,.44,.98,.42,.37-.02,.72-.2,.94-.51l5.08-7.09c.34-.47,.3-1.12-.1-1.55-.4-.42-1.05-.51-1.54-.19l-2.76,1.76c-.14-1.37-.12-3.61,1.06-5.47,1.11-1.73,3.08-2.86,5.86-3.36l-.7-3.94c-3.95,.7-6.83,2.45-8.55,5.18-1.7,2.7-1.83,5.72-1.67,7.71l-2.82-1.44c-.52-.26-1.16-.12-1.52,.34-.36,.46-.34,1.11,.04,1.55l5.71,6.58Z"/><path d="M11.92,19.07c.41-.42,.46-1.07,.13-1.55l-1.85-2.66c3.53-.9,6.99-1.02,7.41-.12,.36,.76,.04,1.45-1.18,3.26-1.57,2.33-4.21,6.24,.58,11.02l2.82-2.83c-2.45-2.44-1.66-3.61-.09-5.95,1.21-1.8,2.87-4.25,1.49-7.19-1.78-3.79-7.67-3.09-11.35-2.22l1.32-2.85c.24-.53,.08-1.16-.4-1.5-.24-.18-.54-.25-.82-.22-.27,.02-.53,.13-.73,.33L2.91,12.56c-.27,.26-.41,.62-.38,1,.03,.37,.24,.71,.55,.91l7.29,4.78c.49,.32,1.14,.25,1.54-.17"/></g></g></svg>