<?xml version="1.0" encoding="UTF-8"?><svg id="Laag_1" xmlns="http://www.w3.org/2000/svg" xmlns:xlink="http://www.w3.org/1999/xlink" viewBox="0 0 64 64"><defs><style>.cls-1{fill:none;}.cls-2{clip-path:url(#clippath);}.cls-3{clip-path:url(#clippath-1);}</style><clipPath id="clippath"><rect class="cls-1" width="64" height="64"/></clipPath><clipPath id="clippath-1"><rect class="cls-1" width="64" height="64"/></clipPath></defs><g class="cls-2"><polygon points="48.04 20.46 47.86 22.98 49.78 23.27 46.12 47.84 46.11 47.84 45.95 50.07 18.5 48.13 18.29 49.51 47.75 53.9 52.63 21.14 48.04 20.46"/><polygon points="46.76 15.25 42.75 14.98 42.75 17.51 44.09 17.6 43 37 43 44 15 44 14.79 46.27 44.51 48.29 46.76 15.25"/><g class="cls-3"><path d="M20.17,28.61c.38-.4,1.03-.74,1.76-1.04-.33-.11-.64-.2-.85-.25-.14-.04-.23-.17-.28-.31-.05-.19-.07-.42-.07-.42,.39-.45,.67-.99,.77-1.69,.39-.12,.47-.61,.47-.92s-.05-.47-.16-.52c-.1-.05-.18-.01-.24,.02,.06-.62,.15-1.92-.11-2.4-.28-.52-.62-.72-1.27-.55-.43-.23-.71-.53-1.46-.32-.52,.15-1.08,.41-1.38,.81-.34,.45-.25,1.86-.2,2.5-.04-.03-.16-.11-.29-.05-.11,.05-.16,.22-.16,.52s.08,.79,.47,.92c.09,.73,.37,1.25,.75,1.68,0,0,0,.22-.05,.43-.03,.15-.12,.28-.27,.32-.61,.17-2.05,.61-2.52,1.11-.6,.64-.65,3.04-.65,3.04h4.67c.19-1.03,.53-2.27,1.09-2.87"/><path d="M31.79,26.48c-.02,.22-.06,.5-.1,.7-.03,.14-.11,.27-.24,.32-.15,.06-.35,.13-.58,.23,.66,.29,1.14,.58,1.43,.89,.56,.59,.9,1.83,1.08,2.87h4.66s-.03-1.98-.64-2.62c-.21-.22-.62-.46-1.07-.67-.59-.29-1.26-.55-1.61-.69-.14-.05-.22-.17-.24-.32-.03-.18-.06-.44-.09-.66,.89-.04,1.63-.12,1.94-.24,.06-.02,.09-.08,.06-.14-.17-.37-.6-1.57-.66-2.2-.13-1.55-.13-4.32-2.25-3.62,0,0-1.35-.86-2.44,.58-.77,1.01-.58,2.35-.61,3.09-.02,.53-.45,1.75-.64,2.07-.04,.07-.03,.14,.05,.16,.33,.12,1.07,.21,1.95,.27"/><path d="M23.47,24.75c.16,1.32,.82,2.09,1.63,2.77,.21,.18,.6,.28,1,.29,.04,.06,.04,.14-.11,.19-.24,.08-1,.19-1.81-.23h-.02c-.61,.15-2.7,.75-3.35,1.44-.76,.8-1.06,3.8-1.06,3.8h12.95s-.29-3-1.05-3.8c-.59-.62-2.41-1.17-3.22-1.39-.22-.06-.36-.24-.41-.46-.04-.19-.07-.42-.07-.42,.52-.58,.9-1.27,1.03-2.19,.49-.15,.59-.77,.59-1.15s-.07-.59-.21-.66c-.07-.03-.13-.03-.19-.02,.05-.8,.1-2.38-.23-2.98-.36-.65-.85-.82-1.69-.61-.55-.29-.93-.58-1.9-.32-.67,.18-1.41,.48-1.8,.98-.42,.54-.34,2.12-.27,2.92-.06-.02-.14-.02-.21,.01-.14,.06-.21,.27-.21,.66s.1,1,.59,1.15"/><path d="M11,43h31V10H11V43Zm28-5H14V13h25v25Z"/></g></g></svg>