<?xml version="1.0" encoding="UTF-8"?><svg id="Laag_1" xmlns="http://www.w3.org/2000/svg" xmlns:xlink="http://www.w3.org/1999/xlink" viewBox="0 0 64 64"><defs><style>.cls-1{fill:none;}.cls-2{clip-path:url(#clippath);}.cls-3{clip-path:url(#clippath-1);}</style><clipPath id="clippath"><rect class="cls-1" width="64" height="64"/></clipPath><clipPath id="clippath-1"><rect class="cls-1" width="64" height="64"/></clipPath></defs><g class="cls-2"><g class="cls-3"><path d="M48.33,4.67c-3.9,0-7.06,3.16-7.06,7.06s3.16,7.06,7.06,7.06,7.06-3.16,7.06-7.06-3.16-7.06-7.06-7.06m3.7,7.88s-4.38,.33-4.41,.31c-.42-.04-.75-.4-.75-.83l.33-4.58c.02-.3,.22-.48,.5-.48s.47,.2,.5,.48l.28,3.89,3.56,.35h-.01c.31,.02,.5,.15,.5,.42s-.21,.4-.5,.42M13.47,19.67c-.91-2.75-.05-5.16,2.73-6.07,2.65-.86,4.83,.24,5.84,3.28,.89,2.67-.07,5.04-2.78,5.92-2.72,.88-4.83-.24-5.79-3.14m36.36,30.08c-.76,.55-2.33,2.06-5.82-.84-.37-.31-.82-.73-.82-.73,0,0-2.67-5.62-3.44-7.35-.12-.28-.35-.25-.39-.19l3.66,18.52c-.89,.19-4.14,.57-5.42-3.43-1.29-4-3.49-11.37-3.49-11.37,0,0-7.55,1.54-9.79,1.94-3.09,.55-5.36-.86-6.01-3.02-.99-3.33-2.44-9.08-3.27-13.2-1.2-5.93,7.08-8.06,9.25-1.63,0,0,1.49,3.92,2.94,8.64,1.96-.83,4.03-1.67,5.97-2.33,3.57-1.17,4.49-1.25,6.98,1.57,5.24,6.08,9.08,12.48,9.67,13.42m-16.05-2.06c.16,.81-.37,1.6-1.18,1.76,0,0-1.41,.28-3.66,.7l3.85,9.65h-3.23l-3.62-9.09c-.34,.06-.69,.13-1.04,.19-.7,.13-1.38,.19-2.05,.19-1.04,0-2.04-.16-2.98-.44l-3,9.14h-3.16l3.43-10.46c-1.77-1.25-3.08-3.1-3.65-5.39l-3.05-12.34c-.2-.79,.29-1.6,1.08-1.79,.79-.2,1.64,.28,1.83,1.07l3.05,12.34c.85,3.43,4.2,5.42,7.96,4.73,4.44-.81,7.66-1.45,7.66-1.45,.82-.16,1.6,.37,1.76,1.18"/></g></g></svg>