<?xml version="1.0" encoding="UTF-8"?><svg id="Laag_1" xmlns="http://www.w3.org/2000/svg" xmlns:xlink="http://www.w3.org/1999/xlink" viewBox="0 0 64 64"><defs><style>.cls-1{fill:none;}.cls-2{clip-path:url(#clippath);}.cls-3{clip-path:url(#clippath-1);}</style><clipPath id="clippath"><rect class="cls-1" width="64" height="64"/></clipPath><clipPath id="clippath-1"><rect class="cls-1" width="64" height="64"/></clipPath></defs><g class="cls-2"><g class="cls-3"><path d="M42,19.6c0-3.92-3.7-9.8-6.26-13.41-1.43-2.01-3.74-3.19-6.2-3.19H2V7H7c.55,0,1,.45,1,1v7c0,.55-.45,1-1,1H2v12H35s7-3.33,7-8.4m-23-4.6c0,.55-.45,1-1,1h-5c-.55,0-1-.45-1-1v-7c0-.55,.45-1,1-1h5c.55,0,1,.45,1,1v7Zm7,0v-7c0-.55,.45-1,1-1h2.53c1.17,0,2.27,.56,2.94,1.51,1.67,2.34,2.89,4.36,3.76,6.03,.35,.67-.13,1.47-.89,1.47h-8.35c-.55,0-1-.45-1-1"/><path d="M62,30h-6v-13.01l3.71,2.28c.7,.43,1.63,.22,2.06-.49,.43-.7,.21-1.63-.49-2.06l-4.42-2.72,4.42-2.72c.71-.43,.93-1.36,.49-2.06-.43-.71-1.36-.93-2.06-.49l-5.71,3.52-5.71-3.52c-.71-.43-1.63-.22-2.06,.49-.43,.71-.21,1.63,.49,2.06l4.42,2.72-4.42,2.72c-.71,.43-.93,1.36-.49,2.06,.44,.71,1.36,.92,2.06,.49l3.71-2.28v13.01H2v3H30v27h13l-.97-7h5.03l1.93,7h13l-11.17-27h11.17v-3Zm-20.79,17l-.97-7h3.24l1.93,7h-4.21Zm1.17-11h-2.69l-.41-3h2.27l.83,3Z"/></g></g></svg>