<?xml version="1.0" encoding="UTF-8"?><svg id="Laag_1" xmlns="http://www.w3.org/2000/svg" xmlns:xlink="http://www.w3.org/1999/xlink" viewBox="0 0 64 64"><defs><style>.cls-1{fill:none;}.cls-2{clip-path:url(#clippath);}.cls-3{clip-path:url(#clippath-1);}</style><clipPath id="clippath"><rect class="cls-1" width="64" height="64"/></clipPath><clipPath id="clippath-1"><rect class="cls-1" width="64" height="64"/></clipPath></defs><g class="cls-2"><g class="cls-3"><path d="M41.12,19.56c-1.79-2.87-4.32-5-5.41-5.85-.34-.26-.77-.37-1.19-.28-1.63,.32-6.02,1.4-10.41,4.21-.39,.25-.55,.75-.39,1.19l1.02,3.23c-4.1,2.34-6.88,5.13-9.8,5.13-4.94-5.19-9.6-7.32-11.02-6.42-1.91,1.22,4.07,7.69,4.07,10.49s-5.98,9.27-4.07,10.49c1.43,.91,6.09-1.21,11.02-6.4,2.54,0,4.79,2.65,8.16,4.48,0,0,4.96-2.3,5.77-2.65,.59-.26,.81-.11,.86,.03,0,0-6.71,5.28-7.51,6.01-.69,.64-.39,1.2,.34,1.6,1.27,.7,6.43,1.87,11.35-1.68,1.62,.27,3.24,.27,5.13,.27,13.96,0,20.79-9.57,20.79-12.15,0-2.06-6.67-10.83-18.71-11.71m7.38,12.14c-1.15,0-2.2-1.05-2.2-2.2s1.05-2.2,2.2-2.2,2.2,1.05,2.2,2.2-1.05,2.2-2.2,2.2"/></g></g></svg>