<?xml version="1.0" encoding="UTF-8"?><svg id="Laag_1" xmlns="http://www.w3.org/2000/svg" xmlns:xlink="http://www.w3.org/1999/xlink" viewBox="0 0 64 64"><defs><style>.cls-1{fill:none;}.cls-2{clip-path:url(#clippath);}.cls-3{clip-path:url(#clippath-1);}</style><clipPath id="clippath"><rect class="cls-1" width="64" height="64"/></clipPath><clipPath id="clippath-1"><rect class="cls-1" width="64" height="64"/></clipPath></defs><g class="cls-2"><g class="cls-3"><path d="M47.88,29.79c.94-2.19,1.34-3.83,1-5.58-.38-1.95-3.6-3.55-8.35-4.44-1.47-.27-2.59-.19-3.44-1.39-.32-.45-.51-1.03-.57-1.68,1.46-.6,2.48-2.03,2.48-3.7,0-2.21-1.79-4-4-4-.76,0-1.47,.22-2.07,.59,.56,2.73-.17,3.5-.17,3.5-.37,.43-.7,.2-.78,.13,0-.08,.02-.15,.02-.23,0-2.21-1.79-4-4-4s-4,1.79-4,4c0,1.67,1.03,3.1,2.48,3.7-.06,.65-.25,1.23-.57,1.68-.85,1.2-1.98,1.12-3.44,1.39-4.75,.89-7.97,2.49-8.35,4.44-.23,1.17-.11,2.3,.26,3.57,3.44-1.74,9.74-2.83,17.12-2.83,.09,.15-.03,.45-.56,.55-.48,.09-11.27,1.24-16.31,5.35-2.11,4.59-3.46,9.79-3.41,13.81,.07,5.87,4.19,10.34,20.28,10.34s20.21-4.47,20.28-10.34c.05-4.33-1.51-10.04-3.9-14.87m-17.84-10.76c.29-.8,.49-1.78,.47-2.94,.4-.33,.74-.73,.99-1.19,.25,.46,.58,.86,.99,1.19-.02,1.16,.18,2.14,.47,2.94-1.64-.04-1.28-.04-2.92,0m5.96,28.76c-1.41,.33-2.08,.41-3.44,.41-3.56,0-6.08-1.74-6.82-5.54h-1.74v-1.95h1.54v-.54c0-.46,0-.95,.05-1.38h-1.59v-1.97h1.9c.92-3.85,3.54-5.8,7.1-5.8,1,0,1.79,.08,2.87,.31v2.69c-1.26-.23-1.92-.33-2.95-.33-1.95,0-3.23,1.05-3.79,3.13h4.67v1.97h-5c-.03,.36-.03,.72-.03,1.08,0,.31,0,.59,.03,.85h5v1.95h-4.69c.59,2.1,1.97,2.97,3.67,2.97,1.21,0,1.9-.1,3.23-.38v2.54Z"/></g></g></svg>