<?xml version="1.0" encoding="UTF-8"?><svg id="Laag_1" xmlns="http://www.w3.org/2000/svg" xmlns:xlink="http://www.w3.org/1999/xlink" viewBox="0 0 64 64"><defs><style>.cls-1{fill:none;}.cls-2{clip-path:url(#clippath);}.cls-3{clip-path:url(#clippath-1);}</style><clipPath id="clippath"><rect class="cls-1" width="64" height="64"/></clipPath><clipPath id="clippath-1"><rect class="cls-1" width="64" height="64"/></clipPath></defs><g class="cls-2"><g class="cls-3"><path d="M36.84,43.5c.25-2,1.96-3.5,3.97-3.5h2.51c.07-.2,.15-.39,.24-.59-2.57-1.22-5.56-2.2-7.32-2.73-.15-1.12-.36-2.41-.55-3.48,1.79-2.17,2.89-4.4,3.25-6.7,1.33-1.22,2.07-3.17,2.07-5.56,0-.74,0-2.7-1.23-4.04,.3-3.34,.51-8.5-.79-10.59-1.6-2.56-3.55-3.82-7.26-2.98-2.44-1.16-4.09-1.88-8.36-.84-2.97,.72-6.21,1.91-7.92,3.88-1.65,1.91-1.54,7.22-1.27,10.61-1.16,1.33-1.16,3.22-1.16,3.95,0,2.39,.74,4.33,2.06,5.55,.38,2.51,1.61,4.91,3.71,7.26-.11,.81-.23,1.75-.35,2.73-2.51,.74-9.67,3-12.03,5.57-2.87,3.12-4.39,14.89-4.39,14.89H37v-3.92c-.74-.84-1.12-1.97-.97-3.14l.81-6.38Zm-9.46,3.78c-2.3-1.75-6.59-5.53-6.16-9.02,.24-1.91,.04-.55,.82-5.44-2.28-2.2-4.1-4.87-4.1-8.06-1.62-.5-2.04-2.55-2.04-3.82s.32-1.96,.77-2.17c.39-.18,.77-.05,1.01,.09,.14,.65,.25,1.14,.29,1.31,.21,.85,1.02,.77,1.02,.77v-6.75c2.07-.15,6.19-.75,10.75-3.11l5.25,3.53v6.33s.82,.08,1.02-.77c.04-.17,.15-.66,.29-1.31,.24-.14,.62-.27,1.01-.09,.45,.21,.77,.9,.77,2.17s-.42,3.32-2.04,3.82c0,3.7-2.53,6.5-5.34,8.88-.78,.67-2.25,1.11-3.72,1.11-1.06,0-2.13-.29-2.93-.64,.61,.93,1.66,2.07,3.58,2.58,3.16,.84,5.46-.91,5.46-.91,0,0,.28,1.91,.27,2.42,.33,3.49-3.56,7.32-6.01,9.08"/><path d="M53,55v1c0,.55-.45,1-1,1h-2c-.55,0-1-.45-1-1v-1s0-.03,0-.04c-4.22-.17-7.19-.84-9.01-1.41v6.45c0,.55,.49,1,1.04,1h20c.55,0,.96-.45,.96-1v-6.43c-1.83,.57-4.8,1.23-9.01,1.39,0,.01,0,.02,0,.04"/><path d="M62.26,43.88c-.06-.5-.49-.88-.99-.88h-5.23v-1.4c0-1.04-.79-2-1.8-2.2-2.12-.4-4.27-.4-6.4,0-1.01,.2-1.8,1.16-1.8,2.2v1.4h-5.23c-.5,0-.93,.38-.99,.88l-.81,6.38c-.06,.45,.2,.89,.62,1.05,1.47,.56,5.2,1.69,11.41,1.69s9.94-1.13,11.41-1.69c.43-.16,.68-.6,.62-1.05l-.81-6.38Zm-8.22-.88h-2.04v6h-2v-6h-1.96v-1.4c0-.09,.12-.23,.18-.24,1.87-.36,3.77-.36,5.64,0,.07,.01,.18,.15,.18,.24v1.4Z"/></g></g></svg>