<?xml version="1.0" encoding="UTF-8"?><svg id="Laag_1" xmlns="http://www.w3.org/2000/svg" xmlns:xlink="http://www.w3.org/1999/xlink" viewBox="0 0 64 64"><defs><style>.cls-1{fill:none;}.cls-2{clip-path:url(#clippath);}.cls-3{clip-path:url(#clippath-1);}</style><clipPath id="clippath"><rect class="cls-1" width="64" height="64"/></clipPath><clipPath id="clippath-1"><rect class="cls-1" width="64" height="64"/></clipPath></defs><g class="cls-2"><g class="cls-3"><path d="M15.06,25.47l-2.31-3.26c-2.57,1.86-4.25,4.88-4.25,8.29s1.68,6.43,4.25,8.29l2.31-3.26c-1.55-1.14-2.56-2.97-2.56-5.03s1.01-3.89,2.56-5.03"/><path d="M4.5,30.5c0-4.76,2.35-8.97,5.94-11.56l-2.31-3.26C3.52,19,.5,24.4,.5,30.5s3.02,11.5,7.64,14.82l2.31-3.26c-3.59-2.59-5.94-6.8-5.94-11.56"/><path d="M51.25,22.21l-2.31,3.26c1.55,1.14,2.56,2.97,2.56,5.03s-1.01,3.89-2.56,5.03l2.31,3.26c2.57-1.86,4.25-4.88,4.25-8.29s-1.68-6.43-4.25-8.29"/><path d="M55.86,15.68l-2.31,3.26c3.59,2.59,5.95,6.8,5.95,11.56s-2.35,8.97-5.95,11.56l2.31,3.26c4.61-3.31,7.64-8.71,7.64-14.82s-3.02-11.5-7.64-14.82"/><path d="M40.03,11.33c-3.99,1.59-6.84,6.36-7.54,11.22-.74,5.14,1.11,8.22,1.11,8.22,0,0-4.15,.19-4.56-5.76-.47-6.83-5.28-8.1-5.28-8.1,0,0,.65,6.04-.91,9.6-1.44,3.27-2.25,3.94-4.29,9.11-1.97,4.98-1.73,11.63,1.98,15.29,1.83,1.8,4.05,3.01,6.46,3.63-1.08-1.21-2.26-2.63-2.35-5.3-.1-2.86,1.51-5.48,3.92-8.05-.47,3.56-.07,7.6,3.14,7.3,3.18-.29,5.33-7.19,5.14-11.16,1.7,3.87,3.17,8.25,1.18,12.7-.95,2.13-1.58,3.16-2.84,4.39,2.84-.77,5.61-2.27,8-4.55,3.58-3.41,5.1-8.51,2.45-14.75-5.37-12.66-6.7-18.01-5.63-23.78"/></g></g></svg>