<?xml version="1.0" encoding="UTF-8"?><svg id="Laag_1" xmlns="http://www.w3.org/2000/svg" xmlns:xlink="http://www.w3.org/1999/xlink" viewBox="0 0 64 64"><defs><style>.cls-1{fill:none;}.cls-2{clip-path:url(#clippath);}.cls-3{clip-path:url(#clippath-1);}</style><clipPath id="clippath"><rect class="cls-1" width="64" height="64"/></clipPath><clipPath id="clippath-1"><rect class="cls-1" width="64" height="64"/></clipPath></defs><g class="cls-2"><g class="cls-3"><path d="M3.67,42.24c-1.29,.89-2.23,2.95-2.59,5.44,.65,.63,1.35,1.2,2.09,1.72,.29-1.46,.71-3.15,1.28-4.83,.47-1.37,1.05-2.47,1.65-3.35-.78,.15-1.58,.42-2.43,1.01m6.28-1.62c-.3,.11-.6,.18-.9,.24-.53,.48-1.13,1.16-1.69,2.13,.88,.4,3.3,1.43,7.45,2.56,.76-1.63,1.65-2.77,2.48-3.57-.62-.31-1.18-.56-1.59-.72h0c-.59-.29-.85-.62-.96-1.26l-.15-.94c.39-.08,.92-.23,1.33-.51,.7-.48,2.14-4.46,1.97-5.92-.16-1.44-.42-1.5-.64-2.75-.23-1.32,1.03-2.61,.45-4.54-.53-1.73-2.6-3.48-5.1-3-1.89,.37-2.27,.72-3.53,1.4,0,0-2.61-.45-3.84,1.01-1.83,2.18-.88,5.31-1.32,8.45-.4,2.82-1.88,4.03-1.88,4.03,2.26,1.91,5.25,2.68,8.2,3,.1,.09,.01,.29-.27,.39m-4.96,9.94c2.37,1.32,5.02,2.22,7.65,2.85,.27-1.63,.72-3.8,1.44-5.99-4.18-1.16-6.63-2.19-7.57-2.62-.66,1.73-1.18,3.92-1.52,5.77m55.7-9.94c-1.05-.7-2.44-.56-3.67-.4,.16-2.43,3.44-5.04,2.88-11.36,.15,0,.3,0,.43,0,.79-.02,1.47-.56,1.69-1.32l.27-.94s-6.37-3.82-13.49-8.09c-.66-.4-1.5,.28-1.46,1.05,.06,1.19,.16,2.81,.3,4.11l-3.4,2.43s.81,.77,3.09,1.47c-.24,.9-.26,1.28-.25,1.8,.03,2.33-.87,2.28-.87,4.49,0,1.16,.64,5.2,1.31,5.65,.82,.55,3.73,.75,4.72,.76,.07,.1,.04,.25-.22,.38-.9,.43-2.81,.56-3.82,.59-1.34,.7-4.99,2.74-6.18,4.82-.76,1.34-1.49,6.12-1.81,8.9,5.79-.47,16.37-1.14,22.77-7.32-.18-.92-.26-5.66-2.27-7.01m-18.23-13.29c-1.56-1.65-5.28-2.53-6.54-2.79-.21-.04-.37-.21-.4-.42-.06-.4-.12-.76-.16-1.03,1.17-1.22,2.05-2.69,2.33-4.68,1.01-.31,1.22-1.56,1.22-2.34s-.14-1.2-.42-1.33c-.27-.12-.52-.01-.66,.07,.16-1.59,.39-4.93-.3-6.17-.74-1.32-1.63-1.85-3.34-1.42-1.12-.6-1.88-1.35-3.84-.81-1.36,.37-2.86,1.05-3.64,2.07-.87,1.12-.68,4.66-.53,6.32-.15-.09-.38-.18-.64-.06-.28,.13-.42,.55-.42,1.33s.2,2.03,1.22,2.34c.25,2.09,1.14,3.5,2.31,4.68-.06,.35-.12,.74-.17,1.04-.03,.21-.19,.37-.39,.41-1.25,.26-4.98,1.14-6.54,2.79-1.43,1.52-1.53,7.52-1.53,9.66,3.57-.76,7.66-1.2,11.99-1.2s8.41,.43,11.99,1.2c0-2.18-.1-8.15-1.53-9.67m-3.46,4.67h-2v2h-2v-2h-2v-2h2v-2h2v2h2v2Zm-19.76,11.16c-2.75,2.22-3.8,6.8-4.44,10.7,3.41,.65,6.66,.9,9.04,1.1-.27-2.7-.9-7.26-1.84-8.9-.69-1.19-1.71-2.15-2.76-2.9"/></g></g></svg>