<?xml version="1.0" encoding="UTF-8"?><svg id="Laag_1" xmlns="http://www.w3.org/2000/svg" xmlns:xlink="http://www.w3.org/1999/xlink" viewBox="0 0 64 64"><defs><style>.cls-1{fill:none;}.cls-2{clip-path:url(#clippath);}.cls-3{clip-path:url(#clippath-1);}</style><clipPath id="clippath"><rect class="cls-1" width="64" height="64"/></clipPath><clipPath id="clippath-1"><rect class="cls-1" width="64" height="64"/></clipPath></defs><g class="cls-2"><g class="cls-3"><path d="M52,5h-16c-2.56,0-4.92,1.13-6.79,3h-5.83c2.28,1.57,3.84,5.8,3.84,11.06,0,2.17-.27,4.16-.74,5.87,1.67,.69,3.03,2.09,3.6,3.94,.22,.7,.29,1.42,.26,2.11,1.65,1.27,3.58,2.01,5.65,2.01h16c4.42,0,8-6.27,8-14s-3.58-14-8-14"/><path d="M12.03,27.87l.93-.29v-4.59h5.36c1.27,0,2.3,.97,2.44,2.2l1.52-.47c.14-.04,.28-.08,.43-.11-.4-2.06-2.2-3.62-4.38-3.62H7.61c-2.47,0-4.47,2-4.47,4.46s2,4.47,4.47,4.47h1.39c.76-.94,1.79-1.68,3.04-2.06"/><path d="M28.38,29.4c-.59-1.92-2.36-3.16-4.27-3.16-.43,0-.88,.06-1.31,.2l-10.24,3.14c-2.36,.72-3.68,3.22-2.96,5.58,.72,2.36,3.22,3.68,5.58,2.96l10.24-3.14c2.36-.72,3.68-3.22,2.96-5.58m-13.79,6.81c-1.29,.4-2.67-.31-3.08-1.63-.4-1.3,.33-2.68,1.63-3.08l5.12-1.57,1.44,4.71-5.12,1.57Z"/><path d="M41.54,38.67l-17.67,1.99c-4.86,.55-8.4,5.01-7.86,9.91,.53,4.9,4.94,8.47,9.8,7.92l17.66-1.99c4.86-.55,8.4-5.01,7.86-9.91-.53-4.9-4.95-8.47-9.8-7.92m-18.81,15.86c-1.99-.93-3.01-2.42-3.19-4.46-.13-1.45,.33-2.78,1.16-3.83l1.79,1.59c-1.21,1.59-1.09,4.9,.81,6.6-.04,.27-.23,.25-.57,.1m20.36-1.6l-8.14,.92c.73-.91,1.09-2.98,.83-5.34-.31-2.82-1.39-5.05-2.51-5.3l8.65-.98c2.94-.33,5.56,1.85,5.88,4.75,.32,2.94-1.81,5.62-4.72,5.94"/><path d="M18.32,19.22c2.96,0,5.43,2.06,6.08,4.83,.36-1.36,.6-3.01,.6-4.92,0-5.65-2.04-9.13-3.5-9.13s-3.52,3.5-3.5,9.22h.32Z"/></g></g></svg>