<?xml version="1.0" encoding="UTF-8"?><svg id="Laag_1" xmlns="http://www.w3.org/2000/svg" xmlns:xlink="http://www.w3.org/1999/xlink" viewBox="0 0 64 64"><defs><style>.cls-1{fill:none;}.cls-2{clip-path:url(#clippath);}.cls-3{clip-path:url(#clippath-1);}</style><clipPath id="clippath"><rect class="cls-1" width="64" height="64"/></clipPath><clipPath id="clippath-1"><rect class="cls-1" width="64" height="64"/></clipPath></defs><g class="cls-2"><g class="cls-3"><path d="M58.34,14.82l-9.16-9.16c-1.5-1.5-3.7,.47-2.73,2.22,1.13,2.04,1.74,2.98,1.74,2.98l-5.16,5.16s.88,1.75,2.39,4.81c.15,.3-.03,.41-.08,.43,0,0-8.13-8.12-9.85-9.85-1.16-1.16-3.49,.63-2.47,2.43,1,1.77,2.42,4.11,2.42,4.11l-17.06,17.06c-.56,.56-.94,1.27-1.09,2.04l-1.79,9.37-10.21,10.56h3.44l8.83-8.49,9.4-1.77c.78-.15,1.49-.53,2.05-1.1l17.06-17.06s2.34,1.42,4.11,2.42c1.81,1.02,3.59-1.31,2.43-2.47l-6.09-6.09,6.63-6.63s.95,.61,2.98,1.74c1.75,.97,3.72-1.23,2.22-2.73m-18.9,14.69l-2.83-2.83-1.41,2.83,2.12,2.12-2.12,2.12-2.83-2.83-1.41,2.83,2.12,2.12-2.12,2.12-2.83-2.83-1.41,2.83,2.12,2.12-2.12,2.12-4.95-4.95,16.26-16.26,4.95,4.95-3.53,3.53Z"/></g></g></svg>