<?xml version="1.0" encoding="UTF-8"?><svg id="Laag_1" xmlns="http://www.w3.org/2000/svg" viewBox="0 0 64 64"><defs><style>.cls-1{fill:none;}</style></defs><rect class="cls-1" width="64" height="64"/><rect x="19" y="21" width="25" height="5"/><path d="m18.57,42h9.88c.23-.91.39-1.92.47-3h-9.98c-.07,1.05-.19,2.05-.37,3Z"/><rect x="19" y="34" width="10" height="3"/><rect x="19" y="29" width="10" height="3"/><path d="m11.86,47c1.38-2.55,2.14-6,2.14-11v-20h35v10.51c.62-.27,1.29-.41,2-.41,1.12,0,2.16.37,3,.99v-14.09c0-1.1-.9-2-2-2H11c-1.1,0-2,.9-2,2v24.17c0,1.62-.16,3.13-.46,4.46,0,0-.3.1-.34-.3-.43-3.52-2.35-20.33-2.35-20.33H1.77c-1.03,0-1.71.81-1.6,1.72.57,4.55,1.81,12.57,2.4,16.64.94,6.5,1.83,12.64,9.43,12.64h24c.08-.16.17-.33.27-.48l1.96-2.98c.31-.47.53-1,.65-1.54H11.86Z"/><path d="m32,37.17c0,1.73-.16,3.34-.45,4.83h8.04l.8-5.7.02-.14.03-.14c.54-2.3,1.82-4.3,3.56-5.78v-1.25h-12v8.17Z"/><path d="m63.22,53.17l-1.95-2.96c-.63-.94-1.03-2.01-1.19-3.13l-1.45-10.36c-.67-2.86-2.86-5.04-5.59-5.78-.12-1.03-.98-1.84-2.05-1.84s-1.93.81-2.05,1.84c-2.73.74-4.92,2.92-5.59,5.78l-1.45,10.36c-.16,1.12-.56,2.19-1.19,3.13l-1.95,2.96c-.52.78.04,1.82.98,1.82,0,0,12.88,0,12.88,0,.03.09.13.56-.42.65-.21.04-2.09.26-4.4.53.61,1.14,1.8,1.92,3.19,1.92,1.83,0,3.33-1.35,3.58-3.11h7.66c.94,0,1.5-1.04.98-1.82Z"/></svg>