<?xml version="1.0" encoding="UTF-8"?><svg id="Laag_1" xmlns="http://www.w3.org/2000/svg" xmlns:xlink="http://www.w3.org/1999/xlink" viewBox="0 0 64 64"><defs><style>.cls-1{fill:none;}.cls-2{clip-path:url(#clippath);}.cls-3{clip-path:url(#clippath-1);}</style><clipPath id="clippath"><rect class="cls-1" width="64" height="64"/></clipPath><clipPath id="clippath-1"><rect class="cls-1" width="64" height="64"/></clipPath></defs><g class="cls-2"><g class="cls-3"><path d="M20.2,34.12c4.4,1.83,7.52-.36,7.52-.36,0,0-.31-5.62-4.96-7.08-3.29-1.03-5.89-.43-7.12,.01-.47,.17-.73,.66-.59,1.14,.46,1.55,1.81,4.91,5.15,6.3"/><path d="M46.05,49c-4.6,0-7.81-2.38-11.1-3.81-2.15-6.27-2.17-12.74-.69-18.19,9.43,1.02,15.79-11.96,11.2-22.2-.31-.68-1.23-.79-1.7-.21-7.93,9.69-13.66,4.74-17,12-1.24,2.7-.59,6.18,1.9,8.32,2.14-4.03,4.81-7.1,6.76-8.73,.3-.25,.47-.16,.55-.1-5.15,8.27-8.2,18.08-6.07,28.09-5.49,.45-9.3,5.93-13.95,6.78-4.66,.85-8.9,2.97-8.9,8.05H57.92s-5.34-10-11.87-10"/></g></g></svg>