<?xml version="1.0" encoding="UTF-8"?><svg id="Laag_1" xmlns="http://www.w3.org/2000/svg" xmlns:xlink="http://www.w3.org/1999/xlink" viewBox="0 0 64 64"><defs><style>.cls-1{fill:none;}.cls-2{clip-path:url(#clippath);}.cls-3{clip-path:url(#clippath-1);}</style><clipPath id="clippath"><rect class="cls-1" width="64" height="64"/></clipPath><clipPath id="clippath-1"><rect class="cls-1" width="64" height="64"/></clipPath></defs><g class="cls-2"><rect x="22.84" y="35.95" width="16" height="6" transform="translate(-18.51 33.21) rotate(-45)"/><g class="cls-3"><path d="M52.36,25h-5.68l4.65,4.65-23.53,23.53L10.72,36.09l11.09-11.09h-5.68l-9.67,9.67c-.78,.78-.78,2.05,0,2.84l19.93,19.93c.38,.38,.89,.59,1.42,.59s1.04-.21,1.42-.59l26.37-26.37c.78-.78,.78-2.05,0-2.84l-3.23-3.23Z"/><path d="M59.77,20.27l-3.5-7.75c-.67-.95-1.76-1.52-2.92-1.52H7.53c-.85,0-1.53,.69-1.53,1.53V29c0,.81,.97,1.21,1.54,.64l4.46-4.64s-3.82-10.35-3.9-10.62c-.1-.33,.19-.38,.19-.38l4.51,7.56c.54,.9,1.5,1.44,2.55,1.44H58c1.4,0,2.34-1.45,1.76-2.73"/></g></g></svg>