<?xml version="1.0" encoding="UTF-8"?><svg id="Laag_1" xmlns="http://www.w3.org/2000/svg" xmlns:xlink="http://www.w3.org/1999/xlink" viewBox="0 0 64 64"><defs><style>.cls-1{fill:none;}.cls-2{clip-path:url(#clippath);}.cls-3{clip-path:url(#clippath-1);}</style><clipPath id="clippath"><rect class="cls-1" width="64" height="64"/></clipPath><clipPath id="clippath-1"><rect class="cls-1" width="64" height="64"/></clipPath></defs><g class="cls-2"><polygon points="46 4 34 4 34 18.2 46 6.2 46 4"/><g class="cls-3"><path d="M34,29.8v5.57c2.67-2.39,6.93-3.97,12-4.3v-11.68l-.64-.96-11.36,11.36Z"/><polygon points="16 10 4 10 4 28.03 16 16.26 16 10"/><polygon points="4 39.52 4 57 16 57 16 28.47 15.67 28.07 4 39.52"/><polygon points="31 21.2 31 15 19 15 19 19.19 25.3 26.9 31 21.2"/><polygon points="19 32.14 19 57 31 57 31 32.8 24.69 39.1 19 32.14"/><polygon points="24.85 35.98 45.69 15.14 53.85 27.38 60 19.74 60 13.36 54.15 20.62 46.31 8.86 25.15 30.02 16.16 19.04 4 30.97 4 36.58 15.84 24.96 24.85 35.98"/><path d="M48,53c7.85,0,14-3.38,14-7.68v-3.65c0-4.3-6.15-7.67-14-7.67s-14,3.37-14,7.67v3.65c0,.95,.31,1.85,.86,2.68-.55,.83-.86,1.72-.86,2.66v3.65c0,4.3,6.15,7.68,14,7.68s14-3.38,14-7.68v-3.65c0-.2-.03-.41-.05-.61-.72,.9-4.57,5.14-13.61,5.14-8.02,0-10.78-3.86-11.07-4.38-.12-.21-.2-.44-.08-.57,2.55,1.69,6.41,2.75,10.81,2.75m-11.3-11c0-2.84,5.06-5.15,11.3-5.15s11.3,2.31,11.3,5.15-5.06,5.15-11.3,5.15-11.3-2.31-11.3-5.15"/><path d="M45.85,43.73v.68h1.55v-.56c.31,.02,.67,.02,1.02,.02h.38v.54h1.52v-.62c2.78-.3,4.11-1.26,4.11-2.67,0-.55-.06-.78-.31-1.34h-2.06c.21,.52,.29,.78,.29,1.25,0,.62-.59,1.12-2.03,1.33v-1.76h-1.52v1.89c-.19,0-.38,.02-.61,.02-.27,0-.52-.01-.79-.02v-1.89h-1.55v1.75c-1.4-.21-2.13-.66-2.13-1.37,0-.41,.08-.65,.25-1.15h-2.17c-.17,.43-.23,.73-.23,1.12,0,1.42,1.44,2.42,4.28,2.78"/></g></g></svg>