<?xml version="1.0" encoding="UTF-8"?><svg id="Laag_1" xmlns="http://www.w3.org/2000/svg" xmlns:xlink="http://www.w3.org/1999/xlink" viewBox="0 0 64 64"><defs><style>.cls-1{fill:none;}.cls-2{clip-path:url(#clippath);}.cls-3{clip-path:url(#clippath-1);}</style><clipPath id="clippath"><rect class="cls-1" width="64" height="64"/></clipPath><clipPath id="clippath-1"><rect class="cls-1" width="64" height="64"/></clipPath></defs><g class="cls-2"><g class="cls-3"><path d="M29.74,48.94c-.49,1-.79,2.68-1.76,8.06h3.69l-.88-9.95c-.38,.64-.75,1.29-1.05,1.9"/><path d="M25.57,35.93c-.18,.57-.58,1.67-.9,2.19-.7,1.18-1.7,3.03-3.3,4.95-.09,.1-.2,.18-.31,.24,0,.39,.02,.88,.02,1.43,0,1.47-.02,3.43-.04,5.39-.02,2.73-.04,5.46-.05,6.86h3.84c.13-3.9,.19-5.82,.45-8.33,.3-1.66,2.19-5.11,2.92-6.78-.7-1.74-1.72-4-2.63-5.96"/><path d="M60,14h-22.94c1.38,1.98,2.2,4.39,2.2,6.99,0,.34-.02,.67-.05,1,.93,1.53,1.47,3.32,1.47,5.24,0,2.38-.82,4.56-2.19,6.29,.47-1.14,.73-2.38,.73-3.69,0-2.61-1.03-4.97-2.69-6.72,.15-.69,.24-1.4,.24-2.13,0-4.11-2.55-7.62-6.15-9.06-1.18-3.32-4.33-5.7-8.06-5.7-2.51,0-4.76,1.09-6.32,2.8-.22-.02-.45-.03-.68-.03-4.72,0-8.55,3.83-8.55,8.55,0,.28,.02,.56,.04,.83-2.9,1.46-4.89,4.45-4.89,7.92,0,2.49,1.03,4.73,2.67,6.34-.52,1.18-.82,2.48-.82,3.85,0,5.25,4.25,9.5,9.5,9.5,.44,0,.86-.04,1.29-.1-1.18,6.97-2.79,11.1-2.79,11.1h7.36c-.07-1.41-.19-4.12-.32-6.82-.09-1.96-.19-3.91-.25-5.38-.05-1.47-.05-2.45-.05-2.45,0,0,0-.35,.11-.56,1.18-2.34,2.77-4.45,3.32-5.96,.3-1-.06,.29,.75-2.69,.27-1,.98-5.57,5.59-4.11,2.7,.86,3.87,3.57,4.63,5.3,.54,1.24,1.81,4.07,2.01,5.96,.16,1.54-.49,15.47-.44,16.72h26.29V15c0-.55-.45-1-1-1M25.12,27.61c-2.02,.44-3.51-.72-3.95-2.76-.04-.16-.05-.31-.07-.46-.86,.06-2.72,.3-2.85-.33-.2-.98,5.57-4.52,7.16-4.31,1.59,.22,2.15,3.65,2.15,3.65h0s0,.02,.01,.04c.49,2.21-.41,3.72-2.44,4.16m28.88,20.39h-9v-9h9v9Zm0-17h-9v-9h9v9Z"/></g></g></svg>