<?xml version="1.0" encoding="UTF-8"?><svg id="Laag_1" xmlns="http://www.w3.org/2000/svg" xmlns:xlink="http://www.w3.org/1999/xlink" viewBox="0 0 64 64"><defs><style>.cls-1{fill:none;}.cls-2{clip-path:url(#clippath);}.cls-3{clip-path:url(#clippath-1);}</style><clipPath id="clippath"><rect class="cls-1" width="64" height="64"/></clipPath><clipPath id="clippath-1"><rect class="cls-1" width="64" height="64"/></clipPath></defs><g class="cls-2"><g class="cls-3"><path d="M57.83,20.75l-3.83-5.75v-7c0-.55-.45-1-1-1H11c-.55,0-1,.45-1,1v7l-3.83,5.75c-.11,.16-.17,.36-.17,.56v2.7c0,.55,.45,1,1,1h3v30H54V25h3c.55,0,1-.45,1-1v-2.7c0-.2-.06-.39-.17-.56m-29.83,.25h0l.67-6h6.67l.67,6h0v4h-8v-4Zm-15,0h0l3.17-6h6.67l-1.83,6v4H13v-4Zm24,29H15V29h22v21Zm12,0h-9V29h9v21Zm2-29v4h-8v-4h0l-1.83-6h6.67l3.17,6h0Z"/><path d="M20.37,44.67c-.64,.64-.31,1.3,0,1.59,.54,.53,1.76,1.05,3.62-1.1,.55-.63,.95-1.21,1.64-2.19-.53-.61-1.09-1.25-1.66-1.91l-3.61,3.61Z"/><path d="M33.23,33.28c0-.54-.66-.81-1.04-.43l-4.6,4.6c.9,.78,1.75,1.53,2.54,2.23,1.49-2,3.1-4.59,3.1-6.4"/><path d="M22.31,39.82c.59,.6,1.73,.57,2.71,0,3.46,4.03,5.53,6.48,5.74,6.69,.49,.49,1.32,.31,1.94-.31,.62-.62,.8-1.45,.31-1.94-.2-.2-2.75-2.39-6.67-5.79,.54-.97,.56-2.08-.03-2.67l-4.01-3.51c-.15-.13-.36-.14-.5,0-.14,.14-.13,.35,0,.5l3.16,3.63c.12,.15,.1,.37-.03,.5-.14,.14-.38,.16-.53,.03l-3.61-3.15c-.15-.13-.36-.14-.5,0-.14,.14-.13,.35,0,.5l3.15,3.61c.13,.15,.11,.39-.03,.53-.14,.14-.35,.15-.5,.03l-3.63-3.16c-.15-.13-.36-.14-.5,0-.14,.14-.14,.35,0,.5l3.51,4.01Z"/></g></g></svg>