<?xml version="1.0" encoding="UTF-8"?>
<svg id="Zwart" xmlns="http://www.w3.org/2000/svg" viewBox="0 0 64 64">
  <path d="M53.11,46.61c-2.63-3.03-9.39-4.24-11.89-4.87-.15-1.12-.36-2.41-.55-3.48,1.79-2.17,2.89-4.41,3.25-6.7,1.02-.94,1.86-2.58,2.03-4.68.13-1.64-.04-3.53-1.09-4.78,0,0,0,0,0,0,.35-.56,1.12-1.01,1.23-1.63.16-.87-.54-1.82-.5-2.68.03-.89.79-1.8.67-2.64-.13-.87-1.12-1.51-1.44-2.3-.33-.8-.08-1.95-.63-2.64-.52-.65-1.69-.67-2.44-1.2-.67-.47-1.05-1.58-1.91-1.93-.75-.3-1.82.2-2.73,0-.8-.17-1.53-1.09-2.46-1.18-.82-.08-1.72.68-2.65.68s-1.83-.76-2.64-.68c-.92.09-1.66,1.01-2.45,1.18-.91.2-1.98-.31-2.73,0-.86.35-1.24,1.46-1.91,1.93-.75.53-1.92.54-2.44,1.2-.55.69-.3,1.84-.63,2.64-.33.79-1.31,1.43-1.44,2.3-.12.84.63,1.76.66,2.65.03.85-.66,1.81-.5,2.68.11.62.88,1.07,1.23,1.63,0,0,0,.01-.01.02-.89,1.07-1.12,2.51-1.12,3.9,0,1.49.29,2.81.83,3.89.32.65.74,1.21,1.23,1.66,0,1.13,1.04,4.27,3.71,7.26-.27,1.1-.65,2.81-.65,2.81-2.75.74-9.61,1.86-12.24,4.98-3.32,3.95-3.89,15.39-3.89,15.39h50s-.56-11.56-3.89-15.39ZM38.11,45.4c-1.81,5.45-9.84,5.48-11.64.03-.23-.7-.33-1.41-.24-2.11.24-1.91.04-.55.82-5.44-2.28-2.2-4.1-4.87-4.1-8.06-1.62-.5-2.04-2.55-2.04-3.82s.32-1.96.77-2.17c.39-.18.78-.05,1.01.09.23.14.39.25.56.39l.45-4.91c.16-1.75,1.78-2.98,3.51-2.68l1.7.3c2.04.36,4.13.36,6.18,0l1.69-.3c1.73-.31,3.35.94,3.51,2.69l.44,4.98s.3-.33.59-.48c.25-.13.62-.27,1.01-.09.45.21.77.9.77,2.17s-.42,3.31-2.04,3.82c0,3.7-2.53,6.5-5.34,8.88-.78.66-2.25,1.11-3.72,1.11-1.06,0-2.13-.29-2.93-.63.61.93,1.66,2.07,3.58,2.59,3.15.83,5.46-.91,5.46-.91,0,0,.28,1.91.27,2.42.07.71-.04,1.43-.28,2.14Z"/>
</svg>