<?xml version="1.0" encoding="UTF-8"?><svg id="Laag_1" xmlns="http://www.w3.org/2000/svg" xmlns:xlink="http://www.w3.org/1999/xlink" viewBox="0 0 64 64"><defs><style>.cls-1{fill:none;}.cls-2{clip-path:url(#clippath);}.cls-3{clip-path:url(#clippath-1);}</style><clipPath id="clippath"><rect class="cls-1" width="64" height="64"/></clipPath><clipPath id="clippath-1"><rect class="cls-1" width="64" height="64"/></clipPath></defs><g class="cls-2"><g class="cls-3"><path d="M49.5,34.54c3.14-2.8,5.5-8.57,5.5-12.26,0-5.03-3.46-8.27-8.21-8.27-2.11,0-4.22,.81-5.91,2.14-.39-4.18,2.88-8.63,2.88-9.64h0c0-1.93-5.26-2.5-11.76-2.5s-11.75,.57-11.75,2.5c0,1.01,3.27,5.46,2.88,9.64-1.7-1.33-3.8-2.14-5.91-2.14-4.75,0-8.21,3.25-8.21,8.27,0,3.7,2.37,9.49,5.52,12.28,.88,3.75,2.84,7.97,5.54,11.44,3.57,4.58,5.59,4.09,4.8,7.2-.55,2.16-3.73,3.9-5.38,4.42-.89,.28-1.48,1.03-1.48,1.88v1.51h28v-1.51c0-.84-.59-1.6-1.48-1.88-1.81-.57-5.13-2.31-5.29-4.81-2.73,.71-5.01,.69-5.67,.62-.42-.05-.61-.17-.63-.33,8.07-.72,14.74-10.69,16.57-18.54M13,22.27c0-2.72,1.53-4.27,4.21-4.27,1.45,0,3.08,.78,4.18,1.98-2.18,2.44-5.72,3.75-6.95,7.6-.83-1.74-1.45-3.69-1.45-5.31m33.79-4.27c2.68,0,4.21,1.56,4.21,4.27,0,1.62-.62,3.57-1.45,5.31-1.23-3.86-4.76-5.16-6.95-7.61,1.11-1.21,2.73-1.98,4.18-1.98"/></g></g></svg>