<?xml version="1.0" encoding="UTF-8"?><svg id="Laag_1" xmlns="http://www.w3.org/2000/svg" xmlns:xlink="http://www.w3.org/1999/xlink" viewBox="0 0 64 64"><defs><style>.cls-1{fill:none;}.cls-2{clip-path:url(#clippath);}.cls-3{clip-path:url(#clippath-1);}</style><clipPath id="clippath"><rect class="cls-1" width="64" height="64"/></clipPath><clipPath id="clippath-1"><rect class="cls-1" width="64" height="64"/></clipPath></defs><g class="cls-2"><g class="cls-3"><path d="M56.04,52.09c-2.46,0-4.92-1.94-6-2.75-1,.75-3.49,2.75-6,2.75s-4.92-1.94-6-2.75c-1,.75-3.49,2.75-6,2.75s-4.92-1.94-6-2.75c-1,.75-3.49,2.75-6,2.75s-4.92-1.94-6-2.75c-1,.75-3.49,2.75-6,2.75-1.02,0-2.12-.39-3.04-.83v4.22c.94,.3,1.98,.52,3.04,.52,2.4,0,4.66-1.08,6-1.86,1.34,.79,3.6,1.86,6,1.86s4.66-1.08,6-1.86c1.34,.79,3.6,1.86,6,1.86s4.66-1.08,6-1.86c1.34,.79,3.6,1.86,6,1.86s4.66-1.08,6-1.86c1.34,.79,3.6,1.86,6,1.86,1.03,0,2.04-.2,2.96-.49v-4.2c-.9,.42-1.97,.79-2.96,.79"/><path d="M12.53,47.73l1.52-1.14,1.48,1.11c.37,.28,.89,.67,1.48,1.04v-3.52c0-4.53,3.69-8.23,8.22-8.23h9.78c.55,0,1,1.34,1,3s-.45,3-1,3h-9.78c-1.23,0-2.22,1-2.22,2.23v3.57c.63-.39,1.18-.8,1.53-1.07l1.52-1.14,1.48,1.11c.94,.71,2.91,2.19,4.52,2.19s3.63-1.51,4.48-2.16l1.52-1.14,1.48,1.11c.94,.71,2.91,2.19,4.52,2.19s3.63-1.51,4.48-2.16l1.52-1.14,1.48,1.11c.94,.71,2.91,2.19,4.52,2.19,.24,0,.53-.05,.85-.14l-1.9-42.75c0-1.1-2.24-2-5-2s-5,.9-5,2l-1.02,20.16c2.16,2.09,4.63,4.54,4.78,4.68,.25,.25,.02,.43,.02,.43l-15.29-8.7c-.67-.38-1.49,.1-1.49,.87v4.86l-10.52-5.76c-.67-.37-1.48,.12-1.48,.88v4.86h-.04l-10.48-5.74c-.67-.36-1.48,.12-1.48,.88v25.47s.03,0,.04,0c1.63,0,3.63-1.51,4.48-2.16"/></g></g></svg>