<?xml version="1.0" encoding="UTF-8"?><svg id="Laag_1" xmlns="http://www.w3.org/2000/svg" xmlns:xlink="http://www.w3.org/1999/xlink" viewBox="0 0 64 64"><defs><style>.cls-1{fill:none;}.cls-2{clip-path:url(#clippath);}.cls-3{clip-path:url(#clippath-1);}</style><clipPath id="clippath"><rect class="cls-1" width="64" height="64"/></clipPath><clipPath id="clippath-1"><rect class="cls-1" width="64" height="64"/></clipPath></defs><g class="cls-2"><g class="cls-3"><path d="M51.79,43.62c-1.15-1.26-3.49-3.14-5.83-4.9-6.41,8.83-14.91,13.53-25.24,15.12-.64,.1-.59-.24-.59-.24,8.04-2.75,17.75-7.65,21.89-15.12,2.44-4.39,3.98-10.18,3.98-16.08,0-10.22-6.27-17.4-14-17.4s-14,7.18-14,17.4,4.69,20.46,10.97,22.99c-.03,.16-.22,.19-.48,.14-4.17-.81-7.38-3.84-9.89-7.22-2.52,1.87-5.14,3.95-6.38,5.31-2.76,3.02-4.21,14.38-4.21,14.38H56s-1.45-11.36-4.21-14.38M23.05,19.64s2.95-1.84,8.95-1.84,8.95,1.84,8.95,1.84c0,0,.59,3.7-.23,8.61-.62,3.71-3.43,9.95-8.72,9.95s-8.1-6.25-8.72-9.95c-.83-4.91-.23-8.61-.23-8.61"/></g></g></svg>