<?xml version="1.0" encoding="UTF-8"?><svg id="Laag_1" xmlns="http://www.w3.org/2000/svg" xmlns:xlink="http://www.w3.org/1999/xlink" viewBox="0 0 64 64"><defs><style>.cls-1{fill:none;}.cls-2{clip-path:url(#clippath);}.cls-3{clip-path:url(#clippath-1);}</style><clipPath id="clippath"><rect class="cls-1" width="64" height="64"/></clipPath><clipPath id="clippath-1"><rect class="cls-1" width="64" height="64"/></clipPath></defs><g class="cls-2"><g class="cls-3"><path d="M62.67,15.83c-1.63-.38-6.25-1.29-6.8-2.66-.56-1.37,1.11-4.34,1.99-5.75,.11-.18-.1-.39-.28-.28-1.43,.88-4.45,2.58-5.75,1.99-1.32-.6-2.29-5.54-2.67-7.12-.05-.2-.33-.21-.39,0-.43,1.59-1.5,6.62-2.65,7.12-1.14,.5-4.32-1.2-5.78-2.04-.18-.1-.38,.1-.27,.28,.86,1.36,2.54,4.31,2.01,5.8-.51,1.43-4.95,2.28-6.63,2.65-.21,.05-.21,.35,0,.39,1.64,.32,5.97,1.11,6.62,2.67,.62,1.48-1.11,4.32-2.05,5.76-.12,.19,.1,.4,.28,.27,1.37-.99,4.61-2.61,5.81-1.99,1.33,.69,2.43,4.87,2.7,6.49,.04,.22,.35,.22,.39,0,.38-1.68,1.39-5.94,2.62-6.5,1.25-.56,4.37,1.14,5.8,2.06,.18,.12,.4-.1,.27-.28-.98-1.44-2.85-4.45-2.04-5.82,.83-1.4,5.25-2.29,6.81-2.66,.21-.05,.2-.34,0-.39m-13.67,5.36c-2.87,0-5.19-2.32-5.19-5.19s2.32-5.19,5.19-5.19,5.19,2.32,5.19,5.19-2.32,5.19-5.19,5.19"/><path d="M37.75,42.04c-1.56-2.56-4.44-4.22-7.69-4.04h-.08c-1.6-1.89-3.93-3-6.47-3s-4.93,1.14-6.49,2.99c-.16,0-.33-.01-.49-.01-3.07,0-5.77,1.62-7.27,4.07-4.09,.59-7.25,4.11-7.25,8.36,0,9.6,16.18,9.6,21.5,9.6,5.88,0,21.5,0,21.5-9.6,0-4.25-3.16-7.77-7.25-8.36m-14.25,14.07c-5.9,0-17.5-.62-17.5-5.71,0-3.01,2.99-5.28,6.02-4.19,.17-3.51,4.15-5.45,7.05-3.45,.33-2.14,2.18-3.79,4.43-3.79,3.97,0,6.44,5.1,2.98,9.13,.08,.15,.36,.15,.73-.11,.43-.3,3.01-2.46,3.05-6.02,2.59-.13,4.59,1.85,4.71,4.24,3.03-1.09,6.02,1.18,6.02,4.19,0,5.16-11.59,5.71-17.5,5.71"/></g></g></svg>