<?xml version="1.0" encoding="UTF-8"?><svg id="Laag_1" xmlns="http://www.w3.org/2000/svg" xmlns:xlink="http://www.w3.org/1999/xlink" viewBox="0 0 64 64"><defs><style>.cls-1{fill:none;}.cls-2{clip-path:url(#clippath);}.cls-3{clip-path:url(#clippath-1);}</style><clipPath id="clippath"><rect class="cls-1" width="64" height="64"/></clipPath><clipPath id="clippath-1"><rect class="cls-1" width="64" height="64"/></clipPath></defs><g class="cls-2"><g class="cls-3"><path d="M29.45,22.68c4.04-5.87,6.67-8.78,8.78-9.75,.82-.38,2.04-.65,3.45-.84-3.24-1.95-6.84-3.16-10.61-2.76-6.25,.67-7.43,5.4-15.99,5.67-6.09,.19-10.73-2.61-10.73-2.61,0,0-2.84,4.54-.12,10.16,3.79,7.82,10.44,6.42,11.56,14.98,.62,4.75-1.13,9.46-1.13,9.46,0,0,12.41-5.3,19.81-14.03-1.78-1.79-3.93-4.24-4.92-5.61-1.02-1.41-1.06-3.29-.11-4.68"/><path d="M46,11.91c3.14,0,4.95-2.18,4.95-5.31,0-3.57-1.9-5.49-4.95-5.49-3.22,0-4.95,2.26-4.95,5.49,0,3.4,1.81,5.31,4.95,5.31"/><path d="M55.71,31.67c1.67-1.65,3.95-4.22,4.95-5.6,.46-.64,.52-1.5,.08-2.14-2.24-3.26-5.65-7.98-7.89-9-2.59-1.19-11.13-1.19-13.71,0-2.24,1.03-5.64,5.75-7.89,9-.44,.64-.38,1.51,.08,2.14,1,1.39,3.28,3.95,4.95,5.6,1.29,1.27,2.37,1.51,3.15,1.41l.03,.68-4.79,27.68s5.54,1.18,6.53-3.83c1.01-5.09,3.97-18.69,4.07-19.08,.13-.48,.45-.59,.73-.59s.62,.12,.73,.59c.09,.4,3.06,14,4.07,19.08,1,5.01,6.53,3.83,6.53,3.83l-4.79-27.68,.03-.68c.78,.1,1.86-.13,3.15-1.41m-2.69-10.36l2.98,3.57-3.28,4.25,.3-7.82Zm-17.02,3.57l2.98-3.57,.3,7.82-3.28-4.25Zm10.15,1.21c-.09,.05-.2,.05-.3,0-3.5-1.83-3.6-5.12-2.1-5.79,1.51-.67,2.25,.77,2.25,.77,0,0,.74-1.45,2.25-.77,1.49,.66,1.39,3.95-2.1,5.79"/></g></g></svg>