<?xml version="1.0" encoding="UTF-8"?><svg id="Laag_1" xmlns="http://www.w3.org/2000/svg" xmlns:xlink="http://www.w3.org/1999/xlink" viewBox="0 0 64 64"><defs><style>.cls-1{fill:none;}.cls-2{clip-path:url(#clippath);}.cls-3{clip-path:url(#clippath-1);}</style><clipPath id="clippath"><rect class="cls-1" width="64" height="64"/></clipPath><clipPath id="clippath-1"><rect class="cls-1" width="64" height="64"/></clipPath></defs><g class="cls-2"><g class="cls-3"><path d="M26,29h14c3.31,0,6-2.69,6-6v-6c0-7.4-3.44-14-13-14s-13,6.6-13,14v6c0,3.31,2.69,6,6,6"/><path d="M48.28,23.02c0,2.84-.05,5.29-.21,7.37-.04,.47-.4,.85-.87,.9-2.06,.24-7.81,.85-14.2,.85s-12.14-.61-14.2-.85c-.47-.06-.84-.43-.87-.9-.16-2.08-.21-4.54-.21-7.37,0-5.28-7.72-5.18-7.72-.7v1.68c0,1.1,.9,2,2,2h3.03c.08,4.59,.37,8.03,1.25,10.42h.02c.33,.76,.92,1.41,1.7,1.8,2.39,1.18,7.1,2.78,15.01,2.78,.33,0,.65,0,.98-.01,0,.06-.05,.19-.3,.31-.41,.2-1.82,.7-3.68,1.17v6.05l-12.35,2.18c-.95,.17-1.65,1-1.65,1.97v.67c-1.18,.56-2,1.76-2,3.15,0,1.93,1.57,3.5,3.5,3.5s3.5-1.57,3.5-3.5c0-1.21-.61-2.28-1.55-2.91l11.1-1.31,.25,1.51c-.79,.64-1.3,1.61-1.3,2.7,0,1.93,1.57,3.5,3.5,3.5s3.5-1.57,3.5-3.5c0-1.1-.51-2.06-1.3-2.7l.25-1.51,11.1,1.31c-.94,.63-1.55,1.7-1.55,2.91,0,1.93,1.57,3.5,3.5,3.5s3.5-1.57,3.5-3.5c0-1.39-.82-2.59-2-3.15v-.67c0-.97-.7-1.8-1.65-1.97l-12.35-2.18v-7.61c6.13-.34,9.94-1.68,12.01-2.7,.78-.38,1.37-1.03,1.7-1.81h.02c.88-2.38,1.17-5.82,1.25-10.42h3.03c1.1,0,2-.9,2-2v-1.68c0-4.5-7.72-4.56-7.72,.7"/></g></g></svg>