<?xml version="1.0" encoding="UTF-8"?><svg id="Laag_1" xmlns="http://www.w3.org/2000/svg" xmlns:xlink="http://www.w3.org/1999/xlink" viewBox="0 0 64 64"><defs><style>.cls-1{fill:none;}.cls-2{clip-path:url(#clippath);}.cls-3{clip-path:url(#clippath-1);}</style><clipPath id="clippath"><rect class="cls-1" width="64" height="64"/></clipPath><clipPath id="clippath-1"><rect class="cls-1" width="64" height="64"/></clipPath></defs><g class="cls-2"><g class="cls-3"><path d="M28.56,12.7c-.04-3.98,2.83-5.94,6.43-5.75,3.17,.16,4.47,.37,9.2-1.65,1.67-.69,5.03-1.88,11.61,1.68,0,0,.52-.63-.35-1.63-1.51-1.73-4.16-3.14-7.37-3.32-5.04-.23-5.72,2.41-12.98,2.04-2.77-.1-5.34,.56-7.23,2.59-1.57,1.73-2.13,4.26-1.86,6.59,.74-.21,1.6-.39,2.54-.54M61.63,6.58c-.96,3.17-3.53,5.07-7.45,4.19-2.67-.54-6.4-2.5-9.22-.73-.99,.62-1.67,1.62-2.04,2.7,.93,.16,1.76,.35,2.48,.57,1.01-1.82,2.81-1.46,5.36-.7,2.28,.6,6.24,1.87,9.29-.27,1.5-1.07,2.17-2.7,2.35-4.34,.14-1.32-.76-1.43-.76-1.43m-16.07,19.76c.17-5.9,.47-6.52,.95-9.7,.49-3.24-22.51-3.15-21.92,0,.58,3.09,.78,3.81,.95,9.7,0,.29,.01,.58,.01,.88,6.27,1.43,11.02,6.53,11.37,12.79l.89,16h13.49c-1.61-3.89-6.06-18.41-5.74-29.67m-23.56,2.67c-6.68,0-12.36,4.84-12.71,11.12l-1.11,19.88h27.64l-1.11-19.88c-.35-6.28-6.03-11.12-12.72-11.12m0,13.54c.81,0,1.47,.66,1.47,1.46s-.66,1.47-1.47,1.47-1.46-.66-1.46-1.47,.65-1.46,1.46-1.46m-3.48-4.56l2.1,3.64c-.83,.48-1.39,1.36-1.39,2.38h-4.2c0-2.57,1.4-4.82,3.48-6.02m3.48,12.98c-1.27,0-2.45-.35-3.48-.94l2.1-3.64c.41,.24,.87,.38,1.38,.38s.97-.15,1.38-.38l2.1,3.64c-1.02,.59-2.21,.94-3.48,.94m2.77-6.96c0-1.02-.56-1.91-1.39-2.38l2.1-3.64c2.08,1.2,3.48,3.45,3.48,6.02h-4.19Z"/></g></g></svg>