<?xml version="1.0" encoding="UTF-8"?><svg id="Laag_1" xmlns="http://www.w3.org/2000/svg" xmlns:xlink="http://www.w3.org/1999/xlink" viewBox="0 0 64 64"><defs><style>.cls-1{fill:none;}.cls-2{clip-path:url(#clippath);}.cls-3{clip-path:url(#clippath-1);}</style><clipPath id="clippath"><rect class="cls-1" width="64" height="64"/></clipPath><clipPath id="clippath-1"><rect class="cls-1" width="64" height="64"/></clipPath></defs><g class="cls-2"><g class="cls-3"><path d="M12.45,18.7c.7-1.91,1.6-3.63,2.36-4.54-3.5-.06-7.07-.36-8.63-.8,.31-1.53,1.71-5.62,2.05-6.2,.35-.17,2.9-.47,7.77-.47s7.42,.3,7.76,.47c.26,.44,1.11,2.84,1.65,4.67,.8-.02,1.65-.03,2.59-.03s1.77,.01,2.57,.03c.06-.08,.1-.16,.13-.22,.26-.6,.09-1.63-.91-1.83-.44-.09-1.39,0-2.12,.1-.57-2.07-1.57-4.05-2.15-4.65-.78-.81-3.52-1.22-9.52-1.22s-8.74,.41-9.52,1.22c-.58,.61-1.58,2.59-2.15,4.65-.74-.1-1.68-.19-2.12-.1-1,.19-1.17,1.23-.91,1.83,.12,.29,.58,.86,1.28,1.35-1.15,1.54-1.58,2.59-1.58,5.09v6.82s.09,1.99,.37,3.32c.1,.48,.64,.83,1.16,.83H6.71c.52,0,.96-.53,1.07-1.01,.16-.74,.23-1.21,.32-2.56h.77c.06-.11,.11-.22,.17-.33-.31-.37-.55-.75-.7-1.09-.46-1.05-.41-2.34,.12-3.35,.03-.06,.08-.1,.11-.16l-2.88-.23c-.95-.07-1.53-.83-1.7-1.66l-.14-1c-.09-.62,.55-1.14,1.17-.97l2.82,.78c.61,.24,1.08,.72,1.28,1.32l.23,.84c.47-.4,1.03-.68,1.68-.81,.39-.07,.88-.1,1.42-.08"/><path d="M14.82,29.16l3.39,.94c.74,.28,1.29,.86,1.53,1.58l.18,.67c.57-.73,1.38-1.24,2.35-1.43,.57-.11,1.26-.1,1.84-.07,.65-1.83,1.46-3.52,2.21-4.67-4.12-.08-8.27-.45-10.1-.95,.38-1.84,2.05-6.74,2.47-7.44,.42-.21,3.48-.56,9.32-.56s8.9,.35,9.32,.56c.28,.48,1.16,2.94,1.81,5.04,.9-.02,1.84-.03,2.87-.03,1.37,0,2.61,.02,3.73,.05,.16-.72-.12-1.71-1.18-1.91-.53-.1-1.66,0-2.55,.12-.69-2.48-1.88-4.86-2.58-5.59-.94-.98-4.22-1.47-11.42-1.47s-10.48,.49-11.42,1.47c-.7,.73-1.9,3.11-2.58,5.59-.89-.13-2.02-.22-2.55-.12-1.2,.23-1.41,1.47-1.09,2.19,.15,.34,.69,1.04,1.54,1.62-1.38,1.85-1.89,3.11-1.89,6.11v8.18s.11,2.39,.44,3.99c.12,.58,.77,.99,1.39,.99h5.02c.62,0,1.16-.63,1.28-1.21,.19-.89,.27-1.45,.38-3.07h.97c.22-.63,.49-1.23,.83-1.82-.42-.47-.73-.94-.92-1.37-.37-.84-.43-1.83-.2-2.73l-3.57-.29c-1.14-.09-1.83-1-2.04-1.99l-.17-1.2c-.11-.74,.65-1.37,1.41-1.16"/><path d="M60.79,37.53c.98-.68,1.62-1.48,1.79-1.89,.37-.84,.13-2.28-1.27-2.56-.62-.12-1.94,0-2.97,.14-.8-2.89-2.2-5.67-3.01-6.52-1.09-1.14-4.93-1.71-13.32-1.71s-12.23,.57-13.32,1.71c-.82,.85-2.21,3.62-3.01,6.52-1.04-.15-2.36-.26-2.98-.14-1.4,.27-1.64,1.72-1.27,2.56,.17,.4,.81,1.21,1.79,1.89-1.6,2.16-2.21,3.63-2.21,7.12v9.54s.13,2.79,.52,4.65c.14,.68,.9,1.16,1.62,1.16h5.86c.72,0,1.35-.74,1.49-1.42,.22-1.04,.32-1.69,.44-3.58h22.13c.12,1.89,.23,2.55,.44,3.58,.14,.68,.77,1.42,1.49,1.42h5.86c.72,0,1.48-.48,1.62-1.16,.39-1.86,.52-4.65,.52-4.65v-9.54c0-3.49-.6-4.96-2.21-7.12m-29.67-8.1c.49-.24,4.06-.66,10.87-.66s10.38,.41,10.87,.66c.48,.82,2.44,6.54,2.88,8.68-2.42,.67-8.36,1.13-13.75,1.13s-11.32-.46-13.75-1.13c.44-2.14,2.39-7.87,2.88-8.68m1.32,18.73l-4.88-.39c-1.32-.11-2.13-1.16-2.38-2.32l-.2-1.4c-.12-.86,.76-1.6,1.64-1.36l3.95,1.1c.86,.33,1.51,1,1.79,1.85l.54,2.01c.07,.27-.17,.53-.46,.51m15.55,3.85h-12v-2h12v2Zm11.02-7.96l-.2,1.4c-.24,1.16-1.05,2.21-2.38,2.32l-4.88,.39c-.29,.02-.53-.24-.46-.51l.54-2.01c.28-.84,.93-1.51,1.79-1.85l3.95-1.1c.88-.24,1.76,.49,1.64,1.36"/></g></g></svg>