<?xml version="1.0" encoding="UTF-8"?><svg id="Laag_1" xmlns="http://www.w3.org/2000/svg" xmlns:xlink="http://www.w3.org/1999/xlink" viewBox="0 0 64 64"><defs><style>.cls-1{fill:none;}.cls-2{clip-path:url(#clippath);}.cls-3{clip-path:url(#clippath-1);}</style><clipPath id="clippath"><rect class="cls-1" width="64" height="64"/></clipPath><clipPath id="clippath-1"><rect class="cls-1" width="64" height="64"/></clipPath></defs><g class="cls-2"><g class="cls-3"><path d="M31.71,33.87c.66,.22,1.39,.16,2-.19l17.14-9.52,11.04,2.76,1.21-4.85-12-3c-.62-.15-1.27-.07-1.82,.24l-17.04,9.47-16.96-5.65c-.96-.32-2.03-.03-2.69,.74L.6,37.87l3.8,3.25,10.91-12.72,16.41,5.47Z"/><polygon points="8 40.31 8 57 20 57 20 32.29 16.01 30.96 8 40.31"/><path d="M15.99,21.04l4.01,1.34V12H8v13.86l2.93-3.42c1.24-1.45,3.24-2,5.06-1.4"/><path d="M38,33.82l-3.22,1.79c-1.15,.64-2.52,.77-3.77,.35l-5.01-1.67v22.71h9.15c-.11-2.08-.15-4.23-.15-6,0-3.21,.1-7.66,.6-10.67,.26-1.56,1.15-2.9,2.4-3.77v-2.74Z"/><polygon points="38 23.07 38 3 26 3 26 24.38 32.02 26.39 38 23.07"/><path d="M51.64,16.94l4.36,1.09V10h-12v9.73l4.22-2.34c1.04-.58,2.27-.74,3.42-.45"/><path d="M44,35.21c2.37-.16,4.94-.21,7-.21,1.49,0,3.24,.02,5,.1v-7.38l-4.84-1.21-7.16,3.98v4.72Z"/><path d="M55.79,51.93c-.85,0-1.03,.98-1.03,1.8,0,1.63,.51,1.85,1.01,1.85,.71,0,1.06-.55,1.06-1.64,0-1.8-.6-2.01-1.04-2.01"/><path d="M46.23,46.31c-.86,0-1.04,.98-1.04,1.8,0,1.63,.52,1.85,1.02,1.85,.86,0,1.04-.89,1.04-1.64,0-1.8-.58-2.01-1.02-2.01"/><path d="M63.43,40.83c-.19-1.17-1.09-2.07-2.26-2.26-3.39-.57-9.04-.57-10.17-.57s-6.78,0-10.17,.57c-1.17,.19-2.06,1.09-2.26,2.26-.57,3.39-.57,9.04-.57,10.17s0,6.78,.57,10.17c.19,1.17,1.09,2.07,2.26,2.26,3.39,.57,9.04,.57,10.17,.57s6.78,0,10.17-.57c1.17-.2,2.07-1.09,2.26-2.26,.56-3.39,.56-9.04,.56-10.17,0-3.39,0-6.78-.56-10.17m-20.58,7.45c0-2.9,1.84-3.92,3.42-3.92,2.09,0,3.29,1.37,3.29,3.77,0,2.62-1.78,3.81-3.44,3.81-1.49,0-3.27-.63-3.27-3.65m6.43,9.73l-1.84-.73,5.23-13.28,1.84,.73-5.23,13.28Zm6.4-.45c-1.49,0-3.27-.63-3.27-3.65s1.84-3.92,3.42-3.92c2.09,0,3.29,1.37,3.29,3.77,0,2.63-1.73,3.81-3.44,3.81"/></g></g></svg>