<?xml version="1.0" encoding="UTF-8"?><svg id="Laag_1" xmlns="http://www.w3.org/2000/svg" xmlns:xlink="http://www.w3.org/1999/xlink" viewBox="0 0 64 64"><defs><style>.cls-1{fill:none;}.cls-2{clip-path:url(#clippath);}.cls-3{clip-path:url(#clippath-1);}</style><clipPath id="clippath"><rect class="cls-1" width="64" height="64"/></clipPath><clipPath id="clippath-1"><rect class="cls-1" width="64" height="64"/></clipPath></defs><g class="cls-2"><g class="cls-3"><path d="M10.21,6h27V31.33c1.22-.16,2.6-.26,4-.33V4c0-1.1-.9-2-2-2H8.21c-1.1,0-2,.9-2,2V53.42h4l19,5V11L10.21,7v-1Zm14.49,22.33c.83,0,1.5,.67,1.5,1.5s-.67,1.5-1.5,1.5-1.5-.67-1.5-1.5,.67-1.5,1.5-1.5"/><path d="M59.3,36.69c-.19-1.17-1.09-2.07-2.26-2.26-3.39-.57-9.04-.57-10.17-.57s-6.78,0-10.17,.57c-1.17,.2-2.07,1.09-2.26,2.26-.57,3.39-.57,9.04-.57,10.17s0,6.78,.57,10.17c.19,1.17,1.09,2.06,2.26,2.26,3.39,.57,9.04,.57,10.17,.57s6.78,0,10.17-.57c1.17-.2,2.07-1.09,2.26-2.26,.56-3.39,.56-9.04,.56-10.17,0-3.39,0-6.78-.56-10.17m-5.95,10.84l-5.51,6.97c-.24,.3-.6,.47-.98,.47s-.74-.18-.98-.47l-5.5-6.97c-.18-.23-.27-.5-.27-.77,0-.29,.1-.58,.3-.81,.39-.45,1.04-.56,1.56-.27l.95,.54,1.23,.7,.88,.5v-7.39c0-1,.86-1.3,1.83-1.29,.97,0,1.84,.3,1.84,1.29v7.39l3.05-1.74c.52-.3,1.17-.18,1.56,.27,.39,.45,.4,1.11,.03,1.58"/></g></g></svg>