<?xml version="1.0" encoding="UTF-8"?><svg id="Laag_1" xmlns="http://www.w3.org/2000/svg" xmlns:xlink="http://www.w3.org/1999/xlink" viewBox="0 0 64 64"><defs><style>.cls-1{fill:none;}.cls-2{clip-path:url(#clippath);}.cls-3{clip-path:url(#clippath-1);}</style><clipPath id="clippath"><rect class="cls-1" width="64" height="64"/></clipPath><clipPath id="clippath-1"><rect class="cls-1" width="64" height="64"/></clipPath></defs><g class="cls-2"><g class="cls-3"><path d="M19.57,24.65c-.29-.47-.46-.95-.56-1.37h.35c.76,0,1.37-.62,1.37-1.37v-3.43c0-.75-.6-1.35-1.34-1.37,.14-1.82,.8-3.2,1.53-4.19l3.85,5c.31,.4,.87,.49,1.29,.2,.38-.26,.51-.76,.31-1.18l-2.85-6.02h2.02c.76,0,1.37-.61,1.37-1.37v-2.06c0-.76-.62-1.37-1.37-1.37H10.86c-.26,0-.5,.15-.62,.38l-2.38,4.76c-.11,.22-.09,.48,.04,.69l3.44,5.16h-.23c-.76,0-1.37,.62-1.37,1.37v3.43c0,.76,.61,1.37,1.37,1.37h4.8s.05,.18-.17,.25l-4.73,.96c-1.63,3.06-4.02,8.27-4.02,12.53,0,3.97,.78,6.44,1.38,7.74,.33,.73,1.06,1.18,1.87,1.18h11.83c.57,0,1.11-.23,1.5-.65,1.14-1.21,3.2-4.11,2.46-8.83-.88-5.63-5.27-9.89-6.46-11.81m2.4,14.96c-.23,1.29-1.39,2.2-2.69,2.2h-5.3c-1.41,0-2.59-1.06-2.73-2.47-.07-.68-.11-1.46-.11-2.34,0-11.22,9.47-8.65,10.84,.09,.15,.97,.13,1.8,0,2.51"/><path d="M50.04,32.33c-.4-3.08-2.52-5.55-5.31-6.54l-.03-18.67c0-1.51-1.23-2-2.73-2-1.51,0-2.73,.5-2.73,2.01l.03,18.67c-2.78,1-4.89,3.48-5.28,6.56-.05,.39-.13,.77-.19,1.16l16.42-.03c-.06-.39-.14-.77-.19-1.16m8.79,21.35c-4.25-6.06-6.99-11.85-8.29-18.37l-17.03,.03c-1.28,6.52-4,12.33-8.24,18.41-.28,.41-.2,.96,.21,1.25,.73,.51,2,1.33,3.76,2.14,2.47-3.15,4.49-6.58,5.7-9.75,0,0,.31-.04,.2,.55-.7,3.68-1.84,7.08-3.46,10.19,2.74,.98,6.23,1.76,10.38,1.76,2.32,0,4.42-.26,6.31-.65-2.38-4.61-3.57-9.68-3.74-15.19-.02-.59,.28-.51,.28-.51,1.02,4.81,3.26,10.36,6.37,14.95,3.67-1.15,6.19-2.72,7.34-3.54,.41-.29,.49-.85,.2-1.26"/></g></g></svg>