<?xml version="1.0" encoding="UTF-8"?><svg id="Laag_1" xmlns="http://www.w3.org/2000/svg" viewBox="0 0 64 64"><defs><style>.cls-1{fill:none;}</style></defs><g><path d="m54.38,46.39c0,3-2.43,5.44-5.44,5.44s-5.43-2.43-5.43-5.44c0-.17.01-.34.03-.5-.13,0-.29.43-.36.78-.07.35-.12.87,0,1.52H11.03c-1,0-1.81-.81-1.81-1.81s.81-1.81,1.81-1.81h32.8c.75-2.1,2.75-3.61,5.11-3.61,3,0,5.44,2.43,5.44,5.43Zm-5.44-1.82c-1,0-1.81.81-1.81,1.81s.81,1.81,1.81,1.81,1.81-.81,1.81-1.81-.81-1.81-1.81-1.81Z"/><path d="m54.39,31.88c0,1-.81,1.81-1.81,1.81h-15.63c-.74,2.12-2.75,3.64-5.12,3.64-3,0-5.44-2.43-5.44-5.44,0-.17.01-.34.03-.5-.12,0-.29.43-.36.78-.07.35-.12.87,0,1.52h-15.01c-1,0-1.81-.81-1.81-1.81s.81-1.81,1.81-1.81h15.67c.75-2.1,2.75-3.61,5.11-3.61s4.36,1.51,5.11,3.61h15.64c1,0,1.81.81,1.81,1.81Zm-22.56-1.81c-1,0-1.81.81-1.81,1.81s.81,1.81,1.81,1.81,1.81-.81,1.81-1.81-.81-1.81-1.81-1.81Z"/><path d="m54.36,17.37c0,1-.81,1.81-1.81,1.81H20.41c.12-.65.06-1.17,0-1.52-.07-.36-.23-.78-.36-.78.02.17.03.33.03.5,0,3-2.43,5.44-5.43,5.44s-5.44-2.43-5.44-5.44,2.43-5.43,5.44-5.43c2.36,0,4.36,1.51,5.11,3.61h32.8c1,0,1.81.81,1.81,1.81Zm-41.54,0c0,1,.81,1.81,1.81,1.81s1.81-.81,1.81-1.81-.81-1.81-1.81-1.81-1.81.81-1.81,1.81Z"/></g><rect class="cls-1" width="64" height="64"/></svg>