<?xml version="1.0" encoding="UTF-8"?><svg id="Laag_1" xmlns="http://www.w3.org/2000/svg" xmlns:xlink="http://www.w3.org/1999/xlink" viewBox="0 0 64 64"><defs><style>.cls-1{fill:none;}.cls-2{clip-path:url(#clippath);}.cls-3{clip-path:url(#clippath-1);}</style><clipPath id="clippath"><rect class="cls-1" width="64" height="64"/></clipPath><clipPath id="clippath-1"><rect class="cls-1" width="64" height="64"/></clipPath></defs><g class="cls-2"><g class="cls-3"><path d="M56.21,43.52c-1.11-.22-3.44-.22-4.55,0-1.85,.37-3.23,2.08-3.23,3.94h11.01c0-1.85-1.39-3.57-3.23-3.94"/><path d="M12.34,43.52c-1.11-.22-3.44-.22-4.55,0-1.85,.37-3.23,2.08-3.23,3.94H15.57c0-1.85-1.39-3.57-3.23-3.94"/><path d="M15.31,32.95v1.33c0,.72,.51,1.33,1.18,1.33h13.62v17.84h3.08v-17.84h13.62c.67,0,1.18-.62,1.18-1.33v-1.33H15.31Z"/><path d="M53.28,42.25c2.97,0,4.61-2,4.42-4.96-.19-2.96-.28-5.67-.99-10.73-.71-5.07-4.64-3.61-4.64-3.61-.6,.26-1.08,.58-1.46,.95l-.09,.08-6.92,7.4h3.2c.62,0,1.31-.46,1.78-.92,.32-.32,.77-.71,.77-.71,.15,1.65,.77,5.31,.86,6,.09,.76-.32,1.25-1.02,1.25-1.2,0-7.07,0-7.07,0-1.66,0-2.26,1.29-1.96,2.57s2.73,11.23,2.73,11.23l.81,2.83s3.55-1.02,2.53-4.97c-.72-2.77-.93-4.5-1.47-6.43,.52,.09,5.54,.02,8.52,.02"/><path d="M50.97,21.67c2,0,3.15-1.41,3.14-3.42,0-2.29-1.22-3.52-3.17-3.51-2.05,0-3.15,1.47-3.14,3.54,.01,2.18,1.17,3.41,3.17,3.4"/><path d="M15.4,30.87l-1.23-1.12c-.15,1.65-.77,5.31-.85,6-.1,.76,.32,1.25,1.02,1.25,1.2,0,7.07,0,7.07,0,1.66,0,2.26,1.29,1.96,2.57-.31,1.28-2.74,11.23-2.74,11.23l-.81,2.83s-3.55-1.02-2.53-4.97c.72-2.77,.93-4.5,1.47-6.43-.52,.09-5.54,.02-8.51,.02s-4.62-2-4.43-4.96c.19-2.96,.28-5.67,.99-10.73,.71-5.07,4.64-3.61,4.64-3.61,.6,.26,1.08,.58,1.46,.95l.09,.08,6.92,7.4h-3.18c-.49,0-.97-.18-1.33-.52"/><path d="M12.56,21.67c-2,0-3.15-1.41-3.14-3.42,.01-2.29,1.22-3.52,3.17-3.51,2.05,0,3.15,1.47,3.14,3.54-.01,2.18-1.17,3.41-3.17,3.4"/><path d="M30.89,12.46V29.88h-7.56l1.16-10.38c.08-.74,.43-1.43,.97-1.93l5.43-5.1m.72-2.1c-.47,0-.92,.18-1.26,.5l-5.94,5.58c-.81,.76-1.32,1.78-1.45,2.89l-1.31,11.75c-.02,.18,.12,.35,.31,.35h10.48V10.91c0-.3-.25-.55-.55-.55h-.27Z"/><path d="M32.42,12.46l5.43,5.1c.54,.51,.89,1.2,.97,1.93l1.16,10.38h-7.56V12.46m-1.54,18.95h10.48c.19,0,.33-.16,.31-.34l-1.31-11.75c-.12-1.1-.64-2.13-1.45-2.89l-5.94-5.58c-.34-.32-.79-.5-1.26-.5h-.27c-.3,0-.55,.25-.55,.55V31.42Z"/></g></g></svg>