<?xml version="1.0" encoding="UTF-8"?><svg id="Laag_1" xmlns="http://www.w3.org/2000/svg" xmlns:xlink="http://www.w3.org/1999/xlink" viewBox="0 0 64 64"><defs><style>.cls-1{fill:none;}.cls-2{clip-path:url(#clippath);}.cls-3{clip-path:url(#clippath-1);}</style><clipPath id="clippath"><rect class="cls-1" width="64" height="64"/></clipPath><clipPath id="clippath-1"><rect class="cls-1" width="64" height="64"/></clipPath></defs><g class="cls-2"><g class="cls-3"><path d="M61.98,26.04c-2.02-.07-6.86,.02-13.04,1.88-1.94,.58-4.01,1.34-6.17,2.32-2.25,1.02-4.6,2.29-6.98,3.85-2.48,1.63-5,3.58-7.51,5.92,0,0,5.78-13.17,13-16.4,.34-.15,.45-.02,.47,.11-1.65,1.67-3.13,3.17-4.19,5.1l.26,1.47c1.33-.75,2.68-1.44,4.04-2.06,.98-.45,1.98-.86,2.99-1.24-.2-1.43-.64-4.02-1.53-6.95-.17-.56-.78-.87-1.33-.65-1.12,.45-3.12,1.32-5.6,2.65-1.73,.93-3.69,2.09-5.76,3.49-2.51,1.7-5.17,3.77-7.73,6.23-3.41,3.26-6.66,7.23-9.2,11.96,0,0,3.97-24.21,14.56-30.79,.24-.15,.42-.08,.43,.03-1.92,2.23-3.15,4.07-4.5,6.95l1.31,6.67c1.25-.99,2.55-1.95,3.89-2.87,1-.68,2.03-1.33,3.07-1.96-.22-2.11-.84-7.38-2.14-12.49-.16-.64-.89-.96-1.47-.63-3.53,2-14.5,8.79-21.01,19.24C.69,39.38,1.14,54,1.14,54H36s9.56-19.24,23.4-24.21c.28-.1,.43-.01,.46,.14-2.19,1.54-4.13,3.21-6.13,5.54,0,0,1.98,13.39,2.27,18.53h2.43s3.56-11.8,4.51-26.89c.04-.56-.4-1.05-.96-1.07"/></g></g></svg>