<?xml version="1.0" encoding="UTF-8"?><svg id="Laag_1" xmlns="http://www.w3.org/2000/svg" xmlns:xlink="http://www.w3.org/1999/xlink" viewBox="0 0 24 24"><defs><style>.cls-1{fill:none;}.cls-2{clip-path:url(#clippath);}.cls-3{clip-path:url(#clippath-1);}</style><clipPath id="clippath"><rect class="cls-1" width="24" height="24"/></clipPath><clipPath id="clippath-1"><rect class="cls-1" width="24" height="24"/></clipPath></defs><g class="cls-2"><g class="cls-3"><path d="m11.6,11.08l-8.36.93c-.61.07-1.07.59-1.07,1.21,0,.62.48,1.13,1.1,1.18l3.66.32-4.73,4.73c-.77.77-.44,1.55.18,2.18.63.63,1.41.95,2.18.18l4.73-4.73.32,3.66c.05.61.56,1.09,1.18,1.1,0,0,0,0,.01,0,.61,0,1.12-.46,1.19-1.07l.93-8.36c.04-.36-.09-.72-.34-.98s-.62-.39-.98-.34M20.92,2H5.09c-.6,0-1.09.49-1.09,1.09v5.91h3v-4h12v12h-4v3h5.91c.6,0,1.08-.49,1.08-1.08V3.09c0-.6-.49-1.09-1.08-1.09"/></g></g></svg>