<?xml version="1.0" encoding="UTF-8"?><svg id="Laag_1" xmlns="http://www.w3.org/2000/svg" xmlns:xlink="http://www.w3.org/1999/xlink" viewBox="0 0 64 64"><defs><style>.cls-1{fill:none;}.cls-2{clip-path:url(#clippath);}.cls-3{clip-path:url(#clippath-1);}</style><clipPath id="clippath"><rect class="cls-1" width="64.01" height="64.01"/></clipPath><clipPath id="clippath-1"><rect class="cls-1" y="0" width="64.01" height="64.01"/></clipPath></defs><g class="cls-2"><g class="cls-3"><path d="M50.14,23.3c-2.01-3.32-5.72-5.47-9.95-5.22h-.11c-2.07-2.49-5.07-3.91-8.39-3.91s-6.38,1.47-8.39,3.88c-.2,0-.42-.03-.62-.03-4,0-7.48,2.1-9.41,5.27-5.3,.76-9.41,5.33-9.41,10.83,0,12.42,20.98,12.42,27.84,12.42,7.62,0,27.84,0,27.84-12.42,0-5.5-4.08-10.06-9.38-10.83m-18.45,18.23c-7.62,0-22.62-.82-22.62-7.4,0-3.91,3.85-6.83,7.8-5.41,.2-4.56,5.36-7.06,9.1-4.48,.42-2.78,2.83-4.9,5.73-4.9,5.16,0,8.36,6.6,3.88,11.82,.09,.2,.45,.2,.93-.14,.57-.4,3.91-3.18,3.94-7.8,3.37-.17,5.95,2.41,6.1,5.5,3.94-1.42,7.79,1.5,7.79,5.41,0,6.66-15,7.4-22.65,7.4"/></g></g></svg>