<?xml version="1.0" encoding="UTF-8"?><svg id="Laag_1" xmlns="http://www.w3.org/2000/svg" xmlns:xlink="http://www.w3.org/1999/xlink" viewBox="0 0 24 24"><defs><style>.cls-1{fill:none;}.cls-2{clip-path:url(#clippath);}.cls-3{clip-path:url(#clippath-1);}</style><clipPath id="clippath"><rect class="cls-1" width="24" height="24"/></clipPath><clipPath id="clippath-1"><rect class="cls-1" width="24" height="24"/></clipPath></defs><g class="cls-2"><g class="cls-3"><path d="m18.99,12c0,2.49-1.32,4.82-3.51,6.07-3.35,1.92-7.63.75-9.55-2.59-1.92-3.35-.75-7.63,2.6-9.55,2.67-1.53,6.02-1.08,8.23.96l-1.82.21c-.38.05-.67.35-.69.73-.02.38.24.72.61.8l5.19,1.17c.23.05.47,0,.66-.15.18-.15.29-.37.29-.61V3.72c0-.38-.28-.7-.65-.77-.37-.06-.74.15-.86.51l-.49,1.4c-3.14-3.06-8.07-3.76-11.95-1.53C2.25,6.06.58,12.18,3.32,16.97c1.84,3.22,5.22,5.03,8.69,5.03,1.68,0,3.39-.43,4.95-1.32,3.13-1.79,5.01-5.12,5.01-8.68h-2.99Z"/></g></g></svg>