<?xml version="1.0" encoding="UTF-8"?><svg id="Laag_1" xmlns="http://www.w3.org/2000/svg" xmlns:xlink="http://www.w3.org/1999/xlink" viewBox="0 0 24 24"><defs><style>.cls-1{fill:none;}.cls-2{clip-path:url(#clippath);}.cls-3{clip-path:url(#clippath-1);}</style><clipPath id="clippath"><rect class="cls-1" width="24" height="24"/></clipPath><clipPath id="clippath-1"><rect class="cls-1" width="24" height="24"/></clipPath></defs><g class="cls-2"><g class="cls-3"><path d="m14,6.05c0-1.1-.9-2-2-2s-2,.9-2,2,.89,2,2,2,2-.9,2-2"/><path d="m14,12c0-1.1-.9-2-2-2s-2,.9-2,2,.89,2,2,2,2-.9,2-2"/><path d="m14,17.95c0-1.1-.9-2-2-2s-2,.9-2,2,.89,2,2,2,2-.9,2-2"/></g></g></svg>