<?xml version="1.0" encoding="UTF-8"?><svg id="Laag_1" xmlns="http://www.w3.org/2000/svg" xmlns:xlink="http://www.w3.org/1999/xlink" viewBox="0 0 64 64"><defs><style>.cls-1{fill:none;}.cls-2{clip-path:url(#clippath);}.cls-3{clip-path:url(#clippath-1);}</style><clipPath id="clippath"><rect class="cls-1" width="64" height="64"/></clipPath><clipPath id="clippath-1"><rect class="cls-1" width="64" height="64"/></clipPath></defs><g class="cls-2"><g class="cls-3"><path d="M39,22c-1.11,0-2,.9-2,2s.89,2,2,2,2-.89,2-2-.9-2-2-2"/><path d="M25,22c-1.11,0-2,.9-2,2s.89,2,2,2,2-.89,2-2-.9-2-2-2"/><path d="M48.39,29.33c1.04-3.93,.95-8.91-1.92-14.06-1.3,.74-2.65,1.26-4.33,1.71-.57,.15-.8,0-.83-.14,5.92-3.78,7.85-10.06,8.45-12.94,.1-.48-.47-.79-.82-.47-3.62,3.33-8.1,4.93-9.31,5.31-4.72-2.29-10.53-2.29-15.26,0-1.21-.39-5.68-1.99-9.3-5.31-.36-.33-.92-.01-.82,.47,.59,2.88,2.53,9.16,8.45,12.94-.03,.14-.26,.27-.84,.14-1.62-.38-3.2-1.05-4.33-1.71-2.87,5.15-2.95,10.13-1.92,14.06-2.34,1.99-4.46,5.55-3.01,11.67,1.29,5.46,6.35,9.9,11.32,12.47-1.18,.8-2.31,1.95-3,3.43-1.46,3.13,.61,3.54,1.61,2.77,.61-.47,2.39-2.77,3.92-3.15,1.54-.38,1.46,1.77,2.85,2.15,1.12,.31,1.78-1.34,1.68-2.83,.36,.04,.7,.06,1.02,.06s.66-.02,1.02-.06c-.11,1.5,.56,3.14,1.67,2.83,1.39-.38,1.31-2.54,2.85-2.15,1.54,.39,3.31,2.68,3.92,3.15,1,.77,3.07,.36,1.62-2.77-.69-1.48-1.82-2.63-3-3.43,4.97-2.57,10.03-7,11.32-12.47,1.45-6.12-.67-9.67-3.01-11.67m-23.39-.18c-2.84,0-5.15-2.31-5.15-5.15s2.31-5.15,5.15-5.15,5.15,2.31,5.15,5.15-2.31,5.15-5.15,5.15m7.38,5.42c-.09,.12-.25,.18-.38,.18-.14,0-.29-.06-.38-.18-1.46-1.94-2.71-1.93-2.71-3.56,0-1.42,1.35-2.09,3.09-2.09s3.09,.67,3.09,2.09c0,1.63-1.24,1.62-2.71,3.56m6.62-5.42c-2.84,0-5.15-2.31-5.15-5.15s2.31-5.15,5.15-5.15,5.15,2.31,5.15,5.15-2.31,5.15-5.15,5.15"/></g></g></svg>