<?xml version="1.0" encoding="UTF-8"?><svg id="Laag_1" xmlns="http://www.w3.org/2000/svg" xmlns:xlink="http://www.w3.org/1999/xlink" viewBox="0 0 64 64"><defs><style>.cls-1{fill:none;}.cls-2{clip-path:url(#clippath);}.cls-3{clip-path:url(#clippath-1);}</style><clipPath id="clippath"><rect class="cls-1" width="64" height="64"/></clipPath><clipPath id="clippath-1"><rect class="cls-1" width="64" height="64"/></clipPath></defs><g class="cls-2"><g class="cls-3"><path d="M36.18,36.26c2.06-2.61,4-5.08,5.13-8.48,.87-2.6,2.68-2.99,3.69-2.99s2.81,.39,3.68,2.99c.45,1.34,1.02,2.53,1.68,3.65,1.02-.75,1.65-1.94,1.65-3.23v-9.75c0-1.5-.84-2.87-2.17-3.56l-14.07-7.22c-1.26-.65-2.74-.73-4.07-.22L9.57,15.93c-1.55,.59-2.57,2.08-2.57,3.74v10.41c0,1.35,.68,2.61,1.82,3.35l13.98,9.12c1.82,1.19,4.15,1.3,6.08,.28l4.15-2.19c.93-1.54,2.05-2.97,3.15-4.37m-9.17-6.24c-.39,4.34-.81,8.82-.84,9.01-.07,.36-.32,.32-.38,.3l-.77-9.51c-.1-1.19-.71-2.26-1.69-2.94-4.41-3.07-9.78-6.74-9.94-6.89-.28-.24-.12-.44-.07-.48l10.37,4.86c1.49,.7,3.2,.75,4.73,.15l13.16-5.22s.19,.26-.11,.47c-.22,.16-8.14,4.71-12.44,7.13-1.14,.64-1.89,1.81-2.01,3.11"/><path d="M56.77,45.94c-.62-3.15-2.6-5.67-4.7-8.33-2.08-2.64-4.24-5.38-5.48-9.12-.14-.41-.5-1.48-1.6-1.48s-1.46,1.08-1.6,1.48c-1.25,3.75-3.41,6.49-5.49,9.14-2.09,2.66-4.06,5.17-4.69,8.31-.62,3.12,.14,6.19,2.15,8.64,2.24,2.73,5.75,4.29,9.63,4.29s7.38-1.56,9.61-4.27c2.02-2.45,2.79-5.53,2.17-8.66m-10.95,9.31c-2.76,.16-5.71-.78-7.52-3.01-1.33-1.64-1.83-3.69-1.42-5.77,.19-.98,.6-1.93,1.15-2.89,.14-.24,.3-.22,.37-.12-.26,2.78,.53,5.47,2.32,7.67,1.39,1.71,3.27,3,5.45,3.79,.06,.15,.03,.31-.35,.33"/></g></g></svg>