<?xml version="1.0" encoding="UTF-8"?><svg id="Laag_1" xmlns="http://www.w3.org/2000/svg" xmlns:xlink="http://www.w3.org/1999/xlink" viewBox="0 0 64 64"><defs><style>.cls-1{fill:none;}.cls-2{clip-path:url(#clippath);}.cls-3{clip-path:url(#clippath-1);}</style><clipPath id="clippath"><rect class="cls-1" width="64" height="64"/></clipPath><clipPath id="clippath-1"><rect class="cls-1" width="64" height="64"/></clipPath></defs><g class="cls-2"><g class="cls-3"><path d="M56.13,27.87l2.52-8.32c.14-.48-.09-1.01-.56-1.21-.51-.22-1.1,.02-1.32,.53l-4.13,9.67c-.16,.29-.36,.2-.41,.17l2.75-13.24c.1-.51-.19-1.02-.69-1.17-.53-.16-1.09,.15-1.24,.68l-3,10.12c-.13,.31-.38,.24-.43,.22l1.3-13.29c.05-.5-.28-.97-.79-1.08-.54-.12-1.07,.23-1.19,.77l-1.47,6.92c-1.61-.99-3.3-1.42-4.87-1.36l-1.01-7.31c-.07-.51-.52-.89-1.04-.86-.55,.03-.98,.5-.95,1.05l.6,13.6c-.02,.33-.24,.34-.3,.33l-2.93-11.52c-.14-.5-.64-.82-1.15-.72-.54,.1-.9,.63-.8,1.17l1.59,8.37c-2.54,4.54-6.46,14-9.99,18.63-3.93,5.17-21.63,14-21.63,14,.25-.25,58,0,58,0v-20.67c-2.88-1.71-4.98-3.5-6.87-5.47"/><path d="M26.07,37.1c-1.89-.01-4.09-1.34-4.77-1.85l-1.2-.9-1.2,.9c-.64,.48-2.89,1.85-4.8,1.85s-4.11-1.34-4.8-1.85l-1.2-.9-1.2,.9c-.64,.48-2.9,1.85-4.8,1.85-.36,0-.73-.06-1.1-.14v3.87c.36,.05,.73,.08,1.1,.08,2.4,0,4.66-1.08,6-1.86,1.34,.79,3.6,1.86,6,1.86s4.66-1.08,6-1.86c.76,.45,1.83,.97,3.04,1.36,1.22-1.05,2.25-2.1,2.94-3.31"/></g></g></svg>