<?xml version="1.0" encoding="UTF-8"?><svg id="Laag_1" xmlns="http://www.w3.org/2000/svg" xmlns:xlink="http://www.w3.org/1999/xlink" viewBox="0 0 64 64"><defs><style>.cls-1{fill:none;}.cls-2{clip-path:url(#clippath);}.cls-3{clip-path:url(#clippath-1);}</style><clipPath id="clippath"><rect class="cls-1" width="64" height="64"/></clipPath><clipPath id="clippath-1"><rect class="cls-1" width="64" height="64"/></clipPath></defs><g class="cls-2"><g class="cls-3"><path d="M32,5c-14.91,0-27,12.09-27,27s12.09,27,27,27,27-12.09,27-27S46.91,5,32,5m0,50.97c-13.22,0-23.97-10.75-23.97-23.97S18.78,8.03,32,8.03s23.97,10.75,23.97,23.97-10.75,23.97-23.97,23.97"/><path d="M31.2,29.04c0-3.19-2.18-5.43-6.33-5.43-.64,0-1.06,.03-1.76,.08v-3.56h7.08v-3h-10.02v9.72c1.04-.11,2.21-.19,3.19-.19,2.8,0,4,1.06,4,2.86,0,2.16-2.04,3.44-4.98,3.44h-2.46v2.8h2.32c5.35,0,8.96-2.63,8.96-6.72"/><path d="M39.55,16.89c-3.47,0-6.5,2.83-6.5,9.72s2.8,9.16,6.19,9.16,6.55-2.88,6.55-9.55-2.8-9.32-6.24-9.32m-.19,15.96c-1.46,0-2.49-1.48-2.49-6.58,0-4.82,1.18-6.47,2.55-6.47,1.51,0,2.58,1.57,2.58,6.72,0,4.54-1.09,6.33-2.63,6.33"/><polygon points="24.82 41.05 23.31 41.05 21.8 42.99 21.35 42.99 21.35 38.82 19.99 38.88 19.99 46.51 21.35 46.51 21.35 44.01 21.88 44.01 23.33 46.51 24.96 46.51 22.99 43.34 24.82 41.05"/><path d="M32.27,40.98c-.66,0-1.21,.22-1.72,.6-.34-.39-.78-.6-1.49-.6-.54,0-.93,.12-1.43,.45v-.41l-1.31,.06v5.42h1.35v-4.1c.35-.13,.56-.18,.95-.18,.59,0,.93,.28,.93,1.01v3.27h1.35v-4.1c.36-.14,.57-.18,.95-.18,.6,0,.93,.29,.93,1.01v3.27h1.35v-3.56c0-1.27-.69-1.96-1.88-1.96"/><polygon points="35.09 48.02 36.1 48.31 38.69 38.87 37.68 38.58 35.09 48.02"/><path d="M42.62,45.14c-.35,.15-.6,.22-.98,.22-.64,0-.9-.29-.9-1.03v-3.3l-1.34,.05v3.51c0,1.29,.62,2.02,1.89,2.02,.55,0,.89-.18,1.38-.48v.37h1.3v-5.48l-1.34,.05v4.06Z"/></g></g></svg>