<?xml version="1.0" encoding="UTF-8"?><svg id="Laag_1" xmlns="http://www.w3.org/2000/svg" xmlns:xlink="http://www.w3.org/1999/xlink" viewBox="0 0 64 64"><defs><style>.cls-1{fill:none;}.cls-2{clip-path:url(#clippath);}.cls-3{clip-path:url(#clippath-1);}</style><clipPath id="clippath"><rect class="cls-1" width="64" height="64"/></clipPath><clipPath id="clippath-1"><rect class="cls-1" width="64" height="64"/></clipPath></defs><g class="cls-2"><g class="cls-3"><path d="M43.73,18.1c4.23-5.99,4.27-9.61,3.95-11.18-.11-.53-.63-.88-1.16-.77-4.73,1.02-7.51,3.94-7.51,3.94,1.4,1.49,2.15,3.14,2.34,3.93,.1,.42-.12,.42-.12,.42,0,0-2.71-3.43-4.92-3.72-3.93-.51-6.32,4.13-6.32,4.13,3.22,2.32,4.59,5.13,4.96,6.34,.14,.46-.13,.55-.13,.55-.66-1.07-4.81-5.34-8.42-6.08-3.61-.74-7.08,2.3-7.08,2.3,0,0,3.39,.98,6.31,3.61,3.9,3.53,4.74,8.44,3.06,10.78-1.46,2.03-4.53,1.68-5.84,3.24-1.31,1.56,0,2.95-1.15,4.18-1.15,1.23-1.56,.82-3.44,1.72-1.89,.9-2.13,3.94-2.13,3.94-.24,.12-.42-.26-.47-.66-.16-1.45,.35-3.74,1.12-4.51,.98-.98,2.62-.98,3.36-1.97,.74-.98-.16-3.02,.75-4.42,1.61-2.49,6.28-.16,5.38-5.64-.47-2.87-4.31-6.92-9.22-7.66-3.15-.48-7.29,.52-10.11,4.28-4.08,5.44-2.77,9.86-.44,13.68,1.4,2.3,4.25,4.29,5.4,7.19,1.02,2.56,1.71,4.71,2.48,6.78,.67,1.81,3.39,1.44,3.85-.43,.59-2.42,1.87-4.84,4.54-5.84,6.15-2.3,10.58,.66,16.57-3.53,5.99-4.18,1.23-13.2,1.23-13.2,7.22-4.1,3.17-11.43,3.17-11.43"/><path d="M48.5,33c-1.38,0-2.5,1.12-2.5,2.5s1.12,2.5,2.5,2.5,2.5-1.12,2.5-2.5-1.12-2.5-2.5-2.5"/><path d="M47.5,44c-1.38,0-2.5,1.12-2.5,2.5s1.12,2.5,2.5,2.5,2.5-1.12,2.5-2.5-1.12-2.5-2.5-2.5"/><path d="M58.5,40c-1.38,0-2.5,1.12-2.5,2.5s1.12,2.5,2.5,2.5,2.5-1.12,2.5-2.5-1.12-2.5-2.5-2.5"/><path d="M57.5,51c-1.38,0-2.5,1.12-2.5,2.5s1.12,2.5,2.5,2.5,2.5-1.12,2.5-2.5-1.12-2.5-2.5-2.5"/><path d="M36.5,48c-1.38,0-2.5,1.12-2.5,2.5s1.12,2.5,2.5,2.5,2.5-1.12,2.5-2.5-1.12-2.5-2.5-2.5"/><path d="M46.5,55c-1.38,0-2.5,1.12-2.5,2.5s1.12,2.5,2.5,2.5,2.5-1.12,2.5-2.5-1.12-2.5-2.5-2.5"/></g></g></svg>