<?xml version="1.0" encoding="UTF-8"?><svg id="Laag_1" xmlns="http://www.w3.org/2000/svg" xmlns:xlink="http://www.w3.org/1999/xlink" viewBox="0 0 64 64"><defs><style>.cls-1{fill:none;}.cls-2{clip-path:url(#clippath);}.cls-3{clip-path:url(#clippath-1);}</style><clipPath id="clippath"><rect class="cls-1" width="64" height="64"/></clipPath><clipPath id="clippath-1"><rect class="cls-1" width="64" height="64"/></clipPath></defs><g class="cls-2"><g class="cls-3"><path d="M34.2,11.69c2.99,.49,5.06-1.32,5.55-4.33,.56-3.43-.94-5.57-3.85-6.04-3.07-.5-5.07,1.4-5.58,4.5-.53,3.26,.89,5.39,3.88,5.88"/><path d="M39.75,43.49c-.68-1.11-1.32-1.97-1.95-2.84-1.32-1.8-2.69-3.55-4.09-5.3,.55-2.91,1.36-6.49,2.12-9.7,.32,1.01,.69,2.05,1.25,3.18,.68,1.33,2.94,3.38,3.97,4.46,.57,.6,1.15,1,1.71,1.26-.23,.45-.3,.97-.15,1.46l.55,1.82-2.79,.85,4.64,15.22,11.99-3.66-4.64-15.22-2.56,.78-.54-1.79c-.15-.51-.5-.93-.97-1.19-.47-.25-1.01-.31-1.52-.15l-1.22,.37c-1.05-1.27-2.32-2.74-2.76-3.29-.5-.61-1.69-2.02-2.01-2.74-.44-.96-.8-2.2-1.12-3.33-.15-.53-1.65-6.71-1.88-7.05-.81-2.02-6.9-4.83-10.51-2.68-1.98,1.18-5.71,3.96-7.61,6.03-1.15,1.27-1.61,2.04-2.1,4.84-.3,1.76-.49,3.8-.53,5.58,0,.28,.02,.56,.06,.83-.63,.06-1.23,.39-1.56,.94l-.98,1.63-2.51-1.49L3.91,46l10.78,6.4,8.12-13.68-2.31-1.37,.96-1.61c.27-.46,.35-.99,.22-1.51-.13-.52-.45-.96-.91-1.23l-.42-.25c.44-3.14,1.08-6.86,1.97-8.66,.44-.89,2.43-2.22,3.26-2.76-.53,2.45-2.35,10.63-2.35,12.5,0,2.32,1.5,3.52,2.45,4.52l3.73,3.91s-.14,.24-.46,.05c-1.63-.94-3.78-2.19-3.78-2.19-.54,2.02-1.41,5.32-2.18,7.28-.61,1.56-.4,1.12-.99,2.13-1.2,2.05-2.75,4.13-4.08,6.46-2.19,3.83,.46,6.65,.83,7.01,2.15-3.03,5.87-7.5,7.96-10.65,.7-1.04,.78-1.12,1.57-2.64,.6-1.21,1.41-2.95,2.59-5.85,.51,.47,1.01,1,1.52,1.52,1.26,1.27,2.05,1.89,2.54,2.83,.15,.28,.46,.93,.78,1.74,1.93,4.97,3.47,7.86,4.32,9.9,1.28,3.06,4.85,3.36,5.85,3.06-.98-3.89-3.26-11.83-4.52-15.69-.9-2.73-1.02-2.77-1.6-3.72m7.58-8.9l.54,1.8-2.81,.86-.55-1.81,2.81-.85Zm-28.55,1.73l-2.53-1.5,.97-1.62,2.52,1.51-.96,1.61Z"/></g></g></svg>