<?xml version="1.0" encoding="UTF-8"?><svg id="Laag_1" xmlns="http://www.w3.org/2000/svg" xmlns:xlink="http://www.w3.org/1999/xlink" viewBox="0 0 64 64"><defs><style>.cls-1{fill:none;}.cls-2{clip-path:url(#clippath);}.cls-3{clip-path:url(#clippath-1);}</style><clipPath id="clippath"><rect class="cls-1" width="64" height="64"/></clipPath><clipPath id="clippath-1"><rect class="cls-1" width="64" height="64"/></clipPath></defs><g class="cls-2"><g class="cls-3"><path d="M12.9,21c0-8.34,6.76-15.1,15.1-15.1s15.1,6.76,15.1,15.1c0,4.07-1.62,7.75-4.23,10.47l9.13,9.12V1H8V41h12.92l-2.71-8.51c-3.25-2.77-5.31-6.88-5.31-11.49"/><path d="M30.22,26.75c8-2.42,8.59-3.45,8.9-4,.3-.52,.37-1.12,.2-1.68-.52-1.74-2.03-1.99-8.61-2.29,3.98-.83,5.79-1.61,5.6-3.67-.13-1.38-.3-3.28-13.92-4.04-1.08-.05-2.05,.77-2.11,1.86s.78,2.02,1.88,2.08c1.64,.09,3.42,.24,5.05,.43-.29,.06-.57,.11-.83,.16-5.92,1.1-8.37,1.56-8.68,3.64-.09,.6,.09,1.22,.49,1.7,.99,1.18,2.89,1.38,10.58,1.71,.36,.02,.74,.03,1.14,.05-2.01,.62-4.29,1.28-6.54,1.89l6.85,2.17Z"/><path d="M55.2,50.89l-20.37-20.37-14.76-4.67c-.77-.24-1.5,.48-1.25,1.25l4.67,14.77,20.37,20.37c1.67,1.67,5.57,.48,8.7-2.65,3.13-3.13,4.32-7.03,2.65-8.7m-3.16,5.36l-20.55-20.55c-.78-.78-1.62-.36-2.4,.42s-1.2,1.62-.42,2.4l20.54,20.55c-.67,.48-1.28,.81-1.81,1.02l-20.15-20.15c-.57-.57-1.16-.5-1.75-.12l-2.27-7.18,2.38-2.38,7.18,2.27c-.38,.58-.45,1.18,.12,1.75l20.15,20.15c-.21,.53-.54,1.15-1.01,1.81"/></g></g></svg>