<?xml version="1.0" encoding="UTF-8"?><svg id="Laag_1" xmlns="http://www.w3.org/2000/svg" xmlns:xlink="http://www.w3.org/1999/xlink" viewBox="0 0 64 64"><defs><style>.cls-1{fill:none;}.cls-2{clip-path:url(#clippath);}.cls-3{clip-path:url(#clippath-1);}</style><clipPath id="clippath"><rect class="cls-1" width="64" height="64"/></clipPath><clipPath id="clippath-1"><rect class="cls-1" width="64" height="64"/></clipPath></defs><g class="cls-2"><path d="M30.41,3l-.43,3h-1.56l.66-3h-4.08L3,60h13.52l1.54-7h5.16l-1.01,7h13.88l-1.43-57h-4.27Zm-5.75,40.03h-4.4l1.99-9.03h3.7l-1.3,9.03Zm2.45-17.03h-3.09l1.54-7h2.55l-1.01,7Zm1.72-12h-2.17l.88-4h1.86l-.57,4Z"/><g class="cls-3"><path d="M40,3h-4l5.8,57h8.35l-1.6-7.71-1.66,1.52c-1.68,1.49-3.2-.15-2.28-1.62l3.62-6.15c.13-.22,.36-.35,.64-.35,.27,0,.56,.12,.79,.33l6.29,5.99c1.09,1.04,.14,2.8-1.41,1.77l-2.44-1.53,2.15,7.76h7.75L40,3Z"/></g></g></svg>