<?xml version="1.0" encoding="UTF-8"?><svg id="Laag_1" xmlns="http://www.w3.org/2000/svg" xmlns:xlink="http://www.w3.org/1999/xlink" viewBox="0 0 64 64"><defs><style>.cls-1{fill:none;}.cls-2{clip-path:url(#clippath);}.cls-3{clip-path:url(#clippath-1);}</style><clipPath id="clippath"><rect class="cls-1" width="64" height="64"/></clipPath><clipPath id="clippath-1"><rect class="cls-1" width="64" height="64"/></clipPath></defs><g class="cls-2"><g class="cls-3"><path d="M57.17,23.07c-.72-.14-2.28,0-3.51,.17-.7-5.3-2.04-13.54-2.65-15.24-.44-1.22-1.78-1.7-3.15-2,0,0-7.16-1-15.85-1s-15.85,1-15.85,1c-1.38,.3-2.71,.78-3.15,2-.62,1.7-1.95,9.94-2.66,15.24-1.23-.17-2.8-.31-3.51-.17-1.69,.33-2,2.08-1.54,3.08,.72,1.53,3.36,2.96,4.7,3.62v23.57s0,3.97,.41,5.63c.15,.6,.81,1.03,1.57,1.03h6.03c.76,0,1.42-.43,1.57-1.03,.25-1.01,.35-3.04,.39-4.47l-5.71-1.14c-.32-.1-.27-.31-.25-.36H49.98c.02,.06,.07,.26-.25,.36l-5.71,1.14c.04,1.42,.14,3.45,.39,4.47,.15,.6,.81,1.03,1.57,1.03h6.03c.76,0,1.42-.43,1.57-1.03,.41-1.66,.41-5.63,.41-5.63V29.77c1.34-.65,3.99-2.08,4.7-3.62,.47-1,.15-2.75-1.54-3.08M21.78,46.95l-6.3-.5c-1.71-.14-2.75-1.5-3.07-2.99l-.26-1.8c-.16-1.12,.99-2.06,2.12-1.75l5.1,1.42c1.11,.43,1.95,1.29,2.31,2.38l.7,2.6c.09,.34-.22,.69-.59,.65m17.22,4.05h-14v-3h14v3Zm12.85-9.35l-.26,1.8c-.31,1.49-1.36,2.86-3.07,2.99l-6.3,.5c-.38,.03-.69-.31-.59-.65l.7-2.6c.36-1.09,1.19-1.95,2.3-2.38l5.1-1.42c1.13-.31,2.28,.63,2.12,1.75M16.12,11.58c.08-.02,8.03-.83,15.88-.83s15.8,.81,15.88,.83c.42,1.8,1.87,11.28,2.4,14.75,.12,.79-.3,1.57-1.02,1.91-2.31,1.09-7.97,2.91-17.25,2.91s-14.94-1.83-17.25-2.91c-.73-.34-1.14-1.11-1.02-1.91,.52-3.46,1.97-12.94,2.4-14.75"/></g></g></svg>