<?xml version="1.0" encoding="UTF-8"?><svg id="Laag_1" xmlns="http://www.w3.org/2000/svg" xmlns:xlink="http://www.w3.org/1999/xlink" viewBox="0 0 64 64"><defs><style>.cls-1{fill:none;}.cls-2{clip-path:url(#clippath);}.cls-3{clip-path:url(#clippath-1);}</style><clipPath id="clippath"><rect class="cls-1" width="64" height="64"/></clipPath><clipPath id="clippath-1"><rect class="cls-1" width="64" height="64"/></clipPath></defs><g class="cls-2"><g class="cls-3"><path d="M11.5,16.8c2.2,0,3.5-1.6,3.5-3.8,0-2.6-1.3-4-3.5-4s-3.5,1.6-3.5,4,1.3,3.8,3.5,3.8"/><path d="M30.58,21.77c.15-.99-.15-2.15-2.31-2.65-2.06-.48-5.94-.92-9.94-1.07-5.29-.2-10.77,.11-12.51,1.52-2.89,2.34-2.72,8.71-2.72,14.12,.2,2.2,1.8,2.8,2.8,2.8v-5.8c0-2.7,.5-5.6,.8-6.6,.1-.3,.3-.2,.3-.2v30.1s3.3,0,3.6-3.7c0,0,.5-14,.5-14.1,0-.2,.1-.4,.4-.4s.4,.2,.4,.4,.5,14,.5,14c.2,3.8,3.6,3.8,3.6,3.8V22.34c0-.4,.3-.73,.7-.76,3.22-.27,8.66-.19,13.89,.2"/><path d="M52.5,16.8c2.2,0,3.5-1.4,3.5-3.8s-1.2-4-3.5-4-3.5,1.4-3.5,4c0,2.2,1.3,3.8,3.5,3.8"/><path d="M58.18,19.58c-1.74-1.41-7.23-1.72-12.51-1.52-4,.15-7.89,.59-9.94,1.07-2.15,.5-2.46,1.66-2.31,2.65,5.22-.39,10.66-.47,13.88-.2,.4,.03,.7,.36,.7,.76v31.66s3.4,0,3.6-3.8c0,0,.5-13.8,.5-14s.1-.4,.4-.4,.4,.2,.4,.4c0,.1,.5,14.1,.5,14.1,.3,3.7,3.6,3.7,3.6,3.7V23.9s.2-.1,.3,.2c.3,1,.8,3.9,.8,6.6v5.8c1,0,2.6-.6,2.8-2.8,0-5.41,.17-11.78-2.72-14.12"/><path d="M20.98,44.41l-.1,.03v1.24l.16-.03c.46-.08,.81-.11,1.26-.12v4.33h1.52v-5.75h-.83c-.65,0-1.32,.1-2.01,.3"/><path d="M26.16,47.85c-.57,0-.98,.42-.98,.99,0,.32,.14,.6,.37,.76l-.64,1.48h.79c.38,0,1.44-1.5,1.44-2.19s-.37-1.04-.99-1.04"/><path d="M30,46.65c-.21,0-.4,0-.63,.02v-1.2h2.86v-1.37h-4.17v4.02l.15-.02c.45-.05,.92-.08,1.28-.08,.69,0,1.5,.18,1.5,1.06,0,.82-.77,1.35-1.97,1.35h-1.08v1.3h1.02c2.11,0,3.58-1.16,3.58-2.82,0-1.42-.95-2.27-2.55-2.27"/><path d="M40.99,44.04c-.61,0-1.15,.17-1.71,.56-.37-.38-.85-.56-1.51-.56-.46,0-.84,.1-1.3,.35v-.31l-1.48,.07v5.71h1.51v-4.22c.32-.12,.52-.17,.88-.17,.6,0,.86,.27,.86,.91v3.48h1.51v-4.22c.33-.13,.54-.17,.88-.17,.58,0,.86,.29,.86,.91v3.48h1.51v-3.73c0-1.33-.74-2.09-2.01-2.09"/><path d="M40.11,28.73c-.32-.25-.78-.17-1.02,.11-.19,.22-.25,.58,.02,.99,.81,1.27,1.4,2.17,1.4,2.17H23.5s.58-.91,1.4-2.17c.26-.41,.21-.76,.02-.99-.24-.28-.7-.36-1.02-.11-2.41,1.93-4.01,3.25-5.1,4.1-.21,.16-.3,.43-.29,.67,0,.24,.08,.51,.29,.67,1.08,.85,2.68,2.17,5.1,4.1,.32,.25,.78,.17,1.02-.11,.19-.23,.25-.58-.02-.99-.81-1.27-1.4-2.17-1.4-2.17h17s-.58,.91-1.4,2.17c-.27,.41-.21,.76-.02,.99,.24,.28,.71,.36,1.02,.11,2.41-1.93,4.01-3.25,5.1-4.1,.21-.16,.3-.43,.29-.67,0-.24-.08-.51-.29-.67-1.08-.85-2.69-2.17-5.1-4.1"/></g></g></svg>