<?xml version="1.0" encoding="UTF-8"?>
<svg id="Zwart" xmlns="http://www.w3.org/2000/svg" viewBox="0 0 64 64">
  <path d="M31.5,34c10.37,0,18.5-4.62,18.5-10.51v-5c0-5.88-8.13-10.49-18.5-10.49s-18.5,4.61-18.5,10.49v5c0,1.05.27,2.06.75,3.01-.48.94-.75,1.94-.75,2.99v5c0,1.05.27,2.05.75,3-.48.95-.75,1.95-.75,3v5c0,5.89,8.13,10.51,18.5,10.51s18.5-4.62,18.5-10.51v-5c0-.22-.03-.44-.06-.66-1.26,1.61-6.44,7.27-17.91,7.27s-14.56-4.69-14.83-5.44c-.09-.25-.09-.39-.03-.45,3.37,2.33,8.49,3.79,14.33,3.79,10.37,0,18.5-4.62,18.5-10.51v-5c0-.22-.03-.44-.06-.66-1.26,1.61-6.44,7.27-17.91,7.27s-14.56-4.69-14.83-5.44c-.09-.25-.09-.39-.03-.45,3.37,2.33,8.49,3.79,14.33,3.79ZM16.85,18.5c0-3.63,6.56-6.57,14.65-6.57s14.65,2.94,14.65,6.57-6.56,6.57-14.65,6.57-14.65-2.94-14.65-6.57Z"/>
  <path d="M23.99,19.11c.62,1.12,2.2,1.76,4.38,1.76,1.95,0,3.28-.45,3.93-1.33l.63-.84c.53-.7.97-.91,1.91-.91.85,0,1.7.37,1.7,1.19,0,.57-.1,1.02-.34,1.62l-.15.36h2.91l.06-.17c.21-.54.27-1,.28-1.52h2.21v-1.37h-2.47c-.67-1.16-2.42-1.85-4.74-1.85-2.02,0-3.25.47-4,1.53l-.59.83c-.38.54-.83.74-1.68.74-.59,0-1.59-.14-1.59-1.08,0-.46.08-.83.27-1.31l.14-.34-2.8-.1-.07.16c-.17.4-.28.82-.31,1.26h-2.22v1.37h2.51Z"/>
</svg>