<?xml version="1.0" encoding="UTF-8"?><svg id="Laag_1" xmlns="http://www.w3.org/2000/svg" xmlns:xlink="http://www.w3.org/1999/xlink" viewBox="0 0 64 64"><defs><style>.cls-1{fill:none;}.cls-2{clip-path:url(#clippath);}.cls-3{clip-path:url(#clippath-1);}</style><clipPath id="clippath"><rect class="cls-1" width="64" height="64"/></clipPath><clipPath id="clippath-1"><rect class="cls-1" width="64" height="64"/></clipPath></defs><g class="cls-2"><g class="cls-3"><path d="M46,24.5c-1.1,0-2,.4-2,1.5v7c0,7-6.02,12.62-13.16,11.94-6.22-.58-10.84-6.05-10.84-12.3v-6.65c0-1.1-.9-1.5-2-1.5s-2,.4-2,1.5v6.54c0,7.85,5.5,14.7,13,16.16v5.2l3.73,.74c.32,.1,.27,.31,.25,.36h-5.98c-2.76,0-5,2.24-5,5h20c0-2.76-2.24-5-5-5h-2v-6.3c7.39-1.41,13-7.91,13-15.7v-7c0-1.1-.9-1.5-2-1.5"/><path d="M32,43c5.52,0,10-4.48,10-10v-8h-9c-.55,0-1-.45-1-1s.45-1,1-1h9v-3h-9c-.55,0-1-.45-1-1s.45-1,1-1h9v-3h-9c-.55,0-1-.45-1-1s.45-1,1-1h8.8c-.93-4.56-4.96-8-9.8-8-5.52,0-10,4.48-10,10v18c0,5.52,4.48,10,10,10"/></g></g></svg>