<?xml version="1.0" encoding="UTF-8"?><svg id="Laag_1" xmlns="http://www.w3.org/2000/svg" xmlns:xlink="http://www.w3.org/1999/xlink" viewBox="0 0 64 64"><defs><style>.cls-1{fill:none;}.cls-2{clip-path:url(#clippath);}.cls-3{clip-path:url(#clippath-1);}</style><clipPath id="clippath"><rect class="cls-1" width="64" height="64"/></clipPath><clipPath id="clippath-1"><rect class="cls-1" width="64" height="64"/></clipPath></defs><g class="cls-2"><g class="cls-3"><path d="M52.47,45.04c-2.44-2.49-7.64-4.59-10.88-5.73,1.06-1.32,1.8-3.11,2.13-5.28,1.19-.88,2.17-2.78,2.28-6.56,.04-1.53-.33-3.34-1.4-4.5,.8-2.16,.43-5.69-1.48-8.65-.84-1.3-1.97-2.73-4.02-3.78,.21-.54,.34-1.11,.34-1.71,0-3.22-3.26-5.75-7.42-5.75s-7.42,2.53-7.42,5.75c0,.6,.12,1.17,.34,1.71-2.05,1.05-3.18,2.48-4.02,3.78-1.91,2.96-2.28,6.49-1.48,8.66-1.07,1.17-1.45,2.97-1.4,4.5,.11,3.79,1.09,5.68,2.27,6.56,.32,2.15,1.06,3.92,2.1,5.23-3.22,1.08-8.37,3.12-10.85,5.78-4.57,4.91-4.53,13.96-4.53,13.96H57s.17-9.17-4.53-13.96M32,6.07c2.36,0,4.42,1.29,4.42,2.75,0,.23-.06,.45-.16,.66-1.24-.3-2.65-.48-4.26-.48s-3.02,.18-4.26,.48c-.1-.21-.16-.44-.16-.66,0-1.46,2.07-2.75,4.42-2.75m-8.59,9.87c1.66-2.57,4.5-4.04,8.59-4.04s6.93,1.47,8.59,4.04c1.17,1.82,1.6,3.84,1.4,5.19-2.59-.35-5.94-1.89-9.99-6.46-2.65,2.98-6,5.92-9.99,6.46-.2-1.35,.23-3.37,1.4-5.19m15.47,10.12h-13.7l-1.58-2.17c3.73-.88,6.83-3.36,8.41-4.83,1.59,1.47,4.71,3.96,8.45,4.84l-1.58,2.16h0Zm.13,1.5c-.19,1.52-.99,2.38-2.26,2.38-1.34,0-2.1-.8-2.27-2.38h4.53Zm-9.44,0c-.17,1.58-.94,2.38-2.27,2.38-1.27,0-2.07-.86-2.26-2.38h4.53Zm2.42,23.95c-1.72-.78-7.11-3.6-9.91-8.96,.93-.34,2.15-.63,3.16-1.49,.63-.53,1.18-1.28,1.51-2.4-2.31-.31-3.66-3.39-3.66-7.24-.24,.2-.45,.3-.65,.3-.97,0-1.39-2.31-1.44-4.34-.04-1.27,.36-2.34,.81-2.55l1.72,2.35c.15,3.1,2.01,4.25,3.77,4.25,2.17,0,3.53-1.44,3.76-3.88h1.93c.23,2.44,1.59,3.88,3.76,3.88,1.76,0,3.62-1.14,3.77-4.25l1.7-2.33c.44,.25,.81,1.29,.78,2.53-.06,2.02-.48,4.34-1.44,4.34-.19,0-.41-.09-.65-.3,0,4.02-1.47,7.21-3.97,7.27-1.31,1.94-2.75,2.31-4.94,2.31-1.16,0-2.1-.11-2.93-.5,.61,.94,1.65,2.08,3.59,2.56,2.38,.59,4.51-.06,5.91-1.6,.98,.3,2.11,.69,3.31,1.14-2.81,5.31-8.17,8.12-9.88,8.9"/></g></g></svg>