<?xml version="1.0" encoding="UTF-8"?><svg id="Laag_1" xmlns="http://www.w3.org/2000/svg" xmlns:xlink="http://www.w3.org/1999/xlink" viewBox="0 0 64 64"><defs><style>.cls-1{fill:none;}.cls-2{clip-path:url(#clippath);}.cls-3{clip-path:url(#clippath-1);}</style><clipPath id="clippath"><rect class="cls-1" width="64" height="64"/></clipPath><clipPath id="clippath-1"><rect class="cls-1" width="64" height="64"/></clipPath></defs><g class="cls-2"><g class="cls-3"><path d="M52.9,10.75c-13.92-.88-27.88-.88-41.8,0-2.74,.18-4.97,2.59-4.97,5.33v30.84c0,2.74,2.22,5.15,4.97,5.33,13.92,.88,27.88,.88,41.8,0,2.74-.18,4.97-2.59,4.97-5.33V16.08c0-2.74-2.22-5.15-4.97-5.33m-.9,34.25H12V17H52v28Z"/><polygon points="38.5 30 39.3 42 47 42 43.09 30 38.5 30"/><polygon points="41.52 25 39.48 19 37.89 19 38.33 25 41.52 25"/><polygon points="37.08 19 35.48 19 33.45 25 36.64 25 37.08 19"/><polygon points="28 42 35.69 42 36.5 30 31.91 30 28 42"/><path d="M15.5,36c.83,0,1.5-.17,1.5-1v-5.98c0-.58,.24-1.14,.67-1.54l3.54-3.31,.31,2.62c.06,.48,.45,.85,.94,.88,.49,.03,.92-.3,1.02-.78l1.5-6.64c.07-.3,0-.6-.19-.84-.19-.24-.48-.37-.78-.37h-6.81c-.49,0-.9,.35-.98,.83-.08,.48,.19,.95,.65,1.11l2.45,.86-3.7,3.46c-1.03,.96-1.62,2.32-1.62,3.73v5.98c0,.83,.67,1,1.5,1"/><polygon points="27 32 30 32 30 29 45 29 45 32 48 32 48 29 49 29 49 26 26 26 26 29 27 29 27 32"/></g></g></svg>