<?xml version="1.0" encoding="UTF-8"?><svg id="Laag_1" xmlns="http://www.w3.org/2000/svg" xmlns:xlink="http://www.w3.org/1999/xlink" viewBox="0 0 64 64"><defs><style>.cls-1{clip-path:url(#clippath);}.cls-2{fill:none;}.cls-2,.cls-3{stroke-width:0px;}.cls-3{fill:#154273;}</style><clipPath id="clippath"><rect class="cls-2" width="64" height="64"/></clipPath></defs><g class="cls-1"><path class="cls-3" d="m27.51,29.94c-6.03,3.62-11.73,7.03-22.66,4.49l-.68,2.92c2.9.67,5.47.96,7.8.96,7.4,0,12.3-2.94,17.08-5.8,7.22-4.32,14.03-8.41,29.9-2.41l1.06-2.81c-17.23-6.51-25-1.86-32.51,2.64Z"/><path class="cls-3" d="m38.89,30.17l4.47,26.83h10.64c1.66,0,3-1.34,3-3v-22.25c-8.2-2.91-13.63-2.9-18.11-1.57Z"/><path class="cls-3" d="m30.19,34.4c-4.85,2.91-10.19,6.11-18.23,6.11-1.54,0-3.2-.14-4.95-.4v13.88c0,1.66,1.34,3,3,3h31.13l-4.35-26.1c-2.3.94-4.4,2.19-6.59,3.5Z"/><path class="cls-3" d="m25.71,28.46l-3.58-21.46h-12.13c-1.66,0-3,1.34-3,3v22.63c8.62,1.58,13.43-1.02,18.71-4.17Z"/><path class="cls-3" d="m57,23.94v-13.94c0-1.66-1.34-3-3-3h-29.64l3.38,20.25c6.72-3.97,14.6-7.84,29.26-3.31Z"/></g></svg>