<?xml version="1.0" encoding="UTF-8"?><svg id="Laag_1" xmlns="http://www.w3.org/2000/svg" xmlns:xlink="http://www.w3.org/1999/xlink" viewBox="0 0 64 64"><defs><style>.cls-1{fill:none;}.cls-2{clip-path:url(#clippath);}.cls-3{clip-path:url(#clippath-1);}</style><clipPath id="clippath"><rect class="cls-1" width="64" height="64"/></clipPath><clipPath id="clippath-1"><rect class="cls-1" width="64" height="64"/></clipPath></defs><g class="cls-2"><g class="cls-3"><path d="M35.41,45.77c-.04-.13-.06-.26-.1-.39-2.53,2.61-6.01,4.08-7.27,4.56-1.49-.64-6.14-2.88-8.39-6.8,2.88-1.19,2.71-2.27,2.76-2.72,.07-.58,.58-5.32,.58-5.32-2.52-2.48-3.6-5.57-4.06-8.28-.29-1.73-.25-3.34-.16-4.41,4.8-1.89,11.6-5.75,14.24-9.06,0,0,.32,.01,.12,.5-.34,.83-.85,1.81-1.55,2.98,1.24,2.63,3.47,4.56,5.68,5.93,.07,1.03,.07,2.47-.2,4.06-.53,3.18-2.82,7.63-5.34,9.18-1.72,1.07-4.87,1.23-6.71,.44,.42,.84,1.27,1.84,3.15,2.31,2.54,.63,4.85-.41,5.45-.75,.11,.8,.22,1.59,.29,2.28,.03,.31,.11,.96,1.28,1.82,.2-1.01,.73-1.89,1.57-2.64-.1-.81-.23-1.77-.36-2.7,1.37,.05,3.5,.22,5.14,.46h0c-.15-.5-.22-1.02-.22-1.56,0-2.63,1.86-4.83,4.33-5.37,.24-1.75,.36-3.38,.36-5.06,0-7.49-2.81-15.48-7.13-18.06-2.75-1.65-5.84-1.05-5.84-1.05,0,0-2.97-2.86-8.17-1.88-8.48,1.6-14.84,9.74-14.84,21,0,3.72,.56,7.15,1.82,12.24,.1,.42,.5,.67,.88,.54,1.82-.64,4.29-1.01,7.36-1.3-.11,.94-.23,1.99-.36,3.06-1.67,1.2-8.78,2.66-11.49,5.5-2.76,2.88-4.21,13.74-4.21,13.74h30.05c-.43-.99-.69-2.14-.71-3.5-.04-3.21,1.01-6.8,2.17-9.47-.03-.09-.07-.17-.09-.26"/><path d="M59.24,46.16c.59-1.37,.84-2.4,.63-3.49-.24-1.22-2.25-2.22-5.23-2.78-.32-.06-.67-.11-1.01-.16h0c-.44-.07-.87-.33-1.14-.71-.2-.28-.32-.64-.36-1.05,.91-.37,1.55-1.27,1.55-2.31,0-1.38-1.12-2.5-2.5-2.5-.56,0-1.07,.19-1.49,.5,.25,1.55-.16,2.04-.16,2.04-.13,.16-.21,.13-.24,.1,0-.05,.01-.09,.01-.14,0-1.38-1.12-2.5-2.5-2.5s-2.5,1.12-2.5,2.5c0,1.05,.64,1.94,1.55,2.31-.04,.41-.15,.77-.35,1.05-.27,.38-.7,.64-1.14,.7h0c-.35,.06-.69,.11-1.02,.17-2.98,.56-4.99,1.56-5.23,2.78-.14,.74-.07,1.44,.17,2.24h.01c.11,.38,.26,.8,.45,1.25-1.3,2.63-2.44,6.34-2.41,9.31,.04,3.67,2.59,6.47,12.66,6.47s12.62-2.8,12.66-6.47c.03-2.71-.92-6.28-2.41-9.31m-10.87-8.57c.25-.21,.46-.46,.62-.75,.16,.29,.37,.54,.62,.75-.01,.73,.11,1.34,.29,1.84-.3,0-.6-.02-.91-.02s-.61,.01-.91,.02c.18-.5,.3-1.11,.29-1.84m3.82,19.38c-1.03,.24-1.52,.3-2.51,.3-2.6,0-4.44-1.27-4.98-4.04h-1.27v-1.42h1.12v-.39c0-.34,0-.69,.04-1.01h-1.16v-1.44h1.39c.67-2.81,2.58-4.23,5.19-4.23,.73,0,1.31,.06,2.1,.22v1.97c-.92-.17-1.4-.24-2.15-.24-1.42,0-2.36,.77-2.77,2.28h3.41v1.44h-3.65c-.02,.26-.02,.52-.02,.79,0,.23,0,.43,.02,.62h3.65v1.42h-3.43c.43,1.54,1.44,2.17,2.68,2.17,.88,0,1.39-.07,2.36-.28v1.85Z"/></g></g></svg>