<?xml version="1.0" encoding="UTF-8"?><svg id="Laag_1" xmlns="http://www.w3.org/2000/svg" xmlns:xlink="http://www.w3.org/1999/xlink" viewBox="0 0 64 64"><defs><style>.cls-1{fill:none;}.cls-2{clip-path:url(#clippath);}.cls-3{clip-path:url(#clippath-1);}</style><clipPath id="clippath"><rect class="cls-1" width="64" height="64"/></clipPath><clipPath id="clippath-1"><rect class="cls-1" width="64" height="64"/></clipPath></defs><g class="cls-2"><g class="cls-3"><path d="M53.91,10.09c-5.45-5.45-14.33-5.45-19.78,0l-6.36,6.36c-5.45,5.45-5.45,14.33,0,19.78,1.79,1.8,3.96,2.98,6.25,3.59-.37,1.3-1.05,2.52-2.03,3.49l-6.36,6.36c-3.12,3.12-8.19,3.12-11.3,0-3.12-3.12-3.12-8.19,0-11.31l6.36-6.36c.42-.42,.87-.77,1.35-1.08-.61-2.07-.78-4.24-.55-6.37-1.84,.68-3.56,1.74-5.04,3.21l-6.36,6.36c-5.45,5.45-5.45,14.33,0,19.78,2.73,2.73,6.31,4.09,9.89,4.09s7.16-1.36,9.89-4.09l6.36-6.36h0c3.16-3.16,4.63-7.68,3.92-12.1-.47-2.92-1.82-5.58-3.92-7.68-1.33-1.33-2.86-2.32-4.49-3-.85,1.49-.68,3.58-.28,5.1,.26,1.02,.63,1.56,.67,1.88,.02,.18-.12,.24-.12,.24-1.85-1.87-2.42-4.14-2.33-6.05,.09-1.99,1.02-3.94,2.33-5.26l6.36-6.36c1.56-1.56,3.61-2.34,5.65-2.34s4.09,.78,5.65,2.34c3.12,3.12,3.12,8.19,0,11.31l-6.36,6.36c-.42,.42-.88,.78-1.37,1.09,.6,2.05,.79,4.22,.55,6.36,1.84-.68,3.58-1.74,5.05-3.22l6.36-6.36c5.45-5.45,5.45-14.33,0-19.78"/></g></g></svg>