<?xml version="1.0" encoding="UTF-8"?><svg id="Laag_1" xmlns="http://www.w3.org/2000/svg" xmlns:xlink="http://www.w3.org/1999/xlink" viewBox="0 0 64 64"><defs><style>.cls-1{fill:none;}.cls-2{clip-path:url(#clippath);}.cls-3{clip-path:url(#clippath-1);}</style><clipPath id="clippath"><rect class="cls-1" width="64" height="64"/></clipPath><clipPath id="clippath-1"><rect class="cls-1" width="64" height="64"/></clipPath></defs><g class="cls-2"><g class="cls-3"><path d="M36.2,18.96c2.83,.17,4.59-1.74,4.78-4.63,.21-3.29-1.39-5.16-4.14-5.33-2.9-.17-4.6,1.82-4.79,4.79-.2,3.13,1.33,4.99,4.15,5.16"/><path d="M7.04,45c-3.24,.03-4.96,1.77-4.93,4.55,.03,2.92,2.1,4.48,5.02,4.45,3.08-.03,4.8-1.7,4.78-4.55-.03-2.85-2.02-4.48-4.86-4.45"/><path d="M40.31,47.71c1.37-2.17,2.35-3.75,3.64-5.6,1.65-.35,4.92-.65,6.61-.79,4.25-.41,5.93-2.86,5.95-4.67-3.33-.21-5.51-.36-8.62-.46-5.47-.16-6.54,.39-7.57,1.16,1.14,.69-1.38-.84,1.69,1.03-1.06,1.37-2.62,3.11-5.68,2.97-4.06,4.35-1.96,2.11-3.33,3.63h-14.9c-3.18,0-4.79,1.99-4.79,4.47s1.79,4.5,4.79,4.5h17.91s-.05-3.44-4.84-4.02c-3.71-.44-10-.81-12.29-.94-.05-.2,.11-.38,.55-.43,.49-.06,7.33-.67,11.92-.12,4.8,.57,6.13,3.81,6.16,5.46l17.74,.03c3.94-.09,5.79-2.23,6.58-3.66l-21.52-2.59Z"/><path d="M33.68,39.28c3.88,1.46,5.42,.08,5.99-.55-4.41-2.69-8.65-5.38-8.65-5.38l.8-5.72c.06-.01,.27-.03,.33,.3l.28,4.54c1.12,.71,3.7,2.33,6.55,4.08,.38-.34,.49-.45,.92-.72l.81-7.11c1.38,1.41,3.78,3.62,6.33,6.02,1.88,.04,4.14,.14,5.92,.25-1.92-2.36-8.96-9.7-11.49-11.85-2.53-2.15-8.55-2.72-11.51-1.11-1.05,.57-2.2,1.71-2.44,3.07-.2,1.1-.92,6.69-1.06,8.93-.06,.96,.26,1.55,.8,2.07,1.32,1.25,4.49,2.46,6.42,3.19"/><path d="M27.4,38.07c-.2,2.47-.34,4.54-.38,5.54h5.18c.9-.99,.39-.43,2.33-2.51-1.69-.41-5.3-1.85-7.12-3.02"/></g></g></svg>