<?xml version="1.0" encoding="UTF-8"?><svg id="Laag_1" xmlns="http://www.w3.org/2000/svg" xmlns:xlink="http://www.w3.org/1999/xlink" viewBox="0 0 64 64"><defs><style>.cls-1{fill:none;}.cls-2{clip-path:url(#clippath);}.cls-3{clip-path:url(#clippath-1);}</style><clipPath id="clippath"><rect class="cls-1" width="64" height="64"/></clipPath><clipPath id="clippath-1"><rect class="cls-1" width="64" height="64"/></clipPath></defs><g class="cls-2"><g class="cls-3"><path d="M14.34,31.32c-1.02,1.68-1.83,3.26-2.15,4.86-.55,2.75,.12,5.46,1.89,7.62,2.18,2.66,5.76,4.19,9.82,4.19,1.49,0,2.91-.21,4.22-.61,.36-.11,.42-.3,.31-.45-4.49-.55-8.37-2.52-10.89-5.59-2.37-2.9-3.33-6.52-2.65-10.22-.15-.09-.36-.11-.54,.19"/><path d="M36.36,30.29c1.34-.17,2.85-.27,4.38-.34-3.82-7.57-12.02-13.83-15.72-24.94-.35-1.04-.66-1.38-1.11-1.38s-.77,.34-1.12,1.38c-4.46,13.39-15.44,19.74-17.46,29.8-2.11,10.55,6.26,20.19,18.57,20.19,2.22,0,4.31-.32,6.23-.89-.12-1.33-.19-2.76-.23-4.16-1.84,.67-3.87,1.05-6,1.05-4.96,0-9.38-1.93-12.14-5.29-2.35-2.87-3.25-6.46-2.52-10.11,.81-4.06,3.66-7.68,6.96-11.87,2.57-3.27,5.39-6.85,7.69-11.21,2.3,4.35,5.11,7.92,7.69,11.19,1.82,2.31,3.49,4.45,4.77,6.59"/><path d="M58.43,35.83c-.19-1.17-1.09-2.07-2.26-2.26-3.39-.56-9.04-.56-10.17-.56s-6.78,0-10.17,.56c-1.17,.2-2.07,1.09-2.26,2.26-.57,3.39-.57,9.04-.57,10.17s0,6.78,.57,10.17c.19,1.17,1.09,2.06,2.26,2.26,3.39,.57,9.04,.57,10.17,.57s6.78,0,10.17-.57c1.17-.2,2.07-1.09,2.26-2.26,.56-3.39,.56-9.04,.56-10.17,0-3.39,0-6.78-.56-10.17m-14.19,1.17l3.81-.31-.31,8.79v3.51h-3.51v-12Zm1.79,18.06c-1.32,0-2.07-.71-2.07-2.03,0-1.17,.7-2.09,2.05-2.09s2.07,.74,2.07,2.09c0,1.14-.7,2.03-2.05,2.03"/></g></g></svg>