<?xml version="1.0" encoding="UTF-8"?><svg id="Laag_1" xmlns="http://www.w3.org/2000/svg" xmlns:xlink="http://www.w3.org/1999/xlink" viewBox="0 0 64 64"><defs><style>.cls-1{fill:none;}.cls-2{clip-path:url(#clippath);}.cls-3{clip-path:url(#clippath-1);}</style><clipPath id="clippath"><rect class="cls-1" width="64" height="64"/></clipPath><clipPath id="clippath-1"><rect class="cls-1" width="64" height="64"/></clipPath></defs><g class="cls-2"><g class="cls-3"><path d="M20,23c-1.1,0-2,.9-2,2s.9,2,2,2,2-.9,2-2-.9-2-2-2"/><path d="M20,15c-1.1,0-2,.9-2,2s.9,2,2,2,2-.9,2-2-.9-2-2-2"/><path d="M27,20c-1.1,0-2,.9-2,2s.9,2,2,2,2-.9,2-2-.9-2-2-2"/><path d="M25,12c0-1.1-.9-2-2-2s-2,.9-2,2,.9,2,2,2,2-.9,2-2"/><path d="M25,29c-1.1,0-2,.9-2,2s.9,2,2,2,2-.9,2-2-.9-2-2-2"/><path d="M33.7,23.64c-.24,.05-2.38,.53-3.36,2.44-.92,1.79-.37,3.93-.3,4.17,.18,.66,.79,1.1,1.44,1.1,.13,0,.27-.02,.4-.06,.8-.22,1.26-1.05,1.04-1.85-.07-.24-.26-1.34,.08-2,.28-.54,1.03-.81,1.29-.87,.81-.17,1.34-.96,1.17-1.77-.17-.81-.95-1.33-1.77-1.17"/><path d="M17.03,23.28c.82-.11,1.39-.85,1.29-1.67-.1-.82-.85-1.4-1.67-1.3-.33,.04-1.39,.06-1.98-.35-.49-.35-.66-1.14-.68-1.4-.05-.83-.76-1.47-1.59-1.41-.83,.05-1.46,.76-1.41,1.59,.02,.24,.19,2.43,1.94,3.67,1.11,.78,2.46,.92,3.31,.92,.41,0,.7-.03,.78-.05"/><path d="M58.01,50.94l-16.82-15.67c-2.32,2.08-4.23,2.86-4.72,3.04-.28,.1-.45,.03-.5-.09,.32-.28,2.52-2.45,3.77-4.3,2.1-3.11,3.25-6.88,3.25-10.92,0-11.05-8.95-20-20-20S3,11.95,3,23s8.95,20,20,20c4.03,0,7.77-1.2,10.92-3.25l17.03,18.27c1.16,1.16,2.99,1.32,4.33,.35,1-.73,1.45-.84,3.1-3.1,.97-1.33,.81-3.16-.35-4.32m-35.01-12.69c-8.41,0-15.25-6.84-15.25-15.25S14.59,7.75,23,7.75s15.25,6.84,15.25,15.25-6.84,15.25-15.25,15.25"/><path d="M36.43,19.09c-.83,.25-1.43,1-1.43,1.91,0,1.1,.9,2,2,2,0-1.36-.2-2.67-.57-3.91"/><path d="M10,25c-.29,0-.56,.06-.81,.18,.21,1.33,.61,2.61,1.17,3.79,.94-.17,1.65-.98,1.65-1.97,0-1.1-.9-2-2-2"/><path d="M19.99,30.87c-.21-.12-2.16-1.14-4.14-.32-1.34,.55-2.21,1.74-2.63,2.44,.72,.71,1.52,1.33,2.38,1.87,.01-.02,.03-.04,.04-.06,.1-.23,.67-1.19,1.35-1.48,.56-.23,1.31,.05,1.55,.17,.72,.4,1.64,.14,2.04-.59,.4-.72,.14-1.64-.59-2.04"/><path d="M28.41,16.44c.15,.08,1.18,.6,2.46,.6,.53,0,1.11-.09,1.69-.34,.87-.37,1.52-1.01,2-1.6-.58-.85-1.27-1.63-2.02-2.33-.23,.38-.66,.96-1.16,1.17-.56,.24-1.32-.03-1.55-.15-.73-.39-1.64-.11-2.03,.62-.39,.73-.11,1.64,.62,2.03"/></g></g></svg>