<?xml version="1.0" encoding="UTF-8"?><svg id="Laag_1" xmlns="http://www.w3.org/2000/svg" viewBox="0 0 64 64"><defs><style>.cls-1{fill:none;}</style></defs><rect class="cls-1" width="64" height="64"/><g><path d="m50.74,32c0-5.21-3.14-9.69-7.63-11.66l-2.9,4.35c3.14.95,5.43,3.87,5.43,7.32s-2.29,6.37-5.43,7.32l2.9,4.35c4.49-1.97,7.63-6.46,7.63-11.66Z"/><path d="m48.1,12.85l-2.85,4.28c5.51,2.69,9.32,8.34,9.32,14.87s-3.81,12.18-9.32,14.87l2.85,4.28c6.87-3.64,11.56-10.86,11.56-19.15s-4.69-15.52-11.56-19.15Z"/><path d="m31.87,13.35l-12.87,8.65v8.99s-.25.11-.36-.22-2.42-8.77-2.42-8.77h-4.22c-6.17,0-8.01,4.7-8,10,0,5.3,1.84,10,8,10h7l12.87,8.65c1.33.91,3.13-.04,3.13-1.65V15c0-1.61-1.81-2.56-3.13-1.65Z"/></g></svg>