<?xml version="1.0" encoding="UTF-8"?><svg id="Laag_1" xmlns="http://www.w3.org/2000/svg" xmlns:xlink="http://www.w3.org/1999/xlink" viewBox="0 0 64 64"><defs><style>.cls-1{fill:none;}.cls-2{clip-path:url(#clippath);}.cls-3{clip-path:url(#clippath-1);}</style><clipPath id="clippath"><rect class="cls-1" width="64" height="64"/></clipPath><clipPath id="clippath-1"><rect class="cls-1" width="64" height="64"/></clipPath></defs><g class="cls-2"><g class="cls-3"><path d="M58,37l-1.43-13h.88c.31,0,.56-.25,.56-.56v-2.44h-8v2.44c0,.31,.25,.56,.56,.56h.87s-1.19,10.84-1.43,13h-.04c-2.21,0-4.32,.91-5.83,2.52l-6.05,6.44c1.54,.97,3.6,1.75,5.51,1.75,5.12,0,9.25-4.06,12.14-7.21,1.13,1.59,4.02,5.99,7.27,7.8v-11.31h-5Z"/><path d="M58,16.09c0-.19-.1-.37-.27-.47l-2.86-1.38c-.54-.33-1.21-.33-1.75,0l-2.86,1.38c-.16,.1-.26,.28-.26,.47v1.91h8v-1.91Z"/><path d="M55.51,44c-3.18,3.45-9.12,7.01-14.52,5.58-15.17-4-12.83-25.75,5.67-35.58-9.68-7.36-25.83-3.89-34.5,9.17-4.64,6.98-5,11.77-11.15,13.62v5.16c9.65-2.13,10.72-9.11,15.31-16.01,5.02-7.55,13.01-11.25,19.93-10.68-7.16,6.57-11.06,15.32-10.09,23.68,.89,7.69,5.96,13.47,13.55,15.48,5.33,1.41,10.68-.29,15.2-3.4,2.14,2.13,4.99,4.28,8.09,4.84v-5.15c-3.68-1.35-7.49-6.71-7.49-6.71"/></g></g></svg>