<?xml version="1.0" encoding="UTF-8"?><svg id="Laag_1" xmlns="http://www.w3.org/2000/svg" xmlns:xlink="http://www.w3.org/1999/xlink" viewBox="0 0 64 64"><defs><style>.cls-1{fill:none;}.cls-2{clip-path:url(#clippath);}.cls-3{clip-path:url(#clippath-1);}</style><clipPath id="clippath"><rect class="cls-1" width="64" height="64"/></clipPath><clipPath id="clippath-1"><rect class="cls-1" width="64" height="64"/></clipPath></defs><g class="cls-2"><g class="cls-3"><path d="M32,13c3.14,0,4.95-2.21,4.95-5.39,0-3.62-1.9-5.57-4.95-5.57-3.22,0-4.95,2.3-4.95,5.57,0,3.45,1.82,5.39,4.95,5.39"/><path d="M9.04,49c-3.25-.02-5.02,2.27-5.04,5.55-.03,3.46,1.8,5.42,4.96,5.45,3.17,.02,5.02-2.18,5.04-5.38,.03-3.64-1.88-5.6-4.96-5.62"/><path d="M21,42.62c.03-3.64-1.88-5.6-4.96-5.62-3.25-.02-5.02,2.27-5.04,5.55-.02,3.46,1.8,5.42,4.96,5.45,3.17,.02,5.01-2.18,5.04-5.38"/><path d="M53,42.62c.03-3.64-1.88-5.6-4.96-5.62-3.25-.02-5.02,2.27-5.04,5.55-.03,3.46,1.79,5.42,4.96,5.45,3.17,.02,5.02-2.18,5.04-5.38"/><path d="M54.04,49c-3.25-.02-5.02,2.27-5.04,5.55-.03,3.46,1.79,5.42,4.96,5.45,3.17,.02,5.02-2.18,5.04-5.38,.03-3.64-1.88-5.6-4.96-5.62"/><path d="M39.04,49c-3.25-.02-5.02,2.27-5.04,5.55-.03,3.46,1.79,5.42,4.96,5.45,3.17,.02,5.02-2.18,5.04-5.38,.03-3.64-1.88-5.6-4.96-5.62"/><path d="M24.04,49c-3.25-.02-5.02,2.27-5.04,5.55-.03,3.46,1.8,5.42,4.96,5.45,3.17,.02,5.02-2.18,5.04-5.38,.03-3.64-1.88-5.6-4.96-5.62"/><path d="M25.6,22.3c.12-.41,.4-.33,.4-.33v3.03h12v-3.03s.29-.11,.44,.33c.19,.57,.44,1.51,.56,2.7h4c-.44-5.19-1.75-9.45-5.6-10.4-3.26-.8-7.64-.8-10.81,0-3.84,.97-5.15,5.22-5.59,10.4h4c.13-1.15,.41-2.07,.6-2.7"/><path d="M25,46h14l1.79-12.45-6.53-1.18c-.32-.1-.27-.31-.25-.36h11.99v-4c0-.55-.45-1-1-1H19c-.55,0-1,.45-1,1v4h5l2,14Z"/></g></g></svg>