<?xml version="1.0" encoding="UTF-8"?><svg id="Laag_1" xmlns="http://www.w3.org/2000/svg" xmlns:xlink="http://www.w3.org/1999/xlink" viewBox="0 0 64 64"><defs><style>.cls-1{fill:none;}.cls-2{clip-path:url(#clippath);}.cls-3{clip-path:url(#clippath-1);}</style><clipPath id="clippath"><rect class="cls-1" width="64" height="64"/></clipPath><clipPath id="clippath-1"><rect class="cls-1" width="64" height="64"/></clipPath></defs><g class="cls-2"><g class="cls-3"><path d="M17.61,18.93c-3.76-.14-7.3-.5-8.98-.97,.4-1.96,2.19-7.42,2.63-8.17,.44-.22,3.71-.6,9.94-.6s9.49,.38,9.94,.6c.05,.09,.12,.24,.21,.45,1.02-.08,2.2-.14,3.53-.18-.54-1.16-1.09-2.08-1.48-2.5-1-1.04-4.51-1.56-12.19-1.56s-11.19,.52-12.18,1.56c-.74,.78-2.02,3.31-2.76,5.96-.95-.13-2.15-.24-2.72-.13-1.28,.25-1.5,1.57-1.16,2.34,.16,.37,.74,1.11,1.64,1.72-1.47,1.97-2.02,3.32-2.02,6.51v8.72s.12,2.55,.47,4.25c.13,.62,.82,1.06,1.48,1.06h4.9c.66,0,1.18-.69,1.36-1.3,.24-.78,.34-1.2,.41-2.7h5.37v-2.35c0-3.19,.51-5.01,1.56-6.78-.44-.48-.79-.98-.98-1.42-.47-1.07-.42-2.38,.13-3.42,.23-.43,.54-.79,.9-1.09m-5.15,8.24l-4.47-.36c-1.21-.1-1.95-1.06-2.17-2.12l-.18-1.28c-.11-.79,.7-1.46,1.5-1.24l3.62,1c.79,.3,1.38,.92,1.63,1.69l.5,1.84c.07,.24-.15,.49-.42,.46"/><path d="M61.77,59.5l-13.35-22.62c-.3-.5-.84-.81-1.42-.81h0c-.59,0-1.13,.32-1.42,.83l-13.12,22.62c-.3,.51-.3,1.14,0,1.66,.3,.51,.84,.83,1.43,.83h26.48c.59,0,1.14-.32,1.44-.84,.29-.52,.29-1.15-.01-1.66m-25.03-.81l10.26-17.69,10.44,17.69h-20.7Z"/><path d="M46.98,54.16c-.84,0-1.27,.6-1.27,1.37,0,.87,.47,1.34,1.29,1.34s1.27-.59,1.27-1.34c0-.89-.47-1.37-1.29-1.37"/><polygon points="46 53 48 52.95 48 50.98 48.23 46.03 46 46.23 46 53"/><path d="M40.87,39h-7.87v-2h9.03l.93-1.61c.83-1.42,2.36-2.31,4.02-2.32h0c.5,0,.99,.09,1.46,.25l.18-.69c.28-.84,.93-1.52,1.79-1.85l3.96-1.1c.88-.24,1.76,.49,1.64,1.36l-.2,1.4c-.24,1.16-1.05,2.21-2.38,2.32l-2.7,.22c.09,.12,.18,.25,.26,.38l6.87,11.64c.72,0,1.47-.48,1.61-1.16,.39-1.86,.52-4.65,.52-4.65v-9.54c0-3.49-.6-4.96-2.21-7.12,.99-.68,1.68-1.49,1.86-1.89,.37-.84,.09-2.28-1.31-2.56-.62-.12-1.95,0-2.99,.14-.8-2.89-2.21-5.67-3.02-6.52-1.09-1.14-4.93-1.71-13.33-1.71s-12.23,.57-13.33,1.71c-.82,.85-2.21,3.62-3.01,6.52-1.04-.15-2.35-.26-2.98-.14-1.4,.27-1.64,1.72-1.27,2.56,.18,.4,.81,1.21,1.79,1.89-1.61,2.16-2.21,3.63-2.21,7.12v9.54s.13,2.79,.52,4.65c.14,.68,.9,1.16,1.62,1.16h5.86c.72,0,1.35-.74,1.49-1.42,.22-1.04,.32-1.69,.44-3.58h11.19l1.74-3Zm-12.74-22.58c.49-.24,4.06-.66,10.87-.66s10.38,.41,10.87,.66c.48,.82,2.44,6.54,2.88,8.69-2.42,.67-8.36,1.13-13.75,1.13s-11.33-.46-13.75-1.13c.44-2.15,2.39-7.87,2.88-8.69m1.32,18.73l-4.89-.39c-1.32-.1-2.13-1.16-2.38-2.32l-.2-1.4c-.12-.87,.76-1.6,1.64-1.36l3.95,1.1c.86,.33,1.51,1,1.79,1.85l.54,2.01c.07,.27-.17,.53-.46,.51"/></g></g></svg>