<?xml version="1.0" encoding="UTF-8"?><svg id="Laag_1" xmlns="http://www.w3.org/2000/svg" xmlns:xlink="http://www.w3.org/1999/xlink" viewBox="0 0 64 64"><defs><style>.cls-1{fill:none;}.cls-2{clip-path:url(#clippath);}.cls-3{clip-path:url(#clippath-1);}</style><clipPath id="clippath"><rect class="cls-1" width="64" height="64"/></clipPath><clipPath id="clippath-1"><rect class="cls-1" width="64" height="64"/></clipPath></defs><g class="cls-2"><g class="cls-3"><path d="M54.29,32.71s1.96-1.38,1.88-3.71c-.1-2.89-2.78-3.85-2.84-3.92,0,0,1.84-1.24,1.59-3.45-.25-2.17-1.89-3.42-2.9-3.91,1.07-1.74,.32-4.68-3.01-5.78-3.55-1.18-9.3-.79-12.26-.75-11.42,.16-9.34,4.82-15.17,4.82h-3.58v-4c0-.55-.45-1-1-1H7v26h10c.96,0,1-1.02,1-1.02v-11.68c.09-.03,.56-.13,.65,.42,.07,.42,.91,7.68,1.35,11.49,2.95,.49,6.04,1.76,8.39,4.61,3.28,3.98,5.77,10.19,6.9,15.44,.45,2.11,1.43,2.91,2.76,2.7,1.37-.22,2.8-2.02,2.74-5.58-.08-4.3-.49-6.35-2.15-11.05-.23-.65,.25-1.34,.94-1.34h12.67c2.58,0,4.75-1.75,4.57-4.26-.15-2.07-1.24-3.07-2.53-4.03"/></g></g></svg>