<?xml version="1.0" encoding="UTF-8"?><svg id="Laag_1" xmlns="http://www.w3.org/2000/svg" xmlns:xlink="http://www.w3.org/1999/xlink" viewBox="0 0 64 64"><defs><style>.cls-1{fill:none;}.cls-2{clip-path:url(#clippath);}.cls-3{clip-path:url(#clippath-1);}</style><clipPath id="clippath"><rect class="cls-1" width="64" height="64"/></clipPath><clipPath id="clippath-1"><rect class="cls-1" width="64" height="64"/></clipPath></defs><g class="cls-2"><g class="cls-3"><path d="M61.22,30.21L32.81,3.32c-.46-.43-1.17-.43-1.63,0L2.78,30.21c-.49,.46-.78,1.11-.78,1.78v1.8c0,.67,.54,1.21,1.2,1.21h4.8v25H56v-25h4.8c.66,0,1.2-.54,1.2-1.21v-1.8c0-.68-.28-1.33-.78-1.78m-13.22,4.79h-9v10h-10v10h-13v-4h9v-10h10v-10h13v4Z"/></g></g></svg>