<?xml version="1.0" encoding="UTF-8"?><svg id="Laag_1" xmlns="http://www.w3.org/2000/svg" viewBox="0 0 64 64"><defs><style>.cls-1{fill:none;}</style></defs><rect class="cls-1" width="64" height="64"/><path d="m26.17,41.95v3.63h-10.86c-.8,0-1.45-.65-1.45-1.45V10.78c0-.8.65-1.45,1.45-1.45h15.35c.38,0,.75.15,1.02.42l10.76,10.75c.27.27.42.64.42,1.03v7.9h-3.63v-6.84l2.28-.68c.24-.08.15-.26.15-.26h-10.41s0,0,0,0c-.4,0-.72-.33-.72-.73v-10.41s-.18-.08-.26.17l-.68,2.27h-12.11v28.99h8.69Zm-5.79-15.94h15.95v-2.17h-15.95v2.17Zm0,4.35h15.95v-2.17h-15.95v2.17Zm0,2.17v2.17h6.72c.42-.77.9-1.5,1.46-2.17h-8.18Z"/><path d="m32.78,54.16h14.35c1.44,0,2.61-1.17,2.61-2.61v-15.66c0-1.44-1.17-2.61-2.61-2.61h-14.35c-1.44,0-2.61,1.17-2.61,2.61h0v15.66c0,1.44,1.17,2.61,2.61,2.61m0-16.96c0-.36.29-.65.65-.65h13.05c.36,0,.65.29.65.65h0v3.26c0,.36-.29.65-.65.65h-13.05c-.36,0-.65-.29-.65-.65h0s0-3.26,0-3.26Zm8.49,7.83c0,.72-.59,1.31-1.31,1.31s-1.31-.59-1.31-1.31.59-1.31,1.31-1.31,1.31.59,1.31,1.31Zm5.22,0c0,.72-.59,1.31-1.31,1.31s-1.31-.59-1.31-1.31.59-1.31,1.31-1.31,1.31.59,1.31,1.31Zm-10.44,0c0,.72-.59,1.31-1.31,1.31s-1.31-.59-1.31-1.31.59-1.31,1.31-1.31,1.31.59,1.31,1.31Zm5.22,4.57c0,.72-.59,1.31-1.31,1.31s-1.31-.59-1.31-1.31.59-1.31,1.31-1.31,1.31.59,1.31,1.31Zm5.22,0c0,.72-.59,1.31-1.31,1.31s-1.31-.59-1.31-1.31.59-1.31,1.31-1.31,1.31.59,1.31,1.31Zm-10.44,0c0,.72-.59,1.31-1.31,1.31s-1.31-.59-1.31-1.31.59-1.31,1.31-1.31,1.31.59,1.31,1.31Z"/></svg>