<?xml version="1.0" encoding="UTF-8"?><svg id="Laag_1" xmlns="http://www.w3.org/2000/svg" xmlns:xlink="http://www.w3.org/1999/xlink" viewBox="0 0 64 64"><defs><style>.cls-1{fill:none;}.cls-2{clip-path:url(#clippath);}.cls-3{clip-path:url(#clippath-1);}</style><clipPath id="clippath"><rect class="cls-1" width="64" height="64"/></clipPath><clipPath id="clippath-1"><rect class="cls-1" width="64" height="64"/></clipPath></defs><g class="cls-2"><g class="cls-3"><path d="M62.97,41.01c-.3-1.43-2.58-2.16-5.08-1.63-1.79,.38-3.19,1.3-3.75,2.32l-31.55,6.71c-.92-.7-2.58-.97-4.37-.59-2.5,.53-4.29,2.12-3.98,3.55,.3,1.43,2.58,2.16,5.08,1.63,1.79-.38,3.19-1.3,3.75-2.32l31.55-6.71c.92,.7,2.58,.98,4.37,.59,2.5-.53,4.29-2.12,3.98-3.56"/><path d="M42.72,34.18c2.28-1.17,3.58-3.17,2.92-4.47-.67-1.3-3.06-1.41-5.33-.24-1.63,.83-2.74,2.09-3.01,3.22l-28.7,14.72c-1.07-.44-2.74-.27-4.37,.57-2.28,1.17-3.58,3.17-2.91,4.47,.67,1.3,3.06,1.41,5.33,.24,1.63-.83,2.74-2.09,3.01-3.22l28.7-14.72c1.07,.44,2.74,.27,4.37-.57"/><path d="M10.09,26.16c1.81-.25,3.28-1.07,3.91-2.04l11.23-1.55,2.76-2.72-14.31,1.98c-.87-.77-2.5-1.16-4.32-.91-2.53,.35-4.43,1.81-4.23,3.26s2.42,2.34,4.95,1.99"/><path d="M45.64,17.4l-8,1.11-2.76,2.72,11.08-1.53c.87,.77,2.5,1.16,4.32,.91,2.54-.35,4.43-1.81,4.23-3.26-.2-1.45-2.42-2.34-4.95-1.99-1.81,.25-3.28,1.07-3.91,2.04"/><path d="M13.61,34.37c-1.82,1.8-2.47,4.1-1.44,5.14,1.03,1.04,3.34,.43,5.16-1.37,1.3-1.28,1.99-2.82,1.91-3.97L42.22,11.53c1.15,.1,2.7-.57,4-1.85,1.82-1.8,2.47-4.1,1.44-5.14-1.03-1.04-3.34-.43-5.16,1.37-1.3,1.28-1.99,2.82-1.91,3.97l-9.7,9.55-2.76,2.72-10.52,10.36c-1.15-.1-2.7,.57-4,1.85"/></g></g></svg>