<?xml version="1.0" encoding="UTF-8"?><svg id="Laag_1" xmlns="http://www.w3.org/2000/svg" xmlns:xlink="http://www.w3.org/1999/xlink" viewBox="0 0 64 64"><defs><style>.cls-1{fill:none;}.cls-2{clip-path:url(#clippath);}.cls-3{clip-path:url(#clippath-1);}</style><clipPath id="clippath"><rect class="cls-1" width="64" height="64"/></clipPath><clipPath id="clippath-1"><rect class="cls-1" width="64" height="64"/></clipPath></defs><g class="cls-2"><g class="cls-3"><path d="M52.54,32.06l-6.95-5.91c-.91-.77-2.13,.42-1.49,1.45l2.03,3.26c-.36,.08-.73,.14-1.08,.14-2.46,0-4.92-1.94-6-2.75-1,.75-3.49,2.75-6,2.75s-4.92-1.94-6-2.75c-1,.75-3.49,2.75-6,2.75s-4.92-1.94-6-2.75c-1,.75-3.49,2.75-6,2.75-1.02,0-2.12-.39-3.04-.83v4.22c.94,.3,1.98,.52,3.04,.52,2.4,0,4.66-1.08,6-1.86,1.34,.79,3.6,1.86,6,1.86s4.66-1.08,6-1.86c1.34,.79,3.6,1.86,6,1.86s4.66-1.08,6-1.86c1.34,.79,3.6,1.86,6,1.86,.37,0,.74-.03,1.11-.08v.08l-2.06,3.31c-.64,1.03,.59,2.22,1.49,1.45l6.95-5.91c.51-.44,.51-1.26,0-1.7"/><path d="M39,11V4H6V23H27c6.63,0,12-5.37,12-12"/><path d="M27,41H6v19H39v-7c0-6.63-5.37-12-12-12"/></g></g></svg>