<?xml version="1.0" encoding="UTF-8"?><svg id="Laag_1" xmlns="http://www.w3.org/2000/svg" xmlns:xlink="http://www.w3.org/1999/xlink" viewBox="0 0 64 64"><defs><style>.cls-1{fill:none;}.cls-2{clip-path:url(#clippath);}.cls-3{clip-path:url(#clippath-1);}</style><clipPath id="clippath"><rect class="cls-1" width="64" height="64"/></clipPath><clipPath id="clippath-1"><rect class="cls-1" width="64" height="64"/></clipPath></defs><g class="cls-2"><g class="cls-3"><path d="M39.62,28.69c-2.82,1.5-4.79,1.36-5.23,1.31-.33-.04-.38-.14-.39-.2,1.97-.45,4.46-1.66,6.25-4.18,1.1-1.6,1.75-3.53,1.75-5.61V8c2.21,0,4-1.79,4-4H18.07c0,2.21,1.72,4,3.93,4v12c0,3.48,1.79,6.54,4.5,8.34-3.86,.5-6.49,1.5-6.49,2.66,0,1.66,5.36,3,11.99,3s12-1.34,12-3c0-.93-1.71-1.76-4.38-2.31m-13.62-8.39V8h4v12c0,1.1,.9,2,2,2s2-.9,2-2V8h4v12.3c0,3.31-2.69,5.7-6,5.7s-6-2.39-6-5.7"/><path d="M38.55,41.1c-.74-1.04-1.51-2.12-2.22-3.3-.11-.19-.35-.58-.7-.43-.35,.15-.23,.59-.17,.8,.37,1.33,.63,2.63,.88,3.89,.29,1.45,.57,2.83,.97,4,.44,1.28,1.02,2.09,1.73,2.4,.22,.1,.44,.15,.67,.15s.47-.05,.7-.15c.46-.2,.79-.54,.96-1,.26-.73,.07-1.71-.55-2.9-.58-1.11-1.4-2.25-2.25-3.46"/><path d="M49.71,43.17c.92,.97,1.78,1.45,2.55,1.45h.03c.48,0,.91-.21,1.25-.58,.34-.38,.49-.83,.45-1.31-.07-.77-.65-1.58-1.72-2.4-1-.76-2.21-1.46-3.5-2.19-1.11-.63-2.26-1.29-3.41-2.06-.18-.12-.56-.38-.82-.09-.26,.29,.04,.64,.18,.8,.9,1.06,1.68,2.12,2.44,3.16,.88,1.19,1.7,2.32,2.56,3.22"/><path d="M53.15,51.81c-.83-.94-1.89-1.85-3.02-2.82-.97-.83-1.97-1.7-2.95-2.68-.17-.17-.48-.47-.78-.25-.31,.23-.09,.63,.02,.82,.68,1.21,1.24,2.41,1.79,3.56,.63,1.34,1.23,2.61,1.9,3.65,.73,1.14,1.49,1.78,2.25,1.92,.1,.02,.2,.03,.3,.03,.37,0,.72-.12,1.04-.36,.4-.3,.64-.72,.69-1.2,.08-.77-.34-1.68-1.23-2.69"/><path d="M33.2,52.28c-.27-1.25-.55-2.54-.74-3.92-.03-.22-.09-.67-.48-.67s-.45,.45-.48,.67c-.19,1.37-.46,2.67-.72,3.92-.31,1.45-.6,2.82-.69,4.07-.1,1.35,.12,2.32,.65,2.88,.33,.35,.76,.53,1.26,.53h.01c.5,0,.94-.19,1.26-.54,.53-.57,.74-1.55,.63-2.89-.1-1.24-.39-2.61-.7-4.06"/><path d="M28.44,37.37c-.35-.15-.59,.24-.7,.43-.72,1.18-1.48,2.26-2.22,3.3-.86,1.21-1.67,2.35-2.26,3.46-.63,1.2-.81,2.17-.55,2.91,.16,.45,.49,.8,.95,1,.23,.1,.47,.15,.7,.15s.46-.05,.67-.14c.71-.32,1.29-1.12,1.73-2.4,.4-1.18,.68-2.55,.97-4,.25-1.25,.51-2.55,.88-3.89,.06-.21,.18-.65-.17-.8"/><path d="M18.72,36.08c-1.15,.77-2.3,1.43-3.41,2.06-1.29,.74-2.5,1.43-3.5,2.19-1.07,.82-1.65,1.63-1.72,2.4-.05,.48,.11,.93,.45,1.31,.34,.37,.77,.57,1.25,.58h.03c.77,0,1.63-.49,2.55-1.45,.86-.9,1.69-2.03,2.56-3.22,.76-1.03,1.54-2.1,2.44-3.16,.14-.17,.44-.52,.18-.8-.26-.28-.63-.03-.82,.09"/><path d="M16.89,46.31c-.98,.98-1.98,1.84-2.95,2.68-1.12,.97-2.18,1.88-3.02,2.82-.9,1.01-1.31,1.91-1.23,2.69,.05,.48,.29,.89,.69,1.2,.32,.24,.67,.36,1.03,.36,.1,0,.2,0,.3-.03,.76-.14,1.52-.78,2.25-1.92,.67-1.05,1.27-2.31,1.9-3.65,.55-1.16,1.11-2.36,1.79-3.56,.11-.19,.33-.59,.02-.82-.31-.23-.62,.08-.78,.25"/></g></g></svg>