<?xml version="1.0" encoding="UTF-8"?><svg id="Laag_1" xmlns="http://www.w3.org/2000/svg" xmlns:xlink="http://www.w3.org/1999/xlink" viewBox="0 0 64 64"><defs><style>.cls-1{fill:none;}.cls-2{clip-path:url(#clippath);}.cls-3{clip-path:url(#clippath-1);}</style><clipPath id="clippath"><rect class="cls-1" width="64" height="64"/></clipPath><clipPath id="clippath-1"><rect class="cls-1" width="64" height="64"/></clipPath></defs><g class="cls-2"><g class="cls-3"><path d="M33.99,14.65c2.54,1.95,2.03,2.24,2.1,4.89,.04,1.26,.36,2.42,1.43,3.33,.59,.5,1.54,.96,2.67,1.02,.43,.02,.46-.55,.16-.76h0c-.92-.56-1.5-1.07-1.87-1.52-1.22-1.54,.05-2.32-.86-4.91-.55-1.57-1.73-2.49-3.41-2.82-.36-.07-.64,.46-.24,.77h0Z"/><path d="M50,56h-2V7.83c0-1.15-.71-2.19-1.8-2.58-2.45-.89-7.33-2.26-14.2-2.26s-11.76,1.37-14.2,2.26c-1.08,.39-1.8,1.43-1.8,2.58V56h-2c-.55,0-1,.45-1,1v4H51v-4c0-.55-.45-1-1-1M33.45,11.47c4.24-2.02,7.93,.85,9.7,4.58,1.78,3.73,1.67,8.4-2.57,10.42-4.24,2.01-7.93-.85-9.7-4.58-1.77-3.73-1.67-8.4,2.57-10.42m-11.45,4.53c1.1,0,2,.9,2,2s-.9,2-2,2-2-.9-2-2,.9-2,2-2m0,7c1.1,0,2,.9,2,2s-.9,2-2,2-2-.9-2-2,.9-2,2-2m0,7c1.1,0,2,.9,2,2s-.9,2-2,2-2-.9-2-2,.9-2,2-2m14,26l1.85-12h.15c.55,0,1-.45,1-1s-.45-1-1-1h-12c-.55,0-1,.45-1,1s.45,1,1,1h.15l1.85,12h-7v-17h22v17h-7Z"/></g></g></svg>