<?xml version="1.0" encoding="UTF-8"?><svg id="Laag_1" xmlns="http://www.w3.org/2000/svg" xmlns:xlink="http://www.w3.org/1999/xlink" viewBox="0 0 64 64"><defs><style>.cls-1{fill:none;}.cls-2{clip-path:url(#clippath);}.cls-3{clip-path:url(#clippath-1);}</style><clipPath id="clippath"><rect class="cls-1" width="64" height="64"/></clipPath><clipPath id="clippath-1"><rect class="cls-1" width="64" height="64"/></clipPath></defs><g class="cls-2"><g class="cls-3"><path d="M47.56,9.77c-3.94-2.26-8.37-1.25-8.37-1.25,0,0-4.26-4.61-11.71-3.27C15.32,7.45,6,19.3,6,34.74c0,5.02,.75,8.86,2.49,15.61,.06,.23,.2,.45,.39,.59,3.49,2.54,7.94,3.11,12.31,2.74,3.03,3.32,6.82,5.29,10.89,5.29s7.82-1.95,10.84-5.23c4.66,.29,9.25-.51,12.23-2.84,.18-.14,.3-.34,.36-.56,1.74-6.76,2.49-10.58,2.49-15.6,0-10.26-4.26-21.42-10.44-24.96m-29.73,26.92c-.09-.98-.16-1.93-.21-2.85,6.21-1.83,17.58-7.34,21.4-15.21,.11,0,.26,.09,.22,.41-.15,1.12-.63,3.27-2.07,6.1,2.53,3.42,6.2,5.5,9.45,6.76-.03,1.5-.12,3.09-.28,4.79-.97,10.45-7.24,18.46-14.26,18.46s-13.28-8.01-14.26-18.46"/></g></g></svg>