<?xml version="1.0" encoding="UTF-8"?><svg id="Laag_1" xmlns="http://www.w3.org/2000/svg" xmlns:xlink="http://www.w3.org/1999/xlink" viewBox="0 0 64 64"><defs><style>.cls-1{fill:none;}.cls-2{clip-path:url(#clippath);}.cls-3{clip-path:url(#clippath-1);}</style><clipPath id="clippath"><rect class="cls-1" width="64" height="64"/></clipPath><clipPath id="clippath-1"><rect class="cls-1" width="64" height="64"/></clipPath></defs><g class="cls-2"><g class="cls-3"><path d="M45,39c-4.97,0-9,4.03-9,9s4.03,9,9,9,9-4.03,9-9-4.03-9-9-9"/><path d="M59,37h-2v-13c0-.55-.45-1-1-1h-5.81l2.95-12.62c.28-1.22-.64-2.38-1.89-2.38h-9.97c-1.25,0-2.17,1.17-1.89,2.38l2.95,12.62h-9.81c-.74,4.18-2.1,11.83-2.16,12.07-.09,.33-.36,.25-.36,.25V12c0-.55-.45-1-1-1H4c-.55,0-1,.45-1,1v3c0,.55,.45,1,1,1h3v23.39c1.91-1.56,4.34-2.49,7-2.49,6.13,0,11.1,4.97,11.1,11.1,0,.34-.02,.67-.05,1h8.9c-.03-.33-.05-.66-.05-1,0-6.13,4.97-11.1,11.1-11.1s11.1,4.97,11.1,11.1c0,.34-.02,.67-.05,1h2.95c.55,0,1-.45,1-1v-10c0-.55-.45-1-1-1M18.5,28.5c-2.76,0-5-2.24-5-5s2.24-5,5-5,5,2.24,5,5-2.24,5-5,5"/><path d="M14,39c-4.97,0-9,4.03-9,9s4.03,9,9,9,9-4.03,9-9-4.03-9-9-9"/></g></g></svg>