<?xml version="1.0" encoding="UTF-8"?>
<svg id="Zwart" xmlns="http://www.w3.org/2000/svg" viewBox="0 0 64 64">
  <rect x="24" y="45" width="3" height="1"/>
  <rect x="24" y="47" width="3" height="1"/>
  <rect x="24" y="49" width="3" height="1"/>
  <path d="M16,58h26v-9.76c0-1.9,1.6-3.5,3.5-3.5s3.5,1.6,3.5,3.5v9.76h7v-17.99H16v17.99ZM29,44h5v9h-5v-9ZM23,44h5v9h-5v-9Z"/>
  <rect x="30" y="45" width="3" height="1"/>
  <rect x="30" y="47" width="3" height="1"/>
  <rect x="30" y="49" width="3" height="1"/>
  <rect x="24" y="51" width="3" height="1"/>
  <rect x="30" y="51" width="3" height="1"/>
  <path d="M14.41,18.2c.36,2.56,1.28,7.09,2.76,11.91l4.19-3.02c-2.49-6.06-3.31-9.89-3.32-9.99,2.3-.55,6.55.45,9.08,5.52,0,0,.59.03.64-.74.62-9.96-6.38-10.81-9.56-10.38,1.92-2.03,5.73-2.25,8.35,0,0,0,.41-.26.15-1.1-3.28-10.59-11.73-4.48-12.45-.75-3.69-2.84-6.44-2.21-8.94-.6-2.87,1.85-4.59,7.25-3.5,11.6.15.6.55.75.55.75,1.37-4.85,4.03-7.6,8.05-7.67-5.7,3.96-4.85,13.06-1.47,16.23.38.35.72.21.72.21,0,0-1.24-9.17,4.77-11.96Z"/>
  <polygon points="44 25 28 25 10 38 62 38 44 25"/>
</svg>