<?xml version="1.0" encoding="UTF-8"?><svg id="Laag_1" xmlns="http://www.w3.org/2000/svg" xmlns:xlink="http://www.w3.org/1999/xlink" viewBox="0 0 64 64"><defs><style>.cls-1{fill:none;}.cls-2{clip-path:url(#clippath);}.cls-3{clip-path:url(#clippath-1);}</style><clipPath id="clippath"><rect class="cls-1" width="64" height="64"/></clipPath><clipPath id="clippath-1"><rect class="cls-1" width="64" height="64"/></clipPath></defs><g class="cls-2"><g class="cls-3"><path d="M35.99,12.9c1.24-1.26,2-2.99,2-4.9,0-3.87-3.13-7-7-7-3.17,0-5.85,2.11-6.71,5h4.71c3.83,0,6.94,3.09,6.99,6.9m8,8.1h-10V13c0-2.76-2.24-5-5-5h-9c-1.1,0-2,.89-2,2V59c0,1.66,1.34,3,3,3h22c1.66,0,3-1.34,3-3V23c0-1.11-.89-2-2-2m-5.12,24.71c-.62,3.25-2.92,4.87-5.47,5.2,.62-.9,1.22-2.47,1.22-4.02,0-3.25-2.62-5.89-2.62-5.89,0,0-2.62,2.64-2.62,5.89,0,1.54,.59,3.11,1.22,4.02-2.55-.33-4.84-1.94-5.47-5.2-1.02-5.3,4.48-12.66,6.88-14.71,2.39,2.05,7.89,9.41,6.88,14.71m5.97-32.1l-8.85,1.36v3.72l9.15-1.41c.49-.08,.85-.49,.85-.99v-1.69c0-.61-.55-1.08-1.15-.99"/></g></g></svg>