<?xml version="1.0" encoding="UTF-8"?><svg id="Laag_1" xmlns="http://www.w3.org/2000/svg" xmlns:xlink="http://www.w3.org/1999/xlink" viewBox="0 0 64 64"><defs><style>.cls-1{fill:none;}.cls-2{clip-path:url(#clippath);}.cls-3{clip-path:url(#clippath-1);}</style><clipPath id="clippath"><rect class="cls-1" width="64" height="64"/></clipPath><clipPath id="clippath-1"><rect class="cls-1" width="64" height="64"/></clipPath></defs><g class="cls-2"><polygon points="48.28 38.56 47.62 36.11 50 34.14 46.35 35.28 46.52 38.09 42.53 39.45 40.66 38.31 41.88 41.04 39.99 43.35 36.73 44.66 40.6 44.79 41.91 43.15 43.23 45 43.21 41.31 48.28 38.56"/><g class="cls-3"><path d="M42.01,55c1.81-1.28,4.49-4.2,8.51-9.39,5.5-7.11,7.52-10.72,7.26-12.38-.2-1.24-3.31-5.46-5.27-8.01,.8-.78,1.67-1.7,1.97-2.3,.68-1.36-.4-2.5-1.36-2.73-.46-.11-1.56-.11-2.78,.28-.8-2.75-2.1-4.37-5.1-6.62-3.87-2.92-8.18-6.17-8.18-6.17,0,0-2.39-1.8-4.24-2.67-.67-.32-1.5-.1-1.97,.51l-3.51,4.54c-.47,.61-.47,1.45,.02,2.01,.69,.78,2.1,1.98,2.95,2.69l3.87-3.31c.24-.16,.43-.11,.51,.03-22.68,29.3-11.69,15.1-21.71,28.05-.07-.02-.29-.12-.16-.48l2.22-4.56c-.87-.6-2.4-1.62-3.41-2.09-.67-.32-1.5-.1-1.97,.51l-3.51,4.54c-.47,.61-.47,1.45,.02,2.01,1.34,1.53,3.73,3.33,3.73,3.33,0,0,4.31,3.25,8.18,6.16,2.99,2.26,4.91,3.07,7.82,3.11-.06,1.27,.22,2.32,.45,2.72,.04,.07,.1,.15,.15,.22H5v3H59v-3h-16.99Zm-7.09-33.94l3.53-3.88c.96-1.05,2.39-1.06,3.55-.51l1.33,.73c.82,.45,.87,1.68,.09,2.26l-3.53,2.64c-.85,.51-1.85,.63-2.75,.32l-2.08-.84c-.28-.11-.35-.49-.13-.72m-9.99,20.57l-1.65,4.06c-.36,.9-1.58,1.18-2.24,.51l-1.07-1.07c-.83-.95-1.21-2.32-.43-3.51l2.86-4.39c.17-.26,.56-.3,.74-.06l1.37,1.76c.54,.78,.69,1.76,.41,2.7m-.93-9.05l-1.78-1.34,6.79-8.77,1.78,1.34-6.79,8.77Zm5.71,22.43c.45-.53,.96-1.36,1.4-2.13,1.65,.65,3.9,1.51,5.79,2.13h-7.18Zm10.31-2.73c-1.02-.12-6.58-2.25-8.71-3.26,1.01-2.49,4.23-7.45,7.76-12.01,3.53-4.56,7.54-8.93,9.7-10.55,1.55,1.76,5.1,6.49,5.48,7.43-.11,.57-2.1,3.86-6.56,9.62-4.46,5.76-7.16,8.52-7.68,8.77"/></g></g></svg>