<?xml version="1.0" encoding="UTF-8"?><svg id="Laag_1" xmlns="http://www.w3.org/2000/svg" xmlns:xlink="http://www.w3.org/1999/xlink" viewBox="0 0 64 64"><defs><style>.cls-1{fill:none;}.cls-2{clip-path:url(#clippath);}.cls-3{clip-path:url(#clippath-1);}</style><clipPath id="clippath"><rect class="cls-1" width="64" height="64"/></clipPath><clipPath id="clippath-1"><rect class="cls-1" width="64" height="64"/></clipPath></defs><g class="cls-2"><g class="cls-3"><path d="M61.93,43.96l-4.06-22.03c-.29-1.55-1.44-2.71-2.87-3.1v2.16s.06,.02,.08,.04c.43,.3,.72,.75,.82,1.26l4.06,22.03c.1,.52-.02,1.04-.31,1.47-.3,.43-.75,.72-1.26,.82l-43.3,7.99c-1.08,.2-2.13-.52-2.33-1.61l-2.36-12.8h-2.03l2.43,13.16c.36,1.93,2.04,3.28,3.93,3.28,.24,0,.48-.02,.73-.07l43.3-7.98c1.04-.19,1.95-.78,2.55-1.65,.6-.87,.83-1.93,.64-2.97"/><rect x="15.03" y="43.45" width="18" height="2" transform="translate(-7.66 5.09) rotate(-10.45)"/><rect x="15.81" y="47.93" width="12" height="2" transform="translate(-8.51 4.77) rotate(-10.45)"/><path d="M14,35h1v3H50.03c1.64,0,2.97-1.33,2.97-2.97V12.97c0-1.64-1.33-2.97-2.97-2.97H15v3h-1v-3H6c-1.66,0-3,1.34-3,3v22c0,1.66,1.34,3,3,3H14v-3Zm9.15-11.15c1.71-1.51,6.33-1.62,6.33-1.62l6.76-7.94c.2-.24,.53-.34,.83-.24l.51,.32c.37,.15,.56,.57,.43,.95l-3.21,7.18,6.07,.49,1.52-2.01c.18-.22,.47-.32,.75-.25l.27,.06c.46,.1,.71,.59,.54,1.02l-.8,2.69,.8,2.69c.17,.43-.08,.92-.54,1.02l-.27,.06c-.28,.06-.56-.04-.75-.25l-1.52-2.01-6.07,.49,3.21,7.18c.13,.38-.06,.79-.43,.95l-.51,.32c-.3,.1-.63,0-.83-.24l-6.76-7.94s-4.62-.12-6.33-1.62c-.39-.34-.39-.96,0-1.3M14,15h1v3h-1v-3Zm0,5h1v3h-1v-3Zm0,5h1v3h-1v-3Zm0,5h1v3h-1v-3Z"/></g></g></svg>