<?xml version="1.0" encoding="UTF-8"?><svg id="Laag_1" xmlns="http://www.w3.org/2000/svg" xmlns:xlink="http://www.w3.org/1999/xlink" viewBox="0 0 64 64"><defs><style>.cls-1{fill:none;}.cls-2{clip-path:url(#clippath);}.cls-3{clip-path:url(#clippath-1);}</style><clipPath id="clippath"><rect class="cls-1" width="64" height="64"/></clipPath><clipPath id="clippath-1"><rect class="cls-1" width="64" height="64"/></clipPath></defs><g class="cls-2"><g class="cls-3"><path d="M8.5,16.8c2.2,0,3.5-1.6,3.5-3.8,0-2.6-1.3-4-3.5-4s-3.5,1.6-3.5,4,1.3,3.8,3.5,3.8"/><path d="M12.5,18.6c-2.4-.6-5.7-.6-8,0C-.1,19.7,.1,27.4,.1,33.7c.2,2.2,1.8,2.8,2.8,2.8v-5.8c0-2.7,.5-5.6,.8-6.6,.1-.3,.3-.2,.3-.2v30.1s3.3,0,3.6-3.7c0,0,.5-14,.5-14.1,0-.2,.1-.4,.4-.4s.4,.2,.4,.4,.5,14,.5,14c.2,3.8,3.6,3.8,3.6,3.8V23.8s.2-.1,.3,.2c.3,.9,.8,3.8,.8,6.5v5.9c1,0,2.6-.6,2.8-2.8,0-6.2,.3-13.9-4.4-15"/><path d="M55.5,16.8c2.2,0,3.5-1.6,3.5-3.8,0-2.6-1.3-4-3.5-4s-3.5,1.6-3.5,4,1.3,3.8,3.5,3.8"/><path d="M59.5,18.6c-2.4-.6-5.7-.6-8,0-4.6,1.1-4.4,8.8-4.4,15.1,.2,2.2,1.8,2.8,2.8,2.8v-5.8c0-2.7,.5-5.6,.8-6.6,.1-.3,.3-.2,.3-.2v30.1s3.3,0,3.6-3.7c0,0,.5-14,.5-14.1,0-.2,.1-.4,.4-.4s.4,.2,.4,.4,.5,14,.5,14c.2,3.8,3.6,3.8,3.6,3.8V23.8s.2-.1,.3,.2c.3,.9,.8,3.8,.8,6.5v5.9c1,0,2.6-.6,2.8-2.8,0-6.2,.3-13.9-4.4-15"/><path d="M24.65,26.9c.2-.2,.2-.7-.1-.9-.2-.3-.6-.3-.9-.1l-4.9,4c-.4,.3-.4,.9,0,1.2l5,4c.2,.2,.7,.1,.9-.1,.1-.1,.2-.3,.2-.5,0-.1,0-.3-.2-.5l-1.4-2.1h3.75v-2.9h-3.75l1.4-2.1Z"/><polygon points="31.45 29 29 29 29 31.9 31.45 31.9 32.55 31.9 35 31.9 35 29 32.55 29 31.45 29"/><path d="M40.35,25.9c-.3-.2-.7-.2-.9,.1-.3,.2-.3,.7-.1,.9l1.4,2.1h-3.75v2.9h3.75l-1.4,2.1c-.2,.2-.2,.4-.2,.5,0,.2,.1,.4,.2,.5,.2,.2,.7,.3,.9,.1l5-4c.4-.3,.4-.9,0-1.2l-4.9-4Z"/></g></g></svg>