<?xml version="1.0" encoding="UTF-8"?><svg id="Laag_1" xmlns="http://www.w3.org/2000/svg" xmlns:xlink="http://www.w3.org/1999/xlink" viewBox="0 0 64 64"><defs><style>.cls-1{fill:none;}.cls-2{clip-path:url(#clippath);}.cls-3{clip-path:url(#clippath-1);}</style><clipPath id="clippath"><rect class="cls-1" width="64" height="64"/></clipPath><clipPath id="clippath-1"><rect class="cls-1" width="64" height="64"/></clipPath></defs><g class="cls-2"><g class="cls-3"><path d="M61.66,25.57l-29.04-9.37c-.4-.13-.83-.13-1.23,0L2.34,25.57c-.45,.15-.47,.77-.03,.94l5.68,2.2v7.07c-.61,.55-1,1.34-1,2.22,0,.76,.3,1.45,.77,1.98-1.43,2.25-3.2,6.05-3.3,7.78-.12,2.06,2.53,2.92,3.82,3.15,1.29,.24,4.35,.08,4.65-2.45,.23-1.97-.57-6.33-.94-8.18v-.07c.61-.55,1-1.34,1-2.22s-.39-1.67-1-2.22v-5.52l15.69,6.08c0,.06-.03,.28-.38,.26l-11.31-1.8v10.13h0s0,.05,0,.07c0,3.87,7.16,7,16,7s16-3.13,16-7c0-.02,0-.05,0-.07h0v-13.12l13.68-5.3c.44-.17,.42-.8-.03-.94"/></g></g></svg>