<?xml version="1.0" encoding="UTF-8"?><svg id="Laag_1" xmlns="http://www.w3.org/2000/svg" xmlns:xlink="http://www.w3.org/1999/xlink" viewBox="0 0 64 64"><defs><style>.cls-1{fill:none;}.cls-2{clip-path:url(#clippath);}.cls-3{clip-path:url(#clippath-1);}</style><clipPath id="clippath"><rect class="cls-1" width="64" height="64"/></clipPath><clipPath id="clippath-1"><rect class="cls-1" width="64" height="64"/></clipPath></defs><g class="cls-2"><g class="cls-3"><path d="M59.94,35h-1.29l-5.79-19.77c.33,.13,.63,.25,.86,.34,1.14,.49,2.46-.04,2.96-1.18,.49-1.14-.04-2.46-1.18-2.96-.76-.33-7.58-3.18-12.24-2.26-1.69,.33-3.14,.82-4.54,1.3-.35,.12-.69,.23-1.03,.34-1.01,2.92-2.76,3.59-3.39,3.68-.11,.02-.2-.03-.23-.08,1.11-.86,1.9-1.72,1.94-3.4,.04-2.12-1.72-4.02-4-4.02s-4,1.79-4,4c0,.12,.02,.22,.03,.34-.91-.24-1.8-.54-2.75-.86-1.4-.47-2.85-.97-4.55-1.3-4.66-.92-11.47,1.94-12.23,2.26-1.14,.49-1.67,1.82-1.18,2.96,.49,1.14,1.82,1.67,2.96,1.17,.21-.09,.49-.21,.82-.33l-5.79,19.75h-1.29c-.58,0-1.03,.5-1,1.08,.43,7.28,5.17,10.92,10.97,10.92s10.54-3.64,10.97-10.92c.03-.58-.41-1.08-1-1.08h-1.29l-6.24-21.28c1.26-.22,2.48-.31,3.42-.13,1.4,.28,2.65,.7,3.97,1.15,1.6,.54,3.24,1.09,5.16,1.39V49h-6c-2.21,0-4,1.79-4,4v2h26v-2c0-2.21-1.79-4-4-4h-6V16.13c1.92-.3,3.56-.85,5.16-1.39,1.32-.45,2.57-.87,3.97-1.15,.95-.18,2.15-.1,3.4,.12l-6.24,21.29h-1.29c-.58,0-1.03,.5-1,1.08,.43,7.28,5.17,10.92,10.97,10.92s10.54-3.64,10.97-10.92c.03-.58-.42-1.08-1-1.08M14,44c-.58,0-1.13-.06-1.66-.14,3.15-.52,5.26-2.56,6.02-5.86h3.32c-.89,3.84-3.61,6-7.68,6m5.04-9H8.96l5.03-17.18,5.04,17.18Zm30.93-17.18l5.03,17.18h-10.07l5.03-17.18Zm0,26.18c-.58,0-1.13-.06-1.66-.14,3.15-.52,5.26-2.56,6.02-5.86h3.32c-.89,3.84-3.61,6-7.68,6"/></g></g></svg>