<?xml version="1.0" encoding="UTF-8"?><svg id="Laag_1" xmlns="http://www.w3.org/2000/svg" xmlns:xlink="http://www.w3.org/1999/xlink" viewBox="0 0 64 64"><defs><style>.cls-1{fill:none;}.cls-2{clip-path:url(#clippath);}.cls-3{clip-path:url(#clippath-1);}</style><clipPath id="clippath"><rect class="cls-1" width="64" height="64"/></clipPath><clipPath id="clippath-1"><rect class="cls-1" width="64" height="64"/></clipPath></defs><g class="cls-2"><g class="cls-3"><path d="M27.8,49.61v-2.22c0-.07,.01-.13,.02-.19-.5,.44-.99,.83-1.43,1.15-2.3-1.75-6.59-5.53-6.16-9.02,.24-1.91,.04-.55,.82-5.44-2.28-2.2-4.1-4.87-4.1-8.06-1.62-.5-2.04-2.55-2.04-3.82s.32-1.96,.77-2.17c.39-.19,.77-.05,1.01,.09,.14,.65,.25,1.14,.29,1.31,.21,.85,1.02,.77,1.02,.77v-6.75c2.07-.15,6.19-.75,10.75-3.11l5.25,3.53v6.33s.82,.08,1.02-.77c.04-.17,.15-.66,.29-1.31,.24-.14,.62-.27,1.01-.09,.45,.21,.77,.9,.77,2.17s-.42,3.31-2.04,3.82c0,3.7-2.53,6.5-5.34,8.88-.78,.66-2.25,1.11-3.72,1.11-1.06,0-2.13-.29-2.93-.64,.61,.93,1.66,2.07,3.58,2.58,.71,.19,3.13,.61,4.95-.66,1.47-1.02,3.41-3.23,4.48-4.79,.97-1.55,1.6-3.14,1.85-4.76,1.33-1.22,2.07-3.17,2.07-5.56,0-.75,0-2.7-1.23-4.04,.3-3.34,.52-8.5-.79-10.59-1.6-2.56-3.55-3.82-7.26-2.98-2.44-1.16-4.09-1.88-8.36-.84-2.97,.72-6.21,1.91-7.92,3.88-1.65,1.91-1.54,7.22-1.27,10.6-1.16,1.33-1.16,3.23-1.16,3.96,0,2.39,.74,4.33,2.06,5.55,.38,2.51,1.61,4.91,3.71,7.26-.11,.81-.23,1.75-.35,2.73-2.51,.74-9.67,3-12.03,5.57-2.87,3.12-4.39,14.89-4.39,14.89H31.05c-.15-.83-.04-1.7,.35-2.5l.72-1.48-1.55-.54c-1.65-.57-2.76-2.13-2.76-3.88"/><path d="M43.49,34.65l-1.08,3.11c-.84,.24-1.63,.58-2.38,1l-2.98-1.44c-.35-.17-.76-.1-1.03,.17-.96,.96-.61,.61-1.57,1.57-.27,.27-.34,.69-.17,1.03l1.46,3.01c-.4,.73-.72,1.51-.95,2.33l-3.18,1.1c-.36,.13-.61,.47-.61,.85v2.22c0,.38,.24,.73,.61,.85l3.18,1.1c.23,.81,.55,1.58,.95,2.31l-1.47,3.02c-.17,.35-.1,.76,.17,1.03,.96,.96,.61,.61,1.57,1.57,.27,.27,.69,.34,1.03,.17l3.01-1.46c.73,.41,1.52,.74,2.34,.98l1.09,3.15c.13,.36,.47,.61,.85,.61h1.64v-9.9c-.16,.02-.32,.05-.49,.05-2.54,0-4.6-2.06-4.6-4.6s2.06-4.6,4.6-4.6c.17,0,.32,.03,.49,.05v-9.9h-1.64c-.38,0-.73,.24-.85,.61"/><path d="M60.02,41.14c-.46,.81-1.18,1.38-1.66,1.48-.33,.07-.51,.02-.57-.21,2.08-1.62,2.08-3.71,.74-4.99-1.36-1.3-3.84-.94-4.83,.86-.22,.04-.35-.07-.34-.49,.01-.46,.52-1.53,1.41-2.05-1.12-1.37-2.86-2.06-4.49-1.62-1,.27-1.78,.93-2.28,1.79v8.49c.69-.46,1.46-.57,1.97-.54,.68,.04,.88,.4,.74,.72-2.07,1.14-2.7,2.51-2.7,3.87v1.74c1.99-.55,3.76,.48,4.19,2.45,.17,.78-.33,.74-.33,.74,0-.01-.36-.88-1.31-1.36-.83-.42-1.75-.4-2.56-.02v9.06c.49,.86,1.28,1.51,2.28,1.78,1.67,.45,3.75-.13,4.89-2.17-1.3-.55-2.03-2-1.41-2.16,.36,.42,.89,.96,1.92,1.06,1.95,.18,3.53-.96,4.07-2.45,.99-2.78-1.49-3.52-1.7-3.61,.07-.3,.31-.37,.84-.28,.27,.05,.88,.23,1.42,.64,1.92-1.13,2.71-3.78,1.36-6.23,1.72-2.64,.62-5.57-1.64-6.52m-9.97-1.63c.31-.81,.7-.78,.8-.64-.04,.52,.21,1.02,.56,1.29,.43,.33,1.06,.39,1.85,.17,.71-.2,1.25-.57,1.85-.98,1.17-.08,.19,2.62-2.67,2.81-.1,0-.19,.01-.29,.01-1.9,0-2.5-1.64-2.1-2.67m2.62,5.35c.9-.51,2.1-.2,2.98,.03,1.24,.32,2.01,.28,2.97-.15l.34-.15c.32,.11,.26,.47-.09,.93-.65,.86-1.5,1.36-3.04,1.2-.8-.08-1.19-.24-1.56-.26-.43-.03-1.25,.11-1.37,1.13-.05,.39,.02,.8,.17,1.09-.05,.24-.32,.39-.72,.02-1.22-1.14-.84-3.16,.33-3.82m3.11,12.19c-.19-.47-.47-.86-1.13-1.04-.65-.17-1.43,0-2.06,.46-.87,.63-1.14,1.34-1.13,2.13-.27,.32-.67-.13-.82-.7-.54-2.17,2.12-4.58,4.57-3.52,.8,.35,1.14,1.19,1.12,1.81-.02,.68-.33,.99-.56,.85m3.8-5.18c-1.87-2.99-4.38-1.18-4.71,.55-.22,.09-.4,0-.46-.54-.06-.51,.07-1.71,.78-2.41,.77-.76,1.89-1.04,2.92-.74,1,.29,1.62,1.15,1.8,2.11,.13,.67-.02,1.1-.33,1.02"/></g></g></svg>