<?xml version="1.0" encoding="UTF-8"?><svg id="Laag_1" xmlns="http://www.w3.org/2000/svg" viewBox="0 0 64 64"><defs><style>.cls-1{fill:none;}</style></defs><rect class="cls-1" width="64" height="64"/><g><path d="m43,12c-3.2,0-6.21.77-8.89,2.1,5.5,4.04,9.09,10.56,9.09,17.9s-3.58,13.85-9.09,17.9c2.68,1.33,5.69,2.1,8.89,2.1,11.05,0,20-8.95,20-20s-8.95-20-20-20Z"/><path d="m21.01,33.26h-1.29v5.64h2.19c2.34,0,3.7-.99,3.7-2.9,0-1.73-1.23-2.74-4.59-2.74Z"/><path d="m24.8,27.5c0-1.63-.89-2.47-3.51-2.47h-1.57v5.27h1.42c2.43,0,3.67-.83,3.67-2.8Z"/><path d="m41,32c0-11.05-8.95-20-20-20S1,20.95,1,32s8.95,20,20,20,20-8.95,20-20Zm-16.98,9.97v2.59l-2.21.07v-2.55h-2.69v2.48l-2.21.07v-2.55h-3.05l.09-3.17h1.19c.35,0,.64-.29.64-.64v-12.59c0-.35-.29-.64-.64-.64h-1.18l-.1-3.17h3.05v-2.61l2.21-.07v2.68h2.69s0-2.61,0-2.61l2.21-.07v2.86c3.56.54,5.01,2.32,5.01,4.66,0,2.53-1.36,4.1-3.17,4.78v.03c2.53.52,4.01,2.16,4.01,4.5,0,3.36-1.87,5.48-5.84,5.96Z"/></g></svg>