<?xml version="1.0" encoding="UTF-8"?><svg id="Laag_1" xmlns="http://www.w3.org/2000/svg" xmlns:xlink="http://www.w3.org/1999/xlink" viewBox="0 0 64 64"><defs><style>.cls-1{fill:none;}.cls-2{clip-path:url(#clippath);}.cls-3{clip-path:url(#clippath-1);}</style><clipPath id="clippath"><rect class="cls-1" width="64" height="64"/></clipPath><clipPath id="clippath-1"><rect class="cls-1" width="64" height="64"/></clipPath></defs><g class="cls-2"><g class="cls-3"><path d="M59.17,50.21c-.48-.08-.95,.19-1.11,.65l-.86,2.45-3.46-3.7c-.96-1.03-2.32-1.62-3.73-1.62h-11.01c-.83,0-1,.67-1,1.5s.17,1.5,1,1.5h11.01c.58,0,1.14,.24,1.54,.67l3.31,3.54-2.62,.31c-.48,.06-.85,.45-.88,.94-.02,.49,.3,.92,.78,1.03l6.64,1.5c.3,.07,.6,0,.84-.19,.24-.19,.37-.48,.37-.78v-6.81c0-.49-.35-.9-.83-.98"/><path d="M39,16h11c1.41,0,2.77-.59,3.73-1.62l3.46-3.7,.86,2.45c.16,.46,.63,.73,1.11,.65,.48-.08,.83-.5,.83-.98V6c0-.3-.14-.59-.37-.78-.24-.19-.55-.26-.84-.19l-6.64,1.5c-.47,.11-.8,.54-.78,1.02,.03,.48,.4,.88,.88,.94l2.62,.31-3.31,3.54c-.4,.42-.96,.67-1.54,.67h-11c-.83,0-1,.67-1,1.5s.17,1.5,1,1.5"/><path d="M52,32c0-8.29-4-12-10.8-12h-6.38l-.87-1.45c-.19-.32-.53-.51-.9-.51-.58,0-1.05,.47-1.05,1.05v.92H11.5c-4.14,0-7.5,3.24-7.5,7.23v9.54c0,3.99,3.37,7.23,7.5,7.23H32v.92c0,.58,.47,1.05,1.05,1.05,.37,0,.71-.19,.9-.51l.87-1.45h6.38c6.8,0,10.8-3.63,10.8-12m-3.13-5.96h-2.52c-.85,0-1.6-.53-1.89-1.34l-.86-2.45c2.5,.46,4.25,1.7,5.27,3.79m-4.41,13.26c.28-.8,1.04-1.34,1.88-1.34,1.14,0,2.56,0,2.56,0-1.01,2.12-2.76,3.35-5.31,3.8l.87-2.47ZM15.02,23H32l-2.6,1.34c-.85,.43-1.78,.66-2.73,.66H15.02c-.35,0-.67-.18-.85-.47-.41-.67,.07-1.53,.85-1.53m-2.7,13.37c.08,.5-.23,.96-.71,1.1l-3.17,.92c-.53,.15-1.07-.15-1.24-.68-.12-.39-.19-.79-.19-1.22v-9c0-.42,.07-.83,.19-1.22,.17-.53,.71-.83,1.24-.68l3.17,.92c.48,.14,.79,.61,.71,1.1-.17,1.13-.32,2.6-.32,4.37s.14,3.24,.32,4.37m19.68,4.63H15.02c-.78,0-1.26-.86-.85-1.53,.18-.29,.5-.47,.85-.47h11.65c.95,0,1.89,.23,2.73,.66l2.6,1.33h0Zm6-.73c-.29,.41-.84,.55-1.29,.32l-5.55-2.84c-.39-.2-.6-.62-.53-1.05,.2-1.17,.38-2.77,.38-4.7s-.18-3.52-.38-4.7c-.07-.43,.14-.85,.53-1.05l5.55-2.84c.45-.23,1-.09,1.29,.32,1.43,2.04,2.24,4.98,2.24,8.26s-.81,6.23-2.24,8.26"/></g></g></svg>