<?xml version="1.0" encoding="UTF-8"?><svg id="Laag_1" xmlns="http://www.w3.org/2000/svg" xmlns:xlink="http://www.w3.org/1999/xlink" viewBox="0 0 24 24"><defs><style>.cls-1{fill:none;}.cls-2{clip-path:url(#clippath);}.cls-3{clip-path:url(#clippath-1);}</style><clipPath id="clippath"><rect class="cls-1" width="24" height="24"/></clipPath><clipPath id="clippath-1"><rect class="cls-1" width="24" height="24"/></clipPath></defs><g class="cls-2"><g class="cls-3"><path d="m21.57,4.17c-.15-.9-.84-1.59-1.74-1.74-2.61-.43-6.96-.43-7.83-.43s-5.22,0-7.83.43c-.9.15-1.59.84-1.74,1.74-.43,2.61-.43,6.96-.43,7.83s0,5.22.43,7.83c.15.9.84,1.59,1.74,1.74,2.61.43,6.96.43,7.83.43s5.22,0,7.83-.43c.9-.15,1.59-.84,1.74-1.74.43-2.61.43-6.96.43-7.83,0-2.61,0-5.22-.43-7.83m-14.6,15.07c-1.42,0-2.21-.78-2.21-2.21s.78-2.21,2.21-2.21,2.21.78,2.21,2.21-.78,2.21-2.21,2.21m6.4.2c-.46,0-.92.01-1.4.01-.42,0-.82,0-1.22,0,.37-.66.58-1.45.58-2.35,0-2.64-1.78-4.42-4.42-4.42-.89,0-1.69.21-2.35.58,0-.4,0-.8,0-1.22,0-.48,0-.95.01-1.41.72-.24,1.51-.37,2.34-.37,3.96,0,6.84,2.88,6.84,6.84,0,.84-.13,1.62-.37,2.34m5.27-.29c-.75.09-1.68.16-2.74.21.17-.72.27-1.48.27-2.27,0-5.28-3.98-9.26-9.25-9.26-.79,0-1.55.1-2.27.27.05-1.06.12-1.99.21-2.74.67-.11,1.35-.17,2.06-.17,6.78,0,11.89,5.11,11.89,11.9,0,.7-.06,1.39-.17,2.06"/></g></g></svg>