<?xml version="1.0" encoding="UTF-8"?><svg id="Laag_1" xmlns="http://www.w3.org/2000/svg" xmlns:xlink="http://www.w3.org/1999/xlink" viewBox="0 0 64 64"><defs><style>.cls-1{fill:none;}.cls-2{clip-path:url(#clippath);}.cls-3{clip-path:url(#clippath-1);}</style><clipPath id="clippath"><rect class="cls-1" width="64" height="64"/></clipPath><clipPath id="clippath-1"><rect class="cls-1" width="64" height="64"/></clipPath></defs><g class="cls-2"><polygon points="29.97 58.42 13.18 53.32 7.5 55 29.9 61.8 56.1 52.2 50.74 50.81 29.97 58.42"/><polygon points="29.97 52.72 13.18 47.62 7.5 49.3 29.9 56.1 56.1 46.5 50.74 45.11 29.97 52.72"/><polygon points="29.97 47.02 13.18 41.92 7.5 43.6 29.9 50.4 56.1 40.8 50.74 39.41 29.97 47.02"/><g class="cls-3"><path d="M56.1,35.1l-16.48-4.28-3.75,4.75c-.93,1.18-2.33,1.86-3.83,1.86s-2.9-.68-3.83-1.86l-2.42-3.06-18.29,5.4,22.4,6.8,26.2-9.6Z"/><path d="M29.98,34.18c.5,.63,1.26,1,2.07,1s1.57-.37,2.07-1l11.66-14.77c.38-.48,.57-1.06,.57-1.63,0-.61-.21-1.23-.64-1.72-.82-.96-2.21-1.2-3.3-.57l-4.61,2.63s-1.44,5.41-1.56,5.87c-.1,.37-.3,.25-.3,.25V5.74c0-2.11-1.83-2.74-3.89-2.74-2.06,0-3.89,.63-3.89,2.74v13.43l-6.47-3.69c-1.1-.62-2.48-.38-3.3,.57-.82,.96-.85,2.36-.07,3.35l11.66,14.77Z"/></g></g></svg>