<?xml version="1.0" encoding="UTF-8"?><svg id="Laag_1" xmlns="http://www.w3.org/2000/svg" xmlns:xlink="http://www.w3.org/1999/xlink" viewBox="0 0 64 64"><defs><style>.cls-1{fill:none;}.cls-2{clip-path:url(#clippath);}.cls-3{clip-path:url(#clippath-1);}</style><clipPath id="clippath"><rect class="cls-1" width="64" height="64"/></clipPath><clipPath id="clippath-1"><rect class="cls-1" width="64" height="64"/></clipPath></defs><g class="cls-2"><g class="cls-3"><path d="M33.87,25.45c1.13,0,1.87,.11,3.26,.37v-2.98c-1.19-.26-2.07-.34-3.18-.34-3.94,0-6.83,2.15-7.86,6.41h-2.1v2.18h1.76c-.06,.48-.06,1.02-.06,1.53v.59h-1.7v2.16h1.93c.82,4.2,3.6,6.13,7.54,6.13,1.5,0,2.24-.09,3.8-.45v-2.81c-1.48,.31-2.24,.43-3.57,.43-1.87,0-3.4-.97-4.05-3.29h5.19v-2.16h-5.53c-.03-.28-.03-.59-.03-.94,0-.4,0-.79,.03-1.19h5.53v-2.18h-5.16c.62-2.3,2.04-3.46,4.2-3.46"/><path d="M8.84,37.15c.96-.59,2.12-.72,3.19-.35l.05,.02c-.37-1.55-.59-3.15-.59-4.81,0-10.8,8.35-19.62,18.94-20.42h0c.05,.05,.05,.15-.13,.26-.26,.17-2.67,1.07-2.81,1.12l-1.57,2.78c-.38,.66-.22,1.5,.37,1.99,.59,.48,1.44,.47,2.02-.03l8.06-7.04c.36-.31,.56-.77,.53-1.25,0-.48-.21-.93-.58-1.23L28.04,1.43c-.59-.48-1.44-.47-2.02,.04-.57,.5-.7,1.35-.3,2l2.08,3.38h0C15.71,8.86,6.5,19.35,6.5,32c0,2.33,.32,4.58,.9,6.72,.32-.64,.8-1.19,1.44-1.57"/><path d="M48.03,49.48c-.99-.54-1.69-1.48-1.9-2.59v-.05c-3.69,3.5-8.65,5.66-14.13,5.66-7.03,0-13.22-3.55-16.9-8.94h0c.02-.07,.1-.11,.28-.02,.27,.14,2.26,1.77,2.38,1.87l3.19-.03c.76,0,1.41-.56,1.53-1.32,.12-.75-.32-1.49-1.04-1.73l-10.12-3.46c-.45-.15-.95-.09-1.35,.16-.41,.23-.7,.65-.77,1.11l-1.69,10.56c-.12,.75,.32,1.48,1.04,1.73,.72,.25,1.52-.06,1.88-.74l1.89-3.49v-.02c4.69,5.67,11.75,9.3,19.68,9.3,7.08,0,13.48-2.89,18.1-7.54-.07,0-.14,.02-.21,.02-.64,0-1.28-.17-1.86-.5"/><path d="M61.43,42.09c-.15-.75-.81-1.28-1.58-1.26l-3.97,.11c1.04-2.78,1.62-5.79,1.62-8.93,0-11.84-8.08-21.8-19.02-24.67,.4,.6,.64,1.3,.64,2.04,.03,1.13-.44,2.2-1.29,2.94l-.03,.03c8.5,2.5,14.7,10.35,14.7,19.65,0,3.18-.75,6.18-2.04,8.86-.07,.02-.14-.03-.15-.24-.02-.31,.4-2.84,.43-3l-1.62-2.75c-.39-.66-1.19-.94-1.9-.67-.71,.27-1.13,1.02-.98,1.77l2.06,10.5c.09,.47,.39,.87,.81,1.09,.41,.24,.91,.28,1.35,.11l10-3.82c.71-.27,1.13-1.02,.98-1.77"/></g></g></svg>