<?xml version="1.0" encoding="UTF-8"?>
<svg id="Zwart" xmlns="http://www.w3.org/2000/svg" viewBox="0 0 64 64">
  <path d="M17.31,39.9c4.88,17.41,24.48,17.46,29.37,0-7.72,7.66-21.65,7.66-29.37,0Z"/>
  <path d="M15.06,22.03h.11c4.98,1.64,6.32,9.79,6.32,9.79,0,0,.38.08.71-.37,2.88-4.03,1.79-11.73-3.75-14.93,4.22-.38,7.18,1.54,10.03,6.35,0,0,.38-.24.42-.9.23-4.78-2.7-10.07-6.09-11.41-2.95-1.16-5.55-.92-7.68,1.7-1.54-3.75-13.22-7.58-14.44,4.2-.1.93.38,1.12.38,1.12,2.27-2.91,6.16-4.04,8.6-2.33-5.11,1.7-11.93,7.19-6.36,17.23.4.72.82.64.82.64.29-5.68,2.87-9.84,6.51-11.29-1.25,6.12-1.85,21.47,4.17,34.18h7.17c-8.72-15.13-7.64-29.15-6.92-33.97Z"/>
  <path d="M63.64,19.62c-1.92-11.02-11.29-6.84-13.59-3.56-3.27-3.75-6.38-3.06-8.53-2.34-3.46,1.16-5.12,4.19-5.5,6.74-.1.65.29.9.29.9,3.6-2.11,6.28-2.24,9.57-1.68-6.8,2.95-7.81,12.66-4.94,16.68.32.45.71.37.71.37,0,0,.63-9.86,7.51-11.53h.03c.48,4.54.87,17.19-7.18,30.8h7.17c6.06-12.75,4.74-24.79,4.3-31.08,3.75,1.38,6.41,5.59,6.71,11.37,0,0,.42.08.82-.64,5.58-10.04-2.1-16.72-6.82-16.52,2.44-1.72,6.79-1.29,9.06,1.62,0,0,.55-.2.38-1.12Z"/>
  <path d="M27.13,38.41c-.34-.73-.86-1.78-1.16-1.88-.45-.16-2.95.46-3.29.89-.25.32-.24,1.37-.22,1.92-1.25.44-2.05.94-1.97,1.33.07.37.93.54,2.18.49.21,1.2,1.25,2.12,2.51,2.12,1.41,0,2.55-1.14,2.55-2.55,0-.18-.02-.36-.06-.53,1.24-.44,2.02-.94,1.95-1.32-.08-.4-1.08-.56-2.49-.47Z"/>
</svg>