<?xml version="1.0" encoding="UTF-8"?><svg id="Laag_1" xmlns="http://www.w3.org/2000/svg" xmlns:xlink="http://www.w3.org/1999/xlink" viewBox="0 0 64 64"><defs><style>.cls-1{fill:none;}.cls-2{clip-path:url(#clippath);}.cls-3{clip-path:url(#clippath-1);}</style><clipPath id="clippath"><rect class="cls-1" width="64" height="64"/></clipPath><clipPath id="clippath-1"><rect class="cls-1" width="64" height="64"/></clipPath></defs><g class="cls-2"><g class="cls-3"><path d="M37.35,58.17l9.66-16.64,9.82,16.64h-19.48Zm24.42,1.34l-13.35-22.62c-.3-.5-.84-.81-1.42-.81h0c-.59,0-1.13,.32-1.42,.82l-13.12,22.62c-.3,.51-.3,1.14,0,1.66,.3,.51,.84,.83,1.43,.83h26.48c.59,0,1.14-.32,1.44-.83,.3-.52,.29-1.15-.01-1.66"/><path d="M46.98,32.57c.94,0,1.84,.26,2.62,.72,.67-3.76,1.33-8.51,1.33-12.67,0,0-1.7-1.17-4.94-2.39V9.68c0-.38-.31-.68-.68-.68h-4.32V3.68c0-.38-.31-.68-.68-.68h-15.63c-.38,0-.68,.31-.68,.68v5.32h-4.32c-.38,0-.68,.31-.68,.68v6.65c1.92-.75,5.67-1.97,8.94-2.36,5.7-.68,9.69,.42,12.25,1.99,.33,.21,.43,.45,.4,.68-2.6-.7-5.41-1.22-8.1-1.22-8.55,0-18.44,5.2-18.44,5.2,0,6.13,1.66,14.84,2.02,16.1,.67,.3,1.39,.53,1.97,.53,1.93,0,4.19-1.89,6-3.25,1.66,1.25,4.04,3.25,6,3.25s4.19-1.89,6-3.25c1.47,1.11,3.51,2.8,5.31,3.17l1.18-2.03c.92-1.58,2.62-2.56,4.45-2.57m-17.98-3.57h-9v-4.02c0-.75,.61-1.36,1.37-1.36s1.37,.61,1.37,1.36v1.37h3.54v-1.37c0-.75,.61-1.36,1.37-1.36s1.37,.61,1.37,1.36v4.02Zm7,0v-4.02c0-.75,.61-1.36,1.37-1.36s1.37,.61,1.37,1.36v1.37h3.54v-1.37c0-.75,.61-1.36,1.37-1.36s1.37,.61,1.37,1.36v4.02h-9Z"/><path d="M36.04,36.34c-1,.75-3.49,2.75-6,2.75s-4.92-1.94-6-2.75c-1,.75-3.49,2.75-6,2.75s-4.92-1.94-6-2.75c-1,.75-3.49,2.75-6,2.75-1.02,0-2.12-.39-3.04-.83v4.22c.94,.31,1.98,.52,3.04,.52,2.4,0,4.66-1.08,6-1.86,1.34,.79,3.6,1.86,6,1.86s4.66-1.08,6-1.86c1.34,.79,3.6,1.86,6,1.86s4.66-1.08,6-1.86c.61,.36,1.43,.78,2.35,1.13l2-3.46c-2.06-.62-3.36-1.72-4.36-2.47"/><path d="M36.04,44.34c-1,.75-3.49,2.75-6,2.75s-4.92-1.94-6-2.75c-1,.75-3.49,2.75-6,2.75s-4.92-1.94-6-2.75c-1,.75-3.49,2.75-6,2.75-1.02,0-2.12-.39-3.04-.83v4.22c.94,.31,1.98,.52,3.04,.52,2.4,0,4.66-1.08,6-1.86,1.34,.79,3.6,1.86,6,1.86s4.66-1.08,6-1.86c1.34,.79,3.6,1.86,6,1.86,1.33,0,2.62-.34,3.73-.77l3.07-5.29-.8-.6Z"/><path d="M31.02,54.97c-2.57,.52-4.88-1.06-6.98-2.63-1,.75-3.48,2.75-6,2.75s-4.92-1.94-6-2.75c-1,.75-3.49,2.75-6,2.75-1.02,0-2.12-.39-3.04-.83v4.22c.94,.31,1.98,.52,3.04,.52,2.4,0,4.66-1.08,6-1.86,1.34,.79,3.6,1.86,6,1.86s4.66-1.08,6-1.86c1.12,.66,2.91,1.52,4.88,1.78,.11-.4,.27-.79,.49-1.16l1.62-2.78Z"/><path d="M46.99,54.67c-.81,0-1.22,.58-1.22,1.32,0,.84,.45,1.29,1.24,1.29s1.22-.56,1.22-1.29c0-.85-.45-1.32-1.24-1.32"/><polygon points="46.07 53.59 47.97 53.54 47.97 51.21 48.15 46.04 46.07 46.23 46.07 53.59"/></g></g></svg>