<?xml version="1.0" encoding="UTF-8"?><svg id="Laag_1" xmlns="http://www.w3.org/2000/svg" xmlns:xlink="http://www.w3.org/1999/xlink" viewBox="0 0 64 64"><defs><style>.cls-1{fill:none;}.cls-2{clip-path:url(#clippath);}.cls-3{clip-path:url(#clippath-1);}</style><clipPath id="clippath"><rect class="cls-1" width="64" height="64"/></clipPath><clipPath id="clippath-1"><rect class="cls-1" width="64" height="64"/></clipPath></defs><g class="cls-2"><g class="cls-3"><path d="M52.23,44.76c-2.77,.95-6.37,2.41-9.22,3.61,.07,.43,.08,.89,.01,1.38-.41,2.81-2.82,4.58-6.24,4.74-7.73,.36-12.53-1.56-13.53-1.96-.29-.12-.32-.26-.29-.39h.01c5.6,.95,9.12,1.11,13.46,.41,3.29-.53,4.49-2.11,4.46-3.41-.03-1.27-.93-2.04-2.95-2.11-6.89-.24-10.92-1.01-16.82-1.87-4.1-.6-8.06,.47-11.43,2.63-3.16,2.03-4.04,2.98-4.04,2.98l5.79,11.14,7.48-3.04c.85-.35,1.78-.45,2.69-.3l10.26,2.28c2.29,.38,4.64-.06,6.64-1.22l20.48-12.85s-1-4.02-6.76-2.04"/><path d="M21,35h22c6.05,0,11-4.95,11-11s-4.95-11-11-11H21c-6.05,0-11,4.95-11,11s4.95,11,11,11m11.22-18h10.78c3.86,0,7,3.14,7,7s-3.14,7-7,7h-10.78c.86-1.9,1.38-4.34,1.38-7s-.52-5.1-1.38-7m-18.21,6.75h0c.05-1.76,.78-3.42,2-4.66l1.95,2.27c-.84,.9-1.4,2.45-1.4,4.22,0,1.56,.46,3.14,1.46,4.31,0,.25-.33,.25-.76-.01-2.16-1.35-3.33-3.71-3.25-6.12"/></g></g></svg>