<?xml version="1.0" encoding="UTF-8"?><svg id="Laag_1" xmlns="http://www.w3.org/2000/svg" xmlns:xlink="http://www.w3.org/1999/xlink" viewBox="0 0 64 64"><defs><style>.cls-1{fill:none;}.cls-2{clip-path:url(#clippath);}.cls-3{clip-path:url(#clippath-1);}</style><clipPath id="clippath"><rect class="cls-1" width="64" height="64"/></clipPath><clipPath id="clippath-1"><rect class="cls-1" width="64" height="64"/></clipPath></defs><g class="cls-2"><g class="cls-3"><path d="M33.25,12.86c.95,2.77,2.41,6.37,3.61,9.22,.43-.07,.89-.08,1.38-.01,2.81,.41,4.58,2.82,4.74,6.24,.36,7.73-1.56,12.53-1.96,13.53-.12,.29-.26,.32-.39,.29h0c.96-5.61,1.12-9.13,.42-13.48-.53-3.29-2.11-4.49-3.41-4.46-1.27,.03-2.04,.93-2.11,2.95-.24,6.89-1.01,10.92-1.87,16.82-.6,4.1,.47,8.06,2.63,11.43,2.03,3.16,2.98,4.04,2.98,4.04l11.14-5.79-3.04-7.48c-.35-.85-.45-1.78-.3-2.69l2.28-10.26c.38-2.29-.06-4.64-1.22-6.64L35.29,6.1s-4.02,1-2.04,6.76"/><path d="M30.75,12.86c-.95,2.77-2.41,6.37-3.61,9.22-.43-.07-.89-.08-1.38-.01-2.81,.41-4.58,2.82-4.74,6.24-.36,7.73,1.56,12.53,1.96,13.53,.12,.29,.26,.32,.39,.29h0c-.96-5.61-1.12-9.13-.42-13.48,.53-3.29,2.11-4.49,3.41-4.46,1.27,.03,2.04,.93,2.11,2.95,.24,6.89,1.01,10.92,1.87,16.82,.6,4.1-.47,8.06-2.63,11.43-2.03,3.16-2.98,4.04-2.98,4.04l-11.14-5.79,3.04-7.48c.35-.85,.45-1.78,.3-2.69l-2.28-10.26c-.38-2.29,.06-4.64,1.22-6.64L28.71,6.1s4.02,1,2.04,6.76"/></g></g></svg>