<?xml version="1.0" encoding="UTF-8"?><svg id="Laag_1" xmlns="http://www.w3.org/2000/svg" xmlns:xlink="http://www.w3.org/1999/xlink" viewBox="0 0 64 64"><defs><style>.cls-1{fill:none;}.cls-2{clip-path:url(#clippath);}.cls-3{clip-path:url(#clippath-1);}</style><clipPath id="clippath"><rect class="cls-1" width="64" height="64"/></clipPath><clipPath id="clippath-1"><rect class="cls-1" width="64" height="64"/></clipPath></defs><g class="cls-2"><path d="M29,2H8V21H29V2ZM14,18h-3V5h3v13Zm6,0h-3V5h3v13Zm6,0h-3V5h3v13Z"/><g class="cls-3"><path d="M53,50h-11c-1.1,0-2,.9-2,2s.9,2,2,2h11c1.1,0,2-.89,2-2s-.9-2-2-2"/><path d="M40.73,21.58c3.23-.74,4.66-3.12,3.89-6.57-.73-3.28-3.03-5.17-6.34-4.4-3.14,.72-4.66,3.12-3.85,6.75,.71,3.19,3.07,4.97,6.3,4.23"/><path d="M51.09,25.23c-2.1-5.19-8.69-4.4-10,.14-1.02,2.66-1.74,7.11-2.74,8.6-.92,1.37-3.18,3.66-5.7,6.11-2.62,2.54-1.16,4.85-1.16,4.85,0,0,.58-.43,1.45-1.08-.13,.22-.26,.45-.38,.72-1.11,2.36-6.21,16.89-6.21,16.89,.97,.43,4,1.13,6.44-3.09,2.44-4.22,5.9-10.48,5.9-10.48,0,0,8.45,.05,11.08,0,3.63-.07,5.91-2.18,6.16-4.78,.38-4.01-3-13.37-4.82-17.88m-13.86,16.28c-.63,.1-1.17,.2-1.65,.33,2.25-1.73,4.73-3.69,5.42-4.48,.84-.95,1.37-2.23,1.7-3.34,.8,2.57,1.45,4.75,1.87,6.48-3.13,.37-5.32,.69-7.34,1.01"/></g></g></svg>