<?xml version="1.0" encoding="UTF-8"?><svg id="Laag_1" xmlns="http://www.w3.org/2000/svg" xmlns:xlink="http://www.w3.org/1999/xlink" viewBox="0 0 64 64"><defs><style>.cls-1{fill:none;}.cls-2{clip-path:url(#clippath);}.cls-3{clip-path:url(#clippath-1);}</style><clipPath id="clippath"><rect class="cls-1" width="64" height="64"/></clipPath><clipPath id="clippath-1"><rect class="cls-1" width="64" height="64"/></clipPath></defs><g class="cls-2"><g class="cls-3"><path d="M10,33.17v-1.2c0-1,.42-1.97,1.16-2.66l9.98-9.44-3.92-3.71c-.24-.22-.61-.22-.86,0L1.41,30.32c-.26,.24-.41,.58-.41,.94v.95c0,.35,.28,.64,.63,.64h2.53v13.16H14v-10.02h-1.2c-1.54,0-2.8-1.26-2.8-2.81m52.57-2.86l-14.95-14.15c-.24-.22-.61-.22-.85,0l-3.91,3.7,10,9.46c.73,.68,1.15,1.65,1.15,2.65v1.2c0,1.55-1.26,2.81-2.8,2.81h-1.2v10.02h9.82v-13.16h2.53c.35,0,.63-.28,.63-.64v-.95c0-.36-.15-.7-.41-.94m-10.57,2.86v-1.2c0-.45-.19-.88-.52-1.19L32.54,12.86c-.31-.28-.78-.28-1.08,0L12.52,30.79c-.33,.31-.52,.74-.52,1.19v1.2c0,.45,.36,.81,.8,.81h3.2v16.87H48v-16.87h3.2c.44,0,.8-.36,.8-.81m-12.33,3.79c-1.62,1.68-5,4.38-8.02,5.74-9.31,5.06-12.05-1.48-6.91-7.68,3.66,.15,5.74,1.82,6.25,2.03,.1-.06,.06-.22-.19-.54-.33-.42-1.53-2.02-4.43-3.22,.76-.72,1.59-1.38,2.48-1.99,3.94,.02,6.19,1.71,6.7,2.03,.12-.07,.06-.27-.19-.59-.31-.39-1.39-1.78-3.91-2.94,4-1.88,7.95-2.09,9.89,.16,1.61,1.87,.77,4.47-1.67,7"/></g></g></svg>