<?xml version="1.0" encoding="UTF-8"?><svg id="Laag_1" xmlns="http://www.w3.org/2000/svg" xmlns:xlink="http://www.w3.org/1999/xlink" viewBox="0 0 64 64"><defs><style>.cls-1{fill:none;}.cls-2{clip-path:url(#clippath);}.cls-3{clip-path:url(#clippath-1);}</style><clipPath id="clippath"><rect class="cls-1" width="64" height="64"/></clipPath><clipPath id="clippath-1"><rect class="cls-1" width="64" height="64"/></clipPath></defs><g class="cls-2"><g class="cls-3"><path d="M27.7,34.57h-1.94l-1.26,9.43h2.73l1.22-4.89-.72-4.4c-.01-.05-.02-.09-.03-.13"/><path d="M16.92,34.46c-1.19,0-1.33,.53-2.63,2.6l2.01,6.94h2.7l-2.03-9.54h-.05Z"/><path d="M33.9,33.18c.18-3.86,.72-7.83,2.05-10.2,1.24-2.22,2.89-3.27,5.11-3.27,3.7,0,3.47-4.16,3.47-4.16l-4.17-.69c-.32-.83-1.39-2.08-2.78-2.08h-1.64c-.35-.86-.44-3.47-1.14-3.47-1.23,0-2.08,4.16-2.08,4.16,0,0-4.52,8.15-9.34,8.93-.43,.07-.84,.13-1.25,.18l-5.16,.21c-8.54-.51-11.23-5.69-10.03-9.19,.3-.86-.54-1.18-1.06-.43-3.03,4.34,2.57,9.9,3.1,11.24,.41,1.05-.11,.91-.34,3.39-.17,1.8,1.28,4.83,1.88,5.58l-2.08,3.46c-.27,.37-.36,.85-.24,1.3l1.61,5.88h2.78l-.89-6.03,2.16-3.43c.54-.91,1.41-1.65,2.89-1.65h11.1c.95,0,1.2,.71,1.33,1.43l.75,4.57c.79-2.25,2.16-4.22,3.95-5.71"/><path d="M42.41,32.15c-6.2,0-11.22,5.02-11.22,11.22s5.02,11.22,11.22,11.22,11.22-5.02,11.22-11.22-5.02-11.22-11.22-11.22m0,19.66c-4.65,0-8.44-3.79-8.44-8.44s3.79-8.44,8.44-8.44,8.44,3.79,8.44,8.44-3.79,8.44-8.44,8.44"/><path d="M43.51,42.76l-.39-5.47c-.04-.39-.31-.67-.7-.67s-.67,.25-.7,.67l-.47,6.44c0,.6,.46,1.1,1.05,1.16,.03,.02,6.2-.44,6.2-.44,.4-.04,.7-.21,.7-.6s-.27-.57-.7-.6h.02l-5-.5Z"/><path d="M57.85,25.56c1.08-.51,1.58-1.81,.87-3.34-.72-1.53-3.75-2.53-4.43,.8l-7.29-.02c-1-2.47-3.55-1.57-3.9-.3-.35,1.27-.32,2.31,.76,2.83-1.08,.51-1.23,1.48-1,2.37,.28,1.05,2.39,2.92,4.08,.08h6c-.63-1.44-1.14-2.4-1.2-2.56-.06-.16-.05-.24,.04-.24,.89,.84,1.81,1.74,2.78,2.6h-.01c.71,2.58,3.76,2.11,4.29,.16,.23-1.05,.09-1.85-.98-2.37"/></g></g></svg>