<?xml version="1.0" encoding="UTF-8"?><svg id="Laag_1" xmlns="http://www.w3.org/2000/svg" xmlns:xlink="http://www.w3.org/1999/xlink" viewBox="0 0 64 64"><defs><style>.cls-1{fill:none;}.cls-2{clip-path:url(#clippath);}.cls-3{clip-path:url(#clippath-1);}</style><clipPath id="clippath"><rect class="cls-1" width="64" height="64"/></clipPath><clipPath id="clippath-1"><rect class="cls-1" width="64" height="64"/></clipPath></defs><g class="cls-2"><g class="cls-3"><path d="M57.65,21.84l-7.11-13.32c-.23-.44-.62-.77-1.08-.94l-15.45-5.58,2.26,15.8c4.48,1.23,17.16,4.7,17.45,4.79,.35,.11,.3,.34,.28,.41H10.02c-.02-.06-.07-.29,.28-.41,.29-.09,12.96-3.57,17.45-4.79l2.26-15.8L14.55,7.58c-.46,.17-.85,.5-1.08,.94l-7.11,13.32c-.23,.43-.35,.92-.35,1.41V59c0,.55,.45,1,1,1H57c.55,0,1-.45,1-1V23.25c0-.49-.12-.98-.35-1.41M25,38c0,2.42-1.72,4.44-4,4.9v3.17c1.18,.1,3,.36,3,.93v.5c0,.28-.22,.5-.5,.5h-7c-.28,0-.5-.22-.5-.5v-.5c0-.58,1.82-.83,3-.93v-3.17c-2.28-.46-4-2.48-4-4.9v-4h10v4Zm10.5-4l4,5h-2.5v5h-3v-5h-2.5l4-5Zm13.5,14h-17v-2h17v2Zm-2-9v5h-3v-5h-2.5l4-5,4,5h-2.5Z"/></g></g></svg>