<?xml version="1.0" encoding="UTF-8"?><svg id="Laag_1" xmlns="http://www.w3.org/2000/svg" xmlns:xlink="http://www.w3.org/1999/xlink" viewBox="0 0 64 64"><defs><style>.cls-1{fill:none;}.cls-2{clip-path:url(#clippath);}.cls-3{clip-path:url(#clippath-1);}</style><clipPath id="clippath"><rect class="cls-1" width="64" height="64"/></clipPath><clipPath id="clippath-1"><rect class="cls-1" width="64" height="64"/></clipPath></defs><g class="cls-2"><polygon points="28 4.8 36.2 15 53 15 45 2 10 2 3 15 19.8 15 28 4.8"/><g class="cls-3"><path d="M26.55,47l.24-.51c.3-.62,.77-1.13,1.35-1.49h-4.14v-10h4.62c0-.08-.02-.15-.02-.23,0-1.2,.14-2.47,1-3.77h-5.6v-10h8v1.7c1.42-1.51,3.51-2.22,6.29-2.74,.63-.6,1.57-.96,2.68-.96s2.06,.36,2.68,.96c2.82,.54,4.92,1.24,6.34,2.79v-5.75h-14.8l-7.2-9-7.2,9H6V53H22.21c.56-1.76,1.26-3.38,2.15-4.34,.52-.57,1.24-1.12,2.18-1.66m1.45-33.5c1.4,0,2.5,1.1,2.5,2.5s-1.1,2.5-2.5,2.5-2.5-1.1-2.5-2.5,1.1-2.5,2.5-2.5m-9,31.5H11v-10h8v10Zm0-14H11v-10h8v10Z"/><path d="M56.02,50.15c-.51-.55-1.32-1.08-2.25-1.57l-.55-1.15c-.16-.34-.45-.59-.81-.71l-4.85-1.56c-.08-.51-.16-1.01-.24-1.47,1.3-1.58,2.1-3.21,2.37-4.88,.97-.89,1.51-2.31,1.51-4.05,0-1.57-.43-2.5-1.11-3.21,0-7.86-2.06-8.64-7.83-9.61,0-.03,.02-.06,.02-.09,0-.36-.58-.65-1.3-.65s-1.3,.29-1.3,.65c0,.03,.01,.06,.02,.09-5.78,.98-7.83,1.75-7.83,9.67h0v.03c-.88,.98-1.06,1.84-1.06,3.12,0,1.74,.54,3.16,1.5,4.04,.28,1.83,1.18,3.58,2.7,5.29-.04,.28-.08,.58-.12,.9l-5.31,1.72c-.36,.11-.65,.37-.81,.71l-.55,1.15c-.93,.49-1.74,1.02-2.25,1.57-2.09,2.28-3.2,10.85-3.2,10.85H59.22s-1.1-8.57-3.2-10.85m-.88,2.83c.17,.42,.33,.92,.5,1.46h-13.64v-1.46h13.14Zm-16.12-24.64v-.74l.88-.59c-.04-1.13,1.33-1.21,.79-2.12,0,0,.71,.16,.65,.97,0,0,.63,.22,.46,.99l1.12,.75v.74l-1.95,1.7-1.95-1.7Zm.98,30.47h-14.66c.18-1,.39-1.99,.62-2.91h14.04v2.91Zm0-4.37h-13.64c.16-.54,.33-1.03,.5-1.46h13.15v1.46Zm-3.22-7.49c.26-1.48,.6-3.49,.61-3.53-1.66-1.6-2.99-3.55-2.99-5.87-1.18-.37-1.49-1.85-1.49-2.78,0-.38,.05-.67,.11-.91,.25,.25,.52,.41,.88,.51,1.42,.43,2.41-1.46,7.07-1.46s5.66,1.89,7.07,1.46c.37-.11,.66-.28,.92-.56,.08,.25,.13,.56,.13,.95,0,.93-.31,2.42-1.49,2.78,0,2.7-1.85,4.73-3.89,6.48-.57,.48-1.64,.81-2.71,.81-.77,0-1.55-.21-2.13-.46,.45,.68,1.21,1.51,2.61,1.88,2.3,.61,3.98-.67,3.98-.67,0,0,.1,.63,.19,1.23l-4.65,3.87-4.22-3.73Zm5.22,8.95h14.04c.23,.92,.44,1.92,.62,2.91h-14.66v-2.91Z"/></g></g></svg>