<?xml version="1.0" encoding="UTF-8"?><svg id="Laag_1" xmlns="http://www.w3.org/2000/svg" xmlns:xlink="http://www.w3.org/1999/xlink" viewBox="0 0 64 64"><defs><style>.cls-1{fill:none;}.cls-2{clip-path:url(#clippath);}.cls-3{clip-path:url(#clippath-1);}</style><clipPath id="clippath"><rect class="cls-1" width="64" height="64"/></clipPath><clipPath id="clippath-1"><rect class="cls-1" width="64" height="64"/></clipPath></defs><g class="cls-2"><g class="cls-3"><path d="M11.46,15.05c1.04,.17,1.77-.46,1.94-1.51,.2-1.2-.33-1.94-1.35-2.11-1.07-.18-1.77,.49-1.95,1.57-.19,1.14,.31,1.88,1.35,2.05"/><path d="M9.63,25.74c-.57-.33-1.32-.76-1.32-.76-.19,.71-.49,1.86-.76,2.54-.21,.54-.14,.39-.35,.74-.42,.72-.96,1.44-1.43,2.26-.77,1.34,.16,2.32,.29,2.45,.75-1.06,2.05-2.62,2.78-3.72,.24-.36,.27-.39,.55-.92,.21-.42,.49-1.03,.9-2.04,.18,.16,.35,.35,.53,.53,.44,.44,.71,.66,.89,.99,.05,.1,.16,.33,.27,.61,.67,1.74,1.21,2.74,1.51,3.46,.45,1.07,1.69,1.17,2.04,1.07-.34-1.36-1.14-4.13-1.58-5.48-.31-.95-.35-.97-.56-1.3-.24-.39-.46-.69-.68-.99-.46-.63-.94-1.24-1.43-1.85,.19-1.02,.48-2.27,.74-3.39,.11,.35,.24,.72,.44,1.11,.24,.46,1.03,1.18,1.39,1.56,.87,.92,1.78,.52,1.97,.42-.33-.44-1.15-1.38-1.37-1.65-.17-.21-.59-.71-.7-.96-.16-.33-.28-.77-.39-1.16-.05-.18-.57-2.35-.65-2.46-.28-.7-2.41-1.69-3.67-.94-.69,.41-2,1.38-2.66,2.11-.4,.44-.56,.71-.74,1.69-.11,.62-.17,1.33-.18,1.95-.01,.69,.35,1.34,1.07,1.49,.16-1.18,.4-2.93,.78-3.7,.15-.31,.85-.77,1.14-.96-.18,.86-.82,3.71-.82,4.37,0,.81,.52,1.23,.86,1.58l1.3,1.37s-.05,.08-.16,.02"/><path d="M43.14,2.09c.86-.17,1.03-.3,1.03-.47s-.52-.34-1.38-.38c0,0-1.31,.21-1.24,.76,.07,.55,.72,.26,1.59,.09"/><path d="M30.5,27.23l2.91,1.29c.47,.21,1,.21,1.47,0,1.33-.61,3.17-1.69,3.88-2.99,.14-.25,.17-.55,.16-.83,0-.27-.03-.54-.06-.79-.1-.86-.8-1.53-1.66-1.59-.5-.03-1.09-.05-1.73-.04-.48,0-.94,.19-1.28,.53l-3.7,3.7v.72Z"/><path d="M24.93,13.86c.31,.03,1.24-.97,1.48-1.21,.24-.24,.22-1.73,0-2.03-.22-.31-.4-.74-.85-.56-.46,.18-1.67,2.89-1.6,3.22s.66,.54,.97,.57"/><path d="M38.03,3.08c.65-.12,1.8-.08,1.77-.74,0,0-.03-.48-2.1-.12-2.07,.36-2.35,.34-2.35,.82s2.03,.16,2.68,.03"/><path d="M31.11,5.27s1.39-.87,2.49-.86,.63-.88,.63-.88c0,0-.76-.77-3.01,.65-2.25,1.41-1.66,1.58-1.62,1.67,.04,.09,.68,.1,1.51-.58"/><path d="M27.98,8.22c.31-.59,1.2-.75,.82-1.25,0,0-.83-.21-1.59,.65-.76,.86-1.24,1.28-.93,1.72,.31,.45,1.39-.54,1.7-1.13"/><path d="M17.66,43.04l.45-.27c.38-.23,.49-.56,.18-.87l-3.51-2.33c-.08-.05-.16-.08-.25-.08-.56,.02-2.44,0-2.44,1.24l1.74,.23c.32,.15,.62,.3,.95,.45l1.57,1.48c.36,.34,.89,.4,1.32,.15"/><path d="M13.05,42.22l-1.79-.2c-.26-.03-.53,.08-.69,.28-.26,.34-.5,.68-.7,1.04l2.39,.08c.36,.01,.71,.12,1.02,.31l.52,.33c.64,.4,1.45,.41,2.11,.03h.01l-1.72-1.4c-.33-.27-.73-.43-1.14-.48"/><path d="M52.81,20.46l4.21-2.81c.61-.41,.98-1.09,.98-1.83v-6.79c0-1.28-.62-2.48-1.66-3.22l-3.92-2.8c-.9-.64-2.04-.82-3.09-.48l-14.36,4.63c-.47,.15-.81,.55-.88,1.04l-.95,6.73c-.09,.61,.28,1.2,.86,1.39l1.11,.37c.52,.17,.88,.66,.88,1.21v2.02c0,.45,.36,.82,.8,.84,1.2,.06,2.31,.24,2.76,.69,.76,.76,.83,3.27,.83,3.9-.01,.09-.03,.18-.04,.28-.89,2.47-4.61,4.52-5.86,5.16-.25,.13-.55,.12-.79-.02l-4.09-2.31c-.37-.16-.6-.52-.6-.92v-4.67c0-.53,.31-1.01,.8-1.22h.03c.66-.3,.97-1.05,.71-1.72l-1.22-3.12c-.19-.49-.66-.82-1.19-.82-1.72,0-1.88,.14-2.87-.41-.68-.38-1.54-.06-1.82,.67-.27,.73-.44,7.43-1.75,11.09-1.06,2.96-2.81,5.27-4.05,6.65h7.36l-1.93-3.4c-.33-.57-.2-1.31,.3-1.74,.5-.43,1.24-.44,1.75-.04l7.74,6.11c.33,.26,.53,.66,.53,1.08s-.19,.82-.53,1.08l-7.74,6.11c-.52,.41-1.25,.39-1.75-.05-.5-.43-.63-1.17-.3-1.75l1.93-3.42h-8.95c.04,.06,.09,.12,.14,.18,.95,.94,3.18,3.15,3.18,3.15,.78,.78,.61,2.08-.34,2.63l-2.38,1.4c-.24,.14-.26,.49-.03,.66,1.14,.85,2.13,1.58,2.2,1.63,.19,.14,.06,.57,.06,.57l-4.52-2.51c-.9-.52-1.94-.81-2.97-.79,0,0-5.26,.41-3.88,1.79,.7,.64,2.1,2.26,2.57,2.1,.31-.1,.72-.44,.72-.44l3.04,1.72c.23,.1,.23-.32,.46-.72,.22-.41,.72-.57,1.15-.4,0,0,3.36,1.46,3.92,1.62,.44,.12,.82,.05,1.15-.35,.29-.35,1.05-1.58,1.05-1.58,.27-.41,.75-.62,1.23-.56l6.89,.9c.39,.05,.73,.27,.93,.61,.49,1,.66,1.24,1.21,1.55,.24,.13,7.7,3.3,7.7,3.3,.6,.26,.91,.93,.72,1.56l-1.12,3.6c0,.26,0,.5,0,.76l.54,1.72c.17,.53,.67,.9,1.22,.9h3.84c.71-.01,1.28-.58,1.28-1.29-.25-.42-1.29-2.41-1.53-2.53l-.58-.29c-.43-.22-.71-.66-.71-1.15v-.68c0-.34,.14-.67,.38-.91l2.24-1.95c.1-.17,.2-.33,.31-.5l1.72-5.15c.12-.36,.07-.75-.12-1.07l-4.23-6.9c-.22-.36-.25-.8-.08-1.19l.23-.52c.23-.52,.78-.83,1.35-.75l5.41,.77c.4,.06,.8-.08,1.09-.36l2.56-2.56c.54-.54,.52-1.41-.04-1.93l-.03-.03c-.56-.51-.58-1.39-.04-1.93l3.72-3.73c.24-.24,.38-.56,.38-.9v-2.19c0-.71-.57-1.28-1.28-1.28h-2.8c-.55,0-1.04-.35-1.21-.88l-.4-1.2c-.18-.55,.02-1.15,.5-1.47"/><path d="M17.04,50.87l-1.54-.67c-.12-.05-.25-.03-.35,.05l-1.27,1.09c-.11,.1-.27,.11-.39,.03l-2.18-1.43c-.18-.12-.42-.13-.61-.02l-.54,.31c-.2,.12-.45,.1-.63-.04l-1.94-1.43c-.17-.13-.41-.08-.52,.1l-1.49,2.4c-.07,.12-.06,.26,.02,.37l.83,.91c.1,.13,.25,.21,.42,.23,0,0,1.66,.43,1.88,.14,.22-.3,.27-1.12,.27-1.12l1.26,.05c.07,0,.13,0,.19,.04l3.52,1.88c.12,.06,.26,.05,.36-.04l2.79-2.29c.19-.15,.15-.45-.08-.55"/></g></g></svg>