<?xml version="1.0" encoding="UTF-8"?><svg id="Laag_1" xmlns="http://www.w3.org/2000/svg" xmlns:xlink="http://www.w3.org/1999/xlink" viewBox="0 0 64 64"><defs><style>.cls-1{fill:none;}.cls-2{clip-path:url(#clippath);}.cls-3{clip-path:url(#clippath-1);}</style><clipPath id="clippath"><rect class="cls-1" width="64" height="64"/></clipPath><clipPath id="clippath-1"><rect class="cls-1" width="64" height="64"/></clipPath></defs><g class="cls-2"><g class="cls-3"><path d="M52.23,44.76c-2.77,.95-6.37,2.41-9.22,3.61,.07,.43,.08,.89,.01,1.38-.41,2.81-2.82,4.58-6.24,4.74-7.73,.36-12.53-1.56-13.53-1.96-.29-.12-.32-.26-.29-.39h.01c5.6,.95,9.12,1.11,13.46,.41,3.29-.53,4.49-2.11,4.46-3.41-.03-1.27-.93-2.04-2.95-2.11-6.89-.24-10.92-1.01-16.82-1.87-4.1-.6-8.06,.47-11.43,2.63-3.16,2.03-4.04,2.98-4.04,2.98l5.79,11.14,7.48-3.04c.85-.35,1.78-.45,2.69-.3l10.26,2.28c2.29,.38,4.64-.06,6.64-1.22l20.48-12.85s-1-4.02-6.76-2.04"/><path d="M51.34,14.98c-.66-.65-1.01-1.56-1.62-2.89-.89-1.96-3-3.81-4.91-4.17-2.02-.38-2.87-.84-4.35-1.12-1.48-.28-3.71-1.87-6.21-2.04-3.34-.22-4.71,.71-6.67,1.3-1.99,.6-3.88-.23-6.47,.74-2.34,.87-3.24,2.4-4.72,4.16-1.44,1.71-1.72,1.47-3.42,2.41-1.85,1.02-4.19,3.83-3.83,7.69,.15,1.6-1.02,3.8-.64,5.93,.42,2.38,3.37,4.67,5.57,5.03,2.32,.38,5.54-.39,5.54-.39,.72,2.44,2.77,3.36,4.87,3.62,1.73,0,3.45-.12,5.92-1.24,2.83-1.27,3.01-2.03,5.57-2.53,1.63-.3,3.66-.42,5.16-.94,1.33-.45,2.07-.98,2.86-1.8,.06-.01,.15,0,.17,.19,.03,.41-.45,2.83-3.6,3.83-2.35,.7-4.37,.71-5.63,1.47-.89,.52-1.81,1.09-2.75,1.6,5.19,3.07,6.51,8.23,6.51,8.23h5.28c-.46-2.32-1.39-4.82-1.39-4.82,0,0,3.15-.83,5.65-3.8,2.5-2.96,2.59-7.5,2.59-7.5,0,0,3.16-2.1,3.25-5.72,.09-3.61-.62-5.15-2.74-7.23m-31.9-2.76c2.59-2.37,7.26-3.46,9.3-.65,1.42,1.96,.82,4.57,.03,5.29-.18,.16-.34,.08-.35,.07-.04-.88-.09-1.91-.47-2.91-1.15-3.11-5.25-1.76-7.21-.14-1.45,1.18-2.83,3.11-3.49,4.59l-.03,.08c-.07,.02-.17,0-.26-.13-1.08-1.58,1.09-4.91,2.5-6.2m-.91,13.53c-3.18,1.83-6.4-.03-5.9-2.44,.06-.29,.2-.28,.24-.28,.65,1.15,3.23,2.07,6.42-.69,.97-.85,2.02-2.15,2.84-3.1,.05-.02,.18-.05,.23,.15,.35,1.4-1.09,4.8-3.83,6.35m8.07,.52c-.46,.93-.28,2.57-.07,3.7-.33,.72-3.15-1.64-2.5-4.25,.49-1.95,2.18-3.04,3.67-3.75,2.45-1.17,4.46-1.38,6.38-3.73h0s.27-.1,.34,.23c.32,1.43-1.39,3.18-2.84,4.08-1.81,1.11-4.34,2.41-4.98,3.73m22.78-4.15c-.08,.32-.3,.51-.31,.5-.77-2.02-2.77-3.27-5.69-2.87-.47,1.68-1.37,2.89-2.45,4.01-2.23,2.27-4.94,3.58-8.02,4.46-.51-.27,.31-1.36,1.54-2.06,1.78-1.01,3.53-2.46,4.9-3.99,1.98-2.16,2.9-4.95,1.73-7.35-1.12-2.25-3.85-3.22-6.32-3.58-.03-.07-.07-.23,.14-.36,1.94-1.21,6.42-.05,8.09,2.96,.54,.94,.86,2.17,.79,3.56,1.37-.13,3.15,.33,4.49,1.43,1.28,1.24,1.22,2.84,1.11,3.26"/></g></g></svg>