<?xml version="1.0" encoding="UTF-8"?><svg id="Laag_1" xmlns="http://www.w3.org/2000/svg" xmlns:xlink="http://www.w3.org/1999/xlink" viewBox="0 0 64 64"><defs><style>.cls-1{fill:none;}.cls-2{clip-path:url(#clippath);}.cls-3{clip-path:url(#clippath-1);}</style><clipPath id="clippath"><rect class="cls-1" width="64" height="64"/></clipPath><clipPath id="clippath-1"><rect class="cls-1" width="64" height="64"/></clipPath></defs><g class="cls-2"><g class="cls-3"><path d="M52.89,40.7c-.42-2.83-.87-5.65-1.35-8.46-.24-1.44-1.78-1.99-2.85-1.01-2.17,1.99-4.32,4-6.45,6.05-1.07,1.03-.73,2.52,.65,3.08,.47,.19,.97,.33,1.48,.51-.95,3.91-5.3,8.16-9.37,8.13V22.4c-2.56,.19-3.5-.4-3.37-.6,.12,0,.24,.02,.37,.02,3.45,0,6.25-2.8,6.25-6.25s-2.8-6.24-6.25-6.24-6.25,2.8-6.25,6.24c0,2.36,1.31,4.42,3.25,5.48v27.95c-4.07,.03-8.41-4.22-9.37-8.13,.52-.18,1.01-.32,1.48-.51,1.38-.56,1.72-2.05,.65-3.08-2.12-2.04-4.27-4.06-6.45-6.05-1.07-.98-2.61-.43-2.85,1.01-.48,2.82-.94,5.64-1.35,8.46-.23,1.59,.97,2.57,2.5,2.09,.4-.12,.8-.27,1.21-.4,3.17,7.72,8.77,12.61,17.18,12.61s14.01-4.89,17.18-12.61c.41,.14,.81,.28,1.21,.4,1.53,.47,2.73-.5,2.5-2.09M29.36,15.57c0-1.46,1.18-2.64,2.64-2.64s2.64,1.18,2.64,2.64-1.18,2.64-2.64,2.64-2.64-1.18-2.64-2.64"/></g></g></svg>