<?xml version="1.0" encoding="UTF-8"?><svg id="Laag_1" xmlns="http://www.w3.org/2000/svg" xmlns:xlink="http://www.w3.org/1999/xlink" viewBox="0 0 64 64"><defs><style>.cls-1{fill:none;}.cls-2{clip-path:url(#clippath);}.cls-3{clip-path:url(#clippath-1);}</style><clipPath id="clippath"><rect class="cls-1" width="64" height="64"/></clipPath><clipPath id="clippath-1"><rect class="cls-1" width="64" height="64"/></clipPath></defs><g class="cls-2"><g class="cls-3"><path d="M40.65,48.91c-1.43,4.24-5.43,7.3-10.15,7.3-5.92,0-10.71-4.8-10.71-10.71,0-2.7,1.01-5.16,2.65-7.04-.61-1.03-.94-2.2-.94-3.46,0-.02,0-.34,.03-.88-3.36,2.66-5.53,6.76-5.53,11.38,0,8.01,6.49,14.5,14.5,14.5,4.95,0,9.31-2.48,11.93-6.27l-.64-1.76c-.35-.95-.74-1.99-1.15-3.07"/><path d="M45.26,36.64c-.75-1.78-1.37-2.26-2.72-2.85-2.02-.8-5.86-1.64-8-2.08,.52-3.25,.86-6.36,1.12-8.26,.33-2.45,.71-3.96-.52-5.48-1.62-2.01-5.06-2.28-7.13-1.24-1,.34-5.91,3.06-8.38,5.59-.83,.91-1.12,1.33-1.47,2.08-1.25,2.7-2.45,7.6-3.16,10.49,2.7,.67,4.1-1.69,4.48-2.47,.75-1.7,1.62-4.19,2.6-5.77,.56-1.06,1.93-1.83,3-2.46-.7,3.86-1,8.28-.98,10.82,.02,3.5,3.02,5,5.9,5s10.11,0,10.19,0c1,3.19,2.82,8,3.79,10.64,1.88,5.11,5.01,4.62,6.02,4.36-.98-4.03-3.22-14.53-4.74-18.36"/><path d="M34,14.92c2.97,.48,5.02-1.34,5.5-4.35,.55-3.43-.96-5.56-3.85-6.03-3.05-.49-5.04,1.42-5.53,4.52-.52,3.26,.91,5.38,3.88,5.86"/></g></g></svg>