<?xml version="1.0" encoding="UTF-8"?><svg id="Laag_1" xmlns="http://www.w3.org/2000/svg" xmlns:xlink="http://www.w3.org/1999/xlink" viewBox="0 0 64 64"><defs><style>.cls-1{fill:none;}.cls-2{clip-path:url(#clippath);}.cls-3{clip-path:url(#clippath-1);}</style><clipPath id="clippath"><rect class="cls-1" width="64" height="64"/></clipPath><clipPath id="clippath-1"><rect class="cls-1" width="64" height="64"/></clipPath></defs><g class="cls-2"><g class="cls-3"><path d="M7,50V23.29l-3.15-.93c-.34-.11-.22-.36-.22-.36h14.37c.55,0,1-.45,1-1V6.63s.25-.11,.36,.23l.93,3.13h16.71v9.33c1.07-.6,2.35-1.11,3.88-1.53,.39-.11,.76-.18,1.12-.24V7c0-1.1-.9-2-2-2H18.83c-.53,0-1.04,.21-1.41,.59L2.59,20.41c-.38,.38-.59,.88-.59,1.41v31.17c0,1.1,.9,2,2,2H23.74c.4-1.76,.94-3.58,1.66-5H7Z"/><path d="M59.95,49.85c-1.73-1.82-7.06-3.43-9.44-4.08-1.11-.3-1.28-1.43-1.41-2.58,1.51-1.69,2.64-3.73,3.02-6.43,1.45-.44,1.74-2.25,1.74-3.38s-.2-1.74-.6-1.92c-.2-.09-.39-.09-.56-.05,.15-2.35,.29-7-.69-8.75-1.07-1.91-2.49-2.41-4.97-1.78-1.63-.86-2.73-1.72-5.58-.94-1.98,.54-4.14,1.42-5.28,2.89-1.23,1.59-.99,6.21-.79,8.59-.18-.05-.4-.06-.62,.04-.4,.19-.6,.8-.6,1.92s.29,2.94,1.74,3.38c.34,2.85,1.48,4.82,3.01,6.47-.11,.99-.21,1.94-1.08,2.4-1.9,.51-7.86,2.25-9.74,4.23-2.24,2.36-3.11,11.15-3.11,11.15H63.03s-.84-8.8-3.08-11.15"/><path d="M28.12,25.46l-7.22,8.13-4.76-4.19c-.61-.53-1.51-.54-2.13-.02-.62,.52-.78,1.4-.37,2.1,0,0,2.61,3.99,5.99,8.95,.33,.48,.83,.81,1.42,.82h0c.58,0,1.1-.31,1.41-.8,5.22-8.24,8.3-13.03,8.3-13.03,.44-.73,.25-1.67-.44-2.17-.68-.5-1.64-.41-2.21,.23"/></g></g></svg>