<?xml version="1.0" encoding="UTF-8"?><svg id="Laag_1" xmlns="http://www.w3.org/2000/svg" xmlns:xlink="http://www.w3.org/1999/xlink" viewBox="0 0 64 64"><defs><style>.cls-1{fill:none;}.cls-2{clip-path:url(#clippath);}.cls-3{clip-path:url(#clippath-1);}</style><clipPath id="clippath"><rect class="cls-1" width="64" height="64"/></clipPath><clipPath id="clippath-1"><rect class="cls-1" width="64" height="64"/></clipPath></defs><g class="cls-2"><g class="cls-3"><path d="M36.28,15.33c2.99,.55,5.19-.88,5.85-3.41,.76-2.87-.65-4.75-3.57-5.28-3.07-.56-5.21,.95-5.89,3.55-.72,2.73,.61,4.59,3.6,5.14"/><path d="M45.5,27.29c-1.07-.73-3.23-4.11-3.86-5.13-1.43-2.32-2.06-4.79-9.06-5.38-.65-.06-1.35-.07-2.09-.04-.23-1.35-1.4-2.51-3.08-2.87l-2.89-.67c-2.22-.47-6.1,.78-7.45,5.01l-2.58,8.7c-.56,1.85,.78,3.73,2.99,4.2l4.41,.93c1.42,.3,2.86-.06,3.85-.84-.1,.53-.18,.97-.24,1.29-.66,3.63,2.08,4.82,5.05,6.33,0,0,0,.15-.37,.15-.21,0-1.67-.2-3.38-.44-.85,1.58-2.81,5.11-3.82,6.54-2.61-.02-7.26-1.09-8.58-1.33-3.69-.65-4.93,2.66-4.93,2.66,3.23,1.03,11.16,3.47,14.58,3.27,1.98-.11,2.71-.71,4.17-2.44,1.59-1.88,3.75-4.88,5.1-6.78,1.6,.66,3.88,1.62,5.4,2.37,.59,2.39,.99,8.08,1.13,10.5,.08,1.3,1.64,3.48,4.76,4.15,.25-3.38,.43-5.53,.55-8.89,.06-1.75,.12-3.59,.01-5.57-.08-1.18-.14-2.11-.67-3.07-.5-.89-1.73-1.91-8.44-6,.69-2.82,1.6-6.1,2.37-8.75,1,1.55,3.15,4.59,5.08,5.34,1.53,.59,5.29,.57,7.02,.46,3.02-.19,3.82-2.35,3.97-2.85-5.47-.42-8.01-.61-9.02-.85"/></g></g></svg>