<?xml version="1.0" encoding="UTF-8"?><svg id="Laag_1" xmlns="http://www.w3.org/2000/svg" xmlns:xlink="http://www.w3.org/1999/xlink" viewBox="0 0 64 64"><defs><style>.cls-1{fill:none;}.cls-2{clip-path:url(#clippath);}.cls-3{clip-path:url(#clippath-1);}</style><clipPath id="clippath"><rect class="cls-1" width="64" height="64"/></clipPath><clipPath id="clippath-1"><rect class="cls-1" width="64" height="64"/></clipPath></defs><g class="cls-2"><g class="cls-3"><path d="M29,44l-10-6H1c0,4.97,4.03,9,9,9H54c4.97,0,9-4.03,9-9h-25l-9,6Z"/><path d="M52.74,22.46c-2.96-1.3-6.71-1.54-10.44-1.04,2.22,2.23,3.03,4.05,3.25,4.58,.27,.67,.34,1.03,.08,1.24-.85-.6-4.04-4.75-11.12-6.39-5.66-1.31-10.58-.86-14.87,.74,3.68,2.55,5.03,4.95,5.3,5.5,.32,.65,.43,1,.19,1.23-.9-.52-4.99-4.3-12.14-5.32-7.6,.82-12,6.56-12,13H63c0-5.86-3.39-10.51-10.26-13.54"/></g></g></svg>