<?xml version="1.0" encoding="UTF-8"?><svg id="Laag_1" xmlns="http://www.w3.org/2000/svg" xmlns:xlink="http://www.w3.org/1999/xlink" viewBox="0 0 64 64"><defs><style>.cls-1{fill:none;}.cls-2{clip-path:url(#clippath);}.cls-3{clip-path:url(#clippath-1);}</style><clipPath id="clippath"><rect class="cls-1" width="64" height="64"/></clipPath><clipPath id="clippath-1"><rect class="cls-1" width="64" height="64"/></clipPath></defs><g class="cls-2"><g class="cls-3"><path d="M57.65,26.84l-7.11-13.32c-.23-.44-.62-.77-1.08-.94l-15.45-5.58,2.26,15.8c4.48,1.23,17.16,4.7,17.45,4.79,.35,.11,.3,.34,.28,.41H10.02c-.02-.06-.08-.29,.28-.41,.29-.09,12.97-3.56,17.45-4.79l2.26-15.8-15.45,5.58c-.47,.17-.85,.5-1.08,.94l-7.11,13.32c-.23,.43-.35,.92-.35,1.41v24.62c0,.55,.45,1,1,1H57c.55,0,1-.45,1-1V28.25c0-.49-.12-.98-.35-1.41m-31.15,7.16l4,5h-2.5v5h-3v-5h-2.5l4-5Zm13.5,14H23v-2h17v2Zm-2-9v5h-3v-5h-2.5l4-5,4,5h-2.5Z"/></g></g></svg>