<?xml version="1.0" encoding="UTF-8"?><svg id="Laag_1" xmlns="http://www.w3.org/2000/svg" xmlns:xlink="http://www.w3.org/1999/xlink" viewBox="0 0 64 64"><defs><style>.cls-1{fill:none;}.cls-2{clip-path:url(#clippath);}.cls-3{clip-path:url(#clippath-1);}</style><clipPath id="clippath"><rect class="cls-1" width="64" height="64"/></clipPath><clipPath id="clippath-1"><rect class="cls-1" width="64" height="64"/></clipPath></defs><g class="cls-2"><g class="cls-3"><path d="M18.07,32.9c-.62-3.45-6.65-5.02-9.89-1.63-3.75,3.92-.65,9.16-.65,9.16,0,0-4.28,1.98-3.54,6.61,.91,5.64,6.55,5.43,6.55,5.43,0,0-3.18-2.02-3.01-6.02,.13-3.01,4.52-4.52,4.52-4.52,0,0-4.05-4.84-1.05-7.94,2.97-3.06,7.07-1.1,7.07-1.1m40.23-3.04c-.53-9.52-9.17-16.87-19.31-16.87s-18.77,7.34-19.31,16.87l-.66,11.75,4.67,6.1,4.43-1.02,3.94,7.58-4.29-4.59-4.7,1.21-4.35-3.97-.73,13.08H59.99l-1.68-30.13Zm-19.31,3.8c1.29,0,2.34,1.05,2.34,2.33s-1.05,2.34-2.34,2.34-2.34-1.05-2.34-2.34,1.05-2.33,2.34-2.33m-11.11,2.33c0-4.1,2.24-7.68,5.56-9.6l3.35,5.8c-1.32,.76-2.22,2.17-2.22,3.8h-6.7Zm11.11,11.09c-2.02,0-3.91-.55-5.55-1.49l3.35-5.8c.65,.38,1.39,.61,2.2,.61s1.55-.23,2.2-.61l3.35,5.8c-1.63,.94-3.53,1.49-5.55,1.49m4.41-11.09c0-1.63-.9-3.04-2.22-3.8l3.35-5.8c3.32,1.92,5.56,5.49,5.56,9.6h-6.69Z"/></g></g></svg>