<?xml version="1.0" encoding="UTF-8"?><svg id="Laag_1" xmlns="http://www.w3.org/2000/svg" xmlns:xlink="http://www.w3.org/1999/xlink" viewBox="0 0 64 64"><defs><style>.cls-1{fill:none;}.cls-2{clip-path:url(#clippath);}.cls-3{clip-path:url(#clippath-1);}</style><clipPath id="clippath"><rect class="cls-1" width="64" height="64"/></clipPath><clipPath id="clippath-1"><rect class="cls-1" width="64" height="64"/></clipPath></defs><g class="cls-2"><g class="cls-3"><path d="M15.24,26.55c2.89-.73,4.06-3.17,3.33-6.09-.84-3.32-3.03-4.67-5.85-3.96-2.97,.75-4.04,3.26-3.29,6.25,.79,3.16,2.92,4.52,5.81,3.8"/><path d="M39,7c0-3.31-2.69-6-6-6s-6,2.69-6,6,2.69,6,6,6,6-2.69,6-6"/><path d="M21.6,42.11c-.91-6.1-.66-8.33-.66-8.33,4.87-3.51,6.53-8.81,5.68-14.36-.35-2.25-1.84-3.72-4.02-3.08,1.93,6.51,.65,12.11-7.16,13.08-7.24,.9-11.45-3.1-11.07-10.58h0c-2.11-.07-3.22,1.97-3.1,4.08,.34,5.75,3.73,9.75,8.89,11.54,.43,7.35,.6,8.63,3.33,16.81,0,0-1.95,1.18-3.1,1.97-2.09,1.43-3.06,3.65-1.88,5.89h0c1.85-.99,7.09-3.79,8.85-4.74,.82-.44,1.31-1.37,1.16-2.34-.08-.53-.48-2.96-.84-5.2,.74,.54,1.85,1.36,4.97,3.65-.11,1.86-.27,4.46-.27,6.39,0,3.01,1.27,4.33,3.8,4.92,0,0,1.01-8.51,1.53-12.82,.09-.77-.21-1.57-.83-2.13-2.2-1.95-3.98-3.57-5.28-4.77"/><path d="M45.2,26.68c2.3,.36,4.03-.67,4.91-2.55,.49,.74,1.41,1.65,2.85,1.3,2.13-.51,1.81-2.17,4.49-1.58,.22,.05,.38-.21,.22-.37-.78-.84-2.48-2.33-4.59-2.15-1.14,.1-1.9,.42-2.42,.78,.41-3.23-1.07-5.24-3.86-5.68-3.02-.47-4.99,1.42-5.47,4.47-.5,3.22,.92,5.3,3.87,5.77"/><path d="M54.82,34.53c-4.68-2.92-4.19-4.74-7.83-5.55-3.98-.88-6.77,.9-9.76-4.5-1.02-1.84-1.88-4.49-2.64-8.29-2.15,.57-2.97,2.48-2.44,5.01,.97,4.61,2.56,9.03,6.77,11.72-1.09,3.23-2.92,9.16-3.84,14.97-.09,.6,.38,1.1,.99,1.1h2.31c-.21,1.36-.34,2.54-.38,2.83-.13,.97,0,1.62,.24,2.35,.75,2.33,2.46,7.08,3.09,8.87h0c2.39-.83,3.08-2.51,2.39-5.33-.68-2.82-1.21-5.05-1.21-5.05l1.12-3.66h1.03c.16,.98,.29,1.82,.33,2.08,.11,.67,.49,1.28,1.1,1.68,8.01,5.2,6.21,4.03,8.56,5.56h0c1.57-2.04,.44-3.78-1.18-5.58-.94-1.04-1.82-1.92-2.47-2.54l-3.89-.77c-.32-.1-.27-.38-.25-.44h4.78c.63,0,1.1-.57,.98-1.19l-2.24-11.72c2.32,1.97,4.3,3.11,6.64,3.42,2.47,.33,4.58-.08,4.99-2.33-3.02-.57-5.25-1.43-7.22-2.66"/></g></g></svg>