<?xml version="1.0" encoding="UTF-8"?><svg id="Laag_1" xmlns="http://www.w3.org/2000/svg" xmlns:xlink="http://www.w3.org/1999/xlink" viewBox="0 0 64 64"><defs><style>.cls-1{fill:none;}.cls-2{clip-path:url(#clippath);}.cls-3{clip-path:url(#clippath-1);}</style><clipPath id="clippath"><rect class="cls-1" width="64" height="64"/></clipPath><clipPath id="clippath-1"><rect class="cls-1" width="64" height="64"/></clipPath></defs><g class="cls-2"><g class="cls-3"><path d="M50.58,36.96c-1.98-10-12.99-16.3-17.46-29.59-.35-1.03-.66-1.37-1.12-1.37s-.77,.33-1.12,1.37c-4.46,13.29-15.44,19.59-17.46,29.59-2.11,10.48,6.26,20.04,18.57,20.04s20.65-9.53,18.57-20.04m-6.28,11.06c-2.79,3.37-7.27,5.3-12.29,5.3s-9.52-1.94-12.32-5.33c-2.39-2.89-3.3-6.51-2.55-10.19,.83-4.09,3.72-7.74,7.06-11.97,2.61-3.3,5.47-6.9,7.81-11.3,2.34,4.38,5.19,7.98,7.8,11.27,3.35,4.23,6.25,7.88,7.06,11.98,.74,3.71-.18,7.34-2.58,10.24"/><path d="M25.64,43.35c-2.37-2.89-3.33-6.52-2.65-10.22-.15-.09-.36-.11-.54,.19-1.02,1.68-1.83,3.26-2.15,4.86-.55,2.75,.12,5.46,1.9,7.62,2.18,2.66,5.76,4.19,9.81,4.19,1.49,0,2.91-.21,4.22-.61,.36-.11,.42-.3,.31-.45-4.49-.55-8.37-2.52-10.89-5.6"/></g></g></svg>