<?xml version="1.0" encoding="UTF-8"?><svg id="Laag_1" xmlns="http://www.w3.org/2000/svg" xmlns:xlink="http://www.w3.org/1999/xlink" viewBox="0 0 64 64"><defs><style>.cls-1{fill:none;}.cls-2{clip-path:url(#clippath);}.cls-3{clip-path:url(#clippath-1);}</style><clipPath id="clippath"><rect class="cls-1" width="64" height="64"/></clipPath><clipPath id="clippath-1"><rect class="cls-1" width="64" height="64"/></clipPath></defs><g class="cls-2"><g class="cls-3"><path d="M42,27v-5l-5-7v-6L32,1l-5,8v6l-5,7v5h-2v20c0,.55,.45,1,1,1h6.98c.02,.06,.07,.26-.25,.36l-5.73,1.14v13.49h20v-15h1c.55,0,1-.45,1-1V27h-2Zm-10,18.23c-4.27,0-7.73-3.46-7.73-7.72s3.46-7.73,7.73-7.73,7.72,3.46,7.72,7.73-3.46,7.72-7.72,7.72"/><path d="M33.13,36.58c-.04-.6-.24-3.34-.27-3.73-.03-.46-.39-.8-.84-.8s-.81,.33-.84,.8c-.04,.53-.31,4.01-.33,4.53-.03,.64,.37,.94,.76,1.15,.5,.27,3.16,1.67,3.43,1.8,.49,.24,.89,.1,1.09-.24,.19-.33,.1-.73-.26-1.05-.33-.31-2.42-2.2-2.74-2.46"/></g></g></svg>