<?xml version="1.0" encoding="UTF-8"?><svg id="Laag_1" xmlns="http://www.w3.org/2000/svg" xmlns:xlink="http://www.w3.org/1999/xlink" viewBox="0 0 64 64"><defs><style>.cls-1{fill:none;}.cls-2{clip-path:url(#clippath);}.cls-3{clip-path:url(#clippath-1);}</style><clipPath id="clippath"><rect class="cls-1" width="64" height="64"/></clipPath><clipPath id="clippath-1"><rect class="cls-1" width="64" height="64"/></clipPath></defs><g class="cls-2"><g class="cls-3"><path d="M36.99,3.01l-9.21,1.76c-.63,.12-.59,1.04,.05,1.1l7.67,.73C25.41,29.89,9.33,42.93,9.33,42.93h27.67V3.01Z"/><path d="M57.6,41s-6.33-14.01-18.6-26.1v27.19s9.88-6.07,18.6-1.09"/><path d="M60.9,43.5c-18.81-1.51-45.59,4.1-50.96,5.28-.77,.17-1.44,.61-1.91,1.25-1.13,1.56-2.37,4.2-3,5.63,1.89-.49,3.75-1.79,5.4-2.86,1.99,1.3,4.49,3.06,6.85,3.06s4.87-1.77,6.86-3.08c1.98,1.3,4.47,3.08,6.86,3.08s4.83-1.74,6.86-3.06c1.98,1.29,4.48,3.06,6.85,3.06s4.83-1.74,6.86-3.06c1.08,.7,1.83,1.21,2.79,1.75,1.85-3.01,4.32-6.57,7.14-9.43,.57-.58,.22-1.56-.6-1.62"/><path d="M51.57,55.43c-1.92,1.25-4.31,2.64-6.86,2.64s-4.95-1.39-6.86-2.64c-1.92,1.25-4.31,2.64-6.86,2.64s-4.9-1.36-6.86-2.64c-1.98,1.3-4.37,2.64-6.86,2.64s-4.95-1.39-6.86-2.64c-1.93,1.25-4.32,2.64-6.86,2.64-.87,0-1.76-.19-2.57-.45v4.07c.82,.19,1.69,.31,2.57,.31,2.75,0,5.42-1.18,6.86-1.94,1.44,.76,4.11,1.94,6.86,1.94s5.41-1.18,6.86-1.94c1.44,.76,4.11,1.94,6.86,1.94s5.41-1.18,6.86-1.94c1.44,.76,4.11,1.94,6.86,1.94s5.42-1.18,6.86-1.94c1.44,.76,4.11,1.94,6.86,1.94,.88,0,1.75-.12,2.57-.31v-4.07c-.81,.26-1.7,.46-2.57,.46-2.53,0-4.95-1.39-6.86-2.64"/></g></g></svg>