<?xml version="1.0" encoding="UTF-8"?><svg id="Laag_1" xmlns="http://www.w3.org/2000/svg" xmlns:xlink="http://www.w3.org/1999/xlink" viewBox="0 0 64 64"><defs><style>.cls-1{fill:none;}.cls-2{clip-path:url(#clippath);}.cls-3{clip-path:url(#clippath-1);}</style><clipPath id="clippath"><rect class="cls-1" width="64" height="64"/></clipPath><clipPath id="clippath-1"><rect class="cls-1" width="64" height="64"/></clipPath></defs><g class="cls-2"><g class="cls-3"><path d="M56.99,38.24c-.68-1.22-1.04-1.84-1.69-2.56,.5-.72,.67-1.22,.67-1.22-2.71-3.68-5.48-5.43-6.56-6.02,.06-2.05-.03-4.54-.2-6.7,.71,1.12,1.52,2.27,2.41,3.17,.67,.63,3.56,2.45,4.33,2.9,1.79,1.04,3.1-.13,3.42-.44-1.84-1.7-5.62-4.58-5.62-4.58-2.95-3.22-3.08-6.45-5.42-7.72-1.17-.64-5.43-1.37-7.15,.37-1.07,1.08-3.35,4.71-4.22,6.89-.24,.64-.34,.91-.37,1.93-.04,1.79,.41,4.86,.59,5.71,.27,1.3,1.26,2.5,2.79,2.49-.05-.77-.33-2.57-.37-5.25-.01-.9,0-1.88,.11-2.73,.12-.91,.81-1.97,1.61-3.03,.37,2.22,.82,4.64,.5,6.69-.24,1.53-.64,2.73,.08,4.64,.22,.57,.74,3.1-1.24,6.98,.12,.04,2.7,.79,5.78,.53,.09,.17-.04,.41-.31,.52-.23,.09-1.43,.44-2.85,.46-.4,1.26-1.12,3.63-2.56,8.05-.87,2.67,1.28,4.29,1.75,4.62,1.86-4.26,2.99-7.09,4.07-9.71,.74-1.79,.89-2.37,1.35-4.11v-.03c.62-.12,1.23-.27,1.85-.49,.71-.26,1.34-.54,1.9-.84,.63,.42,.77,.68,1.55,1.8,1.48,2.15,3.35,5.17,4.72,7.4,1.22,2,3.02,2.56,4.87,1.99h.02c-1.65-3.47-3.98-8.35-5.81-11.72m-12.79-25.33c2.3-.34,3.39-2.15,3.05-4.47-.39-2.64-1.99-3.85-4.23-3.52-2.36,.35-3.38,2.21-3.03,4.6,.37,2.51,1.91,3.73,4.21,3.39m-31.08,5.72c1.99-1.29,2.34-3.26,.93-5.43-1.34-2.06-3.38-2.8-5.42-1.47-1.94,1.26-2.34,3.26-.86,5.55,1.3,2.01,3.35,2.65,5.34,1.36m25.82,14.69l-6.24-2-1.32-6.01c1.29,.97,3.13,2.42,4.66,3.83-.1-.63-.2-1.43-.28-2.25-1.16-.99-2.34-1.92-3.28-2.63,.38-1.19-.05-2.52-1-3.46h0c-1.39-1.33-3.68-3.53-5.48-4.02-1.67-.49-6.78,.62-9.73,2.1-3.5,1.75-4.22,3.4-5.21,4.98-1.61,2.58-2.26,3.48-2.8,4.03-.49,.07-5.67-1.13-7.51-1.48-.06,2.21,.89,2.7,2.9,3.61,1.54,.7,4.61,1.16,5.72,1.04,1.22-.13,3.1-2.42,4.56-4.79,1.42,2.09,3.57,4.38,4.81,7.08-4.62,1.12-6.46,2.36-6.94,3.13-.52,.82-.62,2.35-.49,3.43,.24,1.82,.57,3.49,.9,5.08,.62,3.04,1.11,4.98,1.83,8.03,2.27-1.03,3.12-3.22,2.97-4.42-.28-2.22-.94-7.04-1.09-8.92,.91-.13,3.1-.38,4.8-.63,1.04,1.75,2.93,4.81,4.11,6.59,.53,.81,.97,1.31,1.66,1.88,2.05,1.68,8.02,4.83,10.41,6.02,0,0,.69-3.52-1.69-5.2-.85-.6-4.2-3.2-6.33-4.69-.78-1.32-2.3-4.59-2.95-6.05-1.32,.23-2.45,.41-2.61,.41-.29,0-.29-.14-.29-.14,2.3-1.4,4.57-2.79,3.84-6.11-.36-1.67-3.76-7.19-5.94-10.28,1.72-.68,4.14-1.15,4.57-1.24,.76,.01,2.32,1.18,3.75,2.36l1.97,8.96-1.51,4.7c-.17,.54,.12,1.12,.67,1.3l7.29,2.34c.54,.17,1.12-.12,1.3-.67l1.38-4.28h0c.16-.62,.27-.79,.27-1.46-.47,.04-1.01,.03-1.66-.17"/></g></g></svg>