<?xml version="1.0" encoding="UTF-8"?><svg id="Laag_1" xmlns="http://www.w3.org/2000/svg" viewBox="0 0 64 64"><defs><style>.cls-1{fill:none;}</style></defs><rect class="cls-1" width="64" height="64"/><path d="m44.93,26.55l-3.49-9.6-1.92.7,3.49,9.6,1.92-.7Zm-14.09-2.85l.7,1.92,7.68-2.8-.7-1.92-7.68,2.8Zm-3.02.41c.39-.47.52-1.01.48-1.44-.13-1.03-.86-1.64-2.53-1.7l-7.55-.23c-1.52-.05-2.58-1.51-2.16-2.97l.67-2.35,4.9.09c-.46.35-.66.97-.45,1.54l.65,1.78,4.01.12c.43.01.81.06,1.16.13l-.4-1.1,10.88-3.96-.37-1.02-.09-.26,3.2-1.16.47,1.28,10.88-3.96,3.73,10.24,1.66-.6,2.24,6.14-28.29,10.3-2.24-6.14,1.66-.6-1.02-2.8c-.84,1.01-2.21,1.79-3.96,2.23-.1.02-.19.04-.29.06l3.58,9.83c.2.55.72.9,1.28.9.15,0,.31-.03.47-.08l31.37-11.42c.71-.26,1.07-1.04.81-1.75l-7.46-20.49c-.2-.55-.72-.9-1.28-.9-.15,0-.31.03-.47.08l-25.51,9.28-2-1.67c-.56-.47-1.24-.77-1.96-.87l-7.23-1.02c-1.79-.25-3.6.28-4.97,1.46L.92,20.39l.12,11.41s5.27-.61,9.06-1.02c2.11-.25,4.7-3.18,4.75-3.17,2.03-1.22,6.33-1.03,10.02-1.87,1.52-.38,2.46-.99,2.96-1.62Zm5.81,7.28l7.68-2.8-.7-1.92-7.68,2.8.7,1.92Zm-4.19-11.52l.7,1.92,7.68-2.8-.7-1.92-7.68,2.8Zm30.18,25.92c-2.99-1.91-6.5-2.86-10.13-2.33-5.23.76-8.81,1.44-14.91,1.66-1.8.06-2.59.74-2.62,1.87-.02,1.15,1.03,2.55,3.95,3.02,3.85.62,6.98.48,11.93-.38,0,0,0,0,0,0,.02.12,0,.24-.26.34-.88.36-5.14,2.06-11.99,1.74-3.03-.14-5.16-1.71-5.53-4.2-.06-.43-.05-.84.01-1.22-2.53-1.06-5.72-2.36-8.17-3.2-5.1-1.75-5.99,1.81-5.99,1.81l18.15,11.39c1.78,1.03,3.86,1.42,5.89,1.08l9.1-2.02c.81-.13,1.63-.04,2.39.27l6.63,2.7,5.13-9.88s-.78-.85-3.58-2.65Zm-4.86-22.08l-.7-1.92-7.68,2.8.7,1.92,7.68-2.8Zm-9.78-2.97l.7,1.92,7.68-2.8-.7-1.92-7.68,2.8Z"/></svg>