<?xml version="1.0" encoding="UTF-8"?><svg id="Laag_1" xmlns="http://www.w3.org/2000/svg" xmlns:xlink="http://www.w3.org/1999/xlink" viewBox="0 0 64 64"><defs><style>.cls-1{fill:none;}.cls-2{clip-path:url(#clippath);}.cls-3{clip-path:url(#clippath-1);}</style><clipPath id="clippath"><rect class="cls-1" width="64" height="64"/></clipPath><clipPath id="clippath-1"><rect class="cls-1" width="64" height="64"/></clipPath></defs><g class="cls-2"><g class="cls-3"><path d="M27.03,47.1c-11.97,0-14.56-4.69-14.83-5.44-.09-.25-.09-.39-.03-.45,3.37,2.33,8.49,3.79,14.33,3.79,2.07,0,4.05-.19,5.9-.53l12.6-12.6v-2.38c0-.22-.03-.44-.06-.66-1.26,1.61-6.44,7.27-17.91,7.27s-14.56-4.69-14.83-5.44c-.09-.25-.09-.39-.03-.45,3.37,2.33,8.49,3.79,14.33,3.79,10.37,0,18.5-4.62,18.5-10.51v-4.75c-1.29,1.64-6.48,7.24-17.89,7.24-11.97,0-14.56-4.69-14.83-5.44-.09-.25-.09-.39-.03-.45,3.37,2.33,8.49,3.79,14.33,3.79,7.82,0,14.34-2.63,17.08-6.44,.62-.86,.63-2.01,.03-2.88-2.69-3.88-9.27-6.57-17.18-6.57-10.35,0-18.46,4.58-18.5,10.44v4.97c-.01,1.08,.26,2.11,.75,3.08-.48,.94-.75,1.94-.75,2.99v5c0,1.05,.27,2.05,.75,3-.48,.95-.75,1.95-.75,3v5c0,5.89,8.12,10.51,18.5,10.51,.49,0,.96-.02,1.44-.04l3.03-9.1c-1.22,.15-2.53,.24-3.94,.24"/><path d="M52.18,28.93l-17.79,17.8c-.2,.2-.36,.45-.45,.72l-3.62,10.86c-.15,.46,.28,.89,.74,.74l10.86-3.62c.27-.09,.52-.24,.72-.45l17.8-17.8-8.26-8.26Zm-15.23,20.57l-.26-.26c-.28-.28-.28-.73,0-1.01l15.49-15.49,1.27,1.27-15.49,15.49c-.28,.28-.73,.28-1.01,0m4.18,3.17c-.28,.28-.73,.28-1.01,0l-.26-.26c-.28-.28-.28-.73,0-1.01l15.49-15.49,1.27,1.27-15.49,15.49Z"/></g></g></svg>