<?xml version="1.0" encoding="UTF-8"?><svg id="Laag_1" xmlns="http://www.w3.org/2000/svg" xmlns:xlink="http://www.w3.org/1999/xlink" viewBox="0 0 64 64"><defs><style>.cls-1{fill:none;}.cls-2{clip-path:url(#clippath);}.cls-3{clip-path:url(#clippath-1);}</style><clipPath id="clippath"><rect class="cls-1" width="64" height="64"/></clipPath><clipPath id="clippath-1"><rect class="cls-1" width="64" height="64"/></clipPath></defs><g class="cls-2"><g class="cls-3"><path d="M43.33,33.75c.36-1.06,.79-2.74-1.01-4.56-1.56-1.59-4.06-1.5-4.06-1.5,0-.09,.69-2.75-1.31-4.44-2.6-2.19-4.93-.94-4.93-.94,.38-2.31-.56-4.02-1.89-5-2.55-1.88-4.39-.81-5.39,.03-.53,.45-1.15,.99-1.75,1.54,1.45,1.22,4.79,4.04,6.74,5.65,1.32,1.09,3,2.84,2.4,5.38-.27,1.14-1.46,3.69-6.69,2.88-2.06-.32-4.35-1.2-5.44-1.65h-.01c.67,.71,1.76,1.83,2.66,3.37,2.36,4.06,1.75,7.41,1.04,9.32-.17,.45-.38,.65-.5,.51,.77-4.96-2.3-9.8-6.07-13.12l2.44-2.47c1.85,.84,4.19,1.75,6.2,2.06,1.81,.28,4.06,.27,4.44-1.37,.2-.84,.13-1.83-1.73-3.37-2.06-1.71-5.61-4.86-6.98-5.86-1.13-.83-2.75-.67-3.63-.1-.89,.58-4.65,3.79-6.76,5.62-.94,.81-1.55,1.94-1.69,3.18-.31,2.57-.92,7.22-1.28,10.96-.14,1.38-.71,2.68-1.69,3.67-.98,.99-3.98,4.03-3.98,4.03l13.4,14.82s5.46-5.63,6.19-6.41c.73-.77,1.69-1.37,2.75-1.46,3.75-.32,4.49,1.69,11.54-5.54,0,0-.51-.24-.74-.36-2.58-1.36-2.39-3.93-2.39-3.93-2.53,.07-4.29-1.01-4.72-3.27-.17-.87,.07-1.16,.3-1.13,2.86,4.28,6.12,2.47,6.12,2.47-.2,2.14,.36,3.3,1.13,3.92,2.04,1.62,3.7,.16,4.95-.94,1.54-1.37,3.48-3.39,4.63-5.41,2.45-4.31-2.23-6.6-2.23-6.6"/><path d="M47.44,62.66l-12.42-5.04c-1.57-.64-.47-3.67,1.15-3.14l10.43,3.45-1.37-13.01,11.48-6.56-9.89-8.36,7.05-14.69-16.1,2.49-5.13-11.89-9.61,9.08-12.05-5.08,.02,10.6c.01,1.54-3.01,1.78-3.16,.16l-1.14-12.93c-.17-1.91,1.75-3.31,3.52-2.57l11.95,5.03L31.43,1.46c1.28-1.21,3.38-.78,4.08,.84l4.75,11,15.75-2.44c2.25-.35,3.63,1.83,2.79,3.59l-6.95,14.47,9.15,7.74c1.35,1.14,1.15,3.27-.38,4.15l-11.06,6.33,1.34,12.76c.23,2.16-1.75,3.45-3.46,2.76"/></g></g></svg>