<?xml version="1.0" encoding="UTF-8"?><svg id="Laag_1" xmlns="http://www.w3.org/2000/svg" xmlns:xlink="http://www.w3.org/1999/xlink" viewBox="0 0 64 64"><defs><style>.cls-1{fill:none;}.cls-2{clip-path:url(#clippath);}.cls-3{clip-path:url(#clippath-1);}</style><clipPath id="clippath"><rect class="cls-1" width="64" height="64"/></clipPath><clipPath id="clippath-1"><rect class="cls-1" width="64" height="64"/></clipPath></defs><g class="cls-2"><g class="cls-3"><path d="M19,30h25l-4-4v-3h1l-1.5-2h-1.34l-5.16-13.05c1.72-2.18-.26-3.58-1.17-6.7-.1-.34-.57-.34-.67,0-.9,3.12-2.89,4.52-1.17,6.7l-5.16,13.05h-1.34l-1.5,2h1v3l-4,4Zm11-7l1.5-2,1.5,2v3h-3v-3Z"/><path d="M18,63h27v-31H18v31Zm7-9h-3v-6h3v6Zm0-12h-3v-6h3v6Zm9,12h-5v-6h5v6Zm0-12h-5v-6h5v6Zm7,12h-3v-6h3v6Zm0-12h-3v-6h3v6Z"/></g></g></svg>