<?xml version="1.0" encoding="UTF-8"?>
<svg id="Zwart" xmlns="http://www.w3.org/2000/svg" viewBox="0 0 64 64">
  <polygon points="32 24.88 4.73 32.58 5.82 36.42 32 29.04 58.18 36.42 59.27 32.58 32 24.88"/>
  <path d="M41.17,21.57c.37.09.73.16,1.09.22-.02,1.23-.03,2.46-.04,3.69l7.48,2.11c.06,0,.12-.02.18-.03,4.85-.82,6.06-4.66,5.54-9.18-.18-1.77-2.78-1.86-3.06-.08-.35,1.5-.26,3.59-1.28,4.76-.8.65-1.96.85-3.17,1.03-.02-1.86-.04-3.73-.08-5.59,1.12-.27,2.25-.69,3.16-1.43,1.31-.97,2.02-3.03,1.88-4.52l-.08-1.73c-.07-1.15-.15-2.3-.27-3.45-.2-1.82-2.89-1.81-3.06.03-.1,1.16-.16,2.31-.2,3.46-.04.6.02,2.25-.2,2.73-.25.54-.74.84-1.33,1.05-.12-3.42-.28-6.84-.53-10.25-.24-2.48-3.84-2.5-4.11-.02-.38,4.53-.6,9.07-.73,13.61-.89-.2-1.69-.54-2.25-1.24-.7-1.16-.47-5.04-.58-6.61,0-1.78-2.59-2.06-2.95-.31-.96,4.6-1.37,10.46,4.61,11.74Z"/>
  <path d="M54,37.53l-22-6.21-22,6.21v17.47h-3v3h50v-3h-3v-17.47ZM27,55h-11v-12s1.81-2,5.5-2,5.5,2,5.5,2v12ZM44,50h-8v-8h8v8Z"/>
</svg>