<?xml version="1.0" encoding="UTF-8"?><svg id="Laag_1" xmlns="http://www.w3.org/2000/svg" xmlns:xlink="http://www.w3.org/1999/xlink" viewBox="0 0 64 64"><defs><style>.cls-1{fill:none;}.cls-2{clip-path:url(#clippath);}.cls-3{clip-path:url(#clippath-1);}</style><clipPath id="clippath"><rect class="cls-1" width="64" height="64"/></clipPath><clipPath id="clippath-1"><rect class="cls-1" width="64" height="64"/></clipPath></defs><g class="cls-2"><g class="cls-3"><path d="M54.96,13.22c-.36-2.17-2.01-3.81-4.17-4.17-6.26-1.04-16.7-1.04-18.78-1.04s-12.52,0-18.78,1.04c-2.17,.36-3.81,2.01-4.17,4.17-1.04,6.26-1.04,16.7-1.04,18.78s0,12.52,1.04,18.78c.36,2.16,2.01,3.81,4.17,4.17,6.26,1.04,16.7,1.04,18.78,1.04s12.52,0,18.78-1.04c2.17-.36,3.81-2.01,4.17-4.17,1.04-6.26,1.04-16.7,1.04-18.78,0-6.26,0-12.52-1.04-18.78m-22.98,27.21h-4.68l-2.73-9.59h-.13l-2.89,9.59h-4.57l-4.39-17.05h3.77l3.22,13.93h.16l3.3-10.4-1.09-3.54h3.64l4.03,13.93h.15l3.15-13.93h3.48l-4.42,17.05Zm17.41-.23c-1.48,.34-2.05,.42-3.8,.42-4.78,0-8.42-2.68-8.42-8.19,0-6.16,3.95-9.23,8.84-9.23,1.3,0,2.18,.1,3.35,.34l-.24,2.86c-1.33-.23-1.97-.26-3.22-.26-2.86,0-5.17,1.98-5.17,5.98s2.47,5.67,5.04,5.67c1.46,0,2.21-.08,3.61-.34v2.76Z"/></g></g></svg>