<?xml version="1.0" encoding="UTF-8"?><svg id="Laag_1" xmlns="http://www.w3.org/2000/svg" xmlns:xlink="http://www.w3.org/1999/xlink" viewBox="0 0 64 64"><defs><style>.cls-1{fill:none;}.cls-2{clip-path:url(#clippath);}.cls-3{clip-path:url(#clippath-1);}</style><clipPath id="clippath"><rect class="cls-1" width="64" height="64"/></clipPath><clipPath id="clippath-1"><rect class="cls-1" width="64" height="64"/></clipPath></defs><g class="cls-2"><g class="cls-3"><path d="M27,15.17c2.43,.96,7.55,2.5,9.15,.45,.68-.87,.33-2.2-1.09-2.94-4.8-2.49-7.95-5.14-10.03-6.58-2.08-1.44-4.83-1.46-6.93-.05-.98,.66-2.52,1.98-4.84,1.2l-5.98-2L1,18.08s1.16,1.97,7.83,4.07l9.8-7.92c2.87-2.32,3.36-1.02,8.37,.95"/><path d="M33.82,24.92c.14-1,.53-1.95,1.15-2.7,1.31-1.58,3.7-2.41,5.78-1.66,.99-1.56,2.74-2.43,4.48-2.43s2.94,.69,5.92,3.39c4.95-1.83,5.89-3.41,5.89-3.41l-6.28-12.83-5.98,2c-2.31,.77-3.85-.54-4.84-1.2-2.1-1.42-4.85-1.4-6.93,.05l-2.36,1.64c1.49,1.02,3.23,2.12,5.28,3.19,2.52,1.31,3.13,4.03,1.72,5.84-.91,1.16-2.37,1.75-4.34,1.75-3.78,0-8.15-2.03-9.93-2.85-2.24-1.02-2.2-1.1-3.56,0-10.23,8.27-4.72,3.85-8.2,6.7-1.9,1.55,.39,5.53,3.4,4.98-.32,2.7,1.97,4.44,4.3,4.44,.18,2.75,1.54,4.08,4.04,4.33,.24,2.03,3.28,5.08,6.15,2.66-1.5-2.21-1.21-5.31,.96-7.03-.94-2.53,.21-5.82,3.34-6.87"/><path d="M45.36,31.08c.05-.05,.11-.09,.16-.15,.55-.66,.81-1.56,.76-2.42,1.26,.64,2.98,.55,4.09-.81,1.03-1.25,1.27-3.31-.68-4.92l-2.39-1.98c-2.11-1.75-5.51-.28-5.49,2.79l-.99-.82c-2.03-1.68-5.97,.48-4.99,3.8-1.08-.1-2.26,.36-2.96,1.21-1.03,1.25-1.08,3.38,.17,4.41l.42,.34c-.85,.11-1.69,.54-2.24,1.2-1.03,1.25-1,3.45,.62,4.78,.78,.65,1.47,1.34,2.36,1.59,.09-1.37,.22-2.68,.41-3.8,.4-2.42,2.3-4.32,4.73-4.73,1.71-.28,3.88-.44,6.03-.52"/><path d="M62.43,36.83c-.2-1.17-1.09-2.07-2.26-2.26-3.39-.56-9.04-.56-10.17-.56s-6.78,0-10.17,.56c-1.17,.2-2.07,1.09-2.26,2.26-.56,3.39-.56,9.04-.56,10.17s0,6.78,.56,10.17c.2,1.17,1.09,2.06,2.26,2.26,3.39,.57,9.04,.57,10.17,.57s6.78,0,10.17-.57c1.17-.2,2.06-1.09,2.26-2.26,.56-3.39,.56-9.04,.56-10.17,0-3.39,0-6.78-.56-10.17m-14.53,14.41h-4.98v-9.32h4.94v1.41h-3.22v2.42h2.96v1.41h-2.96v2.69h3.26v1.41Zm9.17-3.35c0,2.09-1.36,3.47-3.59,3.47-2.41,0-3.5-1.16-3.5-3.34v-6.09h1.72v5.9c0,1.39,.65,2.02,1.88,2.02s1.85-.7,1.85-1.99v-5.92h1.64v5.97Z"/></g></g></svg>