<?xml version="1.0" encoding="UTF-8"?><svg id="Laag_1" xmlns="http://www.w3.org/2000/svg" xmlns:xlink="http://www.w3.org/1999/xlink" viewBox="0 0 64 64"><defs><style>.cls-1{fill:none;}.cls-2{clip-path:url(#clippath);}.cls-3{clip-path:url(#clippath-1);}</style><clipPath id="clippath"><rect class="cls-1" width="64" height="64"/></clipPath><clipPath id="clippath-1"><rect class="cls-1" width="64" height="64"/></clipPath></defs><g class="cls-2"><g class="cls-3"><path d="M39.74,37h-10.24l4.91-13.52-13.77,19.46,10.24-.02-6.92,18.14,15.77-24.06Zm-16.08,10.34c.02-.22-.12-.3-.21-.33-.09-.03-.25-.06-.37,.13-1.22,1.94-2.99,3.13-3.67,4.32-.71,1.25-.29,2.82,1.32,3.38,1.61,.56,2.92-.4,3.13-1.83,.21-1.36-.45-3.39-.19-5.67m-3.81-10.33c.21-1.36-.45-3.39-.19-5.67,.02-.22-.12-.3-.21-.33-.09-.03-.25-.06-.37,.13-1.22,1.94-2.99,3.13-3.67,4.32-.72,1.25-.29,2.82,1.32,3.38,1.61,.56,2.92-.41,3.13-1.83m-3.19,4.33c.02-.22-.12-.3-.21-.33-.09-.03-.25-.06-.37,.13-1.22,1.94-2.99,3.13-3.67,4.32-.72,1.25-.29,2.82,1.32,3.38,1.61,.56,2.92-.4,3.13-1.83,.21-1.36-.45-3.39-.19-5.67m-3,10c.02-.22-.12-.3-.21-.33-.09-.03-.25-.06-.37,.13-1.22,1.94-2.99,3.13-3.67,4.32-.72,1.25-.29,2.82,1.32,3.38,1.61,.56,2.92-.4,3.13-1.83,.21-1.36-.45-3.39-.19-5.67m27,0c.02-.22-.12-.3-.21-.33-.09-.03-.26-.06-.37,.13-1.22,1.94-2.99,3.13-3.67,4.32-.72,1.25-.29,2.82,1.32,3.38,1.61,.56,2.91-.4,3.13-1.83,.21-1.36-.45-3.39-.19-5.67m6-20c.02-.22-.12-.3-.21-.33-.09-.03-.26-.06-.37,.13-1.22,1.94-2.99,3.13-3.67,4.32-.72,1.25-.29,2.82,1.32,3.38,1.61,.56,2.92-.41,3.13-1.83,.21-1.36-.45-3.39-.19-5.67m1.72-18.97c-1.33-2.76-4.15-4.65-7.39-4.65-.45,0-.9,.04-1.33,.11-1.48-2.19-3.98-3.59-6.79-3.59s-5.31,1.4-6.79,3.59c-.44-.07-.88-.11-1.33-.11-3.25,0-6.06,1.89-7.39,4.65-4.33,.23-7.79,3.82-7.79,8.21,0,8.07,10.34,9.22,17.56,9.39l2.1-2.97c-7.11-.05-16.65-.67-16.65-6.42,0-2.88,2.34-5.22,5.22-5.22,.62,0,1.21,.13,1.76,.33,.14-2.76,2.4-4.97,5.19-4.97,1.11,0,2.13,.35,2.98,.94,.39-2.5,2.53-4.42,5.14-4.42,3.03,0,5.18,2.52,5.39,5.46h0c.12,1.62-.38,3.41-1.91,5.21,.09,.17,.38,.12,.7-.1,.51-.34,3.65-2.9,3.69-7.06,.08,0,.16-.02,.25-.02,2.8,0,5.06,2.2,5.19,4.97,.56-.2,1.14-.33,1.77-.33,2.88,0,5.22,2.34,5.22,5.22,0,6.05-10.53,6.42-17.7,6.42l-1.08,2.99c.26,0,.57,0,.94,0,6.76,0,20.84,0,20.84-9.41,0-4.39-3.45-7.98-7.79-8.21m-4.72,28.97c.02-.22-.12-.3-.21-.33-.09-.03-.26-.06-.37,.13-1.22,1.94-2.99,3.13-3.67,4.32-.72,1.25-.29,2.82,1.32,3.38,1.61,.56,2.92-.4,3.13-1.83,.21-1.36-.45-3.39-.19-5.67"/></g></g></svg>