<?xml version="1.0" encoding="UTF-8"?><svg id="Laag_1" xmlns="http://www.w3.org/2000/svg" xmlns:xlink="http://www.w3.org/1999/xlink" viewBox="0 0 64 64"><defs><style>.cls-1{fill:none;}.cls-2{clip-path:url(#clippath);}.cls-3{clip-path:url(#clippath-1);}</style><clipPath id="clippath"><rect class="cls-1" width="64" height="64"/></clipPath><clipPath id="clippath-1"><rect class="cls-1" width="64" height="64"/></clipPath></defs><g class="cls-2"><g class="cls-3"><path d="M61.22,30.24L32.81,3.35c-.46-.43-1.17-.43-1.62,0L2.77,30.24c-.49,.46-.78,1.11-.78,1.78v1.8c0,.67,.54,1.18,1.2,1.18H8v25H56v-25h4.8c.66,0,1.2-.51,1.2-1.18v-1.8c0-.68-.28-1.32-.78-1.78M24.16,55l-1.83-6.51c1.19-1.88,1.32-2.49,2.4-2.49h.05l1.85,9h-2.46Zm10.22,0h-2.49l.96-9h1.77s.01,.24,.02,.29l.66,4.06-.92,4.66Zm12.44-21.9c-2.03,0-3.5,.74-4.63,2.76-2.93,5.24-2.06,19.14-2.06,19.14h-2.64l-1.43-8.82c-.11-.66-.34-1.18-1.21-1.18h-10.12c-1.35,0-2.14,.56-2.64,1.39l-1.97,3.09,.81,5.51h-2.53l-1.42-5.36c-.11-.41-.03-.82,.22-1.16l1.84-3.15c-.55-.68-1.87-3.43-1.72-5.08,.21-2.26,.68-2.13,.31-3.08-.49-1.22-5.79-6.28-3.02-10.24,.48-.68,1.24-.39,.97,.4-1.1,3.19,1.55,7.91,9.34,8.38l4.41,3.27c.2,.12,.29,0,.31-.04l-8.3-9.58c-.28-.32-.41-.74-.35-1.16,.05-.41,.28-.78,.63-1.01,1.3-.87,3.11-1.3,5.36-1.28,.49,0,.88,.17,1.16,.49l5.37,5.9c-.6,.53-1.22,.97-1.84,1.27l-4.95-5.45c-1.24,0-2.27,.17-3.08,.5l5.99,6.9c.37-.05,.75-.1,1.14-.16,4.39-.72,8.51-8.14,8.51-8.14,0,0,.78-3.8,1.9-3.8,.63,0,.72,2.38,1.04,3.17h1.49c1.26,0,2.24,1.14,2.53,1.89l3.75,.63s.21,3.99-3.16,3.99"/></g></g></svg>