<?xml version="1.0" encoding="UTF-8"?><svg id="Laag_1" xmlns="http://www.w3.org/2000/svg" xmlns:xlink="http://www.w3.org/1999/xlink" viewBox="0 0 64 64"><defs><style>.cls-1{fill:none;}.cls-2{clip-path:url(#clippath);}.cls-3{clip-path:url(#clippath-1);}</style><clipPath id="clippath"><rect class="cls-1" width="64" height="64"/></clipPath><clipPath id="clippath-1"><rect class="cls-1" width="64" height="64"/></clipPath></defs><g class="cls-2"><g class="cls-3"><path d="M55.6,35c-2.17,0-4.92,1.06-6.34,1.61-1.05-.77-3-1.61-4.85-1.61-4.08,0-7.4,3.3-7.4,7.36,0,2.42,.68,4.07,1.33,5.67,.89,2.19,1.07,2.73,1.67,6.78,.6,4.03,1.22,8.19,5.15,8.19,3.08,0,4.11-3.7,4.84-7,.73,3.3,1.76,7,4.84,7,3.94,0,4.56-4.16,5.15-8.19,.6-4.05,.78-4.59,1.67-6.78,.65-1.6,1.33-3.26,1.33-5.67,0-4.06-3.32-7.36-7.4-7.36m3.29,11.9c-1,2.44-1.23,3.23-1.86,7.47-.57,3.83-.97,5.63-2.19,5.63-.91,0-1.79-4.07-2.08-5.41-.58-2.65-.99-4.57-2.76-4.57s-2.19,1.92-2.76,4.57c-.29,1.34-1.17,5.41-2.08,5.41-1.22,0-1.62-1.8-2.19-5.63-.63-4.22-.86-5.01-1.86-7.47-.59-1.45-1.11-2.71-1.11-4.54,0-2.3,1.82-4.17,4.11-4.33,3.16-.08,6.63,2.99,10.43,2.94,.33,0,.49-.12,.45-.26,0,0-1.45-.69-3.34-1.83,1.22-.41,2.89-.88,3.95-.88,2.43,0,4.4,1.96,4.4,4.36,0,1.83-.51,3.08-1.11,4.54"/><path d="M35.55,49.16c-.69-1.69-1.55-3.8-1.55-6.8-.86,1.38-3,4.94-6.11,6.98-2.3-1.75-7.1-5.53-6.67-9.02,.05-.37,.07-.61,.1-.8,1.53,.94,3.22,1.46,5.68,1.46,4.56,0,6.47-1.77,9.63-4.7,.63-.59,1.33-1.23,2.12-1.94,.4-.36,.53-.93,.32-1.43l-.56-1.3c.06-.42,.16-1.11,.24-1.54,.07-.38,.13-.94,.18-1.5h0c1.33-1.23,2.07-3.18,2.07-5.57,0-.74,0-2.7-1.23-4.04,.3-3.34,.51-8.5-.79-10.59-1.6-2.56-3.55-3.82-7.26-2.98-2.44-1.16-4.09-1.88-8.36-.84-2.97,.72-6.21,1.91-7.92,3.88-1.65,1.91-1.54,7.22-1.27,10.61-1.16,1.33-1.16,3.23-1.16,3.96,0,2.39,.74,4.33,2.06,5.55,0,.02,.01,.05,.01,.07,.05,.55,.11,1.08,.17,1.45,.07,.42,.18,1.12,.24,1.54l-.56,1.3c-.21,.49-.08,1.07,.32,1.43,.8,.71,1.49,1.35,2.12,1.94,.42,.39,.81,.75,1.2,1.1-.05,.38-.1,.77-.15,1.17-2.51,.74-9.67,3-12.03,5.57-2.87,3.12-4.39,14.89-4.39,14.89H37.74c-.33-1.32-.53-2.64-.7-3.75-.57-3.83-.7-4.16-1.48-6.08M16.27,25.05c-.27-.69-.37-1.45-.37-2.04,0-1.27,.32-1.96,.77-2.17,.39-.18,.77-.05,1.01,.09,.14,.65,.25,1.14,.29,1.31,.21,.85,1.02,.77,1.02,.77v-6.75c2.07-.15,6.19-.75,10.75-3.11l5.25,3.53v6.33s.82,.08,1.02-.77c.04-.17,.15-.66,.29-1.31,.24-.14,.62-.27,1.01-.09,.45,.21,.77,.9,.77,2.17,0,.59-.1,1.35-.37,2.04-3.82,0-6.13-.32-6.86-.95-1-.86-1.88-2.1-3.87-2.1s-2.87,1.24-3.87,2.1c-.73,.62-3.04,.94-6.86,.95m1.32,8.02l.32-.74,5.22,1.39s.16-.22-.11-.43l-5.21-3.09c-.03-.2-.06-.4-.09-.56-.08-.45-.16-1.32-.21-2.1,4.6-.09,6.26-.69,7.25-1.54,.24-.21,.46-.42,.67-.62,.66-.64,.97-.92,1.57-.92s.91,.28,1.57,.92c.21,.21,.43,.42,.67,.63,1,.85,2.66,1.45,7.25,1.54-.06,.78-.13,1.65-.21,2.1-.03,.16-.06,.36-.09,.56l-5.21,3.09c-.26,.21-.15,.38-.11,.43l5.22-1.39,.32,.74c-.54,.49-1.03,.95-1.49,1.38-3.07,2.85-4.35,4.03-7.92,4.03s-4.85-1.18-7.93-4.04c-.46-.43-.95-.89-1.49-1.37"/></g></g></svg>