<?xml version="1.0" encoding="UTF-8"?><svg id="Laag_1" xmlns="http://www.w3.org/2000/svg" xmlns:xlink="http://www.w3.org/1999/xlink" viewBox="0 0 64 64"><defs><style>.cls-1{fill:none;}.cls-2{clip-path:url(#clippath);}.cls-3{clip-path:url(#clippath-1);}</style><clipPath id="clippath"><rect class="cls-1" width="64" height="64"/></clipPath><clipPath id="clippath-1"><rect class="cls-1" width="64" height="64"/></clipPath></defs><g class="cls-2"><g class="cls-3"><path d="M30.41,17.98l11.65,12.75c1.32,1.45,3.21,2.28,5.17,2.28h3.77v-4h-3.77c-.84,0-1.65-.36-2.21-.98l-11.65-12.75c-1.32-1.45-3.21-2.28-5.17-2.28h-12.2v4h12.2c.84,0,1.65,.36,2.21,.98"/><path d="M9.43,26.06c1.44,.77,4.11,1.94,6.86,1.94,1.08,0,2.14-.18,3.12-.45-.71-.93-1.38-2.26-1.7-3.63-.47,.09-.95,.15-1.42,.15-2.77,0-5.73-1.9-5.76-1.92l-1.1-.71-1.1,.71s-2.99,1.92-5.76,1.92c-.53,0-1.06-.08-1.57-.19v3.99c.52,.08,1.04,.13,1.57,.13,2.75,0,5.41-1.18,6.86-1.94"/><path d="M61.43,39.07c-2.77,0-5.73-1.9-5.76-1.92l-1.1-.71-1.09,.71s-2.99,1.92-5.76,1.92c-.9,0-1.82-.2-2.65-.47l.18,.18c.98,.98,1.52,2.29,1.52,3.68,0,.17-.03,.33-.05,.49,.33,.03,.66,.05,.99,.05,2.75,0,5.42-1.18,6.86-1.94,1.44,.76,4.11,1.94,6.86,1.94,.53,0,1.06-.05,1.57-.13v-3.99c-.52,.11-1.05,.19-1.57,.19"/><path d="M34.55,48.86l-11.65-12.75c-1.23-1.34-2.98-2.11-4.8-2.11H1v29H63v-13h-25.87c-.98,0-1.92-.42-2.58-1.14"/><path d="M24.5,33.87c.58,.18,1.27,.05,1.98-.32,.09,2.26,.95,4.05,2.1,4.4,.58,.18,1.27,.05,1.98-.32,.09,2.26,.95,4.05,2.1,4.4,.58,.18,1.27,.05,1.98-.32,.09,2.26,.95,4.05,2.1,4.4,.9,.27,2.07-.16,3.16-1.17,1.17,.78,2.76,.66,3.79-.37,1.17-1.17,1.17-3.07,0-4.24l-2.25-2.25c-.55,.67-1.08,1.51-1.52,2.43-.19,.09-.47-.03-.36-.42,.05-.18,.45-1.57,.78-3.12h0c.39-1.85,.66-3.92,.1-4.43-1.05-.96-3.22,1.05-4.59,3.89-.19,.08-.47-.03-.36-.42,.11-.39,1.91-6.6,.87-7.55-1.05-.96-3.22,1.05-4.59,3.89-.19,.08-.47-.03-.36-.42,.11-.39,1.91-6.6,.87-7.55-1.05-.96-3.22,1.05-4.59,3.89-.19,.08-.47-.03-.36-.42,.11-.39,1.91-6.6,.87-7.55-.72-.66-1.97,.08-3.13,1.53-1.44-.98-3.9-1.78-4.89-.78-1.17,1.17,.15,4.4,1.32,5.57l1.02,1.02c-.44,3.07,.55,5.8,2,6.24"/></g></g></svg>