<?xml version="1.0" encoding="UTF-8"?><svg id="Laag_1" xmlns="http://www.w3.org/2000/svg" viewBox="0 0 64 64"><defs><style>.cls-1{fill:none;}</style></defs><rect class="cls-1" width="64" height="64"/><g><path d="m17.99,32.69c-.1,1.76-.39,4.2-.56,6.57-.2,2.76,1.87,3.4,2.35,3.51.51-2.3,1.52-7.42,1.86-9.74-.49-1.34-1.58-3.71-2.07-5.23-.13-.4-.14-.63.05-.69.34.53,2.62,4.18,2.73,4.8.36,1.52.82,5.45,1.32,8.13.58,3.1,3.41,2.95,3.53,2.94-.12-2.87-.2-7.86-.4-10.74-.11-1.47-.18-1.63-.37-2.43-.51-1.89-1.41-4.53-2.25-6.3.33-4.69.14-6.37.33-8.91.53,1.03,1.59,2.54,2.24,3.47.52.79,2.31,2.82,2.86,3.39,1.91,1.99,3.28.49,3.3.48-1.6-2.03-3.41-4.46-3.91-5.28-.66-1.02-2.56-5.18-3.34-6.17-.79-1-2.43-2.44-4.75-1.97-1.92.38-2.57,1.83-2.86,3.56-.26,1.56-.08,3.42-.13,4.93-.04.75-.13,1.63-.4,3.39-.47,3.15-.18,3.48.43,5.04.45,3.13.08,6.71.06,7.22Z"/><path d="m22.36,7.55c2,.01,3.16-1.38,3.18-3.39.02-2.29-1.18-3.53-3.13-3.55-2.05-.01-3.16,1.43-3.18,3.5-.02,2.18,1.13,3.42,3.13,3.44Z"/><path d="m52.23,44.76c-2.77.95-6.37,2.41-9.22,3.61.07.43.08.89.01,1.38-.41,2.81-2.82,4.58-6.24,4.74-7.73.36-12.53-1.56-13.53-1.96-.29-.12-.32-.26-.29-.39,0,0,.01,0,.01,0,5.59.96,9.12,1.12,13.46.42,3.29-.53,4.49-2.11,4.46-3.41-.03-1.27-.93-2.04-2.95-2.11-6.89-.24-10.92-1.01-16.82-1.87-4.1-.6-8.06.47-11.43,2.63-3.16,2.03-4.04,2.99-4.04,2.99l5.79,11.14,7.48-3.04c.85-.35,1.78-.45,2.69-.3l10.26,2.28c2.29.38,4.64-.06,6.64-1.22l20.48-12.85s-1-4.02-6.76-2.04Z"/><path d="m32.06,28.66c-.02-.1-.03-.23-.04-.33-1.26,1.55-2.02,3.53-2.02,5.68,0,4.97,4.03,9,9,9,2.76,0,5.23-1.25,6.88-3.21-.04-.1-.09-.19-.13-.29-.37-.93-.78-2-1.19-3.1-.93,2.15-3.07,3.66-5.56,3.66-3.35,0-6.06-2.71-6.06-6.06,0-.86.18-1.68.5-2.42-.72-.77-1.21-1.76-1.38-2.93Z"/><path d="m38.12,31h7.01c.95,2.59,2,5.5,2.85,7.61,1.09,2.72,3.15,2.42,3.74,2.27-.73-3.2-1.53-6.73-2.46-10.02-1.1-3.78-1.46-3.78-3.6-4.27-1.97-.45-4.66-.59-4.66-.59v-6.5c0-3.42-3.24-3.91-4.92-3.2-.74.31-1.33,1-1.61,2.49-.51,2.68-.39,7.06-.03,9.52.38,2.59,2.97,2.69,3.68,2.69Z"/><path d="m38.46,14.83c1.92.01,3.04-1.32,3.06-3.26.02-2.21-1.14-3.4-3.01-3.41-1.97-.01-3.04,1.38-3.06,3.37-.02,2.1,1.09,3.29,3.01,3.3Z"/></g></svg>