<?xml version="1.0" encoding="UTF-8"?><svg id="Laag_1" xmlns="http://www.w3.org/2000/svg" xmlns:xlink="http://www.w3.org/1999/xlink" viewBox="0 0 64 64"><defs><style>.cls-1{fill:none;}.cls-2{clip-path:url(#clippath);}.cls-3{clip-path:url(#clippath-1);}</style><clipPath id="clippath"><rect class="cls-1" width="64" height="64"/></clipPath><clipPath id="clippath-1"><rect class="cls-1" width="64" height="64"/></clipPath></defs><g class="cls-2"><g class="cls-3"><path d="M47,48c-.23-2.52-.16-5.7,.29-10.1,.72-6.91,1.95-15.25,2.88-19.9,.72-3.61,.58-7.51-1.73-10.33-1.39-1.7-3.41-2.67-5.52-2.67l-29.89,.02c-3.77,0-6.92,3.15-7.23,6.95-.42,5.17,3.69,8.45,8.1,9.15,.31-1.7,.58-3.07,.75-3.93-1.9-.28-5.12-1.61-4.86-4.9,.15-1.84,1.71-3.28,3.55-3.28,.93,0,1.79,.43,2.43,1.21,1.2,1.46,1.52,3.95,.91,7.01-1.37,6.84-3.89,23.16-3.52,29.89,.15,2.79,1.24,11.89,8.87,11.89h26c7.13,0,10.61-8,11.81-11h-12.84Zm-24.97,7c-3.86,0-4.71-5.08-4.88-8.11-.33-6.09,2.03-21.8,3.45-28.89,.86-4.27,.16-7-.85-9h23.16c1.78,0,2.94,1.47,3.38,3.2,.39,1.55,.27,3.45-.05,5.02-.91,4.54-2.1,13.25-2.84,20.56-.51,5.02-.46,8.56-.29,10.22h-13.71c-1.39,3-3.51,7-7.37,7m26,0H29.85c.72-1,1.4-2.01,2.02-3.01h21.25c-1.28,2-2.96,3.01-5.09,3.01"/><path d="M24.25,25.94c-.83,0-1.5,.67-1.5,1.49s.67,1.49,1.5,1.49,1.49-.67,1.49-1.49-.67-1.49-1.49-1.49"/><path d="M23.34,32.85c-.83,0-1.5,.67-1.5,1.49s.67,1.49,1.5,1.49,1.49-.67,1.49-1.49-.67-1.49-1.49-1.49"/><path d="M22.68,39.94c-.83,0-1.49,.67-1.49,1.5s.67,1.49,1.49,1.49,1.49-.67,1.49-1.49-.67-1.5-1.49-1.5"/><path d="M27.35,29h13.89c.13-1.02,.27-2.02,.4-3h-13.89c-.14,.98-.27,1.98-.4,3"/><path d="M26.52,36h13.89c.11-.99,.22-1.99,.34-3h-13.89c-.12,1.01-.23,2.01-.34,3"/><path d="M25.97,43h13.89c.03-.91,.09-1.91,.17-3h-13.89c-.08,1.09-.14,2.09-.17,3"/><path d="M23.87,20.58h1.68l.14,1.26h1.4l-.72-5.75h-1.71l-2.68,5.75h1.32l.56-1.26Zm1.37-3.11l.21,2.05h-1.13l.92-2.05Z"/><polygon points="29.5 17.83 29.99 20.78 31.3 20.78 32.74 17.85 32.26 21.84 33.52 21.84 34.22 16.09 32.5 16.09 30.97 19.17 30.47 16.09 28.66 16.09 27.44 21.84 28.66 21.84 29.5 17.83"/><polygon points="37.23 21.84 39.9 16.09 38.58 16.09 36.69 20.32 36.21 16.09 34.84 16.09 35.55 21.84 37.23 21.84"/><path d="M41.17,21.84c1.41,0,2.3-.62,2.49-1.75,.1-.61-.11-1.04-.62-1.27,.45-.25,.72-.66,.82-1.26,.06-.37,0-.68-.22-.93-.3-.36-.88-.54-1.7-.54h-1.62l-.97,5.75h1.82Zm.23-4.69h.36c.36,0,.6,.06,.7,.19,.07,.08,.09,.21,.06,.38-.08,.49-.4,.69-1.05,.69h-.29l.21-1.26Zm-.38,2.26h.3c.49,0,.82,.08,.96,.25,.08,.1,.1,.23,.08,.4-.1,.6-.64,.73-1.08,.73h-.49l.23-1.38Z"/></g></g></svg>