<?xml version="1.0" encoding="UTF-8"?><svg id="Laag_1" xmlns="http://www.w3.org/2000/svg" xmlns:xlink="http://www.w3.org/1999/xlink" viewBox="0 0 64 64"><defs><style>.cls-1{fill:none;}.cls-2{clip-path:url(#clippath);}.cls-3{clip-path:url(#clippath-1);}</style><clipPath id="clippath"><rect class="cls-1" width="64" height="64"/></clipPath><clipPath id="clippath-1"><rect class="cls-1" width="64" height="64"/></clipPath></defs><g class="cls-2"><g class="cls-3"><path d="M61.34,31.99c.59-.45,.47-1.38-.21-1.69-3.17-1.47-5.6-2.93-10.46-7.29-3-2.69-7.93-4.79-12.45-4.81-7.28-.03-10.56,2.39-19.96,6.93,2.9,3.42,6.68,5.59,6.68,5.59-.01,.21-.2,.31-.77,.21-1.39-.24-4.9-1.7-7.82-5-2.03-2.3-2.61-4.56-4.42-6.46-1.82-1.91-5.02-3.34-6.75-4.02-.71-.28-1.52,.02-1.87,.71-.96,1.87-2.3,5.71,.43,9.12,3.04,3.8,7.52,4.47,10.38,7.32-1,.49-1.95,1.12-2.32,1.85-.9,1.81,1.42,4.38,1.42,4.38,0,0-2.68-.05-3.68,2.61-.15,.39,.26,.77,.65,.63l2.22-.8,.18,1.32c.05,.36,.46,.55,.77,.35l2.01-1.31,.36,1.31c.09,.31,.44,.46,.72,.31,.91-.51,2.61-1.65,2.71-3.12,.03-.41-.05-1.02-.18-1.73,1.75,1.36,3.85,2.23,6.39,2.73,.32,.89,.64,1.42,.64,1.42,0,0-2-.07-3.42,1.1-.83,.67-1.17,1.68-1.32,2.4-.08,.39,.32,.71,.69,.55l2.41-1.04,.16,1.51c.04,.37,.45,.57,.76,.37l2.24-1.4,.43,1.43c.09,.3,.43,.45,.71,.3,.99-.53,3.03-1.79,3.47-3.34,.18-.65,.09-1.6-.12-2.59,5.6,.31,13.07,.27,16.81-.85,.44,.47,.94,.91,1.51,1.27,0,0-1.6,1.6-.6,3.81,.15,.33,.61,.39,.84,.11l1.8-2.15,.73,1.68c.15,.34,.61,.41,.85,.12l1.95-2.37,1.04,1.36c.21,.27,.64,.26,.82-.04,.68-1.1,1.85-3.5,.25-5.05-1.91-1.85-4.71-2.41-5.05-3.6-.07-.24-.05-.53,.03-.86,4.15-.56,6.91-2.18,8.34-3.27M6.5,20.75c-.69,0-1.25-.56-1.25-1.25s.56-1.25,1.25-1.25,1.25,.56,1.25,1.25-.56,1.25-1.25,1.25"/></g></g></svg>