<?xml version="1.0" encoding="UTF-8"?><svg id="Laag_1" xmlns="http://www.w3.org/2000/svg" xmlns:xlink="http://www.w3.org/1999/xlink" viewBox="0 0 64 64"><defs><style>.cls-1{fill:none;}.cls-2{clip-path:url(#clippath);}.cls-3{clip-path:url(#clippath-1);}</style><clipPath id="clippath"><rect class="cls-1" width="64" height="64"/></clipPath><clipPath id="clippath-1"><rect class="cls-1" width="64" height="64"/></clipPath></defs><g class="cls-2"><g class="cls-3"><path d="M37.35,32.24c-.92-1.1-2.28-.93-3.26-.27-.89,.61-.86,1.03-2.09,1.03s-1.2-.41-2.09-1.03c-.97-.67-2.34-.83-3.26,.27-.78,.94-.31,2.73,.94,3.65-.05,.19-.08,.38-.08,.58,0,1.79,1.97,3.19,4.49,3.19s4.49-1.4,4.49-3.19c0-.2-.03-.39-.08-.57,1.25-.92,1.73-2.71,.94-3.65m-5.35,5.42c-1.5,0-2.49-.72-2.49-1.19s.97-1.19,2.49-1.19,2.49,.7,2.49,1.19-.99,1.19-2.49,1.19m12.55-1.33c2.34-.49,4.33-2.26,5.08-4.63,.54-1.71,.33-3.53-.57-4.98-.78-1.24-2.02-2.13-3.46-2.49-.34-3.49-1.65-6.63-3.78-8.94-1.22-1.33-2.69-2.32-4.36-3-.76-1.95-2.38-3.12-4.71-3.08-2.29,.04-6.05,2.15-6.12,6.42-.13,7.13,7.23,7.55,9.5,4.08,.79-1.21-.02-1.71-.02-1.71-1.97,1.58-4.69,1.08-4.94-.7-.25-1.75,1.69-3.2,4.22-2.56,5.67,1.68,7.65,7.6,7.25,12.65,.62-.29,1.3-.4,1.96-.31,1.76,.26,2.73,1.94,2.17,3.71-.56,1.77-2.5,3.06-4.36,2.57-.43,1.58-1.07,2.9-1.89,3.99-2.02,2.7-5.07,3.89-8.51,3.89-.77,0-1.52-.07-2.23-.19,1.11,3.46,5.91,3.35,8.68,1.77v.02h.01c.12,.79,.16,1.22,.16,1.43,0,2.72-2.85,4.76-6.63,4.76s-6.63-2.05-6.63-4.76c0-.82,.49-3.19,.75-4.54-.95-.57-1.89-1.4-2.63-2.4h0c-.82-1.09-1.46-2.41-1.89-3.99-1.86,.49-3.81-.8-4.36-2.57-.56-1.77,.41-3.44,2.17-3.71,.66-.1,1.34,.01,1.96,.31-.29-3.64,.62-7.6,3.14-10.22-.19-1.54-.06-2.83,.32-4.05-3.93,2.35-6,6.55-6.43,11.11-1.44,.36-2.68,1.25-3.45,2.49-.91,1.45-1.11,3.26-.57,4.98,.75,2.37,2.74,4.14,5.08,4.63,.81,1.89,1.94,3.46,3.34,4.7-.1,.6-.18,1.09-.24,1.48-5.14,2.48-7.62,7.12-7.55,12.5H49c.07-5.38-2.41-10.02-7.55-12.5-.06-.39-.14-.88-.24-1.47,1.4-1.24,2.53-2.81,3.34-4.7"/></g></g></svg>