<?xml version="1.0" encoding="UTF-8"?><svg id="Laag_1" xmlns="http://www.w3.org/2000/svg" xmlns:xlink="http://www.w3.org/1999/xlink" viewBox="0 0 64 64"><defs><style>.cls-1{fill:none;}.cls-2{clip-path:url(#clippath);}.cls-3{clip-path:url(#clippath-1);}</style><clipPath id="clippath"><rect class="cls-1" width="64" height="64"/></clipPath><clipPath id="clippath-1"><rect class="cls-1" width="64" height="64"/></clipPath></defs><g class="cls-2"><g class="cls-3"><path d="M51.41,22.41l-14.83-14.83c-.38-.38-.88-.59-1.41-.59H14c-1.1,0-2,.89-2,2V55c0,1.1,.9,2,2,2H50c1.1,0,2-.9,2-2V23.83c0-.53-.21-1.04-.59-1.41m-1.27,1.94l-3.15,.93v26.71H17V12h16.71l.93-3.14c.11-.34,.36-.23,.36-.23v14.37c0,.55,.45,1,1,1h14.37s.12,.25-.22,.36"/><path d="M28.63,17.31l-4.58,5.13-2.76-2.39c-.29-.25-.72-.26-1.01,0-.3,.25-.37,.67-.17,1l3.34,5.57c.14,.23,.4,.38,.67,.38h0c.27,0,.53-.14,.67-.38l5.1-8.38c.21-.35,.12-.79-.2-1.03-.33-.24-.78-.19-1.05,.11"/><path d="M28.63,28.31l-4.58,5.13-2.76-2.39c-.29-.25-.72-.26-1.01,0-.3,.25-.37,.67-.17,1l3.34,5.57c.14,.23,.4,.38,.67,.38h0c.27,0,.53-.14,.67-.38l5.1-8.38c.21-.35,.12-.79-.2-1.03-.33-.24-.78-.19-1.05,.11"/><path d="M28.63,39.31l-4.58,5.13-2.76-2.39c-.29-.25-.72-.26-1.01,0-.3,.25-.37,.67-.17,1l3.34,5.57c.14,.23,.4,.38,.67,.38h0c.27,0,.53-.14,.67-.38l5.1-8.38c.21-.35,.12-.79-.2-1.03-.33-.24-.78-.19-1.05,.11"/><rect x="33" y="31" width="12" height="3"/><rect x="33" y="42" width="12" height="3"/></g></g></svg>