<?xml version="1.0" encoding="UTF-8"?><svg id="Laag_1" xmlns="http://www.w3.org/2000/svg" xmlns:xlink="http://www.w3.org/1999/xlink" viewBox="0 0 64 64"><defs><style>.cls-1{fill:none;}.cls-2{clip-path:url(#clippath);}.cls-3{clip-path:url(#clippath-1);}</style><clipPath id="clippath"><rect class="cls-1" width="64" height="64"/></clipPath><clipPath id="clippath-1"><rect class="cls-1" width="64" height="64"/></clipPath></defs><g class="cls-2"><g class="cls-3"><path d="M15,47.22c-.53,.48-1.23,.78-2,.78-1.12,0-2.08-.62-2.6-1.53l.82,6.53h4.33l-.43-5.69s-.08-.06-.11-.09"/><polygon points="30.77 53 35.1 53 36.4 41 31.57 41 30.77 53"/><path d="M63.51,22.29c-1.5-1.24-3.87-4.06-4.35-5.87,0,0,2.12-.12,2.59-1.13,.76-1.63-2.72-1.95-4.59-1.92,.61-.9,.88-1.38,1.42-2.34,.65-1.16-.92-2.29-1.81-1.3l-.03,.04c-.64,.71-1.1,1.23-1.86,1.93-3.8-.96-12.6,2.3-13.67,2.3H8.05c-1.9,0-3.58,1.78-3.8,3.8-.4,3.79-.89,10-1.11,12.12C.83,30.53,.04,32.95,.22,35.25c0,0,3.06,.77,4.79-.7,1.52-1.28,1.33-2.77,1.85-8.61,.22-2.56,.49-5.58,.72-7.78,.03-.31,.22-.55,.47-.67,0,4.8,0,13.21,0,15.46s-2.11,4.33-3.29,5.27c-.48,.38-.76,.96-.75,1.57l.83,13.22h4.16v-8.65c0-1.66,.62-2.75,1.14-3.34,.54,.53,1.17,.98,1.86,1.31v2.68c0,1.32,2,1.32,2,0v-2.08c.74,.1,1.26,.1,2,0v2.08c0,1.32,2,1.32,2,0v-2.68c1.46-.69,2.63-1.87,3.32-3.33h14.76c.96,.01,1.78,.69,1.96,1.63l2.37,12.38h4.33l-1.12-16.25,4.55-8.98c1.19-2.35,3.21-2.6,5.78-2.05l6.03,1.3c.44,.09,1.51,.37,2.99-1.33,1.2-1.38,1.14-2.88,.54-3.39"/></g></g></svg>