<?xml version="1.0" encoding="UTF-8"?><svg id="Laag_1" xmlns="http://www.w3.org/2000/svg" xmlns:xlink="http://www.w3.org/1999/xlink" viewBox="0 0 64 64"><defs><style>.cls-1{fill:none;}.cls-2{clip-path:url(#clippath);}.cls-3{clip-path:url(#clippath-1);}</style><clipPath id="clippath"><rect class="cls-1" width="64" height="64"/></clipPath><clipPath id="clippath-1"><rect class="cls-1" width="64" height="64"/></clipPath></defs><g class="cls-2"><g class="cls-3"><path d="M52.23,44.76c-2.77,.95-6.37,2.41-9.22,3.61,.07,.43,.08,.89,.01,1.38-.41,2.81-2.82,4.58-6.24,4.74-7.73,.36-12.53-1.56-13.53-1.96-.29-.12-.32-.26-.29-.39h.01c5.6,.95,9.12,1.11,13.46,.41,3.29-.53,4.49-2.11,4.46-3.41-.03-1.27-.93-2.04-2.95-2.11-6.89-.24-10.92-1.01-16.82-1.87-4.1-.6-8.06,.47-11.43,2.63-3.16,2.03-4.04,2.98-4.04,2.98l5.79,11.14,7.48-3.04c.85-.35,1.78-.45,2.69-.3l10.26,2.28c2.29,.38,4.64-.06,6.64-1.22l20.48-12.85s-1-4.02-6.76-2.04"/><path d="M14,34h2v8h4v-8h28v8h4v-8h2c.55,0,1-.45,1-1V15.5c0-1.1-.9-1.5-2-1.5s-2,.4-2,1.5v10.5H17v-6.5c0-1.1-.9-1.5-2-1.5s-2,.4-2,1.5v13.5c0,.55,.45,1,1,1"/><path d="M30.98,17.86l.93,.11c-.08-2.04-.24-4.15-.54-4.86-.57-1.36-1.74-2.1-3.87-2.1s-3.3,.75-3.87,2.1c-.36,.86-.52,3.89-.59,6.11,1.87-.44,4.09-.94,5.28-1.21,.87-.19,1.76-.24,2.65-.14"/><path d="M47.99,19s.18-1.89-1.37-2.52c-1.89-.77-4.04-.27-5.47,.99-1.43,1.25-3.09,3.41-3.09,3.41l-7.31-.82c-.66-.07-1.33-.04-1.98,.11-2.02,.45-6.54,1.48-7.92,1.86-1.55,.42-1.84,1.3-1.84,1.98h24s1.68-4,4.99-5"/><path d="M27.51,9.9c1.66,0,2.62-1.17,2.62-2.85,0-1.92-1-2.95-2.62-2.95-1.7,0-2.62,1.22-2.62,2.95,0,1.82,.96,2.85,2.62,2.85"/><path d="M45.34,14.82c1.62,.37,2.81-.56,3.19-2.2,.43-1.87-.33-3.1-1.9-3.46-1.66-.38-2.83,.6-3.21,2.29-.41,1.78,.3,2.99,1.92,3.36"/></g></g></svg>