<?xml version="1.0" encoding="UTF-8"?><svg id="Laag_1" xmlns="http://www.w3.org/2000/svg" xmlns:xlink="http://www.w3.org/1999/xlink" viewBox="0 0 64 64"><defs><style>.cls-1{fill:none;}.cls-2{clip-path:url(#clippath);}.cls-3{clip-path:url(#clippath-1);}</style><clipPath id="clippath"><rect class="cls-1" width="64" height="64"/></clipPath><clipPath id="clippath-1"><rect class="cls-1" width="64" height="64"/></clipPath></defs><g class="cls-2"><g class="cls-3"><path d="M16,38H48c1.65,0,3-1.35,3-3v-6c0-1.65-1.35-3-3-3H16c-1.65,0-3,1.35-3,3v6c0,1.65,1.35,3,3,3m-1-9c0-.55,.45-1,1-1H48c.55,0,1,.45,1,1v6c0,.55-.45,1-1,1H16c-.55,0-1-.45-1-1v-6Z"/><path d="M26,34c1.1,0,2-.9,2-2s-.9-2-2-2-2,.9-2,2,.9,2,2,2"/><path d="M20,34c1.1,0,2-.9,2-2s-.9-2-2-2-2,.9-2,2,.9,2,2,2"/><path d="M32,34c1.1,0,2-.9,2-2s-.9-2-2-2-2,.9-2,2,.9,2,2,2"/><path d="M38,34c1.1,0,2-.9,2-2s-.9-2-2-2-2,.9-2,2,.9,2,2,2"/><path d="M39.57,49H10V19H54v18.7l3-3.39V15c0-1.66-1.34-3-3-3H10c-1.66,0-3,1.34-3,3V49c0,1.66,1.34,3,3,3h31.37l-1.8-3ZM16.5,14c.83,0,1.5,.67,1.5,1.5s-.67,1.5-1.5,1.5-1.5-.67-1.5-1.5,.67-1.5,1.5-1.5m-5,0c.83,0,1.5,.67,1.5,1.5s-.67,1.5-1.5,1.5-1.5-.67-1.5-1.5,.67-1.5,1.5-1.5"/><path d="M62.27,35.35c-.75-.55-1.79-.45-2.41,.25l-10.54,11.92-6.33-5.49c-.67-.58-1.66-.59-2.33-.02-.68,.57-.84,1.54-.39,2.3l7.67,12.8c.32,.54,.91,.87,1.54,.87h0c.63,0,1.21-.33,1.54-.86l11.72-19.4c.48-.79,.28-1.83-.46-2.38"/></g></g></svg>