<?xml version="1.0" encoding="UTF-8"?><svg id="Laag_1" xmlns="http://www.w3.org/2000/svg" xmlns:xlink="http://www.w3.org/1999/xlink" viewBox="0 0 64 64"><defs><style>.cls-1{fill:none;}.cls-2{clip-path:url(#clippath);}.cls-3{clip-path:url(#clippath-1);}</style><clipPath id="clippath"><rect class="cls-1" width="64" height="64"/></clipPath><clipPath id="clippath-1"><rect class="cls-1" width="64" height="64"/></clipPath></defs><g class="cls-2"><g class="cls-3"><path d="M55.16,43.77c-.09-1.52-1.3-2.74-2.82-2.82-.95-.05-2.11-.15-3.4-.31,.15,.22,.23,.48,.23,.76,0,.77-.62,1.39-1.39,1.39s-1.39-.62-1.39-1.39c0-.43,.2-.82,.52-1.07-1.88-.33-3.93-.82-5.97-1.56-.06-.04-.13-.08-.18-.12-.1-.85-.24-1.89-.39-2.89,2.82,.3,5.22,.64,6.92,1.24,.38,.13,.77-.12,.88-.54,1.26-5.09,1.81-8.52,1.81-12.24,0-7.49-2.81-15.48-7.13-18.07-2.75-1.65-5.84-1.05-5.84-1.05,0,0-2.97-2.86-8.17-1.88-8.48,1.6-14.84,9.74-14.84,21,0,3.73,.56,7.15,1.82,12.24,.1,.42,.5,.67,.88,.54,1.82-.64,4.29-1.01,7.36-1.3-.1,.87-.22,1.83-.33,2.81-2.27,.88-4.57,1.45-6.67,1.82,.31,.25,.52,.64,.52,1.07,0,.77-.62,1.39-1.39,1.39s-1.39-.62-1.39-1.39c0-.28,.09-.55,.23-.77-1.28,.17-2.45,.27-3.39,.32-1.52,.08-2.74,1.3-2.82,2.82-.51,8.64-.84,10.23-.84,19.23H56c0-9-.33-10.57-.84-19.23m-28.74-4.35c.07-.58,.58-5.32,.58-5.32-2.52-2.48-3.6-5.57-4.06-8.28-.29-1.73-.25-3.34-.16-4.41,4.8-1.89,11.6-5.75,14.23-9.06,0,0,.32,.01,.12,.5-.34,.83-.85,1.81-1.55,2.98,1.24,2.64,3.47,4.56,5.68,5.93,.07,1.03,.07,2.46-.2,4.06-.53,3.18-2.82,7.63-5.34,9.18-1.72,1.06-4.87,1.23-6.71,.44,.42,.84,1.27,1.84,3.15,2.31,2.54,.63,4.85-.4,5.45-.75,.11,.8,.22,1.59,.29,2.28,.05,.43,.23,1.83,2.22,2.65-2.11,5.08-8.06,8.83-8.06,8.83,0,0-6.05-3.75-8.07-8.93,1.93-.7,2.39-1.95,2.44-2.4m-10.3,5.48c0-.77,.62-1.39,1.39-1.39s1.39,.62,1.39,1.39-.62,1.38-1.39,1.38-1.39-.62-1.39-1.38m1.76,3.27c0-.76,.62-1.39,1.38-1.39s1.39,.62,1.39,1.39-.62,1.39-1.39,1.39-1.38-.62-1.38-1.39m3.64,4.29c-.77,0-1.39-.62-1.39-1.39s.62-1.39,1.39-1.39,1.39,.62,1.39,1.39-.62,1.39-1.39,1.39m2.54,2.7c-.76,0-1.38-.62-1.38-1.39s.62-1.38,1.38-1.38,1.39,.62,1.39,1.38-.62,1.39-1.39,1.39m2.98,2.32c-.76,0-1.39-.62-1.39-1.39s.62-1.38,1.39-1.38,1.39,.62,1.39,1.38-.62,1.39-1.39,1.39m4.97,4.28c-1.53,0-2.77-1.24-2.77-2.77s1.24-2.77,2.77-2.77,2.77,1.24,2.77,2.77-1.24,2.77-2.77,2.77m4.96-4.28c-.77,0-1.39-.62-1.39-1.39s.62-1.38,1.39-1.38,1.38,.62,1.38,1.38-.62,1.39-1.38,1.39m2.97-2.32c-.76,0-1.39-.62-1.39-1.39s.62-1.38,1.39-1.38,1.39,.62,1.39,1.38-.62,1.39-1.39,1.39m2.54-2.7c-.76,0-1.39-.62-1.39-1.39s.62-1.39,1.39-1.39,1.39,.62,1.39,1.39-.62,1.39-1.39,1.39m2.26-2.91c-.76,0-1.39-.62-1.39-1.39s.62-1.39,1.39-1.39,1.38,.62,1.38,1.39-.62,1.39-1.38,1.39m1.76-3.27c-.77,0-1.39-.62-1.39-1.38s.62-1.39,1.39-1.39,1.39,.62,1.39,1.39-.62,1.38-1.39,1.38"/></g></g></svg>