<?xml version="1.0" encoding="UTF-8"?><svg id="Laag_1" xmlns="http://www.w3.org/2000/svg" xmlns:xlink="http://www.w3.org/1999/xlink" viewBox="0 0 64 64"><defs><style>.cls-1{fill:none;}.cls-2{clip-path:url(#clippath);}.cls-3{clip-path:url(#clippath-1);}</style><clipPath id="clippath"><rect class="cls-1" width="64" height="64"/></clipPath><clipPath id="clippath-1"><rect class="cls-1" width="64" height="64"/></clipPath></defs><g class="cls-2"><g class="cls-3"><path d="M57.84,45.63c-1.83-16.67-3.84-41.21-17.67-37.08-9.17,2.74-13.56,14.76-14.17,24.45-.56,.04-.96-.73-.96-1.51,0-20.37,13.03-24.49,13.03-24.49,0,0-2.02-1.32-5.59-1.07-1.39-1.93-3.68-4.55-6.84-3.74-1.59,.41-2.7,1.72-3.21,3.42-.56,1.88-.28,4.15,.63,5.99-.52,.71-1.01,1.47-1.45,2.28-1.69-.67-5.12-1.62-8.23,.1-3.18,1.76-4.97,5.67-5.32,11.63-.74,12.75,6.89,23.13,9.89,26.7,.15,1.27,.31,2.4,.46,3.34,.32,1.99,1.77,3.61,3.72,4.15,3.38,.95,8.09,1.76,10.16,2.1,.68,.11,1.38,.14,2.06,.03,7.45-1.22,16.51-7.32,21.02-10.65,1.78-1.32,2.72-3.46,2.48-5.65m-40.54-.92c-2.81-4.59-5.79-11.33-5.35-18.87,.26-4.46,1.4-7.37,3.3-8.43,1.65-.92,3.7-.37,4.79,.05-2.85,7.93-3.18,18.69-2.73,27.25M25.27,6.46c.69-2.31,2.8-1.46,4.02,.25-1.18,.49-2.45,1.21-3.78,2.28-.07,.06-.14,.13-.21,.19-.23-.93-.26-1.92-.02-2.72"/></g></g></svg>