<?xml version="1.0" encoding="UTF-8"?><svg id="Laag_1" xmlns="http://www.w3.org/2000/svg" xmlns:xlink="http://www.w3.org/1999/xlink" viewBox="0 0 64 64"><defs><style>.cls-1{fill:none;}.cls-2{clip-path:url(#clippath);}.cls-3{clip-path:url(#clippath-1);}</style><clipPath id="clippath"><rect class="cls-1" width="64" height="64"/></clipPath><clipPath id="clippath-1"><rect class="cls-1" width="64" height="64"/></clipPath></defs><g class="cls-2"><g class="cls-3"><path d="M39.92,43.05c-.08-.6-.2-1.41-.38-2.52,1.37-1.58,2.44-3.59,3.08-5.89,1.69-.75,2.96-2.46,3.29-4.6,.29-1.86-.2-3.62-1.21-4.89,.26-10.68-3.41-14.14-3.41-14.14,.78-1.57,2.47-2.69,2.47-2.69-5.26-.96-7.99,1.4-7.99,1.4-4.81-3.55-11.49-2.32-11.49-2.32,1.3,1.3,1.88,2.66,1.88,2.66-8.7,3.82-8.25,9.83-8.25,9.83,0,0,1.3-1.02,2.01-1.23,0,0-.66,2.98-.54,6.4-1.06,1.27-1.59,3.07-1.29,4.98,.33,2.14,1.6,3.85,3.29,4.6,.64,2.3,1.71,4.31,3.08,5.89-.19,1.14-.31,1.96-.39,2.57-8.01,2.4-11.91,8.56-11.91,15.91H52c0-7.4-3.96-13.58-12.08-15.95m-16.04-11.1c-1.39,.48-2.59-.84-2.83-2.37-.24-1.58,.51-3.05,1.71-3.27,.45-.09,.9,.02,1.29,.26,0-.78,.04-1.58,.13-2.38,3.11-.64,5.21-1.92,5.21-1.92-.19,1.71-1.23,3.68-1.23,3.68,4.61-.55,7.53-5.38,7.53-5.38,.59,2.39,2.08,3.96,2.08,3.96,.59-1.17,1.2-1.88,1.69-2.32,.34,1.43,.48,2.94,.48,4.36,.4-.25,.84-.35,1.29-.26,1.19,.23,1.95,1.69,1.71,3.27-.24,1.52-1.43,2.86-2.83,2.37-.85,6.11-5.16,10.4-9.82,9.04,1.6,3.16,4.4,2.91,6.55,1.73,.19,1.29,.24,1.88,.24,2.14,0,2.48-2.14,4.28-5.09,4.28s-5.09-1.8-5.09-4.28c0-.51,.53-4.07,.75-5.34-1.92-1.66-3.32-4.37-3.77-7.57"/></g></g></svg>