<?xml version="1.0" encoding="UTF-8"?><svg id="Laag_1" xmlns="http://www.w3.org/2000/svg" xmlns:xlink="http://www.w3.org/1999/xlink" viewBox="0 0 64 64"><defs><style>.cls-1{fill:none;}.cls-2{clip-path:url(#clippath);}.cls-3{clip-path:url(#clippath-1);}</style><clipPath id="clippath"><rect class="cls-1" width="64" height="64"/></clipPath><clipPath id="clippath-1"><rect class="cls-1" width="64" height="64"/></clipPath></defs><g class="cls-2"><g class="cls-3"><path d="M51.92,6h-3.84c-1.15,0-2.08,.93-2.08,2.08V49.59c1.61,.26,3.65,.62,5.73,1.02,.32,.06,.28,.3,.24,.38h-9.2l-1.1-19.72c-.42-7.5-7.2-13.28-15.18-13.28s-14.76,5.78-15.18,13.28l-1.32,23.72H54V8.08c0-1.15-.93-2.08-2.08-2.08m-25.42,28.31c.97,0,1.75,.78,1.75,1.75s-.78,1.75-1.75,1.75-1.75-.78-1.75-1.75,.78-1.75,1.75-1.75m-4.15-5.44l2.58,4.47c-.94,.55-1.58,1.55-1.58,2.72h-5.15c0-3.07,1.67-5.75,4.16-7.19m4.15,15.5c-1.51,0-2.93-.41-4.15-1.12l2.58-4.47c.46,.27,1,.43,1.57,.43s1.11-.17,1.57-.43l2.58,4.47c-1.22,.71-2.64,1.12-4.15,1.12m3.16-8.31c0-1.17-.64-2.18-1.59-2.72l2.58-4.47c2.48,1.44,4.16,4.11,4.16,7.19h-5.15Z"/></g></g></svg>