<?xml version="1.0" encoding="UTF-8"?><svg id="Laag_1" xmlns="http://www.w3.org/2000/svg" xmlns:xlink="http://www.w3.org/1999/xlink" viewBox="0 0 64 64"><defs><style>.cls-1{fill:none;}.cls-2{clip-path:url(#clippath);}.cls-3{clip-path:url(#clippath-1);}</style><clipPath id="clippath"><rect class="cls-1" width="64" height="64"/></clipPath><clipPath id="clippath-1"><rect class="cls-1" width="64" height="64"/></clipPath></defs><g class="cls-2"><g class="cls-3"><path d="M52.61,44.05c-2.18-2.37-8.46-4.49-11.39-5.37-.16-1.12-.36-2.41-.55-3.48,1.79-2.17,2.89-4.4,3.25-6.7,1.33-1.22,2.07-3.17,2.07-5.56,0-.74,0-2.7-1.23-4.04,.3-3.34,.51-8.5-.8-10.59-1.6-2.56-3.54-3.82-7.25-2.98-2.44-1.16-4.09-1.88-8.36-.84-2.97,.72-6.21,1.91-7.92,3.88-1.65,1.91-1.54,7.22-1.27,10.61-1.16,1.33-1.16,3.23-1.16,3.96,0,2.39,.74,4.33,2.06,5.55,.38,2.51,1.61,4.91,3.71,7.26-.11,.81-.23,1.75-.35,2.73-2.51,.73-9.67,3-12.03,5.57-2.87,3.12-4.39,14.89-4.39,14.89H57s-1.51-11.77-4.39-14.89M24,19v-2.81c2.07-.15,6.19-.75,10.75-3.11l5.25,3.53v2.38c1.53-.76,2.43,.29,2.43,.29-.73-.42-1.74,.29-2.25,.71H23.82c-.51-.42-1.52-1.13-2.25-.71,0,0,.9-1.05,2.43-.28m14.42,2.8l-.28,2.11c-.02,.17-.17,.29-.33,.29h-2.72c-.17,0-.32-.1-.38-.26l-.86-2.14h4.57Zm-8.28,0l-.85,2.14c-.06,.16-.21,.26-.38,.26h-2.72c-.17,0-.31-.12-.33-.29l-.28-2.11h4.57Zm2.42,19.2c-2.68,0-5.01-.8-6.18-1.98,.07-.5,.17-1.07,.67-4.2-2.28-2.2-4.1-4.87-4.1-8.06-1.62-.5-2.04-2.55-2.04-3.82s.32-1.96,.77-2.17c.33-.16,.65-.08,.89,.03l1.33,2,.19,1.46c.13,.99,.98,1.73,1.98,1.73h2.84c.91,0,1.72-.55,2.05-1.39l.51-1.29c.19-.47,.86-.47,1.05,0l.51,1.29c.33,.84,1.15,1.39,2.05,1.39h2.84c1,0,1.85-.74,1.98-1.73l.19-1.46,1.33-2c.24-.11,.56-.19,.89-.03,.45,.21,.77,.9,.77,2.17s-.42,3.31-2.04,3.82c0,3.7-2.53,6.5-5.34,8.89-.78,.66-2.25,1.11-3.72,1.1-1.06,0-2.13-.29-2.93-.64,.61,.93,1.66,2.08,3.59,2.59,3.15,.83,5.46-.91,5.46-.91,0,0,.13,.88,.21,1.6-1.26,.97-3.37,1.61-5.77,1.61"/></g></g></svg>