<?xml version="1.0" encoding="UTF-8"?><svg id="Laag_1" xmlns="http://www.w3.org/2000/svg" xmlns:xlink="http://www.w3.org/1999/xlink" viewBox="0 0 64 64"><defs><style>.cls-1{fill:none;}.cls-2{clip-path:url(#clippath);}.cls-3{clip-path:url(#clippath-1);}</style><clipPath id="clippath"><rect class="cls-1" width="64" height="64"/></clipPath><clipPath id="clippath-1"><rect class="cls-1" width="64" height="64"/></clipPath></defs><g class="cls-2"><g class="cls-3"><path d="M47.66,28.5c-.44-.35-1.14-.79-2.25-1.62-1.03-.77-2.11-1.64-2.58-2.25-.37-.48-.43-1.89-.68-3.29-.36-2-3.21-6.22-3.21-6.22,.58-2.27-1.2-9.16-12.57-6.12-15.08,4.03-15.25,14.85-15.27,16.25-.07,4.95,1.51,8.21,3.52,10.91l3.68-4.15c.84-.94,2.05-1.48,3.31-1.48,.95,0,1.86,.3,2.63,.86,1.85,1.36,2.36,3.88,1.18,5.85l-.02,.03-.02,.03s-1.54,2.4-4.24,6.62c2.37,3.03,2.85,4.81,.4,10.07h19.34c-.65-3.46-.57-5.96-.57-5.96-2.43-.24-3.9-1.03-4.92-1.8-.62-.48-.43-.59-.39-.67,0,0,2.82,1.45,7.77,1.02,2.63-.23,4.22-1.73,3.5-4.85-.16-.67,.18-1.37,.51-1.91,.5-.8,.93-1.23,.22-2.17-.31-.41-.69-.73-.69-.73,0,0,.68-.58,.92-1.24,.37-1.05-.15-1.1-.6-1.89-.38-.65-.39-1.37-.39-1.37,0,0,.91-.77,1.54-1.45,.36-.38,1.2-1.4-.13-2.47"/><path d="M63.83,44.6l-9.46-7.94c.05-.33-.05-.67-.32-.91l-3.74-3.14c-.41-.35-1.03-.29-1.38,.12h0c-.35,.41-.29,1.03,.12,1.38l3.74,3.14c.27,.23,.63,.27,.95,.16l9.46,7.94c.21,.17,.51,.15,.69-.06,.17-.21,.15-.51-.06-.69"/><path d="M22.94,33.17c-.93-.68-2.23-.55-2.99,.31l-9.79,11.02-6.46-5.69c-.83-.72-2.05-.73-2.89-.03-.84,.7-1.06,1.9-.5,2.85,0,0,3.54,5.41,8.12,12.14,.44,.66,1.13,1.1,1.92,1.11h.01c.79,0,1.5-.42,1.92-1.09,7.07-11.17,11.26-17.67,11.26-17.67,.59-.99,.33-2.27-.6-2.95"/></g></g></svg>