<?xml version="1.0" encoding="UTF-8"?><svg id="Laag_1" xmlns="http://www.w3.org/2000/svg" xmlns:xlink="http://www.w3.org/1999/xlink" viewBox="0 0 64 64"><defs><style>.cls-1{fill:none;}.cls-2{clip-path:url(#clippath);}.cls-3{clip-path:url(#clippath-1);}</style><clipPath id="clippath"><rect class="cls-1" width="64" height="64"/></clipPath><clipPath id="clippath-1"><rect class="cls-1" width="64" height="64"/></clipPath></defs><g class="cls-2"><g class="cls-3"><path d="M47.44,9.25c.42-1.26,.12-2.75-.54-4.29-.07-.16-.24-.26-.41-.22-1.68,.35-4.08,1.31-4.49,2.84-.49,1.79,.65,4.5,.34,6.29,2.09-3.01,4.44-2.62,5.11-4.62"/><path d="M40.21,18.71s1.85-4.24,.1-7.96c-.85-1.81-2.61-2.7-3.36-3.01-.19-.08-.42,0-.49,.21-.3,.81-.92,2.92,.01,4.57,1.19,2.09,2.77,3.44,3.73,6.2"/><path d="M36.98,25.14s2.76-4.06,1.35-7.27c-1.09-2.47-3.24-4.2-4.17-4.87-.22-.15-.52-.04-.57,.22-.22,1-.6,3.23-.08,4.94,.69,2.28,2.94,3.82,3.47,6.97"/><path d="M34.3,31.33s1.91-3.28,1.11-6.57c-.63-2.58-3.02-4.9-4.01-5.77-.21-.18-.53-.08-.6,.19-.27,1.02-.7,3.28,0,5.21,.93,2.59,3.28,4.04,3.52,6.94"/><path d="M31.55,36.11s1.92-3.34,1.04-5.66c-.84-2.2-2.11-3.08-3.49-5.47-.15-.26-.53-.24-.66,.03-.43,.93-1.07,2.79-.48,4.78,.81,2.72,2.34,2.83,3.58,6.32"/><path d="M41.66,36.3c-1.05,.08-3.28,.3-5.43,.9-2.97,.83-4.29,1.27-5.69,2.5-.11-2.55-1.21-5.89-4.57-9.25-.19-.19-.52-.12-.61,.13-.52,1.41-1.78,5.33-.81,7.95,.64,1.72,1.76,2.99,3.14,3.84-1.96,3.31-5.23,6.61-8.1,9.16-.97,.86-.83,2.41,.27,3.08,.77,.47,1.78,.34,2.4-.32,3.94-4.14,5.95-6.71,8.14-10.86,2.42,.51,5.1,.04,7.19-1.41,1.86-1.28,3.63-3.71,4.42-5.21,.13-.25-.07-.56-.35-.54"/><path d="M44.38,30.63c-1.11-.11-3.88-.21-6.53,1.14-3.41,1.75-5.47,5.13-5.47,5.13,3.35-1.64,5.77-1.48,8.52-2.21,1.96-.53,3.04-1.98,3.78-3.54,.11-.23-.04-.5-.3-.52"/><path d="M46.56,24.4c-1.13,.09-4.17,.5-6.86,2.32-2.56,1.74-4.37,5-4.37,5,2.55-2.17,4.69-2.39,6.82-2.67,2.66-.35,4.47-2.52,4.81-4.2,.05-.25-.15-.46-.4-.45"/><path d="M48.87,17.61c-1.12,.18-3.76,.73-5.92,2.26-3.08,2.17-4.68,5.86-4.68,5.86,3.32-2.33,6.06-2.1,8.01-3.39,1.29-.85,2.49-2.47,3-4.25,.08-.26-.14-.52-.41-.48"/><path d="M51.2,10.99c-1.16,.05-4.13,.35-6.11,2.1-2.51,2.21-3.18,4.73-3.66,6.08,2.68-2.31,4.73-2.19,6.78-3.14,1.89-.88,2.89-2.71,3.38-4.57,.06-.24-.13-.47-.38-.46"/><path d="M8.39,13.51c-.37-.82-1.2-1.42-2.23-1.89-.11-.05-.24-.02-.31,.08-.68,.95-1.43,2.51-.94,3.47,.57,1.12,2.38,1.95,3.04,2.98-.33-2.46,1.02-3.34,.44-4.64"/><path d="M9.11,21.54s-1.01-2.96-3.59-4.02c-1.25-.51-2.53-.15-3.05,.03-.13,.05-.2,.19-.15,.33,.22,.54,.87,1.88,2.1,2.27,1.54,.5,2.95,.45,4.69,1.38"/><path d="M10.44,26.22s-.48-3.29-2.65-4.24c-1.67-.74-3.53-.62-4.3-.53-.18,.02-.28,.22-.18,.37,.35,.6,1.18,1.88,2.22,2.5,1.38,.82,3.21,.56,4.92,1.89"/><path d="M11.93,30.53s-.55-2.51-2.45-3.78c-1.49-1-3.74-1.06-4.64-1.04-.19,0-.3,.2-.22,.37,.34,.63,1.15,1.96,2.38,2.6,1.65,.87,3.48,.51,4.93,1.85"/><path d="M12.74,34.17s-.57-2.55-2.07-3.3c-1.43-.71-2.46-.58-4.24-1.13-.19-.06-.38,.12-.31,.31,.21,.66,.74,1.88,1.95,2.6,1.65,.99,2.46,.35,4.67,1.51"/><path d="M17.87,29.64c-.49,.52-1.5,1.64-2.3,2.93-1.1,1.77-1.55,2.59-1.7,3.85-1.22-1.22-3.29-2.39-6.5-2.52-.18,0-.31,.18-.24,.34,.38,.94,1.55,3.47,3.23,4.33,1.1,.57,2.25,.69,3.32,.49,.53,2.55,.41,5.69,.15,8.27-.09,.87,.69,1.58,1.55,1.41,.6-.12,1.04-.64,1.05-1.26,.07-3.86-.1-6.07-.91-9.13,1.44-.85,2.56-2.31,2.94-3.99,.34-1.49,.12-3.51-.17-4.62-.05-.19-.29-.25-.42-.11"/><path d="M16.64,25.58c-.61,.45-2.04,1.67-2.73,3.55-.9,2.43-.38,5.06-.38,5.06,.92-2.35,2.2-3.37,3.24-5,.74-1.16,.61-2.38,.27-3.49-.05-.16-.25-.23-.39-.12"/><path d="M14.88,21.47c-.52,.56-1.86,2.16-2.36,4.29-.48,2.03,.1,4.49,.1,4.49,.28-2.25,1.25-3.34,2.18-4.45,1.17-1.39,1.08-3.3,.48-4.29-.09-.14-.29-.16-.4-.04"/><path d="M12.93,17.03c-.48,.6-1.54,2.08-1.92,3.83-.54,2.49,.35,5.06,.35,5.06,.59-2.68,2.06-3.81,2.44-5.35,.26-1.02,.11-2.37-.45-3.49-.08-.17-.31-.2-.42-.05"/><path d="M11.06,12.67c-.56,.56-1.9,2.06-2.09,3.84-.24,2.25,.57,3.82,.95,4.71,.28-2.38,1.36-3.25,1.94-4.66,.54-1.3,.2-2.67-.41-3.82-.08-.15-.28-.17-.4-.06"/><path d="M59.86,40.29c.65-.62,.94-1.6,1.04-2.73,.01-.12-.06-.23-.18-.26-1.12-.32-2.85-.51-3.59,.27-.86,.92-1.04,2.89-1.8,3.87,2.21-1.13,3.49-.16,4.52-1.14"/><path d="M52.53,43.65s2.45-1.94,2.59-4.72c.07-1.35-.7-2.44-1.05-2.86-.09-.11-.25-.13-.36-.03-.44,.39-1.48,1.45-1.44,2.73,.04,1.62,.56,2.93,.26,4.89"/><path d="M48.57,46.46s2.94-1.55,3.11-3.91c.13-1.82-.6-3.54-.94-4.23-.08-.16-.3-.19-.41-.05-.45,.53-1.38,1.74-1.62,2.93-.31,1.58,.54,3.22-.14,5.27"/><path d="M45,49.31s2.18-1.35,2.75-3.57c.44-1.74-.25-3.88-.56-4.72-.07-.18-.29-.22-.42-.08-.48,.53-1.46,1.74-1.66,3.11-.27,1.84,.68,3.45-.1,5.26"/><path d="M41.84,51.29s2.21-1.38,2.42-3.05c.2-1.58-.28-2.51-.35-4.37,0-.2-.24-.31-.4-.19-.55,.42-1.53,1.33-1.8,2.7-.38,1.88,.5,2.44,.13,4.91"/><path d="M47.82,54.61c-.65-.29-2.05-.86-3.53-1.19-2.03-.45-2.97-.6-4.19-.31,.74-1.56,1.15-3.9,.21-6.97-.05-.17-.27-.24-.41-.11-.76,.68-2.76,2.62-3.01,4.49-.16,1.23,.1,2.35,.65,3.29-2.22,1.36-5.22,2.29-7.74,2.9-.85,.21-1.26,1.17-.82,1.93,.31,.53,.95,.77,1.54,.57,3.66-1.22,5.68-2.11,8.31-3.9,1.29,1.07,3.03,1.64,4.74,1.44,1.52-.17,3.34-1.06,4.3-1.7,.16-.11,.13-.35-.04-.43"/><path d="M51.24,52.09c-.63-.42-2.25-1.36-4.26-1.39-2.59-.04-4.89,1.33-4.89,1.33,2.52,.08,3.92,.95,5.79,1.38,1.34,.31,2.44-.22,3.38-.91,.14-.1,.13-.31-.01-.41"/><path d="M54.52,49.06c-.7-.31-2.65-1.03-4.83-.79-2.08,.22-4.2,1.6-4.2,1.6,2.21-.49,3.56,.06,4.92,.57,1.7,.64,3.47-.09,4.21-.98,.11-.13,.06-.32-.1-.39"/><path d="M58.06,45.74c-.72-.25-2.48-.76-4.25-.53-2.53,.32-4.66,2.02-4.66,2.02,2.72-.34,4.28,.67,5.86,.52,1.05-.1,2.27-.69,3.14-1.59,.13-.13,.08-.35-.09-.42"/><path d="M61.55,42.53c-.71-.34-2.58-1.1-4.32-.69-2.2,.53-3.41,1.82-4.12,2.46,2.33-.53,3.52,.2,5.05,.28,1.41,.07,2.59-.7,3.47-1.66,.11-.12,.07-.32-.08-.4"/></g></g></svg>