<?xml version="1.0" encoding="UTF-8"?><svg id="Laag_1" xmlns="http://www.w3.org/2000/svg" xmlns:xlink="http://www.w3.org/1999/xlink" viewBox="0 0 64 64"><defs><style>.cls-1{fill:none;}.cls-2{clip-path:url(#clippath);}.cls-3{clip-path:url(#clippath-1);}</style><clipPath id="clippath"><rect class="cls-1" width="64" height="64"/></clipPath><clipPath id="clippath-1"><rect class="cls-1" width="64" height="64"/></clipPath></defs><g class="cls-2"><g class="cls-3"><path d="M46.93,28.53c3.02-10.9-1.52-22-2.05-23.24-.29-.67-.89-1.15-1.6-1.28-.9-.17-5.65-1.02-11.28-1.02s-10.38,.85-11.27,1.02c-.72,.13-1.32,.61-1.61,1.29-.53,1.23-5.07,12.33-2.05,23.23,2.04,7.36,8.19,10.02,11.93,10.96v17.59c-1.85,.18-6.34,.64-7.76,1.01-1.82,.48-1.47,2.9,.02,2.9h21.48c1.5,0,1.85-2.43,.02-2.9-1.42-.37-5.91-.83-7.76-1.01v-17.59c3.74-.94,9.89-3.6,11.93-10.96M23,15s-2.48,9.02,1.71,15.68c1.85,2.94,3.61,4.04,3.61,4.04,0,0-.02,.58-1.19,.08-2.5-1.16-5.21-3.3-6.32-7.28-2.32-8.38,.44-17.01,1.53-19.89,1.77-.29,5.45-.79,9.66-.79s7.88,.5,9.66,.79c.52,1.37,1.41,4.04,1.95,7.36H23Z"/></g></g></svg>