<?xml version="1.0" encoding="UTF-8"?><svg id="Laag_1" xmlns="http://www.w3.org/2000/svg" xmlns:xlink="http://www.w3.org/1999/xlink" viewBox="0 0 64 64"><defs><style>.cls-1{fill:none;}.cls-2{clip-path:url(#clippath);}.cls-3{clip-path:url(#clippath-1);}</style><clipPath id="clippath"><rect class="cls-1" width="64" height="64"/></clipPath><clipPath id="clippath-1"><rect class="cls-1" width="64" height="64"/></clipPath></defs><g class="cls-2"><g class="cls-3"><path d="M26.91,38h2.09v-2h-2.43l.34,2Zm-16.91-4.83v-1.2c0-1,.42-1.97,1.15-2.66l9.98-9.44-3.92-3.71c-.24-.23-.61-.23-.86,0L1.41,30.32c-.26,.24-.41,.58-.41,.94v.95c0,.35,.28,.64,.63,.64h2.53v13.16H14v-10.02h-1.2c-1.54,0-2.8-1.26-2.8-2.81m16.23,.83h2.77v-2h-3.11l.34,2Zm36.34-3.68l-14.95-14.15c-.24-.23-.61-.23-.85,0l-3.91,3.7,10,9.46c.73,.68,1.15,1.65,1.15,2.65v1.2c0,1.55-1.26,2.81-2.8,2.81h-1.2v10.02h9.82v-13.16h2.53c.35,0,.63-.28,.63-.64v-.95c0-.36-.15-.7-.41-.94m-31.57,7.68h3v-2h-3v2Zm5-4h2.58l.27-2h-2.85v2Zm16-.83v-1.2c0-.45-.19-.88-.52-1.19L32.54,12.86c-.31-.28-.78-.28-1.08,0L12.52,30.79c-.33,.31-.52,.74-.52,1.19v1.2c0,.45,.36,.81,.8,.81h3.2v16.87H48v-16.87h3.2c.44,0,.8-.36,.8-.81m-26.5,15.13c-.99,0-1.8-.81-1.8-1.8s.81-1.8,1.8-1.8,1.8,.81,1.8,1.8-.81,1.8-1.8,1.8m13,0c-.99,0-1.8-.81-1.8-1.8s.81-1.8,1.8-1.8,1.8,.81,1.8,1.8-.81,1.8-1.8,1.8m1.68-9.16c-.07,.49-.49,.86-.99,.86h-13.19c-.55,0-1,.45-1,1s.45,1,1,1h13c.55,0,1,.45,1,1s-.45,1-1,1h-13.29c-1.65,0-3-1.35-3-3,0-1.32,.76-2.43,1.94-2.83l-1.36-8.13c-1.3,0-2.94-.27-2.94-1.22,0-.47,.42-.82,.88-.82h3.13c.5,0,.91,.36,.99,.83l.2,1.17h14.74c.29,0,.56,.12,.75,.34,.19,.22,.28,.51,.24,.79l-1.1,8Zm-4.18-1.14h2.03l.28-2h-2.31v2Zm-5-4h3v-2h-3v2Z"/></g></g></svg>