<?xml version="1.0" encoding="UTF-8"?><svg id="Laag_1" xmlns="http://www.w3.org/2000/svg" xmlns:xlink="http://www.w3.org/1999/xlink" viewBox="0 0 64 64"><defs><style>.cls-1{fill:none;}.cls-2{clip-path:url(#clippath);}.cls-3{clip-path:url(#clippath-1);}</style><clipPath id="clippath"><rect class="cls-1" width="64" height="64"/></clipPath><clipPath id="clippath-1"><rect class="cls-1" width="64" height="64"/></clipPath></defs><g class="cls-2"><g class="cls-3"><path d="m32,8c-13.26,0-24,10.74-24,24s10.74,24,24,24,24-10.74,24-24-10.75-24-24-24m0,43.1c-10.55,0-19.1-8.55-19.1-19.1s8.55-19.1,19.1-19.1,19.1,8.55,19.1,19.1-8.55,19.1-19.1,19.1"/><path d="m32,17c-8.28,0-15,6.72-15,15s6.72,15,15,15,15-6.72,15-15-6.72-15-15-15m0,25.1c-5.58,0-10.1-4.52-10.1-10.1s4.52-10.1,10.1-10.1,10.1,4.52,10.1,10.1-4.52,10.1-10.1,10.1"/><path d="m32,26c-3.31,0-6,2.69-6,6s2.69,6,6,6,6-2.69,6-6-2.69-6-6-6"/></g></g></svg>