<?xml version="1.0" encoding="UTF-8"?><svg id="Laag_1" xmlns="http://www.w3.org/2000/svg" xmlns:xlink="http://www.w3.org/1999/xlink" viewBox="0 0 64 64"><defs><style>.cls-1{fill:none;}.cls-2{clip-path:url(#clippath);}.cls-3{clip-path:url(#clippath-1);}</style><clipPath id="clippath"><rect class="cls-1" width="64" height="64"/></clipPath><clipPath id="clippath-1"><rect class="cls-1" width="64" height="64"/></clipPath></defs><g class="cls-2"><g class="cls-3"><path d="M51.44,37.3c-.79-.34-1.2-1.05-1.43-1.79l-5.74-1.14c-.32-.1-.27-.31-.25-.36h7.99v-5.34c0-.92-.81-1.66-1.82-1.66h-14.37c-1,0-1.82,.74-1.82,1.66v5.33h2.22c-.03,1.08-.32,2.73-1.66,3.31-2.56,1.12-2.5,1.25-2.5,4.7v18c0,2.13,7.92,1.99,10.94,1.99s10.92,.14,10.93-1.99v-18c0-3.45,.07-3.58-2.49-4.7m-1.44,14.7h-14v-10h14v10Z"/><path d="M35.82,25h3.26l-7.07-7v-6c0-.55-.45-1-1-1h-1V7h3c.55,0,1-.45,1-1v-1.5c0-.94-.65-1.76-1.57-1.96-1.24-.26-3.29-.54-6.43-.54-4.89,0-11.86,1.35-14.2,1.83-.47,.1-.8,.5-.8,.98v1.19c0,.55,.45,1,1,1h12v2.81l4.15,.83c.32,.1,.27,.31,.25,.36h-5.4c-.55,0-1,.45-1,1v6l-7.33,7.36c-1.13,1.13-1.71,2.7-1.56,4.29l2.44,25.44c.05,.51,.48,.9,.99,.9h13.45v-13.98c0-3.04,.1-4.23,2-5.57v-7.77c0-2.02,1.71-3.66,3.82-3.66"/></g></g></svg>