<?xml version="1.0" encoding="UTF-8"?><svg id="Laag_1" xmlns="http://www.w3.org/2000/svg" xmlns:xlink="http://www.w3.org/1999/xlink" viewBox="0 0 64 64"><defs><style>.cls-1{fill:none;}.cls-2{clip-path:url(#clippath);}.cls-3{clip-path:url(#clippath-1);}</style><clipPath id="clippath"><rect class="cls-1" width="64" height="64"/></clipPath><clipPath id="clippath-1"><rect class="cls-1" width="64" height="64"/></clipPath></defs><g class="cls-2"><g class="cls-3"><path d="M31.99,28.32l-13.11,10.9h-4.7v22.78H49.8v-22.78h-4.7l-13.11-10.9Zm-5.99,28.68h-6v-4h6v4Zm0-6h-6v-7h6v7Zm9,6h-6v-4h6v4Zm0-6h-6v-7h6v7Zm-3.01-10.97c-1.93,0-3.5-1.57-3.5-3.5s1.57-3.5,3.5-3.5,3.5,1.57,3.5,3.5-1.57,3.5-3.5,3.5m12.01,16.97h-6v-4h6v4Zm0-6h-6v-7h6v7Zm2.74-35.3c-1.32-.23-2.35-.36-3.74-.45v2.19c0,1.19,.84,2.23,2.01,2.46,7.28,1.47,13.02,.17,16.92-2.2,.38-.23,.22-.81-.23-.82-4.1-.14-8.96-1.9-12.7-3.58v-2.79c0-1.01-.49-1.96-1.34-2.52-1.98-1.3-6.29-3.42-13.66-3.88v-.53c0-1.1-.9-1.6-2-1.6s-2,.5-2,1.6V23h-8.33c-.52,0-1,.25-1.3,.67l-8.63,12.53c-.19,.26,0,.63,.32,.63h5.63l12.7-10.65c.92-.77,2.21-.74,3.18,0l12.7,10.65h5.63c.32,0,.51-.36,.32-.63l-8.63-12.53c-.3-.42-.78-.67-1.3-.67h-8.31V13.42c3.3-.47,8.79-.66,13.77,1.91-.06,.24-.35,.48-1.02,.37"/></g></g></svg>