<?xml version="1.0" encoding="UTF-8"?><svg id="Laag_1" xmlns="http://www.w3.org/2000/svg" xmlns:xlink="http://www.w3.org/1999/xlink" viewBox="0 0 64 64"><defs><style>.cls-1{fill:none;}.cls-2{clip-path:url(#clippath);}.cls-3{clip-path:url(#clippath-1);}</style><clipPath id="clippath"><rect class="cls-1" width="64" height="64"/></clipPath><clipPath id="clippath-1"><rect class="cls-1" width="64" height="64"/></clipPath></defs><g class="cls-2"><g class="cls-3"><path d="M61.3,41.42c-.24-1.1-1.4-2.03-2.5-2.07-7.04-.23-13.99-.33-20.94-.34,1.24,1.73,1.7,3.07,1.81,3.44,.07,.25,0,.39-.1,.43-.01-.02-.03-.03-.04-.05-1.82-2.99-5.05-4.82-8.53-4.82s-6.67,1.76-8.52,4.81c-.02,.02-.03,.04-.05,.06-.11-.04-.17-.18-.1-.43,.11-.37,.55-1.65,1.72-3.32-2.94,.06-5.88,.12-8.85,.22-1.1,.04-2.26,.97-2.5,2.07-.94,4.33-.94,8.67,0,13,.24,1.1,1.4,2.03,2.5,2.07,.94,.03,1.86,.04,2.8,.07v1.44c0,.55,.45,1,1,1h4c.55,0,1-.45,1-1v-1.29c.74,.02,1.48,.04,2.22,.05,1.42,.78,3.05,1.22,4.78,1.22s3.24-.42,4.63-1.14c4.78,0,9.57-.05,14.37-.14v1.3c0,.55,.45,1,1,1h4c.55,0,1-.45,1-1v-1.44c.94-.03,1.86-.04,2.8-.07,1.1-.04,2.26-.97,2.5-2.07,.94-4.33,.94-8.67,0-13m-30.3,13.08c-3.58,0-6.5-2.92-6.5-6.5s2.92-6.5,6.5-6.5,6.5,2.92,6.5,6.5-2.92,6.5-6.5,6.5m22.5-.5c-1.38,0-2.5-1.12-2.5-2.5s1.12-2.5,2.5-2.5,2.5,1.12,2.5,2.5-1.12,2.5-2.5,2.5m2.5-8h-9v-1h9v1Zm0-3h-9v-1h9v1Z"/><path d="M23.44,22.09c1.07,.89,4.55,4.46,5.4,13.96,1.3-.23,2.64-.25,3.94-.06-.05-.64-.11-1.27-.19-1.87,1.23-1.65,5.05-7.48,4.26-15.66-.39-4.06-2.27-6.08-3.77-7.07-3.3-2.16-7.34-1.22-8.37-.92-.92-2-4.01-3.47-7.71-3.47-3.15,0-5.87,1.07-7.17,2.63l5.86,1.01c.37,.1,.31,.31,.29,.36H3.56c-.53,0-.73,.69-.28,.98,1.34,.83,3.15,2.04,4.04,2.98,1.24,1.31,1.58,3.4,1.66,4.08-2.39,2.04-7.88,8.65-6.81,25.65,.09,1.47,.8,2.84,1.88,3.65,1.3,.97,3.28,1.67,5.86,2.1-.11-1.37-.13-2.75-.07-4.12-2.09-.42-3.07-.96-3.48-1.27-.11-.08-.24-.32-.26-.63-1.01-15.9,4.12-21.22,5.46-22.33l.2-.19h11.48l.2,.19Zm2.56-7.09c.85-.24,3.09-.57,4.49,.36,.92,.61,1.47,1.81,1.64,3.55,.31,3.24-.31,6.03-1.11,8.16-1.58-4.59-3.75-6.97-5.02-8.05v-4.02Z"/></g></g></svg>