<?xml version="1.0" encoding="UTF-8"?><svg id="Laag_1" xmlns="http://www.w3.org/2000/svg" xmlns:xlink="http://www.w3.org/1999/xlink" viewBox="0 0 64 64"><defs><style>.cls-1{fill:none;}.cls-2{clip-path:url(#clippath);}.cls-3{clip-path:url(#clippath-1);}</style><clipPath id="clippath"><rect class="cls-1" width="64" height="64"/></clipPath><clipPath id="clippath-1"><rect class="cls-1" width="64" height="64"/></clipPath></defs><g class="cls-2"><g class="cls-3"><path d="M11.43,44.81c1.99,1.3,4.49,3.06,6.85,3.06s4.85-1.76,6.86-3.07c2.01,1.32,4.47,3.07,6.86,3.07s4.83-1.74,6.86-3.06c1.99,1.3,4.49,3.06,6.85,3.06s4.83-1.74,6.86-3.06c.79,.51,1.66,1.1,2.57,1.62l7.44-10.82c.17-.25-.02-.59-.32-.58l-7.27,.37c-1.99-1.63-4.41-3.37-6.52-4.2l-16.71,.68c-1.41,.07-2.76-.57-3.59-1.71l-1.21-1.66,19.48-1.33-1.38-2.03c-1.26-1.86-3.44-2.87-5.67-2.63-3.43,.38-8.96,1.09-15.13,2.31l-3.77-5.16c-.31-.42-.8-.67-1.32-.67h-1.33c-.41,0-.68,.41-.54,.78l2.37,6.02c-1.77,.41-3.56,.86-5.34,1.35-.76,.21-1.35,.81-1.57,1.56l-.23,.78,7.88-.54-2.6,6.6,7.47,1c.31,.08,.29,.28,.27,.34l-8.67,.44c-5.48,.4-10.3,3.76-12.57,8.75l-.75,1.65c.36,.07,.7,.12,1.01,.12,2.38,0,4.83-1.74,6.86-3.06m37.07-5.81c.83,0,1.5,.67,1.5,1.5s-.67,1.5-1.5,1.5-1.5-.67-1.5-1.5,.67-1.5,1.5-1.5m-8,0c.83,0,1.5,.67,1.5,1.5s-.67,1.5-1.5,1.5-1.5-.67-1.5-1.5,.67-1.5,1.5-1.5m-8,0c.83,0,1.5,.67,1.5,1.5s-.67,1.5-1.5,1.5-1.5-.67-1.5-1.5,.67-1.5,1.5-1.5"/><path d="M59.43,50.07c-2.53,0-4.95-1.39-6.86-2.64-1.92,1.25-4.31,2.64-6.86,2.64s-4.95-1.39-6.86-2.64c-1.92,1.25-4.31,2.64-6.86,2.64s-4.9-1.36-6.86-2.64c-1.98,1.3-4.37,2.64-6.86,2.64s-4.95-1.39-6.86-2.64c-1.93,1.25-4.32,2.64-6.86,2.64-1.25,0-2.53-.39-3.57-.81v4.17c1.1,.33,2.33,.58,3.57,.58,2.75,0,5.41-1.18,6.86-1.94,1.44,.77,4.11,1.94,6.86,1.94s5.41-1.18,6.86-1.94c1.44,.77,4.11,1.94,6.86,1.94s5.42-1.18,6.86-1.94c1.44,.77,4.11,1.94,6.86,1.94s5.42-1.18,6.86-1.94c1.44,.77,4.11,1.94,6.86,1.94,1.24,0,2.47-.24,3.57-.58v-4.17c-1.04,.43-2.33,.82-3.57,.82"/></g></g></svg>