<?xml version="1.0" encoding="UTF-8"?><svg id="Laag_1" xmlns="http://www.w3.org/2000/svg" xmlns:xlink="http://www.w3.org/1999/xlink" viewBox="0 0 64 64"><defs><style>.cls-1{fill:none;}.cls-2{clip-path:url(#clippath);}.cls-3{clip-path:url(#clippath-1);}</style><clipPath id="clippath"><rect class="cls-1" width="64" height="64"/></clipPath><clipPath id="clippath-1"><rect class="cls-1" width="64" height="64"/></clipPath></defs><g class="cls-2"><g class="cls-3"><path d="M44,27c.83,0,.99-.67,.99-1.5s-.16-1.5-.99-1.5H23V13.62c0-1.1-.9-1.49-2-1.49s-2,.39-2,1.49v14.45c0,1.79,.44,3.48,1.21,4.97l-7.57,27.43c-.29,1.06,.43,1.66,1.5,1.95,1.06,.29,2.06,.18,2.36-.89l3.18-11.53h17.03l1.66,11.29c.16,1.09,1.11,1.34,2.2,1.18,1.09-.16,1.92-.67,1.76-1.76l-4.64-31.49c.06-.03,.27-.1,.39,.2,1.85,4.67,2.4,6.02,2.4,6.02,.28,.25,.29,.23,.6,.5,4.47,3.78,7.57,.93,7.57,.93l-8.41-9.86h3.76Zm-21,0h2v1.07c0,2.72,2.21,4.93,4.93,4.93h4.27l.29,2h-4.56c-3.83,0-6.93-3.13-6.93-6.93v-1.07Zm-2.49,20l2.82-10.24c1.84,1.4,4.12,2.24,6.6,2.24h5.15l1.18,8h-15.76Z"/><path d="M39,14.75c-3.36-2.1-7.08-1.94-9.44,.25-2.33,2.16-3.34,5.57-3.67,7h10.19c.34-.89,.78-1.91,1.26-2.55,0,0,4.7,2.06,7.54,2.8,4.75,1.25,5.55-1.76,5.55-1.76-4.18-1.41-7.87-3.52-11.43-5.74"/><path d="M36.21,11.92c2.97,.48,5.02-1.34,5.5-4.35,.55-3.43-.96-5.56-3.85-6.03-3.05-.49-5.04,1.42-5.53,4.52-.52,3.26,.91,5.38,3.88,5.86"/></g></g></svg>