<?xml version="1.0" encoding="UTF-8"?><svg id="Laag_1" xmlns="http://www.w3.org/2000/svg" xmlns:xlink="http://www.w3.org/1999/xlink" viewBox="0 0 64 64"><defs><style>.cls-1{fill:none;}.cls-2{clip-path:url(#clippath);}.cls-3{clip-path:url(#clippath-1);}</style><clipPath id="clippath"><rect class="cls-1" width="64" height="64"/></clipPath><clipPath id="clippath-1"><rect class="cls-1" width="64" height="64"/></clipPath></defs><g class="cls-2"><g class="cls-3"><path d="M58.49,25.51c-1.59-.47-4.16-1.36-7.34-2.91-2.86-1.4-4.8-2.46-5.98-3.14-.83-.48-1.86-.3-2.5,.42-.61,.69-1.51,1.54-2.64,2.31,.24,.63,.49,1.31,.74,2.05,1.56,4.66,2.25,10.39,1.93,16.13-.1,1.76-1.32,3.28-3.04,3.77-1.43,.41-4.18,1.23-6.61,2.15-2,.75-4.18,1.92-5.74,2.81,.65,.41,1.3,.86,1.94,1.35,3.03,2.32,5.37,4.91,6.46,6.19,.43,.51,1.07,.77,1.73,.7,1.7-.18,5.15-.47,8.02-.27,2.63,.19,5.45,.59,7.08,.84,.83,.13,1.67-.27,2.06-1.01,3.29-6.19,4.73-12.78,5.14-17.69,.43-5.19-.59-6.63,.14-11.49,.15-.98-.45-1.91-1.4-2.19m-7.96,26.04c-1.45-.19-3.06-.36-4.63-.48-1.9-.14-3.95-.09-5.73,.02,1.89-1.68,4.39-4.26,7.3-8.13,2.97-3.95,4.97-7.45,6.26-10.03,.03,.42,.05,.83,.1,1.26,.31,2.74-.18,10.15-3.3,17.36"/><path d="M39.05,42.01c.81-.23,1.4-.94,1.45-1.78,.31-5.64-.4-11.07-1.82-15.31-2.23-6.65-4.12-8.23-5.63-13.4-.28-.95-1.21-1.54-2.19-1.4-1.64,.24-4.35,.51-7.88,.43-3.18-.07-5.39-.22-6.75-.34-.95-.09-1.81,.51-2.09,1.42-.39,1.27-1.12,3.08-2.49,4.71-.36,.43-.68,.87-1.01,1.32l-1.5-.92,.43-.71c.29-.47,.14-1.09-.33-1.38l-1.72-1.06c-.37-.23-.84-.19-1.17,.09-.49,.42-1.19,1.11-1.72,1.98-.54,.89-.86,1.88-1.04,2.54-.11,.42,.07,.87,.45,1.1l1.7,1.04c.47,.29,1.09,.14,1.38-.33l.41-.66,6.05,3.73c-.01,.06-.08,.24-.4,.18-.5-.09-5.22-1.32-5.22-1.32-.56,1.09-1.06,2.19-1.47,3.32-2.45,6.81-2.49,13.81-2.32,17.16,.05,1.09,.97,1.93,2.06,1.89,1.99-.07,5.28-.03,8.55,.71,3.72,.83,6.94,2.2,8.47,2.91,.6,.28,1.29,.25,1.86-.09,1.47-.88,4.47-2.59,7.17-3.61,2.46-.93,5.2-1.75,6.78-2.21m-14.1-.99c1.01-2.32,2.2-5.71,3.22-10.44,1-4.66,1.36-8.56,1.47-11.42,.19,.4,.39,.79,.58,1.17,.92,1.83,1.79,3.56,2.77,6.49,.98,2.91,1.52,6.54,1.57,10.26-1.4,.44-2.94,.96-4.42,1.51-1.78,.67-3.62,1.58-5.19,2.42"/></g></g></svg>