<?xml version="1.0" encoding="UTF-8"?><svg id="Laag_1" xmlns="http://www.w3.org/2000/svg" xmlns:xlink="http://www.w3.org/1999/xlink" viewBox="0 0 64 64"><defs><style>.cls-1{fill:none;}.cls-2{clip-path:url(#clippath);}.cls-3{clip-path:url(#clippath-1);}</style><clipPath id="clippath"><rect class="cls-1" width="64" height="64"/></clipPath><clipPath id="clippath-1"><rect class="cls-1" width="64" height="64"/></clipPath></defs><g class="cls-2"><g class="cls-3"><path d="M54.51,32.75l-13.16-5.78-1.67-12.97h7.81c.02,.06,.07,.26-.25,.36-.12,.04-1.1,.24-2.24,.46v1.17c0,1.1,.9,2,2,2s2-.9,2-2v-4.79c0-.94-.51-1.78-1.34-2.22L33.39,1.53c-.87-.46-1.91-.46-2.78,0l-14.27,7.46c-.83,.43-1.34,1.28-1.34,2.22v4.79c0,1.1,.9,2,2,2s2-.9,2-2v-1.17c-1.13-.22-2.11-.42-2.23-.46-.32-.1-.27-.31-.25-.36h7.81l-1.67,12.97-13.16,5.78c-.91,.4-1.49,1.3-1.49,2.29v4.96c0,1.11,.9,2,2,2s2-.89,2-2v-1.17c-1.13-.22-2.11-.42-2.23-.46-.32-.1-.27-.31-.25-.36h11.38l-6.9,25h5.01l12.99-13.49,12.99,13.49h5.01l-6.9-25h11.38c.02,.06,.07,.26-.25,.36-.12,.04-1.1,.24-2.24,.46v1.17c0,1.11,.9,2,2,2s2-.89,2-2v-4.96c0-.99-.59-1.89-1.49-2.29m-9.48-21.75h-5.74l-.42-3.22,6.16,3.22Zm-6.89,14.56l-3.78-1.66,2.91-5.07,.87,6.73ZM28.37,6.09l3.63-1.9,3.63,1.9,.63,4.91h-8.53l.64-4.91Zm8.22,7.91l-4.59,7.99-4.59-7.99h9.18Zm-9.87,4.82l2.92,5.08-3.79,1.67,.87-6.74Zm5.28,7.32l6.59,2.9,.77,5.97h-14.73l.77-5.96,6.6-2.9Zm-13.03-15.14l6.16-3.22-.42,3.22h-5.74Zm-7.13,24l10.36-4.56-.59,4.56H11.84Zm6.18,24.7l5.3-19.21,6.6,6.85-11.9,12.36Zm7.07-21.7h13.84l-6.92,7.18-6.92-7.18Zm20.9,21.7l-11.9-12.36,6.61-6.86,5.29,19.22Zm-3.6-24.7l-.59-4.56,10.36,4.56h-9.78Z"/></g></g></svg>