<?xml version="1.0" encoding="UTF-8"?><svg id="Laag_1" xmlns="http://www.w3.org/2000/svg" xmlns:xlink="http://www.w3.org/1999/xlink" viewBox="0 0 64 64"><defs><style>.cls-1{fill:none;}.cls-2{clip-path:url(#clippath);}.cls-3{clip-path:url(#clippath-1);}</style><clipPath id="clippath"><rect class="cls-1" width="64" height="64"/></clipPath><clipPath id="clippath-1"><rect class="cls-1" width="64" height="64"/></clipPath></defs><g class="cls-2"><g class="cls-3"><path d="M29,51.12c-1.94,.79-3.8,1.28-5,1.28-3.05,0-10.19-3.08-12.64-6.36,4.06-1.4,7.05-2.45,7.39-4.61,.22-1.98,.46-3.95,.62-5.25-.65-.63-1.22-1.31-1.73-2.01-.03-.04-.05-.07-.08-.11-.15-.21-.29-.43-.43-.64-.98-1.54-1.62-3.16-1.99-4.71,5.84-1.12,11.88-1.12,17.72,0-1.05,4.48-4.06,9.29-8.87,9.29-1.12,0-2.24-.19-3.05-.58,.37,.89,1.18,1.73,3.29,2.26,5.2,1.3,6.81-2.89,9.55-4.29,.74-.38,2.33-.96,4.54-1.32-.55-1.84-1.54-3.48-2.17-5.1,.8-.32,1.4-1.04,1.53-1.95l1.29-8.47c.16-1.1-.4-2.15-1.35-2.62,.03-3.56-.46-6.47-2.76-7.84-2.75-1.65-5.84-.91-5.84-.91,0,0-2.97-3.79-8.17-2.81-5.53,1.04-8.75,5.45-9.83,11.35-.06,.02-.13,.03-.19,.04-1.21,.33-1.98,1.53-1.8,2.79l1.29,8.47c.15,1.04,.92,1.84,1.9,2.06-1.03,2.8-3.99,5.57-2.7,9.49,.38,1.13,2.07,2.33,4.26,3.39-.49,.2-1.09,.44-1.85,.7-2.05,.72-6.05,1.86-7.71,3.6C1.93,48.64,.43,56.76,0,60H33.83c-2.94-1.54-4.79-4.77-4.83-8.89M13.01,25.2l-.22-1.52c2.73-1.46,8.21-2.31,8.21-2.31,0-.06-.01-.27-.34-.28,0,0-2.84-.46-8.16,.62l-.34-2.33c-.08-.51,.25-1.01,.74-1.13,7.27-1.77,14.93-1.77,22.19,0,.5,.12,.82,.62,.74,1.13l-.22,1.5c-2.6-.93-4.87-.88-4.87-.88-.33-.04-.37,.17-.38,.23,0,0,2.67,.56,5.06,1.91l-.45,3.05c-.08,.57-.62,.94-1.17,.82-3.23-.65-6.52-.98-9.81-.98s-6.59,.33-9.82,.98c-.55,.11-1.09-.26-1.17-.82"/><path d="M63.9,50.72l-3.65-9.56h0c.76,.33,1.64-.02,1.97-.78,.33-.76-.02-1.64-.78-1.97-.44-.19-4.37-1.84-7.08-1.3-1.36,.27-2.36,.69-3.6,1.07,.15-.36,.24-.76,.24-1.17,0-1.66-1.34-3-3-3s-3,1.34-3,3c0,.42,.08,.81,.24,1.17-1.24-.38-2.24-.8-3.6-1.07-2.72-.53-6.65,1.11-7.09,1.3-.76,.33-1.11,1.21-.78,1.97,.33,.75,1.19,1.1,1.95,.79l-3.64,9.55c-.06,.14-.08,.44-.06,.76,.18,4.34,2.78,6.52,5.98,6.52s5.77-2.14,5.99-6.42c.01-.25,.04-.51-.09-.86l-4.07-10.68c.46-.05,.89-.05,1.24,.02,1.65,.32,2.9,1.01,4.94,1.39v17.56h-3c-1.66,0-3,1.34-3,3v1h16v-1c0-1.66-1.34-3-3-3h-3v-17.56c2.03-.37,3.28-1.06,4.94-1.39,.34-.07,.76-.07,1.22-.02l-4.08,10.68c-.06,.14-.08,.44-.06,.76,.18,4.34,2.78,6.52,5.98,6.52s5.77-2.14,5.99-6.42c.01-.25,.04-.51-.09-.86m-22.8,.28c0,2.67-1.44,4-3.1,4-.35,0-.69-.07-1-.19,1.16-.45,2-1.71,2-3.81h-4.03l3.02-7.92s3.12,7.92,3.11,7.92m16.9,4c-.35,0-.69-.07-1-.19,1.16-.45,2-1.71,2-3.81h-4.03l3.02-7.92s3.12,7.92,3.11,7.92c0,2.67-1.44,4-3.1,4"/></g></g></svg>