<?xml version="1.0" encoding="UTF-8"?><svg id="Laag_1" xmlns="http://www.w3.org/2000/svg" xmlns:xlink="http://www.w3.org/1999/xlink" viewBox="0 0 64 64"><defs><style>.cls-1{fill:none;}.cls-2{clip-path:url(#clippath);}.cls-3{clip-path:url(#clippath-1);}</style><clipPath id="clippath"><rect class="cls-1" width="64" height="64"/></clipPath><clipPath id="clippath-1"><rect class="cls-1" width="64" height="64"/></clipPath></defs><g class="cls-2"><g class="cls-3"><path d="M56.04,15.75c-1.89,0-4.11-1.34-4.8-1.85l-1.2-.9-1.2,.9c-.64,.48-2.9,1.85-4.8,1.85s-4.11-1.34-4.8-1.85l-1.2-.9-1.2,.9c-.64,.48-2.9,1.85-4.8,1.85s-4.11-1.34-4.8-1.85l-1.2-.9-1.2,.9c-.64,.48-2.9,1.85-4.8,1.85s-4.11-1.34-4.8-1.85l-1.2-.9-1.2,.9c-.64,.48-2.9,1.85-4.8,1.85-1.02,0-2.12-.39-3.04-.83v4.22c.94,.31,1.98,.52,3.04,.52,2.4,0,4.66-1.08,6-1.86,1.34,.79,3.6,1.86,6,1.86s4.66-1.08,6-1.86c1.34,.79,3.6,1.86,6,1.86s4.66-1.08,6-1.86c1.34,.79,3.6,1.86,6,1.86s4.66-1.08,6-1.86c1.34,.79,3.6,1.86,6,1.86,1.03,0,2.04-.2,2.96-.49v-4.2c-.9,.42-1.97,.79-2.96,.79"/><path d="M28.16,39.24c-.17-.14-.37-.22-.57-.24-.27-.02-.55,.07-.76,.28-.37,.36-.44,.96-.16,1.4l2.06,3.31H7.52c-1.17,0-1.52,1.12-1.52,2.12s.35,1.88,1.52,1.88H28.73l-3.06,3.31c-.28,.45-.21,1.04,.16,1.41,.21,.21,.49,.3,.76,.28,.2-.01,.4-.09,.57-.24l7.95-5.91c.24-.21,.38-.52,.38-.85s-.14-.64-.38-.85l-6.95-5.91Z"/><path d="M45.16,25.24c-.17-.14-.37-.22-.57-.24-.27-.02-.55,.07-.76,.28-.37,.36-.44,.96-.16,1.4l2.06,3.31H7.52c-1.17,0-1.51,1.12-1.51,2.12s.35,1.88,1.51,1.88H45.73l-2.06,3.31c-.28,.45-.21,1.04,.16,1.41,.21,.21,.49,.3,.76,.28,.2-.01,.4-.09,.57-.24l6.95-5.91c.24-.21,.38-.52,.38-.85s-.14-.64-.38-.85l-6.95-5.91Z"/></g></g></svg>