<?xml version="1.0" encoding="UTF-8"?><svg id="Laag_1" xmlns="http://www.w3.org/2000/svg" xmlns:xlink="http://www.w3.org/1999/xlink" viewBox="0 0 64 64"><defs><style>.cls-1{fill:none;}.cls-2{clip-path:url(#clippath);}.cls-3{clip-path:url(#clippath-1);}</style><clipPath id="clippath"><rect class="cls-1" width="64" height="64"/></clipPath><clipPath id="clippath-1"><rect class="cls-1" width="64" height="64"/></clipPath></defs><g class="cls-2"><g class="cls-3"><path d="M54.73,29.65l-9.67-3.69c-.32-.12-.68-.12-1.01,.03l-.07,.03-8.24,3.76c.48-.71,.75-1.59,.76-2.59l8.73-3.98,.06-.03c.27-.12,.5-.34,.64-.62l4.72-9.68c.57-1.18-1.14-2.11-1.81-.98l-5.27,8.78-7.89,3.59c-.44-.62-1.05-1.07-1.81-1.34,2.9-1.32,4.96-1.61,4.96-5.17,0-1.17-.3-2.32-.77-3.38,1.76-1.05,3.89-2.69,3.81-4.73-.1-2.33-3.22-4.88-5.41-6.61-.62-.49-1.38,.4-.8,.94l.06,.05c.98,.9,4.4,4.19,4.19,5.5-.09,1.19-2.07,2.13-3.17,2.58-1.59-2.14-3.66-3.6-4.72-3.6s-3.04,1.54-4.61,3.66l-.09-.03c-1.11-.45-3.13-1.4-3.21-2.6-.22-1.33,3.19-4.59,4.19-5.5l.06-.05c.58-.53-.18-1.43-.8-.94-3.08,2.44-5.32,4.59-5.41,6.61-.09,2.08,2.12,3.74,3.91,4.79-.51,1.09-.83,2.23-.83,3.33,0,3.86,1.62,3.93,4.96,5.19-.75,.28-1.34,.74-1.77,1.33l-7.93-3.62-5.37-8.71c-.59-.96-2.08-.17-1.59,.86l4.6,9.74c.12,.26,.34,.49,.63,.62l.07,.03,8.73,3.98c0,1.02,.23,1.87,.65,2.55l-8.14-3.71-.06-.03c-.31-.14-.68-.16-1.02-.03l-9.7,3.6c-1.23,.46-.64,2.33,.63,1.98l9.39-2.56,8.85,4.03c-.35,.56-.55,1.22-.59,1.97l-7.37-3.4c-1.01-.46-2.16,.28-2.16,1.35v9.19l-4.77,8.19c-.53,.91,.75,1.78,1.4,.95l6.14-7.96c.16-.21,.23-.47,.23-.75v-7.3l7.38,3.4c-3.23,.81-4.94,3.04-4.94,7.78,0,6.62,3.14,12.88,8.57,12.88s8.57-6.78,8.57-12.88c0-5.13-1.79-7.13-4.84-7.82l7.27-3.35v7.29c0,.26,.07,.53,.24,.75l6.08,7.99c.69,.9,2.09-.04,1.51-1.01l-4.84-8.17v-9.17c0-1.02-1.14-1.83-2.17-1.35l-7.36,3.39c-.05-.77-.24-1.43-.57-1.97l8.84-4.03,9.42,2.46c1.14,.29,1.67-1.37,.57-1.79"/></g></g></svg>