<?xml version="1.0" encoding="UTF-8"?><svg id="Laag_1" xmlns="http://www.w3.org/2000/svg" xmlns:xlink="http://www.w3.org/1999/xlink" viewBox="0 0 64 64"><defs><style>.cls-1{fill:none;}.cls-2{clip-path:url(#clippath);}.cls-3{clip-path:url(#clippath-1);}</style><clipPath id="clippath"><rect class="cls-1" width="64" height="64"/></clipPath><clipPath id="clippath-1"><rect class="cls-1" width="64" height="64"/></clipPath></defs><g class="cls-2"><g class="cls-3"><path d="M61.23,30.21L32.81,3.32c-.46-.43-1.17-.43-1.62,0L2.77,30.21c-.49,.46-.78,1.11-.78,1.78v1.8c0,.67,.54,1.21,1.2,1.21H8v25H56v-25h4.8c.66,0,1.2-.54,1.2-1.21v-1.8c0-.68-.28-1.33-.77-1.78m-23.83,24.79H18.34c-.78,0-1.46-.51-1.68-1.26l-3.35-11.47c-.18-.64,.29-1.27,.95-1.27h11.38c.78,0,1.46,.51,1.68,1.26l2.84,9.73h10.24c0,1.66-1.34,3.01-3,3.01m3.98,0c.63-.84,1.02-1.87,1.02-3s-.9-2-2-2h-8.74l-2.42-8.3c-.46-1.59-1.94-2.7-3.6-2.7h-3.87c1.94-.93,4.39-1.78,5.61-2.18,.17-.64,.29-1.26,.37-1.8-1.07-1.18-1.88-2.59-2.09-4.21-1.09-.31-1.3-2.37-1.3-3.14s.15-1.19,.45-1.32c.07-.03,.14-.03,.21-.03-.15-1.2-.57-5.27,.56-6.67,.91-1.13,2.65-1.81,4.23-2.23,2.28-.6,3.16-.18,4.46,.48,1.98-.48,3.02,.24,3.88,1.71,.9,1.55,.45,5.51,.28,6.7,.08,0,.17,0,.26,.04,.3,.13,.45,.55,.45,1.32s-.22,2.83-1.3,3.14c-.27,1.68-1.06,3.08-2.12,4.24,.08,.53,.21,1.13,.39,1.76,1.85,.61,6.63,2.29,8.02,3.67,2.48,2.48,2.55,9.7,2.63,14.52h-5.37Z"/></g></g></svg>