<?xml version="1.0" encoding="UTF-8"?><svg id="_01" xmlns="http://www.w3.org/2000/svg" xmlns:xlink="http://www.w3.org/1999/xlink" viewBox="0 0 64 64"><metadata><?xpacket begin="﻿" id="W5M0MpCehiHzreSzNTczkc9d"?>
<x:xmpmeta xmlns:x="adobe:ns:meta/" x:xmptk="Adobe XMP Core 9.1-c001 79.a8d4753, 2023/03/23-08:56:37        ">
   <rdf:RDF xmlns:rdf="http://www.w3.org/1999/02/22-rdf-syntax-ns#">
      <rdf:Description rdf:about=""
            xmlns:dc="http://purl.org/dc/elements/1.1/"
            xmlns:xmp="http://ns.adobe.com/xap/1.0/"
            xmlns:xmpMM="http://ns.adobe.com/xap/1.0/mm/"
            xmlns:stEvt="http://ns.adobe.com/xap/1.0/sType/ResourceEvent#">
         <dc:creator>
            <rdf:Seq/>
         </dc:creator>
         <xmp:MetadataDate>2023-11-29T12:02:02+01:00</xmp:MetadataDate>
         <xmpMM:InstanceID>xmp.iid:d9031e5a-19ff-4998-8eeb-232778a55690</xmpMM:InstanceID>
         <xmpMM:DocumentID>xmp.did:d9031e5a-19ff-4998-8eeb-232778a55690</xmpMM:DocumentID>
         <xmpMM:OriginalDocumentID>xmp.did:d9031e5a-19ff-4998-8eeb-232778a55690</xmpMM:OriginalDocumentID>
         <xmpMM:History>
            <rdf:Seq>
               <rdf:li>
                  <rdf:Description>
                     <stEvt:action>saved</stEvt:action>
                     <stEvt:instanceID>xmp.iid:d9031e5a-19ff-4998-8eeb-232778a55690</stEvt:instanceID>
                     <stEvt:when>2023-11-29T12:02:02+01:00</stEvt:when>
                     <stEvt:softwareAgent>Adobe Bridge 2024</stEvt:softwareAgent>
                     <stEvt:changed>/metadata</stEvt:changed>
                  </rdf:Description>
               </rdf:li>
            </rdf:Seq>
         </xmpMM:History>
      </rdf:Description>
   </rdf:RDF>
</x:xmpmeta>
                                                                                                    
                                                                                                    
                                                                                                    
                                                                                                    
                                                                                                    
                                                                                                    
                                                                                                    
                                                                                                    
                                                                                                    
                                                                                                    
                                                                                                    
                                                                                                    
                                                                                                    
                                                                                                    
                                                                                                    
                                                                                                    
                                                                                                    
                                                                                                    
                                                                                                    
                                                                                                    
                           
<?xpacket end="w"?></metadata>
<defs><style>.cls-1{clip-path:url(#clippath);}.cls-2{fill:none;}.cls-2,.cls-3{stroke-width:0px;}.cls-3{fill:#000001;}</style><clipPath id="clippath"><rect class="cls-2" width="64" height="64"/></clipPath></defs><g class="cls-1"><path class="cls-3" d="m54.76,27c-.97,0-1.76-.79-1.76-1.76v-3.92l5.16-2.41c1.43-.67,2.37-2.07,2.45-3.64l.08-1.64c.04-.92-.27-1.81-.88-2.5-1.56-1.75-4.57-5.14-5.49-6.16-1.25-1.39-3.26-1.81-4.96-1.02l-29.04,13.54,7.47,6.75c1.47,1.33,3.6,1.65,5.4.81l3.94-1.84,4.01,3.64,5.86-2.73v1.12c0,4.28,3.48,7.76,7.76,7.76h9.24v-6h-9.24Z"/><path class="cls-3" d="m24.97,29.59l-4.53,2.12c2.25,4.8,7.08,7.8,12.26,7.8.1,0,.2-.01.3-.02v-5.02c-3.38.12-6.57-1.77-8.03-4.89Z"/><path class="cls-3" d="m14.97,34.27l-4.52,2.12c2.25,4.83,5.97,8.79,10.77,11.32,3.59,1.89,7.5,2.85,11.45,2.85.11,0,.22,0,.33-.01v-5c-3.25.06-6.49-.7-9.45-2.26-3.82-2.02-6.78-5.17-8.58-9.02Z"/><path class="cls-3" d="m4.96,38.96l-4.53,2.12c5.91,12.63,18.65,20.52,32.28,20.52.09,0,.19,0,.28,0v-5c-11.82.11-22.92-6.69-28.04-17.63Z"/></g></svg>