<?xml version="1.0" encoding="UTF-8"?><svg id="Laag_1" xmlns="http://www.w3.org/2000/svg" xmlns:xlink="http://www.w3.org/1999/xlink" viewBox="0 0 64 64"><defs><style>.cls-1{fill:none;}.cls-2{clip-path:url(#clippath);}.cls-3{clip-path:url(#clippath-1);}</style><clipPath id="clippath"><rect class="cls-1" width="64" height="64"/></clipPath><clipPath id="clippath-1"><rect class="cls-1" width="64" height="64"/></clipPath></defs><g class="cls-2"><g class="cls-3"><path d="M53.71,45.45c-1.75-1.92-8.67-3.51-12.09-4.38-1.2,4.77-3.31,10.91-6.61,15.23-.38-2.13-1.01-4.99-1.7-6.92,.93-1.43,2.19-3.65,2.19-3.65,0,0-1.07-1.74-3.5-1.74s-3.5,1.74-3.5,1.74c0,0,1.25,2.22,2.19,3.65-.68,1.91-1.31,4.75-1.69,6.88-3.17-4.34-5.28-10.5-6.5-15.25-3.37,.8-10.43,2.33-12.21,4.44-2.17,2.57-3.29,15.49-3.29,15.49H57s-.95-12.92-3.29-15.49"/><path d="M20.06,30.49c.52,3.4,2.58,6.61,6.27,9.74,1.75,1.49,4.3,1.76,5.67,1.76s3.92-.27,5.67-1.76c3.63-3.09,5.73-6.36,6.26-9.74,1.33-1.22,2.07-3.17,2.07-5.56,0-.74,0-2.7-1.23-4.04,.1-1.15,.2-2.52,.22-3.91h0s-5.27-1-13-1-13,1-13,1h0c-.01,1.41,.06,2.82,.15,3.99-1.16,1.33-1.15,3.22-1.15,3.96,0,2.39,.74,4.33,2.06,5.55m1.61-7.72c.14-.06,.27-.09,.4-.09,.24,0,.46,.09,.61,.18,.14,.65,.25,1.14,.29,1.31,.21,.85,1.02,.77,1.02,.77v-4.55c1.82,.97,4.71,1.61,7.99,1.61s6.19-.63,8.01-1.61v4.55s.82,.08,1.02-.77c.04-.17,.15-.66,.29-1.31,.16-.09,.37-.18,.61-.18,.13,0,.26,.02,.4,.09,.45,.21,.77,.9,.77,2.17s-.42,3.31-2.04,3.82c0,3.82-2.68,6.92-5.34,9.18-.78,.66-2.25,1.13-3.72,1.13s-2.94-.46-3.72-1.13c-2.66-2.26-5.34-5.32-5.34-9.18-1.62-.5-2.04-2.54-2.04-3.82s.32-1.96,.77-2.17"/><path d="M45,14.78v-2.78c0-7.18-1.11-9-13-9s-13,1.82-13,9v2.78c.85-.15,5.89-.97,13-.97s12.15,.83,13,.97m-16.5-5.28l1.5-1.5h4l1.5,1.5-1.5,1.5h-4l-1.5-1.5Z"/></g></g></svg>