<?xml version="1.0" encoding="UTF-8"?><svg id="Laag_1" xmlns="http://www.w3.org/2000/svg" xmlns:xlink="http://www.w3.org/1999/xlink" viewBox="0 0 64 64"><defs><style>.cls-1{fill:none;}.cls-2{clip-path:url(#clippath);}.cls-3{clip-path:url(#clippath-1);}</style><clipPath id="clippath"><rect class="cls-1" width="64" height="64"/></clipPath><clipPath id="clippath-1"><rect class="cls-1" width="64" height="64"/></clipPath></defs><g class="cls-2"><g class="cls-3"><path d="M31.81,43.93c.15-4.69,2.36-8.44,5.91-10.05,1.6-.72,3.19-1.09,4.74-1.09,2.72,0,4.92,1.11,6.54,2.49,.8-.68,1.74-1.29,2.82-1.74l-3.82-9.55h-9V15.69c0-.28-.22-.5-.5-.5h-1.8L30.96,1.31c-.17-.41-.75-.41-.93,0l-5.74,13.88h-1.8c-.28,0-.5,.22-.5,.5v3.99c1.78,1.28,2.97,3.27,3.07,5.49,2.43,1.67,2.38,4.8,1.41,6.25-.34,.51-.6,.61-.8,.58h-.12c.45-2.36-.71-4.68-2.76-5.66,.46-2.55-1.24-5.08-3.93-5.74-1.37-.34-2.73-.13-3.85,.48-.54-.41-1.16-.72-1.86-.89-2.79-.69-5.65,1.09-6.53,4-2.29,.11-4.54,1.94-5.22,4.69-.53,2.15,.07,4.36,1.25,5.74-.55,.63-1.14,1.49-1.35,2.36-.47,1.92,.33,3.74,1.63,4.98l5.04-6.91s7.48,1.5,7.75,1.56c.3,.07,.3,.3,.27,.4h-7L1,48v11H15v-11l7.19-11,6.81,11v11h9.05c-4.66-5.05-6.38-10.66-6.24-15.07"/><rect x="19" y="50" width="6" height="5"/><path d="M58.96,36.8c-6.69-3.03-9.96,3.48-9.96,3.48,0,0-3.27-6.51-9.96-3.48-6.6,2.98-6.16,17.79,9.31,26.03,.41,.22,.9,.22,1.31,0,15.47-8.24,15.91-23.05,9.31-26.03"/></g></g></svg>