<?xml version="1.0" encoding="UTF-8"?><svg id="Laag_1" xmlns="http://www.w3.org/2000/svg" xmlns:xlink="http://www.w3.org/1999/xlink" viewBox="0 0 64 64"><defs><style>.cls-1{fill:none;}.cls-2{clip-path:url(#clippath);}.cls-3{clip-path:url(#clippath-1);}</style><clipPath id="clippath"><rect class="cls-1" width="64" height="64"/></clipPath><clipPath id="clippath-1"><rect class="cls-1" width="64" height="64"/></clipPath></defs><g class="cls-2"><g class="cls-3"><path d="M9.03,40.19c1.27,.79,3.33,1.81,5.52,1.81,.13,0,.26-.01,.39-.02l2.38-4.77c-.83,.44-1.85,.85-2.77,.85-2.26,0-4.52-2.01-5.52-2.82-1,.81-3.28,2.82-5.52,2.82-.82,0-1.73-.32-2.51-.71v4.24c.79,.24,1.64,.41,2.51,.41,2.19,0,4.25-1.02,5.52-1.81"/><path d="M59.01,58c-.81,0-1.54-.25-1.85-1l-9.84-22.6c-.64-1.46-2.08-2.4-3.67-2.4H24.8c-1.52,0-2.91,.86-3.59,2.23l-6.12,12.41c-.84,1.71-2.45,2.92-4.33,3.25l-9.77,1.75v11.36H63v-5h-3.99Z"/><path d="M41.5,23h-16c-1.93,0-3.5,1.57-3.5,3.5s1.57,3.5,3.5,3.5h16c1.93,0,3.5-1.57,3.5-3.5s-1.57-3.5-3.5-3.5m-16,5.26c-.97,0-1.76-.79-1.76-1.76s.79-1.76,1.76-1.76,1.76,.79,1.76,1.76-.79,1.76-1.76,1.76m8,0c-.97,0-1.76-.79-1.76-1.76s.79-1.76,1.76-1.76,1.76,.79,1.76,1.76-.79,1.76-1.76,1.76m8,0c-.97,0-1.76-.79-1.76-1.76s.79-1.76,1.76-1.76,1.76,.79,1.76,1.76-.79,1.76-1.76,1.76"/><path d="M21,21h21c1.1,0,2-.9,2-2v-4.92l3.12-7.09,3.88-.98,5.51,12.9-5.48,2.15c3,8.79,10.97,3.18,10.97,3.18L54.15,2.52c-.54-1.09-1.79-1.59-2.92-1.23l-6.62,1.7c-.75,.19-1.39,.65-1.81,1.3l-1.87,2.94,2.2,4.1c.11,.29-.06,.42-.13,.46l-3.4-4.08c-.38-.46-.95-.72-1.54-.72h-6.06c-.55,0-1,.45-1,1v5h-10c-1.1,0-2,.9-2,2v4c0,1.1,.9,2,2,2m13-11.01h3c.63,0,1.22,.3,1.6,.8l1.8,2.4c.39,.52,.6,1.15,.6,1.8v1.01h-7v-6.01Z"/></g></g></svg>