<?xml version="1.0" encoding="UTF-8"?><svg id="Laag_1" xmlns="http://www.w3.org/2000/svg" xmlns:xlink="http://www.w3.org/1999/xlink" viewBox="0 0 64 64"><defs><style>.cls-1{fill:none;}.cls-2{clip-path:url(#clippath);}.cls-3{clip-path:url(#clippath-1);}</style><clipPath id="clippath"><rect class="cls-1" width="64" height="64"/></clipPath><clipPath id="clippath-1"><rect class="cls-1" width="64" height="64"/></clipPath></defs><g class="cls-2"><g class="cls-3"><path d="M32,8c-13.26,0-24,10.74-24,24s10.74,24,24,24,24-10.74,24-24S45.26,8,32,8m0,42.06c-9.96,0-18.06-8.1-18.06-18.06S22.04,13.94,32,13.94s18.06,8.1,18.06,18.06-8.1,18.06-18.06,18.06"/><path d="M45.01,31.76h.04l-10.71-1.06-.84-11.71c-.09-.83-.67-1.44-1.5-1.44s-1.44,.54-1.5,1.44l-1,13.78c0,1.29,.99,2.35,2.25,2.48,.07,.04,13.26-.94,13.26-.94,.87-.08,1.5-.45,1.5-1.28s-.58-1.21-1.5-1.28"/></g></g></svg>