<?xml version="1.0" encoding="UTF-8"?><svg id="Laag_1" xmlns="http://www.w3.org/2000/svg" viewBox="0 0 24 24"><defs><style>.cls-1{fill:none;}</style></defs><path class="cls-1" d="m0,0v24h24V0H0Zm21.71,22.5H2.29c-1.47,0-2.39-1.58-1.67-2.86L10.33,2.47c.73-1.3,2.6-1.3,3.34,0l9.71,17.17c.72,1.28-.2,2.86-1.67,2.86Z"/><path d="m13.67,2.47c-.73-1.3-2.6-1.3-3.34,0L.62,19.64c-.72,1.28.2,2.86,1.67,2.86h19.43c1.47,0,2.39-1.58,1.67-2.86L13.67,2.47Zm-2.82,4.7l2.48-.2-.22,5.51v2.63l-2.27.05v-7.99Zm2.27,11.37c-.24.29-.6.44-1.09.44s-.85-.13-1.1-.39c-.25-.26-.38-.64-.38-1.14,0-.45.12-.82.36-1.12.24-.31.6-.46,1.09-.46s.85.14,1.1.41c.25.27.38.66.38,1.18,0,.43-.12.79-.36,1.09Z"/></svg>