<?xml version="1.0" encoding="UTF-8"?><svg id="Laag_1" xmlns="http://www.w3.org/2000/svg" xmlns:xlink="http://www.w3.org/1999/xlink" viewBox="0 0 64 64"><defs><style>.cls-1{fill:none;}.cls-2{clip-path:url(#clippath);}.cls-3{clip-path:url(#clippath-1);}</style><clipPath id="clippath"><rect class="cls-1" width="64" height="64"/></clipPath><clipPath id="clippath-1"><rect class="cls-1" width="64" height="64"/></clipPath></defs><g class="cls-2"><g class="cls-3"><path d="M20,55.41v2.59c0,1.11,.89,2,2,2s2-.89,2-2v-2h-1c-1.06,0-2.07-.21-3-.59"/><path d="M40,56v2c0,1.11,.89,2,2,2s2-.89,2-2v-2.59c-.93,.38-1.94,.59-3,.59h-1Z"/><path d="M28,8h8v9h3V7.5c0-2.48-2.02-4.5-4.5-4.5h-5c-2.48,0-4.5,2.02-4.5,4.5v9.5h3V8Z"/><path d="M41,19H23c-3.31,0-6,2.69-6,6v23c0,3.31,2.69,6,6,6h18c3.31,0,6-2.69,6-6V25c0-3.31-2.69-6-6-6m-14.89,15.5l-6-3,3.89-7.78,4.11-.72,1.89,3.72-3.89,7.78Z"/></g></g></svg>