<?xml version="1.0" encoding="UTF-8"?><svg id="Laag_1" xmlns="http://www.w3.org/2000/svg" xmlns:xlink="http://www.w3.org/1999/xlink" viewBox="0 0 64 64"><defs><style>.cls-1{fill:none;}.cls-2{clip-path:url(#clippath);}.cls-3{clip-path:url(#clippath-1);}</style><clipPath id="clippath"><rect class="cls-1" width="64" height="64"/></clipPath><clipPath id="clippath-1"><rect class="cls-1" width="64" height="64"/></clipPath></defs><g class="cls-2"><g class="cls-3"><path d="M24.17,38.57c2.61,.43,6.96,.43,7.83,.43s5.22,0,7.83-.43c.9-.15,1.59-.84,1.74-1.74,.44-2.61,.44-6.96,.44-7.83,0-2.61,0-5.22-.44-7.83-.15-.9-.84-1.59-1.74-1.74-2.61-.44-6.96-.44-7.83-.44s-5.22,0-7.83,.44c-.9,.15-1.59,.84-1.74,1.74-.43,2.61-.43,6.96-.43,7.83s0,5.22,.43,7.83c.15,.9,.84,1.59,1.74,1.74m7.82-17c.98,0,1.54,.53,1.54,1.51,0,.87-.52,1.55-1.52,1.55s-1.54-.55-1.54-1.55c0-.85,.52-1.51,1.52-1.51m-1.3,8.31v-3.5h2.63v9.63h-2.87l.25-6.13Z"/><path d="M56,10H8c-1.66,0-3,1.34-3,3V48c0,1.66,1.34,3,3,3H56c1.66,0,3-1.34,3-3V13c0-1.66-1.34-3-3-3m-9.5,39c-.83,0-1.5-.67-1.5-1.5s.67-1.5,1.5-1.5,1.5,.67,1.5,1.5-.67,1.5-1.5,1.5m5,0c-.83,0-1.5-.67-1.5-1.5s.67-1.5,1.5-1.5,1.5,.67,1.5,1.5-.67,1.5-1.5,1.5m3.5-5H9V14H55v30Z"/></g></g></svg>