<?xml version="1.0" encoding="UTF-8"?><svg id="Laag_1" xmlns="http://www.w3.org/2000/svg" xmlns:xlink="http://www.w3.org/1999/xlink" viewBox="0 0 64 64"><defs><style>.cls-1{fill:none;}.cls-2{clip-path:url(#clippath);}.cls-3{clip-path:url(#clippath-1);}</style><clipPath id="clippath"><rect class="cls-1" width="64" height="64"/></clipPath><clipPath id="clippath-1"><rect class="cls-1" width="64" height="64"/></clipPath></defs><g class="cls-2"><g class="cls-3"><path d="M19.56,11.52c2.89,.89,5.19-.63,6.08-3.55,1.02-3.32-.19-5.64-3.01-6.51-2.97-.91-5.21,.71-6.13,3.71-.97,3.16,.16,5.46,3.06,6.34"/><path d="M30.85,10.76c2.38,.69,4.22-.64,4.9-3.12,.77-2.84-.26-4.77-2.58-5.45-2.44-.71-4.24,.7-4.93,3.26-.73,2.7,.24,4.62,2.62,5.31"/><path d="M7.89,10.77c2.39,.67,4.22-.68,4.87-3.17,.74-2.84-.31-4.77-2.63-5.42-2.45-.69-4.24,.75-4.91,3.31-.7,2.71,.28,4.62,2.67,5.28"/><path d="M37.71,45.95c.42,3.12,1.1,6.19,2.06,9.19,.36,1.11,1.61,1.82,2.74,1.6,.36-.07,.73-.14,1.09-.21-1.1-2.4-3.32-7.77-3.37-7.85-.37-.69-1.92-2.11-2.53-2.73"/><path d="M26.91,48.93c-.21-.67-.41-1.3-.58-1.84-.89-2.73-1.02-2.77-1.59-3.72-.68-1.11-1.32-1.97-1.95-2.84-1.32-1.8-2.69-3.55-4.09-5.3,.79-2.98,4.6-15.69,3.39-18.7-1.03-2.35-6.24-4.85-9.84-2.7-1.98,1.18-5.71,3.96-7.61,6.03-1.15,1.28-1.61,2.04-2.11,4.84-.3,1.76-.49,3.8-.53,5.58-.04,1.97,1,3.84,3.07,4.27,.44-3.37,1.15-8.4,2.23-10.59,.44-.89,2.43-2.22,3.26-2.76-.53,2.45-2.35,10.63-2.35,12.5,0,2.32,1.5,3.52,2.45,4.52l3.73,3.91s-.14,.24-.46,.05c-1.63-.95-3.78-2.19-3.78-2.19-.54,2.02-1.41,5.32-2.18,7.28-.61,1.56-.4,1.12-1,2.13-1.2,2.05-2.75,4.13-4.08,6.46-2.19,3.83,.46,6.65,.83,7.01,2.15-3.03,5.87-7.5,7.96-10.65,.7-1.04,.78-1.12,1.57-2.64,.6-1.21,1.41-2.95,2.59-5.85,.51,.47,1.01,1,1.52,1.52,1.26,1.27,2.04,1.89,2.54,2.83,.15,.28,.46,.93,.78,1.74,.84,2.16,1.6,3.91,2.26,5.38,.02-.03,.03-.06,.04-.09,.75-1.31,1.55-2.53,2.33-3.7,.57-.86,1.1-1.68,1.59-2.49"/><path d="M29.72,59.42c-.78,1.01-1.53,1.98-2.21,2.88,1.35,.63,2.77,.66,3.34,.49-.25-.98-.58-2.23-.96-3.6-.06,.08-.12,.15-.17,.23"/><path d="M60.6,38.25c-.36-1.11-1.61-1.82-2.74-1.6-1.85,.36-3.68,.73-5.53,1.08l-.22-1.1c-.24-1.21-1.26-2.09-2.43-2.09-.01,0-.03,0-.04,0-1.17-2.25-2.65-4.95-2.87-5.99-.54-2.47-.37-8.97-1.04-10.96-.53-1.56-2.1-3-3.53-3.8-2.34-1.35-6.02-2.08-8.41-.65-2.02,1.2-5.81,4.02-7.73,6.13-1.17,1.3-2.45,2.08-2.96,4.92-.31,1.79-.72,3.87-.76,5.67-.03,1.3,.42,2.55,1.3,3.39,0,0,.89,.67,1.82,.94,0,0,.6-5.55,2.45-9.92,.39-.93,3.32-3.09,4.17-3.64-.54,2.49-2.39,10.8-2.39,12.71,0,2.35,1.52,3.58,2.49,4.59l3.79,3.98s-.14,.24-.46,.05c-1.66-.96-3.85-2.22-3.85-2.22-1.09,4.11-2.03,7.51-3.23,9.57-1.22,2.09-2.8,4.2-4.15,6.57-2.23,3.9,.47,6.76,.84,7.12,2.19-3.08,5.96-7.62,8.09-10.82,1.66-2.46,2.9-5.35,4.22-8.63,.68,.62,3.66,3.53,4.13,4.42,.15,.29,.47,.94,.79,1.77,1.96,5.05,3.53,7.99,4.4,10.06,1.31,3.11,4.93,3.42,5.94,3.11-1-3.95-3.31-12.03-4.6-15.95-.91-2.77-1.03-2.81-1.62-3.78-1.36-2.24-4.5-6.22-6.14-8.28,.24-1.24,1.04-4.72,1.87-8.37,.1,.95,.23,1.94,.5,3.03,.33,1.27,2.63,4.93,3.33,5.86-.81,.54-1.25,1.57-1.04,2.63l.1,.49c1.68,2.24,2.23,3.1,2.86,4.12,.54,.88,.77,1.31,1.6,3.83,.69,2.09,1.64,5.29,2.54,8.42,2.99-.58,5.95-1.17,8.94-1.74,1.13-.22,2.03-1.34,1.95-2.51-.31-4.21-1.11-8.37-2.39-12.39m-13.39,.47l-.21-1.07c-.06-.29,.07-.55,.29-.6l2.33-.46c.24-.05,.44,.19,.49,.44l.22,1.09c-1.04,.2-2.08,.4-3.12,.6"/><path d="M42.13,11.56c2.84,1.11,5.25-.26,6.36-3.15,1.26-3.3,.22-5.74-2.54-6.82-2.91-1.14-5.28,.34-6.42,3.31-1.2,3.14-.23,5.55,2.61,6.65"/></g></g></svg>