<?xml version="1.0" encoding="UTF-8"?><svg id="Laag_1" xmlns="http://www.w3.org/2000/svg" xmlns:xlink="http://www.w3.org/1999/xlink" viewBox="0 0 64 64"><defs><style>.cls-1{fill:none;}.cls-2{clip-path:url(#clippath);}.cls-3{clip-path:url(#clippath-1);}</style><clipPath id="clippath"><rect class="cls-1" width="64" height="64"/></clipPath><clipPath id="clippath-1"><rect class="cls-1" width="64" height="64"/></clipPath></defs><g class="cls-2"><g class="cls-3"><path d="M26.04,11.21c1.55,1.17,4.12,3.38,6,3.38s4.42-2.19,6-3.38c2.89,2.17,2.93,2.26,3.96,2.76V8c0-2.21-1.79-4-4-4h-12c-2.21,0-4,1.79-4,4v6.01c1.09-.51,1.17-.64,4.04-2.8"/><path d="M56.04,17.09c-2.46,0-4.92-1.94-6-2.75-1,.75-3.49,2.75-6,2.75s-4.92-1.94-6-2.75c-1,.75-3.49,2.75-6,2.75s-4.92-1.94-6-2.75c-1,.75-3.49,2.75-6,2.75s-4.92-1.94-6-2.75c-1,.75-3.49,2.75-6,2.75-1.02,0-2.12-.39-3.04-.83v4.22c.94,.31,1.98,.52,3.04,.52,2.4,0,4.66-1.08,6-1.86,2.5,1.47,5.13,2.25,7.96,1.64V61h20v-7h-11v-3h11v-6h-6v-3h6v-6h-11v-3h11v-6h-6v-3h6v-3.25c2.86,.65,5.5-.12,8.04-1.62,1.34,.79,3.6,1.86,6,1.86,1.03,0,2.04-.2,2.96-.49v-4.2c-.9,.42-1.97,.79-2.96,.79"/></g></g></svg>