<?xml version="1.0" encoding="UTF-8"?><svg id="Laag_1" xmlns="http://www.w3.org/2000/svg" xmlns:xlink="http://www.w3.org/1999/xlink" viewBox="0 0 64 64"><defs><style>.cls-1{fill:none;}.cls-2{clip-path:url(#clippath);}.cls-3{clip-path:url(#clippath-1);}</style><clipPath id="clippath"><rect class="cls-1" width="64" height="64"/></clipPath><clipPath id="clippath-1"><rect class="cls-1" width="64" height="64"/></clipPath></defs><g class="cls-2"><g class="cls-3"><path d="M52.82,40.02c-.56,0-1.11,.07-1.64,.19-1.22-1.67-2.37-2.75-2.48-2.85-.98-.96-20.15-17.72-28.93-25.36h0c-1.58-1.39-2.64-2.31-2.87-2.52-2.52-2.22-5.37-2.58-8.26-1.03-2.18,1.2-4.08,2.26-4.73,2.64l-.25,.15,.12,.27s.54,1.18,1.52,1.49c.5,.16,1.01,.08,1.53-.23,.01,0,2.41-1.28,3.27-1.76,1-.56,2.52-1.4,5.03,.89,.16,.15,1.11,.98,2.56,2.24h0c1.23,1.08,3.37,2.93,3.37,2.93l6.4,5.34s-.19,.3-.6,.08c-2.54-1.37-3.17-1.64-3.98-1.64-.94,0-1.64,.91-1.48,3.47,.23,4.15,.54,8.89,.89,10.67l-4.84,5.67c-.92-.4-1.93-.63-3-.63-4.15,0-7.52,3.37-7.52,7.52s3.37,7.52,7.52,7.52,7.52-3.38,7.52-7.52c0-1.54-.47-2.96-1.26-4.15l-2.06,2.37c.23,.55,.38,1.15,.38,1.79,0,2.53-2.05,4.58-4.58,4.58s-4.58-2.05-4.58-4.58,2.05-4.58,4.58-4.58c.32,0,.64,.03,.94,.1l-1.38,1.62c-1.66,1.94,.55,4.08,.55,4.08l1.54-2,1.86-2.17h0l1.92-2.25h0l3.26-3.83s.62,2.09,.98,2.73c1.08,1.92,3.42,1.68,5.87,1.47,.35-.03,6.71-.66,9.95-.98,1.45-.09,2.41-1.08,2.41-2.21s-.48-1.93-3.09-5.92c-.24-.37-.29-.65-.05-.9l6.43,5.66s.66,.62,1.39,1.35h0c1.34,1.18,2.95,3.33,3.69,5.37,.01,.03,.03,.07,.04,.1v.02h0c.17,.45,.3,.92,.4,1.4,.28,1.73,1.66,1.92,2.24,1.92,.21,0,.67-.02,.74-.03v-.32c.02-1.89-.53-3.66-1.28-5.22,2.51,.02,4.55,2.06,4.55,4.58s-2.06,4.58-4.58,4.58-4.58-2.06-4.58-4.58c0-1.02,.43-2.09,.99-2.85-.22-.75-.95-1.75-1.63-2.34-1.68,1.37-2.31,3.16-2.31,5.19,0,4.15,3.37,7.52,7.52,7.52s7.52-3.38,7.52-7.52-3.38-7.52-7.52-7.52"/></g></g></svg>