<?xml version="1.0" encoding="UTF-8"?><svg id="Laag_1" xmlns="http://www.w3.org/2000/svg" xmlns:xlink="http://www.w3.org/1999/xlink" viewBox="0 0 64 64"><defs><style>.cls-1{fill:none;}.cls-2{clip-path:url(#clippath);}.cls-3{clip-path:url(#clippath-1);}</style><clipPath id="clippath"><rect class="cls-1" width="64" height="64"/></clipPath><clipPath id="clippath-1"><rect class="cls-1" width="64" height="64"/></clipPath></defs><g class="cls-2"><g class="cls-3"><path d="M13.51,44c-.83,0-1.51-.68-1.51-1.51V24.51c0-.83,.68-1.51,1.51-1.51H46.49c.83,0,1.51,.68,1.51,1.51v6.29c.92,0,1.94,.01,3,.04V14.97c0-1.64-1.33-2.97-2.97-2.97H11.97c-1.64,0-2.97,1.33-2.97,2.97v30.05c0,1.64,1.33,2.97,2.97,2.97H31.8c0-.34,0-.68,0-1,0-.92,.01-1.94,.03-3H13.51Zm8.49-27h26v3H22v-3Zm-5,0h3v3h-3v-3Zm-5,0h3v3h-3v-3Z"/><path d="M60.43,36.83c-.19-1.17-1.09-2.07-2.26-2.26-3.39-.57-9.04-.57-10.17-.57s-6.78,0-10.17,.57c-1.17,.19-2.07,1.09-2.26,2.26-.56,3.39-.56,9.04-.56,10.17s0,6.78,.56,10.17c.19,1.17,1.09,2.07,2.26,2.26,3.39,.57,9.04,.57,10.17,.57s6.78,0,10.17-.57c1.17-.2,2.07-1.09,2.26-2.26,.57-3.39,.57-9.04,.57-10.17,0-3.39,0-6.78-.57-10.17m-18.07,3.49h2.17c1.5,0,2.36,.82,2.64,1.37l.61,5.96s.19,.04,.23-.19l.56-6c.38-.52,1.2-1.13,2.49-1.13h2.18v10.3s-2.14,0-3.13,.21c-.31,.07-.6,.16-.85,.26-.86,.4-1.05,.83-1.46,.83s-.6-.43-1.46-.83c-.25-.1-.54-.19-.85-.26-.99-.21-3.13-.21-3.13-.21v-10.3Zm13.53,12.29c0,.36-.29,.65-.65,.65l-2.15,.16c-.91,0-2.51,.03-3.26,.27-1.38,.44-1.55,1.15-2.04,1.15s-.66-.72-2.04-1.15c-.74-.24-2.34-.27-3.26-.27l-2.15-.16c-.36,0-.65-.29-.65-.65v-10.51c0-.36,.29-.65,.65-.65h.9v9.58c0,.64,.34,.71,1.25,.71s2.51,.14,3.26,.37c1.38,.44,1.55,1.05,2.04,1.05s.66-.62,2.04-1.05c.75-.23,2.34-.37,3.26-.37s1.25-.07,1.25-.71v-9.58h.9c.36,0,.65,.29,.65,.65v10.51Z"/></g></g></svg>