<?xml version="1.0" encoding="UTF-8"?><svg id="Laag_1" xmlns="http://www.w3.org/2000/svg" xmlns:xlink="http://www.w3.org/1999/xlink" viewBox="0 0 64 64"><defs><style>.cls-1{fill:none;}.cls-2{clip-path:url(#clippath);}.cls-3{clip-path:url(#clippath-1);}</style><clipPath id="clippath"><rect class="cls-1" width="64" height="64"/></clipPath><clipPath id="clippath-1"><rect class="cls-1" width="64" height="64"/></clipPath></defs><g class="cls-2"><g class="cls-3"><path d="M32,19c-1.66,0-3,.34-3,2s1.34,4,3,4,3-2.34,3-4-1.34-2-3-2"/><path d="M32,26c-.55,0-1,.45-1,1s.45,1,1,1,1-.45,1-1-.45-1-1-1"/><path d="M50,28.03c-2.57-1.13-5.51-1.73-8.26-2.02,1.42-2.08,2.26-4.61,2.26-7.37,0-1.55-.28-3.03-.76-4.41,2.39-.28,8.35-5.85,1.76-9.86-5.39-3.28-7.22,.92-7.75,2.9-1.58-.81-3.36-1.28-5.24-1.28s-3.63,.46-5.21,1.26c-.55-1.99-2.38-6.15-7.75-2.88-6.56,3.99-.7,9.52,1.72,9.86-.49,1.38-.76,2.86-.76,4.41,0,2.75,.84,5.29,2.26,7.37-2.75,.29-5.69,.88-8.26,2.02-7.43,3.29-9.23,4.91-7,8.97,3.14,5.69,5.91,4.43,9.03,1.03,1.19-1.31,2.99-3.72,2.99-.03v2.44c4.98,1.52,5.96,4.76,6.05,5.23,.04,.2,.02,.3-.03,.33-3.13-2.99-8.9-5.69-12.31-2.34-2.79,2.75-1.82,8.27,2.17,12.31,3.99,4.05,9.49,5.1,12.28,2.35,.75-.74,1.23-1.69,1.45-2.75,.98,.26,2.13,.42,3.38,.42s2.39-.16,3.38-.42c.22,1.06,.69,2.01,1.45,2.75,2.79,2.75,8.29,1.7,12.28-2.35,3.99-4.05,4.96-9.56,2.17-12.31-3.35-3.3-9.09-.74-12.31,2.34-.05-.04-.07-.14-.03-.33,.09-.47,1.07-3.71,6.06-5.23v-2.44c0-3.7,1.79-1.28,2.98,.03,3.12,3.4,5.89,4.67,9.03-1.03,2.23-4.05,.43-5.68-7-8.97m-14-15.79c.97,0,1.76,.79,1.76,1.76s-.79,1.76-1.76,1.76-1.76-.79-1.76-1.76,.79-1.76,1.76-1.76m-8,0c.97,0,1.76,.79,1.76,1.76s-.79,1.76-1.76,1.76-1.76-.79-1.76-1.76,.79-1.76,1.76-1.76m4,17.96c-3.98,0-7.21-4.54-7.21-8.24s3.23-5.15,7.21-5.15,7.21,1.45,7.21,5.15-3.23,8.24-7.21,8.24"/></g></g></svg>