<?xml version="1.0" encoding="UTF-8"?><svg id="Laag_1" xmlns="http://www.w3.org/2000/svg" xmlns:xlink="http://www.w3.org/1999/xlink" viewBox="0 0 64 64"><defs><style>.cls-1{fill:none;}.cls-2{clip-path:url(#clippath);}.cls-3{clip-path:url(#clippath-1);}</style><clipPath id="clippath"><rect class="cls-1" width="64" height="64"/></clipPath><clipPath id="clippath-1"><rect class="cls-1" width="64" height="64"/></clipPath></defs><g class="cls-2"><g class="cls-3"><path d="M59.21,17.76c-1.92-.44-7.38-1.53-8.04-3.15-.66-1.62,1.31-5.13,2.35-6.8,.13-.21-.11-.46-.33-.33-1.69,1.04-5.26,3.04-6.79,2.35-1.56-.71-2.71-6.55-3.16-8.41-.06-.24-.39-.24-.46,0-.51,1.88-1.78,7.82-3.13,8.42-1.35,.59-5.11-1.42-6.83-2.41-.22-.12-.45,.12-.32,.33,1.02,1.61,3,5.09,2.37,6.85-.35,.99-2.31,1.75-4.27,2.3,2.64,.29,5,1.53,6.69,3.42,.03,0,.07,0,.1,0-.3-.73-.47-1.52-.47-2.36,0-3.38,2.74-6.13,6.13-6.13s6.13,2.74,6.13,6.13c0,2.61-1.63,4.83-3.93,5.71,.43,.45,.83,.93,1.17,1.46,2.32,.43,3.31,1.18,6.83,3.44,.22,.14,.47-.12,.32-.33-1.16-1.71-3.37-5.26-2.41-6.88,.98-1.66,6.21-2.71,8.04-3.14,.24-.06,.24-.4,0-.46"/><path d="M44.94,27.37c-1.33-2.76-4.14-4.65-7.39-4.65-.45,0-.9,.04-1.33,.11-1.48-2.19-3.98-3.59-6.79-3.59s-5.31,1.4-6.79,3.59c-.44-.07-.88-.11-1.33-.11-3.25,0-6.06,1.89-7.39,4.65-4.33,.23-7.79,3.82-7.79,8.21,0,9.41,14.08,9.41,20.85,9.41,3.08,0,1.88,0,4.9,0,6.76,0,20.84,0,20.84-9.41,0-4.39-3.46-7.98-7.79-8.21m-13.02,14.63h-4.9c-7.18,0-17.88-.34-17.88-6.42,0-2.88,2.34-5.22,5.22-5.22,.62,0,1.21,.13,1.76,.33,.13-2.76,2.4-4.97,5.19-4.97,1.11,0,2.13,.35,2.98,.94,.39-2.5,2.53-4.42,5.14-4.42,3.03,0,5.18,2.51,5.39,5.45h0c.12,1.62-.38,3.41-1.91,5.21,.09,.17,.38,.12,.7-.1,.51-.34,3.64-2.9,3.69-7.06,.08,0,.16-.02,.25-.02,2.8,0,5.06,2.2,5.19,4.97,.55-.2,1.14-.33,1.77-.33,2.88,0,5.22,2.34,5.22,5.22,0,6.08-10.64,6.42-17.81,6.42"/><path d="M17.28,50.96c.25-1.25-.53-2.41-.44-4.17,.01-.21-.06-.27-.15-.31-.09-.03-.18-.04-.32,.12-1.17,1.32-2.54,1.58-3.24,2.66-.74,1.13-.03,2.64,1.14,3.12,1.17,.48,2.74-.09,3-1.42"/><path d="M25.96,50.96c.25-1.25-.53-2.41-.44-4.17,.01-.21-.06-.27-.15-.31-.09-.03-.18-.04-.32,.12-1.17,1.32-2.54,1.58-3.24,2.66-.74,1.13-.03,2.64,1.14,3.12,1.17,.48,2.74-.09,3-1.42"/><path d="M19.08,54.57c-.09-.03-.18-.04-.32,.12-1.17,1.32-2.53,1.58-3.24,2.66-.74,1.13-.03,2.64,1.14,3.12,1.17,.48,2.74-.09,3-1.42,.25-1.26-.53-2.41-.44-4.17,.01-.21-.06-.27-.15-.31"/><path d="M34.65,50.96c.25-1.25-.53-2.41-.44-4.17,.01-.21-.06-.27-.15-.31-.09-.03-.18-.04-.32,.12-1.17,1.32-2.54,1.58-3.24,2.66-.74,1.13-.03,2.64,1.14,3.12,1.17,.48,2.74-.09,3-1.42"/><path d="M27.77,54.57c-.09-.03-.18-.04-.32,.12-1.17,1.32-2.53,1.58-3.24,2.66-.74,1.13-.03,2.64,1.14,3.12,1.17,.48,2.74-.09,3-1.42,.25-1.26-.53-2.41-.44-4.17,.01-.21-.06-.27-.15-.31"/><path d="M42.88,46.48c-.09-.03-.18-.04-.32,.12-1.17,1.32-2.53,1.58-3.24,2.66-.74,1.13-.03,2.64,1.14,3.12,1.17,.48,2.74-.09,3-1.42,.25-1.26-.53-2.41-.44-4.17,.01-.21-.06-.27-.15-.31"/><path d="M36.58,54.57c-.09-.03-.18-.04-.32,.12-1.17,1.32-2.53,1.58-3.24,2.66-.74,1.13-.03,2.64,1.14,3.12,1.17,.48,2.74-.09,3-1.42,.25-1.26-.53-2.41-.44-4.17,.01-.21-.06-.27-.15-.31"/></g></g></svg>