<?xml version="1.0" encoding="UTF-8"?><svg id="Laag_1" xmlns="http://www.w3.org/2000/svg" xmlns:xlink="http://www.w3.org/1999/xlink" viewBox="0 0 24 24"><defs><style>.cls-1{fill:none;}.cls-2{clip-path:url(#clippath);}.cls-3{clip-path:url(#clippath-1);}</style><clipPath id="clippath"><rect class="cls-1" width="24" height="24"/></clipPath><clipPath id="clippath-1"><rect class="cls-1" width="24" height="24"/></clipPath></defs><g class="cls-2"><g class="cls-3"><path d="m15,4.5v2c3.03,0,5.5,2.47,5.5,5.5s-2.47,5.5-5.5,5.5v2c4.14,0,7.5-3.36,7.5-7.5s-3.36-7.5-7.5-7.5"/><path d="m19,12c0-2.21-1.79-4-4-4v2c1.1,0,2,.9,2,2s-.9,2-2,2v2c2.21,0,4-1.79,4-4"/><path d="m11.9,4.15c-.48.33-4.9,3.85-4.9,3.85,0,0-2,0-2,0-2.22,0-3,2.09-3,4,0,1.91.78,4,3,4,0,0,2.01,0,2,0,0,0,4.42,3.52,4.9,3.85.48.33,1.1-.01,1.1-.59V4.75c0-.58-.62-.92-1.1-.59"/></g></g></svg>