<?xml version="1.0" encoding="UTF-8"?><svg id="Laag_1" xmlns="http://www.w3.org/2000/svg" xmlns:xlink="http://www.w3.org/1999/xlink" viewBox="0 0 64 64"><defs><style>.cls-1{fill:none;}.cls-2{clip-path:url(#clippath);}.cls-3{clip-path:url(#clippath-1);}</style><clipPath id="clippath"><rect class="cls-1" width="64" height="64"/></clipPath><clipPath id="clippath-1"><rect class="cls-1" width="64" height="64"/></clipPath></defs><g class="cls-2"><rect x="12" y="30" width="22" height="3"/><rect x="12" y="42" width="16" height="3"/><rect x="12" y="24" width="22" height="3"/><g class="cls-3"><path d="M16.38,15h13.25c1.45,0,2.71-.97,3-2.33,.34-1.62,.33-3.05,.35-4.51,0-.75-.53-1.4-1.27-1.53l-1.83-.3c-.94,1.71-1.99,2.71-2.28,2.94-.61,.49-.95,.54-1.14,.36,.01-.02,.02-.03,.03-.05,.93-.91,1.52-2.17,1.52-3.58,0-2.76-2.24-5-5-5s-5,2.24-5,5v.02l-3.7,.62c-.74,.12-1.28,.77-1.27,1.53,.02,1.47,0,2.9,.35,4.51,.29,1.36,1.55,2.33,3,2.33M23,3.74c1.24,0,2.25,1.01,2.25,2.26s-1.01,2.26-2.25,2.26-2.26-1.01-2.26-2.26,1.01-2.26,2.26-2.26"/><path d="M60.43,38.83c-.19-1.17-1.09-2.07-2.26-2.26-3.39-.57-9.04-.57-10.17-.57s-6.78,0-10.17,.57c-1.17,.2-2.07,1.09-2.26,2.26-.56,3.39-.56,9.04-.56,10.17s0,6.78,.56,10.17c.19,1.17,1.09,2.07,2.26,2.26,3.39,.56,9.04,.56,10.17,.56s6.78,0,10.17-.56c1.17-.2,2.07-1.09,2.26-2.26,.57-3.39,.57-9.04,.57-10.17,0-3.39,0-6.78-.57-10.17m-3.43,12.67c0,.28-.22,.5-.5,.5h-5.5v5.5c0,.28-.22,.5-.5,.5h-5c-.28,0-.5-.22-.5-.5v-5.5h-5.5c-.28,0-.5-.22-.5-.5v-5c0-.28,.22-.5,.5-.5h5.5v-5.5c0-.28,.22-.5,.5-.5h5c.28,0,.5,.22,.5,.5v5.5h5.5c.28,0,.5,.22,.5,.5v5Z"/><path d="M8,54V14h3.6c-.57-1.32-.66-3.58-.68-5H5c-1.1,0-2,.9-2,2V57c0,1.1,.9,2,2,2h27.51c-.21-1.49-.34-3.24-.41-5H8Z"/><path d="M12,39h20.51c.14-1,.27-1.87,1.05-3H12v3Z"/><path d="M38,33.51c1.49-.21,3.24-.34,5-.41V11c0-1.1-.9-2-2-2h-5.92c-.02,1.42-.1,3.68-.68,5h3.6v19.51Z"/></g></g></svg>