<?xml version="1.0" encoding="UTF-8"?><svg id="Laag_1" xmlns="http://www.w3.org/2000/svg" xmlns:xlink="http://www.w3.org/1999/xlink" viewBox="0 0 64 64"><defs><style>.cls-1{fill:none;}.cls-2{clip-path:url(#clippath);}.cls-3{clip-path:url(#clippath-1);}</style><clipPath id="clippath"><rect class="cls-1" width="64" height="64"/></clipPath><clipPath id="clippath-1"><rect class="cls-1" width="64" height="64"/></clipPath></defs><g class="cls-2"><g class="cls-3"><path d="M29.25,45.22l-.4-.82h0c-.14-.31-.32-.67-.51-1.08-.88-1.83-2.18-4.53-3.21-6.68-.42,1.24-.7,2.08-.74,2.17-.14,.37-.53,.59-.9,.44h-.01c-.33-.14-.51-.49-.42-.83,.03-.12,.47-1.72,1.06-3.9-.3-.64-.52-1.09-.59-1.24-.89-1.95-.1-4.24,1.81-5.21,.18-.09,.38-.15,.57-.22,.15-.55,.29-1.09,.43-1.61-.2-.4-.33-.68-.38-.79-.94-2.05-.14-4.44,1.83-5.53-.16-.71-.68-1.32-1.43-1.55h0c-1.08-.33-2.22,.25-2.58,1.31-.37,1.06-5.25,17.19-5.39,17.6-.11,.32-.42,.52-.75,.48h-.02c-.41-.06-.65-.45-.57-.86,.12-.54,3.51-14.4,3.77-15.54,.24-1.1-.34-2.2-1.42-2.53h0c-1.07-.33-2.23,.25-2.58,1.31-.41,1.23-6.48,21.4-6.48,21.4,5.9,2.78,7.25,7.03,7.25,7.03,.12,.31,0,.43-.06,.47,0,0-2.19-3.33-5.81-4.97-2.27-1.03-2.83-.72-3.83-3.12-.92-2.19-1.53-4.57-2.94-6.85-1.24-2.01-2.59-2.36-3.43-1.99-.82,.36-1.37,1.31-.78,3.2,2.73,8.72,1.54,14.91,5.6,21.21,3.88,6.01,15.21,9.18,21.8,2.58,1.67-1.67,2.79-4.65,3.86-8.22-.56-1.1-1.11-2.25-1.69-3.44-.35-.73-.72-1.48-1.09-2.24"/><path d="M60.65,25.97c-.89-.21-2.16,.37-3.02,2.56-.99,2.5-1.17,4.95-1.69,7.26-.56,2.53-1.16,2.33-3.22,3.74-3.27,2.25-4.84,5.91-4.84,5.91-.06-.03-.21-.13-.14-.46,0,0,.59-4.42,5.91-8.19,0,0-9.52-18.79-10.14-19.93-.53-.99-1.77-1.35-2.77-.84h0c-1,.51-1.38,1.7-.95,2.74,.45,1.08,6.24,14.13,6.44,14.63,.16,.38-.01,.82-.4,.94h-.02c-.32,.11-.66-.04-.82-.33-.21-.37-7.85-15.39-8.4-16.37-.55-.98-1.77-1.35-2.77-.84h0c-1,.51-1.42,1.72-.95,2.74,.47,1.02,7.55,16.05,7.73,16.41,.15,.32,.03,.7-.27,.88h-.01c-.34,.22-.75,.07-.96-.27-.21-.34-7.08-12.94-7.63-13.92-.55-.98-1.77-1.35-2.77-.84h0c-1,.51-1.42,1.72-.95,2.74,.47,1.02,7.65,15.48,7.77,15.71,.11,.24,.08,.52-.09,.72h0c-.3,.4-.88,.32-1.14-.11-.26-.43-5.33-9.29-5.8-10.12-.47-.83-1.51-1.15-2.36-.72h0c-.85,.44-1.21,1.46-.81,2.33,.4,.87,5.69,11.87,5.69,11.88,2.8,5.69,5.02,10.92,7.97,12.97,7.65,5.33,18.25,.23,21.01-6.38,2.89-6.92,.63-12.81,1.78-21.86,.25-1.97-.46-2.8-1.33-3.02"/><path d="M10.55,20.49l.6,1.81,.6-1.81c1.04-3.11,3.48-5.55,6.59-6.59l1.81-.6-1.81-.6c-3.11-1.04-5.55-3.48-6.59-6.59l-.6-1.81-.6,1.81c-1.04,3.11-3.48,5.55-6.59,6.59l-1.81,.6,1.81,.6c3.11,1.04,5.55,3.48,6.59,6.59"/><path d="M31.36,9.68l.49,1.48,.5-1.48c.54-1.64,1.83-2.92,3.46-3.47l1.48-.49-1.48-.49c-1.63-.55-2.92-1.83-3.46-3.47l-.5-1.48-.49,1.48c-.55,1.64-1.83,2.92-3.46,3.47l-1.48,.49,1.48,.49c1.64,.55,2.92,1.83,3.46,3.47"/><path d="M52.6,18.91l.6,1.82,.61-1.82c.67-2,2.24-3.57,4.24-4.24l1.82-.61-1.82-.6c-2-.67-3.58-2.24-4.24-4.24l-.61-1.82-.6,1.82c-.67,2-2.24,3.57-4.24,4.24l-1.82,.6,1.82,.61c2,.67,3.57,2.24,4.24,4.24"/></g></g></svg>