<?xml version="1.0" encoding="UTF-8"?><svg id="Laag_1" xmlns="http://www.w3.org/2000/svg" xmlns:xlink="http://www.w3.org/1999/xlink" viewBox="0 0 64 64"><defs><style>.cls-1{fill:none;}.cls-2{clip-path:url(#clippath);}.cls-3{clip-path:url(#clippath-1);}</style><clipPath id="clippath"><rect class="cls-1" width="64" height="64"/></clipPath><clipPath id="clippath-1"><rect class="cls-1" width="64" height="64"/></clipPath></defs><g class="cls-2"><g class="cls-3"><path d="M32,6c-7.73,0-14,6.27-14,14s6.27,14,14,14,14-6.27,14-14-6.27-14-14-14m8.4,15.84c0,.55-.45,1-1,1h-4.6v4.6c0,.55-.45,1-1,1h-3.6c-.55,0-1-.45-1-1v-4.6h-4.6c-.55,0-1-.45-1-1v-3.6c0-.55,.45-1,1-1h4.6v-4.6c0-.55,.45-1,1-1h3.6c.55,0,1,.45,1,1v4.6h4.6c.55,0,1,.45,1,1v3.6Z"/><path d="M13.83,50.59h3.86v1.46c.7,.12,1.23,.55,1.39,1.06,.06,.19-.07,.25-.07,.25,0,0-.49-.59-1.33-.59h0c-1.11,0-2,.9-2,2.01,0,1.22,1.08,2.18,2.34,1.97,.98-.16,1.66-1.08,1.66-2.08v-4.08h27.43v1.46c.7,.12,1.23,.55,1.39,1.06,.06,.19-.07,.25-.07,.25,0,0-.49-.59-1.33-.59h0c-1.1,0-2,.9-2,2.01,0,1.22,1.08,2.18,2.34,1.97,.98-.16,1.66-1.08,1.66-2.08v-4.08h2.69c1.1,0,2-.9,2-2v-3.27H11.83v3.27c0,1.1,.9,2,2,2m3.86,4.93c-.41,0-.75-.33-.75-.75s.34-.75,.75-.75,.75,.34,.75,.75-.34,.75-.75,.75m29.43,0c-.41,0-.75-.33-.75-.75s.34-.75,.75-.75,.75,.34,.75,.75-.34,.75-.75,.75"/><path d="M56.65,37.64l-.33-.94c-.18-.52-.76-.8-1.28-.61l-14.86,5.23H10.85c-.55,0-1,.45-1,1v1c0,.55,.45,1,1,1h29.84l15.35-5.4c.52-.18,.79-.75,.61-1.28"/></g></g></svg>