<?xml version="1.0" encoding="UTF-8"?><svg id="Laag_1" xmlns="http://www.w3.org/2000/svg" xmlns:xlink="http://www.w3.org/1999/xlink" viewBox="0 0 64 64"><defs><style>.cls-1{fill:none;}.cls-2{clip-path:url(#clippath);}.cls-3{clip-path:url(#clippath-1);}</style><clipPath id="clippath"><rect class="cls-1" width="64" height="64"/></clipPath><clipPath id="clippath-1"><rect class="cls-1" width="64" height="64"/></clipPath></defs><g class="cls-2"><g class="cls-3"><path d="M19.29,21.91c-.08-.26-.39-.85-1.43-.77-2.3,.19-3.5,2.88-3.35,4.72,.15,1.85,1.32,1.76,1.71,1.73,2.32-.19,2.88-2.06,2.89-2.08,0-.01,.01-.02,.02-.04-.09-1.18,.03-2.42,.21-3.48-.01-.03-.03-.06-.04-.1"/><path d="M34.94,33.83s1.71,.55,4.13,.93c-.26-.77-.4-1.58-.4-2.4s.15-1.67,.42-2.43c-2.11-.54-3.49-2.41-3.54-4.94-.05-2.86,1.8-6.05,5.32-6.34,2.45-.2,3.93,1.39,4.41,2.37,.31,.62,.05,1.37-.58,1.67-.62,.3-1.37,.05-1.68-.56-.07-.12-.63-1.1-1.95-.99-2.26,.18-3.03,2.37-3.01,3.8,.03,1.5,.75,2.65,2.35,2.65,1.34-1.58,3.34-2.59,5.57-2.59,2.46,0,4.64,1.19,6,3.14V5H5V38h13.43c.07,.1-.1,.34-.48,.43l-4.43,1.16-2.65,15.41h5.88l1.4-8h12.85v-4h-12.15l.82-5h11.33c0-.82,0-1.32,0-1.32,0-.96,.46-1.87,1.24-2.43,.78-.56,1.78-.72,2.7-.42m-7.18-3.74c-.96,0-1.78-.32-2.42-.91-.6,.4-1.38,.68-2.21,.68-.19,0-.39-.02-.58-.05-.97-.15-1.76-.64-2.33-1.37-.79,.78-1.98,1.5-3.73,1.65-.13,.01-.27,.02-.4,.02-2.23,0-3.83-1.58-4.03-4.03-.27-3.34,1.94-7.11,5.68-7.42,1.02-.08,1.82,.14,2.43,.51,.29-.48,.89-.72,1.45-.55,.66,.21,1.03,.91,.82,1.57-.58,1.83-1.19,5.25-.33,6.63,.2,.31,.44,.48,.83,.53,.44,.07,.92-.12,1.23-.38,0,0-.08-.19-.13-.5-.35-2.22,.09-5.28,.95-8.19,.01-.06,.03-.12,.06-.18,1.01-3.34,2.53-6.44,3.91-7.76,.37-.35,.92-.45,1.39-.24,.47,.21,.76,.68,.74,1.19,0,.14-.18,3.42-3.73,7.85-.87,2.97-1.31,6.07-.65,7.69,.26,.65,.59,.77,1.04,.77,2.23,0,3.33-1.72,3.69-2.45,.66-1.33,.72-2.89,.14-3.64-.12-.15-.49-.62-1.67-.39-.68,.14-1.34-.3-1.48-.98-.14-.68,.31-1.33,.99-1.47,2.37-.47,3.62,.62,4.16,1.32,1.18,1.52,1.22,4.04,.12,6.26-1.19,2.41-3.42,3.85-5.95,3.85"/><path d="M57.34,50.97h-.04c-.5-.07-1,.08-1.41,.37-1.36,.97-2.25,1.55-3.52,1.23-1.94-.48-3.37-2.26-3.3-4.37,.06-2.08,1.5-3.65,3.2-4.08,1.35-.34,2.63,.51,3.61,1.2,.42,.3,.92,.42,1.43,.39,.83-.06,1.76-1.04,1.69-2.05-.18-2.76-.67-5.37-.89-6.45-.06-.28-.34-.46-.62-.38-1.13,.33-4.04,1.07-7.47,1.24-.77,.04-1.43-.53-1.51-1.3h0c-.05-.48,.14-.93,.48-1.25,1.08-1.03,1.63-2.62,1.21-4.31-.38-1.51-1.62-2.74-3.15-3.09-2.84-.66-5.37,1.49-5.37,4.24,0,1.25,.52,2.38,1.36,3.17,.34,.32,.52,.77,.47,1.23v.02c-.08,.76-.75,1.33-1.51,1.3-3.32-.16-6.15-.86-7.35-1.2-.32-.09-.63,.15-.63,.48,0,3.08,.01,15.99,0,20.82,0,1.01,.82,1.83,1.83,1.83h21.75c.24,0,.44-.16,.49-.39,.21-.99,.74-3.73,.92-6.63,.06-1-.67-1.87-1.66-2"/></g></g></svg>