<?xml version="1.0" encoding="UTF-8"?><svg id="Laag_1" xmlns="http://www.w3.org/2000/svg" xmlns:xlink="http://www.w3.org/1999/xlink" viewBox="0 0 64 64"><defs><style>.cls-1{fill:none;}.cls-2{clip-path:url(#clippath);}.cls-3{clip-path:url(#clippath-1);}</style><clipPath id="clippath"><rect class="cls-1" width="64" height="64"/></clipPath><clipPath id="clippath-1"><rect class="cls-1" width="64" height="64"/></clipPath></defs><g class="cls-2"><g class="cls-3"><path d="M45,13c2.21,0,4-.28,4-.71-.04-.97-.13-2.1-.31-3.1-.13-.69-.68-1.18-1.32-1.18h-4.74c-.64,0-1.19,.49-1.32,1.18-.18,1-.27,2.13-.31,3.1,0,.44,1.79,.71,4,.71"/><path d="M51.36,17.76l-3.06-2.97c-.94,.24-2.1,.29-3.31,.29s-2.37-.06-3.31-.29l-2.71,2.63,.3,.06c1.16,.25,1.96,1.25,1.94,2.43,0,1.18-.83,2.17-1.99,2.4l-.26,.05c-1.14,.22-2.09,.44-2.89,.64-.05,.37-.08,.74-.08,1.12v17.38c0,.83,.67,1.5,1.5,1.5s1.5-.67,1.5-1.5h2c0,.83,.67,1.5,1.5,1.5s1.5-.67,1.5-1.5h2c0,.83,.67,1.5,1.5,1.5s1.5-.67,1.5-1.5h2c0,.83,.67,1.5,1.5,1.5s1.5-.67,1.5-1.5V24.12c0-2.39-.95-4.68-2.64-6.36"/><path d="M29.96,23.72c.87-2.08,6.65-3.14,8.84-3.57,.29-.06,.29-.46,0-.52-2.25-.49-8.17-1.62-8.85-3.53-.7-1.99,1.53-5.92,2.68-7.74,.15-.24-.11-.52-.36-.38-1.95,1.12-6.19,3.39-7.71,2.73-1.54-.67-2.96-7.38-3.54-9.51-.07-.27-.45-.26-.52,0-.51,2.1-1.81,8.7-3.57,9.5-1.73,.79-5.76-1.47-7.67-2.65-.24-.15-.52,.13-.37,.37,1.17,1.88,3.39,5.84,2.65,7.68-.74,1.83-6.91,3.05-9.08,3.56-.27,.06-.28,.45,0,.52,2.07,.49,7.97,1.68,9.08,3.55,1.09,1.83-1.4,5.84-2.72,7.77-.17,.24,.12,.53,.36,.37,1.91-1.22,6.08-3.5,7.74-2.75,1.64,.74,2.99,6.42,3.5,8.67,.06,.29,.48,.28,.52,0,.36-2.17,1.83-7.74,3.61-8.66,1.6-.83,5.92,1.33,7.75,2.66,.24,.18,.54-.11,.38-.36-1.26-1.92-3.57-5.71-2.74-7.69m-9.24,3.08c-3.82,0-6.92-3.1-6.92-6.92s3.1-6.92,6.92-6.92,6.92,3.1,6.92,6.92-3.1,6.92-6.92,6.92"/><path d="M37.5,43.5c-.83,0-1.5,.67-1.5,1.5s.67,1.5,1.5,1.5,1.5-.67,1.5-1.5-.67-1.5-1.5-1.5"/><path d="M42.5,43.5c-.83,0-1.5,.67-1.5,1.5s.67,1.5,1.5,1.5,1.5-.67,1.5-1.5-.67-1.5-1.5-1.5"/><path d="M47.5,43.5c-.83,0-1.5,.67-1.5,1.5s.67,1.5,1.5,1.5,1.5-.67,1.5-1.5-.67-1.5-1.5-1.5"/><path d="M52.5,43.5c-.83,0-1.5,.67-1.5,1.5s.67,1.5,1.5,1.5,1.5-.67,1.5-1.5-.67-1.5-1.5-1.5"/><path d="M37.5,49.5c-.83,0-1.5,.67-1.5,1.5s.67,1.5,1.5,1.5,1.5-.67,1.5-1.5-.67-1.5-1.5-1.5"/><path d="M42.5,49.5c-.83,0-1.5,.67-1.5,1.5s.67,1.5,1.5,1.5,1.5-.67,1.5-1.5-.67-1.5-1.5-1.5"/><path d="M47.5,49.5c-.83,0-1.5,.67-1.5,1.5s.67,1.5,1.5,1.5,1.5-.67,1.5-1.5-.67-1.5-1.5-1.5"/><path d="M52.5,49.5c-.83,0-1.5,.67-1.5,1.5s.67,1.5,1.5,1.5,1.5-.67,1.5-1.5-.67-1.5-1.5-1.5"/><path d="M37.5,56c-.83,0-1.5,.67-1.5,1.5s.67,1.5,1.5,1.5,1.5-.67,1.5-1.5-.67-1.5-1.5-1.5"/><path d="M42.5,56c-.83,0-1.5,.67-1.5,1.5s.67,1.5,1.5,1.5,1.5-.67,1.5-1.5-.67-1.5-1.5-1.5"/><path d="M47.5,56c-.83,0-1.5,.67-1.5,1.5s.67,1.5,1.5,1.5,1.5-.67,1.5-1.5-.67-1.5-1.5-1.5"/><path d="M52.5,56c-.83,0-1.5,.67-1.5,1.5s.67,1.5,1.5,1.5,1.5-.67,1.5-1.5-.67-1.5-1.5-1.5"/></g></g></svg>