<?xml version="1.0" encoding="UTF-8"?><svg id="Laag_1" xmlns="http://www.w3.org/2000/svg" xmlns:xlink="http://www.w3.org/1999/xlink" viewBox="0 0 64 64"><defs><style>.cls-1{fill:none;}.cls-2{clip-path:url(#clippath);}.cls-3{clip-path:url(#clippath-1);}</style><clipPath id="clippath"><rect class="cls-1" width="64" height="64"/></clipPath><clipPath id="clippath-1"><rect class="cls-1" width="64" height="64"/></clipPath></defs><g class="cls-2"><g class="cls-3"><path d="M60.13,18.08l-14.33-1.8c-.48-.06-.95,.11-1.28,.46l-3.65,3.87c-.15,.16-.24,.35-.26,.56-.02,.2,.01,.42,.12,.61l2.58,4.65c.23,.42,.65,.71,1.13,.76l14.34,1.8c.55,.07,1.05-.36,1.12-.91l1.11-8.85c.07-.55-.31-1.09-.86-1.16m-13.28,3.77c-.11,.83-.86,1.42-1.69,1.32-.83-.1-1.42-.86-1.32-1.69,.11-.83,.87-1.42,1.7-1.31,.83,.11,1.41,.86,1.31,1.69"/><path d="M45,52s3-4.69,2.61-11.74c-.38-6.98-7.15-14.41-11.34-18.37,1.11-.35,1.73-1.5,1.73-2.88,0-1.66-.89-3-2.45-3h-.7c.92-1.11,2.73-2.92,3.3-4.26,1.22-2.86-1.94-3.57-6.16-4.74V3.59c0-3.94-14.47,1.46-13.25,5.8,.72,2.55,2.42,5.2,3.41,6.6h-.71c-1.56,0-2.45,1.34-2.45,3s.89,3,2.45,3h5.97c.02,.06,.07,.26-.25,.36-.2,.06-5.08,.99-8.58,1.64-4.02,4.18-8.87,10.37-9.2,16.25-.39,7.06,2.61,11.74,2.61,11.74l-2.61,4.17c-1.04,1.66,.16,3.83,2.12,3.83H45.49c1.96,0,3.16-2.16,2.12-3.83l-2.61-4.17Zm-10.85-1.34c-1.66,.39-2.45,.48-4.05,.48-4.2,0-7.16-2.06-8.04-6.53h-2.06v-2.3h1.81v-.64c0-.54,0-1.12,.06-1.63h-1.88v-2.33h2.24c1.09-4.53,4.17-6.83,8.37-6.83,1.18,0,2.11,.09,3.39,.36v3.17c-1.48-.27-2.27-.39-3.48-.39-2.3,0-3.81,1.24-4.48,3.69h5.5v2.33h-5.89c-.03,.42-.03,.85-.03,1.27,0,.36,0,.69,.03,1h5.89v2.3h-5.53c.69,2.48,2.33,3.51,4.32,3.51,1.42,0,2.24-.12,3.81-.45v2.99Z"/></g></g></svg>