<?xml version="1.0" encoding="UTF-8"?><svg id="Laag_1" xmlns="http://www.w3.org/2000/svg" xmlns:xlink="http://www.w3.org/1999/xlink" viewBox="0 0 64 64"><defs><style>.cls-1{fill:none;}.cls-2{clip-path:url(#clippath);}.cls-3{clip-path:url(#clippath-1);}</style><clipPath id="clippath"><rect class="cls-1" width="64" height="64"/></clipPath><clipPath id="clippath-1"><rect class="cls-1" width="64" height="64"/></clipPath></defs><g class="cls-2"><g class="cls-3"><path d="M38.07,25.05c4.61,0,7.61-2.37,7.61-6.76,0-3.86-3.15-6.29-8.61-6.29h-4.82c-2.03,0-3.24-.91-4.71-1.88-1.41-.92-2.98-1.52-5.07-1.52h-6.18s.03,.61,.24,1.48h0c.13,.47,.16,.6,.3,1.03,.76,2.11,3.83,4.89,7.49,4.89h13.47c2.43,0,3.4,1,3.4,2.55s-.93,2.43-3.49,2.43h-4.01l.03-2.12c.01-1.11-.76-1.73-1.73-1.73-.97,0-1.73,.67-1.73,1.73l.03,2.12h-4.22c-3.48,0-6.82,2.05-6.82,6.07,0,4.9,4.37,6.52,7.66,6.52h3.52l.05,4.16h-1.34c-2.92,0-5.6,2.3-5.6,5.6,0,3.61,3.29,5.5,5.58,5.87l-.05-3.82c-.89-.28-1.55-1.08-1.51-1.84,0-.79,.48-1.64,1.64-1.76h1.33l.15,12.34c0,2.64,2.62,2.71,2.62,2.71l.09-7.22h.54c1.96,.07,5.65,.5,5.65,5.7,2.62-6.8-1.12-8.94-5.23-9.24l-.42-.03h-.5l.05-4.29h1.33c4.59,0,7.25-2.72,7.25-6.14s-2.53-5.9-6.93-6.06l-.05,4h.07c2.09,0,2.87,.94,2.87,2.15s-1.25,1.87-2.3,1.96c-.42,.04-.86,.05-.86,.05h-1.33l.14-12.68h4.41Zm-15.17-12.67c-.65,0-1.18-.53-1.18-1.18s.53-1.18,1.18-1.18,1.18,.53,1.18,1.18-.53,1.18-1.18,1.18m3.58,17.17c-1.7,0-2.93-.89-2.94-2.31,0-1.38,1.15-2.19,2.81-2.19h3.99l.05,4.5h-3.9Z"/><path d="M16.68,12.78c-2.9,0-3.87-.52-3.84-1.71h-.05c-.48,1.48,.74,2.54,2.5,2.54v.1c-2.42,0-2.8,1.74-2.19,2.9l.05-.02c-.16-1.65,.56-2.15,3.88-2.15h5.06v-1.66h-5.42Z"/></g></g></svg>