<?xml version="1.0" encoding="UTF-8"?><svg id="Laag_1" xmlns="http://www.w3.org/2000/svg" xmlns:xlink="http://www.w3.org/1999/xlink" viewBox="0 0 64 64"><defs><style>.cls-1{fill:none;}.cls-2{clip-path:url(#clippath);}.cls-3{clip-path:url(#clippath-1);}</style><clipPath id="clippath"><rect class="cls-1" width="64" height="64"/></clipPath><clipPath id="clippath-1"><rect class="cls-1" width="64" height="64"/></clipPath></defs><g class="cls-2"><g class="cls-3"><path d="M31.91,12.41c2.96,.65,5.12-1.04,5.78-4.03,.75-3.4-.64-5.61-3.52-6.24-3.03-.67-5.14,1.13-5.81,4.19-.71,3.23,.6,5.43,3.56,6.08"/><path d="M49.92,27.54c-5.4-.5-7.9-.72-8.9-1-1.06-.86-3.19-4.86-3.81-6.06-1.42-2.74-2.03-5.66-8.94-6.36-4.19-.43-10.96,1.39-12.57,2.92-1.76,1.61-3.44,4.89-4.51,7.11h0c-.87,1.89-.59,4.15,1.13,5.34,.69-1,4.17-7.59,6.27-8.92,.67-.38,2.86-1.04,5.27-1.24-1.22,4.67-2.26,11.22-2.58,13.37-.65,4.29,2.05,5.7,4.98,7.48,0,0,0,.18-.37,.18-.2,0-1.65-.24-3.33-.52-.84,1.86-2.77,6.04-3.77,7.72-2.58-.03-7.17-1.29-8.47-1.57-3.65-.78-4.87,3.14-4.87,3.14,3.19,1.22,11.01,4.09,14.4,3.87,1.95-.13,2.67-.84,4.12-2.89,1.57-2.22,3.7-5.77,5.03-8.01,1.58,.78,3.83,1.91,5.33,2.8,.58,2.83,.98,9.54,1.12,12.4,.07,1.53,1.62,4.11,4.7,4.91,.24-3.99,.42-6.53,.54-10.5,.06-2.07,.12-4.24,.01-6.58-.08-1.39-.14-2.49-.66-3.62-.49-1.05-1.71-2.26-8.33-7.09,.68-3.33,1.58-7.21,2.34-10.34,.99,1.83,3.11,5.42,5.01,6.31,1.51,.7,5.22,.67,6.93,.54,2.98-.22,3.77-2.78,3.92-3.37"/><path d="M53.5,47.05c-3.01,0-5.45,2.44-5.45,5.45s2.44,5.45,5.45,5.45,5.45-2.44,5.45-5.45-2.44-5.45-5.45-5.45"/></g></g></svg>