<?xml version="1.0" encoding="UTF-8"?><svg id="Laag_1" xmlns="http://www.w3.org/2000/svg" xmlns:xlink="http://www.w3.org/1999/xlink" viewBox="0 0 64 64"><defs><style>.cls-1{fill:none;}.cls-2{clip-path:url(#clippath);}.cls-3{clip-path:url(#clippath-1);}</style><clipPath id="clippath"><rect class="cls-1" width="64" height="64"/></clipPath><clipPath id="clippath-1"><rect class="cls-1" width="64" height="64"/></clipPath></defs><g class="cls-2"><g class="cls-3"><path d="M23.62,25.63c-1,.75-4.7,3.81-8.3,3.81-1.3,0-2.69-.46-3.9-1.01,1.02,2.67,2.94,4.9,5.39,6.32,2.75-.35,5.25-1.55,6.82-2.48,1.38,.81,3.48,1.85,5.83,2.32,2.16-1.32,3.88-3.27,4.91-5.6-.81,.26-1.65,.44-2.44,.44-3.4,0-6.79-2.67-8.3-3.81"/><path d="M23.62,19.81c1.85,1.09,4.99,2.58,8.3,2.58,1.14,0,2.26-.18,3.31-.46-.32-1.87-1.04-3.59-2.09-5.08-.41,.08-.82,.13-1.22,.13-3.4,0-6.79-2.67-8.3-3.81-1,.75-4.7,3.81-8.3,3.81-.74,0-1.51-.15-2.26-.38-1.1,1.47-1.88,3.19-2.24,5.06,1.44,.44,3.29,.74,4.5,.74,3.32,0,6.45-1.49,8.3-2.58"/><path d="M41.2,36.27c-2.32,2.08-4.23,2.86-4.72,3.03-.28,.1-.45,.03-.5-.09,.32-.28,2.52-2.45,3.77-4.3,2.1-3.11,3.25-6.89,3.25-10.92,0-11.05-8.95-20-20-20S3,12.95,3,24s8.95,20,20,20c4.03,0,7.77-1.2,10.91-3.25l17.03,18.27c1.16,1.16,2.99,1.32,4.32,.35,1-.73,1.45-.84,3.1-3.1,.97-1.33,.81-3.16-.35-4.32l-16.81-15.67Zm-18.2,2.15c-7.95,0-14.42-6.47-14.42-14.42s6.47-14.42,14.42-14.42,14.42,6.47,14.42,14.42-6.47,14.42-14.42,14.42"/><path d="M52.04,27c-1,.75-3.49,2.75-6,2.75-.49,0-1.01-.11-1.51-.25-.33,1.28-.77,2.52-1.31,3.7,.88,.27,1.84,.46,2.82,.46,2.4,0,4.66-1.08,6-1.86,1.34,.79,3.6,1.86,6,1.86,1.03,0,2.04-.2,2.96-.49v-4.2c-.9,.42-1.97,.79-2.96,.79-2.46,0-4.92-1.94-6-2.75"/><path d="M52.04,18c-1,.75-3.49,2.75-6,2.75-.35,0-.72-.06-1.08-.14,.17,1.11,.26,2.24,.26,3.39,0,.2,0,.4-.01,.6,2.41,.23,4.77-.59,6.84-1.8,1.34,.79,3.6,1.86,6,1.86,1.03,0,2.04-.2,2.96-.49v-4.2c-.9,.42-1.97,.79-2.96,.79-2.46,0-4.92-1.94-6-2.75"/><path d="M58.04,11.75c-2.46,0-4.92-1.94-6-2.75-1,.75-3.49,2.75-6,2.75s-4.92-1.94-6-2.75l-.39,.29c1.56,1.76,2.84,3.77,3.78,5.97,.83,.24,1.7,.4,2.61,.4,2.4,0,4.66-1.08,6-1.86,1.34,.79,3.6,1.86,6,1.86,1.03,0,2.04-.2,2.96-.49v-4.2c-.9,.42-1.97,.79-2.96,.79"/></g></g></svg>