<?xml version="1.0" encoding="UTF-8"?><svg id="Laag_1" xmlns="http://www.w3.org/2000/svg" xmlns:xlink="http://www.w3.org/1999/xlink" viewBox="0 0 64 64"><defs><style>.cls-1{fill:none;}.cls-2{clip-path:url(#clippath);}.cls-3{clip-path:url(#clippath-1);}</style><clipPath id="clippath"><rect class="cls-1" width="64" height="64"/></clipPath><clipPath id="clippath-1"><rect class="cls-1" width="64" height="64"/></clipPath></defs><g class="cls-2"><g class="cls-3"><path d="M58.58,50.48L34.38,9.47c-.54-.91-1.52-1.47-2.58-1.47h-.01c-1.06,0-2.05,.57-2.58,1.49L5.41,50.49c-.54,.93-.54,2.07,0,3,.53,.93,1.53,1.5,2.6,1.5H56c1.08,0,2.07-.58,2.6-1.51,.53-.94,.53-2.09-.02-3.01m-45.37-1.48L31.81,16.94l18.93,32.06H13.21Z"/><path d="M28.23,29.29v1.71h-1.9c-.16,0-.29,.13-.29,.29v2.18c.98-.27,2.63-.51,4.03-.61,2.42-.17,4.12,.53,5.21,1.2,.14,.09,.18,.19,.17,.29-1.1-.3-2.3-.52-3.44-.52-3.64,0-7.84,2.21-7.84,2.21,0,2.33,.49,5.1,.83,6.76,.75-.23,1.42-.59,1.62-.72l1.32-.85,1.32,.85c.38,.24,1.7,.92,2.75,.92s2.44-.72,2.74-.92l1.32-.85,1.32,.85c.25,.16,.9,.5,1.62,.72,.34-1.66,.83-4.43,.83-6.76,0,0-.46-.5-1.84-1.02v-3.73c0-.16-.13-.29-.29-.29h-1.94v-1.71c0-.16-.13-.29-.29-.29h-6.97c-.16,0-.29,.13-.29,.29m2.81,10.71h-4.07v-1.74c0-.32,.26-.58,.58-.58s.58,.26,.58,.58v.58h1.74v-.58c0-.32,.26-.58,.58-.58s.58,.26,.58,.58v1.74Zm4.9-1.16v-.58c0-.32,.26-.58,.58-.58s.58,.26,.58,.58v1.74h-4.06v-1.74c0-.32,.26-.58,.58-.58s.58,.26,.58,.58v.58h1.74Z"/><path d="M36.06,43.2l-.63,.4s-1.79,1.12-3.44,1.12-3.42-1.11-3.44-1.12l-.63-.4-.63,.4s-1.79,1.12-3.44,1.12c-.7,0-1.27-.2-1.87-.43v2.4c.63,.18,1.17,.31,1.87,.31,1.63,0,3.22-.69,4.07-1.13,.85,.44,2.43,1.13,4.06,1.13s3.22-.69,4.07-1.13c.85,.44,2.43,1.13,4.06,1.13,.71,0,1.24-.13,1.87-.31v-2.4c-.6,.23-1.17,.44-1.87,.44-1.66,0-3.42-1.11-3.44-1.12l-.63-.4Z"/></g></g></svg>