<?xml version="1.0" encoding="UTF-8"?><svg id="Laag_1" xmlns="http://www.w3.org/2000/svg" viewBox="0 0 64 64"><defs><style>.cls-1{fill:none;}</style></defs><rect class="cls-1" width="64" height="64"/><path d="m48,42c-2.05,0-3.92.69-5.44,1.84l-18.64-10.71c.05-.37.08-.75.08-1.13,0-2.13-.74-4.08-1.97-5.62.09-.08.31-.09.52.04.38.24,1.78,1.27,3.32,3.4l16.71-9.65c1.51,1.14,3.38,1.83,5.42,1.83,4.97,0,9-4.03,9-9s-4.03-9-9-9-9,4.03-9,9c0,.38.03.75.08,1.11l-18.61,10.75c-1.52-1.16-3.4-1.86-5.46-1.86-4.97,0-9,4.03-9,9s4.03,9,9,9c2.03,0,3.9-.68,5.41-1.82l18.67,10.72c-.04.36-.07.72-.07,1.09,0,4.97,4.03,9,9,9s9-4.03,9-9-4.03-9-9-9Z"/></svg>