<?xml version="1.0" encoding="UTF-8"?><svg id="Laag_1" xmlns="http://www.w3.org/2000/svg" viewBox="0 0 64 64"><defs><style>.cls-1{fill:none;}</style></defs><rect class="cls-1" width="64" height="64"/><path d="m54.06,3.8c-14.82-6.76-22.06,7.77-22.06,7.77,0,0-7.24-14.54-22.06-7.77C-4.68,10.46-3.7,43.55,30.55,61.97c.9.48,2,.48,2.9,0C67.7,43.55,68.68,10.46,54.06,3.8Zm-21.92,13.84c.17-.01.32,0,.46.05-.13.76-.04,1.27.04,1.54.09.27.21.31.29.25,0-.33.02-.69.1-1.07.41-1.88,1.71-2.98,3.57-2.57,1.77.39,2.62,1.75,2.16,3.83-.4,1.83-1.73,2.87-3.54,2.47-1.19-.26-1.93-.93-2.19-1.92-.17.15-.38.24-.64.26-.73.06-1.2-.4-1.28-1.3-.07-.85.28-1.48,1.03-1.55Zm7.21,18.46c.15.16.29.35.39.57.31.69.18,1.09-.05,2.81-.15,1.12-1.27,10.89-1.47,12.36h-1.27c.14-1.37,1.22-14.23,1.23-14.3.03-.24-.14-.3-.29-.3h-.58c-1.05,0-1.64-.74-1.64-1.82h1.89l.1.04c-.65-.48-1.26-1.18-1.9-2.02-.97-1.29-1.16-1.83-1.43-2.89-.05-.21-.08-.41-.12-.62-.63,1.44-1.31,3.02-1.93,4.44,1.89,3.97,2.39,9.47,2.39,9.47-.32-.08-.64-.15-.96-.21.28,2.73.83,8.2.83,8.2-1.45.13-2.74-.71-3.11-2.48-.15-.72-.98-4.48-1.29-5.9-.78.04-1.51.12-2.21.2-.17,2.4-.48,7.91-.51,8.18-.53-.15-2.33-.81-2.39-3.12-.02-.9-.07-4.9-.07-4.9-.48-.03-.93-.1-1.33-.27l1.06-9.05c0-2.53.32-3,1.49-5.46,1.08-2.31,2.86-5.6,4.96-6.27,1.98-.63,4.93,1.01,5.13,2.8.16,1.42.27,3.15.53,4.43.14.67.16.68.34,1.07.84,1.81,1.98,3.4,3,4.92-.29.07-.56.09-.82.08h.03Z"/></svg>