<?xml version="1.0" encoding="UTF-8"?><svg id="Laag_1" xmlns="http://www.w3.org/2000/svg" xmlns:xlink="http://www.w3.org/1999/xlink" viewBox="0 0 64 64"><defs><style>.cls-1{fill:none;}.cls-2{clip-path:url(#clippath);}.cls-3{clip-path:url(#clippath-1);}</style><clipPath id="clippath"><rect class="cls-1" width="64" height="64"/></clipPath><clipPath id="clippath-1"><rect class="cls-1" width="64" height="64"/></clipPath></defs><g class="cls-2"><g class="cls-3"><path d="M51.79,43.62c-.83-.91-2.28-2.14-3.9-3.41l-1.95-19.52c-.66-9.3-6.64-15.69-13.93-15.69s-13.31,6.43-13.94,15.78l-1.94,19.42c-1.62,1.28-3.08,2.51-3.91,3.42-2.76,3.02-4.21,14.38-4.21,14.38H56s-1.45-11.36-4.21-14.38m-10.4-21c-2.27,2.69-6.66-.62-9.39-.62s-7.12,3.31-9.39,.62c-.41-.48-.27-1.22,.28-1.52,1.49-.82,4.77-2.3,9.11-2.3s7.62,1.47,9.11,2.3c.55,.3,.68,1.04,.28,1.52"/></g></g></svg>