<?xml version="1.0" encoding="UTF-8"?><svg id="Laag_1" xmlns="http://www.w3.org/2000/svg" xmlns:xlink="http://www.w3.org/1999/xlink" viewBox="0 0 64 64"><defs><style>.cls-1{fill:none;}.cls-2{clip-path:url(#clippath);}.cls-3{clip-path:url(#clippath-1);}</style><clipPath id="clippath"><rect class="cls-1" width="64" height="64"/></clipPath><clipPath id="clippath-1"><rect class="cls-1" width="64" height="64"/></clipPath></defs><g class="cls-2"><g class="cls-3"><path d="M20.11,24.05l3.34,5.57c.14,.23,.39,.38,.67,.38h0c.27,0,.53-.14,.67-.38l5.1-8.38c.21-.35,.12-.79-.2-1.03-.32-.24-.78-.19-1.05,.11l-4.58,5.13-2.75-2.39c-.29-.25-.72-.25-1.02,0-.3,.25-.37,.67-.17,1"/><path d="M29.68,31.21c-.33-.24-.78-.19-1.05,.11l-4.58,5.13-2.76-2.39c-.29-.25-.72-.26-1.02,0-.3,.25-.37,.67-.17,1l3.34,5.57c.14,.24,.4,.38,.67,.38h0c.27,0,.53-.14,.67-.38l5.1-8.38c.21-.35,.12-.79-.2-1.04"/><path d="M28.63,42.31l-4.58,5.13-2.75-2.39c-.29-.25-.72-.26-1.01,0-.3,.25-.37,.67-.17,1l3.34,5.57c.14,.23,.4,.38,.67,.38h0c.27,0,.53-.14,.67-.38l5.1-8.38c.21-.35,.12-.79-.2-1.03-.33-.24-.78-.19-1.05,.11"/><rect x="33" y="23" width="12" height="3"/><rect x="33" y="34" width="12" height="3"/><rect x="33" y="45" width="12" height="3"/><path d="M50,10h-5.92c-.02,1.27-.06,2.59-.38,4.09-.07,.32-.17,.62-.3,.91h3.6V55H17V15h3.6c-.13-.29-.23-.59-.3-.91-.32-1.5-.36-2.82-.38-4.09h-5.92c-1.1,0-2,.9-2,2V58c0,1.1,.9,2,2,2H50c1.1,0,2-.9,2-2V12c0-1.1-.9-2-2-2"/><path d="M25.38,16h13.25c1.45,0,2.71-.97,3-2.33,.34-1.62,.33-3.05,.35-4.51,0-.75-.53-1.4-1.27-1.53l-1.83-.3c-.94,1.71-1.99,2.71-2.28,2.94-.61,.49-.95,.54-1.14,.36,.01-.02,.02-.03,.03-.05,.93-.91,1.52-2.17,1.52-3.58,0-2.76-2.24-5-5-5s-5,2.24-5,5v.02l-3.7,.62c-.74,.12-1.28,.77-1.27,1.53,.02,1.47,0,2.9,.35,4.51,.28,1.36,1.55,2.33,3,2.33m6.62-11.26c1.24,0,2.25,1.01,2.25,2.26s-1.01,2.26-2.25,2.26-2.26-1.01-2.26-2.26,1.01-2.26,2.26-2.26"/></g></g></svg>