<?xml version="1.0" encoding="UTF-8"?><svg id="Laag_1" xmlns="http://www.w3.org/2000/svg" xmlns:xlink="http://www.w3.org/1999/xlink" viewBox="0 0 64 64"><defs><style>.cls-1{fill:none;}.cls-2{clip-path:url(#clippath);}.cls-3{clip-path:url(#clippath-1);}</style><clipPath id="clippath"><rect class="cls-1" width="64" height="64"/></clipPath><clipPath id="clippath-1"><rect class="cls-1" width="64" height="64"/></clipPath></defs><g class="cls-2"><g class="cls-3"><path d="M9.11,9.97l-2.52-.28c-.78-.09-1.21,.48-1.21,1.26s.44,1.35,1.21,1.26l2.52-.28c.5-.06,.75-.48,.75-.98s-.25-.93-.75-.98m7.17,.98c0,.51,.25,.93,.75,.98l2.52,.28c.78,.09,1.21-.48,1.21-1.26s-.44-1.35-1.21-1.26l-2.52,.28c-.5,.06-.75,.48-.75,.98m-1.61-2.78h0c.44,.25,.93,.25,1.23-.16l1.5-2.04c.46-.63,.19-1.29-.49-1.68-.68-.39-1.39-.3-1.7,.42l-1.02,2.32c-.2,.46,.04,.89,.48,1.14M48.43,27.56c-7.42-7.42-19.45-7.42-26.87,0-.09,.09-.17,.19-.26,.29,0,0-.02,0-.03-.01-.09-.03-.16-.16-.05-.42,.26-.61,.86-1.57,1.41-2.18,1.53-1.72,3.33-3.06,5.26-4.07-.66-.66-1.32-1.32-1.98-1.98-1.03-1.03-2.94-1.27-4.17-.42-1.38,.96-2.67,2.05-3.9,3.19l-.86-.86c-1.94-1.94-3.01-4.52-3.01-7.27v-3c0-.55-.45-1-1-1s-.97,.45-.97,1v3c0,3.28,1.28,6.36,3.6,8.68l.82,.83c-1.33,1.38-2.56,2.84-3.66,4.42-.85,1.24-.6,3.14,.43,4.17l3.61,3.6c-1.94,6.48-.36,13.79,4.76,18.9,7.42,7.42,19.45,7.42,26.87,0,7.42-7.42,7.42-19.45,0-26.87M11.94,7.04l-1.02-2.32c-.31-.72-1.02-.81-1.7-.42-.68,.39-.95,1.05-.49,1.68l1.5,2.04c.3,.41,.79,.41,1.23,.16,.44-.25,.68-.68,.48-1.14"/></g></g></svg>