<?xml version="1.0" encoding="UTF-8"?><svg id="Laag_1" xmlns="http://www.w3.org/2000/svg" viewBox="0 0 64 64"><defs><style>.cls-1{fill:none;}</style></defs><rect class="cls-1" width="64" height="64"/><path d="m59.66,32c0-8.3-4.69-15.52-11.56-19.15l-2.85,4.28c5.51,2.7,9.32,8.34,9.32,14.87,0,5.56-2.76,10.46-6.98,13.47l-2.74-2.74c3.54-2.27,5.89-6.22,5.89-10.73,0-5.21-3.14-9.69-7.63-11.66l-2.9,4.35c3.14.95,5.43,3.87,5.43,7.32,0,3.11-1.88,5.78-4.55,6.97l-6.09-6.09V15c0-1.61-1.81-2.56-3.13-1.65l-9.8,6.59L7.76,5.64l-2.12,2.12,13.89,13.89-.53.35v8.99s-.25.11-.36-.22c-.11-.33-2.42-8.77-2.42-8.77h-4.22c-6.17,0-8.01,4.7-8,10,0,5.3,1.84,10,8,10h7l12.87,8.65c1.33.91,3.13-.04,3.13-1.65v-11.88l11.24,11.24,1.86,2.79c.2-.11.39-.23.59-.34l7.55,7.55,2.12-2.12-7.13-7.13c5.12-3.97,8.42-10.16,8.42-17.12Z"/></svg>