<?xml version="1.0" encoding="UTF-8"?><svg id="Laag_1" xmlns="http://www.w3.org/2000/svg" xmlns:xlink="http://www.w3.org/1999/xlink" viewBox="0 0 24 24"><defs><style>.cls-1{fill:none;}.cls-2{clip-path:url(#clippath);}.cls-3{clip-path:url(#clippath-1);}</style><clipPath id="clippath"><rect class="cls-1" width="24" height="24"/></clipPath><clipPath id="clippath-1"><rect class="cls-1" width="24" height="24"/></clipPath></defs><g class="cls-2"><g class="cls-3"><path d="m20.57,6.15l-7.17,7.17c-.3.3-.66.53-1.06.68l-3.01,1.31c-.25.11-.52.17-.79.17-.53,0-1.03-.21-1.4-.59-.58-.58-.74-1.45-.42-2.2l1.31-3.02c.14-.39.38-.76.68-1.05l5.55-5.55c-1.51-.06-2.82-.06-3.25-.06-.86,0-5.15,0-7.72.44-.89.15-1.57.84-1.72,1.74-.63,3.84-.53,8.41,0,11.65.15.9.83,1.59,1.72,1.74,2.32.39,6.04.43,7.37.44l4.53,2.92c.25.16.58.09.74-.17.07-.12.1-.25.07-.38l-.03-.09h0s-.68-2.38-.68-2.38c1.2-.06,2.44-.17,3.43-.33.89-.15,1.57-.84,1.72-1.74.57-3.47.54-7.53.14-10.68"/><path d="m9.61,10.28l-1.33,3.07c-.11.24.14.48.38.38l3.07-1.33c.18-.06.34-.16.48-.29L20.48,3.83c.64-.64.2-1.23-.44-1.87-.63-.63-1.23-1.07-1.87-.43l-8.28,8.28c-.13.13-.23.3-.29.48"/></g></g></svg>