<?xml version="1.0" encoding="UTF-8"?><svg id="Laag_1" xmlns="http://www.w3.org/2000/svg" xmlns:xlink="http://www.w3.org/1999/xlink" viewBox="0 0 64 64"><defs><style>.cls-1{fill:none;}.cls-2{clip-path:url(#clippath);}.cls-3{clip-path:url(#clippath-1);}</style><clipPath id="clippath"><rect class="cls-1" width="64" height="64"/></clipPath><clipPath id="clippath-1"><rect class="cls-1" width="64" height="64"/></clipPath></defs><g class="cls-2"><g class="cls-3"><path d="M59.56,11.01L19.29,5.02l-.29-.02c-1.42,0-2.6,.73-3.57,1.94h0l-.09,.11c-.06,.07-.11,.14-.16,.22L7,18.16V5c0-1-1.12-1-2.5-1s-2.5,0-2.5,1v59H7V25.44l8.83,10.11h0c.89,.91,1.94,1.45,3.16,1.45h.17l40.42-7.01c3.07-.31,3.41-6.61,3.41-9.36s-.34-9.34-3.44-9.62M7.95,22.05l4.36-5.96c-.2,1.61-.26,3.27-.26,4.91,0,2.07,.11,4.17,.44,6.15l-4.54-5.1Zm18.01,9.71l-7,1.21c-.88-.44-3.07-4.49-3.07-11.98s2.23-11.62,3.06-11.99l7.1,1.06c-1.24,2.36-2.01,6.37-2.01,10.93s.73,8.38,1.92,10.76m17.24-2.99l-8.85,1.54c-.87-2.38-1.45-5.66-1.45-9.3,0-3.85,.65-7.28,1.6-9.68l8.95,1.33c-.88,1.92-1.45,4.95-1.45,8.35,0,3.08,.47,5.84,1.21,7.76m15.08-2.62l-6.39,1.11c-.6-1.58-1-3.82-1-6.31,0-2.87,.53-5.41,1.3-7l6.08,.9c.34,1.08,.73,3.52,.73,5.77s-.38,4.51-.71,5.52"/></g></g></svg>