<?xml version="1.0" encoding="UTF-8"?><svg id="Laag_1" xmlns="http://www.w3.org/2000/svg" xmlns:xlink="http://www.w3.org/1999/xlink" viewBox="0 0 64 64"><defs><style>.cls-1{fill:none;}.cls-2{clip-path:url(#clippath);}.cls-3{clip-path:url(#clippath-1);}</style><clipPath id="clippath"><rect class="cls-1" width="64" height="64"/></clipPath><clipPath id="clippath-1"><rect class="cls-1" width="64" height="64"/></clipPath></defs><g class="cls-2"><g class="cls-3"><path d="M30.19,38.34c-2.57,1-3.85,3.9-2.85,6.47,1,2.57,3.9,3.85,6.47,2.85,2.57-1,3.85-3.9,2.85-6.47-1-2.57-3.9-3.85-6.47-2.85m3.86,3.86c.44,1.13-.12,2.41-1.25,2.85-1.13,.44-2.41-.12-2.85-1.25-.44-1.13,.12-2.41,1.25-2.85,1.13-.44,2.41,.12,2.85,1.25"/><path d="M27.54,26.17l-2.38-12.23s-10.69,4.16-10.68,4.16l6.94,10.46,6.12-2.38Z"/><path d="M3.56,20.63l.2-.08,3.38-1.39,4.41,6.53h0l-.64,16.21c.36-.06,.72-.09,1.09-.09,.9,0,1.76,.17,2.56,.48l.33-8.36-1.88-5.6c-.05-.23,.09-.28,.14-.28l5.71,8.44c.97,1.44,2.56,2.25,4.2,2.25,.62,0,1.25-.11,1.86-.35l6.28-2.44c.94-.37,1.41-1.43,1.04-2.37-.37-.94-1.43-1.41-2.37-1.04l-6.28,2.44c-.62,.24-1.32,.03-1.7-.54L9.37,15.79c-.56-.82-1.66-1.07-2.52-.55l-4.61,2.81c-.6,.37-.86,1.13-.58,1.8,.31,.74,1.16,1.08,1.9,.77"/><polygon points="52 33 52 40 43 40 43 47 2 59 61 59 61 33 52 33"/><path d="M7,49c0,2.76,2.24,5,5,5s5-2.24,5-5-2.24-5-5-5-5,2.24-5,5m7.2,0c0,1.22-.99,2.2-2.2,2.2s-2.2-.99-2.2-2.2,.99-2.2,2.2-2.2,2.2,.99,2.2,2.2"/></g></g></svg>