<?xml version="1.0" encoding="UTF-8"?><svg id="Laag_1" xmlns="http://www.w3.org/2000/svg" xmlns:xlink="http://www.w3.org/1999/xlink" viewBox="0 0 64 64"><defs><style>.cls-1{fill:none;}.cls-2{clip-path:url(#clippath);}.cls-3{clip-path:url(#clippath-1);}</style><clipPath id="clippath"><rect class="cls-1" width="64" height="64"/></clipPath><clipPath id="clippath-1"><rect class="cls-1" width="64" height="64"/></clipPath></defs><g class="cls-2"><g class="cls-3"><path d="M39.55,13.41l1.41-5.64-6.43-1.28c-.37-.12-.32-.36-.29-.42h7.15l-2.03-4.06h-5.08l-2.03,4.06,1.83,7.33c-6.7,1.04-12.17,5.84-14.2,12.17,2.9-1.06,4.77-1.1,6.1-1.2,2.23-3.65,6.25-6.1,10.83-6.1,7,0,12.7,5.7,12.7,12.7s-5.79,12.7-12.7,12.7c-6.04,0-11.1-4.25-12.38-9.91-1.71,.36-3.22,1.05-4.64,2.25h-.01c2.18,7.36,8.99,12.74,17.04,12.74,9.7,0,17.78-7.83,17.78-17.78,0-8.87-6.54-16.22-15.04-17.55"/><path d="M26.47,56.83c-6.97,0-12.64-5.67-12.64-12.63s5.67-12.64,12.64-12.64c6,0,11.03,4.2,12.32,9.82,1.78-.35,3.4-1.12,4.76-2.21-2.17-7.38-9.01-12.78-17.08-12.78-9.82,0-17.8,7.99-17.8,17.8s7.99,17.8,17.8,17.8c7.93,0,14.67-5.21,16.96-12.39-1.94,.69-4.01,1.1-6.17,1.16-2.22,3.64-6.23,6.07-10.79,6.07"/></g></g></svg>