<?xml version="1.0" encoding="UTF-8"?><svg id="Laag_1" xmlns="http://www.w3.org/2000/svg" xmlns:xlink="http://www.w3.org/1999/xlink" viewBox="0 0 64 64"><defs><style>.cls-1{fill:none;}.cls-2{clip-path:url(#clippath);}.cls-3{clip-path:url(#clippath-1);}</style><clipPath id="clippath"><rect class="cls-1" width="64" height="64"/></clipPath><clipPath id="clippath-1"><rect class="cls-1" width="64" height="64"/></clipPath></defs><g class="cls-2"><g class="cls-3"><path d="M53.72,24.36l-18.82-14.86c-1.26-1-3.05-.96-4.27,.09-1.22,1.05-1.52,2.81-.73,4.21l4.7,8.2h-13.61c-6.63,0-12,5.37-12,12v17.28c0,2.72,2.35,3.53,5,3.53,2.65,0,5-.81,5-3.53v-17.28c0-1.1,.9-2,2-2h13.61l-4.7,8.2c-.8,1.4-.49,3.16,.73,4.21,1.22,1.05,3.01,1.09,4.27,.09l18.82-14.86c.81-.64,1.28-1.61,1.28-2.63s-.47-2-1.28-2.64"/></g></g></svg>