<?xml version="1.0" encoding="UTF-8"?><svg id="Laag_1" xmlns="http://www.w3.org/2000/svg" xmlns:xlink="http://www.w3.org/1999/xlink" viewBox="0 0 64 64"><defs><style>.cls-1{fill:none;}.cls-2{clip-path:url(#clippath);}.cls-3{clip-path:url(#clippath-1);}</style><clipPath id="clippath"><rect class="cls-1" width="64" height="64"/></clipPath><clipPath id="clippath-1"><rect class="cls-1" width="64" height="64"/></clipPath></defs><g class="cls-2"><g class="cls-3"><path d="M27.84,25.47l2.76,2.47c.85-1.35,2.1-2.43,3.61-3.04,.33-1.16,.96-2.2,1.8-3.06v-4.84h5v2.53c.25-.02,.5-.06,.76-.06,1.52,0,2.98,.42,4.24,1.17V4c0-.55-.45-1-1-1H16c-.55,0-1,.45-1,1v29.67l9.19-8.22c1-.93,2.61-.93,3.64,.03m8.16-16.47h5v5h-5v-5Zm-8,0h5v5h-5v-5Zm0,8h5v5h-5v-5Zm-8-8h5v5h-5v-5Zm0,8h5v5h-5v-5Z"/><path d="M58.4,34.7c0-3.06-1.83-5.62-4.29-6.33-.18-3.27-2.81-5.86-6.03-5.86-.8,0-1.56,.16-2.26,.45-1.05-.92-2.48-1.5-4.06-1.5-3.1,0-5.63,2.21-5.82,4.99-1.68,.34-3.06,1.41-3.85,2.83l12.71,11.37c.69,.65,1.09,1.56,1.09,2.5v1.05c0,1.49-1.21,2.71-2.7,2.71h-1.2v13.08h8.21c-.02-.22-1.18-7.37-1.27-11.62,.54,.17,1.11,.26,1.7,.26,3.13,0,5.66-2.53,5.66-5.66,0-.97-.24-1.88-.67-2.67,1.65-1.14,2.76-3.22,2.76-5.6"/><path d="M43.9,44.21v-1.05c0-.4-.16-.77-.45-1.04l-16.97-15.18c-.27-.25-.68-.25-.95,0l-16.98,15.18c-.29,.27-.45,.65-.45,1.04v1.05c0,.39,.31,.71,.7,.71h3.2v15.08h28v-15.08h3.2c.39,0,.7-.32,.7-.71m-7.01,4.97c-1.09,1.05-3.58,2.26-6.5,2.52,2.02,1.44,2.9,2.94,3.11,3.34,.03,.05,0,.11-.06,.11-1.37,.09-3.99-.48-6.48-2.18l.52,4.43c.02,.45-.27,.84-.68,.92-.66,.13-1.12,.08-1.5,.02-.41-.06-.72-.44-.72-.89,.11-2.93,.32-5.61,.53-8.15,0,0-.1-.02-.23,.18-.11,.18-.77,1.84-1.13,4.25l-.1,.05c-2.61,1.4-4.56,1.37-5.07,1.35-.06,0-.09-.06-.07-.11,.21-.4,1.09-1.9,3.11-3.34-3.52-.31-5.79-1.84-6.5-2.52-.04-.04-.03-.1,.02-.12,1.2-.53,3.59-.85,6.18-.32-2.97-2.94-4.53-6.52-4.74-8.58,0-.05,.04-.09,.1-.08,1.52,.43,4.32,2.04,6.69,4.92-.01-4.92,1.75-8.3,2.58-9.4,.03-.04,.09-.04,.12,0,1.07,1.42,2.59,4.92,2.58,9.4,2.67-3.24,5.56-4.59,6.69-4.92,.05-.01,.1,.03,.1,.08-.21,2.08-1.79,5.65-4.74,8.58,2.69-.55,5.05-.18,6.18,.32,.05,.02,.06,.09,.02,.12"/></g></g></svg>