<?xml version="1.0" encoding="UTF-8"?><svg id="Laag_1" xmlns="http://www.w3.org/2000/svg" xmlns:xlink="http://www.w3.org/1999/xlink" viewBox="0 0 64 64"><defs><style>.cls-1{fill:none;}.cls-2{clip-path:url(#clippath);}.cls-3{fill:#fff;}.cls-4{clip-path:url(#clippath-1);}</style><clipPath id="clippath"><rect class="cls-1" width="64" height="64"/></clipPath><clipPath id="clippath-1"><rect class="cls-1" width="64" height="64"/></clipPath></defs><g class="cls-2"><rect width="64" height="64"/><g class="cls-4"><path class="cls-3" d="m63.44,40.83c-.19-1.17-1.09-2.07-2.26-2.26-3.39-.57-9.04-.57-10.17-.57s-6.78,0-10.17.57c-1.17.19-2.06,1.09-2.26,2.26-.57,3.39-.57,9.04-.57,10.17s0,6.78.57,10.17c.19,1.17,1.09,2.07,2.26,2.26,3.39.56,9.05.56,10.17.56s6.78,0,10.17-.56c1.17-.2,2.07-1.09,2.26-2.26.56-3.39.56-9.04.56-10.17,0-3.39,0-6.78-.56-10.17m-20.58,7.45c0-2.9,1.84-3.93,3.42-3.93,2.09,0,3.29,1.37,3.29,3.77,0,2.62-1.78,3.81-3.44,3.81-1.49,0-3.27-.63-3.27-3.65m6.43,9.73l-1.84-.73.05-.14,5.18-13.14,1.84.73-.05.14-5.18,13.14Zm6.4-.45c-1.49,0-3.27-.63-3.27-3.65s1.84-3.92,3.42-3.92c2.09,0,3.29,1.37,3.29,3.77,0,2.63-1.73,3.81-3.44,3.81m-7.94-22.51l4.31-4.31-1.79-1.79,1.17-1.17,1.79,1.79.36-.36,6.28-6.28c1.17-1.17,1.17-3.07,0-4.24l-15.55-15.55c-1.17-1.17-3.07-1.17-4.24,0l-6.28,6.28-.36.36,1.79,1.79-1.17,1.17-1.79-1.79L6.13,37.07c-1.17,1.17-1.17,3.07,0,4.24l15.56,15.55c1.17,1.17,3.07,1.17,4.24,0l9.11-9.11c.06-2.58.22-5.34.56-7.42.4-2.42,2.3-4.32,4.73-4.73,2.08-.35,4.85-.5,7.42-.57m-15.69,8.08c.03.28-.12.55-.37.67l-.52.12c-.33.14-.71,0-.87-.33l-2.5-6.55-4.14,3.52.31,2.22c.02.25-.1.5-.31.63l-.21.13c-.35.23-.82.08-.99-.31l-1.19-2.2-2.2-1.19c-.38-.16-.53-.63-.31-.99l.13-.21c.14-.21.38-.33.63-.31l2.22.31,3.52-4.14-6.56-2.5c-.32-.16-.46-.54-.33-.87l.12-.52c.12-.25.39-.4.67-.37l9.28.74s2.99-2.84,5.02-2.97c.46-.03.85.36.82.82-.13,2.03-2.97,5.02-2.97,5.02l.75,9.27Zm15.69-19.03l2.21,2.21-1.17,1.17-2.21-2.21,1.17-1.17Zm-3.69-3.69l2.21,2.21-1.17,1.17-2.21-2.21,1.17-1.17Zm-6.33-3.99l-2.21-2.21,1.17-1.17,2.21,2.21-1.17,1.17Zm2.64.31l2.21,2.21-1.17,1.17-2.21-2.21,1.17-1.17Zm5.84,29.58c-.86,0-1.04.98-1.04,1.8,0,1.63.52,1.85,1.02,1.85.86,0,1.04-.89,1.04-1.64,0-1.8-.58-2.01-1.02-2.01m9.57,5.62c-.85,0-1.03.98-1.03,1.8,0,1.63.51,1.85,1.01,1.85.71,0,1.06-.55,1.06-1.64,0-1.8-.6-2.01-1.04-2.01"/></g></g></svg>