<?xml version="1.0" encoding="UTF-8"?>
<svg id="Zwart" xmlns="http://www.w3.org/2000/svg" viewBox="0 0 64 64">
  <path d="M20.5,9.6c1.06,0,2.1-1.04,2.79-1.14.92-.13,1.06-.13,1.47-.81.14-.24.32-1.03.46-1.58.27-1.04,1.33-1.42,1.16-1.97-.35-1.12-1.7-.45-1.78-1-.12-.83,1.41-1.01.89-1.58-.52-.57-1.98-.1-2.74-.3-.51-.13-2.31-1.25-2.74-.9-1.12.93-2.11.83-2.62,1.39-.5.54-.3,1.59-.73,2.32-.46.77-1.13,1.28-1.07,3.6.04,1.53,2.6,1.96,4.92,1.98Z"/>
  <path d="M42.08,24.33c2.56.39,5.8-.77,6.48-2.37.68-1.6,1.21-2.95-.29-4.5-1.23-1.27-2.8-2.85-4.35-3.09-1.54-.24-1.64.73-3.05-.82-1.49-1.65-.92-1.37-.51-2.26.41-.89-.31-1.56-1.33-1.61-1.02-.05-.97-2.22-2.71-2.03-1.63.18-.34,3.67-.87,4.88-.53,1.21-1.01.95-.39,3.05,1.02,3.38,2.27,2.17,3.53,4.45,1.26,2.28.92,3.92,3.48,4.3Z"/>
  <path d="M63.44,40.83c-.2-1.17-1.09-2.06-2.26-2.26-3.39-.57-9.04-.57-10.17-.57s-6.78,0-10.17.57c-1.17.2-2.07,1.09-2.26,2.26-.57,3.39-.57,9.04-.57,10.17s0,6.78.57,10.17c.2,1.17,1.09,2.06,2.26,2.26,3.39.57,9.04.57,10.17.57s6.78,0,10.17-.57c1.17-.2,2.07-1.09,2.26-2.26.56-3.39.56-9.04.56-10.17,0-3.39,0-6.78-.56-10.17ZM47.33,53.52c.79,0,1.2-.03,1.99-.17l.29-.05v1.88l-.2.04c-.84.17-1.19.21-2.19.21-3.08,0-4.99-1.66-4.99-4.34,0-2.95,2.05-4.86,5.23-4.86.71,0,1.21.05,1.93.17l.23.04-.18,1.92-.26-.04c-.74-.12-1.09-.13-1.78-.13-1.29,0-2.66.72-2.66,2.74,0,1.9,1.39,2.58,2.59,2.58ZM58.89,55.35h-3.33l-2.37-6.04v6.04h-2.18v-9.02h3.32l2.39,6.04v-6.04h2.18v9.02Z"/>
  <path d="M32.23,43.78c.53-.96-.06-2.15-1.16-2.22-2.11-.14-4.9-.55-6.72-1.71-3.27-2.08-6.44-3.97-6.82-5.4-.38-1.43-2.01-.26-2.93.31-.92.57-1.3,3.44-1.3,3.44-.47,3.31.72,3.75,4.2,4.08,4.32.41,5.62,1.93,7.23,4.46,2.16,3.4-1.08,3.83-.51,5.59.57,1.76.86,7.17,3.84,7.65,2.98.48,1.91-4.1,1.4-6.18-.07-.28-.56-.61-.59-.78-.1-.78.29-1.65.82-1.6.21.02.85,1.19,1.11,1.08,1.06-.45,3-1.97,1.14-5.59-.54-1.04-.23-2.17.29-3.12Z"/>
  <path d="M23.15,46.95c-.59-.14-1.83.14-2.02.82-.18.64-.16.78,1.05,1.14,1.21.36,1.97-.53,1.79-1.2,0,0-.22-.63-.81-.77Z"/>
</svg>