<?xml version="1.0" encoding="UTF-8"?><svg id="Laag_1" xmlns="http://www.w3.org/2000/svg" xmlns:xlink="http://www.w3.org/1999/xlink" viewBox="0 0 64 64"><defs><style>.cls-1{fill:none;}.cls-2{clip-path:url(#clippath);}.cls-3{clip-path:url(#clippath-1);}</style><clipPath id="clippath"><rect class="cls-1" width="64" height="64"/></clipPath><clipPath id="clippath-1"><rect class="cls-1" width="64" height="64"/></clipPath></defs><g class="cls-2"><g class="cls-3"><path d="M10,61h6l1.02-5.11c-1.9-.37-3.57-.89-5.03-1.53l-1.99,6.65Z"/><path d="M28.87,45.51c-1.46-2.51-.9-5.67,1.33-7.52,2.23-1.85,5.45-1.82,7.64,.08l4.89,4.23c.2-.98,.33-2.03,.37-3.18l.9-23c.04-1.1-.19-2.19-.68-3.16-1.47-2.9-4.75-9.16-5.99-9.87-1.58-.89-8.19-1.11-13.33-1.11s-11.75,.22-13.33,1.11c-1.25,.7-4.52,6.97-5.99,9.87-.49,.97-.72,2.05-.68,3.16l.89,23c.51,13.07,11.69,14.88,19.1,14.88,2.76,0,6.04-.25,9.1-1.24l-4.23-7.24ZM24,6.85c1.74,0,3.15,1.41,3.15,3.15s-1.41,3.15-3.15,3.15-3.15-1.41-3.15-3.15,1.41-3.15,3.15-3.15M15,43.15c-1.74,0-3.15-1.41-3.15-3.15s1.41-3.15,3.15-3.15,3.15,1.41,3.15,3.15-1.41,3.15-3.15,3.15m-1.26-14.15c-.44,0-.83-.29-.96-.71l-3.38-11c-.2-.64,.28-1.29,.95-1.29h27.29c.67,0,1.15,.65,.95,1.29l-3.38,11c-.13,.42-.52,.71-.96,.71H13.74Z"/><path d="M30.98,55.89l1.02,5.11h5.91l-3.52-6.02c-1.05,.36-2.18,.67-3.42,.91"/><path d="M60.6,32.02c-1.12-.83-2.69-.66-3.62,.38l-13.34,14.93-7.89-6.83c-1-.87-2.48-.88-3.5-.04-1.02,.85-1.28,2.31-.61,3.45l9.9,16.96c.48,.83,1.37,1.34,2.33,1.34h.01c.95,0,1.83-.5,2.32-1.32l15.12-25.3c.72-1.2,.41-2.74-.72-3.57"/></g></g></svg>