<?xml version="1.0" encoding="UTF-8"?><svg id="Laag_1" xmlns="http://www.w3.org/2000/svg" xmlns:xlink="http://www.w3.org/1999/xlink" viewBox="0 0 64 64"><defs><style>.cls-1{fill:none;}.cls-2{clip-path:url(#clippath);}.cls-3{clip-path:url(#clippath-1);}</style><clipPath id="clippath"><rect class="cls-1" width="64" height="64"/></clipPath><clipPath id="clippath-1"><rect class="cls-1" width="64" height="64"/></clipPath></defs><g class="cls-2"><g class="cls-3"><path d="M55.89,29.92c-1.61-.8-6.03-3.02-8.64-4.18,1.45-8.02,.45-8.96-.19-9.53-.21-.19-.46-.33-.74-.42-1.33-.42-13-4.11-16.05-4.6-.73-.11-1.46,.18-1.91,.76-.43,.56-.83,1.09-1.2,1.6-5.41-2.41-10.47-1.29-10.7-1.24-.66,.15-1.2,.63-1.43,1.27-1.39,3.81-1.18,7.86-.32,10.21-1.83,2.35-6.69,7.79-7.62,10.92-.18,.62-.06,1.29,.34,1.8,2.72,3.5,12.5,15,13.69,16.09,.2,.18,.43,.32,.68,.41,1.99,.71,8.57,2.99,11.12,2.99,.06,0,.11,0,.17,0,.56-.02,1.08-.28,1.44-.71,0,0,3.67-4.35,5.2-6.17,8.08-.51,9.03-1.18,9.44-1.47,.24-.16,.43-.38,.58-.62,2.17-3.69,7.04-12.56,7.25-15.15,.07-.81-.37-1.59-1.1-1.95M18.44,16.07c1.35-.12,3.77-.13,6.35,.83-1.23,1.84-1.97,3.16-2.41,4.13l-4.27-.31c-.14-1.23-.13-2.87,.33-4.65m28.23,28.29c-1.37,.29-5,.63-8.04,.81-.55,.03-1.06,.29-1.41,.71-.62,.73-3.71,4.4-5.09,6.04-1.74-.3-5.41-1.42-8.54-2.52-1.35-1.52-7.44-8.19-12.31-14.45,1.19-2.59,5.25-7.04,7.3-9.6l16.4-3.02s.14-.35-.56-.42l-7.68-.56c.97-1.62,2.52-3.89,4.05-5.96,3.1,.74,9.8,2.77,13.39,3.88,0,1.13-.3,3.22-.65,5.31-1.15,.48-9.75,4.11-11.99,5.85-.34,.26-.59,.62-.7,1.04l-1.58,5.57h0l-9.83-4.19s-.31,.21,.24,.66c0,0,5.28,4.29,9.19,7.03,2.58,1.81,3.46,.11,3.58-.16h.03l2.02-7.12c1.81-1.12,6.36-3.18,9.61-4.57,.01,0,4.77,2.23,8.51,4.08-.99,2.4-3.44,7.31-5.94,11.61"/></g></g></svg>