<?xml version="1.0" encoding="UTF-8"?><svg id="Laag_1" xmlns="http://www.w3.org/2000/svg" xmlns:xlink="http://www.w3.org/1999/xlink" viewBox="0 0 64 64"><defs><style>.cls-1{fill:none;}.cls-2{clip-path:url(#clippath);}.cls-3{clip-path:url(#clippath-1);}</style><clipPath id="clippath"><rect class="cls-1" width="64" height="64"/></clipPath><clipPath id="clippath-1"><rect class="cls-1" width="64" height="64"/></clipPath></defs><g class="cls-2"><g class="cls-3"><path d="M16.17,40.88c-1.33-.27-4.11-.27-5.44,0-2.21,.44-3.87,2.49-3.87,4.71h13.17c0-2.22-1.66-4.26-3.86-4.71"/><path d="M27.79,28.06s-.17-2.8-3.06-2.87c-2.89-.07-4.15-.67-5.98-1.86-2.72-1.77-4.28-5.48-7.19-6.34-2.6-.77-5.64,.85-5.63,4.49,.02,4.19,.33,10.3,.65,13.75,.21,2.24,2.17,4.05,5.29,4.11,2.27,.04,9.79,0,9.79,0,0,0,1.89,7.5,2.85,11.58,.96,4.08,4.14,3.96,5.05,3.84,0,0-1.56-15.29-2.03-17.52-.47-2.17-.54-3.94-3.36-4.23-2.03-.2-5.08-.29-7.71-.2-.26-2.5-.6-5.36-.87-7.56,.58,.54,1.33,1.12,2.34,1.66,1.29,.69,2.99,1.01,4.61,1.16h5.18s.07,0,.07,0"/><path d="M49.74,44.07c-.88,0-1.59,.7-1.59,1.56s.71,1.56,1.59,1.56,1.59-.7,1.59-1.56-.71-1.56-1.59-1.56"/><path d="M41.57,44.07c-.88,0-1.59,.7-1.59,1.56s.71,1.56,1.59,1.56,1.59-.7,1.59-1.56-.71-1.56-1.59-1.56"/><path d="M58.47,29.08h-14.5l4.97-9.9c.25-.49,.05-1.09-.44-1.34l-.96-.48c-.49-.25-1.09-.05-1.34,.45l-4.11,8.2h-10.75c-.55,0-1,.45-1,1v1.05c0,.57,.46,1.03,1.02,1.03h-9.23v2.08c0,.55,.45,1,1,1h7.72v26.52c0,1.1,.9,2,2,2h25.62c1.1,0,2-.9,2-2V31.08c0-1.1-.9-2-2-2m-11.78,25.92v-3.62h-2.25v3.6c-4.77-.59-8.47-4.57-8.47-9.4s3.69-8.81,8.47-9.4v3.07h2.42v-3.07c4.77,.59,8.47,4.57,8.47,9.4s-3.79,8.92-8.65,9.43"/><path d="M10.94,15.12c2.56,.42,4.33-1.16,4.73-3.8,.46-3.01-.84-4.88-3.34-5.29-2.63-.43-4.34,1.24-4.75,3.95-.44,2.86,.8,4.72,3.36,5.14"/></g></g></svg>