<?xml version="1.0" encoding="UTF-8"?><svg id="Laag_1" xmlns="http://www.w3.org/2000/svg" xmlns:xlink="http://www.w3.org/1999/xlink" viewBox="0 0 64 64"><defs><style>.cls-1{fill:none;}.cls-2{clip-path:url(#clippath);}.cls-3{clip-path:url(#clippath-1);}</style><clipPath id="clippath"><rect class="cls-1" width="64" height="64"/></clipPath><clipPath id="clippath-1"><rect class="cls-1" width="64" height="64"/></clipPath></defs><g class="cls-2"><g class="cls-3"><path d="M52.61,44.11c-2.27-2.47-8.97-4.66-11.72-5.47-.12-.96-.26-2.06-.4-3.17,1.9-2.23,3.06-4.54,3.43-6.91,1.33-1.22,2.08-3.16,2.08-5.55,0-.87,0-3.39-1.94-4.64v-1.09c0-7.06-6.13-11.27-12.06-11.27s-12.06,4.22-12.06,11.27v1.09c-1.94,1.25-1.94,3.77-1.94,4.64,0,2.39,.75,4.33,2.07,5.55,.36,2.4,1.51,4.69,3.44,6.93-.14,1.11-.28,2.2-.4,3.16-2.75,.82-9.45,3-11.72,5.47-2.87,3.12-4.39,14.89-4.39,14.89H57s-1.51-11.77-4.39-14.89m-.52,5.89h-16.17c.92-.83,1.91-1.85,2.78-3h12.26c.38,.74,.76,1.78,1.13,3m-11.07-8.19c1.93,.6,4.06,1.38,5.86,2.19h-6.44c.29-.71,.49-1.44,.59-2.19m-18.08-14.99c-1.62-.5-1.94-2.55-1.94-3.82s.22-1.96,.67-2.17c.65-.31,1.17,.24,1.27,.27v-3.82c0-5.73,5.18-8.27,9.06-8.27s9.06,2.55,9.06,8.27v3.82c.1-.03,.62-.57,1.27-.27,.45,.21,.67,.9,.67,2.17s-.32,3.31-1.94,3.82c0,3.82-2.68,6.92-5.34,9.18-.78,.66-2.25,1-3.72,1-1.06,0-2.12-.18-2.93-.52,.61,.93,1.66,2.07,3.58,2.59,2.47,.65,4.41-.46,5.14-.97,0,0,.2,1.62,.28,2.23,.43,3.48-3.69,7.28-6.08,9.03-2.39-1.75-6.51-5.55-6.08-9.03,.08-.61,.58-4.6,.74-5.82-2.03-2.06-3.72-4.61-3.72-7.68m.04,14.99c.1,.75,.3,1.48,.59,2.19h-6.44c1.79-.81,3.93-1.58,5.86-2.19m-9.94,5.19h12.27c.87,1.15,1.85,2.17,2.78,3H11.91c.37-1.22,.75-2.26,1.13-3m24.96,9H10.51c.18-1.01,.39-2.03,.62-3h26.88v3Zm10-3h4.88c.22,.97,.43,1.99,.62,3h-5.49v-3Z"/></g></g></svg>