<?xml version="1.0" encoding="UTF-8"?><svg id="Laag_1" xmlns="http://www.w3.org/2000/svg" xmlns:xlink="http://www.w3.org/1999/xlink" viewBox="0 0 64 64"><defs><style>.cls-1{fill:none;}.cls-2{clip-path:url(#clippath);}.cls-3{clip-path:url(#clippath-1);}</style><clipPath id="clippath"><rect class="cls-1" width="64" height="64"/></clipPath><clipPath id="clippath-1"><rect class="cls-1" width="64" height="64"/></clipPath></defs><g class="cls-2"><g class="cls-3"><path d="M46,10c-.63-5.37-6.27-8-14-8s-13.37,2.63-14,8c-.01,.11-4,38.46-4,38.57,.05,7.09,7.49,12.43,18,12.43s17.95-5.34,18-12.43c0-.11-3.99-38.46-4-38.57m-14,47.05c-8.05,0-14.05-3.3-14.05-7.5s6-7.6,14.05-7.6,14.05,3.4,14.05,7.6-6,7.5-14.05,7.5"/><path d="M31.32,44.27c-1.14,1.07-3.29,3.84-3.29,7.12,0,2.13,1.08,3.11,2.11,3.57-.08-.24-.13-.52-.13-.86,0-2.46,1.99-4.1,1.99-4.1,0,0,1.99,1.64,1.99,4.1,0,.34-.05,.62-.13,.86,1.03-.46,2.11-1.45,2.11-3.57,0-3.29-2.15-6.05-3.29-7.12-.39-.36-.98-.36-1.37,0"/></g></g></svg>