<?xml version="1.0" encoding="UTF-8"?><svg id="Laag_1" xmlns="http://www.w3.org/2000/svg" xmlns:xlink="http://www.w3.org/1999/xlink" viewBox="0 0 64 64"><defs><style>.cls-1{fill:none;}.cls-2{clip-path:url(#clippath);}.cls-3{clip-path:url(#clippath-1);}</style><clipPath id="clippath"><rect class="cls-1" width="64" height="64"/></clipPath><clipPath id="clippath-1"><rect class="cls-1" width="64" height="64"/></clipPath></defs><g class="cls-2"><g class="cls-3"><path d="M61.51,36.21c-.2-.93-.32-1.29-1.38-2.76-1.68-2.34-7.38-8.68-12.86-11.68-2.13-1.16-4.29-.72-5.79,1.19-.88,1.12-1.84,2.11-2.87,2.98,.81-3.18,1.18-6.68,1.06-10.39-.08-2.36-1.74-4.27-3.93-4.8l-.02-1.1,1.17-2.36-1.75,.19-1.65-.71-.89,.61-1.46,.1,1.78,2.31,.02,1.06c-2.12,.69-3.63,2.7-3.55,5.04,.29,8.47-2.68,13.47-5.56,15.32-2.03,1.3-4.28,1.35-6.71,.14s-3.74-3.04-3.92-5.44c-.25-3.41,1.95-8.79,8.89-13.65,1.92-1.34,2.61-3.75,1.9-5.86l.86-.62,2.92,.03-.8-1.23-.05-1.09-1.56-.89-.9-1.51-1.18,2.35-.88,.64c-.3-.25-.62-.46-.96-.63-1.63-.81-3.65-.73-5.25,.39C7.3,10.07,2.35,18.61,2.95,26.68c.45,6.01,3.94,11.07,9.59,13.88,1.92,.96,3.9,1.55,5.88,1.8-.26,.42-.49,.86-.68,1.31-.51,1.27-.59,2.68-.64,3.88-.15,3-.06,6.76,.25,8.91,.28,2,1.76,3.55,3.67,4,.98,.23,1.6,.11,3.05-.05,14-1.59,24.59-3.82,33.25-7,1.31-.48,3.75-1.38,4.31-4.59,.4-2.29,.64-9.2-.11-12.61m-39.74,6.65h0c1.35-1.58,3.35-3.04,4.95-4.16,2.51-1.77,4.67-2.71,5.78-5.02,.39-.82,1.4-1.51,2.29-1.9,3.64-1.56,6.64-3.9,9.07-6.98,.6-.76,1.14-.87,1.97-.41,3.32,1.82,6.47,4.71,9.1,7.59,1.04,1.14,2.19,2.5,2.89,3.35-4.64-.71-8.18,2.26-9.95,2.71-2.88,.73-7.19-.09-9.68,2.17-.64,.59-1.29,1.04-1.95,1.34h-.02c-.83,.38-1.66,.46-2.33,.34-3.69-.65-6.2,.29-9.07,1.22-2.46,.8-4.42,2.02-4.42,2.02,.23-.78,.73-1.55,1.36-2.29m37.2-1.26c0,2.56-.08,5.32-.32,6.71-.24,1.34-.96,1.77-2.39,2.3-9.54,3.51-20.99,5.58-33.91,6.99-.98,.11-1.89-.57-2.02-1.54-.18-1.27-.38-3.22-.28-5.18,.07-1.57-.02-2.1,1.77-3.09,1.36-.74,1.92-.98,2.16-1.08,1.91-.83,4.02-1.56,4.99-1.69,1.82-.25,3.03,1.87,3.64,2.51,.88,.92,1.94,1.46,3.01,1.44,1.88-.05,2.9-.85,3.6-1.75,1.83-2.38,2.31-5.62,5.22-5.73,.72-.03,2.92-.19,4.19-.52,.81-.21,1.59-.6,2.49-1.06,1.66-.84,3.72-1.98,5.99-1.62,1.99,.32,1.87,2.57,1.88,3.32m-11.47,2.03c-.77,0-1.4,.63-1.4,1.4s.63,1.4,1.4,1.4,1.4-.63,1.4-1.4-.63-1.4-1.4-1.4m6.08,.08c-.99,0-1.79,.8-1.79,1.79s.8,1.79,1.79,1.79,1.79-.8,1.79-1.79-.8-1.79-1.79-1.79"/></g></g></svg>