<?xml version="1.0" encoding="UTF-8"?><svg id="Laag_1" xmlns="http://www.w3.org/2000/svg" xmlns:xlink="http://www.w3.org/1999/xlink" viewBox="0 0 64 64"><defs><style>.cls-1{fill:none;}.cls-2{clip-path:url(#clippath);}.cls-3{clip-path:url(#clippath-1);}</style><clipPath id="clippath"><rect class="cls-1" width="64" height="64"/></clipPath><clipPath id="clippath-1"><rect class="cls-1" width="64" height="64"/></clipPath></defs><g class="cls-2"><g class="cls-3"><path d="M13.42,31c-1.3,10.04-2.4,11.15-12.42,12.58,10.04,1.3,11.15,2.4,12.58,12.42,1.3-10.04,2.4-11.15,12.42-12.58-10.04-1.3-11.15-2.4-12.58-12.42"/><path d="M43.46,14.12c-1.78-1.02-4.3-2.06-7.59-2.65l-.8-9.55c-.04-.52-.48-.92-1-.92h-7.16c-.52,0-.95,.4-1,.92l-.72,8.57,5.67,1.15c.32,.1,.27,.31,.25,.36h-6.52c-1.22,.47-2.21,1.05-2.98,1.65-1.68,1.31-2.63,3.36-2.63,5.49v20.49c1.45,.8,3.66,1.14,7.28,1.61,1.09,.14,1.91,1.07,1.92,2.17,0,1.1-.8,2.04-1.89,2.19-3.65,.52-5.87,.89-7.31,1.72v10.63c0,1.68,1.36,3.05,3.05,3.05h21.91c1.68,0,3.05-1.36,3.05-3.05V20.23c0-2.53-1.35-4.86-3.54-6.11m-2.46,22.38c0,1.38-1.12,2.5-2.5,2.5s-2.5-1.12-2.5-2.5v-11c0-1.38,1.12-2.5,2.5-2.5s2.5,1.12,2.5,2.5v11Z"/><path d="M54.45,1c-.89,6.83-1.63,7.58-8.45,8.55,6.83,.89,7.58,1.63,8.55,8.45,.89-6.83,1.63-7.58,8.45-8.55-6.83-.89-7.58-1.63-8.55-8.45"/></g></g></svg>