<?xml version="1.0" encoding="UTF-8"?><svg id="Laag_1" xmlns="http://www.w3.org/2000/svg" xmlns:xlink="http://www.w3.org/1999/xlink" viewBox="0 0 64 64"><defs><style>.cls-1{fill:none;}.cls-2{clip-path:url(#clippath);}.cls-3{clip-path:url(#clippath-1);}</style><clipPath id="clippath"><rect class="cls-1" width="64" height="64"/></clipPath><clipPath id="clippath-1"><rect class="cls-1" width="64" height="64"/></clipPath></defs><g class="cls-2"><g class="cls-3"><path d="M54.89,4H21c-6.93,0-14,2.69-14,9.97V53.16c0,4.09,2.12,6.84,6,6.84H46.88c1.17,0,2.12-.95,2.12-2.11V16.11c0-1.17-.95-2.11-2.12-2.11H13.88c-.91,0-1.34-.83-1.02-1.75,1.01-2.88,6.26-3.25,8.14-3.25h31V51h3c1.1,0,2-.9,2-2V6.11c0-1.17-.95-2.11-2.11-2.11m-12.89,45h-13v-1.22c0-1.53,1.27-2.78,2.81-2.78h7.42c1.53,0,2.78,1.24,2.78,2.78v1.22Zm-28.1-10.03c.35-.2,10.42-5.56,16.66-8.88-.36-.63-.77-1.37-1.32-2.34l-.81,.02c-.57,.02-1.11-.28-1.39-.78l-.3-.53c-.21-.37-.08-.84,.29-1.05l8.03-4.54c.37-.21,.84-.08,1.05,.29l.3,.53c.28,.5,.26,1.11-.05,1.59-1.13,1.74-3.56,2.65-4.56,3.19,.03,.06,.08,.15,.26,.17,.19,.02,2.04-.16,4.67-1.27,1.75,3.09,1.08,1.92,2.88,5.1-2.3,1.68-3.41,3.16-3.49,3.34-.08,.17-.02,.25,0,.31,1-.58,3-2.19,5.09-2.26,.57-.02,1.11,.28,1.39,.78l.3,.53c.21,.37,.08,.84-.29,1.05l-8.03,4.54c-.37,.21-.84,.08-1.05-.29l-.3-.53c-.28-.5-.26-1.11,.05-1.59l.45-.66c-.56-1-.99-1.75-1.35-2.39-6.07,3.63-15.86,9.48-16.21,9.68-1.11,.63-2.52,.24-3.14-.87-.63-1.11-.23-2.52,.87-3.14"/></g></g></svg>