<?xml version="1.0" encoding="UTF-8"?><svg id="Laag_1" xmlns="http://www.w3.org/2000/svg" xmlns:xlink="http://www.w3.org/1999/xlink" viewBox="0 0 64 64"><defs><style>.cls-1{fill:none;}.cls-2{clip-path:url(#clippath);}.cls-3{clip-path:url(#clippath-1);}</style><clipPath id="clippath"><rect class="cls-1" width="64" height="64"/></clipPath><clipPath id="clippath-1"><rect class="cls-1" width="64" height="64"/></clipPath></defs><g class="cls-2"><g class="cls-3"><path d="M30.3,41.04c0,.94,.76,1.7,1.7,1.7s1.7-.76,1.7-1.7-.76-1.7-1.7-1.7-1.7,.76-1.7,1.7"/><path d="M51,6H13c-.55,0-1,.45-1,1V61h5v-2h2v-2h2v-9l4-1v10h14v-9l4-1v10h2v2h2v2h5V7c0-.55-.45-1-1-1M29,14h6v6h-6v-6Zm0,10h6v6h-6v-6Zm-10-10h6v6h-6v-6Zm0,10h6v6h-6v-6Zm26,21H19v-2l12.31-7.31c.43-.25,.96-.25,1.39,0l12.31,7.31v2Zm0-15h-6v-6h6v6Zm0-10h-6v-6h6v6Z"/></g></g></svg>