<?xml version="1.0" encoding="UTF-8"?><svg id="Laag_1" xmlns="http://www.w3.org/2000/svg" xmlns:xlink="http://www.w3.org/1999/xlink" viewBox="0 0 64 64"><defs><style>.cls-1{fill:none;}.cls-2{clip-path:url(#clippath);}.cls-3{clip-path:url(#clippath-1);}</style><clipPath id="clippath"><rect class="cls-1" width="64" height="64"/></clipPath><clipPath id="clippath-1"><rect class="cls-1" width="64" height="64"/></clipPath></defs><g class="cls-2"><g class="cls-3"><path d="M23.81,31.06c0-.22,0-.55,.01-.93l-17.82,1.88,18.48,1.95c-.42-.85-.66-1.83-.67-2.89"/><path d="M28.43,47.06l-18.43,1.94,16.44,1.73c.74-1.35,2-3.67,2-3.67"/><path d="M32.01,13.06l-18.41,1.94,14.91,1.57c1.17-1.31,2.43-2.57,3.51-3.51"/><path d="M40.46,11.73c3.01,.3,4.97-1.63,5.27-4.67,.35-3.46-1.29-5.5-4.22-5.79-3.09-.31-4.97,1.72-5.29,4.84-.33,3.29,1.23,5.32,4.24,5.62"/><path d="M47.71,42.85c.82-.79,1.16-1.39,1.16-1.39-2.54-5.38-5.64-8.31-6.88-9.33,.59-2.61,1.09-5.81,1.41-8.61,.62,1.6,1.37,3.28,2.29,4.65,.7,.97,3.94,4.02,4.81,4.79,2.03,1.78,4,.6,4.47,.28-1.92-2.63-6.03-7.25-6.03-7.25-2.97-4.84-2.38-8.75-5.04-10.96-1.33-1.11-6.59-3.11-9.22-1.31-1.63,1.12-5.41,4.92-7.05,7.49-.47,.76-.66,1.07-.96,2.38-.49,2.27-.69,6.3-.68,7.44,.02,1.73,.98,3.51,2.94,3.88,.13-1,.23-3.36,.84-6.79,.21-1.16,.47-2.41,.82-3.47,.38-1.13,1.52-2.31,2.81-3.46-.09,2.92-.12,6.13-1.03,8.67-.68,1.89-1.5,3.33-1.05,5.95,.13,.78,.17,4.15-3.32,8.61,.14,.08,3.25,1.68,7.24,2.13,.08,.24-.15,.52-.53,.59-.32,.06-1.93,.21-3.75-.13-.83,1.51-2.34,4.36-5.28,9.65-1.78,3.2,.56,5.8,1.09,6.34,3.43-4.98,5.59-8.3,7.62-11.38,1.39-2.1,1.73-2.8,2.75-4.91l.02-.04c.81,0,1.64-.04,2.47-.17,.97-.15,1.85-.36,2.64-.6,.7,.69,.82,1.06,1.53,2.68,1.35,3.11,2.99,7.45,4.17,10.64,1.06,2.85,3.22,4.02,5.72,3.76h.03c-1.24-4.84-3-11.66-4.49-16.41-.56-1.72-.87-2.61-1.51-3.69"/></g></g></svg>