<?xml version="1.0" encoding="UTF-8"?><svg id="Laag_1" xmlns="http://www.w3.org/2000/svg" viewBox="0 0 64 64"><defs><style>.cls-1{fill:none;}</style></defs><rect class="cls-1" width="64" height="64"/><path d="m37.69,40.5c-1.7-.67-3.2-1.27-3.92-1.85-.1-.85-.24-1.89-.39-2.89,1.53.16,2.92.34,4.16.56.42-4.09,2.4-7.56,5.37-9.87.05-.74.07-1.48.07-2.23,0-7.48-2.81-15.48-7.13-18.07-2.75-1.65-5.84-1.05-5.84-1.05,0,0-2.97-2.86-8.17-1.88-8.48,1.6-14.84,9.74-14.84,21,0,3.73.56,7.15,1.82,12.24.1.42.5.67.87.54,1.82-.64,4.29-1.01,7.36-1.3-.11.94-.24,1.99-.36,3.06-1.67,1.19-8.78,2.66-11.49,5.5-2.76,2.88-4.21,13.74-4.21,13.74h45.22c-1.37-3.65-3.03-6.44-4.29-8.39-1.86-2.89-3.62-5.65-4.23-9.11Zm-12.64,8.44c-1.49-.64-6.14-2.88-8.39-6.8,2.88-1.19,2.71-2.27,2.76-2.72.07-.58.58-5.32.58-5.32-2.52-2.48-3.6-5.57-4.06-8.28-.29-1.73-.25-3.34-.16-4.41,4.8-1.89,11.6-5.75,14.24-9.06,0,0,.32.01.12.5-.34.83-.85,1.81-1.55,2.98,1.24,2.63,3.47,4.56,5.68,5.93.07,1.03.07,2.47-.2,4.06-.53,3.18-2.82,7.63-5.34,9.18-1.72,1.06-4.87,1.23-6.71.44.42.84,1.27,1.84,3.15,2.31,2.54.63,4.85-.4,5.45-.75.11.79.22,1.59.29,2.28.05.43.16,1.49,3.13,2.88-2.32,4.03-7.4,6.19-8.98,6.78Z"/><path d="m52,26.41c-6.58,0-11.55,4.97-11.55,11.55,0,3.83,1.85,6.7,3.99,10.01,2.08,3.22,4.44,7.51,5.91,13.16.2.75.87,1.27,1.65,1.27s1.45-.52,1.65-1.27c1.47-5.65,3.83-9.94,5.91-13.16,2.14-3.32,3.99-6.18,3.99-10.01,0-6.59-4.96-11.55-11.55-11.55Zm0,18.13c-3.62,0-6.56-2.94-6.56-6.56s2.94-6.56,6.56-6.56,6.56,2.94,6.56,6.56-2.94,6.56-6.56,6.56Z"/><circle cx="52" cy="37.98" r="3.21" transform="translate(-1.48 2.12) rotate(-2.3)"/></svg>