<?xml version="1.0" encoding="UTF-8"?><svg id="Laag_1" xmlns="http://www.w3.org/2000/svg" xmlns:xlink="http://www.w3.org/1999/xlink" viewBox="0 0 64 64"><defs><style>.cls-1{fill:none;}.cls-2{clip-path:url(#clippath);}.cls-3{clip-path:url(#clippath-1);}</style><clipPath id="clippath"><rect class="cls-1" width="64" height="64"/></clipPath><clipPath id="clippath-1"><rect class="cls-1" width="64" height="64"/></clipPath></defs><g class="cls-2"><g class="cls-3"><path d="M52.23,44.76c-2.77,.95-6.37,2.41-9.22,3.61,.07,.43,.08,.89,.01,1.38-.41,2.81-2.82,4.58-6.24,4.74-7.73,.36-12.53-1.56-13.53-1.96-.29-.12-.32-.26-.29-.39h.01c5.6,.95,9.12,1.11,13.46,.41,3.29-.53,4.49-2.11,4.46-3.41-.03-1.27-.93-2.04-2.95-2.11-6.89-.24-10.92-1.01-16.82-1.87-4.1-.6-8.06,.47-11.43,2.63-3.16,2.03-4.04,2.98-4.04,2.98l5.79,11.14,7.48-3.04c.85-.35,1.78-.45,2.69-.3l10.26,2.28c2.29,.38,4.64-.06,6.64-1.22l20.48-12.85s-1-4.02-6.76-2.04"/><path d="M28.5,8.64c2.09,0,3.3-1.48,3.3-3.61,0-2.42-1.26-3.73-3.3-3.73-2.15,0-3.3,1.54-3.3,3.73,0,2.31,1.21,3.61,3.3,3.61"/><path d="M43.48,9.61c2.09,0,3.3-1.47,3.3-3.59,0-2.42-1.26-3.71-3.3-3.71-2.15,0-3.3,1.53-3.3,3.71,0,2.3,1.21,3.59,3.3,3.59"/><path d="M23,27.71v-8.72c0-1,0-2,.43-2.81,.22-.41,.51-.48,.57-.41v28.22c2.04,0,3.4-1.12,3.58-3.37,0,0,.43-13.46,.44-13.61,0-.15,.24-.34,.49-.34s.48,.19,.49,.34c0,.15,.44,13.61,.44,13.61,.17,2.26,1.55,3.37,3.57,3.37v-11.28c-.7,0-1.96-.39-2.05-2-.21-3.54-.11-9.28,2.1-10.33,1.35-.65,5.6-.65,7.08-.02,2.04,.86,1.99,6.75,1.98,10.33,0,1.61-1.42,2.03-2.12,2.03v11.28s2.8-.43,3-3.14c0,0,0-6.16,0-9.02,.33-.04,.67-.07,1-.11,0,2.8,0,9.05,0,9.05,.15,2.78,3,3.21,3,3.21v-12.34c.06,0,.13,0,.19,0,1.16,.11,1.81,.31,1.81,.31,0-6-1.54-8.27-2.03-10.15-.26-1-.04-2.04,.19-3.04,.22-.94,.5-1.82,.06-3.67,0,0,.23,.42,.33,.69,.52,1.52,.37,4.46,2.46,11.22,.91-.12,2.03-1.25,1.65-3.33-.46-2.55-1.03-3.94-1.24-5.72-.46-3.92-1.62-5.81-3.79-6.49-1.03-.33-2.01-.48-3.13-.48h-.04c-1.12,0-2.1,.15-3.13,.48-.62,.2-1.16,.51-1.62,.93,.7,.61,1.1,1.57,1.1,2.88,0,2.07-1.21,3.51-3.3,3.51s-3.3-1.27-3.3-3.51c0-1.58,.64-2.81,1.85-3.34-.53-.66-1.19-1.15-2.05-1.38-2.61-.7-6.06-.76-9.01,0-4.57,1.19-4.03,9.77-3.74,14.43,.13,2.11,1.77,2.71,2.74,2.71"/></g></g></svg>