<?xml version="1.0" encoding="UTF-8"?><svg id="Laag_1" xmlns="http://www.w3.org/2000/svg" xmlns:xlink="http://www.w3.org/1999/xlink" viewBox="0 0 64 64"><defs><style>.cls-1{fill:none;}.cls-2{clip-path:url(#clippath);}.cls-3{clip-path:url(#clippath-1);}</style><clipPath id="clippath"><rect class="cls-1" width="64" height="64"/></clipPath><clipPath id="clippath-1"><rect class="cls-1" width="64" height="64"/></clipPath></defs><g class="cls-2"><g class="cls-3"><path d="M53.71,43.45c-.54-.6-1.59-1.16-2.87-1.68-.48-1-.67-1.71-1.61-2.02l-8.27-2.75c-.1-.6-.19-1.2-.29-1.75,1.79-2.17,2.89-4.4,3.25-6.7,1.33-1.22,2.07-3.17,2.07-5.56,0-.74,0-2.7-1.23-4.04,.15-1.61,.26-3.16,.2-4.58,1.08-2.87,2.21-10.94-4.26-11.35-6.52-.41-13.15,2.84-16.63,4.98-1.83,1.12-3.35,2.59-4.43,4.33-1.37,2.22-2.61,5.24-.51,6.74-1.13,1.33-1.13,3.19-1.13,3.92,0,2.39,.74,4.33,2.06,5.55,.38,2.51,1.61,4.91,3.71,7.26-.04,.31-.09,.66-.13,1.01l-8.74,2.93c-.91,.29-1.11,.98-1.52,1.84-1.38,.56-2.51,1.18-3.09,1.86-2.17,2.57-3.29,15.49-3.29,15.49,0,0,50,.09,49.99,.06,0,0-.94-12.97-3.28-15.55M35,8.7c0-.39,.31-.7,.68-.7h3.64c.38,0,.68,.31,.68,.7v3.05c0,.21-.09,.41-.25,.54l-1.82,1.54c-.25,.21-.61,.21-.86,0l-1.82-1.54c-.16-.13-.25-.33-.25-.54v-3.05Zm-2.62,40.63c-2.3-1.75-6.59-5.53-6.16-9.02,.24-1.91,.04-.55,.82-5.44-2.28-2.2-4.1-4.87-4.1-8.06-1.62-.5-2.04-2.55-2.04-3.82s.32-1.96,.77-2.17c.39-.18,.77-.05,1.01,.09,.14,.65,.25,1.14,.29,1.31,.21,.85,1.02,.77,1.02,.77v-3.91c1.75-1.48,4.69-3.09,9.08-3.09,7.15,0,8.7-.17,10.16-.91,0,0,.18,0,0,.25-.15,.22-1.32,1.44-3.25,1.86v5.8s.82,.08,1.02-.77c.04-.17,.15-.66,.29-1.31,.24-.14,.62-.27,1.01-.09,.45,.21,.77,.9,.77,2.17s-.42,3.31-2.04,3.82c0,3.7-2.53,6.5-5.34,8.88-.78,.66-2.25,1.11-3.72,1.1-1.06,0-2.13-.29-2.93-.64,.61,.93,1.65,2.08,3.58,2.59,3.16,.84,5.46-.91,5.46-.91,0,0,.28,1.91,.27,2.42,.33,3.49-3.56,7.32-6.01,9.08m12.62,4.42c0,.21-.09,.41-.25,.55l-1.82,1.54c-.25,.21-.61,.21-.86,0l-1.82-1.54c-.16-.13-.25-.33-.25-.55v-3.05c0-.39,.3-.7,.68-.7h3.64c.38,0,.68,.31,.68,.7v3.05Z"/></g></g></svg>