<?xml version="1.0" encoding="UTF-8"?><svg id="Laag_1" xmlns="http://www.w3.org/2000/svg" xmlns:xlink="http://www.w3.org/1999/xlink" viewBox="0 0 64 64"><defs><style>.cls-1{fill:none;}.cls-2{clip-path:url(#clippath);}.cls-3{clip-path:url(#clippath-1);}</style><clipPath id="clippath"><rect class="cls-1" width="64" height="64"/></clipPath><clipPath id="clippath-1"><rect class="cls-1" width="64" height="64"/></clipPath></defs><g class="cls-2"><g class="cls-3"><path d="M37.92,27.17s1,6.24,1.02,6.55c.03,.33-.18,.37-.24,.37l-6.89-16.02c-.16-.4-.55-.66-.98-.64-1.01,.05-1.52,.11-1.52,.11l-2.75-6.45c-.17-.41-.6-.66-1.04-.61-9.99,1.21-21.52,6.03-21.52,15.96v26.56h4v-3.68c0-2.74,4-3.32,4-.75v4.43h6v-3.99c0-3.6,5-4.22,5-.26v4.25h6v-4.02c0-3.98,6-3.97,6,0v4.02h7v-4.25c0-3.96,5-3.34,5,.26v3.99h6v-4.43c0-2.56,4-1.99,4,.75v3.68h4v-16.06c0-5.78-10.85-9.04-23.08-9.77m-25.92,14.22c-1.51,.26-2.86,.55-4,.88v-4.38c0-3.21,4-4.32,4-1.42v4.92Zm0-11.61c-1.51,.52-2.86,1.11-4,1.77v-4.44c0-3.81,4-4.62,4-1.84v4.51Zm11,10.47c-1.73,.09-3.4,.22-5,.37v-5.01c0-3.45,5-4.06,5-.55v5.2Zm0-12.75c-1.73,.19-3.4,.44-5,.74v-5.1c0-3.5,5-4.28,5-1.07v5.43Zm12,12.51c-2-.03-4.01-.02-6,.02v-5.06c0-3.99,6-3.94,6,0v5.04Zm12,.61c-1.6-.15-3.27-.27-5-.37v-5.2c0-3.51,5-2.9,5,.55v5.01Zm10,1.65c-1.14-.33-2.49-.63-4-.88v-4.92c0-2.89,4-1.79,4,1.42v4.38Z"/></g></g></svg>