<?xml version="1.0" encoding="UTF-8"?><svg id="Laag_1" xmlns="http://www.w3.org/2000/svg" xmlns:xlink="http://www.w3.org/1999/xlink" viewBox="0 0 64 64"><defs><style>.cls-1{fill:none;}.cls-2{clip-path:url(#clippath);}.cls-3{clip-path:url(#clippath-1);}</style><clipPath id="clippath"><rect class="cls-1" width="64" height="64"/></clipPath><clipPath id="clippath-1"><rect class="cls-1" width="64" height="64"/></clipPath></defs><g class="cls-2"><g class="cls-3"><path d="M15.67,39.51c-2.51,1-5.05,2.26-6.29,3.6-2.87,3.12-4.39,14.89-4.39,14.89H13.64l-.79-4.39s1.92-.56,4.92-1.14c-1.23-6.44-1.82-10.68-2.09-12.96"/><path d="M40.67,38.19c-.53-.17-1.03-.33-1.44-.46-.1-.7-.22-1.48-.34-2.22,.76-.63,1.3-1.63,1.38-2.79,.02-.3,.15-.58,.4-.73,.89-.55,1.5-1.75,1.5-3.15,0-.46-.09-.89-.23-1.29,1.33-1.22,2.06-3.16,2.06-5.55,0-.74,0-2.67-1.2-4,.46-.16,.74-.82,.65-1.32-.47-2.74-2.4-11.43-10.5-13.32-.26-.97-1.52-1.72-3.05-1.72s-2.83,.77-3.06,1.77c-7.92,1.99-9.82,10.55-10.29,13.26-.08,.48,.18,1.1,.61,1.29v.07c-1.15,1.33-1.16,3.23-1.16,3.96,0,2.39,.74,4.33,2.06,5.55h0c-.14,.4-.23,.83-.23,1.29,0,1.38,.6,2.56,1.46,3.12,.25,.16,.42,.43,.44,.72,.09,1.45,.87,2.63,1.9,3.19-.07,.53-.14,1.09-.21,1.67-.46,.13-1.08,.32-1.79,.55,.81,5.06,2.02,10.63,2.7,13.63,5.61-.74,10.33-.74,15.42-.09,.76-2.99,2.08-8.45,2.92-13.44m-10.67-6.19c-1.43,0-2.4-.31-3.05-.67,1.25-.44,2.6-1.09,3.05-1.96,.45,.87,1.8,1.52,3.05,1.96-.65,.36-1.62,.67-3.05,.67m8-13.55v4.35s.82,.08,1.02-.77c.04-.17,.15-1.46,.29-2.11,.24-.14,.62-.27,1.01-.09,.45,.21,.77,.9,.77,2.17,0,1.06-.3,2.62-1.32,3.42-.17-.04-.33-.07-.5-.07-.83,0-1.52,.52-1.85,1.41-.43,1.14-.5,2.3-1.13,3.35-.14,.22-.44,.25-.6,.04-.7-.95-1.82-2.33-2.76-2.94-1.49-.97-2.93,.41-2.93,.41,0,0-1.44-1.37-2.93-.41-.94,.61-2.06,1.99-2.76,2.94-.15,.21-.46,.18-.6-.04-.63-1.05-.7-2.21-1.13-3.35-.34-.88-1.02-1.41-1.85-1.41-.17,0-.34,.03-.5,.07-1.02-.8-1.32-2.37-1.32-3.42,0-1.27,.32-1.96,.77-2.17,.39-.18,.77-.05,1.01,.09,.14,.65,.25,1.94,.29,2.11,.21,.85,1.02,.77,1.02,.77v-4.35c4.92,.73,11.07,.73,16,0m-7.62,29.89c-2.3-1.75-6.59-5.53-6.16-9.02,.02-.18,.04-.33,.06-.46,.67,.59,1.47,.9,2.19,.85,.25-.02,.48,.05,.67,.2,1.57,1.34,4.16,1.34,5.73,0,.19-.16,.43-.22,.67-.21,.94,.07,2.01-.48,2.77-1.48,.05,.43,.09,.84,.09,1.03,.33,3.49-3.56,7.32-6.01,9.08"/><path d="M60.21,37.75c-1.56-1.56-5.91-.99-9.61,1.17-1.03-.3-3.68-.97-4.67-.17-1.16,.94-3.81,3.55-4.81,5.52-.11,.21-.03,.48,.17,.62,.15,.11,1.96,.8,2.82,1.13-1.37,2.77-1.58,4.98-2.83,6.24-1.72,1.72-4.32,1.41-6.55,1.94-.39,.09-.52,.59-.23,.86,2.1,1.97,5.9,1.47,6.42,1.99,.51,.51-.1,4.14,1.98,6.16,.28,.28,.77,.16,.86-.23,.53-2.22,.23-4.56,1.95-6.28,1.06-1.06,2.81-1.47,5-2.46l-.23,2.69c-.03,.4,.39,.68,.74,.48,1.1-.61,1.75-.93,2.41-1.81,1-1.33,1.18-2.81,1.16-3.82,.65-.51,1.32-1.09,2.01-1.78,3.87-3.87,5.42-10.24,3.42-12.25m-4.49,5.54c-.64,.64-1.67,.64-2.31,0-.64-.64-.64-1.67,0-2.31,.64-.64,1.67-.64,2.31,0,.64,.64,.64,1.67,0,2.31"/></g></g></svg>