<?xml version="1.0" encoding="UTF-8"?><svg id="Laag_1" xmlns="http://www.w3.org/2000/svg" xmlns:xlink="http://www.w3.org/1999/xlink" viewBox="0 0 64 64"><defs><style>.cls-1{fill:none;}.cls-2{clip-path:url(#clippath);}.cls-3{clip-path:url(#clippath-1);}</style><clipPath id="clippath"><rect class="cls-1" width="64" height="64"/></clipPath><clipPath id="clippath-1"><rect class="cls-1" width="64" height="64"/></clipPath></defs><g class="cls-2"><g class="cls-3"><path d="M32,11.91c3.14,0,4.95-2.18,4.95-5.31,0-3.57-1.9-5.49-4.95-5.49-3.22,0-4.95,2.26-4.95,5.49,0,3.4,1.82,5.31,4.95,5.31"/><path d="M41.71,31.67c1.67-1.65,3.95-4.22,4.95-5.6,.46-.63,.53-1.5,.08-2.14-2.24-3.26-5.65-7.98-7.89-9-2.58-1.19-11.13-1.19-13.71,0-2.24,1.03-5.64,5.75-7.89,9-.44,.64-.38,1.51,.08,2.14,1,1.39,3.28,3.95,4.95,5.6,1.29,1.27,2.37,1.51,3.15,1.4l.03,.68-4.79,27.68s5.54,1.18,6.53-3.83c1.01-5.09,3.97-18.69,4.07-19.08,.13-.47,.45-.59,.73-.59s.62,.12,.73,.59c.09,.4,3.06,14,4.07,19.08,.99,5.01,6.53,3.83,6.53,3.83l-4.79-27.68,.03-.68c.78,.1,1.86-.13,3.15-1.4m-2.69-10.36l2.98,3.57-3.28,4.25,.3-7.82Zm-17.02,3.57l2.98-3.57,.3,7.82-3.28-4.25Z"/></g></g></svg>