<?xml version="1.0" encoding="UTF-8"?><svg id="Laag_1" xmlns="http://www.w3.org/2000/svg" xmlns:xlink="http://www.w3.org/1999/xlink" viewBox="0 0 64 64"><defs><style>.cls-1{fill:none;}.cls-2{clip-path:url(#clippath);}.cls-3{clip-path:url(#clippath-1);}</style><clipPath id="clippath"><rect class="cls-1" width="64" height="64"/></clipPath><clipPath id="clippath-1"><rect class="cls-1" width="64" height="64"/></clipPath></defs><g class="cls-2"><g class="cls-3"><path d="M19.95,49.28c-5.66,0-10.24-4.59-10.24-10.24,0-2.58,.96-4.93,2.54-6.73-1.01-1.72-.91-3.15-.88-4.15-3.22,2.54-5.29,6.46-5.29,10.88,0,7.66,6.21,13.87,13.86,13.87,3.46,0,6.62-1.28,9.05-3.38v-5.7c-1.72,3.25-5.12,5.46-9.05,5.46"/><path d="M34.07,30.57c-.72-1.71-1.31-2.16-2.6-2.73-1.93-.77-5.6-1.57-7.65-1.99,.91-9.02,1.61-11.78,.36-13.07-1.72-1.77-4.63-2.18-6.61-1.19-.96,.32-5.65,2.85-8.02,5.27-.8,.87-1.07,1.27-1.41,1.99-1.2,2.58-2.34,7.27-3.02,10.03,2.58,.64,3.92-1.62,4.28-2.37,.72-1.62,1.55-4.01,2.48-5.52,.54-1.01,1.84-1.75,2.87-2.35-.67,3.69-.75,7.91-.74,10.35,.02,3.35,2.89,4.78,5.64,4.78s9.47,0,9.54,0c.43,1.38,1.03,3.07,1.63,4.75,1.11-1.39,2.68-2.59,4.6-3.52-.49-1.81-.96-3.39-1.38-4.44"/><path d="M23.3,10c2.84,.46,4.8-1.28,5.26-4.16,.52-3.28-.92-5.32-3.68-5.76-2.92-.47-4.82,1.36-5.29,4.32-.5,3.12,.87,5.15,3.71,5.6"/><path d="M46,55c7.85,0,14-3.38,14-7.68v-3.65c0-4.3-6.15-7.67-14-7.67s-14,3.37-14,7.67v3.65c0,.95,.31,1.85,.86,2.68-.55,.83-.86,1.72-.86,2.66v3.65c0,4.3,6.15,7.68,14,7.68s14-3.38,14-7.68v-3.65c0-.2-.03-.41-.05-.61-.72,.9-4.57,5.14-13.61,5.14-8.02,0-10.78-3.86-11.07-4.38-.12-.21-.2-.44-.08-.57,2.55,1.69,6.41,2.75,10.81,2.75m-11.3-11c0-2.84,5.06-5.15,11.3-5.15s11.3,2.31,11.3,5.15-5.06,5.15-11.3,5.15-11.3-2.31-11.3-5.15"/><path d="M43.85,45.73v.68h1.55v-.56c.31,.02,.67,.02,1.02,.02h.38v.54h1.52v-.62c2.78-.3,4.11-1.26,4.11-2.67,0-.55-.06-.78-.31-1.34h-2.06c.21,.52,.29,.78,.29,1.25,0,.62-.59,1.12-2.03,1.33v-1.76h-1.52v1.89c-.19,0-.38,.02-.61,.02-.27,0-.52-.01-.79-.02v-1.89h-1.55v1.75c-1.4-.21-2.13-.66-2.13-1.37,0-.41,.08-.65,.25-1.15h-2.17c-.17,.43-.23,.73-.23,1.12,0,1.42,1.44,2.42,4.28,2.78"/></g></g></svg>