<?xml version="1.0" encoding="UTF-8"?><svg id="Laag_1" xmlns="http://www.w3.org/2000/svg" viewBox="0 0 64 64"><defs><style>.cls-1{fill:none;}</style></defs><rect class="cls-1" width="64" height="64"/><g><path d="m60.3,22.74c-.37-.47-.94-.74-1.54-.74h-13.45c-.96,0-1.78.69-1.94,1.64-.16.95.38,1.87,1.29,2.19l4.85,1.7-7.31,6.84c-2.03,1.9-3.2,4.59-3.2,7.37v17.28c0,1.64,1.33,1.98,2.96,1.98s2.96-.34,2.96-1.98v-17.28c0-1.15.48-2.26,1.32-3.05l6.99-6.55.6,5.17c.11.95.9,1.69,1.85,1.74.96.05,1.81-.6,2.02-1.53l2.96-13.12c.13-.58,0-1.2-.38-1.66Z"/><path d="m14.5,36.53l4.85-1.7c.91-.32,1.45-1.24,1.29-2.19-.16-.95-.98-1.64-1.94-1.64H5.24c-.6,0-1.16.27-1.54.74-.37.47-.52,1.08-.38,1.66l2.96,13.12c.21.94,1.07,1.58,2.02,1.53.96-.05,1.74-.78,1.85-1.74l.6-5.17,6.99,6.55c.84.79,1.32,1.9,1.32,3.05v8.28c0,1.64,1.33,1.98,2.96,1.98s2.96-.34,2.96-1.98v-8.28c0-2.78-1.17-5.47-3.2-7.37l-7.31-6.84Z"/><path d="m35,13.74l4.43,2.61c.83.49,1.88.31,2.5-.42.62-.73.62-1.81,0-2.54l-8.33-10.11c-.38-.46-.89-.88-1.6-.88s-1.22.42-1.6.88l-8.33,10.11c-.62.73-.62,1.81,0,2.54.62.73,1.68.91,2.5.42l4.43-2.61.02,45.29c0,1.64,1.34,1.98,2.99,1.98s2.99-.34,2.99-1.98V13.74s0,0,0,0Z"/></g></svg>