<?xml version="1.0" encoding="UTF-8"?><svg id="Laag_1" xmlns="http://www.w3.org/2000/svg" xmlns:xlink="http://www.w3.org/1999/xlink" viewBox="0 0 64 64"><defs><style>.cls-1{fill:none;}.cls-2{clip-path:url(#clippath);}.cls-3{clip-path:url(#clippath-1);}</style><clipPath id="clippath"><rect class="cls-1" width="64" height="64"/></clipPath><clipPath id="clippath-1"><rect class="cls-1" width="64" height="64"/></clipPath></defs><g class="cls-2"><g class="cls-3"><path d="M21.5,12.58c2.29,0,3.61-1.62,3.61-3.95,0-2.65-1.38-4.08-3.61-4.08-2.35,0-3.61,1.68-3.61,4.08,0,2.53,1.32,3.95,3.61,3.95m-11.96-.41c2.13,0,3.36-1.5,3.36-3.65,0-2.46-1.29-3.77-3.36-3.77-2.18,0-3.36,1.56-3.36,3.77,0,2.33,1.23,3.65,3.36,3.65m25.95,1.91c2.57,0,4.06-1.81,4.06-4.42,0-2.97-1.56-4.56-4.06-4.56-2.64,0-4.06,1.88-4.06,4.56,0,2.82,1.49,4.42,4.06,4.42m15.01-.06c2.82,0,4.46-2,4.46-4.87,0-3.27-1.71-5.03-4.46-5.03-2.9,0-4.45,2.08-4.45,5.03,0,3.11,1.63,4.87,4.45,4.87M11.11,30.45c-.24-3.93-.76-12.42,3.09-15.64-.43-.35-.92-.61-1.48-.78-1.04-.33-2.03-.48-3.16-.48h-.04c-1.13,0-2.12,.15-3.16,.48-2.18,.69-3.36,2.59-3.83,6.55-.21,1.79-.79,3.2-1.25,5.77-.38,2.09,.75,3.24,1.67,3.36,2.11-6.83,1.96-9.8,2.48-11.33,.1-.28,.33-.7,.33-.7-.45,1.88-.16,2.76,.06,3.71,.23,1.01,.29,2.06,.03,3.07-.49,1.9-2.05,5.38-2.05,11.44,0,0,1.56,.42,4.06,.2,.08,.14,.05,.31-.16,.46-.19,.13-.74,.39-1.86,.42l.4,9.77s2.47-.39,2.64-2.88c0,0,.21-5.1,.3-7.94,.13-.02,.25-.04,.38-.06,.11-.02,.22-.03,.33-.05,.09,2.77,.31,7.99,.31,7.99,.12,2.56,2.64,2.94,2.64,2.94l.45-10.98c.91,.09,1.6,.23,1.86,.28v-1.6c-1.83,0-3.87-1.25-4.04-4m45.47-13.7c-3.52-.95-8.18-1.03-12.16,0-6.17,1.6-5.44,12.94-5.05,19.22,.18,2.86,2.17,3.66,3.48,3.66v-7.73c0-3.44,.05-6.69,.8-8.69,.13-.35,.33-.39,.41-.29V61.54c2.75,0,4.95-1.51,5.18-4.56,0,0,.72-17.67,.73-17.87,0-.2,.2-.46,.52-.46s.51,.26,.52,.46c0,.2,.73,17.87,.73,17.87,.24,3.05,2.45,4.56,5.18,4.56V22.93c.12-.11,.3-.07,.41,.29,.6,2.03,.8,5.28,.8,8.69v7.73c1.31,0,3.31-.81,3.48-3.66,.39-6.28,1.11-17.56-5.05-19.22m-18.31,19.29v-.11c-.36-5.74-.91-14.68,2.96-18.57-.55-.47-1.17-.81-1.89-1.04-1.26-.4-2.46-.58-3.83-.58h-.05c-1.37,0-2.57,.18-3.82,.58-2.64,.84-4.06,3.14-4.63,7.92-.25,2.16-.95,3.86-1.51,6.98-.46,2.53,.9,3.92,2.02,4.06,2.56-8.26,2.37-11.85,3.01-13.7,.11-.33,.4-.85,.4-.85-.54,2.27-.2,3.34,.07,4.49,.28,1.22,.35,2.5,.04,3.72-.59,2.29-2.48,6.3-2.48,13.62,0,0,1.88,.51,4.91,.25,.1,.16,.06,.38-.19,.56-.22,.16-.9,.47-2.25,.51l.48,12.02s2.98-.47,3.19-3.48c0,0,.25-6.38,.37-9.81,.15-.02,.3-.05,.46-.08,.13-.02,.26-.04,.4-.06,.11,3.36,.37,9.87,.37,9.87,.15,3.1,3.2,3.56,3.2,3.56l.54-13.48c1.41,.14,2.4,.37,2.4,.37,0-.73-.02-1.41-.06-2.08-1.98-.21-3.91-1.66-4.09-4.66m-13.11-1.07c-.75-1.03-1.01-2.43-.74-3.95,.27-1.5,.57-2.67,.84-3.71,.29-1.14,.54-2.12,.67-3.19,.42-3.61,1.39-6.01,3-7.47-.62-.9-1.42-1.56-2.5-1.85-2.86-.77-6.64-.84-9.86,0-5.01,1.3-4.67,10.49-4.36,15.59,.14,2.31,1.67,2.97,2.74,2.97v-6.27c0-2.79,.18-5.42,.79-7.04,.11-.28,.28-.31,.34-.24v31.18c2.23,0,4.21-1.11,4.4-3.57,0,0,.59-14.33,.59-14.49,0-.16,.16-.37,.42-.37s.42,.21,.42,.37c0,.16,.59,14.49,.59,14.49,.19,2.48,2.19,3.57,4.4,3.57v-14.74c-.67-.21-1.3-.65-1.76-1.28"/></g></g></svg>