<?xml version="1.0" encoding="UTF-8"?><svg id="Laag_1" xmlns="http://www.w3.org/2000/svg" xmlns:xlink="http://www.w3.org/1999/xlink" viewBox="0 0 64 64"><defs><style>.cls-1{fill:none;}.cls-2{clip-path:url(#clippath);}.cls-3{clip-path:url(#clippath-1);}</style><clipPath id="clippath"><rect class="cls-1" width="64" height="64"/></clipPath><clipPath id="clippath-1"><rect class="cls-1" width="64" height="64"/></clipPath></defs><g class="cls-2"><g class="cls-3"><path d="M55,51V24h0c-3.18-5.91-8.86-11.64-19-12.83v-1.17c0-2.21-1.79-4-4-4s-4,1.79-4,4v1.17c-10.14,1.19-15.82,6.92-19,12.83v25.48l7.74,1.15c.32,.1,.27,.31,.25,.36h-7.99l-2,2v3H57v-3l-2-2ZM30,10c0-1.1,.9-2,2-2s2,.9,2,2v1c-.65-.04-1.31,0-2,0h0c-.69,0-1.35-.04-2,0v-1Zm-4,5h12v8h-12V15Zm-8.07,20.2c-.22,0-.4-.01-.61-.05v2.27h-1.61v-8.44l1.57-.07v.34c.34-.19,.82-.38,1.41-.38,1.63,0,2.57,1.08,2.57,2.97,0,2.07-1.28,3.36-3.34,3.36m6.16-.07h-1.6v-8.56l1.6-.08v8.64Zm6.2,0h-1.52v-.29c-.46,.26-.93,.36-1.55,.36-1.24,0-2.01-.68-2.01-1.78,0-1.26,1.03-1.98,2.82-1.98,.16,0,.3,0,.44,0,.08,0,.17,0,.25,0v-.21c0-.41-.14-.88-1.19-.88-.58,0-1.04,.1-1.64,.35l-.15,.06-.24-1.39,.09-.04c.77-.33,1.42-.47,2.18-.47,1.62,0,2.51,.79,2.51,2.21v4.05Zm2.94,.07c-.73,0-1.3-.06-1.74-.17l-.09-.02v-1.43l.15,.04c.52,.13,1.08,.2,1.66,.2,1,0,1-.37,1-.49,0-.2-.05-.36-.71-.55l-.74-.22c-.9-.27-1.36-.84-1.36-1.7,0-1.19,1.04-1.98,2.59-1.98,.55,0,1.04,.05,1.48,.13l.11,.02-.1,1.39-.13-.02c-.52-.08-.93-.12-1.42-.12-.58,0-.93,.17-.93,.44,0,.2,.04,.34,.6,.49l.71,.19c1.04,.28,1.52,.83,1.52,1.72,0,1.29-1,2.09-2.6,2.09m7.22-.17l-.09,.02c-.41,.11-.72,.15-1.19,.15-1.25,0-1.97-.77-1.97-2.1v-2.86h-.72v-1.29h.72v-1.07l1.61-.14v1.21h1.5v1.29h-1.5v2.68c0,.57,.26,.86,.76,.86,.26,0,.42-.02,.74-.09l.15-.03v1.38Zm2.51,.1h-1.61v-6.15l1.61-.07v6.22Zm-.81-6.85c-.57,0-.92-.34-.92-.89s.38-.9,.92-.9,.93,.35,.93,.9-.38,.89-.93,.89m5.16,5.48c.37,0,.71-.05,1.11-.15l.16-.04v1.43l-.09,.03c-.39,.12-.8,.17-1.31,.17-1.94,0-3-1.09-3-3.07,0-1.62,1.04-3.27,3.04-3.27,.52,0,.85,.04,1.28,.15l.1,.03-.14,1.47-.13-.03c-.39-.08-.68-.11-1.03-.11-.91,0-1.47,.65-1.47,1.7s.53,1.7,1.49,1.7"/><path d="M26.86,33.31c0,.36,.28,.56,.76,.56,.41,0,.74-.08,1.11-.26v-.92c-.2,0-.45-.02-.66-.02-.81,0-1.22,.22-1.22,.64"/><path d="M18.29,30.38c-.37,0-.6,.04-.97,.19v3.18c.23,.03,.37,.04,.61,.04,1.11,0,1.7-.64,1.7-1.84,0-1.04-.45-1.57-1.34-1.57"/></g></g></svg>