<?xml version="1.0" encoding="UTF-8"?><svg id="Laag_1" xmlns="http://www.w3.org/2000/svg" xmlns:xlink="http://www.w3.org/1999/xlink" viewBox="0 0 64 64"><defs><style>.cls-1{fill:none;}.cls-2{clip-path:url(#clippath);}.cls-3{clip-path:url(#clippath-1);}</style><clipPath id="clippath"><rect class="cls-1" width="64" height="64"/></clipPath><clipPath id="clippath-1"><rect class="cls-1" width="64" height="64"/></clipPath></defs><g class="cls-2"><g class="cls-3"><path d="M51.79,11.69c0-4.4-10-7.69-19.88-7.69S12.03,7.3,12.03,11.69c0,1.54,0,4.27,.76,6.37,2.6,7.23,9.06,16,12.26,19.87,1.96,1.9,7.74,1.02,7.9,1.02,0,.09,0,.22-.19,.36-.22,.15-2.65,1.24-6.72,1.62l.89,17.17c0,1.05,2.22,1.9,4.97,1.9s4.97-.85,4.97-1.9l.99-19.1c2.64-3.06,10.28-12.95,13.16-20.94,.76-2.1,.76-4.83,.76-6.37m-19.79,6.43c-8.46,0-15.5-2.16-15.5-5.05s7.04-5.23,15.5-5.23,15.5,2.34,15.5,5.23-7.04,5.05-15.5,5.05"/></g></g></svg>