<?xml version="1.0" encoding="UTF-8"?><svg id="Laag_1" xmlns="http://www.w3.org/2000/svg" viewBox="0 0 64 64"><defs><style>.cls-1{fill:none;}</style></defs><rect class="cls-1" width="64" height="64"/><path d="m58.58,50.47L34.38,9.47c-.54-.91-1.52-1.47-2.58-1.47h-.01c-1.07,0-2.05.57-2.58,1.49L5.41,50.49c-.54.93-.54,2.07,0,3s1.53,1.5,2.6,1.5h48c1.08,0,2.07-.58,2.61-1.51s.53-2.08-.02-3.01Zm-45.37-1.47L31.82,16.94l18.93,32.06H13.21Z"/><path d="m31.98,41.02c-1.52,0-2.31,1.09-2.31,2.49,0,1.58.85,2.43,2.34,2.43s2.31-1.06,2.31-2.43c0-1.61-.85-2.49-2.34-2.49Z"/><polygon points="30.13 40 33.83 39.9 33.83 35.02 34.19 25.29 30.13 25.64 30.13 40"/></svg>