<?xml version="1.0" encoding="UTF-8"?><svg id="Laag_1" xmlns="http://www.w3.org/2000/svg" xmlns:xlink="http://www.w3.org/1999/xlink" viewBox="0 0 64 64"><defs><style>.cls-1{fill:none;}.cls-2{clip-path:url(#clippath);}.cls-3{clip-path:url(#clippath-1);}</style><clipPath id="clippath"><rect class="cls-1" width="64" height="64"/></clipPath><clipPath id="clippath-1"><rect class="cls-1" width="64" height="64"/></clipPath></defs><g class="cls-2"><g class="cls-3"><path d="M24.52,21.75c2.97,.55,5.06-1.18,5.58-4.11,.59-3.35-.89-5.47-3.79-6.01-3.05-.56-5.07,1.26-5.6,4.28-.56,3.18,.84,5.29,3.82,5.84"/><path d="M39.65,38.88c-1.36-.13-9.79-.88-9.79-.88-1.42-5.06-2.05-7.25-2.77-10.05-.14-.56-1.13-3.86-3.93-4.57-1.93-.49-4.04,.02-5.55,1.9-3.76,4.67-6.97,20.62-6.97,20.62,0,0,3.08,.82,4.7-2.83,1.66-3.75,1.96-6.46,2.97-9.13,.63,2.65,1.31,5.21,1.94,7.32,.68,2.29,2.35,4.65,5.67,4.75h11.61s3.42,6.08,6.13,9.62c2.71,3.53,5.81,1.99,6.63,1.49,0,0-6.76-14.9-7.42-16.1-.66-1.2-1.86-2-3.22-2.13"/><path d="M35,48H9c-1.1,0-2,.9-2,2s.9,2,2,2h26c1.1,0,2-.89,2-2s-.9-2-2-2"/><path d="M43.92,30.38c.26,.14,.53,.23,.69,.12-.77-2.19-1.23-4.1-1.15-5.6,.25-4.48,3.9-7.95,3.39-12.54-.18-1.66-.96-3.5-2.54-5.46-.26-.32-.58-.52-.76-.37,.47,1.68,.96,3.49,.86,5.27-.21,3.72-3.88,7.85-3.7,12.6,.09,2.41,1.62,5.15,3.21,5.98"/><path d="M58.14,23.71c0-3.11-1.4-5.98-2.95-7.8-.31-.36-.53-.47-.71-.29,.61,2.14,1.23,4.8,1.06,7.04-.41,5.53-3.8,9.09-3.8,15.2,0,3.38,1.2,5.6,2.55,7,.48,.5,1.33,.91,1.49,.68-.99-2.13-1.43-4.35-1.29-6.27,.42-5.81,3.65-10.23,3.65-15.56"/></g></g></svg>