<?xml version="1.0" encoding="UTF-8"?><svg id="Laag_1" xmlns="http://www.w3.org/2000/svg" xmlns:xlink="http://www.w3.org/1999/xlink" viewBox="0 0 64 64"><defs><style>.cls-1{fill:none;}.cls-2{clip-path:url(#clippath);}.cls-3{clip-path:url(#clippath-1);}</style><clipPath id="clippath"><rect class="cls-1" width="64" height="64"/></clipPath><clipPath id="clippath-1"><rect class="cls-1" width="64" height="64"/></clipPath></defs><g class="cls-2"><g class="cls-3"><path d="M53.5,29h-7.5V7.38c0-.22-.15-.42-.36-.48L25.64,1.18c-.32-.09-.64,.15-.64,.48V19h6c.55,0,1,.45,1,1v24h9.43c.35,0,.68,.18,.86,.49l5.71,9.51v9h6V29.5c0-.28-.22-.5-.5-.5"/><rect x="39" y="55" width="6" height="5"/><path d="M31.54,46.03l-6.22,7.97c-.16-.08-.25-.22-.08-.56,2.87-5.71,4.75-9.36,4.75-9.36V21.5c0-.28-.22-.5-.5-.5H9.5c-.28,0-.5,.22-.5,.5V63h27v-9l4.78-7.97h-9.24Zm-8.54-20.03h3v3h-3v-3Zm0,5h3v3h-3v-3Zm0,5h3v3h-3v-3Zm-7,13h-3v-3h3v3Zm0-5h-3v-3h3v3Zm0-5h-3v-3h3v3Zm0-5h-3v-3h3v3Zm0-5h-3v-3h3v3Zm5,20h-3v-3h3v3Zm0-5h-3v-3h3v3Zm0-5h-3v-3h3v3Zm0-5h-3v-3h3v3Zm0-5h-3v-3h3v3Zm2,12h3v3h-3v-3Z"/></g></g></svg>