<?xml version="1.0" encoding="UTF-8"?><svg id="Laag_1" xmlns="http://www.w3.org/2000/svg" xmlns:xlink="http://www.w3.org/1999/xlink" viewBox="0 0 64 64"><defs><style>.cls-1{fill:none;}.cls-2{clip-path:url(#clippath);}.cls-3{clip-path:url(#clippath-1);}</style><clipPath id="clippath"><rect class="cls-1" width="64" height="64"/></clipPath><clipPath id="clippath-1"><rect class="cls-1" width="64" height="64"/></clipPath></defs><g class="cls-2"><g class="cls-3"><path d="M18.02,53.69c0,1.03,.84,1.87,1.87,1.87h2.58v-21.24h-4.45v19.37Z"/><path d="M49.92,23.43l-14.88-6.71c-.6-.27-1.23-.45-1.87-.55v-2.07c0-.62,.4-1.2,1.05-1.52,2.12-1.03,3.23-3.38,2.7-5.71-.42-1.85-1.89-3.32-3.74-3.74-1.53-.35-3.11,0-4.32,.97-1.21,.96-1.9,2.4-1.9,3.95,0,.64,.52,1.16,1.17,1.16s1.16-.52,1.16-1.16c0-.83,.37-1.61,1.02-2.13,.66-.53,1.5-.71,2.35-.52,.97,.22,1.77,1.02,1.99,1.99,.29,1.27-.31,2.54-1.45,3.1-1.45,.71-2.36,2.09-2.36,3.61v2.07c-.64,.1-1.27,.28-1.87,.55l-14.88,6.71c-1.85,.84-3.05,2.69-3.05,4.72,0,2.85,2.32,5.17,5.17,5.17h7.25v25.81c0,1.03,.83,1.86,1.86,1.86h18.79c1.03,0,1.86-.83,1.86-1.86V30.22c0-2.57-2.09-4.66-4.66-4.66H22.7c-2.41,0-4.39,1.82-4.65,4.16l4.94,.65c.38,.05,.52,.28,.45,.63h-7.24c-1.57,0-2.84-1.28-2.84-2.84,0-1.12,.66-2.13,1.67-2.59l14.89-6.71c.66-.3,1.37-.45,2.07-.45s1.41,.15,2.08,.45l14.88,6.71c1.02,.46,1.67,1.48,1.67,2.59,0,1.57-1.28,2.84-2.85,2.84h-.82v2.33h.82c2.85,0,5.18-2.32,5.18-5.17,0-2.03-1.2-3.88-3.05-4.72m-15.38,6.78c1.33,0,2.15,.84,2.15,2.42,0,1.38-.79,2.34-2.15,2.34s-2.15-.85-2.15-2.34,.75-2.42,2.15-2.42m-2.4,5.66c1.41-.34,3.35-.34,4.8,0,2.77,.66,2.58,5.06,2.58,8.84-.1,1.34-1.07,1.7-1.65,1.7v-4c0-1.48-.13-2.71-.31-3.23-.06-.19-.19-.14-.19-.14v17.8s-2.15,.02-2.28-2.25c0,0-.31-8.29-.32-8.39,0-.09-.07-.21-.22-.21s-.22,.12-.23,.21c0,.09-.32,8.45-.32,8.45-.16,2.21-2.27,2.19-2.27,2.19v-17.8s-.12-.03-.18,.14c-.18,.58-.33,1.75-.33,3.25v3.98c-.58,0-1.56-.38-1.65-1.7,0-3.78-.18-8.16,2.58-8.84"/></g></g></svg>