<?xml version="1.0" encoding="UTF-8"?><svg id="Laag_1" xmlns="http://www.w3.org/2000/svg" xmlns:xlink="http://www.w3.org/1999/xlink" viewBox="0 0 64 64"><defs><style>.cls-1{fill:none;}.cls-2{clip-path:url(#clippath);}.cls-3{clip-path:url(#clippath-1);}</style><clipPath id="clippath"><rect class="cls-1" width="64" height="64"/></clipPath><clipPath id="clippath-1"><rect class="cls-1" width="64" height="64"/></clipPath></defs><g class="cls-2"><g class="cls-3"><path d="M61.43,42.43c-.51-.54-1.52-1.12-2.64-1.66-1.46-.72-3.39-1.36-4.26-1.69-.78-.29-.66-1.31-.82-2.67,2.2-.09,3.7-.31,4.46-.6,.15-.06,.22-.19,.16-.34-.42-.9-1.49-3.62-1.63-5.17-.07-.79-.1-1.71-.14-2.66,0,0,.01,0,.02,0-.32-3.62-1.21-6.98-5.15-5.62,0,0-3.16-2.12-5.73,1.43-1.08,1.49-1.35,2.62-1.41,4.19h.02c-.05,1.06-.02,2.05-.05,2.78-.05,1.31-1.12,4.06-1.57,4.84-.1,.17-.06,.33,.12,.4,.81,.3,2.35,.52,4.5,.66-.06,.52-.14,1.8-.37,2.27-.1,.18-.24,.32-.46,.4-.51,.19-1.37,.49-2.29,.84,1.64,.83,3.12,1.77,4.05,2.79,1.23,1.33,2.2,3.72,2.95,6.27h11.81s-.07-4.89-1.56-6.46"/><path d="M35.89,38.94c.9-1.27,1.54-2.94,1.83-4.91,2.11-1.56,2.46-5.86,2.21-7.85,.8-.88,1.75-2.85,.36-6.82-.75-2.13-2.13-4.24-4.35-4.43-2.33-3.32-6.35-4.93-9.95-4.93s-7.66,1.67-9.95,4.93c-2.22,.19-3.6,2.31-4.35,4.43-1.39,3.97-.44,5.93,.36,6.82-.22,1.74,0,6.21,2.21,7.85,.29,1.97,.93,3.64,1.83,4.91-3.12,.98-8.69,2.96-10.73,5.17-2.87,3.12-4.39,14.89-4.39,14.89H51s-1.51-11.77-4.39-14.89c-2.03-2.21-7.6-4.19-10.73-5.17m-.45-21.51c1.25-.22,2.15,1.58,2.57,2.78,.42,1.19,.55,2.07,.55,2.72-.19-.2-.4-.39-.63-.55h0c-.28-.18-.93-.5-1.79-.45-.36-1-.8-2.63-.7-4.49m-17.44,5.73c.97-2.48,1.15-4.75,.87-7.08,1.82-2.17,4.71-3.18,7.13-3.18s5.31,1.02,7.13,3.18c-.28,2.32-.1,4.58,.87,7.08v2.04h-1.28c-.61-.72-1.51-1.19-2.53-1.19s-1.89,.45-2.5,1.15c-.51-.3-1.08-.47-1.69-.47s-1.18,.18-1.69,.48c-.61-.7-1.5-1.15-2.5-1.15s-1.93,.47-2.53,1.19h-1.28v-2.04Zm14.05,4.1c0,.99-.83,1.8-1.86,1.8s-1.86-.81-1.86-1.8,.83-1.8,1.86-1.8,1.86,.81,1.86,1.8m-8.38,0c0,.99-.83,1.8-1.86,1.8s-1.86-.81-1.86-1.8,.83-1.8,1.86-1.8,1.86,.81,1.86,1.8m-9.6-4.89h0c-.23,.16-.44,.35-.63,.56,0-.65,.14-1.53,.55-2.71,.42-1.19,1.32-2.99,2.57-2.78,.09,1.85-.34,3.49-.7,4.49-.86-.05-1.5,.27-1.79,.44m20.84,9.05c0,2-.37,3.79-1.04,5.1-.62,1.19-1.59,2.14-2.93,2.17-1.29,1.91-2.76,2.51-4.94,2.51-1.14,0-2.08-.11-2.9-.48,1.7,2.53,6.2,3.54,8.7,1.47-.02,3.47-4.18,6.16-5.81,7.07-1.63-.92-5.76-3.59-5.8-7.05h0c-.02-.5,.09-1.7,.54-3.55-1.13-.15-1.96-.97-2.52-1.98-.73-1.32-1.13-3.17-1.13-5.26-.24,.2-.59,.3-.78,.3-.97,0-1.39-2.31-1.44-4.34-.04-1.27,.36-2.34,.81-2.55,.34-.16,.67-.08,1.01,.06,.14,.67,.25,1.16,.3,1.34,.06,.27,.25,.55,.53,.67h.01l1.01,.51c.08,1.72,1.52,3.1,3.29,3.1s3.31-1.46,3.31-3.25c0-.27-.04-.53-.11-.78,.59-.37,1.39-.37,1.98,0-.06,.25-.11,.51-.11,.78,0,1.79,1.48,3.25,3.31,3.25s3.21-1.38,3.29-3.1l1.01-.5h0c.28-.14,.46-.42,.53-.68,.04-.17,.15-.67,.3-1.33,.34-.15,.68-.23,1.02-.06,.45,.21,.84,1.28,.81,2.55-.06,2.02-.48,4.34-1.44,4.34-.19,0-.56-.09-.79-.3"/><path d="M26,34.3s-.86-1.21-2-1c-1.14,.21-1.87,2.02-4.06,2.22,0,0,3.58,2.07,6.06,.48,2.48,1.59,6.05-.48,6.05-.48-2.19-.21-2.91-2.01-4.05-2.22-1.14-.21-2,1-2,1"/></g></g></svg>