<?xml version="1.0" encoding="UTF-8"?><svg id="Laag_1" xmlns="http://www.w3.org/2000/svg" xmlns:xlink="http://www.w3.org/1999/xlink" viewBox="0 0 64 64"><defs><style>.cls-1{fill:none;}.cls-2{clip-path:url(#clippath);}.cls-3{clip-path:url(#clippath-1);}</style><clipPath id="clippath"><rect class="cls-1" width="64" height="64"/></clipPath><clipPath id="clippath-1"><rect class="cls-1" width="64" height="64"/></clipPath></defs><g class="cls-2"><g class="cls-3"><path d="M40.66,24.47c1.88-.58,2.26-2.93,2.26-4.4s-.26-2.26-.78-2.5c-.25-.12-.5-.12-.72-.07,.19-3.05,.38-9.1-.9-11.37-1.39-2.48-3.24-3.13-6.47-2.32-2.12-1.12-3.56-2.23-7.26-1.22-2.57,.7-5.39,1.85-6.88,3.76-1.01,1.3-1.26,4.16-1.24,6.88l18.77,18.77c1.61-2.03,2.79-4.45,3.22-7.53"/><path d="M34.77,52.61l-2.51-1.48c-1.38-.82-1.85-2.61-1.03-3.99l.93-1.58c.82-1.38,2.6-1.84,3.99-1.03l.82,.48c-.03-.53,.09-1.05,.35-1.52,.37-.68,.99-1.18,1.73-1.41l1.75-.52c.11-.03,.22-.06,.33-.08-.35-.82-.28-1.75,.14-2.52L9.49,7.19l-2.12,2.12,9.96,9.96c-.02,.24-.03,.51-.03,.8,0,1.47,.38,3.82,2.26,4.4,.6,5.03,3.12,7.97,6.22,10.57,.82,.69,2.29,1.05,3.83,1.12,.14,.25,.14,.54-.41,.73-.92,.3-3.8,.73-6.91-.88-.02-.01-.04-.03-.07-.04-2.32,.62-10.32,2.91-12.81,5.53-2.91,3.06-4.05,14.5-4.05,14.5H31.81c.07-.92,.56-1.8,1.41-2.3l1.57-.93c0-.05,0-.1-.01-.15m-10.77-.61H15v-4h9v4Z"/><path d="M61.42,47.18l-2.31-.6c.12-1.22-.06-2.33-.52-3.29l2.59-3.27c.31-.4,.25-.97-.15-1.28l-1.43-1.13c-.4-.31-.97-.25-1.28,.15l-2.29,2.89c-.8-.45-1.65-.71-2.55-.77l-.59-2.76c-.11-.49-.59-.81-1.09-.7l-1.79,.39c-.49,.1-.81,.59-.7,1.09l.59,2.73c-.59,.29-1.12,.64-1.58,1.02l-2.32-2.97c-.31-.4-.89-.47-1.28-.16l-1.44,1.13c-.4,.31-.47,.89-.16,1.28l2.83,3.62c-.38,.5-.68,.78-1.11,1.05-.29,.18-1.11,.32-1.74,.42l-.57-1.91c-.14-.48-.65-.76-1.14-.61l-1.75,.52c-.48,.15-.76,.65-.61,1.14l.57,1.93c-.5,.29-.93,.64-1.31,1.04l-3.14-1.85c-.43-.26-.99-.11-1.25,.32l-.93,1.57c-.26,.43-.11,.99,.32,1.25l3.5,2.06c-.06,.74,.01,1.52,.24,2.3l-2.77,1.65c-.43,.26-.58,.82-.32,1.25l.93,1.57c.26,.43,.82,.58,1.25,.32l2.92-1.74c.56,.45,1.22,.82,1.96,1.1,.1,.03,.19,.06,.29,.09l-.79,3.63c-.11,.49,.2,.98,.7,1.09l1.79,.39c.49,.11,.98-.2,1.09-.7l.85-3.89c1.15-.01,2.32-.16,3.43-.42l.69,2.06c.16,.48,.68,.74,1.16,.58l1.73-.58c.48-.16,.74-.68,.58-1.16l-.71-2.12c.18-.09,.36-.18,.52-.27,.71-.41,1.45-.97,2.17-1.66l3.01,2.85c.37,.35,.95,.33,1.29-.04l1.26-1.33c.35-.37,.33-.94-.03-1.29l-3.15-2.98c.46-.67,.87-1.37,1.21-2.09l2.43,.63c.49,.13,.99-.16,1.11-.65l.46-1.77c.13-.49-.16-.99-.65-1.12m-5.97-.76c-.37,2.6-2.93,5.86-4.97,7.03-2.09,1.21-5.89,1.91-8.22,1.05-.89-.33-1.44-.85-1.7-1.59-.64-1.83,.61-2.61,1.17-2.86,.43-.19,1.15-.31,1.85-.43,1.09-.18,2.22-.37,3.13-.93,1.44-.88,2.12-1.9,3.15-3.44l.1-.15c.33-.5,1.5-1.48,2.81-1.59,.83-.08,1.55,.24,2.22,.94,.16,.16,.63,.66,.45,1.96"/></g></g></svg>