<?xml version="1.0" encoding="UTF-8"?><svg id="Laag_1" xmlns="http://www.w3.org/2000/svg" xmlns:xlink="http://www.w3.org/1999/xlink" viewBox="0 0 64 64"><defs><style>.cls-1{fill:none;}.cls-2{clip-path:url(#clippath);}.cls-3{clip-path:url(#clippath-1);}</style><clipPath id="clippath"><rect class="cls-1" width="64" height="64"/></clipPath><clipPath id="clippath-1"><rect class="cls-1" width="64" height="64"/></clipPath></defs><g class="cls-2"><g class="cls-3"><path d="M52.23,44.76c-2.77,.95-6.37,2.41-9.22,3.61,.07,.43,.08,.89,.01,1.38-.41,2.81-2.82,4.58-6.24,4.74-7.73,.36-12.53-1.56-13.53-1.96-.29-.12-.32-.26-.29-.39h.01c5.6,.95,9.12,1.11,13.46,.41,3.29-.53,4.49-2.11,4.46-3.41-.03-1.27-.93-2.04-2.95-2.11-6.89-.24-10.92-1.01-16.82-1.87-4.1-.6-8.06,.47-11.43,2.63-3.16,2.03-4.04,2.98-4.04,2.98l5.79,11.14,7.48-3.04c.85-.35,1.78-.45,2.69-.3l10.26,2.28c2.29,.38,4.64-.06,6.64-1.22l20.48-12.85s-1-4.02-6.76-2.04"/><path d="M40.48,9.61c2.09,0,3.3-1.47,3.3-3.59,0-2.42-1.26-3.71-3.3-3.71-2.15,0-3.3,1.53-3.3,3.71,0,2.3,1.21,3.59,3.3,3.59"/><path d="M36.66,14.89l-.05,.19c-.45,1.84-.16,2.71,.06,3.64,.23,.99,.29,2.02,.03,3.01-.49,1.86-1.7,4.31-1.7,10.24,0,0,.72,.2,2,.24v11.79s2.8-.43,3-3.14c0,0,0-5.92,0-8.85,.18-.03,.34-.04,.52-.08,.16-.03,.32-.05,.48-.08,0,2.85,0,8.93,0,8.93,.15,2.78,3,3.21,3,3.21v-12.27c1.18,.05,2,.2,2,.2,0-5.93-1.21-8.35-1.7-10.21-.26-.99-.2-2.02,.03-3.01,.22-.93,.5-1.8,.06-3.64,0,0,.23,.42,.33,.69,.52,1.5,.37,4.41,2.47,11.1,.92-.12,2.04-1.24,1.66-3.29-.46-2.52-.97-3.9-1.18-5.65-.46-3.88-1.83-5.74-4.01-6.42-1.03-.32-2.02-.47-3.15-.47s-2.3,.27-3.3,.55c-2.98,.84-7.9,3.9-9.96,5.86-1.62,1.55-1.37,2.62-.88,3.37,6.03-4.03,10.28-5.92,10.28-5.92"/><path d="M26.5,24.01c0,1.86,1.1,2.9,3,2.9s3-1.19,3-2.9c0-1.95-1.15-3-3-3-1.95,0-3,1.24-3,3"/><path d="M26.18,37.38l.04,6.6c.69-.06,2.47-.3,2.59-1.32,.15-1.24,.4-4.74,.4-4.74,0-.05,.13-.19,.28-.19h0c.15,0,.28,.14,.28,.19,0,0,.28,3.43,.4,4.7,.11,1.11,1.99,1.33,2.65,1.36v-6.6c.59,0,1.16-.97,1.17-2.01,0-2.31,.05-6.44-1.68-6.99-1.25-.4-4.34-.4-5.48,.02-1.87,.68-1.95,4.72-1.78,7.02,.08,1.04,.53,1.96,1.12,1.96"/></g></g></svg>