<?xml version="1.0" encoding="UTF-8"?><svg id="Laag_1" xmlns="http://www.w3.org/2000/svg" xmlns:xlink="http://www.w3.org/1999/xlink" viewBox="0 0 64 64"><defs><style>.cls-1{fill:none;}.cls-2{clip-path:url(#clippath);}.cls-3{clip-path:url(#clippath-1);}</style><clipPath id="clippath"><rect class="cls-1" width="64" height="64"/></clipPath><clipPath id="clippath-1"><rect class="cls-1" width="64" height="64"/></clipPath></defs><g class="cls-2"><g class="cls-3"><path d="M56,18h-7v-1c0-2.49-2.02-3-4.5-3s-4.5,.51-4.5,3v1H24v-1c0-2.49-2.01-3-4.5-3s-4.5,.51-4.5,3v1h-7c-1.66,0-2,1.34-2,3s.34,3,2,3h6.41c.02,.06,.07,.26-.25,.36l-6.16,1.2v23.43c0,1.1,.9,2,2,2H54c1.1,0,2-.9,2-2V24c1.66,0,2-1.34,2-3s-.34-3-2-3m-31,19H14v-3h11v3Zm25,0h-4v4h-3v-4h-4v-3h4v-4h3v4h4v3Z"/></g></g></svg>