<?xml version="1.0" encoding="UTF-8"?><svg id="Laag_1" xmlns="http://www.w3.org/2000/svg" xmlns:xlink="http://www.w3.org/1999/xlink" viewBox="0 0 64 64"><defs><style>.cls-1{fill:none;}.cls-2{clip-path:url(#clippath);}.cls-3{clip-path:url(#clippath-1);}</style><clipPath id="clippath"><rect class="cls-1" width="64" height="64"/></clipPath><clipPath id="clippath-1"><rect class="cls-1" width="64" height="64"/></clipPath></defs><g class="cls-2"><g class="cls-3"><path d="M51,16h-2v25c0,1.67-.89,1.8-3.26,1.8s-6.51,.35-8.45,.96c-3.59,1.14-4.01,2.73-5.29,2.73s-1.71-1.6-5.3-2.73c-1.93-.61-6.08-.96-8.45-.96s-3.26-.14-3.26-1.8V16h-2c-1.67,0-2,1.07-2,2v27c0,.93,.75,1.74,1.67,1.74l5.58,.41c2.37,0,6.51,.08,8.45,.7,3.59,1.13,4.01,2.99,5.3,2.99s1.71-1.86,5.29-2.99c1.93-.61,6.08-.7,8.45-.7l5.58-.41c.93,0,1.68-.81,1.68-1.74V18c0-.93-.53-2-2-2"/><path d="M26.02,40.43c.8,.17,1.54,.41,2.19,.66,2.24,1.03,2.72,2.15,3.79,2.15s1.55-1.12,3.79-2.15c.65-.25,1.4-.49,2.19-.66,2.56-.55,8.02-.43,8.02-.43V13h-6c-4.77,0-5.86,1.52-6.01,3.11l-1.44,15.56c-.1,.62-.6,.51-.6,.51l-1.57-15.46c-.17-1.81-1.21-3.71-6.38-3.71h-6v27s5.45-.12,8.02,.43"/></g></g></svg>