<?xml version="1.0" encoding="UTF-8"?><svg id="Laag_1" xmlns="http://www.w3.org/2000/svg" xmlns:xlink="http://www.w3.org/1999/xlink" viewBox="0 0 64 64"><defs><style>.cls-1{fill:none;}.cls-2{clip-path:url(#clippath);}.cls-3{clip-path:url(#clippath-1);}</style><clipPath id="clippath"><rect class="cls-1" width="64" height="64"/></clipPath><clipPath id="clippath-1"><rect class="cls-1" width="64" height="64"/></clipPath></defs><g class="cls-2"><g class="cls-3"><path d="M52.61,44.11c-1.33-1.44-4.16-2.78-6.84-3.82l1.71,3.63c.28,.58,0,1.27-.6,1.51-5.77,2.27-12.59,5.59-12.59,5.59,8.57-6.22,7.03-11.2,6.85-12.88h0c-.14-.96-.31-1.99-.46-2.88,1.79-2.17,2.89-4.41,3.25-6.7,1.33-1.22,2.07-3.16,2.07-5.56,0-.74,0-2.7-1.23-4.04,.06-.63,.15-1.4,.21-2.15h.02v-3.5c1.88-.57,3-1.27,3-2.02v-2.82c0-1.92-7.16-3.48-16-3.48s-16,1.56-16,3.48v2.82c0,.75,1.12,1.45,3,2.02v3.5h.01c.03,.79,.1,1.55,.15,2.23-1.16,1.33-1.16,3.22-1.16,3.96,0,2.39,.74,4.33,2.06,5.55,.38,2.51,1.61,4.91,3.71,7.26-.11,.81-.33,1.65-.45,2.63h0c-.42,2.9-.69,7.46,6.32,12.57,0,0-6.63-3.3-12.42-5.55-.64-.25-.9-1.01-.55-1.6l2.34-3.97c-2.88,1.1-6.16,2.61-7.62,4.21-2.87,3.12-4.39,14.89-4.39,14.89H57s-1.51-11.77-4.39-14.89M19,10.14v-.63c1.67-.68,6.24-1.61,13-1.61s11.33,.93,13,1.61v.63c-1,.41-4.51,1.48-7.55,1.89,0,.06-.01,.27,.32,.3,.25,.03,2.1,.27,4.23,.15v1.81c-2.38,.57-5.98,.93-10,.93s-7.62-.36-10-.93v-3.19c-1.7-.47-2.42-.71-3-.95m7.22,30.17c.24-1.91,.04-.55,.82-5.44-2.28-2.2-4.1-4.87-4.1-8.06-1.62-.5-2.04-2.55-2.04-3.82s.32-1.96,.77-2.17c.39-.18,.77-.05,1.01,.09,.14,.65,.25,1.14,.29,1.31,.21,.85,1.02,.77,1.02,.77v-4.74c2.2,.34,4.98,.55,8,.55s5.8-.21,8-.55v4.74s.82,.08,1.02-.77c.04-.17,.15-.66,.29-1.31,.24-.14,.62-.27,1.01-.09,.45,.21,.77,.9,.77,2.17s-.42,3.31-2.04,3.82c0,3.7-2.53,6.5-5.34,8.88-.78,.66-2.25,1.11-3.72,1.11-1.06,0-2.12-.29-2.93-.64,.61,.93,1.66,2.08,3.59,2.59,3.15,.83,5.46-.91,5.46-.91,0,0,.28,1.91,.27,2.42,.33,3.49-3.94,7.32-6.39,9.08-2.3-1.75-6.21-5.53-5.78-9.02"/></g></g></svg>