<?xml version="1.0" encoding="UTF-8"?>
<svg id="Zwart" xmlns="http://www.w3.org/2000/svg" viewBox="0 0 64 64">
  <polygon points="13 20 10 20 10 46 53 46 53 43 13 43 13 20"/>
  <polygon points="8 25 5 25 5 51 48 51 48 48 8 48 8 25"/>
  <path d="M37.92,27.03l-1.43-.44c-1.09-.35-1.31-.74-1.31-1.24,0-1.01,1.28-1.16,2.05-1.16,1.36,0,2.25.19,2.62.26l.17-2.27c-.18-.03-.58-.12-1.16-.18-.43-.05-.87-.07-1.3-.08v-1.73h-1.93v1.95c-1.91.46-3.04,1.75-3.04,3.47,0,1.56.77,2.64,2.23,3.12l1.45.5c1.5.52,1.61.91,1.61,1.42,0,.61-.77,1.23-2.24,1.23s-2.41-.18-3.19-.32v2.35c.43.07.94.16,1.74.2.41.02.81.02,1.23.03v1.73h1.93v-1.9c1.99-.52,3.17-1.92,3.17-3.77,0-1.62-.8-2.6-2.59-3.16Z"/>
  <circle cx="26" cy="28" r="2"/>
  <circle cx="47" cy="28" r="2"/>
  <path d="M15,15v26h43V15H15ZM55,32.52c-2.55.9-4.57,2.92-5.48,5.48h-26.05c-.9-2.55-2.92-4.57-5.48-5.48v-9.05c2.55-.9,4.57-2.92,5.48-5.48h26.05c.9,2.55,2.92,4.57,5.48,5.48v9.05Z"/>
</svg>