<?xml version="1.0" encoding="UTF-8"?><svg id="Laag_1" xmlns="http://www.w3.org/2000/svg" xmlns:xlink="http://www.w3.org/1999/xlink" viewBox="0 0 64 64"><defs><style>.cls-1{fill:none;}.cls-2{clip-path:url(#clippath);}.cls-3{clip-path:url(#clippath-1);}</style><clipPath id="clippath"><rect class="cls-1" width="64" height="64"/></clipPath><clipPath id="clippath-1"><rect class="cls-1" width="64" height="64"/></clipPath></defs><g class="cls-2"><g class="cls-3"><path d="M54,19c0,1.1-.9,2-2,2s-2-.9-2-2,.9-2,2-2,2,.9,2,2"/><path d="M43,11.5c0,.83-.67,1.5-1.5,1.5s-1.5-.67-1.5-1.5,.67-1.5,1.5-1.5,1.5,.67,1.5,1.5"/><path d="M49,23.5c0,.83-.67,1.5-1.5,1.5s-1.5-.67-1.5-1.5,.67-1.5,1.5-1.5,1.5,.67,1.5,1.5"/><path d="M43.45,29.25c-.11-.44-.51-.77-.96-.76-2.49,.07-4.96-1.16-6.35-3.44-1.35-2.21-1.36-5.25,.17-7.24,.43-.56,.2-1.41-.49-1.58-2.09-.54-3.8-2.04-4.09-4.38-.24-1.95,.57-3.68,1.99-4.83-11.53,.19-23.97,4.44-22.52,16.24,.66,5.4,2.4,5.83,5.44,7.79,.52,4.26,.5,17.89,2.52,23.76,.73,2.14,2.97,3.44,5.33,3.15l5.18-.64,10.96-1.24,6.88-.64c2.36-.29,4.21-2.1,4.4-4.35,.53-6.18-1.58-16.44-1.79-18.18-2.88,.21-5.93-.65-6.66-3.65"/></g></g></svg>