<?xml version="1.0" encoding="UTF-8"?><svg id="Laag_1" xmlns="http://www.w3.org/2000/svg" viewBox="0 0 64 64"><defs><style>.cls-1{fill:none;}</style></defs><rect class="cls-1" width="64" height="64"/><path d="m50.63,32c0,6.64-3.51,12.85-9.35,16.2-8.93,5.11-20.36,2.01-25.47-6.92-5.11-8.93-2.01-20.36,6.92-25.47,7.11-4.07,16.07-2.87,21.93,2.55l-4.85.57c-1.01.12-1.78.95-1.83,1.95-.05,1.01.63,1.91,1.62,2.14l13.85,3.12c.62.14,1.26,0,1.75-.4.49-.39.78-.99.78-1.62v-14.19c0-1.01-.74-1.88-1.74-2.05-1-.17-1.97.4-2.31,1.36l-1.31,3.73c-8.38-8.16-21.52-10.02-31.87-4.09C5.99,16.17,1.56,32.49,8.86,45.25c4.92,8.59,13.93,13.41,23.18,13.41,4.49,0,9.04-1.13,13.2-3.52,8.35-4.78,13.36-13.65,13.36-23.14h-7.98Z"/></svg>