<?xml version="1.0" encoding="UTF-8"?><svg id="Laag_1" xmlns="http://www.w3.org/2000/svg" xmlns:xlink="http://www.w3.org/1999/xlink" viewBox="0 0 64 64"><defs><style>.cls-1{fill:none;}.cls-2{clip-path:url(#clippath);}.cls-3{clip-path:url(#clippath-1);}</style><clipPath id="clippath"><rect class="cls-1" width="64" height="64"/></clipPath><clipPath id="clippath-1"><rect class="cls-1" width="64" height="64"/></clipPath></defs><g class="cls-2"><g class="cls-3"><path d="M51.43,20.46l-14.82-14.85c-.38-.38-.88-.61-1.41-.61H14.03c-1.1,0-2.03,.94-2.03,2.04V53.04c0,1.1,.93,1.96,2.03,1.96h17.97v-5h-15V10h16.74l.91-3.11c.11-.34,.34-.21,.34-.21v14.37c0,.55,.48,.96,1.03,.96h14.37s.11,.27-.24,.38l-3.16,.95v26.67h-5v5h8.03c1.1,0,1.97-.86,1.97-1.96V21.87c0-.53-.19-1.04-.57-1.42"/><path d="M37.03,41.04c-2.76,0-5.02,2.24-5.02,5,0,1.63,.98,3.07,1.98,3.98v8.46c0,.5,.62,.75,.98,.4l1.65-1.64c.22-.22,.58-.22,.8,0l1.63,1.64c.35,.35,.95,.1,.95-.4v-8.46c1-.91,2.02-2.35,2.02-3.98,0-2.76-2.22-5-4.98-5m0,7c-1.1,0-2-.9-2-2s.9-2,2-2,2,.9,2,2-.9,2-2,2"/><rect x="21" y="28" width="22" height="3"/><rect x="21" y="15" width="10" height="3"/><rect x="21" y="20" width="10" height="3"/><path d="M34.42,32.99c-.61,1.28-1.51,2.92-1.13,4.37,.07,.28,.31,.41,.58,.44,.57,.07,1.5-.6,1.98-1.22,0,.07,0,.13,0,.16,.05,.3,.19,.69,.43,.89,.21,.17,.48,.24,.73,.09,.37-.21,.61-.55,.83-.91,.03,.36,.16,.68,.53,.85,.77,.38,1.21-.29,1.62-.89,.15,.2,.41,.36,.67,.27,.75-.26,.49-.86,1.02-.09,.44,.63,1.48,.03,1.04-.6-.31-.46-.24-1.01-.84-1.16-.4-.1-.72,.15-1.03,.39,0-.04-.03-.08-.04-.13-.09-.35-.57-.59-.88-.36-.52,.38-.61,.74-.89,1.27-.24,.45,.11-.39,.15-.66,.03-.23,.07-.45,.08-.69,.03-.48-.52-.71-.9-.52-.58,.29-.87,.85-1.2,1.36,.1-.45,.2-.94,0-1.21-.12-.16-.3-.33-.52-.3-.87,.11-1.57,1.47-2.23,2.01,.09-.95,.69-2.05,1.04-2.78,.33-.69-.7-1.3-1.04-.61"/><path d="M22.31,32.99c-.61,1.28-1.51,2.92-1.13,4.37,.07,.28,.31,.41,.58,.44,.57,.07,1.5-.6,1.98-1.22,0,.07,0,.13,0,.16,.05,.3,.18,.69,.43,.89,.21,.17,.48,.24,.73,.09,.37-.21,.61-.55,.83-.91,.03,.36,.16,.68,.53,.85,.77,.38,1.21-.29,1.62-.89,.15,.2,.41,.36,.67,.27,.75-.26,.49-.86,1.02-.09,.44,.63,1.48,.03,1.04-.6-.31-.46-.24-1.01-.84-1.16-.4-.1-.72,.15-1.03,.39-.01-.04-.03-.08-.04-.13-.09-.35-.57-.59-.88-.36-.52,.38-.61,.74-.89,1.27-.24,.45,.11-.39,.15-.66,.03-.23,.07-.45,.08-.69,.03-.48-.52-.71-.9-.52-.58,.29-.87,.85-1.2,1.36,.1-.45,.2-.94,0-1.21-.12-.16-.3-.33-.52-.3-.87,.11-1.57,1.47-2.23,2.01,.09-.95,.69-2.05,1.04-2.78,.33-.69-.7-1.3-1.04-.61"/></g></g></svg>