<?xml version="1.0" encoding="UTF-8"?><svg id="Laag_1" xmlns="http://www.w3.org/2000/svg" xmlns:xlink="http://www.w3.org/1999/xlink" viewBox="0 0 64 64"><defs><style>.cls-1{fill:none;}.cls-2{clip-path:url(#clippath);}.cls-3{clip-path:url(#clippath-1);}</style><clipPath id="clippath"><rect class="cls-1" width="64" height="64"/></clipPath><clipPath id="clippath-1"><rect class="cls-1" width="64" height="64"/></clipPath></defs><g class="cls-2"><g class="cls-3"><path d="M51.5,1l-5.5,16,1,3v9h-1.7l-13.3-19-13.3,19h-1.7v-9l1-3L12.5,1,7,17l1,3V62h15v-3h2v-5.6l4-.8v6.4h6v-5.6l4-.8v6.4h2v3h15V20l1-3L51.5,1Zm-19.5,26.8c2.32,0,4.2,1.88,4.2,4.2s-1.88,4.2-4.2,4.2-4.2-1.88-4.2-4.2,1.88-4.2,4.2-4.2m8,23.2h-5.1c-.64-3.06-2.9-4-2.9-4,0,0-2.26,.94-2.9,4h-5.1v-1l8-9,8,9v1Z"/></g></g></svg>