<?xml version="1.0" encoding="UTF-8"?><svg id="Laag_1" xmlns="http://www.w3.org/2000/svg" xmlns:xlink="http://www.w3.org/1999/xlink" viewBox="0 0 64 64"><defs><style>.cls-1{fill:none;}.cls-2{clip-path:url(#clippath);}.cls-3{clip-path:url(#clippath-1);}</style><clipPath id="clippath"><rect class="cls-1" width="64" height="64"/></clipPath><clipPath id="clippath-1"><rect class="cls-1" width="64" height="64"/></clipPath></defs><g class="cls-2"><g class="cls-3"><path d="M29.87,16.73l.23,8.82c4,.15,6.28,1.47,8.93,2.6l-.35-8.89c-2.59-1.09-4.84-2.37-8.81-2.52"/><path d="M58.11,8.01c-.05-.73-.83-1.17-1.47-.82-1.95,1.08-5.84,2.81-10.64,2.81-6.95,0-8.76-4-16.69-4-5.8,0-12.91,3.21-16.31,4.93v-2.93h1c1.1,0,2-.9,2-2v-1.47c0-.93-.64-1.73-1.55-1.95-1.16-.27-2.81-.58-4.45-.58s-3.3,.31-4.45,.58c-.91,.21-1.55,1.02-1.55,1.95v1.47c0,1.1,.9,2,2,2h1V63h6v-21.02c3.69-1.99,10.84-4.98,16.31-4.98,7.93,0,9.74,4,16.69,4,5.19,0,10.44-2.15,12.76-3.25,.75-.35,1.21-1.12,1.15-1.94l-1.81-27.8Zm-9.89,29.84l-.42-7.99c-3.32,.11-5.8-.44-8.77-1.71l.32,8.17c-2.29-.99-5.06-2.08-9.02-2.27l-.22-8.5c-2.93-.11-6.18,.62-8.94,1.55l.11,8.12c-3.14,.88-5.74,2.13-8.27,3.35v-7.69c3.14-1.6,5.09-2.75,8.16-3.79l-.12-8.87c-3.04,1.01-4.96,2.12-8.05,3.65v-7.58c3.29-1.67,5.02-2.71,7.94-3.71l.1,7.63c2.71-.9,5.93-1.61,8.83-1.5l-.2-7.71c3.9,.11,6.12,1.33,8.7,2.39l.31,7.84c3,1.27,5.44,1.77,8.65,1.68l-.42-7.95c3.33-.13,6.22-.96,8.4-1.84l.52,8.02c-2.21,.87-5.14,1.67-8.5,1.77l.47,8.93c3.4-.11,6.37-.95,8.6-1.85l.47,7.31c-1.82,.81-5.16,2.1-8.66,2.53"/></g></g></svg>