<?xml version="1.0" encoding="UTF-8"?><svg id="Laag_1" xmlns="http://www.w3.org/2000/svg" xmlns:xlink="http://www.w3.org/1999/xlink" viewBox="0 0 64 64"><defs><style>.cls-1{fill:none;}.cls-2{clip-path:url(#clippath);}.cls-3{clip-path:url(#clippath-1);}</style><clipPath id="clippath"><rect class="cls-1" width="64" height="64"/></clipPath><clipPath id="clippath-1"><rect class="cls-1" width="64" height="64"/></clipPath></defs><g class="cls-2"><g class="cls-3"><path d="M50.04,53.34c-1,.75-3.49,2.75-6,2.75s-4.92-1.94-6-2.75c-1,.75-3.49,2.75-6,2.75s-4.92-1.94-6-2.75c-1,.75-3.49,2.75-6,2.75s-4.92-1.94-6-2.75c-1,.75-3.49,2.75-6,2.75-1.02,0-2.12-.39-3.04-.83v4.22c.94,.31,1.98,.52,3.04,.52,2.4,0,4.66-1.08,6-1.86,1.34,.79,3.6,1.86,6,1.86s4.66-1.08,6-1.86c1.34,.79,3.6,1.86,6,1.86s4.66-1.08,6-1.86c1.34,.79,3.6,1.86,6,1.86s4.66-1.08,6-1.86c1.34,.79,3.6,1.86,6,1.86,1.03,0,2.04-.2,2.96-.49v-4.2c-.9,.42-1.97,.79-2.96,.79-2.46,0-4.92-1.94-6-2.75"/><path d="M50.04,44.34c-1,.75-3.49,2.75-6,2.75s-4.92-1.94-6-2.75c-1,.75-3.49,2.75-6,2.75s-4.92-1.94-6-2.75c-1,.75-3.49,2.75-6,2.75s-4.92-1.94-6-2.75c-1,.75-3.49,2.75-6,2.75-1.02,0-2.12-.39-3.04-.83v4.22c.94,.31,1.98,.52,3.04,.52,2.4,0,4.66-1.08,6-1.86,1.34,.79,3.6,1.86,6,1.86s4.66-1.08,6-1.86c1.34,.79,3.6,1.86,6,1.86s4.66-1.08,6-1.86c1.34,.79,3.6,1.86,6,1.86s4.66-1.08,6-1.86c1.34,.79,3.6,1.86,6,1.86,1.03,0,2.04-.2,2.96-.49v-4.2c-.9,.42-1.97,.79-2.96,.79-2.46,0-4.92-1.94-6-2.75"/><path d="M56.04,38.09c-2.46,0-4.92-1.94-6-2.75-1,.75-3.49,2.75-6,2.75s-4.92-1.94-6-2.75c-1,.75-3.49,2.75-6,2.75s-4.92-1.94-6-2.75c-1,.75-3.49,2.75-6,2.75s-4.92-1.94-6-2.75c-1,.75-3.49,2.75-6,2.75-1.02,0-2.12-.39-3.04-.83v4.22c.94,.31,1.98,.52,3.04,.52,2.4,0,4.66-1.08,6-1.86,1.34,.79,3.6,1.86,6,1.86s4.66-1.08,6-1.86c1.34,.79,3.6,1.86,6,1.86s4.66-1.08,6-1.86c1.34,.79,3.6,1.86,6,1.86s4.66-1.08,6-1.86c1.34,.79,3.6,1.86,6,1.86,1.03,0,2.04-.2,2.96-.49v-4.2c-.9,.42-1.97,.79-2.96,.79"/><path d="M30.5,28c.83,0,1.5-.67,1.5-1.5s-.67-1.5-1.5-1.5-1.5,.67-1.5,1.5,.67,1.5,1.5,1.5"/><path d="M33,30.5c0,.83,.67,1.5,1.5,1.5s1.5-.67,1.5-1.5-.67-1.5-1.5-1.5-1.5,.67-1.5,1.5"/><path d="M28.5,33c.83,0,1.5-.67,1.5-1.5s-.67-1.5-1.5-1.5-1.5,.67-1.5,1.5,.67,1.5,1.5,1.5"/><path d="M55.57,4.43c-2.2-2.19-4.83-3.43-6.76-3.43-1.31,0-2.2,.45-2.79,1.27-.77,1.06-9.12,13.29-9.12,13.29l-2.46,1.93c2.33,.88,4.32,2.77,4.94,4.89,.1,.35-.06,.39-.11,.39h-.02c-1.99-2.42-4.53-3.97-6.07-3.97-.41,0-.75,.11-.99,.35-.98,.98,.17,3.71,2.57,6.11,1.82,1.82,3.83,2.92,5.12,2.92,.41,0,.75-.11,.99-.35,.98-.98,3.64-4.73,3.64-4.73,5.78-4.07,11.32-7.69,13.5-9.31,1.86-1.38,.23-6.69-2.43-9.34m-5.24,9.79c-2.1,1.42-4.65,3.16-7.26,4.99-.64-.96-1.37-1.78-2.2-2.37,2.98-4.36,6.95-10.15,8.11-11.82,.67,.09,2.2,.69,3.77,2.25,1.09,1.08,1.82,2.89,2.01,3.92-1.1,.77-2.67,1.84-4.42,3.03"/></g></g></svg>