<?xml version="1.0" encoding="UTF-8"?><svg id="Laag_1" xmlns="http://www.w3.org/2000/svg" xmlns:xlink="http://www.w3.org/1999/xlink" viewBox="0 0 64 64"><defs><style>.cls-1{fill:none;}.cls-2{clip-path:url(#clippath);}.cls-3{clip-path:url(#clippath-1);}</style><clipPath id="clippath"><rect class="cls-1" width="64" height="64"/></clipPath><clipPath id="clippath-1"><rect class="cls-1" width="64" height="64"/></clipPath></defs><g class="cls-2"><g class="cls-3"><path d="M50,7H28.83c-.53,0-1.04,.21-1.42,.59l-14.83,14.83c-.38,.38-.59,.88-.59,1.42v31.17c0,1.1,.9,2,2,2H50c1.1,0,2-.9,2-2V9c0-1.1-.9-2-2-2m-3,45H17V25.29l-3.15-.93c-.34-.11-.22-.36-.22-.36h14.37c.55,0,1-.45,1-1V8.63s.25-.11,.36,.23l.93,3.13h16.71V52Z"/><path d="M22.6,32.41c-.62,.52-.77,1.41-.35,2.1l7,11.69c.3,.49,.83,.8,1.4,.8h0c.57,0,1.1-.3,1.4-.79l10.7-17.71c.44-.73,.26-1.67-.42-2.17-.68-.51-1.64-.41-2.2,.22l-9.62,10.88-5.78-5.01c-.61-.53-1.51-.53-2.13-.02"/></g></g></svg>