<?xml version="1.0" encoding="UTF-8"?><svg id="Laag_1" xmlns="http://www.w3.org/2000/svg" xmlns:xlink="http://www.w3.org/1999/xlink" viewBox="0 0 24 24"><defs><style>.cls-1{fill:none;}.cls-2{clip-path:url(#clippath);}.cls-3{clip-path:url(#clippath-1);}</style><clipPath id="clippath"><rect class="cls-1" width="24" height="24"/></clipPath><clipPath id="clippath-1"><rect class="cls-1" width="24" height="24"/></clipPath></defs><g class="cls-2"><g class="cls-3"><path d="m4.5,8.73l-1.18-.35c-.13-.04-.08-.13-.08-.13h5.39c.21,0,.38-.17.38-.38V2.49s.09-.04.13.09l.35,1.18h6.27v6.47c.3-.06.62-.09.94-.09s.63.03.94.09V2.62c0-.41-.34-.75-.75-.75h-7.94c-.2,0-.39.08-.53.22L2.84,7.66c-.14.14-.22.33-.22.53v11.69c0,.41.34.75.75.75h7.88v-1.88h-6.75v-10.02Z"/><path d="m20.95,16.12h-.32v-1.31c0-2.17-1.77-3.94-3.94-3.94s-3.94,1.77-3.94,3.94v1.31h-.32c-.24,0-.43.19-.43.43v5.17c0,.21.15.38.35.42.68.12,2.29.36,4.34.36s3.66-.24,4.33-.36c.2-.04.35-.21.35-.42v-5.17c0-.23-.19-.42-.43-.42m-3.7,3.18v1.69h-1.12v-1.69c-.23-.17-.38-.44-.38-.75,0-.52.42-.94.94-.94s.94.42.94.94c0,.31-.15.57-.38.75m1.5-3.18h-4.12v-1.31c0-1.14.93-2.06,2.06-2.06s2.06.93,2.06,2.06v1.31Z"/></g></g></svg>