<?xml version="1.0" encoding="UTF-8"?><svg id="Laag_1" xmlns="http://www.w3.org/2000/svg" xmlns:xlink="http://www.w3.org/1999/xlink" viewBox="0 0 64 64"><defs><style>.cls-1{fill:none;}.cls-2{clip-path:url(#clippath);}.cls-3{clip-path:url(#clippath-1);}</style><clipPath id="clippath"><rect class="cls-1" width="64" height="64"/></clipPath><clipPath id="clippath-1"><rect class="cls-1" width="64" height="64"/></clipPath></defs><g class="cls-2"><g class="cls-3"><path d="M14.35,48.11c3.74-1.57,6.19-2.11,6.4-3.99,.02-.2,.08-.74,.17-1.46,1.42,.66,2.97,.99,5.08,.99s3.74-.36,5.11-1c.05,.58,.1,1.21,.14,1.47,.14,1.19,1.17,1.84,2.87,2.57,.08,.03,5.6,2.13,8.28,3.72,1.53-1.2,1.71-1.26,2.43-1.95-1.14-.84-2.73-1.65-4.37-2.37-1.53-.7-5.89-2.43-6.29-2.68-.1-.86-.19-1.72-.29-2.53,1.39-1.11,2.61-2.26,4.49-3.83,.43-.36,.57-.96,.33-1.48l-.58-1.28c.25-1.66,.26-1.41,.37-2.34,.97-1.22,1.51-2.91,1.51-4.93,0-.74-.02-2.67-1.22-4.01,.14-.73,.21-1.48,.21-2.25,0-5.56-3.62-10.36-8.72-12.02-1.3-.43-2.25-.61-3.3-.68,0-.15,.17-.3,.52-.37,1.41-.29,3.3-.09,4.76,.38,.4-.71,.94-2.16,.94-3.06C33.2,2.23,30.8,0,27.9,0,25.8,0,24.3,1.25,23.1,2.76c-1.7,2.32-2.9,.8-1.7-.89,0,0-3.4,.36-3.4,2.94,0,1.87,2.02,3.62,2.93,4.16-4.66,1.92-7.93,6.49-7.93,11.76,0,.77,.08,1.52,.21,2.25-1.2,1.33-1.22,3.26-1.22,4,0,2.02,.54,3.71,1.51,4.93,.11,.92,.09,.55,.36,2.34l-.58,1.28c-.23,.51-.1,1.11,.34,1.48,1.99,1.66,3.1,2.73,4.49,3.83-.09,.81-.19,1.67-.29,2.53-.22,.13-5.83,2.47-6.29,2.68-2.16,.95-4.25,2.07-5.31,3.18-1.5,1.57-2.61,5.49-3.32,8.74H20.79c.14-1.62,.59-3.15,1.34-4.51-2.89-.65-6.53-2.1-7.77-5.38m.65-21.11c0-.69,.05-1.88,.67-2.17h0c.41-.2,.9-.04,1.27,.26,0-.83,.02-3.18,.74-5.58,2.25-2.03,5.15-3.26,8.32-3.26s6.17,1.28,8.44,3.38c.04,.14,.08,.28,.12,.42,.16,.68,.27,1.35,.35,1.98,.15,1.26,.15,2.36,.15,3.05,.36-.3,.84-.47,1.27-.26,.45,.21,.67,.9,.67,2.17,0,.24-.03,.47-.05,.71-3.87-.03-6.15-.34-6.92-.97-1-.81-1.97-2.12-4.03-2.12s-3.02,1.31-4.03,2.12c-.77,.62-3.05,.94-6.92,.97-.02-.24-.05-.48-.05-.71m.95,8.73c.17-.38,.27-.57,.38-.88l5.79,1.54s.16-.22-.11-.43l-5.91-3.51c-.13-.73-.18-1.36-.25-2.24,4.9-.09,6.65-.67,7.69-1.52,1.12-.9,1.48-1.57,2.46-1.57s1.35,.67,2.46,1.57c1.05,.85,2.8,1.43,7.69,1.52-.07,.91-.13,1.54-.25,2.24l-5.91,3.51c-.26,.21-.15,.38-.11,.43l5.79-1.54c.11,.32,.18,.41,.38,.88-1.1,.94-1.78,1.56-2.61,2.27-2.55,2.19-4.03,3.16-7.44,3.16s-4.81-.92-7.12-2.88c-.78-.66-1.84-1.61-2.93-2.54"/><path d="M37.11,54.48c-3.34-1.28-6.53-1.15-8.51,.44-.97,.78-1.56,1.83-1.77,3.08h5.7l4.58-3.52Z"/><path d="M27.34,53.36c2.82-2.26,7.15-2.37,11.59-.29l1.74-1.34c-.29-.15-.56-.32-.86-.46-5.16-2.42-10.29-2.23-13.73,.53-2.84,2.28-3.95,5.87-3.06,9.85l1.95-.44c-.72-3.21,.14-6.07,2.36-7.85"/><path d="M50.47,32.89c-2,1.36-2.87,3.62-2.47,6.35,.2,1.36,.79,2.77,1.53,4.13,.53-.44,.83-.7,1.62-1.2-.57-1.1-1.01-2.2-1.17-3.22-.29-1.97,.27-3.49,1.62-4.41,1.99-1.35,5.32-1.24,7.94,.26l1-1.73c-3.29-1.9-7.43-1.97-10.06-.18"/><path d="M55.95,49.99v-.02c-.78-1.39-1.74-2.84-2.76-4.39,.59-.39,1.04-.59,1.33-.69,.13-.05,.62-.18,.7-.08,.04,.05-.02,.29-.3,.67v.02c.39,.57,.76,1.13,1.12,1.71,1.22-1.33,1.5-2.59,.76-3.58-.98-1.32-2.92-1.05-5.32,.74-1.34,1-2.68,2.35-3.59,3.6-.81,1.12-1.7,2.06-2.66,2.78l-14.74,11.33c-.4,.3-.48,.88-.18,1.28,.3,.4,.87,.49,1.28,.19l15.07-10.89c.97-.71,2.13-1.3,3.43-1.75,.6-.21,1.23-.5,1.87-.82-.35-.55-.71-1.11-1.07-1.67-.45,.22-.89,.42-1.32,.58,.56-.75,1.28-1.51,2.05-2.2,.93,1.43,1.94,2.94,2.69,4.34,1.32,2.44,2.07,4.75-.06,6.49-2.42,1.98-4.58,.59-8.09-2.13l-1.69,1.22c4.22,3.27,7.92,5.79,11.65,1.9,2.4-2.5,1.52-5.6-.16-8.65"/></g></g></svg>