<?xml version="1.0" encoding="UTF-8"?><svg id="Laag_1" xmlns="http://www.w3.org/2000/svg" xmlns:xlink="http://www.w3.org/1999/xlink" viewBox="0 0 64 64"><defs><style>.cls-1{fill:none;}.cls-2{clip-path:url(#clippath);}.cls-3{clip-path:url(#clippath-1);}</style><clipPath id="clippath"><rect class="cls-1" width="64" height="64"/></clipPath><clipPath id="clippath-1"><rect class="cls-1" width="64" height="64"/></clipPath></defs><g class="cls-2"><g class="cls-3"><path d="M55.41,18.08c-.2-.21-.45-.38-.72-.48l-11.47-4.51c-.76-.27-1.63,.05-2.02,.79-.43,.81-.12,1.82,.69,2.25,.46,.24,6.12,2.74,6.12,2.74v5.63c0,.3,.09,.59,.26,.84,.39,.58,2.1,2.37,8.21,2.63,2.11,6.78,2.07,15.51,.1,21.52-.73,2.24-2.24,5.56-4.6,5.59-3.29,.03-4.04-6.01-4.04-9.61v-4.82c0-6.42-3.9-10.56-9.92-10.56V9c0-2.76-2.24-5-5-5H9c-2.76,0-5,2.24-5,5V59H38v-25.07c3.86,0,6.07,2.45,6.07,6.71v4.82c0,5.76,1.34,9.92,3.86,12.02,1.16,.96,2.51,1.45,3.97,1.45,4.4,0,6.94-4.03,8.32-8.24,3.99-12.16,.73-26.67-4.82-32.6m-4.41,5.72v-2.76c-.72-.51-1.35-.95-1.46-1.03-.27-.19-.11-.45-.07-.49l3.41,1.51c.94,1.08,1.73,2.39,2.41,3.85-2.53-.24-3.77-.77-4.3-1.08m-17,.2H8V9c0-.55,.45-1,1-1h24c.55,0,1,.45,1,1v15Z"/></g></g></svg>