<?xml version="1.0" encoding="UTF-8"?><svg id="Laag_1" xmlns="http://www.w3.org/2000/svg" xmlns:xlink="http://www.w3.org/1999/xlink" viewBox="0 0 64 64"><defs><style>.cls-1{fill:none;}.cls-2{clip-path:url(#clippath);}.cls-3{clip-path:url(#clippath-1);}</style><clipPath id="clippath"><rect class="cls-1" width="64" height="64"/></clipPath><clipPath id="clippath-1"><rect class="cls-1" width="64" height="64"/></clipPath></defs><g class="cls-2"><g class="cls-3"><path d="M12.7,29h1.78c.98,0,1.6-.5,1.72-1.21,.99-5.6,4.51-10.33,9.33-12.99l-.51,4.01c-.09,.73,.35,1.42,1.06,1.67,.36,.12,.74,.11,1.08-.02,.31-.12,.58-.35,.76-.66l5.38-9.49c.23-.41,.26-.9,.08-1.34-.18-.44-.56-.77-1.01-.9l-10.66-3.14c-.71-.21-1.47,.11-1.8,.76-.33,.65-.15,1.45,.44,1.91l3.27,2.54c-6.47,3.37-11.2,9.66-12.4,17.11-.15,.91,.56,1.75,1.49,1.75M58.41,12.41l-7.83-7.83c-.38-.38-.88-.59-1.42-.59h-11.17c-1.1,0-2,.9-2,2V31c0,1.1,.9,2,2,2h19c1.1,0,2-.9,2-2V13.83c0-.53-.21-1.04-.59-1.41m-2.41,17.59h-17V7h10v5c0,1.1,.9,2,2,2h5V30Zm-4.68,5h-1.78c-.98,0-1.6,.5-1.73,1.21-.99,5.6-4.5,10.33-9.33,12.99l.51-4.01c.09-.73-.35-1.43-1.06-1.67-.36-.12-.74-.11-1.08,.02-.31,.12-.58,.35-.76,.66l-5.38,9.49c-.23,.41-.26,.9-.08,1.34,.18,.44,.56,.77,1.01,.9l10.66,3.14c.71,.21,1.47-.11,1.8-.76,.33-.65,.15-1.45-.44-1.91l-3.27-2.54c6.48-3.37,11.2-9.66,12.4-17.11,.15-.91-.56-1.75-1.49-1.75m-31.74-3.41c-.38-.38-.88-.59-1.41-.59H7c-1.1,0-2,.9-2,2v25c0,1.1,.9,2,2,2H26c1.1,0,2-.9,2-2v-17.17c0-.53-.21-1.04-.59-1.42l-7.83-7.83Zm5.41,25.41H8v-23h10v5c0,1.1,.9,2,2,2h5v16Z"/></g></g></svg>