<?xml version="1.0" encoding="UTF-8"?><svg id="Laag_1" xmlns="http://www.w3.org/2000/svg" xmlns:xlink="http://www.w3.org/1999/xlink" viewBox="0 0 64 64"><defs><style>.cls-1{fill:none;}.cls-2{clip-path:url(#clippath);}.cls-3{clip-path:url(#clippath-1);}</style><clipPath id="clippath"><rect class="cls-1" width="64" height="64"/></clipPath><clipPath id="clippath-1"><rect class="cls-1" width="64" height="64"/></clipPath></defs><g class="cls-2"><g class="cls-3"><path d="M44.72,35.16c-2.04-5.65-7.08-11.09-10.45-14.28,1.11-.35,1.73-1.5,1.73-2.88,0-1.66-.89-3-2.45-3h-.7c.92-1.11,2.73-2.92,3.3-4.26,1.22-2.86-1.94-3.57-6.16-4.74V2.6c0-3.94-14.47,1.46-13.25,5.8,.72,2.55,2.42,5.21,3.41,6.6h-.71c-1.56,0-2.45,1.34-2.45,3s.89,3,2.45,3h5.97c.02,.06,.07,.26-.25,.36-.2,.06-5.08,.99-8.58,1.64-4.02,4.18-8.87,10.37-9.2,16.25-.39,7.06,2.61,11.74,2.61,11.74l-2.61,4.18c-1.04,1.66,.16,3.82,2.12,3.82h25.78c-.23-2.63-.29-5.65-.29-8,0-3.21,.1-7.66,.6-10.67,.4-2.42,2.3-4.32,4.73-4.73,1.27-.21,2.81-.35,4.39-.44m-12.58,14.5h0c-1.66,.39-2.45,.48-4.05,.48-4.2,0-7.16-2.05-8.04-6.53h-2.06v-2.3h1.81v-.64c0-.54,0-1.12,.06-1.63h-1.88v-2.33h2.24c1.09-4.53,4.17-6.83,8.37-6.83,1.18,0,2.12,.09,3.39,.36v3.17c-1.48-.27-2.27-.39-3.48-.39-2.3,0-3.81,1.24-4.48,3.69h5.5v2.33h-5.89c-.03,.42-.03,.85-.03,1.27,0,.36,0,.69,.03,1h5.89v2.3h-5.53c.69,2.48,2.33,3.51,4.32,3.51,1.42,0,2.24-.12,3.81-.45v2.99Z"/><path d="M55.79,51.93c-.85,0-1.02,.98-1.02,1.8,0,1.63,.51,1.85,1,1.85,.71,0,1.06-.55,1.06-1.64,0-1.8-.6-2.01-1.04-2.01"/><path d="M46.22,46.31c-.86,0-1.04,.98-1.04,1.8,0,1.63,.52,1.85,1.02,1.85,.86,0,1.04-.89,1.04-1.64,0-1.8-.58-2.01-1.02-2.01"/><path d="M63.44,40.83c-.19-1.17-1.09-2.07-2.26-2.26-3.39-.57-9.04-.57-10.17-.57s-6.78,0-10.17,.57c-1.17,.19-2.06,1.09-2.26,2.26-.57,3.39-.57,9.04-.57,10.17s0,6.78,.57,10.17c.2,1.17,1.09,2.07,2.26,2.26,3.39,.57,9.04,.57,10.17,.57s6.78,0,10.17-.57c1.17-.2,2.07-1.09,2.26-2.26,.56-3.39,.56-9.04,.56-10.17,0-3.39,0-6.78-.56-10.17m-20.58,7.45c0-2.9,1.84-3.92,3.42-3.92,2.09,0,3.29,1.37,3.29,3.77,0,2.62-1.78,3.81-3.44,3.81-1.49,0-3.27-.63-3.27-3.65m6.43,9.73l-1.84-.73,5.23-13.28,1.84,.73-5.23,13.28Zm6.4-.45c-1.49,0-3.27-.63-3.27-3.65s1.84-3.92,3.42-3.92c2.09,0,3.29,1.37,3.29,3.77,0,2.63-1.73,3.81-3.44,3.81"/></g></g></svg>