<?xml version="1.0" encoding="UTF-8"?><svg id="Laag_1" xmlns="http://www.w3.org/2000/svg" xmlns:xlink="http://www.w3.org/1999/xlink" viewBox="0 0 64 64"><defs><style>.cls-1{fill:none;}.cls-2{clip-path:url(#clippath);}.cls-3{clip-path:url(#clippath-1);}</style><clipPath id="clippath"><rect class="cls-1" width="64" height="64"/></clipPath><clipPath id="clippath-1"><rect class="cls-1" width="64" height="64"/></clipPath></defs><g class="cls-2"><g class="cls-3"><path d="M45.07,24.04c-.36,2.17,.59,3.58,2.58,3.91,1.98,.33,3.36-.88,3.69-2.88,.37-2.28-.63-3.7-2.56-4.02-2.04-.33-3.37,.93-3.71,2.99"/><path d="M15.21,49.31c1,.75,3.1,2.42,4.83,2.42,1.92,0,4.3-2.03,6-3.3,1.87,1.4,4.13,3.3,6,3.3s4.3-2.03,6-3.3c1.88,1.41,2.86,2.2,4.08,2.78,4.63-3.09,6.93-5.49,7.98-6.83,.38-.48,.03-1.2-.59-1.21-5.14-.07-9.97,.33-14.3,.97l1.38-3.15h6.41c1.3,0,2.55-.57,3.36-1.59,1.86-2.35,2.98-4.62,3.65-6.44,.71-1.93-.8-3.97-3.42-3.97h-11.6c0,1.4,1.05,2.57,2.44,2.72l6.01,.64-2.64,4.64h-4.97c-1.03,0-1.96,.59-2.41,1.51l-3.12,6.47c-2.41,.48-4.61,1-6.55,1.53l8.77-15.73-6.7-1.42c-.31-.07-.27-.31-.25-.36h7.95L47.45,4.02c.29-.52-.23-1.13-.79-.92C21.4,12.66,7.5,30.2,7.5,30.2l12.23,17.51c-2.13,.68-3.68,1.27-4.51,1.61"/><path d="M56.04,53.94c-2.46,0-4.92-1.94-6-2.75-1,.75-3.49,2.75-6,2.75s-4.92-1.94-6-2.75c-1,.75-3.49,2.75-6,2.75s-4.92-1.94-6-2.75c-1,.75-3.49,2.75-6,2.75s-4.92-1.94-6-2.75c-1,.75-3.49,2.75-6,2.75-1.02,0-2.12-.39-3.04-.83v4.22c.94,.3,1.98,.52,3.04,.52,2.4,0,4.66-1.08,6-1.86,1.34,.79,3.6,1.86,6,1.86s4.66-1.08,6-1.86c1.34,.79,3.6,1.86,6,1.86s4.66-1.08,6-1.86c1.34,.79,3.6,1.86,6,1.86s4.66-1.08,6-1.86c1.34,.79,3.6,1.86,6,1.86,1.03,0,2.04-.2,2.96-.49v-4.2c-.9,.42-1.97,.79-2.96,.79"/></g></g></svg>