<?xml version="1.0" encoding="UTF-8"?><svg id="Laag_1" xmlns="http://www.w3.org/2000/svg" xmlns:xlink="http://www.w3.org/1999/xlink" viewBox="0 0 64 64"><defs><style>.cls-1{fill:none;}.cls-2{clip-path:url(#clippath);}.cls-3{clip-path:url(#clippath-1);}</style><clipPath id="clippath"><rect class="cls-1" width="64" height="64"/></clipPath><clipPath id="clippath-1"><rect class="cls-1" width="64" height="64"/></clipPath></defs><g class="cls-2"><g class="cls-3"><path d="M54.06,3.8c-14.82-6.76-22.06,7.78-22.06,7.78,0,0-7.24-14.54-22.06-7.78C-4.68,10.46-3.7,43.55,30.55,61.97c.9,.48,2,.48,2.9,0C67.7,43.55,68.68,10.46,54.06,3.8m-14.33,32.86c.31,.69,.18,1.09-.05,2.82-.15,1.12-1.27,10.88-1.47,12.35h-1.27c.13-1.37,1.22-14.22,1.23-14.28,.03-.24-.14-.3-.29-.3h-.58c-1.05,0-1.64-.74-1.64-1.82h1.89c-.26-.21-.51-.49-.74-.85-.4-.61-1.52-1.96-2.11-3.95-.12-.43-.2-.83-.28-1.19-1.01,2.14-2.21,4.73-2.99,6.66,1.93,4.22,1.9,4.97,2.05,6.14,.42,3.73,.57,5.51,.93,9.59-.11,.01-2.64,.26-3.28-2.49-.68-2.89-1.14-5.02-1.65-7.19-.02-.12-.15-.39-.36-.72-.67-1.07-1.87-2.82-2.2-3.33-.08-.01-.15,.12-.08,.28,.6,1.38,1.55,3.57,1.55,3.57,0,0-.77,9.62-.79,9.88-.33-.06-2.56-.6-2.59-3.25,0-.61-.13-12.31-.24-14.28-.09-.89-.07-2.01,.48-3.28,.77-1.75,3.29-7.34,6.03-8.21,1.97-.62,4.82,1.05,5.07,2.3,.14,.72,.45,3.48,.77,4.89,.4,1.52,.87,2.16,2.97,6,0,0-.31,.1-.75,.1,.15,.16,.29,.35,.39,.57m-1.22-17.67c-.02,.14-.03,.38-.06,.52-.4,1.81-1.71,2.84-3.51,2.45-1.8-.4-2.59-1.73-2.16-3.69v-.03h0s.49-3.05,1.91-3.24c1.41-.19,5.94,2.59,5.77,3.46-.11,.55-1.18,.59-1.94,.54"/></g></g></svg>