<?xml version="1.0" encoding="UTF-8"?><svg id="Laag_1" xmlns="http://www.w3.org/2000/svg" xmlns:xlink="http://www.w3.org/1999/xlink" viewBox="0 0 64 64"><defs><style>.cls-1{fill:none;}.cls-2{clip-path:url(#clippath);}.cls-3{clip-path:url(#clippath-1);}</style><clipPath id="clippath"><rect class="cls-1" width="64" height="64"/></clipPath><clipPath id="clippath-1"><rect class="cls-1" width="64" height="64"/></clipPath></defs><g class="cls-2"><g class="cls-3"><path d="M32,3C15.98,3,3,15.98,3,32s12.98,29,29,29,29-12.98,29-29S48.02,3,32,3m0,6.78c10.12,0,18.68,6.81,21.35,16.08l-11.72-1.02c.49,1.33,1.03,4.29,.61,5.44-.07,.2-.24,.31-.35,.31-.68-4.86-4.84-8.6-9.89-8.6-2.57,0-4.91,.98-6.68,2.58l-14.66,1.28c2.67-9.27,11.23-16.07,21.35-16.07m0,27.47c-2.9,0-5.25-2.35-5.25-5.25s2.35-5.25,5.25-5.25,5.25,2.35,5.25,5.25-2.35,5.25-5.25,5.25m-21.96-1.84c2.71,.01,16.63,.55,16.96,10.59,.08,2.53,.07,5.59,.04,7.65-8.78-2.01-15.6-9.24-17-18.24m26.92,18.24c-.03-2.06-.04-5.12,.04-7.65,.33-10.04,14.25-10.58,16.96-10.59-1.39,9-8.21,16.23-17,18.24"/></g></g></svg>