<?xml version="1.0" encoding="UTF-8"?><svg id="Laag_1" xmlns="http://www.w3.org/2000/svg" xmlns:xlink="http://www.w3.org/1999/xlink" viewBox="0 0 64 64"><defs><style>.cls-1{fill:none;}.cls-2{clip-path:url(#clippath);}.cls-3{clip-path:url(#clippath-1);}</style><clipPath id="clippath"><rect class="cls-1" width="64" height="64"/></clipPath><clipPath id="clippath-1"><rect class="cls-1" width="64" height="64"/></clipPath></defs><g class="cls-2"><g class="cls-3"><path d="M23.94,25.9c-1.22-1.65-1.94-3.69-1.94-5.9s.75-4.29,1.99-5.96l-3.22-2.36c-1.73,2.33-2.77,5.2-2.77,8.32s1.02,5.94,2.72,8.25l3.23-2.36Z"/><path d="M40.06,25.9l3.22,2.36c1.7-2.32,2.72-5.17,2.72-8.25s-1.04-5.99-2.77-8.32l-3.22,2.36c1.24,1.67,1.99,3.73,1.99,5.96s-.73,4.24-1.94,5.9"/><path d="M49.7,6.95l-3.24,2.37c2.22,2.99,3.54,6.68,3.54,10.68s-1.31,7.63-3.49,10.61l3.24,2.37c2.67-3.64,4.25-8.13,4.25-12.98s-1.6-9.39-4.3-13.05"/><path d="M14.3,6.95c-2.7,3.65-4.3,8.17-4.3,13.05s1.58,9.34,4.25,12.98l3.24-2.37c-2.19-2.98-3.49-6.64-3.49-10.61s1.33-7.69,3.54-10.68l-3.24-2.37Z"/><path d="M11.07,4.59l-3.23-2.36C4.18,7.21,2,13.35,2,20s2.16,12.73,5.8,17.7l3.23-2.36c-3.16-4.3-5.03-9.61-5.03-15.34s1.89-11.09,5.07-15.41"/><path d="M56.15,2.23l-3.23,2.36c3.19,4.32,5.07,9.65,5.07,15.41s-1.87,11.04-5.03,15.34l3.23,2.36c3.64-4.97,5.8-11.08,5.8-17.7s-2.17-12.79-5.85-17.77"/><path d="M36,20c0-2.21-1.79-4-4-4s-4,1.79-4,4c0,1.14,.48,2.16,1.24,2.88l-11.7,38.12h3.14l1.23-4h20.18l1.23,4h3.14l-11.69-38.12c.76-.73,1.24-1.75,1.24-2.88m2.1,24l2.66,8.68-14.21-8.68h11.54Zm-11.28-3l1.5-4.89,5.98,4.89h-7.48Zm2.45-7.99h5.46l1.83,5.96-7.29-5.96Zm.92-3.01l1.81-5.89,1.81,5.89h-3.61Zm-5.1,16.62l12.07,7.38h-14.34l2.26-7.38Z"/></g></g></svg>