<?xml version="1.0" encoding="UTF-8"?><svg id="Laag_1" xmlns="http://www.w3.org/2000/svg" xmlns:xlink="http://www.w3.org/1999/xlink" viewBox="0 0 64 64"><defs><style>.cls-1{fill:none;}.cls-2{clip-path:url(#clippath);}.cls-3{clip-path:url(#clippath-1);}</style><clipPath id="clippath"><rect class="cls-1" width="64" height="64"/></clipPath><clipPath id="clippath-1"><rect class="cls-1" width="64" height="64"/></clipPath></defs><g class="cls-2"><g class="cls-3"><path d="M7,23V56c0,.55,.45,1,1,1H56c.55,0,1-.45,1-1V23c0-.55-.45-1-1-1H8c-.55,0-1,.45-1,1m18,7h14v7h-14v-7Zm17,20.5c0,.83-.67,1.5-1.5,1.5H23.5c-.83,0-1.5-.67-1.5-1.5v-3.5c0-.83,.67-1.5,1.5-1.5s1.5,.67,1.5,1.5v2h14v-2c0-.83,.67-1.5,1.5-1.5s1.5,.67,1.5,1.5v3.5Z"/><path d="M51,16H13c-.55,0-1,.45-1,1v3H52v-3c0-.55-.45-1-1-1"/><path d="M46,10H18c-.55,0-1,.45-1,1v3h30v-3c0-.55-.45-1-1-1"/></g></g></svg>