<?xml version="1.0" encoding="UTF-8"?><svg id="Laag_1" xmlns="http://www.w3.org/2000/svg" xmlns:xlink="http://www.w3.org/1999/xlink" viewBox="0 0 64 64"><defs><style>.cls-1{fill:none;}.cls-2{clip-path:url(#clippath);}.cls-3{clip-path:url(#clippath-1);}</style><clipPath id="clippath"><rect class="cls-1" width="64" height="64"/></clipPath><clipPath id="clippath-1"><rect class="cls-1" width="64" height="64"/></clipPath></defs><g class="cls-2"><g class="cls-3"><path d="M11.97,48c-1.66,.02-2.99,1.37-2.97,3.03,.02,1.66,1.37,2.99,3.03,2.97,1.66-.02,2.99-1.37,2.97-3.03-.01-1.66-1.37-2.99-3.03-2.97"/><path d="M31.97,50c-1.66,.02-2.99,1.37-2.97,3.03,.02,1.66,1.37,2.99,3.03,2.97,1.66-.02,2.99-1.37,2.97-3.03-.01-1.66-1.37-2.99-3.03-2.97"/><path d="M42.97,55c-1.66,.02-2.99,1.37-2.97,3.03,.02,1.66,1.37,2.99,3.03,2.97,1.66-.02,2.99-1.37,2.97-3.03-.01-1.66-1.37-2.99-3.03-2.97"/><path d="M51.97,48c-1.66,.02-2.99,1.37-2.97,3.03,.02,1.66,1.37,2.99,3.03,2.97,1.66-.02,2.99-1.37,2.97-3.03-.01-1.66-1.37-2.99-3.03-2.97"/><path d="M20.97,55c-1.66,.02-2.99,1.37-2.97,3.03,.02,1.66,1.37,2.99,3.03,2.97,1.66-.02,2.99-1.37,2.97-3.03-.01-1.66-1.37-2.99-3.03-2.97"/><path d="M44,45.97c-.02-1.66-1.37-2.99-3.03-2.97-1.66,.02-2.99,1.37-2.97,3.03,.02,1.66,1.37,2.99,3.03,2.97,1.66-.02,2.99-1.37,2.97-3.03"/><path d="M22.97,43c-1.66,.02-2.99,1.37-2.97,3.03,.02,1.66,1.37,2.99,3.03,2.97,1.66-.02,2.99-1.37,2.97-3.03-.01-1.66-1.37-2.99-3.03-2.97"/><path d="M38.43,10.37l-5.65-6.58c-.2-.23-.5-.36-.81-.36-.31,0-.61,.14-.81,.37l-5.58,6.63c-.32,.38-.29,.91,.05,1.26,.35,.35,.91,.41,1.34,.15l3.04-1.91c.02,2.35,.85,3.89,1.5,5.08,.49,.9,.75,1.4,.76,2.04,0,.61-.52,1.17-1.38,2.04-1.09,1.1-2.58,2.61-2.56,4.95,.02,2.32,1.53,3.83,2.63,4.93,.89,.89,1.43,1.46,1.43,2.08,0,.76-.36,1.3-1.07,2.25-.84,1.14-1.89,2.55-1.87,4.73,.02,2.4,1.13,4.63,1.26,4.88,.35,.69,1.06,1.09,1.78,1.09,.31,0,.62-.07,.91-.22,.98-.5,1.37-1.71,.87-2.69-.21-.41-.81-1.85-.82-3.1,0-.8,.37-1.34,1.08-2.31,.83-1.13,1.87-2.53,1.85-4.67-.02-2.29-1.45-3.72-2.61-4.87-.9-.9-1.45-1.48-1.46-2.14,0-.64,.53-1.22,1.4-2.1,1.08-1.09,2.55-2.59,2.53-4.89-.02-1.67-.67-2.87-1.25-3.92-.55-1-1.01-1.85-1.02-3.19l3.07,1.89c.43,.26,.99,.19,1.33-.16,.34-.35,.36-.89,.04-1.26"/><path d="M56.47,13.2l-5.65-6.58c-.2-.23-.5-.36-.81-.36-.31,0-.61,.14-.81,.37l-5.58,6.63c-.32,.38-.29,.91,.05,1.26,.35,.35,.91,.41,1.33,.15l3.03-1.91c-.1,3.22,.76,4.7,1.75,6.01,.42,.56,.5,.68,.51,1.11,0,.61-.52,1.17-1.38,2.04-1.09,1.1-2.58,2.61-2.56,4.95,.02,2.32,1.53,3.83,2.63,4.93,.88,.89,1.43,1.46,1.43,2.08,0,.54-.16,.82-.64,1.53-.86,1.28-2.04,3.03-1.24,6.84,.2,.94,1.03,1.59,1.96,1.59,.14,0,.27-.01,.41-.04,1.08-.23,1.77-1.29,1.55-2.37-.45-2.15-.01-2.8,.65-3.78,.57-.84,1.34-1.99,1.32-3.8-.02-2.29-1.46-3.72-2.61-4.87-.9-.9-1.45-1.48-1.46-2.14,0-.64,.53-1.22,1.4-2.1,1.08-1.09,2.56-2.59,2.53-4.89-.02-1.76-.76-2.75-1.31-3.48-.51-.68-1.04-1.39-.94-3.63l3.06,1.89c.43,.26,.99,.19,1.33-.16,.34-.35,.36-.89,.04-1.26"/><path d="M18.42,34.18c-.02-2.29-1.45-3.72-2.61-4.87-.9-.9-1.45-1.48-1.46-2.14,0-.64,.53-1.22,1.4-2.1,1.08-1.09,2.56-2.59,2.53-4.89-.02-1.76-.77-2.75-1.31-3.48-.52-.69-1.04-1.39-.94-3.65l3.09,1.9c.43,.26,.99,.19,1.33-.16,.34-.35,.36-.89,.04-1.26l-5.65-6.58c-.2-.23-.49-.36-.81-.36-.31,0-.61,.14-.81,.37l-5.58,6.63c-.32,.38-.29,.91,.05,1.26,.35,.35,.91,.41,1.34,.15l3-1.89c-.1,3.21,.76,4.68,1.75,5.99,.42,.56,.5,.68,.51,1.11,0,.61-.52,1.17-1.38,2.04-1.09,1.1-2.58,2.61-2.56,4.95,.02,2.32,1.53,3.83,2.63,4.93,.89,.88,1.43,1.46,1.43,2.08,0,.54-.16,.82-.64,1.53-.86,1.28-2.04,3.03-1.24,6.84,.2,.94,1.03,1.59,1.95,1.59,.14,0,.27-.01,.41-.04,1.08-.23,1.77-1.29,1.55-2.37-.45-2.15-.01-2.8,.65-3.78,.56-.84,1.34-1.99,1.32-3.8"/></g></g></svg>