<?xml version="1.0" encoding="UTF-8"?><svg id="Laag_1" xmlns="http://www.w3.org/2000/svg" xmlns:xlink="http://www.w3.org/1999/xlink" viewBox="0 0 64 64"><defs><style>.cls-1{fill:none;}.cls-2{clip-path:url(#clippath);}.cls-3{clip-path:url(#clippath-1);}</style><clipPath id="clippath"><rect class="cls-1" width="64" height="64"/></clipPath><clipPath id="clippath-1"><rect class="cls-1" width="64" height="64"/></clipPath></defs><g class="cls-2"><g class="cls-3"><path d="M43.58,7.83c-7.68-1.11-15.41-1.11-23.09,0-1.98,.29-3.49,2.13-3.49,4V52.17c0,1.87,1.59,3.7,3.57,4,7.68,1.11,15.33,1.11,23.01,0,1.98-.29,3.42-2.13,3.42-4V11.83c0-1.87-1.44-3.7-3.42-4m-11.58,46.32c-1.46,0-2.65-1.19-2.65-2.65s1.19-2.65,2.65-2.65,2.65,1.19,2.65,2.65-1.19,2.65-2.65,2.65m11-8.15H21V14h22V46Z"/><path d="M15.06,25.47l-2.31-3.26c-2.57,1.86-4.25,4.88-4.25,8.29s1.68,6.43,4.25,8.29l2.31-3.26c-1.55-1.14-2.56-2.97-2.56-5.03s1.01-3.89,2.56-5.03"/><path d="M4.5,30.5c0-4.76,2.35-8.97,5.94-11.56l-2.31-3.26C3.52,19,.5,24.4,.5,30.5s3.02,11.5,7.64,14.82l2.31-3.26c-3.59-2.59-5.94-6.8-5.94-11.56"/><path d="M51.25,22.21l-2.31,3.26c1.55,1.14,2.56,2.97,2.56,5.03s-1.01,3.89-2.56,5.03l2.31,3.26c2.57-1.86,4.25-4.88,4.25-8.29s-1.68-6.43-4.25-8.29"/><path d="M55.86,15.68l-2.31,3.26c3.59,2.59,5.95,6.8,5.95,11.56s-2.35,8.97-5.95,11.56l2.31,3.26c4.62-3.31,7.64-8.71,7.64-14.82s-3.02-11.5-7.64-14.82"/><polygon points="27.27 28.31 29.59 34.97 32.88 34.97 32.88 25.02 30.73 25.02 30.73 31.68 28.39 25.02 25.11 25.02 25.11 34.97 27.27 34.97 27.27 28.31"/><polygon points="39.99 33 36.8 33 36.8 25.02 34.42 25.02 34.42 34.97 39.99 34.97 39.99 33"/></g></g></svg>