<?xml version="1.0" encoding="UTF-8"?><svg id="Laag_1" xmlns="http://www.w3.org/2000/svg" xmlns:xlink="http://www.w3.org/1999/xlink" viewBox="0 0 64 64"><defs><style>.cls-1{fill:none;}.cls-2{clip-path:url(#clippath);}.cls-3{clip-path:url(#clippath-1);}</style><clipPath id="clippath"><rect class="cls-1" width="64" height="64"/></clipPath><clipPath id="clippath-1"><rect class="cls-1" width="64" height="64"/></clipPath></defs><g class="cls-2"><g class="cls-3"><path d="M52,33.17v-1.2c0-.45-.19-.88-.52-1.19L32.54,12.86c-.31-.28-.78-.28-1.08,0L12.52,30.79c-.33,.31-.52,.74-.52,1.19v1.2c0,.45,.36,.81,.8,.81h3.2v16.87h32v-16.87h3.2c.44,0,.8-.36,.8-.81m-18.04,11.73c-.72,.42-1.55,.57-2.37,.44l-3.66-.81c-.32-.05-.66-.02-.96,.11l-2.67,1.08-2.06-3.97s.31-.34,1.44-1.06c1.2-.77,2.61-1.15,4.07-.94,1.05,.15,1.93,.21,2.85,.23,.93,.03,1.9,.02,3.13,.07,.72,.02,1.04,.3,1.05,.75,.01,.47-.38,.79-.96,1.01-1.67,.6-4.97,.34-5.44,.28-.02,.05-.05,.27,.21,.36,.36,.13,2.03,.84,4.79,.68,1.08-.06,2.89-.84,2.62-2.42,1.06-.32,1.79-.48,2.83-.75,2.14-.55,2.41,.73,2.41,.73l-7.3,4.22Zm9.04-7.9c0,.55-.45,1-1,1H22c-.55,0-1-.45-1-1v-1h2c0-4.73,3.65-8.59,8.28-8.96-.31-.23-.52-.58-.52-.99,0-.69,.56-1.25,1.25-1.25s1.25,.56,1.25,1.25c0,.41-.22,.76-.53,.99,4.63,.37,8.28,4.24,8.28,8.96h2v1Zm-33-3.83v-1.2c0-1,.42-1.97,1.15-2.65l9.98-9.44-3.92-3.71c-.24-.23-.61-.23-.86,0L1.41,30.32c-.26,.24-.41,.58-.41,.94v.95c0,.35,.28,.64,.63,.64h2.53v13.16H14v-10.02h-1.2c-1.54,0-2.8-1.26-2.8-2.81m52.57-2.86l-14.95-14.15c-.24-.23-.61-.23-.86,0l-3.91,3.7,10,9.46c.73,.68,1.15,1.65,1.15,2.65v1.2c0,1.55-1.26,2.81-2.8,2.81h-1.2v10.02h9.82v-13.16h2.53c.35,0,.63-.28,.63-.64v-.95c0-.36-.15-.7-.41-.94"/></g></g></svg>