<?xml version="1.0" encoding="UTF-8"?><svg id="Laag_1" xmlns="http://www.w3.org/2000/svg" xmlns:xlink="http://www.w3.org/1999/xlink" viewBox="0 0 64 64"><defs><style>.cls-1{fill:none;}.cls-2{clip-path:url(#clippath);}.cls-3{clip-path:url(#clippath-1);}</style><clipPath id="clippath"><rect class="cls-1" width="64" height="64"/></clipPath><clipPath id="clippath-1"><rect class="cls-1" width="64" height="64"/></clipPath></defs><g class="cls-2"><g class="cls-3"><path d="M16.06,11c-4.98,0-9.02,4.02-9.06,9h16V53h17V11H16.06Z"/><path d="M47.94,11h-5.94v9h15c-.03-4.98-4.08-9-9.06-9"/><rect x="42" y="22" width="15" height="9"/><rect x="42" y="33" width="15" height="9"/><path d="M16.06,53h4.94v-9H7c.03,4.98,4.07,9,9.06,9"/><path d="M42,53h5.94c4.98,0,9.03-4.02,9.06-9h-15v9Z"/><rect x="7" y="33" width="14" height="9"/><rect x="7" y="22" width="14" height="9"/></g></g></svg>