<?xml version="1.0" encoding="UTF-8"?><svg id="Laag_1" xmlns="http://www.w3.org/2000/svg" xmlns:xlink="http://www.w3.org/1999/xlink" viewBox="0 0 64 64"><defs><style>.cls-1{fill:none;}.cls-2{clip-path:url(#clippath);}.cls-3{clip-path:url(#clippath-1);}</style><clipPath id="clippath"><rect class="cls-1" width="64" height="64"/></clipPath><clipPath id="clippath-1"><rect class="cls-1" width="64" height="64"/></clipPath></defs><g class="cls-2"><g class="cls-3"><path d="M11.65,45.14c-.07,.13,.02,.29,.17,.29,.78,.03,2.98,0,6.01-.84l2.12-3.72c.56-.96,1.37-1.72,2.35-2.2l16.48-8.08c-.15-.71-.32-1.54-.45-2.26-.21-1.12,.07-2.2,.78-3.06,.72-.87,1.83-1.39,2.96-1.39,.9,0,1.72,.34,2.33,.92,4.55-6.58,5.51-12.07,5.68-13.38,.02-.15-.12-.26-.26-.22-4.15,1.3-10.06,4.98-15.15,11.17,.03-9.21-2.79-17.08-5.84-21.33-.08-.11-.24-.11-.32,0-3.08,4.29-5.87,12.14-5.84,21.33-5.07-6.15-10.98-9.86-15.16-11.17-.14-.04-.28,.07-.26,.22,.7,5.34,4.27,13.01,10.75,19.44-4.7-.96-10.08-.87-14.01,.72-.14,.06-.17,.23-.06,.33,2.9,2.61,8.31,5.12,14.75,5.69-4.52,3.23-6.53,6.58-7.05,7.54"/><path d="M60.17,35.51c-.73-1.49-4.01-8.19-4.75-9.68-.78-1.58-3.04-.63-2.74,1.01,.34,1.91,.57,2.82,.57,2.82l-5.45,2.67s.22,1.61,.59,4.43c.04,.27-.13,.32-.18,.32,0,0-4.21-8.58-5.1-10.41-.6-1.22-2.92-.45-2.6,1.25,.31,1.66,.8,3.88,.8,3.88l-18.02,8.84c-.59,.29-1.08,.75-1.41,1.31l-3.93,6.89-10.88,5.57,2.71,.93,9.24-4.3,7.88,1.14c.65,.09,1.32-.02,1.91-.31l18.02-8.83s1.46,1.75,2.58,3.01c1.15,1.29,3.18-.07,2.58-1.29-.9-1.83-2-4.08-3.16-6.44l7.01-3.43s.58,.73,1.88,2.17c1.11,1.24,3.26,.03,2.48-1.55m-18.83,6.47l-1.47-2.99-1.87,1.85,1.1,2.24-2.24,1.1-1.46-2.99-1.88,1.85,1.1,2.24-2.24,1.1-1.46-2.99-1.88,1.85,1.1,2.24-2.24,1.1-2.56-5.23,17.18-8.42,2.56,5.23-3.73,1.83Z"/><path d="M34.93,53c-3.36,.05-5.96,1.64-5.93,3.6,0,.29,.02,1.69,.02,1.98,.03,1.97,2.68,3.47,6.04,3.42,3.36-.05,5.96-1.64,5.93-3.61,0-.29-.02-1.69-.03-1.98-.03-1.97-2.68-3.47-6.04-3.41"/><path d="M49.93,49c-3.36,.05-5.96,1.64-5.93,3.6,0,.29,.02,1.69,.03,1.98,.03,1.97,2.68,3.47,6.04,3.42,3.36-.05,5.96-1.64,5.93-3.61,0-.29-.02-1.69-.03-1.98-.03-1.97-2.68-3.47-6.04-3.41"/></g></g></svg>