<?xml version="1.0" encoding="UTF-8"?><svg id="Laag_1" xmlns="http://www.w3.org/2000/svg" xmlns:xlink="http://www.w3.org/1999/xlink" viewBox="0 0 64 64"><defs><style>.cls-1{fill:none;}.cls-2{clip-path:url(#clippath);}.cls-3{clip-path:url(#clippath-1);}</style><clipPath id="clippath"><rect class="cls-1" width="64" height="64"/></clipPath><clipPath id="clippath-1"><rect class="cls-1" width="64" height="64"/></clipPath></defs><g class="cls-2"><g class="cls-3"><path d="M24.72,53.01c-1.41-1.54-1.56-3.89-.34-5.59l.32-.45c-2.24-1.98-4.82-4.9-4.48-7.64,.24-1.91,.04-.55,.82-5.44-2.28-2.2-4.1-4.87-4.1-8.06-1.62-.5-2.04-2.55-2.04-3.82s.32-1.96,.77-2.17c.39-.18,.77-.05,1.01,.09,.14,.65,.25,1.14,.29,1.31,.21,.85,1.02,.77,1.02,.77v-6.75c2.07-.15,6.19-.75,10.75-3.11l5.25,3.53v6.33s.82,.08,1.02-.77c.04-.17,.15-.66,.29-1.31,.24-.14,.62-.27,1.01-.09,.45,.21,.77,.9,.77,2.17s-.42,3.32-2.04,3.82c0,3.7-2.53,6.5-5.34,8.88-.78,.66-2.25,1.11-3.72,1.11-1.06,0-2.13-.29-2.93-.64,.61,.93,1.66,2.07,3.58,2.58,.71,.19,3.13,.6,4.94-.66,1.47-1.02,3.41-3.24,4.48-4.79,.97-1.56,1.6-3.14,1.85-4.76,1.33-1.22,2.07-3.17,2.07-5.56,0-.74,0-2.7-1.23-4.04,.3-3.34,.51-8.5-.79-10.59-1.6-2.56-3.55-3.81-7.26-2.98-2.44-1.16-4.09-1.88-8.36-.84-2.97,.72-6.21,1.91-7.92,3.88-1.65,1.91-1.54,7.22-1.27,10.6-1.16,1.33-1.16,3.23-1.16,3.96,0,2.39,.74,4.33,2.06,5.55,.38,2.51,1.61,4.91,3.71,7.26-.11,.81-.23,1.75-.35,2.73-2.51,.74-9.67,3-12.03,5.57-2.87,3.12-4.39,14.89-4.39,14.89H30.35c-.69-1.12-1.25-2.33-1.67-3.61-1.44,.22-2.94-.27-3.96-1.39"/><path d="M62.92,47.15c-.4-.44-1.05-.53-1.56-.23l-2.4,1.42c-.35-7.41-6.47-13.34-13.97-13.34-4.23,0-8.02,1.89-10.59,4.87,.55,.25,1.04,.62,1.4,1.12l1.32,1.85c1.83-2.34,4.67-3.85,7.87-3.85,5.28,0,9.6,4.11,9.97,9.3l-2.33-1.38c-.51-.3-1.16-.2-1.56,.23-.4,.44-.44,1.09-.1,1.57l5,7c.24,.33,.61,.52,1.02,.52s.78-.2,1.02-.52l5-7c.34-.48,.3-1.14-.1-1.57"/><path d="M54.19,57.01l-1.32-1.85c-1.83,2.34-4.67,3.85-7.87,3.85-5.28,0-9.6-4.11-9.97-9.3l2.33,1.38c.2,.12,.42,.17,.64,.17,.34,0,.68-.14,.92-.4,.4-.44,.44-1.09,.1-1.57l-5-7c-.47-.66-1.57-.66-2.03,0l-5,7c-.34,.48-.3,1.14,.1,1.57,.4,.43,1.05,.53,1.56,.23l2.4-1.42c.35,7.41,6.47,13.34,13.97,13.34,4.23,0,8.02-1.89,10.59-4.87-.55-.25-1.04-.62-1.4-1.12"/></g></g></svg>