<?xml version="1.0" encoding="UTF-8"?><svg id="Laag_1" xmlns="http://www.w3.org/2000/svg" xmlns:xlink="http://www.w3.org/1999/xlink" viewBox="0 0 24 24"><defs><style>.cls-1{fill:none;}.cls-2{clip-path:url(#clippath);}.cls-3{clip-path:url(#clippath-1);}</style><clipPath id="clippath"><rect class="cls-1" width="24" height="24"/></clipPath><clipPath id="clippath-1"><rect class="cls-1" width="24" height="24"/></clipPath></defs><g class="cls-2"><g class="cls-3"><path d="m15.86,10.23l3.31-3.31.5,2.48c.07.35.39.6.75.59.21-.01.4-.11.52-.26.1-.11.16-.25.18-.4l.73-6.37c.02-.22-.05-.44-.21-.6-.16-.16-.38-.24-.6-.21l-6.37.73c-.17.02-.32.1-.44.21-.13.13-.21.3-.22.49-.02.36.23.68.59.75l2.48.5-3.31,3.31c-.53.53-.11,1.28.41,1.8.52.52,1.14.82,1.67.29"/><path d="m8.14,13.77l-3.31,3.31-.5-2.48c-.07-.35-.39-.6-.75-.59-.21,0-.39.11-.52.26-.1.11-.16.25-.18.4l-.73,6.37c-.03.22.05.44.21.6s.38.24.6.21l6.37-.73c.17-.02.32-.1.44-.21.13-.13.21-.3.22-.49.02-.36-.23-.68-.59-.75l-2.48-.5,3.31-3.31c.53-.53.1-1.28-.41-1.8-.52-.52-1.14-.82-1.67-.29"/></g></g></svg>