<?xml version="1.0" encoding="UTF-8"?><svg id="Laag_1" xmlns="http://www.w3.org/2000/svg" xmlns:xlink="http://www.w3.org/1999/xlink" viewBox="0 0 64 64"><defs><style>.cls-1{fill:none;}.cls-2{clip-path:url(#clippath);}.cls-3{clip-path:url(#clippath-1);}</style><clipPath id="clippath"><rect class="cls-1" width="64" height="64"/></clipPath><clipPath id="clippath-1"><rect class="cls-1" width="64" height="64"/></clipPath></defs><g class="cls-2"><g class="cls-3"><path d="M37.82,32h0c.56-1.13,.94-2.28,1.12-3.44,1.33-1.22,2.07-3.17,2.07-5.56,0-.75,0-2.7-1.23-4.04,.3-3.34,.51-8.5-.79-10.59-1.6-2.56-3.55-3.82-7.26-2.98-2.43-1.16-4.09-1.88-8.36-.84-2.96,.72-6.21,1.91-7.92,3.88-1.65,1.91-1.54,7.22-1.27,10.6-1.16,1.33-1.16,3.23-1.16,3.96,0,2.39,.74,4.33,2.06,5.55,.38,2.51,1.61,4.91,3.71,7.26-.11,.81-.23,1.75-.35,2.73-2.51,.73-9.67,3-12.03,5.57-2.87,3.12-4.39,14.89-4.39,14.89h30v-14.36c-1.28,1.95-3.19,3.68-4.62,4.7-2.3-1.75-6.59-5.53-6.16-9.02,.24-1.91,.04-.55,.82-5.44-2.28-2.2-4.1-4.87-4.1-8.06-1.62-.5-2.04-2.54-2.04-3.82s.32-1.96,.77-2.17c.39-.18,.77-.05,1.01,.09,.14,.65,.25,1.14,.29,1.31,.21,.85,1.02,.77,1.02,.77v-6.74c2.07-.15,6.19-.75,10.75-3.11l5.25,3.53v6.33s.82,.08,1.02-.77c.04-.17,.15-.66,.29-1.31,.24-.14,.62-.27,1.01-.09,.45,.21,.77,.9,.77,2.17s-.42,3.31-2.04,3.82c0,1.13-.22,2.16-1.05,2.95-.86,.83-2.3,1.3-4.1,1.35-.13-.36-.52-.62-.99-.62h-3.76c-.49,0-1.16,.5-1.16,1.5s.67,1.5,1.16,1.5h3.76c.47,0,.87-.26,1-.64,1.16-.03,2.19-.2,3.1-.52-.93,1.22-2.09,2.33-3.3,3.36-1.06,.9-3.83,1.7-6.65,.47,1.61,2.44,4.44,3.23,6.92,2.61h0c.18-.04,.63-.17,1.01-.33v-.02c2.37-1.08,4.62-4.13,5.82-6.43"/><path d="M61.84,37h-25.67c-.64,0-1.16,.45-1.16,1v18.01c0,.55,.52,1,1.16,1h8.34l-.6,2.42c-.16,.35-.52,.58-.91,.58h-1.01c-.55,0-.99,.44-.99,.99v1.01h16v-1.01c0-.55-.44-.99-.99-.99h-1.01c-.39,0-.74-.22-.91-.58l-.6-2.42h8.34c.64,0,1.16-.45,1.16-1v-18.01c0-.55-.52-1-1.16-1m-1.84,16h-22v-13h22v13Z"/><path d="M61.84,37h-25.67c-.64,0-1.16,.45-1.16,1v18.01c0,.55,.52,1,1.16,1h8.34l-.6,2.42c-.16,.35-.52,.58-.91,.58h-1.01c-.55,0-.99,.44-.99,.99v1.01h16v-1.01c0-.55-.44-.99-.99-.99h-1.01c-.39,0-.74-.22-.91-.58l-.6-2.42h8.34c.64,0,1.16-.45,1.16-1v-18.01c0-.55-.52-1-1.16-1m-1.84,16h-22v-13h22v13Z"/></g></g></svg>