<?xml version="1.0" encoding="UTF-8"?><svg id="Laag_1" xmlns="http://www.w3.org/2000/svg" viewBox="0 0 64 64"><defs><style>.cls-1{fill:none;}</style></defs><rect class="cls-1" width="64" height="64"/><path d="m53.86,14.12c-.34-2.06-1.91-3.63-3.97-3.97-5.96-.99-15.9-.99-17.88-.99s-11.92,0-17.88.99c-2.06.34-3.63,1.91-3.97,3.97-.99,5.96-.99,15.9-.99,17.88s0,11.92.99,17.88c.34,2.06,1.91,3.63,3.97,3.97,5.96.99,15.9.99,17.88.99s11.92,0,17.88-.99c2.06-.34,3.63-1.91,3.97-3.97.99-5.96.99-15.9.99-17.88,0-5.96,0-11.92-.99-17.88Zm-21.83,33.88c-2.24,0-3.52-1.21-3.52-3.46,0-1.99,1.19-3.54,3.48-3.54s3.52,1.25,3.52,3.54c0,1.95-1.19,3.46-3.48,3.46Zm5.07-17.14l-2.42,1.33c-1.4.76-2.03,1.71-2.03,2.76,0,.65.19,1.34.49,2.05h-5.05c-.44-.77-.66-1.66-.66-2.67,0-2.19,1.02-3.76,3.63-5.33l2.56-1.52c2.03-1.19,2.71-2.14,2.71-3.67,0-1.62-1.55-2.81-4.59-2.81-2.23,0-4.35.43-6.72,1.33v-4.81c2.66-1.05,5.13-1.52,8.13-1.52,5.51,0,9.09,2.86,9.09,7.14,0,3.71-1.4,5.67-5.13,7.71Z"/></svg>