<?xml version="1.0" encoding="UTF-8"?><svg id="Laag_1" xmlns="http://www.w3.org/2000/svg" xmlns:xlink="http://www.w3.org/1999/xlink" viewBox="0 0 64 64"><defs><style>.cls-1{fill:none;}.cls-2{clip-path:url(#clippath);}.cls-3{clip-path:url(#clippath-1);}</style><clipPath id="clippath"><rect class="cls-1" width="64" height="64"/></clipPath><clipPath id="clippath-1"><rect class="cls-1" width="64" height="64"/></clipPath></defs><g class="cls-2"><g class="cls-3"><path d="M61.06,39.12c-.08-.55-.59-.93-1.13-.85l-2.97,.43-.43-2.97c-.08-.55-.59-.93-1.13-.85l-1.12,.16c.04-.57-.01-1.2-.21-1.91-1.01-3.7-1.95-5.68-2.48-8.26-1.18-5.72-3-8.17-6.29-9.18-1.57-.48-3.06-.7-4.76-.7h-.06c-1.7,0-3.2,.22-4.76,.7-1.16,.36-2.13,.96-2.93,1.81,1.5,.76,2.38,2.34,2.38,4.72,0,2.99-1.7,5.03-4.65,5.03s-4.65-1.79-4.65-5.03c0-2.25,.88-4,2.53-4.78-1.66-2.31-4.4-3.45-8.88-3.45h0c-1.69,0-3.11,.18-4.33,.52-2.33,.53-4.66,1.68-5.91,4.12-2.38,4.62-7.08,18.76-7.08,18.76,.29,.21,.8,.27,1.38,.2,.41,4.25,2.39,24.56,2.48,25.3,.09,.69,2.42,.46,2.34-.28-.08-.78-1.46-20.34-1.88-26.32,.47-.4,.86-.88,1.1-1.44,.95-2.25,1.98-4.8,2.67-6.75,.9-2.53,1.48-4.04,2.24-5.67,.16-.35,.32-.56,.48-.41h0V63s4.86,.04,5.24-5.05c0,0,.73-19.24,.74-19.46,0-.21,.17-.49,.53-.49s.51,.28,.52,.49c0,.21,.73,19.32,.73,19.32,.27,4.97,4.76,5.18,5.21,5.19v-15.58c-.99,0-2.79-.57-2.93-2.92-.29-5.16-.15-13.43,2.99-14.97,1.93-.94,7.12-.94,9.23-.03,2.91,1.26,2.83,9.75,2.82,14.96,0,2.35-2.04,2.97-3.03,2.97v15.57c.14-.02,3.71-.64,3.96-4.21,0,0,.82-8.69,.96-12.85,.56-.09,.59-.1,1.06-.17,.14,4.06,.98,12.92,.98,12.92,.19,3.75,3.98,4.31,3.98,4.31l.02-17.3c1.76,.17,2.93,.45,2.93,.45,0-8.86-2.15-12.4-2.88-15.17-.39-1.48-.31-3.02,.05-4.5,.33-1.39,.76-2.68,.09-5.43,0,0,.3-.04,.77,.99,.89,1.95,1,5.69,3.94,13.5l-.46,.07c-.55,.08-.92,.59-.85,1.13l.43,2.97h-.03c.26,1.81,.44,3.92,.44,6.44,0,.46-.21,.89-.57,1.18-.36,.28-.83,.39-1.28,.28,0,0-.41-.1-1.08-.21v2.16c.2,.33,.59,.53,1,.47l12.86-1.87c.55-.08,.93-.59,.85-1.13l-1.15-7.92Zm-9.05,.3l-.29-1.98,2.97-.43,.29,1.98-2.97,.43Z"/><path d="M14.54,6.01c-.27,3.93,1.73,5.99,4.96,5.99s5-2.22,5-5.41c0-2.08-.78-5.99-2.82-6.44-2.36-.51-10.38,3.3-10.2,4.72,.11,.87,1.77,1.09,3.06,1.13"/><path d="M40.5,13c3.17,0,5-1.95,5-5.41s-1.75-5.59-5-5.59-5,1.95-5,5.59c0,3.19,1.83,5.41,5,5.41"/></g></g></svg>