<?xml version="1.0" encoding="UTF-8"?><svg id="Laag_1" xmlns="http://www.w3.org/2000/svg" xmlns:xlink="http://www.w3.org/1999/xlink" viewBox="0 0 64 64"><defs><style>.cls-1{fill:none;}.cls-2{clip-path:url(#clippath);}.cls-3{clip-path:url(#clippath-1);}</style><clipPath id="clippath"><rect class="cls-1" width="64" height="64"/></clipPath><clipPath id="clippath-1"><rect class="cls-1" width="64" height="64"/></clipPath></defs><g class="cls-2"><g class="cls-3"><path d="M36.05,49.36c-12.04,2.26-18.48-3.86-22.58-15.59,.08-.19,.43-.26,.74,.26,.27,.47,5.47,9.18,12.78,11.26,.57-.89,1.01-1.81,1.27-2.73,2.72-9.69-5.17-11.76-8.64-18.17-2.16-4-2.22-9.84,.25-14.97,.2-.42-.24-.86-.67-.66C.88,17.23-1.59,43.16,11.24,50.25c2.74,1.52,5.66,1.57,8.3,.73,6.6,5.91,16.3,5.07,17.65,4.83,1.78-.31,2.34-1.91,2.02-3.69-.32-1.78-1.38-3.09-3.16-2.76"/><path d="M52.77,13.9c-2.71-1.5-5.58-1.57-8.2-.77-6.6-6.04-16.43-5.19-17.78-4.95-1.78,.31-2.34,1.91-2.02,3.69,.32,1.78,1.38,3.09,3.16,2.76,12.04-2.26,18.48,3.86,22.57,15.59-.08,.19-.43,.26-.74-.26-.27-.47-5.42-9.09-12.67-11.23-.61,.92-1.08,1.89-1.35,2.85-2.72,9.69,5.17,11.76,8.64,18.17,2.16,4,2.22,9.84-.26,14.97-.2,.42,.24,.86,.67,.66,18.33-8.47,20.8-34.4,7.97-41.49"/></g></g></svg>