<?xml version="1.0" encoding="UTF-8"?><svg id="Laag_1" xmlns="http://www.w3.org/2000/svg" xmlns:xlink="http://www.w3.org/1999/xlink" viewBox="0 0 64 64"><defs><style>.cls-1{fill:none;}.cls-2{clip-path:url(#clippath);}.cls-3{clip-path:url(#clippath-1);}</style><clipPath id="clippath"><rect class="cls-1" width="64" height="64"/></clipPath><clipPath id="clippath-1"><rect class="cls-1" width="64" height="64"/></clipPath></defs><g class="cls-2"><g class="cls-3"><path d="M51,16h-8V5c0-.55-.45-1-1-1H22c-.55,0-1,.45-1,1v11H13c-.55,0-1,.45-1,1V59c0,.55,.45,1,1,1H51c.55,0,1-.45,1-1V17c0-.55-.45-1-1-1M25,5.16c.06-.02,.3-.08,.36,.25,.05,.24,.27,1.37,.52,2.59h12.24c.24-1.23,.47-2.36,.52-2.59,.07-.33,.31-.27,.36-.25v10.84h-14V5.16Zm3.3,29.77c.5,6.99,.84,16.39,.84,16.77,0,.66-.96,1.19-2.15,1.19s-2.15-.53-2.15-1.19c0-.4,.36-9.61,.9-16.75-1.47-.4-2.58-1.46-2.58-2.6l.48-7.17c.02-.27,.21-.48,.48-.48s.46,.21,.48,.48l.44,6.48c.03,.25,.25,.45,.51,.45s.51-.21,.53-.48l.43-6.45c.01-.27,.21-.47,.48-.47s.46,.21,.48,.47l.43,6.45c.01,.27,.26,.48,.53,.48s.48-.19,.51-.45l.44-6.48c.01-.27,.21-.48,.48-.48s.47,.21,.48,.48l.48,7.17c0,1.12-1.08,2.16-2.52,2.57m10.01,3.64h-.45c2.21,13.32,.05,14.31-1.43,14.33-.54,0-1.43-.42-1.43-.95V25.55c0-.69,.84-1.04,1.33-.56,2.34,2.33,3.13,9.06,3.38,12.08,.06,.81-.58,1.5-1.39,1.49"/></g></g></svg>