<?xml version="1.0" encoding="UTF-8"?><svg id="Laag_1" xmlns="http://www.w3.org/2000/svg" viewBox="0 0 64 64"><defs><style>.cls-1{fill:none;}</style></defs><rect class="cls-1" width="64" height="64"/><path d="m59.18,52.24l-14.97-13.89c-2.19,1.97-4,2.71-4.47,2.87-.27.09-.42.03-.48-.08.31-.27,2.38-2.32,3.57-4.07,1.99-2.94,3.08-6.52,3.08-10.33,0-10.45-8.48-18.93-18.93-18.93S8.06,16.28,8.06,26.74s8.48,18.93,18.93,18.93c3.81,0,7.36-1.14,10.33-3.08l15.17,16.34c1.1,1.1,3.34,2.11,5.42.02.89-.89.61-.62,1.6-1.68,1.58-1.68.77-3.94-.33-5.04Zm-32.19-14.07c-6.28,0-11.39-5.11-11.39-11.39s5.11-11.39,11.39-11.39,11.39,5.11,11.39,11.39-5.11,11.39-11.39,11.39Z"/></svg>