<?xml version="1.0" encoding="UTF-8"?><svg id="Laag_1" xmlns="http://www.w3.org/2000/svg" xmlns:xlink="http://www.w3.org/1999/xlink" viewBox="0 0 64 64"><defs><style>.cls-1{fill:none;}.cls-2{clip-path:url(#clippath);}.cls-3{clip-path:url(#clippath-1);}</style><clipPath id="clippath"><rect class="cls-1" width="64" height="64"/></clipPath><clipPath id="clippath-1"><rect class="cls-1" width="64" height="64"/></clipPath></defs><g class="cls-2"><g class="cls-3"><path d="M43.68,40.26c-1.36-.49-2.48-1.55-2.99-2.98-.06-.18-.1-.36-.14-.55l-6.47,1.39c1.08-1.67,1.35-5.26,.53-9.22-.98-4.75-3.19-8.37-5.12-8.61l14.47-3.1c4.92-1.05,9.72,2.22,10.73,7.11,0,.03,.01,.07,.02,.1,1.12-.42,2.35-.44,3.49-.01,1.19,.44,2.13,1.29,2.69,2.39,.05-1.23-.03-2.49-.29-3.75-1.71-8.26-9.76-13.59-17.89-11.85l-29.55,6.32C5.02,19.26-.22,27.44,1.49,35.69c1.71,8.26,9.76,13.59,17.89,11.85l20.44-4.37c1.4-.8,2.71-1.77,3.86-2.9m-29.96,1.61c-3.81-1.35-5.95-3.92-6.64-7.65-.49-2.65,.11-5.18,1.44-7.27l3.57,2.62c-1.93,3.15-1.12,9.24,2.66,12.02-.02,.5-.38,.51-1.03,.28"/><path d="M61.92,40.54l-3.77-12.02c-.16-.51-.55-.93-1.07-1.12-.51-.19-1.09-.14-1.56,.14l-11.05,6.53c-.74,.44-1.07,1.33-.78,2.12,.29,.79,1.11,1.27,1.96,1.14l4.52-.72c-2.82,5.82-8.19,10.21-14.73,11.61-.81,.17-1.36,.92-1.32,2.04l.08,2.06c.04,1.07,1.03,1.85,2.08,1.64,8.71-1.74,15.86-7.64,19.41-15.47l3.12,3.72c.54,.65,1.48,.83,2.24,.42,.39-.21,.68-.54,.83-.93,.14-.36,.17-.77,.04-1.16"/></g></g></svg>