<?xml version="1.0" encoding="UTF-8"?><svg id="Laag_1" xmlns="http://www.w3.org/2000/svg" xmlns:xlink="http://www.w3.org/1999/xlink" viewBox="0 0 64 64"><defs><style>.cls-1{fill:none;}.cls-2{clip-path:url(#clippath);}.cls-3{clip-path:url(#clippath-1);}</style><clipPath id="clippath"><rect class="cls-1" width="64" height="64"/></clipPath><clipPath id="clippath-1"><rect class="cls-1" width="64" height="64"/></clipPath></defs><g class="cls-2"><g class="cls-3"><path d="M32.75,21.75h7.14c-.6-3.82-3.9-6.75-7.89-6.75-4.42,0-8,3.58-8,8v16c0,4.42,3.58,8,8,8s8-3.58,8-8v-7.75h-7.25c-.41,0-.75-.34-.75-.75s.34-.75,.75-.75h7.25v-2.5h-7.25c-.41,0-.75-.34-.75-.75s.34-.75,.75-.75h7.25v-2.5h-7.25c-.41,0-.75-.34-.75-.75s.34-.75,.75-.75"/><path d="M43.5,31.25c-.83,0-1.5,.42-1.5,1.25v6.5c0,5.74-4.86,10.37-10.69,9.98-5.31-.36-9.31-5.01-9.31-10.33v-6.15c0-.83-.67-1.25-1.5-1.25s-1.5,.42-1.5,1.25v6.12c0,6.36,4.44,11.9,10.5,13.12v6.26h-2c-2.21,0-4,1.79-4,4h17c0-2.21-1.79-4-4-4h-2v-6.26c5.97-1.17,10.5-6.43,10.5-12.74v-6.5c0-.83-.67-1.25-1.5-1.25"/><path d="M15.84,26.72c-2.64-.59-4.61,1.05-5.84,3.59v7.03c-.05,.02-.25,.07-.35-.24l-1.1-5.52c-.78,.18-1.41,.55-1.86,1.22-.62,.91-.92,2.35-.92,4.51,0,2.7,.48,4.26,1.45,5.07,.59,.49,1.36,.7,2.29,.74,1.16,3.18,3.3,5.43,6.34,4.76,.67-.15,1.15-.78,1.15-1.52V28.24c0-.74-.49-1.37-1.15-1.52"/><path d="M53.55,26.37c.03-5.64-1.35-10.27-4.15-13.8-5.24-6.6-13.91-7.32-17.39-7.32s-12.16,.71-17.39,7.32c-2.8,3.53-4.17,8.14-4.15,13.78,1.08-.95,2.3-1.52,3.53-1.69,.22-4.05,1.34-7.36,3.36-9.91,.06-.07,.12-.13,.18-.2,1.41,.27,2.89-.06,4.11-.95,3.08-2.25,6.28-2.58,10.35-2.58v-.03l.03,.03c4.07,0,7.27,.33,10.35,2.58,1.22,.89,2.7,1.22,4.11,.95,.06,.07,.12,.13,.18,.2,2.02,2.55,3.14,5.87,3.36,9.92,1.24,.17,2.45,.75,3.53,1.71"/><path d="M57.31,32.8c-.45-.67-1.08-1.04-1.86-1.22l-1.1,5.52c-.1,.3-.29,.26-.35,.24v-7.04c-1.23-2.54-3.2-4.17-5.84-3.59-.67,.15-1.15,.78-1.15,1.52v18.12c0,.74,.49,1.37,1.15,1.52,3.03,.67,5.18-1.58,6.33-4.76,.94-.03,1.71-.24,2.29-.74,.96-.81,1.45-2.37,1.45-5.07,0-2.16-.31-3.6-.92-4.51"/></g></g></svg>