<?xml version="1.0" encoding="UTF-8"?><svg id="Laag_1" xmlns="http://www.w3.org/2000/svg" xmlns:xlink="http://www.w3.org/1999/xlink" viewBox="0 0 64 64"><defs><style>.cls-1{fill:none;}.cls-2{clip-path:url(#clippath);}.cls-3{clip-path:url(#clippath-1);}</style><clipPath id="clippath"><rect class="cls-1" width="64" height="64"/></clipPath><clipPath id="clippath-1"><rect class="cls-1" width="64" height="64"/></clipPath></defs><g class="cls-2"><g class="cls-3"><path d="M53,6H11c-2.76,0-5,2.24-5,5V53c0,2.76,2.24,5,5,5H53c2.76,0,5-2.24,5-5V11c0-2.76-2.24-5-5-5m3,47c0,1.65-1.35,3-3,3H11c-1.65,0-3-1.35-3-3V11c0-1.65,1.35-3,3-3H53c1.65,0,3,1.35,3,3V53Z"/><path d="M53,10H11c-.55,0-1,.45-1,1V53c0,.55,.45,1,1,1H53c.55,0,1-.45,1-1V11c0-.55-.45-1-1-1M15,12c1.65,0,3,1.35,3,3s-1.35,3-3,3-3-1.35-3-3,1.35-3,3-3m0,40c-1.65,0-3-1.35-3-3s1.35-3,3-3,3,1.35,3,3-1.35,3-3,3m17-3c-9.37,0-17-7.63-17-17s7.63-17,17-17,17,7.63,17,17-7.63,17-17,17m17,3c-1.65,0-3-1.35-3-3s1.35-3,3-3,3,1.35,3,3-1.35,3-3,3m0-34c-1.65,0-3-1.35-3-3s1.35-3,3-3,3,1.35,3,3-1.35,3-3,3"/><path d="M27.66,33.36l-1.23-.73c-1.01,.7-1.39,1.27-1.39,2.12,0,.9,.78,1.5,2.03,1.5,1.1,0,1.87-.56,1.87-1.31,0-.56-.27-.99-1.28-1.58"/><path d="M32,19c-7.17,0-13,5.83-13,13s5.83,13,13,13,13-5.83,13-13-5.83-13-13-13m-5.09,19.2c-2.61,0-4.11-1.27-4.11-2.98,0-1.23,.65-2.23,2.39-3.22l-.58-.42c-.99-.74-1.33-1.42-1.33-2.52,0-1.64,1.7-3.26,3.79-3.26,2.33,0,3.68,1.25,3.68,2.91,0,1.36-.62,2.21-2.13,3.07l.71,.4c1.4,.79,1.87,1.58,1.87,2.78,0,1.88-1.77,3.24-4.29,3.24m9.97,0c-2.25,0-4.08-1.4-4.08-6.02s1.99-6.38,4.28-6.38,4.12,1.64,4.12,6.11-2.09,6.29-4.32,6.29"/><path d="M36.99,27.8c-.98,0-1.76,1.14-1.76,4.17,0,3.22,.71,4.23,1.74,4.23s1.79-1.22,1.79-4.11c0-3.22-.71-4.29-1.77-4.29"/><path d="M26.29,30.52l1.08,.71c.92-.65,1.33-1.27,1.33-2.07,0-.85-.6-1.41-1.67-1.41-.96,0-1.6,.58-1.6,1.39,0,.66,.21,.95,.85,1.38"/></g></g></svg>