<?xml version="1.0" encoding="UTF-8"?><svg id="Laag_1" xmlns="http://www.w3.org/2000/svg" xmlns:xlink="http://www.w3.org/1999/xlink" viewBox="0 0 64 64"><defs><style>.cls-1{fill:none;}.cls-2{clip-path:url(#clippath);}.cls-3{clip-path:url(#clippath-1);}</style><clipPath id="clippath"><rect class="cls-1" width="64" height="64"/></clipPath><clipPath id="clippath-1"><rect class="cls-1" width="64" height="64"/></clipPath></defs><g class="cls-2"><g class="cls-3"><path d="M62.44,43.07h-1.45v-.55c0-.26-.23-.48-.52-.48h-.52v-.52c0-.28-.23-.52-.52-.52h-2.12c-.17,0-.33,.09-.43,.23l-.53,.8h-20.76c-1.66,0-2.07,1.55-2.07,1.55,0,0-.87,3.56-.99,4.05-.09,.4-.02,.64,.14,.82,.53,.6,1.31,.23,1.95,1.17,.86,1.27,.06,3.81-1.41,6.84-.97,2-1.19,3.54-1.22,4.63-.03,1.05,.75,1.91,1.8,1.91h4.92c1.06,0,1.99-.73,2.23-1.76l1.35-5.47c.89,.15,1.73,.23,2.52,.23,2.16,0,3.79-.58,5.06-1.73,2.01-1.83,2.14-4.54,2.12-5.51h8.47c.28,0,.52-.21,.52-.48v-1.27h1.45c.28,0,.52-.24,.52-.52v-2.89c0-.28-.23-.52-.52-.52m-13.88,9.82c-1.17,1.15-3.16,1.43-5.79,1,0,0,.48-3.11,1.61-3.85,.33,2.25,2.44,2.37,2.44,2.37,.28,0,0-.35,0-.35-.71-1.13-.35-2.57-.19-3.08,.75-.27,3.42-.18,3.42-.18,0,.63-.15,2.78-1.5,4.09m-15.58-2.09s-.02,0-.03,0c-.4-.11-1.14-.32-1.76-1.02-.43-.49-.89-1.34-.59-2.6,.12-.5,.99-4.07,.99-4.07,.4-1.5,1.81-3.11,4.01-3.11h9.7c-1.69-1.52-4.96-2.88-7.71-3.85,0,0-.15-.75-.63-1.25-1.08-1.14-2.98-1.07-3.26-3.17v-.03c-.09-.63,.1-1.25,.49-1.76,3.19-4.17,4.29-6.81,5.02-10.93,.88-4.93-.08-10.86-2.39-13.72-2.47-3.06-6.43-4.18-11.33-4.18s-8.85,1.12-11.33,4.18c-2.31,2.86-3.26,8.79-2.39,13.72,.73,4.12,1.84,6.76,5.02,10.93,.39,.51,.58,1.13,.5,1.76v.03c-.29,2.1-2.18,2.03-3.26,3.17-.47,.5-.63,1.25-.63,1.25-.19,.07,3.77,3.87,12.02,4.37,.06,.15-.07,.3-.33,.37-4.56,1.19-9.63-.52-14.14-3.82-2.22,.93-4.58,2.16-5.67,3.35-2.82,3.06-4.3,14.59-4.3,14.59H31.7c1.3-2.81,1.34-3.88,1.29-4.19m-14.54-30.36c-1.2-.84-2.58-2.99-1.26-4.26,1.26-1.21,5.92,.16,6.11,2.47,.18,2.25-2.8,3.23-4.85,1.79m7.06,9.94c-1.73,0-3.13-1.06-3.13-2.37s1.4-2.36,3.13-2.36,3.13,1.06,3.13,2.36-1.4,2.37-3.13,2.37m2.2-11.73c.19-2.31,4.85-3.68,6.11-2.47,1.32,1.27-.06,3.42-1.26,4.26-2.05,1.44-5.04,.47-4.85-1.79"/></g></g></svg>