<?xml version="1.0" encoding="UTF-8"?><svg id="Laag_1" xmlns="http://www.w3.org/2000/svg" xmlns:xlink="http://www.w3.org/1999/xlink" viewBox="0 0 24 24"><defs><style>.cls-1{fill:none;}.cls-2{clip-path:url(#clippath);}.cls-3{clip-path:url(#clippath-1);}</style><clipPath id="clippath"><rect class="cls-1" width="24" height="24"/></clipPath><clipPath id="clippath-1"><rect class="cls-1" width="24" height="24"/></clipPath></defs><g class="cls-2"><g class="cls-3"><path d="m20.5,4.03h-2.5v-2.03c0-.83-.67-1-1.5-1s-1.5.17-1.5,1v2.03h-7v-2.03c0-.83-.67-1-1.5-1s-1.5.17-1.5,1v2.03h-2.5c-.81,0-1.47.66-1.47,1.47v16c0,.81.66,1.47,1.47,1.47h18c.81,0,1.47-.66,1.47-1.47V5.5c0-.81-.66-1.47-1.47-1.47M2.97,9h17.07v12.03H2.97v-12.03Z"/><rect x="5" y="11" width="3" height="3"/><rect x="10" y="11" width="3" height="3"/><rect x="15" y="11" width="3" height="3"/><rect x="5" y="16" width="3" height="3"/><rect x="10" y="16" width="3" height="3"/><rect x="15" y="16" width="3" height="3"/></g></g></svg>