<?xml version="1.0" encoding="UTF-8"?><svg id="Laag_1" xmlns="http://www.w3.org/2000/svg" xmlns:xlink="http://www.w3.org/1999/xlink" viewBox="0 0 24 24"><defs><style>.cls-1{fill:none;}.cls-2{clip-path:url(#clippath);}.cls-3{clip-path:url(#clippath-1);}</style><clipPath id="clippath"><rect class="cls-1" width="24" height="24"/></clipPath><clipPath id="clippath-1"><rect class="cls-1" width="24" height="24"/></clipPath></defs><g class="cls-2"><g class="cls-3"><path d="m23,2H6c-.55,0-1,.45-1,1v5H1.84c-.29,0-.56.12-.75.34-.19.22-.28.51-.24.79l.99,7.28c.45,3.79,2.52,4.59,4.17,4.59h12c3.31,0,6-2.69,6-6V3c0-.55-.45-1-1-1m-1,13c0,2.21-1.79,4-4,4H5.61c.7-.82,1.39-2.14,1.39-4V4h15v11Z"/><rect x="9" y="7" width="11" height="2"/><rect x="9" y="11" width="5" height="1"/><rect x="9" y="13" width="5" height="1"/><rect x="9" y="15" width="5" height="1"/><path d="m15,16h3.28c.95,0,1.72-.77,1.72-1.71v-3.29h-5v5Z"/></g></g></svg>