<?xml version="1.0" encoding="UTF-8"?><svg id="Laag_1" xmlns="http://www.w3.org/2000/svg" xmlns:xlink="http://www.w3.org/1999/xlink" viewBox="0 0 64 64"><defs><style>.cls-1{fill:none;}.cls-2{clip-path:url(#clippath);}.cls-3{clip-path:url(#clippath-1);}</style><clipPath id="clippath"><rect class="cls-1" width="64" height="64"/></clipPath><clipPath id="clippath-1"><rect class="cls-1" width="64" height="64"/></clipPath></defs><g class="cls-2"><g class="cls-3"><path d="M20,51.5c0-1.74,1.24-3.5,4-3.5s4,1.76,4,3.5c0-1.74,1.24-3.5,4-3.5s4,1.76,4,3.5c0-1.74,1.24-3.5,4-3.5,.12,0,.23,.02,.35,.03,3.14-11.56,7.09-31.99,7.09-31.99,0,0,3.72,1.32,5.83,1.83,2.21,.53,4.69-1.25,1.88-4.59-2-2.36-5.32-6.12-6.3-6.91-.83-.66-1.87-1.11-2.89-1.22l-1.28-2.1c.11-.19,.19-.4,.19-.64,0-.73-.59-1.31-1.31-1.31s-1.31,.59-1.31,1.31c0,.59,.4,1.07,.93,1.23l.6,1.91c-.29,.17-.55,.39-.78,.67-1.1-.19-2.35-.36-3.38-.38-.9-.01-1.61,.13-1.87,.56-.95,1.53,2.51,3.22,3.81,3.78-1.58,5.45-4.97,17.13-8.09,24.89-2.74,6.84-13.82,6.69-19,13.15,.45-.14,.95-.23,1.54-.23,2.76,0,4,1.76,4,3.5M48.5,9.36c.63,0,1.14,.51,1.14,1.14s-.51,1.14-1.14,1.14-1.14-.51-1.14-1.14,.51-1.14,1.14-1.14"/><path d="M56,50c-1.1,0-2,.4-2,1.5v2.5h-4v-2.5c0-1.1-.9-1.5-2-1.5s-2,.4-2,1.5v2.5h-4v-2.5c0-1.1-.9-1.5-2-1.5s-2,.4-2,1.5v2.5h-4v-2.5c0-1.1-.9-1.5-2-1.5s-2,.4-2,1.5v2.5h-4v-2.5c0-1.1-.9-1.5-2-1.5s-2,.4-2,1.5v2.5h-4v-2.5c0-1.1-.9-1.5-2-1.5s-2,.4-2,1.5v2.5h-4v-2.5c0-1.1-.9-1.5-2-1.5s-2,.4-2,1.5v10.5h4v-4h4v4h4v-4h4v4h4v-4h4v4h4v-4h4v4h4v-4h4v4h4v-4h4v4h4v-10.5c0-1.1-.9-1.5-2-1.5"/></g></g></svg>