<?xml version="1.0" encoding="UTF-8"?><svg id="Laag_1" xmlns="http://www.w3.org/2000/svg" xmlns:xlink="http://www.w3.org/1999/xlink" viewBox="0 0 64 64"><defs><style>.cls-1{fill:none;}.cls-2{clip-path:url(#clippath);}.cls-3{clip-path:url(#clippath-1);}</style><clipPath id="clippath"><rect class="cls-1" width="64" height="64"/></clipPath><clipPath id="clippath-1"><rect class="cls-1" width="64" height="64"/></clipPath></defs><g class="cls-2"><g class="cls-3"><path d="M61.22,30.21L32.81,3.32c-.46-.43-1.17-.43-1.62,0L2.77,30.21c-.49,.46-.78,1.11-.78,1.78v1.8c0,.67,.54,1.21,1.2,1.21H8v25H56v-25h4.8c.66,0,1.2-.54,1.2-1.21v-1.8c0-.68-.28-1.33-.78-1.78m-13.86,9.09l-2.37,1.2v6.54c0,2.64-2.08,4.49-4.26,4.2-2.17-.28-7.64-1.49-7.64-1.49-.02,.03-.08,.16,.12,.27l3.72,1.92,.09,4.06h-15.1s1.4-5.72,1.28-7.62c-.28-4.34-4.12-10.09-5.46-14.15-1.15-3.49-1.9-10.45,4.96-14.18,6.5-3.53,15.23-3.37,17.68-1.8,2.15,1.38,2.85,3.82,1.42,6.55,0,0,1.32,2.89,1.77,5.49,.09,.52-.14,1.65,0,2.26l4.19,4.83c.42,.64,.24,1.51-.41,1.92"/><path d="M31.5,21.22v1.66c4.32,.5,7.68,4.16,7.68,8.62,0,2.1-.75,4.03-1.99,5.53l-1.34-1.34h0l-1.18-1.19c-.94,1.3-2.46,2.16-4.18,2.16-1.13,0-2.16-.37-3.01-.98l-1.18,1.18c1.16,.91,2.61,1.45,4.19,1.45s3.03-.55,4.19-1.46l1.34,1.34c-1.5,1.24-3.43,1.99-5.53,1.99-2.69,0-5.1-1.23-6.69-3.15l2.43-2.43h0l.09-.09c-.61-.85-.99-1.88-.99-3.01,0-2.85,2.31-5.16,5.16-5.16,1.13,0,2.16,.37,3.01,.99l-1.35,1.35c-.49-.29-1.05-.46-1.66-.46-1.82,0-3.29,1.48-3.29,3.29s1.48,3.29,3.29,3.29,3.29-1.48,3.29-3.29c0-.61-.18-1.17-.47-1.66l1.35-1.35c.61,.85,.98,1.88,.98,3.01,0,.5-.09,.97-.22,1.43l1.3,1.3c.37-.84,.57-1.76,.57-2.73,0-3.76-3.06-6.81-6.81-6.81-1.58,0-3.03,.55-4.19,1.45l-1.33-1.33c1.26-1.04,2.81-1.74,4.52-1.93v-1.66c-5.23,.51-9.33,4.92-9.33,10.28,0,5.7,4.63,10.33,10.33,10.33s10.33-4.64,10.33-10.33c0-5.36-4.1-9.78-9.33-10.28m-1,11.92c-.91,0-1.64-.74-1.64-1.64s.74-1.64,1.64-1.64,1.64,.74,1.64,1.64-.74,1.64-1.64,1.64m-7.63,2.49c-.67-1.23-1.05-2.64-1.05-4.14,0-2.1,.75-4.02,1.99-5.52l1.33,1.33c-.91,1.16-1.45,2.61-1.45,4.19,0,.97,.23,1.88,.6,2.72l-1.42,1.42Z"/></g></g></svg>