<?xml version="1.0" encoding="UTF-8"?><svg id="Laag_1" xmlns="http://www.w3.org/2000/svg" xmlns:xlink="http://www.w3.org/1999/xlink" viewBox="0 0 64 64"><defs><style>.cls-1{fill:none;}.cls-2{clip-path:url(#clippath);}.cls-3{clip-path:url(#clippath-1);}</style><clipPath id="clippath"><rect class="cls-1" width="64" height="64"/></clipPath><clipPath id="clippath-1"><rect class="cls-1" width="64" height="64"/></clipPath></defs><g class="cls-2"><g class="cls-3"><path d="M54,7H15c-1.1,0-2,.9-2,2v5.42l7.13,2.21c.33,.1,.21,.37,.21,.37-.03,0-4.34,0-7.34,0-1.26,.02-3.35,.06-4.12,.18-.66,.11-1.88,.23-1.88,1.2v2.85c0,.97,1.23,1.18,1.89,1.28,.77,.12,2.85,.3,4.11,.4v5.5l7.12,2.21c.32,.1,.21,.38,.21,.38-.03,0-4.34,0-7.34,0-1.26,.01-3.35,.06-4.12,.18-.66,.11-1.88,.23-1.88,1.2v2.85c0,.97,1.23,1.18,1.89,1.28,.77,.12,2.85,.3,4.11,.4v5.51l7.12,2.2c.32,.1,.21,.37,.21,.37-.01,0-4.34,0-7.34,0-1.26,.01-3.35,.06-4.12,.18-.66,.11-1.88,.23-1.88,1.2v2.85c0,.97,1.23,1.18,1.89,1.28,.77,.12,2.85,.3,4.11,.4v6.08c0,1.1,.9,2,2,2H54c1.1,0,2-.9,2-2V9c0-1.1-.9-2-2-2m-19,35h-9.2s.56-4.17,1.61-5.27c.85-.89,3.77-1.96,4.91-2.36,.1-.41,.18-.81,.23-1.15-.66-.76-1.15-1.66-1.28-2.71-.67-.2-.8-1.52-.8-2.02s.09-.77,.28-.85c.04-.02,.08-.02,.13-.02-.09-.77-.35-3.39,.34-4.29,.56-.73,1.62-1.17,2.59-1.43,1.4-.39,1.94-.12,2.74,.31,1.22-.31,1.85,.15,2.38,1.1,.55,1,.27,3.54,.17,4.31,.05,0,.1,0,.16,.03,.19,.08,.28,.35,.28,.85s-.13,1.82-.8,2.02c-.17,1.08-.65,1.98-1.3,2.73,.05,.34,.13,.73,.24,1.13,1.14,.4,4.07,1.47,4.92,2.36,1.06,1.11,1.61,5.27,1.61,5.27h-9.2Z"/></g></g></svg>