<?xml version="1.0" encoding="UTF-8"?><svg id="Laag_1" xmlns="http://www.w3.org/2000/svg" xmlns:xlink="http://www.w3.org/1999/xlink" viewBox="0 0 64 64"><defs><style>.cls-1{fill:none;}.cls-2{clip-path:url(#clippath);}.cls-3{clip-path:url(#clippath-1);}</style><clipPath id="clippath"><rect class="cls-1" width="64" height="64"/></clipPath><clipPath id="clippath-1"><rect class="cls-1" width="64" height="64"/></clipPath></defs><g class="cls-2"><g class="cls-3"><path d="M38.66,45h-3.02l-1.48,13h3.78l1.91-9.27-.57-3.32c-.03-.1-.26-.4-.63-.4"/><path d="M20.67,46.31l-2.22,3.54,2.56,8.16h3.74l-3.04-12.72c-.42,.23-.77,.57-1.04,1.02"/><path d="M55.53,20.79c-2.54-1.64-5.4-3.18-6.4-3.71,.88-1.08,2.3-3.06,3.56-6.01,.3-.71-.02-1.53-.74-1.84-.71-.3-1.53,.02-1.84,.73-1.2,2.78-2.53,4.58-3.25,5.45-1.42-1.26-2.53-2.6-3.36-3.92,1.45-1.27,3.9-3.66,5.37-6.44,.36-.68,.1-1.53-.58-1.89-.68-.36-1.53-.1-1.89,.58-1.11,2.1-2.94,4-4.24,5.19-1.23-2.87-1.36-5.15-1.36-5.34-.03-.77-.69-1.37-1.44-1.35-.77,.03-1.38,.67-1.35,1.44,.01,.33,.32,7.07,5.9,12.77-1.19-.22-2.68-.44-3.87-.46-.89-.01-1.59,.13-1.85,.55-1.15,1.86,4.25,3.95,4.25,3.95,.05,3.99-4.23,7.39-6.18,8.74H12.76c-1.51,0-2.77-3.2-3.84-3.73-.83-.4-1.77-.05-1.86,1.34-.09,1.39-.04,5.55,4.14,7.55,0,0,.52,5.13,3.13,9.31l-2.82,4.77c-.38,.51-.51,1.18-.34,1.79l1.64,7.73h3.76l-.54-7.94,2.99-4.75c.75-1.26,2.12-2.31,4.17-2.31h15.48c1.32,0,2.37,1.01,2.54,2.02l2.18,12.98h4.36l-1.94-19.6c2.8-6.92,4.44-13.5,4.44-13.5h3.91c1.95,0,4.53-2.09,1.39-4.11m-6.55,.99c-.69,0-1.25-.56-1.25-1.25s.56-1.25,1.25-1.25,1.25,.56,1.25,1.25-.56,1.25-1.25,1.25"/></g></g></svg>