<?xml version="1.0" encoding="UTF-8"?><svg id="Laag_1" xmlns="http://www.w3.org/2000/svg" xmlns:xlink="http://www.w3.org/1999/xlink" viewBox="0 0 64 64"><defs><style>.cls-1{fill:none;}.cls-2{clip-path:url(#clippath);}.cls-3{clip-path:url(#clippath-1);}</style><clipPath id="clippath"><rect class="cls-1" width="64" height="64"/></clipPath><clipPath id="clippath-1"><rect class="cls-1" width="64" height="64"/></clipPath></defs><g class="cls-2"><g class="cls-3"><path d="M32,56c13.26,0,24-10.74,24-24S45.26,8,32,8,8,18.74,8,32s10.74,24,24,24m14.04-9.63l-.78-1.73,1.77-3.21,2.88-.31c-1,1.96-2.31,3.73-3.86,5.25M34.35,12.04c8.77,1.03,15.83,7.72,17.41,16.31l-2.25,3-2.59,1.3-2.6-2.59-1.39-2.5s1.79-1.8,1.3-2.75c-.5-.95-3.3,.6-3.85-.24-.55-.84-.06-3.68-.06-3.68l-3.48-1.43s-1.09-.02-.99,.8c.1,.92,2.63,2.38,2.43,2.79-.19,.38-.82,.1-.82,.1l-.96,1.69-2-.45s1.52-.58,1.71-1.13c.19-.56-2.25-2.56-2.25-2.56l-1.36,.31-.61,2.45-1.64,1.43-2.15-.02,.19-1.19-.79-.02,1.02-2.65,2.11,.18s.78-2.03,.62-2.7c-.3-1.3-1.65-1.44-1.65-1.96s1.46-.5,2.17-1.22c.44-.44,1.64-2.08,2.48-3.26m-7,.42c1.21-.29,2.47-.46,3.75-.52l.19,.3s-.46,2.43-1.23,2.64c-.77,.21-2.99-1.07-2.99-1.07l.28-1.35Zm-1.11,17.39c1.02-2.11,2.56-2.32,2.56-2.32l5.37-1.08,3.08,1.8,4.1,.78,1.14,1.56,1.83,2.58,2.6,1.35,2.59-2.21s-.26,3.1-1.28,5.04c-1.02,1.94-3.68,3.39-3.68,3.39,0,0-.25,1.82-1.11,3.35-.33,.59-1.24,.91-1.65,1.49-.74,1.05-.53,2.91-1.37,3.32-1.5,.74-3.24,1.08-3.65,.69-.57-.54-1.84-2.86-1.84-3.62v-5.53c0-.99-1.33-3.34-1.33-3.34,0,0-3.14-.03-4.34-.03s-3.04-1.73-3.04-1.73c0,0-1.02-3.38,0-5.48m-3.01-15.92l-2.33,4.28s-2.75,3.58-4.67,5.52c-.88,.89-2.19,1.58-3.35,2.08,1.7-5.22,5.48-9.49,10.35-11.87m-4.85,28.33v4.48c-3.3-3.05-5.57-7.18-6.25-11.84,2.27,1.52,6.25,4.58,6.25,7.35"/></g></g></svg>