<?xml version="1.0" encoding="UTF-8"?><svg id="Laag_1" xmlns="http://www.w3.org/2000/svg" xmlns:xlink="http://www.w3.org/1999/xlink" viewBox="0 0 64 64"><defs><style>.cls-1{fill:none;}.cls-2{clip-path:url(#clippath);}.cls-3{clip-path:url(#clippath-1);}</style><clipPath id="clippath"><rect class="cls-1" width="64" height="64"/></clipPath><clipPath id="clippath-1"><rect class="cls-1" width="64" height="64"/></clipPath></defs><g class="cls-2"><g class="cls-3"><path d="M18.62,36.28c-1.01,.87-2.36,1.05-3.53,.62-4.7,4.45-5.01,9-5.01,15.09H62s-.16-8.25-2.03-15.03c-1.3-4.71-4.06-8.64-8.15-11.52-3.04-7.26-10.99-12.44-20.32-12.44s-17.28,5.18-20.32,12.44c-4.09,2.89-6.85,6.81-8.15,11.52-1.87,6.78-2.03,15.03-2.03,15.03H6.79c0-6.44,.66-11.97,6.19-17.23-.47-1.33-.11-2.87,1.02-3.84l1.38-1.19c1.48-1.27,3.71-1.11,4.98,.37h0c1.27,1.48,1.11,3.71-.37,4.99l-1.38,1.19Zm10.03-7.46c-.02-.32-.06-.89-.16-1.22-.14-.47-1.3-1.05-1.26-1.94,.03-.77,1.37-1.67,3.77-1.76v-.89h-1v-1h1v-1h1v1h1v1h-1v.89c2.4,.1,3.74,.99,3.77,1.76,.03,.89-1.12,1.47-1.26,1.94-.1,.33-.14,.91-.16,1.22,2.16,1.3,3.84,4.02,3.84,7.18,0,3.93-2.51,7.19-5.54,7.87-.19,.84-.63,1.43-1.16,1.43s-.97-.59-1.16-1.43c-3.04-.67-5.54-3.93-5.54-7.87,0-3.16,1.69-5.88,3.85-7.18"/><path d="M27.49,34.54l.68,.74c-.06,.17-.11,.27-.06,.45l.06,.2c.05,.16,.18,.26,.32,.39l-.05,.74,1.41-.46-.34-.5,.28-.39,.85-.19,.93,.81v.39l-.83,.35-.67,1.2c-.08,.15-.08,.32,0,.47l.17,.31-.35,.51h-.31l-.03-.56h-.52l-.33,.67,.68,.42v.28h.87l1-1.02-.31-.77,.67-.36c.11,.33,.48,1.12,1.38,1.12,.46,0,.63,.13,.67,.3,.06,.23-.16,.52-.16,.52h-.35l-.1,.6h1.12l.37-.91s-.1-1.2-.62-1.29c-.49-.08-.68-.13-.68-.13l-.23-.67s.22-.4,.15-.93c.13-.02,.21,.05,.52,.54l.16,.26c.36,.57,.68,.86,1.01,.91,.17,.03,.37,0,.55-.15,.16-.12,.26-.29,.28-.48,.03-.31-.12-.67-.47-1.08-.12-.14-.23-.26-.32-.36l.39-.75-.59-.67-.19,.24c-.58,.74-.52,.94-.01,1.49,.09,.1,.21,.22,.34,.38,.35,.41,.36,.63,.36,.7-.01,.12-.14,.21-.25,.19-.1-.02-.32-.13-.68-.69l-.16-.25c-.31-.5-.56-.89-1.09-.75-.08-.18-.2-.37-.38-.55l.09-.67,.5-.44c.13-.11,.19-.28,.16-.44l-.15-.93,.14-.12c.12-.11,.18-.27,.15-.43l-.16-.92,.64-.35-.77-.08,.03-.61-.57,.23-.43-.66-.06,.77s-.6,.24-.71,.41c-.1,.17,.08,.66,.08,.66h-.46c-.37,0-.57-.13-.57-.13,0,0,.16,.42,.45,.42h.47l-.63,.75-1.13-.57,.17-.15-.3-.35,1.88-1.63,.06-.42h-.42l-1.88,1.63-.29-.34-.28,.24,.29,.34-.97,.84,.36,.41,.56-.48,1.43,1.2,.03,.62-.74,.51-.38-.16,.08-1-1.82,.6Z"/></g></g></svg>