<?xml version="1.0" encoding="UTF-8"?><svg id="Laag_1" xmlns="http://www.w3.org/2000/svg" xmlns:xlink="http://www.w3.org/1999/xlink" viewBox="0 0 64 64"><defs><style>.cls-1{fill:none;}.cls-2{clip-path:url(#clippath);}.cls-3{clip-path:url(#clippath-1);}</style><clipPath id="clippath"><rect class="cls-1" width="64" height="64"/></clipPath><clipPath id="clippath-1"><rect class="cls-1" width="64" height="64"/></clipPath></defs><g class="cls-2"><g class="cls-3"><path d="M60,30c-.57,0-1.9,.24-3.04,.63-.32-5.87-2.66-11.2-6.34-15.31,1.08-.53,2.19-1.3,2.59-1.71,.78-.78,.78-2.05,0-2.83s-2.05-.78-2.83,0c-.41,.4-1.17,1.51-1.7,2.6-4.11-3.68-9.44-6.03-15.31-6.34,.39-1.14,.63-2.47,.63-3.04,0-1.1-.9-2-2-2s-2,.9-2,2c0,.57,.24,1.9,.63,3.04-5.87,.32-11.2,2.66-15.31,6.34-.53-1.08-1.3-2.19-1.7-2.6-.78-.78-2.05-.78-2.83,0-.78,.78-.78,2.05,0,2.83,.4,.41,1.51,1.17,2.59,1.71-3.68,4.11-6.03,9.44-6.34,15.31-1.14-.39-2.47-.63-3.04-.63-1.1,0-2,.9-2,2s.9,2,2,2c.57,0,1.9-.24,3.04-.63,.32,5.87,2.66,11.2,6.34,15.31-1.08,.53-2.19,1.3-2.59,1.7-.78,.78-.78,2.05,0,2.83,.78,.78,2.05,.78,2.83,0,.41-.41,1.17-1.51,1.7-2.6,4.11,3.68,9.44,6.02,15.31,6.34-.39,1.14-.63,2.47-.63,3.04,0,1.1,.89,2,2,2s2-.9,2-2c0-.57-.24-1.9-.63-3.04,5.87-.32,11.2-2.66,15.31-6.34,.53,1.08,1.3,2.19,1.7,2.6,.78,.78,2.05,.78,2.83,0,.78-.78,.78-2.05,0-2.83-.4-.41-1.51-1.17-2.59-1.7,3.68-4.11,6.03-9.44,6.34-15.31,1.14,.39,2.47,.63,3.04,.63,1.1,0,2-.9,2-2s-.9-2-2-2m-9.98,4c-.39,3.5-1.77,6.71-3.86,9.33l-7.28-7.28c-.97,.81-1.72,1.23-1.97,1.36-.22,.11-.37,.08-.43-.02,1.55-1.28,2.53-3.22,2.53-5.39,0-1.2-.31-2.34-.84-3.33l8-8c2.09,2.62,3.48,5.82,3.86,9.33h-8.76c-.05,1.77-.42,3.07-.85,4h9.61Zm-36.17,0h11.45c.14,.46,.32,.91,.55,1.33l-8.08,8.07c-2.12-2.63-3.53-5.87-3.92-9.4m3.92-13.4l8.08,8.08c-.23,.42-.41,.86-.55,1.33H13.85c.39-3.54,1.8-6.77,3.92-9.4m17.56,5.25c-.42-.23-.86-.41-1.33-.55V13.93c3.51,.4,6.72,1.8,9.33,3.91l-8.01,8.01Zm.82,6.16c0,2.29-1.86,4.15-4.15,4.15s-4.15-1.86-4.15-4.15,1.86-4.15,4.15-4.15,4.15,1.86,4.15,4.15m-6.15-6.7c-.46,.14-.91,.32-1.33,.55l-8.06-8.06c2.64-2.1,5.86-3.5,9.39-3.87v11.39Zm-1.33,12.86c.42,.23,.86,.41,1.33,.55v11.39c-3.53-.37-6.76-1.77-9.39-3.87l8.06-8.07Zm5.33,.55c.46-.14,.91-.32,1.33-.55l8.01,8.01c-2.62,2.11-5.82,3.51-9.33,3.91v-11.37Z"/></g></g></svg>