<?xml version="1.0" encoding="UTF-8"?><svg id="Laag_1" xmlns="http://www.w3.org/2000/svg" xmlns:xlink="http://www.w3.org/1999/xlink" viewBox="0 0 64 64"><defs><style>.cls-1{fill:none;}.cls-2{clip-path:url(#clippath);}.cls-3{clip-path:url(#clippath-1);}</style><clipPath id="clippath"><rect class="cls-1" width="64" height="64"/></clipPath><clipPath id="clippath-1"><rect class="cls-1" width="64" height="64"/></clipPath></defs><g class="cls-2"><g class="cls-3"><path d="M44.84,3H19.16c-1.37,0-1.7,2.44-.02,2.9,.94,.26,2.07,.55,2.86,.75V51c0,5.52,4.48,10,10,10s10-4.48,10-10V6.66c.8-.2,1.92-.49,2.86-.75,1.67-.47,1.35-2.9-.02-2.9m-6.84,20h-10v28s-.04,2.13,2.08,3.5c1.38,.89,3.65,1.45,5.5,1.12,.11,.11,.01,.29-.17,.43-.96,.66-2.11,1.04-3.36,1.04h-.12c-3.28,0-5.94-2.66-5.94-5.94V7h12V23Z"/><path d="M30,20c1.1,0,2-.89,2-2s-.9-2-2-2-2,.9-2,2,.89,2,2,2"/><path d="M34,14c1.1,0,2-.89,2-2s-.9-2-2-2-2,.9-2,2,.89,2,2,2"/></g></g></svg>