<?xml version="1.0" encoding="UTF-8"?><svg id="Laag_1" xmlns="http://www.w3.org/2000/svg" xmlns:xlink="http://www.w3.org/1999/xlink" viewBox="0 0 64 64"><defs><style>.cls-1{fill:none;}.cls-2{clip-path:url(#clippath);}.cls-3{clip-path:url(#clippath-1);}</style><clipPath id="clippath"><rect class="cls-1" width="64" height="64"/></clipPath><clipPath id="clippath-1"><rect class="cls-1" width="64" height="64"/></clipPath></defs><g class="cls-2"><g class="cls-3"><path d="M59.28,22l-12.11-10.86c-.38-.34-.96-.34-1.34,0l-12.11,10.86h-3.44l-12.11-10.86c-.38-.34-.96-.34-1.34,0L4.72,22h-1.72V60H21v-15h6v15h23v-15h6v15h5V22h-1.72ZM14,55h-6v-10h6v10Zm0-17h-6v-10h6v10Zm13,0h-6v-10h6v10Zm16,17h-6v-10h6v10Zm0-17h-6v-10h6v10Zm13,0h-6v-10h6v10Z"/></g></g></svg>