<?xml version="1.0" encoding="UTF-8"?><svg id="Laag_1" xmlns="http://www.w3.org/2000/svg" xmlns:xlink="http://www.w3.org/1999/xlink" viewBox="0 0 64 64"><defs><style>.cls-1{fill:none;}.cls-2{clip-path:url(#clippath);}.cls-3{clip-path:url(#clippath-1);}</style><clipPath id="clippath"><rect class="cls-1" width="64" height="64"/></clipPath><clipPath id="clippath-1"><rect class="cls-1" width="64" height="64"/></clipPath></defs><g class="cls-2"><g class="cls-3"><path d="M14.14,27.54c-2.14,.73-4.14,2.21-4.14,3.9s2,3.17,4.14,3.9c.43,.15,.94-.11,.71-.37-.85-.95-1.29-2.18-1.29-3.53s.44-2.59,1.29-3.53c.23-.26-.28-.51-.71-.37"/><path d="M20.5,27c-1.38,0-2.5,.64-2.5,1.43s1.12,1.43,2.5,1.43,2.5-.64,2.5-1.43-1.12-1.43-2.5-1.43"/><path d="M20.5,33.14c-1.38,0-2.5,.64-2.5,1.43s1.12,1.43,2.5,1.43,2.5-.64,2.5-1.43-1.12-1.43-2.5-1.43"/><path d="M31.82,43.05c-1.74-1.89-3.17-3.85-4.32-5.81-2.05,.53-4.4,.85-6.9,.89-8.09,.13-14.69-2.72-14.74-6.36-.06-3.64,6.45-6.7,14.54-6.83,1.37-.02,2.7,.05,3.96,.19,.18-1.37,.6-2.62,1.26-3.73-1.67-.24-3.44-.36-5.28-.33-10.37,.16-18.42,4.83-18.33,10.62,.01,.85,.06,7.4,.08,8.25,.09,5.8,8.29,10.22,18.66,10.06,5.81-.09,10.89-1.6,14.22-3.93-1.08-.92-2.13-1.92-3.14-3.02"/><path d="M54.96,21.86c-7.02-7.64-15.91-10.5-20.24-6.52-.64,.59-5.57,5.04-6.2,5.63-4.34,3.99-2.24,13.09,4.78,20.73,7.02,7.64,15.92,10.49,20.25,6.51,.64-.58,5.56-5.04,6.2-5.63,4.33-3.98,2.23-13.08-4.79-20.72m2.18,17.89c-2.67,2.45-9.27-.38-14.74-6.34s-7.75-12.77-5.08-15.22c2.67-2.45,9.27,.39,14.74,6.34,5.47,5.96,7.75,12.77,5.08,15.22"/><polygon points="46.98 23.62 44.54 23.27 44.5 23.23 45.04 21.4 43.79 19.97 42.95 22.91 38.06 22.04 39.39 23.57 42.67 23.97 42.7 24.01 41.93 26.47 43.36 28.11 44.3 24.33 48.12 24.92 46.98 23.62"/><polygon points="47.87 25.87 49.39 27.61 45.43 30.48 46.67 31.9 50.48 28.86 52 30.6 52.6 30.06 48.56 25.43 47.87 25.87"/><path d="M50.76,32.21c-1.42,1.31-.83,3.52,.92,5.53,.64,.73,.87,.95,1.49,1.47l.65-.82c-.56-.5-.85-.78-1.37-1.38-.92-1.05-1.35-2.52-.41-3.47,.91-.92,2.08-.49,3.01,.57,.4,.46,.61,.71,1,1.26l.61-.59c-.33-.48-.59-.82-1-1.29-1.55-1.77-3.46-2.59-4.9-1.27"/></g></g></svg>