<?xml version="1.0" encoding="UTF-8"?><svg id="Laag_1" xmlns="http://www.w3.org/2000/svg" xmlns:xlink="http://www.w3.org/1999/xlink" viewBox="0 0 64 64"><defs><style>.cls-1{fill:none;}.cls-2{clip-path:url(#clippath);}.cls-3{clip-path:url(#clippath-1);}</style><clipPath id="clippath"><rect class="cls-1" width="64" height="64"/></clipPath><clipPath id="clippath-1"><rect class="cls-1" width="64" height="64"/></clipPath></defs><g class="cls-2"><g class="cls-3"><path d="M59.99,23.22l-4.99-3.14c-.42-.26-.97-.18-1.29,.2-.97,1.15-3.02,3.57-4.76,5.62,.55,3.48,1.24,7.34,1.32,7.75,.11,.64-.27,.54-.27,.54-3.16-6.8-3.99-11.85-3.99-18.63V5.57c0-.57-.48-1.02-1.04-1l-5.91,.26c-.53,.02-.95,.45-.96,.98-.03,1.99-.1,7.03-.15,9.16,0,.44-.35,.81-.78,.88-.57,.1-1.05-.34-1.09-.93-.1-1.58-.22-6.6-.27-8.72-.01-.58-.52-1.03-1.1-.97l-5.7,.6c-.5,.05-.88,.46-.9,.97-.05,2.17-.17,7.71-.13,9.24,0,.44-.26,.84-.69,.96-.56,.15-1.12-.23-1.18-.81-.15-1.45-.31-6.25-.38-8.53-.02-.63-.61-1.09-1.23-.94l-5.73,1.3c-.46,.11-.78,.51-.77,.98,.02,1.94,.08,6.91,.13,9.12,0,.42-.2,.82-.6,.96-.53,.19-1.21-.15-1.31-.71-.06-.34-.33-5.71-.45-8.25-.03-.66-.68-1.1-1.31-.9l-5.35,1.8c-.41,.14-.69,.51-.69,.95,0,2.8,.07,12.97,.44,16.02,1.52,12.47,5.66,16.71,10.15,21v8.02c0,1.1,.9,2,2,2h5.15c-.76-1.35-1.23-3.28-1.23-5.5s.47-4.15,1.23-5.5h-1.15c-1.1,0-2-.9-2-2v-.5c0-4.69,3.81-8.5,8.5-8.5s8.5,3.81,8.5,8.5v.5c0,1.1-.9,2-2,2h-9c-.8,0-2,2.19-2,5.5s1.2,5.5,2,5.5h13c1.1,0,2-.9,2-2v-8.56c11.87-7.44,15.68-20.95,16.43-24.15,.1-.42-.08-.84-.44-1.07m-42.23,6.88c-1.05,0-1.9-.85-1.9-1.9s.85-1.9,1.9-1.9,1.9,.85,1.9,1.9-.85,1.9-1.9,1.9m10.21-1.78c-1.05,0-1.9-.85-1.9-1.9s.85-1.9,1.9-1.9,1.9,.85,1.9,1.9-.85,1.9-1.9,1.9m10.36-.76c-1.05,0-1.9-.85-1.9-1.9s.85-1.9,1.9-1.9,1.9,.85,1.9,1.9-.85,1.9-1.9,1.9"/></g></g></svg>