<?xml version="1.0" encoding="UTF-8"?><svg id="Laag_1" xmlns="http://www.w3.org/2000/svg" xmlns:xlink="http://www.w3.org/1999/xlink" viewBox="0 0 64 64"><defs><style>.cls-1{fill:none;}.cls-2{clip-path:url(#clippath);}.cls-3{clip-path:url(#clippath-1);}</style><clipPath id="clippath"><rect class="cls-1" width="64" height="64"/></clipPath><clipPath id="clippath-1"><rect class="cls-1" width="64" height="64"/></clipPath></defs><g class="cls-2"><g class="cls-3"><path d="M56.67,27.37s-1.79-11.95-1.95-12.88c-.16-.93-1.02-1.57-1.96-1.45h0c-.94,.12-1.61,.96-1.53,1.9,.08,.94,.86,11.01,.89,11.5,.03,.49-.4,.88-.87,.73h-.01c-.25-.08-.43-.29-.47-.55-.04-.26-2.2-16.08-2.39-17.18-.18-1.09-1.2-1.85-2.3-1.71h0c-1.1,.14-1.9,1.12-1.8,2.23,.1,1.11,1.48,15.23,1.5,15.63,.02,.39-.24,.74-.63,.76h-.01c-.35,.02-.66-.23-.71-.57-.06-.4-2.62-16.64-2.81-17.73-.19-1.1-1.2-1.85-2.3-1.71h0c-1.1,.14-1.9,1.12-1.8,2.23,.1,1.11,2.2,17.65,2.24,18.07,.03,.33-.17,.64-.48,.73h-.02c-.39,.12-.77-.14-.85-.54-.11-.53-2.64-14.42-2.87-15.56-.22-1.09-1.2-1.85-2.3-1.71h0c-1.1,.14-1.91,1.13-1.8,2.23,.04,.39,.31,2.54,.67,5.36,.66,.87,1.24,1.8,1.71,2.81,1.69,3.63,1.89,7.83,.63,12.01-.25,.82-.37,1.12-.65,1.76,1.06,0,2.06,.06,3.16,.26,4.56,.8,6.67,3.16,6.67,3.16,.24,.23,.17,.39,.14,.45,0,0-1.85-1.17-4.41-1.78-2.08-.5-4.05-.42-6.29-.23-.58,1.31-1.18,2.52-1.73,3.63-.44,.89-.88,1.78-1.26,2.65,1.79,2.69,3.66,5.08,6.61,7,5.93,3.87,17.44,2.15,20.73-6.47,1.27-3.32,.18-8.83-.7-15.05"/><path d="M31.78,20.9c-1.55-3.33-4.43-5.83-8.1-7.05-2.56-.85-5.58-1.04-8.27-.31-4.23,1.14-9.45,5.25-9.18,11.41,.15,3.39,1.63,3.07,1.87,3,.46-3.81,2.17-7.03,4.91-8.97,2.8-1.98,6.42-2.59,9.44-1.59,2.64,.88,4.7,2.82,5.79,5.17,1.2,2.57,1.17,5.72-.08,8.86-.73,1.83-1.55,3.51-2.35,5.12-1.67,3.4-3.02,6.46-3.02,9.65,0,2.81-1.18,4.85-3.22,6.05-2.13,1.25-5.15,1.33-7.18,.19-2.78-1.56-4.26-6.19-4.31-10.03-.34-.09-1.71-.22-1.85,3.01-.2,4.56,1.22,8.63,4.26,10.3,3.32,1.82,7.76,1.71,11.06-.23,3.26-1.91,5.09-5.2,5.09-9.42,0-2.28,1.23-4.84,2.68-7.79,.79-1.61,1.69-3.43,2.47-5.4,1.65-4.15,1.65-8.4,0-11.96"/><path d="M22.11,30.78c.06,.08,.22,.16,.62-.2,1.08-.98,1.69-2.8,1.4-4.58-.48-2.88-3.06-4.65-5.89-3.56-2.72,1.04-5.38,5.34-5.7,7.18-.16,.92-.15,1.37,.34,1.65,4.02,2.31,1.85,5.46,.53,7.13-.95,1.2-1.32,2.41,.04,3.32,.96,.64,3.39,.13,4.82-1.43,2.55-2.79,3.1-6.89-1.17-11.37,.03-.06,.07-.12,.1-.18,2.39-4.33,5.46-4.18,4.96,1.43-.02,.27-.04,.47-.05,.61"/></g></g></svg>