<?xml version="1.0" encoding="UTF-8"?><svg id="Laag_1" xmlns="http://www.w3.org/2000/svg" xmlns:xlink="http://www.w3.org/1999/xlink" viewBox="0 0 64 64"><defs><style>.cls-1{fill:none;}.cls-2{clip-path:url(#clippath);}.cls-3{clip-path:url(#clippath-1);}</style><clipPath id="clippath"><rect class="cls-1" width="64" height="64"/></clipPath><clipPath id="clippath-1"><rect class="cls-1" width="64" height="64"/></clipPath></defs><g class="cls-2"><g class="cls-3"><path d="M20.64,32.68c-6.28-.06,.41-8.32-7.72-12.26,3.12-1.28,6.25,.75,6.25,.75,.27-4.36-4.73-6.27-4.73-6.27,12.04,.12,13.13,7.58,13.13,7.58,0,0,5.75-1.8,4.02-8.61-1.92-7.55-11.2-8.58-11.2-8.58,3.11,4,1,7.54,1,7.54C12.11,11.78,12.96,3.32,12.96,3.32c-7.13,6.98-2.12,14.35-2.12,14.35-2.4-2.93-6.1-2.19-6.1-2.19,5.63,7.59,2.04,9.78,3.83,14.26,2.96,7.37,12.42,2.95,12.07,2.94M48,12h-14.7c.16,.42,.3,.85,.42,1.31,.58,2.25,.48,4.13,0,5.68h1.28v6.01h-15.69c.28,1.23,.34,2.4,.38,3.35,0,.19,.02,.41,.03,.64h5.28v6.01h-4.05c-.6,.26-1.32,.49-2.17,.71-1.28,.33-2.51,.49-3.66,.49-.39,0-.76-.03-1.12-.07v24.86h15v-9h6v9h15V14c0-1.1-.9-2-2-2M25,45h-6v-6.01h6v6.01Zm10,0h-6v-6.01h6v6.01Zm0-10h-6v-6.01h6v6.01Zm10,10h-6v-6.01h6v6.01Zm0-10h-6v-6.01h6v6.01Zm0-10h-6v-6.01h6v6.01Z"/></g></g></svg>