<?xml version="1.0" encoding="UTF-8"?><svg id="Laag_1" xmlns="http://www.w3.org/2000/svg" xmlns:xlink="http://www.w3.org/1999/xlink" viewBox="0 0 64 64"><defs><style>.cls-1{fill:none;}.cls-2{clip-path:url(#clippath);}.cls-3{clip-path:url(#clippath-1);}</style><clipPath id="clippath"><rect class="cls-1" width="64" height="64"/></clipPath><clipPath id="clippath-1"><rect class="cls-1" width="64" height="64"/></clipPath></defs><g class="cls-2"><g class="cls-3"><path d="M51.79,39.77c-2.22-2.21-9.86-4.89-12.83-5.87-.29-1-.49-1.97-.62-2.82,1.7-1.86,2.96-4.09,3.4-6.78,1.74-.49,2.09-3.78,2.09-5.02s-.24-1.91-.72-2.12c-.14-.06-.28-.07-.41-.07,.26-1.91,.99-8.24-.46-10.72-1.37-2.36-3.03-3.51-6.2-2.74-2.08-1.06-3.5-1.73-7.14-.77-2.53,.67-5.31,1.75-6.77,3.56-1.81,2.25-1.14,8.76-.9,10.67-.11,0-.22,0-.33,.06-.49,.21-.72,.88-.72,2.12s.35,4.53,2.09,5.02c.35,2.6,1.64,4.86,3.35,6.74-.13,.86-.33,1.84-.59,2.87-2.98,.99-10.59,3.66-12.81,5.86-4.3,4.28-4.13,17.6-4.21,23.23H56c-.14-7.71-.24-19.26-4.21-23.23m-4.03,18.33c-.63,3.16-4.91,2.02-6.98,1.46-2.91-.79-5.78-1.3-5.78-4.44v-4.56c1.67,.55,3.31,1.48,5.13,2.85,0,0,.39-.14-.03-.83-1.37-2.23-3.4-3.8-6.4-4.66-1.07-.31-2.26-.33-3.4,0-3,.86-5.03,2.43-6.4,4.66-.43,.69-.03,.83-.03,.83,1.83-1.37,3.47-2.31,5.14-2.85v4.56c0,3.15-2.87,3.66-5.78,4.44-2.07,.56-6.34,1.7-6.97-1.46-2.24-11.18,6.35-21.2,10.08-21.2,1.48,0,2.67,1.2,2.67,2.67v3.34c0,.46-.27,.88-.69,1.08-1.44,.68-3.23,1.22-4.91,1.42,0,0-.18,.38,.62,.56,.74,.17,6.98,.92,6.98-2.6v-12.41c0-.55,.45-1,1-1s1,.45,1,1v12.41c0,3.51,6.24,2.77,6.98,2.6,.79-.18,.62-.56,.62-.56-1.68-.2-3.47-.73-4.91-1.42-.42-.2-.69-.61-.69-1.08v-3.34c0-1.48,1.2-2.67,2.67-2.67,3.73,0,12.33,10.02,10.08,21.2"/></g></g></svg>