<?xml version="1.0" encoding="UTF-8"?><svg id="Laag_1" xmlns="http://www.w3.org/2000/svg" xmlns:xlink="http://www.w3.org/1999/xlink" viewBox="0 0 64 64"><defs><style>.cls-1{fill:none;}.cls-2{clip-path:url(#clippath);}.cls-3{clip-path:url(#clippath-1);}</style><clipPath id="clippath"><rect class="cls-1" width="64" height="64"/></clipPath><clipPath id="clippath-1"><rect class="cls-1" width="64" height="64"/></clipPath></defs><g class="cls-2"><g class="cls-3"><path d="M13.15,36.21c.06,.5,.48,.75,.98,.75s.93-.25,.98-.75l.28-2.52c.09-.78-.48-1.21-1.26-1.21s-1.35,.44-1.26,1.21l.28,2.52Z"/><path d="M14.13,47.86c.78,0,1.35-.44,1.26-1.21l-.28-2.52c-.06-.5-.48-.75-.98-.75s-.93,.25-.98,.75l-.28,2.52c-.09,.78,.48,1.21,1.26,1.21"/><path d="M7.89,38.02l2.32,1.02c.46,.2,.89-.04,1.14-.48,.25-.44,.25-.93-.16-1.23l-2.05-1.5c-.63-.46-1.29-.19-1.68,.49-.39,.68-.3,1.39,.42,1.7"/><path d="M11.35,41.77c-.25-.44-.68-.68-1.14-.48l-2.32,1.02c-.72,.31-.81,1.02-.42,1.7,.39,.68,1.05,.95,1.68,.49l2.05-1.5c.41-.3,.41-.79,.16-1.23"/><path d="M54.77,6.21c-8.8,.34-15.07,2.71-17.63,3.86-.64,.29-.78,1.12-.29,1.62l7.13,7.13c-.02,.05-.14,.23-.43,.08l-6.51-3.81-15.55,15.55c-.41,.41-.56,1.02-.36,1.55,.6,1.6,1.48,3.06,2.56,4.34-1.86,1.6-4.2,2.48-6.68,2.48h-3c-.55,0-1,.45-1,1s.45,1,1,1h3c3.01,0,5.84-1.08,8.08-3.05,.82,.74,1.72,1.41,2.69,1.95L10.5,57.17c-.58,.59-.38,1.33,.21,1.91s1.33,.8,1.91,.21L48.54,23.37l1.79,1.79c.49,.49,1.33,.35,1.62-.29,1.15-2.56,3.51-8.82,3.86-17.63,.02-.58-.46-1.07-1.04-1.04"/></g></g></svg>