<?xml version="1.0" encoding="UTF-8"?><svg id="Laag_1" xmlns="http://www.w3.org/2000/svg" viewBox="0 0 64 64"><defs><style>.cls-1{fill:none;}</style></defs><rect class="cls-1" width="64" height="64"/><g><rect x="24" y="14" width="30" height="5"/><path d="m22.02,6.32l-6.99,7.75-4.25-3.65c-.46-.46-1.06-.46-1.52,0-.46.3-.61,1.06-.3,1.52l5.01,8.51c.15.3.61.61,1.06.61s.76-.15,1.06-.61l7.75-12.76c.3-.46.15-1.22-.3-1.52-.3-.3-1.06-.3-1.52.15Z"/><rect x="24" y="30" width="30" height="5"/><path d="m22.02,22.32l-6.99,7.75-4.25-3.65c-.46-.46-1.06-.46-1.52,0-.46.3-.61,1.06-.3,1.52l5.01,8.51c.15.3.61.61,1.06.61s.76-.15,1.06-.61l7.75-12.76c.3-.46.15-1.22-.3-1.52-.3-.3-1.06-.3-1.52.15Z"/><rect x="24" y="46" width="30" height="5"/><path d="m22.02,38.32l-6.99,7.75-4.25-3.65c-.46-.46-1.06-.46-1.52,0-.46.3-.61,1.06-.3,1.52l5.01,8.51c.15.3.61.61,1.06.61s.76-.15,1.06-.61l7.75-12.76c.3-.46.15-1.22-.3-1.52-.3-.3-1.06-.3-1.52.15Z"/></g></svg>