<?xml version="1.0" encoding="UTF-8"?><svg id="Laag_1" xmlns="http://www.w3.org/2000/svg" xmlns:xlink="http://www.w3.org/1999/xlink" viewBox="0 0 64 64"><defs><style>.cls-1{fill:none;}.cls-2{clip-path:url(#clippath);}.cls-3{clip-path:url(#clippath-1);}</style><clipPath id="clippath"><rect class="cls-1" width="64" height="64"/></clipPath><clipPath id="clippath-1"><rect class="cls-1" width="64" height="64"/></clipPath></defs><g class="cls-2"><g class="cls-3"><path d="M8.34,24.02c.9,1.51-1.16,4.82-2.24,6.41-.14,.2,.1,.44,.3,.31,1.57-1.01,5.01-2.89,6.39-2.27,1.35,.61,2.47,5.3,2.88,7.15,.05,.24,.39,.23,.43,0,.3-1.79,1.51-6.39,2.97-7.15,1.32-.69,4.88,1.1,6.39,2.19,.2,.14,.45-.09,.31-.3-1.04-1.58-2.94-4.71-2.26-6.34,.72-1.72,5.48-2.59,7.29-2.94,.24-.05,.24-.38,0-.43-1.85-.4-6.74-1.34-7.3-2.92-.58-1.64,1.26-4.88,2.21-6.39,.12-.19-.09-.43-.3-.31-1.61,.93-5.11,2.8-6.36,2.25-1.27-.56-2.44-6.09-2.92-7.84-.06-.22-.37-.22-.43,0-.42,1.73-1.49,7.18-2.94,7.84-1.43,.65-4.75-1.22-6.33-2.19-.2-.12-.43,.11-.3,.31,.96,1.55,2.8,4.82,2.19,6.33-.61,1.51-5.7,2.52-7.49,2.93-.23,.05-.23,.38,0,.43,1.71,.41,6.58,1.39,7.49,2.93m7.56-8.88c3.15,0,5.71,2.56,5.71,5.71s-2.56,5.71-5.71,5.71-5.71-2.56-5.71-5.71,2.56-5.71,5.71-5.71"/><path d="M28,30.5v20.56c1.02,.75,2.63,1.81,4,1.83v-3.89h12v3.89s.03,0,.04,0c1.36,0,2.96-1.05,3.96-1.77V30.5c0-.83,.67-1.5,1.5-1.5s1.5,.67,1.5,1.5v2c0,1.1,.9,1.5,2,1.5s2-.4,2-1.5v-2c0-3.03-2.47-5.5-5.5-5.5s-5.5,2.47-5.5,5.5v6.5h-12v-6.5c0-.83,.67-1.5,1.5-1.5s1.5,.67,1.5,1.5v2c0,1.1,.9,1.5,2,1.5s2-.4,2-1.5v-2c0-3.03-2.47-5.5-5.5-5.5s-5.5,2.47-5.5,5.5m4,10.5h12v4h-12v-4Z"/><path d="M56.04,55.09c-2.46,0-4.92-1.94-6-2.75-1,.75-3.49,2.75-6,2.75s-4.92-1.94-6-2.75c-1,.75-3.49,2.75-6,2.75s-4.92-1.94-6-2.75c-1,.75-3.49,2.75-6,2.75s-4.92-1.94-6-2.75c-1,.75-3.49,2.75-6,2.75-1.02,0-2.12-.39-3.04-.83v4.22c.94,.3,1.98,.52,3.04,.52,2.4,0,4.66-1.08,6-1.86,1.34,.79,3.6,1.86,6,1.86s4.66-1.08,6-1.86c1.34,.79,3.6,1.86,6,1.86s4.66-1.08,6-1.86c1.34,.79,3.6,1.86,6,1.86s4.66-1.08,6-1.86c1.34,.79,3.6,1.86,6,1.86,1.03,0,2.04-.2,2.96-.49v-4.2c-.9,.42-1.97,.78-2.96,.78"/></g></g></svg>