<?xml version="1.0" encoding="UTF-8"?><svg id="Laag_1" xmlns="http://www.w3.org/2000/svg" xmlns:xlink="http://www.w3.org/1999/xlink" viewBox="0 0 64 64"><defs><style>.cls-1{fill:none;}.cls-2{clip-path:url(#clippath);}.cls-3{clip-path:url(#clippath-1);}</style><clipPath id="clippath"><rect class="cls-1" width="64" height="64"/></clipPath><clipPath id="clippath-1"><rect class="cls-1" width="64" height="64"/></clipPath></defs><g class="cls-2"><g class="cls-3"><path d="M58,15H29v-2c0-1.1-.9-2-2-2H12c-1.1,0-2,.9-2,2v4.69c7.13,.47,40.09,2.62,40.59,2.75,.28,.07,.38,.21,.4,.34,0,.04,.02,.23-.01,.23H4.53c-1.29,0-2.24,1.2-1.95,2.46l7.06,30c.27,1.16,1.18,1.54,2.36,1.54H58c1.11,0,2-.9,2-2V17c0-1.1-.9-2-2-2"/></g></g></svg>