<?xml version="1.0" encoding="UTF-8"?><svg id="Laag_1" xmlns="http://www.w3.org/2000/svg" xmlns:xlink="http://www.w3.org/1999/xlink" viewBox="0 0 64 64"><defs><style>.cls-1{fill:none;}.cls-2{clip-path:url(#clippath);}.cls-3{clip-path:url(#clippath-1);}</style><clipPath id="clippath"><rect class="cls-1" width="64" height="64"/></clipPath><clipPath id="clippath-1"><rect class="cls-1" width="64" height="64"/></clipPath></defs><g class="cls-2"><g class="cls-3"><path d="M3.21,22.57l5.73,1.39c.82,.2,1.66-.25,1.95-1.05v-.03c.3-.79-.06-1.68-.81-2.05l-5.28-2.61c-.8-.4-1.77,0-2.07,.83l-.56,1.55c-.3,.84,.19,1.76,1.06,1.97"/><path d="M53.17,22.91c.29,.8,1.13,1.25,1.95,1.05l5.73-1.39c.87-.21,1.36-1.13,1.06-1.97l-.56-1.55c-.3-.84-1.27-1.23-2.07-.83l-5.28,2.61c-.76,.38-1.11,1.26-.83,2.05v.03Z"/><path d="M60.85,32.49l-5.73-1.39c-.82-.2-1.66,.25-1.95,1.05v.03c-.3,.8,.06,1.68,.81,2.05l5.28,2.61c.8,.4,1.77,0,2.07-.83l.56-1.55c.31-.84-.19-1.76-1.06-1.97"/><path d="M10.9,32.18v-.03c-.3-.8-1.14-1.25-1.96-1.05l-5.73,1.39c-.87,.21-1.36,1.13-1.06,1.97l.56,1.55c.31,.84,1.27,1.23,2.08,.83l5.28-2.61c.76-.37,1.11-1.26,.83-2.05"/><path d="M51.84,43.76c-1.21-1.82-2-3.88-2.3-6.05l-2.79-20.01c-1.3-5.52-5.52-9.73-10.79-11.15-.22-2-1.9-3.56-3.96-3.56s-3.73,1.56-3.95,3.56c-5.27,1.43-9.5,5.63-10.79,11.15l-2.79,20.01c-.3,2.16-1.09,4.23-2.3,6.05l-3.76,5.72c-1,1.51,.08,3.52,1.89,3.52h25.43s.14,.54-.44,.64c-.29,.05-4.89,.6-9.68,1.18,1.08,2.46,3.54,4.18,6.4,4.18,3.53,0,6.43-2.61,6.92-6h14.8c1.81,0,2.89-2.02,1.88-3.52l-3.76-5.72Z"/></g></g></svg>