<?xml version="1.0" encoding="UTF-8"?><svg id="Laag_1" xmlns="http://www.w3.org/2000/svg" xmlns:xlink="http://www.w3.org/1999/xlink" viewBox="0 0 64 64"><defs><style>.cls-1{fill:none;}.cls-2{clip-path:url(#clippath);}.cls-3{clip-path:url(#clippath-1);}</style><clipPath id="clippath"><rect class="cls-1" width="64" height="64"/></clipPath><clipPath id="clippath-1"><rect class="cls-1" width="64" height="64"/></clipPath></defs><g class="cls-2"><g class="cls-3"><path d="M30.68,12h1.65c.89,0,1.59-.78,1.49-1.67l-.65-5.86c-.09-.84-.8-1.48-1.65-1.48h-.03c-.85,0-1.56,.64-1.65,1.48l-.65,5.86c-.1,.89,.6,1.67,1.49,1.67"/><path d="M14.19,18.46c.56,.7,1.6,.76,2.23,.12l1.17-1.17c.63-.63,.57-1.67-.12-2.23l-4.6-3.68c-.66-.53-1.61-.48-2.21,.12l-.02,.02c-.6,.6-.65,1.55-.12,2.21l3.68,4.6Z"/><path d="M48.81,46.54c-.56-.7-1.6-.76-2.23-.12l-1.17,1.17c-.63,.63-.57,1.67,.12,2.23l4.6,3.68c.66,.53,1.61,.48,2.21-.12l.02-.02c.6-.6,.65-1.55,.12-2.21l-3.68-4.6Z"/><path d="M11,33.32v-1.65c0-.89-.78-1.59-1.67-1.49l-5.86,.65c-.84,.09-1.48,.8-1.48,1.65v.03c0,.85,.64,1.56,1.48,1.65l5.86,.65c.89,.1,1.67-.6,1.67-1.49"/><path d="M59.52,30.84l-5.86-.65c-.89-.1-1.67,.6-1.67,1.49v1.65c0,.89,.78,1.59,1.67,1.49l5.86-.65c.84-.09,1.48-.8,1.48-1.65v-.03c0-.84-.64-1.56-1.48-1.65"/><path d="M16.42,46.41c-.63-.63-1.67-.57-2.23,.12l-3.68,4.6c-.53,.66-.48,1.61,.12,2.21l.02,.02c.6,.6,1.55,.65,2.21,.12l4.6-3.68c.7-.56,.76-1.6,.12-2.23l-1.16-1.17Z"/><path d="M46.58,18.59c.63,.63,1.67,.57,2.23-.12l3.68-4.6c.53-.66,.48-1.61-.12-2.21l-.02-.02c-.6-.6-1.55-.65-2.21-.12l-4.6,3.68c-.7,.56-.76,1.6-.12,2.23l1.17,1.16Z"/><path d="M47,32.5c0-8.56-6.94-15.5-15.5-15.5s-15.5,6.94-15.5,15.5c0,6.24,3.69,11.6,9,14.06v8.55c0,.88,.57,1.66,1.41,1.91l1.59,.48v1.5c0,.55,.45,1,1,1h5c.55,0,1-.45,1-1v-1.5l1.58-.48c.84-.26,1.42-1.03,1.42-1.91v-8.55c5.31-2.46,9-7.82,9-14.06m-6.94-5.89c-1.61-1.01-3.52-1.61-5.57-1.61-5.8,0-10.5,4.7-10.5,10.5,0,1.96,.55,3.79,1.49,5.36h0s-.08,.2-.4,.08c-1.04-.4-4.3-3.65-4.3-8.45,0-5.92,4.8-10.72,10.72-10.72,4.93,0,8.22,3.46,8.64,4.47,.11,.26-.03,.34-.08,.36"/></g></g></svg>