<?xml version="1.0" encoding="UTF-8"?><svg id="Laag_1" xmlns="http://www.w3.org/2000/svg" xmlns:xlink="http://www.w3.org/1999/xlink" viewBox="0 0 64 64"><defs><style>.cls-1{fill:none;}.cls-2{clip-path:url(#clippath);}.cls-3{clip-path:url(#clippath-1);}</style><clipPath id="clippath"><rect class="cls-1" width="64" height="64"/></clipPath><clipPath id="clippath-1"><rect class="cls-1" width="64" height="64"/></clipPath></defs><g class="cls-2"><g class="cls-3"><path d="M11.06,40.96l-1.31,1.79c-2.04,2.78-3.26,7.08-1.29,8.53,1.97,1.44,5.71-1.02,7.74-3.8l2.4-3.27c-.67-.15-1.35-.31-2.04-.49-2.31-.61-4.17-1.56-5.5-2.76M42.17,5.31c-1.78-1.31-3.59-1.86-4.9-.08l-20.36,27.77h5.17c-.02-.06-.08-.3,.25-.36,.29-.06,4.13-.82,5.58-1.11l15.81-21.56c1.31-1.78,.23-3.34-1.55-4.65"/><path d="M15.63,31h.26l11.41-15.56c-4.05,.43-7.98,1.09-9.4,1.86-3,1.62-8.89,11.23-12.13,18.13-1.06,2.26-1.06,4.81,.95,6.29,.32,.24,.65,.39,.99,.49,.14-.22,.27-.45,.43-.66l1.61-2.19c-.71-1.14-1.03-2.41-.88-3.65,.21-1.77,1.38-4.73,6.76-4.73m25.68-14.37l-7.78,10.61c1.06,.46,1.81,1.52,1.81,2.75,0,1.66-1.35,3.01-3.01,3.01H15.63c-3.08,0-4.55,1.05-4.78,2.97-.1,.83,.12,1.77,.78,2.67,.9,1.23,2.62,2.4,5.45,3.15,6.78,1.8,14.76,1.74,18.48,4.14,.07,.04,3.65,2.31,7.63,2.88,7,1,17.38-2,17.38-2V27.44s-12.77-7.51-19.25-10.81"/></g></g></svg>