<?xml version="1.0" encoding="UTF-8"?><svg id="Laag_1" xmlns="http://www.w3.org/2000/svg" xmlns:xlink="http://www.w3.org/1999/xlink" viewBox="0 0 64 64"><defs><style>.cls-1{fill:none;}.cls-2{clip-path:url(#clippath);}.cls-3{clip-path:url(#clippath-1);}</style><clipPath id="clippath"><rect class="cls-1" width="64" height="64"/></clipPath><clipPath id="clippath-1"><rect class="cls-1" width="64" height="64"/></clipPath></defs><g class="cls-2"><g class="cls-3"><path d="M32,10.28c-5.87-2.79-11.58,1.87-13.12,7.99-.13-.01-.31-.12-.32-.55-.05-2.01,.39-3.61,.39-3.61,0,0-6.23-2.56-9.96,2.67-3.72,5.22-.83,11.17-.83,11.17l5.22-1.33s-.17-1.95,1.67-4.17c1.26-1.53,2.7-2.03,3.44-2.19-.38,2.67-.18,4.89-.16,5.01-1.43,1.48-1.9,3.47-1.58,5.35,.39,2.29,1.91,4.09,3.85,4.78,.62,2.01,1.59,3.74,2.85,5.12-.11,.63-.18,1.11-.24,1.5-6.27,2.31-9.29,7.24-9.2,12.99H50c.08-5.76-2.94-10.68-9.22-12.99-.05-.38-.13-.87-.24-1.49,1.26-1.38,2.24-3.11,2.85-5.13,1.94-.69,3.45-2.49,3.85-4.78,.32-1.87-.14-3.86-1.58-5.35,.01-.12,.21-2.34-.16-5.01,.74,.16,2.17,.66,3.44,2.19,1.83,2.22,1.67,4.17,1.67,4.17l5.22,1.33s2.89-5.95-.83-11.17c-3.72-5.22-9.96-2.67-9.96-2.67,0,0,.44,1.6,.39,3.61-.01,.43-.19,.53-.32,.55-1.55-6.13-7.25-10.78-13.12-7.99m0,8.83s1.44,3.83,8.57,4.9c.14,.98,.2,1.97,.2,2.92,.46-.26,.99-.37,1.51-.28,1.4,.24,2.3,1.78,2.01,3.44-.28,1.65-1.73,2.99-3.32,2.49-.41,2.65-1.56,5.2-3.66,6.86-2.08,1.64-4.75,2.12-7.26,1.57,1.86,3.11,5.29,2.69,7.78,1.5,.07,.48,.09,.77,.09,.93,0,2.44-2.54,4.28-5.92,4.28-3.19,0-6.27-1.69-5.85-5.03h0c.09-.56,.29-1.45,.67-3.15-.92-.69-1.87-1.78-2.54-3.06-.59-1.12-1.02-2.42-1.25-3.91-1.59,.5-3.04-.84-3.32-2.49-.29-1.66,.61-3.2,2.01-3.44,.52-.09,1.05,.02,1.51,.28,0-.97,.06-1.95,.19-2.92,7.14-1.07,8.58-4.9,8.58-4.9"/></g></g></svg>