<?xml version="1.0" encoding="UTF-8"?><svg id="Laag_1" xmlns="http://www.w3.org/2000/svg" xmlns:xlink="http://www.w3.org/1999/xlink" viewBox="0 0 64 64"><defs><style>.cls-1{fill:none;}.cls-2{clip-path:url(#clippath);}.cls-3{clip-path:url(#clippath-1);}</style><clipPath id="clippath"><rect class="cls-1" width="64" height="64"/></clipPath><clipPath id="clippath-1"><rect class="cls-1" width="64" height="64"/></clipPath></defs><g class="cls-2"><g class="cls-3"><path d="M36.35,36.67c-.23-.05-.4-.23-.44-.46-.07-.44-.13-.84-.18-1.14,1.29-1.34,2.26-2.98,2.58-5.18,1.12-.34,1.35-1.73,1.35-2.59s-.15-1.33-.47-1.48c-.3-.14-.57-.02-.73,.08,.18-1.76,.43-5.46-.33-6.83-.82-1.46-1.81-2.05-3.69-1.57-1.24-.66-2.08-1.49-4.25-.9-1.51,.41-3.16,1.16-4.03,2.29-.96,1.24-.75,5.16-.59,6.99-.17-.1-.43-.19-.7-.07-.31,.15-.47,.61-.47,1.48s.22,2.25,1.35,2.59c.28,2.31,1.26,3.87,2.55,5.17-.07,.39-.14,.82-.19,1.15-.04,.23-.21,.41-.44,.45-1.39,.28-5.25,1.26-6.98,3.09-1.58,1.68-1.69,5.87-1.69,8.24h26c0-2.41-.11-6.57-1.69-8.24-1.73-1.83-5.57-2.8-6.96-3.09"/><path d="M19.91,36.02v-4.36l1.56-.8c.43-.28,.55-.85,.27-1.28l-2.77-3.22c-.09-.41,.06-1.16,0-1.5-.3-1.74-1.17-3.66-1.17-3.66,.94-1.82,.48-3.44-.94-4.36-1.62-1.05-7.39-1.16-11.69,1.2C.63,20.52,1.12,25.16,1.89,27.49c.89,2.71,3.43,6.54,3.61,9.43,.08,1.27-.85,5.08-.85,5.08H14.64l-.06-2.7-2.46-1.28c-.13-.07-.09-.16-.08-.18,0,0,3.62,.8,5.05,.99,1.44,.19,2.82-1.04,2.82-2.8"/><path d="M62.11,27.49c.76-2.33,1.25-6.97-3.28-9.45-4.3-2.35-10.07-2.25-11.69-1.2-1.42,.92-1.88,2.55-.94,4.36,0,0-.87,1.92-1.17,3.66-.06,.35,.09,1.1,0,1.51l-2.77,3.22c-.28,.43-.16,1.01,.27,1.28l1.56,.8v4.36c0,1.76,1.38,2.99,2.82,2.8,1.43-.19,5.05-.99,5.05-.99,.01,.02,.05,.11-.08,.18l-2.46,1.28-.06,2.7h9.99s-.93-3.81-.85-5.08c.18-2.89,2.72-6.73,3.61-9.43"/></g></g></svg>