<?xml version="1.0" encoding="UTF-8"?><svg id="Laag_1" xmlns="http://www.w3.org/2000/svg" xmlns:xlink="http://www.w3.org/1999/xlink" viewBox="0 0 64 64"><defs><style>.cls-1{fill:none;}.cls-2{clip-path:url(#clippath);}.cls-3{clip-path:url(#clippath-1);}</style><clipPath id="clippath"><rect class="cls-1" width="64" height="64"/></clipPath><clipPath id="clippath-1"><rect class="cls-1" width="64" height="64"/></clipPath></defs><g class="cls-2"><g class="cls-3"><path d="M44.91,14c-2.7,0-4.57,.81-5.81,1.7-2.25,1.62-4.51,2.37-7.12,2.37-2.44,0-4.74-.7-7.07-2.37-1.24-.89-3.11-1.7-5.81-1.7C3.87,14-3.4,51,10.11,51c8.87,0,8.43-14.06,21.83-14.06,14.06,0,12.96,14.06,21.95,14.06,13.5,0,6.24-37-8.98-37m-20.91,14c0,.55-.45,1-1,1h-2c-.55,0-1,.45-1,1v2c0,.55-.45,1-1,1h-2c-.55,0-1-.45-1-1v-2c0-.55-.45-1-1-1h-2c-.55,0-1-.45-1-1v-2c0-.55,.45-1,1-1h2c.55,0,1-.45,1-1v-2c0-.55,.45-1,1-1h2c.55,0,1,.45,1,1v2c0,.55,.45,1,1,1h2c.55,0,1,.45,1,1v2Zm23-7c1.1,0,2,.9,2,2s-.9,2-2,2-2-.89-2-2,.89-2,2-2m-4,8c-1.1,0-2-.89-2-2s.9-2,2-2,2,.9,2,2-.9,2-2,2m4,4c-1.11,0-2-.89-2-2s.89-2,2-2,2,.9,2,2-.9,2-2,2m4-4c-1.11,0-2-.89-2-2s.89-2,2-2,2,.9,2,2-.9,2-2,2"/></g></g></svg>