<?xml version="1.0" encoding="UTF-8"?><svg id="Laag_1" xmlns="http://www.w3.org/2000/svg" xmlns:xlink="http://www.w3.org/1999/xlink" viewBox="0 0 64 64"><defs><style>.cls-1{fill:none;}.cls-2{clip-path:url(#clippath);}.cls-3{clip-path:url(#clippath-1);}</style><clipPath id="clippath"><rect class="cls-1" width="64" height="64"/></clipPath><clipPath id="clippath-1"><rect class="cls-1" width="64" height="64"/></clipPath></defs><g class="cls-2"><g class="cls-3"><path d="M44.88,28.07c.08-.95,.11-1.89,.11-2.85,0-7.48-2.81-15.48-7.13-18.07-2.75-1.65-5.84-1.05-5.84-1.05,0,0-2.97-2.86-8.17-1.88-8.48,1.6-14.84,9.74-14.84,21,0,3.73,.56,7.15,1.82,12.24,.1,.42,.5,.67,.88,.54,1.82-.64,4.29-1.01,7.36-1.3-.11,.94-.23,1.99-.36,3.06-1.67,1.2-8.78,2.66-11.49,5.5-2.76,2.88-4.21,13.74-4.21,13.74H39v-13.53c0-1.63,.05-2.94,.49-4.05-1.61-.64-3.02-1.21-3.72-1.77-.1-.85-.24-1.89-.39-2.89,2.16,.23,4.07,.49,5.62,.86v-5.18c0-2.22,1.69-4.04,3.88-4.38m-8.82-1.25c-.53,3.18-2.82,7.63-5.34,9.19-1.72,1.06-4.87,1.23-6.71,.44,.42,.84,1.27,1.84,3.15,2.31,2.54,.63,4.85-.41,5.45-.75,.11,.8,.22,1.59,.29,2.28,.05,.43,.16,1.49,3.13,2.88-2.32,4.03-7.4,6.19-8.98,6.78-1.49-.64-6.14-2.88-8.39-6.8,2.88-1.19,2.71-2.27,2.76-2.72,.07-.58,.58-5.32,.58-5.32-2.52-2.48-3.6-5.57-4.06-8.28-.29-1.73-.25-3.34-.16-4.41,4.8-1.89,11.6-5.75,14.23-9.06,0,0,.32,.01,.12,.5-.34,.83-.85,1.81-1.55,2.98,1.24,2.63,3.47,4.56,5.68,5.93,.07,1.03,.07,2.47-.2,4.06"/><path d="M58.78,41c-.84-.37-1.19-1.06-1.34-1.68-2.09-.36-6.08-.96-6.2-.99-.25-.05-.29-.23-.24-.33h8v-5.56c0-.8-.71-1.44-1.58-1.44h-11.84c-.87,0-1.58,.65-1.58,1.44v5.56h1.62s.37,2.22-1.4,3c-2.22,.97-2.22,1.47-2.22,4.47,0,.56,.02,13.53,.02,13.53,0,1.85,6.88,2,9.48,2s9.5-.15,9.5-2v-13.53c0-3,0-3.5-2.22-4.47m-.78,13.32c-1.7,.31-3.99,.51-6.51,.51s-4.79-.19-6.49-.5v-9.12c1.7,.31,3.98,.5,6.49,.5s4.8-.19,6.5-.5h.01v9.12Z"/></g></g></svg>