<?xml version="1.0" encoding="UTF-8"?><svg id="Laag_1" xmlns="http://www.w3.org/2000/svg" xmlns:xlink="http://www.w3.org/1999/xlink" viewBox="0 0 64 64"><defs><style>.cls-1{fill:none;}.cls-2{clip-path:url(#clippath);}.cls-3{clip-path:url(#clippath-1);}</style><clipPath id="clippath"><rect class="cls-1" width="64" height="64"/></clipPath><clipPath id="clippath-1"><rect class="cls-1" width="64" height="64"/></clipPath></defs><g class="cls-2"><g class="cls-3"><path d="M17.41,30.35c-3.52-.47-6.88,.2-7.34,2.22-1,4.38,11.94,4.17,12.61,1.51,.48-1.9-1.28-3.19-5.28-3.72"/><path d="M43.25,18.8c-5.35-1.54-8.89,1.8-13.08,5.78-3.92,3.72-6.24,7.66-1.38,10.02,3.77,1.83,10.31,1.51,14.29,1.02-2.33-1.65-6.51-4.86-5.21-5.83,0,0,6.36,6.46,12.22,3.82,7.32-3.31-1.34-13.22-6.84-14.81"/><path d="M61.95,31.74c-.69-11.43-12.01-20.52-21.58-20.52h0c-2.97,0-6.1,.85-9.19,3.05-10.58,7.56-10.58,9.61-17.76,10.25-5.31,.47-9.97,1.78-10.88,7.02-.56,3.23-.92,7.52,.38,11.91,1.73,5.8,22.56,7.37,29.18,7.37h0c6.18,0,25.06-.84,27.8-6.54,1.87-3.88,2.23-9.3,2.04-12.54m-4.2,1.71c-.92,2.83-3.07,4.71-11.36,5.97-6.44,.98-13.03,1.03-14.29,1.03-2.45,0-8.65-.09-14.77-.97-7.9-1.21-11.43-3.4-11.43-7.11,0-2.54,2.66-4.05,7.7-4.37,6.26-.56,8.43-2.37,13.09-5.99,1.67-1.3,3.74-2.91,6.52-4.89,3.11-2.22,6.41-2.9,10.1-2.06,5.21,1.18,10.15,4.91,12.89,9.74,1.76,3.1,2.33,6.26,1.55,8.65"/></g></g></svg>