<?xml version="1.0" encoding="UTF-8"?><svg id="Laag_1" xmlns="http://www.w3.org/2000/svg" xmlns:xlink="http://www.w3.org/1999/xlink" viewBox="0 0 64 64"><defs><style>.cls-1{fill:none;}.cls-2{clip-path:url(#clippath);}.cls-3{clip-path:url(#clippath-1);}</style><clipPath id="clippath"><rect class="cls-1" width="64" height="64"/></clipPath><clipPath id="clippath-1"><rect class="cls-1" width="64" height="64"/></clipPath></defs><g class="cls-2"><g class="cls-3"><path d="M37.63,29.55s0,.09,0,.13c.23-.07,.45-.13,.69-.17,3.01-.5,7.47-.61,10.68-.61,2.31,0,5.25,.06,7.84,.27,.77-.54,1.2-1.13,1.14-1.76-.07-.72-.27-2.61-11.26-2.61-1.32,0-2.65,.03-3.93,.1,3.09-2.75,6.36-6.26,5.13-7.96-.24-.32-.7-.71-1.56-.71-1.53,0-4.62,1.45-7.62,3.17,.96-2.51,1.84-5.21,2.46-7.6,1.56-5.99,.86-7.23-.14-7.67-.19-.08-.39-.13-.61-.13-2.48,0-6.79,7.46-9.17,12.08-.82-3.97-2.18-8.49-4.16-8.49h-.17c-2.09,.23-2.51,5.02-2.48,9.15-3.57-4.38-8.82-9.9-11.11-9.9-.34,0-.66,.1-.92,.29-.88,.64-1.31,1.99,1.46,7.53,1.1,2.2,2.53,4.66,3.98,6.92-2.85-.92-5.65-1.6-7.24-1.6-1.16,0-1.92,.37-2.24,1.1-.6,1.34,.55,2.77,4.1,5.11,.82,.54,1.73,1.1,2.66,1.64-5.27,.86-14.72,2.79-14.43,5.59,.07,.72,.27,2.61,11.25,2.61,1.32,0,2.65-.03,3.94-.1-3.09,2.75-6.36,6.26-5.13,7.96,.24,.32,.7,.71,1.56,.71,1.53,0,4.62-1.45,7.62-3.17-.96,2.51-1.84,5.21-2.46,7.6-1.56,5.99-.86,7.23,.14,7.67,.19,.08,.39,.13,.61,.13,2.48,0,6.79-7.46,9.17-12.08,.82,3.97,2.19,8.49,4.16,8.49h.17c.57-.07,1.01-.48,1.36-1.12-.17-2.4-.22-5.02-.22-7.11,0-2.2,.05-4.98,.25-7.49-.71,.04-1.43-.26-1.86-.85-.33-.46-.47-1.02-.38-1.58,.09-.56,.39-1.05,.85-1.38,.36-.27,.79-.41,1.24-.41,.25,0,.49,.06,.72,.14,.21-.64,.53-1.23,.94-1.75-.67-.3-1.17-.93-1.25-1.71-.12-1.16,.72-2.2,1.89-2.33,.08,0,.15-.01,.22-.01,1.09,0,1.99,.82,2.1,1.9m-13.15-5.86c.36-.27,.79-.41,1.24-.41,.68,0,1.32,.33,1.72,.87,.69,.94,.48,2.27-.47,2.96-.92,.67-2.3,.44-2.96-.47-.69-.95-.48-2.27,.47-2.96m-1.05,9.47c-1.17,.13-2.21-.73-2.33-1.89-.06-.56,.1-1.11,.46-1.55,.36-.44,.86-.71,1.43-.77,.07,0,.15-.01,.22-.01,1.09,0,1.99,.81,2.1,1.9,.06,.56-.1,1.11-.46,1.55-.36,.44-.86,.71-1.42,.77m5.35,3.77c-.46,1.03-1.75,1.54-2.8,1.07-.52-.23-.91-.65-1.12-1.18-.2-.53-.19-1.1,.04-1.62,.34-.76,1.1-1.26,1.93-1.26,.3,0,.59,.06,.86,.18,.52,.23,.91,.65,1.12,1.18,.2,.53,.19,1.1-.04,1.62m2.51-3.87c-1.46,1.06-3.51,.74-4.58-.73-1.06-1.46-.74-3.51,.73-4.58,1.46-1.06,3.51-.74,4.58,.73,1.06,1.46,.74,3.51-.73,4.58m2.53-7.44c-.46,1.04-1.75,1.54-2.8,1.07-.52-.23-.91-.65-1.12-1.18-.2-.53-.19-1.1,.04-1.62,.34-.76,1.1-1.26,1.93-1.26,.3,0,.59,.06,.86,.18,.52,.23,.91,.65,1.12,1.18,.2,.53,.19,1.1-.04,1.62"/><path d="M61.43,34.83c-.19-1.17-1.09-2.07-2.26-2.26-3.39-.56-9.04-.56-10.17-.56s-6.78,0-10.17,.56c-1.17,.2-2.07,1.09-2.26,2.26-.57,3.39-.57,9.04-.57,10.17s0,6.78,.57,10.17c.19,1.17,1.09,2.06,2.26,2.26,3.39,.57,9.04,.57,10.17,.57s6.78,0,10.17-.57c1.17-.2,2.07-1.09,2.26-2.26,.56-3.39,.56-9.04,.56-10.17,0-3.39,0-6.78-.56-10.17m-14.19,1.17l3.81-.31-.31,8.79v3.51h-3.51v-12Zm1.79,18.06c-1.32,0-2.07-.71-2.07-2.03,0-1.17,.7-2.09,2.05-2.09s2.07,.74,2.07,2.09c0,1.14-.7,2.03-2.05,2.03"/></g></g></svg>