<?xml version="1.0" encoding="UTF-8"?><svg id="Laag_1" xmlns="http://www.w3.org/2000/svg" viewBox="0 0 24 24"><defs><style>.cls-1{fill:none;}</style></defs><path class="cls-1" d="m0,0v24h24V0H0Zm22.04,20.22c-.16.95-.88,1.67-1.83,1.83-2.74.46-7.3.46-8.22.46s-5.48,0-8.22-.46c-.95-.16-1.67-.88-1.83-1.83-.46-2.74-.46-7.3-.46-8.22s0-5.48.46-8.22c.16-.95.88-1.67,1.83-1.83,2.74-.46,7.3-.46,8.22-.46s5.48,0,8.22.46c.95.16,1.67.88,1.83,1.83.46,2.74.46,5.48.46,8.22,0,.91,0,5.48-.46,8.22Z"/><path d="m20.22,1.96c-2.74-.46-7.3-.46-8.22-.46s-5.48,0-8.22.46c-.95.16-1.67.88-1.83,1.83-.46,2.74-.46,7.3-.46,8.22s0,5.48.46,8.22c.16.95.88,1.67,1.83,1.83,2.74.46,7.3.46,8.22.46s5.48,0,8.22-.46c.95-.16,1.67-.88,1.83-1.83.46-2.74.46-7.3.46-8.22,0-2.74,0-5.48-.46-8.22-.16-.95-.88-1.67-1.83-1.83Zm-3.53,6.4l-4.89,8.09c-.14.23-.38.36-.64.36h0c-.26,0-.51-.14-.64-.37l-3.2-5.38c-.19-.32-.12-.73.16-.97.28-.24.69-.24.97,0l2.65,2.3,4.4-4.95c.26-.29.7-.34,1.01-.1.31.23.4.67.19,1Z"/></svg>