<?xml version="1.0" encoding="UTF-8"?><svg id="Laag_1" xmlns="http://www.w3.org/2000/svg" xmlns:xlink="http://www.w3.org/1999/xlink" viewBox="0 0 64 64"><defs><style>.cls-1{fill:none;}.cls-2{clip-path:url(#clippath);}.cls-3{clip-path:url(#clippath-1);}</style><clipPath id="clippath"><rect class="cls-1" width="64" height="64"/></clipPath><clipPath id="clippath-1"><rect class="cls-1" width="64" height="64"/></clipPath></defs><g class="cls-2"><g class="cls-3"><path d="M53.2,16.07c-.86-1.64-2.4-2.95-3.54-4.18,2.18-2.4,2.66-4.59,2.14-5.43-.67-1.07-2.01,.05-2.01,.05,0,0-.22-1.81-.96-2.07-.89-.31-1.59,.89-1.59,.89,0,0-.32-1.97-1.37-2.22-.95-.23-1.37,1.41-1.37,1.41,0,0-.86-1.68-1.87-1.39-.85,.25-1.68,3.35,.14,5.89-2.41,.99-3.59,2.62-4.39,4.47-1.85,4.29-1.68,10.19-10.57,10.86-7.5,.56-12.34-10.64-13.49-13.76-1.1-2.98-9.72,5.83-1.84,14.99-5.52-.94-3.68,5.6,2.52,10.2-1,.21-1.69,.63-1.9,1.25-.3,.88,.3,2.14,1.76,3.14,7.83,5.33,16.54,.15,16.54,.15,.26,.16,.31,.65-.41,1.18-1.97,1.44-4.08,2.38-6.03,3,1.17,1.62,2.56,3.06,4.1,3.74l3.06,6.82c-1.82,.76-3.98,2.45-3.74,3.51,.14,.63,.88,.69,1.63,.28,.67-.37,2.56-1.59,4-1.59,1.34,0,4.83,1.54,6.72,2.51,.58,.3,1.55,.22,1.58-.51,.03-.66-.62-1.38-1.59-2.05,3.04,.1,6.08,.71,6.12,.72,1.04,.32,2.08-.83,.3-1.87-1.43-.83-4.53-1.22-5.72-1.17l-1.35-6.46c1.34-.57,2.66-2.31,3.67-3.96,8.21-3.56,8.63-11.81,4.8-18.85,2.08-.26,3.48-2.03,3.25-4.04-.23-2.07-1.56-2.47-2.82-4.89,2.14-.29,4.22,.45,4.22,.45,.41,.04,.36-.46,.04-1.07m-18.53,38.71l-1.73-6.13h3.39l2.47,7.49c-1.36-.64-2.87-1.14-4.13-1.36M46,15.5c-.83,0-1.5-.67-1.5-1.5s.67-1.5,1.5-1.5,1.5,.67,1.5,1.5-.67,1.5-1.5,1.5"/></g></g></svg>