<?xml version="1.0" encoding="UTF-8"?><svg id="Laag_1" xmlns="http://www.w3.org/2000/svg" xmlns:xlink="http://www.w3.org/1999/xlink" viewBox="0 0 24 24"><defs><style>.cls-1{fill:none;}.cls-2{clip-path:url(#clippath);}.cls-3{clip-path:url(#clippath-1);}</style><clipPath id="clippath"><rect class="cls-1" width="24" height="24"/></clipPath><clipPath id="clippath-1"><rect class="cls-1" width="24" height="24"/></clipPath></defs><g class="cls-2"><g class="cls-3"><path d="m20.5,4.03h-2.5v-2.03c0-.83-.67-1-1.5-1s-1.5.17-1.5,1v2.03h-7v-2.03c0-.83-.67-1-1.5-1s-1.5.17-1.5,1v2.03h-2.5c-.81,0-1.47.66-1.47,1.47v16c0,.81.66,1.47,1.47,1.47h18c.81,0,1.47-.66,1.47-1.47V5.5c0-.81-.66-1.47-1.47-1.47M2.97,9h17.07v12.03H2.97v-12.03Z"/><path d="m14.34,11.31l-3.48,3.58-2.26-1.6c-.38-.27-.9-.22-1.23.11-.33.34-.36.86-.08,1.23l2.93,3.9c.18.24.46.38.76.38,0,0,.02,0,.02,0,.31,0,.59-.16.76-.42l4.04-5.99c.27-.41.19-.96-.19-1.27-.38-.31-.94-.28-1.28.07"/></g></g></svg>