<?xml version="1.0" encoding="UTF-8"?><svg id="Laag_1" xmlns="http://www.w3.org/2000/svg" xmlns:xlink="http://www.w3.org/1999/xlink" viewBox="0 0 64 64"><defs><style>.cls-1{fill:none;}.cls-2{clip-path:url(#clippath);}.cls-3{clip-path:url(#clippath-1);}</style><clipPath id="clippath"><rect class="cls-1" width="64" height="64"/></clipPath><clipPath id="clippath-1"><rect class="cls-1" width="64" height="64"/></clipPath></defs><g class="cls-2"><g class="cls-3"><path d="M45.47,50.8c-.83-1.01-1.38-2.69-1.34-3.38-.05-.03-.13-.04-.19,.07-.36,.58-.64,1.14-.75,1.69-.19,.96,.04,1.9,.66,2.65,.76,.93,2.01,1.46,3.42,1.46,.52,0,1.01-.07,1.47-.21,.13-.04,.15-.1,.11-.16-1.67-.56-2.49-1.06-3.37-2.13"/><path d="M47.53,34.64c-.16-.49-.31-.64-.52-.64s-.36,.16-.52,.64c-2.1,6.26-7.26,9.22-8.2,13.93-.99,4.93,2.94,9.43,8.73,9.43s9.7-4.49,8.72-9.43c-.93-4.71-6.1-7.67-8.2-13.93m4.49,18.54c-1.12,1.36-2.95,2.13-5.02,2.13s-3.91-.78-5.03-2.15c-.92-1.12-1.28-2.53-.99-3.95,.34-1.7,1.66-3.36,3.18-5.28,.93-1.18,1.92-2.43,2.84-3.87,.92,1.43,1.91,2.68,2.84,3.86,1.52,1.92,2.84,3.58,3.17,5.28,.28,1.44-.07,2.85-1,3.98"/><path d="M59.13,24.33c-3.27-5.23-11.99-16.33-27.13-16.33S8.14,19.09,4.87,24.33c-1.02,1.64-1.02,3.71,0,5.35,3.27,5.23,11.99,16.33,27.13,16.33,1.83,0,3.56-.17,5.21-.46,.8-1.65,1.94-3.11,3.13-4.63,.53-.68,1.07-1.37,1.59-2.08-2.8,1.3-6.1,2.17-9.93,2.17-15.38,0-22.22-14-22.22-14,0,0,3.1-6.34,9.82-10.49-.78,1.49-1.31,3.12-1.51,4.84-.97,8.47,5.63,15.65,13.91,15.65,7.37,0,13.42-5.7,13.96-12.94,.36-4.83-4.08-7.81-8.46-10.13-.18-.1-.17-.3-.16-.34,11.64,2.67,16.88,13.41,16.88,13.41,0,0-1.58,3.23-4.92,6.58,.42,1,.72,2.29,2.46,4.79,3.53-3.08,5.96-6.44,7.37-8.7,1.02-1.64,1.02-3.71,0-5.35m-21.03-1.33c0,3.37-2.73,6.1-6.1,6.1s-6.1-2.73-6.1-6.1,2.73-6.1,6.1-6.1,6.1,2.73,6.1,6.1"/></g></g></svg>