<?xml version="1.0" encoding="UTF-8"?><svg id="Laag_1" xmlns="http://www.w3.org/2000/svg" xmlns:xlink="http://www.w3.org/1999/xlink" viewBox="0 0 64 64"><defs><style>.cls-1{fill:none;}.cls-2{clip-path:url(#clippath);}.cls-3{clip-path:url(#clippath-1);}</style><clipPath id="clippath"><rect class="cls-1" width="64" height="64"/></clipPath><clipPath id="clippath-1"><rect class="cls-1" width="64" height="64"/></clipPath></defs><g class="cls-2"><g class="cls-3"><path d="M56.56,57.15l-7.92-33.61c-.21-.9-1.02-1.54-1.95-1.54h-8.72c2.44-1.83,4.03-4.73,4.03-8,0-5.51-4.49-10-10-10s-10,4.49-10,10c0,2.48,.91,4.74,2.41,6.49l5.76,1.15c.32,.1,.27,.31,.25,.36h-13.11c-.93,0-1.73,.64-1.95,1.54L7.44,57.13c-.25,1.06,.39,2.13,1.45,2.4,3.43,.86,11.44,2.47,23.31,2.47s19.58-1.6,22.92-2.46c1.05-.27,1.69-1.34,1.44-2.39m-29.08-9.11l-3.82-5.74h-.46v5.74h-3.31v-14.08h3.31v5.47h.41l3.98-5.47h3.9l-4.96,6.65,5.06,7.43h-4.1Zm4.52-30.04c-2.21,0-4-1.8-4-4s1.79-4,4-4,4,1.79,4,4-1.79,4-4,4m12.1,29.72l-.36,.07c-1.35,.27-2.6,.39-4.05,.39-4.37,0-6.98-2.54-6.98-6.8,0-4.66,2.91-7.56,7.58-7.56,1.2,0,2.08,.08,3.06,.27l.4,.08-.26,2.93-.47-.07c-1.11-.17-1.85-.2-2.81-.2-2.59,0-4.07,1.57-4.07,4.31,0,3.06,1.88,4.15,3.65,4.15,.43,0,.72,0,1.08-.04v-1.83h-2.03v-2.87h5.26v7.16Z"/></g></g></svg>