<?xml version="1.0" encoding="UTF-8"?><svg id="Laag_1" xmlns="http://www.w3.org/2000/svg" xmlns:xlink="http://www.w3.org/1999/xlink" viewBox="0 0 64 64"><defs><style>.cls-1{fill:none;}.cls-2{clip-path:url(#clippath);}.cls-3{clip-path:url(#clippath-1);}</style><clipPath id="clippath"><rect class="cls-1" width="64" height="64"/></clipPath><clipPath id="clippath-1"><rect class="cls-1" width="64" height="64"/></clipPath></defs><g class="cls-2"><g class="cls-3"><path d="M58.58,50.48L34.38,9.47c-.54-.91-1.52-1.47-2.58-1.47h-.01c-1.07,0-2.05,.57-2.58,1.49L5.41,50.49c-.54,.93-.54,2.07,0,3,.53,.93,1.53,1.5,2.6,1.5H56c1.08,0,2.07-.58,2.61-1.51,.53-.94,.53-2.09-.02-3.01m-46.54-.48L31.81,15.94l20.11,34.06H12.04Z"/><path d="M30.25,35.98l-3-5.2c-2.84,1.64-4.75,4.7-4.75,8.22h6c0-1.3,.71-2.41,1.76-3.02"/><path d="M35.49,38.99h6c0-3.52-1.92-6.58-4.75-8.22l-3,5.2c1.04,.6,1.76,1.72,1.76,3.02"/><path d="M31.99,42.49c-.64,0-1.23-.18-1.74-.48l-3,5.2c1.4,.81,3.01,1.28,4.75,1.28s3.35-.47,4.75-1.28l-3-5.2c-.52,.3-1.11,.48-1.74,.48"/><path d="M29.99,38.99c0,1.11,.89,2,2,2s2-.89,2-2-.9-2-2-2-2,.9-2,2"/></g></g></svg>