<?xml version="1.0" encoding="UTF-8"?><svg id="Laag_1" xmlns="http://www.w3.org/2000/svg" xmlns:xlink="http://www.w3.org/1999/xlink" viewBox="0 0 64 64"><defs><style>.cls-1{fill:none;}.cls-2{clip-path:url(#clippath);}.cls-3{clip-path:url(#clippath-1);}</style><clipPath id="clippath"><rect class="cls-1" width="64" height="64"/></clipPath><clipPath id="clippath-1"><rect class="cls-1" width="64" height="64"/></clipPath></defs><g class="cls-2"><g class="cls-3"><path d="M60.9,29.84c1-.68,1.62-1.5,1.8-1.91,.37-.85,.13-2.31-1.29-2.59-.63-.12-1.81,0-2.86,.14-.81-2.93-2.23-7.67-3.05-8.53-1.11-1.16-4.99-1.73-13.49-1.73s-12.39,.58-13.49,1.73c-.83,.86-2.24,5.6-3.05,8.53-1.05-.15-2.24-.26-2.86-.14-1.42,.27-1.66,1.74-1.29,2.59,.18,.4,.8,1.22,1.8,1.91-1.62,2.19-2.1,4.09-2.1,7.62v9.66s0,2.83,.4,4.71c.14,.69,.78,1.17,1.51,1.17h5.13c.73,0,1.37-.49,1.51-1.17,.22-1.05,.41-2.41,.45-3.4,0,0-4.58-.94-4.85-1.02-.27-.09-.31-.27-.3-.41H59.15c0,.18-.03,.32-.3,.41-.27,.08-4.85,.92-4.85,.92,.04,.98,.23,2.45,.45,3.5,.14,.69,.78,1.17,1.51,1.17h5.13c.73,0,1.37-.49,1.51-1.17,.39-1.88,.39-4.71,.39-4.71v-9.66c0-3.54-.48-5.44-2.1-7.62m-29.91-10.5c.49-.24,4.11-.66,11.01-.66s10.51,.42,11.01,.66c.49,.83,2.05,6.49,2.49,8.66-2.45,.68-8.04,1.15-13.5,1.15s-11.05-.46-13.5-1.15c.44-2.17,2-7.83,2.49-8.66m1.33,21.97l-4.95-.4c-1.34-.11-2.16-1.18-2.41-2.35l-.2-1.42c-.13-.88,.77-1.62,1.66-1.37l4,1.11c.87,.34,1.53,1.02,1.81,1.87l.55,2.04c.07,.27-.17,.54-.47,.51m14.67,2.69h-10v-2h10v2Zm12.23-6.86l-.2,1.42c-.24,1.17-1.07,2.24-2.41,2.35l-4.95,.4c-.29,.02-.54-.24-.47-.51l.55-2.04c.28-.85,.94-1.53,1.81-1.87l4-1.11c.89-.25,1.79,.5,1.66,1.37"/><path d="M9.5,15.76c2.22,0,3.5-1.56,3.5-3.81,0-2.56-1.34-3.93-3.5-3.93-2.28,0-3.5,1.62-3.5,3.93,0,2.44,1.28,3.81,3.5,3.81"/><path d="M13.54,17.6c-2.42-.58-5.67-.58-8.02,0C.9,18.74,1.1,26.39,1.1,32.71c.15,2.22,1.78,2.85,2.76,2.85v-5.86c0-2.7,.54-5.61,.85-6.58,.09-.3,.3-.24,.3-.24v30.12s3.33,.03,3.6-3.67c0,0,.53-13.97,.53-14.13,0-.16,.12-.36,.38-.36s.37,.2,.38,.36c0,.16,.53,14.02,.53,14.02,.21,3.8,3.56,3.77,3.56,3.77V22.88s.22-.08,.33,.24c.3,.87,.77,3.8,.77,6.55v5.89c.98,0,2.59-.61,2.76-2.85,0-6.32,.31-14.01-4.31-15.11"/><path d="M46.53,27c2,0,3.16-1.41,3.16-3.44,0-2.32-1.21-3.56-3.16-3.56-2.06,0-3.16,1.47-3.16,3.56,0,2.2,1.16,3.44,3.16,3.44"/></g></g></svg>