<?xml version="1.0" encoding="UTF-8"?><svg id="Laag_1" xmlns="http://www.w3.org/2000/svg" xmlns:xlink="http://www.w3.org/1999/xlink" viewBox="0 0 64 64"><defs><style>.cls-1{fill:none;}.cls-2{clip-path:url(#clippath);}.cls-3{clip-path:url(#clippath-1);}</style><clipPath id="clippath"><rect class="cls-1" width="64" height="64"/></clipPath><clipPath id="clippath-1"><rect class="cls-1" width="64" height="64"/></clipPath></defs><g class="cls-2"><g class="cls-3"><path d="M50.03,12H13.97c-1.64,0-2.97,1.33-2.97,2.97v30.05c0,1.64,1.33,2.97,2.97,2.97h12.03v-4H15.51c-.83,0-1.51-.68-1.51-1.51V24.51c0-.83,.68-1.51,1.51-1.51H48.49c.83,0,1.51,.68,1.51,1.51v17.98c0,.83-.68,1.51-1.51,1.51h-10.49v4h12.03c1.64,0,2.97-1.33,2.97-2.97V14.97c0-1.64-1.33-2.97-2.97-2.97M17,20h-3v-3h3v3Zm5,0h-3v-3h3v3Zm28,0H24v-3h26v3Z"/><path d="M40.36,41.97c.23-.26,.34-.59,.34-.92,0-.31-.1-.62-.3-.88l-6.26-7.93c-.27-.34-.68-.54-1.11-.54s-.84,.2-1.11,.54l-6.26,7.93c-.42,.53-.4,1.28,.04,1.8,.44,.51,1.18,.64,1.77,.31l3.47-1.98v2.66c0,4.84-5.76,8.15-5.76,8.15-.8,.46-.7,.79,.22,.73,0,0,9.72-1.51,9.72-8.78v-5.47s.11-.07,.16,.13c.07,.25,.84,3.15,.84,3.15l2.47,1.41c.59,.33,1.33,.21,1.77-.31"/></g></g></svg>