<?xml version="1.0" encoding="UTF-8"?><svg id="Laag_1" xmlns="http://www.w3.org/2000/svg" xmlns:xlink="http://www.w3.org/1999/xlink" viewBox="0 0 64 64"><defs><style>.cls-1{fill:none;}.cls-2{clip-path:url(#clippath);}.cls-3{clip-path:url(#clippath-1);}</style><clipPath id="clippath"><rect class="cls-1" width="64" height="64"/></clipPath><clipPath id="clippath-1"><rect class="cls-1" width="64" height="64"/></clipPath></defs><g class="cls-2"><g class="cls-3"><path d="M42.91,12.09c6.17,.77,9.2,7.69,10.28,12.05,.91,3.7,.25,6.05,1.33,6.65,2.06,1.15,1.14-3.72,2.69-3.05,1.92,.84,3.06,.23,2.72-1.97-1.11-7.13-5.94-16.83-16.1-17.53-10.43-.71-16.38,10.88-16.42,11.01v3.39c.12-.4,7.4-11.56,15.5-10.55"/><path d="M55.45,32.28c-.8,0-1.45,1.31-1.45,2.94s.65,2.93,1.45,2.93,1.45-1.31,1.45-2.93-.65-2.94-1.45-2.94"/><path d="M59.02,30.23c-.53,0-.95,.88-.95,1.96s.42,1.96,.95,1.96,.95-.88,.95-1.96-.42-1.96-.95-1.96"/><path d="M3.01,27.95c0,3.37,.59,9.39,1.13,12.93,1.9-.05,4.18-1.98,5.93-3.29,1.86,1.4,4.13,3.3,6,3.3s4.25-1.98,6-3.3c1.86,1.4,4.13,3.3,6,3.3,.26,0,.54-.05,.82-.12,.54-3.55,1.12-9.47,1.12-12.82,0,0-2-.85-4-1.75v-6.56c0-.28-.23-.49-.5-.49h-2.5v-3.51c0-.28-.23-.49-.5-.49H10.5c-.28,0-.5,.21-.5,.49v3.51h-2.5c-.28,0-.5,.21-.5,.49v3.89c2-.47,3.76-.88,6.16-1.06,4.16-.3,7.09,.91,8.97,2.06,.24,.15,.31,.33,.3,.5-1.9-.52-3.96-.88-5.93-.88-6.26,0-13.49,3.8-13.49,3.8m10.99,6.2H7v-3.01c0-.55,.45-1,1-1s1,.45,1,1v1.01h3v-1.01c0-.55,.45-1,1-1s1,.45,1,1v3.01Zm5-3.01c0-.55,.45-1,1-1s1,.45,1,1v1.01h3v-1.01c0-.55,.45-1,1-1s1,.45,1,1v3.01h-7v-3.01Z"/><path d="M10.06,45.14c1.34,.79,3.6,1.86,6,1.86s4.66-1.08,6-1.86c1.34,.79,3.6,1.86,6,1.86,1.36,0,2.68-.35,3.81-.8,1.54-1.14,3.5-2.47,5.72-3.68-1.51-.64-2.82-1.65-3.53-2.18-1,.75-3.49,2.75-6,2.75s-4.92-1.94-6-2.75c-1,.75-3.49,2.75-6,2.75s-4.92-1.94-6-2.75c-1,.75-3.49,2.75-6,2.75-.68,0-1.39-.18-2.06-.42v4.08c.66,.15,1.36,.25,2.06,.25,2.4,0,4.66-1.08,6-1.86"/><path d="M60.7,42.82c.13-.44,.21-.92,.21-1.44,0-1.78-.87-3.23-1.95-3.23s-1.95,1.44-1.95,3.23c0,.22,.01,.44,.04,.65-2.79-.54-6.22-1.03-8.72-.83-5.92,.47-12.02,4.4-15.5,7.03-1.23,.85-2.99,1.85-4.77,1.85-2.46,0-4.92-1.94-6-2.75-1,.75-3.49,2.75-6,2.75s-4.92-1.94-6-2.75c-1,.75-3.49,2.75-6,2.75-.68,0-1.39-.18-2.06-.42v4.08c.66,.15,1.36,.25,2.06,.25,2.4,0,4.66-1.08,6-1.86,1.34,.79,3.6,1.86,6,1.86s4.66-1.08,6-1.86c1.34,.79,3.6,1.86,6,1.86s4.66-1.08,6-1.86c1.76,1.03,3.96,1.86,6,1.86,2.4,0,4.66-1.08,6-1.86,1.34,.79,3.6,1.86,6,1.86,2.03,0,4.24-.83,6-1.86,.94,.56,2.35,1.25,3.94,1.61v-10.59s-.5-.13-1.3-.33"/></g></g></svg>