<?xml version="1.0" encoding="UTF-8"?><svg id="Laag_1" xmlns="http://www.w3.org/2000/svg" xmlns:xlink="http://www.w3.org/1999/xlink" viewBox="0 0 64 64"><defs><style>.cls-1{fill:none;}.cls-2{clip-path:url(#clippath);}.cls-3{clip-path:url(#clippath-1);}</style><clipPath id="clippath"><rect class="cls-1" width="64" height="64"/></clipPath><clipPath id="clippath-1"><rect class="cls-1" width="64" height="64"/></clipPath></defs><g class="cls-2"><g class="cls-3"><path d="M10.12,46.17c-2.05,4.5-3.12,12.83-3.12,12.83h10.63c-1.89-7.91-5.85-11.6-7.51-12.83"/><path d="M53.87,46.16c-1.67,1.24-5.62,4.9-7.51,12.84h10.63s-1.07-8.34-3.13-12.84"/><path d="M52.18,43.69c-2.49-2.2-8.2-4.12-10.96-4.96-.15-1.11-.36-2.41-.55-3.48,1.79-2.17,2.89-4.41,3.25-6.7,1.33-1.22,2.07-3.17,2.07-5.56,0-1.85-.33-3.22-1.63-4.43,.71-2.09,1.22-5.73,1.32-8.27,.8-.46,1.85-.83,1.85-.83-3.33-6.79-10.54-3.47-10.54-3.47C34,1,25,1,25,1c1.3,1.3,2,3,2,3-9.83-1.01-10.86,7.1-10.86,7.1,0,0,.97-.37,2.18-.73,.11,2.89,.67,6.11,1.3,8.25-.85,.66-1.61,1.93-1.61,4.38s.74,4.33,2.06,5.55c.38,2.51,1.61,4.91,3.71,7.26-.11,.81-.23,1.75-.35,2.73-2.38,.69-8.9,2.75-11.6,5.15,2.11,1.55,6.85,5.96,8.89,15.31h22.59c2.03-9.35,6.78-13.76,8.89-15.31M21.95,15.63c-.27-1.34-.46-2.79-.56-4.08,7.05-.87,14.17-.87,21.22,0-.11,1.3-.29,2.74-.56,4.08-6.67-.82-13.42-.82-20.09,0m15.81,27.29c-2.38,4.91-9.69,4.67-11.33-.53-.22-.68-.3-1.38-.22-2.07,.24-1.91,.04-.55,.82-5.44-2.28-2.2-4.1-4.87-4.1-8.06-1.62-.5-2.04-2.55-2.04-3.82s.32-1.96,.77-2.17c.39-.19,.77-.05,1.01,.09,.14,.65,.25,1.14,.29,1.31,.21,.85,1.02,.77,1.02,.77v-4.69c1.97-.2,3.94-.33,5.91-.38-.26,1.93-1.24,3.4-1.24,3.4,3.22-.31,5.17-2.08,6.19-3.39,.43,.02,.86,.05,1.29,.07,.59,1.63,1.56,2.82,1.56,2.82,.9-1.2,1.8-1.99,2.29-2.37v4.54s.82,.08,1.02-.77c.04-.17,.15-.66,.29-1.31,.24-.14,.62-.27,1.01-.09,.45,.21,.77,.9,.77,2.17s-.42,3.31-2.04,3.82c0,3.7-2.53,6.5-5.34,8.89-.78,.66-2.25,1.11-3.72,1.11-1.06,0-2.13-.29-2.93-.64,.61,.93,1.66,2.08,3.58,2.59,3.15,.83,5.46-.91,5.46-.91,0,0,.25,1.91,.27,2.42,.03,.9-.21,1.8-.63,2.66"/></g></g></svg>