<?xml version="1.0" encoding="UTF-8"?><svg id="Laag_1" xmlns="http://www.w3.org/2000/svg" viewBox="0 0 64 64"><defs><style>.cls-1{fill:none;}</style></defs><rect class="cls-1" width="64" height="64"/><g><circle cx="27.5" cy="23.5" r="3.99" transform="translate(3.58 50.63) rotate(-89.12)"/><path d="m53.75,32.17c-.46-.52-1.23-1.21-2.42-2.46-1.11-1.17-2.25-2.47-2.7-3.32-.35-.67-.13-2.42-.14-4.19-.02-2.53-2.63-8.34-2.63-8.34,1.2-2.67.47-11.52-14.16-10.2-19.41,1.75-21.93,13.18-22.22,14.9-1.31,7.81,2.21,15.56,5.56,21.44,3.94,6.91,4.44,14,1.44,20h22.5c-.07-4.4,0-5.64,0-5.64-2.94-.8-4.2-2.1-5.28-3.26-.67-.72-.41-.82-.34-.91,0,0,4.35,2.66,10.54,3.18,3.29.28,5.56-1.23,5.33-5.22-.05-.86.51-1.65,1.04-2.24.79-.88,1.41-1.31.73-2.63-.3-.57-.69-1.05-.69-1.05,0,0,.96-.56,1.39-1.33.67-1.21.06-1.39-.34-2.45-.33-.88-.19-1.77-.19-1.77,0,0,1.28-.76,2.21-1.45.52-.39,1.77-1.47.36-3.07Zm-14.55-7.15c-.97.23-1.92.44-2.84.64-.54.12-.98.49-1.19,1,0,.02-.01.03-.02.05-.21.51-.17,1.09.14,1.56.51.78,1.03,1.59,1.56,2.42.3.48-.01,1.08-.55,1.61-.53.53-1.13.84-1.61.54-.85-.52-1.67-1.04-2.46-1.55-.46-.3-1.03-.35-1.54-.14-.02,0-.03.01-.05.02-.52.21-.9.66-1.01,1.2-.19.91-.39,1.85-.61,2.82-.12.55-.77.76-1.53.76s-1.4-.21-1.53-.76c-.23-.97-.44-1.92-.64-2.84-.12-.54-.49-.98-1.01-1.19,0,0-.01,0-.02,0-.51-.21-1.08-.16-1.54.14-.79.51-1.62,1.03-2.46,1.55-.48.3-1.08-.01-1.61-.55-.53-.53-.85-1.14-.55-1.61.53-.83,1.05-1.64,1.56-2.42.3-.47.35-1.05.14-1.56,0-.02-.01-.03-.02-.05-.21-.51-.65-.88-1.19-1-.92-.2-1.87-.42-2.84-.64-.55-.13-.76-.77-.76-1.53s.2-1.4.76-1.53c.97-.21,1.91-.42,2.82-.61.55-.12.99-.5,1.2-1.01,0-.02.01-.03.02-.05.21-.51.16-1.08-.14-1.54-.51-.79-1.03-1.62-1.55-2.46-.3-.48.01-1.08.55-1.61.53-.53,1.14-.85,1.61-.55.83.53,1.63,1.05,2.41,1.55.47.31,1.06.36,1.59.14,0,0,.01,0,.02,0,.52-.21.9-.66,1.02-1.21.2-.91.41-1.86.64-2.82.13-.55.77-.76,1.53-.76s1.4.2,1.53.76c.21.96.41,1.9.6,2.8.12.55.5,1.01,1.03,1.22.02,0,.03.01.05.02.52.22,1.11.17,1.58-.14.77-.5,1.58-1.02,2.41-1.55.48-.3,1.08.01,1.61.55.53.53.84,1.13.54,1.61-.52.85-1.04,1.67-1.55,2.46-.3.46-.35,1.03-.14,1.54,0,.02.01.03.02.05.21.52.66.9,1.2,1.01.91.19,1.85.39,2.82.61.55.12.76.77.76,1.53s-.21,1.4-.76,1.53Z"/></g></svg>