<?xml version="1.0" encoding="UTF-8"?><svg id="Laag_1" xmlns="http://www.w3.org/2000/svg" xmlns:xlink="http://www.w3.org/1999/xlink" viewBox="0 0 64 64"><defs><style>.cls-1{fill:none;}.cls-2{clip-path:url(#clippath);}.cls-3{clip-path:url(#clippath-1);}</style><clipPath id="clippath"><rect class="cls-1" width="64" height="64"/></clipPath><clipPath id="clippath-1"><rect class="cls-1" width="64" height="64"/></clipPath></defs><g class="cls-2"><g class="cls-3"><path d="M18,16.81c0,4.01,.84,8.79,1.44,11.65,1.22-.38,2.35-.97,2.81-1.26l2.25-1.45,2.27,1.46c.69,.43,2.92,1.58,4.73,1.58s4.04-1.15,4.75-1.6l2.25-1.45,2.27,1.46c.45,.28,1.57,.87,2.79,1.24,.59-2.86,1.44-7.62,1.44-11.65,0,0-1.63-.85-4-1.75v-6.56c0-.28-.22-.5-.5-.5h-2.5v-3.5c0-.28-.22-.5-.5-.5h-12c-.28,0-.5,.22-.5,.5v3.5h-2.5c-.28,0-.5,.22-.5,.5v3.89c1.68-.47,3.76-.88,6.16-1.06,4.16-.3,7.1,.91,8.97,2.06,.24,.15,.31,.33,.3,.5-1.9-.52-3.96-.89-5.93-.89-6.26,0-13.5,3.81-13.5,3.81m11,6.19h-7v-3c0-.55,.45-1,1-1s1,.45,1,1v1h3v-1c0-.55,.45-1,1-1s1,.45,1,1v3Zm5-3c0-.55,.45-1,1-1s1,.45,1,1v1h3v-1c0-.55,.45-1,1-1s1,.45,1,1v3h-7v-3Z"/><path d="M59.5,31.08c-2.85,0-5.89-1.91-5.92-1.93l-1.08-.69-1.08,.69s-3.09,1.93-5.92,1.93-5.89-1.91-5.92-1.93l-1.08-.69-1.08,.69s-3.09,1.93-5.92,1.93-5.89-1.91-5.92-1.93l-1.08-.69-1.08,.69s-3.09,1.93-5.92,1.93-5.89-1.91-5.92-1.93l-1.08-.69-1.08,.69s-3.09,1.93-5.92,1.93c-.17,0-.33,0-.5-.02v3.92c.17,0,.33,.02,.5,.02,2.81,0,5.54-1.19,7-1.95,1.46,.76,4.19,1.95,7,1.95s5.54-1.19,7-1.95c1.46,.76,4.19,1.95,7,1.95s5.54-1.19,7-1.95c1.46,.76,4.19,1.95,7,1.95s5.54-1.19,7-1.95c1.46,.76,4.19,1.95,7,1.95,.17,0,.33,0,.5-.02v-3.92c-.17,.01-.33,.02-.5,.02"/><path d="M40.43,56H22.57c-2.08-3.98-8.44-14-19.57-14v4.9c9.66,0,15.02,11.11,15.6,12.36,.49,1.06,1.56,1.74,2.72,1.74h20.35c1.17,0,2.24-.68,2.72-1.74,.58-1.26,5.95-12.36,15.6-12.36v-4.9c-11.13,0-17.48,10.02-19.56,14"/></g></g></svg>