<?xml version="1.0" encoding="UTF-8"?><svg id="Laag_1" xmlns="http://www.w3.org/2000/svg" xmlns:xlink="http://www.w3.org/1999/xlink" viewBox="0 0 64 64"><defs><style>.cls-1{fill:none;}.cls-2{clip-path:url(#clippath);}.cls-3{clip-path:url(#clippath-1);}</style><clipPath id="clippath"><rect class="cls-1" width="64" height="64"/></clipPath><clipPath id="clippath-1"><rect class="cls-1" width="64" height="64"/></clipPath></defs><g class="cls-2"><g class="cls-3"><path d="M61.36,19.91c-2.98-.15-7.67-.61-8.15-2.05-.71-2.12,3.72-6.18,1.42-8.49-2.31-2.31-6.37,2.12-8.49,1.41-1.43-.48-1.9-5.17-2.05-8.15-.05-.92-1.2-1.28-1.78-.57-3.76,4.62-4.45,9.03-4.39,11.88,1.67,.82,3.25,1.91,4.64,3.3,2.57,2.57,2.3,3.15,2,3.32-.18-.2-.35-.41-.54-.6-6.64-6.64-17.4-6.64-24.04,0-6.64,6.64-6.64,17.4,0,24.04,.19,.19,.4,.36,.6,.54-.17,.3-.75,.58-3.32-2-1.39-1.39-2.48-2.97-3.3-4.64-2.85-.06-7.26,.62-11.88,4.39-.71,.58-.35,1.74,.57,1.78,2.98,.15,7.67,.61,8.15,2.05,.71,2.12-3.72,6.18-1.41,8.49s6.36-2.12,8.49-1.41c1.44,.48,1.9,5.17,2.05,8.15,.05,.92,1.2,1.28,1.78,.57,4.97-6.09,4.59-11.84,4.18-14.08,6.08,2.35,13.24,1.08,18.15-3.83,4.91-4.91,6.18-12.07,3.83-18.15,2.24,.41,7.99,.79,14.08-4.18,.71-.58,.35-1.74-.57-1.78m-22.64,15.35l-4.8-.76-2.21,4.33c-.21,.41-.82,.31-.89-.14l-.76-4.8-4.8-.76c-.45-.07-.55-.68-.14-.89l4.33-2.21-.76-4.8c-.07-.45,.48-.73,.8-.41l3.44,3.44,4.33-2.21c.41-.21,.84,.23,.64,.64l-2.21,4.33,3.44,3.44c.32,.32,.04,.87-.41,.8"/></g></g></svg>