<?xml version="1.0" encoding="UTF-8"?><svg id="Laag_1" xmlns="http://www.w3.org/2000/svg" xmlns:xlink="http://www.w3.org/1999/xlink" viewBox="0 0 64 64"><defs><style>.cls-1{fill:none;}.cls-2{clip-path:url(#clippath);}.cls-3{font-family:MyriadPro-Regular, 'Myriad Pro';font-size:7px;}.cls-4{clip-path:url(#clippath-1);}.cls-5{clip-path:url(#clippath-3);}.cls-6{clip-path:url(#clippath-2);}</style><clipPath id="clippath"><rect class="cls-1" x="790.17" y="822.97" width="64" height="64"/></clipPath><clipPath id="clippath-1"><rect class="cls-1" x="790.17" y="822.97" width="64" height="64"/></clipPath><clipPath id="clippath-2"><rect class="cls-1" width="64" height="64"/></clipPath><clipPath id="clippath-3"><rect class="cls-1" width="64" height="64"/></clipPath></defs><g class="cls-2"><g class="cls-4"><text class="cls-3" transform="translate(37.32 7.94)"><tspan x="0" y="0">0302 missie </tspan></text></g></g><g class="cls-6"><g class="cls-5"><path d="M60.12,48.49l-4.12-.88v-2.99l1.42,.11c1.52,.13,2.92-.83,3.35-2.3,1.09-3.82,2.97-10.83,2.59-12.55-.44-2.01-7.29-3.83-8.48-2.2-.56,.76-1.39,3.57-2.13,6.35-.1,.02-.26-.02-.31-.43-.15-1.23,.19-3.8,.65-5.93,.27-1.24,.79-2.79,3.77-2.63,.15,0,.32,.02,.49,.04,.25-1.37,.38-2.49,.26-3.03-.41-1.89-6.85-3.6-7.97-2.07-.35,.48-.82,1.82-1.3,3.45h0c-.07,.02-.32,.06-.34-.41-.04-.84,.07-2.25,.42-3.52,.32-1.15,.75-2.08,3.11-2.01,.05,0,.1,0,.15,0,.14-.9,.19-1.62,.1-2.02-.39-1.79-6.5-3.35-7.57-1.89-.4,.54-.96,2.2-1.51,4.15,3.6,4.39,10.1,16.4,7.23,22.76-.59,1.31-1.49,2.43-2.68,3.39l5.75,.47v3.26l-4.18,.88c-.75,.15-1.29,.81-1.29,1.57v.93l6.94-1.21,6.94,1.21v-.93c0-.76-.54-1.42-1.29-1.57"/><path d="M16.7,43.89c-1.19-.95-2.09-2.08-2.68-3.39-2.88-6.39,3.68-18.46,7.27-22.81-.54-1.93-1.1-3.56-1.5-4.1-1.06-1.46-7.17,.1-7.57,1.89-.09,.4-.04,1.12,.1,2.02,.05,0,.1,0,.15,0,2.36-.07,2.79,.86,3.11,2.01,.35,1.27,.46,2.68,.42,3.52-.02,.47-.26,.43-.34,.4h0c-.48-1.61-.95-2.96-1.3-3.44-1.12-1.53-7.56,.18-7.97,2.07-.12,.55,0,1.66,.26,3.03,.17-.02,.33-.03,.49-.04,2.98-.17,3.51,1.39,3.77,2.62,.46,2.12,.79,4.7,.65,5.93-.05,.41-.21,.45-.31,.43-.74-2.79-1.58-5.6-2.13-6.35-1.19-1.63-8.04,.19-8.48,2.2-.38,1.72,1.5,8.73,2.59,12.55,.42,1.47,1.82,2.43,3.34,2.31l1.43-.11v2.99l-4.12,.88c-.75,.15-1.29,.81-1.29,1.57v.93l6.94-1.21,6.94,1.21v-.93c0-.76-.54-1.42-1.29-1.57l-4.18-.88v-3.26l5.7-.46Z"/><path d="M47.99,39.62c2.62-5.82-5.26-19.42-7.89-21.56-1.91-1.56-4.44-2.06-8.13-2.06s-6.22,.5-8.13,2.06c-2.63,2.14-10.51,15.74-7.89,21.56,2.26,5.02,10.19,5.89,16.02,5.89,1,0,2.07-.03,3.16-.1,.07,.12,.07,.33-.44,.54-1.52,.62-5.35,1.48-9.68,1.05v4.53c0,1.69,3.68,2.41,6.96,2.41s6.96-.72,6.96-2.41v-6.55c3.97-.69,7.64-2.2,9.06-5.36m-7.25-5.35c-1.39,3.15-8.77,2.89-8.77,2.89,0,0-7.38,.27-8.77-2.89-1.39-3.15,2.88-10.75,4.32-11.9,1.05-.84,2.43-1.11,4.45-1.11s3.4,.27,4.45,1.11c1.44,1.15,5.71,8.75,4.32,11.9"/></g></g></svg>