<?xml version="1.0" encoding="UTF-8"?><svg id="Laag_1" xmlns="http://www.w3.org/2000/svg" viewBox="0 0 64 64"><defs><style>.cls-1{fill:none;}</style></defs><rect class="cls-1" width="64" height="64"/><path d="m20.67,41.25l18.63-22.2c1.34-1.59,1.13-3.98-.46-5.32l-5.78-4.85c-.36-.3-.76-.52-1.19-.66.18.95.11,1.96-.25,2.94l-10.95,30.08Z"/><path d="m19.96,37.66l9.88-27.14h0c.71-1.96-.3-4.12-2.25-4.84l-7.09-2.58c-.44-.16-.9-.23-1.34-.22.5.85.79,1.83.79,2.88v31.9Z"/><path d="m18.09,45.37V5.77c0-2.08-1.69-3.77-3.77-3.77h-1.89v9.43h-3.77V2h-1.89c-2.08,0-3.77,1.69-3.77,3.77v39.59c0,2.08,1.69,3.77,3.77,3.77h7.54c2.08,0,3.77-1.69,3.77-3.77Zm-7.54-.94c-1.56,0-2.83-1.26-2.83-2.83s1.26-2.83,2.83-2.83,2.83,1.26,2.83,2.83-1.26,2.83-2.83,2.83Z"/><path d="m45.28,30.23c1.8-1.04,2.42-3.35,1.38-5.15h0s-3.77-6.54-3.77-6.54c-.24-.41-.55-.75-.91-1.04-.15.99-.56,1.95-1.25,2.77l-20.46,24.39,25-14.43Z"/><path d="m59.98,52.2c-1.82.4-3.59.75-4.51.82-1.44.13-4,.52-4.49-1.45l-1.46-5.81c-.5-1.97,1.94-3.03,3.26-3.6.88-.38,2.69-1.02,4.53-1.67.57-.19.76-.92.34-1.36-2.52-2.66-6.06-3.47-10.16-2.42-6.48,1.63-9.56,6.57-7.65,14.17.17.68.38,1.3.6,1.9-.14.13-.47-.05-.63-.23-.37-.43-1.85-2.45-2.63-6.56l-21.58,5.43c-2.78.7-3,3.37-2.29,6.13.69,2.77,2.14,5.02,4.92,4.32l23.75-5.97c2.54,3.78,6.53,5.05,11.3,3.85,3.94-.99,6.63-3.21,7.69-6.5h0c.19-.59-.36-1.17-.98-1.04Zm-39.54,5.11c-.61,1.01-1.91,1.34-2.93.74-1.01-.61-1.34-1.91-.74-2.93.61-1.01,1.91-1.34,2.93-.74,1.01.61,1.34,1.91.74,2.93Z"/></svg>