<?xml version="1.0" encoding="UTF-8"?><svg id="Laag_1" xmlns="http://www.w3.org/2000/svg" xmlns:xlink="http://www.w3.org/1999/xlink" viewBox="0 0 64 64"><defs><style>.cls-1{fill:none;}.cls-2{clip-path:url(#clippath);}.cls-3{clip-path:url(#clippath-1);}</style><clipPath id="clippath"><rect class="cls-1" width="64" height="64"/></clipPath><clipPath id="clippath-1"><rect class="cls-1" width="64" height="64"/></clipPath></defs><g class="cls-2"><g class="cls-3"><path d="M23.69,44.25c-.13,.04-.26,.09-.39,.13-.87,.26-1.72,.42-2.55,.51l4.67,16.86c.18,.66,.79,1.1,1.44,1.1,.13,0,.27-.02,.4-.05,.8-.22,1.27-1.05,1.05-1.85l-4.63-16.7Z"/><path d="M61.53,35.08l-22.74-7.51c-.1,.57-.22,1.15-.4,1.74-.11,.38-.25,.77-.4,1.15l22.6,7.46c.79,.26,1.64-.17,1.89-.95,.26-.79-.17-1.64-.95-1.9"/><path d="M33.4,37.69c-.27,.3-.54,.59-.83,.88-.43,.43-.87,.83-1.31,1.22l21.79,22.54c.29,.3,.69,.46,1.08,.46s.75-.14,1.04-.42c.6-.58,.61-1.53,.04-2.12l-21.81-22.55Z"/><path d="M33.33,19.42l-13.07-11.01c-2.49-2.1-6.56-1.78-10.47,.53-.45,3.95-1.07,9.57-1.13,9.94-.09,.55-.56,.46-.65,.42V5H26v5.37l4,3.37V4c0-1.65-1.35-3-3-3H7c-1.65,0-3,1.35-3,3V14.2C.77,18.56,.03,23.42,2.41,26.26l10.7,12.71c1.25,1.48,3.28,5.19,9.56,3.31,5.85-1.75,11.84-7.74,13.6-13.6,1.83-6.11-1.57-8.1-2.95-9.26m-.58,7.97c-.68,2.26-2.29,4.79-4.43,6.93-2.14,2.14-4.66,3.75-6.93,4.43-1.8,.54-3.3,.44-4.01-.27-.71-.71-.81-2.21-.27-4.01,.68-2.26,2.29-4.79,4.43-6.92,2.14-2.14,4.66-3.75,6.93-4.43,.76-.23,1.48-.34,2.09-.34,.84,0,1.5,.21,1.91,.61h0c.71,.71,.81,2.21,.27,4.01"/></g></g></svg>