<?xml version="1.0" encoding="UTF-8"?><svg id="Laag_1" xmlns="http://www.w3.org/2000/svg" xmlns:xlink="http://www.w3.org/1999/xlink" viewBox="0 0 64 64"><defs><style>.cls-1{fill:none;}.cls-2{clip-path:url(#clippath);}.cls-3{clip-path:url(#clippath-1);}</style><clipPath id="clippath"><rect class="cls-1" width="64" height="64"/></clipPath><clipPath id="clippath-1"><rect class="cls-1" width="64" height="64"/></clipPath></defs><g class="cls-2"><g class="cls-3"><path d="M23.39,11.22c.93,0,1.27-.05,2.07-.23l.1-.02v-1.62l-.15,.03c-.76,.14-1.17,.18-1.91,.18-1.24,0-2.69-.8-2.69-3.06s1.42-3.19,2.75-3.19c.65,0,.99,.01,1.72,.14l.14,.02,.15-1.68-.11-.02c-.68-.14-1.16-.19-1.83-.19-2.93,0-4.82,2-4.82,5.08,0,2.81,1.76,4.55,4.59,4.55"/><path d="M27.96,11.21c1.95,0,2.98-1.02,2.98-2.94V1.69h-1.94v6.55c0,.82-.37,1.28-1.04,1.28-.19,0-.43-.02-.7-.06l-.14-.02v1.68l.1,.02c.24,.06,.63,.06,.74,.06"/><rect x="33.06" y="1.69" width="1.93" height="9.44"/><path d="M44.2,8.24c0-1.03-.52-1.75-1.5-2.08,.76-.4,1.12-1.1,1.12-2.13,0-.87-.45-2.34-3.5-2.34h-2.66V11.13h2.93c2.33,0,3.61-1.02,3.61-2.88m-4.61-4.96h.66c1.11,0,1.56,.31,1.56,1.06,0,.85-.48,1.21-1.61,1.21h-.6V3.28Zm0,6.25v-2.47h.56c1.82,0,2.03,.69,2.03,1.21,0,1.04-.9,1.26-1.65,1.26h-.94Z"/><path d="M48,14H16c-1.1,0-2,.9-2,2V63h15v-9h6v9h15V16c0-1.1-.9-2-2-2M25,47h-6v-6h6v6Zm0-10h-6v-6h6v6Zm0-10h-6v-6h6v6Zm10,20h-6v-6h6v6Zm0-10h-6v-6h6v6Zm0-10h-6v-6h6v6Zm10,20h-6v-6h6v6Zm0-10h-6v-6h6v6Zm0-10h-6v-6h6v6Z"/></g></g></svg>