<?xml version="1.0" encoding="UTF-8"?><svg id="Laag_1" xmlns="http://www.w3.org/2000/svg" viewBox="0 0 64 64"><defs><style>.cls-1{fill:none;}</style></defs><rect class="cls-1" width="64" height="64"/><path d="m47.17,11.24l-15.14,13.41-15.14-13.41c-1.59-1.41-4-1.37-5.54.08h0c-1.46,1.55-1.49,3.95-.08,5.54l13.41,15.14-13.41,15.14c-1.41,1.59-1.37,4,.08,5.54h0c1.55,1.46,3.95,1.49,5.54.08l15.14-13.41,15.14,13.41c1.59,1.41,4,1.37,5.54-.08h0c1.46-1.55,1.49-3.95.08-5.54l-13.41-15.14,13.41-15.14c1.41-1.59,1.37-4-.08-5.54h0c-1.55-1.46-3.95-1.49-5.54-.08Zm-15.14,20.8l-.02-.02-.02-.02.02-.02.02-.02.02.02.02.02-.02.02-.02.02Z"/></svg>