<?xml version="1.0" encoding="UTF-8"?><svg id="Laag_1" xmlns="http://www.w3.org/2000/svg" xmlns:xlink="http://www.w3.org/1999/xlink" viewBox="0 0 64 64"><defs><style>.cls-1{fill:none;}.cls-2{clip-path:url(#clippath);}.cls-3{clip-path:url(#clippath-1);}</style><clipPath id="clippath"><rect class="cls-1" width="64" height="64"/></clipPath><clipPath id="clippath-1"><rect class="cls-1" width="64" height="64"/></clipPath></defs><g class="cls-2"><g class="cls-3"><path d="M25,12h4v4c0,.55,.45,1,1,1h4c.55,0,1-.45,1-1v-4h4c.55,0,1-.45,1-1V7c0-.55-.45-1-1-1h-4V2c0-.55-.45-1-1-1h-4c-.55,0-1,.45-1,1V6h-4c-.55,0-1,.45-1,1v4c0,.55,.45,1,1,1"/><path d="M50,19H14c-.55,0-1,.45-1,1V63h10v-8l4-1v9h10v-8l4-1v9h10V20c0-.55-.45-1-1-1m-21,7h6v6h-6v-6Zm0,10h6v6h-6v-6Zm-10-10h6v6h-6v-6Zm0,10h6v6h-6v-6Zm24,16H21v-4h22v4Zm2-10h-6v-6h6v6Zm0-10h-6v-6h6v6Z"/></g></g></svg>