<?xml version="1.0" encoding="UTF-8"?><svg id="Laag_1" xmlns="http://www.w3.org/2000/svg" xmlns:xlink="http://www.w3.org/1999/xlink" viewBox="0 0 64 64"><defs><style>.cls-1{fill:none;}.cls-2{clip-path:url(#clippath);}.cls-3{clip-path:url(#clippath-1);}</style><clipPath id="clippath"><rect class="cls-1" width="64" height="64"/></clipPath><clipPath id="clippath-1"><rect class="cls-1" width="64" height="64"/></clipPath></defs><g class="cls-2"><g class="cls-3"><path d="M61.22,30.2L32.81,3.31c-.46-.43-1.17-.43-1.62,0L2.78,30.2c-.49,.46-.78,1.11-.78,1.78v1.8c0,.67,.55,1.21,1.21,1.21h4.79v25H56v-25h4.8c.66,0,1.2-.54,1.2-1.2v-1.81c0-.68-.28-1.33-.78-1.78m-22.69-9.83c1.74,0,2.82,1.11,2.82,3.17,0,1.81-1.03,3.07-2.82,3.07s-2.82-1.11-2.82-3.07,.99-3.17,2.82-3.17m-12.8-.85c1.74,0,2.82,1.11,2.82,3.19,0,1.82-1.03,3.08-2.82,3.08s-2.82-1.11-2.82-3.08,.99-3.19,2.82-3.19m18.38,21.97c-1.79-5.78-1.66-8.3-2.1-9.59-.08-.23-.28-.59-.28-.59,.38,1.59,.14,2.34-.05,3.14-.2,.85-.38,1.75-.16,2.6,.41,1.6,1.73,3.55,1.73,8.68,0,0-.51-.17-1.49-.26-.05,0-.11,0-.16,0v10.55s-2.46-.37-2.59-2.74c0,0,0-5.34,0-7.74-.29,.03-.73,.06-1.01,.09,0,2.45,0,7.71,0,7.71-.17,2.31-2.55,2.68-2.55,2.68v-9.64c.6,0,1.81-.36,1.81-1.74,0-3.05,.05-8.09-1.69-8.82-1.26-.53-4.77-.53-5.93,.02-1.89,.9-1.97,5.81-1.8,8.83,.08,1.38,1.15,1.71,1.75,1.71v9.64c-1.73,0-2.9-.95-3.05-2.88,0,0-.37-11.5-.38-11.63,0-.13-.21-.29-.42-.29s-.41,.16-.42,.29c0,.13-.38,11.63-.38,11.63-.15,1.93-1.2,2.88-2.95,2.88V31.88c-.05-.06-.44,0-.63,.35-.37,.69-.37,1.55-.37,2.4v7.45c-.83,0-2.23-.51-2.34-2.32-.25-3.98-.71-11.32,3.2-12.33,2.52-.65,5.46-.6,7.69,0,.73,.2,1.3,.62,1.75,1.18-1.04,.45-1.59,1.5-1.59,2.86,0,1.92,1.03,3,2.82,3s2.82-1.23,2.82-3c0-1.12-.35-1.94-.94-2.46,.4-.36,.85-.62,1.39-.79,.88-.28,1.77-.41,2.73-.41h.03c.96,0,1.8,.13,2.68,.41,1.85,.59,2.84,2.2,3.24,5.55,.18,1.51,.67,2.71,1.06,4.88,.32,1.77-.63,2.74-1.41,2.84"/></g></g></svg>