<?xml version="1.0" encoding="UTF-8"?><svg id="Laag_1" xmlns="http://www.w3.org/2000/svg" xmlns:xlink="http://www.w3.org/1999/xlink" viewBox="0 0 64 64"><defs><style>.cls-1{fill:none;}.cls-2{clip-path:url(#clippath);}.cls-3{clip-path:url(#clippath-1);}</style><clipPath id="clippath"><rect class="cls-1" width="64" height="64"/></clipPath><clipPath id="clippath-1"><rect class="cls-1" width="64" height="64"/></clipPath></defs><g class="cls-2"><polygon points="28 4.8 36.2 15 53 15 45 2 10 2 3 15 19.8 15 28 4.8"/><g class="cls-3"><path d="M24.33,49.02c-1.43-1.94-1.1-4-.33-5.57v-8.45h5.1c0-.09-.01-.16-.01-.25,0-.62,.01-2.26,.97-3.75h-6.07v-10h8v2.21c1.42-1.98,3.68-2.78,6.84-3.37,.63-.58,1.56-.93,2.66-.93s2.05,.35,2.68,.94c2.51,.49,4.44,1.09,5.82,2.26v-5.12h-14.8l-7.2-9-7.2,9H6V53H23.55c.1-.28,.2-.56,.3-.83,0-.02,.01-.03,.02-.05,.4-.93,.79-1.64,1.24-2.22-.29-.27-.55-.56-.78-.89m3.67-35.52c1.4,0,2.5,1.1,2.5,2.5s-1.1,2.5-2.5,2.5-2.5-1.1-2.5-2.5,1.1-2.5,2.5-2.5m-9,31.5H11v-10h8v10Zm0-14H11v-10h8v10Z"/><path d="M57.1,52.98c-.73-1.9-1.46-2.48-3.21-3.35l-.51-1.09c-.15-.36-.44-.58-.8-.73l-4.96-1.6c-.07-.8-.15-1.68-.22-2.04,1.53-1.75,2.48-3.57,2.77-5.4,.95-.88,1.53-2.33,1.53-4.08,0-.58,0-2.19-1.09-3.14,0-7.95-2.04-8.68-7.8-9.7v-.07c0-.36-.58-.66-1.31-.66s-1.31,.29-1.31,.66v.07c-5.76,.95-7.8,1.75-7.8,9.7v.07c-1.09,1.02-1.09,2.55-1.09,3.14,0,1.75,.51,3.14,1.53,4.01,.07,.29,.15,.58,.22,.88-1.6-.15-3.28,.88-3.57,3.06-.44,2.92-1.82,1.9-1.82,1.9-.29-.22-.58-.73-.66-1.6,0,0-2.55,2.48-.88,4.74,.51,.73,1.24,1.17,1.97,1.39l.51-1.17c.29-.66,.88-1.24,1.6-1.31,1.31-.22,3.79-.36,4.01-.36s.29,.15,.29,.22l-4.01,1.31c-.36,.15-.66,.36-.8,.73l-.58,1.09c-1.75,.88-2.41,1.46-3.21,3.35-1.24,3.14-1.9,8.02-1.9,8.02H59s-.66-4.89-1.9-8.02m-2.41,0c.22,.36,.44,.88,.58,1.46h-12.78v-1.46h12.2Zm-15.17-25.38l.88-.58c0-1.17,1.31-1.24,.8-2.11,0,0,.73,.14,.66,.95,0,0,.66,.22,.44,1.02l1.09,.73v.73l-1.9,1.68-1.97-1.68v-.73Zm.97,31.21h-13.95c.22-1.02,.44-2.04,.66-2.92h13.29v2.92Zm0-4.38h-12.78c.22-.58,.44-1.09,.58-1.46h12.2v1.46Zm-3.08-6.93l.51-4.08c-.66-.58-1.24-1.31-1.75-2.04-.8-1.17-1.31-2.48-1.31-3.94-1.17-.29-1.38-1.75-1.38-2.7,0-.36,0-.66,.07-.88,.22,.22,.51,.36,.8,.51,1.38,.44,2.41-1.46,7.07-1.46s5.69,1.9,7.07,1.46c.36-.07,.66-.29,.88-.51,.15,.22,.15,.51,.15,.88,0,.95-.22,2.41-1.39,2.77,0,1.39-.51,2.7-1.24,3.79s-1.68,2.04-2.62,2.92c-1.02,.8-3.43,.95-4.81,.36,.29,.58,.95,1.31,2.26,1.68,2.26,.58,3.65-.44,3.72-.51q.14,1.75,.22,1.9l-4.16,2.99-4.08-3.14Zm5.08,11.3v-2.92h13.22c.22,.88,.51,1.9,.66,2.92h-13.88Z"/></g></g></svg>