<?xml version="1.0" encoding="UTF-8"?><svg id="Laag_1" xmlns="http://www.w3.org/2000/svg" xmlns:xlink="http://www.w3.org/1999/xlink" viewBox="0 0 64 64"><defs><style>.cls-1{fill:none;}.cls-2{clip-path:url(#clippath);}.cls-3{clip-path:url(#clippath-1);}</style><clipPath id="clippath"><rect class="cls-1" width="64" height="64"/></clipPath><clipPath id="clippath-1"><rect class="cls-1" width="64" height="64"/></clipPath></defs><g class="cls-2"><g class="cls-3"><path d="M60.43,36.83c-.19-1.17-1.09-2.07-2.26-2.26-3.39-.57-9.04-.57-10.17-.57s-6.78,0-10.17,.57c-1.17,.2-2.07,1.09-2.26,2.26-.56,3.39-.56,9.04-.56,10.17s0,6.78,.56,10.17c.19,1.17,1.09,2.07,2.26,2.26,3.39,.56,9.04,.56,10.17,.56s6.78,0,10.17-.56c1.17-.2,2.07-1.09,2.26-2.26,.57-3.39,.57-9.04,.57-10.17,0-3.39,0-6.78-.57-10.17m-4.43,11.67c0,.28-.22,.5-.5,.5h-5.5v5.5c0,.28-.22,.5-.5,.5h-3c-.28,0-.5-.22-.5-.5v-5.5h-5.5c-.28,0-.5-.22-.5-.5v-3c0-.28,.22-.5,.5-.5h5.5v-5.5c0-.28,.22-.5,.5-.5h3c.28,0,.5,.22,.5,.5v5.5h5.5c.28,0,.5,.22,.5,.5v3Z"/><path d="M16.63,27.26c-.4-.13-.78-.24-1.03-.31-.18-.05-.29-.2-.34-.38-.06-.23-.08-.51-.08-.51,.47-.55,.82-1.2,.94-2.06,.47-.15,.57-.74,.57-1.11s-.07-.57-.2-.63c-.11-.05-.22-.01-.29,.03,.07-.76,.18-2.34-.14-2.92-.34-.63-.75-.88-1.54-.67-.52-.28-.87-.64-1.78-.39-.63,.18-1.32,.5-1.68,.98-.41,.54-.31,2.27-.24,3.04-.04-.03-.19-.14-.35-.06-.13,.06-.2,.26-.2,.63s.09,.97,.57,1.11c.11,.89,.45,1.52,.91,2.04,0,0-.01,.27-.06,.52-.04,.19-.15,.34-.33,.39-.74,.21-2.49,.74-3.07,1.35-.74,.78-.8,3.7-.8,3.7h5.68c.23-1.26,.64-2.77,1.33-3.49,.46-.48,1.25-.91,2.14-1.26"/><path d="M35.46,28.82c-.25-.26-.75-.55-1.3-.82-.72-.36-1.53-.67-1.96-.83-.17-.06-.27-.21-.3-.39-.04-.22-.08-.53-.11-.8,1.09-.04,1.99-.15,2.36-.29,.07-.03,.11-.1,.08-.17-.21-.45-.74-1.92-.8-2.68-.16-1.88-.16-5.25-2.74-4.41,0,0-1.64-1.05-2.97,.7-.94,1.23-.71,2.86-.75,3.76-.03,.64-.55,2.13-.78,2.52-.05,.08-.03,.16,.06,.2,.4,.15,1.31,.26,2.37,.33-.03,.27-.07,.6-.12,.85-.03,.17-.13,.32-.3,.39-.18,.07-.43,.16-.71,.28,.8,.35,1.39,.71,1.74,1.08,.69,.72,1.09,2.23,1.32,3.49h4.95c.23-.12,.47-.22,.71-.31-.04-.67-.18-2.28-.76-2.89"/><path d="M24.05,27c-.05-.24-.08-.51-.08-.51,.63-.7,1.09-1.55,1.25-2.67,.6-.18,.72-.93,.72-1.4s-.08-.72-.25-.8c-.08-.04-.16-.04-.23-.02,.06-.97,.12-2.9-.29-3.63-.44-.79-1.03-1-2.06-.74-.67-.36-1.13-.71-2.31-.39-.82,.22-1.72,.59-2.19,1.2-.51,.66-.41,2.58-.33,3.56-.08-.02-.16-.02-.26,.02-.17,.08-.25,.33-.25,.8s.12,1.22,.72,1.4c.19,1.6,.99,2.54,1.98,3.37,.26,.22,.73,.33,1.22,.36,.04,.08,.04,.17-.13,.23-.29,.1-1.21,.23-2.2-.28h-.02c-.74,.19-3.29,.92-4.08,1.75-.93,.98-1.29,4.62-1.29,4.62h15.77s-.35-3.65-1.28-4.62c-.72-.75-2.93-1.42-3.92-1.69-.26-.07-.44-.3-.5-.56"/><path d="M6,40V9h31V31.48c.1-.02,.2-.06,.3-.07,.81-.14,1.73-.24,2.7-.32V6H3V46H31.8c.01-1.86,.07-3.99,.2-6H6Z"/><polygon points="40 45.01 39.02 46 40 46 40 45.01"/></g></g></svg>