<?xml version="1.0" encoding="UTF-8"?><svg id="Laag_1" xmlns="http://www.w3.org/2000/svg" xmlns:xlink="http://www.w3.org/1999/xlink" viewBox="0 0 64 64"><defs><style>.cls-1{fill:none;}.cls-2{clip-path:url(#clippath);}.cls-3{clip-path:url(#clippath-1);}</style><clipPath id="clippath"><rect class="cls-1" width="64" height="64"/></clipPath><clipPath id="clippath-1"><rect class="cls-1" width="64" height="64"/></clipPath></defs><g class="cls-2"><g class="cls-3"><path d="M46.76,44.94c-2.12-3.3-4.2-3.27-6.19-6.15-.14-.2-.44-.16-.52,.07-.48,1.42-1.43,5.34,1.06,8.5,3.1,3.94,5.87,3.99,6.13,7.34,0,0,2.3-5.43-.48-9.75"/><path d="M61.17,40.13c-.01-.31-.44-.39-.56-.11-2.62,6.01-7.6,5.3-9.28,12.12-.07-.01-.24-.08-.19-.42,.18-1.33,.55-3.11,1.26-5.07-.12-.55-.25-1.11-.43-1.7-.66-2.34-1.06-3.91-.92-5.6,8.11,.57,7.35-10.46,7.13-12.57-.02-.18-.2-.3-.38-.25-1.86,.57-5.22,2.09-8.76,6.84-.1,0-.16-.07-.1-.26,1.09-3.16,3.4-5.83,5.21-6.82,0,0-.17-.36-.6-.85-.07-.08-.18-.12-.29-.09-1.22,.31-3.11,1.4-3.11,1.4,0,0-.29-1.63-.66-2.88-.06-.21-.32-.28-.48-.14-2.43,2.26-8.63,10.23-.36,14.9-.62,3.27,0,4.3,.65,8.16,.95,4.69-1.45,9.25-2.57,11.6-.7,1.48,.26,1.99,1.17,2.4,.99,.44,1.9,.42,2.31-.58,.33-.83,.64-1.63,.91-2.4,.09-.21,.21-.48,.34-.83,1.52-3.88,5.12-3.49,7.44-7,2.32-3.51,2.34-6.53,2.23-9.88"/><path d="M42.72,53.07c-1.05-.84-2.49-1.98-3.97-3.86-1.63-2.08-2.19-4.33-2.27-6.33-5.9,6.17-13.2,9.64-21.77,10.95-.64,.1-.59-.24-.59-.24,8.04-2.75,17.75-7.65,21.89-15.12,2.44-4.39,3.98-10.18,3.98-16.08,0-10.22-6.27-17.4-14-17.4s-14,7.18-14,17.4,4.69,20.46,10.97,22.99c-.03,.17-.22,.19-.48,.14-4.17-.81-7.38-3.84-9.89-7.22-2.52,1.88-5.14,3.95-6.38,5.31-2.76,3.02-4.21,14.38-4.21,14.38H43.63c.16-.24,.36-.75,.53-1.12,.43-1.47-.29-2.89-1.45-3.81M17.28,28.25c-.82-4.91-.23-8.61-.23-8.61,0,0,2.96-1.84,8.95-1.84s8.95,1.84,8.95,1.84c0,0,.59,3.7-.23,8.61-.62,3.7-3.43,9.95-8.72,9.95s-8.1-6.25-8.72-9.95"/></g></g></svg>