<?xml version="1.0" encoding="UTF-8"?><svg id="Laag_1" xmlns="http://www.w3.org/2000/svg" xmlns:xlink="http://www.w3.org/1999/xlink" viewBox="0 0 64 64"><defs><style>.cls-1{fill:none;}.cls-2{clip-path:url(#clippath);}.cls-3{clip-path:url(#clippath-1);}</style><clipPath id="clippath"><rect class="cls-1" width="64" height="64"/></clipPath><clipPath id="clippath-1"><rect class="cls-1" width="64" height="64"/></clipPath></defs><g class="cls-2"><g class="cls-3"><path d="M22.23,32.69l7.01,11.7c.3,.49,.83,.8,1.4,.8h0c.57,0,1.11-.3,1.4-.79l10.7-17.6c.44-.72,.26-1.67-.42-2.17-.68-.51-1.64-.41-2.2,.23l-9.63,10.77-5.79-5.01c-.61-.53-1.52-.54-2.13-.02-.62,.52-.77,1.41-.35,2.1"/><path d="M50,10h-5.92c-.02,1.27-.06,2.59-.38,4.09-.07,.32-.17,.62-.3,.91h3.6V55H17V15h3.6c-.13-.29-.23-.59-.3-.91-.32-1.5-.36-2.82-.38-4.09h-5.92c-1.1,0-2,.9-2,2V58c0,1.1,.9,2,2,2H50c1.1,0,2-.9,2-2V12c0-1.1-.9-2-2-2"/><path d="M25.38,16h13.25c1.45,0,2.71-.97,3-2.33,.34-1.62,.33-3.05,.35-4.51,0-.75-.53-1.4-1.27-1.53l-1.83-.3c-.94,1.71-1.99,2.71-2.28,2.94-.61,.49-.95,.54-1.14,.36,.01-.02,.02-.03,.03-.05,.93-.91,1.52-2.17,1.52-3.58,0-2.76-2.24-5-5-5s-5,2.24-5,5v.02l-3.7,.62c-.74,.12-1.28,.77-1.27,1.53,.02,1.47,0,2.9,.35,4.51,.28,1.36,1.55,2.33,3,2.33m6.62-11.26c1.24,0,2.25,1.01,2.25,2.26s-1.01,2.26-2.25,2.26-2.26-1.01-2.26-2.26,1.01-2.26,2.26-2.26"/></g></g></svg>