<?xml version="1.0" encoding="UTF-8"?><svg id="Laag_1" xmlns="http://www.w3.org/2000/svg" xmlns:xlink="http://www.w3.org/1999/xlink" viewBox="0 0 64 64"><defs><style>.cls-1{fill:none;}.cls-2{clip-path:url(#clippath);}.cls-3{clip-path:url(#clippath-1);}</style><clipPath id="clippath"><rect class="cls-1" width="64" height="64"/></clipPath><clipPath id="clippath-1"><rect class="cls-1" width="64" height="64"/></clipPath></defs><g class="cls-2"><g class="cls-3"><path d="M20,49.04c-2.19,0-3.96,1.77-3.96,3.96s1.77,3.96,3.96,3.96,3.96-1.78,3.96-3.96-1.78-3.96-3.96-3.96"/><path d="M46,49.04c-2.19,0-3.96,1.77-3.96,3.96s1.77,3.96,3.96,3.96,3.96-1.78,3.96-3.96-1.77-3.96-3.96-3.96"/><path d="M21.04,39h27.17s3.27,.32,4-4c.61-3.62,2.6-19,2.6-19,0,0,.05-3-2.95-3H19.19l-.46-3.4c-.2-1.48-1.48-2.6-2.97-2.6h-5.76c-1.1,0-2,.9-2,2,0,2.58,4.4,2.8,7.02,2.96l3.12,23.05c-.15,.04-4.14,1.09-4.14,6,0,4,2.23,7,6.65,7h28.49c2.38,0,2.6-3.82,0-4,0,0-15.04-.47-28.09-.75-.76-.02-2.24-.25-2.24-2.25,0-1.22,.78-2,2.24-2m6.96-4h-5.83l-.95-7h6.78v7Zm15-18h7.68l-1.4,9.94c-.09,.02-.28-.03-.34-.3-.32-1.39-.62-2.64-.62-2.64h-5.33v-7Zm0,11h6.13l-.98,7h-5.15v-7Zm-11-11h7v9.88c-.08,.02-.26,.03-.34-.19-.52-1.35-1.06-2.69-1.06-2.69h-5.59v-7Zm0,11h7v7h-7v-7Zm-4-11v9.88c-.08,.03-.26,.03-.34-.18-.51-1.29-1.07-2.69-1.07-2.69h-5.91l-.95-7h8.27Z"/></g></g></svg>