<?xml version="1.0" encoding="UTF-8"?><svg id="Laag_1" xmlns="http://www.w3.org/2000/svg" viewBox="0 0 64 64"><defs><style>.cls-1{fill:none;}</style></defs><rect class="cls-1" width="64" height="64"/><g><path d="m62.33,40.09c-.54-.57-1.62-1.19-2.81-1.77-1.56-.77-3.3-1.45-4.22-1.8-.35-.13-.58-.46-.64-.83-.08-.46-.16-1.15-.23-1.73,2.35-.1,4.29-.33,5.1-.63.16-.06.24-.21.17-.36-.44-.96-1.59-4.13-1.73-5.79-.35-4.06-.34-11.33-5.9-9.51,0,0-3.53-2.26-6.4,1.52-2.02,2.66-1.53,6.16-1.61,8.12,0,.17-.03.38-.07.6.47,1.56,1.07,3.15,1.39,3.86.28.61.3,1.3.08,1.92.67.07,1.39.13,2.16.18-.06.58-.15,1.3-.26,1.83-.07.37-.29.7-.64.83-.39.15-.93.35-1.53.6l-1.24.5c.06.03.11.05.17.08,2.12,1.02,3.49,1.9,4.32,2.78,1.42,1.49,2.11,4.18,2.46,6.48h13.13s-.08-5.21-1.67-6.88Z"/><path d="m19.88,37.72c.38-.19.8-.38,1.23-.58-1.26-.39-3.18-.96-3.6-1.07-.38-.1-.62-.44-.72-.82-.14-.49-.18-1.11-.18-1.11,1.01-1.18,1.76-2.59,2.02-4.45,1.02-.32,1.22-1.6,1.22-2.4s-.14-1.23-.42-1.37c-.25-.12-.48-.03-.63.06.16-1.63.38-5.04-.3-6.31-.73-1.36-1.63-1.9-3.33-1.46-1.11-.61-1.87-1.39-3.83-.83-1.36.38-2.84,1.08-3.63,2.12-.88,1.17-.67,4.89-.52,6.55-.1-.08-.41-.29-.75-.13-.28.13-.42.57-.42,1.37s.2,2.08,1.22,2.4c.23,1.92.96,3.27,1.95,4.4,0,0-.02.58-.13,1.13-.08.4-.33.74-.72.85-1.6.45-5.37,1.61-6.62,2.92-1.59,1.67-1.72,7.98-1.72,7.98h13.13c.34-2.31,1.04-4.99,2.45-6.48.83-.88,2.2-1.76,4.3-2.77Z"/><path d="m20.86,39.69c-1.55.75-2.97,1.56-3.68,2.31-2.08,2.19-2.18,9-2.18,9h6c-.59-1.41-1.83-4.93-.82-7.59.31-.82.82-1.5,1.51-2.01-.13-.89-.09-1.63.17-2.19-.34.16-.67.31-1,.48Z"/><path d="m43.14,39.69c-.16-.08-.33-.16-.49-.24.41.79.42,2.15-.07,3.42.35.45.57,1.01.57,1.63,0,1.47-1.19,2.66-2.66,2.66s-2.66-1.19-2.66-2.66,1.18-2.71,2.76-2.65c.38-1.1.38-1.76.06-2.45-.54-1.18-1.64-1.52-2.78-1.95h.02c-.1-.04-.21-.08-.29-.11-.46-.17-.76-.6-.84-1.09-.1-.61-.22-1.51-.3-2.26,3.07-.12,5.61-.43,6.66-.83.21-.08.31-.27.22-.47-.58-1.26-2.08-5.41-2.27-7.57-.46-5.31-.44-14.82-7.72-12.44,0,0-4.62-2.95-8.38,1.99-2.64,3.48-2,8.06-2.1,10.62-.08,1.82-1.56,6.02-2.19,7.1-.13.23-.09.47.16.56,1.13.41,3.68.73,6.68.92-.06.54-.14,1.17-.22,1.74h0c-.01.09-.02.16-.04.24-.02.14-.05.28-.07.41-.1.49-.38.91-.84,1.09-.12.04-.25.09-.39.15h.01c-1.11.47-2.15.89-1.97,3.02.73-.07,1.44.03,2.11.36,2.44,1.17,4.11,5.2,4.43,7,.16.92-1.9,1.73-2.71,1.88-.88.16-1.38-.33-1.55-1.22-.2-1.09.49-1.31,1.45-1.6-.75-2.03-1.72-3.44-2.66-3.9-.92-.44-2.23.08-2.67,1.23-.59,1.56.13,4.01.51,5.09.42-.22.76-.38,1.08-.38.34,0,.62.18.89.55.34.48.5.96.22,1.48h23.87s-.1-6.81-2.18-9c-.71-.75-2.12-1.56-3.68-2.31Z"/></g></svg>