<?xml version="1.0" encoding="UTF-8"?><svg id="Laag_1" xmlns="http://www.w3.org/2000/svg" xmlns:xlink="http://www.w3.org/1999/xlink" viewBox="0 0 64 64"><defs><style>.cls-1{fill:none;}.cls-2{clip-path:url(#clippath);}.cls-3{clip-path:url(#clippath-1);}</style><clipPath id="clippath"><rect class="cls-1" width="64" height="64"/></clipPath><clipPath id="clippath-1"><rect class="cls-1" width="64" height="64"/></clipPath></defs><g class="cls-2"><polygon points="25.02 20.2 31.46 29.96 32.48 27.14 36.35 29.64 37.85 27.32 34.13 24.91 36.89 23.11 25.02 20.2"/><g class="cls-3"><path d="M30.38,45h-6.38l2-4h4.34c.23-.53,.56-1.02,1-1.41l3.99-3.59H11.13c-.02-.12,0-.29,.24-.36,1.18-.37,2.68-.79,2.68-.79l.87-19.84H47.08l.52,11.84c.66,.11,1.29,.38,1.8,.84l2.33,2.09-.7-15.9c-.06-1.62-1.38-2.88-3-2.88H13.96c-1.62,0-2.93,1.26-3,2.87l-.97,22.14-5.56,8.27c-.28,.47-.43,1-.43,1.54v4.17c0,1.1,.89,2,2,2h26.94v-5.06c-1.13-.2-2.07-.94-2.56-1.94"/><path d="M60.64,41.79l-13.19-11.9c-.21-.2-.54-.2-.76,0l-13.26,11.9c-.23,.21-.43,.51-.43,.82v.83c0,.31,.39,.56,.7,.56h2.3v12h22v-12h2.44c.31,0,.56-.25,.56-.56v-.83c0-.31-.13-.61-.36-.82m-9.64,9.21h-8v-6h8v6Z"/></g></g></svg>