<?xml version="1.0" encoding="UTF-8"?><svg id="Laag_1" xmlns="http://www.w3.org/2000/svg" xmlns:xlink="http://www.w3.org/1999/xlink" viewBox="0 0 64 64"><defs><style>.cls-1{fill:none;}.cls-2{clip-path:url(#clippath);}.cls-3{clip-path:url(#clippath-1);}</style><clipPath id="clippath"><rect class="cls-1" width="64" height="64"/></clipPath><clipPath id="clippath-1"><rect class="cls-1" width="64" height="64"/></clipPath></defs><g class="cls-2"><g class="cls-3"><path d="M58.81,39c-.25-3.92-.37-7.5-1.31-14.21-.94-6.71-6.14-4.78-6.14-4.78-.79,.35-1.43,.77-1.94,1.26l-.11,.1-9.16,9.8h4.24c.82,0,1.74-.61,2.35-1.22,.43-.43,1.02-.94,1.02-.94,.2,2.18,1.02,7.03,1.13,7.94,.13,1-.42,1.66-1.35,1.66-1.58,0-9.35,0-9.35,0-2.2,0-3,1.71-2.59,3.41,.41,1.7,3.62,14.87,3.62,14.87l1.07,3.74s4.7-1.35,3.35-6.58c-.95-3.67-1.23-5.96-1.95-8.52,.69,.12,7.34,.03,11.27,.03s6.11-2.64,5.86-6.56"/><path d="M22.31,36.76h22.16c.81,0,1.47-.66,1.47-1.47v-2.05H20.99s1,2.71,1.32,3.52"/><path d="M14.74,12.52c2.54,.74,4.52-.62,5.26-3.18,.84-2.92-.24-4.92-2.71-5.64-2.6-.75-4.54,.69-5.3,3.32-.8,2.77,.21,4.76,2.75,5.5"/><path d="M49.89,18.33c2.61,.4,4.4-1.2,4.81-3.83,.46-3-.88-4.85-3.42-5.24-2.68-.41-4.42,1.27-4.83,3.98-.44,2.85,.83,4.69,3.44,5.09"/><path d="M18.68,31.93c0-.4,.13-7.43-.03-9.71,.8,1.45,1.68,3.42,2.39,4.34,.23,.28,1.52,2.12,2.94,3.39,.13,.12,.26,.23,.39,.33,.85,.61,1.97,.85,3.04,.87l2.43,.03c-2.09-2.1-5.58-6.25-5.58-6.25-.88-1.41-1.41-2.73-1.81-3.93h0c-1.31-3.7-2.1-7.03-8.74-7.03-3.89,0-5.8,2.02-6.03,2.33-.85,1.1-2.26,5.17-2.42,5.66-.23,.75-.48,1.47-.6,2.64-.19,2.02-.13,5.01-.09,6.39,.05,1.73,1.23,2.95,2.83,3.63l.22-3.76c.13-1.91,.48-4.39,.63-5.42,.06,1.88,.13,4.18,.16,6.71,.04,2.69-.05,3.37,.36,6.76-.09,4.56,.3,16.66,.3,17.04,.02,3.81,3.21,4.6,3.69,4.69,.02-.25,1.47-16.71,2.22-24.2,0,0,.21-.03,.25,.23l.48,4.54c.16,.73,1.3,3.51,1.3,3.51-.8,3.12-1.34,6.15-2.35,10.76-.86,3.97,2.4,4.72,2.55,4.77,1.92-5.17,3.69-10.07,5.34-14.82,.21-.61,.27-1.2,.03-1.9-1.07-2.8-3.85-11.47-3.89-11.59"/></g></g></svg>