<?xml version="1.0" encoding="UTF-8"?><svg id="Laag_1" xmlns="http://www.w3.org/2000/svg" xmlns:xlink="http://www.w3.org/1999/xlink" viewBox="0 0 64 64"><defs><style>.cls-1{fill:none;}.cls-2{clip-path:url(#clippath);}.cls-3{clip-path:url(#clippath-1);}</style><clipPath id="clippath"><rect class="cls-1" width="64" height="64"/></clipPath><clipPath id="clippath-1"><rect class="cls-1" width="64" height="64"/></clipPath></defs><g class="cls-2"><g class="cls-3"><path d="M32.9,50c0-1.05,.01-2.25,.05-3.47-2.57-6.47-5.24-14.61-5.13-21.2,0,0,9.28,.51,13.04,8.87,.02,0,.03,0,.05,0v-.04l.02,.04c.09,0,.18-.01,.27-.02,.02-.05,.04-.1,.06-.17,1.89-8.25-.99-14.83-9.6-16.48,0,0,4.75-1.67,16.48,1.26,.16-.08,.27-.15,.17-.61-1.6-7.73-10.35-11.56-17.68-7.3,0,0,3.39-5.03,11.06-6.99,.05-.12,.07-.29-.31-.55-1.36-.93-5.16-2.88-10.63-1.84-4.93,.94-7.22,4.23-8.91,7.08,0,0-4.51-4.77-11.16-3.11C5.28,6.82,2.39,11.4,1.44,13.2c-.24,.46-.16,.56-.04,.62,1.59-.56,8.84-2.9,13.18-.36,0,0-2.99,.31-6.57,3.21-3.88,3.14-5.38,8.8-4.06,13.5,.1,.37,.34,.53,.48,.45,.93-1.27,6.32-8.25,11.91-9.76-6.8,6.8-6.04,15.77-2.43,20.1,.31,.38,.61,.36,.72,.23,0,0,1.29-9.45,8.68-15.68,.34-.29,.61-.33,.71-.21-.78,1.41-2.6,4.9-3.1,7.3,0,0,2.34,17.92,8.09,27.39h4.41c-.42-2.98-.51-7.02-.51-10"/><path d="M61.43,39.83c-.19-1.17-1.09-2.07-2.26-2.26-3.39-.57-9.04-.57-10.17-.57s-6.78,0-10.17,.57c-1.17,.2-2.07,1.09-2.26,2.26-.56,3.39-.56,9.04-.56,10.17s0,6.78,.56,10.17c.19,1.17,1.09,2.07,2.26,2.26,3.39,.56,9.04,.56,10.17,.56s6.78,0,10.17-.56c1.17-.2,2.07-1.09,2.26-2.26,.57-3.39,.57-9.04,.57-10.17,0-3.39,0-6.78-.57-10.17m-11.43,14.17h-3.14l-.03-.06-2.83-5.99v6.05h-2v-9h3.14l.03,.07,2.83,6.05v-6.11h2v9Zm6.05,0h-5.05v-9h2v7.21h3.05v1.79Z"/></g></g></svg>