<?xml version="1.0" encoding="UTF-8"?><svg id="Laag_1" xmlns="http://www.w3.org/2000/svg" xmlns:xlink="http://www.w3.org/1999/xlink" viewBox="0 0 64 64"><defs><style>.cls-1{fill:none;}.cls-2{clip-path:url(#clippath);}.cls-3{clip-path:url(#clippath-1);}</style><clipPath id="clippath"><rect class="cls-1" width="64" height="64"/></clipPath><clipPath id="clippath-1"><rect class="cls-1" width="64" height="64"/></clipPath></defs><g class="cls-2"><g class="cls-3"><path d="M61.23,30.21L32.81,3.32c-.46-.43-1.17-.43-1.62,0L2.78,30.21c-.49,.46-.78,1.11-.78,1.78v1.8c0,.67,.54,1.21,1.2,1.21h4.8v25H56v-25h4.8c.66,0,1.2-.54,1.2-1.21v-1.8c0-.68-.28-1.33-.77-1.78M28.91,18.47c.38-2.4,1.9-3.87,4.23-3.49,2.22,.36,3.37,2.01,2.95,4.66-.37,2.33-1.94,3.73-4.21,3.37-2.27-.37-3.37-2.01-2.97-4.53m1.09,37.75c-6.2,0-11.22-5.02-11.22-11.22,0-3.4,1.52-6.43,3.91-8.48,0,.28-.01,.56-.01,.82,0,1.13,.31,2.15,.83,3.01-.95,1.31-1.51,2.92-1.51,4.66,0,4.42,3.58,8,8,8,3.08,0,5.74-1.74,7.08-4.29,.15,.43,.3,.83,.42,1.15,.34,.92,.74,1.66,1.16,2.26-2.06,2.5-5.18,4.09-8.67,4.09m9.57-7.11c-.72-1.94-2.06-5.75-2.79-8.1-.06,0-5.44,0-7.55,0s-4.32-1.11-4.34-3.69c-.01-1.88,.26-4.85,.77-7.7-.79,.46-1.8,1.03-2.21,1.81-.72,1.16-1.36,3-1.91,4.25-.28,.58-1.31,2.31-3.3,1.82,.52-2.13,1.4-5.73,2.32-7.73,.26-.55,.47-.86,1.08-1.53,1.82-1.86,5.44-3.56,6.17-3.81,1.53-.76,4.06-.56,5.25,.92,.91,1.12,.63,2.23,.39,4.04-.19,1.4-.44,3.39-.83,5.78,1.57,.33,4.4,.94,5.89,1.53,.99,.43,1.45,.79,2,2.1,1.12,2.82,2.77,10.55,3.49,13.51-.75,.19-3.05,.55-4.43-3.21"/></g></g></svg>