<?xml version="1.0" encoding="UTF-8"?><svg id="Laag_1" xmlns="http://www.w3.org/2000/svg" xmlns:xlink="http://www.w3.org/1999/xlink" viewBox="0 0 64 64"><defs><style>.cls-1{fill:none;}.cls-2{clip-path:url(#clippath);}.cls-3{clip-path:url(#clippath-1);}</style><clipPath id="clippath"><rect class="cls-1" width="64" height="64"/></clipPath><clipPath id="clippath-1"><rect class="cls-1" width="64" height="64"/></clipPath></defs><g class="cls-2"><g class="cls-3"><path d="M53,27l-4.62,4.62c0,3.29-.54,6.38-1.38,6.38v-11.41c0-.88-.71-1.59-1.59-1.59h-4.53l-6.42-6.48c-.31-.32-.74-.52-1.22-.52h-13.74c-.83,0-1.5,.67-1.5,1.5s.67,1.5,1.5,1.5h13.06l1.28,4H15.59c-.88,0-1.59,.71-1.59,1.59v.41h-4.02c-.04-.56-.49-1-1.06-1h-.85c-.57,0-1.02,.44-1.06,1h-.01v7h.01c.04,.56,.49,1,1.06,1h.85c.57,0,1.02-.44,1.06-1h4.02v11.41c0,.88,.71,1.59,1.59,1.59h29.82c.88,0,1.59-.71,1.59-1.59v-4.41h2l4,3h4V27h-4Zm-20,16h-14v-8h14v8Z"/></g></g></svg>