<?xml version="1.0" encoding="UTF-8"?><svg id="Laag_1" xmlns="http://www.w3.org/2000/svg" xmlns:xlink="http://www.w3.org/1999/xlink" viewBox="0 0 64 64"><defs><style>.cls-1{fill:none;}.cls-2{clip-path:url(#clippath);}.cls-3{clip-path:url(#clippath-1);}</style><clipPath id="clippath"><rect class="cls-1" width="64" height="64"/></clipPath><clipPath id="clippath-1"><rect class="cls-1" width="64" height="64"/></clipPath></defs><g class="cls-2"><g class="cls-3"><path d="M32.34,35.65c.24-.1,.78-.36,1.63-.65-.29-.61-.3-1.32-.38-2.17,1.97-2.2,3.43-4.85,3.93-8.36,1.88-.58,2.26-2.93,2.26-4.4s-.26-2.26-.78-2.5c-.25-.12-.5-.12-.72-.07,.19-3.05,.38-9.1-.9-11.37-1.39-2.48-3.24-3.13-6.47-2.32-2.11-1.12-3.56-2.23-7.26-1.22-2.58,.7-5.39,1.85-6.88,3.76-1.6,2.06-1.29,8.08-1.02,11.17-.24-.06-.52-.08-.8,.06-.53,.24-.78,1.04-.78,2.5s.38,3.82,2.26,4.4c.6,5.03,3.12,7.97,6.22,10.57,.82,.69,2.29,1.05,3.83,1.12,.14,.25,.14,.54-.41,.73-.92,.3-3.8,.73-6.9-.88-.03-.01-.04-.03-.07-.04-2.32,.62-10.32,2.91-12.81,5.53-2.91,3.06-4.05,14.5-4.05,14.5H29c-.59-1.27-.97-2.74-1.03-4.36-.04-.82,.06-1.47,.29-2.04l2.57-6.74c-.35-.37-.64-.81-.85-1.3-.48-1.1-.49-2.33-.05-3.44,.44-1.12,1.3-1.99,2.4-2.47"/><path d="M62.9,50.72l-3.65-9.56h0c.76,.33,1.64-.02,1.97-.78,.33-.76-.02-1.64-.78-1.97-.44-.19-4.37-1.84-7.08-1.3-1.36,.27-2.36,.69-3.6,1.07,.15-.36,.24-.76,.24-1.17,0-1.66-1.34-3-3-3s-3,1.34-3,3c0,.42,.08,.81,.24,1.17-1.24-.38-2.24-.8-3.6-1.07-2.72-.53-6.65,1.11-7.09,1.3-.76,.33-1.11,1.21-.78,1.97,.33,.75,1.19,1.1,1.95,.79l-3.64,9.55c-.06,.14-.08,.44-.06,.76,.18,4.34,2.78,6.52,5.98,6.52s5.77-2.14,5.99-6.42c.01-.25,.04-.51-.09-.86l-4.07-10.68c.46-.05,.89-.05,1.24,.02,1.65,.32,2.9,1.01,4.94,1.39v17.56h-3c-1.66,0-3,1.34-3,3v1h16v-1c0-1.66-1.34-3-3-3h-3v-17.56c2.03-.37,3.28-1.06,4.94-1.39,.34-.07,.76-.07,1.22-.02l-4.08,10.68c-.06,.14-.08,.44-.06,.76,.18,4.34,2.78,6.52,5.98,6.52s5.77-2.14,5.99-6.42c.01-.25,.04-.51-.09-.86m-22.8,.28c0,2.67-1.44,4-3.1,4-.35,0-.69-.07-1-.19,1.16-.45,2-1.71,2-3.81h-4.03l3.02-7.92s3.12,7.92,3.11,7.92m16.9,4c-.35,0-.69-.07-1-.19,1.16-.45,2-1.71,2-3.81h-4.03l3.02-7.92s3.12,7.92,3.11,7.92c0,2.67-1.44,4-3.1,4"/></g></g></svg>