<?xml version="1.0" encoding="UTF-8"?><svg id="Laag_1" xmlns="http://www.w3.org/2000/svg" xmlns:xlink="http://www.w3.org/1999/xlink" viewBox="0 0 24 24"><defs><style>.cls-1{fill:none;}.cls-2{clip-path:url(#clippath);}.cls-3{clip-path:url(#clippath-1);}</style><clipPath id="clippath"><rect class="cls-1" width="24" height="24"/></clipPath><clipPath id="clippath-1"><rect class="cls-1" width="24" height="24"/></clipPath></defs><g class="cls-2"><g class="cls-3"><path d="m20.36,15.31l-1.33-2c-.37-.67-.65-1.36-.81-2.11l-.99-3.73c-.44-1.84-1.82-3.25-3.57-3.81,0,0,0-.01,0-.02,0-.9-.74-1.64-1.66-1.64s-1.66.73-1.66,1.64c0,0,0,.01,0,.02-1.75.56-3.13,1.97-3.57,3.81l-.99,3.73c-.16.74-.45,1.45-.82,2.11l-1.33,2c-.35.53.03,1.23.67,1.23h15.39c.64,0,1.02-.7.67-1.23"/><path d="m9.05,19.05c0,1.63,1.32,2.94,2.94,2.94s2.95-1.32,2.95-2.94c0-.11-.02-.22-.03-.33h-5.82c-.01.11-.03.21-.03.33"/></g></g></svg>