<?xml version="1.0" encoding="UTF-8"?><svg id="Laag_1" xmlns="http://www.w3.org/2000/svg" viewBox="0 0 64 64"><defs><style>.cls-1{fill:none;}</style></defs><rect class="cls-1" width="64" height="64"/><path d="m23.97,41.04c-2.76,0-4.98,2.24-4.98,5,0,1.63,1.02,3.06,2.02,3.98v8.46c0,.5.59.75.95.4l1.63-1.64c.22-.22.58-.22.8,0l1.65,1.64c.35.35.98.1.98-.4v-8.46c1-.91,1.98-2.35,1.98-3.98,0-2.76-2.25-5-5.02-5Zm0,7c-1.1,0-2-.9-2-2s.9-2,2-2,2,.9,2,2-.9,2-2,2Z"/><rect x="20" y="29" width="22" height="3"/><rect x="20" y="35" width="16" height="3"/><rect x="32" y="19" width="10" height="3"/><path d="m34.96,50h-5.96v5h6.02c-.05-1.41-.06-2.8-.06-4,0-.32,0-.66,0-1Z"/><path d="m16,23.33l-3.16-.95c-.34-.11-.23-.38-.23-.38h14.37c.55,0,1.03-.41,1.03-.96V6.68s.23-.13.34.21l.92,3.11h16.74v25.1c1.76-.07,3.51-.1,5-.1V7.04c0-1.1-.93-2.04-2.03-2.04h-21.17c-.53,0-1.03.23-1.41.61l-14.82,14.85c-.38.38-.57.88-.57,1.41v31.17c0,1.1.87,1.96,1.97,1.96h6.03v-5h-3v-26.67Z"/><path d="m55.79,51.93c-.85,0-1.02.98-1.02,1.8,0,1.63.51,1.85,1,1.85.71,0,1.06-.55,1.06-1.64,0-1.8-.59-2.01-1.04-2.01Z"/><path d="m46.23,46.31c-.86,0-1.04.98-1.04,1.8,0,1.63.52,1.85,1.02,1.85.86,0,1.04-.89,1.04-1.64,0-1.8-.58-2.01-1.02-2.01Z"/><path d="m63.44,40.83c-.2-1.17-1.09-2.07-2.26-2.26-3.39-.57-9.04-.57-10.17-.57s-6.78,0-10.17.57c-1.17.2-2.06,1.09-2.26,2.26-.57,3.39-.57,9.04-.57,10.17s0,6.78.56,10.17c.2,1.17,1.09,2.07,2.26,2.26,3.39.57,9.05.57,10.17.57s6.78,0,10.17-.57c1.17-.2,2.07-1.09,2.26-2.26.56-3.39.56-9.04.56-10.17,0-3.39,0-6.78-.56-10.17Zm-20.58,7.45c0-2.9,1.84-3.92,3.42-3.92,2.09,0,3.29,1.37,3.29,3.77,0,2.62-1.78,3.81-3.44,3.81-1.49,0-3.27-.63-3.27-3.66Zm6.43,9.73l-1.84-.73,5.23-13.28,1.84.73-5.23,13.28Zm6.41-.45c-1.49,0-3.27-.63-3.27-3.65s1.84-3.92,3.42-3.92c2.09,0,3.29,1.37,3.29,3.77,0,2.63-1.73,3.81-3.44,3.81Z"/></svg>