<?xml version="1.0" encoding="UTF-8"?><svg id="Laag_1" xmlns="http://www.w3.org/2000/svg" viewBox="0 0 64 64"><defs><style>.cls-1{fill:none;}</style></defs><rect class="cls-1" width="64" height="64"/><path d="m41.35,13.32c.06.31.88,4.4,1.14,5.72l8.52,10.33,4.64-3.6s-10.38-17.68-11.07-18.68c-.69-1-1.39-1.88-2.47-2.42-1.17-.58-3.93-1.53-3.93-1.53l-.58-1.44c-.25-.63-.81-1.09-1.47-1.22-1.06-.21-2.79-.48-4.61-.48s-3.54.27-4.61.48c-.67.13-1.22.59-1.48,1.22l-.58,1.44s-2.75.95-3.93,1.53c-1.08.53-1.78,1.41-2.47,2.42-.69,1-11.07,18.68-11.07,18.68l4.64,3.6,8.5-10.33c.26-1.31,1.08-5.41,1.14-5.72.07-.33.3-.27.36-.25v10.34c-.02,1.68-.19,3.37-.42,5.03l-4.99,34.05,7.73,1.01,6.45-25.67c.19-.76,1.26-.76,1.45,0l6.45,25.67,7.73-1.01-5.01-34.05c-.23-1.67-.4-3.35-.42-5.03v-10.34c.06-.02.29-.08.36.25Zm-9.84-6.22c-1.69-.94-3.24-2.14-4.35-3.71,0,0,1.9-.46,4.35-.46s4.35.46,4.35.46c-1.11,1.57-2.66,2.77-4.35,3.71Zm6.49,6.9h-5v-2h5v2Z"/></svg>