<?xml version="1.0" encoding="UTF-8"?><svg id="Laag_1" xmlns="http://www.w3.org/2000/svg" xmlns:xlink="http://www.w3.org/1999/xlink" viewBox="0 0 64 64"><defs><style>.cls-1{fill:none;}.cls-2{clip-path:url(#clippath);}.cls-3{clip-path:url(#clippath-1);}</style><clipPath id="clippath"><rect class="cls-1" width="64" height="64"/></clipPath><clipPath id="clippath-1"><rect class="cls-1" width="64" height="64"/></clipPath></defs><g class="cls-2"><g class="cls-3"><path d="M49.63,10.42c-11.84-5.26-17.63,6.05-17.63,6.05,0,0-5.79-11.31-17.63-6.05C2.69,15.61,3.47,41.36,30.84,55.7c.72,.38,1.59,.38,2.31,0,27.37-14.34,28.15-40.09,16.47-45.28m-2.92,13.15l-13.73,18.13c-.39,.51-1.14,.57-1.6,.13l-11.78-11.23c-.43-.41-.45-1.09-.04-1.52l2.97-3.12c.41-.43,1.09-.45,1.52-.04l7.42,7.07,10.09-13.32c.36-.47,1.03-.57,1.51-.21l3.43,2.6c.47,.36,.57,1.03,.21,1.51"/></g></g></svg>