<?xml version="1.0" encoding="UTF-8"?><svg id="Laag_1" xmlns="http://www.w3.org/2000/svg" xmlns:xlink="http://www.w3.org/1999/xlink" viewBox="0 0 64 64"><defs><style>.cls-1{fill:none;}.cls-2{clip-path:url(#clippath);}.cls-3{fill:#fff;}.cls-4{clip-path:url(#clippath-1);}</style><clipPath id="clippath"><rect class="cls-1" width="64" height="64"/></clipPath><clipPath id="clippath-1"><rect class="cls-1" width="64" height="64"/></clipPath></defs><g class="cls-2"><rect width="64" height="64"/><g class="cls-4"><path class="cls-3" d="m37.01,46.6c.09-2.74,1.04-5.09,2.63-6.73-1.52-.55-2.9-.98-3.82-1.25.07.45.13.91.19,1.38.83,6.37-8.06,11.88-8.44,12.11-.35.22-.8.22-1.15,0-.38-.23-9.27-5.74-8.44-12.11.06-.46.13-.92.19-1.38-2.7.8-9.5,3-11.8,5.5-2.87,3.12-4.39,14.89-4.39,14.89h40.18c-3.86-4.15-5.29-8.76-5.18-12.4"/><path class="cls-3" d="m16.46,27.97c.43,3.19,2.14,6.09,4.36,8.28-.2,1.09-.46,2.59-.65,4.02-.5,3.8,4.32,7.9,6.83,9.58,3.35-2.25,7.33-5.99,6.75-10.14-3.61,2.89-7.69,2.2-9.83-1.29,2.26.7,5.91.51,7.41-.58,3.09-2.26,5.67-5.85,6.21-9.88,1.88-.5,2.26-2.55,2.26-3.82s-.26-1.96-.78-2.17c-.24-.1-.47-.1-.69-.07.48-3.36,1.2-9.81-.06-12.14-1.53-2.83-3.35-4.22-6.85-3.29-2.3-1.28-3.86-2.08-7.89-.93-2.8.8-5.86,2.11-7.47,4.29-1.71,2.31-.97,8.72-.44,12.06-.2-.02-.42-.02-.64.07-.53.21-.78.9-.78,2.17s.38,3.31,2.26,3.82m.34-14c0-2.36.48-4.72,7.23-6.65,1.15-.33,2.08-.49,2.87-.49,1.49,0,2.41.58,4.34,1.66.77-.2,1.52-.43,2.3-.43,2.02,0,3.34,2.22,3.56,4.22.35,3.15-.28,8.97-.83,11.08-.26.98-1.26.81-1.26.81,0,0,0-5.51,0-5.51l-5.28-3.85c-4.65,2.53-8.68,3.1-10.73,3.25,0,0,0,6.11,0,6.11,0,0-1.01.17-1.26-.81-.23-.86-.65-3.04-.84-6.23-.07-.91-.1-1.6-.09-3.15"/><path class="cls-3" d="m59.68,40.85c-5.5-2.44-8.18,2.81-8.18,2.81,0,0-2.69-5.25-8.18-2.81-5.42,2.41-5.06,14.36,7.65,21.02.33.17.74.17,1.07,0,12.71-6.66,13.07-18.61,7.65-21.02"/></g></g></svg>