<?xml version="1.0" encoding="UTF-8"?><svg id="Laag_1" xmlns="http://www.w3.org/2000/svg" xmlns:xlink="http://www.w3.org/1999/xlink" viewBox="0 0 64 64"><defs><style>.cls-1{fill:none;}.cls-2{clip-path:url(#clippath);}.cls-3{clip-path:url(#clippath-1);}</style><clipPath id="clippath"><rect class="cls-1" width="64" height="64"/></clipPath><clipPath id="clippath-1"><rect class="cls-1" width="64" height="64"/></clipPath></defs><g class="cls-2"><g class="cls-3"><path d="M51,56h-5.01v-7.92c0-1.66-1.35-3.01-3.01-3.01h-4.79l-7.19-10.99,11.84-15.96s.04,0,.06,0c3.31,0,6-2.69,6-6s-2.69-6-6-6-5.83,2.53-5.99,5.71c-.27,.05-.46-.37-.5-1.14-.08-1.43,.36-2.8,1.12-3.93L16.06,3.75c-1.12-.16-2.21,.53-2.54,1.64-.02,.05-.02,.11-.03,.16-1.25-.56-2.76-.46-3.86,.26-.58,.37-1.08,.88-1.41,1.51-.33,.62-.47,1.34-.42,2.01,.12,1.13,.39,1.99,1.01,2.99,.26,.42,.77,.65,1.27,.53,.63-.15,1.02-.78,.87-1.42l-.06-.25c-.12-.52-.25-1.35-.18-1.9,.05-.35,.27-.54,.55-.68,.3-.12,.6-.1,.82,.05l3.8,2.65c.21,.15,.33,.42,.33,.75-.03,.32-.14,.59-.45,.75-.49,.26-1.32,.42-1.85,.49l-.26,.03c-.49,.06-.91,.43-1.01,.94-.13,.64,.29,1.25,.92,1.38,1.15,.23,2.05,.19,3.15-.09,.64-.18,1.27-.56,1.74-1.09,.48-.52,.78-1.17,.93-1.84,.26-1.13-.04-2.39-.77-3.35l18.15,5.27-10.39,14.02c1.17,.47,2.23,1.24,2.97,2.35,.44,.66,.54,1.12,.27,1.22-1.1-1.24-2.69-2.03-4.47-2.03-3.31,0-6,2.69-6,6,0,.89,.18,1.73,.52,2.49l7.47,17.41h-6.14c-.55,0-1,.45-1,1v3H52v-3c0-.55-.45-1-1-1"/></g></g></svg>