<?xml version="1.0" encoding="UTF-8"?><svg id="Laag_1" xmlns="http://www.w3.org/2000/svg" xmlns:xlink="http://www.w3.org/1999/xlink" viewBox="0 0 64 64"><defs><style>.cls-1{fill:none;}.cls-2{clip-path:url(#clippath);}.cls-3{clip-path:url(#clippath-1);}</style><clipPath id="clippath"><rect class="cls-1" width="64" height="64"/></clipPath><clipPath id="clippath-1"><rect class="cls-1" width="64" height="64"/></clipPath></defs><g class="cls-2"><g class="cls-3"><path d="M20.81,17.57c2.99-.46,4.39-2.77,3.92-5.71-.54-3.35-2.63-4.88-5.55-4.43-3.07,.47-4.38,2.85-3.9,5.88,.51,3.19,2.53,4.73,5.52,4.27"/><path d="M43.76,31.7c-2.63-2.99-3.61-2.9-7.39-1.66-2.06,.69-4.25,1.58-6.32,2.47-1.54-4.99-3.11-9.15-3.11-9.15-2.31-6.8-11.07-4.56-9.8,1.73,.88,4.36,2.41,10.45,3.46,13.98,.68,2.29,3.09,3.78,6.36,3.2,2.37-.42,10.38-2.05,10.38-2.05,0,0,2.34,7.8,3.7,12.04,1.36,4.24,4.8,3.83,5.75,3.63l-3.88-19.62c.05-.07,.29-.09,.42,.2,.82,1.83,3.65,7.78,3.65,7.78,0,0,.48,.45,.87,.78,3.7,3.07,5.36,1.47,6.17,.88-.63-1-4.69-7.77-10.24-14.22"/><path d="M34.29,42.7s-3.22,.64-7.66,1.45c-3.76,.69-7.11-1.3-7.96-4.73l-3.05-12.34c-.2-.79-1.04-1.27-1.83-1.07-.79,.2-1.28,1-1.08,1.79l3.05,12.34c.57,2.29,1.88,4.14,3.65,5.39l-3.43,10.46h3.16l3-9.14c.94,.28,1.94,.44,2.98,.44,.67,0,1.36-.06,2.05-.19,.36-.07,.7-.13,1.04-.19l3.62,9.08h3.23l-3.85-9.65c2.24-.42,3.66-.71,3.66-.71,.81-.16,1.34-.95,1.18-1.76-.16-.81-.95-1.34-1.76-1.18"/></g></g></svg>