<?xml version="1.0" encoding="UTF-8"?><svg id="Laag_1" xmlns="http://www.w3.org/2000/svg" xmlns:xlink="http://www.w3.org/1999/xlink" viewBox="0 0 64 64"><defs><style>.cls-1{fill:none;}.cls-2{clip-path:url(#clippath);}.cls-3{clip-path:url(#clippath-1);}</style><clipPath id="clippath"><rect class="cls-1" width="64" height="64"/></clipPath><clipPath id="clippath-1"><rect class="cls-1" width="64" height="64"/></clipPath></defs><g class="cls-2"><g class="cls-3"><path d="M29,24.5c0,1.38,1.12,2.5,2.5,2.5s2.5-1.12,2.5-2.5-1.12-2.5-2.5-2.5-2.5,1.12-2.5,2.5"/><path d="M53,12v-4c0-.55-.45-1-1-1h-5c-.55,0-1,.45-1,1v4H17v-4c0-.55-.45-1-1-1h-5c-.55,0-1,.45-1,1v4l-6,15v29h5v-3h3v-3h3v-17.19l5-.96v18.15h9v-17.19l5-.96v18.15h9v-17.19l5-.96v18.15h3v3h3v3h5V27l-6-15Zm-2,18H12v-2.41l18.48-10.98c.63-.37,1.41-.37,2.04,0l18.48,10.98v2.41Z"/></g></g></svg>