<?xml version="1.0" encoding="UTF-8"?><svg id="Laag_1" xmlns="http://www.w3.org/2000/svg" xmlns:xlink="http://www.w3.org/1999/xlink" viewBox="0 0 64 64"><defs><style>.cls-1{fill:none;}.cls-2{clip-path:url(#clippath);}.cls-3{clip-path:url(#clippath-1);}</style><clipPath id="clippath"><rect class="cls-1" width="64" height="64"/></clipPath><clipPath id="clippath-1"><rect class="cls-1" width="64" height="64"/></clipPath></defs><g class="cls-2"><g class="cls-3"><path d="M3.52,31.22c-.47-.52-.8-1.02-1.27-1.68-.19-.27-.61-.14-.63,.19-.05,.73,0,2.03,.5,2.84,1.19,1.94,3.75,1.65,4.84,.62,1.37-1.28,1.2-2.98,.6-4.05-.47-.85-.95-1.53-1.36-2.07-.02-.02-.03-.05-.04-.07h.85c.55,0,1-.45,1-1v-2c0-.55-.45-1-1-1h-1V13.29l4.95,8.13,6.45,25.58H9c-1.11,0-2,.9-2,2v5.34c1.56-.62,3.09-1.66,4.43-2.53,2,1.3,4.49,3.06,6.85,3.06s4.85-1.76,6.86-3.07c2.01,1.32,4.47,3.07,6.86,3.07s4.83-1.74,6.86-3.06c1.99,1.3,4.49,3.06,6.85,3.06s4.83-1.74,6.86-3.06c1.32,.86,2.85,1.91,4.42,2.53v-5.34c0-1.1-.9-2-2-2h-3v-5c0-.55-.45-1-1-1h-3.99l-3.66,6h-2.35l9.29-15.23c.65-1.06,.18-2.45-.97-2.9l-20.02-7.9-1.68-3.82c-.3-.68-.78-1.26-1.39-1.68L5.88,1.47c-.39-.27-.92-.23-1.26,.11L1.58,4.53c-.33,.33-.4,.84-.16,1.24l2.58,4.24v13h-1c-.55,0-1,.45-1,1v2c0,.55,.45,1,1,1h1v.16c0,.47,.2,1.12,.57,1.59,.42,.54,.56,.7,.79,1,.36,.46,.4,1.22-.11,1.65s-1.26,.34-1.73-.17m41.3-1.98l-6.9,11.29-7.48-16.96,14.38,5.67Zm-15.89,5.76l5.29,12h-10.63l-3.03-12h8.36Zm-6.58-14.91l4.37,9.91h-7.42l-2.61-10.34c-.1-.39-.25-.76-.46-1.1l-2.81-4.62,8.93,6.15Z"/><path d="M59.43,57.07c-2.53,0-4.95-1.39-6.86-2.64-1.92,1.25-4.31,2.64-6.86,2.64s-4.95-1.39-6.86-2.64c-1.92,1.25-4.31,2.64-6.86,2.64s-4.9-1.36-6.86-2.64c-1.98,1.3-4.37,2.64-6.86,2.64s-4.95-1.39-6.86-2.64c-1.93,1.25-4.32,2.64-6.86,2.64-.87,0-1.76-.19-2.57-.45v4.07c.83,.19,1.69,.31,2.57,.31,2.75,0,5.41-1.18,6.86-1.94,1.44,.77,4.11,1.94,6.86,1.94s5.41-1.18,6.86-1.94c1.44,.77,4.11,1.94,6.86,1.94s5.42-1.18,6.86-1.94c1.44,.77,4.11,1.94,6.86,1.94s5.42-1.18,6.86-1.94c1.44,.77,4.11,1.94,6.86,1.94,.88,0,1.75-.12,2.57-.31v-4.07c-.81,.26-1.7,.46-2.57,.46"/></g></g></svg>