<?xml version="1.0" encoding="UTF-8"?><svg id="Laag_1" xmlns="http://www.w3.org/2000/svg" xmlns:xlink="http://www.w3.org/1999/xlink" viewBox="0 0 64 64"><defs><style>.cls-1{fill:none;}.cls-2{clip-path:url(#clippath);}.cls-3{clip-path:url(#clippath-1);}</style><clipPath id="clippath"><rect class="cls-1" width="64" height="64"/></clipPath><clipPath id="clippath-1"><rect class="cls-1" width="64" height="64"/></clipPath></defs><g class="cls-2"><g class="cls-3"><path d="M23.53,27.55c.56-1.75,.59-3.64,.12-5.17-6.45,1.95-12.57,5.61-15.63,8.44-1.06,.98-1.26,2.57-.48,3.78,.73,1.12,2.12,1.62,3.39,1.21,2.05-.67,5.3-2.23,8.88-3.74,1.73-.86,3.04-2.44,3.71-4.53m8.47-8.55c5.32,0,8.4-3.63,8.4-8.85,0-5.95-3.22-9.15-8.4-9.15-5.46,0-8.4,3.77-8.4,9.15,0,5.66,3.08,8.85,8.4,8.85m-2.22,28.84c-.86-.6-1.41-1.5-1.89-2.29-.87-1.45-1.56-2.59-3.81-2.59-1.51,0-2.85,.74-3.57,1.22,0,.55,0,1.1,.03,1.67,.42,9.55,2.39,12.44,4.85,15.89,1.7,2.38,5.48,.89,5.09-2.01-.38-2.76-.8-7.05-.7-11.9m10.13-7.08c1.34,0,2.54,.4,3.49,.86-.24-3.52-.94-6.38-1.66-8.46-1.54-1.18-2.72-2.87-3.38-4.93-.7-2.17-.74-4.47-.16-6.42-2.1-.5-4.2-.81-6.21-.81s-4.11,.31-6.21,.81c.57,1.94,.53,4.25-.16,6.42-.66,2.06-1.83,3.74-3.38,4.93-.72,2.08-1.42,4.94-1.66,8.46,.95-.46,2.15-.86,3.49-.86,3.51,0,4.77,2.12,5.7,3.66,.76,1.27,1.17,1.88,2.22,1.88s1.46-.61,2.22-1.88c.93-1.55,2.2-3.66,5.7-3.66m16.06-9.93c-3.06-2.84-9.18-6.49-15.63-8.44-.47,1.53-.44,3.42,.12,5.17,.67,2.08,1.98,3.67,3.71,4.53,3.58,1.51,6.83,3.07,8.88,3.74,1.28,.41,2.66-.08,3.39-1.21,.78-1.21,.58-2.8-.48-3.78m-19.87,14.73c-.47,.79-1.02,1.69-1.89,2.29,.1,4.84-.32,9.14-.69,11.9-.39,2.9,3.39,4.39,5.09,2.01,2.47-3.45,4.44-6.34,4.85-15.89,.03-.57,.03-1.12,.03-1.67-.73-.49-2.06-1.22-3.58-1.22-2.26,0-2.94,1.15-3.81,2.59"/></g></g></svg>