<?xml version="1.0" encoding="UTF-8"?><svg id="Laag_1" xmlns="http://www.w3.org/2000/svg" xmlns:xlink="http://www.w3.org/1999/xlink" viewBox="0 0 64 64"><defs><style>.cls-1{fill:none;}.cls-2{clip-path:url(#clippath);}.cls-3{clip-path:url(#clippath-1);}</style><clipPath id="clippath"><rect class="cls-1" width="64" height="64"/></clipPath><clipPath id="clippath-1"><rect class="cls-1" width="64" height="64"/></clipPath></defs><g class="cls-2"><g class="cls-3"><path d="M52.7,36.03c1.09-.75,1.78-1.65,1.97-2.09,.41-.93,.14-2.53-1.41-2.83-.69-.13-1.99,0-3.14,.15-.89-3.21-2.44-8.42-3.34-9.36-1.21-1.26-5.46-1.9-14.78-1.9s-13.56,.63-14.78,1.9c-.9,.94-2.45,6.16-3.34,9.36-1.15-.16-2.45-.29-3.14-.15-1.55,.3-1.82,1.9-1.41,2.83,.19,.44,.88,1.34,1.97,2.09-1.78,2.4-2.3,4.48-2.3,8.35v10.58s0,3.69,.43,5.76c.16,.75,.85,1.28,1.65,1.28h5.95c.8,0,1.5-.53,1.65-1.28,.24-1.15,.35-3.22,.39-4.3l-5.64-1.12c-.29-.09-.25-.28-.23-.34H50.79c.02,.05,.06,.24-.23,.34l-5.64,1.12c.05,1.08,.15,3.15,.4,4.3,.16,.75,.85,1.28,1.65,1.28h5.95c.8,0,1.5-.53,1.65-1.28,.43-2.06,.42-5.76,.42-5.76v-10.58c0-3.87-.51-5.95-2.29-8.35M19.95,24.36c.54-.27,4.5-.73,12.06-.73s11.52,.46,12.06,.73c.53,.91,2.24,6.8,2.73,9.18-2.69,.75-8.81,1.25-14.79,1.25s-12.1-.51-14.79-1.25c.49-2.38,2.2-8.27,2.73-9.18m1.46,23.9l-5.42-.43c-1.47-.12-2.37-1.29-2.64-2.57l-.22-1.55c-.14-.96,.85-1.77,1.82-1.5l4.39,1.22c.95,.37,1.67,1.11,1.98,2.05l.6,2.23c.08,.3-.19,.59-.51,.56m15.59,3.74h-10v-3h10v3Zm13.88-8.3l-.22,1.55c-.27,1.28-1.17,2.45-2.64,2.57l-5.42,.43c-.32,.03-.59-.27-.51-.56l.6-2.23c.31-.93,1.03-1.68,1.98-2.05l4.39-1.22c.97-.27,1.96,.54,1.82,1.5"/><path d="M32,4.72c5.66,0,10.53,3.37,12.74,8.21l2.27-1.03c-2.6-5.7-8.33-9.68-15.01-9.68s-12.41,3.97-15.01,9.68l2.27,1.03c2.2-4.84,7.07-8.21,12.74-8.21"/><path d="M40.19,14.99l2.27-1.03c-1.81-3.98-5.81-6.74-10.46-6.74s-8.65,2.77-10.46,6.74l2.27,1.03c1.42-3.11,4.55-5.28,8.19-5.28s6.77,2.17,8.19,5.28"/><path d="M26.09,16.03l2.14,.97c.72-1.35,2.13-2.28,3.78-2.28s3.05,.93,3.78,2.28l2.14-.97c-1.02-2.25-3.28-3.81-5.91-3.81s-4.89,1.56-5.91,3.81"/></g></g></svg>