<?xml version="1.0" encoding="UTF-8"?><svg id="Laag_1" xmlns="http://www.w3.org/2000/svg" xmlns:xlink="http://www.w3.org/1999/xlink" viewBox="0 0 64 64"><defs><style>.cls-1{fill:none;}.cls-2{clip-path:url(#clippath);}.cls-3{clip-path:url(#clippath-1);}</style><clipPath id="clippath"><rect class="cls-1" width="64" height="64"/></clipPath><clipPath id="clippath-1"><rect class="cls-1" width="64" height="64"/></clipPath></defs><g class="cls-2"><g class="cls-3"><path d="M19.59,44.55c3.17-.53,3.77-.99,5.1-3.22,.8-1.33,1.99-3.71,2.94-5.67,2.93,1.92,4.9,3.16,4.9,3.16,.7,1.78,1.49,6.74,1.83,8.63,.48,2.64,2.35,4.43,4.52,4.55-.04-3.4-.19-8.65-.55-12.06-.51-4.28-.65-4.81-4.92-8.47-1.14-.95-2.2-1.79-3.16-2.52,.45-2.04,.99-4.32,1.48-6.33,.37,.79,.76,1.56,1.21,2.29,.86,1.36,1.42,1.83,2.51,2.15,2.15,.51,4.36,.06,6.41-1.03,2.28-1.21,2.25-3.15,2.09-3.99,0,0-5.61,1.19-7.27,.92-1.09-1.66-2.63-6.15-3.84-7.76-2.38-3.17-11.61-2.2-14.35-.68-1.81,1.01-2.27,2.08-2.75,4.06-.42,1.89-.57,4.74-.66,6.69,.05,1.01,.46,2.51,2.38,2.88,0,0,1.4-6.66,2.03-8.39,.16-.44,.37-.91,.5-1.05,0,0,.78-.44,2.77-.65-.27,.9-2.4,8.91-2.4,10.61,0,1.03,.46,1.96,1.19,2.71,.86,.88,4.54,3.37,4.54,3.37-.01,.12-.15,.19-.48,.12-1.86-.43-3.56-.88-3.56-.88,0,0-1.42,3.72-2.16,5.29-1.52,.58-4.61,1.22-6.19,1.5-2.07,.37-2.78,2.01-2.66,4.22,2.59-.13,6.01-.04,8.56-.45m12.82-5.92h0l.02,.04,.05,.07v.02h.02c-.05-.07-.08-.11-.1-.13h0"/><path d="M30.39,11.93c2.78,.46,4.7-1.23,5.16-4.03,.52-3.2-.88-5.19-3.58-5.63-2.85-.47-4.72,1.31-5.19,4.19-.5,3.04,.83,5.02,3.61,5.47"/><path d="M55.98,25.04c-.06-1.12-.99-2.04-2.13-2.04h-6.18c-.97,0-1.8,.88-1.64,1.95,.11,.72,.72,1.26,1.44,1.37l3.47,.53-1.94,26.15-36.29,1.98c-2.64,.14-4.71,2.33-4.71,4.97v.05H53.93c1.15,0,2.08-.93,2.08-2.08V25.04h-.02Z"/></g></g></svg>