<?xml version="1.0" encoding="UTF-8"?><svg id="Laag_1" xmlns="http://www.w3.org/2000/svg" xmlns:xlink="http://www.w3.org/1999/xlink" viewBox="0 0 64 64"><defs><style>.cls-1{fill:none;}.cls-2{clip-path:url(#clippath);}.cls-3{clip-path:url(#clippath-1);}</style><clipPath id="clippath"><rect class="cls-1" width="64" height="64"/></clipPath><clipPath id="clippath-1"><rect class="cls-1" width="64" height="64"/></clipPath></defs><g class="cls-2"><g class="cls-3"><path d="M38,28.5V9.5c0-.83-.67-1.5-1.5-1.5H7.5c-.83,0-1.5,.67-1.5,1.5V28.5c0,.83,.67,1.5,1.5,1.5h29c.83,0,1.5-.67,1.5-1.5m-3.37-17.5l-12.62,8.35L9.39,11h25.25Zm.37,15.96l-7.77-5.86s-.15,.1-.01,.27c.14,.17,4.36,5.64,4.36,5.64H12.52s4.21-5.46,4.35-5.63c.14-.17,0-.28,0-.28l-7.86,5.9V13.75l12.3,8.2c.21,.14,.46,.21,.71,.21s.49-.07,.71-.21l12.28-8.2v13.2Z"/><path d="M51,19c0-.43-.4-.8-.94-.85l-9.06-.65v3l9.06-.65c.54-.06,.94-.42,.94-.85"/><path d="M53,12.5c0-.43-.4-.8-.94-.85l-11.06-.79v3.29l11.06-.79c.54-.05,.94-.42,.94-.85"/><path d="M49,25c0-.43-.4-.8-.94-.85l-7.06-.5v2.71l7.06-.5c.54-.06,.94-.42,.94-.85"/><path d="M56.5,34H27.5c-.83,0-1.5,.67-1.5,1.5v19c0,.83,.67,1.5,1.5,1.5h29c.83,0,1.5-.67,1.5-1.5v-19c0-.83-.67-1.5-1.5-1.5m-1.89,3l-12.62,8.35-12.62-8.35h25.25Zm.39,16l-7.86-5.9s-.15,.11,0,.28c.14,.17,4.35,5.63,4.35,5.63h-19.06s4.22-5.47,4.36-5.64c.14-.17-.01-.27-.01-.27l-7.77,5.86v-13.2l12.28,8.2c.21,.14,.46,.21,.71,.21s.49-.07,.71-.21l12.3-8.2v13.25Z"/><path d="M13,45c0,.43,.4,.8,.94,.85l9.06,.65v-3l-9.06,.65c-.54,.06-.94,.42-.94,.85"/><path d="M11,38.5c0,.43,.4,.8,.94,.85l11.06,.79v-3.29l-11.06,.79c-.54,.06-.94,.42-.94,.85"/><path d="M15,51c0,.43,.4,.8,.94,.85l7.06,.5v-2.71l-7.06,.5c-.54,.06-.94,.42-.94,.85"/></g></g></svg>