<?xml version="1.0" encoding="UTF-8"?><svg id="Laag_1" xmlns="http://www.w3.org/2000/svg" xmlns:xlink="http://www.w3.org/1999/xlink" viewBox="0 0 64 64"><defs><style>.cls-1{fill:none;}.cls-2{clip-path:url(#clippath);}.cls-3{clip-path:url(#clippath-1);}</style><clipPath id="clippath"><rect class="cls-1" width="64" height="64"/></clipPath><clipPath id="clippath-1"><rect class="cls-1" width="64" height="64"/></clipPath></defs><g class="cls-2"><g class="cls-3"><path d="M36.47,12.17c2.91-.45,4.32-2.5,3.83-5.67-.46-3.01-2.4-4.89-5.38-4.43-2.83,.43-4.32,2.5-3.8,5.84,.45,2.93,2.44,4.71,5.35,4.26"/><path d="M51.91,17.67c-1.46-1.59-7.91-3.77-12.01-3.62-6.74,.25-8.64,2.45-9.52,3.6-.8,1.05-3.39,7.35-3.39,7.35,0,0-4.44-1.38-8.4-3.82-.24,.54-1.18,2.97,.96,4.93,1.22,1.13,7.08,4.03,8.59,3.44,1.9-.74,4.06-5.66,5.13-7.38,.54,3.09,1.13,6.63,1.59,9.9-4.42,1.98-6.96,3.22-7.83,3.77-1.75,1.12-1.69,3.23-1.52,4.57,.32,2.46,3.76,14.21,3.99,15.14,2.81-1.3,3.84-4.03,3.65-5.51-.36-2.76-1.54-9.57-1.54-9.57,2-1.01,5.86-1.99,8-2.48,.02,2.55-.04,6.01-.2,8.43-.24,3.62-1.28,7.65-1.44,10.41-.19,3.22,1.46,5.83,3.56,6.12,.92-3.09,2.97-11.16,3.51-16.82,.52-5.36,1.06-15.04-1.2-26.77,2.33,.34,4.41,1.12,5.04,1.53,.02,2.74-.46,6.76-1.05,9.71,2.02-.17,3.72-1.38,4.09-3.37,.43-2.29,1.3-8.54-.02-9.58"/><path d="M22,5l-6-3V12c-.46-.19-.96-.32-1.5-.35-1.93-.11-3.5,1.01-3.5,2.5s1.57,2.7,3.5,2.88c1.97,.19,3.5-1.05,3.5-3.03V6.67l4,1.33v-3Z"/></g></g></svg>