<?xml version="1.0" encoding="UTF-8"?><svg id="Laag_1" xmlns="http://www.w3.org/2000/svg" viewBox="0 0 64 64"><defs><style>.cls-1{fill:none;}</style></defs><rect class="cls-1" width="64" height="64"/><g><path d="m33.5,30s-.79-5.89-2.28-7.45c-1.2-1.26-5.34-2.78-6.95-3.34-.16-.57-.26-1.12-.33-1.6.92-1.06,1.6-2.33,1.84-3.86.94-.28,1.13-2.15,1.13-2.85s-.13-1.09-.39-1.2c-.08-.03-.15-.04-.22-.04.14-1.08.53-4.68-.25-6.09-.74-1.34-1.64-1.99-3.36-1.55-1.13-.6-1.89-.98-3.87-.44-1.37.38-2.87,1-3.67,2.03-.98,1.28-.62,4.98-.49,6.07-.06,0-.12,0-.18.03-.26.12-.39.5-.39,1.2s.19,2.58,1.13,2.85c.19,1.48.89,2.76,1.82,3.83-.07.49-.18,1.05-.32,1.63-1.62.56-5.74,2.08-6.94,3.33-1.49,1.56-2.28,7.45-2.28,7.45h26Z"/><path d="m14.33,53c-2.94,0-5.33-2.39-5.33-5.33,0-2.53,1.8-4.73,4.28-5.23l33.15-6.68c3.23-.65,5.58-3.52,5.58-6.81,0-3.83-3.12-6.95-6.95-6.95h-11.54c.64,1.11,1.12,2.59,1.47,4h10.07c1.63,0,2.95,1.32,2.95,2.95,0,1.4-1,2.61-2.37,2.89l-33.15,6.68c-4.34.87-7.49,4.72-7.49,9.15,0,5.15,4.19,9.33,9.33,9.33h23.84l-2.41-4H14.33Z"/><path d="m61.15,35.4c-.85-.73-2.2-.49-2.93.24l-12.94,14.53-7.69-6.72c-.85-.73-2.08-.73-2.81,0-.85.73-.98,1.83-.49,2.81l9.4,15.63c.37.61,1.1,1.1,1.83,1.1s1.47-.37,1.83-1.1l14.29-23.69c.61-.98.37-2.2-.49-2.81Z"/></g></svg>