<?xml version="1.0" encoding="UTF-8"?><svg id="Laag_1" xmlns="http://www.w3.org/2000/svg" xmlns:xlink="http://www.w3.org/1999/xlink" viewBox="0 0 64 64"><defs><style>.cls-1{fill:none;}.cls-2{clip-path:url(#clippath);}.cls-3{clip-path:url(#clippath-1);}</style><clipPath id="clippath"><rect class="cls-1" width="64" height="64"/></clipPath><clipPath id="clippath-1"><rect class="cls-1" width="64" height="64"/></clipPath></defs><g class="cls-2"><g class="cls-3"><path d="M52.23,44.76c-2.77,.95-6.37,2.41-9.22,3.61,.07,.43,.08,.89,.01,1.38-.41,2.81-2.82,4.58-6.24,4.74-7.73,.36-12.53-1.56-13.53-1.96-.29-.12-.32-.26-.29-.39h.01c5.6,.95,9.12,1.11,13.46,.41,3.29-.53,4.49-2.11,4.46-3.41-.03-1.27-.93-2.04-2.95-2.11-6.89-.24-10.92-1.01-16.82-1.87-4.1-.6-8.06,.47-11.43,2.63-3.16,2.03-4.04,2.98-4.04,2.98l5.79,11.14,7.48-3.04c.85-.35,1.78-.45,2.69-.3l10.26,2.28c2.29,.38,4.64-.06,6.64-1.22l20.48-12.85s-1-4.02-6.76-2.04"/><path d="M27.91,38.46c1.02,.27,2.55,.56,2.94-1.9,.31-1.92-.23-2.32-1.27-2.67-.27-.09-.69-.22-.99-.32-4.47-1.44-7.69-5.63-7.69-10.57,0-6.14,4.97-11.11,11.11-11.11s11.11,4.97,11.11,11.11c0,2.88-1.1,5.49-2.9,7.46l-.61-4.08c-.11-.74-.72-1.29-1.45-1.32-.73-.03-1.38,.47-1.55,1.2l-2.52,10.82c-.11,.46,0,.95,.29,1.33,.29,.37,.73,.59,1.2,.59h10.91c.35-.01,.68-.13,.95-.35,.28-.23,.48-.55,.55-.93,.14-.73-.25-1.46-.93-1.74l-2.79-1.14s-1.27,1.06-2.98,1.55c-.36,.1-.39-.08-.39-.08v-.03c4.28-2.87,7.1-7.74,7.1-13.28,0-8.84-7.16-16-16-16s-16,7.16-16,16c0,7.42,5.05,13.67,11.91,15.46"/></g></g></svg>