<?xml version="1.0" encoding="UTF-8"?><svg id="Laag_1" xmlns="http://www.w3.org/2000/svg" xmlns:xlink="http://www.w3.org/1999/xlink" viewBox="0 0 64 64"><defs><style>.cls-1{fill:none;}.cls-2{clip-path:url(#clippath);}.cls-3{clip-path:url(#clippath-1);}</style><clipPath id="clippath"><rect class="cls-1" width="64" height="64"/></clipPath><clipPath id="clippath-1"><rect class="cls-1" width="64" height="64"/></clipPath></defs><g class="cls-2"><g class="cls-3"><path d="M54.68,13h-8.46c-3.29-4.25-8.43-7-14.22-7s-10.93,2.75-14.23,7H9.32c-2.88,0-5.17,2.43-4.99,5.31l2.39,39c.16,2.64,2.35,4.69,4.99,4.69H52.3c2.64,0,4.83-2.06,4.99-4.69l2.39-39c.18-2.88-2.11-5.31-4.99-5.31m-20.68,40c0,1.1-.9,2-2,2s-2-.9-2-2v-21c0-1.1,.9-2,2-2s2,.9,2,2v21Zm3.7-30h-4.84c-.02-.06-.07-.26,.25-.36l3.1-.62,1.71-5.14c.21-.64-.61-1.12-1.06-.61l-5.99,6.73h-4.59l-4.49-5.31c2.12-3.41,5.88-5.69,10.19-5.69s8.07,2.28,10.19,5.69l-4.49,5.31Z"/></g></g></svg>