<?xml version="1.0" encoding="UTF-8"?><svg id="Laag_1" xmlns="http://www.w3.org/2000/svg" xmlns:xlink="http://www.w3.org/1999/xlink" viewBox="0 0 64 64"><defs><style>.cls-1{fill:none;}.cls-2{clip-path:url(#clippath);}.cls-3{clip-path:url(#clippath-1);}</style><clipPath id="clippath"><rect class="cls-1" width="64" height="64"/></clipPath><clipPath id="clippath-1"><rect class="cls-1" width="64" height="64"/></clipPath></defs><g class="cls-2"><g class="cls-3"><path d="M27.31,32.12c6.7,4.27,7.98,11.03,8.13,14.85,11.56,.32,20.56-8.97,20.56-19.97S47.05,7,36,7c-7.34,0-13.74,3.97-17.22,9.87-.04,8.72,2.16,11.19,8.53,15.26m20.38,6.85l-.65-1.44,1.48-2.68,2.4-.26c-.83,1.63-1.92,3.11-3.22,4.38m-9.74-28.61c7.31,.86,13.19,6.43,14.51,13.59l-1.87,2.5-2.16,1.08-2.16-2.16-1.16-2.08s1.49-1.5,1.08-2.29c-.41-.79-2.75,.5-3.21-.2-.46-.69-.05-3.07-.05-3.07l-2.9-1.19s-.91-.02-.83,.67c.09,.77,2.19,1.98,2.02,2.32-.16,.31-.68,.08-.68,.08l-.8,1.41-1.67-.38s1.27-.48,1.42-.94c.15-.46-1.88-2.13-1.88-2.13l-1.13,.26-.51,2.05-1.36,1.19h-1.79l.16-1-.65-.02,.85-2.21,1.76,.15s.65-1.69,.52-2.25c-.25-1.08-1.38-1.2-1.38-1.63s1.22-.42,1.81-1.02c.37-.37,1.36-1.73,2.06-2.72m-5.84,.35c1.01-.24,2.06-.39,3.13-.43l.16,.25s-.38,2.02-1.03,2.2c-.64,.17-2.49-.89-2.49-.89l.23-1.12Zm-.92,14.49c.85-1.76,2.14-1.94,2.14-1.94l4.48-.9,2.57,1.5,3.42,.65,.95,1.3,1.53,2.15,2.16,1.13,2.16-1.85s-.21,2.59-1.07,4.2c-.85,1.61-3.06,2.83-3.06,2.83,0,0-.21,1.52-.92,2.79-.28,.49-1.04,.76-1.38,1.24-.61,.88-.44,2.42-1.14,2.77-1.25,.61-2.7,.9-3.04,.58-.48-.45-1.53-2.38-1.53-3.02v-4.61c0-.83-1.1-2.79-1.1-2.79,0,0-2.62-.02-3.62-.02s-2.53-1.44-2.53-1.44c0,0-.85-2.81,0-4.57m-2.34-13.29c-.65,1.66-1.55,3.43-2.51,4.27-2.07,1.83-3.99,2.26-4.6,2.31,1.66-2.83,4.14-5.14,7.11-6.59"/><path d="M48.03,49.02c-5.88,1.74-10.08,2.2-15.28,1.17,.96-5.69-1.2-12.41-6.78-15.96-8.08-5.14-10.25-8.68-9.57-21.12,.02-.42-.46-.7-.79-.44C-.43,24.67,2.9,51.86,20.88,53.09c-9.16-9.4-10.35-21.64-9.9-25.54,.05-.39,.3-.36,.3-.36,2.38,18.65,17.1,33.26,38.28,26.98,1.42-.42,1.58-1.75,1.15-3.17-.42-1.42-1.26-2.41-2.68-1.98"/></g></g></svg>