<?xml version="1.0" encoding="UTF-8"?><svg id="Laag_1" xmlns="http://www.w3.org/2000/svg" xmlns:xlink="http://www.w3.org/1999/xlink" viewBox="0 0 64 64"><defs><style>.cls-1{fill:none;}.cls-2{clip-path:url(#clippath);}.cls-3{clip-path:url(#clippath-1);}</style><clipPath id="clippath"><rect class="cls-1" width="64" height="64"/></clipPath><clipPath id="clippath-1"><rect class="cls-1" width="64" height="64"/></clipPath></defs><g class="cls-2"><g class="cls-3"><path d="M53.96,19.93l-6.31,2.11c-2.45,.82-4.08-.57-5.11-1.27-2.22-1.49-5.12-1.47-7.31,.05-1.63,1.13-3.9,2.97-7.04,4.92l4.74,4.74c.07-.03,.15-.06,.22-.08,5.29-2.09,5.81-3.46,8.84-1.01l10.34,8.37c7.03-2.21,8.26-4.29,8.26-4.29l-6.63-13.54Z"/><path d="M26.33,48.75l.44-.36c1.32-1.09,1.27-3.33,.18-4.65-.74-.9-1.99-1.39-3.13-1.28,1.03-3.51-3.12-5.79-5.27-4.02l-1.04,.86c.02-3.24-3.57-4.79-5.8-2.94l-2.53,2.09c-2.05,1.69-1.81,3.87-.71,5.19,1.18,1.43,2.99,1.53,4.32,.85-.05,.91,.22,1.86,.8,2.56,.74,.9,1.99,1.39,3.13,1.28-.32,1.1-.08,2.42,.67,3.31,.87,1.05,2.44,1.55,3.71,1.16-.15,.99,.12,2.09,.77,2.87,1.09,1.32,3.34,1.75,4.95,.42l1.23-1.02c1.71-1.41,1.75-3.73,.66-5.05-.58-.7-1.46-1.15-2.36-1.27"/><path d="M29.12,22.5l-2.34-1.63c-1.36-.95-2.99-1.31-4.57-1.1l4.37,4.37c.92-.56,1.76-1.11,2.54-1.65"/><path d="M49.76,38.52l-9.17-7.41c-.84-.68-1.21-.82-1.38-.82-.38,0-1.22,.39-2.21,.84-.65,.3-1.45,.66-2.4,1.05l11.15,11.15s0-.02,0-.03c2.91,.54,5.17-2.93,4-4.78"/><path d="M4.37,9.31l12.8,12.8c-.79,.26-1.72,.34-2.82-.03l-6.31-2.11L1.41,33.52s.98,1.62,6.04,3.53c.11-.1,.21-.2,.32-.29l2.53-2.09c1.02-.85,2.26-1.29,3.59-1.29,1.53,0,3.03,.62,4.12,1.71,.25,.25,.47,.52,.67,.81,.52-.17,1.07-.26,1.65-.26h0c1.81,0,3.63,.92,4.73,2.4,.58,.77,.94,1.65,1.07,2.56,.98,.35,1.86,.95,2.51,1.75,.86,1.05,1.34,2.45,1.32,3.86-.01,.6-.11,1.17-.3,1.71,.26,.22,.51,.46,.72,.72,.91,1.11,1.36,2.6,1.22,4.1-.09,1-.44,1.94-.99,2.76,2.98,2.35,6.1-.79,6.35-2.91,2.64-.27,4.08-1.68,4.27-4.58,.53,0,1.05-.11,1.55-.27l12.19,12.19,2.12-2.12L6.49,7.19l-2.12,2.12Zm22.09,24.83c-2.14,0-3.72-.64-4.71-1.91-.71-.91-.98-2.08-.73-3.23,.16-.73,.53-1.41,1.05-1.99l1.56,1.56c-.61,.75-.66,1.65-.15,2.3,.69,.89,2.01,1.13,3.5,1.05l1.97,1.97c-.83,.15-1.68,.25-2.49,.25"/></g></g></svg>