<?xml version="1.0" encoding="UTF-8"?><svg id="Laag_1" xmlns="http://www.w3.org/2000/svg" xmlns:xlink="http://www.w3.org/1999/xlink" viewBox="0 0 64 64"><defs><style>.cls-1{fill:none;}.cls-2{clip-path:url(#clippath);}.cls-3{clip-path:url(#clippath-1);}</style><clipPath id="clippath"><rect class="cls-1" width="64" height="64"/></clipPath><clipPath id="clippath-1"><rect class="cls-1" width="64" height="64"/></clipPath></defs><g class="cls-2"><g class="cls-3"><path d="M58.33,56.21l-20.42-20.42-2.57-2.56-4.1-4.1-11.21-11.21L7.73,5.61l-2.12,2.12,10.2,10.2h-3.35c-2.72,0-3.4,2.55-3.4,2.55l-1.7,6.97c0,.82,.59,1.5,1.39,1.67,4.26,.91,2.97,6.39-.2,12.9-1.6,3.29-1.95,5.83-2.01,7.62-.06,1.73,1.24,3.14,2.97,3.14h8.1c1.75,0,3.27-1.2,3.67-2.9l2.22-9.38c1.47,.25,2.86,.38,4.14,.38,3.49,0,6.29-.93,8.36-2.76l20.22,20.22,2.12-2.12ZM24.28,37.17s.79-4.93,2.65-6.15c.54,3.7,4.02,3.9,4.02,3.9,.46,0,0-.58,0-.58-.38-.61-.56-1.27-.64-1.91l3.28,3.28c-1.95,1.72-5.13,2.15-9.3,1.46"/><path d="M36.28,28.97c0,.42-.05,1.2-.23,2.12l2.78,2.78c.73-2.03,.8-3.95,.79-4.9h14.49c.47,0,.85-.35,.85-.79v-6.01c.06-.02,.28-.06,.4,.28l.82,3.97h.48c.47,0,.85-.38,.85-.85v-5.1c0-.47-.38-.85-.85-.85h-1.7v-.91c0-.44-.38-.79-.85-.79h-.85v-.85c0-.47-.38-.85-.85-.85h-3.48c-.28,0-.55,.14-.71,.38l-.88,1.32H22.88l11.03,11.03c1.26-.02,2.37,.02,2.37,.02"/></g></g></svg>