<?xml version="1.0" encoding="UTF-8"?><svg id="Laag_1" xmlns="http://www.w3.org/2000/svg" xmlns:xlink="http://www.w3.org/1999/xlink" viewBox="0 0 64 64"><defs><style>.cls-1{fill:none;}.cls-2{clip-path:url(#clippath);}.cls-3{clip-path:url(#clippath-1);}</style><clipPath id="clippath"><rect class="cls-1" width="64" height="64"/></clipPath><clipPath id="clippath-1"><rect class="cls-1" width="64" height="64"/></clipPath></defs><g class="cls-2"><g class="cls-3"><path d="M21.38,15h13.25c1.45,0,2.71-.97,3-2.33,.34-1.62,.33-3.05,.35-4.51,0-.75-.53-1.4-1.27-1.53l-1.83-.3c-.94,1.71-1.99,2.71-2.28,2.94-.61,.49-.95,.54-1.14,.36,.01-.02,.02-.03,.03-.05,.93-.91,1.52-2.17,1.52-3.58,0-2.76-2.24-5-5-5s-5,2.24-5,5v.02l-3.7,.62c-.74,.12-1.28,.77-1.27,1.53,.02,1.47,0,2.9,.35,4.51,.29,1.36,1.55,2.33,3,2.33M28,3.75c1.25,0,2.25,1.01,2.25,2.26s-1.01,2.26-2.25,2.26-2.26-1.01-2.26-2.26,1.01-2.26,2.26-2.26"/><path d="M34.04,26.74c1.18-1.18,2.54-2.09,4.02-2.74H17v3h16.81c.08-.08,.15-.17,.23-.26"/><path d="M43,49.18v4.82H13V14h3.6c-.58-1.32-.66-3.58-.68-5h-5.92c-1.1,0-2,.9-2,2V57c0,1.11,.9,2,2,2H46c1.1,0,2-.89,2-2v-8.62c-1.46,.53-2.99,.82-4.57,.82-.15,0-.29-.02-.43-.02"/><path d="M43,22.89c.13,0,.27-.02,.4-.02,1.6,0,3.15,.29,4.6,.83V11c0-1.1-.9-2-2-2h-5.92c-.02,1.42-.1,3.68-.68,5h3.6v8.9Z"/><path d="M31.66,30h-14.66v3h13.55c.25-1.04,.61-2.05,1.11-3"/><path d="M33,44.26c-.56-.71-1.04-1.47-1.43-2.26h-14.57v3h16v-.74Z"/><path d="M30.17,36.1s0-.07,0-.1h-13.18v3h13.5c-.21-.94-.33-1.91-.33-2.9"/><path d="M60.9,49.3l-8.2-7.3c2.7-4.3,2.3-10-1.5-13.7-4.3-4.3-11.3-4.3-15.6,0-4.3,4.3-4.3,11.3,0,15.6,3.9,3.6,9.6,4.1,13.9,1.3l7.4,8.2c1,1.1,2.7,.9,3.8-.2,1.2-1.2,1.4-2.8,.2-3.9m-12.4-8.3c-2.8,2.8-7.3,2.8-10,0-2.8-2.8-2.8-7.3,0-10,2.8-2.8,7.3-2.8,10,0,2.8,2.8,2.8,7.2,0,10"/></g></g></svg>