<?xml version="1.0" encoding="UTF-8"?><svg id="Laag_1" xmlns="http://www.w3.org/2000/svg" xmlns:xlink="http://www.w3.org/1999/xlink" viewBox="0 0 64 64"><defs><style>.cls-1{fill:none;}.cls-2{clip-path:url(#clippath);}.cls-3{clip-path:url(#clippath-1);}</style><clipPath id="clippath"><rect class="cls-1" width="64" height="64"/></clipPath><clipPath id="clippath-1"><rect class="cls-1" width="64" height="64"/></clipPath></defs><g class="cls-2"><g class="cls-3"><path d="M37.61,22.49c-.44-.33-1.07-.25-1.4,.19-.33,.44-.25,1.07,.19,1.4l.74,.56-1.16,.09c-.55,.04-.96,.52-.92,1.08,.04,.52,.48,.92,1,.92,.03,0,.05,0,.08,0l3.78-.29c.41-.03,.76-.32,.88-.72,.12-.4-.02-.83-.35-1.08l-2.83-2.15Z"/><path d="M56.14,32.62c-.73-2.54-2.85-3.72-5.28-4,2.52-4.59,8.48-16.78,.71-18.13-2.61-2.78-4.19-4.91-10.33-4.72-5.83,.17-12.49,.3-15.1,9.93-1.22,4.5-.55,6.79,.23,11.74-2.63-1.23-5.11-2.38-6.67-3.1-.12-.29-.22-.58-.32-.87-.37-1.05-.75-2.14-1.71-2.95-.88-.74-2-.81-2.8-.69-1.15-.9-2.43-1.26-3.66-1.02-1.35,.26-2.48,1.22-3.18,2.7-2.35,4.97-.49,7.46,1.48,8.68,1.93,1.19,3.91,1.52,5.29,1.6,2.55,2.21,14.3,12.31,17.74,13.33,2.44,.72,8.34-.22,13.31-1.5,.13,.25-.13,.41-.36,.51-4.49,2.05-10.92,3.64-13.81,2.78-1.95-.58-6.97-4.34-11.46-7.92-2.11,.91-4.11,1.99-5.15,3.13-2.87,3.12-4.39,16.89-4.39,16.89H51.12s.88-12,4.26-19.63c.9-2.04,1.58-3.88,.76-6.75m-41.1-2.83c-1.12-.05-2.84-.3-4.48-1.31-1.2-.74-2.59-2.18-.72-6.12,.42-.89,1.04-1.45,1.75-1.59,.74-.14,1.57,.17,2.33,.88l.43,.4,.56-.19s.91-.27,1.46,.19c.55,.46,.8,1.18,1.12,2.08,.03,.09,.07,.19,.1,.28l-2.56,5.38Zm14.03-1.09c-.05-1.23,.12-2.46,.6-3.66-1.31-1.08-1.95-2.7-1.18-4.59,.47-1.16,1.65-2.24,3.17-.98-.11,.66-.2,1.15-.22,1.32-.13,.87,1.16,1.24,1.16,1.24l2.14-5.45c1.98,.64,9.97,2.24,15.08,1.77l.5,4.66h0c-.43,.97-.92,1.94-1.38,2.83-.93,.12-2.06,.31-2.52,.39-.41,.07-.73,.38-.81,.78-.09,.4,.09,.82,.43,1.04l1.11,.73c-3.29,.54-7.97,1.9-11.28,3.14-1.72-.84-4.21-2.02-6.78-3.23"/></g></g></svg>