<?xml version="1.0" encoding="UTF-8"?><svg id="Laag_1" xmlns="http://www.w3.org/2000/svg" xmlns:xlink="http://www.w3.org/1999/xlink" viewBox="0 0 64 64"><defs><style>.cls-1{fill:none;}.cls-2{clip-path:url(#clippath);}.cls-3{clip-path:url(#clippath-1);}</style><clipPath id="clippath"><rect class="cls-1" width="64" height="64"/></clipPath><clipPath id="clippath-1"><rect class="cls-1" width="64" height="64"/></clipPath></defs><g class="cls-2"><g class="cls-3"><path d="M16.33,22.56c-8.04,1.56-6.88,5.45-6.16,6.88,.71,1.43,3.24,2.01,4.61,1.52,1.36-.49,2.08-1.39,4.19-2.04,2.11-.65,4.25-.72,4.25-.72,1.59-.16,2.83-1.08,2.85-2.63,.03-2.04-1.68-4.57-9.73-3.02m2.3,5.91c-.84,.27-1.6,.6-1.71,.27-.11-.33,.38-1.09,1.21-1.36,.84-.27,1.71,.06,1.81,.39,.11,.33-.48,.43-1.32,.7"/><path d="M26.3,38.96c7.1,2.57,8.01-1.06,8.13-2.52,.11-1.47-1.62-3.13-2.92-3.38-1.31-.26-2.3,.12-4.27-.36-1.98-.48-3.7-1.44-3.7-1.44-1.33-.62-2.75-.48-3.5,.73-.99,1.6-.83,4.41,6.27,6.98m.97-5.76c.79,.18,1.55,.28,1.48,.59-.07,.31-.81,.68-1.6,.5s-1.33-.85-1.25-1.16c.07-.31,.58-.11,1.37,.07"/><path d="M34.83,16.15c6.79,1,6.95-2.4,6.78-3.72-.17-1.33-2.01-2.49-3.22-2.49-1.21,0-2.03,.53-3.87,.45-1.85-.07-3.56-.62-3.56-.62-1.3-.31-2.54,.07-2.99,1.28-.59,1.61,.06,4.08,6.85,5.09m-.18-5.31c.74,.02,1.43-.03,1.43,.26,0,.29-.6,.75-1.33,.73-.73-.02-1.34-.52-1.33-.81,0-.29,.5-.21,1.24-.19"/><path d="M19.76,16.72c-.29,1.39,.65,2.47,2.04,2.93,0,0,1.91,.49,3.68,1.49,1.77,1,2.23,1.96,3.35,2.67,1.13,.71,3.52,.69,4.45-.45,.92-1.14,2.75-4.41-4.17-7.42-6.92-3.01-8.97-1.08-9.35,.77m5.06,3.19c.16-.28,1.01-.39,1.71,.01,.7,.41,.98,1.18,.82,1.46-.16,.28-.78-.18-1.48-.58-.7-.41-1.21-.61-1.05-.89"/><path d="M27.26,27.22c-.24,1.15,.53,2.04,1.69,2.42,0,0,1.58,.4,3.04,1.23,1.46,.83,1.84,1.62,2.77,2.21,.93,.59,2.91,.57,3.67-.37,.76-.94,2.28-3.64-3.44-6.12-5.72-2.48-7.41-.89-7.72,.63m4.18,2.64c.13-.23,.83-.32,1.41,.01,.58,.34,.81,.98,.68,1.21-.13,.23-.65-.15-1.22-.49-.58-.34-1-.51-.86-.73"/><path d="M45.65,26.9c.53-.97,.09-1.99-.85-2.65,0,0-1.31-.8-2.39-1.95-1.08-1.15-1.2-1.97-1.88-2.76-.68-.79-2.46-1.32-3.41-.69-.95,.63-3.06,2.65,1.4,6.47,4.46,3.83,6.42,2.86,7.13,1.58m-3.03-3.54c-.18,.17-.84,.06-1.27-.4-.42-.47-.46-1.11-.27-1.28,.18-.17,.54,.31,.97,.78,.43,.46,.76,.73,.57,.9"/><path d="M7.42,35.95c-.28,1.35,.62,2.4,1.98,2.85,0,0,1.85,.47,3.57,1.45,1.71,.97,2.16,1.9,3.25,2.59,1.1,.69,3.42,.67,4.32-.44,.9-1.11,2.67-4.28-4.05-7.19-6.72-2.92-8.7-1.05-9.07,.74m4.91,3.1c.16-.27,.98-.38,1.66,.01,.68,.39,.95,1.15,.8,1.42-.16,.27-.76-.17-1.44-.57-.68-.4-1.17-.59-1.01-.86"/><path d="M16.23,53.08c.23,1.75,4.67,5.26,17.65,1.99,12.97-3.27,18.16-12.11,19.28-14.42,.66-1.36,.14-2.51,.14-2.51,0,0,2.15-2.31,1.73-4.46-.25-1.31-.82-1.87-.82-1.87,0,0,1.55-1.69,2.72-4.49,1.17-2.8,1.26-5.67,1.26-5.67l-2.34-.58s.08,2.5-1.06,5.49c-.77,2.01-2.22,3.86-2.22,3.86,0,0-1.83-1.2-3.59-.61-1.57,.53-2.8,1.77-2.8,1.77,0,0,1.36,.51,2.6,1.33,2.35,1.56,3.31,3.33,3.35,3.57,.04,.25-.06,.24-.06,.24,0,0-1.82-1.49-3.24-2.53-2.3-1.68-4.54-2.26-6.78-1.09-2.36,1.23-4.43,3.75-7.24,8.43-2.81,4.67-3.62,6.89-9.58,9.23-4.89,1.92-7.94,2.04-8.83,2.11-.2,.01-.17,.23-.17,.23"/></g></g></svg>