<?xml version="1.0" encoding="UTF-8"?><svg id="Laag_1" xmlns="http://www.w3.org/2000/svg" xmlns:xlink="http://www.w3.org/1999/xlink" viewBox="0 0 64 64"><defs><style>.cls-1{fill:none;}.cls-2{clip-path:url(#clippath);}.cls-3{clip-path:url(#clippath-1);}</style><clipPath id="clippath"><rect class="cls-1" width="64" height="64"/></clipPath><clipPath id="clippath-1"><rect class="cls-1" width="64" height="64"/></clipPath></defs><g class="cls-2"><g class="cls-3"><path d="M58,30c-2.15,0-3.89,1.7-3.98,3.83l-5.05,1.8c-1.08-1.59-2.9-2.63-4.97-2.63-.62,0-1.21,.09-1.77,.27l-5.71-8.33c.92-1.05,1.48-2.43,1.48-3.94,0-1.2-.35-2.31-.96-3.25l5.56-6.02c.44,.17,.91,.27,1.4,.27,2.21,0,4-1.79,4-4s-1.79-4-4-4-4,1.79-4,4c0,.61,.15,1.18,.39,1.7l-5.55,6.02c-.85-.45-1.81-.71-2.84-.71-1.11,0-2.15,.31-3.04,.84l-6.27-6.27c.2-.48,.32-1.01,.32-1.56,0-2.21-1.79-4-4-4s-4,1.79-4,4,1.79,4,4,4c.55,0,1.08-.11,1.56-.32l6.27,6.27c-.53,.89-.84,1.93-.84,3.04,0,1.51,.56,2.88,1.48,3.94l-5.71,8.33c-.56-.17-1.15-.27-1.77-.27-1.81,0-3.42,.8-4.52,2.06l-5.51-2.76c0-.1,.03-.2,.03-.31,0-2.21-1.79-4-4-4s-4,1.79-4,4,1.79,4,4,4c1.01,0,1.93-.39,2.63-1.01l5.5,2.75c-.09,.4-.13,.82-.13,1.26,0,2.03,1.01,3.82,2.56,4.91l-2.66,7.1c-2.16,.06-3.89,1.82-3.89,3.99s1.79,4,4,4,4-1.79,4-4c0-1.16-.5-2.2-1.3-2.93l2.66-7.1c.21,.02,.42,.03,.64,.03,2.97,0,5.43-2.16,5.91-5h12.18c.48,2.84,2.94,5,5.91,5,.22,0,.43-.01,.63-.03l2.66,7.1c-.79,.73-1.3,1.77-1.3,2.93,0,2.21,1.79,4,4,4s4-1.79,4-4-1.74-3.93-3.89-3.99l-2.66-7.1c1.55-1.09,2.56-2.88,2.56-4.91,0-.18-.01-.36-.03-.54l5.06-1.81c.73,.82,1.79,1.35,2.97,1.35,2.21,0,4-1.79,4-4s-1.79-4-4-4m-33.68,4.85l5.63-8.21c.64,.23,1.33,.36,2.05,.36s1.41-.13,2.05-.36l5.63,8.21c-.58,.61-1.04,1.34-1.33,2.15h-12.7c-.29-.81-.74-1.54-1.33-2.15"/></g></g></svg>