<?xml version="1.0" encoding="UTF-8"?><svg id="Laag_1" xmlns="http://www.w3.org/2000/svg" xmlns:xlink="http://www.w3.org/1999/xlink" viewBox="0 0 64 64"><defs><style>.cls-1{fill:none;}.cls-2{clip-path:url(#clippath);}.cls-3{clip-path:url(#clippath-1);}</style><clipPath id="clippath"><rect class="cls-1" width="64" height="64"/></clipPath><clipPath id="clippath-1"><rect class="cls-1" width="64" height="64"/></clipPath></defs><g class="cls-2"><g class="cls-3"><path d="M54.83,39.67c0-2.93-1.75-5.38-4.1-6.06-.18-3.13-2.69-5.61-5.77-5.61-.77,0-1.49,.16-2.16,.43-1-.89-2.37-1.43-3.88-1.43-2.97,0-5.39,2.11-5.57,4.77-2.48,.5-4.35,2.68-4.35,5.31,0,.5,.07,.98,.2,1.44-.16,.07-.3,.05-.5-.26-.42-.67-.7-1.79-.7-2.81,0-2.31,1.47-4.3,3.61-5.26,.81-2.72,3.32-4.78,6.39-5.13v-8.57c0-.28-.22-.5-.5-.5h-1.8L29.96,2.12c-.17-.41-.75-.41-.92,0l-5.74,13.88h-1.8c-.28,0-.5,.22-.5,.5v22.5h-4l-8,11v11H26v-11l7-11,6.97,10.96h.03v11.04h7s-1.2-4.81-1.2-8c0-.09-.01-.16-.01-.25,.51,.16,1.06,.25,1.63,.25,2.99,0,5.42-2.43,5.42-5.42,0-.92-.23-1.79-.64-2.56,1.58-1.09,2.64-3.08,2.64-5.36"/><rect x="30" y="52" width="6" height="5"/></g></g></svg>