<?xml version="1.0" encoding="UTF-8"?><svg id="Laag_1" xmlns="http://www.w3.org/2000/svg" xmlns:xlink="http://www.w3.org/1999/xlink" viewBox="0 0 64 64"><defs><style>.cls-1{fill:none;}.cls-2{clip-path:url(#clippath);}.cls-3{clip-path:url(#clippath-1);}</style><clipPath id="clippath"><rect class="cls-1" width="64" height="64"/></clipPath><clipPath id="clippath-1"><rect class="cls-1" width="64" height="64"/></clipPath></defs><g class="cls-2"><g class="cls-3"><path d="M6,29c0,2.76,2.24,5,5,5s5-2.24,5-5-2.24-5-5-5-5,2.24-5,5"/><path d="M27.5,32.78l10.59,17.04,11.37-9.7-17.82-12.15c-1.29,1.66-2.67,3.29-4.14,4.81"/><path d="M16.81,40.68l7.33,17.94,8.18-4.06-10.46-16.83c-1.68,1.21-3.37,2.19-5.05,2.95"/><path d="M37.43,19.24c-1.3,2.29-2.79,4.65-4.47,6.97l9.34,6.37,3.5-6.02,10.9,5.3,3.69-7.76-22.97-4.86Z"/><polygon points="44.13 33.82 52.93 39.82 55.77 33.85 46.69 29.44 44.13 33.82"/><path d="M26.65,22.31L9.5,8.13l-3.75,4.75,15.31,15.86c1.89-1.81,3.77-3.97,5.59-6.43"/><path d="M40.8,6.31l-2.89-.81c-1.01,3.59-3.37,8.76-6.61,13.9l-13.49-11.14-1.91,2.31,13.74,11.35c-4.32,6.24-9.85,12.02-15.75,14.37-1.64,.65-6.6,1.32-8.88,1.58v3.02c1.17-.13,7.62-.87,9.99-1.81,2.61-1.04,5.1-2.64,7.46-4.59l13.53,21.76,2.55-1.58-13.81-22.21c8.25-7.95,14.31-19.86,16.08-26.15"/></g></g></svg>