<?xml version="1.0" encoding="UTF-8"?><svg id="Laag_1" xmlns="http://www.w3.org/2000/svg" xmlns:xlink="http://www.w3.org/1999/xlink" viewBox="0 0 64 64"><defs><style>.cls-1{fill:none;}.cls-2{clip-path:url(#clippath);}.cls-3{clip-path:url(#clippath-1);}</style><clipPath id="clippath"><rect class="cls-1" width="64" height="64"/></clipPath><clipPath id="clippath-1"><rect class="cls-1" width="64" height="64"/></clipPath></defs><g class="cls-2"><g class="cls-3"><path d="M29.69,17.64c0-2.37-1.19-3.64-3.19-3.64s-3.19,1.46-3.19,3.64,1.18,3.46,3.19,3.46,3.19-1.46,3.19-3.46"/><path d="M31.6,38.96c.91,0,2.37-.55,2.55-2.55,0-5.65,.27-12.66-4.01-13.67-2.19-.55-5.19-.55-7.29,0-4.19,1-4.01,8.02-4.01,13.76,.18,2,1.64,2.55,2.55,2.55v-5.28c0-2.46,.45-5.1,.73-6.01,.09-.27,.27-.18,.27-.18v27.42s3.01,0,3.28-3.37c0,0,.46-12.76,.46-12.85,0-.18,.09-.36,.36-.36s.36,.18,.36,.36,.46,12.75,.46,12.75c.18,3.46,3.28,3.46,3.28,3.46V27.48s.18-.09,.27,.18c.27,.82,.73,3.46,.73,5.92v5.38Z"/><path d="M44.5,19c.83,0,1.5-.67,1.5-1.5s-.67-1.5-1.5-1.5-1.5,.67-1.5,1.5,.67,1.5,1.5,1.5"/><path d="M44.5,24c.83,0,1.5-.67,1.5-1.5s-.67-1.5-1.5-1.5-1.5,.67-1.5,1.5,.67,1.5,1.5,1.5"/><path d="M44.5,29c.83,0,1.5-.67,1.5-1.5s-.67-1.5-1.5-1.5-1.5,.67-1.5,1.5,.67,1.5,1.5,1.5"/><path d="M49,48.81v8.19H12V7H49V30.19c1.14-1.02,2.86-1.02,4,0V5c0-1.1-.9-2-2-2H10c-1.1,0-2,.9-2,2V59c0,1.1,.9,2,2,2H51c1.1,0,2-.9,2-2v-10.19c-.57,.51-1.28,.78-2,.78s-1.43-.27-2-.78"/><path d="M50.29,31.71l-4.59,4.59c-.63,.63-.18,1.71,.71,1.71h9.17c.89,0,1.34-1.08,.71-1.71l-4.59-4.59c-.39-.39-1.02-.39-1.41,0"/><path d="M55.59,41h-9.17c-.89,0-1.34,1.08-.71,1.71l4.59,4.59c.39,.39,1.02,.39,1.41,0l4.59-4.59c.63-.63,.18-1.71-.71-1.71"/></g></g></svg>