<?xml version="1.0" encoding="UTF-8"?><svg id="Laag_1" xmlns="http://www.w3.org/2000/svg" xmlns:xlink="http://www.w3.org/1999/xlink" viewBox="0 0 64 64"><defs><style>.cls-1{fill:none;}.cls-2{clip-path:url(#clippath);}.cls-3{clip-path:url(#clippath-1);}</style><clipPath id="clippath"><rect class="cls-1" width="64" height="64"/></clipPath><clipPath id="clippath-1"><rect class="cls-1" width="64" height="64"/></clipPath></defs><g class="cls-2"><g class="cls-3"><path d="M57.44,23.21l-10.85-15.36c-.38-.53-.98-.85-1.63-.85H19.04c-.65,0-1.26,.32-1.63,.85L6.56,23.21c-.23,.33,0,.79,.41,.79h7.08l15.96-13c1.16-.97,2.77-.94,4,0l15.96,13h7.08c.4,0,.64-.46,.41-.79"/><path d="M32,13.68L15.53,27h-5.53v29H54V27h-5.53l-16.47-13.32Zm-7,36.32h-8v-5h8v5Zm0-8h-8v-9h8v9Zm11,8h-8v-5h8v5Zm0-8h-8v-9h8v9Zm-4-13.8c-2.32,0-4.2-1.88-4.2-4.2s1.88-4.2,4.2-4.2,4.2,1.88,4.2,4.2-1.88,4.2-4.2,4.2m15,21.8h-8v-5h8v5Zm0-8h-8v-9h8v9Z"/></g></g></svg>