<?xml version="1.0" encoding="UTF-8"?><svg id="Laag_1" xmlns="http://www.w3.org/2000/svg" xmlns:xlink="http://www.w3.org/1999/xlink" viewBox="0 0 64 64"><defs><style>.cls-1{fill:none;}.cls-2{clip-path:url(#clippath);}.cls-3{clip-path:url(#clippath-1);}</style><clipPath id="clippath"><rect class="cls-1" width="64" height="64"/></clipPath><clipPath id="clippath-1"><rect class="cls-1" width="64" height="64"/></clipPath></defs><g class="cls-2"><g class="cls-3"><path d="M20,11.91c3.17,0,5-2.2,5-5.37,0-3.61-1.92-5.54-5-5.54-3.25,0-5,2.29-5,5.54,0,3.43,1.83,5.37,5,5.37m18.08,14.98c.33-.16,4.02-1.9,4.02-1.9l-2.02-1.61c-1.5,.5-4.03,2.48-4.56,4.2-.52,1.72,5.72,6.23,5.72,6.23,0,0,1.42-1.55,5.15-1.07,3.74,.49,4.58-2.99,4.58-2.99l-4.15-4.36-8.93,1.92c-.03-.05-.11-.28,.18-.43m6.61-8.61s-7.09-2.24-14.07-3.28c-6.62-.99-9.42-1-11.02-1-1.25,0-5.94,.13-7.97,1.57-4.65,3.29-4.83,13.58-4.54,19.5,.15,3.06,2.5,3.92,3.91,3.92v-5c0-3.82,.43-8.1,1.46-11.13,.03-.1,.08-.23,.12-.34,.03-.07,.09-.15,.2-.15,.16,0,.22,.13,.22,.22,0,.07,0,40.35,0,40.35,0,0,5.41,.21,5.64-5.05,.11-2.54,.79-19.3,.79-19.46,0-.21,.19-.51,.56-.51s.55,.3,.56,.51c0,.16,.68,17,.79,19.32,.25,5.4,5.66,5.19,5.66,5.19V19.77c3.84,.12,7.7,.48,12.86,1.1,3.97,.48,4.84-2.59,4.84-2.59m10.35,17.72h-22.1c-.81,.03-1.45,.68-1.45,1.49s.67,1.5,1.5,1.5h.19s1.12,14.21,1.67,21.42c.07,1.07,.94,2.02,1.99,2.14,2.38,.27,4.76,.4,7.15,.4s4.77-.13,7.15-.4c1.05-.12,1.92-1.07,1.99-2.14,.56-7.21,1.67-21.42,1.67-21.42h.19c.83,0,1.5-.67,1.5-1.5s-.65-1.47-1.45-1.49m-19.86,2.99h4.4l.12,4h-4.21l-.31-4Zm.47,6h4.11l.12,4h-3.92l-.31-4Zm.47,6h3.83l.12,4h-3.64l-.31-4Zm.94,9.57c-.06-.01-.21-.15-.22-.3-.08-1.1-.25-3.27-.25-3.27h3.55l.12,3.84c-1.07-.06-2.14-.15-3.19-.27m8.65,.34c-.58,.02-1.15,.05-1.73,.05s-1.15-.03-1.73-.05l-.12-3.91h3.7l-.12,3.91Zm.18-5.91h-3.82l-.12-4h4.07l-.12,4Zm.19-6h-4.19l-.12-4h4.44l-.12,4Zm.19-6h-4.57l-.12-4h4.81l-.12,4Zm4.86,17.29c0,.13-.16,.27-.22,.28-1.06,.12-2.13,.2-3.2,.27l.12-3.84h3.55s-.17,2.18-.25,3.29m.41-5.29h-3.64l.12-4h3.83l-.31,4Zm.47-6h-3.92l.12-4h4.11l-.31,4Zm.47-6h-4.21l.12-4h4.4l-.31,4Z"/></g></g></svg>