<?xml version="1.0" encoding="UTF-8"?><svg id="Laag_1" xmlns="http://www.w3.org/2000/svg" xmlns:xlink="http://www.w3.org/1999/xlink" viewBox="0 0 64 64"><defs><style>.cls-1{fill:none;}.cls-2{clip-path:url(#clippath);}.cls-3{clip-path:url(#clippath-1);}</style><clipPath id="clippath"><rect class="cls-1" width="64" height="64"/></clipPath><clipPath id="clippath-1"><rect class="cls-1" width="64" height="64"/></clipPath></defs><g class="cls-2"><g class="cls-3"><path d="M61.25,30.01c-3.05,.43-6.1,.8-9.15,1.12l-3.27-5.14,2.42-4.12c.21-.35,.18-.79-.07-1.12l-1.06-1.37c-.19-.25-.48-.39-.79-.39H32v-6c0-.55-.45-1-1-1s-1,.45-1,1v6h-3.12c-.44,0-.83,.29-.96,.71l-4.03,13.38c-6.03,.17-11.73,.23-16.9,.23-.55,0-.99,.45-.99,1v6.52c2.25-.19,4.53-1.79,6.43-3.03,1.98,1.29,4.48,3.06,6.85,3.06s4.87-1.77,6.86-3.07c2,1.31,4.47,3.07,6.86,3.07s4.82-1.73,6.86-3.06c1.99,1.3,4.49,3.06,6.85,3.06s4.82-1.73,6.86-3.06c1.97,1.28,4.4,2.99,6.73,3.05l4.01-9.47c.3-.72-.29-1.48-1.06-1.37m-34.09,2.9l-1.83-3.92,2.75,.13,1.72,3.68c-.88,.04-1.76,.08-2.64,.11m6.17-.29l-1.56-3.34,2.75,.13,1.43,3.06c-.88,.05-1.75,.1-2.62,.15m-.77-6.62l-1.31-4h16.41l-2.35,4h-12.76Zm6.9,6.25l-1.25-2.67,2.75,.13,1.1,2.35c-.87,.07-1.74,.13-2.6,.19m6.08-.47l-.89-1.9,2.75,.13,.72,1.54c-.86,.08-1.72,.16-2.58,.24"/><path d="M51.57,40.43c-1.92,1.25-4.31,2.64-6.86,2.64s-4.95-1.39-6.86-2.64c-1.92,1.25-4.31,2.64-6.86,2.64s-4.9-1.36-6.86-2.64c-1.98,1.3-4.37,2.64-6.86,2.64s-4.95-1.39-6.86-2.64c-1.93,1.25-4.32,2.64-6.86,2.64-.87,0-1.76-.19-2.57-.45v4.07c.82,.19,1.69,.31,2.57,.31,2.75,0,5.42-1.18,6.86-1.94,1.44,.76,4.11,1.94,6.86,1.94s5.41-1.18,6.86-1.94c1.44,.76,4.11,1.94,6.86,1.94s5.41-1.18,6.86-1.94c1.44,.76,4.11,1.94,6.86,1.94s5.42-1.18,6.86-1.94c1.44,.76,4.11,1.94,6.86,1.94,.88,0,1.75-.12,2.57-.31v-4.07c-.81,.26-1.7,.46-2.57,.46-2.53,0-4.95-1.39-6.86-2.64"/></g></g></svg>