<?xml version="1.0" encoding="UTF-8"?><svg id="Laag_1" xmlns="http://www.w3.org/2000/svg" xmlns:xlink="http://www.w3.org/1999/xlink" viewBox="0 0 64 64"><defs><style>.cls-1{fill:none;}.cls-2{clip-path:url(#clippath);}.cls-3{clip-path:url(#clippath-1);}</style><clipPath id="clippath"><rect class="cls-1" width="64" height="64"/></clipPath><clipPath id="clippath-1"><rect class="cls-1" width="64" height="64"/></clipPath></defs><g class="cls-2"><g class="cls-3"><path d="M39.86,41.76c2.06-3.27,5.33-9,7.45-13.16,1.61-3.16,.41-5.89-1.72-6.85-.65-.37-1.41-.62-2.28-.71h0c-.54-.06-1.06-.05-1.53,.06-.39,.08-.77,.21-1.15,.37-1.78,.67-6.73,3.98-7.63,3.81-.76-.14-7.72-3.33-7.72-3.33,0,0-1.46,1.9,.44,3.47,.89,.74,5.86,3.78,6.58,3.91,1.17,.22,3.01-.58,3.85-.99-1.14,1.58-1.85,2.68-3.92,5.9-2.71-1.14-6.52-2.53-8.58-3.43-3.83-1.67-4.82-1.9-7.9,.93-6.5,6.12-10.38,11.28-11.15,12.25,.78,.7,2.34,2.55,6.53-.25,.45-.3,1-.72,1-.72,0,0,2.92-4.34,3.98-6.16,.17-.29,.41-.24,.46-.16l-5.51,18.49c.97,.31,4.51,1.11,6.39-3.16,1.89-4.28,5.18-12.17,5.18-12.17,0,0,8.17,2.58,10.61,3.27,3.35,.96,5.29,.74,6.63-1.38"/><path d="M19.84,27.36l10.57,4.69,.29-.65c.22-.5,0-1.08-.5-1.31l-9.35-4.14-2.59-9.9c-.14-.53-.68-.85-1.21-.71l-.69,.18,2.93,11.19c.08,.29,.28,.53,.55,.65"/><path d="M55.6,24.59c.4-.72,.15-1.64-.58-2.04-.72-.4-1.64-.15-2.04,.58l-11.15,19.93c-1.35,2.41-4.24,3.58-6.88,2.77l-10.27-3.11c-.79-.24-1.63,.21-1.87,1-.24,.79,.21,1.63,1,1.87l6.94,2.1-3.37,7.43h3.5l2.7-6.57,.51,.15c.84,.26,1.7,.38,2.55,.38,1.99,0,3.94-.67,5.51-1.89l4.35,7.93h3.49l-5.79-10.19c.09-.14,.19-.27,.27-.41l11.15-19.93Z"/><path d="M45.18,19.71c2.78,.34,4.6-1.45,4.91-4.31,.35-3.26-1.14-5.21-3.84-5.53-2.85-.35-4.61,1.53-4.93,4.47-.34,3.1,1.08,5.04,3.86,5.38"/></g></g></svg>