<?xml version="1.0" encoding="UTF-8"?><svg id="Laag_1" xmlns="http://www.w3.org/2000/svg" xmlns:xlink="http://www.w3.org/1999/xlink" viewBox="0 0 64 64"><defs><style>.cls-1{fill:none;}.cls-2{clip-path:url(#clippath);}.cls-3{clip-path:url(#clippath-1);}</style><clipPath id="clippath"><rect class="cls-1" width="64" height="64"/></clipPath><clipPath id="clippath-1"><rect class="cls-1" width="64" height="64"/></clipPath></defs><g class="cls-2"><g class="cls-3"><path d="M57.21,54.33c-2.73-2.88-10.24-5.31-13.97-6.45-3.16-.97-2.9-5.51-3.09-7.34,2.39-2.67,4.07-5.91,4.67-10.18,2.29-.7,2.75-3.56,2.75-5.35s-.31-2.75-.95-3.04c-.31-.14-.61-.14-.88-.08,.23-3.71,.46-11.07-1.09-13.84-1.69-3.02-3.94-3.81-7.86-2.82-2.57-1.36-4.32-2.71-8.83-1.48-3.13,.85-6.56,2.25-8.36,4.57-1.95,2.51-1.57,9.83-1.24,13.58-.29-.08-.63-.09-.98,.07-.64,.3-.95,1.26-.95,3.04s.46,4.64,2.75,5.35c.54,4.51,2.25,7.63,4.67,10.23-.17,1.56,.03,5.95-2.57,7.05-3,.81-11.46,3.55-14.44,6.68-1.6,1.68-2.75,4.78-3.54,7.67H60.73c-.78-2.89-1.92-5.98-3.52-7.67m-20.49-5.25c-.67,1.91-1.78,3.12-2.56,3.12s-1.49-1.26-2.15-1.26-1.36,1.26-2.15,1.26-1.89-1.21-2.56-3.12c-.8-2.27-.77-5.92,.31-6.01,1.08-.09,1.89,2.16,2.37,2.83,.59,.83,1.33,1.22,2.04,1.21,.71,0,1.44-.4,2.02-1.21,.48-.67,1.29-2.92,2.37-2.83,1.08,.09,1.1,3.74,.31,6.01"/></g></g></svg>