<?xml version="1.0" encoding="UTF-8"?><svg id="Laag_1" xmlns="http://www.w3.org/2000/svg" xmlns:xlink="http://www.w3.org/1999/xlink" viewBox="0 0 64 64"><defs><style>.cls-1{fill:none;}.cls-2{clip-path:url(#clippath);}.cls-3{clip-path:url(#clippath-1);}</style><clipPath id="clippath"><rect class="cls-1" width="64" height="64"/></clipPath><clipPath id="clippath-1"><rect class="cls-1" width="64" height="64"/></clipPath></defs><g class="cls-2"><g class="cls-3"><path d="M31.5,11.98c3.14,0,4.95-2.21,4.95-5.39,0-3.62-1.9-5.57-4.95-5.57-3.22,0-4.95,2.3-4.95,5.57,0,3.45,1.82,5.39,4.95,5.39"/><path d="M37.02,14.7c-3.34-.8-7.81-.8-11.05,0-6.36,1.56-5.94,11.65-5.94,20.36,.21,3.05,2.45,3.92,3.8,3.92v-9.17c0-3.45,.34-6.14,.76-7.48,.13-.41,.41-.33,.41-.33V63s4.86,.04,5.24-5.05c0,0,.73-19.24,.74-19.46,0-.21,.17-.49,.53-.49s.51,.28,.52,.49c0,.21,.73,19.32,.73,19.32,.29,5.24,5.25,5.19,5.25,5.19V22s.3-.1,.45,.33c.41,1.2,.72,4.03,.72,7.43v9.21c1.35,0,3.56-.84,3.8-3.92,0-8.71,.43-18.84-5.94-20.36"/></g></g></svg>