<?xml version="1.0" encoding="UTF-8"?><svg id="Laag_1" xmlns="http://www.w3.org/2000/svg" xmlns:xlink="http://www.w3.org/1999/xlink" viewBox="0 0 64 64"><defs><style>.cls-1{fill:none;}.cls-2{clip-path:url(#clippath);}.cls-3{clip-path:url(#clippath-1);}</style><clipPath id="clippath"><rect class="cls-1" width="64" height="64"/></clipPath><clipPath id="clippath-1"><rect class="cls-1" width="64" height="64"/></clipPath></defs><g class="cls-2"><g class="cls-3"><path d="M44.33,36.82s-.75-5.62-2.18-7.11c-1.27-1.33-4.76-2.15-5.7-2.9-.05-.44-.12-.98-.2-1.5,1.46,.15,2.7,.33,3.58,.64,.19,.07,.4-.06,.45-.28,.65-2.63,.94-4.41,.94-6.34,0-3.87-1.46-8.01-3.69-9.35-1.42-.85-3.03-.54-3.03-.54,0,0-1.54-1.48-4.23-.98-4.39,.83-7.68,5.04-7.68,10.87,0,1.93,.29,3.7,.94,6.34,.05,.22,.26,.35,.45,.28,.94-.33,2.22-.52,3.81-.67-.06,.49-.12,1.03-.18,1.58-.87,.62-4.54,1.38-5.95,2.85-1.43,1.49-2.18,7.11-2.18,7.11h24.85Zm-16.74-8.21c1.49-.62,1.4-1.18,1.43-1.41,.03-.3,.3-2.76,.3-2.76-1.3-1.28-1.86-2.88-2.1-4.29-.15-.9-.13-1.73-.09-2.28,2.49-.98,6.01-2.97,7.37-4.69,0,0,.17,0,.06,.26-.18,.43-.44,.94-.8,1.54,.64,1.36,1.8,2.36,2.94,3.07,.03,.54,.03,1.28-.1,2.1-.27,1.65-1.46,3.95-2.76,4.75-.89,.55-2.52,.64-3.47,.23,.22,.44,.66,.95,1.63,1.19,1.31,.33,2.51-.21,2.82-.39,.06,.41,.11,.82,.15,1.18,.02,.22,.08,.77,1.62,1.49-1.2,2.08-3.83,3.2-4.65,3.51-.77-.33-3.18-1.49-4.34-3.52"/><path d="M49.4,38H13.6c-.89,0-1.6,.72-1.6,1.61v4.79c0,.89,.72,1.6,1.6,1.6h8.61c-.11,.4-1.08,.75-4.22,1.22l2,8.78h23l2.05-8.78c-3.14-.46-4.11-.82-4.22-1.22h8.56c.89,0,1.6-.72,1.6-1.6v-4.79c0-.89-.72-1.61-1.6-1.61"/></g></g></svg>