<?xml version="1.0" encoding="UTF-8"?><svg id="Laag_1" xmlns="http://www.w3.org/2000/svg" xmlns:xlink="http://www.w3.org/1999/xlink" viewBox="0 0 64 64"><defs><style>.cls-1{fill:none;}.cls-2{clip-path:url(#clippath);}.cls-3{clip-path:url(#clippath-1);}</style><clipPath id="clippath"><rect class="cls-1" width="64" height="64"/></clipPath><clipPath id="clippath-1"><rect class="cls-1" width="64" height="64"/></clipPath></defs><g class="cls-2"><g class="cls-3"><path d="M18,52.45v9.55h28v-9.55c-3.73,.45-8.32,.75-14,.75s-10.27-.29-14-.75"/><path d="M56.64,45.69c-5.17-.22-9.32-1.66-12.64-3.63v-6.48c-3.21,.38-7.15,.62-12,.62s-8.79-.25-12-.62v6.48c-3.32,1.97-7.48,3.41-12.64,3.63-1.05,.05-1.34,1.48-.38,1.9,3.45,1.53,10.62,3.41,25.02,3.41s21.57-1.88,25.02-3.41c.96-.42,.66-1.86-.38-1.9"/><path d="M10.65,31.25c3.2,1.29,9.46,2.75,21.35,2.75s18.15-1.47,21.35-2.75c1-.4,.76-1.86-.31-1.93-4.53-.31-8.16-1.75-11.04-3.68v-5.93c-2.93,.33-6.26,.5-10,.5s-7.07-.17-10-.5v5.93c-2.88,1.93-6.5,3.37-11.04,3.68-1.08,.07-1.32,1.53-.31,1.93"/><path d="M14.6,15.97c2.96,1.01,8.22,2.03,17.4,2.03s14.44-1.02,17.4-2.03c1.05-.36,.79-1.89-.31-1.94-9.27-.38-13.88-4.06-15.85-6.31,1.04-.47,1.76-1.51,1.76-2.73,0-1.66-1.34-3-3-3s-3,1.34-3,3c0,1.22,.73,2.25,1.76,2.73-1.97,2.25-6.59,5.93-15.85,6.31-1.11,.04-1.36,1.58-.31,1.94"/></g></g></svg>