<?xml version="1.0" encoding="UTF-8"?><svg id="Laag_1" xmlns="http://www.w3.org/2000/svg" xmlns:xlink="http://www.w3.org/1999/xlink" viewBox="0 0 64 64"><defs><style>.cls-1{fill:none;}.cls-2{clip-path:url(#clippath);}.cls-3{clip-path:url(#clippath-1);}</style><clipPath id="clippath"><rect class="cls-1" width="64" height="64"/></clipPath><clipPath id="clippath-1"><rect class="cls-1" width="64" height="64"/></clipPath></defs><g class="cls-2"><polygon points="40.98 7 23.03 7 5 22 59 22 40.98 7"/><g class="cls-3"><path d="M11,57h11.14c-.37-2.24-2.55-4.13-5.53-4.43-.24-.02-.29-.34-.09-.47,1.01-.6,3.19-1.44,5.84,.12,0,0-.94-1.83-1.39-5.06-.03-.2,.18-.35,.36-.27,.81,.37,2.62,1.5,4.07,4.34-.48,.58-.92,1.25-1.25,2.04-.1,.26,.01,.39,.14,.36,1-.98,2.71-3.04,6.97-2.4,.23,.03,.28,.34,.08,.46-1.28,.74-4.19,2.67-5.18,5.28h11.84v-9.5c0-1.93,1.57-3.5,3.5-3.5s3.5,1.57,3.5,3.5v9.5h8V24H11V57Zm28-27h5v8h-5v-8Zm-23,5h2v3h-2v-3Zm4,0h2v3h-2v-3Zm4,0h2v3h-2v-3Zm4,0h2v3h-2v-3Zm-5-7c4.67,0,7,2,7,2v3h-14v-3s2.33-2,7-2"/></g></g></svg>