<?xml version="1.0" encoding="UTF-8"?><svg id="Laag_1" xmlns="http://www.w3.org/2000/svg" xmlns:xlink="http://www.w3.org/1999/xlink" viewBox="0 0 64 64"><defs><style>.cls-1{fill:none;}.cls-2{clip-path:url(#clippath);}.cls-3{clip-path:url(#clippath-1);}</style><clipPath id="clippath"><rect class="cls-1" width="64" height="64"/></clipPath><clipPath id="clippath-1"><rect class="cls-1" width="64" height="64"/></clipPath></defs><g class="cls-2"><g class="cls-3"><path d="M52.45,45.27c-1.53,1.48-3.76,3.27-6.3,5l-4.94,8.23-6.49-2.43c-2.53,.81-4.89,1.23-7.04,1.23-1.76,0-3.36-.3-4.8-.86,.08,.21,.16,.41,.25,.61,2.8,5.97,9.81,6.89,18.53,2.97,5.16-2.32,9.76-5.66,12.53-8.52,4.26-4.4,4.16-9.18,2.69-12.65-.72,2.11-2.21,4.26-4.45,6.41m-15.74,7.52c5.44-2.28,11.11-6.39,14.08-9.24,2.84-2.73,4.26-5.32,4.24-7.69-3.34-3.79-10.44-5.07-17.23-1.88,4.3,1.97,6.14,4.35,6.67,5.02,.44,.55,.54,.89,.33,1.01-.87-.56-4.72-3.44-11.46-3.48-1.53,1.04-2.94,2.18-4.24,3.4,4.96,2.06,7.01,4.8,7.58,5.51,.44,.55,.5,.82,.33,.92-.88-.35-4.42-3.21-10.68-3.46-2.95,3.56-4.19,7.35-4.03,10.59,3.14,2.09,8.31,1.86,14.41-.69m15.59-33.18l3.71-.74v-4.86h6c.55,0,1-.45,1-1V5c0-.55-.45-1-1-1H2c-.55,0-1,.45-1,1V13c0,.55,.45,1,1,1H11.98c.02,.06,.07,.29-.27,.4l-3.71,.74v25.86h6V14H50v6h-3c-1.1,0-2,.9-2,2v7.17c4.63-.14,9.34,1.27,12.37,4.8,1.63,1.9,2.82,4.35,3.26,7.03h2.36V22c0-1.1-.9-2-2-2h-8.98c-.02-.06-.07-.29,.27-.4m-25.25,18.13c3.3-3.11,5.09-4.07,7.59-5.43-.14-.31-.33-.61-.58-.94,.42-.29,.69-.64,.77-.81,.16-.36,.05-.98-.55-1.1-.27-.05-.83,0-1.27,.06-.34-1.24-.94-2.38-1.29-2.74-.49-.49-3.1-.78-5.71-.78-2.62,0-5.24,.29-5.72,.78-.35,.36-.95,1.5-1.3,2.74-.44-.06-1.02-.11-1.28-.06-.6,.12-.72,.74-.56,1.1,.07,.17,.38,.52,.8,.81-.69,.93-.94,1.56-.94,3.05v4.09s.06,1.2,.22,1.99c.06,.29,.39,.5,.7,.5h2.3c.31,0,.58-.32,.64-.61,.09-.44,.17-1.39,.17-1.39h4.68l1.34-1.26Zm-5.02-9.63c.56-.07,1.8-.17,3.98-.17s3.42,.1,3.98,.17c.58,1.38,.92,2.65,1.13,3.65-1.26,.2-3.25,.33-5.1,.33s-3.85-.13-5.1-.33c.2-1,.54-2.11,1.12-3.65m-.12,7.97l-2.09-.17c-.57-.05-.91-.5-1.02-.99l-.09-.6c-.05-.37,.33-.68,.7-.58l1.69,.47c.37,.14,.65,.43,.77,.79l.23,.86c.03,.11-.07,.23-.2,.22"/></g></g></svg>