<?xml version="1.0" encoding="UTF-8"?><svg id="Laag_1" xmlns="http://www.w3.org/2000/svg" xmlns:xlink="http://www.w3.org/1999/xlink" viewBox="0 0 64 64"><defs><style>.cls-1{fill:none;}.cls-2{clip-path:url(#clippath);}.cls-3{clip-path:url(#clippath-1);}</style><clipPath id="clippath"><rect class="cls-1" width="64" height="64"/></clipPath><clipPath id="clippath-1"><rect class="cls-1" width="64" height="64"/></clipPath></defs><g class="cls-2"><g class="cls-3"><path d="M61,26.5c0-4.14-3.36-7.5-7.5-7.5s-7.5,3.36-7.5,7.5c0,2.56,1.29,4.82,3.25,6.17-.89,3.25-1.91,6.84-2.56,8.81-1.72,5.25-4.52,10.61-12.22,10.61-6.55,0-8.75-5.59-9.48-8.87-2.3-.18-3.22-.65-3.43-.77-.24-.14-.2-.31-.17-.39,.21,.01,.41,.04,.62,.04,2.19,0,4.38-.57,6.33-1.7,7.79-4.51,9.84-21.7,7.92-26.53-1.18-2.98-3.92-4.29-6.42-4.76-.32-1.13-.96-1.92-1.78-2.01-1.36-.15-2.67,1.65-2.94,4.02-.27,2.37,.61,4.42,1.97,4.58,.83,.09,1.64-.55,2.21-1.59,1.04,.22,2.14,.67,2.52,1.61,.46,1.15,.52,5.45-.57,10.21-1.15,5.06-3.17,8.85-5.42,10.15-2.36,1.37-5.29,1.37-7.65,0-5.48-3.17-7.1-17.54-5.98-20.36,.37-.94,1.48-1.4,2.53-1.61,.57,1.05,1.38,1.69,2.21,1.6,1.36-.15,2.24-2.2,1.97-4.58-.27-2.37-1.59-4.17-2.94-4.02-.82,.09-1.46,.88-1.78,2.01-2.5,.47-5.25,1.78-6.43,4.76-1.92,4.83,.14,22.02,7.92,26.53,1.26,.73,2.62,1.2,4.02,1.46,.53,5.63,4.16,15.23,14.78,15.23,12.36,0,15.83-10.58,16.97-14.05,.68-2.08,1.72-5.77,2.63-9.07,3.87-.29,6.93-3.52,6.93-7.47m-7.5,2.62c-1.45,0-2.62-1.17-2.62-2.62s1.17-2.62,2.62-2.62,2.62,1.18,2.62,2.62-1.18,2.62-2.62,2.62"/></g></g></svg>