<?xml version="1.0" encoding="UTF-8"?><svg id="Laag_1" xmlns="http://www.w3.org/2000/svg" viewBox="0 0 64 64"><defs><style>.cls-1{fill:none;}</style></defs><rect class="cls-1" width="64" height="64"/><g><path d="m51.79,45.26c-1.07-1.12-3.15-2.23-5.31-3.18-1.53-.7-5.89-2.44-6.29-2.68-.1-.86-.2-1.72-.29-2.53,1.44-1.15,2.55-2.21,4.49-3.83.43-.36.57-.96.34-1.48l-.58-1.28c.27-1.77.26-1.41.36-2.34.97-1.22,1.51-2.91,1.51-4.93,0-.74-.02-2.67-1.22-4.01,0,0,0,0,0,0,.09-.71.73-8.3-1.22-10.55-1.29-1.49-3.45-2.52-5.71-3.26-1.25-1.92-3.41-3.18-5.86-3.18s-4.62,1.27-5.87,3.19c-2.25.73-4.41,1.77-5.69,3.25-2.01,2.33-1.32,9.35-1.23,10.56-1.2,1.33-1.22,3.27-1.22,4,0,2.02.54,3.71,1.51,4.93.11.93.1.57.36,2.34l-.58,1.28c-.23.51-.09,1.11.34,1.48,2.05,1.71,3.04,2.69,4.49,3.83-.09.82-.19,1.67-.29,2.54-.22.13-5.83,2.47-6.29,2.68-2.16.95-4.25,2.07-5.31,3.18-2.76,2.88-4.21,13.74-4.21,13.74h48s-1.45-10.86-4.21-13.74ZM32,3.9c2.82,0,5.1,2.28,5.1,5.1s-2.28,5.1-5.1,5.1-5.1-2.28-5.1-5.1,2.28-5.1,5.1-5.1Zm-11,19.1c0-.5,0-1.86.67-2.17,0,0,0,0,0,0,.41-.19.9-.04,1.26.26,0,0,0,0,0,0,0,0,0,0,0,0,0,0,0,0,0,0,0-.78.02-2.86.61-5.09h16.99s.01.04.02.06c.16.68.27,1.35.35,1.98.15,1.26.15,2.36.15,3.05.36-.3.84-.47,1.27-.26.45.21.67.9.67,2.17,0,.23-.03.47-.05.71-3.87-.03-6.15-.34-6.92-.97-.21-.17-.41-.35-.6-.52-.78-.71-1.75-1.6-3.43-1.6s-2.65.89-3.43,1.6c-.19.17-.38.35-.6.52-.77.62-3.05.94-6.92.97-.02-.24-.05-.48-.05-.71Zm2.52,10.09c-.48-.42-1-.88-1.57-1.36l.34-.76s.02-.08.04-.12l5.79,1.54s.16-.22-.11-.43c-.23-.18-4.73-2.82-5.91-3.51,0-.05-.02-.11-.03-.15-.08-.45-.16-1.31-.22-2.09,4.89-.09,6.65-.67,7.69-1.52.25-.21.49-.42.71-.62.72-.66,1.06-.95,1.75-.95s1.03.29,1.75.95c.23.21.46.42.71.62,1.05.84,2.8,1.43,7.69,1.52-.06.77-.14,1.64-.22,2.09,0,.05-.02.1-.03.15-1.18.69-5.69,3.33-5.91,3.51-.26.21-.15.38-.11.43l5.79-1.54s.02.08.04.12l.34.76c-.57.48-1.08.94-1.57,1.36-.36.32-.71.62-1.04.9-2.55,2.19-4.03,3.16-7.45,3.16s-4.81-.92-7.12-2.88c-.43-.36-.88-.76-1.36-1.18Zm8.19,15.63c-1.38-.59-5.51-2.58-7.89-6.01,1.73-.73,2.79-1.39,2.93-2.59.02-.2.08-.74.17-1.46,1.42.66,2.97.99,5.08.99s3.74-.36,5.12-1c.05.59.11,1.21.13,1.47.14,1.2,1.2,1.86,2.94,2.59-2.48,3.53-7.01,5.45-8.48,6Z"/><circle cx="32" cy="9" r="2"/></g></svg>