<?xml version="1.0" encoding="UTF-8"?><svg id="Laag_1" xmlns="http://www.w3.org/2000/svg" xmlns:xlink="http://www.w3.org/1999/xlink" viewBox="0 0 64 64"><defs><style>.cls-1{fill:none;}.cls-2{clip-path:url(#clippath);}.cls-3{clip-path:url(#clippath-1);}</style><clipPath id="clippath"><rect class="cls-1" width="64" height="64"/></clipPath><clipPath id="clippath-1"><rect class="cls-1" width="64" height="64"/></clipPath></defs><g class="cls-2"><g class="cls-3"><path d="M14,51.59c0,1.33,1.08,2.41,2.41,2.41h2.59v-12h-5v9.59Z"/><path d="M55.08,27.26l-19.17-8.65c-.77-.35-1.58-.58-2.41-.71v-2.67c0-.8,.52-1.55,1.35-1.96,2.73-1.34,4.16-4.36,3.48-7.35-.54-2.38-2.44-4.27-4.82-4.82-1.98-.45-4.01,0-5.56,1.24-1.56,1.24-2.45,3.09-2.45,5.08,0,.83,.67,1.5,1.5,1.5s1.5-.67,1.5-1.5c0-1.07,.48-2.07,1.32-2.74,.85-.68,1.93-.91,3.02-.66,1.25,.29,2.28,1.31,2.56,2.56,.37,1.63-.4,3.27-1.87,3.99-1.87,.91-3.03,2.7-3.03,4.65v2.67c-.82,.13-1.63,.36-2.41,.71L8.92,27.26c-2.38,1.08-3.92,3.46-3.92,6.08,0,3.67,2.99,6.66,6.66,6.66h9.34v18.6c0,1.33,1.07,2.4,2.4,2.4h24.2c1.33,0,2.4-1.07,2.4-2.4v-22.6c0-3.32-2.69-6-6-6H20.02c-3.1,0-5.65,2.34-5.98,5.35,1.6,.3,6.23,1.19,6.69,1.28,.33,.07,.27,.31,.25,.36H11.66c-2.02,0-3.66-1.64-3.66-3.66,0-1.44,.85-2.75,2.16-3.34l19.17-8.64c.85-.38,1.76-.57,2.67-.57s1.82,.19,2.67,.57l19.17,8.64c1.31,.59,2.16,1.9,2.16,3.34,0,2.02-1.64,3.66-3.66,3.66h-.34v3h.34c3.67,0,6.66-2.99,6.66-6.66,0-2.61-1.54-5-3.92-6.08"/></g></g></svg>