<?xml version="1.0" encoding="UTF-8"?><svg id="Laag_1" xmlns="http://www.w3.org/2000/svg" xmlns:xlink="http://www.w3.org/1999/xlink" viewBox="0 0 64 64"><defs><style>.cls-1{fill:none;}.cls-2{clip-path:url(#clippath);}.cls-3{clip-path:url(#clippath-1);}</style><clipPath id="clippath"><rect class="cls-1" width="64" height="64"/></clipPath><clipPath id="clippath-1"><rect class="cls-1" width="64" height="64"/></clipPath></defs><g class="cls-2"><g class="cls-3"><path d="M39.09,54.52c-1.82-1.61-2.65-4.14-1.98-6.64,.65-2.45,2.66-4.24,5.03-4.74,.48-2.39,2.26-4.38,4.76-5.06,.62-.17,1.24-.24,1.85-.23-1.27-1.24-4.25-2.79-5.47-2.92-1.15-.13-3.29,.4-4.54,.74-.02-.14-.05-.28-.07-.42,1.79-2.17,2.89-4.41,3.25-6.7,1.33-1.22,2.07-3.17,2.07-5.56,0-.74,0-2.7-1.22-4.03,1.12-.22,1.99-.45,2.56-.62,.38-.12,.49-.58,.2-.85l-2.33-2.1s-1.17,.37-3.84,.38c-2.78,0-4.92-.32-5.72-.55-.3-.09-.16-.24-.16-.24,.49-.1,12.59,.12,12.52-3.46-.03-1.71-7.18-7.1-12.95-8.43v-.02c0-.79-.95-1.43-2.13-1.43-1.1,0-1.99,.56-2.1,1.28-5.9,.74-13.71,4.67-13.71,7.33,0,1.21,1.27,2.6,1.27,2.6l-2.32,1.64c-.3,.21-.28,.65,.03,.83,.57,.34,1.56,.86,2.95,1.42,.03,.81,.08,1.6,.13,2.29-1.16,1.33-1.16,3.23-1.16,3.96,0,2.39,.74,4.33,2.06,5.55,.38,2.51,1.61,4.91,3.71,7.26,0,.03,0,.06-.01,.09-1.35-.44-3.53-1.06-5.05-.97-1.68,.09-5.05,1.4-5.15,2.34-.08,.76,2.07,1.4,4.94,2.92-2.76,1.05-5.74,2.43-7.12,3.92-2.87,3.12-4.39,14.89-4.39,14.89H39.21c-.56-1.43-.61-3.02-.12-4.48m-10-1.93c-4.55-3.19-6.01-10.38-6.01-10.38,1.28-2.17,1.54-4.68,1.97-7.32-2.28-2.2-4.1-4.87-4.1-8.06-1.62-.5-2.04-2.55-2.04-3.82s.32-1.96,.77-2.17c.39-.18,.77-.05,1.01,.09,.14,.65,.25,1.14,.29,1.31,.21,.85,1.02,.77,1.02,.77v-4.67c4.86,1.19,10.69,1.68,16,1.28v3.39s.82,.08,1.02-.77c.04-.17,.15-.66,.29-1.31,.24-.14,.62-.27,1.01-.09,.45,.21,.77,.9,.77,2.17s-.42,3.31-2.04,3.82c0,3.7-2.53,6.5-5.34,8.89-1.2,1.02-3.99,1.62-6.65,.47,.61,.93,1.66,2.07,3.59,2.59,3.16,.83,5.46-.91,5.46-.91,.17,1.17,.33,2.61,1.04,4.17-2.31,1.98-7.28,2.86-11.48,1.49,.56,3.43,2.32,6.85,4.34,9.36-.02,.21-.55-.01-.92-.28"/><path d="M58.96,49.19c1.47-1.74,1.41-4.33-.23-5.97-1.64-1.64-4.23-1.7-5.97-.23-.77-2.14-3.05-3.39-5.28-2.79-2.24,.6-3.59,2.81-3.18,5.06-2.24-.41-4.46,.94-5.06,3.18-.6,2.24,.64,4.52,2.79,5.28-1.47,1.74-1.41,4.33,.23,5.97,1.64,1.64,4.24,1.7,5.97,.23,.77,2.14,3.05,3.39,5.28,2.79,2.24-.6,3.59-2.82,3.18-5.05,2.24,.41,4.46-.95,5.06-3.18,.6-2.24-.64-4.52-2.79-5.28m-7.32,6.54c-2.36,.63-4.78-.77-5.41-3.12-.63-2.36,.77-4.78,3.12-5.41,2.36-.63,4.78,.77,5.41,3.12,.63,2.36-.77,4.78-3.12,5.41"/></g></g></svg>