<?xml version="1.0" encoding="UTF-8"?><svg id="Laag_1" xmlns="http://www.w3.org/2000/svg" xmlns:xlink="http://www.w3.org/1999/xlink" viewBox="0 0 64 64"><defs><style>.cls-1{fill:none;}.cls-2{clip-path:url(#clippath);}.cls-3{clip-path:url(#clippath-1);}</style><clipPath id="clippath"><rect class="cls-1" width="64" height="64"/></clipPath><clipPath id="clippath-1"><rect class="cls-1" width="64" height="64"/></clipPath></defs><g class="cls-2"><g class="cls-3"><path d="M52.14,32.38c6.42-6.42,7.03-16.21,1.37-21.87-3.97-3.97-9.97-4.85-15.42-2.8,1.26,1.47,.96,3.94-.76,5.65-1.09,1.09-2.5,1.61-3.75,1.52,.09,1.26-.43,2.66-1.53,3.75-1.59,1.59-3.84,1.97-5.33,1.01-1.72,4.45-2.31,9.35-2.5,13.79l-9.68,9.68c-1.37-.37-3.09-.13-4.67,.79-2.63,1.52-3.86,4.3-2.76,6.22,.93,1.62,3.24,2.08,5.52,1.27-.81,2.28-.35,4.59,1.27,5.52,1.91,1.11,4.7-.13,6.22-2.76,.92-1.59,1.15-3.31,.79-4.67l7.77-7.77c-2.99-.56-5.1-1.19-5.41-1.34-.32-.14-.42-.26-.29-.4,9.95-.31,21.71-.13,29.17-7.59"/></g></g></svg>