<?xml version="1.0" encoding="UTF-8"?><svg id="Laag_1" xmlns="http://www.w3.org/2000/svg" xmlns:xlink="http://www.w3.org/1999/xlink" viewBox="0 0 64 64"><defs><style>.cls-1{fill:none;}.cls-2{clip-path:url(#clippath);}.cls-3{clip-path:url(#clippath-1);}</style><clipPath id="clippath"><rect class="cls-1" width="64" height="64"/></clipPath><clipPath id="clippath-1"><rect class="cls-1" width="64" height="64"/></clipPath></defs><g class="cls-2"><g class="cls-3"><path d="M56.91,14.1l-8.91-1.98V50.05c0,4.93-4.01,8.94-8.94,8.94h-10.57l17.58,3.91c2.13,.47,4.23-.87,4.71-3l9.13-41.11c.47-2.13-.87-4.23-2.99-4.71"/><path d="M46,50.06V7.94c0-3.83-3.12-6.94-6.94-6.94H12.95c-3.83,0-6.95,3.12-6.95,6.94V50.06c0,3.83,3.12,6.94,6.95,6.94h26.11c3.83,0,6.94-3.12,6.94-6.94m-33.05,3.94c-2.18,0-3.95-1.77-3.95-3.94V7.94c0-2.18,1.77-3.94,3.95-3.94h26.11c2.18,0,3.94,1.77,3.94,3.94V50.06c0,2.18-1.77,3.94-3.94,3.94H12.95Z"/><path d="M18.9,15.87l-2.31-7.87h-2.17l-2.34,7.87h1.49l.5-1.8h2.69l.5,1.8h1.64Zm-4.54-2.95l1.02-3.65h.08l.98,3.65h-2.09Z"/><path d="M35.51,42.13l-2.34,7.87h1.49l.5-1.8h2.69l.5,1.8h1.64l-2.31-7.87h-2.17Zm-.06,4.92l1.02-3.65h.08l.98,3.65h-2.09Z"/><path d="M27.06,30.49c.53,1.65,2.06,2.84,3.88,2.84,2.26,0,4.1-1.84,4.1-4.1s-1.84-4.1-4.1-4.1c-1,0-1.9,.37-2.61,.96,0,0-.02-.02-.02-.03,1.05-.73,1.74-1.94,1.74-3.32,0-2.24-1.81-4.05-4.05-4.05s-4.05,1.81-4.05,4.05c0,1.38,.69,2.59,1.74,3.32,0,.01-.02,.02-.02,.03-.71-.59-1.61-.96-2.61-.96-2.26,0-4.1,1.84-4.1,4.1s1.84,4.1,4.1,4.1c1.82,0,3.35-1.2,3.88-2.84-.19,1.22-1.01,5.16-3.97,6.51h10.06c-2.96-1.34-3.78-5.28-3.97-6.51"/></g></g></svg>