<?xml version="1.0" encoding="UTF-8"?><svg id="Laag_1" xmlns="http://www.w3.org/2000/svg" xmlns:xlink="http://www.w3.org/1999/xlink" viewBox="0 0 64 64"><defs><style>.cls-1{fill:none;}.cls-2{clip-path:url(#clippath);}.cls-3{clip-path:url(#clippath-1);}</style><clipPath id="clippath"><rect class="cls-1" width="64" height="64"/></clipPath><clipPath id="clippath-1"><rect class="cls-1" width="64" height="64"/></clipPath></defs><g class="cls-2"><g class="cls-3"><path d="M21.14,14.17h22v27.53l4,4V12c0-1.86-1.44-3.7-3.42-4-7.68-1.11-15.41-1.11-23.09,0-1.98,.29-3.49,2.13-3.49,4v3.7l4,4v-5.53Z"/><path d="M57.1,58.79L6.49,8.19l-2.12,2.12,12.77,12.77v29.26c0,1.86,1.59,3.7,3.57,4,7.68,1.11,15.33,1.11,23.01,0,1.74-.26,3.06-1.71,3.35-3.32l7.9,7.9,2.12-2.12Zm-24.96-4.42c-1.49,0-2.7-1.21-2.7-2.7s1.21-2.7,2.7-2.7,2.7,1.21,2.7,2.7-1.21,2.7-2.7,2.7m-11-8.2V27.08l19.09,19.09H21.14Z"/></g></g></svg>