<?xml version="1.0" encoding="UTF-8"?><svg id="Laag_1" xmlns="http://www.w3.org/2000/svg" xmlns:xlink="http://www.w3.org/1999/xlink" viewBox="0 0 64 64"><defs><style>.cls-1{fill:none;}.cls-2{clip-path:url(#clippath);}.cls-3{clip-path:url(#clippath-1);}</style><clipPath id="clippath"><rect class="cls-1" width="64" height="64"/></clipPath><clipPath id="clippath-1"><rect class="cls-1" width="64" height="64"/></clipPath></defs><g class="cls-2"><g class="cls-3"><path d="M33.28,24.85c.33-.25,.62-.54,.86-.83-1.3,.24-2.48,.05-3.44-.36-.08,.57-.13,1.14-.16,1.71-.02,.38-.02,.78,.04,1.15,.94-.48,1.85-1.03,2.7-1.67"/><path d="M21.66,12.72c.23-.45,.51-.88,.83-1.28,.51-.64,1.11-1.2,1.76-1.64-2.1,.03-4.57,.47-6.68,1.98-1.22,.87-2.13,1.98-2.62,3.2-.05,.13-.1,.27-.15,.41,.2-.25,.42-.49,.67-.72,1.62-1.49,4.02-2.21,6.19-1.94"/><path d="M34.39,8.6c-.09,0-.19-.01-.26-.01-.73,0-1.54,.27-2.38,.76,.59,.3,1.12,.63,1.61,1,.31-.61,.65-1.2,1.03-1.75"/><path d="M23.64,13.27c.5,.24,.94,.54,1.31,.89,.19-.44,.44-.85,.69-1.24,.53-.83,1.08-1.59,1.66-2.28-1.22,.23-2.38,.95-3.24,2.03-.15,.19-.29,.39-.42,.6"/><path d="M27,15.1c.68,0,1.33,.03,1.95,.1,.91-1.74,1.14-3.24,.62-4.02l-.03-.04c-.77,.8-1.53,1.76-2.22,2.85-.23,.36-.45,.74-.6,1.12,.09,0,.19,0,.28,0"/><path d="M16.18,22.02c1.28-1.23,3.21-2.2,5.48-2.65,.06-.01,.13-.02,.19-.04-.32-.38-.58-.85-.76-1.39-2.05,.58-3.97,1.47-5.43,2.66,.07,.27,.15,.55,.26,.84,.08,.21,.16,.4,.26,.58"/><path d="M36.18,15.03c.14,0,.29,.01,.43,.02,.55,.03,1.08,.1,1.6,.19-.07-1.89-.61-3.73-1.28-4.81-.23-.36-.46-.67-.72-.92-.52,.68-.96,1.51-1.35,2.33,.56,.72,.95,1.52,1.17,2.39,.07,.27,.12,.54,.15,.8"/><path d="M36.08,17.02c-.18,.87-.54,1.7-1.02,2.46,.64,.4,1.04,.86,1.29,1.29,.98-.87,1.52-2.14,1.74-3.51-.55-.13-1.09-.19-1.59-.22-.14,0-.28-.01-.42-.02"/><path d="M40.22,15.86c.55,.24,1.07,.53,1.55,.87,.11-.57,.2-1.15,.27-1.72,.19-1.44,.31-3.3-.36-4.83-.52-1.19-1.81-2.37-3.2-2.21-.27,.03-.52,.11-.76,.22,.31,.33,.61,.72,.9,1.18,1.01,1.61,1.65,4.06,1.6,6.49"/><path d="M34.64,21.81c-.18-.32-.5-.56-.85-.74-.38,.38-.8,.73-1.24,1.05,.63,.07,1.34,0,2.09-.3"/><path d="M32.01,18.51c.36,.05,.71,.12,1.06,.2,.03,0,.06,.01,.09,.02,.37-.52,.66-1.08,.84-1.66-.58,.05-1.1,.13-1.55,.24-.15,.4-.3,.8-.44,1.2"/><path d="M34.09,14.71c-.06-.24-.14-.47-.24-.69-.17,.36-.33,.73-.49,1.1,.26-.03,.52-.05,.8-.07-.02-.11-.04-.22-.07-.34"/><path d="M31.81,11.72c.1,.91-.07,1.96-.5,3.1,.38-.88,.77-1.75,1.16-2.59-.21-.18-.43-.35-.66-.51"/><path d="M29.76,29.1c-.95,.39-1.91,.73-2.87,1.02,.3,.19,.61,.36,.93,.51,2.41,1.08,4.87,.67,6.24,0,.19-.09,.37-.19,.55-.3-.1,0-.19,.02-.29,.03-1.95,.15-3.55-.3-4.57-1.25"/><path d="M39.99,17.97c-.38,1.89-1.27,3.61-2.83,4.72-.14,.1-.27,.19-.41,.28-.19,1.24-1,2.52-2.27,3.48-.83,.63-1.7,1.17-2.59,1.65,.85,.32,1.88,.29,2.29,.26,.88-.06,1.97-.27,3.1-.62,.4-.56,.8-1.18,1.19-1.89,1.21-2.16,2.15-4.51,2.8-6.94-.4-.38-.83-.68-1.28-.93"/><path d="M23.63,25.59c.3,.95,.71,1.79,1.21,2.52,.56-.26,1.09-.58,1.55-.96,.72-.61,1.53-1.59,1.51-2.9-1.33,.5-2.79,1-4.26,1.35"/><path d="M26.39,21.39c-.16-.05-.32-.08-.49-.08-.53,0-1.11,.25-1.59,.69-.46,.43-.75,.97-.88,1.57,1.36-.34,2.73-.81,3.94-1.28-.26-.46-.59-.77-.99-.91"/><path d="M40.5,26.29c.93-.58,1.71-1.28,2.17-2.09,.56-.98,.58-2.03,.07-3.2-.59,1.84-1.34,3.62-2.24,5.3"/><path d="M54.86,32.49l-6.2-7.13c-.2-.9,.13-2.57,0-3.33-.67-3.85-2.62-8.12-2.62-8.12,2.11-4.02,1.08-7.19-2.1-9.23-3.62-2.32-16.77-2.56-26.37,2.66-10.12,5.51-9.03,15.35-7.33,20.51,1.98,5.99,7.91,14.49,8.32,20.9,.18,2.81-1.89,11.26-1.89,11.26h22.31l-.14-5.99-5.49-2.83c-.29-.16-.21-.35-.18-.4,0,0,8.24,1.77,11.44,2.19,3.21,.42,6.29-2.31,6.29-6.21v-9.66l3.34-1.77c.95-.62,1.22-1.89,.6-2.84m-10.46-7.3c-1.16,2.04-3.56,3.42-5.91,4.24-1.08,1.37-2.24,2.34-3.54,2.98-1.18,.58-2.56,.87-3.96,.87-1.37,0-2.76-.28-4-.84-.78-.35-1.66-.88-2.5-1.67-.52,.13-1.04,.25-1.54,.36-2.01,.45-4.35,.89-6.63,.44-2.65-.52-4.76-2.29-5.39-4.5-.58-2.05,.1-4.36,1.82-6.42-.51-2.47-.4-4.64,.34-6.45,.64-1.57,1.78-2.98,3.31-4.07,2.92-2.09,6.95-2.83,11.36-2.06,.6,.1,1.18,.24,1.73,.39,1.55-1.22,3.14-1.89,4.63-1.89h.02c.52,0,1.14,.09,1.78,.35,.66-.5,1.42-.85,2.32-.96,2.36-.28,4.44,1.5,5.27,3.39,.87,1.98,.73,4.19,.51,5.88-.13,1.03-.32,2.07-.55,3.09,.35,.45,.67,.95,.94,1.49,.93,1.87,.93,3.72,0,5.35"/><path d="M17.08,25.46c-.14-.06-.28-.13-.41-.2,.36,.55,.77,1.02,1.21,1.43,1.35,1.25,3.13,1.79,4.63,1.42-.33-.64-.62-1.35-.86-2.16-1.64,.2-3.22,.1-4.57-.49"/><path d="M21.37,23.96c.04-.97,.36-1.9,.92-2.68-.08,.02-.16,.03-.24,.05-1.98,.4-3.52,1.23-4.48,2.15,.1,.05,.2,.1,.3,.15,.97,.43,2.19,.49,3.49,.34"/><path d="M23.71,18.32c.16,.08,.43,.06,.62-.04,.06-.04,.13-.09,.13-.13,.02-.32,0-.61-.04-.88-.46,.06-.92,.13-1.37,.21,.16,.4,.39,.7,.66,.84"/><path d="M14.49,25.51c-.39-.7-.73-1.48-1.03-2.34-.6,1.07-.91,2.25-.59,3.38,.48,1.69,2.28,2.77,3.85,3.08,.33,.06,.66,.11,1,.13-2.71-1.37-3.22-3.12-3.22-4.24"/><path d="M22.9,15.14c-.02,.11-.04,.23-.05,.34,.16-.03,.31-.05,.47-.08-.14-.1-.28-.19-.41-.26"/><path d="M20.75,14.66c-1.41,0-2.9,.52-3.93,1.47-.51,.47-1.01,1.14-1.23,2.05,1.54-.99,3.35-1.74,5.21-2.24,0-.43,.06-.85,.15-1.28-.07,0-.14,0-.2,0"/></g></g></svg>