<?xml version="1.0" encoding="UTF-8"?><svg id="Laag_1" xmlns="http://www.w3.org/2000/svg" xmlns:xlink="http://www.w3.org/1999/xlink" viewBox="0 0 64 64"><defs><style>.cls-1{fill:none;}.cls-2{clip-path:url(#clippath);}.cls-3{clip-path:url(#clippath-1);}</style><clipPath id="clippath"><rect class="cls-1" width="64" height="64"/></clipPath><clipPath id="clippath-1"><rect class="cls-1" width="64" height="64"/></clipPath></defs><g class="cls-2"><g class="cls-3"><path d="M44.84,3H19.16c-1.37,0-1.7,2.44-.02,2.9,.94,.26,2.07,.55,2.86,.75V51c0,5.52,4.48,10,10,10s10-4.48,10-10V6.66c.8-.2,1.92-.49,2.86-.75,1.67-.46,1.35-2.9-.02-2.9m-18.84,4h12V23h-12V7Zm8.3,42.85c-1.15,3.31-3.69,5.44-5.68,4.75s-2.67-3.93-1.52-7.25c.8-2.3,2.27-4.03,3.76-4.64l4.64-13.38,2.57,3.47-3.84,11.08c.79,1.4,.88,3.67,.08,5.97"/></g></g></svg>