<?xml version="1.0" encoding="UTF-8"?><svg id="Laag_1" xmlns="http://www.w3.org/2000/svg" xmlns:xlink="http://www.w3.org/1999/xlink" viewBox="0 0 64 64"><defs><style>.cls-1{fill:none;}.cls-2{clip-path:url(#clippath);}.cls-3{clip-path:url(#clippath-1);}</style><clipPath id="clippath"><rect class="cls-1" width="64" height="64"/></clipPath><clipPath id="clippath-1"><rect class="cls-1" width="64" height="64"/></clipPath></defs><g class="cls-2"><g class="cls-3"><path d="M40.99,40.73q-1-.81-2.85,.04c-.68,.31-1.52,.69-2.58,1.11-2.92,1.15-8.16,2.66-10.42-.23-.62-.8-.86-1.83-.64-2.83,.25-1.15,1.07-2.16,2.26-2.78,1.76-.92,3.27-1.86,4.56-2.74l-1.83-1.28c-1.84-1.28-4.28-1.3-6.14-.04-.88,.59-2.24,1.75-4.29,1.07l-5.3-1.77-5.57,11.37s.8,1.33,4.92,2.9c.11-.1,.21-.2,.33-.3l2.12-1.75c1.48-1.23,3.5-1.47,5.26-.64,.79,.37,1.44,.93,1.92,1.6,1.32-.41,2.83-.19,4.13,.67,1.22,.8,1.98,2.01,2.2,3.34,.81,.3,1.54,.81,2.1,1.48,1.11,1.34,1.39,3.17,.91,4.71,.2,.17,.39,.36,.56,.57,.79,.96,1.18,2.25,1.06,3.55-.08,.87-.4,1.67-.88,2.38,2.47,1.82,5.02-.77,5.23-2.52,2.22-.23,3.42-1.41,3.58-3.84,2.07,0,4.1-1.54,3.81-3.94,2.28,.42,4.09-2.09,3.52-3.69l-7.96-6.43Zm-8.99-12.73c7.18,0,13-5.82,13-13S39.18,2,32,2s-13,5.82-13,13,5.82,13,13,13m7.6-5.22l-.43-.94,.96-1.74,1.56-.17c-.54,1.06-1.25,2.02-2.09,2.84m-6.33-18.59c4.75,.56,8.58,4.18,9.43,8.84l-1.22,1.62-1.41,.7-1.4-1.4-.75-1.36s.97-.97,.7-1.49c-.27-.52-1.79,.32-2.09-.13-.3-.45-.03-1.99-.03-1.99l-1.88-.78s-.59-.01-.54,.43c.05,.5,1.42,1.29,1.31,1.51-.1,.2-.44,.05-.44,.05l-.52,.91-1.09-.24s.82-.31,.93-.61c.1-.3-1.22-1.39-1.22-1.39l-.73,.17-.33,1.33-.89,.78h-1.16l.1-.65h-.43l.55-1.45,1.14,.1s.42-1.1,.34-1.46c-.16-.7-.9-.78-.9-1.06s.79-.27,1.18-.66c.24-.24,.89-1.13,1.34-1.77m-3.79,.22c.66-.16,1.34-.25,2.03-.28l.1,.16s-.25,1.32-.67,1.43c-.42,.11-1.62-.58-1.62-.58l.15-.73Zm-.6,9.42c.55-1.14,1.39-1.26,1.39-1.26l2.91-.58,1.67,.98,2.22,.42,.62,.84,.99,1.4,1.4,.73,1.41-1.2s-.14,1.68-.69,2.73c-.55,1.05-1.99,1.84-1.99,1.84,0,0-.14,.99-.6,1.81-.18,.32-.67,.49-.89,.81-.4,.57-.28,1.57-.74,1.8-.81,.4-1.76,.58-1.98,.37-.31-.29-1-1.55-1-1.96v-3c0-.54-.72-1.81-.72-1.81,0,0-1.7-.02-2.35-.02s-1.64-.94-1.64-.94c0,0-.55-1.83,0-2.97m-1.63-8.62l-1.26,2.32s-1.49,1.94-2.53,2.99c-.48,.48-1.19,.86-1.82,1.12,.92-2.83,2.97-5.14,5.61-6.43m-2.63,15.35v2.43c-1.79-1.65-3.02-3.89-3.39-6.41,1.23,.82,3.39,2.48,3.39,3.98m27.68,10.66l-5.3,1.77c-2.06,.69-3.43-.48-4.29-1.07-1.86-1.25-4.3-1.24-6.14,.04-1.84,1.28-4.64,3.62-8.89,5.83-1.26,.66-1.57,1.84-.96,2.61,1.42,1.82,5.95,.45,8.11-.4,4.44-1.75,4.88-2.9,7.42-.84l8.69,7.03c5.91-1.86,6.94-3.61,6.94-3.61l-5.57-11.37Zm-23.2,24.2l.37-.31c1.11-.92,1.07-2.8,.15-3.91-.62-.75-1.67-1.17-2.63-1.07,.87-2.94-2.62-4.86-4.43-3.37l-.88,.72c.01-2.72-3-4.02-4.87-2.47l-2.12,1.75c-1.72,1.42-1.52,3.25-.6,4.36,.99,1.2,2.51,1.28,3.63,.72-.05,.76,.19,1.56,.67,2.15,.62,.75,1.67,1.17,2.63,1.07-.27,.92-.07,2.03,.56,2.78,.73,.89,2.05,1.3,3.12,.97-.12,.84,.1,1.75,.64,2.41,.92,1.11,2.81,1.47,4.15,.35l1.03-.85c1.43-1.19,1.47-3.13,.55-4.24-.48-.59-1.23-.96-1.98-1.06"/></g></g></svg>