<?xml version="1.0" encoding="UTF-8"?><svg id="Laag_1" xmlns="http://www.w3.org/2000/svg" xmlns:xlink="http://www.w3.org/1999/xlink" viewBox="0 0 64 64"><defs><style>.cls-1{fill:none;}.cls-2{clip-path:url(#clippath);}.cls-3{clip-path:url(#clippath-1);}</style><clipPath id="clippath"><rect class="cls-1" width="64" height="64"/></clipPath><clipPath id="clippath-1"><rect class="cls-1" width="64" height="64"/></clipPath></defs><g class="cls-2"><g class="cls-3"><path d="M13,26.06c0,4.65,1.06,10.21,1.89,14.17,1.29,.97,3.4,2.67,5.15,2.67,1.91,0,4.24-1.98,6-3.3,1.87,1.4,4.13,3.3,6,3.3s4.24-1.98,6-3.3c1.87,1.4,4.13,3.3,6,3.3,1.75,0,3.83-1.67,5.05-2.59,.83-3.96,1.9-9.53,1.91-14.23,0,0-2.73-1.18-6-2.42V15c0-.55-.45-1-1-1h-3v-5c0-.55-.45-1-1-1H24c-.55,0-1,.45-1,1v5h-3c-.55,0-1,.45-1,1v6.85c2.79-1.06,5.11-1.68,8.15-2.1,5.71-.8,10.06,.02,12.64,1.6,.34,.21,.44,.45,.41,.69-2.63-.71-5.48-1.01-8.19-1.01-8.65,0-19,5.03-19,5.03m15,7.94h-8v-4c0-.55,.45-1,1-1s1,.45,1,1v2h4v-2c0-.55,.45-1,1-1s1,.45,1,1v4Zm8-4c0-.55,.45-1,1-1s1,.45,1,1v2h4v-2c0-.55,.45-1,1-1s1,.45,1,1v4h-8v-4Z"/><path d="M56.04,45.09c-2.46,0-4.92-1.94-6-2.75-1,.75-3.49,2.75-6,2.75s-4.92-1.94-6-2.75c-1,.75-3.49,2.75-6,2.75s-4.92-1.94-6-2.75c-1,.75-3.49,2.75-6,2.75s-4.92-1.94-6-2.75c-1,.75-3.49,2.75-6,2.75-1.02,0-2.12-.39-3.04-.83v4.22c.94,.3,1.98,.52,3.04,.52,2.4,0,4.66-1.08,6-1.86,1.34,.79,3.6,1.86,6,1.86s4.66-1.08,6-1.86c1.34,.79,3.6,1.86,6,1.86s4.66-1.08,6-1.86c1.34,.79,3.6,1.86,6,1.86s4.66-1.08,6-1.86c1.34,.79,3.6,1.86,6,1.86,1.03,0,2.04-.2,2.96-.49v-4.2c-.9,.42-1.97,.79-2.96,.79"/></g></g></svg>