<?xml version="1.0" encoding="UTF-8"?><svg id="Laag_1" xmlns="http://www.w3.org/2000/svg" xmlns:xlink="http://www.w3.org/1999/xlink" viewBox="0 0 64 64"><defs><style>.cls-1{fill:none;}.cls-2{clip-path:url(#clippath);}.cls-3{clip-path:url(#clippath-1);}</style><clipPath id="clippath"><rect class="cls-1" width="64" height="64"/></clipPath><clipPath id="clippath-1"><rect class="cls-1" width="64" height="64"/></clipPath></defs><g class="cls-2"><g class="cls-3"><path d="M20.12,33.47c-.32,.24-.49-.01-.49-.01,0,0,6.11-8.05,6.87-9.6,1.58-3.2-.41-5.46-1.33-6.66-.67-.87-1.98-2.6-2.64-3.47-1.27,.32-3.03,.55-5.4,.55s-4.14-.23-5.4-.55c-.66,.87-1.97,2.6-2.64,3.47-.92,1.2-2.89,3.45-1.33,6.66,.76,1.57,.89,1.81,1.07,2.14,1.16,2.1-1.69,4.29-1.69,10.19,.07,5.75,.26,15.35,.5,18.82,.22,3.18,3.5,4.18,9.5,4.18s9.28-1,9.5-4.18c.24-3.47,.43-13.07,.5-18.82,0-3.27-.87-5.4-1.46-7l-5.55,4.29Z"/><path d="M17.12,12.18c3.31,0,6-.39,6-1-.06-1.36-.19-2.95-.46-4.34-.19-.97-1.02-1.66-1.98-1.66h-7.12c-.96,0-1.79,.69-1.98,1.66-.27,1.4-.4,2.98-.46,4.34,0,.61,2.69,1,6,1"/><path d="M58.52,27.58c-.48-6-2.06-19.35-6.7-23.97-.97-.97-2.63-.27-2.63,1.1V57.06c0,1.07,1.77,1.91,2.84,1.9,2.94-.03,7.23-2,2.84-28.43h.89c1.61,.02,2.89-1.34,2.76-2.95"/><path d="M42.68,3.04c-.53,0-.91,.42-.94,.95l-.88,12.85c-.06,.5-.5,.89-1.01,.89s-1.02-.42-1.05-.95l-.85-12.8c-.03-.53-.42-.94-.95-.94-.53,0-.92,.42-.95,.94l-.85,12.8c-.03,.53-.52,.95-1.05,.95s-.95-.39-1.01-.89l-.88-12.85c-.03-.53-.41-.95-.94-.95s-.93,.42-.95,.95l-.95,14.22c0,2.25,2.2,4.36,5.12,5.15-1.08,14.17-1.79,32.44-1.79,33.23,0,1.31,1.9,2.37,4.26,2.37s4.26-1.06,4.26-2.37c0-.77-.65-17.82-1.67-31.75,0,0-1.93-.12-2.99-.85-.19-.13-.23-.22-.22-.32,1.07,.07,2.1-.03,3.15-.32,2.89-.81,5.06-2.91,5.06-5.14l-.95-14.22c-.03-.53-.42-.95-.95-.95"/></g></g></svg>