<?xml version="1.0" encoding="UTF-8"?>
<svg id="Zwart" xmlns="http://www.w3.org/2000/svg" viewBox="0 0 64 64">
  <path d="M55.93,36.02c-2.75.18-6.24.25-8.43-.33-1.24-.33-.91-.78-.91-.78,4.22.09,7.47-.47,9.64-1.04.8-.24,1.47-.47,1.98-.65.43-.15.45-.74.04-.94-11.48-5.53-17.73-12.05-26.88-13.78-6.31-1.2-11.32.04-14.56,2.74-.9.68-1.96,1.45-3.38.72-.97-.49-3.71-3.2-6.29-3.75-1.75-.38-4.22-.09-5.51.84-.61.44-.53,2.09-.56,2.6-.1,1.79,4.03,5.06,8.6,5.22,1.51.05,2.73.5,3.7,1.07.09.51.26,1.01.49,1.51-1.43.6-4.35,2.2-4.34,5.33.02,3.02,4.63,16.67,13.34,16.6.39,0,.65-.42.46-.76-3.73-7.01-7.64-13.74-6.55-17.41,1.67,1.56,3.57,2.82,4.78,3.52,8.15,4.76,25.64,2.74,25.64,2.74,0,0,.92-.03,2.11-.27,3.44,2.21,9.27,5.45,12.72,4.57,4.13-1.06-3.13-5.92-6.11-7.76ZM6,22.07c-.59,0-1.07-.48-1.07-1.07s.48-1.07,1.07-1.07,1.07.48,1.07,1.07-.48,1.07-1.07,1.07Z"/>
  <path d="M9.5,14.07c.86,0,1.57-.7,1.57-1.57s-.7-1.57-1.57-1.57-1.57.7-1.57,1.57.7,1.57,1.57,1.57Z"/>
  <path d="M21,10.73c.95,0,1.73-.77,1.73-1.73s-.77-1.73-1.73-1.73-1.73.77-1.73,1.73.77,1.73,1.73,1.73Z"/>
  <path d="M15.5,4.74c.68,0,1.24-.55,1.24-1.24s-.55-1.24-1.24-1.24-1.24.55-1.24,1.24.55,1.24,1.24,1.24Z"/>
</svg>