<?xml version="1.0" encoding="UTF-8"?><svg id="Laag_1" xmlns="http://www.w3.org/2000/svg" xmlns:xlink="http://www.w3.org/1999/xlink" viewBox="0 0 64 64"><defs><style>.cls-1{fill:none;}.cls-2{clip-path:url(#clippath);}.cls-3{clip-path:url(#clippath-1);}</style><clipPath id="clippath"><rect class="cls-1" width="64" height="64"/></clipPath><clipPath id="clippath-1"><rect class="cls-1" width="64" height="64"/></clipPath></defs><g class="cls-2"><g class="cls-3"><path d="M57.09,24.75c-1.66-2.22-4.79-3.26-9.5-3.15,.31,.89,.39,1.59,.37,2.09-.02,.61-.25,.56-.35,.54,0,0-.07-.25-.16-.53-.41-1.23-1.07-2.23-2-2.99-1.99-1.63-4.97-1.93-9.02-.93-.23-1.45-1.16-2.66-2.43-3.3v-2.49h3v-4h-3v-3h-4v3h-3v4h3v2.49c-1.27,.64-2.19,1.84-2.43,3.3-4.05-1.01-7.02-.7-9.02,.93-.85,.7-1.47,1.59-1.89,2.69-.17,.44-.27,.83-.27,.83-.11,.02-.33,.08-.35-.54-.01-.5,.06-1.21,.37-2.09-4.72-.11-7.84,.93-9.5,3.15-1.68,2.24-1.66,5.43,.04,9.48,2.34,5.55,5.06,7.86,5.72,11.8-.95,.16-1.67,.98-1.67,1.97,0,1.1,.9,2,2,2,.11,0,.22-.01,.33-.03l.67,4.03H50l.67-4.03c.11,.02,.22,.03,.33,.03,1.1,0,2-.89,2-2,0-.99-.72-1.81-1.67-1.97,.66-3.95,3.37-6.24,5.72-11.8,1.71-4.05,1.72-7.24,.04-9.48M14.68,39.92c.73-.71,1.11-1.93,.89-3.25-.31-1.89-1.72-3.24-3.14-3.01-.44,.07-.83,.3-1.15,.63-.26-.53-.51-1.06-.72-1.57-.78-1.84-1.5-4.32-.52-5.63,.51-.68,1.97-1.67,6.12-1.6-.19,1.51-.13,3.26,.23,5.32,1.38,7.95,3.99,9.91,.95,10.37-1.56,.24-2.56-1.13-2.65-1.26m3.32,10.23c-1.19,0-2.15-.96-2.15-2.15s.96-2.15,2.15-2.15,2.15,.96,2.15,2.15-.96,2.15-2.15,2.15m7,0c-1.19,0-2.15-.96-2.15-2.15s.96-2.15,2.15-2.15,2.15,.96,2.15,2.15-.96,2.15-2.15,2.15m1.22-10.32c-2.68,.44-3.94-2.38-3.96-2.44,1.33-.41,2.26-1.9,2.15-3.63-.12-1.96-1.54-3.47-3.16-3.37-.33,.02-.63,.12-.92,.26-.38-2-.87-5.63,.7-6.92,.74-.61,2.75-1.27,7.98,.55v4.08c-1.18,.27-2.25,1.35-2.25,3.09,0,2.98,3.05,3.67,3.05,5.58,0,1.58-1.02,2.29-3.58,2.79m5.78,10.32c-1.19,0-2.15-.96-2.15-2.15s.96-2.15,2.15-2.15,2.15,.96,2.15,2.15-.96,2.15-2.15,2.15m7,0c-1.19,0-2.15-.96-2.15-2.15s.96-2.15,2.15-2.15,2.15,.96,2.15,2.15-.96,2.15-2.15,2.15m4.68-19.5c-.29-.14-.59-.24-.92-.26-1.62-.1-3.04,1.41-3.16,3.37-.11,1.72,.82,3.22,2.15,3.63-.03,.06-1.29,2.88-3.97,2.44-.02,0-.05,.01-.07,.02-2.4-.43-3.52-1.25-3.52-2.81,0-1.91,3.06-2.6,3.06-5.58,0-1.74-1.07-2.82-2.25-3.09v-4.08c5.23-1.82,7.24-1.15,7.98-.55,1.57,1.29,1.08,4.92,.7,6.92m2.32,19.5c-1.19,0-2.15-.96-2.15-2.15s.96-2.15,2.15-2.15,2.15,.96,2.15,2.15-.96,2.15-2.15,2.15m7.45-17.44c-.22,.51-.46,1.04-.72,1.57-.32-.32-.71-.55-1.15-.63-1.43-.23-2.83,1.11-3.14,3.01-.22,1.32,.17,2.54,.89,3.25-.09,.13-1.09,1.5-2.65,1.26-3.04-.46-.43-2.43,.95-10.37,.36-2.06,.42-3.81,.23-5.32,4.15-.07,5.61,.91,6.12,1.59,.98,1.31,.26,3.78-.52,5.63"/></g></g></svg>