<?xml version="1.0" encoding="UTF-8"?><svg id="Laag_1" xmlns="http://www.w3.org/2000/svg" xmlns:xlink="http://www.w3.org/1999/xlink" viewBox="0 0 64 64"><defs><style>.cls-1{fill:none;}.cls-2{clip-path:url(#clippath);}.cls-3{clip-path:url(#clippath-1);}</style><clipPath id="clippath"><rect class="cls-1" width="64" height="64"/></clipPath><clipPath id="clippath-1"><rect class="cls-1" width="64" height="64"/></clipPath></defs><g class="cls-2"><g class="cls-3"><path d="M21,40.23c.69,.22,1.44,.38,2.22,.38,1.75,0,3.4-.78,4.37-1.36,.97,.57,2.63,1.36,4.37,1.36s3.4-.78,4.37-1.36c.98,.57,2.63,1.36,4.37,1.36,.8,0,1.58-.17,2.29-.4v-3.09c-.7,.36-1.49,.64-2.29,.64-1.79,0-3.58-1.41-4.37-2.01-.73,.55-2.54,2.01-4.37,2.01s-3.58-1.41-4.37-2.01c-.73,.55-2.54,2.01-4.37,2.01-.74,0-1.55-.28-2.22-.6v3.07Z"/><path d="M21,33.67c.69,.22,1.44,.38,2.22,.38,1.75,0,3.4-.78,4.37-1.36,.97,.57,2.63,1.36,4.37,1.36s3.4-.78,4.37-1.36c.98,.57,2.63,1.36,4.37,1.36,.8,0,1.58-.17,2.29-.4v-3.09c-.7,.36-1.49,.64-2.29,.64-1.79,0-3.58-1.41-4.37-2.01-.73,.55-2.54,2.01-4.37,2.01s-3.58-1.41-4.37-2.01c-.73,.55-2.54,2.01-4.37,2.01-.74,0-1.55-.28-2.22-.6v3.07Z"/><path d="M27.59,26.13c.97,.57,2.63,1.36,4.37,1.36s3.4-.78,4.37-1.36c.97,.57,2.63,1.36,4.37,1.36,.8,0,1.58-.17,2.29-.4v-3.08c-.7,.36-1.49,.64-2.29,.64-1.79,0-3.58-1.41-4.37-2-.73,.55-2.54,2-4.37,2s-3.58-1.41-4.37-2c-.73,.55-2.54,2-4.37,2-.74,0-1.55-.28-2.22-.6v3.08c.69,.22,1.44,.38,2.22,.38,1.75,0,3.4-.78,4.37-1.36"/><path d="M51.46,38.41c-2.7,8.17-10.4,14.09-19.46,14.09-10.69,0-19.8-8.3-20.44-19.3,.05-.05,.14-.04,.25,.13,.16,.26,1.02,2.69,1.08,2.83l2.75,1.62c.66,.39,1.5,.24,1.99-.34,.49-.58,.49-1.44,0-2.02l-6.89-8.18c-.31-.36-.76-.57-1.24-.56-.48-.01-.93,.19-1.24,.56L1.37,35.42c-.49,.58-.49,1.44,0,2.02,.49,.58,1.33,.73,1.99,.34l3.42-2.01c1.83,12.28,12.44,21.73,25.22,21.73,11.46,0,21.18-7.61,24.38-18.04-1.47,.9-3.37,.79-4.92-1.06"/><path d="M62.63,27.24c-.49-.58-1.33-.73-1.99-.34l-3.34,1.97c-1.55-12.59-12.3-22.37-25.3-22.37-11.77,0-21.69,8.01-24.62,18.86,1.41-1.02,3.56-.99,5,.72,2.55-8.43,10.38-14.58,19.62-14.58,11.06,0,20.19,8.83,20.47,19.98-.05,.05-.14,.06-.25-.13-.14-.24-.76-2.17-.93-2.72l-2.92-1.72c-.66-.39-1.5-.24-1.99,.34-.49,.58-.49,1.44,0,2.02l6.89,8.18c.31,.36,.76,.57,1.24,.56,.48,.01,.93-.19,1.24-.56l6.89-8.18c.49-.58,.49-1.44,0-2.02"/></g></g></svg>