<?xml version="1.0" encoding="UTF-8"?><svg id="Laag_1" xmlns="http://www.w3.org/2000/svg" xmlns:xlink="http://www.w3.org/1999/xlink" viewBox="0 0 64 64"><defs><style>.cls-1{fill:none;}.cls-2{clip-path:url(#clippath);}.cls-3{clip-path:url(#clippath-1);}</style><clipPath id="clippath"><rect class="cls-1" width="64" height="64"/></clipPath><clipPath id="clippath-1"><rect class="cls-1" width="64" height="64"/></clipPath></defs><g class="cls-2"><g class="cls-3"><path d="M42.21,22.52l.59-2.07-2.25,.17c-.22,0-.37-.15-.4-.29l-.29-1.05-1.78,1.75c-.25,.28-.76,.22-.6-.5l.76-3.93-1.02,.39c-.29,.12-.57,.11-.73-.2l-1.41-2.81-1.41,2.43c-.16,.26-.44,.2-.73,0l-1.02-.66,.76,4.13c.16,.76-.35,.69-.61,.34l-1.78-2.23-.29,.97c-.03,.13-.18,.25-.4,.19l-2.25-.78,.59,2.23c.13,.49,.23,.7-.13,.78l-.8,.27,3.87,3.66c.15,.14,.23,.36,.18,.55l-.34,1.06c1.32,.03,2.51-.04,3.83,0,.06,.02,.17,.16,.17,.21l-.19,4.33,.99,.13-.11-4.4s.07-.12,.11-.14c0,0,.02,0,.03,0,1.33,.32,2.53,.71,3.86,1.04l-.34-1.16c-.05-.2,.02-.4,.18-.5l3.87-2.62-.8-.48c-.35-.17-.25-.36-.13-.82"/><path d="M58.11,8.01c-.05-.73-.83-1.17-1.47-.82-1.95,1.08-5.84,2.81-10.64,2.81-6.95,0-8.76-4-16.69-4-5.8,0-12.91,3.21-16.31,4.93v-2.93h1c1.1,0,2-.9,2-2v-1.47c0-.93-.64-1.74-1.55-1.95-1.16-.27-2.81-.58-4.45-.58s-3.29,.3-4.45,.58c-.91,.21-1.55,1.02-1.55,1.95v1.47c0,1.1,.9,2,2,2h1V63h6V28.58c.06-.02,.31-.08,.36,.25,.05,.27,1.77,11.28,1.89,12.01,3.75-1.72,9.34-3.85,14.06-3.85,7.93,0,9.74,4,16.69,4,5.19,0,10.44-2.16,12.76-3.25,.75-.35,1.21-1.12,1.15-1.94l-1.81-27.8Zm-12.11,29.99c-2.74,0-4.43-.73-6.56-1.65-2.54-1.1-5.41-2.35-10.13-2.35-1.31,0-2.69,.16-4.11,.41l-.95-24.67c1.73-.44,3.47-.74,5.06-.74,3.47,0,5.45,.86,7.75,1.85,2.2,.95,4.7,2.01,8.34,2.13l1.3,24.99c-.23,.01-.47,.03-.7,.03"/></g></g></svg>