<?xml version="1.0" encoding="UTF-8"?>
<svg id="Zwart" xmlns="http://www.w3.org/2000/svg" viewBox="0 0 64 64">
  <defs>
    <style>
      .cls-1 {
        fill: #b1b1b1;
      }
    </style>
  </defs>
  <path class="cls-1" d="M59.62,25.98c.36.25.47.51.73.65.25.15.51-1.16.62-1.38.11-.22.91-.83,1.16-1.13.25-.29.33-.82-.07-.71-.4.11-.91.85-1.49.41-2.89-2.17-3.24-3.12-3.34-3.34-.58-1.26-.97-2.32-.63-3.15.34-.82-.15-.77.05-1.5.19-.73.34-.73-.1-1.4-.44-.68-1.16-1.31-.48-1.94.68-.63,1.16-.82,1.36-.48.19.34.44.73.77.58.34-.15.82-.34.87-.73.05-.39.15-.87-.1-.92-.24-.05-.77-.44-1.06-.77-.29-.34-.53-2.61-.44-3.15.1-.53.82-.82.73-1.16-.1-.34-.92-.29-1.4-.44-.48-.15-1.94-.82-2.86-.34-.92.48-3.24.24-3.58.19-.34-.05-1.5,1.4-1.26,2.08.24.68,1.11,1.6.97,1.69-.15.1-1.5.58-1.6.44-.1-.15-.77-1.31-1.06-1.26-.29.05-1.5.44-1.6,0-.1-.44-.82-1.5-1.55-1.02s-.58,1.21-.58,1.74-.48,1.21-.29,1.55c.19.34.39,1.79.1,2.32-.29.53-2.03,2.76-2.57,2.95-.53.19-2.57.53-2.95.24-.39-.29-.82-.68-.97-.97-.15-.29-.44-.82-.68-.68-.24.15-.92.73-.92,1.06s-1.02.48-1.07.73c-.05.24.29,1.21-.05,1.65-.34.44-.92.92-1.06.97-.15.05-.39.82-.77,1.07-.39.24-.73.05-.97.53-.24.48-.34,1.02-.73,1.06-.39.05-1.16-.1-1.16.68s.34,1.5.68,1.79c.34.29.87.24,1.02.68s.39,1.51-.44,2.42c-.87.95-.9,1.02-1.45,1.65-.29.33-.15,1.5-.29,1.69-.15.19-1.25,1.37-1.25,1.37,0,0-1.83.73-2.43.96-.46.18-.53,1.11-1.16,1.21-.63.1-3.15.48-4.79-.53-1.65-1.02-3.34-2.37-2.95-3.53.39-1.16.92-.44.92-.92s-.19-1.21-.53-1.31c-.34-.1-1.69,0-1.98.34-.29.34-1.07,1.98-1.79,2.13-.73.15-2.03.73-4.36-.77-2.32-1.5-1.55-1.31-2.61-1.4-1.07-.1-2.61.24-3.39.46-.85.24.15.8-.07,1.6-.22.8-2.47,2.54-2.25,3.12.22.58,5.81,1.82,6.03,2.98.22,1.16-.65.65-.29,1.09.04.05.11.12.18.19l2.47-.39c.05-.67.42-1.85.47-2.2.07-.44,1.6-.22,1.89-.44.29-.22.82-1.69,1.23-2.11.51-.51,1.32-.67,1.97-.52,0,0,3.05,2.25,3.99,3.34.94,1.09,1.88.45,2.17.23.21-.16,1.02.07,2.54.51,1.52.44,3.05-.8,3.49-1.09.44-.29.62-.76.83-1.2.16-.32.85-.74,1.05.04.11.42-.26,1.44-.44,2.11-.24.92-.51,2.11-.94,2.4-.44.29-1.45-.8-1.82-.58-.36.22,0,1.38.51,1.82.51.44,2.03,0,2.4.58.03.05.04.11.06.16.2-.03.38-.07.52-.09.63-.1,3.29-.58,4.07-.97.66-.33.85-1.11,1.21-1.98.17-.4.58-1.55,2.18-1.55s1.57-.51,1.98-1.26c.36-.66.73-1.65.92-1.74.19-.1,2.32.34,2.9.29.58-.05.63-.63,1.31-.63s2.34.96,2.61,1.16c1.26.94,3.15,2.76,3.15,2.76l1.6-.92s2.81,1.5,3.68,1.5,2.08-1.4,2.08-1.4c0,0,.77.32,1.86.7,0-.03,0-.07,0-.09.15-.44,1.6-.44,1.74-.22.15.22.22.4.44.54.22.15.58-.29.65-.04.07.25-.29.29-.11.58.18.29,1.02.54,1.05.29.04-.25.07-1.05-.04-1.34-.11-.29-1.42-1.74-1.38-2.14.04-.4.36-.8.62-1.05.25-.25.44-.69.18-1.05-.25-.36-.69-.44-1.05-.51-.36-.07-.73.47-1.02.11-.29-.36.22-.4-.15-.8-.36-.4-1.63-1.45-1.34-2.47.29-1.02,1.34-1.94,1.71-1.69Z"/>
  <path d="M54.37,36.56c-.87,0-3.68-1.5-3.68-1.5l-1.6.92s-1.89-1.82-3.15-2.76c-.27-.21-1.94-1.16-2.61-1.16s-.73.58-1.31.63c-.58.05-2.71-.39-2.9-.29-.19.1-.56,1.08-.92,1.74-.41.75-.39,1.26-1.98,1.26s-2.01,1.14-2.18,1.55c-.36.87-.56,1.66-1.21,1.98-.77.39-3.44.87-4.07.97-.14.02-.33.05-.52.09.14.56-.64,1.24-.71,1.44-.07.22.29,1.45.8,2.32s1.89,3.63,1.67,3.85c-.22.22-2.23-2.44-2.47-2.76-.18-.24-.94-.13-.94-.13,0,0-1.18-1.4-1.51-1.82-.25-.32-.02-.96-.16-1.4-.15-.44-.88-.2-2.18-.07-1.43.15-2.83.29-3.56,0-.73-.29-1.06-.9-1.21-1.11-1.92-2.88-1.98-2.9-2.35-3.03-.65-.22-2.25.07-1.89.51.36.44.61.9,1.19,1.48.58.58,1.06.48.92.99-.15.51-1.6.65-2.03.36-.44-.29.07-1.23,0-1.6-.07-.36-.8-.07-1.31-.51-.51-.44-.07-.87-.58-1.38-.51-.51-2.83.58-3.05.22-.05-.08-.05-.23-.04-.42l-2.47.39c.53.54,1.71,1.55,1.71,1.55,0,0,2.61.41,3.41,1.14s.68,1.07.73,1.55c.07.75.31,1.52.75,1.67.44.15,1.21-.4,1.36.18.15.58-.11,1.23.22,1.42.33.18,1.05-.18,1.34-.18s.07,1.63.84,1.78.36-2,.83-2.51c.47-.51,5.37-1.85,7.88,1.13,2.5,2.98-.25,2.07-.44,2.61-.18.54-.29.8.07.98.36.18,1.27.29,1.49.65.22.36.11,1.74.47,1.71.36-.04,2.18-1.52,4.07-.69s.18,1.89,1.13,2.8c.94.91,1.13-1.56,1.96-1.38s1.2,2.47,2.11,2.18c.91-.29,1.31-1.31,2.11-1.42.8-.11,1.71.25,1.89.76.18.51-.22,2,.44,2.18.65.18.8-1.6.65-2.07-.15-.47-.51-1.27-.22-1.82.29-.54.98-.84,1.67-1.05.69-.22,3.09-.15,5.26,1.38,0,0-.44,1.04-.58,1.26-.15.22-.46.27-.53.77-.07.53-.3,1.09.02,1.38.33.29.51.18.51.73s-.47,2.54-.22,2.72c.25.18.58.33.87.18.29-.15.18-.29.87-.33s.8-.29.94-.62c.15-.33.83-.91.91-1.2.07-.29-.25-.69-.07-.87s1.34-.07,1.67-.25c.33-.18.11-.84.36-1.02.25-.18.45.13.76-.33.31-.45-.11-.72.33-1.05.44-.33,1.52-.25,1.56-.51.07-.42-1.31-1.74-.94-2.18.36-.44.75-.66,1.52-1.23.83-.61,1.05-.65,1.13-.91.07-.25-.22-.58,0-.73.22-.15.54-.18.51-.47-.04-.29-.88-.4-1.05-.85-.21-.53-.13-.9.23-1.72.36-.82.35-.89.75-1.26.4-.36,1.2-.35,1.27-.6.07-.25-.07-1.02.11-1.2.18-.18.91-.58.91-.94s-.15-.36-.36-1.02c-.22-.69-.29-.91-.18-1.27.11-.36.33-.47.69-.78.28-.24.51-.34.18-.64-.33-.29-.87.45-1.05.2-.17-.24-.9-.87-.88-1.3-1.09-.38-1.86-.7-1.86-.7,0,0-1.21,1.4-2.08,1.4Z"/>
</svg>