<?xml version="1.0" encoding="UTF-8"?><svg id="Laag_1" xmlns="http://www.w3.org/2000/svg" xmlns:xlink="http://www.w3.org/1999/xlink" viewBox="0 0 64 64"><defs><style>.cls-1{fill:none;}.cls-2{clip-path:url(#clippath);}.cls-3{clip-path:url(#clippath-1);}</style><clipPath id="clippath"><rect class="cls-1" width="64" height="64"/></clipPath><clipPath id="clippath-1"><rect class="cls-1" width="64" height="64"/></clipPath></defs><g class="cls-2"><g class="cls-3"><path d="M58.33,56.21l-9.23-9.23-1.14-1.14-1.41-1.41-2.46-2.46-15.09-15.09-11.95-11.95L7.73,5.61l-2.12,2.12,8.62,8.62c-.02,.12-.04,.24-.04,.36v.89h-.89c-2.46,0-4.45,1.99-4.45,4.45v20.48c0,2.46,1.99,4.45,4.45,4.45h10.63c-1.86-2.45-2.98-5.5-2.98-8.82,0-.52,.03-1.04,.08-1.55,.03-.27,.25-.29,.32-.25,0-.01,0-.02,0-.03,.48,7.44,6.64,13.33,14.2,13.33,3.35,0,6.43-1.17,8.85-3.11l11.79,11.79,2.12-2.12Zm-22.77-10.03c-5.95,0-10.77-4.82-10.77-10.77,0-2.39,.8-4.59,2.12-6.38l15.03,15.03c-1.79,1.32-3.98,2.12-6.38,2.12"/><path d="M35.56,24.63c5.95,0,10.77,4.82,10.77,10.77,0,1.74-.42,3.37-1.15,4.83l2.55,2.55c1.15-1.9,1.87-4.08,2.03-6.42,.12-.06,.3,0,.33,.25,.06,.51,.08,1.02,.08,1.54,0,2.08-.44,4.05-1.23,5.84l2.84,2.84c1.93-.49,3.37-2.22,3.37-4.3V22.05c0-2.46-1.99-4.45-4.45-4.45h-5.16c-.54-1.08-1.07-2.19-1.61-3.36-.58-1.28-1.74-2.27-3.01-2.43-1.26-.39-9.46-.39-10.73,0-1.27,.15-2.43,1.15-3.01,2.43-.53,1.17-1.07,2.28-1.61,3.36h-2.26v-.89c0-.98-.8-1.78-1.78-1.78h-1.66l10.86,10.86c1.45-.73,3.09-1.15,4.83-1.15m10.68-2.58h4.45v2.67h-4.45v-2.67Z"/></g></g></svg>