<?xml version="1.0" encoding="UTF-8"?><svg id="Laag_1" xmlns="http://www.w3.org/2000/svg" viewBox="0 0 64 64"><defs><style>.cls-1{fill:none;}</style></defs><rect class="cls-1" width="64" height="64"/><path d="m23.76,32.37c-2.64-.65-3.64-.93-5.77-1.62-.67-.22-1.36-.67-1.66-1.09-1.3-1.82-2.87-4.08-3.92-5.36-1.44-1.77-4.66-2.15-6.82-.48-1.39,1.11-1.95,3.88-2.16,6.76-.11,1.47-.26,3.44-.27,5.19-.01,2.37-.01,5.6-.01,8.1,0,5.1.19,13,.19,13.58.08,3.48,2.93,4.11,3.4,4.19,0-.32,1.03-12.89,1.03-12.89,0,0-1.49-4.59-2.09-6.54-.08-.24-.06-.52.11-.52.4.63,3.32,7.14,3.32,7.3.63,2.85,1.26,5.61,2.13,9.33.87,3.56,4.11,3.24,4.27,3.24-.47-5.3-.75-6.81-1.4-12-.24-1.5-1.2-4.34-3.04-9.97.24-4.89.36-6.51.62-9.59.89.91,1.22,1.45,2,2.06.7.55,1.12.92,2.19,1.28,1.13.38,2.37.73,4.01.98,1.57.25,3.13-.55,3.88-1.95Zm-13.79-10.72c2.29.12,3.7-1.43,3.81-3.75.13-2.65-1.18-4.13-3.41-4.25-2.35-.12-3.7,1.49-3.82,3.88-.13,2.52,1.13,4,3.42,4.12ZM60.91,3c-.26,0-.51.09-.71.26l-3.19,2.74h-30l-3.19-2.74c-.2-.17-.45-.26-.71-.26-.6,0-1.09.49-1.09,1.09v26.28c.59.16,1.26.33,2.12.54.45.11.82.42,1.01.85.19.42.17.91-.05,1.32-.67,1.25-1.78,2.15-3.08,2.55v23.34c0,.57.46,1.03,1.03,1.03.3,0,.58-.13.78-.35l2.82-3.22c.24-.27.37-.62.37-.99v-11.44h10.08l.22-3h-10.3v-5h10.53l.11-3h-2.64c1.59-.85,2.68-1.5,4.25-3.45l-.38,10.58-1.37,18.88c2.09,0,3.86-1.51,4.19-3.58.73-4.64,1.99-13.54,2.03-13.81.07-.6.36-.5.36-.5l.3,17.88c2.24,0,4.08-1.76,4.17-4,.34-8.74.98-28.93-.29-31.37-1.62-3.12-7.96-3.07-9.99-.12-.6.88-1.08,1.77-2.34,4.08-.37.68-1.05,1.65-2.15,2.69-.86.8-1.76,1.55-1.76,2.73h-5V9h30v24h-6.51c.01.94.01,1.94.01,3h6.5v5h-6.55c-.02.96-.04,1.96-.06,3h6.61v11.44c0,.36.13.71.37.99l2.82,3.22c.2.22.48.35.78.35.57,0,1.03-.46,1.03-1.03V4.09c0-.6-.49-1.09-1.09-1.09Zm-21.83,13.28c.12,2.33,1.53,3.88,3.83,3.77,2.3-.12,3.56-1.61,3.43-4.13-.12-2.4-1.48-4.01-3.84-3.9-2.24.11-3.56,1.61-3.42,4.26Z"/></svg>