<?xml version="1.0" encoding="UTF-8"?><svg id="Laag_1" xmlns="http://www.w3.org/2000/svg" viewBox="0 0 24 24"><defs><style>.cls-1{fill:none;}</style></defs><path class="cls-1" d="m0,0v24h24V0H0Zm22.04,20.22c-.16.95-.88,1.67-1.83,1.83-2.74.46-7.3.46-8.22.46s-5.48,0-8.22-.46c-.95-.16-1.67-.88-1.83-1.83-.46-2.74-.46-7.31-.46-8.22s0-5.48.46-8.22c.16-.95.88-1.67,1.83-1.83,2.74-.46,7.3-.46,8.22-.46s5.48,0,8.22.46c.95.16,1.67.88,1.83,1.83.46,2.74.46,5.48.46,8.22,0,.91,0,5.48-.46,8.22Z"/><path d="m20.22,1.96c-2.74-.46-7.3-.46-8.22-.46s-5.48,0-8.22.46c-.95.16-1.67.88-1.83,1.83-.46,2.74-.46,7.3-.46,8.22s0,5.48.46,8.22c.16.95.88,1.67,1.83,1.83,2.74.46,7.3.46,8.22.46s5.48,0,8.22-.46c.95-.16,1.67-.88,1.83-1.83.46-2.74.46-7.31.46-8.22,0-2.74,0-5.48-.46-8.22-.16-.95-.88-1.67-1.83-1.83Zm-7.11,16.33h-2.21v-8.87l2.21-.09v8.96Zm-.17-10.5c-.22.25-.54.37-.95.37s-.72-.12-.95-.35c-.22-.23-.33-.53-.33-.87s.11-.63.33-.88c.22-.25.54-.38.95-.38s.72.12.95.36.33.54.33.9c0,.33-.11.61-.33.86Z"/></svg>