<?xml version="1.0" encoding="UTF-8"?><svg id="Laag_1" xmlns="http://www.w3.org/2000/svg" xmlns:xlink="http://www.w3.org/1999/xlink" viewBox="0 0 64 64"><defs><style>.cls-1{fill:none;}.cls-2{clip-path:url(#clippath);}.cls-3{clip-path:url(#clippath-1);}</style><clipPath id="clippath"><rect class="cls-1" width="64" height="64"/></clipPath><clipPath id="clippath-1"><rect class="cls-1" width="64" height="64"/></clipPath></defs><g class="cls-2"><g class="cls-3"><path d="M58.33,56.21l-9.52-9.52-3.02-3.02-12.96-12.96-3.02-3.02L7.73,5.61l-2.12,2.12L27.43,29.55c-1.56,1.5-2.78,3.34-3.5,5.43h-2.35c-2.58,0-4.86,1.64-5.68,4.09l-1.62,4.88c-2.33,.31-4.13,2.27-4.13,4.68,0,2.62,2.12,4.74,4.74,4.74s4.75-2.12,4.75-4.74c0-1.42-.64-2.68-1.63-3.55-.69-.62-1.48-1.01-2.84-1.11,0,0-.03-.36,.54-.36,.68,0,1.59,.15,2.65,.4l1.24-3.71c.28-.85,1.08-1.42,1.98-1.42h1.6c0,.22-.03,.43-.03,.65,0,7.65,6.2,13.85,13.85,13.85,3.93,0,7.47-1.65,9.98-4.28l9.24,9.24,2.12-2.12Zm-41.52-7.58c0,1.06-.86,1.92-1.92,1.92s-1.92-.86-1.92-1.92,.86-1.92,1.92-1.92,1.92,.86,1.92,1.92m20.18,.65c-5.39,0-9.75-4.36-9.75-9.75,0-2.8,1.2-5.31,3.09-7.08l13.75,13.75c-1.78,1.89-4.28,3.09-7.08,3.09"/><path d="M27.29,22.07l12.4,.68h0l3.4,.16c.02,.07,.07,.34-.35,.46l-3.21,.49-.29,2.03c-.74-.12-1.49-.2-2.26-.2-1.88,0-3.67,.38-5.3,1.05l3.26,3.26c.66-.14,1.34-.22,2.04-.22,5.38,0,9.75,4.36,9.75,9.75,0,.7-.08,1.38-.22,2.04l3.26,3.26c.68-1.63,1.06-3.42,1.06-5.3,0-5.21-2.88-9.75-7.14-12.11l1.92-12.83,4.85-.33c1-.07,1.76-.94,1.69-1.94-.06-.91-.78-1.62-1.67-1.69l-6.77-.55c-1.25-.1-2.36,.8-2.52,2.04l-.85,5.98-.05,.33-12.95-.02c-.89-.01-1.67,.64-1.82,1.54-.16,.98,.4,1.91,1.77,2.14"/></g></g></svg>