<?xml version="1.0" encoding="UTF-8"?><svg id="Laag_1" xmlns="http://www.w3.org/2000/svg" xmlns:xlink="http://www.w3.org/1999/xlink" viewBox="0 0 24 24"><defs><style>.cls-1{fill:none;}.cls-2{clip-path:url(#clippath);}.cls-3{clip-path:url(#clippath-1);}</style><clipPath id="clippath"><rect class="cls-1" width="24" height="24"/></clipPath><clipPath id="clippath-1"><rect class="cls-1" width="24" height="24"/></clipPath></defs><g class="cls-2"><g class="cls-3"><path d="m17.69,4.21l-5.68,5.03-5.68-5.03c-.6-.53-1.5-.52-2.08.03-.55.58-.56,1.48-.03,2.08l5.03,5.68-5.03,5.68c-.53.6-.52,1.5.03,2.08.58.55,1.48.56,2.08.03l5.68-5.03,5.68,5.03c.6.53,1.5.51,2.08-.03.55-.58.56-1.48.03-2.08l-5.03-5.68,5.03-5.68c.53-.6.52-1.5-.03-2.08-.58-.55-1.48-.56-2.08-.03m-5.68,7.8h0s0-.01,0-.01h0s0-.01,0-.01h0s0,.01,0,.01h0s0,.01,0,.01Z"/></g></g></svg>