<?xml version="1.0" encoding="UTF-8"?><svg id="Laag_1" xmlns="http://www.w3.org/2000/svg" xmlns:xlink="http://www.w3.org/1999/xlink" viewBox="0 0 64 64"><defs><style>.cls-1{fill:none;}.cls-2{clip-path:url(#clippath);}.cls-3{fill:#fff;}.cls-4{clip-path:url(#clippath-1);}</style><clipPath id="clippath"><rect class="cls-1" width="64" height="64"/></clipPath><clipPath id="clippath-1"><rect class="cls-1" width="64" height="64"/></clipPath></defs><g class="cls-2"><g class="cls-4"><path class="cls-3" d="M32,39.24c3.84,0,5.58-1.16,8.26-3.46,.95-.81,2.01-1.77,3.32-2.87l-.74-1.62s.19-1.28,.31-1.93c.19-1,.33-3.56,.33-3.56-5.68,0-7.41-.58-8.24-1.25-1.06-.86-1.71-1.84-3.24-1.84s-2.19,.99-3.25,1.84c-.83,.67-2.57,1.25-8.24,1.25,0,0,.14,2.56,.33,3.56,.12,.65,.31,1.93,.31,1.93l-.74,1.62c1.47,1.23,2.62,2.28,3.65,3.15,2.49,2.11,4.25,3.17,7.93,3.17"/><path d="M52.61,44.11c-2.18-2.38-8.46-4.49-11.39-5.37-.08-.6-.18-1.25-.28-1.9,.11-.09-.03,.03,1.2-1.04,.67-.59,1.4-1.23,2.24-1.93,.43-.36,.57-.96,.33-1.47l-.58-1.28c.27-1.82,.31-1.62,.46-3.31,.9-1.21,1.4-2.85,1.4-4.8,0-.74,0-2.7-1.23-4.04,.3-3.34,.51-8.5-.79-10.59-1.6-2.56-3.55-3.81-7.26-2.98-2.44-1.16-4.09-1.88-8.36-.84-2.97,.72-6.21,1.91-7.92,3.88-1.65,1.91-1.54,7.22-1.27,10.6-1.16,1.33-1.16,3.23-1.16,3.96,0,1.95,.5,3.59,1.4,4.8,.15,1.68,.18,1.45,.46,3.31l-.58,1.28c-.23,.51-.1,1.11,.33,1.48,.84,.71,1.58,1.35,2.26,1.94,1.61,1.41,1.45,1.25,1.71,1.47-.05,.41-.11,.83-.16,1.27-2.51,.73-9.67,3-12.03,5.57-2.87,3.12-4.39,14.89-4.39,14.89H57s-1.51-11.76-4.39-14.89M20.9,23c0-1.27,.32-1.96,.77-2.17,.39-.18,.77-.05,1.01,.09,.14,.65,.25,1.14,.29,1.31,.21,.85,1.02,.77,1.02,.77v-6.75c2.07-.15,6.19-.75,10.75-3.11l5.25,3.53v6.33s.82,.08,1.02-.77c.04-.17,.15-.66,.29-1.31,.24-.14,.62-.27,1.01-.09,.45,.21,.77,.9,.77,2.17,0,.45-.07,1.01-.21,1.55-3.83-.03-6.09-.35-6.86-.97-1-.81-1.96-2.12-4.03-2.12s-3.02,1.31-4.03,2.12c-.77,.62-3.03,.94-6.86,.97-.15-.55-.21-1.1-.21-1.55m1.05,9.56l.34-.76s.02-.08,.03-.12l5.8,1.54s.15-.22-.11-.43c-.23-.18-4.73-2.82-5.91-3.51,0-.05-.02-.11-.03-.15-.08-.45-.16-1.31-.22-2.09,4.89-.09,6.65-.67,7.69-1.52,1.17-.94,1.49-1.57,2.46-1.57s1.36,.68,2.46,1.57c1.04,.85,2.8,1.43,7.69,1.52-.06,.77-.14,1.64-.22,2.09,0,.05-.02,.1-.03,.15-1.18,.69-5.69,3.33-5.91,3.51-.26,.21-.15,.38-.11,.43l5.79-1.54s.02,.08,.04,.12l.34,.76c-1.05,.9-1.77,1.55-2.61,2.27-2.55,2.2-4.03,3.16-7.45,3.16s-4.81-.92-7.12-2.88c-.66-.56-1.99-1.74-2.93-2.54m10.43,16.77c-2.3-1.75-6.59-5.53-6.16-9.02,.07-.58,.1-.85,.14-1.1,1.57,.85,3.25,1.27,5.64,1.27,2.77,0,4.61-.6,6.26-1.61,.07,.54,.14,1.14,.13,1.39,.33,3.49-3.56,7.32-6.01,9.08"/></g></g></svg>