<?xml version="1.0" encoding="UTF-8"?><svg id="Laag_1" xmlns="http://www.w3.org/2000/svg" xmlns:xlink="http://www.w3.org/1999/xlink" viewBox="0 0 24 24"><defs><style>.cls-1{fill:none;}.cls-2{clip-path:url(#clippath);}.cls-3{clip-path:url(#clippath-1);}</style><clipPath id="clippath"><rect class="cls-1" width="24" height="24"/></clipPath><clipPath id="clippath-1"><rect class="cls-1" width="24" height="24"/></clipPath></defs><g class="cls-2"><g class="cls-3"><path d="m18,17v2H6v-2h-3v4c0,.55.45,1,1,1h16c.55,0,1-.45,1-1v-4h-3Z"/><path d="m13.06,2.52c-.26-.32-.65-.51-1.06-.51s-.8.19-1.06.51l-5.78,7.23c-.41.52-.39,1.25.05,1.75.44.49,1.17.6,1.73.25l3.06-1.91v5.74c0,1.09.94,1.41,2,1.41s2-.32,2-1.41v-5.74l3.07,1.91c.56.35,1.29.24,1.73-.25.44-.49.46-1.23.05-1.75l-5.78-7.23Z"/></g></g></svg>