<?xml version="1.0" encoding="UTF-8"?><svg id="Laag_1" xmlns="http://www.w3.org/2000/svg" xmlns:xlink="http://www.w3.org/1999/xlink" viewBox="0 0 64 64"><defs><style>.cls-1{fill:none;}.cls-2{clip-path:url(#clippath);}.cls-3{clip-path:url(#clippath-1);}</style><clipPath id="clippath"><rect class="cls-1" width="64" height="64"/></clipPath><clipPath id="clippath-1"><rect class="cls-1" width="64" height="64"/></clipPath></defs><g class="cls-2"><g class="cls-3"><path d="M45.26,29.12c-2.6-2.3-2.87-5.16-3.6-8.56l-2.81-13.04c-.69-3.23-3.55-5.53-6.85-5.53s-6.15,2.3-6.85,5.53l-2.81,13.04c-.73,3.4-1,6.26-3.6,8.56-2.32,2.05-6.33,5.29-6.33,8.53,0,6.57,7.1,7.27,11.26,6.86-.33-3.74-4.47-4.87-5.54-5.41,.02-.24,.21-.29,.55-.25,8.97,.96,6,8.4,13.31,8.4s4.34-7.44,13.31-8.4c.34-.04,.53,.01,.55,.25-1.07,.54-5.2,1.67-5.54,5.41,4.16,.42,11.26-.29,11.26-6.86,0-3.24-4.01-6.48-6.33-8.53"/><path d="M28.71,52.24c-.88-1.19-1.78-2.42-2.38-4.08-.35-.96-1.02-1.16-1.52-1.16s-1.17,.2-1.52,1.16c-.6,1.66-1.5,2.88-2.38,4.06-.97,1.32-1.89,2.56-2.22,4.2-.3,1.49,.1,2.99,1.11,4.23,1.19,1.45,3.11,2.36,5,2.36s3.82-.9,5.01-2.36c1.01-1.24,1.4-2.74,1.1-4.22-.33-1.62-1.24-2.86-2.21-4.17m-.44,7.13c-.82,1-2.15,1.63-3.46,1.63s-2.63-.62-3.45-1.62c-.44-.54-.93-1.43-.7-2.57,.24-1.2,.99-2.22,1.87-3.4,.76-1.03,1.6-2.17,2.28-3.67,.67,1.49,1.52,2.65,2.29,3.69,.87,1.18,1.62,2.2,1.86,3.39,.23,1.14-.25,2.02-.69,2.56"/></g></g></svg>