<?xml version="1.0" encoding="UTF-8"?><svg id="Laag_1" xmlns="http://www.w3.org/2000/svg" xmlns:xlink="http://www.w3.org/1999/xlink" viewBox="0 0 64 64"><defs><style>.cls-1{fill:none;}.cls-2{clip-path:url(#clippath);}.cls-3{clip-path:url(#clippath-1);}</style><clipPath id="clippath"><rect class="cls-1" width="64" height="64"/></clipPath><clipPath id="clippath-1"><rect class="cls-1" width="64" height="64"/></clipPath></defs><g class="cls-2"><g class="cls-3"><path d="M51.43,17.56v23.84h-3.59l6.56,6.56c.86-.13,1.52-.87,1.52-1.77V14.87c0-.99-.8-1.8-1.8-1.8H19.51l4.49,4.49h27.43Z"/><path d="M47.05,47.99l9.92,9.92,2.12-2.12L8.49,5.19l-2.12,2.12,5.86,5.87c-.7,.24-1.21,.9-1.21,1.69v31.32c0,.99,.8,1.8,1.8,1.8h14.82s-.48,1.74-1.35,4.5c-.52,1.65-2.14,1.79-2.58,1.8h-1.71c-.5,0-.9,.4-.9,.9v1.79h24.74v-1.79c0-.5-.4-.9-.9-.9h-1.71c-.44,0-2.06-.15-2.58-1.8-.35-1.11-.63-2.04-.85-2.77,0,0-3.95-.57-8.06-1.38-.29-.06-.25-.27-.22-.34h15.53Zm-31.54-6.59V17.56h1.11l23.84,23.84H15.51Z"/></g></g></svg>