<?xml version="1.0" encoding="UTF-8"?><svg id="Laag_1" xmlns="http://www.w3.org/2000/svg" xmlns:xlink="http://www.w3.org/1999/xlink" viewBox="0 0 64 64"><defs><style>.cls-1{fill:none;}.cls-2{clip-path:url(#clippath);}.cls-3{clip-path:url(#clippath-1);}</style><clipPath id="clippath"><rect class="cls-1" width="64" height="64"/></clipPath><clipPath id="clippath-1"><rect class="cls-1" width="64" height="64"/></clipPath></defs><g class="cls-2"><g class="cls-3"><path d="M60,42H4c-.55,0-1,.45-1,1v12c0,.55,.45,1,1,1H60c.55,0,1-.45,1-1v-12c0-.55-.45-1-1-1m-27,7.78v2.22h-2v-2.22c-.62-.35-1.05-1.01-1.05-1.78,0-1.13,.92-2.05,2.05-2.05s2.05,.92,2.05,2.05c0,.77-.43,1.43-1.05,1.78"/><path d="M57,40v-6.67c0-.86-.28-1.71-.8-2.4l-5.2-6.93-1.52-7.59c-.28-1.4-1.51-2.41-2.94-2.41h-13.98c.87-1.94,1.53-4.28,1.05-7.31l-.27-1.69h-13.37l.36,2.31c.44,2.79-.47,4.62-1.56,6.69h-1.32c-1.43,0-2.66,1.01-2.94,2.41l-1.52,7.59-5.2,6.93c-.52,.69-.8,1.53-.8,2.4v6.67H57Zm-22-23h11.54l1,5h-12.54v-5Zm-5.58,8h-9.32c-4.5-8,3.48-10,2.21-18h9.32c1.26,8-6.71,10-2.21,18"/></g></g></svg>