<?xml version="1.0" encoding="UTF-8"?><svg id="Laag_1" xmlns="http://www.w3.org/2000/svg" xmlns:xlink="http://www.w3.org/1999/xlink" viewBox="0 0 64 64"><defs><style>.cls-1{fill:none;}.cls-2{clip-path:url(#clippath);}.cls-3{clip-path:url(#clippath-1);}</style><clipPath id="clippath"><rect class="cls-1" width="64" height="64"/></clipPath><clipPath id="clippath-1"><rect class="cls-1" width="64" height="64"/></clipPath></defs><g class="cls-2"><g class="cls-3"><path d="M35.47,40.29c.52-.12,.64-.81,.2-1.11l-8.02-5.32c-.35-.23-.81,.09-.71,.5l2.19,9.02c.12,.49,.74,.64,1.07,.25l1.14-1.37,2.79,3.66,2.2-1.68-2.69-3.52,1.84-.44Zm-15.97-6.29l1.18-3.82h.04l1.01,3.82h2.33l1.8-7h-1.8l-1.09,5.65h-.07l-1.53-5.65h-1.71l.35,1.3-1.4,4.35h-.07l-1.05-5.65h-1.98l1.77,7h2.23ZM54,12H10c-1.66,0-3,1.34-3,3V49c0,1.66,1.34,3,3,3H54c1.66,0,3-1.34,3-3V15c0-1.66-1.34-3-3-3m-37.5,2c.83,0,1.5,.67,1.5,1.5s-.67,1.5-1.5,1.5-1.5-.67-1.5-1.5,.67-1.5,1.5-1.5m-5,0c.83,0,1.5,.67,1.5,1.5s-.67,1.5-1.5,1.5-1.5-.67-1.5-1.5,.67-1.5,1.5-1.5M54,49H10V19H54v30Zm-23.07-15.36l1.07-3.46h.04l1.01,3.82h2.33l1.8-7h-1.8l-1.1,5.65h-.07l-1.53-5.65h-1.71l.35,1.3-1.4,4.35h-.07l-1.05-5.65h-1.98l1.19,4.7,2.93,1.94Zm11.21,.36l1.18-3.82h.04l1.01,3.82h2.33l1.8-7h-1.8l-1.1,5.65h-.07l-1.53-5.65h-1.71l.35,1.3-1.4,4.35h-.07l-1.05-5.65h-1.98l1.77,7h2.23Z"/></g></g></svg>