<?xml version="1.0" encoding="UTF-8"?><svg id="Laag_1" xmlns="http://www.w3.org/2000/svg" xmlns:xlink="http://www.w3.org/1999/xlink" viewBox="0 0 64 64"><defs><style>.cls-1{fill:none;}.cls-2{clip-path:url(#clippath);}.cls-3{clip-path:url(#clippath-1);}</style><clipPath id="clippath"><rect class="cls-1" width="64" height="64"/></clipPath><clipPath id="clippath-1"><rect class="cls-1" width="64" height="64"/></clipPath></defs><g class="cls-2"><g class="cls-3"><path d="m42.99,29.8c4.69,0,7.4-3.35,7.4-8.16,0-5.49-2.83-8.43-7.4-8.43-4.81,0-7.4,3.48-7.4,8.43,0,5.22,2.71,8.16,7.4,8.16"/><path d="m21,26.83c4.69,0,7.4-3.35,7.4-8.16,0-5.49-2.84-8.43-7.4-8.43-4.81,0-7.4,3.48-7.4,8.43,0,5.22,2.71,8.16,7.4,8.16"/><path d="m57.17,38.49c-2.27,1.13-6.41,2.86-11.48,3.4-4.15.45-8.69.37-12.69-.11v12.21h19.76v-8.93s.46-.16.68.5c.5,1.48.9,4.57,1.04,8.43h5.73c-.2-5.98-.89-11.72-3.04-15.51"/><path d="m45.46,39.71c4.15-.45,7.65-1.75,9.87-2.77,1.1-.51,2.04-1.02,2.54-1.33-.66-3.31-4.91-3.53-7.67-3.2-2.76.33-6.45.83-11.86.61-4.14-.17-6.45-1.63-10.82-2.38-2.03-.35-3.91-.49-5.95-.52-3.14-.05-6.29.25-8.92.89-7.76,1.9-8.86,12.17-8.99,22.99h5.75v-.1c0-5.22.51-9.3,1.15-11.33.19-.62.62-.5.62-.5v11.93h19.82v-13.56c0-.55.45-1,1-1h0s0-.01,0-.01c0,0,6.29,1.05,13.46.28"/></g></g></svg>