<?xml version="1.0" encoding="UTF-8"?><svg id="Laag_1" xmlns="http://www.w3.org/2000/svg" xmlns:xlink="http://www.w3.org/1999/xlink" viewBox="0 0 64 64"><defs><style>.cls-1{fill:none;}.cls-2{clip-path:url(#clippath);}.cls-3{clip-path:url(#clippath-1);}</style><clipPath id="clippath"><rect class="cls-1" width="64" height="64"/></clipPath><clipPath id="clippath-1"><rect class="cls-1" width="64" height="64"/></clipPath></defs><g class="cls-2"><polygon points="2 60 21.06 60 24.49 3 20.55 3 2 60"/><g class="cls-3"><path d="M48.7,45.4l-3.02-.33s-2.56-2.82-2.75-3.07c-.17-.22-.34-.2-.43-.17,.05,.11,.09,.21,.14,.33,5.06,11.92,13.79,17.46,20.05,17.79L46.44,27.34l-9.76-5.18L30.45,3h-3.94l3.43,57h17.43c-4.12-4.49-6.78-9.77-8.26-13.02l-2.84,3.77c-.5,.66-1.39,.87-2.13,.51-.74-.36-1.12-1.2-.91-1.99l3.18-11.88c.14-.51,.5-.93,.98-1.14,.48-.21,1.04-.18,1.5,.07l10.82,5.85c.35,.19,.61,.49,.76,.83,.16,.37,.19,.79,.06,1.2-.25,.79-1.02,1.29-1.83,1.2"/></g></g></svg>