<?xml version="1.0" encoding="UTF-8"?><svg id="Laag_1" xmlns="http://www.w3.org/2000/svg" viewBox="0 0 64 64"><defs><style>.cls-1{fill:none;}</style></defs><rect class="cls-1" width="64" height="64"/><g><path d="m7.91,45.01c-.1-1.02-.04-1.38.19-2.21-1.54.69-2.97,1.49-3.89,2.45-2.76,2.88-4.21,13.74-4.21,13.74h6.45c-.92-2.69-3.27-10.95,1.46-13.99Z"/><path d="m32.08,49.44v-.83c0-1.15.48-2.25,1.35-3.05l4.14-3.74c-1.75-.72-3.68-1.51-3.97-1.66-.33-.18-.62-.35-.84-.52-.1-.85-.24-1.89-.39-2.89,2.82.3,5.22.64,6.92,1.24.38.13.77-.12.88-.54,1.26-5.09,1.81-8.52,1.81-12.24,0-7.48-2.81-15.48-7.13-18.07-2.75-1.65-5.84-1.05-5.84-1.05,0,0-2.97-2.86-8.17-1.88-8.48,1.6-14.84,9.74-14.84,21,0,3.72.56,7.15,1.82,12.24.1.42.5.67.88.54,1.82-.64,4.29-1.01,7.36-1.3-.11.94-.23,1.99-.36,3.06-.58.41-1.82.86-3.29,1.39-1.38.6-2.06,1.31-2.06,2.96,1-.13,2,.02,2.95.47,4.56,2.1,6.77,9.88,6.87,10.21.2.71-.36,1.25-.44,1.32-.69.6-1.98,1.29-2.94,1.59-1.14.36-1.48-.18-1.75-.97-.27-.78-.16-1.29.85-1.91.38-.23.89-.51,1.43-.7-.87-2.36-2.7-6.17-5.06-7.27-.85-.4-1.67-.38-2.57.03-3.48,1.61-1.91,8.02-1.04,10.77.5-.22,1.04-.38,1.45-.47,1.15-.26,1.59.03,1.94.78.18.38.3.72.24,1.04h22.72v-6.06c-1.66-.3-2.92-1.76-2.92-3.5Zm-8.01-.54c-1.36-.58-5.52-2.59-7.7-6.08,2.13-1.06,2.01-1.99,2.05-2.39.07-.58.58-5.32.58-5.32-2.52-2.48-3.6-5.57-4.06-8.28-.29-1.73-.25-3.34-.16-4.41,4.8-1.89,11.6-5.75,14.23-9.06,0,0,.32.01.12.5-.34.83-.85,1.81-1.55,2.98,1.24,2.64,3.47,4.56,5.68,5.93.07,1.03.07,2.47-.2,4.06-.53,3.18-2.82,7.63-5.34,9.18-1.72,1.07-4.87,1.23-6.71.44.42.84,1.27,1.84,3.16,2.31,2.53.63,4.85-.4,5.45-.75.11.8.22,1.59.29,2.28.04.4.15,1.32,2.43,2.53-2.25,3.6-6.82,5.55-8.26,6.09Z"/><path d="m62.57,47.79l-13.19-11.9c-.21-.2-.54-.2-.75,0l-13.19,11.9c-.23.21-.36.51-.36.82v.83c0,.31.25.56.56.56h2.37v12h22v-12h2.37c.31,0,.56-.25.56-.56v-.83c0-.31-.13-.61-.36-.82Zm-9.57,9.21h-8v-6h8v6Z"/></g></svg>