<?xml version="1.0" encoding="UTF-8"?><svg id="Laag_1" xmlns="http://www.w3.org/2000/svg" xmlns:xlink="http://www.w3.org/1999/xlink" viewBox="0 0 64 64"><defs><style>.cls-1{fill:none;}.cls-2{clip-path:url(#clippath);}.cls-3{clip-path:url(#clippath-1);}</style><clipPath id="clippath"><rect class="cls-1" width="64" height="64"/></clipPath><clipPath id="clippath-1"><rect class="cls-1" width="64" height="64"/></clipPath></defs><g class="cls-2"><path d="M15.9,31L5,54h13l1.29-7h5.71v7h13l-6.66-23H15.9Zm9.1,9h-4.42l.92-5h3.5v5Z"/><polygon points="27 16 23 16 20.63 21 28.45 21 27 16"/><g class="cls-3"><path d="M5,36h5l2-3.2v-3.64l-3.99-.79c-.32-.1-.27-.31-.25-.36h26.17c-.94-1.46-1.51-3.16-1.6-5H2v5h3v8Z"/><path d="M56.15,14.03c-1.25-2.39-3.76-4.03-6.65-4.03-3.26,0-6.03,2.09-7.06,5-7.24,.06-10.17,9.34-4.32,13.57-2.62,4.84-.07,10.47,5.18,11.32,.14-.68,.29-1.38,.43-2.09,.79-3.9-.05-5.88-.18-6.19-.17-.42-.03-.57,.07-.59,1.46,1.2,2,4.79,1.85,6.99-.15,2.28-1.42,13.11-1.46,13.98,0,0,1.97,2,4.99,2s3.99-2,3.99-2l-.59-12.09c.36,.05,.73,.09,1.1,.09,4.14,0,7.5-3.36,7.5-7.5,0-1.74-.6-3.34-1.59-4.61,6.2-3.8,3.89-13.25-3.26-13.86"/></g></g></svg>