<?xml version="1.0" encoding="UTF-8"?><svg id="Laag_1" xmlns="http://www.w3.org/2000/svg" xmlns:xlink="http://www.w3.org/1999/xlink" viewBox="0 0 64 64"><defs><style>.cls-1{fill:none;}.cls-2{clip-path:url(#clippath);}.cls-3{clip-path:url(#clippath-1);}</style><clipPath id="clippath"><rect class="cls-1" width="64" height="64"/></clipPath><clipPath id="clippath-1"><rect class="cls-1" width="64" height="64"/></clipPath></defs><g class="cls-2"><g class="cls-3"><path d="M41.02,44.18l-5.77,4.82h10.75v-11.36c-1.14,2.52-2.83,4.75-4.98,6.54m-10.02-5.18l3.36-2.8c1.25-1.05,2.15-2.43,2.59-4l1.88-6.7c.86-3.06,3.05-5.47,5.86-6.67L26.68,2.26c-.38-.35-.97-.35-1.35,0L1.65,24.05c-.41,.38-.65,.91-.65,1.47v1.48c0,.55,.45,1,1,1H6v21h15v-15h10v5Zm31.96-6.05c-.78-1.36-2.93-5.07-4.2-7.16-1.91-3.14-4.55-5.83-10.36-5.58-3.5,.15-6.51,2.52-7.45,5.89l-1.88,6.7c-.56,1.99-1.71,3.77-3.3,5.09l-5.97,4.98c-1.43,1.19-2.44,2.82-2.87,4.63l-2.08,8.67c-.07,.27,.11,.55,.38,.61l3.53,.72c.24,.05,.47-.08,.56-.31l3.31-8.32c.26-.64,.56-1.03,1-1.4l5.97-4.98c2.52-2.1,4.34-4.92,5.23-8.08l1.88-6.7c.39-1.38,1.6-1.51,1.96-1.52,.36,0,1.58,.07,2.02,1.44l2.81,8.66c.09,.27,.38,.41,.64,.32l2.69-.93c.25-.09,.39-.36,.31-.62,0,0-1.53-5.1-1.58-5.26-.15-.48,.56-.82,.83-.37,.07,.12,3.06,4.94,3.06,4.94,.12,.2,.37,.28,.59,.21l2.64-.91c.3-.1,.43-.44,.27-.71"/></g></g></svg>