<?xml version="1.0" encoding="UTF-8"?>
<svg id="Zwart" xmlns="http://www.w3.org/2000/svg" viewBox="0 0 64 64">
  <rect x="21" y="28" width="22" height="3"/>
  <rect x="21" y="15" width="10" height="3"/>
  <rect x="21" y="20" width="10" height="3"/>
  <path d="M34.42,32.99c-.61,1.28-1.5,2.92-1.13,4.37.07.28.31.41.58.44.57.07,1.5-.6,1.98-1.22,0,.07,0,.13,0,.15.04.3.19.69.43.89.21.17.48.24.73.09.37-.21.61-.55.83-.91.03.36.17.68.53.85.77.38,1.21-.29,1.62-.89.15.2.41.36.67.27.75-.26.49-.86,1.02-.09.44.63,1.48.03,1.04-.61-.31-.46-.24-1.01-.84-1.16-.4-.1-.72.15-1.03.39-.01-.04-.03-.09-.04-.13-.09-.35-.57-.59-.88-.36-.52.38-.61.74-.89,1.27-.24.45.11-.39.15-.66.03-.23.07-.45.08-.69.03-.48-.52-.71-.9-.52-.57.29-.87.85-1.2,1.36.1-.45.2-.94,0-1.21-.12-.16-.3-.33-.52-.3-.87.11-1.57,1.47-2.23,2.01.09-.95.69-2.05,1.04-2.78.33-.69-.7-1.3-1.04-.61Z"/>
  <path d="M22.31,32.99c-.61,1.28-1.5,2.92-1.13,4.37.07.28.31.41.58.44.57.07,1.5-.6,1.98-1.22,0,.07,0,.13,0,.15.05.3.19.69.43.89.21.17.48.24.73.09.37-.21.61-.55.83-.91.03.36.17.68.53.85.77.38,1.21-.29,1.62-.89.15.2.41.36.67.27.75-.26.49-.86,1.02-.09.44.63,1.48.03,1.04-.61-.31-.46-.24-1.01-.84-1.16-.4-.1-.72.15-1.03.39-.01-.04-.03-.09-.04-.13-.09-.35-.57-.59-.88-.36-.52.38-.61.74-.89,1.27-.24.45.11-.39.15-.66.03-.23.07-.45.08-.69.03-.48-.52-.71-.9-.52-.57.29-.87.85-1.2,1.36.1-.45.2-.94,0-1.21-.12-.16-.3-.33-.52-.3-.87.11-1.57,1.47-2.23,2.01.09-.95.69-2.05,1.04-2.78.33-.69-.7-1.3-1.04-.61Z"/>
  <path d="M32,50h-15V10h16.74l.92-3.11c.11-.34.34-.21.34-.21v14.37c0,.55.48.96,1.03.96h14.37s.11.27-.23.38l-3.16.95v10.38c1.56-1.42,3.43-3.11,5-4.53v-7.32c0-.53-.19-1.04-.57-1.41l-14.82-14.85c-.38-.38-.88-.61-1.41-.61H14.03c-1.1,0-2.03.94-2.03,2.04v46c0,1.1.93,1.96,2.03,1.96h15.62c.43-1.78,1.12-3.37,2.38-5h-.03Z"/>
  <path d="M51.82,47.55l-7.45,7.45h5.66c1.1,0,1.97-.86,1.97-1.96v-5.6s-.06,0-.08,0c-.03.04-.06.08-.1.12Z"/>
  <path d="M62.77,33.87l-.06-.06c1.11-1.59.36-3.3-1.13-4.78-1.59-1.59-3.43-2.38-5.12-.89-1.69,1.49-11.14,10.08-11.14,10.08l3.54,3.54,3.54,3.54s5.77-6.35,8.67-9.57c.33.39.35.96.03,1.37l-6.45,8.23c1.09.85,2.66.66,3.51-.43l4.91-6.27c1.12-1.43,1-3.48-.29-4.76Z"/>
  <path d="M44.61,40.34l-9.61,9.61c-2.53,2.53-3.2,4.68-3.63,7.87l-1.29,1.29c-.39.39-.39,1.02,0,1.41.39.39,1.02.39,1.41,0l1.28-1.28c3.19-.43,5.34-1.1,7.87-3.63l9.61-9.61-5.66-5.66Z"/>
</svg>