<?xml version="1.0" encoding="UTF-8"?><svg id="Laag_1" xmlns="http://www.w3.org/2000/svg" xmlns:xlink="http://www.w3.org/1999/xlink" viewBox="0 0 64 64"><defs><style>.cls-1{fill:none;}.cls-2{clip-path:url(#clippath);}.cls-3{clip-path:url(#clippath-1);}</style><clipPath id="clippath"><rect class="cls-1" width="64" height="64"/></clipPath><clipPath id="clippath-1"><rect class="cls-1" width="64" height="64"/></clipPath></defs><g class="cls-2"><g class="cls-3"><path d="M45.45,18.91l1.79-2.51c.33-.47,.28-1.11-.13-1.52s-1.05-.46-1.52-.13l-2.51,1.79c-.85,.61-.95,1.84-.21,2.58,.74,.74,1.97,.64,2.58-.21m-15.45,10.09V7c0-3.31-5.82-6-13-6S4,3.69,4,7V29c0,3.31,5.82,6,13,6s13-2.69,13-6M7,6.97c.24-.84,3.93-2.97,10-2.97s9.76,2.12,10,3.03c-.18,.63-2.31,1.99-5.93,2.62,2.86,9.94-1.47,18.29-1.79,18.67-.32,.4-.53,.25-.53,.25,2.83-9.17,0-16.23-1.18-18.6-.19,0-.37,.01-.57,.01-6.07,0-9.76-2.12-10-3.03M59.29,39.48c-.84-.72-2.1-.61-2.82,.23l-1.66,1.95c-2.79-1.07-6.44,.04-8.9,2.95-2.45,2.9-2.95,6.66-1.46,9.24l-.07,.08c-2.74,3.23-6.75,5.08-10.98,5.08-7.95,0-14.41-6.47-14.41-14.41v-7.46c-.65,.04-1.32,.07-2,.07s-1.35-.03-2-.07v7.46c0,10.15,8.26,18.41,18.41,18.41,5.41,0,10.52-2.36,14.03-6.49l.14-.17c2.75,.87,6.22-.26,8.59-3.06,2.36-2.79,2.91-6.38,1.61-8.95l1.74-2.05c.72-.84,.61-2.1-.23-2.82m-33.29,5.52v-9.31c-1.2,.46-2.55,.83-4,1.08v8.23c0,4.41,3.59,8,8,8s8-3.59,8-8v-8.93c0-2.31,.61-4.6,1.76-6.61l1.12-1.96c.98,.32,2.03,.51,3.12,.51,5.51,0,10-4.49,10-10s-4.49-10-10-10-10,4.49-10,10c0,2.99,1.32,5.67,3.41,7.5l-1.13,1.97c-1.49,2.61-2.28,5.59-2.28,8.6v8.93c0,2.21-1.79,4-4,4s-4-1.79-4-4M44,12c3.31,0,6,2.69,6,6s-2.69,6-6,6-6-2.69-6-6,2.69-6,6-6"/></g></g></svg>