<?xml version="1.0" encoding="UTF-8"?><svg id="Laag_1" xmlns="http://www.w3.org/2000/svg" xmlns:xlink="http://www.w3.org/1999/xlink" viewBox="0 0 64 64"><defs><style>.cls-1{fill:none;}.cls-2{clip-path:url(#clippath);}.cls-3{clip-path:url(#clippath-1);}</style><clipPath id="clippath"><rect class="cls-1" width="64" height="64"/></clipPath><clipPath id="clippath-1"><rect class="cls-1" width="64" height="64"/></clipPath></defs><g class="cls-2"><g class="cls-3"><path d="M28.63,17.54c2.59-.65,3.64-2.85,2.98-5.47-.75-2.98-2.72-4.18-5.25-3.54-2.66,.67-3.62,2.92-2.94,5.61,.71,2.83,2.62,4.05,5.21,3.4"/><path d="M53.5,2.5c-1.93-1.93-5.07-1.93-7,0s-1.93,5.07,0,7c1.93,1.93,5.07,1.93,7,0s1.93-5.07,0-7"/><path d="M44.78,39.94c-.88-2.6-6.56-4.62-9.24-5.56,.61-6.08,.09-10.98-.35-13.67,1.82-1.46,4.36-3.6,5.44-5.74,.43-1,1.24-2.62,1.63-5.69,.53-5.06-2.37-5.63-2.97-5.69-.36,3.14-.77,5.75-2.03,8.67-.46,1.2-1.56,2.21-2.53,3.07-5.39,4.69-6.91,5.2-11.18,8.82-1.23,1.05-2.93,2.58-3.92,3.86-.38,.56-.71,1.25-.96,1.87-.68,1.66-1.17,3.4-1.64,5.46-.47,2.05,.09,4.28,2.08,4.99,.03-.26,.02-.16,0,0h.01c.69-2.44,2.04-6.48,3.25-8.71,.55-1,.93-1.57,3.96-3.83,.74,6.19-.74,8.9,.41,10.99,.78,1.42,3.27,2.01,4.87,2.27,.02,.07,.05,.24-.22,.35-.31,.12-2.36,.34-4.22,.15-.24,3.93-.4,5.55-.5,6.6-.08,1.01-.42,1.67-.65,2.16-.45,1-2.46,4.5-3.5,6.25-1.53,2.57-1.28,5.06,.09,6.79,1.23-1.27,6.32-7.85,8.35-11.08,.72-1.14,.87-1.61,1.23-3.24,.2-1,.62-3.02,1.4-7.74,1,.07,4.22,.65,5.76,1.14-.55,2.23-1.89,5.89-2.7,8.02-1.2,3.93,.81,5.9,1.48,6.42,1.23-2.34,5.96-11.15,6.72-14.53,.34-1.69-.08-2.39-.08-2.39"/></g></g></svg>