<?xml version="1.0" encoding="UTF-8"?><svg id="Laag_1" xmlns="http://www.w3.org/2000/svg" xmlns:xlink="http://www.w3.org/1999/xlink" viewBox="0 0 64 64"><defs><style>.cls-1{fill:none;}.cls-2{clip-path:url(#clippath);}.cls-3{clip-path:url(#clippath-1);}</style><clipPath id="clippath"><rect class="cls-1" width="64" height="64"/></clipPath><clipPath id="clippath-1"><rect class="cls-1" width="64" height="64"/></clipPath></defs><g class="cls-2"><g class="cls-3"><path d="M58.11,8.01c-.05-.73-.83-1.17-1.47-.82-1.95,1.08-5.84,2.81-10.64,2.81-6.96,0-8.76-4-16.69-4-5.8,0-12.91,3.21-16.31,4.93v-2.93h1c1.1,0,2-.9,2-2v-1.19c0-2.34-3.65-2.81-6-2.81s-6,.46-6,2.81v1.19c0,1.1,.9,2,2,2h1V63h6V28.58c.06-.02,.31-.08,.36,.25,.06,.35,1.34,8.52,1.89,12.02,3.75-1.72,9.33-3.85,14.06-3.85,7.93,0,9.74,4,16.69,4,5.19,0,10.44-2.15,12.76-3.25,.75-.35,1.21-1.12,1.15-1.94l-1.81-27.8Zm-13.87,8.43l.43,1.35h1.41l-1.15,.82,.43,1.33-1.13-.82-1.13,.82,.43-1.33-1.15-.82h1.41l.43-1.35Zm-3.81-2.02l.43-1.35,.43,1.35h1.42l-1.15,.83,.43,1.33-1.13-.83-1.13,.83,.43-1.33-1.15-.83h1.41Zm-9.25,0l.43-1.35,.43,1.35h1.41l-1.15,.83,.43,1.33-1.13-.82-1.13,.82,.43-1.33-1.15-.83h1.41Zm-3.38,3.39l.43-1.35,.43,1.35h1.41l-1.15,.82,.43,1.33-1.13-.82-1.13,.82,.43-1.33-1.15-.83h1.41Zm-2.66,4.61h1.42l.43-1.35,.43,1.35h1.41l-1.15,.82,.43,1.33-1.13-.82-1.13,.82,.43-1.33-1.15-.83Zm3.09,5.96l-1.13,.83,.43-1.33-1.15-.83h1.41l.43-1.35,.43,1.35h1.41l-1.15,.83,.43,1.33-1.13-.83Zm4.52,4.21l-1.13-.82-1.13,.82,.43-1.33-1.15-.83h1.42l.43-1.35,.43,1.35h1.41l-1.15,.83,.43,1.33Zm3.05-19.41l.43-1.35,.43,1.35h1.41l-1.15,.82,.43,1.33-1.13-.82-1.13,.82,.43-1.33-1.15-.83h1.41Zm1.56,20.63l-1.13-.82-1.13,.82,.43-1.33-1.15-.82h1.41l.43-1.35,.43,1.35h1.41l-1.15,.82,.43,1.33Zm4.61-1.23l-1.13-.82-1.13,.82,.43-1.33-1.15-.83h1.41l.43-1.35,.43,1.35h1.41l-1.15,.83,.43,1.33Zm2.95-4.72l.43,1.33-1.13-.83-1.13,.83,.43-1.33-1.15-.83h1.41l.43-1.35,.43,1.35h1.41l-1.15,.83Zm1.66-3.31l-1.13-.83-1.13,.83,.43-1.33-1.15-.83h1.41l.43-1.35,.43,1.35h1.41l-1.15,.82,.43,1.33Z"/></g></g></svg>