<?xml version="1.0" encoding="UTF-8"?><svg id="Laag_1" xmlns="http://www.w3.org/2000/svg" xmlns:xlink="http://www.w3.org/1999/xlink" viewBox="0 0 64 64"><defs><style>.cls-1{fill:none;}.cls-2{clip-path:url(#clippath);}.cls-3{clip-path:url(#clippath-1);}</style><clipPath id="clippath"><rect class="cls-1" width="64" height="64"/></clipPath><clipPath id="clippath-1"><rect class="cls-1" width="64" height="64"/></clipPath></defs><g class="cls-2"><g class="cls-3"><path d="M48,14H16c-1.1,0-2,.9-2,2V63h15v-9h6v9h15V16c0-1.1-.9-2-2-2M25,47h-6v-6h6v6Zm0-10h-6v-6h6v6Zm0-10h-6v-6h6v6Zm10,20h-6v-6h6v6Zm0-10h-6v-6h6v6Zm0-10h-6v-6h6v6Zm10,20h-6v-6h6v6Zm0-10h-6v-6h6v6Zm0-10h-6v-6h6v6Z"/><path d="M24.39,10.69c.99,0,1.85-.08,2.76-.27V6h-3.04v1.37h1.41v1.88c-.41,.04-.64,.06-1.06,.06-1.57,0-2.86-1.07-2.86-3.21s1.32-3.32,3.15-3.32c.73,0,1.25,.03,2,.14l.13-1.43c-.65-.13-1.23-.18-2.07-.18-2.8,0-4.97,1.58-4.97,4.96,0,2.94,1.85,4.43,4.55,4.43"/><path d="M33.28,10.69c.99,0,1.85-.08,2.76-.27V6h-3.04v1.37h1.42v1.88c-.41,.04-.65,.06-1.06,.06-1.57,0-2.86-1.07-2.86-3.21s1.32-3.32,3.15-3.32c.73,0,1.25,.03,2,.14l.13-1.43c-.65-.13-1.23-.18-2.07-.18-2.8,0-4.97,1.58-4.97,4.96,0,2.94,1.85,4.43,4.55,4.43"/><polygon points="43.66 9.19 39.3 9.19 39.3 9.14 43.63 2.76 43.63 1.41 37.62 1.41 37.62 2.81 41.69 2.81 41.69 2.86 37.37 9.24 37.37 10.59 43.66 10.59 43.66 9.19"/></g></g></svg>