<?xml version="1.0" encoding="UTF-8"?><svg id="Laag_1" xmlns="http://www.w3.org/2000/svg" xmlns:xlink="http://www.w3.org/1999/xlink" viewBox="0 0 64 64"><defs><style>.cls-1{fill:none;}.cls-2{clip-path:url(#clippath);}.cls-3{clip-path:url(#clippath-1);}</style><clipPath id="clippath"><rect class="cls-1" width="64" height="64"/></clipPath><clipPath id="clippath-1"><rect class="cls-1" width="64" height="64"/></clipPath></defs><g class="cls-2"><g class="cls-3"><path d="M51.29,45.26c-2.46-2.57-9.22-4.17-11.02-5.61v-.05c-.1-.84-.24-1.86-.38-2.84,2.02,.21,5.02,.57,6.92,1.24,.38,.13,.77-.12,.88-.54,1.01-4.1,1.81-8.05,1.81-12.24,0-7.22-2.62-14.91-6.69-17.76l.19-2.14c.04-.45-.12-.89-.43-1.2-1.17-1.16-4.09-3.12-10.56-3.12s-9.4,1.95-10.57,3.12c-.31,.31-.47,.75-.43,1.2l.19,2.19c-4.66,3.68-7.69,9.95-7.69,17.72,0,3.72,.56,7.15,1.82,12.24,.1,.42,.5,.67,.88,.54,1.82-.64,4.29-1.01,7.36-1.3-.11,.94-.24,2-.36,3.06-1.67,1.19-8.78,2.66-11.49,5.5-2.76,2.88-4.21,13.74-4.21,13.74H55.5s-1.45-10.86-4.21-13.74M32,3.5c5.14,0,7.56,1.36,8.49,2.1l-.72,8.4h-15.55l-.72-8.4c.93-.74,3.35-2.1,8.49-2.1m1.58,45.55c-.12,.06-.24,.12-.36,.17-.25,.12-.49,.23-.71,.32-.39,.17-.72,.3-.97,.39-1.49-.64-6.14-2.88-8.39-6.8,2.88-1.19,2.71-2.27,2.76-2.72,.07-.58,.58-5.32,.58-5.32-2.52-2.48-3.6-5.57-4.06-8.28-.29-1.73-.25-3.34-.16-4.41,3.62-1.43,8.39-3.98,11.64-6.56,1.37,2.38,3.77,4.91,6.84,6.92,.07,1.03,.07,2.47-.2,4.06-.53,3.18-2.82,7.63-5.34,9.18-1.72,1.06-4.87,1.23-6.71,.44,.42,.84,1.27,1.84,3.15,2.31,2.54,.63,4.85-.41,5.45-.75,.11,.8,.22,1.59,.29,2.28,.14,1.36,1.88,2.3,3.13,2.88-1.67,2.9-4.75,4.81-6.94,5.89"/><polygon points="31 12 33 12 33 10 35 10 35 8 33 8 33 6 31 6 31 8 29 8 29 10 31 10 31 12"/></g></g></svg>