<?xml version="1.0" encoding="UTF-8"?><svg id="Laag_1" xmlns="http://www.w3.org/2000/svg" xmlns:xlink="http://www.w3.org/1999/xlink" viewBox="0 0 64 64"><defs><style>.cls-1{fill:none;}.cls-2{clip-path:url(#clippath);}.cls-3{clip-path:url(#clippath-1);}</style><clipPath id="clippath"><rect class="cls-1" width="64" height="64"/></clipPath><clipPath id="clippath-1"><rect class="cls-1" width="64" height="64"/></clipPath></defs><g class="cls-2"><g class="cls-3"><path d="M55,52c0-1.1-.9-2-2-2h-11c-1.1,0-2,.9-2,2v.45c4.61,.53,9.69,1.24,15,2.17v-2.63Z"/><path d="M17.57,53.01c-3.18,0-4.79,2.02-4.79,4.5s1.79,4.49,4.79,4.49h18.74s.55-3.71-4.58-4.21c-3.77-.37-10.9-.62-13.37-.74-.08-.21,.08-.41,.54-.46,.49-.06,9.22-1.1,13.73-.65,4.48,.45,5.91,3.78,5.79,6.06h18.65c3.93-.07,5.23-2.19,5.65-3.63-22.85-4.9-43.98-5.36-45.14-5.36"/><path d="M6.51,53.01c-3.31,.03-5.06,1.77-5.04,4.55,.03,2.92,2.14,4.48,5.12,4.45,3.14-.03,4.9-1.7,4.88-4.55-.03-2.85-2.06-4.48-4.96-4.45"/><path d="M29,2H8V21H29V2ZM14,18h-3V5h3v13Zm6,0h-3V5h3v13Zm6,0h-3V5h3v13Z"/></g></g></svg>