<?xml version="1.0" encoding="UTF-8"?><svg id="Laag_1" xmlns="http://www.w3.org/2000/svg" viewBox="0 0 64 64"><defs><style>.cls-1{fill:none;}</style></defs><rect class="cls-1" width="64" height="64"/><g><path d="m25.55,37.63h-15.71c-.46,0-.81.15-.79.31.34,2.12,4.08,3.17,8.64,3.17s8.31-1.06,8.64-3.17c.03-.17-.33-.31-.79-.31Z"/><path d="m54.46,37.63h-15.71c-.46,0-.81.15-.79.31.34,2.12,4.08,3.17,8.64,3.17s8.31-1.06,8.64-3.17c.03-.17-.33-.31-.79-.31Z"/><path d="m52.44,14.58c-2.17-.94-4.5-1.66-6.84-1.98-1.98-.27-3.97.02-5.88.57-1.06.3-2.08.77-3.13,1.13,0,0,0,0,0,0-.05.02-.12.04-.17.06-.16.05-.32.1-.48.15-.37.1-.77.19-1.13.24-.09.01-.17.03-.26.04-.09.01-.17.02-.25.02-.03,0-.06,0-.09,0-.19,0-.32-.02-.35-.07,0,0,1.35-.35,2.7-1.24-.03-.23-.08-.47-.16-.7-.69-2.04-2.89-3.14-4.93-2.45-1.73.58-2.76,2.25-2.63,3.99-.75-.17-1.49-.36-2.2-.58-.07-.02-.13-.04-.19-.06-1.21-.41-2.46-.84-3.91-1.13-4.01-.8-9.88,1.64-10.54,1.93-.98.42-1.44,1.56-1.02,2.54.59,1.38,1.96,1.24,3.13.82,2.29-.83,5.19-1.98,7.67-1.49,1.2.24,2.28.61,3.42.99,1.47.5,3.06.99,4.67,1.31v28.02h-5.16c-1.9,0-3.44,1.54-3.44,3.44v1.72h22.38v-1.72c0-1.9-1.54-3.44-3.44-3.44h-5.17v-27.86c.14-.02.27-.05.41-.08,2.14-.47,4.13-1.46,6.22-2.11,2.35-.73,5.18-.36,7.4.62,1.39.61,3.51,1.92,4.4-.14.11-.25.16-.5.16-.75,0-.75-.43-1.48-1.17-1.79Z"/><path d="m51.82,33.68s.95-1.48.83-3.71c-.12-2.21-2.26-4.56-3.59-5.81.35-.11.55-.47.55-.91,0-.52-.28-.95-.77-.95h-.22c.29-.35.86-.92,1.04-1.35.39-.9-.61-1.13-1.95-1.5v-1.08c0-1.25-4.58.46-4.19,1.83.23.81.77,1.65,1.08,2.09h-.23c-.49,0-.77.42-.77.95s.28.95.77.95h1.89s.02.08-.08.12c-.06.02-1.61.31-2.71.52-1.27,1.32-2.81,3.28-2.91,5.14-.12,2.23.83,3.71.83,3.71l-.83,1.32c-.33.53.05,1.21.67,1.21h10.74c.62,0,1-.68.67-1.21l-.83-1.32Zm-3.21-.44c-.6.14-.89.18-1.47.18-1.52,0-2.59-.74-2.91-2.36h-.74v-.83h.66v-.23c0-.2,0-.4.02-.59h-.68v-.84h.81c.39-1.64,1.51-2.47,3.03-2.47.43,0,.77.03,1.22.13v1.15c-.54-.1-.82-.14-1.26-.14-.83,0-1.38.45-1.62,1.33h1.99v.84h-2.13c-.01.15-.01.31-.01.46,0,.13,0,.25.01.36h2.13v.83h-2c.25.9.84,1.27,1.56,1.27.51,0,.81-.04,1.38-.16v1.08Z"/><path d="m24.84,29.28c0,3.89-3.15,7.04-7.04,7.04s-7.04-3.15-7.04-7.04,3.15-7.04,7.04-7.04,7.04,3.15,7.04,7.04Zm-5.15,2.36c-.56.12-.85.16-1.35.16-.71,0-1.29-.37-1.53-1.25h1.96v-.82h-2.09c-.01-.11-.01-.23-.01-.35,0-.15,0-.3.01-.45h2.09v-.83h-1.95c.24-.87.77-1.31,1.59-1.31.43,0,.71.04,1.23.14v-1.13c-.45-.1-.78-.13-1.2-.13-1.49,0-2.59.82-2.97,2.43h-.79v.83h.67c-.02.18-.02.39-.02.58v.23h-.64v.82h.73c.31,1.59,1.36,2.32,2.86,2.32.57,0,.85-.03,1.44-.17v-1.06Z"/></g></svg>