<?xml version="1.0" encoding="UTF-8"?><svg id="Laag_1" xmlns="http://www.w3.org/2000/svg" xmlns:xlink="http://www.w3.org/1999/xlink" viewBox="0 0 64 64"><defs><style>.cls-1{fill:none;}.cls-2{clip-path:url(#clippath);}.cls-3{clip-path:url(#clippath-1);}</style><clipPath id="clippath"><rect class="cls-1" width="64" height="64"/></clipPath><clipPath id="clippath-1"><rect class="cls-1" width="64" height="64"/></clipPath></defs><g class="cls-2"><g class="cls-3"><path d="M33,45.26l-10.11,12.74h11.09c-.62-.71-.97-1.63-.97-2.61v-10.13Z"/><path d="M40,22c0-.74,0-2.7-1.23-4.04,.14-1.55,.24-3.05,.2-4.42,1.85-1.45,3.03-3.06,3.03-4.55,0-5.33-7.16-8-16-8S10,3.67,10,9c0,1.39,1.17,2.9,2.96,4.28,.04,1.42,.15,4.03,.21,4.77-1.16,1.33-1.16,3.23-1.16,3.96,0,2.39,.74,4.33,2.06,5.55,.38,2.51,1.61,4.91,3.71,7.26-.07,.51-.14,1.09-.22,1.69l-7,2.25c-.93,.3-1.15,1.06-1.58,1.95-1.49,.74-2.81,1.56-3.59,2.41-2.87,3.12-4.39,14.89-4.39,14.89H15.4l12.81-16.15c-.71,.1-1.46,.15-2.22,.15-3.08,0-5.81-2.23-5.53-4.45,.24-1.89,.33-2.45,.57-3.67-2.28-2.2-4.1-4.87-4.1-8.06-1.62-.5-2.04-2.55-2.04-3.82s.32-1.96,.77-2.17c.39-.19,.77-.05,1.01,.09,.14,.65,.25,1.14,.29,1.31,.21,.85,1.02,.77,1.02,.77v-3.6c1.82,.97,4.72,1.61,8,1.61s6.18-.63,8-1.61v3.6s.82,.08,1.02-.77c.04-.17,.15-.66,.29-1.31,.24-.14,.62-.27,1.01-.09,.45,.21,.77,.9,.77,2.17s-.42,3.31-2.04,3.82c0,3.7-2.53,6.5-5.34,8.88-.78,.66-2.25,1.11-3.72,1.1-1.06,0-2.12-.29-2.93-.63,.61,.93,1.66,2.07,3.58,2.58,2.36,.62,4.25-.2,5.04-.65,.85-.47,2.93-2.73,3.64-3.7h0c1.4-1.9,2.27-3.86,2.59-5.85,1.33-1.22,2.07-3.17,2.07-5.56m-4.32-8.15c-1.11-1.72-5.01-2.83-9.67-2.83s-8.56,1.11-9.67,2.83c-.21-.32-.33-.65-.33-1,0-2.21,4.48-4,10-4s10,1.79,10,4c0,.35-.12,.68-.33,1"/><path d="M62.28,37.79l-4.05-1.2-12.58,4.46c-.39,.14-.66,.52-.66,.94v7.02l-4-1.81v-6.64c0-.42,.26-.79,.65-.94l12.16-4.34-3.75-1.11c-.37-.11-.77-.11-1.14,0l-12.22,3.62c-.42,.13-.72,.52-.72,.96v16.65c0,.37,.21,.72,.54,.89l12.04,6.24c.58,.3,1.26,.3,1.84,0l12.04-6.24c.33-.17,.54-.51,.54-.89v-16.65c0-.44-.29-.83-.72-.96m-7.47,11.12l1.65,2.5-.98,.52v2.67l-1.28,.65v-2.64l-.98,.52,1.6-4.22Zm4.97,5.54l-6.25,3.06v-1.07l6.25-3.12v1.12Zm-.73-4.41v2.76l-1.36,.69v-2.72l-1.04,.55,1.7-4.37,1.74,2.55-1.04,.55Z"/></g></g></svg>