<?xml version="1.0" encoding="UTF-8"?><svg id="Laag_1" xmlns="http://www.w3.org/2000/svg" xmlns:xlink="http://www.w3.org/1999/xlink" viewBox="0 0 64 64"><defs><style>.cls-1{fill:none;}.cls-2{clip-path:url(#clippath);}.cls-3{clip-path:url(#clippath-1);}</style><clipPath id="clippath"><rect class="cls-1" width="64" height="64"/></clipPath><clipPath id="clippath-1"><rect class="cls-1" width="64" height="64"/></clipPath></defs><g class="cls-2"><g class="cls-3"><path d="M28.41,8.74c.17,.13,.4,.11,.55-.04h0c.14-.16,.15-.4,.01-.56l-.94-1.12c-.14-.17-.4-.18-.56-.01l-.28,.3c-.15,.16-.13,.42,.05,.55l1.17,.88Z"/><path d="M26.76,11.71l1.42-.34c.2-.05,.34-.24,.31-.45h0c-.02-.22-.2-.37-.41-.37l-1.46,.02c-.22,0-.39,.2-.37,.42l.05,.41c.03,.22,.24,.37,.46,.32"/><path d="M35.13,8.69c.14,.15,.38,.17,.55,.05l1.17-.88c.18-.13,.2-.39,.05-.55l-.28-.3c-.15-.16-.41-.15-.55,.02l-.95,1.12c-.13,.16-.13,.4,.02,.55h0Z"/><path d="M35.59,10.91h0c-.02,.22,.11,.41,.31,.46l1.43,.34c.22,.05,.43-.1,.45-.32l.05-.41c.03-.22-.14-.42-.36-.42l-1.46-.02c-.21,0-.39,.15-.41,.36"/><path d="M31.95,7.65h0c.21,0,.39-.16,.41-.37l.16-1.46c.02-.22-.15-.41-.37-.41h-.41c-.22,0-.39,.19-.37,.41l.16,1.45c.02,.21,.2,.37,.41,.37"/><path d="M34.87,12.78h-3.63s-.06-.31,.4-.37c1.78-.25,2.62-.38,3.03-.43l-.74-2.96c-.05-.19-.22-.32-.41-.32h-2.97c-.19,0-.36,.13-.41,.32l-.95,3.76h-11.81V57.72h3.46l1.5-2.09V18.07c-.23-.31-.74-.99-1.86-2.48-.28-.37-.02-.54-.02-.54l2.42,2.42h18.27l2.42-2.42s.26,.17-.02,.54c-1.14,1.52-1.65,2.2-1.87,2.5V55.62l1.5,2.09h3.46V12.78h-11.75Z"/><path d="M31.95,26.58c1.6,0,2.53-1.13,2.53-2.75,0-1.85-.97-2.84-2.53-2.84-1.65,0-2.53,1.17-2.53,2.84,0,1.76,.93,2.75,2.53,2.75"/><path d="M35.04,28.19c-1.87-.44-4.37-.44-6.19,0-3.56,.88-3.33,6.52-3.33,11.4,.12,1.71,1.37,2.2,2.13,2.2v-5.13c0-1.93,.19-3.44,.42-4.19,.07-.23,.23-.19,.23-.19v23.41s2.72,.02,2.93-2.83c0,0,.41-11.23,.41-11.35,0-.12,.09-.28,.29-.28s.28,.16,.29,.28c0,.12,.41,11.27,.41,11.27,.16,2.93,2.94,2.91,2.94,2.91v-23.41s.17-.06,.25,.19c.23,.67,.4,2.26,.4,4.16v5.16c.75,0,1.99-.47,2.13-2.2,0-4.88,.24-10.55-3.33-11.4"/></g></g></svg>