<?xml version="1.0" encoding="UTF-8"?><svg id="Laag_1" xmlns="http://www.w3.org/2000/svg" xmlns:xlink="http://www.w3.org/1999/xlink" viewBox="0 0 64 64"><defs><style>.cls-1{fill:none;}.cls-2{clip-path:url(#clippath);}.cls-3{clip-path:url(#clippath-1);}</style><clipPath id="clippath"><rect class="cls-1" width="64" height="64"/></clipPath><clipPath id="clippath-1"><rect class="cls-1" width="64" height="64"/></clipPath></defs><g class="cls-2"><g class="cls-3"><path d="M13.5,11.98c3.14,0,4.95-2.21,4.95-5.39,0-3.62-1.9-5.57-4.95-5.57-3.22,0-4.95,2.3-4.95,5.57,0,3.45,1.82,5.39,4.95,5.39"/><path d="M47.5,11.98c3.14,0,4.95-2.21,4.95-5.39,0-3.62-1.9-5.57-4.95-5.57-3.22,0-4.95,2.3-4.95,5.57,0,3.45,1.82,5.39,4.95,5.39"/><rect x="27" y="31" width="35" height="4"/><path d="M44,25.13c0-.7-.37-1.35-.97-1.71l-4.03-2.42v-6c0-.55-.45-1-1-1h-10c-.55,0-1,.45-1,1v14h17v-3.87Z"/><path d="M27.5,39.97c0-1.88-1.05-3.49-2.53-4.15,0-8.68,.39-19.61-5.94-21.12-3.34-.8-7.81-.8-11.05,0-6.36,1.56-5.94,11.65-5.94,20.36,.21,3.05,2.45,3.92,3.8,3.92v-9.17c0-3.45,.34-6.14,.76-7.48,.13-.41,.41-.33,.41-.33V63s4.86,.04,5.24-5.05c0,0,.73-19.24,.74-19.46,0-.21,.17-.49,.53-.49s.51,.28,.52,.49c0,.21,.73,19.32,.73,19.32,.29,5.24,5.25,5.19,5.25,5.19v-7h10v-16h-2.5s0-.02,0-.03m-6.33-3.61c-.48,.39-.88,.9-1.17,1.49v-15.85s.3-.1,.45,.33c.41,1.2,.72,4.03,.72,7.44v6.59Zm4.33,3.64h-4s0-.02,0-.03c0-1.36,.9-2.47,2-2.47s2,1.11,2,2.47c0,.01,0,.02,0,.03"/><path d="M46,25.13v3.87h7.95v-7s.3-.1,.45,.33c.38,1.11,.66,3.62,.71,6.67h3.79c-.14-6.82-1-13.12-5.92-14.3-1.64-.39-3.56-.58-5.47-.59-1.91,0-3.83,.2-5.47,.59-.37,.09-.71,.21-1.03,.36v4.81l3.06,1.84c1.2,.72,1.94,2.03,1.94,3.43"/></g></g></svg>