<?xml version="1.0" encoding="UTF-8"?><svg id="Laag_1" xmlns="http://www.w3.org/2000/svg" xmlns:xlink="http://www.w3.org/1999/xlink" viewBox="0 0 64 64"><defs><style>.cls-1{fill:none;}.cls-2{clip-path:url(#clippath);}.cls-3{clip-path:url(#clippath-1);}</style><clipPath id="clippath"><rect class="cls-1" width="64" height="64"/></clipPath><clipPath id="clippath-1"><rect class="cls-1" width="64" height="64"/></clipPath></defs><g class="cls-2"><g class="cls-3"><path d="M55,13h-6.92l-1.71,5.75c-.1,.33-.37,.22-.37,.22v-5.97h0c-.01-1.26-.06-3.35-.18-4.12-.11-.67-.23-1.88-1.2-1.88h-2.85c-.97,0-1.18,1.23-1.28,1.89-.13,.77-.3,2.85-.4,4.11h-16l-1.71,5.75c-.11,.33-.37,.22-.37,.22v-5.97h0c-.01-1.26-.06-3.35-.18-4.12-.11-.67-.23-1.88-1.2-1.88h-2.85c-.97,0-1.18,1.23-1.28,1.89-.13,.77-.3,2.85-.4,4.11h-7.08c-1.11,0-2,.9-2,2V55c0,1.1,.89,2,2,2H55c1.1,0,2-.9,2-2V15c0-1.1-.9-2-2-2m-3,39H12V26H52v26Z"/><rect x="16" y="31" width="8" height="6"/><rect x="28" y="31" width="8" height="6"/><rect x="40" y="31" width="8" height="6"/><rect x="16" y="41" width="8" height="6"/><rect x="28" y="41" width="8" height="6"/><rect x="40" y="41" width="8" height="6"/></g></g></svg>