<?xml version="1.0" encoding="UTF-8"?><svg id="Laag_1" xmlns="http://www.w3.org/2000/svg" viewBox="0 0 64 64"><defs><style>.cls-1{fill:none;}</style></defs><rect class="cls-1" width="64" height="64"/><g><path d="m28.14,36.64c-.54-.15-.62-.69-.68-1.25.73-.82,1.27-1.8,1.46-3.11.7-.22.84-1.09.84-1.63s-.1-.84-.29-.93c-.09-.04-.19-.04-.27-.03.07-1.14.14-3.38-.33-4.23-.52-.92-1.2-1.16-2.4-.86-.79-.42-1.32-.83-2.7-.45-.96.26-2,.69-2.56,1.4-.59.77-.48,3-.38,4.15-.09-.02-.19-.03-.3.02-.2.09-.29.39-.29.93s.14,1.42.84,1.63c.17,1.38.72,2.33,1.46,3.13-.05.48-.1.94-.52,1.16-.92.25-3.8,1.09-4.71,2.04-1.08,1.14-1.5,5.39-1.5,5.39h18.38s-.41-4.25-1.49-5.39c-.83-.88-3.41-1.66-4.56-1.97Z"/><path d="m10,24.29l-3.15-.93c-.34-.11-.22-.36-.22-.36h14.37c.55,0,1-.45,1-1V7.63s.25-.11.36.23l.93,3.14h16.71v21.02c1.45-1.18,3.15-2.05,5-2.55V8c0-1.1-.9-2-2-2h-21.17c-.53,0-1.04.21-1.41.59l-14.83,14.83c-.37.38-.59.88-.59,1.41v31.17c0,1.1.9,2,2,2h26v-5H10v-26.71Z"/><path d="m59.9,46h-.9v-3.5c0-5.8-4.7-10.5-10.5-10.5s-10.5,4.7-10.5,10.5v3.5h-.9c-.6,0-1.1.5-1.1,1.1v13.8c0,.6.4,1,.9,1.1,1.8.3,6.1,1,11.6,1s9.7-.6,11.6-1c.5-.1.9-.6.9-1.1v-13.8c0-.6-.5-1.1-1.1-1.1Zm-9.9,8.5v4.5h-3v-4.5c-.6-.5-1-1.2-1-2,0-1.4,1.1-2.5,2.5-2.5s2.5,1.1,2.5,2.5c0,.8-.4,1.5-1,2Zm4-8.5h-11v-3.5c0-3,2.5-5.5,5.5-5.5s5.5,2.5,5.5,5.5v3.5Z"/></g></svg>