<?xml version="1.0" encoding="UTF-8"?><svg id="Laag_1" xmlns="http://www.w3.org/2000/svg" xmlns:xlink="http://www.w3.org/1999/xlink" viewBox="0 0 64 64"><defs><style>.cls-1{fill:none;}.cls-2{clip-path:url(#clippath);}.cls-3{clip-path:url(#clippath-1);}</style><clipPath id="clippath"><rect class="cls-1" width="64" height="64"/></clipPath><clipPath id="clippath-1"><rect class="cls-1" width="64" height="64"/></clipPath></defs><g class="cls-2"><g class="cls-3"><path d="M32.56,22.59l-.44-6.2c-.05-.44-.36-.76-.8-.76s-.76,.28-.79,.76l-.53,7.3c0,.68,.52,1.25,1.19,1.31,.04,.02,7.02-.5,7.02-.5,.46-.04,.79-.24,.79-.68s-.31-.64-.79-.68h.02l-5.67-.56Z"/><path d="M52.23,44.76c-2.77,.95-6.37,2.41-9.22,3.61,.07,.43,.08,.89,.01,1.38-.41,2.81-2.82,4.58-6.24,4.74-7.73,.36-12.53-1.56-13.53-1.96-.29-.12-.32-.26-.29-.39h.01c5.6,.95,9.12,1.11,13.46,.41,3.29-.53,4.49-2.11,4.46-3.41-.03-1.27-.93-2.04-2.95-2.11-6.89-.24-10.92-1.01-16.82-1.87-4.1-.6-8.06,.47-11.43,2.63-3.16,2.03-4.04,2.98-4.04,2.98l5.79,11.14,7.48-3.04c.85-.35,1.78-.45,2.69-.3l10.26,2.28c2.29,.38,4.64-.06,6.64-1.22l20.48-12.85s-1-4.02-6.76-2.04"/><path d="M12.16,24.47l2.78-1.16s.15-1.64,1.01-3.2c.18-.32,.33-.22,.33-.22l.02,.02c-1,5.06,.45,10.49,4.37,14.41,6.25,6.25,16.38,6.25,22.63,0,6.25-6.25,6.25-16.38,0-22.63-5.25-5.25-13.24-6.09-19.35-2.51-.91,.53-2.19,1.41-.74,3.42,1.14,1.58,1.81,1.48,2.79,.99,.25-.13,.65-.33,.93-.48,4.17-2.14,9.42-1.46,12.91,2.03,4.34,4.34,4.34,11.37,0,15.71-4.34,4.34-11.37,4.34-15.71,0-2.03-2.03-3.1-4.66-3.23-7.32l3.31,2.45c.6,.44,1.42,.41,1.96-.09,.54-.49,.64-1.31,.25-1.94l-5.87-9.43c-.25-.4-.67-.67-1.14-.73-.47-.06-.94,.1-1.27,.43l-7.7,7.72c-.25,.25-.4,.57-.43,.91-.04,.36,.05,.73,.26,1.04,.42,.62,1.21,.86,1.89,.57"/></g></g></svg>