<?xml version="1.0" encoding="UTF-8"?><svg id="Laag_1" xmlns="http://www.w3.org/2000/svg" xmlns:xlink="http://www.w3.org/1999/xlink" viewBox="0 0 64 64"><defs><style>.cls-1{fill:none;}.cls-2{clip-path:url(#clippath);}.cls-3{clip-path:url(#clippath-1);}</style><clipPath id="clippath"><rect class="cls-1" width="64" height="64"/></clipPath><clipPath id="clippath-1"><rect class="cls-1" width="64" height="64"/></clipPath></defs><g class="cls-2"><g class="cls-3"><path d="M40.1,53.15c-.47-3.01,1.31-6.44,2.42-8.23,.46-.74,1.28-1.19,2.28-1.07,.31-1.52,1.03-2.73,1.53-3.41,.5-.68,1.36-1.09,2.33-.9,.18-.74,.59-1.95,1.02-2.57-1.44-1-3.44-1.94-4.38-2.05-1.15-.13-3.29,.4-4.54,.74-.02-.14-.05-.28-.07-.42,1.79-2.17,2.89-4.4,3.25-6.7,1.33-1.22,2.07-3.17,2.07-5.56,0-.72,0-2.57-1.12-3.9,2.51,.27,4.63,.53,5.84,.69,.6,.08,1.14-.35,1.2-.95,.06-.53-.28-1.02-.8-1.15l-6.05-1.57s-.96-5.76-4.06-11.9c-.52-1.03-1.75-1.49-2.81-1.06-3.63,1.49-6.21,3.22-6.21,3.22,0,0-2.58-1.73-6.21-3.22-1.06-.43-2.29,.03-2.81,1.06-3.1,6.13-4.06,11.9-4.06,11.9l-6.05,1.57c-.51,.13-.85,.62-.8,1.15,.06,.6,.6,1.03,1.2,.95,1.21-.16,3.33-.42,5.84-.69-1.11,1.33-1.12,3.18-1.12,3.9,0,2.39,.74,4.33,2.06,5.55,.38,2.51,1.61,4.91,3.71,7.26,0,.03,0,.06-.01,.09-1.35-.44-3.53-1.06-5.05-.97-1.69,.09-5.05,1.4-5.15,2.34-.08,.76,2.07,1.4,4.94,2.92-2.76,1.05-5.74,2.43-7.12,3.92-2.87,3.12-4.39,14.89-4.39,14.89h31.1c.27-.35,.57-.67,.95-.92,.96-.64,1.64-1.09,2.28-1.56-.63-1.01-1.06-2.14-1.25-3.36m-8.1-8.99c-1.58,0-3.06-.24-4.32-.66,.56,3.43,2.32,6.85,4.34,9.35-.02,.21-.55-.01-.93-.28-4.55-3.19-6.01-10.38-6.01-10.38,1.28-2.17,1.54-4.68,1.97-7.32-2.28-2.2-4.1-4.87-4.1-8.06-1.62-.5-2.04-2.55-2.04-3.82s.32-1.96,.77-2.17c.39-.18,.77-.05,1.01,.09,.14,.65,.25,1.14,.29,1.31,.21,.85,1.02,.77,1.02,.77v-4.35c2.73-.22,5.55-.38,8-.38s5.27,.16,8,.38v4.35s.82,.08,1.02-.77c.04-.17,.15-.66,.29-1.31,.24-.14,.62-.27,1.01-.09,.45,.21,.77,.9,.77,2.17s-.42,3.31-2.04,3.82c0,3.7-2.53,6.5-5.34,8.89-1.2,1.02-3.99,1.62-6.65,.47,.61,.93,1.66,2.07,3.58,2.58,3.16,.84,5.46-.91,5.46-.91,.17,1.17,.33,2.61,1.04,4.17-1.51,1.29-4.15,2.15-7.15,2.15"/><path d="M57.57,53.95c-.94-.12-2.94-.33-4.95-.18-2.77,.2-4.01,.35-5.47,1.18,.36-2.27,0-5.41-2.37-8.98-.14-.2-.44-.2-.56,0-.71,1.15-2.53,4.38-2.14,6.87,.25,1.63,1.02,2.96,2.07,3.95-1.32,1.17-2.25,1.79-3.98,2.94-.97,.64-1.17,1.98-.31,2.77,.6,.55,1.55,.68,2.18,.15,1.52-1.28,2.69-2.44,4.32-4.43,2.05,.89,4.49,.95,6.59,.05,1.87-.8,3.87-2.62,4.84-3.8,.16-.2,.04-.5-.22-.54"/><path d="M60.32,41.59c.6-1.04,.6-2.4,.29-3.88-.03-.15-.17-.27-.32-.27-1.55,0-3.83,.42-4.47,1.7-.75,1.49-.04,3.08-.47,5.22,2.25-1.64,4.03-1.13,4.97-2.77"/><path d="M53.93,43.16c-.08-2.07-1.55-4.22-2.18-5.04-.13-.17-.4-.15-.49,.05-.36,.74-1.05,2.4-.82,3.99,.31,2.13,1.48,3,1.84,5.53,0,0,1.75-1.88,1.65-4.52"/><path d="M62.42,44.72c-.88-.11-3.27-.27-5.62,.71-2.23,.93-3.67,2.75-3.67,2.75,1.75-.61,3.5-.7,5.18-.59,2.09,.15,3.82-1.23,4.34-2.47,.08-.18-.04-.38-.23-.4"/><path d="M47.93,41.63c-.55,.74-1.44,2.27-1.28,4.13,.23,2.54,1.55,2.92,2.03,6.22,0,0,2.3-2.6,1.93-4.8-.35-2.1-1.31-3.1-2.1-5.45-.08-.25-.42-.31-.58-.09"/><path d="M60.98,49.45c-.96-.3-3.39-.88-5.96-.16-3.32,.93-5.74,3.54-5.74,3.54,3.25-.85,5.35-.26,7.91-.42,1.82-.11,3.03-1.2,3.97-2.44,.14-.18,.05-.45-.17-.51"/></g></g></svg>