<?xml version="1.0" encoding="UTF-8"?><svg id="Laag_1" xmlns="http://www.w3.org/2000/svg" xmlns:xlink="http://www.w3.org/1999/xlink" viewBox="0 0 64 64"><defs><style>.cls-1{fill:none;}.cls-2{clip-path:url(#clippath);}.cls-3{clip-path:url(#clippath-1);}</style><clipPath id="clippath"><rect class="cls-1" width="64" height="64"/></clipPath><clipPath id="clippath-1"><rect class="cls-1" width="64" height="64"/></clipPath></defs><g class="cls-2"><polygon points="13 39 13 60 29 60 29 47 31 47 31 60 33 60 33 47 35 47 35 60 37 60 37 47 39 47 39 60 41 60 41 47 43 47 43 60 45 60 45 47 47 47 47 60 63 60 63 39 13 39"/><path d="M58,5h-25V37h25V5Zm-15,28h-4v-4h4v4Zm0-9h-4v-4h4v4Zm0-9h-4v-4h4v4Zm9,18h-4v-4h4v4Zm0-9h-4v-4h4v4Zm0-9h-4v-4h4v4Z"/><g class="cls-3"><path d="M20.04,30.31l-3.18,.7c-1.32,.29-1.25,2.19,.06,2.41l8.65,1.46c.78,.13,1.48-.5,1.43-1.29l-.59-8.75c-.09-1.34-1.97-1.58-2.39-.3l-1.01,3.07c-2.11-2.61-5.29-4.18-8.72-4.18-6.21,0-11.26,5.05-11.26,11.26v12.32h3.97v-12.32c0-4,3.26-7.26,7.26-7.26,2.3,0,4.42,1.09,5.78,2.89"/></g></g></svg>