<?xml version="1.0" encoding="UTF-8"?><svg id="Laag_1" xmlns="http://www.w3.org/2000/svg" xmlns:xlink="http://www.w3.org/1999/xlink" viewBox="0 0 64 64"><defs><style>.cls-1{fill:none;}.cls-2{clip-path:url(#clippath);}.cls-3{clip-path:url(#clippath-1);}</style><clipPath id="clippath"><rect class="cls-1" width="64" height="64"/></clipPath><clipPath id="clippath-1"><rect class="cls-1" width="64" height="64"/></clipPath></defs><g class="cls-2"><g class="cls-3"><path d="M32,8c-13.25,0-24,10.74-24,24s10.75,24,24,24,24-10.74,24-24-10.75-24-24-24m-11.24,22c0-1.79,1.45-3.24,3.24-3.24s3.24,1.45,3.24,3.24-1.45,3.24-3.24,3.24-3.24-1.45-3.24-3.24m17.89,12.7c-.66,1.5-2.43,4.19-6.65,4.19s-5.99-2.69-6.65-4.19c-.17-.39,.19-.8,.59-.68,1.19,.35,3.39,.86,6.06,.86s4.87-.52,6.06-.86c.41-.12,.76,.29,.59,.68m1.35-9.46c-1.79,0-3.24-1.45-3.24-3.24s1.45-3.24,3.24-3.24,3.24,1.45,3.24,3.24-1.45,3.24-3.24,3.24"/></g></g></svg>