<?xml version="1.0" encoding="UTF-8"?><svg id="Laag_1" xmlns="http://www.w3.org/2000/svg" xmlns:xlink="http://www.w3.org/1999/xlink" viewBox="0 0 64 64"><defs><style>.cls-1{fill:none;}.cls-2{clip-path:url(#clippath);}.cls-3{clip-path:url(#clippath-1);}</style><clipPath id="clippath"><rect class="cls-1" width="64" height="64"/></clipPath><clipPath id="clippath-1"><rect class="cls-1" width="64" height="64"/></clipPath></defs><g class="cls-2"><g class="cls-3"><path d="M62,18h-23v-1.4c0-1.57-.65-3.08-1.79-4.16l-4.12-3.9c-.8-.76-2.07-.72-2.83,.08-.76,.8-.72,2.07,.08,2.83l4.12,3.9c.34,.33,.54,.78,.54,1.25v23.4h-6.39c-1.2,0-2.22-.81-2.5-1.98l-3.55-14.96c-1.08,0-2.11-.01-2.33-.01-.47,0-.54-.44-.54-.45,1.67-.66,4.72-1.88,5.67-2.25,1.33-.52,1.09-2.31-.32-2.31h-8.11c-.71,0-1.39,.4-1.74,1.09-1.21,2.35,2.49,3.63,3.24,3.87l.57,2.38-8.33,11.7c-.49,.68-.67,1.32-.67,1.93,0,1.3,.82,2.39,1.97,2.81,.15,.06,.42,.15,1.22,.25l5.34,.72c-1.08,2.54-3.59,4.32-6.53,4.32-3.92,0-7.1-3.18-7.1-7.1,0-3.63,2.73-6.62,6.25-7.04l2.7-3.79c-.6-.1-1.22-.17-1.85-.17-6.07,0-11,4.93-11,11s4.93,11,11,11c4.92,0,9.08-3.23,10.49-7.69l4.17,.56c.88,.12,1.84,.13,3,.13h8.35c-.03-.33-.05-.66-.05-1,0-5.55,4.5-10.05,10.05-10.05s10.05,4.5,10.05,10.05c0,.34-.02,.67-.05,1h1.43c.95,0,1.77-.66,1.96-1.59,.57-2.81,1.57-9.68,1.61-23.4,0-.55-.45-1.01-1-1.01M16.34,36l3.88-5.45,1.29,5.45h-5.18Z"/><path d="M48,35c-4.42,0-8,3.58-8,8s3.58,8,8,8,8-3.58,8-8-3.58-8-8-8m0,12.1c-2.26,0-4.1-1.83-4.1-4.1s1.84-4.1,4.1-4.1,4.1,1.84,4.1,4.1-1.84,4.1-4.1,4.1"/></g></g></svg>