<?xml version="1.0" encoding="UTF-8"?><svg id="Laag_1" xmlns="http://www.w3.org/2000/svg" xmlns:xlink="http://www.w3.org/1999/xlink" viewBox="0 0 64 64"><defs><style>.cls-1{fill:none;}.cls-2{clip-path:url(#clippath);}.cls-3{clip-path:url(#clippath-1);}</style><clipPath id="clippath"><rect class="cls-1" width="64" height="64"/></clipPath><clipPath id="clippath-1"><rect class="cls-1" width="64" height="64"/></clipPath></defs><g class="cls-2"><g class="cls-3"><path d="M23.5,48c.83,0,1.5-.67,1.5-1.5s-.67-1.5-1.5-1.5-1.5,.67-1.5,1.5,.67,1.5,1.5,1.5m35-2.32l-2.53-.66c.13-1.33-.06-2.55-.57-3.6l2.83-3.57c.34-.43,.27-1.06-.16-1.41l-1.57-1.24c-.43-.34-1.06-.27-1.4,.16l-2.51,3.17c-.87-.49-1.81-.77-2.79-.84l-.65-3.02c-.11-.54-.65-.88-1.19-.77l-1.95,.42c-.54,.12-.88,.65-.77,1.19l.64,2.99c-.65,.31-1.22,.7-1.73,1.12l-2.54-3.25c-.34-.44-.97-.51-1.4-.17l-1.58,1.23c-.44,.34-.51,.97-.17,1.4l3.1,3.96c-.41,.54-.74,.85-1.22,1.14-.32,.19-1.21,.35-1.9,.46l-.62-2.09c-.16-.53-.72-.83-1.24-.67l-1.92,.57c-.53,.16-.83,.72-.67,1.24l.63,2.11c-.54,.32-1.02,.7-1.43,1.14l-3.43-2.02c-.48-.28-1.09-.12-1.37,.35l-1.02,1.72c-.28,.48-.12,1.09,.36,1.37l3.82,2.25c-.07,.81,.01,1.66,.26,2.52l-3.03,1.8c-.47,.28-.63,.9-.35,1.37l1.02,1.72c.28,.48,.9,.63,1.37,.35l3.2-1.9c.61,.49,1.33,.9,2.14,1.2,.1,.04,.21,.07,.32,.1l-.86,3.97c-.12,.54,.22,1.07,.76,1.19l1.95,.43c.54,.12,1.07-.23,1.19-.76l.93-4.26c1.26-.01,2.54-.18,3.75-.46l.75,2.25c.18,.53,.74,.81,1.27,.63l1.9-.64c.52-.17,.81-.74,.63-1.26l-.78-2.32c.19-.1,.39-.19,.57-.3,.77-.44,1.59-1.06,2.38-1.81l3.29,3.12c.4,.38,1.03,.36,1.41-.04l1.38-1.45c.38-.4,.36-1.03-.04-1.41l-3.44-3.26c.5-.73,.95-1.5,1.33-2.29l2.66,.69c.53,.14,1.08-.18,1.22-.71l.5-1.93c.14-.53-.18-1.08-.71-1.22m-6.53-.83c-.41,2.84-3.21,6.41-5.44,7.69-2.29,1.32-6.45,2.09-8.99,1.14-.97-.36-1.58-.93-1.86-1.74-.69-2,.66-2.85,1.28-3.12,.47-.21,1.26-.34,2.02-.47,1.19-.2,2.43-.4,3.43-1.01,1.58-.96,2.32-2.08,3.45-3.76l.11-.17c.37-.55,1.64-1.62,3.08-1.75,.91-.08,1.7,.26,2.43,1.03,.17,.18,.69,.73,.49,2.15m-29.97,7.15c-2.76,0-5-2.24-5-5,0-7.18,.69-15.51,8.84-24h10.32c3.63,3.79,5.78,7.55,7.05,11.19,.37-.99,1.22-1.78,2.32-2.02l1.11-.24c-1.56-4.09-4.1-8.22-8.22-12.34l-.41-.42v-6.17c0-1.1-.9-2-2-2h-2V7h3c.55,0,1-.45,1-1v-1.5c0-.95-.65-1.76-1.58-1.96-1.24-.26-3.29-.54-6.42-.54-4.89,0-11.86,1.35-14.2,1.83-.47,.1-.8,.5-.8,.98v1.19c0,.55,.45,1,1,1h12v2.81l4.15,.83c.32,.1,.27,.31,.25,.36h-6.4c-1.1,0-2,.9-2,2v6.17l-.41,.42c-9.3,9.3-10.59,18.67-10.59,27.41,0,4.96,4.04,9,9,9h4.11c-.17-1.24,.39-2.52,1.53-3.2l1.35-.8h-6.98Zm1-11.5c0-.83-.67-1.5-1.5-1.5s-1.5,.67-1.5,1.5,.67,1.5,1.5,1.5,1.5-.67,1.5-1.5m10.77-5.77c1.3-.77,2.42-1.43,3.8-1.6,1.47-.18,2.54,0,3.12,.14-.45-1.06-.99-2.13-1.62-3.2-.56-.01-1.17,0-1.85,.09-2.01,.24-3.52,1.14-4.97,2-1.62,.96-3.02,1.79-5.1,1.79-2.69,0-4.6-.82-5.54-1.34-.43,.95-.79,1.89-1.09,2.82,1.35,.68,3.62,1.52,6.63,1.52s4.88-1.17,6.63-2.21"/></g></g></svg>