<?xml version="1.0" encoding="UTF-8"?><svg id="Laag_1" xmlns="http://www.w3.org/2000/svg" xmlns:xlink="http://www.w3.org/1999/xlink" viewBox="0 0 64 64"><defs><style>.cls-1{fill:none;}.cls-2{clip-path:url(#clippath);}.cls-3{clip-path:url(#clippath-1);}</style><clipPath id="clippath"><rect class="cls-1" width="64" height="64"/></clipPath><clipPath id="clippath-1"><rect class="cls-1" width="64" height="64"/></clipPath></defs><g class="cls-2"><g class="cls-3"><path d="M46.42,50.77c.92,2.47,3.29,4.23,6.08,4.23,3.59,0,6.5-2.91,6.5-6.5,0-1.15-.3-2.22-.82-3.16l-11.76,5.43Z"/><path d="M14.5,40c-4.14,0-7.5,3.36-7.5,7.5s3.36,7.5,7.5,7.5,7.5-3.36,7.5-7.5-3.36-7.5-7.5-7.5m0,11c-1.93,0-3.5-1.57-3.5-3.5s1.57-3.5,3.5-3.5,3.5,1.57,3.5,3.5-1.57,3.5-3.5,3.5"/><path d="M51.69,28h2.98c1.29,0,2.4-.9,2.66-2.16l2.67-12.84h-8.84c.87,3.13,1.43,7.95,.53,15"/><path d="M61.97,40.66c-.16-.98-1.08-1.66-2.08-1.66h-1.89c-4.5-7.1-13.7-6.9-13.7-6.9l-2.7,12.9h-12.6v-12.15c-1.2-.18-4.82-.74-8.56-1.47-.32-.06-.28-.3-.25-.38h8.8s3-3.69,1.6-6.59c-1.4-2.9-12.6-.41-12.6-.41-.29-1.88-.62-3.53-.97-5h7.48c.82,0,1.49-.67,1.49-1.49v-.02c0-.82-.67-1.49-1.49-1.49h-8.31c-2-6.22-4.5-7.62-6.21-7.88-1.05-.16-1.96,.75-1.86,1.81l1.64,18.41c.13,1.51,1.4,2.78,2.91,2.78-6.02,.78-10.68,5.91-10.68,12.15v.81c0,1.61,1.31,2.92,2.93,2.92,.28-5.33,4.89-9.52,10.38-9.07,5.03,.41,8.79,4.83,8.79,9.88v1.19h20.9l13-6h2c1.22,0,2.18-1.08,1.97-2.34"/><path d="M37,16h3.25c3.04,5.7,4.16,12.16,4.31,13.9,.67,.01,2.38,.09,4.52,.61,2.2-12.8-.38-18.58-1.46-20.35-.23-.38-.69-.56-1.11-.44-3.51,1-5.7,3.11-6.7,4.28h-2.81c-.55,0-1,.45-1,1s.45,1,1,1"/></g></g></svg>