<?xml version="1.0" encoding="UTF-8"?><svg id="Laag_1" xmlns="http://www.w3.org/2000/svg" xmlns:xlink="http://www.w3.org/1999/xlink" viewBox="0 0 64 64"><defs><style>.cls-1{fill:none;}.cls-2{clip-path:url(#clippath);}.cls-3{clip-path:url(#clippath-1);}</style><clipPath id="clippath"><rect class="cls-1" width="64" height="64"/></clipPath><clipPath id="clippath-1"><rect class="cls-1" width="64" height="64"/></clipPath></defs><g class="cls-2"><g class="cls-3"><path d="M54.12,33.85c-.18-1.62-1.55-2.85-3.18-2.85h-5.8c.89,0,1.65-.7,1.72-1.58l1.36-16.33c.02-.28-.07-.56-.26-.76-.19-.21-.46-.32-.74-.32h-2.7l.94-5.89c.09-.54-.28-1.06-.83-1.14-.55-.09-1.06,.28-1.15,.83l-.99,6.2h-6.6c-.28,0-.55,.12-.74,.32-.19,.2-.28,.48-.26,.76l1.36,16.33c.07,.89,.83,1.58,1.72,1.58h-7.98c0-1.1-.89-2-2-2h-2.75v-7.12c1.62-.28,3.12-1.09,4.24-2.34,1.4-1.56,2.06-3.65,1.83-5.72l-.99-8.93c-.06-.51-.48-.89-.99-.89h-10.67c-.51,0-.94,.38-.99,.89l-.99,8.93c-.23,2.08,.44,4.17,1.83,5.72,1.11,1.24,2.61,2.06,4.24,2.34v7.12h-2.75c-1.1,0-2,.9-2,2h-4.54c-1.63,0-3,1.23-3.18,2.85l-1.28,11.55,3.21,1.6c2.01,1,4.38,1,6.39,0l.13-.06c1.94-.97,4.22-1.01,6.19-.1l4.08,1.88v14.28h6v-12.74c-1.25,.2-2.5,.13-3.49-.36-.29-.14-.4-.35-.43-.53,1.38,.22,2.81,.04,4.11-.56l4.26-1.97c1.99-.92,4.29-.87,6.24,.12,2,1.02,4.37,1.04,6.39,.05l3.33-1.63-1.28-11.55Zm-7.98-19.85l-.67,8h-7.83l-.67-8h9.16ZM28.44,6l.78,7h-10.43l.78-7h8.88Z"/></g></g></svg>