<?xml version="1.0" encoding="UTF-8"?><svg id="Laag_1" xmlns="http://www.w3.org/2000/svg" xmlns:xlink="http://www.w3.org/1999/xlink" viewBox="0 0 64 64"><defs><style>.cls-1{fill:none;}.cls-2{clip-path:url(#clippath);}.cls-3{clip-path:url(#clippath-1);}</style><clipPath id="clippath"><rect class="cls-1" width="64" height="64"/></clipPath><clipPath id="clippath-1"><rect class="cls-1" width="64" height="64"/></clipPath></defs><g class="cls-2"><g class="cls-3"><path d="M32,12.85c3.14,0,4.95-2.18,4.95-5.31,0-3.57-1.9-5.49-4.95-5.49-3.22,0-4.95,2.26-4.95,5.49,0,3.4,1.82,5.31,4.95,5.31"/><path d="M36.08,15.4c-2.12-.45-4.79-.54-7.41-.11-7.82,1.27-20.61,8.56-20.61,8.56,0,0,1.53,2.8,5.29,1.45,4.81-1.72,8.09-2.91,11.7-3.87l.48,13.36-8.44,25.6s5.27,2.08,7.07-2.7c1.84-4.85,7.01-17.87,7.18-18.24,.13-.28,.35-.49,.65-.49s.53,.2,.66,.5c.15,.35,5.26,13.47,7.18,18.23,1.9,4.74,7.07,2.7,7.07,2.7l-8.44-25.62,.49-13.35c3.6,.96,6.89,2.15,11.7,3.87,3.76,1.35,5.29-1.45,5.29-1.45,0,0-12.03-6.76-19.86-8.44"/></g></g></svg>