<?xml version="1.0" encoding="UTF-8"?><svg id="Laag_1" xmlns="http://www.w3.org/2000/svg" xmlns:xlink="http://www.w3.org/1999/xlink" viewBox="0 0 64 64"><defs><style>.cls-1{fill:none;}.cls-2{clip-path:url(#clippath);}.cls-3{clip-path:url(#clippath-1);}</style><clipPath id="clippath"><rect class="cls-1" width="64" height="64"/></clipPath><clipPath id="clippath-1"><rect class="cls-1" width="64" height="64"/></clipPath></defs><g class="cls-2"><g class="cls-3"><path d="M41.02,23.3s-7.77-2.55-11.17-3.7c-2.28-.77-3.85-3.04-3.85-5.6,0-3.31,2.69-6,6-6s6,2.69,6,6v3c0,1.66,1.34,2,3,2s2.99-.34,2.99-2v-3c0-6.7-5.26-12-11.99-12s-12,5.23-12,12V50c0,6.61,5.39,12,12,12s12-5.29,12-12V27.37c0-1.86-1.2-3.51-2.98-4.08m.36,16.37c-1.82,2.44-2.19,3.22-2.89,4.86-.6,1.41-1.23,2.87-2.57,4.04-1.11,.97-2.72,1.53-4.4,1.53-2.48,0-4.63-1.22-5.76-3.25-.75-1.36-.87-3.13-.87-6.85l.06-6.13c.02-.54,.49-.96,1.02-.97,.55,0,.98,.41,1.01,.94l.08,5.16c.29-.17,.52-.29,.8-.41l.12-7.72c.01-.54,.48-.96,1.01-.97,.55,0,.98,.42,1.01,.94l.08,7.12c.27-.05,.54-.09,.81-.12l.09-7.97c.01-.54,.45-.97,.98-.97,.55,0,.99,.42,1.02,.94l.11,7.9c.3,0,.56,.02,.8,.04l.09-6.9c.01-.54,.46-.97,1-.98,.55,0,.99,.42,1.02,.95l.11,9.15c.02,.35,0,1.17,.3,1.35,.15,.09,.43,.08,.7-.25,.97-1.2,1.49-1.88,2.36-2.68,.55-.5,1.4-.94,1.97-.46,.18,.15,.7,.71-.05,1.71"/></g></g></svg>