<?xml version="1.0" encoding="UTF-8"?>
<svg id="Zwart" xmlns="http://www.w3.org/2000/svg" viewBox="0 0 64 64">
  <path d="M32,8c-13.25,0-24,10.75-24,24,0,.44.01.87.04,1.31,1.8-1.42,3.85-2.43,6.03-2.99-.46-.5-.8-1.1-.99-1.75l-.41-1.4s-.03-.06-.04-.1c2.09-8.18,9.22-14.36,17.88-15l1.04,3.41-.84.81c-.59.57-.34,1.5-.55,2.31l-.84.44-1.34-1.64.63-2.34c.06-.47-.17-.96-.58-1.23-.48-.31-1.09-.25-1.46.15l-.55.6.37,2.22-.14.37-1.11-.75-.09-1.42-1.37-.26s-.17,1.11-.62,1.38c-.45.26-1.53-.09-1.75.62-.31,1.01.58.47.45,2.72l-.04.74.73-.33.26-.88.68-.17c.64-.15.1-1.67.67-1.97l2.77,2.62s1,2.53.45,3.2c-.54.67-2.38-.35-2.38-.35,0,0-.28,1.65-1.97,1.7-1.87.06-2.06,1.92-2.06,1.92,0,0-1.74.39-1.8.99-.07.6.32,2.01-.18,2.08-.5.07-.52.22-.72-.44-.2-.66-.19-1.68-.64-2.35-.45-.67-1.31-1.2-2.03-.76-.72.44-1.19,2.76-.27,3.03.93.27,1.35-.24,1.76.54.1.19.14.47.15.8.31-.02.62-.05.94-.05,4.34,0,8.38,1.71,11.34,4.79,5.94,5.94,6.36,14.99,1.28,21.38.43.02.87.04,1.3.04,13.25,0,24-10.75,24-24s-10.75-24-24-24ZM33.87,15.66c1.38.34,1.78-1.54,2.88-1.59l.5,1.41s-.4,2.08-1.06,2.26c-.66.18-2.56-.92-2.56-.92l.24-1.15ZM48.63,39.91s-.22,1.56-.95,2.87c-.29.51-1.07.78-1.42,1.28-.63.9-.45,2.49-1.17,2.85-1.29.63-2.78.92-3.13.59-.49-.47-1.58-2.45-1.58-3.11v-4.75c0-.85-1.14-2.87-1.14-2.87,0,0-2.69-.02-3.72-.02s-2.6-1.48-2.6-1.48c0,0-.87-2.9,0-4.7.87-1.81,2.2-1.99,2.2-1.99l4.61-.93,2.64,1.55,3.52.67.97,1.33,1.57,2.21,1.88-.79-1.88-1.88-1.19-2.15s1.54-1.54,1.11-2.36c-.43-.82-2.83.51-3.31-.2-.48-.72-.05-3.16-.05-3.16l-2.98-1.23s-.93-.02-.85.68c.09.79,2.26,2.04,2.08,2.39-.16.32-.7.09-.7.09l-.82,1.45-1.72-.39s1.31-.5,1.47-.97c.16-.48-1.93-2.19-1.93-2.19l-1.16.26-.53,2.11-1.4,1.23-1.75.25.07-1.28-.64-.22.84-2.08,1.81.15s.67-1.74.53-2.32c-.26-1.11-1.42-1.24-1.42-1.68s1.25-.43,1.86-1.05c.35-.35,1.31-3.29,2.02-4.52,7.18,3.04,12.23,10.15,12.23,18.43,0,2.57-.5,5.02-1.39,7.27-1.01.45-1.98.64-1.98.64Z"/>
  <path d="M27.86,36.14c-5.32-5.52-14.2-5.52-19.72,0-5.52,5.32-5.52,14.2,0,19.72,5.32,5.52,14.2,5.52,19.72,0,5.52-5.52,5.52-14.2,0-19.72ZM10.05,48.28c-.25.63-2.15-.89-2.66-1.14-.51-.25-1.37-1.76-.89-2.4.38-.51,1.77.76,2.53,1.39.76.63,1.26,1.52,1.01,2.15ZM16.57,55.44c-.9.34-1.7-.9-2.94-1.92-1.24-1.02-1.47-3.17-1.47-4.41,0,0,1.58-.68,1.47.23-.11.9.34,2.26,1.24,3.05.9.79,2.6,2.71,1.7,3.05ZM23.32,36.54c1.82-.21,1.29,3.43.32,4.18-.97.75-3.53-1.46-3.75-2.15-.21-.64,1.61-1.82,3.43-2.04ZM18.86,42.32c0-.53.86-.75,1.39-.75s.97.43.97.97-.22,1.07-.75,1.07-1.61-.75-1.61-1.29ZM21.49,57.87c-.89-.13,0-1.9-.63-2.66-.63-.76-1.65-1.43-1.14-2.28.38-.63,2.53,1.01,2.91,1.77.38.76-.25,3.29-1.14,3.16ZM23.37,46.5c-.71,0-1.23-.42-1.23-1.13s.42-1.72,1.13-1.72,1.29.63,1.29,1.34-.47,1.5-1.18,1.5Z"/>
</svg>