<?xml version="1.0" encoding="UTF-8"?><svg id="Laag_1" xmlns="http://www.w3.org/2000/svg" xmlns:xlink="http://www.w3.org/1999/xlink" viewBox="0 0 64 64"><defs><style>.cls-1{fill:none;}.cls-2{clip-path:url(#clippath);}.cls-3{clip-path:url(#clippath-1);}</style><clipPath id="clippath"><rect class="cls-1" width="64" height="64"/></clipPath><clipPath id="clippath-1"><rect class="cls-1" width="64" height="64"/></clipPath></defs><g class="cls-2"><g class="cls-3"><path d="M53.04,51.49l3.34-.9c.56-.15,.94-.69,.9-1.27-.02-.3-.15-.57-.35-.77-.19-.19-.44-.32-.72-.35l-8.66-1.02c-.37-.04-.74,.08-1.01,.35-.26,.26-.39,.63-.35,1.01l1.02,8.66c.07,.58,.54,1.03,1.12,1.07,.58,.04,1.11-.33,1.27-.89l.91-3.33,4.4,4.4c.69,.69,1.5,.3,2.17-.38,.67-.67,1.07-1.48,.37-2.17l-4.41-4.41Zm-5.5-34.64l8.66-1.02c.28-.03,.53-.16,.72-.35,.2-.2,.33-.47,.35-.77,.04-.58-.33-1.11-.9-1.27l-3.34-.9,4.41-4.41c.69-.69,.3-1.5-.37-2.17-.68-.67-1.48-1.07-2.17-.38l-4.4,4.4-.91-3.33c-.15-.56-.69-.94-1.27-.9-.58,.04-1.05,.49-1.12,1.07l-1.02,8.66c-.04,.37,.08,.74,.35,1.01s.63,.39,1.01,.35m-23,11.88c.43,3.55,2.2,5.63,4.39,7.47,.58,.49,1.62,.74,2.7,.79,.1,.18,.1,.39-.29,.51-.65,.21-2.68,.52-4.88-.62-.02,0-.03-.02-.05-.03-1.64,.44-7.29,2.06-9.05,3.91-.78,.82-1.38,2.49-1.82,4.24H48.46c-.44-1.75-1.03-3.42-1.81-4.24-1.59-1.67-6.49-3.15-8.68-3.75-.59-.16-.98-.66-1.11-1.25-.12-.52-.18-1.12-.18-1.12,1.39-1.55,2.42-3.43,2.77-5.91,1.33-.41,1.6-2.07,1.6-3.1s-.18-1.59-.55-1.77c-.18-.08-.46-.08-.61-.05,.13-2.16,.27-6.43-.63-8.03-.98-1.75-2.19-2.21-4.47-1.64-1.49-.79-2.51-1.58-5.13-.86-1.82,.49-3.71,1.3-4.76,2.65-1.13,1.46-.91,5.7-.72,7.89-.17-.05-.47-.05-.67,.04-.37,.17-.55,.73-.55,1.77s.27,2.69,1.6,3.1m-8.09,18.45l-8.66,1.02c-.28,.03-.53,.16-.72,.35-.2,.2-.33,.47-.35,.77-.04,.58,.33,1.11,.89,1.27l3.34,.9-4.41,4.41c-.69,.69-.3,1.5,.37,2.17,.68,.68,1.48,1.07,2.17,.38l4.4-4.4,.91,3.33c.15,.56,.69,.94,1.27,.89,.58-.04,1.05-.49,1.12-1.07l1.02-8.66c.04-.37-.08-.74-.35-1.01-.26-.26-.63-.39-1-.35M10.96,12.55l-3.34,.9c-.56,.15-.94,.69-.89,1.27,.02,.3,.15,.57,.35,.77,.19,.19,.44,.32,.72,.35l8.66,1.02c.37,.04,.74-.09,1-.35,.27-.26,.39-.63,.35-1.01l-1.02-8.66c-.07-.58-.54-1.03-1.12-1.07-.58-.04-1.11,.33-1.27,.9l-.91,3.33-4.4-4.4c-.69-.69-1.5-.3-2.17,.38-.67,.68-1.07,1.48-.37,2.17l4.41,4.41Z"/></g></g></svg>