<?xml version="1.0" encoding="UTF-8"?><svg id="Laag_1" xmlns="http://www.w3.org/2000/svg" xmlns:xlink="http://www.w3.org/1999/xlink" viewBox="0 0 64 64"><defs><style>.cls-1{fill:none;}.cls-2{clip-path:url(#clippath);}.cls-3{clip-path:url(#clippath-1);}</style><clipPath id="clippath"><rect class="cls-1" width="64" height="64"/></clipPath><clipPath id="clippath-1"><rect class="cls-1" width="64" height="64"/></clipPath></defs><g class="cls-2"><g class="cls-3"><path d="M13.99,45.91c-1,.27-2.56,.67-4.32-.65-1.18-.89-1.88-2.29-1.88-3.76,0-1.77,1.01-3.33,2.31-4.05l8.33-4.6c-1.69-1.16-3.74-1.85-5.94-1.85-5.8,0-10.5,4.7-10.5,10.5s4.7,10.5,10.5,10.5c5.22,0,9.55-3.82,10.35-8.82-.78,.24-7.88,2.46-8.86,2.73"/><path d="M56.15,32.1l-5.15,4.95c.17-.02,.33-.05,.5-.05,2.48,0,4.5,2.02,4.5,4.5s-2.02,4.5-4.5,4.5-4.5-2.01-4.5-4.5c0-.23,.03-.45,.07-.67l-4.2,4.03c-.34,.33-.62,.72-.85,1.14,1.69,3.54,5.29,6,9.47,6,5.8,0,10.5-4.7,10.5-10.5,0-4.13-2.39-7.69-5.85-9.4"/><path d="M55.89,20.89c-2.1-2.56-6.21-6.22-10.37-8.16-.98-.46-1.93,.69-1.32,1.58,1.65,2.43,4.42,7.56,3.43,9.64-1.19,2.5-7.27,3.58-10.48,4.77-3.05,1.13-5.17,2.4-6.29,4.49-.95,1.8-.7,4.64-.49,5.85-.04,.03-.23,.07-.34-.13-.59-1.03-1.45-3.08-.99-5.48,.56-2.99,3.39-5.46,6.78-6.67,4.61-1.64,9.38-2.41,9.22-4.35-.12-1.49-10.54-7.5-17.04,1.56l-12.12-.88-.58-2.07c-.18-.64-.72-1.11-1.38-1.2l-6.5-1.03c-1.59-.23-2.5,1.18-2.5,2.79,0,1.12,.36,2.15,1.42,2.5l11.1,3.75c2.55,.86,4.62,2.58,5.95,4.77l-12.21,6.75h0c-.71,.45-1.18,1.23-1.18,2.12,0,1.61,1.53,2.87,3.19,2.39,0,0,7.84-2.44,11.81-3.69v4.26c0,1.95,1.58,3.53,3.53,3.53h8.88c.99,0,1.85-.67,2.1-1.62,.31-1.18,.94-2.26,1.82-3.1l13.34-12.83c2.78-2.67,3.64-6.58,1.2-9.56"/></g></g></svg>