<?xml version="1.0" encoding="UTF-8"?><svg id="Laag_1" xmlns="http://www.w3.org/2000/svg" xmlns:xlink="http://www.w3.org/1999/xlink" viewBox="0 0 64 64"><defs><style>.cls-1{fill:none;}.cls-2{clip-path:url(#clippath);}.cls-3{clip-path:url(#clippath-1);}</style><clipPath id="clippath"><rect class="cls-1" width="64" height="64"/></clipPath><clipPath id="clippath-1"><rect class="cls-1" width="64" height="64"/></clipPath></defs><g class="cls-2"><g class="cls-3"><path d="M10.99,41.34c-4.86-1.13-6.41,1.68-6.86,5.6-.05,.41-.08,.95-.11,1.66-.03,.87,.3,1.72,.94,2.3,2.56,2.32,5.56,4.3,8.89,5.85,1.37,.64,2.94-.36,3-1.87,.07-1.98,.12-4.03,.07-5.36-.2-4.78-.9-7.01-5.93-8.18"/><path d="M46.19,32.79c-.06,3.9,1.96,6.02,5.25,6.07,3.47,.05,5.37-2.4,5.42-5.92,.05-3.71-1.87-5.83-5.25-5.88-3.38-.05-5.37,2.3-5.42,5.73"/><path d="M58.88,46.94c-.46-3.92-2.01-6.73-6.87-5.6-5.02,1.17-5.73,3.4-5.92,8.18-.06,1.33,0,3.38,.07,5.36,.06,1.51,1.63,2.51,3,1.87,3.33-1.56,6.33-3.54,8.89-5.86,.64-.58,.97-1.43,.94-2.3-.03-.71-.06-1.26-.11-1.67"/><path d="M33,4h23V20h-17.6c-.58,.57-1.26,1.06-2.03,1.43l-1.18,.57h21.8c.55,0,1-.45,1-1V3c0-.55-.45-1-1-1h-25c-.55,0-1,.45-1,1V13.96c.71-.22,1.39-.43,2-.62V4Z"/><path d="M25.77,33.15l1.16-8.58c.09-.69,.53-1.3,1.16-1.6l7.33-3.53c2.08-1,3.28-3.24,2.96-5.53,0,0-6.85,2.31-16.54,5-6.93,1.93-9.25,4.59-10.01,5.96,2.06,.08,3.84,.85,5.14,2.26,1.3,1.42,2.01,3.36,2.04,5.62,.01,.92-.08,1.79-.26,2.58,4.15-1.74,7.02-2.19,7.02-2.19"/><path d="M11.56,38.86c3.29-.05,5.3-2.17,5.25-6.07-.05-3.42-2.04-5.77-5.42-5.73-3.38,.05-5.3,2.17-5.25,5.88,.05,3.52,1.95,5.97,5.42,5.92"/><polygon points="51.5 8.93 45.99 13.92 38.94 7.5 35 10.16 35 12.57 38.76 10.04 45.99 16.63 52.84 10.41 51.5 8.93"/><path d="M26.17,38.86c-.18,3.71,1.67,5.89,5.05,6.05,3.38,.16,5.44-2.12,5.6-5.54,.19-3.9-1.76-6.09-5.04-6.24-3.46-.17-5.44,2.22-5.61,5.73"/><path d="M31.5,47c-5.44,0-6.92,2.24-7.28,7.15-.08,1.03-.12,2.46-.16,4.03-.02,1.03,.74,2.16,1.76,2.3,1.84,.24,3.74,.37,5.66,.37s3.85-.13,5.7-.38c1.02-.14,1.77-1.27,1.75-2.3-.03-1.57-.08-3-.16-4.03-.36-4.91-1.84-7.15-7.28-7.15"/><path d="M21.09,16.91c2.98-.04,4.81-1.97,4.75-5.5-.05-3.1-1.85-5.23-4.91-5.19-3.06,.04-4.81,1.97-4.76,5.33,.05,3.19,1.77,5.41,4.91,5.36"/></g></g></svg>