<?xml version="1.0" encoding="UTF-8"?><svg id="Laag_1" xmlns="http://www.w3.org/2000/svg" xmlns:xlink="http://www.w3.org/1999/xlink" viewBox="0 0 64 64"><defs><style>.cls-1{fill:none;}.cls-2{clip-path:url(#clippath);}.cls-3{clip-path:url(#clippath-1);}</style><clipPath id="clippath"><rect class="cls-1" width="64" height="64"/></clipPath><clipPath id="clippath-1"><rect class="cls-1" width="64" height="64"/></clipPath></defs><g class="cls-2"><g class="cls-3"><path d="M59.87,7.47c.06-.91-.24-1.83-.93-2.53-1.65-1.65-4.45-1.07-5.31,1.09-.15-.01-.24-.17-.15-.49,.25-.94,.91-1.71,1.67-2.31-5.33-3.05-11.99-2.53-16.25,1.73-1.69,1.69-3.71,4.26-3.71,10.77,0,1.59-.63,3.12-1.76,4.24l-6.02,6.02c-.39,.39-.39,1.02,0,1.41l1.41,1.42,2.12-2.12c.75-.76,2.07-.76,2.83,0l3.53,3.54c.78,.78,.78,2.05,0,2.83l-2.12,2.12,1.41,1.41c.39,.39,1.02,.39,1.42,0l6.02-6.02c1.12-1.12,2.65-1.76,4.24-1.76,3.7,0,7.3-.24,10.77-3.71,2.53-2.53,3.83-5.97,3.67-9.67-.12-2.86-1.13-5.62-2.85-7.96m-20.45,17.81c-.59,.59-1.54,.59-2.12,0-.31-.31-.44-.72-.42-1.13l-.99-.99c-.39-.39-.39-1.02,0-1.41,.39-.39,1.02-.39,1.41,0l.99,.99c.41-.02,.82,.11,1.13,.43,.59,.59,.59,1.53,0,2.12m16.44-3.36c-1.63,1.63-3.87,2.46-6.3,2.36-2.51-.11-4.92-1.2-6.79-3.06-3.8-3.8-4.12-9.67-.71-13.08,1.58-1.58,3.7-2.37,5.89-2.37,1.85,0,3.76,.56,5.45,1.66,.1,1.68,1.41,2.97,3.08,3.04,1.04,1.55,1.65,3.32,1.73,5.15,.11,2.43-.73,4.67-2.36,6.3"/><path d="M32.35,35.18l3.53-3.53-3.53-3.54-3.54,3.54-2.83-2.83c-.39-.39-1.02-.39-1.42,0l-4.61,4.61c-1.13,1.12-2.65,1.76-4.24,1.76-6.55,0-9.05,1.99-10.77,3.71-2.53,2.53-3.83,5.96-3.67,9.67,.12,2.86,1.13,5.62,2.85,7.96-.14,2.01,1.5,3.62,3.5,3.45,2.55,1.81,5.5,2.74,8.4,2.74,3.35,0,6.61-1.22,9.07-3.68,1.68-1.69,3.71-4.26,3.71-10.77,0-1.59,.63-3.12,1.76-4.24l4.61-4.61c.39-.39,.39-1.02,0-1.41l-2.83-2.83Zm-10.43,20.68c-2.93,2.92-7.65,3.1-11.34,.7-.05-.77-.35-1.52-.93-2.1-1.32-1.32-3.59-1.32-4.85,.32h-.01c-.16-.03-.22-.2-.09-.51,.4-.91,1.19-1.58,2.05-2.07-.58-1.21-.92-2.5-.97-3.83-.11-2.43,.73-4.67,2.36-6.3,1.53-1.54,3.61-2.37,5.89-2.37,.14,0,.27,0,.41,0,2.51,.11,4.92,1.2,6.78,3.06,3.8,3.8,4.12,9.67,.71,13.08m6.19-13.61c-.39,.39-1.02,.39-1.41,0l-.99-.99c-.41,.02-.82-.11-1.13-.43-.58-.59-.58-1.53,0-2.12,.59-.59,1.54-.59,2.12,0,.31,.31,.44,.72,.43,1.13l.99,.99c.39,.39,.39,1.02,0,1.41"/></g></g></svg>