<?xml version="1.0" encoding="UTF-8"?>
<svg id="Zwart" xmlns="http://www.w3.org/2000/svg" viewBox="0 0 64 64">
  <path d="M62.81,54.46c-.26-.79-2.51-2.12-3.36-2.85-1.21-1.03-4.73-6.19-5.95-8.13-1.21-1.94-.57-3.14-1.33-3.7-1.09-.79-5.03-3.89-6.43-4.07-1.57-.2-6.31-.3-7.22-.49-.91-.18-2.1-1.08-3.01-1.26s-4.7-.56-5.73-1.04c-1.03-.49-7.04-5.89-8.19-7.04-1.15-1.15-3.03-4.02-3.28-5.4-.3-1.68,0-4.49-.42-5.95-.42-1.46-2.06-4.25-3.22-4.85-1.15-.61-2.33-.36-3.09-.76-1.42-.74-6.43-4.52-7.28-4.58-.65-.05-1.76,1.15-1.58,1.64.18.49,1.61,1.67,1.33,1.94-.53.53-.18,1.99-.06,2.42.12.42-.36,1.56-.24,2.22.12.67.12,2.37,1.01,4.21.19.4-1.32,1.22-1.14,1.89.18.67,1.78,3.34,3.74,3.88.8.22,3.22,2.53,3.34,3.56.08.72,1.05,1.38,1.81,2.14.06.06.05.44.11.5.26.28.55.25.69.57.55,1.27-.46,2.83,2.21,4.16,2.67,1.33,2.36-.8,3.4-1.22,1.03-.42,4,1.46,4.37,2.91.36,1.46.22,1.42,1.15,2.26,1.28,1.15.74,2.85,1.77,3.64.23.17.46.36.69.54.2.16.55.09.75.24.21.15.26.51.46.63.41.24.8.4,1.16.4.23,0,.4-.11.55-.29.14-.18-.2-.77-.13-1.01.15-.47.65-.58.65-.58l.6.56s-.99,1.77-.54,2.29c.17.2,2.49,1.58,2.92,1.8s.65-.27.95-.72c.28-.41.41-.7.46-1.06.04-.28-.13-.55-.39-.65l-.83-.32s.08-.36.22-.61c.11-.2,1.28-.22,1.37-.08.17.26.12.67.14.72.06.17.61.03.73-.03.12-.06-.25-.88.36-1.39.3-.25,1.25-.51,1.34-.48.16.06.29.24.35.43.04.12-.32.68-.33.69-.23.17-.76.11-.73.42.01.11.11.2.25.21.14.01.21-.02.34.04.17.09.25.54.12.62-.19.12-.71-.06-.88.06-.17.12.19.56-.08.58-.82.08-.69-.46-.79-.52-.2-.12-.39.03-.53.14-.14.11-.14.45-.2.73-.06.28-.38,1.19-.38,1.19-.1.3.09.61.39.69.34.09.68.15,1.02.19,2.73.3,6.49,4.31,7.22,4.31.35,0,.61-.3.93-.79.1-.16.49-.09.57-.24.03-.05-.1-.52-.08-.57.15-.29.25-.5.25-.5,0,0,.11-.03.28-.08.11-.03.2.72.36.68.04,0,.92-.37,1-.38.13-.02.08.2.2.19.13-.01.28-.74.39-.74.22,0,.55-.07.64,0,.46.39.22,1.85.02,2.11-.2.25-2.39-.07-2.39-.07,0,0-.54.75-.35,1.12.11.22,1.35.67,2.49,1.12.4.16.82-.05,1.15.09.31.14.53.63.67.73,1.12.84,3.37,2.56,5.13,2.39,1.01-.1,1.81-1.21,2.97-1.21.94,0,2.39.74,3.37.51.23-.05.24-.31.3-.47.17-.4,1.69.37,1.48-.24Z"/>
</svg>